G04 EAGLE Gerber RS-274X export*
G75*
%MOMM*%
%FSLAX34Y34*%
%LPD*%
%INTop Copper*%
%IPPOS*%
%AMOC8*
5,1,8,0,0,1.08239X$1,22.5*%
G01*
%ADD10C,1.790700*%
%ADD11C,2.400300*%
%ADD12C,1.508000*%
%ADD13R,1.508000X1.508000*%
%ADD14C,4.066000*%
%ADD15R,1.800000X0.700000*%
%ADD16R,2.200000X1.600000*%
%ADD17C,1.700000*%
%ADD18C,0.762000*%
%ADD19C,0.756400*%
%ADD20C,0.152400*%
%ADD21C,2.032000*%
%ADD22C,1.270000*%


D10*
X431800Y912876D03*
X404114Y912876D03*
X376428Y912876D03*
X348742Y912876D03*
X321056Y912876D03*
X293370Y912876D03*
X265684Y912876D03*
X459486Y912876D03*
X487172Y912876D03*
X514858Y912876D03*
X542544Y912876D03*
X570230Y912876D03*
X597916Y912876D03*
X279527Y941324D03*
X307213Y941324D03*
X334899Y941324D03*
X362585Y941324D03*
X390271Y941324D03*
X417957Y941324D03*
X445643Y941324D03*
X473329Y941324D03*
X501015Y941324D03*
X528701Y941324D03*
X556387Y941324D03*
X584073Y941324D03*
D11*
X667004Y927100D03*
X196596Y927100D03*
D12*
X161650Y274090D03*
X189350Y274090D03*
X217050Y274090D03*
X244750Y274090D03*
X258600Y302490D03*
X230900Y302490D03*
X203200Y302490D03*
X175500Y302490D03*
D13*
X147800Y302490D03*
D14*
X78250Y288290D03*
X328150Y288290D03*
D12*
X644250Y274090D03*
X671950Y274090D03*
X699650Y274090D03*
X727350Y274090D03*
X741200Y302490D03*
X713500Y302490D03*
X685800Y302490D03*
X658100Y302490D03*
D13*
X630400Y302490D03*
D14*
X560850Y288290D03*
X810750Y288290D03*
D15*
X59800Y534800D03*
X59800Y547300D03*
D16*
X26800Y511300D03*
X26800Y733300D03*
D15*
X59800Y559800D03*
X59800Y572300D03*
X59800Y584800D03*
X59800Y597300D03*
X59800Y609800D03*
X59800Y622300D03*
X59800Y634800D03*
X59800Y647300D03*
X59800Y659800D03*
X59800Y672300D03*
X59800Y684800D03*
X59800Y697300D03*
X59800Y709800D03*
D17*
X824500Y697100D03*
X824500Y662100D03*
X824500Y627100D03*
X824500Y592100D03*
X824500Y557100D03*
X824500Y522100D03*
D18*
X75400Y572300D02*
X59800Y572300D01*
X75400Y572300D02*
X76200Y571500D01*
D19*
X76200Y571500D03*
D18*
X59800Y634800D02*
X60000Y635000D01*
X76200Y635000D01*
D19*
X76200Y635000D03*
D18*
X59800Y684800D02*
X60800Y685800D01*
X76200Y685800D01*
D19*
X76200Y685800D03*
D20*
X611910Y302490D02*
X630400Y302490D01*
X422712Y491688D02*
X279400Y491688D01*
D19*
X279400Y491688D03*
X279400Y635000D03*
D20*
X422712Y491688D02*
X611910Y302490D01*
X279400Y635000D02*
X217100Y697300D01*
X59800Y697300D01*
D19*
X293266Y671934D03*
D20*
X513943Y892612D01*
X558800Y892612D01*
X570230Y904042D01*
X570230Y912876D01*
X631546Y274090D02*
X644250Y274090D01*
X423036Y482600D02*
X304800Y482600D01*
D19*
X304800Y482600D03*
X295712Y635000D03*
D20*
X423036Y482600D02*
X631546Y274090D01*
X295712Y635000D02*
X220912Y709800D01*
X59800Y709800D01*
D19*
X304800Y660400D03*
D20*
X520700Y876300D01*
X561340Y876300D02*
X597916Y912876D01*
X561340Y876300D02*
X520700Y876300D01*
X245900Y275240D02*
X244750Y274090D01*
X245900Y275240D02*
X245900Y495300D01*
D19*
X245900Y495300D03*
X245900Y635000D03*
D20*
X245900Y647427D01*
X221027Y672300D01*
X59800Y672300D01*
D19*
X245900Y838200D03*
D20*
X293370Y885670D01*
X293370Y912876D01*
X230900Y495300D02*
X230900Y302490D01*
D19*
X230900Y495300D03*
X230900Y635000D03*
D20*
X230900Y641213D01*
X212313Y659800D01*
X59800Y659800D01*
D19*
X230900Y723900D03*
D20*
X370600Y863600D01*
X465582Y863600D02*
X514858Y912876D01*
X465582Y863600D02*
X370600Y863600D01*
D21*
X824500Y557100D02*
X824500Y522100D01*
X741200Y302490D02*
X713500Y302490D01*
X713500Y287940D01*
X727350Y274090D01*
X741200Y287940D02*
X741200Y302490D01*
X741200Y287940D02*
X727350Y274090D01*
X802200Y534800D02*
X811800Y534800D01*
X824500Y522100D01*
X824500Y413490D01*
X713500Y302490D01*
X802200Y534800D02*
X824500Y557100D01*
D22*
X59800Y559800D02*
X59800Y547300D01*
X59800Y534800D01*
D21*
X59800Y547300D02*
X72300Y534800D01*
X789500Y534800D01*
X802200Y534800D01*
D20*
X152400Y495300D02*
X152400Y307090D01*
X147800Y302490D01*
D19*
X152400Y495300D03*
X152400Y558800D03*
D20*
X126400Y584800D02*
X59800Y584800D01*
X126400Y584800D02*
X152400Y558800D01*
D19*
X152400Y723900D03*
D20*
X152400Y731429D01*
X320923Y899952D01*
X363504Y899952D01*
X376428Y912876D01*
X161650Y495138D02*
X161650Y274090D01*
X161650Y495138D02*
X161488Y495300D01*
D19*
X161488Y495300D03*
X161488Y558800D03*
D20*
X161488Y562564D01*
X126752Y597300D02*
X59800Y597300D01*
X126752Y597300D02*
X161488Y562564D01*
D19*
X161488Y723900D03*
D20*
X161488Y727664D01*
X324688Y890864D01*
X437474Y890864D02*
X459486Y912876D01*
X437474Y890864D02*
X324688Y890864D01*
D22*
X819700Y622300D02*
X824500Y627100D01*
X819700Y622300D02*
X660400Y622300D01*
X658100Y493000D02*
X658100Y302490D01*
X658100Y493000D02*
X660400Y495300D01*
D19*
X660400Y495300D03*
X660400Y558800D03*
D22*
X660400Y622300D01*
X59800Y622300D01*
X473329Y941324D02*
X477217Y941324D01*
X501093Y965200D01*
X584200Y965200D01*
X660400Y889000D02*
X660400Y622300D01*
X660400Y889000D02*
X584200Y965200D01*
D20*
X215900Y315190D02*
X203200Y302490D01*
X215900Y315190D02*
X215900Y495300D01*
D19*
X215900Y495300D03*
X215900Y635000D03*
D20*
X203200Y647700D01*
X60200Y647700D02*
X59800Y647300D01*
X60200Y647700D02*
X203200Y647700D01*
D19*
X215900Y723900D03*
D20*
X364688Y872688D01*
X446984Y872688D02*
X487172Y912876D01*
X446984Y872688D02*
X364688Y872688D01*
D19*
X170576Y495300D03*
X170576Y558800D03*
D20*
X170576Y566329D01*
X127105Y609800D02*
X59800Y609800D01*
X127105Y609800D02*
X170576Y566329D01*
X170576Y307414D02*
X175500Y302490D01*
X170576Y307414D02*
X170576Y495300D01*
D19*
X170576Y723900D03*
D20*
X328452Y881776D01*
X475933Y917532D02*
X482516Y924116D01*
X475933Y913427D02*
X444281Y881776D01*
X475933Y913427D02*
X475933Y917532D01*
X482516Y924116D02*
X519514Y924116D01*
X530753Y912876D01*
X542544Y912876D01*
X444281Y881776D02*
X328452Y881776D01*
M02*
