G04 EAGLE Gerber RS-274X export*
G75*
%MOMM*%
%FSLAX34Y34*%
%LPD*%
%INSoldermask Top*%
%IPPOS*%
%AMOC8*
5,1,8,0,0,1.08239X$1,22.5*%
G01*
%ADD10C,1.993900*%
%ADD11C,2.603500*%
%ADD12C,1.711200*%
%ADD13R,1.711200X1.711200*%
%ADD14C,4.269200*%
%ADD15R,2.003200X0.903200*%
%ADD16R,2.403200X1.803200*%
%ADD17C,1.903200*%
%ADD18C,0.959600*%


D10*
X431800Y912876D03*
X404114Y912876D03*
X376428Y912876D03*
X348742Y912876D03*
X321056Y912876D03*
X293370Y912876D03*
X265684Y912876D03*
X459486Y912876D03*
X487172Y912876D03*
X514858Y912876D03*
X542544Y912876D03*
X570230Y912876D03*
X597916Y912876D03*
X279527Y941324D03*
X307213Y941324D03*
X334899Y941324D03*
X362585Y941324D03*
X390271Y941324D03*
X417957Y941324D03*
X445643Y941324D03*
X473329Y941324D03*
X501015Y941324D03*
X528701Y941324D03*
X556387Y941324D03*
X584073Y941324D03*
D11*
X667004Y927100D03*
X196596Y927100D03*
D12*
X161650Y274090D03*
X189350Y274090D03*
X217050Y274090D03*
X244750Y274090D03*
X258600Y302490D03*
X230900Y302490D03*
X203200Y302490D03*
X175500Y302490D03*
D13*
X147800Y302490D03*
D14*
X78250Y288290D03*
X328150Y288290D03*
D12*
X644250Y274090D03*
X671950Y274090D03*
X699650Y274090D03*
X727350Y274090D03*
X741200Y302490D03*
X713500Y302490D03*
X685800Y302490D03*
X658100Y302490D03*
D13*
X630400Y302490D03*
D14*
X560850Y288290D03*
X810750Y288290D03*
D15*
X59800Y534800D03*
X59800Y547300D03*
D16*
X26800Y511300D03*
X26800Y733300D03*
D15*
X59800Y559800D03*
X59800Y572300D03*
X59800Y584800D03*
X59800Y597300D03*
X59800Y609800D03*
X59800Y622300D03*
X59800Y634800D03*
X59800Y647300D03*
X59800Y659800D03*
X59800Y672300D03*
X59800Y684800D03*
X59800Y697300D03*
X59800Y709800D03*
D17*
X824500Y697100D03*
X824500Y662100D03*
X824500Y627100D03*
X824500Y592100D03*
X824500Y557100D03*
X824500Y522100D03*
D18*
X76200Y571500D03*
X76200Y635000D03*
X76200Y685800D03*
X279400Y491688D03*
X279400Y635000D03*
X293266Y671934D03*
X304800Y482600D03*
X295712Y635000D03*
X304800Y660400D03*
X245900Y495300D03*
X245900Y635000D03*
X245900Y838200D03*
X230900Y495300D03*
X230900Y635000D03*
X230900Y723900D03*
X152400Y495300D03*
X152400Y558800D03*
X152400Y723900D03*
X161488Y495300D03*
X161488Y558800D03*
X161488Y723900D03*
X660400Y495300D03*
X660400Y558800D03*
X215900Y495300D03*
X215900Y635000D03*
X215900Y723900D03*
X170576Y495300D03*
X170576Y558800D03*
X170576Y723900D03*
M02*
