G04*
G04 #@! TF.GenerationSoftware,Altium Limited,Altium Designer,18.1.9 (240)*
G04*
G04 Layer_Physical_Order=3*
G04 Layer_Color=16440176*
%FSTAX44Y44*%
%MOMM*%
G71*
G01*
G75*
%ADD54C,0.5588*%
G36*
X0127741Y0000259D02*
X0000259D01*
Y0053741D01*
X0127741D01*
Y0000259D01*
D02*
G37*
%LPC*%
G36*
X00196656Y00522244D02*
X0019507Y00521928D01*
X00193726Y0052103D01*
X00192828Y00519686D01*
X00192512Y005181D01*
X00192828Y00516514D01*
X00193726Y0051517D01*
X0019507Y00514272D01*
X00196656Y00513956D01*
X00198242Y00514272D01*
X00199586Y0051517D01*
X00200484Y00516514D01*
X002008Y005181D01*
X00200484Y00519686D01*
X00199586Y0052103D01*
X00198242Y00521928D01*
X00196656Y00522244D01*
D02*
G37*
G36*
X00316908Y0051951D02*
X00315322Y00519194D01*
X00313978Y00518296D01*
X0031308Y00516952D01*
X00312764Y00515366D01*
X0031308Y0051378D01*
X00313978Y00512436D01*
X00315322Y00511538D01*
X00316908Y00511222D01*
X00318494Y00511538D01*
X00319838Y00512436D01*
X00320736Y0051378D01*
X00321052Y00515366D01*
X00320736Y00516952D01*
X00319838Y00518296D01*
X00318494Y00519194D01*
X00316908Y0051951D01*
D02*
G37*
G36*
X00435932Y0051939D02*
X00434346Y00519074D01*
X00433002Y00518176D01*
X00432104Y00516832D01*
X00431788Y00515246D01*
X00432104Y0051366D01*
X00433002Y00512316D01*
X00434346Y00511418D01*
X00435932Y00511102D01*
X00437518Y00511418D01*
X00438862Y00512316D01*
X0043976Y0051366D01*
X00440076Y00515246D01*
X0043976Y00516832D01*
X00438862Y00518176D01*
X00437518Y00519074D01*
X00435932Y0051939D01*
D02*
G37*
G36*
X00955321Y00518975D02*
X00953735Y00518659D01*
X00952391Y00517761D01*
X00951493Y00516417D01*
X00951177Y00514831D01*
X00951493Y00513245D01*
X00952391Y00511901D01*
X00953735Y00511003D01*
X00955321Y00510687D01*
X00956907Y00511003D01*
X00958251Y00511901D01*
X00959149Y00513245D01*
X00959465Y00514831D01*
X00959149Y00516417D01*
X00958251Y00517761D01*
X00956907Y00518659D01*
X00955321Y00518975D01*
D02*
G37*
G36*
X00837244Y00517672D02*
X00835658Y00517356D01*
X00834314Y00516458D01*
X00833416Y00515114D01*
X008331Y00513528D01*
X00833416Y00511942D01*
X00834314Y00510598D01*
X00835658Y005097D01*
X00837244Y00509384D01*
X0083883Y005097D01*
X00840174Y00510598D01*
X00841072Y00511942D01*
X00841388Y00513528D01*
X00841072Y00515114D01*
X00840174Y00516458D01*
X0083883Y00517356D01*
X00837244Y00517672D01*
D02*
G37*
G36*
X01076972Y00517212D02*
X01075386Y00516896D01*
X01074042Y00515998D01*
X01073144Y00514654D01*
X01072828Y00513068D01*
X01073144Y00511482D01*
X01074042Y00510138D01*
X01075386Y0050924D01*
X01076972Y00508924D01*
X01078558Y0050924D01*
X01079902Y00510138D01*
X010808Y00511482D01*
X01081116Y00513068D01*
X010808Y00514654D01*
X01079902Y00515998D01*
X01078558Y00516896D01*
X01076972Y00517212D01*
D02*
G37*
G36*
X00812785Y00508342D02*
X00811199Y00508027D01*
X00809855Y00507129D01*
X00808957Y00505784D01*
X00808641Y00504199D01*
X00808957Y00502613D01*
X00809855Y00501269D01*
X00811199Y00500371D01*
X00812785Y00500055D01*
X00814371Y00500371D01*
X00815715Y00501269D01*
X00816613Y00502613D01*
X00816929Y00504199D01*
X00816613Y00505784D01*
X00815715Y00507129D01*
X00814371Y00508027D01*
X00812785Y00508342D01*
D02*
G37*
G36*
X01173746Y00508086D02*
X0117216Y0050777D01*
X01170816Y00506872D01*
X01169918Y00505528D01*
X01169602Y00503942D01*
X01169918Y00502356D01*
X01170816Y00501012D01*
X0117216Y00500114D01*
X01173746Y00499798D01*
X01175332Y00500114D01*
X01176676Y00501012D01*
X01177574Y00502356D01*
X0117789Y00503942D01*
X01177574Y00505528D01*
X01176676Y00506872D01*
X01175332Y0050777D01*
X01173746Y00508086D01*
D02*
G37*
G36*
X00292814Y0050808D02*
X00291228Y00507764D01*
X00289884Y00506866D01*
X00288986Y00505522D01*
X0028867Y00503936D01*
X00288986Y0050235D01*
X00289884Y00501006D01*
X00291228Y00500108D01*
X00292814Y00499792D01*
X002944Y00500108D01*
X00295744Y00501006D01*
X00296642Y0050235D01*
X00296958Y00503936D01*
X00296642Y00505522D01*
X00295744Y00506866D01*
X002944Y00507764D01*
X00292814Y0050808D01*
D02*
G37*
G36*
X00933216Y00507862D02*
X0093163Y00507546D01*
X00930286Y00506648D01*
X00929388Y00505304D01*
X00929072Y00503718D01*
X00929388Y00502132D01*
X00930286Y00500788D01*
X0093163Y0049989D01*
X00933216Y00499574D01*
X00934802Y0049989D01*
X00936146Y00500788D01*
X00937044Y00502132D01*
X0093736Y00503718D01*
X00937044Y00505304D01*
X00936146Y00506648D01*
X00934802Y00507546D01*
X00933216Y00507862D01*
D02*
G37*
G36*
X01053544Y00507826D02*
X01051958Y0050751D01*
X01050614Y00506612D01*
X01049716Y00505268D01*
X010494Y00503682D01*
X01049716Y00502096D01*
X01050614Y00500752D01*
X01051958Y00499854D01*
X01053544Y00499538D01*
X0105513Y00499854D01*
X01056474Y00500752D01*
X01057372Y00502096D01*
X01057688Y00503682D01*
X01057372Y00505268D01*
X01056474Y00506612D01*
X0105513Y0050751D01*
X01053544Y00507826D01*
D02*
G37*
G36*
X00171924Y0050769D02*
X00170338Y00507374D01*
X00168994Y00506476D01*
X00168096Y00505132D01*
X0016778Y00503546D01*
X00168096Y0050196D01*
X00168994Y00500616D01*
X00170338Y00499718D01*
X00171924Y00499402D01*
X0017351Y00499718D01*
X00174854Y00500616D01*
X00175752Y0050196D01*
X00176068Y00503546D01*
X00175752Y00505132D01*
X00174854Y00506476D01*
X0017351Y00507374D01*
X00171924Y0050769D01*
D02*
G37*
G36*
X005338Y00507366D02*
X00532214Y0050705D01*
X0053087Y00506152D01*
X00529972Y00504808D01*
X00529656Y00503222D01*
X00529972Y00501636D01*
X0053087Y00500292D01*
X00532214Y00499394D01*
X005338Y00499078D01*
X00535386Y00499394D01*
X0053673Y00500292D01*
X00537628Y00501636D01*
X00537944Y00503222D01*
X00537628Y00504808D01*
X0053673Y00506152D01*
X00535386Y0050705D01*
X005338Y00507366D01*
D02*
G37*
G36*
X00414166Y00507318D02*
X0041258Y00507002D01*
X00411236Y00506104D01*
X00410338Y0050476D01*
X00410022Y00503174D01*
X00410338Y00501588D01*
X00411236Y00500244D01*
X0041258Y00499346D01*
X00414166Y0049903D01*
X00415752Y00499346D01*
X00417096Y00500244D01*
X00417994Y00501588D01*
X0041831Y00503174D01*
X00417994Y0050476D01*
X00417096Y00506104D01*
X00415752Y00507002D01*
X00414166Y00507318D01*
D02*
G37*
G36*
X00200406Y00504176D02*
X00196991Y00503726D01*
X00193809Y00502408D01*
X00191077Y00500312D01*
X0018898Y00497579D01*
X00187662Y00494397D01*
X00187212Y00490982D01*
X00187662Y00487567D01*
X0018898Y00484385D01*
X00191077Y00481652D01*
X00193809Y00479556D01*
X00196991Y00478238D01*
X00200406Y00477788D01*
X00203821Y00478238D01*
X00207003Y00479556D01*
X00209736Y00481652D01*
X00211832Y00484385D01*
X0021315Y00487567D01*
X002136Y00490982D01*
X0021315Y00494397D01*
X00211832Y00497579D01*
X00209736Y00500312D01*
X00207003Y00502408D01*
X00203821Y00503726D01*
X00200406Y00504176D01*
D02*
G37*
G36*
X00439682Y0050248D02*
X00436267Y0050203D01*
X00433085Y00500712D01*
X00430353Y00498615D01*
X00428256Y00495883D01*
X00426938Y00492701D01*
X00426488Y00489286D01*
X00426938Y00485871D01*
X00428256Y00482689D01*
X00430353Y00479957D01*
X00433085Y0047786D01*
X00436267Y00476542D01*
X00439682Y00476092D01*
X00443097Y00476542D01*
X00446279Y0047786D01*
X00449011Y00479957D01*
X00451108Y00482689D01*
X00452426Y00485871D01*
X00452876Y00489286D01*
X00452426Y00492701D01*
X00451108Y00495883D01*
X00449011Y00498615D01*
X00446279Y00500712D01*
X00443097Y0050203D01*
X00439682Y0050248D01*
D02*
G37*
G36*
X00320802Y0050189D02*
X00317387Y0050144D01*
X00314205Y00500122D01*
X00311472Y00498026D01*
X00309376Y00495293D01*
X00308058Y00492111D01*
X00307608Y00488696D01*
X00308058Y00485281D01*
X00309376Y00482099D01*
X00311472Y00479366D01*
X00314205Y0047727D01*
X00317387Y00475952D01*
X00320802Y00475502D01*
X00324217Y00475952D01*
X00327399Y0047727D01*
X00330131Y00479366D01*
X00332228Y00482099D01*
X00333546Y00485281D01*
X00333996Y00488696D01*
X00333546Y00492111D01*
X00332228Y00495293D01*
X00330131Y00498026D01*
X00327399Y00500122D01*
X00324217Y0050144D01*
X00320802Y0050189D01*
D02*
G37*
G36*
X00959071Y00501195D02*
X00955656Y00500745D01*
X00952474Y00499427D01*
X00949742Y0049733D01*
X00947645Y00494598D01*
X00946327Y00491416D01*
X00945877Y00488001D01*
X00946327Y00484586D01*
X00947645Y00481404D01*
X00949742Y00478671D01*
X00952474Y00476575D01*
X00955656Y00475257D01*
X00959071Y00474807D01*
X00962486Y00475257D01*
X00965668Y00476575D01*
X009684Y00478671D01*
X00970497Y00481404D01*
X00971815Y00484586D01*
X00972265Y00488001D01*
X00971815Y00491416D01*
X00970497Y00494598D01*
X009684Y0049733D01*
X00965668Y00499427D01*
X00962486Y00500745D01*
X00959071Y00501195D01*
D02*
G37*
G36*
X01080722Y00501128D02*
X01077307Y00500678D01*
X01074125Y0049936D01*
X01071393Y00497263D01*
X01069296Y00494531D01*
X01067978Y00491349D01*
X01067528Y00487934D01*
X01067978Y00484519D01*
X01069296Y00481337D01*
X01071393Y00478605D01*
X01074125Y00476508D01*
X01077307Y0047519D01*
X01080722Y0047474D01*
X01084137Y0047519D01*
X01087319Y00476508D01*
X01090051Y00478605D01*
X01092148Y00481337D01*
X01093466Y00484519D01*
X01093916Y00487934D01*
X01093466Y00491349D01*
X01092148Y00494531D01*
X01090051Y00497263D01*
X01087319Y0049936D01*
X01084137Y00500678D01*
X01080722Y00501128D01*
D02*
G37*
G36*
X00840994D02*
X00837579Y00500678D01*
X00834397Y0049936D01*
X00831665Y00497263D01*
X00829568Y00494531D01*
X0082825Y00491349D01*
X008278Y00487934D01*
X0082825Y00484519D01*
X00829568Y00481337D01*
X00831665Y00478605D01*
X00834397Y00476508D01*
X00837579Y0047519D01*
X00840994Y0047474D01*
X00844409Y0047519D01*
X00847591Y00476508D01*
X00850323Y00478605D01*
X0085242Y00481337D01*
X00853738Y00484519D01*
X00854188Y00487934D01*
X00853738Y00491349D01*
X0085242Y00494531D01*
X00850323Y00497263D01*
X00847591Y0049936D01*
X00844409Y00500678D01*
X00840994Y00501128D01*
D02*
G37*
G36*
X00306748Y00478108D02*
X00305162Y00477792D01*
X00303818Y00476894D01*
X0030292Y0047555D01*
X00302604Y00473964D01*
X0030292Y00472378D01*
X00303818Y00471034D01*
X00305162Y00470136D01*
X00306748Y0046982D01*
X00308334Y00470136D01*
X00309678Y00471034D01*
X00310576Y00472378D01*
X00310892Y00473964D01*
X00310576Y0047555D01*
X00309678Y00476894D01*
X00308334Y00477792D01*
X00306748Y00478108D01*
D02*
G37*
G36*
X00187198Y00477854D02*
X00185612Y00477538D01*
X00184268Y0047664D01*
X0018337Y00475296D01*
X00183054Y0047371D01*
X0018337Y00472124D01*
X00184268Y0047078D01*
X00185612Y00469882D01*
X00187198Y00469566D01*
X00188784Y00469882D01*
X00190128Y0047078D01*
X00191026Y00472124D01*
X00191342Y0047371D01*
X00191026Y00475296D01*
X00190128Y0047664D01*
X00188784Y00477538D01*
X00187198Y00477854D01*
D02*
G37*
G36*
X00426214Y00476636D02*
X00424628Y0047632D01*
X00423284Y00475422D01*
X00422386Y00474078D01*
X0042207Y00472492D01*
X00422386Y00470906D01*
X00423284Y00469562D01*
X00424628Y00468664D01*
X00426214Y00468348D01*
X004278Y00468664D01*
X00429144Y00469562D01*
X00430042Y00470906D01*
X00430358Y00472492D01*
X00430042Y00474078D01*
X00429144Y00475422D01*
X004278Y0047632D01*
X00426214Y00476636D01*
D02*
G37*
G36*
X00973248Y00476578D02*
X00971662Y00476262D01*
X00970318Y00475364D01*
X0096942Y0047402D01*
X00969104Y00472434D01*
X0096942Y00470848D01*
X00970318Y00469504D01*
X00971662Y00468606D01*
X00973248Y0046829D01*
X00974834Y00468606D01*
X00976178Y00469504D01*
X00977076Y00470848D01*
X00977392Y00472434D01*
X00977076Y0047402D01*
X00976178Y00475364D01*
X00974834Y00476262D01*
X00973248Y00476578D01*
D02*
G37*
G36*
X00854202D02*
X00852616Y00476262D01*
X00851272Y00475364D01*
X00850374Y0047402D01*
X00850058Y00472434D01*
X00850374Y00470848D01*
X00851272Y00469504D01*
X00852616Y00468606D01*
X00854202Y0046829D01*
X00855788Y00468606D01*
X00857132Y00469504D01*
X0085803Y00470848D01*
X00858346Y00472434D01*
X0085803Y0047402D01*
X00857132Y00475364D01*
X00855788Y00476262D01*
X00854202Y00476578D01*
D02*
G37*
G36*
X01093712Y00475822D02*
X01092126Y00475506D01*
X01090782Y00474608D01*
X01089884Y00473264D01*
X01089568Y00471678D01*
X01089884Y00470092D01*
X01090782Y00468748D01*
X01092126Y0046785D01*
X01093712Y00467534D01*
X01095298Y0046785D01*
X01096642Y00468748D01*
X0109754Y00470092D01*
X01097856Y00471678D01*
X0109754Y00473264D01*
X01096642Y00474608D01*
X01095298Y00475506D01*
X01093712Y00475822D01*
D02*
G37*
G36*
X00282064Y00510348D02*
X00237064D01*
X00236073Y00510151D01*
X00235233Y00509589D01*
X00234671Y00508749D01*
X00234474Y00507758D01*
Y00467758D01*
X00234671Y00466767D01*
X00235233Y00465927D01*
X00236073Y00465365D01*
X00237064Y00465168D01*
X00282064D01*
X00283055Y00465365D01*
X00283895Y00465927D01*
X00284457Y00466767D01*
X00284654Y00467758D01*
Y00507758D01*
X00284457Y00508749D01*
X00283895Y00509589D01*
X00283055Y00510151D01*
X00282064Y00510348D01*
D02*
G37*
G36*
X00802035Y00509823D02*
X00757035D01*
X00756044Y00509625D01*
X00755204Y00509064D01*
X00754642Y00508224D01*
X00754445Y00507233D01*
Y00467233D01*
X00754642Y00466242D01*
X00755204Y00465401D01*
X00756044Y0046484D01*
X00757035Y00464643D01*
X00802035D01*
X00803026Y0046484D01*
X00803866Y00465401D01*
X00804428Y00466242D01*
X00804625Y00467233D01*
Y00507233D01*
X00804428Y00508224D01*
X00803866Y00509064D01*
X00803026Y00509625D01*
X00802035Y00509823D01*
D02*
G37*
G36*
X01162996Y00509768D02*
X01117996D01*
X01117005Y00509571D01*
X01116165Y00509009D01*
X01115603Y00508169D01*
X01115406Y00507178D01*
Y00467178D01*
X01115603Y00466187D01*
X01116165Y00465347D01*
X01117005Y00464785D01*
X01117996Y00464588D01*
X01162996D01*
X01163987Y00464785D01*
X01164827Y00465347D01*
X01165389Y00466187D01*
X01165586Y00467178D01*
Y00507178D01*
X01165389Y00508169D01*
X01164827Y00509009D01*
X01163987Y00509571D01*
X01162996Y00509768D01*
D02*
G37*
G36*
X00161174Y0050953D02*
X00116174D01*
X00115183Y00509333D01*
X00114343Y00508771D01*
X00113781Y00507931D01*
X00113584Y0050694D01*
Y0046694D01*
X00113781Y00465949D01*
X00114343Y00465109D01*
X00115183Y00464547D01*
X00116174Y0046435D01*
X00161174D01*
X00162165Y00464547D01*
X00163005Y00465109D01*
X00163567Y00465949D01*
X00163764Y0046694D01*
Y0050694D01*
X00163567Y00507931D01*
X00163005Y00508771D01*
X00162165Y00509333D01*
X00161174Y0050953D01*
D02*
G37*
G36*
X01042794Y00509508D02*
X00997794D01*
X00996803Y00509311D01*
X00995963Y00508749D01*
X00995401Y00507909D01*
X00995204Y00506918D01*
Y00466918D01*
X00995401Y00465927D01*
X00995963Y00465087D01*
X00996803Y00464525D01*
X00997794Y00464328D01*
X01042794D01*
X01043785Y00464525D01*
X01044625Y00465087D01*
X01045187Y00465927D01*
X01045384Y00466918D01*
Y00506918D01*
X01045187Y00507909D01*
X01044625Y00508749D01*
X01043785Y00509311D01*
X01042794Y00509508D01*
D02*
G37*
G36*
X00922466Y00509342D02*
X00877466D01*
X00876475Y00509145D01*
X00875635Y00508583D01*
X00875073Y00507743D01*
X00874876Y00506752D01*
Y00466752D01*
X00875073Y00465761D01*
X00875635Y00464921D01*
X00876475Y00464359D01*
X00877466Y00464162D01*
X00922466D01*
X00923457Y00464359D01*
X00924297Y00464921D01*
X00924859Y00465761D01*
X00925056Y00466752D01*
Y00506752D01*
X00924859Y00507743D01*
X00924297Y00508583D01*
X00923457Y00509145D01*
X00922466Y00509342D01*
D02*
G37*
G36*
X00403416Y00509254D02*
X00358416D01*
X00357425Y00509057D01*
X00356585Y00508495D01*
X00356023Y00507655D01*
X00355826Y00506664D01*
Y00466664D01*
X00356023Y00465673D01*
X00356585Y00464833D01*
X00357425Y00464271D01*
X00358416Y00464074D01*
X00403416D01*
X00404407Y00464271D01*
X00405247Y00464833D01*
X00405809Y00465673D01*
X00406006Y00466664D01*
Y00506664D01*
X00405809Y00507655D01*
X00405247Y00508495D01*
X00404407Y00509057D01*
X00403416Y00509254D01*
D02*
G37*
G36*
X0052305Y00509048D02*
X0047805D01*
X00477059Y00508851D01*
X00476219Y00508289D01*
X00475657Y00507449D01*
X0047546Y00506458D01*
Y00466458D01*
X00475657Y00465467D01*
X00476219Y00464627D01*
X00477059Y00464065D01*
X0047805Y00463868D01*
X0052305D01*
X00524041Y00464065D01*
X00524881Y00464627D01*
X00525443Y00465467D01*
X0052564Y00466458D01*
Y00506458D01*
X00525443Y00507449D01*
X00524881Y00508289D01*
X00524041Y00508851D01*
X0052305Y00509048D01*
D02*
G37*
G36*
X00272542Y00462868D02*
X00270956Y00462552D01*
X00269612Y00461654D01*
X00268714Y0046031D01*
X00268398Y00458724D01*
X00268714Y00457138D01*
X00269612Y00455794D01*
X00270956Y00454896D01*
X00272542Y0045458D01*
X00274128Y00454896D01*
X00275472Y00455794D01*
X0027637Y00457138D01*
X00276686Y00458724D01*
X0027637Y0046031D01*
X00275472Y00461654D01*
X00274128Y00462552D01*
X00272542Y00462868D01*
D02*
G37*
G36*
X0115169Y00461864D02*
X01150104Y00461548D01*
X0114876Y0046065D01*
X01147862Y00459306D01*
X01147546Y0045772D01*
X01147862Y00456134D01*
X0114876Y0045479D01*
X01150104Y00453892D01*
X0115169Y00453576D01*
X01153276Y00453892D01*
X0115462Y0045479D01*
X01155518Y00456134D01*
X01155834Y0045772D01*
X01155518Y00459306D01*
X0115462Y0046065D01*
X01153276Y00461548D01*
X0115169Y00461864D01*
D02*
G37*
G36*
X01031488Y00461604D02*
X01029902Y00461288D01*
X01028558Y0046039D01*
X0102766Y00459046D01*
X01027344Y0045746D01*
X0102766Y00455874D01*
X01028558Y0045453D01*
X01029902Y00453632D01*
X01031488Y00453316D01*
X01033074Y00453632D01*
X01034418Y0045453D01*
X01035316Y00455874D01*
X01035632Y0045746D01*
X01035316Y00459046D01*
X01034418Y0046039D01*
X01033074Y00461288D01*
X01031488Y00461604D01*
D02*
G37*
G36*
X00792014Y00461356D02*
X00790428Y0046104D01*
X00789084Y00460142D01*
X00788186Y00458798D01*
X0078787Y00457212D01*
X00788186Y00455626D01*
X00789084Y00454282D01*
X00790428Y00453384D01*
X00792014Y00453068D01*
X007936Y00453384D01*
X00794944Y00454282D01*
X00795842Y00455626D01*
X00796158Y00457212D01*
X00795842Y00458798D01*
X00794944Y00460142D01*
X007936Y0046104D01*
X00792014Y00461356D01*
D02*
G37*
G36*
X00395158Y0046135D02*
X00393572Y00461034D01*
X00392228Y00460136D01*
X0039133Y00458792D01*
X00391014Y00457206D01*
X0039133Y0045562D01*
X00392228Y00454276D01*
X00393572Y00453378D01*
X00395158Y00453062D01*
X00396744Y00453378D01*
X00398088Y00454276D01*
X00398986Y0045562D01*
X00399302Y00457206D01*
X00398986Y00458792D01*
X00398088Y00460136D01*
X00396744Y00461034D01*
X00395158Y0046135D01*
D02*
G37*
G36*
X00152648D02*
X00151062Y00461034D01*
X00149718Y00460136D01*
X0014882Y00458792D01*
X00148504Y00457206D01*
X0014882Y0045562D01*
X00149718Y00454276D01*
X00151062Y00453378D01*
X00152648Y00453062D01*
X00154234Y00453378D01*
X00155578Y00454276D01*
X00156476Y0045562D01*
X00156792Y00457206D01*
X00156476Y00458792D01*
X00155578Y00460136D01*
X00154234Y00461034D01*
X00152648Y0046135D01*
D02*
G37*
G36*
X00511744Y00461144D02*
X00510158Y00460828D01*
X00508814Y0045993D01*
X00507916Y00458586D01*
X005076Y00457D01*
X00507916Y00455414D01*
X00508814Y0045407D01*
X00510158Y00453172D01*
X00511744Y00452856D01*
X0051333Y00453172D01*
X00514674Y0045407D01*
X00515572Y00455414D01*
X00515888Y00457D01*
X00515572Y00458586D01*
X00514674Y0045993D01*
X0051333Y00460828D01*
X00511744Y00461144D01*
D02*
G37*
G36*
X00912864Y00459832D02*
X00911278Y00459516D01*
X00909934Y00458618D01*
X00909036Y00457274D01*
X0090872Y00455688D01*
X00909036Y00454102D01*
X00909934Y00452758D01*
X00911278Y0045186D01*
X00912864Y00451544D01*
X0091445Y0045186D01*
X00915794Y00452758D01*
X00916692Y00454102D01*
X00917008Y00455688D01*
X00916692Y00457274D01*
X00915794Y00458618D01*
X0091445Y00459516D01*
X00912864Y00459832D01*
D02*
G37*
G36*
X0122Y00503867D02*
X01215093Y0050348D01*
X01210307Y00502332D01*
X0120576Y00500448D01*
X01201563Y00497876D01*
X0119782Y0049468D01*
X01194624Y00490937D01*
X01192052Y0048674D01*
X01190169Y00482193D01*
X01189019Y00477407D01*
X01188633Y004725D01*
X01189019Y00467593D01*
X01190169Y00462807D01*
X01192052Y0045826D01*
X01194624Y00454063D01*
X0119782Y0045032D01*
X01201563Y00447124D01*
X0120576Y00444552D01*
X01210307Y00442668D01*
X01215093Y0044152D01*
X0122Y00441133D01*
X01224907Y0044152D01*
X01229693Y00442668D01*
X0123424Y00444552D01*
X01238437Y00447124D01*
X0124218Y0045032D01*
X01245376Y00454063D01*
X01247948Y0045826D01*
X01249831Y00462807D01*
X01250981Y00467593D01*
X01251367Y004725D01*
X01250981Y00477407D01*
X01249831Y00482193D01*
X01247948Y0048674D01*
X01245376Y00490937D01*
X0124218Y0049468D01*
X01238437Y00497876D01*
X0123424Y00500448D01*
X01229693Y00502332D01*
X01224907Y0050348D01*
X0122Y00503867D01*
D02*
G37*
G36*
X007D02*
X00695093Y0050348D01*
X00690307Y00502332D01*
X0068576Y00500448D01*
X00681563Y00497876D01*
X0067782Y0049468D01*
X00674624Y00490937D01*
X00672052Y0048674D01*
X00670169Y00482193D01*
X00669019Y00477407D01*
X00668633Y004725D01*
X00669019Y00467593D01*
X00670169Y00462807D01*
X00672052Y0045826D01*
X00674624Y00454063D01*
X0067782Y0045032D01*
X00681563Y00447124D01*
X0068576Y00444552D01*
X00690307Y00442668D01*
X00695093Y0044152D01*
X007Y00441133D01*
X00704907Y0044152D01*
X00709693Y00442668D01*
X0071424Y00444552D01*
X00718437Y00447124D01*
X0072218Y0045032D01*
X00725376Y00454063D01*
X00727948Y0045826D01*
X00729831Y00462807D01*
X00730981Y00467593D01*
X00731367Y004725D01*
X00730981Y00477407D01*
X00729831Y00482193D01*
X00727948Y0048674D01*
X00725376Y00490937D01*
X0072218Y0049468D01*
X00718437Y00497876D01*
X0071424Y00500448D01*
X00709693Y00502332D01*
X00704907Y0050348D01*
X007Y00503867D01*
D02*
G37*
G36*
X0058D02*
X00575093Y0050348D01*
X00570307Y00502332D01*
X0056576Y00500448D01*
X00561563Y00497876D01*
X0055782Y0049468D01*
X00554624Y00490937D01*
X00552052Y0048674D01*
X00550168Y00482193D01*
X0054902Y00477407D01*
X00548633Y004725D01*
X0054902Y00467593D01*
X00550168Y00462807D01*
X00552052Y0045826D01*
X00554624Y00454063D01*
X0055782Y0045032D01*
X00561563Y00447124D01*
X0056576Y00444552D01*
X00570307Y00442668D01*
X00575093Y0044152D01*
X0058Y00441133D01*
X00584907Y0044152D01*
X00589693Y00442668D01*
X0059424Y00444552D01*
X00598437Y00447124D01*
X0060218Y0045032D01*
X00605376Y00454063D01*
X00607948Y0045826D01*
X00609832Y00462807D01*
X0061098Y00467593D01*
X00611367Y004725D01*
X0061098Y00477407D01*
X00609832Y00482193D01*
X00607948Y0048674D01*
X00605376Y00490937D01*
X0060218Y0049468D01*
X00598437Y00497876D01*
X0059424Y00500448D01*
X00589693Y00502332D01*
X00584907Y0050348D01*
X0058Y00503867D01*
D02*
G37*
G36*
X0006D02*
X00055093Y0050348D01*
X00050307Y00502332D01*
X0004576Y00500448D01*
X00041563Y00497876D01*
X0003782Y0049468D01*
X00034624Y00490937D01*
X00032052Y0048674D01*
X00030168Y00482193D01*
X00029019Y00477407D01*
X00028633Y004725D01*
X00029019Y00467593D01*
X00030168Y00462807D01*
X00032052Y0045826D01*
X00034624Y00454063D01*
X0003782Y0045032D01*
X00041563Y00447124D01*
X0004576Y00444552D01*
X00050307Y00442668D01*
X00055093Y0044152D01*
X0006Y00441133D01*
X00064907Y0044152D01*
X00069693Y00442668D01*
X0007424Y00444552D01*
X00078437Y00447124D01*
X0008218Y0045032D01*
X00085376Y00454063D01*
X00087948Y0045826D01*
X00089831Y00462807D01*
X00090981Y00467593D01*
X00091367Y004725D01*
X00090981Y00477407D01*
X00089831Y00482193D01*
X00087948Y0048674D01*
X00085376Y00490937D01*
X0008218Y0049468D01*
X00078437Y00497876D01*
X0007424Y00500448D01*
X00069693Y00502332D01*
X00064907Y0050348D01*
X0006Y00503867D01*
D02*
G37*
G36*
X0117025Y00452837D02*
X01168222Y0045257D01*
X01166331Y00451787D01*
X01164708Y00450542D01*
X01163463Y00448918D01*
X0116268Y00447028D01*
X01162413Y00445D01*
X0116268Y00442972D01*
X01163463Y00441082D01*
X01164708Y00439458D01*
X01166331Y00438213D01*
X01168222Y0043743D01*
X0117025Y00437163D01*
X01172278Y0043743D01*
X01174168Y00438213D01*
X01175792Y00439458D01*
X01177037Y00441082D01*
X0117782Y00442972D01*
X01178087Y00445D01*
X0117782Y00447028D01*
X01177037Y00448918D01*
X01175792Y00450542D01*
X01174168Y00451787D01*
X01172278Y0045257D01*
X0117025Y00452837D01*
D02*
G37*
G36*
X0075025D02*
X00748222Y0045257D01*
X00746331Y00451787D01*
X00744708Y00450542D01*
X00743463Y00448918D01*
X0074268Y00447028D01*
X00742413Y00445D01*
X0074268Y00442972D01*
X00743463Y00441082D01*
X00744708Y00439458D01*
X00746331Y00438213D01*
X00748222Y0043743D01*
X0075025Y00437163D01*
X00752278Y0043743D01*
X00754168Y00438213D01*
X00755792Y00439458D01*
X00757037Y00441082D01*
X0075782Y00442972D01*
X00758087Y00445D01*
X0075782Y00447028D01*
X00757037Y00448918D01*
X00755792Y00450542D01*
X00754168Y00451787D01*
X00752278Y0045257D01*
X0075025Y00452837D01*
D02*
G37*
G36*
X005305D02*
X00528472Y0045257D01*
X00526581Y00451787D01*
X00524958Y00450542D01*
X00523713Y00448918D01*
X0052293Y00447028D01*
X00522663Y00445D01*
X0052293Y00442972D01*
X00523713Y00441082D01*
X00524958Y00439458D01*
X00526581Y00438213D01*
X00528472Y0043743D01*
X005305Y00437163D01*
X00532528Y0043743D01*
X00534418Y00438213D01*
X00536042Y00439458D01*
X00537287Y00441082D01*
X0053807Y00442972D01*
X00538337Y00445D01*
X0053807Y00447028D01*
X00537287Y00448918D01*
X00536042Y00450542D01*
X00534418Y00451787D01*
X00532528Y0045257D01*
X005305Y00452837D01*
D02*
G37*
G36*
X001105D02*
X00108472Y0045257D01*
X00106581Y00451787D01*
X00104958Y00450542D01*
X00103713Y00448918D01*
X0010293Y00447028D01*
X00102663Y00445D01*
X0010293Y00442972D01*
X00103713Y00441082D01*
X00104958Y00439458D01*
X00106581Y00438213D01*
X00108472Y0043743D01*
X001105Y00437163D01*
X00112528Y0043743D01*
X00114418Y00438213D01*
X00116042Y00439458D01*
X00117287Y00441082D01*
X0011807Y00442972D01*
X00118337Y00445D01*
X0011807Y00447028D01*
X00117287Y00448918D01*
X00116042Y00450542D01*
X00114418Y00451787D01*
X00112528Y0045257D01*
X001105Y00452837D01*
D02*
G37*
G36*
X00258826Y00455994D02*
X00255411Y00455544D01*
X00252229Y00454226D01*
X00249496Y0045213D01*
X002474Y00449397D01*
X00246082Y00446215D01*
X00245632Y004428D01*
X00246082Y00439385D01*
X002474Y00436203D01*
X00249496Y00433471D01*
X00252229Y00431374D01*
X00255411Y00430056D01*
X00258826Y00429606D01*
X00262241Y00430056D01*
X00265423Y00431374D01*
X00268155Y00433471D01*
X00270252Y00436203D01*
X0027157Y00439385D01*
X0027202Y004428D01*
X0027157Y00446215D01*
X00270252Y00449397D01*
X00268155Y0045213D01*
X00265423Y00454226D01*
X00262241Y00455544D01*
X00258826Y00455994D01*
D02*
G37*
G36*
X01139758Y00455414D02*
X01136343Y00454964D01*
X01133161Y00453646D01*
X01130428Y00451549D01*
X01128332Y00448817D01*
X01127014Y00445635D01*
X01126564Y0044222D01*
X01127014Y00438805D01*
X01128332Y00435623D01*
X01130428Y00432891D01*
X01133161Y00430794D01*
X01136343Y00429476D01*
X01139758Y00429026D01*
X01143173Y00429476D01*
X01146355Y00430794D01*
X01149088Y00432891D01*
X01151184Y00435623D01*
X01152502Y00438805D01*
X01152952Y0044222D01*
X01152502Y00445635D01*
X01151184Y00448817D01*
X01149088Y00451549D01*
X01146355Y00453646D01*
X01143173Y00454964D01*
X01139758Y00455414D01*
D02*
G37*
G36*
X01019556Y00455154D02*
X01016141Y00454704D01*
X01012959Y00453386D01*
X01010227Y00451289D01*
X0100813Y00448557D01*
X01006812Y00445375D01*
X01006362Y0044196D01*
X01006812Y00438545D01*
X0100813Y00435363D01*
X01010227Y00432631D01*
X01012959Y00430534D01*
X01016141Y00429216D01*
X01019556Y00428766D01*
X01022971Y00429216D01*
X01026153Y00430534D01*
X01028885Y00432631D01*
X01030982Y00435363D01*
X010323Y00438545D01*
X0103275Y0044196D01*
X010323Y00445375D01*
X01030982Y00448557D01*
X01028885Y00451289D01*
X01026153Y00453386D01*
X01022971Y00454704D01*
X01019556Y00455154D01*
D02*
G37*
G36*
X00780348Y00454906D02*
X00776933Y00454456D01*
X00773751Y00453138D01*
X00771019Y00451041D01*
X00768922Y00448309D01*
X00767604Y00445127D01*
X00767154Y00441712D01*
X00767604Y00438297D01*
X00768922Y00435115D01*
X00771019Y00432383D01*
X00773751Y00430286D01*
X00776933Y00428968D01*
X00780348Y00428518D01*
X00783763Y00428968D01*
X00786945Y00430286D01*
X00789678Y00432383D01*
X00791774Y00435115D01*
X00793092Y00438297D01*
X00793542Y00441712D01*
X00793092Y00445127D01*
X00791774Y00448309D01*
X00789678Y00451041D01*
X00786945Y00453138D01*
X00783763Y00454456D01*
X00780348Y00454906D01*
D02*
G37*
G36*
X00380178Y004549D02*
X00376763Y0045445D01*
X00373581Y00453132D01*
X00370849Y00451035D01*
X00368752Y00448303D01*
X00367434Y00445121D01*
X00366984Y00441706D01*
X00367434Y00438291D01*
X00368752Y00435109D01*
X00370849Y00432377D01*
X00373581Y0043028D01*
X00376763Y00428962D01*
X00380178Y00428512D01*
X00383593Y00428962D01*
X00386775Y0043028D01*
X00389507Y00432377D01*
X00391604Y00435109D01*
X00392922Y00438291D01*
X00393372Y00441706D01*
X00392922Y00445121D01*
X00391604Y00448303D01*
X00389507Y00451035D01*
X00386775Y00453132D01*
X00383593Y0045445D01*
X00380178Y004549D01*
D02*
G37*
G36*
X001397D02*
X00136285Y0045445D01*
X00133103Y00453132D01*
X00130371Y00451035D01*
X00128274Y00448303D01*
X00126956Y00445121D01*
X00126506Y00441706D01*
X00126956Y00438291D01*
X00128274Y00435109D01*
X00130371Y00432377D01*
X00133103Y0043028D01*
X00136285Y00428962D01*
X001397Y00428512D01*
X00143115Y00428962D01*
X00146297Y0043028D01*
X0014903Y00432377D01*
X00151126Y00435109D01*
X00152444Y00438291D01*
X00152894Y00441706D01*
X00152444Y00445121D01*
X00151126Y00448303D01*
X0014903Y00451035D01*
X00146297Y00453132D01*
X00143115Y0045445D01*
X001397Y004549D01*
D02*
G37*
G36*
X00499812Y00454694D02*
X00496397Y00454244D01*
X00493215Y00452926D01*
X00490482Y0045083D01*
X00488386Y00448097D01*
X00487068Y00444915D01*
X00486618Y004415D01*
X00487068Y00438085D01*
X00488386Y00434903D01*
X00490482Y0043217D01*
X00493215Y00430074D01*
X00496397Y00428756D01*
X00499812Y00428306D01*
X00503227Y00428756D01*
X00506409Y00430074D01*
X00509142Y0043217D01*
X00511238Y00434903D01*
X00512556Y00438085D01*
X00513006Y004415D01*
X00512556Y00444915D01*
X00511238Y00448097D01*
X00509142Y0045083D01*
X00506409Y00452926D01*
X00503227Y00454244D01*
X00499812Y00454694D01*
D02*
G37*
G36*
X00901252Y00453382D02*
X00897837Y00452932D01*
X00894655Y00451614D01*
X00891923Y00449518D01*
X00889826Y00446785D01*
X00888508Y00443603D01*
X00888058Y00440188D01*
X00888508Y00436773D01*
X00889826Y00433591D01*
X00891923Y00430858D01*
X00894655Y00428762D01*
X00897837Y00427444D01*
X00901252Y00426994D01*
X00904667Y00427444D01*
X00907849Y00428762D01*
X00910582Y00430858D01*
X00912678Y00433591D01*
X00913996Y00436773D01*
X00914446Y00440188D01*
X00913996Y00443603D01*
X00912678Y00446785D01*
X00910582Y00449518D01*
X00907849Y00451614D01*
X00904667Y00452932D01*
X00901252Y00453382D01*
D02*
G37*
G36*
X00286814Y00430864D02*
X00285228Y00430548D01*
X00283884Y0042965D01*
X00282986Y00428306D01*
X0028267Y0042672D01*
X00282986Y00425134D01*
X00283884Y0042379D01*
X00285228Y00422892D01*
X00286814Y00422576D01*
X002884Y00422892D01*
X00289744Y0042379D01*
X00290642Y00425134D01*
X00290958Y0042672D01*
X00290642Y00428306D01*
X00289744Y0042965D01*
X002884Y00430548D01*
X00286814Y00430864D01*
D02*
G37*
G36*
X0092687Y00430586D02*
X00925284Y0043027D01*
X0092394Y00429372D01*
X00923042Y00428028D01*
X00922726Y00426442D01*
X00923042Y00424856D01*
X0092394Y00423512D01*
X00925284Y00422614D01*
X0092687Y00422298D01*
X00928456Y00422614D01*
X009298Y00423512D01*
X00930698Y00424856D01*
X00931014Y00426442D01*
X00930698Y00428028D01*
X009298Y00429372D01*
X00928456Y0043027D01*
X0092687Y00430586D01*
D02*
G37*
G36*
X01046734Y00430356D02*
X01045148Y0043004D01*
X01043804Y00429142D01*
X01042906Y00427798D01*
X0104259Y00426212D01*
X01042906Y00424626D01*
X01043804Y00423282D01*
X01045148Y00422384D01*
X01046734Y00422068D01*
X0104832Y00422384D01*
X01049664Y00423282D01*
X01050562Y00424626D01*
X01050878Y00426212D01*
X01050562Y00427798D01*
X01049664Y00429142D01*
X0104832Y0043004D01*
X01046734Y00430356D01*
D02*
G37*
G36*
X00807006D02*
X0080542Y0043004D01*
X00804076Y00429142D01*
X00803178Y00427798D01*
X00802862Y00426212D01*
X00803178Y00424626D01*
X00804076Y00423282D01*
X0080542Y00422384D01*
X00807006Y00422068D01*
X00808592Y00422384D01*
X00809936Y00423282D01*
X00810834Y00424626D01*
X0081115Y00426212D01*
X00810834Y00427798D01*
X00809936Y00429142D01*
X00808592Y0043004D01*
X00807006Y00430356D01*
D02*
G37*
G36*
X0016641Y00430098D02*
X00164824Y00429782D01*
X0016348Y00428884D01*
X00162582Y0042754D01*
X00162266Y00425954D01*
X00162582Y00424368D01*
X0016348Y00423024D01*
X00164824Y00422126D01*
X0016641Y0042181D01*
X00167996Y00422126D01*
X0016934Y00423024D01*
X00170238Y00424368D01*
X00170554Y00425954D01*
X00170238Y0042754D01*
X0016934Y00428884D01*
X00167996Y00429782D01*
X0016641Y00430098D01*
D02*
G37*
G36*
X00407718Y004299D02*
X00406132Y00429584D01*
X00404788Y00428686D01*
X0040389Y00427342D01*
X00403574Y00425756D01*
X0040389Y0042417D01*
X00404788Y00422826D01*
X00406132Y00421928D01*
X00407718Y00421612D01*
X00409304Y00421928D01*
X00410648Y00422826D01*
X00411546Y0042417D01*
X00411862Y00425756D01*
X00411546Y00427342D01*
X00410648Y00428686D01*
X00409304Y00429584D01*
X00407718Y004299D01*
D02*
G37*
G36*
X00342564Y00466328D02*
X00297564D01*
X00296573Y00466131D01*
X00295733Y00465569D01*
X00295171Y00464729D01*
X00294974Y00463738D01*
Y00423738D01*
X00295171Y00422747D01*
X00295733Y00421907D01*
X00296573Y00421345D01*
X00297564Y00421148D01*
X00342564D01*
X00343555Y00421345D01*
X00344395Y00421907D01*
X00344957Y00422747D01*
X00345154Y00423738D01*
Y00463738D01*
X00344957Y00464729D01*
X00344395Y00465569D01*
X00343555Y00466131D01*
X00342564Y00466328D01*
D02*
G37*
G36*
X0098262Y00465998D02*
X0093762D01*
X00936629Y00465801D01*
X00935789Y00465239D01*
X00935227Y00464399D01*
X0093503Y00463408D01*
Y00423408D01*
X00935227Y00422417D01*
X00935789Y00421577D01*
X00936629Y00421015D01*
X0093762Y00420818D01*
X0098262D01*
X00983611Y00421015D01*
X00984451Y00421577D01*
X00985013Y00422417D01*
X0098521Y00423408D01*
Y00463408D01*
X00985013Y00464399D01*
X00984451Y00465239D01*
X00983611Y00465801D01*
X0098262Y00465998D01*
D02*
G37*
G36*
X0022216Y00465992D02*
X0017716D01*
X00176169Y00465795D01*
X00175329Y00465233D01*
X00174767Y00464393D01*
X0017457Y00463402D01*
Y00423402D01*
X00174767Y00422411D01*
X00175329Y00421571D01*
X00176169Y00421009D01*
X0017716Y00420812D01*
X0022216D01*
X00223151Y00421009D01*
X00223991Y00421571D01*
X00224553Y00422411D01*
X0022475Y00423402D01*
Y00463402D01*
X00224553Y00464393D01*
X00223991Y00465233D01*
X00223151Y00465795D01*
X0022216Y00465992D01*
D02*
G37*
G36*
X01102484Y00465566D02*
X01057484D01*
X01056493Y00465369D01*
X01055653Y00464807D01*
X01055091Y00463967D01*
X01054894Y00462976D01*
Y00422976D01*
X01055091Y00421985D01*
X01055653Y00421145D01*
X01056493Y00420583D01*
X01057484Y00420386D01*
X01102484D01*
X01103475Y00420583D01*
X01104315Y00421145D01*
X01104877Y00421985D01*
X01105074Y00422976D01*
Y00462976D01*
X01104877Y00463967D01*
X01104315Y00464807D01*
X01103475Y00465369D01*
X01102484Y00465566D01*
D02*
G37*
G36*
X00862756D02*
X00817756D01*
X00816765Y00465369D01*
X00815925Y00464807D01*
X00815363Y00463967D01*
X00815166Y00462976D01*
Y00422976D01*
X00815363Y00421985D01*
X00815925Y00421145D01*
X00816765Y00420583D01*
X00817756Y00420386D01*
X00862756D01*
X00863747Y00420583D01*
X00864587Y00421145D01*
X00865149Y00421985D01*
X00865346Y00422976D01*
Y00462976D01*
X00865149Y00463967D01*
X00864587Y00464807D01*
X00863747Y00465369D01*
X00862756Y00465566D01*
D02*
G37*
G36*
X00463468Y00465312D02*
X00418468D01*
X00417477Y00465115D01*
X00416637Y00464553D01*
X00416075Y00463713D01*
X00415878Y00462722D01*
Y00422722D01*
X00416075Y00421731D01*
X00416637Y00420891D01*
X00417477Y00420329D01*
X00418468Y00420132D01*
X00463468D01*
X00464459Y00420329D01*
X00465299Y00420891D01*
X00465861Y00421731D01*
X00466058Y00422722D01*
Y00462722D01*
X00465861Y00463713D01*
X00465299Y00464553D01*
X00464459Y00465115D01*
X00463468Y00465312D01*
D02*
G37*
G36*
X011329Y0042706D02*
X01131314Y00426744D01*
X0112997Y00425846D01*
X01129072Y00424502D01*
X01128756Y00422916D01*
X01129072Y0042133D01*
X0112997Y00419986D01*
X01131314Y00419088D01*
X011329Y00418772D01*
X01134486Y00419088D01*
X0113583Y00419986D01*
X01136728Y0042133D01*
X01137044Y00422916D01*
X01136728Y00424502D01*
X0113583Y00425846D01*
X01134486Y00426744D01*
X011329Y0042706D01*
D02*
G37*
G36*
X00252984Y00427054D02*
X00251398Y00426738D01*
X00250054Y0042584D01*
X00249156Y00424496D01*
X0024884Y0042291D01*
X00249156Y00421324D01*
X00250054Y0041998D01*
X00251398Y00419082D01*
X00252984Y00418766D01*
X0025457Y00419082D01*
X00255914Y0041998D01*
X00256812Y00421324D01*
X00257128Y0042291D01*
X00256812Y00424496D01*
X00255914Y0042584D01*
X0025457Y00426738D01*
X00252984Y00427054D01*
D02*
G37*
G36*
X00131826Y00426546D02*
X0013024Y0042623D01*
X00128896Y00425332D01*
X00127998Y00423988D01*
X00127682Y00422402D01*
X00127998Y00420816D01*
X00128896Y00419472D01*
X0013024Y00418574D01*
X00131826Y00418258D01*
X00133412Y00418574D01*
X00134756Y00419472D01*
X00135654Y00420816D01*
X0013597Y00422402D01*
X00135654Y00423988D01*
X00134756Y00425332D01*
X00133412Y0042623D01*
X00131826Y00426546D01*
D02*
G37*
G36*
X00492954Y0042634D02*
X00491368Y00426024D01*
X00490024Y00425126D01*
X00489126Y00423782D01*
X0048881Y00422196D01*
X00489126Y0042061D01*
X00490024Y00419266D01*
X00491368Y00418368D01*
X00492954Y00418052D01*
X0049454Y00418368D01*
X00495884Y00419266D01*
X00496782Y0042061D01*
X00497098Y00422196D01*
X00496782Y00423782D01*
X00495884Y00425126D01*
X0049454Y00426024D01*
X00492954Y0042634D01*
D02*
G37*
G36*
X00371542Y0042299D02*
X00369956Y00422674D01*
X00368612Y00421776D01*
X00367714Y00420432D01*
X00367398Y00418846D01*
X00367714Y0041726D01*
X00368612Y00415916D01*
X00369956Y00415018D01*
X00371542Y00414702D01*
X00373128Y00415018D01*
X00374472Y00415916D01*
X0037537Y0041726D01*
X00375686Y00418846D01*
X0037537Y00420432D01*
X00374472Y00421776D01*
X00373128Y00422674D01*
X00371542Y0042299D01*
D02*
G37*
G36*
X00675025Y00422391D02*
X00673439Y00422075D01*
X00672095Y00421177D01*
X00671197Y00419833D01*
X00670882Y00418247D01*
X00671197Y00416661D01*
X00672095Y00415317D01*
X00673439Y00414419D01*
X00675025Y00414103D01*
X00676611Y00414419D01*
X00677955Y00415317D01*
X00678853Y00416661D01*
X00679169Y00418247D01*
X00678853Y00419833D01*
X00677955Y00421177D01*
X00676611Y00422075D01*
X00675025Y00422391D01*
D02*
G37*
G36*
X01020826Y00419942D02*
X0101924Y00419626D01*
X01017896Y00418728D01*
X01016998Y00417384D01*
X01016682Y00415798D01*
X01016998Y00414212D01*
X01017896Y00412868D01*
X0101924Y0041197D01*
X01020826Y00411654D01*
X01022412Y0041197D01*
X01023756Y00412868D01*
X01024654Y00414212D01*
X0102497Y00415798D01*
X01024654Y00417384D01*
X01023756Y00418728D01*
X01022412Y00419626D01*
X01020826Y00419942D01*
D02*
G37*
G36*
X0090678Y00419688D02*
X00905194Y00419372D01*
X0090385Y00418474D01*
X00902952Y0041713D01*
X00902636Y00415544D01*
X00902952Y00413958D01*
X0090385Y00412614D01*
X00905194Y00411716D01*
X0090678Y004114D01*
X00908366Y00411716D01*
X0090971Y00412614D01*
X00910608Y00413958D01*
X00910924Y00415544D01*
X00910608Y0041713D01*
X0090971Y00418474D01*
X00908366Y00419372D01*
X0090678Y00419688D01*
D02*
G37*
G36*
X00789686D02*
X007881Y00419372D01*
X00786756Y00418474D01*
X00785858Y0041713D01*
X00785542Y00415544D01*
X00785858Y00413958D01*
X00786756Y00412614D01*
X007881Y00411716D01*
X00789686Y004114D01*
X00791272Y00411716D01*
X00792616Y00412614D01*
X00793514Y00413958D01*
X0079383Y00415544D01*
X00793514Y0041713D01*
X00792616Y00418474D01*
X00791272Y00419372D01*
X00789686Y00419688D01*
D02*
G37*
G36*
X00020126Y00415938D02*
X0001854Y00415622D01*
X00017196Y00414724D01*
X00016298Y0041338D01*
X00015982Y00411794D01*
X00016298Y00410208D01*
X00017196Y00408864D01*
X0001854Y00407966D01*
X00020126Y0040765D01*
X00021712Y00407966D01*
X00023056Y00408864D01*
X00023954Y00410208D01*
X0002427Y00411794D01*
X00023954Y0041338D01*
X00023056Y00414724D01*
X00021712Y00415622D01*
X00020126Y00415938D01*
D02*
G37*
G36*
X01238628Y00435496D02*
X01235635Y00435201D01*
X01232756Y00434328D01*
X01230103Y0043291D01*
X01227778Y00431002D01*
X0122587Y00428677D01*
X01224452Y00426024D01*
X01223579Y00423145D01*
X01223284Y00420152D01*
X01223579Y00417159D01*
X01224452Y0041428D01*
X0122587Y00411627D01*
X01227778Y00409302D01*
X01230103Y00407394D01*
X01232756Y00405976D01*
X01235635Y00405103D01*
X01238628Y00404808D01*
X01241621Y00405103D01*
X012445Y00405976D01*
X01247153Y00407394D01*
X01249478Y00409302D01*
X01251386Y00411627D01*
X01252804Y0041428D01*
X01253677Y00417159D01*
X01253972Y00420152D01*
X01253677Y00423145D01*
X01252804Y00426024D01*
X01251386Y00428677D01*
X01249478Y00431002D01*
X01247153Y0043291D01*
X012445Y00434328D01*
X01241621Y00435201D01*
X01238628Y00435496D01*
D02*
G37*
G36*
X01187828D02*
X01184835Y00435201D01*
X01181956Y00434328D01*
X01179303Y0043291D01*
X01176978Y00431002D01*
X0117507Y00428677D01*
X01173652Y00426024D01*
X01172779Y00423145D01*
X01172484Y00420152D01*
X01172779Y00417159D01*
X01173652Y0041428D01*
X0117507Y00411627D01*
X01176978Y00409302D01*
X01179303Y00407394D01*
X01181956Y00405976D01*
X01184835Y00405103D01*
X01187828Y00404808D01*
X01190822Y00405103D01*
X011937Y00405976D01*
X01196353Y00407394D01*
X01198678Y00409302D01*
X01200586Y00411627D01*
X01202004Y0041428D01*
X01202877Y00417159D01*
X01203172Y00420152D01*
X01202877Y00423145D01*
X01202004Y00426024D01*
X01200586Y00428677D01*
X01198678Y00431002D01*
X01196353Y0043291D01*
X011937Y00434328D01*
X01190822Y00435201D01*
X01187828Y00435496D01*
D02*
G37*
G36*
X00740854Y00411878D02*
X00739268Y00411562D01*
X00737924Y00410664D01*
X00737026Y0040932D01*
X0073671Y00407734D01*
X00737026Y00406148D01*
X00737924Y00404804D01*
X00739268Y00403906D01*
X00740854Y0040359D01*
X0074244Y00403906D01*
X00743784Y00404804D01*
X00744682Y00406148D01*
X00744998Y00407734D01*
X00744682Y0040932D01*
X00743784Y00410664D01*
X0074244Y00411562D01*
X00740854Y00411878D01*
D02*
G37*
G36*
X0052278Y00402114D02*
X00521194Y00401798D01*
X0051985Y004009D01*
X00518952Y00399556D01*
X00518636Y0039797D01*
X00518952Y00396384D01*
X0051985Y0039504D01*
X00521194Y00394142D01*
X0052278Y00393826D01*
X00524366Y00394142D01*
X0052571Y0039504D01*
X00526608Y00396384D01*
X00526924Y0039797D01*
X00526608Y00399556D01*
X0052571Y004009D01*
X00524366Y00401798D01*
X0052278Y00402114D01*
D02*
G37*
G36*
X01213228Y00406119D02*
X01210286Y00405732D01*
X01207544Y00404596D01*
X0120519Y0040279D01*
X01203384Y00400436D01*
X01202248Y00397694D01*
X01201861Y00394752D01*
X01202248Y0039181D01*
X01203384Y00389068D01*
X0120519Y00386714D01*
X01207544Y00384908D01*
X01210286Y00383772D01*
X01213228Y00383385D01*
X0121617Y00383772D01*
X01218912Y00384908D01*
X01221266Y00386714D01*
X01223072Y00389068D01*
X01224208Y0039181D01*
X01224595Y00394752D01*
X01224208Y00397694D01*
X01223072Y00400436D01*
X01221266Y0040279D01*
X01218912Y00404596D01*
X0121617Y00405732D01*
X01213228Y00406119D01*
D02*
G37*
G36*
X00730504Y00399782D02*
X00727089Y00399332D01*
X00723907Y00398014D01*
X00721174Y00395918D01*
X00719078Y00393185D01*
X0071776Y00390003D01*
X0071731Y00386588D01*
X0071776Y00383173D01*
X00719078Y00379991D01*
X00721174Y00377258D01*
X00723907Y00375162D01*
X00727089Y00373844D01*
X00730504Y00373394D01*
X00733919Y00373844D01*
X00737101Y00375162D01*
X00739834Y00377258D01*
X0074193Y00379991D01*
X00743248Y00383173D01*
X00743698Y00386588D01*
X00743248Y00390003D01*
X0074193Y00393185D01*
X00739834Y00395918D01*
X00737101Y00398014D01*
X00733919Y00399332D01*
X00730504Y00399782D01*
D02*
G37*
G36*
X00023876Y00398766D02*
X00020461Y00398316D01*
X00017279Y00396998D01*
X00014547Y00394902D01*
X0001245Y00392169D01*
X00011132Y00388987D01*
X00010682Y00385572D01*
X00011132Y00382157D01*
X0001245Y00378975D01*
X00014547Y00376242D01*
X00017279Y00374146D01*
X00020461Y00372828D01*
X00023876Y00372378D01*
X00027291Y00372828D01*
X00030473Y00374146D01*
X00033205Y00376242D01*
X00035302Y00378975D01*
X0003662Y00382157D01*
X0003707Y00385572D01*
X0003662Y00388987D01*
X00035302Y00392169D01*
X00033205Y00394902D01*
X00030473Y00396998D01*
X00027291Y00398316D01*
X00023876Y00398766D01*
D02*
G37*
G36*
X0054985Y00397914D02*
X00546435Y00397464D01*
X00543253Y00396146D01*
X00540521Y00394049D01*
X00538424Y00391317D01*
X00537106Y00388135D01*
X00536656Y0038472D01*
X00537106Y00381305D01*
X00538424Y00378123D01*
X00540521Y00375391D01*
X00543253Y00373294D01*
X00546435Y00371976D01*
X0054985Y00371526D01*
X00553265Y00371976D01*
X00556447Y00373294D01*
X00559179Y00375391D01*
X00561276Y00378123D01*
X00562594Y00381305D01*
X00563044Y0038472D01*
X00562594Y00388135D01*
X00561276Y00391317D01*
X00559179Y00394049D01*
X00556447Y00396146D01*
X00553265Y00397464D01*
X0054985Y00397914D01*
D02*
G37*
G36*
X01009513Y0036892D02*
X01007927Y00368604D01*
X01006583Y00367706D01*
X01005685Y00366362D01*
X01005628Y00366076D01*
X01004719Y00365914D01*
X01004309Y00365955D01*
X01003479Y00367198D01*
X01002134Y00368096D01*
X01000549Y00368411D01*
X00998963Y00368096D01*
X00997619Y00367198D01*
X00996721Y00365854D01*
X00996405Y00364268D01*
X00996721Y00362682D01*
X00997619Y00361338D01*
X00998963Y0036044D01*
X01000549Y00360124D01*
X01002134Y0036044D01*
X01003479Y00361338D01*
X01004377Y00362682D01*
X01004434Y00362968D01*
X01005343Y0036313D01*
X01005753Y00363088D01*
X01006493Y00361981D01*
X01006445Y0036071D01*
X01005547Y00359366D01*
X01005231Y0035778D01*
X01005547Y00356194D01*
X01006445Y0035485D01*
X01007789Y00353952D01*
X01009375Y00353636D01*
X0101096Y00353952D01*
X01012305Y0035485D01*
X01013203Y00356194D01*
X01013519Y0035778D01*
X01013203Y00359366D01*
X01012395Y00360575D01*
X01012443Y00361846D01*
X01013341Y0036319D01*
X01013656Y00364776D01*
X01013341Y00366362D01*
X01012443Y00367706D01*
X01011098Y00368604D01*
X01009513Y0036892D01*
D02*
G37*
G36*
X00926135Y0037321D02*
X0092455Y00372895D01*
X00923205Y00371997D01*
X00922307Y00370652D01*
X00921992Y00369067D01*
X00922307Y00367481D01*
X00923205Y00366137D01*
X0092455Y00365238D01*
X00926135Y00364923D01*
X00927721Y00365238D01*
X00929065Y00366137D01*
X00929964Y00367481D01*
X00930279Y00369067D01*
X00929964Y00370652D01*
X00929065Y00371997D01*
X00927721Y00372895D01*
X00926135Y0037321D01*
D02*
G37*
G36*
X00457868Y00368728D02*
X00456282Y00368413D01*
X00454938Y00367514D01*
X00454039Y0036617D01*
X00453724Y00364585D01*
X00454039Y00362999D01*
X00454938Y00361655D01*
X00456282Y00360756D01*
X00457868Y00360441D01*
X00459453Y00360756D01*
X00460798Y00361655D01*
X00461696Y00362999D01*
X00462011Y00364585D01*
X00461696Y0036617D01*
X00460798Y00367514D01*
X00459453Y00368413D01*
X00457868Y00368728D01*
D02*
G37*
G36*
X0055Y00426866D02*
X00548414Y0042655D01*
X0054707Y00425652D01*
X00546172Y00424308D01*
X00545856Y00422722D01*
X00546172Y00421136D01*
X0054707Y00419792D01*
X00548414Y00418894D01*
X0055Y00418578D01*
X00551404Y00418858D01*
X00551946Y00418442D01*
X00552381Y00417897D01*
X00552246Y00417572D01*
X00551979Y00415544D01*
X00552246Y00413516D01*
X00553029Y00411626D01*
X00554274Y00410002D01*
X00555897Y00408757D01*
X00557788Y00407974D01*
X00559816Y00407707D01*
X00561844Y00407974D01*
X00563735Y00408757D01*
X00565095Y00409801D01*
X00566012Y00408999D01*
X00566055Y00408937D01*
X00565862Y00407967D01*
Y00362967D01*
X00566059Y00361976D01*
X00566621Y00361136D01*
X00567461Y00360574D01*
X00568452Y00360377D01*
X00608452D01*
X00609443Y00360574D01*
X00610283Y00361136D01*
X00610845Y00361976D01*
X00611042Y00362967D01*
Y00407967D01*
X00610845Y00408958D01*
X00610283Y00409798D01*
X00609443Y0041036D01*
X00608452Y00410557D01*
X00568452D01*
X00567461Y0041036D01*
X00566992Y00410047D01*
X00566112Y00410986D01*
X00566603Y00411626D01*
X00567386Y00413516D01*
X00567653Y00415544D01*
X00567386Y00417572D01*
X00566603Y00419463D01*
X00565358Y00421086D01*
X00563735Y00422331D01*
X00561844Y00423114D01*
X00559816Y00423381D01*
X00557788Y00423114D01*
X00555897Y00422331D01*
X00555264Y00421845D01*
X00554112Y00422562D01*
X00554144Y00422722D01*
X00553828Y00424308D01*
X0055293Y00425652D01*
X00551586Y0042655D01*
X0055Y00426866D01*
D02*
G37*
G36*
X00295729Y00368236D02*
X00294143Y00367921D01*
X00292799Y00367023D01*
X002919Y00365678D01*
X00291585Y00364093D01*
X002919Y00362507D01*
X00292799Y00361163D01*
X00294143Y00360264D01*
X00295729Y00359949D01*
X00297314Y00360264D01*
X00298659Y00361163D01*
X00299557Y00362507D01*
X00299872Y00364093D01*
X00299557Y00365678D01*
X00298659Y00367023D01*
X00297314Y00367921D01*
X00295729Y00368236D01*
D02*
G37*
G36*
X0004Y00422837D02*
X00037972Y0042257D01*
X00036082Y00421787D01*
X00034458Y00420542D01*
X00033213Y00418918D01*
X0003243Y00417028D01*
X00032163Y00415D01*
X0003243Y00412972D01*
X00033213Y00411082D01*
X00034458Y00409458D01*
X00036082Y00408213D01*
X00037972Y0040743D01*
X0004Y00407163D01*
X00042028Y0040743D01*
X00042222Y0040751D01*
X00043444Y00406642D01*
Y00362394D01*
X00043641Y00361403D01*
X00044203Y00360563D01*
X00045043Y00360001D01*
X00046034Y00359804D01*
X00086034D01*
X00087025Y00360001D01*
X00087865Y00360563D01*
X00088427Y00361403D01*
X00088624Y00362394D01*
Y00407394D01*
X00088427Y00408385D01*
X00087865Y00409225D01*
X00087025Y00409787D01*
X00086034Y00409984D01*
X00047546D01*
X00047099Y00410629D01*
X00046859Y00411254D01*
X0004757Y00412972D01*
X00047837Y00415D01*
X0004757Y00417028D01*
X00046787Y00418918D01*
X00045542Y00420542D01*
X00043918Y00421787D01*
X00042028Y0042257D01*
X0004Y00422837D01*
D02*
G37*
G36*
X00734254Y00365006D02*
X00732668Y0036469D01*
X00731324Y00363792D01*
X00730426Y00362448D01*
X0073011Y00360862D01*
X00730426Y00359276D01*
X00731324Y00357932D01*
X00732668Y00357034D01*
X00734254Y00356718D01*
X0073584Y00357034D01*
X00737184Y00357932D01*
X00738082Y00359276D01*
X00738398Y00360862D01*
X00738082Y00362448D01*
X00737184Y00363792D01*
X0073584Y0036469D01*
X00734254Y00365006D01*
D02*
G37*
G36*
X01117632Y00364812D02*
X01116046Y00364496D01*
X01114702Y00363598D01*
X01113804Y00362254D01*
X01113488Y00360668D01*
X01113804Y00359082D01*
X01114702Y00357738D01*
X01116046Y0035684D01*
X01117632Y00356524D01*
X01119218Y0035684D01*
X01120562Y00357738D01*
X0112146Y00359082D01*
X01121776Y00360668D01*
X0112146Y00362254D01*
X01120562Y00363598D01*
X01119218Y00364496D01*
X01117632Y00364812D01*
D02*
G37*
G36*
X01100154Y00369818D02*
X01098568Y00369502D01*
X01097224Y00368604D01*
X01096325Y0036726D01*
X0109601Y00365674D01*
X01096325Y00364088D01*
X01097038Y00363022D01*
X01096193Y00361758D01*
X01095877Y00360172D01*
X01096193Y00358586D01*
X01097091Y00357242D01*
X01098435Y00356344D01*
X01100021Y00356028D01*
X01101607Y00356344D01*
X01102951Y00357242D01*
X01103849Y00358586D01*
X01104165Y00360172D01*
X01103849Y00361758D01*
X01103137Y00362824D01*
X01103982Y00364088D01*
X01104297Y00365674D01*
X01103982Y0036726D01*
X01103084Y00368604D01*
X01101739Y00369502D01*
X01100154Y00369818D01*
D02*
G37*
G36*
X00465398Y00362792D02*
X00463812Y00362476D01*
X00462468Y00361578D01*
X0046157Y00360234D01*
X00461254Y00358648D01*
X0046157Y00357062D01*
X00462468Y00355718D01*
X00463812Y0035482D01*
X00465398Y00354504D01*
X00466984Y0035482D01*
X00468328Y00355718D01*
X00469226Y00357062D01*
X00469542Y00358648D01*
X00469226Y00360234D01*
X00468328Y00361578D01*
X00466984Y00362476D01*
X00465398Y00362792D01*
D02*
G37*
G36*
X005536Y00362418D02*
X00552014Y00362102D01*
X0055067Y00361204D01*
X00549772Y0035986D01*
X00549456Y00358274D01*
X00549772Y00356688D01*
X0055067Y00355344D01*
X00552014Y00354446D01*
X005536Y0035413D01*
X00555186Y00354446D01*
X0055653Y00355344D01*
X00557428Y00356688D01*
X00557744Y00358274D01*
X00557428Y0035986D01*
X0055653Y00361204D01*
X00555186Y00362102D01*
X005536Y00362418D01*
D02*
G37*
G36*
X01238628Y00384696D02*
X01235635Y00384401D01*
X01232756Y00383528D01*
X01230103Y0038211D01*
X01227778Y00380202D01*
X0122587Y00377877D01*
X01224452Y00375224D01*
X01223579Y00372346D01*
X01223284Y00369352D01*
X01223579Y00366359D01*
X01224452Y0036348D01*
X0122587Y00360827D01*
X01227778Y00358502D01*
X01230103Y00356594D01*
X01232756Y00355176D01*
X01235635Y00354303D01*
X01238628Y00354008D01*
X01241621Y00354303D01*
X012445Y00355176D01*
X01247153Y00356594D01*
X01249478Y00358502D01*
X01251386Y00360827D01*
X01252804Y0036348D01*
X01253677Y00366359D01*
X01253972Y00369352D01*
X01253677Y00372346D01*
X01252804Y00375224D01*
X01251386Y00377877D01*
X01249478Y00380202D01*
X01247153Y0038211D01*
X012445Y00383528D01*
X01241621Y00384401D01*
X01238628Y00384696D01*
D02*
G37*
G36*
X01187828D02*
X01184835Y00384401D01*
X01181956Y00383528D01*
X01179303Y0038211D01*
X01176978Y00380202D01*
X0117507Y00377877D01*
X01173652Y00375224D01*
X01172779Y00372346D01*
X01172484Y00369352D01*
X01172779Y00366359D01*
X01173652Y0036348D01*
X0117507Y00360827D01*
X01176978Y00358502D01*
X01179303Y00356594D01*
X01181956Y00355176D01*
X01184835Y00354303D01*
X01187828Y00354008D01*
X01190822Y00354303D01*
X011937Y00355176D01*
X01196353Y00356594D01*
X01198678Y00358502D01*
X01200586Y00360827D01*
X01202004Y0036348D01*
X01202877Y00366359D01*
X01203172Y00369352D01*
X01202877Y00372346D01*
X01202004Y00375224D01*
X01200586Y00377877D01*
X01198678Y00380202D01*
X01196353Y0038211D01*
X011937Y00383528D01*
X01190822Y00384401D01*
X01187828Y00384696D01*
D02*
G37*
G36*
X00032512Y00361522D02*
X00030926Y00361206D01*
X00029582Y00360308D01*
X00028684Y00358964D01*
X00028368Y00357378D01*
X00028684Y00355792D01*
X00029582Y00354448D01*
X00030926Y0035355D01*
X00032512Y00353234D01*
X00034098Y0035355D01*
X00035442Y00354448D01*
X0003634Y00355792D01*
X00036656Y00357378D01*
X0003634Y00358964D01*
X00035442Y00360308D01*
X00034098Y00361206D01*
X00032512Y00361522D01*
D02*
G37*
G36*
X005278Y00358716D02*
X00526214Y003584D01*
X0052487Y00357502D01*
X00523972Y00356158D01*
X00523656Y00354572D01*
X00523972Y00352986D01*
X0052487Y00351642D01*
X00526214Y00350744D01*
X005278Y00350428D01*
X00529386Y00350744D01*
X0053073Y00351642D01*
X00531628Y00352986D01*
X00531944Y00354572D01*
X00531628Y00356158D01*
X0053073Y00357502D01*
X00529386Y003584D01*
X005278Y00358716D01*
D02*
G37*
G36*
X00371518Y00364661D02*
X00369932Y00364346D01*
X00368588Y00363448D01*
X0036769Y00362103D01*
X00367374Y00360518D01*
X0036769Y00358932D01*
X00368588Y00357588D01*
X00369932Y00356689D01*
X00371518Y00356374D01*
X00373104Y00356689D01*
X00374448Y00357588D01*
X00375837Y0035738D01*
X00375953Y00357206D01*
X00376038Y00355736D01*
X0037514Y00354392D01*
X00374824Y00352806D01*
X0037514Y0035122D01*
X00376038Y00349876D01*
X00377382Y00348978D01*
X00378968Y00348662D01*
X00380554Y00348978D01*
X00381898Y00349876D01*
X00382796Y0035122D01*
X00383112Y00352806D01*
X00382796Y00354392D01*
X00382121Y00355402D01*
X00382036Y00356872D01*
X00382934Y00358216D01*
X0038325Y00359802D01*
X00382934Y00361388D01*
X00382036Y00362732D01*
X00380692Y0036363D01*
X00379106Y00363946D01*
X0037752Y0036363D01*
X00376176Y00362732D01*
X00374787Y0036294D01*
X00374448Y00363448D01*
X00373104Y00364346D01*
X00371518Y00364661D01*
D02*
G37*
G36*
X00347Y00363144D02*
X00345414Y00362828D01*
X0034407Y0036193D01*
X00343172Y00360586D01*
X00342856Y00359D01*
X00343172Y00357414D01*
X0034407Y0035607D01*
X00343692Y00354795D01*
X00343422Y00354392D01*
X00343106Y00352806D01*
X00343422Y0035122D01*
X0034432Y00349876D01*
X00345664Y00348978D01*
X0034725Y00348662D01*
X00348836Y00348978D01*
X0035018Y00349876D01*
X00351078Y0035122D01*
X00351394Y00352806D01*
X00351078Y00354392D01*
X0035018Y00355736D01*
X00350477Y00356889D01*
X00350828Y00357414D01*
X00351144Y00359D01*
X00350828Y00360586D01*
X0034993Y0036193D01*
X00348586Y00362828D01*
X00347Y00363144D01*
D02*
G37*
G36*
X00605216Y00356361D02*
X0060363Y00356045D01*
X00602286Y00355147D01*
X00601388Y00353803D01*
X00601072Y00352217D01*
X00601388Y00350631D01*
X00602286Y00349287D01*
X0060363Y00348389D01*
X00605216Y00348073D01*
X00606802Y00348389D01*
X00608146Y00349287D01*
X00609044Y00350631D01*
X0060936Y00352217D01*
X00609044Y00353803D01*
X00608146Y00355147D01*
X00606802Y00356045D01*
X00605216Y00356361D01*
D02*
G37*
G36*
X00082042Y00355788D02*
X00080456Y00355472D01*
X00079112Y00354574D01*
X00078214Y0035323D01*
X00077898Y00351644D01*
X00078214Y00350058D01*
X00079112Y00348714D01*
X00080456Y00347816D01*
X00082042Y003475D01*
X00083628Y00347816D01*
X00084972Y00348714D01*
X0008587Y00350058D01*
X00086186Y00351644D01*
X0008587Y0035323D01*
X00084972Y00354574D01*
X00083628Y00355472D01*
X00082042Y00355788D01*
D02*
G37*
G36*
X00458216Y0035568D02*
X0045663Y00355364D01*
X00455286Y00354466D01*
X00454388Y00353122D01*
X00454072Y00351536D01*
X00454388Y0034995D01*
X00455286Y00348606D01*
X0045663Y00347708D01*
X00458216Y00347392D01*
X00459802Y00347708D01*
X00461146Y00348606D01*
X00462044Y0034995D01*
X0046236Y00351536D01*
X00462044Y00353122D01*
X00461146Y00354466D01*
X00459802Y00355364D01*
X00458216Y0035568D01*
D02*
G37*
G36*
X00711789Y00410087D02*
X00671789D01*
X00670798Y0040989D01*
X00669958Y00409328D01*
X00669397Y00408488D01*
X00669199Y00407497D01*
Y00362497D01*
X00669397Y00361506D01*
X00669958Y00360666D01*
X00670798Y00360104D01*
X00671789Y00359907D01*
X00711789D01*
X0071278Y00360104D01*
X00713276Y00360436D01*
X00714156Y00359496D01*
X00713713Y00358918D01*
X0071293Y00357028D01*
X00712663Y00355D01*
X0071293Y00352972D01*
X00713713Y00351082D01*
X00714958Y00349458D01*
X00716581Y00348213D01*
X00718472Y0034743D01*
X007205Y00347163D01*
X00722528Y0034743D01*
X00724418Y00348213D01*
X00726042Y00349458D01*
X00727287Y00351082D01*
X0072807Y00352972D01*
X00728337Y00355D01*
X0072807Y00357028D01*
X00727287Y00358918D01*
X00726042Y00360542D01*
X00724418Y00361787D01*
X00722528Y0036257D01*
X007205Y00362837D01*
X00718472Y0036257D01*
X00716581Y00361787D01*
X00715177Y00360709D01*
X00714182Y00361506D01*
X00714379Y00362497D01*
Y00407497D01*
X00714182Y00408488D01*
X00713621Y00409328D01*
X0071278Y0040989D01*
X00711789Y00410087D01*
D02*
G37*
G36*
X00897911Y0035495D02*
X00896325Y00354634D01*
X00894981Y00353736D01*
X00894083Y00352392D01*
X00893767Y00350806D01*
X00894083Y0034922D01*
X00894981Y00347876D01*
X00896325Y00346978D01*
X00897911Y00346662D01*
X00899497Y00346978D01*
X00900841Y00347876D01*
X00901739Y0034922D01*
X00902055Y00350806D01*
X00901739Y00352392D01*
X00900841Y00353736D01*
X00899497Y00354634D01*
X00897911Y0035495D01*
D02*
G37*
G36*
X00974539Y0035275D02*
X00972953Y00352434D01*
X00971609Y00351536D01*
X00970711Y00350192D01*
X00970395Y00348606D01*
X00970711Y0034702D01*
X00971609Y00345676D01*
X00972953Y00344778D01*
X00974539Y00344462D01*
X00976125Y00344778D01*
X00977469Y00345676D01*
X00978367Y0034702D01*
X00978682Y00348606D01*
X00978367Y00350192D01*
X00977469Y00351536D01*
X00976125Y00352434D01*
X00974539Y0035275D01*
D02*
G37*
G36*
X0080625Y00358716D02*
X00804664Y003584D01*
X0080332Y00357502D01*
X00802422Y00356158D01*
X00802106Y00354572D01*
X00802422Y00352986D01*
X00802941Y00352209D01*
X00803109Y00350947D01*
X00802211Y00349603D01*
X00801896Y00348017D01*
X00802211Y00346431D01*
X00803109Y00345087D01*
X00804454Y00344189D01*
X00806039Y00343873D01*
X00807625Y00344189D01*
X00808969Y00345087D01*
X00809867Y00346431D01*
X00810183Y00348017D01*
X00809867Y00349603D01*
X00809348Y0035038D01*
X0080918Y00351642D01*
X00810078Y00352986D01*
X00810394Y00354572D01*
X00810078Y00356158D01*
X0080918Y00357502D01*
X00807836Y003584D01*
X0080625Y00358716D01*
D02*
G37*
G36*
X00267504Y00349976D02*
X00265918Y0034966D01*
X00264574Y00348762D01*
X00263676Y00347418D01*
X0026336Y00345832D01*
X00263676Y00344246D01*
X00264574Y00342902D01*
X00265918Y00342004D01*
X00267504Y00341688D01*
X0026909Y00342004D01*
X00270434Y00342902D01*
X00271332Y00344246D01*
X00271648Y00345832D01*
X00271332Y00347418D01*
X00270434Y00348762D01*
X0026909Y0034966D01*
X00267504Y00349976D01*
D02*
G37*
G36*
X00344132Y00347776D02*
X00342546Y0034746D01*
X00341202Y00346562D01*
X00340304Y00345218D01*
X00339988Y00343632D01*
X00340304Y00342046D01*
X00341202Y00340702D01*
X00342546Y00339804D01*
X00344132Y00339488D01*
X00345718Y00339804D01*
X00347062Y00340702D01*
X0034796Y00342046D01*
X00348276Y00343632D01*
X0034796Y00345218D01*
X00347062Y00346562D01*
X00345718Y0034746D01*
X00344132Y00347776D01*
D02*
G37*
G36*
X00496062Y00346028D02*
X00494476Y00345712D01*
X00493132Y00344814D01*
X00492234Y0034347D01*
X00491918Y00341884D01*
X00492234Y00340298D01*
X00493132Y00338954D01*
X00494476Y00338056D01*
X00496062Y0033774D01*
X00497648Y00338056D01*
X00498992Y00338954D01*
X0049989Y00340298D01*
X00500206Y00341884D01*
X0049989Y0034347D01*
X00498992Y00344814D01*
X00497648Y00345712D01*
X00496062Y00346028D01*
D02*
G37*
G36*
X01114298Y00345266D02*
X01112712Y0034495D01*
X01111368Y00344052D01*
X0111047Y00342708D01*
X01110154Y00341122D01*
X0111047Y00339536D01*
X01111368Y00338192D01*
X01112712Y00337294D01*
X01114298Y00336978D01*
X01115884Y00337294D01*
X01117228Y00338192D01*
X01118126Y00339536D01*
X01118442Y00341122D01*
X01118126Y00342708D01*
X01117228Y00344052D01*
X01115884Y0034495D01*
X01114298Y00345266D01*
D02*
G37*
G36*
X01001Y00350262D02*
X00999414Y00349946D01*
X0099807Y00349048D01*
X00997172Y00347704D01*
X00996856Y00346118D01*
X00997172Y00344532D01*
X00997484Y00344066D01*
X00998003Y00343059D01*
X00997484Y00342052D01*
X00997172Y00341586D01*
X00996856Y0034D01*
X00997172Y00338414D01*
X0099807Y0033707D01*
X00999414Y00336172D01*
X01001Y00335856D01*
X01002586Y00336172D01*
X0100393Y0033707D01*
X01004828Y00338414D01*
X01005144Y0034D01*
X01004828Y00341586D01*
X01004516Y00342052D01*
X01003997Y00343059D01*
X01004516Y00344066D01*
X01004828Y00344532D01*
X01005144Y00346118D01*
X01004828Y00347704D01*
X0100393Y00349048D01*
X01002586Y00349946D01*
X01001Y00350262D01*
D02*
G37*
G36*
X00974539Y00341828D02*
X00972953Y00341512D01*
X00971609Y00340614D01*
X00970711Y0033927D01*
X00970395Y00337684D01*
X00970711Y00336098D01*
X00971609Y00334754D01*
X00972953Y00333856D01*
X00974539Y0033354D01*
X00976125Y00333856D01*
X00977469Y00334754D01*
X00978367Y00336098D01*
X00978682Y00337684D01*
X00978367Y0033927D01*
X00977469Y00340614D01*
X00976125Y00341512D01*
X00974539Y00341828D01*
D02*
G37*
G36*
X00618744Y00335614D02*
X00617158Y00335298D01*
X00615814Y003344D01*
X00614916Y00333056D01*
X00614905Y00333002D01*
X00613557Y00332734D01*
X00613292Y0033313D01*
X00611948Y00334028D01*
X00610362Y00334344D01*
X00608776Y00334028D01*
X00607432Y0033313D01*
X00606534Y00331786D01*
X00606297Y00330596D01*
X00605017Y00330226D01*
X0060491Y00330386D01*
X00603566Y00331284D01*
X0060198Y003316D01*
X00600394Y00331284D01*
X0059905Y00330386D01*
X00598152Y00329042D01*
X00597836Y00327456D01*
X00598152Y0032587D01*
X0059905Y00324526D01*
X00600394Y00323628D01*
X0060198Y00323312D01*
X00603566Y00323628D01*
X0060491Y00324526D01*
X00605808Y0032587D01*
X00606045Y0032706D01*
X00607325Y0032743D01*
X00607432Y0032727D01*
X00608776Y00326372D01*
X00610362Y00326056D01*
X00611948Y00326372D01*
X00613292Y0032727D01*
X0061419Y00328614D01*
X00614201Y00328668D01*
X00615549Y00328936D01*
X00615814Y0032854D01*
X00617158Y00327642D01*
X00618744Y00327326D01*
X0062033Y00327642D01*
X00621674Y0032854D01*
X00622572Y00329884D01*
X00622888Y0033147D01*
X00622572Y00333056D01*
X00621674Y003344D01*
X0062033Y00335298D01*
X00618744Y00335614D01*
D02*
G37*
G36*
X0055499Y00340948D02*
X00553404Y00340632D01*
X0055206Y00339734D01*
X00551162Y0033839D01*
X00550846Y00336804D01*
X00551162Y00335218D01*
X0055206Y00333874D01*
X00553404Y00332976D01*
X0055499Y0033266D01*
X00556576Y00332976D01*
X0055792Y00333874D01*
X00558818Y00335218D01*
X00559134Y00336804D01*
X00558818Y0033839D01*
X0055792Y00339734D01*
X00556576Y00340632D01*
X0055499Y00340948D01*
D02*
G37*
G36*
X00181096Y00344504D02*
X0017951Y00344188D01*
X00178166Y0034329D01*
X00177268Y00341946D01*
X00176952Y0034036D01*
X00177268Y00338774D01*
X00178033Y00337629D01*
X00177268Y00336484D01*
X00176952Y00334898D01*
X00177268Y00333312D01*
X00178166Y00331968D01*
X0017951Y0033107D01*
X00181096Y00330754D01*
X00182682Y0033107D01*
X00184026Y00331968D01*
X00184924Y00333312D01*
X0018524Y00334898D01*
X00184924Y00336484D01*
X00184159Y00337629D01*
X00184924Y00338774D01*
X0018524Y0034036D01*
X00184924Y00341946D01*
X00184026Y0034329D01*
X00182682Y00344188D01*
X00181096Y00344504D01*
D02*
G37*
G36*
X00912013Y00338556D02*
X00910427Y0033824D01*
X00909083Y00337342D01*
X00908185Y00335998D01*
X0090787Y00334412D01*
X00908185Y00332826D01*
X00909083Y00331482D01*
X00910427Y00330584D01*
X00912013Y00330268D01*
X00913599Y00330584D01*
X00914943Y00331482D01*
X00915841Y00332826D01*
X00916157Y00334412D01*
X00915841Y00335998D01*
X00914943Y00337342D01*
X00913599Y0033824D01*
X00912013Y00338556D01*
D02*
G37*
G36*
X00825558Y00338466D02*
X00823972Y0033815D01*
X00822628Y00337252D01*
X0082173Y00335908D01*
X00821414Y00334322D01*
X0082173Y00332736D01*
X00822628Y00331392D01*
X00823972Y00330494D01*
X00825558Y00330178D01*
X00827144Y00330494D01*
X00828488Y00331392D01*
X00829386Y00332736D01*
X00829702Y00334322D01*
X00829386Y00335908D01*
X00828488Y00337252D01*
X00827144Y0033815D01*
X00825558Y00338466D01*
D02*
G37*
G36*
X0052832Y00338408D02*
X00526734Y00338092D01*
X0052539Y00337194D01*
X00524492Y0033585D01*
X00524176Y00334264D01*
X00524492Y00332678D01*
X0052539Y00331334D01*
X00526734Y00330436D01*
X0052832Y0033012D01*
X00529906Y00330436D01*
X0053125Y00331334D01*
X00532148Y00332678D01*
X00532464Y00334264D01*
X00532148Y0033585D01*
X0053125Y00337194D01*
X00529906Y00338092D01*
X0052832Y00338408D01*
D02*
G37*
G36*
X00702876Y00337842D02*
X0070129Y00337527D01*
X00699946Y00336628D01*
X00699047Y00335284D01*
X00698732Y00333699D01*
X00699047Y00332113D01*
X00699946Y00330769D01*
X0070129Y0032987D01*
X00702876Y00329555D01*
X00704461Y0032987D01*
X00705806Y00330769D01*
X00706704Y00332113D01*
X00707019Y00333699D01*
X00706704Y00335284D01*
X00705806Y00336628D01*
X00704461Y00337527D01*
X00702876Y00337842D01*
D02*
G37*
G36*
X0072975Y00337144D02*
X00728164Y00336828D01*
X0072682Y0033593D01*
X00725922Y00334586D01*
X00725606Y00333D01*
X00725922Y00331414D01*
X0072682Y0033007D01*
X00728164Y00329172D01*
X0072975Y00328856D01*
X00731336Y00329172D01*
X0073268Y0033007D01*
X00733578Y00331414D01*
X00733894Y00333D01*
X00733578Y00334586D01*
X0073268Y0033593D01*
X00731336Y00336828D01*
X0072975Y00337144D01*
D02*
G37*
G36*
X00639318Y00337138D02*
X00637732Y00336822D01*
X00636388Y00335924D01*
X0063549Y0033458D01*
X00635174Y00332994D01*
X0063549Y00331408D01*
X00636388Y00330064D01*
X00637732Y00329166D01*
X00639318Y0032885D01*
X00640904Y00329166D01*
X00642248Y00330064D01*
X00643146Y00331408D01*
X00643462Y00332994D01*
X00643146Y0033458D01*
X00642248Y00335924D01*
X00640904Y00336822D01*
X00639318Y00337138D01*
D02*
G37*
G36*
X00344132Y00336854D02*
X00342546Y00336538D01*
X00341202Y0033564D01*
X00340304Y00334296D01*
X00339988Y0033271D01*
X00340304Y00331124D01*
X00341202Y0032978D01*
X00342546Y00328882D01*
X00344132Y00328566D01*
X00345718Y00328882D01*
X00347062Y0032978D01*
X0034796Y00331124D01*
X00348276Y0033271D01*
X0034796Y00334296D01*
X00347062Y0033564D01*
X00345718Y00336538D01*
X00344132Y00336854D01*
D02*
G37*
G36*
X00281606Y00333582D02*
X00280021Y00333266D01*
X00278676Y00332368D01*
X00277778Y00331024D01*
X00277463Y00329438D01*
X00277778Y00327852D01*
X00278676Y00326508D01*
X00280021Y0032561D01*
X00281606Y00325294D01*
X00283192Y0032561D01*
X00284536Y00326508D01*
X00285435Y00327852D01*
X0028575Y00329438D01*
X00285435Y00331024D01*
X00284536Y00332368D01*
X00283192Y00333266D01*
X00281606Y00333582D01*
D02*
G37*
G36*
X00749554Y00332198D02*
X00747968Y00331882D01*
X00746624Y00330984D01*
X00745726Y0032964D01*
X0074541Y00328054D01*
X00745726Y00326468D01*
X00746624Y00325124D01*
X00747968Y00324226D01*
X00749554Y0032391D01*
X0075114Y00324226D01*
X00752484Y00325124D01*
X00753382Y00326468D01*
X00753698Y00328054D01*
X00753382Y0032964D01*
X00752484Y00330984D01*
X0075114Y00331882D01*
X00749554Y00332198D01*
D02*
G37*
G36*
X00629412Y00331804D02*
X00627826Y00331488D01*
X00626482Y0033059D01*
X00625584Y00329246D01*
X00625268Y0032766D01*
X00625584Y00326074D01*
X00626482Y0032473D01*
X00627826Y00323832D01*
X00629412Y00323516D01*
X00630998Y00323832D01*
X00632342Y0032473D01*
X0063324Y00326074D01*
X00633556Y0032766D01*
X0063324Y00329246D01*
X00632342Y0033059D01*
X00630998Y00331488D01*
X00629412Y00331804D01*
D02*
G37*
G36*
X009025Y00336894D02*
X00900914Y00336578D01*
X0089957Y0033568D01*
X00898672Y00334336D01*
X00898356Y0033275D01*
X00898672Y00331164D01*
X00898908Y0033081D01*
X00899541Y00329772D01*
X00898908Y00328735D01*
X00898672Y0032838D01*
X00898356Y00326795D01*
X00898672Y00325209D01*
X0089957Y00323865D01*
X00900914Y00322966D01*
X009025Y00322651D01*
X00904086Y00322966D01*
X0090543Y00323865D01*
X00906328Y00325209D01*
X00906644Y00326795D01*
X00906328Y0032838D01*
X00906092Y00328735D01*
X00905459Y00329772D01*
X00906092Y0033081D01*
X00906328Y00331164D01*
X00906644Y0033275D01*
X00906328Y00334336D01*
X0090543Y0033568D01*
X00904086Y00336578D01*
X009025Y00336894D01*
D02*
G37*
G36*
X0027135Y00334012D02*
X00269764Y00333697D01*
X00268419Y00332799D01*
X00267521Y00331454D01*
X00267206Y00329869D01*
X00267521Y00328283D01*
X00268419Y00326939D01*
X00268455Y00326914D01*
X00267676Y00325748D01*
X0026736Y00324162D01*
X00267676Y00322576D01*
X00268574Y00321232D01*
X00269918Y00320334D01*
X00271504Y00320018D01*
X0027309Y00320334D01*
X00274434Y00321232D01*
X00275332Y00322576D01*
X00275648Y00324162D01*
X00275332Y00325748D01*
X00274434Y00327092D01*
X00274398Y00327116D01*
X00275178Y00328283D01*
X00275493Y00329869D01*
X00275178Y00331454D01*
X00274279Y00332799D01*
X00272935Y00333697D01*
X0027135Y00334012D01*
D02*
G37*
G36*
X00199586Y00328306D02*
X00198Y0032799D01*
X00196656Y00327092D01*
X00195758Y00325748D01*
X00195442Y00324162D01*
X00195758Y00322576D01*
X00196656Y00321232D01*
X00198Y00320334D01*
X00199586Y00320018D01*
X00201172Y00320334D01*
X00202516Y00321232D01*
X00203414Y00322576D01*
X0020373Y00324162D01*
X00203414Y00325748D01*
X00202516Y00327092D01*
X00201172Y0032799D01*
X00199586Y00328306D01*
D02*
G37*
G36*
X0048387Y00333836D02*
X00482284Y0033352D01*
X0048094Y00332622D01*
X00480042Y00331278D01*
X00479726Y00329692D01*
X00480042Y00328106D01*
X0048094Y00326762D01*
X0048099Y00326729D01*
X00480296Y0032569D01*
X0047998Y00324104D01*
X00480296Y00322518D01*
X00481194Y00321174D01*
X00482538Y00320276D01*
X00484124Y0031996D01*
X0048571Y00320276D01*
X00487054Y00321174D01*
X00487952Y00322518D01*
X00488268Y00324104D01*
X00487952Y0032569D01*
X00487054Y00327034D01*
X00487004Y00327067D01*
X00487698Y00328106D01*
X00488014Y00329692D01*
X00487698Y00331278D01*
X004868Y00332622D01*
X00485456Y0033352D01*
X0048387Y00333836D01*
D02*
G37*
G36*
X00553466Y00327994D02*
X0055188Y00327678D01*
X00550536Y0032678D01*
X00549638Y00325436D01*
X00549322Y0032385D01*
X00549638Y00322264D01*
X00550536Y0032092D01*
X0055188Y00320022D01*
X00553466Y00319706D01*
X00555052Y00320022D01*
X00556396Y0032092D01*
X00557294Y00322264D01*
X0055761Y0032385D01*
X00557294Y00325436D01*
X00556396Y0032678D01*
X00555052Y00327678D01*
X00553466Y00327994D01*
D02*
G37*
G36*
X00987277Y00327554D02*
X00985691Y00327238D01*
X00984347Y0032634D01*
X00983449Y00324996D01*
X00983133Y0032341D01*
X00983449Y00321824D01*
X00984347Y0032048D01*
X00985691Y00319582D01*
X00987277Y00319266D01*
X00988863Y00319582D01*
X00990207Y0032048D01*
X00991105Y00321824D01*
X00991421Y0032341D01*
X00991105Y00324996D01*
X00990207Y0032634D01*
X00988863Y00327238D01*
X00987277Y00327554D01*
D02*
G37*
G36*
X01193546Y0032647D02*
X0119196Y00326154D01*
X01190616Y00325256D01*
X01189718Y00323912D01*
X01189402Y00322326D01*
X01189718Y0032074D01*
X01190616Y00319396D01*
X0119196Y00318498D01*
X01193546Y00318182D01*
X01195132Y00318498D01*
X01196476Y00319396D01*
X01197374Y0032074D01*
X0119769Y00322326D01*
X01197374Y00323912D01*
X01196476Y00325256D01*
X01195132Y00326154D01*
X01193546Y0032647D01*
D02*
G37*
G36*
X0087163Y00324014D02*
X00870044Y00323698D01*
X008687Y003228D01*
X00867802Y00321456D01*
X00867486Y0031987D01*
X00867802Y00318284D01*
X008687Y0031694D01*
X00870044Y00316042D01*
X0087163Y00315726D01*
X00873216Y00316042D01*
X0087456Y0031694D01*
X00875458Y00318284D01*
X00875774Y0031987D01*
X00875458Y00321456D01*
X0087456Y003228D01*
X00873216Y00323698D01*
X0087163Y00324014D01*
D02*
G37*
G36*
X0035687Y0032258D02*
X00355284Y00322264D01*
X0035394Y00321366D01*
X00353042Y00320022D01*
X00352726Y00318436D01*
X00353042Y0031685D01*
X0035394Y00315506D01*
X00355284Y00314608D01*
X0035687Y00314292D01*
X00358456Y00314608D01*
X003598Y00315506D01*
X00360698Y0031685D01*
X00361014Y00318436D01*
X00360698Y00320022D01*
X003598Y00321366D01*
X00358456Y00322264D01*
X0035687Y0032258D01*
D02*
G37*
G36*
X00594464Y00321494D02*
X00592878Y00321178D01*
X00591534Y0032028D01*
X00590636Y00318936D01*
X0059032Y0031735D01*
X00590636Y00315764D01*
X00591534Y0031442D01*
X00592878Y00313522D01*
X00594464Y00313206D01*
X0059605Y00313522D01*
X00597394Y0031442D01*
X00598292Y00315764D01*
X00598608Y0031735D01*
X00598292Y00318936D01*
X00597394Y0032028D01*
X0059605Y00321178D01*
X00594464Y00321494D01*
D02*
G37*
G36*
X01245292Y00320444D02*
X01243706Y00320128D01*
X01242362Y0031923D01*
X01241464Y00317886D01*
X01241148Y003163D01*
X01241464Y00314714D01*
X01242362Y0031337D01*
X01243706Y00312472D01*
X01245292Y00312156D01*
X01246878Y00312472D01*
X01248222Y0031337D01*
X0124912Y00314714D01*
X01249436Y003163D01*
X0124912Y00317886D01*
X01248222Y0031923D01*
X01246878Y00320128D01*
X01245292Y00320444D01*
D02*
G37*
G36*
X00425016Y00319248D02*
X0042343Y00318932D01*
X00422086Y00318034D01*
X00421188Y0031669D01*
X00420872Y00315104D01*
X00421188Y00313518D01*
X00422086Y00312174D01*
X0042343Y00311276D01*
X00425016Y0031096D01*
X00426602Y00311276D01*
X00427946Y00312174D01*
X00428844Y00313518D01*
X0042916Y00315104D01*
X00428844Y0031669D01*
X00427946Y00318034D01*
X00426602Y00318932D01*
X00425016Y00319248D01*
D02*
G37*
G36*
X00951964Y00319085D02*
X00950378Y00318769D01*
X00949034Y00317871D01*
X00948136Y00316527D01*
X0094782Y00314941D01*
X00948136Y00313355D01*
X00949034Y00312011D01*
X00950378Y00311113D01*
X00951964Y00310797D01*
X00953549Y00311113D01*
X00954894Y00312011D01*
X00955792Y00313355D01*
X00956107Y00314941D01*
X00955792Y00316527D01*
X00954894Y00317871D01*
X00953549Y00318769D01*
X00951964Y00319085D01*
D02*
G37*
G36*
X00825558Y00317336D02*
X00823972Y0031702D01*
X00822628Y00316122D01*
X0082173Y00314778D01*
X00821414Y00313192D01*
X0082173Y00311606D01*
X00822628Y00310262D01*
X00823972Y00309364D01*
X00825558Y00309048D01*
X00827144Y00309364D01*
X00828488Y00310262D01*
X00829386Y00311606D01*
X00829702Y00313192D01*
X00829386Y00314778D01*
X00828488Y00316122D01*
X00827144Y0031702D01*
X00825558Y00317336D01*
D02*
G37*
G36*
X009375Y00316644D02*
X00935914Y00316328D01*
X0093457Y0031543D01*
X00933672Y00314086D01*
X00933356Y003125D01*
X00933672Y00310914D01*
X0093457Y0030957D01*
X00935914Y00308672D01*
X009375Y00308356D01*
X00939086Y00308672D01*
X0094043Y0030957D01*
X00941328Y00310914D01*
X00941644Y003125D01*
X00941328Y00314086D01*
X0094043Y0031543D01*
X00939086Y00316328D01*
X009375Y00316644D01*
D02*
G37*
G36*
X01041146Y00313008D02*
X0103956Y00312692D01*
X01038216Y00311794D01*
X01037318Y0031045D01*
X01037002Y00308864D01*
X01037318Y00307278D01*
X01038216Y00305934D01*
X0103956Y00305036D01*
X01041146Y0030472D01*
X01042732Y00305036D01*
X01044076Y00305934D01*
X01044974Y00307278D01*
X0104529Y00308864D01*
X01044974Y0031045D01*
X01044076Y00311794D01*
X01042732Y00312692D01*
X01041146Y00313008D01*
D02*
G37*
G36*
X00318008Y00311992D02*
X00316422Y00311676D01*
X00315078Y00310778D01*
X0031418Y00309434D01*
X00313864Y00307848D01*
X0031418Y00306262D01*
X00315078Y00304918D01*
X00316422Y0030402D01*
X00318008Y00303704D01*
X00319594Y0030402D01*
X00320938Y00304918D01*
X00321836Y00306262D01*
X00322152Y00307848D01*
X00321836Y00309434D01*
X00320938Y00310778D01*
X00319594Y00311676D01*
X00318008Y00311992D01*
D02*
G37*
G36*
X00999739Y00311098D02*
X00998153Y00310783D01*
X00996809Y00309884D01*
X00995911Y0030854D01*
X00995595Y00306954D01*
X00995911Y00305369D01*
X00996809Y00304024D01*
X00998153Y00303126D01*
X00999739Y00302811D01*
X01001325Y00303126D01*
X01002669Y00304024D01*
X01003567Y00305369D01*
X01003883Y00306954D01*
X01003567Y0030854D01*
X01002669Y00309884D01*
X01001325Y00310783D01*
X00999739Y00311098D01*
D02*
G37*
G36*
X00974739Y00310924D02*
X00973153Y00310608D01*
X00971809Y0030971D01*
X00970911Y00308366D01*
X00970595Y0030678D01*
X00970911Y00305194D01*
X00971809Y0030385D01*
X00973153Y00302952D01*
X00974739Y00302636D01*
X00976325Y00302952D01*
X00977669Y0030385D01*
X00978567Y00305194D01*
X00978883Y0030678D01*
X00978567Y00308366D01*
X00977669Y0030971D01*
X00976325Y00310608D01*
X00974739Y00310924D01*
D02*
G37*
G36*
X00233172Y00310214D02*
X00231586Y00309898D01*
X00230242Y00309D01*
X00229344Y00307656D01*
X00229028Y0030607D01*
X00229344Y00304484D01*
X00230242Y0030314D01*
X00231586Y00302242D01*
X00233172Y00301926D01*
X00234758Y00302242D01*
X00236102Y0030314D01*
X00237Y00304484D01*
X00237316Y0030607D01*
X00237Y00307656D01*
X00236102Y00309D01*
X00234758Y00309898D01*
X00233172Y00310214D01*
D02*
G37*
G36*
X0087675Y00309144D02*
X00875164Y00308828D01*
X0087382Y0030793D01*
X00872922Y00306586D01*
X00872606Y00305D01*
X00872922Y00303414D01*
X0087382Y0030207D01*
X00875164Y00301172D01*
X0087675Y00300856D01*
X00878336Y00301172D01*
X0087968Y0030207D01*
X00880578Y00303414D01*
X00880894Y00305D01*
X00880578Y00306586D01*
X0087968Y0030793D01*
X00878336Y00308828D01*
X0087675Y00309144D01*
D02*
G37*
G36*
X00416814Y00308182D02*
X00415228Y00307866D01*
X00413884Y00306968D01*
X00412986Y00305624D01*
X0041267Y00304038D01*
X00412986Y00302452D01*
X00413884Y00301108D01*
X00415228Y0030021D01*
X00416814Y00299894D01*
X004184Y0030021D01*
X00419744Y00301108D01*
X00420642Y00302452D01*
X00420958Y00304038D01*
X00420642Y00305624D01*
X00419744Y00306968D01*
X004184Y00307866D01*
X00416814Y00308182D01*
D02*
G37*
G36*
X00369332Y00306124D02*
X00367746Y00305809D01*
X00366402Y0030491D01*
X00365504Y00303566D01*
X00365188Y0030198D01*
X00365504Y00300395D01*
X00366402Y0029905D01*
X00367746Y00298152D01*
X00369332Y00297837D01*
X00370918Y00298152D01*
X00372262Y0029905D01*
X0037316Y00300395D01*
X00373476Y0030198D01*
X0037316Y00303566D01*
X00372262Y0030491D01*
X00370918Y00305809D01*
X00369332Y00306124D01*
D02*
G37*
G36*
X00344332Y0030595D02*
X00342746Y00305634D01*
X00341402Y00304736D01*
X00340504Y00303392D01*
X00340188Y00301806D01*
X00340504Y0030022D01*
X00341402Y00298876D01*
X00342746Y00297978D01*
X00344332Y00297662D01*
X00345918Y00297978D01*
X00347262Y00298876D01*
X0034816Y0030022D01*
X00348476Y00301806D01*
X0034816Y00303392D01*
X00347262Y00304736D01*
X00345918Y00305634D01*
X00344332Y0030595D01*
D02*
G37*
G36*
X009375Y00305894D02*
X00935914Y00305578D01*
X0093457Y0030468D01*
X00933672Y00303336D01*
X00933356Y0030175D01*
X00933672Y00300164D01*
X0093457Y0029882D01*
X00935914Y00297922D01*
X009375Y00297606D01*
X00939086Y00297922D01*
X0094043Y0029882D01*
X00941328Y00300164D01*
X00941644Y0030175D01*
X00941328Y00303336D01*
X0094043Y0030468D01*
X00939086Y00305578D01*
X009375Y00305894D01*
D02*
G37*
G36*
X00711785Y00303408D02*
X00710199Y00303093D01*
X00708855Y00302195D01*
X00707956Y0030085D01*
X00707641Y00299265D01*
X00707956Y00297679D01*
X00708855Y00296335D01*
X00710199Y00295436D01*
X00711785Y00295121D01*
X0071337Y00295436D01*
X00714715Y00296335D01*
X00715613Y00297679D01*
X00715928Y00299265D01*
X00715613Y0030085D01*
X00714715Y00302195D01*
X0071337Y00303093D01*
X00711785Y00303408D01*
D02*
G37*
G36*
X0086875Y00303394D02*
X00867164Y00303078D01*
X0086582Y0030218D01*
X00864922Y00300836D01*
X00864606Y0029925D01*
X00864922Y00297664D01*
X0086582Y0029632D01*
X00867164Y00295422D01*
X0086875Y00295106D01*
X00870336Y00295422D01*
X0087168Y0029632D01*
X00872578Y00297664D01*
X00872894Y0029925D01*
X00872578Y00300836D01*
X0087168Y0030218D01*
X00870336Y00303078D01*
X0086875Y00303394D01*
D02*
G37*
G36*
X00695214Y00302394D02*
X00693628Y00302078D01*
X00692284Y0030118D01*
X00691386Y00299836D01*
X0069107Y0029825D01*
X00691386Y00296664D01*
X00692284Y0029532D01*
X00693628Y00294422D01*
X00695214Y00294106D01*
X006968Y00294422D01*
X00698144Y0029532D01*
X00699042Y00296664D01*
X00699358Y0029825D01*
X00699042Y00299836D01*
X00698144Y0030118D01*
X006968Y00302078D01*
X00695214Y00302394D01*
D02*
G37*
G36*
X00423418Y0030107D02*
X00421832Y00300754D01*
X00420488Y00299856D01*
X0041959Y00298512D01*
X00419274Y00296926D01*
X0041959Y0029534D01*
X00420488Y00293996D01*
X00421832Y00293098D01*
X00423418Y00292782D01*
X00425004Y00293098D01*
X00426348Y00293996D01*
X00427246Y0029534D01*
X00427562Y00296926D01*
X00427246Y00298512D01*
X00426348Y00299856D01*
X00425004Y00300754D01*
X00423418Y0030107D01*
D02*
G37*
G36*
X00585216Y00314278D02*
X0058363Y00313962D01*
X00582286Y00313064D01*
X00581388Y0031172D01*
X00581072Y00310134D01*
X00581388Y00308548D01*
X00581546Y00308311D01*
X00581852Y00307104D01*
X00581223Y00306684D01*
X00580508Y00306206D01*
X0057961Y00304862D01*
X00579294Y00303276D01*
X0057961Y0030169D01*
X00580508Y00300346D01*
X00581164Y00299907D01*
X00581808Y00299304D01*
X00581488Y0029828D01*
X00581134Y0029775D01*
X00580818Y00296164D01*
X00581134Y00294578D01*
X00582032Y00293234D01*
X00583376Y00292336D01*
X00584962Y0029202D01*
X00586548Y00292336D01*
X00587892Y00293234D01*
X0058879Y00294578D01*
X00589106Y00296164D01*
X0058879Y0029775D01*
X00587892Y00299094D01*
X00587236Y00299533D01*
X00586592Y00300136D01*
X00586912Y0030116D01*
X00587266Y0030169D01*
X00587582Y00303276D01*
X00587266Y00304862D01*
X00587108Y00305099D01*
X00586802Y00306306D01*
X00587431Y00306726D01*
X00588146Y00307204D01*
X00589044Y00308548D01*
X0058936Y00310134D01*
X00589044Y0031172D01*
X00588146Y00313064D01*
X00586802Y00313962D01*
X00585216Y00314278D01*
D02*
G37*
G36*
X0049125Y00306644D02*
X00489664Y00306328D01*
X0048832Y0030543D01*
X00487422Y00304086D01*
X00487106Y003025D01*
X00487422Y00300914D01*
X0048832Y0029957D01*
Y00298586D01*
X00487422Y00297242D01*
X00487106Y00295656D01*
X00487422Y0029407D01*
X0048832Y00292726D01*
X00489664Y00291828D01*
X0049125Y00291512D01*
X00492836Y00291828D01*
X0049418Y00292726D01*
X00495078Y0029407D01*
X00495394Y00295656D01*
X00495078Y00297242D01*
X0049418Y00298586D01*
Y0029957D01*
X00495078Y00300914D01*
X00495394Y003025D01*
X00495078Y00304086D01*
X0049418Y0030543D01*
X00492836Y00306328D01*
X0049125Y00306644D01*
D02*
G37*
G36*
X00386588Y0030648D02*
X00385002Y00306165D01*
X00383658Y00305267D01*
X0038276Y00303922D01*
X00382444Y00302337D01*
X0038276Y00300751D01*
X00383658Y00299407D01*
X00385002Y00298508D01*
X00386588Y00298193D01*
X00387296Y00298334D01*
X00388094Y00297242D01*
X00387778Y00295656D01*
X00388094Y0029407D01*
X00388992Y00292726D01*
X00390336Y00291828D01*
X00391922Y00291512D01*
X00393508Y00291828D01*
X00394852Y00292726D01*
X0039575Y0029407D01*
X00396066Y00295656D01*
X0039575Y00297242D01*
X00394852Y00298586D01*
X00393508Y00299484D01*
X00391922Y002998D01*
X00391214Y00299659D01*
X00390416Y00300751D01*
X00390732Y00302337D01*
X00390416Y00303922D01*
X00389518Y00305267D01*
X00388174Y00306165D01*
X00386588Y0030648D01*
D02*
G37*
G36*
X0061238Y00304894D02*
X00610794Y00304578D01*
X0060945Y0030368D01*
X00608552Y00302336D01*
X00608236Y0030075D01*
X00608552Y00299164D01*
X00609328Y00298003D01*
X0060945Y00297381D01*
Y00296982D01*
X00609327Y00296375D01*
X00608548Y0029521D01*
X00608232Y00293624D01*
X00608548Y00292038D01*
X00609446Y00290694D01*
X0061079Y00289796D01*
X00612376Y0028948D01*
X00613962Y00289796D01*
X00615306Y00290694D01*
X00616204Y00292038D01*
X0061652Y00293624D01*
X00616204Y0029521D01*
X00615306Y00296554D01*
Y00297817D01*
X0061531Y0029782D01*
X00616208Y00299164D01*
X00616524Y0030075D01*
X00616208Y00302336D01*
X0061531Y0030368D01*
X00613966Y00304578D01*
X0061238Y00304894D01*
D02*
G37*
G36*
X0094775Y00293933D02*
X00946164Y00293617D01*
X0094482Y00292719D01*
X00943922Y00291375D01*
X00943606Y00289789D01*
X00943922Y00288203D01*
X0094482Y00286859D01*
X00946164Y00285961D01*
X0094775Y00285645D01*
X00949336Y00285961D01*
X0095068Y00286859D01*
X00951578Y00288203D01*
X00951894Y00289789D01*
X00951578Y00291375D01*
X0095068Y00292719D01*
X00949336Y00293617D01*
X0094775Y00293933D01*
D02*
G37*
G36*
X0105925Y00291644D02*
X01057664Y00291328D01*
X0105632Y0029043D01*
X01055422Y00289086D01*
X01055106Y002875D01*
X01055422Y00285914D01*
X0105632Y0028457D01*
X01057664Y00283672D01*
X0105925Y00283356D01*
X01060836Y00283672D01*
X0106218Y0028457D01*
X01063078Y00285914D01*
X01063394Y002875D01*
X01063078Y00289086D01*
X0106218Y0029043D01*
X01060836Y00291328D01*
X0105925Y00291644D01*
D02*
G37*
G36*
X00961547Y00290658D02*
X00959961Y00290342D01*
X00958617Y00289444D01*
X00957719Y002881D01*
X00957403Y00286514D01*
X00957719Y00284928D01*
X00958617Y00283584D01*
X00959961Y00282686D01*
X00961547Y0028237D01*
X00963133Y00282686D01*
X00964477Y00283584D01*
X00965375Y00284928D01*
X00965691Y00286514D01*
X00965375Y002881D01*
X00964477Y00289444D01*
X00963133Y00290342D01*
X00961547Y00290658D01*
D02*
G37*
G36*
X01023Y00290394D02*
X01021414Y00290078D01*
X0102007Y0028918D01*
X01019172Y00287836D01*
X01018856Y0028625D01*
X01019172Y00284664D01*
X0102007Y0028332D01*
X01021414Y00282422D01*
X01023Y00282106D01*
X01024586Y00282422D01*
X0102593Y0028332D01*
X01026828Y00284664D01*
X01027144Y0028625D01*
X01026828Y00287836D01*
X0102593Y0028918D01*
X01024586Y00290078D01*
X01023Y00290394D01*
D02*
G37*
G36*
X01191696Y00295808D02*
X0119011Y00295492D01*
X01188766Y00294594D01*
X01187868Y0029325D01*
X01187552Y00291664D01*
X01187868Y00290078D01*
X01188766Y00288734D01*
X0119011Y00287836D01*
X01191696Y0028752D01*
X01191883Y00287303D01*
X01192473Y0028638D01*
X01192196Y00284988D01*
X01192512Y00283402D01*
X01192732Y00283072D01*
X01191969Y00281929D01*
X01191514Y0028202D01*
X01189928Y00281704D01*
X01188584Y00280806D01*
X01187686Y00279462D01*
X0118737Y00277876D01*
X01187686Y0027629D01*
X01188584Y00274946D01*
X01189928Y00274048D01*
X01191514Y00273732D01*
X011931Y00274048D01*
X0119353Y00274335D01*
X01194446Y0027342D01*
X0119373Y00272349D01*
X01193415Y00270763D01*
X0119373Y00269177D01*
X01194628Y00267833D01*
X01195973Y00266935D01*
X01197558Y0026662D01*
X01199144Y00266935D01*
X01200488Y00267833D01*
X01201387Y00269177D01*
X01201702Y00270763D01*
X01201387Y00272349D01*
X01200488Y00273693D01*
X01199144Y00274591D01*
X01197558Y00274907D01*
X01195973Y00274591D01*
X01195542Y00274304D01*
X01194627Y00275219D01*
X01195342Y0027629D01*
X01195658Y00277876D01*
X01195342Y00279462D01*
X01195122Y00279792D01*
X01195885Y00280935D01*
X0119634Y00280844D01*
X01197926Y0028116D01*
X0119927Y00282058D01*
X01200168Y00283402D01*
X01200484Y00284988D01*
X01200168Y00286574D01*
X0119927Y00287918D01*
X01197926Y00288816D01*
X0119634Y00289132D01*
X01196152Y00289349D01*
X01195563Y00290272D01*
X0119584Y00291664D01*
X01195524Y0029325D01*
X01194626Y00294594D01*
X01193282Y00295492D01*
X01191696Y00295808D01*
D02*
G37*
G36*
X00658368Y00296498D02*
X00656782Y00296182D01*
X00655438Y00295284D01*
X0065454Y0029394D01*
X00654224Y00292354D01*
X0065454Y00290768D01*
X00655438Y00289424D01*
X00656782Y00288526D01*
X0065714Y00288455D01*
Y0028716D01*
X00656528Y00287038D01*
X00655184Y0028614D01*
X00654286Y00284796D01*
X0065397Y0028321D01*
X00654286Y00281624D01*
X00655184Y0028028D01*
X00656528Y00279382D01*
X00658114Y00279066D01*
X006597Y00279382D01*
X00661044Y0028028D01*
X00661942Y00281624D01*
X00662258Y0028321D01*
X00661942Y00284796D01*
X00661044Y0028614D01*
X006597Y00287038D01*
X00659342Y00287109D01*
Y00288404D01*
X00659954Y00288526D01*
X00661298Y00289424D01*
X00662196Y00290768D01*
X00662512Y00292354D01*
X00662196Y0029394D01*
X00661298Y00295284D01*
X00659954Y00296182D01*
X00658368Y00296498D01*
D02*
G37*
G36*
X00394462Y002871D02*
X00392876Y00286784D01*
X00391532Y00285886D01*
X00390634Y00284542D01*
X00390318Y00282956D01*
X00390634Y0028137D01*
X00391532Y00280026D01*
X00392876Y00279128D01*
X00394462Y00278812D01*
X00396048Y00279128D01*
X00397392Y00280026D01*
X0039829Y0028137D01*
X00398606Y00282956D01*
X0039829Y00284542D01*
X00397392Y00285886D01*
X00396048Y00286784D01*
X00394462Y002871D01*
D02*
G37*
G36*
X00383032D02*
X00381446Y00286784D01*
X00380102Y00285886D01*
X00379204Y00284542D01*
X00378888Y00282956D01*
X00379204Y0028137D01*
X00380102Y00280026D01*
X00381446Y00279128D01*
X00383032Y00278812D01*
X00384618Y00279128D01*
X00385962Y00280026D01*
X0038686Y0028137D01*
X00387176Y00282956D01*
X0038686Y00284542D01*
X00385962Y00285886D01*
X00384618Y00286784D01*
X00383032Y002871D01*
D02*
G37*
G36*
X00199516Y00286465D02*
X00197931Y0028615D01*
X00196586Y00285252D01*
X00195688Y00283908D01*
X00195373Y00282322D01*
X00195688Y00280736D01*
X00196586Y00279392D01*
X00197931Y00278494D01*
X00199516Y00278178D01*
X00201102Y00278494D01*
X00202446Y00279392D01*
X00203344Y00280736D01*
X0020366Y00282322D01*
X00203344Y00283908D01*
X00202446Y00285252D01*
X00201102Y0028615D01*
X00199516Y00286465D01*
D02*
G37*
G36*
X01052086Y00284894D02*
X010505Y00284578D01*
X01049156Y0028368D01*
X01048258Y00282336D01*
X01047943Y0028075D01*
X01048258Y00279164D01*
X01049156Y0027782D01*
X010505Y00276922D01*
X01052086Y00276606D01*
X01053672Y00276922D01*
X01055016Y0027782D01*
X01055914Y00279164D01*
X0105623Y0028075D01*
X01055914Y00282336D01*
X01055016Y0028368D01*
X01053672Y00284578D01*
X01052086Y00284894D01*
D02*
G37*
G36*
X0103225Y00284639D02*
X01030664Y00284324D01*
X0102932Y00283425D01*
X01028422Y00282081D01*
X01028106Y00280495D01*
X01028422Y0027891D01*
X0102932Y00277565D01*
X01030664Y00276667D01*
X0103225Y00276352D01*
X01033836Y00276667D01*
X0103518Y00277565D01*
X01036078Y0027891D01*
X01036394Y00280495D01*
X01036078Y00282081D01*
X0103518Y00283425D01*
X01033836Y00284324D01*
X0103225Y00284639D01*
D02*
G37*
G36*
X0095288Y00283106D02*
X00951294Y0028279D01*
X0094995Y00281892D01*
X00949052Y00280548D01*
X00948736Y00278962D01*
X00949052Y00277376D01*
X0094995Y00276032D01*
X00951294Y00275134D01*
X0095288Y00274818D01*
X00954466Y00275134D01*
X0095581Y00276032D01*
X00956708Y00277376D01*
X00957024Y00278962D01*
X00956708Y00280548D01*
X0095581Y00281892D01*
X00954466Y0028279D01*
X0095288Y00283106D01*
D02*
G37*
G36*
X01231946Y00282854D02*
X0123036Y00282538D01*
X01229016Y0028164D01*
X01228118Y00280296D01*
X01227802Y0027871D01*
X01228118Y00277124D01*
X01229016Y0027578D01*
X0123036Y00274882D01*
X01231946Y00274566D01*
X01233532Y00274882D01*
X01234876Y0027578D01*
X01235774Y00277124D01*
X0123609Y0027871D01*
X01235774Y00280296D01*
X01234876Y0028164D01*
X01233532Y00282538D01*
X01231946Y00282854D01*
D02*
G37*
G36*
X00147066Y00281223D02*
X0014548Y00280908D01*
X00144136Y00280009D01*
X00143238Y00278665D01*
X00142922Y00277079D01*
X00143238Y00275494D01*
X00144136Y00274149D01*
X0014548Y00273251D01*
X00147066Y00272936D01*
X00148652Y00273251D01*
X00149996Y00274149D01*
X00150894Y00275494D01*
X0015121Y00277079D01*
X00150894Y00278665D01*
X00149996Y00280009D01*
X00148652Y00280908D01*
X00147066Y00281223D01*
D02*
G37*
G36*
X00348234Y0028075D02*
X00346648Y00280434D01*
X00345304Y00279536D01*
X00344406Y00278192D01*
X0034409Y00276606D01*
X00344406Y0027502D01*
X00345304Y00273676D01*
X00346648Y00272778D01*
X00348234Y00272462D01*
X0034982Y00272778D01*
X00351164Y00273676D01*
X00352062Y0027502D01*
X00352378Y00276606D01*
X00352062Y00278192D01*
X00351164Y00279536D01*
X0034982Y00280434D01*
X00348234Y0028075D01*
D02*
G37*
G36*
X00326164D02*
X00324578Y00280434D01*
X00323234Y00279536D01*
X00322335Y00278192D01*
X0032202Y00276606D01*
X00322335Y0027502D01*
X00323234Y00273676D01*
X00324578Y00272778D01*
X00326164Y00272462D01*
X00327749Y00272778D01*
X00329094Y00273676D01*
X00329992Y0027502D01*
X00330307Y00276606D01*
X00329992Y00278192D01*
X00329094Y00279536D01*
X00327749Y00280434D01*
X00326164Y0028075D01*
D02*
G37*
G36*
X00832358Y00280496D02*
X00830772Y0028018D01*
X00829428Y00279282D01*
X0082853Y00277938D01*
X00828214Y00276352D01*
X0082853Y00274766D01*
X00829428Y00273422D01*
X00830772Y00272524D01*
X00832358Y00272208D01*
X00833944Y00272524D01*
X00835288Y00273422D01*
X00836186Y00274766D01*
X00836502Y00276352D01*
X00836186Y00277938D01*
X00835288Y00279282D01*
X00833944Y0028018D01*
X00832358Y00280496D01*
D02*
G37*
G36*
X00974137Y00279894D02*
X00972552Y00279578D01*
X00971208Y0027868D01*
X00970309Y00277336D01*
X00969994Y0027575D01*
X00970309Y00274164D01*
X00971208Y0027282D01*
X00972552Y00271922D01*
X00974137Y00271606D01*
X00975723Y00271922D01*
X00977067Y0027282D01*
X00977966Y00274164D01*
X00978281Y0027575D01*
X00977966Y00277336D01*
X00977067Y0027868D01*
X00975723Y00279578D01*
X00974137Y00279894D01*
D02*
G37*
G36*
X0064925Y00323375D02*
X006395D01*
X00638528Y00322972D01*
X00638125Y00322D01*
Y00270954D01*
X00557188D01*
X00556655Y00272224D01*
X00557294Y0027318D01*
X0055761Y00274766D01*
X00557294Y00276352D01*
X00556396Y00277696D01*
X00555052Y00278594D01*
X00553466Y0027891D01*
X0055188Y00278594D01*
X00550536Y00277696D01*
X00549638Y00276352D01*
X00549322Y00274766D01*
X00549638Y0027318D01*
X00550277Y00272224D01*
X00549744Y00270954D01*
X0051825D01*
X00517278Y00270551D01*
X00516875Y00269579D01*
Y00267702D01*
X005165Y00267394D01*
X00514914Y00267078D01*
X0051357Y0026618D01*
X00512672Y00264836D01*
X00512356Y0026325D01*
X00512672Y00261664D01*
X0051357Y0026032D01*
X00514914Y00259422D01*
X005165Y00259106D01*
X00517093Y00259224D01*
X00517278Y00258778D01*
X0051825Y00258375D01*
X00556238Y00258375D01*
X00556917Y00257105D01*
X0055675Y00256856D01*
X00556434Y0025527D01*
X00556699Y00253938D01*
X00556053Y00253256D01*
X00555684Y00253028D01*
X00554228Y00253318D01*
X00552642Y00253002D01*
X00551298Y00252104D01*
X005504Y0025076D01*
X00550084Y00249174D01*
X005504Y00247588D01*
X00551298Y00246244D01*
X00552642Y00245346D01*
X00554228Y0024503D01*
X00554683Y00245121D01*
X00555763Y00244041D01*
X00555672Y00243586D01*
X0055571Y00243396D01*
X0055463Y00242316D01*
X00554228Y00242396D01*
X00552642Y0024208D01*
X00551298Y00241182D01*
X005504Y00239838D01*
X00550084Y00238252D01*
X005504Y00236666D01*
X00551298Y00235322D01*
X00552642Y00234424D01*
X00554228Y00234108D01*
X00555814Y00234424D01*
X00557158Y00235322D01*
X00558056Y00236666D01*
X00558372Y00238252D01*
X00558334Y00238442D01*
X00559414Y00239522D01*
X00559816Y00239442D01*
X00561402Y00239758D01*
X00562746Y00240656D01*
X00563644Y00242D01*
X0056396Y00243586D01*
X00563644Y00245172D01*
X00562746Y00246516D01*
X00561402Y00247414D01*
X00559816Y0024773D01*
X00559361Y00247639D01*
X00558281Y00248719D01*
X00558372Y00249174D01*
X00558107Y00250506D01*
X00558753Y00251189D01*
X00559122Y00251416D01*
X00560578Y00251126D01*
X00562164Y00251442D01*
X00563508Y0025234D01*
X00564406Y00253684D01*
X00564722Y0025527D01*
X00564406Y00256856D01*
X00564239Y00257105D01*
X00564918Y00258375D01*
X00568125D01*
X00568125Y0021D01*
X00568528Y00209028D01*
X005695Y00208625D01*
X005941Y00208625D01*
X00594412Y00208755D01*
X00594748Y00208788D01*
X0059488Y00208948D01*
X00595073Y00209028D01*
X00595202Y0020934D01*
X00595416Y00209601D01*
X00595797Y00210859D01*
X00596392Y0021074D01*
X00596987Y00210859D01*
X00597368Y00209601D01*
X00597582Y0020934D01*
X00597711Y00209028D01*
X00597904Y00208948D01*
X00598036Y00208788D01*
X00598372Y00208755D01*
X00598684Y00208625D01*
X0061375Y00208625D01*
X00614722Y00209028D01*
X00615125Y0021D01*
Y00236864D01*
X00615097Y0023693D01*
X00615118Y00236999D01*
X00614899Y00237408D01*
X00614722Y00237836D01*
X00615486Y00238732D01*
X00615705Y00238878D01*
X00616603Y00240222D01*
X00616919Y00241808D01*
X00616603Y00243394D01*
X00615705Y00244738D01*
X00615486Y00244884D01*
X00614722Y0024578D01*
X00614899Y00246208D01*
X00615118Y00246617D01*
X00615097Y00246686D01*
X00615125Y00246752D01*
Y00254125D01*
X00713375D01*
X00714347Y00254528D01*
X0071475Y002555D01*
Y002745D01*
X00714347Y00275472D01*
X00713375Y00275875D01*
X00650625D01*
Y00322D01*
X00650222Y00322972D01*
X0064925Y00323375D01*
D02*
G37*
G36*
X0105968Y00279144D02*
X01058094Y00278828D01*
X0105675Y0027793D01*
X01055852Y00276586D01*
X01055536Y00275D01*
X01055852Y00273414D01*
X0105675Y0027207D01*
X01058094Y00271172D01*
X0105968Y00270856D01*
X01061266Y00271172D01*
X0106261Y0027207D01*
X01063508Y00273414D01*
X01063824Y00275D01*
X01063508Y00276586D01*
X0106261Y0027793D01*
X01061266Y00278828D01*
X0105968Y00279144D01*
D02*
G37*
G36*
X01042D02*
X01040414Y00278828D01*
X0103907Y0027793D01*
X01038172Y00276586D01*
X01037856Y00275D01*
X01038172Y00273414D01*
X0103907Y0027207D01*
X01040414Y00271172D01*
X01042Y00270856D01*
X01043586Y00271172D01*
X0104493Y0027207D01*
X01045828Y00273414D01*
X01046144Y00275D01*
X01045828Y00276586D01*
X0104493Y0027793D01*
X01043586Y00278828D01*
X01042Y00279144D01*
D02*
G37*
G36*
X0099525Y00279025D02*
X00993664Y0027871D01*
X0099232Y00277812D01*
X00991422Y00276467D01*
X00991106Y00274882D01*
X00991422Y00273296D01*
X0099232Y00271952D01*
X00993664Y00271054D01*
X0099525Y00270738D01*
X00996836Y00271054D01*
X0099818Y00271952D01*
X00999078Y00273296D01*
X00999394Y00274882D01*
X00999078Y00276467D01*
X0099818Y00277812D01*
X00996836Y0027871D01*
X0099525Y00279025D01*
D02*
G37*
G36*
X0121Y00284925D02*
X01208414Y0028461D01*
X0120707Y00283712D01*
X01206172Y00282367D01*
X01205856Y00280782D01*
X01206172Y00279196D01*
X0120707Y00277852D01*
X01206502Y00276704D01*
X01205922Y00275836D01*
X01205606Y0027425D01*
X01205922Y00272664D01*
X0120682Y0027132D01*
X01208164Y00270422D01*
X0120975Y00270106D01*
X01211336Y00270422D01*
X0121268Y0027132D01*
X01213578Y00272664D01*
X01213894Y0027425D01*
X01213578Y00275836D01*
X0121268Y0027718D01*
X01213248Y00278328D01*
X01213828Y00279196D01*
X01214144Y00280782D01*
X01213828Y00282367D01*
X0121293Y00283712D01*
X01211586Y0028461D01*
X0121Y00284925D01*
D02*
G37*
G36*
X00736346Y00278068D02*
X0073476Y00277752D01*
X00733416Y00276854D01*
X00732518Y0027551D01*
X00732202Y00273924D01*
X00732518Y00272338D01*
X00733416Y00270994D01*
X0073476Y00270096D01*
X00736346Y0026978D01*
X00737932Y00270096D01*
X00739276Y00270994D01*
X00740174Y00272338D01*
X0074049Y00273924D01*
X00740174Y0027551D01*
X00739276Y00276854D01*
X00737932Y00277752D01*
X00736346Y00278068D01*
D02*
G37*
G36*
X011165Y00276394D02*
X01114914Y00276078D01*
X0111357Y0027518D01*
X01112672Y00273836D01*
X01112356Y0027225D01*
X01112672Y00270664D01*
X0111357Y0026932D01*
X01114914Y00268422D01*
X011165Y00268106D01*
X01118086Y00268422D01*
X0111943Y0026932D01*
X01120328Y00270664D01*
X01120644Y0027225D01*
X01120328Y00273836D01*
X0111943Y0027518D01*
X01118086Y00276078D01*
X011165Y00276394D01*
D02*
G37*
G36*
X00155448Y0027567D02*
X00153862Y00275354D01*
X00152518Y00274456D01*
X0015162Y00273112D01*
X00151304Y00271526D01*
X0015162Y0026994D01*
X00152518Y00268596D01*
X00153862Y00267698D01*
X00155448Y00267382D01*
X00157034Y00267698D01*
X00158378Y00268596D01*
X00159276Y0026994D01*
X00159592Y00271526D01*
X00159276Y00273112D01*
X00158378Y00274456D01*
X00157034Y00275354D01*
X00155448Y0027567D01*
D02*
G37*
G36*
X00987Y00270894D02*
X00985414Y00270578D01*
X0098407Y0026968D01*
X00983172Y00268336D01*
X00982856Y0026675D01*
X00983172Y00265164D01*
X00983355Y0026489D01*
X00982439Y00263975D01*
X00981716Y00264458D01*
X0098013Y00264774D01*
X00978544Y00264458D01*
X009772Y0026356D01*
X00976302Y00262216D01*
X00975986Y0026063D01*
X00976302Y00259044D01*
X009772Y002577D01*
X00978544Y00256802D01*
X0098013Y00256486D01*
X00981716Y00256802D01*
X0098306Y002577D01*
X00983958Y00259044D01*
X00984274Y0026063D01*
X00983958Y00262216D01*
X00983775Y00262489D01*
X00984691Y00263405D01*
X00985414Y00262922D01*
X00987Y00262606D01*
X00988586Y00262922D01*
X0098993Y0026382D01*
X00990828Y00265164D01*
X00991144Y0026675D01*
X00990828Y00268336D01*
X0098993Y0026968D01*
X00988586Y00270578D01*
X00987Y00270894D01*
D02*
G37*
G36*
X001651Y0027059D02*
X00163514Y00270274D01*
X0016217Y00269376D01*
X00161272Y00268032D01*
X00160956Y00266446D01*
X00161272Y0026486D01*
X0016217Y00263516D01*
X00163514Y00262618D01*
X001651Y00262302D01*
X00166686Y00262618D01*
X0016803Y00263516D01*
X00168928Y0026486D01*
X00169244Y00266446D01*
X00168928Y00268032D01*
X0016803Y00269376D01*
X00166686Y00270274D01*
X001651Y0027059D01*
D02*
G37*
G36*
X0123196Y00269854D02*
X01230374Y00269538D01*
X0122903Y0026864D01*
X01228132Y00267296D01*
X01227816Y0026571D01*
X01228132Y00264124D01*
X0122903Y0026278D01*
X01230374Y00261882D01*
X0123196Y00261566D01*
X01233546Y00261882D01*
X0123489Y0026278D01*
X01235788Y00264124D01*
X01236104Y0026571D01*
X01235788Y00267296D01*
X0123489Y0026864D01*
X01233546Y00269538D01*
X0123196Y00269854D01*
D02*
G37*
G36*
X00866186Y00274144D02*
X008646Y00273828D01*
X00863256Y0027293D01*
X00862358Y00271586D01*
X00862042Y0027D01*
X00862358Y00268414D01*
X00863256Y0026707D01*
X008646Y00266172D01*
X00866186Y00265856D01*
X00867772Y00266172D01*
X00869116Y0026707D01*
X00869127Y00267087D01*
X00870323Y00266591D01*
X00870106Y002655D01*
X00870422Y00263914D01*
X0087132Y0026257D01*
X00872664Y00261672D01*
X0087425Y00261356D01*
X00875836Y00261672D01*
X0087718Y0026257D01*
X00878078Y00263914D01*
X00878394Y002655D01*
X00878078Y00267086D01*
X0087718Y0026843D01*
X00875836Y00269328D01*
X0087425Y00269644D01*
X00872664Y00269328D01*
X0087132Y0026843D01*
X00871309Y00268413D01*
X00870113Y00268909D01*
X0087033Y0027D01*
X00870014Y00271586D01*
X00869116Y0027293D01*
X00867772Y00273828D01*
X00866186Y00274144D01*
D02*
G37*
G36*
X011435Y00273546D02*
X01141914Y0027323D01*
X0114057Y00272332D01*
X01139672Y00270988D01*
X01139356Y00269402D01*
X01139672Y00267817D01*
X01140359Y00266789D01*
X0114032Y00266763D01*
X01139422Y00265418D01*
X01139106Y00263833D01*
X01139422Y00262247D01*
X0114032Y00260903D01*
X01141664Y00260005D01*
X0114325Y00259689D01*
X01144836Y00260005D01*
X0114618Y00260903D01*
X01147078Y00262247D01*
X01147394Y00263833D01*
X01147078Y00265418D01*
X01146391Y00266446D01*
X0114643Y00266472D01*
X01147328Y00267817D01*
X01147644Y00269402D01*
X01147328Y00270988D01*
X0114643Y00272332D01*
X01145086Y0027323D01*
X011435Y00273546D01*
D02*
G37*
G36*
X0106522Y00266924D02*
X01063634Y00266608D01*
X0106229Y0026571D01*
X01061392Y00264366D01*
X01061076Y0026278D01*
X01061392Y00261194D01*
X0106229Y0025985D01*
X01063634Y00258952D01*
X0106522Y00258636D01*
X01066806Y00258952D01*
X0106815Y0025985D01*
X01069048Y00261194D01*
X01069364Y0026278D01*
X01069048Y00264366D01*
X0106815Y0026571D01*
X01066806Y00266608D01*
X0106522Y00266924D01*
D02*
G37*
G36*
X007205Y00264774D02*
X00718914Y00264458D01*
X0071757Y0026356D01*
X00716672Y00262216D01*
X00716356Y0026063D01*
X00716672Y00259044D01*
X0071757Y002577D01*
X00718914Y00256802D01*
X007205Y00256486D01*
X00722086Y00256802D01*
X0072343Y002577D01*
X00724328Y00259044D01*
X00724644Y0026063D01*
X00724328Y00262216D01*
X0072343Y0026356D01*
X00722086Y00264458D01*
X007205Y00264774D01*
D02*
G37*
G36*
X011975Y00264144D02*
X01195914Y00263828D01*
X0119457Y0026293D01*
X01193672Y00261586D01*
X01193356Y0026D01*
X01193672Y00258414D01*
X0119457Y0025707D01*
X01195914Y00256172D01*
X011975Y00255856D01*
X01199086Y00256172D01*
X0120043Y0025707D01*
X01201328Y00258414D01*
X01201644Y0026D01*
X01201328Y00261586D01*
X0120043Y0026293D01*
X01199086Y00263828D01*
X011975Y00264144D01*
D02*
G37*
G36*
X008835D02*
X00881914Y00263828D01*
X0088057Y0026293D01*
X00879672Y00261586D01*
X00879356Y0026D01*
X00879672Y00258414D01*
X0088057Y0025707D01*
X00881914Y00256172D01*
X008835Y00255856D01*
X00885086Y00256172D01*
X0088643Y0025707D01*
X00887328Y00258414D01*
X00887644Y0026D01*
X00887328Y00261586D01*
X0088643Y0026293D01*
X00885086Y00263828D01*
X008835Y00264144D01*
D02*
G37*
G36*
X00733085Y00261559D02*
X00731499Y00261243D01*
X00730155Y00260345D01*
X00729257Y00259001D01*
X00728941Y00257415D01*
X00729257Y00255829D01*
X00730155Y00254485D01*
X00731499Y00253587D01*
X00733085Y00253271D01*
X00734671Y00253587D01*
X00736015Y00254485D01*
X00736913Y00255829D01*
X00737229Y00257415D01*
X00736913Y00259001D01*
X00736015Y00260345D01*
X00734671Y00261243D01*
X00733085Y00261559D01*
D02*
G37*
G36*
X00451104Y00256874D02*
X00449518Y00256558D01*
X00448174Y0025566D01*
X00447276Y00254316D01*
X0044696Y0025273D01*
X00447276Y00251144D01*
X00448174Y002498D01*
X00449518Y00248902D01*
X00451104Y00248586D01*
X0045269Y00248902D01*
X00454034Y002498D01*
X00454932Y00251144D01*
X00455248Y0025273D01*
X00454932Y00254316D01*
X00454034Y0025566D01*
X0045269Y00256558D01*
X00451104Y00256874D01*
D02*
G37*
G36*
X00997Y00264144D02*
X00995414Y00263828D01*
X0099407Y0026293D01*
X00993172Y00261586D01*
X00992856Y0026D01*
X00993172Y00258414D01*
X0099407Y0025707D01*
X00995414Y00256172D01*
X00995521Y0025615D01*
X00995579Y00255995D01*
X00995655Y00254829D01*
X00994594Y0025412D01*
X00993696Y00252776D01*
X0099338Y0025119D01*
X00993696Y00249604D01*
X00994594Y0024826D01*
X00995938Y00247362D01*
X00997524Y00247046D01*
X0099911Y00247362D01*
X01000454Y0024826D01*
X01001352Y00249604D01*
X01001668Y0025119D01*
X01001352Y00252776D01*
X01000454Y0025412D01*
X0099911Y00255018D01*
X00999003Y00255039D01*
X00998946Y00255195D01*
X00998869Y00256361D01*
X0099993Y0025707D01*
X01000828Y00258414D01*
X01001144Y0026D01*
X01000828Y00261586D01*
X0099993Y0026293D01*
X00998586Y00263828D01*
X00997Y00264144D01*
D02*
G37*
G36*
X0093175Y00252644D02*
X00930164Y00252328D01*
X0092882Y0025143D01*
X00927922Y00250086D01*
X00927606Y002485D01*
X00927922Y00246914D01*
X0092882Y0024557D01*
X00930164Y00244672D01*
X0093175Y00244356D01*
X00933336Y00244672D01*
X0093468Y0024557D01*
X00935578Y00246914D01*
X00935894Y002485D01*
X00935578Y00250086D01*
X0093468Y0025143D01*
X00933336Y00252328D01*
X0093175Y00252644D01*
D02*
G37*
G36*
X00944326Y00252584D02*
X0094274Y00252269D01*
X00941396Y00251371D01*
X00940497Y00250026D01*
X00940182Y00248441D01*
X00940497Y00246855D01*
X00941396Y00245511D01*
X0094274Y00244613D01*
X00944326Y00244297D01*
X00945911Y00244613D01*
X00947256Y00245511D01*
X00948154Y00246855D01*
X00948469Y00248441D01*
X00948154Y00250026D01*
X00947256Y00251371D01*
X00945911Y00252269D01*
X00944326Y00252584D01*
D02*
G37*
G36*
X006908Y00248967D02*
X00688479Y00248661D01*
X00686317Y00247765D01*
X0068446Y0024634D01*
X00683035Y00244483D01*
X0068223Y00242541D01*
X00681505Y00242149D01*
X00680811Y00241962D01*
X00680619Y0024209D01*
X00679033Y00242405D01*
X00677447Y0024209D01*
X00676103Y00241192D01*
X00675205Y00239847D01*
X0067489Y00238262D01*
X00675205Y00236676D01*
X00676103Y00235332D01*
X00677447Y00234433D01*
X00679033Y00234118D01*
X00680619Y00234433D01*
X00681786Y00235213D01*
X00682151Y00235302D01*
X00683344Y00235113D01*
X0068446Y0023366D01*
X00686317Y00232235D01*
X00688479Y00231339D01*
X006908Y00231033D01*
X00693121Y00231339D01*
X00695283Y00232235D01*
X0069714Y0023366D01*
X00698565Y00235517D01*
X00699461Y00237679D01*
X00699767Y0024D01*
X00699461Y00242321D01*
X00698565Y00244483D01*
X0069714Y0024634D01*
X00695283Y00247765D01*
X00693121Y00248661D01*
X006908Y00248967D01*
D02*
G37*
G36*
X0077525Y002448D02*
X00773664Y00244484D01*
X0077232Y00243586D01*
X00771422Y00242242D01*
X00771106Y00240656D01*
X00771309Y00239639D01*
X00770411Y00238577D01*
X00770331Y00238538D01*
X00769802Y00238644D01*
X00768216Y00238328D01*
X00766872Y0023743D01*
X00765974Y00236086D01*
X00765658Y002345D01*
X00765974Y00232914D01*
X00766659Y00231888D01*
X00765744Y00230973D01*
X00765586Y00231078D01*
X00764Y00231394D01*
X00762414Y00231078D01*
X0076107Y0023018D01*
X00760172Y00228836D01*
X00759856Y0022725D01*
X00760172Y00225664D01*
X0076107Y0022432D01*
X00762414Y00223422D01*
X00764Y00223106D01*
X00765586Y00223422D01*
X0076693Y0022432D01*
X00767828Y00225664D01*
X00768144Y0022725D01*
X00767828Y00228836D01*
X00767143Y00229862D01*
X00768058Y00230777D01*
X00768216Y00230672D01*
X00769802Y00230356D01*
X00771388Y00230672D01*
X00772732Y0023157D01*
X0077363Y00232914D01*
X00773946Y002345D01*
X00773743Y00235517D01*
X00774641Y00236579D01*
X00774721Y00236618D01*
X0077525Y00236512D01*
X00776836Y00236828D01*
X0077818Y00237726D01*
X00779078Y0023907D01*
X00779394Y00240656D01*
X00779078Y00242242D01*
X0077818Y00243586D01*
X00776836Y00244484D01*
X0077525Y002448D01*
D02*
G37*
G36*
X00721106Y0024519D02*
X0071952Y00244874D01*
X00718176Y00243976D01*
X00717278Y00242632D01*
X00716962Y00241046D01*
X00717278Y0023946D01*
X00718176Y00238116D01*
X0071952Y00237218D01*
X00721106Y00236902D01*
X00722692Y00237218D01*
X00724036Y00238116D01*
X00724934Y0023946D01*
X0072525Y00241046D01*
X00724934Y00242632D01*
X00724036Y00243976D01*
X00722692Y00244874D01*
X00721106Y0024519D01*
D02*
G37*
G36*
X01185558Y00243905D02*
X01183972Y0024359D01*
X01182628Y00242692D01*
X0118173Y00241347D01*
X01181414Y00239762D01*
X0118173Y00238176D01*
X01182628Y00236832D01*
X01183972Y00235933D01*
X01185558Y00235618D01*
X01187143Y00235933D01*
X01188488Y00236832D01*
X01189386Y00238176D01*
X01189702Y00239762D01*
X01189386Y00241347D01*
X01188488Y00242692D01*
X01187143Y0024359D01*
X01185558Y00243905D01*
D02*
G37*
G36*
X00820926Y00243144D02*
X0081934Y00242828D01*
X00817996Y0024193D01*
X00817098Y00240586D01*
X00816782Y00239D01*
X00817098Y00237414D01*
X00817996Y0023607D01*
X0081934Y00235172D01*
X00820926Y00234856D01*
X00822512Y00235172D01*
X00823856Y0023607D01*
X00824754Y00237414D01*
X0082507Y00239D01*
X00824754Y00240586D01*
X00823856Y0024193D01*
X00822512Y00242828D01*
X00820926Y00243144D01*
D02*
G37*
G36*
X0030226Y00242904D02*
X00300674Y00242588D01*
X0029933Y0024169D01*
X00298432Y00240346D01*
X00298116Y0023876D01*
X00298432Y00237174D01*
X0029933Y0023583D01*
X00300674Y00234932D01*
X0030226Y00234616D01*
X00303846Y00234932D01*
X0030519Y0023583D01*
X00306088Y00237174D01*
X00306404Y0023876D01*
X00306088Y00240346D01*
X0030519Y0024169D01*
X00303846Y00242588D01*
X0030226Y00242904D01*
D02*
G37*
G36*
X01196308Y00242655D02*
X01194723Y0024234D01*
X01193378Y00241442D01*
X0119248Y00240097D01*
X01192165Y00238512D01*
X0119248Y00236926D01*
X01193378Y00235582D01*
X01194723Y00234683D01*
X01196308Y00234368D01*
X01197894Y00234683D01*
X01199238Y00235582D01*
X01200137Y00236926D01*
X01200452Y00238512D01*
X01200137Y00240097D01*
X01199238Y00241442D01*
X01197894Y0024234D01*
X01196308Y00242655D01*
D02*
G37*
G36*
X00929306Y0024011D02*
X0092772Y00239794D01*
X00926376Y00238896D01*
X00925478Y00237552D01*
X00925162Y00235966D01*
X00925478Y0023438D01*
X00926376Y00233036D01*
X0092772Y00232138D01*
X00929306Y00231822D01*
X00930892Y00232138D01*
X00932236Y00233036D01*
X00933134Y0023438D01*
X0093345Y00235966D01*
X00933134Y00237552D01*
X00932236Y00238896D01*
X00930892Y00239794D01*
X00929306Y0024011D01*
D02*
G37*
G36*
X0103075Y00239894D02*
X01029164Y00239578D01*
X0102782Y0023868D01*
X01026922Y00237336D01*
X01026606Y0023575D01*
X01026922Y00234164D01*
X0102782Y0023282D01*
X01029164Y00231922D01*
X0103075Y00231606D01*
X01032336Y00231922D01*
X0103368Y0023282D01*
X01034578Y00234164D01*
X01034894Y0023575D01*
X01034578Y00237336D01*
X0103368Y0023868D01*
X01032336Y00239578D01*
X0103075Y00239894D01*
D02*
G37*
G36*
X00401113Y00239822D02*
X00399527Y00239507D01*
X00398183Y00238609D01*
X00397284Y00237264D01*
X00396969Y00235679D01*
X00397284Y00234093D01*
X00398183Y00232749D01*
X00399527Y0023185D01*
X00401113Y00231535D01*
X00402698Y0023185D01*
X00404043Y00232749D01*
X00404941Y00234093D01*
X00405256Y00235679D01*
X00404941Y00237264D01*
X00404043Y00238609D01*
X00402698Y00239507D01*
X00401113Y00239822D01*
D02*
G37*
G36*
X00940131Y00239013D02*
X00938545Y00238698D01*
X00937201Y00237799D01*
X00936302Y00236455D01*
X00935987Y00234869D01*
X00936302Y00233284D01*
X00937201Y00231939D01*
X00938545Y00231041D01*
X00940131Y00230726D01*
X00941716Y00231041D01*
X00943061Y00231939D01*
X00943959Y00233284D01*
X00944274Y00234869D01*
X00943959Y00236455D01*
X00943061Y00237799D01*
X00941716Y00238698D01*
X00940131Y00239013D01*
D02*
G37*
G36*
X00728756Y00239318D02*
X0072717Y00239002D01*
X00725826Y00238104D01*
X00724928Y0023676D01*
X00724612Y00235174D01*
X00724928Y00233589D01*
X00725826Y00232244D01*
X0072717Y00231346D01*
X00728756Y00231031D01*
X00730341Y00231346D01*
X0073035Y00231352D01*
X00731265Y00230436D01*
X00731248Y0023041D01*
X00730961Y0022897D01*
X00730412Y00228571D01*
X00729752Y00228251D01*
X00729626Y00228335D01*
X0072804Y0022865D01*
X00726455Y00228335D01*
X0072511Y00227436D01*
X00724212Y00226092D01*
X00723897Y00224506D01*
X00724212Y00222921D01*
X00724338Y00222733D01*
X00723852Y00221559D01*
X00723584Y00221506D01*
X0072224Y00220608D01*
X00721342Y00219264D01*
X00721064Y00217868D01*
X00720671Y00217473D01*
X00719865Y00217008D01*
X00718566Y00217266D01*
X0071698Y0021695D01*
X00715636Y00216052D01*
X00714738Y00214708D01*
X00714422Y00213122D01*
X00714738Y00211537D01*
X00715636Y00210192D01*
X0071698Y00209294D01*
X00718566Y00208979D01*
X00720152Y00209294D01*
X00720385Y0020945D01*
X00721243Y00208684D01*
X00721334Y00208557D01*
X00721026Y0020701D01*
X00721083Y00206725D01*
X00719965Y00205945D01*
X00718379Y0020626D01*
X00716794Y00205945D01*
X00715449Y00205047D01*
X00714551Y00203702D01*
X00714236Y00202117D01*
X00714551Y00200531D01*
X00715449Y00199187D01*
X00716794Y00198288D01*
X00718379Y00197973D01*
X00719965Y00198288D01*
X00721309Y00199187D01*
X00722208Y00200531D01*
X00722523Y00202117D01*
X00722466Y00202401D01*
X00723584Y00203182D01*
X0072517Y00202866D01*
X00726756Y00203182D01*
X007281Y0020408D01*
X00728998Y00205424D01*
X00729314Y0020701D01*
X00728998Y00208596D01*
X007281Y0020994D01*
X00726756Y00210838D01*
X0072517Y00211154D01*
X00723584Y00210838D01*
X00723351Y00210682D01*
X00722493Y00211448D01*
X00722402Y00211576D01*
X00722672Y00212932D01*
X00723065Y00213327D01*
X00723871Y00213793D01*
X0072517Y00213534D01*
X00726756Y0021385D01*
X007281Y00214748D01*
X00728998Y00216092D01*
X00729314Y00217678D01*
X00728998Y00219264D01*
X00728873Y00219452D01*
X00729359Y00220625D01*
X00729626Y00220678D01*
X0073097Y00221576D01*
X00731869Y00222921D01*
X00732155Y00224361D01*
X00732704Y00224759D01*
X00733365Y0022508D01*
X0073349Y00224996D01*
X00735076Y0022468D01*
X00736662Y00224996D01*
X00738006Y00225894D01*
X00738904Y00227238D01*
X0073922Y00228824D01*
X00738904Y0023041D01*
X00738006Y00231754D01*
X00736662Y00232652D01*
X00735076Y00232968D01*
X0073349Y00232652D01*
X00733482Y00232647D01*
X00732566Y00233562D01*
X00732584Y00233589D01*
X00732899Y00235174D01*
X00732584Y0023676D01*
X00731686Y00238104D01*
X00730341Y00239002D01*
X00728756Y00239318D01*
D02*
G37*
G36*
X0121175Y00232644D02*
X01210164Y00232328D01*
X0120882Y0023143D01*
X01207922Y00230086D01*
X01207606Y002285D01*
X01207922Y00226914D01*
X0120882Y0022557D01*
X01210164Y00224672D01*
X0121175Y00224356D01*
X01213336Y00224672D01*
X0121468Y0022557D01*
X01215578Y00226914D01*
X01215894Y002285D01*
X01215578Y00230086D01*
X0121468Y0023143D01*
X01213336Y00232328D01*
X0121175Y00232644D01*
D02*
G37*
G36*
X01015702Y00232236D02*
X01014116Y0023192D01*
X01012772Y00231022D01*
X01011874Y00229678D01*
X01011558Y00228092D01*
X01011874Y00226506D01*
X01012772Y00225162D01*
X01014116Y00224264D01*
X01015702Y00223948D01*
X01017288Y00224264D01*
X01018632Y00225162D01*
X0101953Y00226506D01*
X01019846Y00228092D01*
X0101953Y00229678D01*
X01018632Y00231022D01*
X01017288Y0023192D01*
X01015702Y00232236D01*
D02*
G37*
G36*
X0036576Y00234268D02*
X00364174Y00233952D01*
X0036283Y00233054D01*
X00361932Y0023171D01*
X00361616Y00230124D01*
X00361932Y00228538D01*
X00362824Y00227203D01*
X00361932Y00225868D01*
X00361616Y00224282D01*
X00361932Y00222696D01*
X0036283Y00221352D01*
X00364174Y00220454D01*
X0036576Y00220138D01*
X00367346Y00220454D01*
X0036869Y00221352D01*
X00369588Y00222696D01*
X00369904Y00224282D01*
X00369588Y00225868D01*
X00368696Y00227203D01*
X00369588Y00228538D01*
X00369904Y00230124D01*
X00369588Y0023171D01*
X0036869Y00233054D01*
X00367346Y00233952D01*
X0036576Y00234268D01*
D02*
G37*
G36*
X00382016Y00234776D02*
X0038043Y0023446D01*
X00379086Y00233562D01*
X00378188Y00232218D01*
X00377872Y00230632D01*
X00378188Y00229046D01*
X00379086Y00227702D01*
X0037939Y00227499D01*
Y00226516D01*
X00379252Y00226064D01*
X00378442Y00224852D01*
X00378126Y00223266D01*
X00378442Y0022168D01*
X0037934Y00220336D01*
X00380684Y00219438D01*
X0038227Y00219122D01*
X00383856Y00219438D01*
X003852Y00220336D01*
X00386098Y0022168D01*
X00386414Y00223266D01*
X00386098Y00224852D01*
X003852Y00226196D01*
X00384896Y00226399D01*
Y00227381D01*
X00385034Y00227834D01*
X00385844Y00229046D01*
X0038616Y00230632D01*
X00385844Y00232218D01*
X00384946Y00233562D01*
X00383602Y0023446D01*
X00382016Y00234776D01*
D02*
G37*
G36*
X00454406Y00240398D02*
X0045282Y00240082D01*
X00451476Y00239184D01*
X00450578Y0023784D01*
X00450262Y00236254D01*
X00450544Y00234839D01*
X00449849Y00233648D01*
X00449518Y00233582D01*
X00448174Y00232684D01*
X00447276Y0023134D01*
X0044696Y00229754D01*
X00447276Y00228168D01*
X00448174Y00226824D01*
X00449518Y00225926D01*
X00449849Y0022586D01*
X00450498Y00224436D01*
X00450262Y00223254D01*
X00450578Y00221668D01*
X00451476Y00220324D01*
X0045282Y00219426D01*
X00454406Y0021911D01*
X00455992Y00219426D01*
X00457336Y00220324D01*
X00458234Y00221668D01*
X0045855Y00223254D01*
X00458234Y0022484D01*
X00457336Y00226184D01*
X00455992Y00227082D01*
X00455662Y00227148D01*
X00455013Y00228572D01*
X00455248Y00229754D01*
X00454966Y00231169D01*
X00455662Y0023236D01*
X00455992Y00232426D01*
X00457336Y00233324D01*
X00458234Y00234668D01*
X0045855Y00236254D01*
X00458234Y0023784D01*
X00457336Y00239184D01*
X00455992Y00240082D01*
X00454406Y00240398D01*
D02*
G37*
G36*
X00561632Y00235576D02*
X00560047Y00235261D01*
X00558702Y00234362D01*
X00557804Y00233018D01*
X00557489Y00231432D01*
X00557804Y00229847D01*
X00558702Y00228502D01*
X00560047Y00227604D01*
X00560953Y00227424D01*
X00560832Y00226203D01*
X00560278Y00226093D01*
X00559246Y00225888D01*
X00557902Y0022499D01*
X00557004Y00223645D01*
X00556688Y0022206D01*
X00557004Y00220474D01*
X00557327Y00219991D01*
X00556411Y00219075D01*
X00555814Y00219474D01*
X00554228Y0021979D01*
X00552642Y00219474D01*
X00551298Y00218576D01*
X005504Y00217232D01*
X00550084Y00215646D01*
X005504Y0021406D01*
X00551298Y00212716D01*
X00552642Y00211818D01*
X00554228Y00211502D01*
X00555814Y00211818D01*
X00556198Y00212074D01*
X00556884Y00211631D01*
X00557227Y00211235D01*
X00556942Y00209804D01*
X00557227Y00208373D01*
X00556884Y00207977D01*
X00556198Y00207534D01*
X00555814Y0020779D01*
X00554228Y00208106D01*
X00552642Y0020779D01*
X00551298Y00206892D01*
X005504Y00205548D01*
X00550084Y00203962D01*
X005504Y00202376D01*
X00551298Y00201032D01*
X00552642Y00200134D01*
X00554228Y00199818D01*
X00555814Y00200134D01*
X00557158Y00201032D01*
X00558056Y00202376D01*
X00558372Y00203962D01*
X00558087Y00205393D01*
X00558429Y00205789D01*
X00559116Y00206232D01*
X005595Y00205976D01*
X00561086Y0020566D01*
X00562672Y00205976D01*
X00564016Y00206874D01*
X00564914Y00208218D01*
X0056523Y00209804D01*
X00564914Y0021139D01*
X00564016Y00212734D01*
X00562672Y00213632D01*
X00561086Y00213948D01*
X005595Y00213632D01*
X00559116Y00213376D01*
X00558429Y00213819D01*
X00558087Y00214215D01*
X00558372Y00215646D01*
X00558056Y00217232D01*
X00557733Y00217715D01*
X00558649Y00218631D01*
X00559246Y00218232D01*
X00560832Y00217916D01*
X00562418Y00218232D01*
X00563762Y0021913D01*
X0056466Y00220474D01*
X00564976Y0022206D01*
X0056466Y00223645D01*
X00563762Y0022499D01*
X00562418Y00225888D01*
X00561511Y00226068D01*
X00561632Y00227289D01*
X00562187Y00227399D01*
X00563218Y00227604D01*
X00564562Y00228502D01*
X00565461Y00229847D01*
X00565776Y00231432D01*
X00565461Y00233018D01*
X00564562Y00234362D01*
X00563218Y00235261D01*
X00561632Y00235576D01*
D02*
G37*
G36*
X0099568Y0023122D02*
X00994094Y00230904D01*
X0099275Y00230006D01*
X00991852Y00228662D01*
X00991536Y00227076D01*
X00991852Y0022549D01*
X00992075Y00225156D01*
X00992496Y0022391D01*
X00991598Y00222566D01*
X00991282Y0022098D01*
X00991598Y00219394D01*
X00992496Y0021805D01*
X0099384Y00217152D01*
X00995426Y00216836D01*
X00997012Y00217152D01*
X00998356Y0021805D01*
X00999254Y00219394D01*
X0099957Y0022098D01*
X00999254Y00222566D01*
X00999031Y002229D01*
X0099861Y00224146D01*
X00999508Y0022549D01*
X00999824Y00227076D01*
X00999508Y00228662D01*
X0099861Y00230006D01*
X00997266Y00230904D01*
X0099568Y0023122D01*
D02*
G37*
G36*
X00660081Y0022487D02*
X00658495Y00224554D01*
X00657151Y00223656D01*
X00656253Y00222312D01*
X00655937Y00220726D01*
X00656253Y0021914D01*
X00657151Y00217796D01*
X00658495Y00216898D01*
X00660081Y00216582D01*
X00661666Y00216898D01*
X00663011Y00217796D01*
X00663909Y0021914D01*
X00664224Y00220726D01*
X00663909Y00222312D01*
X00663011Y00223656D01*
X00661666Y00224554D01*
X00660081Y0022487D01*
D02*
G37*
G36*
X01127637Y00224824D02*
X01126051Y00224508D01*
X01124707Y0022361D01*
X01123809Y00222266D01*
X01123493Y0022068D01*
X01123809Y00219094D01*
X01124707Y0021775D01*
X01126051Y00216852D01*
X01127637Y00216536D01*
X01129223Y00216852D01*
X01130567Y0021775D01*
X01131465Y00219094D01*
X01131781Y0022068D01*
X01131465Y00222266D01*
X01130567Y0022361D01*
X01129223Y00224508D01*
X01127637Y00224824D01*
D02*
G37*
G36*
X01015492Y00222584D02*
X01013906Y00222268D01*
X01012562Y0022137D01*
X01011664Y00220026D01*
X01011348Y0021844D01*
X01011664Y00216854D01*
X01012562Y0021551D01*
X01013906Y00214612D01*
X01015492Y00214296D01*
X01017078Y00214612D01*
X01018422Y0021551D01*
X0101932Y00216854D01*
X01019636Y0021844D01*
X0101932Y00220026D01*
X01018422Y0022137D01*
X01017078Y00222268D01*
X01015492Y00222584D01*
D02*
G37*
G36*
X00472327Y00220898D02*
X00470742Y00220582D01*
X00469397Y00219684D01*
X00468499Y0021834D01*
X00468184Y00216754D01*
X00468499Y00215168D01*
X00469397Y00213824D01*
X00470742Y00212926D01*
X00472327Y0021261D01*
X00473913Y00212926D01*
X00475257Y00213824D01*
X00476155Y00215168D01*
X00476471Y00216754D01*
X00476155Y0021834D01*
X00475257Y00219684D01*
X00473913Y00220582D01*
X00472327Y00220898D01*
D02*
G37*
G36*
X01107186Y00225632D02*
X011056Y00225316D01*
X01104256Y00224418D01*
X01103358Y00223074D01*
X01103042Y00221488D01*
X01103358Y00219902D01*
X01104169Y00218688D01*
X01104002Y00218576D01*
X01103104Y00217232D01*
X01102788Y00215646D01*
X01103104Y0021406D01*
X01104002Y00212716D01*
X01105346Y00211818D01*
X01106932Y00211502D01*
X01108518Y00211818D01*
X01109862Y00212716D01*
X0111076Y0021406D01*
X01111076Y00215646D01*
X0111076Y00217232D01*
X01109949Y00218446D01*
X01110116Y00218558D01*
X01111014Y00219902D01*
X0111133Y00221488D01*
X01111014Y00223074D01*
X01110116Y00224418D01*
X01108772Y00225316D01*
X01107186Y00225632D01*
D02*
G37*
G36*
X00275232Y00217504D02*
X00273646Y00217188D01*
X00272302Y0021629D01*
X00271404Y00214946D01*
X00271088Y0021336D01*
X00271404Y00211774D01*
X00272302Y0021043D01*
X00273646Y00209532D01*
X00275232Y00209216D01*
X00276818Y00209532D01*
X00278162Y0021043D01*
X0027906Y00211774D01*
X00279376Y0021336D01*
X0027906Y00214946D01*
X00278162Y0021629D01*
X00276818Y00217188D01*
X00275232Y00217504D01*
D02*
G37*
G36*
X00348694Y00217182D02*
X00347108Y00216867D01*
X00345764Y00215969D01*
X00344866Y00214624D01*
X0034455Y00213039D01*
X00344866Y00211453D01*
X00345764Y00210109D01*
X00347108Y0020921D01*
X00348694Y00208895D01*
X0035028Y0020921D01*
X00351624Y00210109D01*
X00352522Y00211453D01*
X00352838Y00213039D01*
X00352522Y00214624D01*
X00351624Y00215969D01*
X0035028Y00216867D01*
X00348694Y00217182D01*
D02*
G37*
G36*
X00651256Y00217038D02*
X0064967Y00216723D01*
X00648326Y00215824D01*
X00647428Y0021448D01*
X00647112Y00212894D01*
X00647428Y00211308D01*
X00648326Y00209964D01*
X0064967Y00209066D01*
X00651256Y00208751D01*
X00652842Y00209066D01*
X00654186Y00209964D01*
X00655084Y00211308D01*
X006554Y00212894D01*
X00655084Y0021448D01*
X00654186Y00215824D01*
X00652842Y00216723D01*
X00651256Y00217038D01*
D02*
G37*
G36*
X0090424Y00214964D02*
X00902654Y00214648D01*
X0090131Y0021375D01*
X00900412Y00212406D01*
X00900096Y0021082D01*
X00900412Y00209234D01*
X0090131Y0020789D01*
X00902654Y00206992D01*
X0090424Y00206676D01*
X00905826Y00206992D01*
X0090717Y0020789D01*
X00908068Y00209234D01*
X00908384Y0021082D01*
X00908068Y00212406D01*
X0090717Y0021375D01*
X00905826Y00214648D01*
X0090424Y00214964D01*
D02*
G37*
G36*
X00626872Y0021471D02*
X00625286Y00214394D01*
X00623942Y00213496D01*
X00623044Y00212152D01*
X00622728Y00210566D01*
X00623044Y0020898D01*
X00623942Y00207636D01*
X00625286Y00206738D01*
X00626872Y00206422D01*
X00628458Y00206738D01*
X00629802Y00207636D01*
X006307Y0020898D01*
X00631016Y00210566D01*
X006307Y00212152D01*
X00629802Y00213496D01*
X00628458Y00214394D01*
X00626872Y0021471D01*
D02*
G37*
G36*
X0046437Y00214398D02*
X00462784Y00214082D01*
X0046144Y00213184D01*
X00460542Y0021184D01*
X00460226Y00210254D01*
X00460542Y00208668D01*
X0046144Y00207324D01*
X00462784Y00206426D01*
X0046437Y0020611D01*
X00465956Y00206426D01*
X004673Y00207324D01*
X00468198Y00208668D01*
X00468514Y00210254D01*
X00468198Y0021184D01*
X004673Y00213184D01*
X00465956Y00214082D01*
X0046437Y00214398D01*
D02*
G37*
G36*
X00979772Y00214388D02*
X00978186Y00214073D01*
X00976842Y00213175D01*
X00975944Y0021183D01*
X00975628Y00210245D01*
X00975944Y00208659D01*
X00976842Y00207315D01*
X00978186Y00206416D01*
X00979772Y00206101D01*
X00981358Y00206416D01*
X00982702Y00207315D01*
X009836Y00208659D01*
X00983916Y00210245D01*
X009836Y0021183D01*
X00982702Y00213175D01*
X00981358Y00214073D01*
X00979772Y00214388D01*
D02*
G37*
G36*
X0116125Y00213144D02*
X01159664Y00212828D01*
X0115832Y0021193D01*
X01157422Y00210586D01*
X01157106Y00209D01*
X01157422Y00207414D01*
X0115832Y0020607D01*
X01159664Y00205172D01*
X0116125Y00204856D01*
X01162836Y00205172D01*
X0116418Y0020607D01*
X01165078Y00207414D01*
X01165394Y00209D01*
X01165078Y00210586D01*
X0116418Y0021193D01*
X01162836Y00212828D01*
X0116125Y00213144D01*
D02*
G37*
G36*
X01090168Y00209122D02*
X01088582Y00208806D01*
X01087238Y00207908D01*
X0108634Y00206564D01*
X01086024Y00204978D01*
X0108634Y00203392D01*
X01087238Y00202048D01*
X01088582Y0020115D01*
X01090168Y00200834D01*
X01091754Y0020115D01*
X01093098Y00202048D01*
X01093996Y00203392D01*
X01094312Y00204978D01*
X01093996Y00206564D01*
X01093098Y00207908D01*
X01091754Y00208806D01*
X01090168Y00209122D01*
D02*
G37*
G36*
X00671576Y00207598D02*
X0066999Y00207282D01*
X00668646Y00206384D01*
X00667748Y0020504D01*
X00667432Y00203454D01*
X00667748Y00201868D01*
X00668646Y00200524D01*
X0066999Y00199626D01*
X00671576Y0019931D01*
X00673162Y00199626D01*
X00674506Y00200524D01*
X00675404Y00201868D01*
X0067572Y00203454D01*
X00675404Y0020504D01*
X00674506Y00206384D01*
X00673162Y00207282D01*
X00671576Y00207598D01*
D02*
G37*
G36*
X0069715Y00206836D02*
X00695564Y0020652D01*
X0069422Y00205622D01*
X00693322Y00204278D01*
X00693006Y00202692D01*
X00693322Y00201106D01*
X0069422Y00199762D01*
X00695564Y00198864D01*
X0069715Y00198548D01*
X00698736Y00198864D01*
X0070008Y00199762D01*
X00700978Y00201106D01*
X00701294Y00202692D01*
X00700978Y00204278D01*
X0070008Y00205622D01*
X00698736Y0020652D01*
X0069715Y00206836D01*
D02*
G37*
G36*
X00685038D02*
X00683452Y0020652D01*
X00682108Y00205622D01*
X0068121Y00204278D01*
X00680894Y00202692D01*
X0068121Y00201106D01*
X00682108Y00199762D01*
X00683452Y00198864D01*
X00685038Y00198548D01*
X00686624Y00198864D01*
X00687968Y00199762D01*
X00688866Y00201106D01*
X00689182Y00202692D01*
X00688866Y00204278D01*
X00687968Y00205622D01*
X00686624Y0020652D01*
X00685038Y00206836D01*
D02*
G37*
G36*
X00638302D02*
X00636716Y0020652D01*
X00635372Y00205622D01*
X00634474Y00204278D01*
X00634158Y00202692D01*
X00634474Y00201106D01*
X00635372Y00199762D01*
X00636716Y00198864D01*
X00638302Y00198548D01*
X00639888Y00198864D01*
X00641232Y00199762D01*
X0064213Y00201106D01*
X00642446Y00202692D01*
X0064213Y00204278D01*
X00641232Y00205622D01*
X00639888Y0020652D01*
X00638302Y00206836D01*
D02*
G37*
G36*
X00348694Y0020626D02*
X00347108Y00205945D01*
X00345764Y00205047D01*
X00344866Y00203702D01*
X0034455Y00202117D01*
X00344866Y00200531D01*
X00345764Y00199187D01*
X00347108Y00198288D01*
X00348694Y00197973D01*
X0035028Y00198288D01*
X00351624Y00199187D01*
X00352522Y00200531D01*
X00352838Y00202117D01*
X00352522Y00203702D01*
X00351624Y00205047D01*
X0035028Y00205945D01*
X00348694Y0020626D01*
D02*
G37*
G36*
X0112701Y00205324D02*
X01125424Y00205008D01*
X0112408Y0020411D01*
X01123182Y00202766D01*
X01122866Y0020118D01*
X01123182Y00199594D01*
X0112408Y0019825D01*
X01125424Y00197352D01*
X0112701Y00197036D01*
X01128596Y00197352D01*
X0112994Y0019825D01*
X01130838Y00199594D01*
X01131154Y0020118D01*
X01130838Y00202766D01*
X0112994Y0020411D01*
X01128596Y00205008D01*
X0112701Y00205324D01*
D02*
G37*
G36*
X01229614Y0020455D02*
X01228028Y00204234D01*
X01226684Y00203336D01*
X01225786Y00201992D01*
X0122547Y00200406D01*
X01225786Y0019882D01*
X01226684Y00197476D01*
X01228028Y00196578D01*
X01229614Y00196262D01*
X012312Y00196578D01*
X01232544Y00197476D01*
X01233442Y0019882D01*
X01233758Y00200406D01*
X01233442Y00201992D01*
X01232544Y00203336D01*
X012312Y00204234D01*
X01229614Y0020455D01*
D02*
G37*
G36*
X00977392Y00203466D02*
X00975806Y00203151D01*
X00974462Y00202253D01*
X00973564Y00200908D01*
X00973248Y00199323D01*
X00973564Y00197737D01*
X00974462Y00196393D01*
X00975806Y00195494D01*
X00977392Y00195179D01*
X00978978Y00195494D01*
X00980322Y00196393D01*
X0098122Y00197737D01*
X00981536Y00199323D01*
X0098122Y00200908D01*
X00980322Y00202253D01*
X00978978Y00203151D01*
X00977392Y00203466D01*
D02*
G37*
G36*
X0028575Y00202559D02*
X00284164Y00202244D01*
X0028282Y00201346D01*
X00281922Y00200001D01*
X00281606Y00198416D01*
X00281922Y0019683D01*
X0028282Y00195486D01*
X00284164Y00194587D01*
X0028575Y00194272D01*
X00287336Y00194587D01*
X0028868Y00195486D01*
X00289578Y0019683D01*
X00289894Y00198416D01*
X00289578Y00200001D01*
X0028868Y00201346D01*
X00287336Y00202244D01*
X0028575Y00202559D01*
D02*
G37*
G36*
X00383286Y00207852D02*
X003817Y00207536D01*
X00380356Y00206638D01*
X00379458Y00205294D01*
X00379142Y00203708D01*
X00379458Y00202122D01*
X00380112Y00201144D01*
X00380266Y00200279D01*
X00380112Y00199414D01*
X00379458Y00198436D01*
X00379142Y0019685D01*
X00379458Y00195264D01*
X00380356Y0019392D01*
X003817Y00193022D01*
X00383286Y00192706D01*
X00384872Y00193022D01*
X00386216Y0019392D01*
X00387114Y00195264D01*
X0038743Y0019685D01*
X00387114Y00198436D01*
X0038646Y00199414D01*
X00386306Y00200279D01*
X0038646Y00201144D01*
X00387114Y00202122D01*
X0038743Y00203708D01*
X00387114Y00205294D01*
X00386216Y00206638D01*
X00384872Y00207536D01*
X00383286Y00207852D01*
D02*
G37*
G36*
X0109601Y0020074D02*
X01094424Y00200424D01*
X0109308Y00199526D01*
X01092182Y00198182D01*
X01091866Y00196596D01*
X01092182Y0019501D01*
X0109308Y00193666D01*
X01094424Y00192768D01*
X0109601Y00192452D01*
X01097596Y00192768D01*
X0109894Y00193666D01*
X01099838Y0019501D01*
X01100154Y00196596D01*
X01099838Y00198182D01*
X0109894Y00199526D01*
X01097596Y00200424D01*
X0109601Y0020074D01*
D02*
G37*
G36*
X00916828Y00199765D02*
X00915242Y0019945D01*
X00913898Y00198552D01*
X00913Y00197207D01*
X00912684Y00195622D01*
X00913Y00194036D01*
X00913898Y00192692D01*
X00915242Y00191793D01*
X00916828Y00191478D01*
X00918414Y00191793D01*
X00919758Y00192692D01*
X00920656Y00194036D01*
X00920972Y00195622D01*
X00920656Y00197207D01*
X00919758Y00198552D01*
X00918414Y0019945D01*
X00916828Y00199765D01*
D02*
G37*
G36*
X00733085Y00199144D02*
X00731499Y00198828D01*
X00730155Y0019793D01*
X00729257Y00196586D01*
X00728941Y00195D01*
X00729257Y00193414D01*
X00730155Y0019207D01*
X00731499Y00191172D01*
X00733085Y00190856D01*
X00734671Y00191172D01*
X00736015Y0019207D01*
X00736913Y00193414D01*
X00737229Y00195D01*
X00736913Y00196586D01*
X00736015Y0019793D01*
X00734671Y00198828D01*
X00733085Y00199144D01*
D02*
G37*
G36*
X01159307Y00198403D02*
X01157721Y00198088D01*
X01156377Y0019719D01*
X01155478Y00195845D01*
X01155163Y00194259D01*
X01155478Y00192674D01*
X01156377Y00191329D01*
X01157721Y00190431D01*
X01159307Y00190116D01*
X01160892Y00190431D01*
X01162237Y00191329D01*
X01163135Y00192674D01*
X0116345Y00194259D01*
X01163135Y00195845D01*
X01162237Y0019719D01*
X01160892Y00198088D01*
X01159307Y00198403D01*
D02*
G37*
G36*
X01014364Y00205058D02*
X01012778Y00204742D01*
X01011434Y00203844D01*
X01010536Y002025D01*
X0101022Y00200914D01*
X01010536Y00199328D01*
X01011189Y0019835D01*
X01011345Y00197485D01*
X01011189Y0019662D01*
X01010536Y00195642D01*
X0101022Y00194056D01*
X01010536Y0019247D01*
X01011434Y00191126D01*
X01012778Y00190228D01*
X01014364Y00189912D01*
X0101595Y00190228D01*
X01017294Y00191126D01*
X01018192Y0019247D01*
X01018508Y00194056D01*
X01018192Y00195642D01*
X01017539Y0019662D01*
X01017383Y00197485D01*
X01017539Y0019835D01*
X01018192Y00199328D01*
X01018508Y00200914D01*
X01018192Y002025D01*
X01017294Y00203844D01*
X0101595Y00204742D01*
X01014364Y00205058D01*
D02*
G37*
G36*
X00905256Y00203466D02*
X0090367Y00203151D01*
X00902326Y00202253D01*
X00901428Y00200908D01*
X00901112Y00199323D01*
X00901428Y00197737D01*
X00902266Y00196483D01*
X00901428Y00195228D01*
X00901112Y00193643D01*
X00901428Y00192057D01*
X00902326Y00190713D01*
X0090367Y00189814D01*
X00905256Y00189499D01*
X00906842Y00189814D01*
X00908186Y00190713D01*
X00909084Y00192057D01*
X009094Y00193643D01*
X00909084Y00195228D01*
X00908246Y00196483D01*
X00909084Y00197737D01*
X009094Y00199323D01*
X00909084Y00200908D01*
X00908186Y00202253D01*
X00906842Y00203151D01*
X00905256Y00203466D01*
D02*
G37*
G36*
X00473456Y0020074D02*
X0047187Y00200424D01*
X00470526Y00199526D01*
X00469628Y00198182D01*
X00469312Y00196596D01*
X00469628Y0019501D01*
X00470404Y00193849D01*
X00469628Y00192688D01*
X00469312Y00191102D01*
X00469628Y00189517D01*
X00470526Y00188172D01*
X0047187Y00187274D01*
X00473456Y00186959D01*
X00475042Y00187274D01*
X00476386Y00188172D01*
X00477284Y00189517D01*
X004776Y00191102D01*
X00477284Y00192688D01*
X00476508Y00193849D01*
X00477284Y0019501D01*
X004776Y00196596D01*
X00477284Y00198182D01*
X00476386Y00199526D01*
X00475042Y00200424D01*
X00473456Y0020074D01*
D02*
G37*
G36*
X00498602Y00193628D02*
X00497016Y00193312D01*
X00495672Y00192414D01*
X00494774Y0019107D01*
X00494458Y00189484D01*
X00494774Y00187898D01*
X00495672Y00186554D01*
X00497016Y00185656D01*
X00498602Y0018534D01*
X00500188Y00185656D01*
X00501532Y00186554D01*
X0050243Y00187898D01*
X00502746Y00189484D01*
X0050243Y0019107D01*
X00501532Y00192414D01*
X00500188Y00193312D01*
X00498602Y00193628D01*
D02*
G37*
G36*
X00675124Y0019286D02*
X00673538Y00192544D01*
X00672194Y00191646D01*
X00671296Y00190302D01*
X0067098Y00188716D01*
X00671296Y0018713D01*
X00672194Y00185786D01*
X00673538Y00184888D01*
X00675124Y00184572D01*
X0067671Y00184888D01*
X00678054Y00185786D01*
X00678952Y0018713D01*
X00679268Y00188716D01*
X00678952Y00190302D01*
X00678054Y00191646D01*
X0067671Y00192544D01*
X00675124Y0019286D01*
D02*
G37*
G36*
X00364998Y00192786D02*
X00363412Y0019247D01*
X00362068Y00191572D01*
X0036117Y00190228D01*
X00360854Y00188642D01*
X0036117Y00187056D01*
X00362068Y00185712D01*
X00363412Y00184814D01*
X00364998Y00184498D01*
X00366584Y00184814D01*
X00367928Y00185712D01*
X00368826Y00187056D01*
X00369142Y00188642D01*
X00368826Y00190228D01*
X00367928Y00191572D01*
X00366584Y0019247D01*
X00364998Y00192786D01*
D02*
G37*
G36*
X0027559Y00197786D02*
X00274004Y00197471D01*
X0027266Y00196572D01*
X00271762Y00195228D01*
X00271446Y00193643D01*
X00271762Y00192057D01*
X00272601Y00190801D01*
X00271762Y00189546D01*
X00271446Y0018796D01*
X00271762Y00186374D01*
X0027266Y0018503D01*
X00274004Y00184132D01*
X0027559Y00183816D01*
X00277176Y00184132D01*
X0027852Y0018503D01*
X00279418Y00186374D01*
X00279734Y0018796D01*
X00279418Y00189546D01*
X00278579Y00190801D01*
X00279418Y00192057D01*
X00279734Y00193643D01*
X00279418Y00195228D01*
X0027852Y00196572D01*
X00277176Y00197471D01*
X0027559Y00197786D01*
D02*
G37*
G36*
X0094615Y00191642D02*
X00944564Y00191326D01*
X0094322Y00190428D01*
X00942322Y00189084D01*
X00942006Y00187498D01*
X00942322Y00185912D01*
X0094322Y00184568D01*
X00944564Y0018367D01*
X0094615Y00183354D01*
X00947736Y0018367D01*
X0094908Y00184568D01*
X00949978Y00185912D01*
X00950294Y00187498D01*
X00949978Y00189084D01*
X0094908Y00190428D01*
X00947736Y00191326D01*
X0094615Y00191642D01*
D02*
G37*
G36*
X00174208Y00196715D02*
X00172622Y00196399D01*
X00171278Y00195501D01*
X0017038Y00194157D01*
X00170065Y00192571D01*
X0017038Y00190986D01*
X00171278Y00189641D01*
X00171314Y00189617D01*
Y00188858D01*
X00170416Y00187514D01*
X001701Y00185928D01*
X00170416Y00184342D01*
X00171314Y00182998D01*
X00172658Y001821D01*
X00174244Y00181784D01*
X0017583Y001821D01*
X00177174Y00182998D01*
X00178072Y00184342D01*
X00178388Y00185928D01*
X00178072Y00187514D01*
X00177174Y00188858D01*
X00177138Y00188882D01*
Y00189641D01*
X00178036Y00190986D01*
X00178352Y00192571D01*
X00178036Y00194157D01*
X00177138Y00195501D01*
X00175794Y00196399D01*
X00174208Y00196715D01*
D02*
G37*
G36*
X00996076Y00189992D02*
X0099449Y00189676D01*
X00993146Y00188778D01*
X00992248Y00187434D01*
X00991932Y00185848D01*
X00992248Y00184262D01*
X00993146Y00182918D01*
X0099449Y0018202D01*
X00996076Y00181704D01*
X00997662Y0018202D01*
X00999006Y00182918D01*
X00999904Y00184262D01*
X0100022Y00185848D01*
X00999904Y00187434D01*
X00999006Y00188778D01*
X00997662Y00189676D01*
X00996076Y00189992D01*
D02*
G37*
G36*
X00808228Y00194136D02*
X00806642Y0019382D01*
X00805298Y00192922D01*
X008044Y00191578D01*
X00804084Y00189992D01*
X008044Y00188406D01*
X00805207Y00187198D01*
X008044Y0018599D01*
X00804084Y00184404D01*
X008044Y00182818D01*
X00805298Y00181474D01*
X00806642Y00180576D01*
X00808228Y0018026D01*
X00809814Y00180576D01*
X00811158Y00181474D01*
X00812056Y00182818D01*
X00812372Y00184404D01*
X00812056Y0018599D01*
X00811249Y00187198D01*
X00812056Y00188406D01*
X00812372Y00189992D01*
X00812056Y00191578D01*
X00811158Y00192922D01*
X00809814Y0019382D01*
X00808228Y00194136D01*
D02*
G37*
G36*
X00411226Y00187278D02*
X0040964Y00186962D01*
X00408296Y00186064D01*
X00407398Y0018472D01*
X00407082Y00183134D01*
X00407398Y00181548D01*
X00408296Y00180204D01*
X0040964Y00179306D01*
X00411226Y0017899D01*
X00412812Y00179306D01*
X00414156Y00180204D01*
X00415054Y00181548D01*
X0041537Y00183134D01*
X00415054Y0018472D01*
X00414156Y00186064D01*
X00412812Y00186962D01*
X00411226Y00187278D01*
D02*
G37*
G36*
X00021396Y00186068D02*
X0001981Y00185752D01*
X00018466Y00184854D01*
X00017568Y0018351D01*
X00017252Y00181924D01*
X00017568Y00180338D01*
X00018466Y00178994D01*
X0001981Y00178096D01*
X00021396Y0017778D01*
X00022982Y00178096D01*
X00024326Y00178994D01*
X00025224Y00180338D01*
X0002554Y00181924D01*
X00025224Y0018351D01*
X00024326Y00184854D01*
X00022982Y00185752D01*
X00021396Y00186068D01*
D02*
G37*
G36*
X003175Y00185246D02*
X00315914Y0018493D01*
X0031457Y00184032D01*
X00313672Y00182688D01*
X00313356Y00181102D01*
X00313672Y00179516D01*
X0031457Y00178172D01*
X00315914Y00177274D01*
X003175Y00176958D01*
X00319086Y00177274D01*
X0032043Y00178172D01*
X00321328Y00179516D01*
X00321644Y00181102D01*
X00321328Y00182688D01*
X0032043Y00184032D01*
X00319086Y0018493D01*
X003175Y00185246D01*
D02*
G37*
G36*
X00727456Y00183356D02*
X0072587Y0018304D01*
X00724526Y00182142D01*
X00723628Y00180798D01*
X00723312Y00179212D01*
X00723628Y00177626D01*
X00724526Y00176282D01*
X0072587Y00175384D01*
X00727456Y00175069D01*
X00729042Y00175384D01*
X00730386Y00176282D01*
X00731284Y00177626D01*
X007316Y00179212D01*
X00731284Y00180798D01*
X00730386Y00182142D01*
X00729042Y0018304D01*
X00727456Y00183356D01*
D02*
G37*
G36*
X0054483Y00182786D02*
X00543244Y0018247D01*
X005419Y00181572D01*
X00541002Y00180228D01*
X00540686Y00178642D01*
X00541002Y00177056D01*
X005419Y00175712D01*
X00543244Y00174814D01*
X0054483Y00174498D01*
X00546416Y00174814D01*
X0054776Y00175712D01*
X00548658Y00177056D01*
X00548974Y00178642D01*
X00548658Y00180228D01*
X0054776Y00181572D01*
X00546416Y0018247D01*
X0054483Y00182786D01*
D02*
G37*
G36*
X00329608Y00182114D02*
X00328022Y00181798D01*
X00326678Y001809D01*
X0032578Y00179556D01*
X00325464Y0017797D01*
X0032578Y00176384D01*
X00326678Y0017504D01*
X00328022Y00174142D01*
X00329608Y00173826D01*
X00331194Y00174142D01*
X00332538Y0017504D01*
X00333436Y00176384D01*
X00333752Y0017797D01*
X00333436Y00179556D01*
X00332538Y001809D01*
X00331194Y00181798D01*
X00329608Y00182114D01*
D02*
G37*
G36*
X01035558Y0018169D02*
X01033972Y00181374D01*
X01032628Y00180476D01*
X0103173Y00179132D01*
X01031414Y00177546D01*
X0103173Y0017596D01*
X01032628Y00174616D01*
X01033972Y00173718D01*
X01035558Y00173402D01*
X01037144Y00173718D01*
X01038488Y00174616D01*
X01039386Y0017596D01*
X01039702Y00177546D01*
X01039386Y00179132D01*
X01038488Y00180476D01*
X01037144Y00181374D01*
X01035558Y0018169D01*
D02*
G37*
G36*
X00481632Y00179706D02*
X00480046Y0017939D01*
X00478702Y00178492D01*
X00477804Y00177148D01*
X00477488Y00175562D01*
X00477804Y00173976D01*
X00478702Y00172632D01*
X00480046Y00171734D01*
X00481632Y00171418D01*
X00483218Y00171734D01*
X00484562Y00172632D01*
X0048546Y00173976D01*
X00485776Y00175562D01*
X0048546Y00177148D01*
X00484562Y00178492D01*
X00483218Y0017939D01*
X00481632Y00179706D01*
D02*
G37*
G36*
X00191122Y0017675D02*
X00189536Y00176435D01*
X00188192Y00175536D01*
X00187293Y00174192D01*
X00186978Y00172607D01*
X00187293Y00171021D01*
X00188192Y00169676D01*
X00189536Y00168778D01*
X00191122Y00168463D01*
X00192707Y00168778D01*
X00194051Y00169676D01*
X0019495Y00171021D01*
X00195265Y00172607D01*
X0019495Y00174192D01*
X00194051Y00175536D01*
X00192707Y00176435D01*
X00191122Y0017675D01*
D02*
G37*
G36*
X00827532Y0017661D02*
X00825946Y00176294D01*
X00824602Y00175396D01*
X00823704Y00174052D01*
X00823388Y00172466D01*
X00823704Y0017088D01*
X00824602Y00169536D01*
X00825946Y00168638D01*
X00827532Y00168322D01*
X00829118Y00168638D01*
X00830462Y00169536D01*
X0083136Y0017088D01*
X00831676Y00172466D01*
X0083136Y00174052D01*
X00830462Y00175396D01*
X00829118Y00176294D01*
X00827532Y0017661D01*
D02*
G37*
G36*
X00352498Y00176156D02*
X00350912Y0017584D01*
X00349568Y00174942D01*
X0034867Y00173598D01*
X00348354Y00172012D01*
X0034867Y00170426D01*
X00349568Y00169082D01*
X00350912Y00168184D01*
X00352498Y00167868D01*
X00354084Y00168184D01*
X00355428Y00169082D01*
X00356326Y00170426D01*
X00356642Y00172012D01*
X00356326Y00173598D01*
X00355428Y00174942D01*
X00354084Y0017584D01*
X00352498Y00176156D01*
D02*
G37*
G36*
X00377498Y00176102D02*
X00375912Y00175786D01*
X00374568Y00174888D01*
X0037367Y00173544D01*
X00373354Y00171958D01*
X0037367Y00170372D01*
X00374568Y00169028D01*
X00375912Y0016813D01*
X00377498Y00167814D01*
X00379084Y0016813D01*
X00380428Y00169028D01*
X00381326Y00170372D01*
X00381642Y00171958D01*
X00381326Y00173544D01*
X00380428Y00174888D01*
X00379084Y00175786D01*
X00377498Y00176102D01*
D02*
G37*
G36*
X01241968Y00198382D02*
X01238975Y00198087D01*
X01236096Y00197214D01*
X01233443Y00195796D01*
X01231118Y00193888D01*
X0122921Y00191563D01*
X01227792Y0018891D01*
X01226919Y00186031D01*
X01226624Y00183038D01*
X01226919Y00180045D01*
X01227792Y00177166D01*
X0122921Y00174513D01*
X01231118Y00172188D01*
X01233443Y0017028D01*
X01236096Y00168862D01*
X01238975Y00167989D01*
X01241968Y00167694D01*
X01244961Y00167989D01*
X0124784Y00168862D01*
X01250493Y0017028D01*
X01252818Y00172188D01*
X01254726Y00174513D01*
X01256144Y00177166D01*
X01257017Y00180045D01*
X01257312Y00183038D01*
X01257017Y00186031D01*
X01256144Y0018891D01*
X01254726Y00191563D01*
X01252818Y00193888D01*
X01250493Y00195796D01*
X0124784Y00197214D01*
X01244961Y00198087D01*
X01241968Y00198382D01*
D02*
G37*
G36*
X01191168D02*
X01188175Y00198087D01*
X01185296Y00197214D01*
X01182643Y00195796D01*
X01180318Y00193888D01*
X0117841Y00191563D01*
X01176992Y0018891D01*
X01176119Y00186031D01*
X01175824Y00183038D01*
X01176119Y00180045D01*
X01176992Y00177166D01*
X0117841Y00174513D01*
X01180318Y00172188D01*
X01182643Y0017028D01*
X01185296Y00168862D01*
X01188175Y00167989D01*
X01191168Y00167694D01*
X01194162Y00167989D01*
X0119704Y00168862D01*
X01199693Y0017028D01*
X01202018Y00172188D01*
X01203926Y00174513D01*
X01205344Y00177166D01*
X01206217Y00180045D01*
X01206512Y00183038D01*
X01206217Y00186031D01*
X01205344Y0018891D01*
X01203926Y00191563D01*
X01202018Y00193888D01*
X01199693Y00195796D01*
X0119704Y00197214D01*
X01194162Y00198087D01*
X01191168Y00198382D01*
D02*
G37*
G36*
X00960036Y00175002D02*
X0095845Y00174686D01*
X00957106Y00173788D01*
X00956208Y00172444D01*
X00955892Y00170858D01*
X00956208Y00169272D01*
X00957106Y00167928D01*
X0095845Y0016703D01*
X00960036Y00166714D01*
X00961622Y0016703D01*
X00962966Y00167928D01*
X00963864Y00169272D01*
X0096418Y00170858D01*
X00963864Y00172444D01*
X00962966Y00173788D01*
X00961622Y00174686D01*
X00960036Y00175002D01*
D02*
G37*
G36*
X01011482Y001728D02*
X01009896Y00172484D01*
X01008552Y00171586D01*
X01007654Y00170242D01*
X01007338Y00168656D01*
X01007654Y0016707D01*
X01008552Y00165726D01*
X01009896Y00164828D01*
X01011482Y00164512D01*
X01013068Y00164828D01*
X01014412Y00165726D01*
X0101531Y0016707D01*
X01015626Y00168656D01*
X0101531Y00170242D01*
X01014412Y00171586D01*
X01013068Y00172484D01*
X01011482Y001728D01*
D02*
G37*
G36*
X00986482Y00172546D02*
X00984896Y0017223D01*
X00983552Y00171332D01*
X00982654Y00169988D01*
X00982338Y00168402D01*
X00982654Y00166816D01*
X00983552Y00165472D01*
X00984896Y00164574D01*
X00986482Y00164258D01*
X00988068Y00164574D01*
X00989412Y00165472D01*
X0099031Y00166816D01*
X00990626Y00168402D01*
X0099031Y00169988D01*
X00989412Y00171332D01*
X00988068Y0017223D01*
X00986482Y00172546D01*
D02*
G37*
G36*
X00888559Y00172359D02*
X00886974Y00172043D01*
X00885629Y00171145D01*
X00884731Y00169801D01*
X00884416Y00168215D01*
X00884731Y0016663D01*
X00885629Y00165285D01*
X00886974Y00164387D01*
X00888559Y00164072D01*
X00890145Y00164387D01*
X00891489Y00165285D01*
X00892387Y0016663D01*
X00892703Y00168215D01*
X00892387Y00169801D01*
X00891489Y00171145D01*
X00890145Y00172043D01*
X00888559Y00172359D01*
D02*
G37*
G36*
X00425704Y00170644D02*
X00424118Y00170328D01*
X00422774Y0016943D01*
X00421876Y00168086D01*
X0042156Y001665D01*
X00421876Y00164914D01*
X00422774Y0016357D01*
X00424118Y00162672D01*
X00425704Y00162356D01*
X0042729Y00162672D01*
X00428634Y0016357D01*
X00429532Y00164914D01*
X00429848Y001665D01*
X00429532Y00168086D01*
X00428634Y0016943D01*
X0042729Y00170328D01*
X00425704Y00170644D01*
D02*
G37*
G36*
X0025019Y00169244D02*
X00248604Y00168928D01*
X0024726Y0016803D01*
X00246362Y00166686D01*
X00246046Y001651D01*
X00246362Y00163514D01*
X0024726Y0016217D01*
X00248604Y00161272D01*
X0025019Y00160956D01*
X00251776Y00161272D01*
X0025312Y0016217D01*
X00254018Y00163514D01*
X00254334Y001651D01*
X00254018Y00166686D01*
X0025312Y0016803D01*
X00251776Y00168928D01*
X0025019Y00169244D01*
D02*
G37*
G36*
X00165354Y00176864D02*
X00163768Y00176548D01*
X00162424Y0017565D01*
X00161526Y00174306D01*
X0016121Y0017272D01*
X00161334Y00172099D01*
X00161296Y00171049D01*
X00160412Y00170719D01*
X00159704Y00170578D01*
X0015836Y0016968D01*
X00157462Y00168336D01*
X00157146Y0016675D01*
X00157462Y00165164D01*
X00156586Y00164189D01*
X00156148Y00164102D01*
X00154804Y00163204D01*
X00153906Y0016186D01*
X0015359Y00160274D01*
X00153906Y00158688D01*
X00154804Y00157344D01*
X00156148Y00156446D01*
X00157734Y0015613D01*
X0015932Y00156446D01*
X00160664Y00157344D01*
X00161562Y00158688D01*
X00161878Y00160274D01*
X00161562Y0016186D01*
X00162438Y00162835D01*
X00162876Y00162922D01*
X0016422Y0016382D01*
X00165118Y00165164D01*
X00165434Y0016675D01*
X0016531Y00167371D01*
X00165348Y00168421D01*
X00166232Y00168751D01*
X0016694Y00168892D01*
X00168284Y0016979D01*
X00169182Y00171134D01*
X00169498Y0017272D01*
X00169182Y00174306D01*
X00168284Y0017565D01*
X0016694Y00176548D01*
X00165354Y00176864D01*
D02*
G37*
G36*
X00789178Y0017661D02*
X00787592Y00176294D01*
X00786248Y00175396D01*
X0078535Y00174052D01*
X00785034Y00172466D01*
X0078535Y0017088D01*
X00786248Y00169536D01*
X00787592Y00168638D01*
X00788088Y00168539D01*
X00789055Y00167702D01*
X0078895Y00167171D01*
X0078874Y00166116D01*
X00789027Y00164673D01*
X00789009Y00164453D01*
X00788326Y00163337D01*
X00787338Y00163141D01*
X00785994Y00162243D01*
X00785096Y00160898D01*
X0078478Y00159313D01*
X00785096Y00157727D01*
X00785994Y00156383D01*
X00787338Y00155484D01*
X00788924Y00155169D01*
X0079051Y00155484D01*
X00791854Y00156383D01*
X00792752Y00157727D01*
X00793068Y00159313D01*
X00792781Y00160756D01*
X00792799Y00160975D01*
X00793483Y00162091D01*
X0079447Y00162288D01*
X00795814Y00163186D01*
X00796712Y0016453D01*
X00797028Y00166116D01*
X00796712Y00167702D01*
X00795814Y00169046D01*
X0079447Y00169944D01*
X00793974Y00170043D01*
X00793007Y0017088D01*
X00793112Y00171411D01*
X00793322Y00172466D01*
X00793006Y00174052D01*
X00792108Y00175396D01*
X00790764Y00176294D01*
X00789178Y0017661D01*
D02*
G37*
G36*
X01082294Y00162894D02*
X01080708Y00162578D01*
X01079364Y0016168D01*
X01078466Y00160336D01*
X0107815Y0015875D01*
X01078466Y00157164D01*
X01079364Y0015582D01*
X01080708Y00154922D01*
X01082294Y00154606D01*
X0108388Y00154922D01*
X01085224Y0015582D01*
X01086122Y00157164D01*
X01086438Y0015875D01*
X01086122Y00160336D01*
X01085224Y0016168D01*
X0108388Y00162578D01*
X01082294Y00162894D01*
D02*
G37*
G36*
X01026139D02*
X01024553Y00162578D01*
X01023209Y0016168D01*
X01022311Y00160336D01*
X01021995Y0015875D01*
X01022311Y00157164D01*
X01023209Y0015582D01*
X01024553Y00154922D01*
X01026139Y00154606D01*
X01027725Y00154922D01*
X01029069Y0015582D01*
X01029967Y00157164D01*
X01030283Y0015875D01*
X01029967Y00160336D01*
X01029069Y0016168D01*
X01027725Y00162578D01*
X01026139Y00162894D01*
D02*
G37*
G36*
X01216568Y00169005D02*
X01213626Y00168618D01*
X01210884Y00167482D01*
X0120853Y00165676D01*
X01206724Y00163322D01*
X01205588Y0016058D01*
X01205201Y00157638D01*
X01205588Y00154696D01*
X01206724Y00151954D01*
X0120853Y001496D01*
X01210884Y00147794D01*
X01213626Y00146658D01*
X01216568Y00146271D01*
X0121951Y00146658D01*
X01222252Y00147794D01*
X01224606Y001496D01*
X01226412Y00151954D01*
X01227548Y00154696D01*
X01227935Y00157638D01*
X01227548Y0016058D01*
X01226412Y00163322D01*
X01224606Y00165676D01*
X01222252Y00167482D01*
X0121951Y00168618D01*
X01216568Y00169005D01*
D02*
G37*
G36*
X00025146Y00168896D02*
X00021731Y00168446D01*
X00018549Y00167128D01*
X00015817Y00165032D01*
X0001372Y00162299D01*
X00012402Y00159117D01*
X00011952Y00155702D01*
X00012402Y00152287D01*
X0001372Y00149105D01*
X00015817Y00146372D01*
X00018549Y00144276D01*
X00021731Y00142958D01*
X00025146Y00142508D01*
X00028561Y00142958D01*
X00031743Y00144276D01*
X00034476Y00146372D01*
X00036572Y00149105D01*
X0003789Y00152287D01*
X0003834Y00155702D01*
X0003789Y00159117D01*
X00036572Y00162299D01*
X00034476Y00165032D01*
X00031743Y00167128D01*
X00028561Y00168446D01*
X00025146Y00168896D01*
D02*
G37*
G36*
X00731206Y00167112D02*
X00727791Y00166662D01*
X00724609Y00165344D01*
X00721877Y00163248D01*
X0071978Y00160515D01*
X00718462Y00157333D01*
X00718012Y00153918D01*
X00718462Y00150503D01*
X0071978Y00147321D01*
X00721877Y00144588D01*
X00724609Y00142492D01*
X00727791Y00141174D01*
X00731206Y00140724D01*
X00734621Y00141174D01*
X00737803Y00142492D01*
X00740536Y00144588D01*
X00742632Y00147321D01*
X0074395Y00150503D01*
X007444Y00153918D01*
X0074395Y00157333D01*
X00742632Y00160515D01*
X00740536Y00163248D01*
X00737803Y00165344D01*
X00734621Y00166662D01*
X00731206Y00167112D01*
D02*
G37*
G36*
X0054864Y00165764D02*
X00545225Y00165314D01*
X00542043Y00163996D01*
X0053931Y001619D01*
X00537214Y00159167D01*
X00535896Y00155985D01*
X00535446Y0015257D01*
X00535896Y00149155D01*
X00537214Y00145973D01*
X0053931Y0014324D01*
X00542043Y00141144D01*
X00545225Y00139826D01*
X0054864Y00139376D01*
X00552055Y00139826D01*
X00555237Y00141144D01*
X0055797Y0014324D01*
X00560066Y00145973D01*
X00561384Y00149155D01*
X00561834Y0015257D01*
X00561384Y00155985D01*
X00560066Y00159167D01*
X0055797Y001619D01*
X00555237Y00163996D01*
X00552055Y00165314D01*
X0054864Y00165764D01*
D02*
G37*
G36*
X00758444Y0014249D02*
X00756858Y00142174D01*
X00755514Y00141276D01*
X00754616Y00139932D01*
X007543Y00138346D01*
X00754616Y0013676D01*
X00755514Y00135416D01*
X00756858Y00134518D01*
X00758444Y00134202D01*
X0076003Y00134518D01*
X00761374Y00135416D01*
X00762272Y0013676D01*
X00762588Y00138346D01*
X00762272Y00139932D01*
X00761374Y00141276D01*
X0076003Y00142174D01*
X00758444Y0014249D01*
D02*
G37*
G36*
X00125222Y0013978D02*
X00123636Y00139464D01*
X00122292Y00138566D01*
X00121394Y00137222D01*
X00121078Y00135636D01*
X00121394Y0013405D01*
X00122292Y00132706D01*
X00123636Y00131808D01*
X00125222Y00131492D01*
X00126808Y00131808D01*
X00128152Y00132706D01*
X0012905Y0013405D01*
X00129366Y00135636D01*
X0012905Y00137222D01*
X00128152Y00138566D01*
X00126808Y00139464D01*
X00125222Y0013978D01*
D02*
G37*
G36*
X0004Y00192837D02*
X00037972Y0019257D01*
X00036082Y00191787D01*
X00034458Y00190542D01*
X00033213Y00188918D01*
X0003243Y00187028D01*
X00032163Y00185D01*
X0003243Y00182972D01*
X00033213Y00181082D01*
X00034458Y00179458D01*
X00036082Y00178213D01*
X00037972Y0017743D01*
X0004Y00177163D01*
X00042028Y0017743D01*
X00043671Y0017811D01*
X00044394Y00177716D01*
X00044803Y0017729D01*
X00044796Y00177258D01*
Y00132259D01*
X00044993Y00131267D01*
X00045555Y00130427D01*
X00046395Y00129866D01*
X00047386Y00129669D01*
X00087386D01*
X00088377Y00129866D01*
X00089217Y00130427D01*
X00089779Y00131267D01*
X00089976Y00132259D01*
Y00177258D01*
X00089779Y0017825D01*
X00089217Y0017909D01*
X00088377Y00179651D01*
X00087386Y00179848D01*
X00047442D01*
X0004731Y00179985D01*
X00046735Y00181014D01*
X00046787Y00181082D01*
X0004757Y00182972D01*
X00047837Y00185D01*
X0004757Y00187028D01*
X00046787Y00188918D01*
X00045542Y00190542D01*
X00043918Y00191787D01*
X00042028Y0019257D01*
X0004Y00192837D01*
D02*
G37*
G36*
X00559816D02*
X00557788Y0019257D01*
X00555897Y00191787D01*
X00554274Y00190542D01*
X00553029Y00188918D01*
X00552246Y00187028D01*
X00551979Y00185D01*
X00552246Y00182972D01*
X00553029Y00181082D01*
X00554274Y00179458D01*
X00555897Y00178213D01*
X00557788Y0017743D01*
X00559816Y00177163D01*
X00561844Y0017743D01*
X00563735Y00178213D01*
X00564457Y00178768D01*
X00565397Y00177888D01*
X00565251Y0017767D01*
X00565054Y00176679D01*
Y00131679D01*
X00565251Y00130688D01*
X00565813Y00129848D01*
X00566653Y00129286D01*
X00567644Y00129089D01*
X00607644D01*
X00608635Y00129286D01*
X00609475Y00129848D01*
X00610037Y00130688D01*
X00610234Y00131679D01*
Y00176679D01*
X00610037Y0017767D01*
X00609475Y0017851D01*
X00608635Y00179072D01*
X00607644Y00179269D01*
X00567644D01*
X00566663Y00179074D01*
X00566632Y00179094D01*
X00565791Y00180023D01*
X00566603Y00181082D01*
X00567386Y00182972D01*
X00567653Y00185D01*
X00567386Y00187028D01*
X00566603Y00188918D01*
X00565358Y00190542D01*
X00563735Y00191787D01*
X00561844Y0019257D01*
X00559816Y00192837D01*
D02*
G37*
G36*
X0114957Y00131906D02*
X01147984Y0013159D01*
X0114664Y00130692D01*
X01145742Y00129348D01*
X01145426Y00127762D01*
X01145742Y00126176D01*
X0114664Y00124832D01*
X01147984Y00123934D01*
X0114957Y00123618D01*
X01151156Y00123934D01*
X011525Y00124832D01*
X01153398Y00126176D01*
X01153714Y00127762D01*
X01153398Y00129348D01*
X011525Y00130692D01*
X01151156Y0013159D01*
X0114957Y00131906D01*
D02*
G37*
G36*
X00734956Y00131518D02*
X0073337Y00131202D01*
X00732026Y00130304D01*
X00731128Y0012896D01*
X00730812Y00127374D01*
X00731128Y00125788D01*
X00732026Y00124444D01*
X0073337Y00123546D01*
X00734956Y0012323D01*
X00736542Y00123546D01*
X00737886Y00124444D01*
X00738784Y00125788D01*
X007391Y00127374D01*
X00738784Y0012896D01*
X00737886Y00130304D01*
X00736542Y00131202D01*
X00734956Y00131518D01*
D02*
G37*
G36*
X01016054Y00130582D02*
X01014469Y00130266D01*
X01013124Y00129368D01*
X01012226Y00128024D01*
X0101191Y00126438D01*
X01012226Y00124852D01*
X01013124Y00123508D01*
X01014469Y0012261D01*
X01016054Y00122294D01*
X0101764Y0012261D01*
X01018984Y00123508D01*
X01019882Y00124852D01*
X01020198Y00126438D01*
X01019882Y00128024D01*
X01018984Y00129368D01*
X0101764Y00130266D01*
X01016054Y00130582D01*
D02*
G37*
G36*
X00902692Y00129112D02*
X00901106Y00128796D01*
X00899762Y00127898D01*
X00898864Y00126554D01*
X00898548Y00124968D01*
X00898864Y00123382D01*
X00899762Y00122038D01*
X00901106Y0012114D01*
X00902692Y00120824D01*
X00904278Y0012114D01*
X00905622Y00122038D01*
X0090652Y00123382D01*
X00906836Y00124968D01*
X0090652Y00126554D01*
X00905622Y00127898D01*
X00904278Y00128796D01*
X00902692Y00129112D01*
D02*
G37*
G36*
X0002921D02*
X00027624Y00128796D01*
X0002628Y00127898D01*
X00025382Y00126554D01*
X00025066Y00124968D01*
X00025382Y00123382D01*
X0002628Y00122038D01*
X00027624Y0012114D01*
X0002921Y00120824D01*
X00030796Y0012114D01*
X0003214Y00122038D01*
X00033038Y00123382D01*
X00033354Y00124968D01*
X00033038Y00126554D01*
X0003214Y00127898D01*
X00030796Y00128796D01*
X0002921Y00129112D01*
D02*
G37*
G36*
X00375158Y00128858D02*
X00373572Y00128542D01*
X00372228Y00127644D01*
X0037133Y001263D01*
X00371014Y00124714D01*
X0037133Y00123128D01*
X00372228Y00121784D01*
X00373572Y00120886D01*
X00375158Y0012057D01*
X00376744Y00120886D01*
X00378088Y00121784D01*
X00378986Y00123128D01*
X00379302Y00124714D01*
X00378986Y001263D01*
X00378088Y00127644D01*
X00376744Y00128542D01*
X00375158Y00128858D01*
D02*
G37*
G36*
X00786748Y00127952D02*
X00785162Y00127636D01*
X00783818Y00126738D01*
X0078292Y00125394D01*
X00782604Y00123808D01*
X0078292Y00122222D01*
X00783818Y00120878D01*
X00785162Y0011998D01*
X00786748Y00119664D01*
X00788334Y0011998D01*
X00789678Y00120878D01*
X00790576Y00122222D01*
X00790892Y00123808D01*
X00790576Y00125394D01*
X00789678Y00126738D01*
X00788334Y00127636D01*
X00786748Y00127952D01*
D02*
G37*
G36*
X00557786Y00126104D02*
X005562Y00125788D01*
X00554856Y0012489D01*
X00553958Y00123546D01*
X00553642Y0012196D01*
X00553958Y00120374D01*
X00554856Y0011903D01*
X005562Y00118132D01*
X00557786Y00117816D01*
X00559372Y00118132D01*
X00560716Y0011903D01*
X00561614Y00120374D01*
X0056193Y0012196D01*
X00561614Y00123546D01*
X00560716Y0012489D01*
X00559372Y00125788D01*
X00557786Y00126104D01*
D02*
G37*
G36*
X00084834Y00125652D02*
X00083248Y00125337D01*
X00081904Y00124438D01*
X00081006Y00123094D01*
X0008069Y00121509D01*
X00081006Y00119923D01*
X00081904Y00118579D01*
X00083248Y0011768D01*
X00084834Y00117365D01*
X0008642Y0011768D01*
X00087764Y00118579D01*
X00088662Y00119923D01*
X00088978Y00121509D01*
X00088662Y00123094D01*
X00087764Y00124438D01*
X0008642Y00125337D01*
X00084834Y00125652D01*
D02*
G37*
G36*
X00263144Y00125556D02*
X00261558Y0012524D01*
X00260214Y00124342D01*
X00259316Y00122998D01*
X00259Y00121412D01*
X00259316Y00119826D01*
X00260214Y00118482D01*
X00261558Y00117584D01*
X00263144Y00117268D01*
X0026473Y00117584D01*
X00266074Y00118482D01*
X00266972Y00119826D01*
X00267288Y00121412D01*
X00266972Y00122998D01*
X00266074Y00124342D01*
X0026473Y0012524D01*
X00263144Y00125556D01*
D02*
G37*
G36*
X0071209Y00180556D02*
X0067209D01*
X00671099Y00180359D01*
X00670259Y00179797D01*
X00669697Y00178957D01*
X006695Y00177966D01*
Y00132966D01*
X00669697Y00131975D01*
X00670259Y00131135D01*
X00671099Y00130573D01*
X0067209Y00130376D01*
X0071209D01*
X00712846Y00130527D01*
X00713423Y00129926D01*
X00713652Y00129491D01*
X00713213Y00128919D01*
X0071243Y00127028D01*
X00712163Y00125D01*
X0071243Y00122972D01*
X00713213Y00121081D01*
X00714458Y00119458D01*
X00716081Y00118213D01*
X00717972Y0011743D01*
X0072Y00117163D01*
X00722028Y0011743D01*
X00723919Y00118213D01*
X00725542Y00119458D01*
X00726787Y00121081D01*
X0072757Y00122972D01*
X00727837Y00125D01*
X0072757Y00127028D01*
X00726787Y00128919D01*
X00725542Y00130542D01*
X00723919Y00131787D01*
X00722028Y0013257D01*
X0072Y00132837D01*
X00717972Y0013257D01*
X00716081Y00131787D01*
X00715562Y00131389D01*
X00715074Y00131654D01*
X00714526Y00132195D01*
X0071468Y00132966D01*
Y00177966D01*
X00714483Y00178957D01*
X00713921Y00179797D01*
X00713081Y00180359D01*
X0071209Y00180556D01*
D02*
G37*
G36*
X01241968Y00147582D02*
X01238975Y00147287D01*
X01236096Y00146414D01*
X01233443Y00144996D01*
X01231118Y00143088D01*
X0122921Y00140763D01*
X01227792Y0013811D01*
X01226919Y00135232D01*
X01226624Y00132238D01*
X01226919Y00129245D01*
X01227792Y00126366D01*
X0122921Y00123713D01*
X01231118Y00121388D01*
X01233443Y0011948D01*
X01236096Y00118062D01*
X01238975Y00117189D01*
X01241968Y00116894D01*
X01244961Y00117189D01*
X0124784Y00118062D01*
X01250493Y0011948D01*
X01252818Y00121388D01*
X01254726Y00123713D01*
X01256144Y00126366D01*
X01257017Y00129245D01*
X01257312Y00132238D01*
X01257017Y00135232D01*
X01256144Y0013811D01*
X01254726Y00140763D01*
X01252818Y00143088D01*
X01250493Y00144996D01*
X0124784Y00146414D01*
X01244961Y00147287D01*
X01241968Y00147582D01*
D02*
G37*
G36*
X01191168D02*
X01188175Y00147287D01*
X01185296Y00146414D01*
X01182643Y00144996D01*
X01180318Y00143088D01*
X0117841Y00140763D01*
X01176992Y0013811D01*
X01176119Y00135232D01*
X01175824Y00132238D01*
X01176119Y00129245D01*
X01176992Y00126366D01*
X0117841Y00123713D01*
X01180318Y00121388D01*
X01182643Y0011948D01*
X01185296Y00118062D01*
X01188175Y00117189D01*
X01191168Y00116894D01*
X01194162Y00117189D01*
X0119704Y00118062D01*
X01199693Y0011948D01*
X01202018Y00121388D01*
X01203926Y00123713D01*
X01205344Y00126366D01*
X01206217Y00129245D01*
X01206512Y00132238D01*
X01206217Y00135232D01*
X01205344Y0013811D01*
X01203926Y00140763D01*
X01202018Y00143088D01*
X01199693Y00144996D01*
X0119704Y00146414D01*
X01194162Y00147287D01*
X01191168Y00147582D01*
D02*
G37*
G36*
X00758698Y0012454D02*
X00757112Y00124224D01*
X00755768Y00123326D01*
X0075487Y00121982D01*
X00754554Y00120396D01*
X0075487Y0011881D01*
X00755768Y00117466D01*
X00757112Y00116568D01*
X00758698Y00116252D01*
X00760284Y00116568D01*
X00761628Y00117466D01*
X00762526Y0011881D01*
X00762842Y00120396D01*
X00762526Y00121982D01*
X00761628Y00123326D01*
X00760284Y00124224D01*
X00758698Y0012454D01*
D02*
G37*
G36*
X00506476Y00123898D02*
X0050489Y00123582D01*
X00503546Y00122684D01*
X00502648Y0012134D01*
X00502332Y00119754D01*
X00502648Y00118168D01*
X00503546Y00116824D01*
X0050489Y00115926D01*
X00506476Y0011561D01*
X00508062Y00115926D01*
X00509406Y00116824D01*
X00510304Y00118168D01*
X0051062Y00119754D01*
X00510304Y0012134D01*
X00509406Y00122684D01*
X00508062Y00123582D01*
X00506476Y00123898D01*
D02*
G37*
G36*
X00606039Y00123815D02*
X00604453Y00123499D01*
X00603109Y00122601D01*
X00602211Y00121257D01*
X00601895Y00119671D01*
X00602211Y00118086D01*
X00603109Y00116741D01*
X00604453Y00115843D01*
X00606039Y00115528D01*
X00607625Y00115843D01*
X00608969Y00116741D01*
X00609867Y00118086D01*
X00610182Y00119671D01*
X00609867Y00121257D01*
X00608969Y00122601D01*
X00607625Y00123499D01*
X00606039Y00123815D01*
D02*
G37*
G36*
X00352766Y0011972D02*
X0035118Y00119404D01*
X00349836Y00118506D01*
X00348938Y00117162D01*
X00348622Y00115576D01*
X00348938Y0011399D01*
X00349836Y00112646D01*
X0035118Y00111748D01*
X00352766Y00111433D01*
X00354352Y00111748D01*
X00355696Y00112646D01*
X00356594Y0011399D01*
X0035691Y00115576D01*
X00356594Y00117162D01*
X00355696Y00118506D01*
X00354352Y00119404D01*
X00352766Y0011972D01*
D02*
G37*
G36*
X00472654Y00119333D02*
X00471068Y00119018D01*
X00469724Y0011812D01*
X00468826Y00116776D01*
X0046851Y0011519D01*
X00468826Y00113604D01*
X00469724Y0011226D01*
X00471068Y00111362D01*
X00472654Y00111046D01*
X0047424Y00111362D01*
X00475584Y0011226D01*
X00476482Y00113604D01*
X00476798Y0011519D01*
X00476482Y00116776D01*
X00475584Y0011812D01*
X0047424Y00119018D01*
X00472654Y00119333D01*
D02*
G37*
G36*
X00992898Y00118762D02*
X00991312Y00118446D01*
X00989968Y00117548D01*
X0098907Y00116204D01*
X00988754Y00114618D01*
X0098907Y00113032D01*
X00989968Y00111688D01*
X00991312Y0011079D01*
X00992898Y00110474D01*
X00994484Y0011079D01*
X00995828Y00111688D01*
X00996726Y00113032D01*
X00997042Y00114618D01*
X00996726Y00116204D01*
X00995828Y00117548D01*
X00994484Y00118446D01*
X00992898Y00118762D01*
D02*
G37*
G36*
X01113294Y00118704D02*
X01111708Y00118388D01*
X01110364Y0011749D01*
X01109466Y00116146D01*
X0110915Y0011456D01*
X01109466Y00112974D01*
X01110364Y0011163D01*
X01111708Y00110732D01*
X01113294Y00110416D01*
X0111488Y00110732D01*
X01116224Y0011163D01*
X01117122Y00112974D01*
X01117438Y0011456D01*
X01117122Y00116146D01*
X01116224Y0011749D01*
X0111488Y00118388D01*
X01113294Y00118704D01*
D02*
G37*
G36*
X00873172Y00118338D02*
X00871586Y00118022D01*
X00870242Y00117124D01*
X00869344Y0011578D01*
X00869028Y00114194D01*
X00869344Y00112608D01*
X00870242Y00111264D01*
X00871586Y00110366D01*
X00873172Y0011005D01*
X00874758Y00110366D01*
X00876102Y00111264D01*
X00877Y00112608D01*
X00877316Y00114194D01*
X00877Y0011578D01*
X00876102Y00117124D01*
X00874758Y00118022D01*
X00873172Y00118338D01*
D02*
G37*
G36*
X00233326Y00118172D02*
X0023174Y00117856D01*
X00230396Y00116958D01*
X00229498Y00115614D01*
X00229182Y00114028D01*
X00229498Y00112442D01*
X00230396Y00111098D01*
X0023174Y001102D01*
X00233326Y00109884D01*
X00234911Y001102D01*
X00236256Y00111098D01*
X00237154Y00112442D01*
X00237469Y00114028D01*
X00237154Y00115614D01*
X00236256Y00116958D01*
X00234911Y00117856D01*
X00233326Y00118172D01*
D02*
G37*
G36*
X0113875Y0011412D02*
X01135335Y0011367D01*
X01132153Y00112352D01*
X0112942Y00110255D01*
X01127324Y00107523D01*
X01126006Y00104341D01*
X01125556Y00100926D01*
X01126006Y00097511D01*
X01127324Y00094329D01*
X0112942Y00091596D01*
X01130485Y0009078D01*
X01130466Y00090562D01*
X01129106Y00089538D01*
X01128948Y0008957D01*
X01127362Y00089254D01*
X01126018Y00088356D01*
X0112512Y00087012D01*
X01124804Y00085426D01*
X0112512Y0008384D01*
X01126018Y00082496D01*
X01127362Y00081598D01*
X01128948Y00081282D01*
X01130534Y00081598D01*
X01131878Y00082496D01*
X01132776Y0008384D01*
X01133092Y00085426D01*
X01132776Y00087012D01*
X01131986Y00088194D01*
X01132232Y00088773D01*
X01132667Y00089287D01*
X01135335Y00088182D01*
X0113875Y00087732D01*
X01142165Y00088182D01*
X01145347Y000895D01*
X0114808Y00091596D01*
X01150176Y00094329D01*
X01151494Y00097511D01*
X01151944Y00100926D01*
X01151494Y00104341D01*
X01150176Y00107523D01*
X0114808Y00110255D01*
X01145347Y00112352D01*
X01142165Y0011367D01*
X0113875Y0011412D01*
D02*
G37*
G36*
X00779018Y00114286D02*
X00775603Y00113836D01*
X00772421Y00112518D01*
X00769688Y00110421D01*
X00767592Y00107689D01*
X00766274Y00104507D01*
X00765824Y00101092D01*
X00766274Y00097677D01*
X00767592Y00094495D01*
X00769688Y00091763D01*
X00772421Y00089666D01*
X00775603Y00088348D01*
X00779018Y00087898D01*
X00782433Y00088348D01*
X00785615Y00089666D01*
X00788347Y00091763D01*
X00790444Y00094495D01*
X00791762Y00097677D01*
X00792212Y00101092D01*
X00791762Y00104507D01*
X00790444Y00107689D01*
X00788347Y00110421D01*
X00785615Y00112518D01*
X00782433Y00113836D01*
X00779018Y00114286D01*
D02*
G37*
G36*
X01019048Y00114261D02*
X01015633Y00113812D01*
X01012451Y00112493D01*
X01009718Y00110397D01*
X01007622Y00107664D01*
X01006304Y00104482D01*
X01005854Y00101067D01*
X01006304Y00097652D01*
X01007622Y0009447D01*
X01009718Y00091738D01*
X01012451Y00089641D01*
X01015633Y00088323D01*
X01019048Y00087873D01*
X01022463Y00088323D01*
X01025645Y00089641D01*
X01028378Y00091738D01*
X01030474Y0009447D01*
X01031792Y00097652D01*
X01032242Y00101067D01*
X01031792Y00104482D01*
X01030474Y00107664D01*
X01028378Y00110397D01*
X01025645Y00112493D01*
X01022463Y00113812D01*
X01019048Y00114261D01*
D02*
G37*
G36*
X00898821Y00113772D02*
X00895406Y00113322D01*
X00892224Y00112004D01*
X00889491Y00109908D01*
X00887395Y00107175D01*
X00886077Y00103993D01*
X00885627Y00100578D01*
X00886077Y00097163D01*
X00887395Y00093981D01*
X00889491Y00091249D01*
X00892224Y00089152D01*
X00895406Y00087834D01*
X00898821Y00087384D01*
X00902236Y00087834D01*
X00905418Y00089152D01*
X0090815Y00091249D01*
X00910247Y00093981D01*
X00911565Y00097163D01*
X00912015Y00100578D01*
X00911565Y00103993D01*
X00910247Y00107175D01*
X0090815Y00109908D01*
X00905418Y00112004D01*
X00902236Y00113322D01*
X00898821Y00113772D01*
D02*
G37*
G36*
X0116975Y00102837D02*
X01167722Y0010257D01*
X01165832Y00101787D01*
X01164208Y00100542D01*
X01162963Y00098919D01*
X0116218Y00097028D01*
X01161913Y00095D01*
X0116218Y00092972D01*
X01162963Y00091081D01*
X01164208Y00089458D01*
X01165832Y00088213D01*
X01167722Y0008743D01*
X0116975Y00087163D01*
X01171778Y0008743D01*
X01173669Y00088213D01*
X01175292Y00089458D01*
X01176537Y00091081D01*
X0117732Y00092972D01*
X01177587Y00095D01*
X0117732Y00097028D01*
X01176537Y00098919D01*
X01175292Y00100542D01*
X01173669Y00101787D01*
X01171778Y0010257D01*
X0116975Y00102837D01*
D02*
G37*
G36*
X0074975D02*
X00747722Y0010257D01*
X00745832Y00101787D01*
X00744208Y00100542D01*
X00742963Y00098919D01*
X0074218Y00097028D01*
X00741913Y00095D01*
X0074218Y00092972D01*
X00742963Y00091081D01*
X00744208Y00089458D01*
X00745832Y00088213D01*
X00747722Y0008743D01*
X0074975Y00087163D01*
X00751778Y0008743D01*
X00753669Y00088213D01*
X00755292Y00089458D01*
X00756537Y00091081D01*
X0075732Y00092972D01*
X00757587Y00095D01*
X0075732Y00097028D01*
X00756537Y00098919D01*
X00755292Y00100542D01*
X00753669Y00101787D01*
X00751778Y0010257D01*
X0074975Y00102837D01*
D02*
G37*
G36*
X0053D02*
X00527972Y0010257D01*
X00526082Y00101787D01*
X00524458Y00100542D01*
X00523213Y00098919D01*
X0052243Y00097028D01*
X00522163Y00095D01*
X0052243Y00092972D01*
X00523213Y00091081D01*
X00524458Y00089458D01*
X00526082Y00088213D01*
X00527972Y0008743D01*
X0053Y00087163D01*
X00532028Y0008743D01*
X00533918Y00088213D01*
X00535542Y00089458D01*
X00536787Y00091081D01*
X0053757Y00092972D01*
X00537837Y00095D01*
X0053757Y00097028D01*
X00536787Y00098919D01*
X00535542Y00100542D01*
X00533918Y00101787D01*
X00532028Y0010257D01*
X0053Y00102837D01*
D02*
G37*
G36*
X0011D02*
X00107972Y0010257D01*
X00106081Y00101787D01*
X00104458Y00100542D01*
X00103213Y00098919D01*
X0010243Y00097028D01*
X00102163Y00095D01*
X0010243Y00092972D01*
X00103213Y00091081D01*
X00104458Y00089458D01*
X00106081Y00088213D01*
X00107972Y0008743D01*
X0011Y00087163D01*
X00112028Y0008743D01*
X00113919Y00088213D01*
X00115542Y00089458D01*
X00116787Y00091081D01*
X0011757Y00092972D01*
X00117837Y00095D01*
X0011757Y00097028D01*
X00116787Y00098919D01*
X00115542Y00100542D01*
X00113919Y00101787D01*
X00112028Y0010257D01*
X0011Y00102837D01*
D02*
G37*
G36*
X0049917Y00112931D02*
X00495755Y00112481D01*
X00492573Y00111164D01*
X00489841Y00109067D01*
X00487744Y00106334D01*
X00486426Y00103152D01*
X00485976Y00099737D01*
X00486426Y00096322D01*
X00487744Y0009314D01*
X00489841Y00090408D01*
X00492573Y00088311D01*
X00495755Y00086993D01*
X0049917Y00086543D01*
X00502585Y00086993D01*
X00505767Y00088311D01*
X00508499Y00090408D01*
X00510596Y0009314D01*
X00511914Y00096322D01*
X00512364Y00099737D01*
X00511914Y00103152D01*
X00510596Y00106334D01*
X00508499Y00109067D01*
X00505767Y00111164D01*
X00502585Y00112481D01*
X0049917Y00112931D01*
D02*
G37*
G36*
X00378714D02*
X00375299Y00112481D01*
X00372117Y00111164D01*
X00369384Y00109067D01*
X00367288Y00106334D01*
X0036597Y00103152D01*
X0036552Y00099737D01*
X0036597Y00096322D01*
X00367288Y0009314D01*
X00369384Y00090408D01*
X00372117Y00088311D01*
X00375299Y00086993D01*
X00378714Y00086543D01*
X00382129Y00086993D01*
X00385311Y00088311D01*
X00388044Y00090408D01*
X0039014Y0009314D01*
X00391458Y00096322D01*
X00391908Y00099737D01*
X00391458Y00103152D01*
X0039014Y00106334D01*
X00388044Y00109067D01*
X00385311Y00111164D01*
X00382129Y00112481D01*
X00378714Y00112931D01*
D02*
G37*
G36*
X0025787Y00112006D02*
X00254455Y00111556D01*
X00251273Y00110238D01*
X0024854Y00108141D01*
X00246444Y00105409D01*
X00245126Y00102227D01*
X00244676Y00098812D01*
X00245126Y00095397D01*
X00246444Y00092215D01*
X0024854Y00089482D01*
X00251273Y00087386D01*
X00254455Y00086068D01*
X0025787Y00085618D01*
X00261285Y00086068D01*
X00264467Y00087386D01*
X00267199Y00089482D01*
X00269296Y00092215D01*
X00270614Y00095397D01*
X00271064Y00098812D01*
X00270614Y00102227D01*
X00269296Y00105409D01*
X00267199Y00108141D01*
X00264467Y00110238D01*
X00261285Y00111556D01*
X0025787Y00112006D01*
D02*
G37*
G36*
X00139252D02*
X00135837Y00111556D01*
X00132655Y00110238D01*
X00129923Y00108141D01*
X00127826Y00105409D01*
X00126508Y00102227D01*
X00126058Y00098812D01*
X00126508Y00095397D01*
X00127826Y00092215D01*
X00129923Y00089482D01*
X00132655Y00087386D01*
X00135837Y00086068D01*
X00139252Y00085618D01*
X00142667Y00086068D01*
X00145849Y00087386D01*
X00148581Y00089482D01*
X00150678Y00092215D01*
X00151996Y00095397D01*
X00152446Y00098812D01*
X00151996Y00102227D01*
X00150678Y00105409D01*
X00148581Y00108141D01*
X00145849Y00110238D01*
X00142667Y00111556D01*
X00139252Y00112006D01*
D02*
G37*
G36*
X00763374Y00089736D02*
X00761788Y0008942D01*
X00760444Y00088522D01*
X00759546Y00087178D01*
X0075923Y00085592D01*
X00759546Y00084006D01*
X00760444Y00082662D01*
X00761788Y00081764D01*
X00763374Y00081448D01*
X0076496Y00081764D01*
X00766304Y00082662D01*
X00767202Y00084006D01*
X00767518Y00085592D01*
X00767202Y00087178D01*
X00766304Y00088522D01*
X0076496Y0008942D01*
X00763374Y00089736D01*
D02*
G37*
G36*
X01007333Y00089711D02*
X01005748Y00089396D01*
X01004403Y00088497D01*
X01003505Y00087153D01*
X0100319Y00085567D01*
X01003505Y00083982D01*
X01004403Y00082637D01*
X01005748Y00081739D01*
X01007333Y00081424D01*
X01008919Y00081739D01*
X01010263Y00082637D01*
X01011161Y00083982D01*
X01011477Y00085567D01*
X01011161Y00087153D01*
X01010263Y00088497D01*
X01008919Y00089396D01*
X01007333Y00089711D01*
D02*
G37*
G36*
X00486222Y00088381D02*
X00484636Y00088066D01*
X00483292Y00087167D01*
X00482394Y00085823D01*
X00482078Y00084237D01*
X00482394Y00082652D01*
X00483292Y00081307D01*
X00484636Y00080409D01*
X00486222Y00080094D01*
X00487808Y00080409D01*
X00489152Y00081307D01*
X0049005Y00082652D01*
X00490366Y00084237D01*
X0049005Y00085823D01*
X00489152Y00087167D01*
X00487808Y00088066D01*
X00486222Y00088381D01*
D02*
G37*
G36*
X00365766D02*
X0036418Y00088066D01*
X00362836Y00087167D01*
X00361938Y00085823D01*
X00361622Y00084237D01*
X00361938Y00082652D01*
X00362836Y00081307D01*
X0036418Y00080409D01*
X00365766Y00080094D01*
X00367352Y00080409D01*
X00368696Y00081307D01*
X00369594Y00082652D01*
X0036991Y00084237D01*
X00369594Y00085823D01*
X00368696Y00087167D01*
X00367352Y00088066D01*
X00365766Y00088381D01*
D02*
G37*
G36*
X0088728Y00088276D02*
X00885694Y0008796D01*
X0088435Y00087062D01*
X00883452Y00085718D01*
X00883136Y00084132D01*
X00883452Y00082546D01*
X0088435Y00081202D01*
X00885694Y00080304D01*
X0088728Y00079988D01*
X00888866Y00080304D01*
X0089021Y00081202D01*
X00891108Y00082546D01*
X00891424Y00084132D01*
X00891108Y00085718D01*
X0089021Y00087062D01*
X00888866Y0008796D01*
X0088728Y00088276D01*
D02*
G37*
G36*
X00244922Y00087456D02*
X00243336Y0008714D01*
X00241992Y00086242D01*
X00241094Y00084898D01*
X00240778Y00083312D01*
X00241094Y00081726D01*
X00241992Y00080382D01*
X00243336Y00079484D01*
X00244922Y00079168D01*
X00246508Y00079484D01*
X00247852Y00080382D01*
X0024875Y00081726D01*
X00249066Y00083312D01*
X0024875Y00084898D01*
X00247852Y00086242D01*
X00246508Y0008714D01*
X00244922Y00087456D01*
D02*
G37*
G36*
X00126304D02*
X00124718Y0008714D01*
X00123374Y00086242D01*
X00122476Y00084898D01*
X0012216Y00083312D01*
X00122476Y00081726D01*
X00123374Y00080382D01*
X00124718Y00079484D01*
X00126304Y00079168D01*
X0012789Y00079484D01*
X00129234Y00080382D01*
X00130132Y00081726D01*
X00130448Y00083312D01*
X00130132Y00084898D01*
X00129234Y00086242D01*
X0012789Y0008714D01*
X00126304Y00087456D01*
D02*
G37*
G36*
X00342016Y00120718D02*
X00297016D01*
X00296025Y00120521D01*
X00295185Y00119959D01*
X00294623Y00119119D01*
X00294426Y00118128D01*
Y00078128D01*
X00294623Y00077137D01*
X00295185Y00076297D01*
X00296025Y00075736D01*
X00297016Y00075539D01*
X00342016D01*
X00343007Y00075736D01*
X00343847Y00076297D01*
X00344409Y00077137D01*
X00344606Y00078128D01*
Y00118128D01*
X00344409Y00119119D01*
X00343847Y00119959D01*
X00343007Y00120521D01*
X00342016Y00120718D01*
D02*
G37*
G36*
X00982148Y00120444D02*
X00937148D01*
X00936157Y00120247D01*
X00935317Y00119685D01*
X00934755Y00118845D01*
X00934558Y00117854D01*
Y00077854D01*
X00934755Y00076863D01*
X00935317Y00076023D01*
X00936157Y00075461D01*
X00937148Y00075264D01*
X00982148D01*
X00983139Y00075461D01*
X00983979Y00076023D01*
X00984541Y00076863D01*
X00984738Y00077854D01*
Y00117854D01*
X00984541Y00118845D01*
X00983979Y00119685D01*
X00983139Y00120247D01*
X00982148Y00120444D01*
D02*
G37*
G36*
X01102544Y00120386D02*
X01057544D01*
X01056553Y00120189D01*
X01055713Y00119627D01*
X01055151Y00118787D01*
X01054954Y00117796D01*
Y00077796D01*
X01055151Y00076805D01*
X01055713Y00075965D01*
X01056553Y00075403D01*
X01057544Y00075206D01*
X01102544D01*
X01103535Y00075403D01*
X01104375Y00075965D01*
X01104937Y00076805D01*
X01105134Y00077796D01*
Y00117796D01*
X01104937Y00118787D01*
X01104375Y00119627D01*
X01103535Y00120189D01*
X01102544Y00120386D01*
D02*
G37*
G36*
X00461904Y00120332D02*
X00416904D01*
X00415913Y00120134D01*
X00415073Y00119573D01*
X00414511Y00118733D01*
X00414314Y00117742D01*
Y00077742D01*
X00414511Y00076751D01*
X00415073Y00075911D01*
X00415913Y00075349D01*
X00416904Y00075152D01*
X00461904D01*
X00462895Y00075349D01*
X00463735Y00075911D01*
X00464297Y00076751D01*
X00464494Y00077742D01*
Y00117742D01*
X00464297Y00118733D01*
X00463735Y00119573D01*
X00462895Y00120134D01*
X00461904Y00120332D01*
D02*
G37*
G36*
X00862422Y0012002D02*
X00817422D01*
X00816431Y00119823D01*
X00815591Y00119261D01*
X00815029Y00118421D01*
X00814832Y0011743D01*
Y0007743D01*
X00815029Y00076439D01*
X00815591Y00075599D01*
X00816431Y00075037D01*
X00817422Y0007484D01*
X00862422D01*
X00863413Y00075037D01*
X00864253Y00075599D01*
X00864815Y00076439D01*
X00865012Y0007743D01*
Y0011743D01*
X00864815Y00118421D01*
X00864253Y00119261D01*
X00863413Y00119823D01*
X00862422Y0012002D01*
D02*
G37*
G36*
X00222576Y0011917D02*
X00177576D01*
X00176585Y00118973D01*
X00175744Y00118411D01*
X00175183Y00117571D01*
X00174986Y0011658D01*
Y0007658D01*
X00175183Y00075589D01*
X00175744Y00074749D01*
X00176585Y00074187D01*
X00177576Y0007399D01*
X00222576D01*
X00223567Y00074187D01*
X00224407Y00074749D01*
X00224968Y00075589D01*
X00225166Y0007658D01*
Y0011658D01*
X00224968Y00117571D01*
X00224407Y00118411D01*
X00223567Y00118973D01*
X00222576Y0011917D01*
D02*
G37*
G36*
X00972636Y0007254D02*
X0097105Y00072224D01*
X00969706Y00071326D01*
X00968808Y00069982D01*
X00968492Y00068396D01*
X00968808Y0006681D01*
X00969706Y00065466D01*
X0097105Y00064568D01*
X00972636Y00064252D01*
X00974222Y00064568D01*
X00975566Y00065466D01*
X00976464Y0006681D01*
X0097678Y00068396D01*
X00976464Y00069982D01*
X00975566Y00071326D01*
X00974222Y00072224D01*
X00972636Y0007254D01*
D02*
G37*
G36*
X01093712Y00072482D02*
X01092126Y00072166D01*
X01090782Y00071268D01*
X01089884Y00069924D01*
X01089568Y00068338D01*
X01089884Y00066752D01*
X01090782Y00065408D01*
X01092126Y0006451D01*
X01093712Y00064194D01*
X01095298Y0006451D01*
X01096642Y00065408D01*
X0109754Y00066752D01*
X01097856Y00068338D01*
X0109754Y00069924D01*
X01096642Y00071268D01*
X01095298Y00072166D01*
X01093712Y00072482D01*
D02*
G37*
G36*
X00853074Y00072116D02*
X00851488Y000718D01*
X00850144Y00070902D01*
X00849246Y00069558D01*
X0084893Y00067972D01*
X00849246Y00066386D01*
X00850144Y00065042D01*
X00851488Y00064144D01*
X00853074Y00063828D01*
X0085466Y00064144D01*
X00856004Y00065042D01*
X00856902Y00066386D01*
X00857218Y00067972D01*
X00856902Y00069558D01*
X00856004Y00070902D01*
X0085466Y000718D01*
X00853074Y00072116D01*
D02*
G37*
G36*
X00331978Y00071964D02*
X00330392Y00071648D01*
X00329048Y0007075D01*
X0032815Y00069406D01*
X00327834Y0006782D01*
X0032815Y00066234D01*
X00329048Y0006489D01*
X00330392Y00063992D01*
X00331978Y00063677D01*
X00333564Y00063992D01*
X00334908Y0006489D01*
X00335806Y00066234D01*
X00336122Y0006782D01*
X00335806Y00069406D01*
X00334908Y0007075D01*
X00333564Y00071648D01*
X00331978Y00071964D01*
D02*
G37*
G36*
X00451866Y00071577D02*
X0045028Y00071262D01*
X00448936Y00070364D01*
X00448038Y00069019D01*
X00447722Y00067434D01*
X00448038Y00065848D01*
X00448936Y00064504D01*
X0045028Y00063606D01*
X00451866Y0006329D01*
X00453452Y00063606D01*
X00454796Y00064504D01*
X00455694Y00065848D01*
X0045601Y00067434D01*
X00455694Y00069019D01*
X00454796Y00070364D01*
X00453452Y00071262D01*
X00451866Y00071577D01*
D02*
G37*
G36*
X00212538Y00070416D02*
X00210952Y000701D01*
X00209608Y00069202D01*
X0020871Y00067858D01*
X00208394Y00066272D01*
X0020871Y00064686D01*
X00209608Y00063342D01*
X00210952Y00062444D01*
X00212538Y00062128D01*
X00214123Y00062444D01*
X00215468Y00063342D01*
X00216366Y00064686D01*
X00216681Y00066272D01*
X00216366Y00067858D01*
X00215468Y00069202D01*
X00214123Y000701D01*
X00212538Y00070416D01*
D02*
G37*
G36*
X0095891Y0006609D02*
X00955495Y0006564D01*
X00952313Y00064322D01*
X00949581Y00062225D01*
X00947484Y00059493D01*
X00946166Y00056311D01*
X00945716Y00052896D01*
X00946166Y00049481D01*
X00947484Y00046299D01*
X00949581Y00043566D01*
X00952313Y0004147D01*
X00955495Y00040152D01*
X0095891Y00039702D01*
X00962325Y00040152D01*
X00965507Y0004147D01*
X0096824Y00043566D01*
X00970336Y00046299D01*
X00971654Y00049481D01*
X00972104Y00052896D01*
X00971654Y00056311D01*
X00970336Y00059493D01*
X0096824Y00062225D01*
X00965507Y00064322D01*
X00962325Y0006564D01*
X0095891Y0006609D01*
D02*
G37*
G36*
X01079306Y00066032D02*
X01075891Y00065582D01*
X01072709Y00064264D01*
X01069977Y00062168D01*
X0106788Y00059435D01*
X01066562Y00056253D01*
X01066112Y00052838D01*
X01066562Y00049423D01*
X0106788Y00046241D01*
X01069977Y00043509D01*
X01072709Y00041412D01*
X01075891Y00040094D01*
X01079306Y00039644D01*
X01082721Y00040094D01*
X01085903Y00041412D01*
X01088635Y00043509D01*
X01090732Y00046241D01*
X0109205Y00049423D01*
X010925Y00052838D01*
X0109205Y00056253D01*
X01090732Y00059435D01*
X01088635Y00062168D01*
X01085903Y00064264D01*
X01082721Y00065582D01*
X01079306Y00066032D01*
D02*
G37*
G36*
X00839184Y00065666D02*
X00835769Y00065216D01*
X00832587Y00063898D01*
X00829855Y00061801D01*
X00827758Y00059069D01*
X0082644Y00055887D01*
X0082599Y00052472D01*
X0082644Y00049057D01*
X00827758Y00045875D01*
X00829855Y00043142D01*
X00832587Y00041046D01*
X00835769Y00039728D01*
X00839184Y00039278D01*
X00842599Y00039728D01*
X00845781Y00041046D01*
X00848513Y00043142D01*
X0085061Y00045875D01*
X00851928Y00049057D01*
X00852378Y00052472D01*
X00851928Y00055887D01*
X0085061Y00059069D01*
X00848513Y00061801D01*
X00845781Y00063898D01*
X00842599Y00065216D01*
X00839184Y00065666D01*
D02*
G37*
G36*
X00319021Y00063742D02*
X00315606Y00063292D01*
X00312424Y00061975D01*
X00309692Y00059878D01*
X00307595Y00057145D01*
X00306277Y00053963D01*
X00305827Y00050548D01*
X00306277Y00047133D01*
X00307595Y00043951D01*
X00309692Y00041219D01*
X00312424Y00039122D01*
X00315606Y00037804D01*
X00319021Y00037354D01*
X00322436Y00037804D01*
X00325618Y00039122D01*
X0032835Y00041219D01*
X00330447Y00043951D01*
X00331765Y00047133D01*
X00332215Y00050548D01*
X00331765Y00053963D01*
X00330447Y00057145D01*
X0032835Y00059878D01*
X00325618Y00061975D01*
X00322436Y00063292D01*
X00319021Y00063742D01*
D02*
G37*
G36*
X00438658Y00063356D02*
X00435243Y00062906D01*
X00432061Y00061588D01*
X00429328Y00059491D01*
X00427232Y00056759D01*
X00425914Y00053577D01*
X00425464Y00050162D01*
X00425914Y00046747D01*
X00427232Y00043565D01*
X00429328Y00040832D01*
X00432061Y00038736D01*
X00435243Y00037418D01*
X00438658Y00036968D01*
X00442073Y00037418D01*
X00445255Y00038736D01*
X00447988Y00040832D01*
X00450084Y00043565D01*
X00451402Y00046747D01*
X00451852Y00050162D01*
X00451402Y00053577D01*
X00450084Y00056759D01*
X00447988Y00059491D01*
X00445255Y00061588D01*
X00442073Y00062906D01*
X00438658Y00063356D01*
D02*
G37*
G36*
X0122Y00098867D02*
X01215093Y00098481D01*
X01210307Y00097331D01*
X0120576Y00095448D01*
X01201563Y00092876D01*
X0119782Y0008968D01*
X01194624Y00085937D01*
X01192052Y0008174D01*
X01190169Y00077193D01*
X01189019Y00072407D01*
X01188633Y000675D01*
X01189019Y00062593D01*
X01190169Y00057807D01*
X01192052Y0005326D01*
X01194624Y00049063D01*
X0119782Y0004532D01*
X01201563Y00042124D01*
X0120576Y00039552D01*
X01210307Y00037668D01*
X01215093Y00036519D01*
X0122Y00036133D01*
X01224907Y00036519D01*
X01229693Y00037668D01*
X0123424Y00039552D01*
X01238437Y00042124D01*
X0124218Y0004532D01*
X01245376Y00049063D01*
X01247948Y0005326D01*
X01249831Y00057807D01*
X01250981Y00062593D01*
X01251367Y000675D01*
X01250981Y00072407D01*
X01249831Y00077193D01*
X01247948Y0008174D01*
X01245376Y00085937D01*
X0124218Y0008968D01*
X01238437Y00092876D01*
X0123424Y00095448D01*
X01229693Y00097331D01*
X01224907Y00098481D01*
X0122Y00098867D01*
D02*
G37*
G36*
X007D02*
X00695093Y00098481D01*
X00690307Y00097331D01*
X0068576Y00095448D01*
X00681563Y00092876D01*
X0067782Y0008968D01*
X00674624Y00085937D01*
X00672052Y0008174D01*
X00670169Y00077193D01*
X00669019Y00072407D01*
X00668633Y000675D01*
X00669019Y00062593D01*
X00670169Y00057807D01*
X00672052Y0005326D01*
X00674624Y00049063D01*
X0067782Y0004532D01*
X00681563Y00042124D01*
X0068576Y00039552D01*
X00690307Y00037668D01*
X00695093Y00036519D01*
X007Y00036133D01*
X00704907Y00036519D01*
X00709693Y00037668D01*
X0071424Y00039552D01*
X00718437Y00042124D01*
X0072218Y0004532D01*
X00725376Y00049063D01*
X00727948Y0005326D01*
X00729831Y00057807D01*
X00730981Y00062593D01*
X00731367Y000675D01*
X00730981Y00072407D01*
X00729831Y00077193D01*
X00727948Y0008174D01*
X00725376Y00085937D01*
X0072218Y0008968D01*
X00718437Y00092876D01*
X0071424Y00095448D01*
X00709693Y00097331D01*
X00704907Y00098481D01*
X007Y00098867D01*
D02*
G37*
G36*
X0058D02*
X00575093Y00098481D01*
X00570307Y00097331D01*
X0056576Y00095448D01*
X00561563Y00092876D01*
X0055782Y0008968D01*
X00554624Y00085937D01*
X00552052Y0008174D01*
X00550168Y00077193D01*
X0054902Y00072407D01*
X00548633Y000675D01*
X0054902Y00062593D01*
X00550168Y00057807D01*
X00552052Y0005326D01*
X00554624Y00049063D01*
X0055782Y0004532D01*
X00561563Y00042124D01*
X0056576Y00039552D01*
X00570307Y00037668D01*
X00575093Y00036519D01*
X0058Y00036133D01*
X00584907Y00036519D01*
X00589693Y00037668D01*
X0059424Y00039552D01*
X00598437Y00042124D01*
X0060218Y0004532D01*
X00605376Y00049063D01*
X00607948Y0005326D01*
X00609832Y00057807D01*
X0061098Y00062593D01*
X00611367Y000675D01*
X0061098Y00072407D01*
X00609832Y00077193D01*
X00607948Y0008174D01*
X00605376Y00085937D01*
X0060218Y0008968D01*
X00598437Y00092876D01*
X0059424Y00095448D01*
X00589693Y00097331D01*
X00584907Y00098481D01*
X0058Y00098867D01*
D02*
G37*
G36*
X0006D02*
X00055093Y00098481D01*
X00050307Y00097331D01*
X0004576Y00095448D01*
X00041563Y00092876D01*
X0003782Y0008968D01*
X00034624Y00085937D01*
X00032052Y0008174D01*
X00030168Y00077193D01*
X00029019Y00072407D01*
X00028633Y000675D01*
X00029019Y00062593D01*
X00030168Y00057807D01*
X00032052Y0005326D01*
X00034624Y00049063D01*
X0003782Y0004532D01*
X00041563Y00042124D01*
X0004576Y00039552D01*
X00050307Y00037668D01*
X00055093Y00036519D01*
X0006Y00036133D01*
X00064907Y00036519D01*
X00069693Y00037668D01*
X0007424Y00039552D01*
X00078437Y00042124D01*
X0008218Y0004532D01*
X00085376Y00049063D01*
X00087948Y0005326D01*
X00089831Y00057807D01*
X00090981Y00062593D01*
X00091367Y000675D01*
X00090981Y00072407D01*
X00089831Y00077193D01*
X00087948Y0008174D01*
X00085376Y00085937D01*
X0008218Y0008968D01*
X00078437Y00092876D01*
X0007424Y00095448D01*
X00069693Y00097331D01*
X00064907Y00098481D01*
X0006Y00098867D01*
D02*
G37*
G36*
X0019933Y00062194D02*
X00195915Y00061744D01*
X00192733Y00060426D01*
X0019Y0005833D01*
X00187904Y00055597D01*
X00186586Y00052415D01*
X00186136Y00049D01*
X00186586Y00045585D01*
X00187904Y00042403D01*
X0019Y00039671D01*
X00192733Y00037574D01*
X00195915Y00036256D01*
X0019933Y00035806D01*
X00202745Y00036256D01*
X00205927Y00037574D01*
X00208659Y00039671D01*
X00210756Y00042403D01*
X00212074Y00045585D01*
X00212524Y00049D01*
X00212074Y00052415D01*
X00210756Y00055597D01*
X00208659Y0005833D01*
X00205927Y00060426D01*
X00202745Y00061744D01*
X0019933Y00062194D01*
D02*
G37*
G36*
X00466946Y00042041D02*
X0046536Y00041725D01*
X00464016Y00040827D01*
X00463118Y00039483D01*
X00462802Y00037897D01*
X00463118Y00036312D01*
X00464016Y00034967D01*
X0046536Y00034069D01*
X00466946Y00033754D01*
X00468532Y00034069D01*
X00469876Y00034967D01*
X00470774Y00036312D01*
X0047109Y00037897D01*
X00470774Y00039483D01*
X00469876Y00040827D01*
X00468532Y00041725D01*
X00466946Y00042041D01*
D02*
G37*
G36*
X0034649D02*
X00344904Y00041725D01*
X0034356Y00040827D01*
X00342662Y00039483D01*
X00342346Y00037897D01*
X00342662Y00036312D01*
X0034356Y00034967D01*
X00344904Y00034069D01*
X0034649Y00033754D01*
X00348076Y00034069D01*
X0034942Y00034967D01*
X00350318Y00036312D01*
X00350634Y00037897D01*
X00350318Y00039483D01*
X0034942Y00040827D01*
X00348076Y00041725D01*
X0034649Y00042041D01*
D02*
G37*
G36*
X00747054Y00041706D02*
X00745468Y0004139D01*
X00744124Y00040492D01*
X00743226Y00039148D01*
X0074291Y00037562D01*
X00743226Y00035976D01*
X00744124Y00034632D01*
X00745468Y00033734D01*
X00747054Y00033418D01*
X0074864Y00033734D01*
X00749984Y00034632D01*
X00750882Y00035976D01*
X00751198Y00037562D01*
X00750882Y00039148D01*
X00749984Y00040492D01*
X0074864Y0004139D01*
X00747054Y00041706D01*
D02*
G37*
G36*
X00987084Y00041681D02*
X00985498Y00041365D01*
X00984154Y00040467D01*
X00983256Y00039123D01*
X0098294Y00037537D01*
X00983256Y00035951D01*
X00984154Y00034607D01*
X00985498Y00033709D01*
X00987084Y00033394D01*
X0098867Y00033709D01*
X00990014Y00034607D01*
X00990912Y00035951D01*
X00991228Y00037537D01*
X00990912Y00039123D01*
X00990014Y00040467D01*
X0098867Y00041365D01*
X00987084Y00041681D01*
D02*
G37*
G36*
X01106786Y0004154D02*
X011052Y00041224D01*
X01103856Y00040326D01*
X01102958Y00038982D01*
X01102642Y00037396D01*
X01102958Y0003581D01*
X01103856Y00034466D01*
X011052Y00033568D01*
X01106786Y00033252D01*
X01108372Y00033568D01*
X01109716Y00034466D01*
X01110614Y0003581D01*
X0111093Y00037396D01*
X01110614Y00038982D01*
X01109716Y00040326D01*
X01108372Y00041224D01*
X01106786Y0004154D01*
D02*
G37*
G36*
X00866186Y00041228D02*
X008646Y00040912D01*
X00863256Y00040014D01*
X00862358Y0003867D01*
X00862042Y00037084D01*
X00862358Y00035498D01*
X00863256Y00034154D01*
X008646Y00033256D01*
X00866186Y0003294D01*
X00867772Y00033256D01*
X00869116Y00034154D01*
X00870014Y00035498D01*
X0087033Y00037084D01*
X00870014Y0003867D01*
X00869116Y00040014D01*
X00867772Y00040912D01*
X00866186Y00041228D01*
D02*
G37*
G36*
X00225646Y00041116D02*
X0022406Y000408D01*
X00222716Y00039902D01*
X00221818Y00038558D01*
X00221502Y00036972D01*
X00221818Y00035386D01*
X00222716Y00034042D01*
X0022406Y00033144D01*
X00225646Y00032828D01*
X00227232Y00033144D01*
X00228576Y00034042D01*
X00229474Y00035386D01*
X0022979Y00036972D01*
X00229474Y00038558D01*
X00228576Y00039902D01*
X00227232Y000408D01*
X00225646Y00041116D01*
D02*
G37*
G36*
X00107028D02*
X00105442Y000408D01*
X00104098Y00039902D01*
X001032Y00038558D01*
X00102884Y00036972D01*
X001032Y00035386D01*
X00104098Y00034042D01*
X00105442Y00033144D01*
X00107028Y00032828D01*
X00108614Y00033144D01*
X00109958Y00034042D01*
X00110856Y00035386D01*
X00111172Y00036972D01*
X00110856Y00038558D01*
X00109958Y00039902D01*
X00108614Y000408D01*
X00107028Y00041116D01*
D02*
G37*
G36*
X00802804Y00077118D02*
X00757804D01*
X00756813Y00076921D01*
X00755973Y00076359D01*
X00755411Y00075519D01*
X00755214Y00074528D01*
Y00034528D01*
X00755411Y00033537D01*
X00755973Y00032697D01*
X00756813Y00032135D01*
X00757804Y00031938D01*
X00802804D01*
X00803795Y00032135D01*
X00804635Y00032697D01*
X00805197Y00033537D01*
X00805394Y00034528D01*
Y00074528D01*
X00805197Y00075519D01*
X00804635Y00076359D01*
X00803795Y00076921D01*
X00802804Y00077118D01*
D02*
G37*
G36*
X01042834Y00077093D02*
X00997834D01*
X00996843Y00076896D01*
X00996003Y00076335D01*
X00995441Y00075494D01*
X00995244Y00074503D01*
Y00034503D01*
X00995441Y00033512D01*
X00996003Y00032672D01*
X00996843Y00032111D01*
X00997834Y00031913D01*
X01042834D01*
X01043825Y00032111D01*
X01044665Y00032672D01*
X01045227Y00033512D01*
X01045424Y00034503D01*
Y00074503D01*
X01045227Y00075494D01*
X01044665Y00076335D01*
X01043825Y00076896D01*
X01042834Y00077093D01*
D02*
G37*
G36*
X00522696D02*
X00477696D01*
X00476705Y00076896D01*
X00475865Y00076335D01*
X00475303Y00075494D01*
X00475106Y00074503D01*
Y00034503D01*
X00475303Y00033512D01*
X00475865Y00032672D01*
X00476705Y00032111D01*
X00477696Y00031913D01*
X00522696D01*
X00523687Y00032111D01*
X00524527Y00032672D01*
X00525089Y00033512D01*
X00525286Y00034503D01*
Y00074503D01*
X00525089Y00075494D01*
X00524527Y00076335D01*
X00523687Y00076896D01*
X00522696Y00077093D01*
D02*
G37*
G36*
X0040224D02*
X0035724D01*
X00356249Y00076896D01*
X00355409Y00076335D01*
X00354847Y00075494D01*
X0035465Y00074503D01*
Y00034503D01*
X00354847Y00033512D01*
X00355409Y00032672D01*
X00356249Y00032111D01*
X0035724Y00031913D01*
X0040224D01*
X00403231Y00032111D01*
X00404071Y00032672D01*
X00404633Y00033512D01*
X0040483Y00034503D01*
Y00074503D01*
X00404633Y00075494D01*
X00404071Y00076335D01*
X00403231Y00076896D01*
X0040224Y00077093D01*
D02*
G37*
G36*
X01162536Y00076952D02*
X01117536D01*
X01116545Y00076755D01*
X01115705Y00076193D01*
X01115143Y00075353D01*
X01114946Y00074362D01*
Y00034362D01*
X01115143Y00033371D01*
X01115705Y00032531D01*
X01116545Y00031969D01*
X01117536Y00031772D01*
X01162536D01*
X01163527Y00031969D01*
X01164367Y00032531D01*
X01164929Y00033371D01*
X01165126Y00034362D01*
Y00074362D01*
X01164929Y00075353D01*
X01164367Y00076193D01*
X01163527Y00076755D01*
X01162536Y00076952D01*
D02*
G37*
G36*
X00921936Y0007664D02*
X00876936D01*
X00875945Y00076443D01*
X00875105Y00075881D01*
X00874543Y00075041D01*
X00874346Y0007405D01*
Y0003405D01*
X00874543Y00033059D01*
X00875105Y00032219D01*
X00875945Y00031657D01*
X00876936Y0003146D01*
X00921936D01*
X00922927Y00031657D01*
X00923767Y00032219D01*
X00924329Y00033059D01*
X00924526Y0003405D01*
Y0007405D01*
X00924329Y00075041D01*
X00923767Y00075881D01*
X00922927Y00076443D01*
X00921936Y0007664D01*
D02*
G37*
G36*
X00281396Y00076168D02*
X00236396D01*
X00235405Y00075971D01*
X00234565Y00075409D01*
X00234003Y00074569D01*
X00233806Y00073578D01*
Y00033578D01*
X00234003Y00032587D01*
X00234565Y00031747D01*
X00235405Y00031185D01*
X00236396Y00030988D01*
X00281396D01*
X00282387Y00031185D01*
X00283227Y00031747D01*
X00283789Y00032587D01*
X00283986Y00033578D01*
Y00073578D01*
X00283789Y00074569D01*
X00283227Y00075409D01*
X00282387Y00075971D01*
X00281396Y00076168D01*
D02*
G37*
G36*
X00162778D02*
X00117778D01*
X00116787Y00075971D01*
X00115947Y00075409D01*
X00115385Y00074569D01*
X00115188Y00073578D01*
Y00033578D01*
X00115385Y00032587D01*
X00115947Y00031747D01*
X00116787Y00031185D01*
X00117778Y00030988D01*
X00162778D01*
X00163769Y00031185D01*
X00164609Y00031747D01*
X00165171Y00032587D01*
X00165368Y00033578D01*
Y00073578D01*
X00165171Y00074569D01*
X00164609Y00075409D01*
X00163769Y00075971D01*
X00162778Y00076168D01*
D02*
G37*
G36*
X00842934Y0003116D02*
X00841348Y00030844D01*
X00840004Y00029946D01*
X00839106Y00028602D01*
X0083879Y00027016D01*
X00839106Y0002543D01*
X00840004Y00024086D01*
X00841348Y00023188D01*
X00842934Y00022872D01*
X0084452Y00023188D01*
X00845864Y00024086D01*
X00846762Y0002543D01*
X00847078Y00027016D01*
X00846762Y00028602D01*
X00845864Y00029946D01*
X0084452Y00030844D01*
X00842934Y0003116D01*
D02*
G37*
G36*
X00322771Y00030915D02*
X00321185Y00030599D01*
X00319841Y00029701D01*
X00318943Y00028357D01*
X00318627Y00026771D01*
X00318943Y00025185D01*
X00319841Y00023841D01*
X00321185Y00022943D01*
X00322771Y00022627D01*
X00324357Y00022943D01*
X00325701Y00023841D01*
X00326599Y00025185D01*
X00326915Y00026771D01*
X00326599Y00028357D01*
X00325701Y00029701D01*
X00324357Y00030599D01*
X00322771Y00030915D01*
D02*
G37*
G36*
X01083056Y0003056D02*
X0108147Y00030244D01*
X01080126Y00029346D01*
X01079228Y00028002D01*
X01078912Y00026416D01*
X01079228Y0002483D01*
X01080126Y00023486D01*
X0108147Y00022588D01*
X01083056Y00022272D01*
X01084642Y00022588D01*
X01085986Y00023486D01*
X01086884Y0002483D01*
X010872Y00026416D01*
X01086884Y00028002D01*
X01085986Y00029346D01*
X01084642Y00030244D01*
X01083056Y0003056D01*
D02*
G37*
G36*
X0096266D02*
X00961074Y00030244D01*
X0095973Y00029346D01*
X00958832Y00028002D01*
X00958516Y00026416D01*
X00958832Y0002483D01*
X0095973Y00023486D01*
X00961074Y00022588D01*
X0096266Y00022272D01*
X00964246Y00022588D01*
X0096559Y00023486D01*
X00966488Y0002483D01*
X00966804Y00026416D01*
X00966488Y00028002D01*
X0096559Y00029346D01*
X00964246Y00030244D01*
X0096266Y0003056D01*
D02*
G37*
G36*
X0020308Y00029224D02*
X00201494Y00028908D01*
X0020015Y0002801D01*
X00199252Y00026666D01*
X00198936Y0002508D01*
X00199252Y00023494D01*
X0020015Y0002215D01*
X00201494Y00021252D01*
X0020308Y00020936D01*
X00204666Y00021252D01*
X0020601Y0002215D01*
X00206908Y00023494D01*
X00207224Y0002508D01*
X00206908Y00026666D01*
X0020601Y0002801D01*
X00204666Y00028908D01*
X0020308Y00029224D01*
D02*
G37*
G36*
X00442408Y00028842D02*
X00440822Y00028526D01*
X00439478Y00027628D01*
X0043858Y00026284D01*
X00438264Y00024698D01*
X0043858Y00023112D01*
X00439478Y00021768D01*
X00440822Y0002087D01*
X00442408Y00020554D01*
X00443994Y0002087D01*
X00445338Y00021768D01*
X00446236Y00023112D01*
X00446552Y00024698D01*
X00446236Y00026284D01*
X00445338Y00027628D01*
X00443994Y00028526D01*
X00442408Y00028842D01*
D02*
G37*
%LPD*%
G36*
X0064925Y00275686D02*
X0064925Y00274695D01*
X00648257Y00273831D01*
X00647867Y00274091D01*
X00646282Y00274407D01*
X00644696Y00274091D01*
X00643352Y00273193D01*
X00642453Y00271849D01*
X00642138Y00270263D01*
X00642453Y00268678D01*
X00643352Y00267333D01*
X00644696Y00266435D01*
X00646282Y0026612D01*
X00647867Y00266435D01*
X00649212Y00267333D01*
X0065011Y00268678D01*
X00650425Y00270263D01*
X0065011Y00271849D01*
X00649303Y00273057D01*
X00649212Y00273193D01*
X00649137Y00273397D01*
X00649788Y002745D01*
X00650439Y002745D01*
X00713375D01*
Y002555D01*
X0061375D01*
Y00246752D01*
X00612775Y00245952D01*
X00611189Y00245636D01*
X00609845Y00244738D01*
X00608947Y00243394D01*
X00608631Y00241808D01*
X00608947Y00240222D01*
X00609845Y00238878D01*
X00611189Y0023798D01*
X00612775Y00237664D01*
X0061375Y00236864D01*
Y0021D01*
X00598684Y0021D01*
X00598298Y0021127D01*
X00599322Y00211954D01*
X0060022Y00213298D01*
X00600536Y00214884D01*
X0060022Y0021647D01*
X00599322Y00217814D01*
X00597978Y00218712D01*
X00596392Y00219028D01*
X00594806Y00218712D01*
X00593462Y00217814D01*
X00592564Y0021647D01*
X00592248Y00214884D01*
X00592564Y00213298D01*
X00593462Y00211954D01*
X00594486Y0021127D01*
X005941Y0021D01*
X005695Y0021D01*
X005695Y0025975D01*
X0051825Y0025975D01*
Y00269579D01*
X006395D01*
Y00322D01*
X0064925D01*
Y00275686D01*
D02*
G37*
%LPC*%
G36*
X00690534Y00268407D02*
X00688948Y00268091D01*
X00687604Y00267193D01*
X00686705Y00265849D01*
X0068639Y00264263D01*
X00686705Y00262677D01*
X00687604Y00261333D01*
X00688948Y00260435D01*
X00690534Y00260119D01*
X00692119Y00260435D01*
X00693464Y00261333D01*
X00694362Y00262677D01*
X00694677Y00264263D01*
X00694362Y00265849D01*
X00693464Y00267193D01*
X00692119Y00268091D01*
X00690534Y00268407D01*
D02*
G37*
G36*
X00582676Y00266526D02*
X0058109Y0026621D01*
X00579746Y00265312D01*
X00578848Y00263968D01*
X00578532Y00262382D01*
X00578848Y00260796D01*
X00579746Y00259452D01*
X0058109Y00258554D01*
X00582676Y00258238D01*
X00584262Y00258554D01*
X00585606Y00259452D01*
X00586504Y00260796D01*
X0058682Y00262382D01*
X00586504Y00263968D01*
X00585606Y00265312D01*
X00584262Y0026621D01*
X00582676Y00266526D01*
D02*
G37*
G36*
X00608076Y00254588D02*
X0060649Y00254272D01*
X00605146Y00253374D01*
X00604248Y0025203D01*
X00603932Y00250444D01*
X00604248Y00248858D01*
X00605146Y00247514D01*
X0060649Y00246616D01*
X00608076Y002463D01*
X00609662Y00246616D01*
X00611006Y00247514D01*
X00611904Y00248858D01*
X0061222Y00250444D01*
X00611904Y0025203D01*
X00611006Y00253374D01*
X00609662Y00254272D01*
X00608076Y00254588D01*
D02*
G37*
G36*
X005892Y00248967D02*
X00586879Y00248661D01*
X00584717Y00247765D01*
X0058286Y0024634D01*
X00581672Y00244793D01*
X00580925Y00244518D01*
X00580098Y00244574D01*
X00579102Y0024524D01*
X00577516Y00245555D01*
X0057593Y0024524D01*
X00574586Y00244342D01*
X00573688Y00242997D01*
X00573372Y00241412D01*
X00573688Y00239826D01*
X00574586Y00238482D01*
X0057593Y00237583D01*
X00577516Y00237268D01*
X00579102Y00237583D01*
X00579366Y0023776D01*
X00580754Y0023716D01*
X00581435Y00235517D01*
X0058286Y0023366D01*
X00584717Y00232235D01*
X00586879Y00231339D01*
X005892Y00231033D01*
X00591521Y00231339D01*
X00593683Y00232235D01*
X0059554Y0023366D01*
X00596965Y00235517D01*
X00597861Y00237679D01*
X00598167Y0024D01*
X00597861Y00242321D01*
X00596965Y00244483D01*
X0059554Y0024634D01*
X00593683Y00247765D01*
X00591521Y00248661D01*
X005892Y00248967D01*
D02*
G37*
G36*
X0060833Y00222584D02*
X00606744Y00222268D01*
X006054Y0022137D01*
X00604502Y00220026D01*
X00604186Y0021844D01*
X00604502Y00216854D01*
X006054Y0021551D01*
X00606744Y00214612D01*
X0060833Y00214296D01*
X00609916Y00214612D01*
X0061126Y0021551D01*
X00612158Y00216854D01*
X00612474Y0021844D01*
X00612158Y00220026D01*
X0061126Y0022137D01*
X00609916Y00222268D01*
X0060833Y00222584D01*
D02*
G37*
%LPD*%
D54*
X0085233Y0031242D02*
D03*
X00890086Y0023495D02*
D03*
X00756589Y00212286D02*
D03*
X01120902Y00240866D02*
D03*
X00362482Y00325947D02*
D03*
X00992349Y003575D02*
D03*
X0088484Y0037234D02*
D03*
X007205Y00315301D02*
D03*
X00679156Y00319468D02*
D03*
X0052225Y0026332D02*
D03*
X0050375D02*
D03*
X005165Y0026325D02*
D03*
X004975Y0026332D02*
D03*
X0065405Y00318008D02*
D03*
X00926279Y00316776D02*
D03*
X0085775Y0024875D02*
D03*
X00793208Y00235966D02*
D03*
X0112649Y0025451D02*
D03*
X01172494Y00215006D02*
D03*
X01194054Y0025273D02*
D03*
X00997722Y00194377D02*
D03*
X00707644Y00264632D02*
D03*
X00845312Y00224282D02*
D03*
X0063881Y00354114D02*
D03*
X00593598Y0033613D02*
D03*
X00210262Y00220336D02*
D03*
X00219588Y0029718D02*
D03*
X00588296Y00215071D02*
D03*
X00417576Y00217932D02*
D03*
X00533446Y00204516D02*
D03*
X00477577Y00305365D02*
D03*
X00366644Y00197319D02*
D03*
X00445628Y00294782D02*
D03*
X00435102Y00295656D02*
D03*
X00640334Y00185206D02*
D03*
X00644398Y00318008D02*
D03*
X01220182Y0032236D02*
D03*
X0125668Y00219598D02*
D03*
X01061894Y00300054D02*
D03*
X01081024Y00321818D02*
D03*
X00439518Y0017272D02*
D03*
X01067562Y00168656D02*
D03*
X01056386Y0016747D02*
D03*
X00738803Y00017028D02*
D03*
X01120843Y00135756D02*
D03*
X01000447Y00135814D02*
D03*
X01098535Y00016862D02*
D03*
X00978833Y00017003D02*
D03*
X00857935Y0001655D02*
D03*
X01181295Y00525138D02*
D03*
X00772414Y00385318D02*
D03*
X01043241Y00351776D02*
D03*
X00931418Y00179466D02*
D03*
X01048654Y00215138D02*
D03*
X00880721Y0013539D02*
D03*
X00918619Y00405908D02*
D03*
X00941467Y00524252D02*
D03*
X00821036Y00524733D02*
D03*
X00626573Y0011142D02*
D03*
X01061093Y00524878D02*
D03*
X00799457Y00405016D02*
D03*
X01039185D02*
D03*
X00653829Y00425796D02*
D03*
X00412834Y00346802D02*
D03*
X00295872Y00311802D02*
D03*
X00252984Y00361835D02*
D03*
X0026797Y0024638D02*
D03*
X0030034Y0018226D02*
D03*
X00458695Y00017003D02*
D03*
X00217395Y00016078D02*
D03*
X00480905Y00135242D02*
D03*
X00361017Y00135628D02*
D03*
X00138674Y00222719D02*
D03*
X00423904Y00526774D02*
D03*
X00104886Y00113258D02*
D03*
X00241577Y0013408D02*
D03*
X00338239Y0001404D02*
D03*
X00098777Y00016078D02*
D03*
X00144892Y00374396D02*
D03*
X00301065Y00525258D02*
D03*
X00541349Y00524418D02*
D03*
X00103534Y00343393D02*
D03*
X00278563Y00406238D02*
D03*
X00399467Y00405222D02*
D03*
X00180175Y0052444D02*
D03*
X00158159Y00405902D02*
D03*
M02*
