G04*
G04 #@! TF.GenerationSoftware,Altium Limited,Altium Designer,18.1.9 (240)*
G04*
G04 Layer_Color=16711935*
%FSTAX44Y44*%
%MOMM*%
G71*
G01*
G75*
%ADD30R,0.8032X0.7532*%
%ADD31R,1.1032X0.9032*%
%ADD32O,2.3032X0.6532*%
%ADD33R,0.7032X0.8032*%
%ADD34R,0.8032X0.7032*%
%ADD36R,1.1032X1.0032*%
%ADD37R,0.7532X0.8032*%
%ADD39R,1.0032X1.1032*%
%ADD44C,2.2032*%
%ADD45C,3.0032*%
%ADD46C,1.1684*%
%ADD47C,0.7620*%
%ADD48C,1.5032*%
%ADD49C,2.5654*%
%ADD50C,6.2032*%
%ADD72R,1.2032X0.6732*%
%ADD73R,1.2032X2.0032*%
%ADD74R,1.5532X0.6532*%
%ADD75R,1.6532X0.5032*%
%ADD76R,0.7112X2.9972*%
%ADD77R,0.9652X1.3970*%
%ADD78R,1.0160X0.5080*%
%ADD79R,0.6732X1.2032*%
%ADD80R,2.8032X1.3032*%
%ADD81R,0.9032X0.7032*%
%ADD82R,2.0032X1.4532*%
%ADD83R,0.9032X1.1032*%
%ADD84R,1.4532X2.0032*%
D30*
X00940816Y00335618D02*
D03*
Y00346118D02*
D03*
X00309334Y00328522D02*
D03*
Y00339022D02*
D03*
X0031369Y0019795D02*
D03*
Y0020845D02*
D03*
X00246762Y0020464D02*
D03*
Y0019414D02*
D03*
X00875284Y00204132D02*
D03*
Y00193632D02*
D03*
X00944598Y00196867D02*
D03*
Y00207367D02*
D03*
X01120902Y0022193D02*
D03*
Y0023243D02*
D03*
X01080262Y00268054D02*
D03*
Y00278554D02*
D03*
X01216152Y0017509D02*
D03*
Y0018559D02*
D03*
X01212342Y00365844D02*
D03*
Y00376344D02*
D03*
X00961443Y00297302D02*
D03*
Y00307802D02*
D03*
X00861314Y0033037D02*
D03*
Y0031987D02*
D03*
X00872236Y00327998D02*
D03*
Y00338498D02*
D03*
X0097217Y00161882D02*
D03*
Y00172382D02*
D03*
X00879094Y00178732D02*
D03*
Y00168232D02*
D03*
X00243078Y00322918D02*
D03*
Y00333418D02*
D03*
X00336978Y00173778D02*
D03*
Y00163278D02*
D03*
X00246762Y00184713D02*
D03*
Y00174213D02*
D03*
X00233172Y00326814D02*
D03*
Y00316314D02*
D03*
D31*
X01245616Y00328034D02*
D03*
Y00343034D02*
D03*
X01105997Y00512558D02*
D03*
Y00527558D02*
D03*
X01174535Y00028982D02*
D03*
Y00013982D02*
D03*
X00925149Y00123234D02*
D03*
Y00138234D02*
D03*
X00933935Y0002867D02*
D03*
Y0001367D02*
D03*
X00805423Y0012281D02*
D03*
Y0013781D02*
D03*
X01054833Y00029123D02*
D03*
Y00014123D02*
D03*
X01045545Y00123176D02*
D03*
Y00138176D02*
D03*
X00994619Y00418028D02*
D03*
Y00403028D02*
D03*
X00865467Y00512132D02*
D03*
Y00527132D02*
D03*
X00745036Y00512613D02*
D03*
Y00527613D02*
D03*
X00814803Y00029148D02*
D03*
Y00014148D02*
D03*
X00985795Y00512298D02*
D03*
Y00527298D02*
D03*
X00874755Y00417596D02*
D03*
Y00402596D02*
D03*
X01114483Y00417596D02*
D03*
Y00402596D02*
D03*
X00285017Y00138508D02*
D03*
Y00123508D02*
D03*
X00404905Y00138122D02*
D03*
Y00123122D02*
D03*
X00165577Y0013696D02*
D03*
Y0012196D02*
D03*
X00414239Y00014123D02*
D03*
Y00029123D02*
D03*
X00534695Y00014123D02*
D03*
Y00029123D02*
D03*
X00174777Y00013198D02*
D03*
Y00028198D02*
D03*
X00293395Y00013198D02*
D03*
Y00028198D02*
D03*
X00225065Y00528138D02*
D03*
Y00513138D02*
D03*
X00346417Y00527044D02*
D03*
Y00512044D02*
D03*
X00466051Y00526838D02*
D03*
Y00511838D02*
D03*
X00354563Y00403358D02*
D03*
Y00418358D02*
D03*
X00475467Y00402342D02*
D03*
Y00417342D02*
D03*
X00234159Y00403022D02*
D03*
Y00418022D02*
D03*
X00104175Y0052732D02*
D03*
Y0051232D02*
D03*
D32*
X00957139Y00325776D02*
D03*
Y00332276D02*
D03*
Y00338776D02*
D03*
Y00345276D02*
D03*
Y00351776D02*
D03*
Y00358276D02*
D03*
Y00364776D02*
D03*
Y00371276D02*
D03*
X01026139Y00325776D02*
D03*
Y00332276D02*
D03*
Y00338776D02*
D03*
Y00345276D02*
D03*
Y00351776D02*
D03*
Y00358276D02*
D03*
Y00364776D02*
D03*
Y00371276D02*
D03*
X00842934Y00366822D02*
D03*
Y00360322D02*
D03*
Y00353822D02*
D03*
Y00347322D02*
D03*
Y00340822D02*
D03*
Y00334322D02*
D03*
Y00327822D02*
D03*
Y00321322D02*
D03*
X00773934Y00366822D02*
D03*
Y00360322D02*
D03*
Y00353822D02*
D03*
Y00347322D02*
D03*
Y00340822D02*
D03*
Y00334322D02*
D03*
Y00327822D02*
D03*
Y00321322D02*
D03*
X00395732Y00366302D02*
D03*
Y00359802D02*
D03*
Y00353302D02*
D03*
Y00346802D02*
D03*
Y00340302D02*
D03*
Y00333802D02*
D03*
Y00327302D02*
D03*
Y00320802D02*
D03*
X00326732Y00366302D02*
D03*
Y00359802D02*
D03*
Y00353302D02*
D03*
Y00346802D02*
D03*
Y00340302D02*
D03*
Y00333802D02*
D03*
Y00327302D02*
D03*
Y00320802D02*
D03*
X00215554Y00356662D02*
D03*
Y00350162D02*
D03*
Y00343662D02*
D03*
Y00337162D02*
D03*
Y00330662D02*
D03*
Y00324162D02*
D03*
Y00317662D02*
D03*
Y00311162D02*
D03*
X00146554Y00356662D02*
D03*
Y00350162D02*
D03*
Y00343662D02*
D03*
Y00337162D02*
D03*
Y00330662D02*
D03*
Y00324162D02*
D03*
Y00317662D02*
D03*
Y00311162D02*
D03*
X00140458Y00159607D02*
D03*
Y00166106D02*
D03*
Y00172607D02*
D03*
Y00179107D02*
D03*
Y00185606D02*
D03*
Y00192106D02*
D03*
Y00198606D02*
D03*
Y00205107D02*
D03*
X00209458Y00159607D02*
D03*
Y00166106D02*
D03*
Y00172607D02*
D03*
Y00179107D02*
D03*
Y00185606D02*
D03*
Y00192106D02*
D03*
Y00198606D02*
D03*
Y00205107D02*
D03*
X00330644Y00190179D02*
D03*
Y00196679D02*
D03*
Y00203179D02*
D03*
Y00209679D02*
D03*
Y00216179D02*
D03*
Y00222679D02*
D03*
Y00229179D02*
D03*
Y00235679D02*
D03*
X00399644Y00190179D02*
D03*
Y00196679D02*
D03*
Y00203179D02*
D03*
Y00209679D02*
D03*
Y00216179D02*
D03*
Y00222679D02*
D03*
Y00229179D02*
D03*
Y00235679D02*
D03*
X00842996Y00204966D02*
D03*
Y00198466D02*
D03*
Y00191966D02*
D03*
Y00185466D02*
D03*
Y00178966D02*
D03*
Y00172466D02*
D03*
Y00165966D02*
D03*
Y00159466D02*
D03*
X00773996Y00204966D02*
D03*
Y00198466D02*
D03*
Y00191966D02*
D03*
Y00185466D02*
D03*
Y00178966D02*
D03*
Y00172466D02*
D03*
Y00165966D02*
D03*
Y00159466D02*
D03*
X01030722Y00232885D02*
D03*
Y00226385D02*
D03*
Y00219885D02*
D03*
Y00213385D02*
D03*
Y00206885D02*
D03*
Y00200385D02*
D03*
Y00193885D02*
D03*
Y00187385D02*
D03*
X00961722Y00232885D02*
D03*
Y00226385D02*
D03*
Y00219885D02*
D03*
Y00213385D02*
D03*
Y00206885D02*
D03*
Y00200385D02*
D03*
Y00193885D02*
D03*
Y00187385D02*
D03*
X0110042Y00246164D02*
D03*
Y00252664D02*
D03*
Y00259164D02*
D03*
Y00265664D02*
D03*
Y00272164D02*
D03*
Y00278664D02*
D03*
Y00285164D02*
D03*
Y00291664D02*
D03*
X0116942Y00246164D02*
D03*
Y00252664D02*
D03*
Y00259164D02*
D03*
Y00265664D02*
D03*
Y00272164D02*
D03*
Y00278664D02*
D03*
Y00285164D02*
D03*
Y00291664D02*
D03*
D33*
X0075Y003035D02*
D03*
Y002935D02*
D03*
X00759Y003035D02*
D03*
Y002935D02*
D03*
X01232662Y0022064D02*
D03*
Y0021064D02*
D03*
X01234694Y0032771D02*
D03*
Y0033771D02*
D03*
X01116896Y00528106D02*
D03*
Y00518106D02*
D03*
X0115906Y00528106D02*
D03*
Y00518106D02*
D03*
X01163636Y00013434D02*
D03*
Y00023434D02*
D03*
X01121472Y00013434D02*
D03*
Y00023434D02*
D03*
X00861822Y0034171D02*
D03*
Y0035171D02*
D03*
X01043373Y00372148D02*
D03*
Y00362148D02*
D03*
X00936048Y00138782D02*
D03*
Y00128782D02*
D03*
X00978212Y00138782D02*
D03*
Y00128782D02*
D03*
X00923036Y00013122D02*
D03*
Y00023122D02*
D03*
X00880872Y00013122D02*
D03*
Y00023122D02*
D03*
X00816322Y00138358D02*
D03*
Y00128358D02*
D03*
X00858486Y00138358D02*
D03*
Y00128358D02*
D03*
X01043934Y00013575D02*
D03*
Y00023575D02*
D03*
X0100177Y00013575D02*
D03*
Y00023575D02*
D03*
X01056444Y00138724D02*
D03*
Y00128724D02*
D03*
X01098608Y00138724D02*
D03*
Y00128724D02*
D03*
X0098372Y0040248D02*
D03*
Y0041248D02*
D03*
X00941556Y0040248D02*
D03*
Y0041248D02*
D03*
X00876366Y0052768D02*
D03*
Y0051768D02*
D03*
X0091853Y0052768D02*
D03*
Y0051768D02*
D03*
X00755935Y00528161D02*
D03*
Y00518161D02*
D03*
X00798099Y00528161D02*
D03*
Y00518161D02*
D03*
X00803904Y000136D02*
D03*
Y000236D02*
D03*
X0076174Y000136D02*
D03*
Y000236D02*
D03*
X00996694Y00527846D02*
D03*
Y00517846D02*
D03*
X01038858Y00527846D02*
D03*
Y00517846D02*
D03*
X00863856Y00402048D02*
D03*
Y00412048D02*
D03*
X00821692Y00402048D02*
D03*
Y00412048D02*
D03*
X01103584Y00402048D02*
D03*
Y00412048D02*
D03*
X0106142Y00402048D02*
D03*
Y00412048D02*
D03*
X00295916Y00129056D02*
D03*
Y00139056D02*
D03*
X0033808Y00129056D02*
D03*
Y00139056D02*
D03*
X00415804Y0012867D02*
D03*
Y0013867D02*
D03*
X00457968Y0012867D02*
D03*
Y0013867D02*
D03*
X00176476Y00127508D02*
D03*
Y00137508D02*
D03*
X0021864Y00127508D02*
D03*
Y00137508D02*
D03*
X0040334Y00023575D02*
D03*
Y00013575D02*
D03*
X00361176Y00023575D02*
D03*
Y00013575D02*
D03*
X00523796Y00023575D02*
D03*
Y00013575D02*
D03*
X00481632Y00023575D02*
D03*
Y00013575D02*
D03*
X00163878Y0002265D02*
D03*
Y0001265D02*
D03*
X00121714Y0002265D02*
D03*
Y0001265D02*
D03*
X00282496Y0002265D02*
D03*
Y0001265D02*
D03*
X00240332Y0002265D02*
D03*
Y0001265D02*
D03*
X00233408Y00336198D02*
D03*
Y00346198D02*
D03*
X00235964Y00518686D02*
D03*
Y00528686D02*
D03*
X00278128Y00518686D02*
D03*
Y00528686D02*
D03*
X00357316Y00517592D02*
D03*
Y00527592D02*
D03*
X0039948Y00517592D02*
D03*
Y00527592D02*
D03*
X0047695Y00517386D02*
D03*
Y00527386D02*
D03*
X00519114Y00517386D02*
D03*
Y00527386D02*
D03*
X00343664Y0041281D02*
D03*
Y0040281D02*
D03*
X003015Y0041281D02*
D03*
Y0040281D02*
D03*
X00464568Y00411794D02*
D03*
Y00401794D02*
D03*
X00422404Y00411794D02*
D03*
Y00401794D02*
D03*
X0022326Y00412474D02*
D03*
Y00402474D02*
D03*
X00181096Y00412474D02*
D03*
Y00402474D02*
D03*
X00115074Y00517868D02*
D03*
Y00527868D02*
D03*
X00157238Y00517868D02*
D03*
Y00527868D02*
D03*
X01048654Y0023614D02*
D03*
Y0022614D02*
D03*
X00412966Y00367174D02*
D03*
Y00357174D02*
D03*
X00417576Y00238934D02*
D03*
Y00228934D02*
D03*
D34*
X01061894Y00308864D02*
D03*
X01051894D02*
D03*
X00903812Y00381762D02*
D03*
X00913812D02*
D03*
X00939661Y00357416D02*
D03*
X00929661D02*
D03*
X00914066Y00315722D02*
D03*
X00904066D02*
D03*
X00766256Y00374142D02*
D03*
X00776256D02*
D03*
X00430064Y00304182D02*
D03*
X00440064D02*
D03*
X00275517Y00375518D02*
D03*
X00285517D02*
D03*
X00309254Y00352442D02*
D03*
X00299254D02*
D03*
X00283346Y00312056D02*
D03*
X00273346D02*
D03*
X00138876Y00363982D02*
D03*
X00148876D02*
D03*
X0014278Y00212426D02*
D03*
X0013278D02*
D03*
X0027948Y0018161D02*
D03*
X0028948D02*
D03*
X00280017Y0024638D02*
D03*
X00290017D02*
D03*
X00313142Y0022098D02*
D03*
X00303142D02*
D03*
X00430958Y00173482D02*
D03*
X00420958D02*
D03*
X00766318Y00212286D02*
D03*
X00776318D02*
D03*
X00910416Y00244856D02*
D03*
X00920416D02*
D03*
X00919908Y00176022D02*
D03*
X00909908D02*
D03*
X00943276Y0021844D02*
D03*
X00933276D02*
D03*
X01047561Y00167386D02*
D03*
X01037561D02*
D03*
X011735Y00238512D02*
D03*
X011635D02*
D03*
X01211246Y00321818D02*
D03*
X01201246D02*
D03*
X0073975Y0029775D02*
D03*
X0072975D02*
D03*
X00959411Y00378324D02*
D03*
X00949411D02*
D03*
X00875204Y0021524D02*
D03*
X00865204D02*
D03*
X00651162Y00131866D02*
D03*
X00661162D02*
D03*
X00651162Y0017403D02*
D03*
X00661162D02*
D03*
X00630001Y00176521D02*
D03*
X00620001D02*
D03*
X00630001Y00134357D02*
D03*
X00620001D02*
D03*
X0062938Y00409067D02*
D03*
X0061938D02*
D03*
X0062938Y00366903D02*
D03*
X0061938D02*
D03*
X00650861Y00361397D02*
D03*
X00660861D02*
D03*
X00650861Y00403561D02*
D03*
X00660861D02*
D03*
X00236394Y00213039D02*
D03*
X00226394D02*
D03*
X00098314Y00178358D02*
D03*
X00108314D02*
D03*
X00096962Y00408494D02*
D03*
X00106962D02*
D03*
X00096962Y0036633D02*
D03*
X00106962D02*
D03*
X00965628Y00241808D02*
D03*
X00955628D02*
D03*
X00329004Y0037335D02*
D03*
X00319004D02*
D03*
X00335763Y00250444D02*
D03*
X00325763D02*
D03*
X00108314Y00136194D02*
D03*
X00098314D02*
D03*
D36*
X01054333Y00358908D02*
D03*
Y00372908D02*
D03*
X005426Y00288D02*
D03*
Y00274D02*
D03*
X0049075Y00288D02*
D03*
Y00274D02*
D03*
X00423926Y00367934D02*
D03*
Y00353934D02*
D03*
X01243838Y00205598D02*
D03*
Y00219598D02*
D03*
X00430022Y00223886D02*
D03*
Y00237886D02*
D03*
X00168414Y0052705D02*
D03*
Y0051305D02*
D03*
X010611Y00235092D02*
D03*
Y00221092D02*
D03*
X01110296Y00014252D02*
D03*
Y00028252D02*
D03*
X01170236Y00527288D02*
D03*
Y00513288D02*
D03*
X00989388Y00137964D02*
D03*
Y00123964D02*
D03*
X00990594Y00014393D02*
D03*
Y00028393D02*
D03*
X00869696Y0001394D02*
D03*
Y0002794D02*
D03*
X01109784Y00137906D02*
D03*
Y00123906D02*
D03*
X00869662Y0013754D02*
D03*
Y0012354D02*
D03*
X00750564Y00014418D02*
D03*
Y00028418D02*
D03*
X0093038Y00403298D02*
D03*
Y00417298D02*
D03*
X01050034Y00527028D02*
D03*
Y00513028D02*
D03*
X00929706Y00526862D02*
D03*
Y00512862D02*
D03*
X01050244Y00402866D02*
D03*
Y00416866D02*
D03*
X00810516Y00402866D02*
D03*
Y00416866D02*
D03*
X00809275Y00527343D02*
D03*
Y00513343D02*
D03*
X00410656Y00526774D02*
D03*
Y00512774D02*
D03*
X0053029Y00526568D02*
D03*
Y00512568D02*
D03*
X00290324Y00403628D02*
D03*
Y00417628D02*
D03*
X00411228Y00402612D02*
D03*
Y00416612D02*
D03*
X00289304Y00527868D02*
D03*
Y00513868D02*
D03*
X0016992Y00403292D02*
D03*
Y00417292D02*
D03*
X0035Y00028393D02*
D03*
Y00014393D02*
D03*
X00349256Y00124238D02*
D03*
Y00138238D02*
D03*
X00469144Y00123852D02*
D03*
Y00137852D02*
D03*
X00470456Y00028393D02*
D03*
Y00014393D02*
D03*
X00229156Y00027468D02*
D03*
Y00013468D02*
D03*
X00110538Y00027468D02*
D03*
Y00013468D02*
D03*
X00229816Y0012269D02*
D03*
Y0013669D02*
D03*
D37*
X01119672Y00331078D02*
D03*
X01109172D02*
D03*
X00649Y0032766D02*
D03*
X006595D02*
D03*
Y0033725D02*
D03*
X00649D02*
D03*
X0120975Y0026525D02*
D03*
X0122025D02*
D03*
X0120975Y0025275D02*
D03*
X0122025D02*
D03*
X00467077Y00296164D02*
D03*
X00477577D02*
D03*
X01222418Y00354114D02*
D03*
X01211918D02*
D03*
D39*
X00904606Y00304038D02*
D03*
X00918606D02*
D03*
X0027414Y00300626D02*
D03*
X0028814D02*
D03*
X0028002Y0017018D02*
D03*
X0029402D02*
D03*
X00910702Y00165308D02*
D03*
X00924702D02*
D03*
X01196452Y00310388D02*
D03*
X01210452D02*
D03*
X01172494Y0022825D02*
D03*
X01158494D02*
D03*
X0106683Y00319532D02*
D03*
X0105283D02*
D03*
X01047608Y00178642D02*
D03*
X01061608D02*
D03*
X00436006Y00184404D02*
D03*
X00422006D02*
D03*
X00425016Y00315104D02*
D03*
X00439016D02*
D03*
X00785654Y00223208D02*
D03*
X00799654D02*
D03*
X00785592Y00385064D02*
D03*
X00799592D02*
D03*
X0065198Y00185206D02*
D03*
X0066598D02*
D03*
X00629183Y00123181D02*
D03*
X00615183D02*
D03*
X00651679Y00414737D02*
D03*
X00665679D02*
D03*
X00628562Y00355727D02*
D03*
X00614562D02*
D03*
X00158212Y00374904D02*
D03*
X00172212D02*
D03*
X00106144Y00355154D02*
D03*
X00092144D02*
D03*
X00166116Y00223349D02*
D03*
X00152116D02*
D03*
X00093496Y00125019D02*
D03*
X00107496D02*
D03*
D44*
X01213228Y00394752D02*
D03*
X01216568Y00157638D02*
D03*
D45*
X01187828Y00420152D02*
D03*
Y00369352D02*
D03*
X01238628D02*
D03*
Y00420152D02*
D03*
X01191168Y00183038D02*
D03*
Y00132238D02*
D03*
X01241968D02*
D03*
Y00183038D02*
D03*
D46*
X006908Y0024D02*
D03*
X005892D02*
D03*
D47*
X00733085Y00195D02*
D03*
X0072804Y00224506D02*
D03*
X0055Y00422722D02*
D03*
X00711785Y00299265D02*
D03*
X0085233Y0031242D02*
D03*
X00825558Y00313192D02*
D03*
X00890086Y0023495D02*
D03*
X00756589Y00212286D02*
D03*
X01120902Y00240866D02*
D03*
X0103075Y0023575D02*
D03*
X00425016Y00315104D02*
D03*
X00322771Y00026771D02*
D03*
X0020308Y0002508D02*
D03*
X011435Y00269402D02*
D03*
X0114325Y00263833D02*
D03*
X0087163Y0031987D02*
D03*
X009025Y00326795D02*
D03*
Y0033275D02*
D03*
X00362482Y00325947D02*
D03*
X00371518Y00360518D02*
D03*
X0034725Y00352806D02*
D03*
X01001Y0034D02*
D03*
Y00346118D02*
D03*
X0080625Y00354572D02*
D03*
X00806039Y00348017D02*
D03*
X01000549Y00364268D02*
D03*
X00992349Y003575D02*
D03*
X0088484Y0037234D02*
D03*
X0116125Y00209D02*
D03*
X01159307Y00194259D02*
D03*
X0121175Y002285D02*
D03*
X007205Y00315301D02*
D03*
X0072975Y00333D02*
D03*
X00702876Y00333699D02*
D03*
X00679156Y00319468D02*
D03*
X00685038Y00202692D02*
D03*
X00690534Y00264263D02*
D03*
X00646282Y00270263D02*
D03*
X00577516Y00241412D02*
D03*
X00561632Y00231432D02*
D03*
X00560578Y0025527D02*
D03*
X0052225Y0026332D02*
D03*
X0049125Y00295656D02*
D03*
Y003025D02*
D03*
X0050375Y0026332D02*
D03*
X005165Y0026325D02*
D03*
X004975Y0026332D02*
D03*
X00679033Y00238262D02*
D03*
X0061238Y0030075D02*
D03*
X00612376Y00293624D02*
D03*
X00695214Y0029825D02*
D03*
X00749554Y00328054D02*
D03*
X00733085Y00257415D02*
D03*
X007205Y0026063D02*
D03*
X00736346Y00273924D02*
D03*
X0065405Y00318008D02*
D03*
X0106522Y0026278D02*
D03*
X0105968Y00275D02*
D03*
X01052086Y0028075D02*
D03*
X0105925Y002875D02*
D03*
X00961547Y00286514D02*
D03*
X00997524Y0025119D02*
D03*
X00997Y0026D02*
D03*
X01042Y00275D02*
D03*
X0103225Y00280495D02*
D03*
X01023Y0028625D02*
D03*
X0099525Y00274882D02*
D03*
X008835Y0026D02*
D03*
X0095288Y00278962D02*
D03*
X00974137Y0027575D02*
D03*
X0087425Y002655D02*
D03*
X00866186Y0027D02*
D03*
X0094775Y00289789D02*
D03*
X009375Y0030175D02*
D03*
Y003125D02*
D03*
X00951964Y00314941D02*
D03*
X00926279Y00316776D02*
D03*
X0086875Y0029925D02*
D03*
X0087675Y00305D02*
D03*
X0085775Y0024875D02*
D03*
X00820926Y00239D02*
D03*
X00793208Y00235966D02*
D03*
X0098013Y0026063D02*
D03*
X00987Y0026675D02*
D03*
X00832358Y00276352D02*
D03*
X00764Y0022725D02*
D03*
X00769802Y002345D02*
D03*
X0077525Y00240656D02*
D03*
X00735076Y00228824D02*
D03*
X00944326Y00248441D02*
D03*
X0093175Y002485D02*
D03*
X00940131Y00234869D02*
D03*
X00929306Y00235966D02*
D03*
X0120975Y0027425D02*
D03*
X0121Y00280782D02*
D03*
X01197558Y00270763D02*
D03*
X0112649Y0025451D02*
D03*
X011165Y0027225D02*
D03*
X01172494Y00215006D02*
D03*
X0123196Y0026571D02*
D03*
X011975Y0026D02*
D03*
X01196308Y00238512D02*
D03*
X01185558Y00239762D02*
D03*
X01194054Y0025273D02*
D03*
X01231946Y0027871D02*
D03*
X01127637Y0022068D02*
D03*
X01128948Y00085426D02*
D03*
X0114957Y00127762D02*
D03*
X0119634Y00284988D02*
D03*
X01191696Y00291664D02*
D03*
X01191514Y00277876D02*
D03*
X0094615Y00187498D02*
D03*
X00996076Y00185848D02*
D03*
X00979772Y00210245D02*
D03*
X00977392Y00199323D02*
D03*
X00728756Y00235174D02*
D03*
X00721106Y00241046D02*
D03*
X01117632Y00360668D02*
D03*
X01015492Y0021844D02*
D03*
X01015702Y00228092D02*
D03*
X00329608Y0017797D02*
D03*
X00610362Y003302D02*
D03*
X00391922Y00295656D02*
D03*
X00612775Y00241808D02*
D03*
X00383286Y0019685D02*
D03*
X01014364Y00200914D02*
D03*
X00618744Y0033147D02*
D03*
X00386588Y00302337D02*
D03*
X00608076Y00250444D02*
D03*
X00383286Y00203708D02*
D03*
X00997722Y00194377D02*
D03*
X00660081Y00220726D02*
D03*
X00671576Y00203454D02*
D03*
X0072517Y0020701D02*
D03*
X00718566Y00213122D02*
D03*
X00718379Y00202117D02*
D03*
X0072517Y00217678D02*
D03*
X00707644Y00264632D02*
D03*
X00651256Y00212894D02*
D03*
X0069715Y00202692D02*
D03*
X00825558Y00334322D02*
D03*
X00845312Y00224282D02*
D03*
X00827532Y00172466D02*
D03*
X00792884Y00166116D02*
D03*
X00789178Y00172466D02*
D03*
X00788924Y00159313D02*
D03*
X00496062Y00341884D02*
D03*
X00484124Y00324104D02*
D03*
X0048387Y00329692D02*
D03*
X00401113Y00235679D02*
D03*
X00423418Y00296926D02*
D03*
X00394462Y00282956D02*
D03*
X00416814Y00304038D02*
D03*
X00383032Y00282956D02*
D03*
X00348234Y00276606D02*
D03*
X00451104Y0025273D02*
D03*
X00454406Y00223254D02*
D03*
X00451104Y00229754D02*
D03*
X00454406Y00236254D02*
D03*
X00326164Y00276606D02*
D03*
X00594464Y0031735D02*
D03*
X005278Y00354572D02*
D03*
X00199586Y00324162D02*
D03*
X00199516Y00282322D02*
D03*
X00191122Y00172607D02*
D03*
X00585216Y00310134D02*
D03*
X00457868Y00364585D02*
D03*
X00554228Y00249174D02*
D03*
X00157734Y00160274D02*
D03*
X00147066Y00277079D02*
D03*
X00584962Y00296164D02*
D03*
X00458216Y00351536D02*
D03*
X00554228Y00238252D02*
D03*
X00165354Y0017272D02*
D03*
X001651Y00266446D02*
D03*
X00583438Y00303276D02*
D03*
X00559816Y00243586D02*
D03*
X00465398Y00358648D02*
D03*
X0016129Y0016675D02*
D03*
X00155448Y00271526D02*
D03*
X00318008Y00307848D02*
D03*
X0063881Y00354114D02*
D03*
X00593598Y0033613D02*
D03*
X00553466Y00274766D02*
D03*
X00553466Y0032385D02*
D03*
X0055499Y00336804D02*
D03*
X00210262Y00220336D02*
D03*
X00219588Y0029718D02*
D03*
X00174208Y00192571D02*
D03*
X00473456Y00191102D02*
D03*
Y00196596D02*
D03*
X00498602Y00189484D02*
D03*
X00560832Y0022206D02*
D03*
X00554228Y00215646D02*
D03*
X00561086Y00209804D02*
D03*
X00554228Y00203962D02*
D03*
X00344132Y0033271D02*
D03*
X00626872Y00210566D02*
D03*
X003175Y00181102D02*
D03*
X00348694Y00202117D02*
D03*
X00638302Y00202692D02*
D03*
X00658114Y0028321D02*
D03*
X0060833Y0021844D02*
D03*
X00582676Y00262382D02*
D03*
X00596392Y00214884D02*
D03*
X00588296Y00215071D02*
D03*
X00974539Y00337684D02*
D03*
X00417576Y00217932D02*
D03*
X00533446Y00204516D02*
D03*
X00477577Y00305365D02*
D03*
X00629412Y0032766D02*
D03*
X0038227Y00223266D02*
D03*
X00382016Y00230632D02*
D03*
X00366644Y00197319D02*
D03*
X00445628Y00294782D02*
D03*
X00435102Y00295656D02*
D03*
X00640334Y00185206D02*
D03*
X00658368Y00292354D02*
D03*
X00639318Y00332994D02*
D03*
X00644398Y00318008D02*
D03*
X0060198Y00327456D02*
D03*
X01245292Y003163D02*
D03*
X01193546Y00322326D02*
D03*
X01220182Y0032236D02*
D03*
X0125668Y00219598D02*
D03*
X01229614Y00200406D02*
D03*
X01107186Y00221488D02*
D03*
X01106932Y00215646D02*
D03*
X01100021Y00360172D02*
D03*
X01100154Y00365674D02*
D03*
X01061894Y00300054D02*
D03*
X01041146Y00308864D02*
D03*
X01081024Y00321818D02*
D03*
X01020826Y00415798D02*
D03*
X005536Y00358274D02*
D03*
X00734254Y00360862D02*
D03*
X00740854Y00407734D02*
D03*
X00792014Y00457212D02*
D03*
X00789686Y00415544D02*
D03*
X00837244Y00513528D02*
D03*
X00854202Y00472434D02*
D03*
X00912864Y00455688D02*
D03*
X0090678Y00415544D02*
D03*
X01009513Y00364776D02*
D03*
X00955321Y00514831D02*
D03*
X00973248Y00472434D02*
D03*
X011329Y00422916D02*
D03*
X01076972Y00513068D02*
D03*
X01093712Y00471678D02*
D03*
X0052278Y0039797D02*
D03*
X00758698Y00120396D02*
D03*
X00758444Y00138346D02*
D03*
X00439518Y0017272D02*
D03*
X01083056Y00026416D02*
D03*
X01093712Y00068338D02*
D03*
X0112701Y0020118D02*
D03*
X0096266Y00026416D02*
D03*
X00972636Y00068396D02*
D03*
X01007333Y00085567D02*
D03*
X01016054Y00126438D02*
D03*
X01082294Y0015875D02*
D03*
X01067562Y00168656D02*
D03*
X01056386Y0016747D02*
D03*
X01035558Y00177546D02*
D03*
X01026139Y0015875D02*
D03*
X0109601Y00196596D02*
D03*
X01090168Y00204978D02*
D03*
X0088728Y00084132D02*
D03*
X00902692Y00124968D02*
D03*
X00842934Y00027016D02*
D03*
X00853074Y00067972D02*
D03*
X0054483Y00178642D02*
D03*
X00727456Y00179212D02*
D03*
X00763374Y00085592D02*
D03*
X00786748Y00123808D02*
D03*
X00734956Y00127374D02*
D03*
X00557786Y0012196D02*
D03*
X0099568Y00227076D02*
D03*
X00995426Y0022098D02*
D03*
X00174244Y00185928D02*
D03*
X00808228Y00189992D02*
D03*
Y00184404D02*
D03*
X00905256Y00193643D02*
D03*
Y00199323D02*
D03*
X00960036Y00170858D02*
D03*
X00986482Y00168402D02*
D03*
X01011482Y00168656D02*
D03*
X00916828Y00195622D02*
D03*
X0090424Y0021082D02*
D03*
X00888559Y00168215D02*
D03*
X00738803Y00017028D02*
D03*
X00747054Y00037562D02*
D03*
X01120843Y00135756D02*
D03*
X01113294Y0011456D02*
D03*
X01000447Y00135814D02*
D03*
X00992898Y00114618D02*
D03*
X01098535Y00016862D02*
D03*
X01106786Y00037396D02*
D03*
X00978833Y00017003D02*
D03*
X00987084Y00037537D02*
D03*
X00857935Y0001655D02*
D03*
X00866186Y00037084D02*
D03*
X01181295Y00525138D02*
D03*
X0115169Y0045772D02*
D03*
X01173746Y00503942D02*
D03*
X00772414Y00385318D02*
D03*
X01114298Y00341122D02*
D03*
X00987277Y0032341D02*
D03*
X00926135Y00369067D02*
D03*
X00974739Y0030678D02*
D03*
X00999739Y00306954D02*
D03*
X00912013Y00334412D02*
D03*
X00897911Y00350806D02*
D03*
X01009375Y0035778D02*
D03*
X01043241Y00351776D02*
D03*
X00974539Y00348606D02*
D03*
X00931418Y00179466D02*
D03*
X01048654Y00215138D02*
D03*
X01014364Y00194056D02*
D03*
X00880721Y0013539D02*
D03*
X00873172Y00114194D02*
D03*
X00918619Y00405908D02*
D03*
X0092687Y00426442D02*
D03*
X00941467Y00524252D02*
D03*
X00933216Y00503718D02*
D03*
X00821036Y00524733D02*
D03*
X00812785Y00504199D02*
D03*
X00675124Y00188716D02*
D03*
X00626573Y0011142D02*
D03*
X00606039Y00119671D02*
D03*
X01061093Y00524878D02*
D03*
X01031488Y0045746D02*
D03*
X01053544Y00503682D02*
D03*
X00799457Y00405016D02*
D03*
X00807006Y00426212D02*
D03*
X01039185Y00405016D02*
D03*
X01046734Y00426212D02*
D03*
X00653829Y00425796D02*
D03*
X00675025Y00418247D02*
D03*
X00605216Y00352217D02*
D03*
X00263144Y00121412D02*
D03*
X00021396Y00181924D02*
D03*
X0002921Y00124968D02*
D03*
X00125222Y00135636D02*
D03*
X00411226Y00183134D02*
D03*
X00425704Y001665D02*
D03*
X00481632Y00175562D02*
D03*
X00472327Y00216754D02*
D03*
X0046437Y00210254D02*
D03*
X00377498Y00171958D02*
D03*
X00352498Y00172012D02*
D03*
X00375158Y00124714D02*
D03*
X00442408Y00024698D02*
D03*
X00506476Y00119754D02*
D03*
X00378968Y00352806D02*
D03*
X00379106Y00359802D02*
D03*
X00412834Y00346802D02*
D03*
X00347Y00359D02*
D03*
X0035687Y00318436D02*
D03*
X00369332Y0030198D02*
D03*
X00344332Y00301806D02*
D03*
X0027135Y00329869D02*
D03*
X00271504Y00324162D02*
D03*
X00295872Y00311802D02*
D03*
X00233172Y0030607D02*
D03*
X00295729Y00364093D02*
D03*
X00281606Y00329438D02*
D03*
X00252984Y00361835D02*
D03*
X00344132Y00343632D02*
D03*
X00267504Y00345832D02*
D03*
X0036576Y00224282D02*
D03*
Y00230124D02*
D03*
X00364998Y00188642D02*
D03*
X00348694Y00213039D02*
D03*
X00181096Y0034036D02*
D03*
Y00334898D02*
D03*
X0027559Y0018796D02*
D03*
Y00193643D02*
D03*
X0025019Y001651D02*
D03*
X0030226Y0023876D02*
D03*
X0026797Y0024638D02*
D03*
X0028575Y00198416D02*
D03*
X0030034Y0018226D02*
D03*
X00275232Y0021336D02*
D03*
X00458695Y00017003D02*
D03*
X00486222Y00084237D02*
D03*
X00466946Y00037897D02*
D03*
X00365766Y00084237D02*
D03*
X0034649Y00037897D02*
D03*
X00217395Y00016078D02*
D03*
X00244922Y00083312D02*
D03*
X00225646Y00036972D02*
D03*
X00480905Y00135242D02*
D03*
X00451866Y00067434D02*
D03*
X00472654Y0011519D02*
D03*
X00361017Y00135628D02*
D03*
X00331978Y0006782D02*
D03*
X00352766Y00115576D02*
D03*
X00138674Y00222719D02*
D03*
X00423904Y00526774D02*
D03*
X00435932Y00515246D02*
D03*
X00104886Y00113258D02*
D03*
X00084834Y00121509D02*
D03*
X00241577Y0013408D02*
D03*
X00233326Y00114028D02*
D03*
X00212538Y00066272D02*
D03*
X00338239Y0001404D02*
D03*
X00098777Y00016078D02*
D03*
X00126304Y00083312D02*
D03*
X00107028Y00036972D02*
D03*
X0052832Y00334264D02*
D03*
X00020126Y00411794D02*
D03*
X00032512Y00357378D02*
D03*
X00414166Y00503174D02*
D03*
X00286814Y0042672D02*
D03*
X00316908Y00515366D02*
D03*
X005338Y00503222D02*
D03*
X00407718Y00425756D02*
D03*
X00292814Y00503936D02*
D03*
X0016641Y00425954D02*
D03*
X00187198Y0047371D02*
D03*
X00171924Y00503546D02*
D03*
X00082042Y00351644D02*
D03*
X00395158Y00457206D02*
D03*
X00371542Y00418846D02*
D03*
X00196656Y005181D02*
D03*
X00152648Y00457206D02*
D03*
X00131826Y00422402D02*
D03*
X00426214Y00472492D02*
D03*
X00272542Y00458724D02*
D03*
X00252984Y0042291D02*
D03*
X00511744Y00457D02*
D03*
X00492954Y00422196D02*
D03*
X00306748Y00473964D02*
D03*
X00144892Y00374396D02*
D03*
X00301065Y00525258D02*
D03*
X00541349Y00524418D02*
D03*
X00103534Y00343393D02*
D03*
X00278563Y00406238D02*
D03*
X00399467Y00405222D02*
D03*
X00180175Y0052444D02*
D03*
X00158159Y00405902D02*
D03*
D48*
X00559816Y00415544D02*
D03*
X007205Y00355D02*
D03*
X0072Y00125D02*
D03*
X00559816Y00185D02*
D03*
X0004Y00415D02*
D03*
Y00185D02*
D03*
X005305Y00445D02*
D03*
X001105D02*
D03*
X0117025D02*
D03*
X0075025D02*
D03*
X0116975Y00095D02*
D03*
X0074975D02*
D03*
X0011D02*
D03*
X0053D02*
D03*
D49*
X0095891Y00052896D02*
D03*
X00959071Y00488001D02*
D03*
X00380178Y00441706D02*
D03*
X00378714Y00099737D02*
D03*
X01019048Y00101067D02*
D03*
X01019556Y0044196D02*
D03*
X00499812Y004415D02*
D03*
X00438658Y00050162D02*
D03*
X00898821Y00100578D02*
D03*
X00901252Y00440188D02*
D03*
X00320802Y00488696D02*
D03*
X00319021Y00050548D02*
D03*
X01079306Y00052838D02*
D03*
X01080722Y00487934D02*
D03*
X00439682Y00489286D02*
D03*
X0049917Y00099737D02*
D03*
X00839184Y00052472D02*
D03*
X00730504Y00386588D02*
D03*
X00023876Y00385572D02*
D03*
X0025787Y00098812D02*
D03*
X00731206Y00153918D02*
D03*
X00840994Y00487934D02*
D03*
X00258826Y004428D02*
D03*
X00025146Y00155702D02*
D03*
X0113875Y00100926D02*
D03*
X0054864Y0015257D02*
D03*
X00780348Y00441712D02*
D03*
X00200406Y00490982D02*
D03*
X00139252Y00098812D02*
D03*
X01139758Y0044222D02*
D03*
X00779018Y00101092D02*
D03*
X0054985Y0038472D02*
D03*
X001397Y00441706D02*
D03*
X0019933Y00049D02*
D03*
D50*
X007Y000675D02*
D03*
Y004725D02*
D03*
X0058D02*
D03*
Y000675D02*
D03*
X0006D02*
D03*
Y004725D02*
D03*
X0122Y000675D02*
D03*
Y004725D02*
D03*
D72*
X01055565Y00337858D02*
D03*
X01073565Y00344358D02*
D03*
Y00331358D02*
D03*
X01055565Y00344358D02*
D03*
Y00331358D02*
D03*
X00913071Y0036584D02*
D03*
X00895071Y0035934D02*
D03*
Y0037234D02*
D03*
X00913071Y0035934D02*
D03*
Y0037234D02*
D03*
X00425158Y00332884D02*
D03*
X00443158Y00339384D02*
D03*
Y00326384D02*
D03*
X00425158Y00339384D02*
D03*
Y00326384D02*
D03*
X00282664Y00360866D02*
D03*
X00264664Y00354366D02*
D03*
Y00367366D02*
D03*
X00282664Y00354366D02*
D03*
Y00367366D02*
D03*
X0028829Y0023764D02*
D03*
Y0022464D02*
D03*
X0027029Y0023764D02*
D03*
Y0022464D02*
D03*
X0028829Y0023114D02*
D03*
X00421386Y00201168D02*
D03*
X00439386Y00207668D02*
D03*
Y00194668D02*
D03*
X00421386D02*
D03*
Y00207668D02*
D03*
X00918938Y0022845D02*
D03*
X00900938Y0022195D02*
D03*
Y0023495D02*
D03*
X00918938Y0022195D02*
D03*
Y0023495D02*
D03*
X01052464Y00198374D02*
D03*
X01070464Y00204874D02*
D03*
Y00191874D02*
D03*
X01052464Y00204874D02*
D03*
Y00191874D02*
D03*
X01202182Y00337578D02*
D03*
X01220182Y00344078D02*
D03*
Y00331078D02*
D03*
X01202182Y00344078D02*
D03*
Y00331078D02*
D03*
X01147122Y00529352D02*
D03*
Y00516352D02*
D03*
X01129122Y00529352D02*
D03*
Y00516352D02*
D03*
X01147122Y00522852D02*
D03*
X0113341Y00012188D02*
D03*
Y00025188D02*
D03*
X0115141Y00012188D02*
D03*
Y00025188D02*
D03*
X0113341Y00018688D02*
D03*
X00786161Y00522907D02*
D03*
X00768161Y00516407D02*
D03*
Y00529407D02*
D03*
X00786161Y00516407D02*
D03*
Y00529407D02*
D03*
X00966274Y00140028D02*
D03*
Y00127028D02*
D03*
X00948274Y00140028D02*
D03*
Y00127028D02*
D03*
X00966274Y00133528D02*
D03*
X0089281Y00011876D02*
D03*
Y00024876D02*
D03*
X0091081Y00011876D02*
D03*
Y00024876D02*
D03*
X0089281Y00018376D02*
D03*
X00846548Y00139604D02*
D03*
Y00126604D02*
D03*
X00828548Y00139604D02*
D03*
Y00126604D02*
D03*
X00846548Y00133104D02*
D03*
X01013708Y00012329D02*
D03*
Y00025329D02*
D03*
X01031708Y00012329D02*
D03*
Y00025329D02*
D03*
X01013708Y00018829D02*
D03*
X0108667Y0013997D02*
D03*
Y0012697D02*
D03*
X0106867Y0013997D02*
D03*
Y0012697D02*
D03*
X0108667Y0013347D02*
D03*
X00953494Y00401234D02*
D03*
Y00414234D02*
D03*
X00971494Y00401234D02*
D03*
Y00414234D02*
D03*
X00953494Y00407734D02*
D03*
X00906592Y00528926D02*
D03*
Y00515926D02*
D03*
X00888592Y00528926D02*
D03*
Y00515926D02*
D03*
X00906592Y00522426D02*
D03*
X00773678Y00012354D02*
D03*
Y00025354D02*
D03*
X00791678Y00012354D02*
D03*
Y00025354D02*
D03*
X00773678Y00018854D02*
D03*
X0102692Y00529092D02*
D03*
Y00516092D02*
D03*
X0100892Y00529092D02*
D03*
Y00516092D02*
D03*
X0102692Y00522592D02*
D03*
X0083363Y00400802D02*
D03*
Y00413802D02*
D03*
X0085163Y00400802D02*
D03*
Y00413802D02*
D03*
X0083363Y00407302D02*
D03*
X01073358Y00400802D02*
D03*
Y00413802D02*
D03*
X01091358Y00400802D02*
D03*
Y00413802D02*
D03*
X01073358Y00407302D02*
D03*
X00326142Y00133802D02*
D03*
X00308142Y00127302D02*
D03*
Y00140302D02*
D03*
X00326142Y00127302D02*
D03*
Y00140302D02*
D03*
X0044603Y00133416D02*
D03*
X0042803Y00126916D02*
D03*
Y00139916D02*
D03*
X0044603Y00126916D02*
D03*
Y00139916D02*
D03*
X00206702Y00132254D02*
D03*
X00188702Y00125754D02*
D03*
Y00138754D02*
D03*
X00206702Y00125754D02*
D03*
Y00138754D02*
D03*
X00373114Y00018829D02*
D03*
X00391114Y00025329D02*
D03*
Y00012329D02*
D03*
X00373114Y00025329D02*
D03*
Y00012329D02*
D03*
X0049357Y00018829D02*
D03*
X0051157Y00025329D02*
D03*
Y00012329D02*
D03*
X0049357Y00025329D02*
D03*
Y00012329D02*
D03*
X00133652Y00017904D02*
D03*
X00151652Y00024404D02*
D03*
Y00011404D02*
D03*
X00133652Y00024404D02*
D03*
Y00011404D02*
D03*
X0025227Y00017904D02*
D03*
X0027027Y00024404D02*
D03*
Y00011404D02*
D03*
X0025227Y00024404D02*
D03*
Y00011404D02*
D03*
X0026619Y00523432D02*
D03*
X0024819Y00516932D02*
D03*
Y00529932D02*
D03*
X0026619Y00516932D02*
D03*
Y00529932D02*
D03*
X00387542Y00522338D02*
D03*
X00369542Y00515838D02*
D03*
Y00528838D02*
D03*
X00387542Y00515838D02*
D03*
Y00528838D02*
D03*
X00507176Y00522132D02*
D03*
X00489176Y00515632D02*
D03*
Y00528632D02*
D03*
X00507176Y00515632D02*
D03*
Y00528632D02*
D03*
X00313438Y00408064D02*
D03*
X00331438Y00414564D02*
D03*
Y00401564D02*
D03*
X00313438Y00414564D02*
D03*
Y00401564D02*
D03*
X00434342Y00407048D02*
D03*
X00452342Y00413548D02*
D03*
Y00400548D02*
D03*
X00434342Y00413548D02*
D03*
Y00400548D02*
D03*
X00193034Y00407728D02*
D03*
X00211034Y00414228D02*
D03*
Y00401228D02*
D03*
X00193034Y00414228D02*
D03*
Y00401228D02*
D03*
X001453Y00522614D02*
D03*
X001273Y00516114D02*
D03*
Y00529114D02*
D03*
X001453Y00516114D02*
D03*
Y00529114D02*
D03*
D73*
X00974739Y00302886D02*
D03*
X00999739D02*
D03*
X00344332Y00297912D02*
D03*
X00369332D02*
D03*
X00352492Y00167386D02*
D03*
X00377492D02*
D03*
X00986482Y00165608D02*
D03*
X01011482D02*
D03*
D74*
X00926279Y0034624D02*
D03*
Y0033974D02*
D03*
Y0033324D02*
D03*
Y0032674D02*
D03*
X00886779Y0034624D02*
D03*
Y0033974D02*
D03*
Y0033324D02*
D03*
Y0032674D02*
D03*
X00295872Y00341266D02*
D03*
Y00334766D02*
D03*
Y00328266D02*
D03*
Y00321766D02*
D03*
X00256372Y00341266D02*
D03*
Y00334766D02*
D03*
Y00328266D02*
D03*
Y00321766D02*
D03*
X0026084Y0019162D02*
D03*
Y0019812D02*
D03*
Y0020462D02*
D03*
Y0021112D02*
D03*
X0030034Y0019162D02*
D03*
Y0019812D02*
D03*
Y0020462D02*
D03*
Y0021112D02*
D03*
X00929516Y00208326D02*
D03*
Y00201826D02*
D03*
Y00195326D02*
D03*
Y00188826D02*
D03*
X00890016Y00208326D02*
D03*
Y00201826D02*
D03*
Y00195326D02*
D03*
Y00188826D02*
D03*
D75*
X00691757Y003055D02*
D03*
Y003105D02*
D03*
Y003155D02*
D03*
Y003205D02*
D03*
Y003255D02*
D03*
X00735757Y003055D02*
D03*
Y003105D02*
D03*
Y003155D02*
D03*
Y003205D02*
D03*
Y003255D02*
D03*
D76*
X0058285Y0021968D02*
D03*
Y0026032D02*
D03*
X0059555Y0021968D02*
D03*
Y0026032D02*
D03*
X0060825Y0021968D02*
D03*
Y0026032D02*
D03*
X0062095Y0021968D02*
D03*
Y0026032D02*
D03*
X0063365Y0021968D02*
D03*
Y0026032D02*
D03*
X0064635Y0021968D02*
D03*
Y0026032D02*
D03*
X0065905Y0021968D02*
D03*
Y0026032D02*
D03*
X0067175Y0021968D02*
D03*
Y0026032D02*
D03*
X0068445Y0021968D02*
D03*
Y0026032D02*
D03*
X0069715Y0021968D02*
D03*
Y0026032D02*
D03*
D77*
X0051643Y00281896D02*
D03*
D78*
X0052786Y00275292D02*
D03*
Y00281896D02*
D03*
Y002885D02*
D03*
X00505D02*
D03*
Y00281896D02*
D03*
Y00275292D02*
D03*
D79*
X01212746Y00200886D02*
D03*
X01206246Y00218886D02*
D03*
X01219246D02*
D03*
X01206246Y00200886D02*
D03*
X01219246D02*
D03*
X00649916Y00162092D02*
D03*
X00662916D02*
D03*
X00649916Y00144092D02*
D03*
X00662916D02*
D03*
X00656416Y00162092D02*
D03*
X00631247Y00146295D02*
D03*
X00618247D02*
D03*
X00631247Y00164295D02*
D03*
X00618247D02*
D03*
X00624747Y00146295D02*
D03*
X00630626Y00378841D02*
D03*
X00617626D02*
D03*
X00630626Y00396841D02*
D03*
X00617626D02*
D03*
X00624126Y00378841D02*
D03*
X00649615Y00391623D02*
D03*
X00662615D02*
D03*
X00649615Y00373623D02*
D03*
X00662615D02*
D03*
X00656115Y00391623D02*
D03*
X00101708Y00378268D02*
D03*
X00095208Y00396268D02*
D03*
X00108208D02*
D03*
X00095208Y00378268D02*
D03*
X00108208D02*
D03*
X0010956Y00148132D02*
D03*
X0009656D02*
D03*
X0010956Y00166133D02*
D03*
X0009656D02*
D03*
X0010306Y00148132D02*
D03*
D80*
X01175258Y00340398D02*
D03*
Y00313398D02*
D03*
D81*
X0095516Y00068896D02*
D03*
X0096266Y00036896D02*
D03*
X00962821Y00472001D02*
D03*
X00955321Y00504001D02*
D03*
X00383928Y00425706D02*
D03*
X00376428Y00457706D02*
D03*
X00374964Y00115737D02*
D03*
X00382464Y00083737D02*
D03*
X01015298Y00117067D02*
D03*
X01022798Y00085067D02*
D03*
X01023306Y0042596D02*
D03*
X01015806Y0045796D02*
D03*
X00503562Y004255D02*
D03*
X00496062Y004575D02*
D03*
X00434908Y00066162D02*
D03*
X00442408Y00034162D02*
D03*
X00895071Y00116578D02*
D03*
X00902571Y00084578D02*
D03*
X00905002Y00424188D02*
D03*
X00897502Y00456188D02*
D03*
X00324552Y00472696D02*
D03*
X00317052Y00504696D02*
D03*
X00315271Y00066548D02*
D03*
X00322771Y00034548D02*
D03*
X01075556Y00068838D02*
D03*
X01083056Y00036838D02*
D03*
X01084472Y00471934D02*
D03*
X01076972Y00503934D02*
D03*
X00443432Y00473286D02*
D03*
X00435932Y00505286D02*
D03*
X0049542Y00115737D02*
D03*
X0050292Y00083737D02*
D03*
X00835434Y00068472D02*
D03*
X00842934Y00036472D02*
D03*
X00726754Y00402588D02*
D03*
X00734254Y00370588D02*
D03*
X00027626Y00369572D02*
D03*
X00020126Y00401572D02*
D03*
X0025412Y00114812D02*
D03*
X0026162Y00082812D02*
D03*
X00734956Y00137918D02*
D03*
X00727456Y00169918D02*
D03*
X00844744Y00471934D02*
D03*
X00837244Y00503934D02*
D03*
X00262576Y004268D02*
D03*
X00255076Y004588D02*
D03*
X00028896Y00139702D02*
D03*
X00021396Y00171702D02*
D03*
X01135Y00116926D02*
D03*
X011425Y00084926D02*
D03*
X0055239Y0013657D02*
D03*
X0054489Y0016857D02*
D03*
X00784098Y00425712D02*
D03*
X00776598Y00457712D02*
D03*
X00204156Y00474982D02*
D03*
X00196656Y00506982D02*
D03*
X00135502Y00114812D02*
D03*
X00143002Y00082812D02*
D03*
X01143508Y0042622D02*
D03*
X01136008Y0045822D02*
D03*
X00775268Y00117092D02*
D03*
X00782768Y00085092D02*
D03*
X005461Y0040072D02*
D03*
X005536Y0036872D02*
D03*
X0014345Y00425706D02*
D03*
X0013595Y00457706D02*
D03*
X0019558Y00065D02*
D03*
X0020308Y00033D02*
D03*
D82*
X00691789Y00351747D02*
D03*
Y00418247D02*
D03*
X0069209Y00188716D02*
D03*
Y00122216D02*
D03*
X00587644Y00120929D02*
D03*
Y00187429D02*
D03*
X00588452Y00352217D02*
D03*
Y00418717D02*
D03*
X00067386Y00121509D02*
D03*
Y00188008D02*
D03*
X00066034Y00351644D02*
D03*
Y00418144D02*
D03*
D83*
X0065171Y00120967D02*
D03*
X0066671D02*
D03*
X00614453Y0018742D02*
D03*
X00629453D02*
D03*
X00613832Y00419966D02*
D03*
X00628832D02*
D03*
X00666409Y00350498D02*
D03*
X00651409D02*
D03*
X00107766Y00189258D02*
D03*
X00092766D02*
D03*
X00106414Y00419393D02*
D03*
X00091414D02*
D03*
D84*
X01173746Y00487178D02*
D03*
X01107246D02*
D03*
X01106786Y00054362D02*
D03*
X01173286D02*
D03*
X00992898Y00097854D02*
D03*
X00926398D02*
D03*
X00866186Y0005405D02*
D03*
X00932686D02*
D03*
X00873172Y0009743D02*
D03*
X00806672D02*
D03*
X00987084Y00054503D02*
D03*
X01053584D02*
D03*
X01113294Y00097796D02*
D03*
X01046794D02*
D03*
X0092687Y00443408D02*
D03*
X0099337D02*
D03*
X00933216Y00486752D02*
D03*
X00866716D02*
D03*
X00812785Y00487233D02*
D03*
X00746285D02*
D03*
X00747054Y00054528D02*
D03*
X00813554D02*
D03*
X01053544Y00486918D02*
D03*
X00987044D02*
D03*
X00807006Y00442976D02*
D03*
X00873506D02*
D03*
X01046734D02*
D03*
X01113234D02*
D03*
X00352766Y00098128D02*
D03*
X00286266D02*
D03*
X00472654Y00097742D02*
D03*
X00406154D02*
D03*
X00233326Y0009658D02*
D03*
X00166826D02*
D03*
X0034649Y00054503D02*
D03*
X0041299D02*
D03*
X00466946D02*
D03*
X00533446D02*
D03*
X00107028Y00053578D02*
D03*
X00173528D02*
D03*
X00225646D02*
D03*
X00292146D02*
D03*
X00292814Y00487758D02*
D03*
X00226314D02*
D03*
X00414166Y00486664D02*
D03*
X00347666D02*
D03*
X005338Y00486458D02*
D03*
X004673D02*
D03*
X00286814Y00443738D02*
D03*
X00353314D02*
D03*
X00407718Y00442722D02*
D03*
X00474218D02*
D03*
X0016641Y00443402D02*
D03*
X0023291D02*
D03*
X00171924Y0048694D02*
D03*
X00105424D02*
D03*
M02*
