G04*
G04 #@! TF.GenerationSoftware,Altium Limited,Altium Designer,18.1.9 (240)*
G04*
G04 Layer_Physical_Order=1*
G04 Layer_Color=255*
%FSLAX44Y44*%
%MOMM*%
G71*
G01*
G75*
%ADD10C,0.2000*%
%ADD18C,0.5000*%
%ADD20C,0.1520*%
%ADD21R,0.4500X0.6000*%
%ADD22R,0.6000X0.4500*%
%ADD23R,0.4000X0.6000*%
%ADD24R,0.6000X0.4000*%
%ADD25R,0.6000X2.0000*%
%ADD26R,2.2000X0.6000*%
%ADD27R,0.3500X1.4000*%
%ADD28R,0.7000X0.9000*%
%ADD29R,1.8000X1.2000*%
%ADD30R,0.5500X1.5000*%
%ADD31R,1.5000X0.5500*%
%ADD32R,0.9000X0.5000*%
%ADD33R,1.3000X0.8000*%
%ADD34R,0.8500X0.4000*%
%ADD35R,1.4000X0.4500*%
%ADD36R,0.7500X0.7000*%
%ADD55C,1.5000*%
%ADD56R,1.5000X1.5000*%
%ADD57C,1.2700*%
%ADD58R,1.2700X1.2700*%
%ADD59R,1.5240X1.5240*%
%ADD60C,1.5240*%
%ADD61C,5.5000*%
%ADD62C,0.6000*%
G36*
X105992Y254894D02*
Y236606D01*
X84148D01*
X71194Y223652D01*
X32078D01*
Y229494D01*
X53414D01*
X79068Y255148D01*
X105738D01*
X105992Y254894D01*
D02*
G37*
G36*
X443451Y177583D02*
Y161388D01*
X443646Y160403D01*
X444204Y159568D01*
X447996Y155777D01*
Y144506D01*
X464000D01*
Y137054D01*
X447996D01*
Y127353D01*
X447360D01*
X446375Y127158D01*
X446278Y127093D01*
X445262Y127295D01*
X443497Y126944D01*
X442000Y125944D01*
X441001Y124447D01*
X440649Y122682D01*
X441001Y120917D01*
X442000Y119420D01*
X443497Y118420D01*
X445262Y118069D01*
X446726Y118361D01*
X447996Y117657D01*
Y112506D01*
X448578D01*
Y110661D01*
X446294D01*
Y110804D01*
X439855D01*
X438813Y112074D01*
X438953Y112776D01*
X438601Y114541D01*
X437602Y116038D01*
X436105Y117037D01*
X434340Y117389D01*
X432575Y117037D01*
X432000Y116653D01*
X431035Y116096D01*
X430372Y116977D01*
X429982Y117562D01*
X428485Y118561D01*
X426720Y118913D01*
X424955Y118561D01*
X423458Y117562D01*
X422959Y116814D01*
X421448Y116840D01*
X420889Y117677D01*
X419392Y118677D01*
X417627Y119028D01*
X415862Y118677D01*
X414366Y117677D01*
X413366Y116180D01*
X413015Y114415D01*
X413366Y112650D01*
X413751Y112074D01*
X413072Y110804D01*
X381746D01*
Y110661D01*
X378183D01*
X377838Y111236D01*
X378558Y112506D01*
X380044D01*
Y120506D01*
Y128506D01*
Y137054D01*
X363654D01*
Y144506D01*
X380044D01*
Y151029D01*
X381314Y151733D01*
X382778Y151441D01*
X384543Y151792D01*
X386040Y152792D01*
X386838Y153988D01*
X388035Y153492D01*
X387817Y152400D01*
X388168Y150635D01*
X389168Y149138D01*
X390665Y148139D01*
X392430Y147787D01*
X394195Y148139D01*
X395692Y149138D01*
X396692Y150635D01*
X397043Y152400D01*
X396692Y154165D01*
X395692Y155662D01*
X394966Y156147D01*
X394808Y156941D01*
X394250Y157776D01*
X385426Y166600D01*
X384591Y167158D01*
X383606Y167353D01*
X380044D01*
Y177054D01*
X380044D01*
X380083Y178308D01*
X389104D01*
X389768Y177263D01*
X389748Y177038D01*
X389407Y175326D01*
X389758Y173561D01*
X390758Y172064D01*
X392255Y171064D01*
X394020Y170713D01*
X395785Y171064D01*
X397282Y172064D01*
X398282Y173561D01*
X398633Y175326D01*
X398292Y177038D01*
X398272Y177263D01*
X398936Y178308D01*
X442855D01*
X443451Y177583D01*
D02*
G37*
G36*
X108204Y195646D02*
Y177358D01*
X86360D01*
X73406Y164404D01*
X34290D01*
Y170246D01*
X55626D01*
X81280Y195900D01*
X107950D01*
X108204Y195646D01*
D02*
G37*
G36*
Y134278D02*
Y115990D01*
X86360D01*
X73406Y103036D01*
X34290D01*
Y108878D01*
X55626D01*
X81280Y134532D01*
X107950D01*
X108204Y134278D01*
D02*
G37*
D10*
X344678Y139506D02*
X369746D01*
X332000Y133756D02*
X338928D01*
X216154Y161514D02*
X234980D01*
X254150D02*
X254254D01*
X234980D02*
X254150D01*
Y67818D02*
X254508D01*
X235204D02*
X254150D01*
X216408D02*
X235204D01*
X150199Y154991D02*
X152550D01*
X144208Y149000D02*
X150199Y154991D01*
X120688Y149000D02*
X144208D01*
X152550Y154991D02*
Y161902D01*
X108144Y161544D02*
X120688Y149000D01*
X147562Y122126D01*
X166000Y129460D02*
X187757D01*
X147562Y122126D02*
X189344D01*
X192738Y118732D01*
X187757Y129460D02*
X194027Y123190D01*
X120840Y130366D02*
X125000D01*
X112268Y138938D02*
X120840Y130366D01*
X354312Y110000D02*
X355346Y108966D01*
X182524Y110000D02*
X354312D01*
X158005Y92000D02*
X199000D01*
X148372Y116332D02*
X186944D01*
X188516Y114760D01*
X192738Y118732D02*
X197752D01*
X194027Y123190D02*
X369430D01*
X197752Y118732D02*
X197844Y118824D01*
X361908D01*
X110018Y154686D02*
X148372Y116332D01*
X188516Y114760D02*
X190963D01*
X191055Y114668D01*
X199435D01*
X199527Y114760D01*
X358000D01*
X138685Y72680D02*
X158005Y92000D01*
X409956Y101844D02*
X410020Y101908D01*
X244162Y230890D02*
X244674Y230378D01*
X139954Y68514D02*
Y68902D01*
X138685Y68833D02*
Y72680D01*
X265000Y205000D02*
X283314Y223314D01*
X414988D01*
X258524Y197476D02*
X284598D01*
X258000Y198000D02*
X258524Y197476D01*
X284598D02*
X306372Y219250D01*
X190754Y68514D02*
Y77754D01*
X211844Y190968D02*
X298276D01*
X210000Y185000D02*
X292999D01*
X190754Y77754D02*
X196000Y83000D01*
X197000D01*
X190650Y77650D02*
X190754Y77754D01*
X190650Y68902D02*
Y77650D01*
X203708Y67818D02*
Y68902D01*
X276626Y56378D02*
X293296Y73048D01*
X223592Y56378D02*
X276626D01*
X214690Y47476D02*
X223592Y56378D01*
X210114Y47476D02*
X214690D01*
X203350Y54240D02*
X210114Y47476D01*
X203350Y54240D02*
Y68902D01*
X463804Y325882D02*
X489204D01*
X349000Y165568D02*
X349788Y164780D01*
X312232D02*
X349788D01*
X249711Y52524D02*
X316346D01*
X245709Y48521D02*
X249711Y52524D01*
X316346D02*
X320292Y48578D01*
X293175Y41476D02*
X303650Y31000D01*
X150707Y41476D02*
X293175D01*
X251999Y47000D02*
X316886D01*
X245709Y47267D02*
Y48521D01*
X244000Y47000D02*
X245441D01*
X245709Y47267D01*
X316886Y47000D02*
X319690Y44196D01*
X133320Y58863D02*
X150707Y41476D01*
X133320Y58863D02*
Y61375D01*
X139954Y161514D02*
Y172974D01*
X165354Y162006D02*
X166476Y163128D01*
X202309Y178524D02*
X299580D01*
X336146Y215090D01*
X194909Y185924D02*
X202309Y178524D01*
X165354Y162006D02*
Y171958D01*
X165250Y161902D02*
X165354Y162006D01*
X189091Y185924D02*
X194909D01*
X185691Y182524D02*
X189091Y185924D01*
X174288Y182524D02*
X185691D01*
X174288Y182524D02*
X174288Y182524D01*
X169712Y182524D02*
X174288D01*
X166476Y179288D02*
X169712Y182524D01*
X166476Y163128D02*
Y179288D01*
X187631Y189448D02*
X199470D01*
X203546Y193524D01*
X157388Y186048D02*
X175748D01*
X184231Y186048D02*
X187631Y189448D01*
X175748Y186048D02*
X184231D01*
X175748Y186048D02*
X175748Y186048D01*
X157000Y186436D02*
X157388Y186048D01*
X165412Y189572D02*
X177207D01*
X182771Y189572D02*
X186171Y192972D01*
X177208Y189572D02*
X182771D01*
X177207Y189572D02*
X177208Y189572D01*
X162460Y192524D02*
X165412Y189572D01*
X195182Y192972D02*
X198044Y195834D01*
X186171Y192972D02*
X195182D01*
X209288Y193524D02*
X211844Y190968D01*
X212299Y195497D02*
X247313D01*
X210748Y197048D02*
X212299Y195497D01*
X203546Y193524D02*
X209288D01*
X207000Y188000D02*
X210000Y185000D01*
X198044Y195834D02*
X199258Y197048D01*
X210748D01*
X217825Y201021D02*
X245709D01*
X211983D02*
X217825D01*
X172000Y177000D02*
X180860D01*
X190650Y167210D01*
X133932Y192524D02*
X162460D01*
X160528Y176784D02*
X165354Y171958D01*
X133432Y192024D02*
X133932Y192524D01*
X198034Y175000D02*
X260000D01*
X190650Y167617D02*
X198034Y175000D01*
X178800Y150782D02*
X181706Y147876D01*
X178800Y150782D02*
Y156454D01*
X176372Y158882D02*
X178800Y156454D01*
X90218Y46500D02*
Y49124D01*
Y46124D02*
Y46500D01*
X358000Y114760D02*
X371742Y101018D01*
X85410Y161544D02*
X108144D01*
X108017Y154686D02*
X110018D01*
X191008Y161902D02*
Y165511D01*
X190754Y161514D02*
Y161902D01*
X190650Y167210D02*
Y167617D01*
Y161902D02*
Y167210D01*
X260000Y175000D02*
X266000Y169000D01*
X247313Y195497D02*
X278716Y226900D01*
X298276Y190968D02*
X301244Y188000D01*
X209550Y209804D02*
X232410D01*
X336146Y215090D02*
X381246D01*
X344815Y149506D02*
X359494D01*
X332000Y152756D02*
X341565D01*
X160110Y230890D02*
X164450D01*
X159000Y232000D02*
X160110Y230890D01*
X446024Y177583D02*
X455978Y187537D01*
X446024Y161388D02*
Y177583D01*
Y161388D02*
X450632Y156780D01*
X457020D01*
X347980Y172750D02*
X370990D01*
X347980D02*
X348107Y172877D01*
X348999Y165000D02*
Y165567D01*
X349000Y165568D01*
X359494Y149506D02*
X360000Y149000D01*
X370800D01*
X371020Y148780D01*
X354220Y132780D02*
X371020D01*
X354000Y133000D02*
X354220Y132780D01*
X394020Y187780D02*
Y195980D01*
X389534Y200466D02*
X394020Y195980D01*
X374000Y200466D02*
X389534D01*
X395141Y205990D02*
X402020Y199111D01*
X338671Y205990D02*
X395141D01*
X324086Y191404D02*
X338671Y205990D01*
X371742Y101018D02*
X386274D01*
X97062Y155970D02*
X97358Y155935D01*
X108017Y154686D01*
X86106D02*
X97062Y155970D01*
X369746Y139506D02*
X371020Y140780D01*
X419516Y145796D02*
X426720Y153000D01*
X399796Y145796D02*
X419516D01*
X399796Y129762D02*
X420386D01*
X399796D02*
Y145796D01*
X471616Y148780D02*
X471632Y148764D01*
X457020Y148780D02*
X471616D01*
X472868Y140000D02*
X479999D01*
X471632Y138764D02*
X472868Y140000D01*
X27299Y18000D02*
X482627D01*
X17048Y28251D02*
X27299Y18000D01*
X17048Y28251D02*
Y72048D01*
X10000Y25332D02*
Y81000D01*
X24380Y10952D02*
X485546D01*
X10000Y25332D02*
X24380Y10952D01*
X13524Y26792D02*
Y76524D01*
X25840Y14476D02*
X484086D01*
X13524Y26792D02*
X25840Y14476D01*
X471520Y132353D02*
X481504D01*
X471093Y132780D02*
X471520Y132353D01*
X457020Y132780D02*
X471093D01*
X313000Y165548D02*
Y166116D01*
X312232Y164780D02*
X313000Y165548D01*
X353688Y236474D02*
X362000D01*
X414528D01*
X338928Y133756D02*
X344678Y139506D01*
X341565Y152756D02*
X344815Y149506D01*
X344678D02*
X344815D01*
X329692Y68508D02*
Y75946D01*
X355092Y101346D01*
X174590Y242000D02*
X176180Y243590D01*
X201676Y216916D02*
X202438D01*
X202000Y225000D02*
Y226830D01*
X195882Y213662D02*
Y252524D01*
X213614Y230632D02*
X227922D01*
X202438Y208534D02*
X204470D01*
X155956Y210058D02*
X192278D01*
X133000Y211026D02*
X133500Y210526D01*
X149500Y246500D02*
X154000Y242000D01*
X141932Y246500D02*
X149432D01*
X149500Y227500D02*
X154000Y232000D01*
X141932Y227500D02*
X149432D01*
X202000Y226830D02*
X218760Y243590D01*
X228180D01*
X195882Y252524D02*
X198628Y255270D01*
X257556Y221996D02*
X259588Y224028D01*
X253166Y221996D02*
X257556D01*
X253166Y237000D02*
Y243586D01*
Y230378D02*
Y237000D01*
X261000D01*
X132000Y294000D02*
X141750D01*
Y326000D01*
X158250Y294000D02*
Y326000D01*
Y294000D02*
X200580D01*
X205600Y288980D01*
X12296Y246512D02*
X17558Y251774D01*
X54320Y239400D02*
X59766Y244846D01*
X78000Y214000D02*
X95000D01*
X76000Y212000D02*
X78000Y214000D01*
X361000Y293000D02*
Y305092D01*
X329620Y261620D02*
X361000Y293000D01*
X307594Y261620D02*
X329620D01*
X361000Y305092D02*
X373634Y317726D01*
Y325700D01*
X454686Y335000D02*
X463804Y325882D01*
X382934Y335000D02*
X454686D01*
X373634Y325700D02*
X382934Y335000D01*
X574000Y218000D02*
X574999D01*
X573324Y217324D02*
X574000Y218000D01*
X573324Y205000D02*
Y217324D01*
Y151000D02*
Y187324D01*
X580000Y194000D01*
X579824Y194176D02*
Y205000D01*
Y194176D02*
X580000Y194000D01*
X579824Y151000D02*
Y162244D01*
X190650Y53029D02*
X191055Y52625D01*
X190650Y53029D02*
Y68902D01*
X152550Y53564D02*
X153114Y53000D01*
X152550Y53564D02*
Y68902D01*
X177000Y53000D02*
X177950Y53950D01*
Y68902D01*
X100000Y28762D02*
X102902Y25860D01*
X100000Y28762D02*
Y37500D01*
X106125Y52625D02*
X122288D01*
X100000Y46500D02*
X106125Y52625D01*
X583500Y90424D02*
X588000Y94924D01*
Y104110D01*
X588024Y104135D01*
Y130976D01*
X577524Y141476D02*
X588024Y130976D01*
X561172Y141476D02*
X577524D01*
X560324Y142324D02*
X561172Y141476D01*
X560324Y142324D02*
Y151000D01*
X579824D02*
X580162Y150662D01*
X566824Y205000D02*
Y217066D01*
X271000Y237000D02*
Y244475D01*
X418780Y57580D02*
X431605D01*
X433000Y58975D01*
X379280Y57080D02*
X394020Y71820D01*
X379280Y57080D02*
X382056Y54304D01*
X378780Y57580D02*
X379280Y57080D01*
X382056Y54304D02*
X396000D01*
X505454Y223376D02*
X505460Y223382D01*
Y229000D01*
Y239000D02*
Y244160D01*
X504000Y245620D02*
X505460Y244160D01*
X502680Y246940D02*
X504000Y245620D01*
X492542Y246940D02*
X502680D01*
X17048Y72048D02*
X26000Y81000D01*
X484086Y14476D02*
X499332Y29722D01*
X485546Y10952D02*
X502856Y28262D01*
X499332Y29722D02*
Y160052D01*
X502856Y28262D02*
Y162151D01*
X13524Y76524D02*
X18000Y81000D01*
X13500Y131500D02*
X21481D01*
X10000Y128000D02*
X13500Y131500D01*
X369778Y251000D02*
X369824Y251046D01*
Y270000D01*
X364000Y242268D02*
X417878D01*
X286956D02*
X364000D01*
X357602Y248666D02*
X364000Y242268D01*
X353688Y248666D02*
X357602D01*
X338000D02*
X344688D01*
X417878Y242268D02*
X418338Y241808D01*
X337960Y236474D02*
X344688D01*
X302070Y248666D02*
Y263908D01*
X278716Y226900D02*
X416386D01*
X306372Y219250D02*
X412943D01*
X416386Y226900D02*
X439294Y203992D01*
Y190506D02*
Y203992D01*
Y190506D02*
X442020Y187780D01*
X414988Y223314D02*
X434020Y204282D01*
X412943Y219250D02*
X426020Y206173D01*
Y187780D02*
Y206173D01*
X118000Y192786D02*
X124500D01*
X118000Y203000D02*
Y203000D01*
X124500D01*
X133500D02*
Y210526D01*
X143837Y176784D02*
X160528D01*
X143005Y175952D02*
X143837Y176784D01*
X142932Y175952D02*
X143005D01*
X139954Y172974D02*
X142932Y175952D01*
X457962Y237744D02*
Y253440D01*
X363952Y116780D02*
X371020D01*
X361908Y118824D02*
X363952Y116780D01*
X267000Y62230D02*
Y84658D01*
X282926Y100584D01*
X309800Y79044D02*
Y87884D01*
Y79044D02*
X315796Y73048D01*
X299800Y87884D02*
X303276Y84408D01*
X323202Y54304D02*
X324488D01*
X329692Y59508D01*
Y68508D02*
X329692Y68508D01*
X317756Y68508D02*
X329692D01*
X315796Y66548D02*
X317756Y68508D01*
X120396Y73367D02*
Y76367D01*
X120396Y85367D02*
Y93000D01*
X28480Y104426D02*
X30308Y106254D01*
X21104Y104426D02*
X28480D01*
X21104D02*
X21481Y104803D01*
X29518Y94426D02*
X30390Y93554D01*
X21104Y94426D02*
X29518D01*
X21481Y104803D02*
Y122500D01*
X21635Y131654D02*
X45356D01*
X21481Y131500D02*
X21635Y131654D01*
X21104Y163882D02*
X25960D01*
X29464Y167386D01*
X21176Y153810D02*
X30000D01*
X21104Y153882D02*
X21176Y153810D01*
X21104Y163882D02*
X21299Y164077D01*
Y183968D01*
X8000Y189000D02*
X11968Y192968D01*
X21299D01*
X21481Y192786D01*
X45212D01*
X26978Y214080D02*
X27744Y214846D01*
X19396Y214080D02*
X26978D01*
X19396Y224080D02*
X24532D01*
X19396D02*
X19595Y224279D01*
Y242774D01*
X17558Y251774D02*
X19595D01*
X19921Y252100D02*
X43000D01*
X19595Y251774D02*
X19921Y252100D01*
X43000Y239400D02*
X54320D01*
X583500Y120467D02*
Y126238D01*
X580595Y117562D02*
X583500Y120467D01*
X580595Y117562D02*
X581366D01*
X583500Y103014D02*
Y108204D01*
X581000Y100514D02*
X583500Y103014D01*
X90218Y49124D02*
X99513Y58419D01*
X338462Y300300D02*
X348234D01*
X302070Y263908D02*
X338462Y300300D01*
X27152Y226700D02*
X43000D01*
X24532Y224080D02*
X27152Y226700D01*
X27744Y214846D02*
X42154D01*
X43000Y214000D01*
X44336Y153810D02*
X45212Y154686D01*
X30000Y153810D02*
X44336D01*
X42658Y227042D02*
X43000Y226700D01*
X319690Y44196D02*
X442214D01*
X339916Y48578D02*
X352552Y61214D01*
X320292Y48578D02*
X339916D01*
X447906Y90424D02*
X476936D01*
X447906Y49888D02*
Y90424D01*
X442214Y44196D02*
X447906Y49888D01*
X492227Y172780D02*
X502856Y162151D01*
X457160Y164640D02*
X494744D01*
X457020Y164780D02*
X457160Y164640D01*
X494744D02*
X499332Y160052D01*
X483932Y156780D02*
X484378Y157226D01*
X476936Y90424D02*
X488950Y78410D01*
X495808Y31181D02*
Y79746D01*
X480812Y94742D02*
X495808Y79746D01*
X482627Y18000D02*
X495808Y31181D01*
X394020Y71820D02*
Y101780D01*
X416552Y68826D02*
X418780Y71054D01*
X406537Y80580D02*
X418780D01*
X231000Y314302D02*
Y322000D01*
X217180Y300482D02*
X231000Y314302D01*
X256400Y322000D02*
Y326504D01*
X253166Y251206D02*
X259080D01*
X244166D02*
Y258826D01*
X239082Y256290D02*
X244166Y251206D01*
X228180Y256290D02*
X239082D01*
X166112D02*
X176180D01*
X162632Y259770D02*
X166112Y256290D01*
X162632Y259770D02*
Y265430D01*
X371746Y156054D02*
X382778D01*
X383606Y164780D02*
X392430Y155956D01*
X371020Y156780D02*
X371746Y156054D01*
X371020Y164780D02*
X383606D01*
X392430Y152400D02*
Y155956D01*
X426841Y233940D02*
X433542D01*
X418973Y241808D02*
X426841Y233940D01*
X504554Y259940D02*
X506176Y258318D01*
X492542Y259940D02*
X504554D01*
X513983Y258318D02*
X515620Y256681D01*
X506176Y258318D02*
X513983D01*
X352806Y89662D02*
Y90170D01*
X363654Y101018D01*
X371742D01*
X369430Y123190D02*
X371020Y124780D01*
X245709Y201021D02*
X286956Y242268D01*
X414528Y236474D02*
X423562Y227440D01*
X420116Y249428D02*
X420878D01*
X424890Y253440D01*
X433542D01*
X204470Y208534D02*
X211983Y201021D01*
X192278Y210058D02*
X195882Y213662D01*
X198628Y255270D02*
X217180Y273822D01*
X29464Y167386D02*
X45212D01*
X30390Y93554D02*
X45356D01*
X30308Y106254D02*
X45356D01*
X532130Y215900D02*
X534324Y213706D01*
Y205000D02*
Y213706D01*
X532638Y91186D02*
X548250D01*
X531830Y226522D02*
X548252D01*
X321686Y172750D02*
X347980D01*
X321655Y172780D02*
X321686Y172750D01*
X534162Y150838D02*
X534324Y151000D01*
X534162Y137414D02*
Y150838D01*
X548250Y91186D02*
Y108966D01*
Y126238D01*
X573098Y91186D02*
X573860Y90424D01*
X563250Y91186D02*
X573098D01*
Y108966D02*
X573860Y108204D01*
X563250Y108966D02*
X573098D01*
X573858Y126238D02*
X573858Y126238D01*
X563250Y126238D02*
X573858D01*
X510464Y78410D02*
Y192456D01*
X512572Y194564D01*
X202438Y216916D02*
X209550Y209804D01*
X120138Y218190D02*
X150996D01*
X120013Y218315D02*
X120138Y218190D01*
X337960Y211026D02*
X397581D01*
X381342Y215186D02*
X404574D01*
X381246Y215090D02*
X381342Y215186D01*
X423562Y227440D02*
X433542D01*
X418338Y241808D02*
X418973D01*
X434848Y219202D02*
Y219710D01*
Y219202D02*
X456184Y197866D01*
X370990Y172750D02*
X371020Y172780D01*
X349788Y164780D02*
X371020D01*
X348010Y172974D02*
X348107Y172877D01*
X171632Y265430D02*
X171886Y265684D01*
X180594D01*
X227922Y230632D02*
X228180Y230890D01*
X217180Y273822D02*
Y300482D01*
X301244Y171064D02*
X302959Y172780D01*
X321655D01*
X324086Y178544D02*
Y191404D01*
X313389Y186454D02*
X337960Y211026D01*
X313389Y183533D02*
Y186454D01*
X171632Y265430D02*
Y266374D01*
X203672Y160782D02*
X215422D01*
X216154Y161514D01*
X123156Y158181D02*
X136621D01*
X113951Y167386D02*
X123156Y158181D01*
X136621D02*
X139954Y161514D01*
X404574Y215186D02*
X418020Y201740D01*
X397581Y211026D02*
X410020Y198587D01*
X402020Y187780D02*
Y199111D01*
X476504Y181178D02*
Y232312D01*
X471326Y237490D02*
X476504Y232312D01*
X517652Y188468D02*
X555752D01*
X527050Y181732D02*
X559684D01*
X547324Y195834D02*
Y205000D01*
X546054Y194564D02*
X547324Y195834D01*
X512572Y194564D02*
X546054D01*
X519684Y215392D02*
Y258364D01*
X495554Y191262D02*
X519684Y215392D01*
X495554Y180086D02*
Y191262D01*
X487934Y182372D02*
Y190246D01*
X515620Y217932D02*
Y256681D01*
X487934Y190246D02*
X515620Y217932D01*
X573324Y195372D02*
Y205000D01*
X559684Y181732D02*
X573324Y195372D01*
X566674Y151150D02*
Y164338D01*
Y151150D02*
X566824Y151000D01*
X553824D02*
Y162664D01*
X554990Y163830D01*
X560324Y193040D02*
Y205000D01*
X555752Y188468D02*
X560324Y193040D01*
X447360Y124780D02*
X457020D01*
X445262Y122682D02*
X447360Y124780D01*
X463502Y196802D02*
Y259890D01*
X463296Y196596D02*
X463502Y196802D01*
X444852Y240440D02*
X446024Y239268D01*
X457020Y172780D02*
X492227D01*
X456952Y266440D02*
X463502Y259890D01*
X469646Y237490D02*
X471326D01*
X456184Y189550D02*
Y197866D01*
X455978Y189344D02*
X456184Y189550D01*
X455978Y187537D02*
Y189344D01*
X457020Y156780D02*
X483932D01*
X540824Y151000D02*
Y159708D01*
X537464Y163068D02*
X540824Y159708D01*
X511810Y266238D02*
X519684Y258364D01*
X511810Y266238D02*
Y266446D01*
X505460D02*
X511810D01*
X487934Y182118D02*
Y182372D01*
X487426Y181610D02*
X487934Y182118D01*
X449528Y246940D02*
X450088Y246380D01*
X433542Y246940D02*
X449528D01*
X451462Y259940D02*
X457962Y253440D01*
X433542Y259940D02*
X451462D01*
X433542Y266440D02*
X456952D01*
X433542Y240440D02*
X444852D01*
X479454D02*
X492542D01*
X478790Y239776D02*
X479454Y240440D01*
X422892Y259940D02*
X433542D01*
X420141Y257189D02*
X422892Y259940D01*
X423424Y266440D02*
X433542D01*
X420624Y269240D02*
X423424Y266440D01*
X492542D02*
X505454D01*
X505460Y266446D01*
X534324Y151000D02*
X534670Y150654D01*
X547324Y151000D02*
X547370Y151046D01*
Y163068D01*
X540824Y205000D02*
Y216466D01*
X566824Y217066D02*
X566928Y217170D01*
X553824Y205000D02*
Y216512D01*
X553974Y216662D01*
X548252Y243525D02*
Y260528D01*
Y226522D02*
Y243525D01*
X575819Y226522D02*
X576322Y227025D01*
X563252Y226522D02*
X575819D01*
X585322Y227025D02*
X592023D01*
X585322Y243434D02*
X591668D01*
X576231Y243525D02*
X576322Y243434D01*
X563252Y243525D02*
X576231D01*
X585322Y259842D02*
X592074D01*
X575636Y260528D02*
X576322Y259842D01*
X563252Y260528D02*
X575636D01*
X418780Y71054D02*
Y80580D01*
X378206Y183896D02*
Y186436D01*
X99513Y58419D02*
X119888D01*
X127526Y57863D02*
Y58975D01*
X129926Y64769D02*
X133320Y61375D01*
X87311Y64769D02*
X129926D01*
X124930Y68833D02*
X138685D01*
X122288Y52625D02*
X127526Y57863D01*
X68120Y83960D02*
X87311Y64769D01*
X120396Y73367D02*
X124930Y68833D01*
X97212Y167386D02*
X113951D01*
X159996Y218190D02*
X176180D01*
X90218Y26638D02*
Y37124D01*
X68120Y83960D02*
Y93520D01*
X176372Y158882D02*
X178308Y160818D01*
X204200Y28851D02*
Y30242D01*
X413894Y90424D02*
X447802D01*
X401574Y102226D02*
X402020Y101780D01*
X409956Y101844D02*
X410020Y101780D01*
X409956Y101972D02*
X410020Y101908D01*
X394020Y175326D02*
Y187780D01*
X240360Y218190D02*
X244166Y221996D01*
X228180Y218190D02*
X240360D01*
X287274Y87884D02*
X299800D01*
X311800D02*
X322072D01*
X203672Y160782D02*
X203708Y160818D01*
X471520Y115367D02*
Y122353D01*
X483421Y110584D02*
Y117407D01*
X410020Y187780D02*
Y198587D01*
X418020Y187780D02*
Y201740D01*
X282926Y100584D02*
X330454D01*
X244162Y243590D02*
X244166Y243586D01*
X228180Y243590D02*
X244162D01*
X228180Y230890D02*
X244162D01*
X371020Y116780D02*
X373126Y114674D01*
Y108966D02*
Y114674D01*
X68072Y152400D02*
X83058Y167386D01*
X97212D01*
X303276Y70028D02*
Y84408D01*
X293296Y60048D02*
X303276Y70028D01*
X378206Y186436D02*
X379550Y187780D01*
X443978Y189738D02*
X449160D01*
X442020Y187780D02*
X443978Y189738D01*
X379550Y187780D02*
X386020D01*
X402020Y85097D02*
X406537Y80580D01*
X402020Y85097D02*
Y101780D01*
X378780Y80580D02*
X379730Y79630D01*
Y70850D02*
Y79630D01*
X352552Y61214D02*
Y62230D01*
X74676Y143256D02*
X86106Y154686D01*
X74676Y142494D02*
Y143256D01*
X60960Y137094D02*
X85410Y161544D01*
X60960Y125984D02*
Y137094D01*
X417627Y102173D02*
Y114415D01*
X426020Y113600D02*
X426720Y114300D01*
X434340Y102100D02*
Y112776D01*
X68120Y93520D02*
X68580Y93980D01*
X434020Y187780D02*
Y204282D01*
X78814Y226700D02*
X95000D01*
X68908Y216794D02*
X78814Y226700D01*
X68400Y216794D02*
X68908D01*
X80854Y106254D02*
X97356D01*
X68580Y93980D02*
X80854Y106254D01*
X73914Y86360D02*
X81108Y93554D01*
X97356D01*
X55118Y180086D02*
X61468Y186436D01*
X45356Y118954D02*
X53930D01*
X60960Y125984D01*
X45212Y180086D02*
X55118D01*
X449058Y94742D02*
X480812D01*
X442020Y101780D02*
X449058Y94742D01*
X42042Y213042D02*
X43000Y214000D01*
X44228Y92426D02*
X45356Y93554D01*
X45184Y106426D02*
X45356Y106254D01*
X410020Y94298D02*
X413894Y90424D01*
X410020Y94298D02*
Y101780D01*
X457020Y108278D02*
Y116780D01*
X434020Y101780D02*
X434340Y102100D01*
X426020Y101780D02*
Y113600D01*
X417627Y102173D02*
X418020Y101780D01*
D18*
X161000Y248666D02*
X166076Y243590D01*
X161000Y242000D02*
X174590D01*
X154000D02*
X161000D01*
X166076Y243590D02*
X176180D01*
X161000Y227440D02*
X164450Y230890D01*
X173000D01*
X154000Y232000D02*
X159000D01*
D20*
X0Y0D02*
Y261586D01*
Y0D02*
X600202D01*
Y350012D01*
X129000D02*
X600202D01*
X126828Y350000D02*
X129000Y350012D01*
X126156Y350000D02*
X126828Y350000D01*
X124837Y349738D02*
X126156Y350000D01*
X123594Y349223D02*
X124837Y349738D01*
X122476Y348475D02*
X123594Y349223D01*
X122000Y348000D02*
X122476Y348475D01*
X121524Y347524D02*
X122000Y348000D01*
X120777Y346406D02*
X121524Y347524D01*
X120262Y345163D02*
X120777Y346406D01*
X120000Y343844D02*
X120262Y345163D01*
X120000Y343172D02*
Y343844D01*
X120000Y274828D02*
X120000Y343172D01*
X120000Y274828D02*
X120053Y273918D01*
X119892Y272102D02*
X120053Y273918D01*
X119380Y270353D02*
X119892Y272102D01*
X118536Y268738D02*
X119380Y270353D01*
X118000Y268000D02*
X118536Y268738D01*
X117184Y267300D02*
X118000Y268000D01*
X115368Y266155D02*
X117184Y267300D01*
X113363Y265387D02*
X115368Y266155D01*
X111246Y265024D02*
X113363Y265387D01*
X110172Y265000D02*
X111246Y265024D01*
X3414Y265000D02*
X110172D01*
X3078Y265000D02*
X3414Y265000D01*
X2418Y264869D02*
X3078Y265000D01*
X1797Y264611D02*
X2418Y264869D01*
X1238Y264238D02*
X1797Y264611D01*
X1000Y264000D02*
X1238Y264238D01*
X762Y263762D02*
X1000Y264000D01*
X389Y263203D02*
X762Y263762D01*
X131Y262582D02*
X389Y263203D01*
X0Y261922D02*
X131Y262582D01*
X0Y261586D02*
Y261922D01*
D21*
X261000Y237000D02*
D03*
X271000D02*
D03*
X309800Y87884D02*
D03*
X299800D02*
D03*
D22*
X505460Y229000D02*
D03*
Y239000D02*
D03*
X21104Y104426D02*
D03*
Y94426D02*
D03*
Y163882D02*
D03*
Y153882D02*
D03*
X19396Y224080D02*
D03*
Y214080D02*
D03*
X471632Y148764D02*
D03*
Y138764D02*
D03*
X471520Y132353D02*
D03*
Y122353D02*
D03*
X154000Y232000D02*
D03*
Y242000D02*
D03*
X350000Y149730D02*
D03*
Y139730D02*
D03*
D23*
X344688Y248666D02*
D03*
X353688D02*
D03*
X344688Y236474D02*
D03*
X353688D02*
D03*
X133500Y203000D02*
D03*
X124500D02*
D03*
X133500Y192786D02*
D03*
X124500D02*
D03*
X576322Y259842D02*
D03*
X585322D02*
D03*
X576322Y227025D02*
D03*
X585322D02*
D03*
X576322Y243434D02*
D03*
X585322D02*
D03*
X583500Y90424D02*
D03*
X574500D02*
D03*
X583500Y126238D02*
D03*
X574500D02*
D03*
X583500Y108204D02*
D03*
X574500D02*
D03*
X159996Y218190D02*
D03*
X150996D02*
D03*
X162632Y265430D02*
D03*
X171632D02*
D03*
X244166Y258826D02*
D03*
X253166D02*
D03*
Y251206D02*
D03*
X244166D02*
D03*
X253166Y243586D02*
D03*
X244166D02*
D03*
X253166Y230378D02*
D03*
X244166D02*
D03*
Y221996D02*
D03*
X253166D02*
D03*
D24*
X100000Y37500D02*
D03*
Y46500D02*
D03*
X90218Y37500D02*
D03*
Y46500D02*
D03*
X329692Y59508D02*
D03*
Y68508D02*
D03*
X120396Y85367D02*
D03*
Y76367D02*
D03*
X21481Y122500D02*
D03*
Y131500D02*
D03*
X21299Y183968D02*
D03*
Y192968D02*
D03*
X19595Y242774D02*
D03*
Y251774D02*
D03*
D25*
X139850Y68902D02*
D03*
X152550D02*
D03*
X165250D02*
D03*
X177950D02*
D03*
X190650D02*
D03*
X203350D02*
D03*
X216050D02*
D03*
X228750D02*
D03*
X241450D02*
D03*
X254150D02*
D03*
Y161902D02*
D03*
X241450D02*
D03*
X228750D02*
D03*
X216050D02*
D03*
X203350D02*
D03*
X190650D02*
D03*
X177950D02*
D03*
X165250D02*
D03*
X152550D02*
D03*
X139850D02*
D03*
D26*
X228180Y218190D02*
D03*
Y230890D02*
D03*
Y256290D02*
D03*
X176180Y218190D02*
D03*
Y230890D02*
D03*
Y256290D02*
D03*
X228180Y243590D02*
D03*
X176180D02*
D03*
X45356Y118954D02*
D03*
X97356D02*
D03*
X45356Y131654D02*
D03*
Y106254D02*
D03*
Y93554D02*
D03*
X97356Y131654D02*
D03*
Y106254D02*
D03*
Y93554D02*
D03*
X97212Y154686D02*
D03*
Y167386D02*
D03*
Y192786D02*
D03*
X45212Y154686D02*
D03*
Y167386D02*
D03*
Y192786D02*
D03*
X97212Y180086D02*
D03*
X45212D02*
D03*
X95000Y214000D02*
D03*
Y226700D02*
D03*
Y252100D02*
D03*
X43000Y214000D02*
D03*
Y226700D02*
D03*
Y252100D02*
D03*
X95000Y239400D02*
D03*
X43000D02*
D03*
D27*
X579824Y205000D02*
D03*
X573324D02*
D03*
X566824D02*
D03*
X560324D02*
D03*
X553824D02*
D03*
X547324D02*
D03*
X540824D02*
D03*
X534324D02*
D03*
X579824Y151000D02*
D03*
X573324D02*
D03*
X566824D02*
D03*
X560324D02*
D03*
X553824D02*
D03*
X547324D02*
D03*
X540824D02*
D03*
X534324D02*
D03*
D28*
X548250Y108966D02*
D03*
X563250D02*
D03*
X548250Y126238D02*
D03*
X563250D02*
D03*
X548250Y91186D02*
D03*
X563250D02*
D03*
X563252Y226522D02*
D03*
X548252D02*
D03*
X563252Y260528D02*
D03*
X548252D02*
D03*
X563252Y243525D02*
D03*
X548252D02*
D03*
D29*
X378780Y81580D02*
D03*
X418780D02*
D03*
Y57580D02*
D03*
X378780D02*
D03*
D30*
X386020Y187780D02*
D03*
X394020D02*
D03*
X402020D02*
D03*
X410020D02*
D03*
X418020D02*
D03*
X426020D02*
D03*
X434020D02*
D03*
X442020D02*
D03*
Y101780D02*
D03*
X434020D02*
D03*
X426020D02*
D03*
X418020D02*
D03*
X410020D02*
D03*
X402020D02*
D03*
X394020D02*
D03*
X386020D02*
D03*
D31*
X457020Y172780D02*
D03*
Y164780D02*
D03*
Y156780D02*
D03*
Y148780D02*
D03*
Y140780D02*
D03*
Y132780D02*
D03*
Y124780D02*
D03*
Y116780D02*
D03*
X371020D02*
D03*
Y124780D02*
D03*
Y132780D02*
D03*
Y140780D02*
D03*
Y148780D02*
D03*
Y156780D02*
D03*
Y164780D02*
D03*
Y172780D02*
D03*
D32*
X483421Y117407D02*
D03*
Y132407D02*
D03*
D33*
X141364Y227500D02*
D03*
Y246500D02*
D03*
X337000Y152500D02*
D03*
Y133500D02*
D03*
D34*
X315796Y60048D02*
D03*
Y66548D02*
D03*
Y73048D02*
D03*
X293296D02*
D03*
Y60048D02*
D03*
D35*
X433542Y272940D02*
D03*
Y266440D02*
D03*
Y259940D02*
D03*
Y253440D02*
D03*
Y246940D02*
D03*
Y240440D02*
D03*
Y233940D02*
D03*
Y227440D02*
D03*
X492542Y272940D02*
D03*
Y266440D02*
D03*
Y259940D02*
D03*
Y253440D02*
D03*
Y246940D02*
D03*
Y240440D02*
D03*
Y233940D02*
D03*
Y227440D02*
D03*
D36*
X158250Y326000D02*
D03*
Y294000D02*
D03*
X141750D02*
D03*
Y326000D02*
D03*
D55*
X379851Y31000D02*
D03*
X354450D02*
D03*
X405251D02*
D03*
X430650D02*
D03*
X456050D02*
D03*
X481451D02*
D03*
X278251D02*
D03*
X252850D02*
D03*
X303650D02*
D03*
X329050D02*
D03*
X227451D02*
D03*
X202050D02*
D03*
X151250D02*
D03*
X176651D02*
D03*
D56*
X125850D02*
D03*
D57*
X489204Y300300D02*
D03*
Y325700D02*
D03*
X463804Y300300D02*
D03*
Y325700D02*
D03*
X399034Y300300D02*
D03*
Y325700D02*
D03*
X373634Y300300D02*
D03*
Y325700D02*
D03*
X348234D02*
D03*
D58*
Y300300D02*
D03*
D59*
X256400Y322000D02*
D03*
D60*
X231000D02*
D03*
X205600D02*
D03*
X256400Y288980D02*
D03*
X231000D02*
D03*
X205600D02*
D03*
D61*
X552000Y50000D02*
D03*
Y300000D02*
D03*
X52000Y50000D02*
D03*
D62*
X194000Y203000D02*
D03*
X187330Y201900D02*
D03*
X151198Y140049D02*
D03*
Y146802D02*
D03*
X136764Y143000D02*
D03*
X143000D02*
D03*
X196228Y146812D02*
D03*
X159004Y139996D02*
D03*
Y146558D02*
D03*
X166000Y129460D02*
D03*
X125000Y130366D02*
D03*
X182524Y110000D02*
D03*
X199000Y92000D02*
D03*
X186944Y116332D02*
D03*
X265000Y205000D02*
D03*
X258000Y198000D02*
D03*
X197000Y83000D02*
D03*
X251999Y47000D02*
D03*
X244000D02*
D03*
X177500Y195096D02*
D03*
X207000Y188000D02*
D03*
X198044Y195834D02*
D03*
X217825Y201021D02*
D03*
X172000Y177000D02*
D03*
X157000Y186436D02*
D03*
X181706Y147876D02*
D03*
X266000Y169000D02*
D03*
X292999Y185000D02*
D03*
X232410Y209804D02*
D03*
X301244Y188000D02*
D03*
X161000Y234380D02*
D03*
Y242000D02*
D03*
Y248666D02*
D03*
X348999Y165000D02*
D03*
X360000Y149000D02*
D03*
X354000Y133000D02*
D03*
X374000Y200466D02*
D03*
X426720Y153000D02*
D03*
X420386Y129762D02*
D03*
X399796D02*
D03*
X404000Y115367D02*
D03*
X479999Y140000D02*
D03*
X313000Y166116D02*
D03*
X362000Y236474D02*
D03*
X161000Y227440D02*
D03*
X201676Y216916D02*
D03*
X202000Y225000D02*
D03*
X213614Y230632D02*
D03*
X202438Y208534D02*
D03*
X155956Y210058D02*
D03*
X133000Y211026D02*
D03*
X132000Y294000D02*
D03*
X12296Y246512D02*
D03*
X59766Y244846D02*
D03*
X76000Y212000D02*
D03*
X590000Y211328D02*
D03*
X574999Y218000D02*
D03*
X589000Y194000D02*
D03*
X580000D02*
D03*
X590000Y162244D02*
D03*
X579824D02*
D03*
X191055Y52625D02*
D03*
X212402Y53000D02*
D03*
X153114D02*
D03*
X177000D02*
D03*
X452000Y280000D02*
D03*
X271000Y244475D02*
D03*
X433000Y58975D02*
D03*
X396000Y54304D02*
D03*
X505454Y223376D02*
D03*
X504000Y245620D02*
D03*
X26000Y81000D02*
D03*
X18000D02*
D03*
X10000Y81000D02*
D03*
Y128000D02*
D03*
X369778Y251000D02*
D03*
X369824Y270000D02*
D03*
X338000Y248666D02*
D03*
X337960Y236474D02*
D03*
X302070Y248666D02*
D03*
X118000Y192786D02*
D03*
Y203000D02*
D03*
X472000Y279000D02*
D03*
X120396Y93000D02*
D03*
X580595Y117562D02*
D03*
X581000Y100514D02*
D03*
X102902Y25860D02*
D03*
X8000Y189000D02*
D03*
X27152Y226700D02*
D03*
X27744Y214846D02*
D03*
X30000Y153810D02*
D03*
X267000Y62230D02*
D03*
X484378Y157226D02*
D03*
X488950Y78410D02*
D03*
X259080Y251206D02*
D03*
X382778Y156054D02*
D03*
X506176Y258318D02*
D03*
X352806Y89662D02*
D03*
X355092Y101346D02*
D03*
X355346Y108966D02*
D03*
X420116Y249428D02*
D03*
X198628Y255270D02*
D03*
X29464Y167386D02*
D03*
X30390Y93554D02*
D03*
X30308Y106254D02*
D03*
X532130Y215900D02*
D03*
X532638Y91186D02*
D03*
X531830Y226522D02*
D03*
X534162Y137414D02*
D03*
X120013Y218315D02*
D03*
X112268Y138938D02*
D03*
X307594Y261620D02*
D03*
X418338Y241808D02*
D03*
X434848Y219710D02*
D03*
X348010Y172974D02*
D03*
X180594Y265684D02*
D03*
X301244Y171064D02*
D03*
X234980Y161514D02*
D03*
X259588Y224028D02*
D03*
X324086Y178544D02*
D03*
X313389Y183533D02*
D03*
X517652Y188468D02*
D03*
X527050Y181732D02*
D03*
X566674Y164338D02*
D03*
X554990Y163830D02*
D03*
X445262Y122682D02*
D03*
X446024Y239268D02*
D03*
X463296Y196596D02*
D03*
X476504Y181178D02*
D03*
X457708Y237744D02*
D03*
X469646Y237490D02*
D03*
X537464Y163068D02*
D03*
X495554Y180086D02*
D03*
X487934Y182372D02*
D03*
X450088Y246380D02*
D03*
X478790Y239776D02*
D03*
X420141Y257189D02*
D03*
X420624Y269240D02*
D03*
X505460Y266446D02*
D03*
X547370Y163068D02*
D03*
X540824Y216000D02*
D03*
X566928D02*
D03*
X553974D02*
D03*
X592023Y227025D02*
D03*
X591668Y243434D02*
D03*
X592074Y259842D02*
D03*
X416306Y69072D02*
D03*
X378206Y183896D02*
D03*
X189230Y146812D02*
D03*
X119888Y58419D02*
D03*
X127526Y58975D02*
D03*
X90218Y26638D02*
D03*
X394020Y175326D02*
D03*
X323202Y54304D02*
D03*
X287274Y87884D02*
D03*
X322072D02*
D03*
X235204Y67818D02*
D03*
X471520Y115367D02*
D03*
X483421Y110584D02*
D03*
X410020Y198587D02*
D03*
X418020Y201740D02*
D03*
X330454Y100584D02*
D03*
X373126Y108966D02*
D03*
X449160Y189738D02*
D03*
X392430Y152400D02*
D03*
X399796Y145796D02*
D03*
X379730Y70850D02*
D03*
X352552Y62230D02*
D03*
X74676Y142494D02*
D03*
X417627Y114415D02*
D03*
X426720Y114300D02*
D03*
X434340Y112776D02*
D03*
X68400Y216794D02*
D03*
X68072Y152400D02*
D03*
X68580Y93980D02*
D03*
X73914Y86360D02*
D03*
X60960Y125984D02*
D03*
X61468Y186436D02*
D03*
X510464Y78410D02*
D03*
X457020Y108278D02*
D03*
M02*
