G04*
G04 #@! TF.GenerationSoftware,Altium Limited,Altium Designer,18.1.9 (240)*
G04*
G04 Layer_Color=8388736*
%FSLAX44Y44*%
%MOMM*%
G71*
G01*
G75*
%ADD20C,0.1520*%
%ADD21R,0.4500X0.6000*%
%ADD22R,0.6000X0.4500*%
%ADD23R,0.4000X0.6000*%
%ADD24R,0.6000X0.4000*%
%ADD32R,0.9000X0.5000*%
%ADD33R,1.3000X0.8000*%
%ADD37R,0.7016X2.1016*%
%ADD38R,2.3016X0.7016*%
%ADD39R,0.4516X1.5016*%
%ADD40R,0.8016X1.0016*%
%ADD41R,1.9016X1.3016*%
%ADD42R,0.6516X1.6016*%
%ADD43R,1.6016X0.6516*%
%ADD44R,0.9516X0.5016*%
%ADD45R,1.5016X0.5516*%
%ADD46R,0.8516X0.8016*%
%ADD47C,0.1016*%
%ADD48C,1.6016*%
%ADD49R,1.6016X1.6016*%
%ADD50C,1.3716*%
%ADD51R,1.3716X1.3716*%
%ADD52R,1.6256X1.6256*%
%ADD53C,1.6256*%
%ADD54C,5.6016*%
D20*
Y261586D01*
Y0D02*
X600202D01*
Y350012D01*
X129000D02*
X600202D01*
X126828Y350000D02*
X129000Y350012D01*
X126156Y350000D02*
X126828Y350000D01*
X124837Y349738D02*
X126156Y350000D01*
X123594Y349223D02*
X124837Y349738D01*
X122476Y348475D02*
X123594Y349223D01*
X122000Y348000D02*
X122476Y348475D01*
X121524Y347524D02*
X122000Y348000D01*
X120777Y346406D02*
X121524Y347524D01*
X120262Y345163D02*
X120777Y346406D01*
X120000Y343844D02*
X120262Y345163D01*
X120000Y343172D02*
Y343844D01*
X120000Y274828D02*
X120000Y343172D01*
X120000Y274828D02*
X120053Y273918D01*
X119892Y272102D02*
X120053Y273918D01*
X119380Y270353D02*
X119892Y272102D01*
X118536Y268738D02*
X119380Y270353D01*
X118000Y268000D02*
X118536Y268738D01*
X117184Y267300D02*
X118000Y268000D01*
X115368Y266155D02*
X117184Y267300D01*
X113363Y265387D02*
X115368Y266155D01*
X111246Y265024D02*
X113363Y265387D01*
X110172Y265000D02*
X111246Y265024D01*
X3414Y265000D02*
X110172D01*
X3078Y265000D02*
X3414Y265000D01*
X2418Y264869D02*
X3078Y265000D01*
X1797Y264611D02*
X2418Y264869D01*
X1238Y264238D02*
X1797Y264611D01*
X1000Y264000D02*
X1238Y264238D01*
X762Y263762D02*
X1000Y264000D01*
X389Y263203D02*
X762Y263762D01*
X131Y262582D02*
X389Y263203D01*
X0Y261922D02*
X131Y262582D01*
X0Y261586D02*
Y261922D01*
D21*
X261000Y237000D02*
D03*
X271000D02*
D03*
X309800Y87884D02*
D03*
X299800D02*
D03*
D22*
X505460Y229000D02*
D03*
Y239000D02*
D03*
X21104Y104426D02*
D03*
Y94426D02*
D03*
Y163882D02*
D03*
Y153882D02*
D03*
X19396Y224080D02*
D03*
Y214080D02*
D03*
X471632Y148764D02*
D03*
Y138764D02*
D03*
X471520Y132353D02*
D03*
Y122353D02*
D03*
X154000Y232000D02*
D03*
Y242000D02*
D03*
X350000Y149730D02*
D03*
Y139730D02*
D03*
D23*
X344688Y248666D02*
D03*
X353688D02*
D03*
X344688Y236474D02*
D03*
X353688D02*
D03*
X133500Y203000D02*
D03*
X124500D02*
D03*
X133500Y192786D02*
D03*
X124500D02*
D03*
X576322Y259842D02*
D03*
X585322D02*
D03*
X576322Y227025D02*
D03*
X585322D02*
D03*
X576322Y243434D02*
D03*
X585322D02*
D03*
X583500Y90424D02*
D03*
X574500D02*
D03*
X583500Y126238D02*
D03*
X574500D02*
D03*
X583500Y108204D02*
D03*
X574500D02*
D03*
X159996Y218190D02*
D03*
X150996D02*
D03*
X162632Y265430D02*
D03*
X171632D02*
D03*
X244166Y258826D02*
D03*
X253166D02*
D03*
Y251206D02*
D03*
X244166D02*
D03*
X253166Y243586D02*
D03*
X244166D02*
D03*
X253166Y230378D02*
D03*
X244166D02*
D03*
Y221996D02*
D03*
X253166D02*
D03*
D24*
X100000Y37500D02*
D03*
Y46500D02*
D03*
X90218Y37500D02*
D03*
Y46500D02*
D03*
X329692Y59508D02*
D03*
Y68508D02*
D03*
X120396Y85367D02*
D03*
Y76367D02*
D03*
X21481Y122500D02*
D03*
Y131500D02*
D03*
X21299Y183968D02*
D03*
Y192968D02*
D03*
X19595Y242774D02*
D03*
Y251774D02*
D03*
D32*
X483421Y117407D02*
D03*
Y132407D02*
D03*
D33*
X141364Y227500D02*
D03*
Y246500D02*
D03*
X337000Y152500D02*
D03*
Y133500D02*
D03*
D37*
X139850Y68902D02*
D03*
X152550D02*
D03*
X165250D02*
D03*
X177950D02*
D03*
X190650D02*
D03*
X203350D02*
D03*
X216050D02*
D03*
X228750D02*
D03*
X241450D02*
D03*
X254150D02*
D03*
Y161902D02*
D03*
X241450D02*
D03*
X228750D02*
D03*
X216050D02*
D03*
X203350D02*
D03*
X190650D02*
D03*
X177950D02*
D03*
X165250D02*
D03*
X152550D02*
D03*
X139850D02*
D03*
D38*
X228180Y218190D02*
D03*
Y230890D02*
D03*
Y256290D02*
D03*
X176180Y218190D02*
D03*
Y230890D02*
D03*
Y256290D02*
D03*
X228180Y243590D02*
D03*
X176180D02*
D03*
X45356Y118954D02*
D03*
X97356D02*
D03*
X45356Y131654D02*
D03*
Y106254D02*
D03*
Y93554D02*
D03*
X97356Y131654D02*
D03*
Y106254D02*
D03*
Y93554D02*
D03*
X97212Y154686D02*
D03*
Y167386D02*
D03*
Y192786D02*
D03*
X45212Y154686D02*
D03*
Y167386D02*
D03*
Y192786D02*
D03*
X97212Y180086D02*
D03*
X45212D02*
D03*
X95000Y214000D02*
D03*
Y226700D02*
D03*
Y252100D02*
D03*
X43000Y214000D02*
D03*
Y226700D02*
D03*
Y252100D02*
D03*
X95000Y239400D02*
D03*
X43000D02*
D03*
D39*
X579824Y205000D02*
D03*
X573324D02*
D03*
X566824D02*
D03*
X560324D02*
D03*
X553824D02*
D03*
X547324D02*
D03*
X540824D02*
D03*
X534324D02*
D03*
X579824Y151000D02*
D03*
X573324D02*
D03*
X566824D02*
D03*
X560324D02*
D03*
X553824D02*
D03*
X547324D02*
D03*
X540824D02*
D03*
X534324D02*
D03*
D40*
X548250Y108966D02*
D03*
X563250D02*
D03*
X548250Y126238D02*
D03*
X563250D02*
D03*
X548250Y91186D02*
D03*
X563250D02*
D03*
X563252Y226522D02*
D03*
X548252D02*
D03*
X563252Y260528D02*
D03*
X548252D02*
D03*
X563252Y243525D02*
D03*
X548252D02*
D03*
D41*
X378780Y81580D02*
D03*
X418780D02*
D03*
Y57580D02*
D03*
X378780D02*
D03*
D42*
X386020Y187780D02*
D03*
X394020D02*
D03*
X402020D02*
D03*
X410020D02*
D03*
X418020D02*
D03*
X426020D02*
D03*
X434020D02*
D03*
X442020D02*
D03*
Y101780D02*
D03*
X434020D02*
D03*
X426020D02*
D03*
X418020D02*
D03*
X410020D02*
D03*
X402020D02*
D03*
X394020D02*
D03*
X386020D02*
D03*
D43*
X457020Y172780D02*
D03*
Y164780D02*
D03*
Y156780D02*
D03*
Y148780D02*
D03*
Y140780D02*
D03*
Y132780D02*
D03*
Y124780D02*
D03*
Y116780D02*
D03*
X371020D02*
D03*
Y124780D02*
D03*
Y132780D02*
D03*
Y140780D02*
D03*
Y148780D02*
D03*
Y156780D02*
D03*
Y164780D02*
D03*
Y172780D02*
D03*
D44*
X315796Y60048D02*
D03*
Y66548D02*
D03*
Y73048D02*
D03*
X293296D02*
D03*
Y60048D02*
D03*
D45*
X433542Y272940D02*
D03*
Y266440D02*
D03*
Y259940D02*
D03*
Y253440D02*
D03*
Y246940D02*
D03*
Y240440D02*
D03*
Y233940D02*
D03*
Y227440D02*
D03*
X492542Y272940D02*
D03*
Y266440D02*
D03*
Y259940D02*
D03*
Y253440D02*
D03*
Y246940D02*
D03*
Y240440D02*
D03*
Y233940D02*
D03*
Y227440D02*
D03*
D46*
X158250Y326000D02*
D03*
Y294000D02*
D03*
X141750D02*
D03*
Y326000D02*
D03*
D47*
X128000Y178900D02*
D03*
X192000D02*
D03*
D48*
X379851Y31000D02*
D03*
X354450D02*
D03*
X405251D02*
D03*
X430650D02*
D03*
X456050D02*
D03*
X481451D02*
D03*
X278251D02*
D03*
X252850D02*
D03*
X303650D02*
D03*
X329050D02*
D03*
X227451D02*
D03*
X202050D02*
D03*
X151250D02*
D03*
X176651D02*
D03*
D49*
X125850D02*
D03*
D50*
X489204Y300300D02*
D03*
Y325700D02*
D03*
X463804Y300300D02*
D03*
Y325700D02*
D03*
X399034Y300300D02*
D03*
Y325700D02*
D03*
X373634Y300300D02*
D03*
Y325700D02*
D03*
X348234D02*
D03*
D51*
Y300300D02*
D03*
D52*
X256400Y322000D02*
D03*
D53*
X231000D02*
D03*
X205600D02*
D03*
X256400Y288980D02*
D03*
X231000D02*
D03*
X205600D02*
D03*
D54*
X552000Y50000D02*
D03*
Y300000D02*
D03*
X52000Y50000D02*
D03*
M02*
