G04*
G04 #@! TF.GenerationSoftware,Altium Limited,Altium Designer,18.1.9 (240)*
G04*
G04 Layer_Physical_Order=4*
G04 Layer_Color=16711680*
%FSLAX44Y44*%
%MOMM*%
G71*
G01*
G75*
%ADD10C,0.2000*%
%ADD11C,0.3000*%
%ADD20C,0.1520*%
%ADD21R,0.4500X0.6000*%
%ADD22R,0.6000X0.4500*%
%ADD23R,0.4000X0.6000*%
%ADD55C,1.5000*%
%ADD56R,1.5000X1.5000*%
%ADD57C,1.2700*%
%ADD58R,1.2700X1.2700*%
%ADD59R,1.5240X1.5240*%
%ADD60C,1.5240*%
%ADD61C,5.5000*%
%ADD62C,0.6000*%
%ADD63R,0.3000X0.7000*%
%ADD64C,0.3500*%
D10*
X174736Y208524D02*
X202428D01*
X172500Y206288D02*
X174736Y208524D01*
X202428D02*
X202438Y208534D01*
X356600Y28851D02*
Y34528D01*
X167500Y135772D02*
Y155900D01*
Y135772D02*
X171524Y131748D01*
X172500Y135756D02*
Y155900D01*
Y135756D02*
X175048Y133208D01*
X176182Y150164D02*
X177500Y151482D01*
X176182Y137057D02*
Y150164D01*
Y137057D02*
X178572Y134667D01*
Y113952D02*
Y134667D01*
X165094Y130366D02*
X166000Y129460D01*
X125000Y130366D02*
X165094D01*
X171524Y102973D02*
Y131748D01*
X175048Y98685D02*
Y133208D01*
X182096Y121180D02*
Y147486D01*
Y121180D02*
X186944Y116332D01*
X178572Y113952D02*
X182524Y110000D01*
X181706Y147876D02*
X182096Y147486D01*
X129814Y53451D02*
X175048Y98685D01*
X127526Y58975D02*
X171524Y102973D01*
X119476Y134842D02*
Y148336D01*
X114094Y129460D02*
X119476Y134842D01*
X114094Y24187D02*
Y129460D01*
X119476Y148336D02*
X151664Y180524D01*
X128000Y46653D02*
X211836Y130489D01*
X147590Y59419D02*
X215360Y127189D01*
X182500Y89345D02*
X218884Y125729D01*
X191476Y93337D02*
X222408Y124269D01*
X191476Y80712D02*
Y93337D01*
X199000Y92000D02*
X225932Y118932D01*
X197812Y83000D02*
X229456Y114644D01*
X222408Y124269D02*
Y166721D01*
X182500Y55312D02*
Y89345D01*
X218884Y125729D02*
Y168181D01*
X182500Y55312D02*
X182524Y55288D01*
Y50526D02*
Y55288D01*
X147590Y34660D02*
Y59419D01*
X215360Y127189D02*
Y169641D01*
X128000Y28851D02*
Y46653D01*
X211836Y130489D02*
Y171100D01*
X229456Y114644D02*
Y163802D01*
X225932Y118932D02*
Y165262D01*
X197000Y83000D02*
X197812D01*
X191476Y80712D02*
X213213Y58975D01*
X252850Y31000D02*
Y48851D01*
X204200Y28851D02*
X205946Y30596D01*
X225932Y165262D02*
X226620Y165950D01*
Y177620D01*
X254000Y205000D01*
X223096Y167409D02*
Y198479D01*
X212524Y171788D02*
Y190288D01*
X211836Y171100D02*
X212524Y171788D01*
X216048Y170329D02*
Y191748D01*
X215360Y169641D02*
X216048Y170329D01*
X219572Y168869D02*
Y199274D01*
X218884Y168181D02*
X219572Y168869D01*
X222408Y166721D02*
X223096Y167409D01*
X230144Y164490D02*
Y170144D01*
X229456Y163802D02*
X230144Y164490D01*
Y170144D02*
X258000Y198000D01*
X254000Y205000D02*
X265000D01*
X281288Y216852D02*
X313389Y184752D01*
X281088Y224028D02*
X324086Y181030D01*
X259588Y224028D02*
X281088D01*
X324086Y178544D02*
Y181030D01*
X248652Y216852D02*
X281288D01*
X313389Y183533D02*
Y184752D01*
X241604Y209804D02*
X248652Y216852D01*
X213213Y58975D02*
X240025D01*
X198628Y255270D02*
X223349Y230549D01*
Y198732D02*
Y230549D01*
X223096Y198479D02*
X223349Y198732D01*
X240025Y58975D02*
X251999Y47000D01*
X182524Y50526D02*
X202050Y31000D01*
X389890Y152400D02*
X392430Y149860D01*
X229600Y28851D02*
Y32600D01*
X244000Y47000D01*
X251999Y48000D02*
X252850Y48851D01*
X68580Y93980D02*
Y217424D01*
X207000Y183967D02*
Y188000D01*
X198044Y191044D02*
Y195834D01*
X196436D02*
X198044D01*
X217825Y201021D02*
X219572Y199274D01*
X157000Y162000D02*
X172000Y177000D01*
X152712Y165524D02*
X173112Y185924D01*
X167500Y185296D02*
Y201900D01*
X162728Y180524D02*
X167500Y185296D01*
X151664Y180524D02*
X162728D01*
X157000Y186436D02*
X157480Y186916D01*
Y201880D01*
X141648Y165524D02*
X152712D01*
X173112Y185924D02*
X192924D01*
X145000Y162000D02*
X157000D01*
X192924Y185924D02*
X198044Y191044D01*
X177500Y151482D02*
Y155900D01*
X355600Y108712D02*
X377254Y130366D01*
X124856Y53451D02*
X129814D01*
X119888Y58419D02*
X124856Y53451D01*
X265240Y97373D02*
X293068Y69545D01*
X265240Y97373D02*
Y168240D01*
X266000Y169000D01*
X295000Y177309D02*
X301244Y171064D01*
X292999Y179309D02*
Y185000D01*
Y179309D02*
X295000Y177309D01*
X207962Y194850D02*
Y219037D01*
Y194850D02*
X212524Y190288D01*
X190164Y167131D02*
X207000Y183967D01*
X167477Y167131D02*
X190164D01*
X212301Y229319D02*
X213614Y230632D01*
X212301Y195494D02*
Y229319D01*
Y195494D02*
X216048Y191748D01*
X202000Y225000D02*
X207962Y219037D01*
X232410Y209804D02*
X241604D01*
X311235Y178009D02*
X313000Y176244D01*
X311100Y178009D02*
X311235D01*
X307864Y181245D02*
X311100Y178009D01*
X307864Y181245D02*
Y181380D01*
X301244Y188000D02*
X307864Y181380D01*
X313000Y166116D02*
Y176244D01*
X284226Y235176D02*
X334000Y185402D01*
Y153000D02*
Y185402D01*
Y153000D02*
X354000Y133000D01*
X284226Y235176D02*
Y263652D01*
X296546Y252096D02*
X306070Y261620D01*
X296546Y236908D02*
Y252096D01*
Y236908D02*
X342486Y190968D01*
Y170686D02*
Y190968D01*
Y170686D02*
X348172Y165000D01*
X302070Y236930D02*
X348010Y190990D01*
Y172974D02*
Y190990D01*
X302070Y236930D02*
Y248666D01*
X348172Y165000D02*
X348999D01*
X362000Y236474D02*
X365524Y232950D01*
Y136712D02*
Y232950D01*
X356288Y127476D02*
X365524Y136712D01*
X356077Y127476D02*
X356288D01*
X330454Y101853D02*
X356077Y127476D01*
X330454Y100584D02*
Y101853D01*
X346044Y95916D02*
Y112460D01*
Y95916D02*
X352298Y89662D01*
X346044Y112460D02*
X357536Y123952D01*
X369158Y135362D02*
Y187812D01*
X357748Y123952D02*
X369158Y135362D01*
X357536Y123952D02*
X357748D01*
X349568Y111000D02*
X358996Y120428D01*
X349568Y99058D02*
Y111000D01*
Y99058D02*
X352804Y95822D01*
X364094D01*
X364538Y96266D01*
X372682Y133903D02*
Y186352D01*
X359207Y120428D02*
X372682Y133903D01*
X358996Y120428D02*
X359207D01*
X369158Y187812D02*
X394960Y213614D01*
X440842D01*
X372682Y186352D02*
X395118Y208788D01*
X441763D01*
X374000Y200466D02*
Y246778D01*
X369778Y251000D02*
X374000Y246778D01*
X352298Y89662D02*
X352806D01*
X331200Y28851D02*
Y31988D01*
X73914Y96840D02*
Y143764D01*
X378254Y183944D02*
X451560D01*
X377254Y158560D02*
X394020Y175326D01*
X377254Y130366D02*
Y158560D01*
X356616Y101346D02*
X382778Y127508D01*
X392430Y115345D02*
Y149860D01*
X355523Y78438D02*
X392430Y115345D01*
X417627Y117784D02*
X476504Y176661D01*
X426720Y121129D02*
X487934Y182343D01*
X426720Y114300D02*
Y121129D01*
X487934Y182343D02*
Y182372D01*
X417627Y114415D02*
Y117784D01*
X476504Y176661D02*
Y181178D01*
X404000Y79502D02*
Y115367D01*
X408686Y70770D02*
Y74816D01*
X404000Y79502D02*
X408686Y74816D01*
X399542Y75044D02*
X404000Y79502D01*
X399542Y70770D02*
Y75044D01*
X14000Y148156D02*
Y248666D01*
X137500Y215526D02*
Y267548D01*
Y201900D02*
Y215526D01*
X170247Y225238D02*
X192280D01*
X164115Y219106D02*
X170247Y225238D01*
X152208Y219106D02*
X164115D01*
X142500Y209398D02*
X152208Y219106D01*
X153668Y215582D02*
X165574D01*
X147500Y209414D02*
X153668Y215582D01*
X171706Y221714D02*
X198662D01*
X165574Y215582D02*
X171706Y221714D01*
X200402Y218190D02*
X201676Y216916D01*
X201947Y225000D02*
X202000D01*
X197674Y230632D02*
X213614D01*
X192280Y225238D02*
X197674Y230632D01*
X147500Y201900D02*
Y209414D01*
X162500Y207524D02*
X173166Y218190D01*
X162500Y201900D02*
Y207524D01*
X155956Y209550D02*
Y210058D01*
X142500Y201900D02*
Y209398D01*
X133000Y211026D02*
X137500Y215526D01*
X198662Y221714D02*
X201947Y225000D01*
X59766Y244846D02*
X61468Y243144D01*
Y186436D02*
Y243144D01*
X59764Y244844D02*
X59766Y244846D01*
X73914Y209914D02*
X76000Y212000D01*
X73914Y143764D02*
Y209914D01*
X200740Y284120D02*
X205600Y288980D01*
X256400Y322000D02*
X273000D01*
X281000Y314000D01*
X359934D01*
X373634Y300300D01*
X590000Y211328D02*
X590500Y211828D01*
Y218315D01*
X581185Y218000D02*
X581500Y218315D01*
X574999Y218000D02*
X581185D01*
X579500Y186000D02*
X580000Y186500D01*
X589000Y194000D02*
X589500Y193500D01*
Y186000D02*
Y193500D01*
X580000Y186500D02*
Y194000D01*
X590000Y162244D02*
Y170000D01*
Y162000D02*
Y162244D01*
X579824Y169824D02*
X580000Y170000D01*
X579824Y162244D02*
Y169824D01*
X191430Y53000D02*
X196902D01*
X191055Y52625D02*
X191430Y53000D01*
X205902D02*
X212402D01*
X153114D02*
X160250D01*
X147590Y34660D02*
X151250Y31000D01*
X170250Y53000D02*
X177000D01*
X441708Y201740D02*
X478790Y238822D01*
X418020Y201740D02*
X441708D01*
X478790Y238822D02*
Y239776D01*
X445390Y196216D02*
X460502Y211328D01*
X415732Y196216D02*
X445390D01*
X413361Y198587D02*
X415732Y196216D01*
X410020Y198587D02*
X413361D01*
X473061Y256032D02*
X473064Y256030D01*
X450778Y256032D02*
X473061D01*
X450647Y278647D02*
X452000Y280000D01*
X450647Y269494D02*
Y278647D01*
X566928Y217170D02*
Y224953D01*
X569000Y227025D01*
X592023D01*
X399542Y57846D02*
Y60770D01*
X396000Y54304D02*
X399542Y57846D01*
X396000Y54304D02*
Y56228D01*
X14000Y148156D02*
X24784Y137372D01*
Y82216D02*
Y137372D01*
Y82216D02*
X26000Y81000D01*
X17272Y81728D02*
Y139900D01*
Y81728D02*
X18000Y81000D01*
X10000Y81000D02*
Y128000D01*
X8000Y149172D02*
X17272Y139900D01*
X172500Y201900D02*
Y206288D01*
X363010Y276814D02*
X369824Y270000D01*
X243166Y276814D02*
X363010D01*
X411480Y219710D02*
X434848D01*
X358170Y273020D02*
X411480Y219710D01*
X137500Y155900D02*
Y161376D01*
X141648Y165524D01*
X142500Y159500D02*
X145000Y162000D01*
X142500Y155900D02*
Y159500D01*
X481871Y269240D02*
X502325D01*
X472872Y269240D02*
Y278129D01*
X472000Y279000D02*
X472872Y278129D01*
X450647Y269494D02*
X450778Y269363D01*
Y256032D02*
Y269363D01*
X421298Y256032D02*
X441778D01*
X420141Y257189D02*
X421298Y256032D01*
X456946Y237490D02*
X469646D01*
X408686Y69770D02*
Y70770D01*
X142972Y273020D02*
X358170D01*
X73914Y86360D02*
X74104Y86550D01*
Y96650D01*
X73914Y96840D02*
X74104Y96650D01*
X547370Y122278D02*
X552086Y117562D01*
X580595D01*
X538550Y100514D02*
X581000D01*
X157480Y201880D02*
X157500Y201900D01*
X90218Y26638D02*
X103380Y13476D01*
X102902Y25860D02*
X111762Y17000D01*
X387714Y288980D02*
X399034Y300300D01*
X256400Y288980D02*
X387714D01*
X8000Y149172D02*
Y189000D01*
X267000Y30973D02*
Y62230D01*
X257003Y20976D02*
X267000Y30973D01*
X433815Y13476D02*
Y13990D01*
X444524Y24698D01*
Y50540D01*
X447906Y53922D01*
Y99164D01*
X441000Y26158D02*
Y52000D01*
X443842Y54842D01*
Y121262D01*
X431842Y17000D02*
X441000Y26158D01*
X103380Y13476D02*
X433815D01*
X117305Y20976D02*
X155403D01*
X114094Y24187D02*
X117305Y20976D01*
X111762Y17000D02*
X431842D01*
X293068Y27406D02*
Y69545D01*
Y27406D02*
X299499Y20976D01*
X369827D02*
X379851Y31000D01*
X299499Y20976D02*
X369827D01*
X187493Y31000D02*
X197517Y20976D01*
X231603D01*
X231627Y21000D01*
X248674D01*
X248699Y20976D01*
X257003D01*
X176651Y31000D02*
X187493D01*
X114094Y23805D02*
Y24187D01*
X155403Y20976D02*
X165427Y31000D01*
X176651D01*
X484378Y157226D02*
X490220Y163068D01*
X488950Y78410D02*
X510464D01*
X408686Y60452D02*
X416306Y68072D01*
X408686Y59770D02*
Y60452D01*
X152406Y29845D02*
X153400Y28851D01*
X128000D02*
X128230D01*
X231000Y288980D02*
X243166Y276814D01*
X205600Y328536D02*
X218186Y341122D01*
X205600Y322000D02*
Y328536D01*
X463804Y300482D02*
X489204D01*
X463804D02*
Y305562D01*
X428244Y341122D02*
X463804Y305562D01*
X382778Y127508D02*
Y156054D01*
X505714Y258318D02*
X506176D01*
X503426Y256030D02*
X505714Y258318D01*
X482063Y256030D02*
X503426D01*
X355092Y101346D02*
X356616D01*
X354978Y78438D02*
X355523D01*
X364538Y93200D02*
Y96266D01*
X354095Y83360D02*
X354698D01*
X364538Y93200D01*
X342138Y79502D02*
X352298Y89662D01*
X364538Y100378D02*
X373126Y108966D01*
X364538Y96266D02*
Y100378D01*
X355346Y108966D02*
X355600Y108712D01*
X419608Y248920D02*
X420116Y249428D01*
X204216Y325120D02*
Y327152D01*
X218186Y341122D02*
X428244D01*
X534162Y104902D02*
Y137414D01*
Y104902D02*
X538550Y100514D01*
X547370Y122278D02*
Y163068D01*
X112268Y210570D02*
X120013Y218315D01*
X112268Y138938D02*
Y210570D01*
X306070Y261620D02*
X307594D01*
X441763Y208788D02*
X451866Y218891D01*
X440842Y213614D02*
X446532Y219304D01*
X180594Y265684D02*
X282194D01*
X284226Y263652D01*
X137500Y267548D02*
X142972Y273020D01*
X152500Y201900D02*
Y206094D01*
X155956Y209550D01*
X173166Y218190D02*
X200402D01*
X460502Y211328D02*
X526796D01*
X460502Y205486D02*
X525780D01*
X449160Y194144D02*
X460502Y205486D01*
X449160Y189738D02*
Y194144D01*
X398574Y179880D02*
X456232D01*
X394020Y175326D02*
X398574Y179880D01*
X415033Y175816D02*
X457915D01*
X392430Y153213D02*
X415033Y175816D01*
X470567Y188468D02*
X517652D01*
X457915Y175816D02*
X470567Y188468D01*
X476758Y200406D02*
X522224D01*
X456232Y179880D02*
X476758Y200406D01*
X527050Y181732D02*
Y195580D01*
X522224Y200406D02*
X527050Y195580D01*
X554990Y163830D02*
Y176276D01*
X525780Y205486D02*
X554990Y176276D01*
X566674Y164338D02*
Y171450D01*
X526796Y211328D02*
X566674Y171450D01*
X447906Y99164D02*
X457020Y108278D01*
X443842Y121262D02*
X445262Y122682D01*
X434340Y112776D02*
Y120584D01*
X446024Y239268D02*
X446532Y238760D01*
X451560Y183944D02*
X463296Y195680D01*
Y196596D01*
X457200Y237744D02*
X457708D01*
X456946Y237490D02*
X457200Y237744D01*
X451866Y218891D02*
Y244602D01*
X434340Y120584D02*
X493842Y180086D01*
X495554D01*
X490220Y163068D02*
X537464D01*
X450088Y246380D02*
X451866Y244602D01*
X446532Y219304D02*
Y238760D01*
X420624Y269240D02*
X420878Y269494D01*
X441646D01*
X505119Y266446D02*
X505460D01*
X502325Y269240D02*
X505119Y266446D01*
X540824Y257360D02*
X543306Y259842D01*
X540824Y216466D02*
Y257360D01*
X543306Y259842D02*
X592074D01*
X553974Y216662D02*
Y242062D01*
X555346Y243434D01*
X378206Y183896D02*
X378254Y183944D01*
X555346Y243434D02*
X591668D01*
X162500Y162154D02*
X167477Y167131D01*
X162500Y155900D02*
Y162154D01*
X399796Y145796D02*
X401320Y144272D01*
X346202Y75467D02*
X354095Y83360D01*
X351584Y75044D02*
X354978Y78438D01*
X342138Y42926D02*
Y79502D01*
X331200Y31988D02*
X342138Y42926D01*
X346202Y44926D02*
X356600Y34528D01*
X346202Y44926D02*
Y75467D01*
X392430Y152400D02*
Y153213D01*
X389890Y152400D02*
X392430D01*
X351584Y63198D02*
Y75044D01*
Y63198D02*
X352552Y62230D01*
X73914Y143764D02*
X74676Y143002D01*
Y142494D02*
Y143002D01*
X73406Y143764D02*
X73914D01*
X67310Y152400D02*
X68072D01*
X61468Y126492D02*
Y186436D01*
X60960Y125984D02*
X61468Y126492D01*
D11*
X194000Y203000D02*
X195000D01*
X188430D02*
X194000D01*
X187330Y201900D02*
X188430Y203000D01*
X143000Y147123D02*
X147500Y151623D01*
X143000Y143000D02*
Y147123D01*
X147500Y151623D02*
Y155900D01*
X136764Y143000D02*
X143000D01*
X189230Y146812D02*
X196228D01*
X159004Y139996D02*
Y146558D01*
X157500Y148062D02*
X159004Y146558D01*
X157500Y148062D02*
Y155900D01*
X182500Y201900D02*
X187330D01*
X189230Y146812D02*
Y149170D01*
X182500Y155900D02*
X189230Y149170D01*
D20*
X0Y0D02*
Y261586D01*
Y0D02*
X600202D01*
Y350012D01*
X129000D02*
X600202D01*
X126828Y350000D02*
X129000Y350012D01*
X126156Y350000D02*
X126828Y350000D01*
X124837Y349738D02*
X126156Y350000D01*
X123594Y349223D02*
X124837Y349738D01*
X122476Y348475D02*
X123594Y349223D01*
X122000Y348000D02*
X122476Y348475D01*
X121524Y347524D02*
X122000Y348000D01*
X120777Y346406D02*
X121524Y347524D01*
X120262Y345163D02*
X120777Y346406D01*
X120000Y343844D02*
X120262Y345163D01*
X120000Y343172D02*
Y343844D01*
X120000Y274828D02*
X120000Y343172D01*
X120000Y274828D02*
X120053Y273918D01*
X119892Y272102D02*
X120053Y273918D01*
X119380Y270353D02*
X119892Y272102D01*
X118536Y268738D02*
X119380Y270353D01*
X118000Y268000D02*
X118536Y268738D01*
X117184Y267300D02*
X118000Y268000D01*
X115368Y266155D02*
X117184Y267300D01*
X113363Y265387D02*
X115368Y266155D01*
X111246Y265024D02*
X113363Y265387D01*
X110172Y265000D02*
X111246Y265024D01*
X3414Y265000D02*
X110172D01*
X3078Y265000D02*
X3414Y265000D01*
X2418Y264869D02*
X3078Y265000D01*
X1797Y264611D02*
X2418Y264869D01*
X1238Y264238D02*
X1797Y264611D01*
X1000Y264000D02*
X1238Y264238D01*
X762Y263762D02*
X1000Y264000D01*
X389Y263203D02*
X762Y263762D01*
X131Y262582D02*
X389Y263203D01*
X0Y261922D02*
X131Y262582D01*
X0Y261586D02*
Y261922D01*
D21*
X580000Y170000D02*
D03*
X590000D02*
D03*
X170250Y53000D02*
D03*
X160250D02*
D03*
D22*
X399542Y70770D02*
D03*
Y60770D02*
D03*
X408686Y70770D02*
D03*
Y60770D02*
D03*
D23*
X581500Y218315D02*
D03*
X590500D02*
D03*
X589500Y186000D02*
D03*
X580500D02*
D03*
X196902Y53000D02*
D03*
X205902D02*
D03*
X481871Y269240D02*
D03*
X472872D02*
D03*
X450778Y256032D02*
D03*
X441778D02*
D03*
X450647Y269494D02*
D03*
X441646D02*
D03*
X473064Y256030D02*
D03*
X482063D02*
D03*
D55*
X379851Y31000D02*
D03*
X354450D02*
D03*
X405251D02*
D03*
X430650D02*
D03*
X456050D02*
D03*
X481451D02*
D03*
X278251D02*
D03*
X252850D02*
D03*
X303650D02*
D03*
X329050D02*
D03*
X227451D02*
D03*
X202050D02*
D03*
X151250D02*
D03*
X176651D02*
D03*
D56*
X125850D02*
D03*
D57*
X489204Y300300D02*
D03*
Y325700D02*
D03*
X463804Y300300D02*
D03*
Y325700D02*
D03*
X399034Y300300D02*
D03*
Y325700D02*
D03*
X373634Y300300D02*
D03*
Y325700D02*
D03*
X348234D02*
D03*
D58*
Y300300D02*
D03*
D59*
X256400Y322000D02*
D03*
D60*
X231000D02*
D03*
X205600D02*
D03*
X256400Y288980D02*
D03*
X231000D02*
D03*
X205600D02*
D03*
D61*
X552000Y50000D02*
D03*
Y300000D02*
D03*
X52000Y50000D02*
D03*
D62*
X194000Y203000D02*
D03*
X187330Y201900D02*
D03*
X151198Y140049D02*
D03*
Y146802D02*
D03*
X136764Y143000D02*
D03*
X143000D02*
D03*
X196228Y146812D02*
D03*
X159004Y139996D02*
D03*
Y146558D02*
D03*
X166000Y129460D02*
D03*
X125000Y130366D02*
D03*
X182524Y110000D02*
D03*
X199000Y92000D02*
D03*
X186944Y116332D02*
D03*
X265000Y205000D02*
D03*
X258000Y198000D02*
D03*
X197000Y83000D02*
D03*
X251999Y47000D02*
D03*
X244000D02*
D03*
X177500Y195096D02*
D03*
X207000Y188000D02*
D03*
X198044Y195834D02*
D03*
X217825Y201021D02*
D03*
X172000Y177000D02*
D03*
X157000Y186436D02*
D03*
X181706Y147876D02*
D03*
X266000Y169000D02*
D03*
X292999Y185000D02*
D03*
X232410Y209804D02*
D03*
X301244Y188000D02*
D03*
X161000Y234380D02*
D03*
Y242000D02*
D03*
Y248666D02*
D03*
X348999Y165000D02*
D03*
X360000Y149000D02*
D03*
X354000Y133000D02*
D03*
X374000Y200466D02*
D03*
X426720Y153000D02*
D03*
X420386Y129762D02*
D03*
X399796D02*
D03*
X404000Y115367D02*
D03*
X479999Y140000D02*
D03*
X313000Y166116D02*
D03*
X362000Y236474D02*
D03*
X161000Y227440D02*
D03*
X201676Y216916D02*
D03*
X202000Y225000D02*
D03*
X213614Y230632D02*
D03*
X202438Y208534D02*
D03*
X155956Y210058D02*
D03*
X133000Y211026D02*
D03*
X132000Y294000D02*
D03*
X12296Y246512D02*
D03*
X59766Y244846D02*
D03*
X76000Y212000D02*
D03*
X590000Y211328D02*
D03*
X574999Y218000D02*
D03*
X589000Y194000D02*
D03*
X580000D02*
D03*
X590000Y162244D02*
D03*
X579824D02*
D03*
X191055Y52625D02*
D03*
X212402Y53000D02*
D03*
X153114D02*
D03*
X177000D02*
D03*
X452000Y280000D02*
D03*
X271000Y244475D02*
D03*
X433000Y58975D02*
D03*
X396000Y54304D02*
D03*
X505454Y223376D02*
D03*
X504000Y245620D02*
D03*
X26000Y81000D02*
D03*
X18000D02*
D03*
X10000Y81000D02*
D03*
Y128000D02*
D03*
X369778Y251000D02*
D03*
X369824Y270000D02*
D03*
X338000Y248666D02*
D03*
X337960Y236474D02*
D03*
X302070Y248666D02*
D03*
X118000Y192786D02*
D03*
Y203000D02*
D03*
X472000Y279000D02*
D03*
X120396Y93000D02*
D03*
X580595Y117562D02*
D03*
X581000Y100514D02*
D03*
X102902Y25860D02*
D03*
X8000Y189000D02*
D03*
X27152Y226700D02*
D03*
X27744Y214846D02*
D03*
X30000Y153810D02*
D03*
X267000Y62230D02*
D03*
X484378Y157226D02*
D03*
X488950Y78410D02*
D03*
X259080Y251206D02*
D03*
X382778Y156054D02*
D03*
X506176Y258318D02*
D03*
X352806Y89662D02*
D03*
X355092Y101346D02*
D03*
X355346Y108966D02*
D03*
X420116Y249428D02*
D03*
X198628Y255270D02*
D03*
X29464Y167386D02*
D03*
X30390Y93554D02*
D03*
X30308Y106254D02*
D03*
X532130Y215900D02*
D03*
X532638Y91186D02*
D03*
X531830Y226522D02*
D03*
X534162Y137414D02*
D03*
X120013Y218315D02*
D03*
X112268Y138938D02*
D03*
X307594Y261620D02*
D03*
X418338Y241808D02*
D03*
X434848Y219710D02*
D03*
X348010Y172974D02*
D03*
X180594Y265684D02*
D03*
X301244Y171064D02*
D03*
X234980Y161514D02*
D03*
X259588Y224028D02*
D03*
X324086Y178544D02*
D03*
X313389Y183533D02*
D03*
X517652Y188468D02*
D03*
X527050Y181732D02*
D03*
X566674Y164338D02*
D03*
X554990Y163830D02*
D03*
X445262Y122682D02*
D03*
X446024Y239268D02*
D03*
X463296Y196596D02*
D03*
X476504Y181178D02*
D03*
X457708Y237744D02*
D03*
X469646Y237490D02*
D03*
X537464Y163068D02*
D03*
X495554Y180086D02*
D03*
X487934Y182372D02*
D03*
X450088Y246380D02*
D03*
X478790Y239776D02*
D03*
X420141Y257189D02*
D03*
X420624Y269240D02*
D03*
X505460Y266446D02*
D03*
X547370Y163068D02*
D03*
X540824Y216000D02*
D03*
X566928D02*
D03*
X553974D02*
D03*
X592023Y227025D02*
D03*
X591668Y243434D02*
D03*
X592074Y259842D02*
D03*
X416306Y69072D02*
D03*
X378206Y183896D02*
D03*
X189230Y146812D02*
D03*
X119888Y58419D02*
D03*
X127526Y58975D02*
D03*
X90218Y26638D02*
D03*
X394020Y175326D02*
D03*
X323202Y54304D02*
D03*
X287274Y87884D02*
D03*
X322072D02*
D03*
X235204Y67818D02*
D03*
X471520Y115367D02*
D03*
X483421Y110584D02*
D03*
X410020Y198587D02*
D03*
X418020Y201740D02*
D03*
X330454Y100584D02*
D03*
X373126Y108966D02*
D03*
X449160Y189738D02*
D03*
X392430Y152400D02*
D03*
X399796Y145796D02*
D03*
X379730Y70850D02*
D03*
X352552Y62230D02*
D03*
X74676Y142494D02*
D03*
X417627Y114415D02*
D03*
X426720Y114300D02*
D03*
X434340Y112776D02*
D03*
X68400Y216794D02*
D03*
X68072Y152400D02*
D03*
X68580Y93980D02*
D03*
X73914Y86360D02*
D03*
X60960Y125984D02*
D03*
X61468Y186436D02*
D03*
X510464Y78410D02*
D03*
X457020Y108278D02*
D03*
D63*
X137500Y155900D02*
D03*
Y201900D02*
D03*
X142500Y155900D02*
D03*
Y201900D02*
D03*
X147500Y155900D02*
D03*
Y201900D02*
D03*
X152500Y155900D02*
D03*
Y201900D02*
D03*
X157500Y155900D02*
D03*
Y201900D02*
D03*
X162500Y155900D02*
D03*
Y201900D02*
D03*
X167500Y155900D02*
D03*
Y201900D02*
D03*
X172500Y155900D02*
D03*
Y201900D02*
D03*
X177500Y155900D02*
D03*
Y201900D02*
D03*
X182500Y155900D02*
D03*
Y201900D02*
D03*
D64*
X151198Y140049D02*
Y146802D01*
X152500Y148104D02*
Y155900D01*
X151198Y146802D02*
X152500Y148104D01*
X177500Y195096D02*
Y201900D01*
M02*
