G04*
G04 #@! TF.GenerationSoftware,Altium Limited,Altium Designer,18.0.12 (696)*
G04*
G04 Layer_Color=255*
%FSLAX44Y44*%
%MOMM*%
G71*
G01*
G75*
%ADD20C,0.1520*%
%ADD21R,0.4500X0.6000*%
%ADD22R,0.6000X0.4500*%
%ADD23R,0.4000X0.6000*%
%ADD24R,0.6000X0.4000*%
%ADD25R,0.6000X2.0000*%
%ADD26R,2.2000X0.6000*%
%ADD27R,0.3500X1.4000*%
%ADD28R,0.7000X0.9000*%
%ADD29R,1.8000X1.2000*%
%ADD30R,0.5500X1.5000*%
%ADD31R,1.5000X0.5500*%
%ADD32R,0.9000X0.5000*%
%ADD33R,1.3000X0.8000*%
%ADD34R,0.8500X0.4000*%
%ADD35R,1.4000X0.4500*%
%ADD36R,0.7500X0.7000*%
%ADD55C,1.5000*%
%ADD56R,1.5000X1.5000*%
%ADD57C,1.2700*%
%ADD58R,1.2700X1.2700*%
%ADD59R,1.5240X1.5240*%
%ADD60C,1.5240*%
%ADD61C,5.5000*%
D20*
Y261586D01*
Y0D02*
X600202D01*
Y350012D01*
X129000D02*
X600202D01*
X126828Y350000D02*
X129000Y350012D01*
X126156Y350000D02*
X126828Y350000D01*
X124837Y349738D02*
X126156Y350000D01*
X123594Y349223D02*
X124837Y349738D01*
X122476Y348475D02*
X123594Y349223D01*
X122000Y348000D02*
X122476Y348475D01*
X121524Y347524D02*
X122000Y348000D01*
X120777Y346406D02*
X121524Y347524D01*
X120262Y345163D02*
X120777Y346406D01*
X120000Y343844D02*
X120262Y345163D01*
X120000Y343172D02*
Y343844D01*
X120000Y274828D02*
X120000Y343172D01*
X120000Y274828D02*
X120053Y273918D01*
X119892Y272102D02*
X120053Y273918D01*
X119380Y270353D02*
X119892Y272102D01*
X118536Y268738D02*
X119380Y270353D01*
X118000Y268000D02*
X118536Y268738D01*
X117184Y267300D02*
X118000Y268000D01*
X115368Y266155D02*
X117184Y267300D01*
X113363Y265387D02*
X115368Y266155D01*
X111246Y265024D02*
X113363Y265387D01*
X110172Y265000D02*
X111246Y265024D01*
X3414Y265000D02*
X110172D01*
X3078Y265000D02*
X3414Y265000D01*
X2418Y264869D02*
X3078Y265000D01*
X1797Y264611D02*
X2418Y264869D01*
X1238Y264238D02*
X1797Y264611D01*
X1000Y264000D02*
X1238Y264238D01*
X762Y263762D02*
X1000Y264000D01*
X389Y263203D02*
X762Y263762D01*
X131Y262582D02*
X389Y263203D01*
X0Y261922D02*
X131Y262582D01*
X0Y261586D02*
Y261922D01*
D21*
X261000Y237000D02*
D03*
X271000D02*
D03*
X309800Y87884D02*
D03*
X299800D02*
D03*
D22*
X505460Y229000D02*
D03*
Y239000D02*
D03*
X21104Y104426D02*
D03*
Y94426D02*
D03*
Y163882D02*
D03*
Y153882D02*
D03*
X19396Y224080D02*
D03*
Y214080D02*
D03*
X484632Y148764D02*
D03*
Y138764D02*
D03*
X477520Y132000D02*
D03*
Y122000D02*
D03*
X149352Y231982D02*
D03*
Y241982D02*
D03*
X344678Y149643D02*
D03*
Y139643D02*
D03*
D23*
X344688Y248666D02*
D03*
X353688D02*
D03*
X344688Y236474D02*
D03*
X353688D02*
D03*
X133500Y203000D02*
D03*
X124500D02*
D03*
X133500Y192786D02*
D03*
X124500D02*
D03*
X576322Y259842D02*
D03*
X585322D02*
D03*
X576322Y227025D02*
D03*
X585322D02*
D03*
X576322Y243434D02*
D03*
X585322D02*
D03*
X583500Y90424D02*
D03*
X574500D02*
D03*
X583500Y126238D02*
D03*
X574500D02*
D03*
X583500Y108204D02*
D03*
X574500D02*
D03*
X159996Y218190D02*
D03*
X150996D02*
D03*
X162632Y265430D02*
D03*
X171632D02*
D03*
X244166Y258826D02*
D03*
X253166D02*
D03*
Y251206D02*
D03*
X244166D02*
D03*
X253166Y243586D02*
D03*
X244166D02*
D03*
X253166Y230378D02*
D03*
X244166D02*
D03*
Y221996D02*
D03*
X253166D02*
D03*
D24*
X100000Y37500D02*
D03*
Y46500D02*
D03*
X90218Y37500D02*
D03*
Y46500D02*
D03*
X329692Y59508D02*
D03*
Y68508D02*
D03*
X120396Y85367D02*
D03*
Y76367D02*
D03*
X21481Y122500D02*
D03*
Y131500D02*
D03*
X21299Y183968D02*
D03*
Y192968D02*
D03*
X19595Y242774D02*
D03*
Y251774D02*
D03*
D25*
X139850Y68902D02*
D03*
X152550D02*
D03*
X165250D02*
D03*
X177950D02*
D03*
X190650D02*
D03*
X203350D02*
D03*
X216050D02*
D03*
X228750D02*
D03*
X241450D02*
D03*
X254150D02*
D03*
Y161902D02*
D03*
X241450D02*
D03*
X228750D02*
D03*
X216050D02*
D03*
X203350D02*
D03*
X190650D02*
D03*
X177950D02*
D03*
X165250D02*
D03*
X152550D02*
D03*
X139850D02*
D03*
D26*
X228180Y218190D02*
D03*
Y230890D02*
D03*
Y256290D02*
D03*
X176180Y218190D02*
D03*
Y230890D02*
D03*
Y256290D02*
D03*
X228180Y243590D02*
D03*
X176180D02*
D03*
X45356Y118954D02*
D03*
X97356D02*
D03*
X45356Y131654D02*
D03*
Y106254D02*
D03*
Y93554D02*
D03*
X97356Y131654D02*
D03*
Y106254D02*
D03*
Y93554D02*
D03*
X97212Y154686D02*
D03*
Y167386D02*
D03*
Y192786D02*
D03*
X45212Y154686D02*
D03*
Y167386D02*
D03*
Y192786D02*
D03*
X97212Y180086D02*
D03*
X45212D02*
D03*
X95000Y214000D02*
D03*
Y226700D02*
D03*
Y252100D02*
D03*
X43000Y214000D02*
D03*
Y226700D02*
D03*
Y252100D02*
D03*
X95000Y239400D02*
D03*
X43000D02*
D03*
D27*
X579824Y205000D02*
D03*
X573324D02*
D03*
X566824D02*
D03*
X560324D02*
D03*
X553824D02*
D03*
X547324D02*
D03*
X540824D02*
D03*
X534324D02*
D03*
X579824Y151000D02*
D03*
X573324D02*
D03*
X566824D02*
D03*
X560324D02*
D03*
X553824D02*
D03*
X547324D02*
D03*
X540824D02*
D03*
X534324D02*
D03*
D28*
X548250Y108966D02*
D03*
X563250D02*
D03*
X548250Y126238D02*
D03*
X563250D02*
D03*
X548250Y91186D02*
D03*
X563250D02*
D03*
X563252Y226522D02*
D03*
X548252D02*
D03*
X563252Y260528D02*
D03*
X548252D02*
D03*
X563252Y243525D02*
D03*
X548252D02*
D03*
D29*
X378780Y81580D02*
D03*
X418780D02*
D03*
Y57580D02*
D03*
X378780D02*
D03*
D30*
X386020Y187780D02*
D03*
X394020D02*
D03*
X402020D02*
D03*
X410020D02*
D03*
X418020D02*
D03*
X426020D02*
D03*
X434020D02*
D03*
X442020D02*
D03*
Y101780D02*
D03*
X434020D02*
D03*
X426020D02*
D03*
X418020D02*
D03*
X410020D02*
D03*
X402020D02*
D03*
X394020D02*
D03*
X386020D02*
D03*
D31*
X457020Y172780D02*
D03*
Y164780D02*
D03*
Y156780D02*
D03*
Y148780D02*
D03*
Y140780D02*
D03*
Y132780D02*
D03*
Y124780D02*
D03*
Y116780D02*
D03*
X371020D02*
D03*
Y124780D02*
D03*
Y132780D02*
D03*
Y140780D02*
D03*
Y148780D02*
D03*
Y156780D02*
D03*
Y164780D02*
D03*
Y172780D02*
D03*
D32*
X489557Y116960D02*
D03*
Y131960D02*
D03*
D33*
X136906Y227482D02*
D03*
Y246482D02*
D03*
X332000Y152756D02*
D03*
Y133756D02*
D03*
D34*
X315796Y60048D02*
D03*
Y66548D02*
D03*
Y73048D02*
D03*
X293296D02*
D03*
Y60048D02*
D03*
D35*
X433542Y272940D02*
D03*
Y266440D02*
D03*
Y259940D02*
D03*
Y253440D02*
D03*
Y246940D02*
D03*
Y240440D02*
D03*
Y233940D02*
D03*
Y227440D02*
D03*
X492542Y272940D02*
D03*
Y266440D02*
D03*
Y259940D02*
D03*
Y253440D02*
D03*
Y246940D02*
D03*
Y240440D02*
D03*
Y233940D02*
D03*
Y227440D02*
D03*
D36*
X158250Y326000D02*
D03*
Y294000D02*
D03*
X141750D02*
D03*
Y326000D02*
D03*
D55*
X379851Y31000D02*
D03*
X354450D02*
D03*
X405251D02*
D03*
X430650D02*
D03*
X456050D02*
D03*
X481451D02*
D03*
X278251D02*
D03*
X252850D02*
D03*
X303650D02*
D03*
X329050D02*
D03*
X227451D02*
D03*
X202050D02*
D03*
X151250D02*
D03*
X176651D02*
D03*
D56*
X125850D02*
D03*
D57*
X489204Y300300D02*
D03*
Y325700D02*
D03*
X463804Y300300D02*
D03*
Y325700D02*
D03*
X399034Y300300D02*
D03*
Y325700D02*
D03*
X373634Y300300D02*
D03*
Y325700D02*
D03*
X348234D02*
D03*
D58*
Y300300D02*
D03*
D59*
X256400Y322000D02*
D03*
D60*
X231000D02*
D03*
X205600D02*
D03*
X256400Y288980D02*
D03*
X231000D02*
D03*
X205600D02*
D03*
D61*
X552000Y50000D02*
D03*
Y300000D02*
D03*
X52000Y50000D02*
D03*
M02*
