G04*
G04 #@! TF.GenerationSoftware,Altium Limited,Altium Designer,18.1.9 (240)*
G04*
G04 Layer_Physical_Order=1*
G04 Layer_Color=255*
%FSLAX44Y44*%
%MOMM*%
G71*
G01*
G75*
%ADD11C,0.2540*%
%ADD12R,0.6000X0.4500*%
%ADD13R,0.4000X0.6000*%
%ADD14R,0.8000X0.5500*%
%ADD15R,0.9000X1.2500*%
%ADD16R,0.9000X0.7500*%
%ADD17R,0.5500X0.5500*%
%ADD23C,0.1524*%
%ADD24C,0.9000*%
%ADD25C,2.5400*%
G36*
X114300Y134620D02*
X96606D01*
X96540Y151030D01*
X81280D01*
Y118212D01*
X48278D01*
Y152836D01*
X48246Y152993D01*
X48268Y153152D01*
X48174Y154662D01*
X48579Y157658D01*
X49560Y160518D01*
X51081Y163133D01*
X52082Y164266D01*
X52213Y164491D01*
X52403Y164669D01*
X53193Y165771D01*
X55173Y167624D01*
X57476Y169055D01*
X60015Y170009D01*
X60942Y170162D01*
X114300Y170162D01*
X114300Y134620D01*
D02*
G37*
G36*
X168282Y170012D02*
X170924Y169067D01*
X173330Y167623D01*
X175407Y165736D01*
X176242Y164608D01*
X176407Y164458D01*
X176519Y164265D01*
X177520Y163132D01*
X179040Y160519D01*
X180022Y157659D01*
X180426Y154662D01*
X180332Y153153D01*
X180353Y152993D01*
X180322Y152836D01*
X180322Y118212D01*
X147320D01*
Y151030D01*
X132060D01*
X131994Y134620D01*
X115950D01*
X115950Y170162D01*
X167265Y170162D01*
X168282Y170012D01*
D02*
G37*
D11*
X63246Y139446D02*
X78740Y154940D01*
X88900Y103890D02*
X108050D01*
X64262Y128392D02*
X91440Y101214D01*
X64262Y128392D02*
Y138430D01*
X91440Y87732D02*
X103632D01*
X64262Y96214D02*
X76656Y83820D01*
X81860D01*
X91440Y84473D02*
Y87732D01*
Y91214D01*
X108050Y103890D02*
X111760Y100180D01*
Y81280D02*
Y100180D01*
X108712Y78232D02*
X111760Y81280D01*
X103632Y78232D02*
X108712D01*
X78740Y154940D02*
X104140D01*
X108050Y151030D01*
Y140620D02*
Y151030D01*
D12*
X91440Y91214D02*
D03*
Y101214D02*
D03*
D13*
X81860Y83820D02*
D03*
X90860D02*
D03*
X146740Y106680D02*
D03*
X137740D02*
D03*
D14*
X127632Y87732D02*
D03*
Y78232D02*
D03*
Y97232D02*
D03*
X103632D02*
D03*
Y78232D02*
D03*
Y87732D02*
D03*
D15*
X89750Y142870D02*
D03*
Y126370D02*
D03*
X138850Y142870D02*
D03*
Y126370D02*
D03*
D16*
X108050Y140620D02*
D03*
X120550D02*
D03*
D17*
X106300Y128620D02*
D03*
X122300D02*
D03*
D23*
X127632Y97232D02*
Y108588D01*
X122300Y113920D02*
X127632Y108588D01*
X122300Y113920D02*
Y128620D01*
X122428Y78232D02*
X127632D01*
X116840Y83820D02*
X122428Y78232D01*
X116840Y83820D02*
Y118080D01*
X137740Y92020D02*
Y106680D01*
X133452Y87732D02*
X137740Y92020D01*
X127632Y87732D02*
X133452D01*
X106300Y128620D02*
X116840Y118080D01*
X147320Y107260D02*
Y149860D01*
X146740Y106680D02*
X147320Y107260D01*
X154940Y148845D02*
X164084Y139701D01*
X154940Y148845D02*
Y154940D01*
X142240D02*
X154940D01*
X142240D02*
X147320Y149860D01*
X127000Y154940D02*
X142240D01*
X120550Y140620D02*
Y148490D01*
X127000Y154940D01*
D24*
X89750Y126370D02*
Y142870D01*
X138850Y126370D02*
Y142870D01*
D25*
X64262Y138430D02*
D03*
X165100Y137033D02*
D03*
X165126Y96214D02*
D03*
X64262D02*
D03*
M02*
