G04*
G04 #@! TF.GenerationSoftware,Altium Limited,Altium Designer,18.1.9 (240)*
G04*
G04 Layer_Physical_Order=2*
G04 Layer_Color=36540*
%FSLAX44Y44*%
%MOMM*%
G71*
G01*
G75*
%ADD14C,0.2540*%
%ADD43R,2.7500X2.7500*%
%ADD44C,1.6900*%
%ADD45R,1.6900X1.6900*%
%ADD46C,4.7600*%
%ADD47R,1.5000X1.5000*%
%ADD48C,1.5000*%
%ADD52C,1.9500*%
%ADD53C,0.6000*%
G36*
X953671Y420346D02*
X952754Y419734D01*
X725804D01*
Y491110D01*
X728535D01*
X730250Y487680D01*
Y491110D01*
X886206D01*
X887372Y491594D01*
X887856Y492760D01*
Y615570D01*
X953671D01*
Y420346D01*
D02*
G37*
G36*
Y896521D02*
Y617220D01*
X886206D01*
Y492760D01*
X723646D01*
X724154Y492252D01*
Y418084D01*
X952754D01*
X953671Y417167D01*
Y5179D01*
X109498D01*
Y770000D01*
X5179D01*
Y896521D01*
X953671Y896521D01*
D02*
G37*
G36*
X107849Y5179D02*
X5179D01*
Y768350D01*
X107849D01*
Y5179D01*
D02*
G37*
%LPC*%
G36*
X917250Y597952D02*
X914307Y597564D01*
X911564Y596428D01*
X909209Y594621D01*
X907402Y592266D01*
X906266Y589523D01*
X905879Y586580D01*
X906266Y583637D01*
X907402Y580895D01*
X909209Y578540D01*
X911564Y576732D01*
X914307Y575597D01*
X917250Y575209D01*
X920193Y575597D01*
X922936Y576732D01*
X925291Y578540D01*
X927098Y580895D01*
X928234Y583637D01*
X928621Y586580D01*
X928234Y589523D01*
X927098Y592266D01*
X925291Y594621D01*
X922936Y596428D01*
X920193Y597564D01*
X917250Y597952D01*
D02*
G37*
G36*
X756778Y469850D02*
X753784Y469555D01*
X750905Y468682D01*
X748251Y467263D01*
X745925Y465355D01*
X744017Y463029D01*
X742598Y460375D01*
X741725Y457496D01*
X741430Y454502D01*
X741725Y451508D01*
X742598Y448629D01*
X744017Y445975D01*
X745925Y443649D01*
X748251Y441741D01*
X750905Y440322D01*
X753784Y439449D01*
X756778Y439154D01*
X759772Y439449D01*
X762651Y440322D01*
X765305Y441741D01*
X767631Y443649D01*
X769539Y445975D01*
X770958Y448629D01*
X771831Y451508D01*
X772126Y454502D01*
X771831Y457496D01*
X770958Y460375D01*
X769539Y463029D01*
X767631Y465355D01*
X765305Y467263D01*
X762651Y468682D01*
X759772Y469555D01*
X756778Y469850D01*
D02*
G37*
G36*
X884778Y471106D02*
X881539Y470787D01*
X878424Y469842D01*
X875553Y468308D01*
X873037Y466243D01*
X870972Y463727D01*
X869438Y460856D01*
X868493Y457741D01*
X868174Y454502D01*
X868493Y451263D01*
X869438Y448148D01*
X870972Y445277D01*
X873037Y442761D01*
X875553Y440696D01*
X878424Y439162D01*
X881539Y438217D01*
X884778Y437898D01*
X888017Y438217D01*
X891132Y439162D01*
X894003Y440696D01*
X896519Y442761D01*
X898584Y445277D01*
X900118Y448148D01*
X901063Y451263D01*
X901382Y454502D01*
X901063Y457741D01*
X900118Y460856D01*
X898584Y463727D01*
X896519Y466243D01*
X894003Y468308D01*
X891132Y469842D01*
X888017Y470787D01*
X884778Y471106D01*
D02*
G37*
G36*
X788160Y860060D02*
X785556Y859717D01*
X783130Y858712D01*
X781047Y857113D01*
X779448Y855030D01*
X778443Y852604D01*
X778100Y850000D01*
X778443Y847396D01*
X779448Y844970D01*
X781047Y842887D01*
X783130Y841288D01*
X785556Y840283D01*
X788160Y839940D01*
X790764Y840283D01*
X793190Y841288D01*
X795274Y842887D01*
X796872Y844970D01*
X797877Y847396D01*
X798220Y850000D01*
X797877Y852604D01*
X796872Y855030D01*
X795274Y857113D01*
X793190Y858712D01*
X790764Y859717D01*
X788160Y860060D01*
D02*
G37*
G36*
X760550D02*
X757946Y859717D01*
X755520Y858712D01*
X753437Y857113D01*
X751838Y855030D01*
X750833Y852604D01*
X750490Y850000D01*
X750833Y847396D01*
X751838Y844970D01*
X753437Y842887D01*
X755520Y841288D01*
X757946Y840283D01*
X760550Y839940D01*
X763154Y840283D01*
X765580Y841288D01*
X767664Y842887D01*
X769262Y844970D01*
X770267Y847396D01*
X770610Y850000D01*
X770267Y852604D01*
X769262Y855030D01*
X767664Y857113D01*
X765580Y858712D01*
X763154Y859717D01*
X760550Y860060D01*
D02*
G37*
G36*
X732940D02*
X730336Y859717D01*
X727910Y858712D01*
X725826Y857113D01*
X724228Y855030D01*
X723223Y852604D01*
X722880Y850000D01*
X723223Y847396D01*
X724228Y844970D01*
X725826Y842887D01*
X727910Y841288D01*
X730336Y840283D01*
X732940Y839940D01*
X735544Y840283D01*
X737970Y841288D01*
X740054Y842887D01*
X741652Y844970D01*
X742657Y847396D01*
X743000Y850000D01*
X742657Y852604D01*
X741652Y855030D01*
X740054Y857113D01*
X737970Y858712D01*
X735544Y859717D01*
X732940Y860060D01*
D02*
G37*
G36*
X677720D02*
X675116Y859717D01*
X672690Y858712D01*
X670607Y857113D01*
X669008Y855030D01*
X668003Y852604D01*
X667660Y850000D01*
X668003Y847396D01*
X669008Y844970D01*
X670607Y842887D01*
X672690Y841288D01*
X675116Y840283D01*
X677720Y839940D01*
X680324Y840283D01*
X682750Y841288D01*
X684834Y842887D01*
X686432Y844970D01*
X687437Y847396D01*
X687780Y850000D01*
X687437Y852604D01*
X686432Y855030D01*
X684834Y857113D01*
X682750Y858712D01*
X680324Y859717D01*
X677720Y860060D01*
D02*
G37*
G36*
X650110D02*
X647506Y859717D01*
X645080Y858712D01*
X642997Y857113D01*
X641398Y855030D01*
X640393Y852604D01*
X640050Y850000D01*
X640393Y847396D01*
X641398Y844970D01*
X642997Y842887D01*
X645080Y841288D01*
X647506Y840283D01*
X650110Y839940D01*
X652714Y840283D01*
X655140Y841288D01*
X657224Y842887D01*
X658822Y844970D01*
X659827Y847396D01*
X660170Y850000D01*
X659827Y852604D01*
X658822Y855030D01*
X657224Y857113D01*
X655140Y858712D01*
X652714Y859717D01*
X650110Y860060D01*
D02*
G37*
G36*
X622500D02*
X619896Y859717D01*
X617470Y858712D01*
X615387Y857113D01*
X613788Y855030D01*
X612783Y852604D01*
X612440Y850000D01*
X612783Y847396D01*
X613788Y844970D01*
X615387Y842887D01*
X617470Y841288D01*
X619896Y840283D01*
X622500Y839940D01*
X625104Y840283D01*
X627530Y841288D01*
X629613Y842887D01*
X631212Y844970D01*
X632217Y847396D01*
X632560Y850000D01*
X632217Y852604D01*
X631212Y855030D01*
X629613Y857113D01*
X627530Y858712D01*
X625104Y859717D01*
X622500Y860060D01*
D02*
G37*
G36*
X567280D02*
X564676Y859717D01*
X562250Y858712D01*
X560167Y857113D01*
X558568Y855030D01*
X557563Y852604D01*
X557220Y850000D01*
X557563Y847396D01*
X558568Y844970D01*
X560167Y842887D01*
X562250Y841288D01*
X564676Y840283D01*
X567280Y839940D01*
X569884Y840283D01*
X572310Y841288D01*
X574394Y842887D01*
X575992Y844970D01*
X576997Y847396D01*
X577340Y850000D01*
X576997Y852604D01*
X575992Y855030D01*
X574394Y857113D01*
X572310Y858712D01*
X569884Y859717D01*
X567280Y860060D01*
D02*
G37*
G36*
X539670D02*
X537066Y859717D01*
X534640Y858712D01*
X532556Y857113D01*
X530958Y855030D01*
X529953Y852604D01*
X529610Y850000D01*
X529953Y847396D01*
X530958Y844970D01*
X532556Y842887D01*
X534640Y841288D01*
X537066Y840283D01*
X539670Y839940D01*
X542274Y840283D01*
X544700Y841288D01*
X546784Y842887D01*
X548382Y844970D01*
X549387Y847396D01*
X549730Y850000D01*
X549387Y852604D01*
X548382Y855030D01*
X546784Y857113D01*
X544700Y858712D01*
X542274Y859717D01*
X539670Y860060D01*
D02*
G37*
G36*
X240000Y844102D02*
X237644Y843792D01*
X235449Y842882D01*
X233564Y841436D01*
X232118Y839551D01*
X231208Y837356D01*
X230898Y835000D01*
X231208Y832644D01*
X232118Y830449D01*
X233564Y828564D01*
X235449Y827117D01*
X237644Y826208D01*
X240000Y825898D01*
X242356Y826208D01*
X244551Y827117D01*
X246436Y828564D01*
X247882Y830449D01*
X248792Y832644D01*
X249102Y835000D01*
X248792Y837356D01*
X247882Y839551D01*
X246436Y841436D01*
X244551Y842882D01*
X242356Y843792D01*
X240000Y844102D01*
D02*
G37*
G36*
X214600D02*
X212244Y843792D01*
X210049Y842882D01*
X208164Y841436D01*
X206718Y839551D01*
X205808Y837356D01*
X205498Y835000D01*
X205808Y832644D01*
X206718Y830449D01*
X208164Y828564D01*
X210049Y827117D01*
X212244Y826208D01*
X214600Y825898D01*
X216956Y826208D01*
X219151Y827117D01*
X221036Y828564D01*
X222482Y830449D01*
X223392Y832644D01*
X223702Y835000D01*
X223392Y837356D01*
X222482Y839551D01*
X221036Y841436D01*
X219151Y842882D01*
X216956Y843792D01*
X214600Y844102D01*
D02*
G37*
G36*
X189200D02*
X186844Y843792D01*
X184649Y842882D01*
X182764Y841436D01*
X181318Y839551D01*
X180408Y837356D01*
X180098Y835000D01*
X180408Y832644D01*
X181318Y830449D01*
X182764Y828564D01*
X184649Y827117D01*
X186844Y826208D01*
X189200Y825898D01*
X191556Y826208D01*
X193751Y827117D01*
X195636Y828564D01*
X197082Y830449D01*
X197992Y832644D01*
X198302Y835000D01*
X197992Y837356D01*
X197082Y839551D01*
X195636Y841436D01*
X193751Y842882D01*
X191556Y843792D01*
X189200Y844102D01*
D02*
G37*
G36*
X163800D02*
X161444Y843792D01*
X159249Y842882D01*
X157364Y841436D01*
X155918Y839551D01*
X155008Y837356D01*
X154698Y835000D01*
X155008Y832644D01*
X155918Y830449D01*
X157364Y828564D01*
X159249Y827117D01*
X161444Y826208D01*
X163800Y825898D01*
X166156Y826208D01*
X168351Y827117D01*
X170236Y828564D01*
X171682Y830449D01*
X172592Y832644D01*
X172902Y835000D01*
X172592Y837356D01*
X171682Y839551D01*
X170236Y841436D01*
X168351Y842882D01*
X166156Y843792D01*
X163800Y844102D01*
D02*
G37*
G36*
X138400D02*
X136044Y843792D01*
X133849Y842882D01*
X131964Y841436D01*
X130518Y839551D01*
X129608Y837356D01*
X129298Y835000D01*
X129608Y832644D01*
X130518Y830449D01*
X131964Y828564D01*
X133849Y827117D01*
X136044Y826208D01*
X138400Y825898D01*
X140756Y826208D01*
X142951Y827117D01*
X144836Y828564D01*
X146282Y830449D01*
X147192Y832644D01*
X147502Y835000D01*
X147192Y837356D01*
X146282Y839551D01*
X144836Y841436D01*
X142951Y842882D01*
X140756Y843792D01*
X138400Y844102D01*
D02*
G37*
G36*
X113000D02*
X110644Y843792D01*
X108449Y842882D01*
X106564Y841436D01*
X105118Y839551D01*
X104208Y837356D01*
X103898Y835000D01*
X104208Y832644D01*
X105118Y830449D01*
X106564Y828564D01*
X108449Y827117D01*
X110644Y826208D01*
X113000Y825898D01*
X115356Y826208D01*
X117551Y827117D01*
X119436Y828564D01*
X120882Y830449D01*
X121792Y832644D01*
X122102Y835000D01*
X121792Y837356D01*
X120882Y839551D01*
X119436Y841436D01*
X117551Y842882D01*
X115356Y843792D01*
X113000Y844102D01*
D02*
G37*
G36*
X87600D02*
X85244Y843792D01*
X83049Y842882D01*
X81164Y841436D01*
X79718Y839551D01*
X78808Y837356D01*
X78498Y835000D01*
X78808Y832644D01*
X79718Y830449D01*
X81164Y828564D01*
X83049Y827117D01*
X85244Y826208D01*
X87600Y825898D01*
X89956Y826208D01*
X92151Y827117D01*
X94036Y828564D01*
X95482Y830449D01*
X96392Y832644D01*
X96702Y835000D01*
X96392Y837356D01*
X95482Y839551D01*
X94036Y841436D01*
X92151Y842882D01*
X89956Y843792D01*
X87600Y844102D01*
D02*
G37*
G36*
X62200D02*
X59844Y843792D01*
X57649Y842882D01*
X55764Y841436D01*
X54318Y839551D01*
X53408Y837356D01*
X53098Y835000D01*
X53408Y832644D01*
X54318Y830449D01*
X55764Y828564D01*
X57649Y827117D01*
X59844Y826208D01*
X62200Y825898D01*
X64556Y826208D01*
X66751Y827117D01*
X68636Y828564D01*
X70082Y830449D01*
X70992Y832644D01*
X71302Y835000D01*
X70992Y837356D01*
X70082Y839551D01*
X68636Y841436D01*
X66751Y842882D01*
X64556Y843792D01*
X62200Y844102D01*
D02*
G37*
G36*
X829575Y831660D02*
X826971Y831317D01*
X824545Y830312D01*
X822461Y828714D01*
X820863Y826630D01*
X819858Y824204D01*
X819515Y821600D01*
X819858Y818996D01*
X820863Y816570D01*
X822461Y814486D01*
X824545Y812888D01*
X826971Y811883D01*
X829575Y811540D01*
X832179Y811883D01*
X834605Y812888D01*
X836689Y814486D01*
X838287Y816570D01*
X839292Y818996D01*
X839635Y821600D01*
X839292Y824204D01*
X838287Y826630D01*
X836689Y828714D01*
X834605Y830312D01*
X832179Y831317D01*
X829575Y831660D01*
D02*
G37*
G36*
X801965D02*
X799361Y831317D01*
X796935Y830312D01*
X794852Y828714D01*
X793253Y826630D01*
X792248Y824204D01*
X791905Y821600D01*
X792248Y818996D01*
X793253Y816570D01*
X794852Y814486D01*
X796935Y812888D01*
X799361Y811883D01*
X801965Y811540D01*
X804569Y811883D01*
X806995Y812888D01*
X809079Y814486D01*
X810677Y816570D01*
X811682Y818996D01*
X812025Y821600D01*
X811682Y824204D01*
X810677Y826630D01*
X809079Y828714D01*
X806995Y830312D01*
X804569Y831317D01*
X801965Y831660D01*
D02*
G37*
G36*
X774355D02*
X771751Y831317D01*
X769325Y830312D01*
X767242Y828714D01*
X765643Y826630D01*
X764638Y824204D01*
X764295Y821600D01*
X764638Y818996D01*
X765643Y816570D01*
X767242Y814486D01*
X769325Y812888D01*
X771751Y811883D01*
X774355Y811540D01*
X776959Y811883D01*
X779385Y812888D01*
X781469Y814486D01*
X783067Y816570D01*
X784072Y818996D01*
X784415Y821600D01*
X784072Y824204D01*
X783067Y826630D01*
X781469Y828714D01*
X779385Y830312D01*
X776959Y831317D01*
X774355Y831660D01*
D02*
G37*
G36*
X746745D02*
X744141Y831317D01*
X741715Y830312D01*
X739632Y828714D01*
X738033Y826630D01*
X737028Y824204D01*
X736685Y821600D01*
X737028Y818996D01*
X738033Y816570D01*
X739632Y814486D01*
X741715Y812888D01*
X744141Y811883D01*
X746745Y811540D01*
X749349Y811883D01*
X751775Y812888D01*
X753859Y814486D01*
X755457Y816570D01*
X756462Y818996D01*
X756805Y821600D01*
X756462Y824204D01*
X755457Y826630D01*
X753859Y828714D01*
X751775Y830312D01*
X749349Y831317D01*
X746745Y831660D01*
D02*
G37*
G36*
X719135D02*
X716531Y831317D01*
X714105Y830312D01*
X712021Y828714D01*
X710423Y826630D01*
X709418Y824204D01*
X709075Y821600D01*
X709418Y818996D01*
X710423Y816570D01*
X712021Y814486D01*
X714105Y812888D01*
X716531Y811883D01*
X719135Y811540D01*
X721739Y811883D01*
X724165Y812888D01*
X726249Y814486D01*
X727847Y816570D01*
X728852Y818996D01*
X729195Y821600D01*
X728852Y824204D01*
X727847Y826630D01*
X726249Y828714D01*
X724165Y830312D01*
X721739Y831317D01*
X719135Y831660D01*
D02*
G37*
G36*
X691525D02*
X688921Y831317D01*
X686495Y830312D01*
X684411Y828714D01*
X682813Y826630D01*
X681808Y824204D01*
X681465Y821600D01*
X681808Y818996D01*
X682813Y816570D01*
X684411Y814486D01*
X686495Y812888D01*
X688921Y811883D01*
X691525Y811540D01*
X694129Y811883D01*
X696555Y812888D01*
X698639Y814486D01*
X700237Y816570D01*
X701242Y818996D01*
X701585Y821600D01*
X701242Y824204D01*
X700237Y826630D01*
X698639Y828714D01*
X696555Y830312D01*
X694129Y831317D01*
X691525Y831660D01*
D02*
G37*
G36*
X663915D02*
X661311Y831317D01*
X658885Y830312D01*
X656802Y828714D01*
X655203Y826630D01*
X654198Y824204D01*
X653855Y821600D01*
X654198Y818996D01*
X655203Y816570D01*
X656802Y814486D01*
X658885Y812888D01*
X661311Y811883D01*
X663915Y811540D01*
X666519Y811883D01*
X668945Y812888D01*
X671029Y814486D01*
X672627Y816570D01*
X673632Y818996D01*
X673975Y821600D01*
X673632Y824204D01*
X672627Y826630D01*
X671029Y828714D01*
X668945Y830312D01*
X666519Y831317D01*
X663915Y831660D01*
D02*
G37*
G36*
X636305D02*
X633701Y831317D01*
X631275Y830312D01*
X629192Y828714D01*
X627593Y826630D01*
X626588Y824204D01*
X626245Y821600D01*
X626588Y818996D01*
X627593Y816570D01*
X629192Y814486D01*
X631275Y812888D01*
X633701Y811883D01*
X636305Y811540D01*
X638909Y811883D01*
X641335Y812888D01*
X643419Y814486D01*
X645017Y816570D01*
X646022Y818996D01*
X646365Y821600D01*
X646022Y824204D01*
X645017Y826630D01*
X643419Y828714D01*
X641335Y830312D01*
X638909Y831317D01*
X636305Y831660D01*
D02*
G37*
G36*
X608695D02*
X606091Y831317D01*
X603665Y830312D01*
X601581Y828714D01*
X599983Y826630D01*
X598978Y824204D01*
X598635Y821600D01*
X598978Y818996D01*
X599983Y816570D01*
X601581Y814486D01*
X603665Y812888D01*
X606091Y811883D01*
X608695Y811540D01*
X611299Y811883D01*
X613725Y812888D01*
X615808Y814486D01*
X617407Y816570D01*
X618412Y818996D01*
X618755Y821600D01*
X618412Y824204D01*
X617407Y826630D01*
X615808Y828714D01*
X613725Y830312D01*
X611299Y831317D01*
X608695Y831660D01*
D02*
G37*
G36*
X581085D02*
X578481Y831317D01*
X576055Y830312D01*
X573971Y828714D01*
X572373Y826630D01*
X571368Y824204D01*
X571025Y821600D01*
X571368Y818996D01*
X572373Y816570D01*
X573971Y814486D01*
X576055Y812888D01*
X578481Y811883D01*
X581085Y811540D01*
X583689Y811883D01*
X586115Y812888D01*
X588199Y814486D01*
X589797Y816570D01*
X590802Y818996D01*
X591145Y821600D01*
X590802Y824204D01*
X589797Y826630D01*
X588199Y828714D01*
X586115Y830312D01*
X583689Y831317D01*
X581085Y831660D01*
D02*
G37*
G36*
X553475D02*
X550871Y831317D01*
X548445Y830312D01*
X546362Y828714D01*
X544763Y826630D01*
X543758Y824204D01*
X543415Y821600D01*
X543758Y818996D01*
X544763Y816570D01*
X546362Y814486D01*
X548445Y812888D01*
X550871Y811883D01*
X553475Y811540D01*
X556079Y811883D01*
X558505Y812888D01*
X560589Y814486D01*
X562187Y816570D01*
X563192Y818996D01*
X563535Y821600D01*
X563192Y824204D01*
X562187Y826630D01*
X560589Y828714D01*
X558505Y830312D01*
X556079Y831317D01*
X553475Y831660D01*
D02*
G37*
G36*
X525865D02*
X523261Y831317D01*
X520835Y830312D01*
X518751Y828714D01*
X517153Y826630D01*
X516148Y824204D01*
X515805Y821600D01*
X516148Y818996D01*
X517153Y816570D01*
X518751Y814486D01*
X520835Y812888D01*
X523261Y811883D01*
X525865Y811540D01*
X528469Y811883D01*
X530895Y812888D01*
X532979Y814486D01*
X534577Y816570D01*
X535582Y818996D01*
X535925Y821600D01*
X535582Y824204D01*
X534577Y826630D01*
X532979Y828714D01*
X530895Y830312D01*
X528469Y831317D01*
X525865Y831660D01*
D02*
G37*
G36*
X71224Y818624D02*
X53176D01*
Y800576D01*
X71224D01*
Y818624D01*
D02*
G37*
G36*
X240000Y818702D02*
X237644Y818392D01*
X235449Y817482D01*
X233564Y816036D01*
X232118Y814151D01*
X231208Y811956D01*
X230898Y809600D01*
X231208Y807244D01*
X232118Y805049D01*
X233564Y803164D01*
X235449Y801718D01*
X237644Y800808D01*
X240000Y800498D01*
X242356Y800808D01*
X244551Y801718D01*
X246436Y803164D01*
X247882Y805049D01*
X248792Y807244D01*
X249102Y809600D01*
X248792Y811956D01*
X247882Y814151D01*
X246436Y816036D01*
X244551Y817482D01*
X242356Y818392D01*
X240000Y818702D01*
D02*
G37*
G36*
X214600D02*
X212244Y818392D01*
X210049Y817482D01*
X208164Y816036D01*
X206718Y814151D01*
X205808Y811956D01*
X205498Y809600D01*
X205808Y807244D01*
X206718Y805049D01*
X208164Y803164D01*
X210049Y801718D01*
X212244Y800808D01*
X214600Y800498D01*
X216956Y800808D01*
X219151Y801718D01*
X221036Y803164D01*
X222482Y805049D01*
X223392Y807244D01*
X223702Y809600D01*
X223392Y811956D01*
X222482Y814151D01*
X221036Y816036D01*
X219151Y817482D01*
X216956Y818392D01*
X214600Y818702D01*
D02*
G37*
G36*
X189200D02*
X186844Y818392D01*
X184649Y817482D01*
X182764Y816036D01*
X181318Y814151D01*
X180408Y811956D01*
X180098Y809600D01*
X180408Y807244D01*
X181318Y805049D01*
X182764Y803164D01*
X184649Y801718D01*
X186844Y800808D01*
X189200Y800498D01*
X191556Y800808D01*
X193751Y801718D01*
X195636Y803164D01*
X197082Y805049D01*
X197992Y807244D01*
X198302Y809600D01*
X197992Y811956D01*
X197082Y814151D01*
X195636Y816036D01*
X193751Y817482D01*
X191556Y818392D01*
X189200Y818702D01*
D02*
G37*
G36*
X163800D02*
X161444Y818392D01*
X159249Y817482D01*
X157364Y816036D01*
X155918Y814151D01*
X155008Y811956D01*
X154698Y809600D01*
X155008Y807244D01*
X155918Y805049D01*
X157364Y803164D01*
X159249Y801718D01*
X161444Y800808D01*
X163800Y800498D01*
X166156Y800808D01*
X168351Y801718D01*
X170236Y803164D01*
X171682Y805049D01*
X172592Y807244D01*
X172902Y809600D01*
X172592Y811956D01*
X171682Y814151D01*
X170236Y816036D01*
X168351Y817482D01*
X166156Y818392D01*
X163800Y818702D01*
D02*
G37*
G36*
X138400D02*
X136044Y818392D01*
X133849Y817482D01*
X131964Y816036D01*
X130518Y814151D01*
X129608Y811956D01*
X129298Y809600D01*
X129608Y807244D01*
X130518Y805049D01*
X131964Y803164D01*
X133849Y801718D01*
X136044Y800808D01*
X138400Y800498D01*
X140756Y800808D01*
X142951Y801718D01*
X144836Y803164D01*
X146282Y805049D01*
X147192Y807244D01*
X147502Y809600D01*
X147192Y811956D01*
X146282Y814151D01*
X144836Y816036D01*
X142951Y817482D01*
X140756Y818392D01*
X138400Y818702D01*
D02*
G37*
G36*
X113000D02*
X110644Y818392D01*
X108449Y817482D01*
X106564Y816036D01*
X105118Y814151D01*
X104208Y811956D01*
X103898Y809600D01*
X104208Y807244D01*
X105118Y805049D01*
X106564Y803164D01*
X108449Y801718D01*
X110644Y800808D01*
X113000Y800498D01*
X115356Y800808D01*
X117551Y801718D01*
X119436Y803164D01*
X120882Y805049D01*
X121792Y807244D01*
X122102Y809600D01*
X121792Y811956D01*
X120882Y814151D01*
X119436Y816036D01*
X117551Y817482D01*
X115356Y818392D01*
X113000Y818702D01*
D02*
G37*
G36*
X87600D02*
X85244Y818392D01*
X83049Y817482D01*
X81164Y816036D01*
X79718Y814151D01*
X78808Y811956D01*
X78498Y809600D01*
X78808Y807244D01*
X79718Y805049D01*
X81164Y803164D01*
X83049Y801718D01*
X85244Y800808D01*
X87600Y800498D01*
X89956Y800808D01*
X92151Y801718D01*
X94036Y803164D01*
X95482Y805049D01*
X96392Y807244D01*
X96702Y809600D01*
X96392Y811956D01*
X95482Y814151D01*
X94036Y816036D01*
X92151Y817482D01*
X89956Y818392D01*
X87600Y818702D01*
D02*
G37*
G36*
X869400Y742702D02*
X867044Y742392D01*
X864849Y741482D01*
X862964Y740036D01*
X861518Y738151D01*
X860608Y735956D01*
X860298Y733600D01*
X860608Y731244D01*
X861518Y729049D01*
X862964Y727164D01*
X864849Y725718D01*
X867044Y724808D01*
X869400Y724498D01*
X871756Y724808D01*
X873951Y725718D01*
X875836Y727164D01*
X877282Y729049D01*
X878192Y731244D01*
X878502Y733600D01*
X878192Y735956D01*
X877282Y738151D01*
X875836Y740036D01*
X873951Y741482D01*
X871756Y742392D01*
X869400Y742702D01*
D02*
G37*
G36*
X844000D02*
X841644Y742392D01*
X839449Y741482D01*
X837564Y740036D01*
X836118Y738151D01*
X835208Y735956D01*
X834898Y733600D01*
X835208Y731244D01*
X836118Y729049D01*
X837564Y727164D01*
X839449Y725718D01*
X841644Y724808D01*
X844000Y724498D01*
X846356Y724808D01*
X848551Y725718D01*
X850436Y727164D01*
X851882Y729049D01*
X852792Y731244D01*
X853102Y733600D01*
X852792Y735956D01*
X851882Y738151D01*
X850436Y740036D01*
X848551Y741482D01*
X846356Y742392D01*
X844000Y742702D01*
D02*
G37*
G36*
X869400Y717302D02*
X867044Y716992D01*
X864849Y716082D01*
X862964Y714636D01*
X861518Y712751D01*
X860608Y710556D01*
X860298Y708200D01*
X860608Y705844D01*
X861518Y703649D01*
X862964Y701764D01*
X864849Y700318D01*
X867044Y699408D01*
X869400Y699098D01*
X871756Y699408D01*
X873951Y700318D01*
X875836Y701764D01*
X877282Y703649D01*
X878192Y705844D01*
X878502Y708200D01*
X878192Y710556D01*
X877282Y712751D01*
X875836Y714636D01*
X873951Y716082D01*
X871756Y716992D01*
X869400Y717302D01*
D02*
G37*
G36*
X844000D02*
X841644Y716992D01*
X839449Y716082D01*
X837564Y714636D01*
X836118Y712751D01*
X835208Y710556D01*
X834898Y708200D01*
X835208Y705844D01*
X836118Y703649D01*
X837564Y701764D01*
X839449Y700318D01*
X841644Y699408D01*
X844000Y699098D01*
X846356Y699408D01*
X848551Y700318D01*
X850436Y701764D01*
X851882Y703649D01*
X852792Y705844D01*
X853102Y708200D01*
X852792Y710556D01*
X851882Y712751D01*
X850436Y714636D01*
X848551Y716082D01*
X846356Y716992D01*
X844000Y717302D01*
D02*
G37*
G36*
X440000Y707613D02*
X438235Y707262D01*
X436738Y706262D01*
X435738Y704765D01*
X435387Y703000D01*
X435738Y701235D01*
X436738Y699738D01*
X438235Y698738D01*
X440000Y698387D01*
X441765Y698738D01*
X443262Y699738D01*
X444262Y701235D01*
X444613Y703000D01*
X444262Y704765D01*
X443262Y706262D01*
X441765Y707262D01*
X440000Y707613D01*
D02*
G37*
G36*
X458505Y697113D02*
X456740Y696761D01*
X455243Y695762D01*
X454243Y694265D01*
X453892Y692500D01*
X454243Y690735D01*
X455243Y689238D01*
X456740Y688239D01*
X458505Y687887D01*
X460270Y688239D01*
X461767Y689238D01*
X462766Y690735D01*
X463117Y692500D01*
X462766Y694265D01*
X461767Y695762D01*
X460270Y696761D01*
X458505Y697113D01*
D02*
G37*
G36*
X440000Y684413D02*
X438235Y684062D01*
X436738Y683062D01*
X435738Y681565D01*
X435387Y679800D01*
X435738Y678035D01*
X436738Y676538D01*
X438235Y675538D01*
X440000Y675187D01*
X441765Y675538D01*
X443262Y676538D01*
X444262Y678035D01*
X444613Y679800D01*
X444262Y681565D01*
X443262Y683062D01*
X441765Y684062D01*
X440000Y684413D01*
D02*
G37*
G36*
X390000D02*
X388235Y684062D01*
X386738Y683062D01*
X385738Y681565D01*
X385387Y679800D01*
X385738Y678035D01*
X386738Y676538D01*
X388235Y675538D01*
X390000Y675187D01*
X391765Y675538D01*
X393262Y676538D01*
X394262Y678035D01*
X394613Y679800D01*
X394262Y681565D01*
X393262Y683062D01*
X391765Y684062D01*
X390000Y684413D01*
D02*
G37*
G36*
X869400Y691902D02*
X867044Y691592D01*
X864849Y690682D01*
X862964Y689236D01*
X861518Y687351D01*
X860608Y685156D01*
X860298Y682800D01*
X860608Y680444D01*
X861518Y678249D01*
X862964Y676364D01*
X864849Y674918D01*
X867044Y674008D01*
X869400Y673698D01*
X871756Y674008D01*
X873951Y674918D01*
X875836Y676364D01*
X877282Y678249D01*
X878192Y680444D01*
X878502Y682800D01*
X878192Y685156D01*
X877282Y687351D01*
X875836Y689236D01*
X873951Y690682D01*
X871756Y691592D01*
X869400Y691902D01*
D02*
G37*
G36*
X844000D02*
X841644Y691592D01*
X839449Y690682D01*
X837564Y689236D01*
X836118Y687351D01*
X835208Y685156D01*
X834898Y682800D01*
X835208Y680444D01*
X836118Y678249D01*
X837564Y676364D01*
X839449Y674918D01*
X841644Y674008D01*
X844000Y673698D01*
X846356Y674008D01*
X848551Y674918D01*
X850436Y676364D01*
X851882Y678249D01*
X852792Y680444D01*
X853102Y682800D01*
X852792Y685156D01*
X851882Y687351D01*
X850436Y689236D01*
X848551Y690682D01*
X846356Y691592D01*
X844000Y691902D01*
D02*
G37*
G36*
X484000Y674613D02*
X482235Y674261D01*
X480738Y673262D01*
X479739Y671765D01*
X479387Y670000D01*
X479739Y668235D01*
X480738Y666738D01*
X482235Y665739D01*
X484000Y665387D01*
X485765Y665739D01*
X487262Y666738D01*
X488261Y668235D01*
X488613Y670000D01*
X488261Y671765D01*
X487262Y673262D01*
X485765Y674261D01*
X484000Y674613D01*
D02*
G37*
G36*
X522255Y673103D02*
X520490Y672751D01*
X518993Y671752D01*
X517994Y670255D01*
X517642Y668490D01*
X517994Y666725D01*
X518993Y665228D01*
X520490Y664229D01*
X522255Y663877D01*
X524020Y664229D01*
X525517Y665228D01*
X526516Y666725D01*
X526868Y668490D01*
X526516Y670255D01*
X525517Y671752D01*
X524020Y672751D01*
X522255Y673103D01*
D02*
G37*
G36*
X921258Y667807D02*
X919493Y667456D01*
X917996Y666456D01*
X916997Y664959D01*
X916645Y663194D01*
X916997Y661429D01*
X917996Y659932D01*
X919493Y658932D01*
X921258Y658581D01*
X923023Y658932D01*
X924520Y659932D01*
X925519Y661429D01*
X925871Y663194D01*
X925519Y664959D01*
X924520Y666456D01*
X923023Y667456D01*
X921258Y667807D01*
D02*
G37*
G36*
X610000Y657863D02*
X608235Y657512D01*
X606738Y656512D01*
X605738Y655015D01*
X605387Y653250D01*
X605738Y651485D01*
X606738Y649988D01*
X608235Y648988D01*
X610000Y648637D01*
X611765Y648988D01*
X613262Y649988D01*
X614262Y651485D01*
X614613Y653250D01*
X614262Y655015D01*
X613262Y656512D01*
X611765Y657512D01*
X610000Y657863D01*
D02*
G37*
G36*
X878424Y666424D02*
X860376D01*
Y648376D01*
X878424D01*
Y666424D01*
D02*
G37*
G36*
X844000Y666502D02*
X841644Y666192D01*
X839449Y665282D01*
X837564Y663836D01*
X836118Y661951D01*
X835208Y659756D01*
X834898Y657400D01*
X835208Y655044D01*
X836118Y652849D01*
X837564Y650964D01*
X839449Y649518D01*
X841644Y648608D01*
X844000Y648298D01*
X846356Y648608D01*
X848551Y649518D01*
X850436Y650964D01*
X851882Y652849D01*
X852792Y655044D01*
X853102Y657400D01*
X852792Y659756D01*
X851882Y661951D01*
X850436Y663836D01*
X848551Y665282D01*
X846356Y666192D01*
X844000Y666502D01*
D02*
G37*
G36*
X806632Y657066D02*
X804866Y656715D01*
X803370Y655715D01*
X802370Y654219D01*
X802019Y652454D01*
X802370Y650688D01*
X803370Y649192D01*
X804866Y648192D01*
X806632Y647841D01*
X808397Y648192D01*
X809893Y649192D01*
X810893Y650688D01*
X811244Y652454D01*
X810893Y654219D01*
X809893Y655715D01*
X808397Y656715D01*
X806632Y657066D01*
D02*
G37*
G36*
X317708Y663502D02*
X315352Y663192D01*
X313157Y662282D01*
X311272Y660836D01*
X309825Y658951D01*
X308916Y656756D01*
X308606Y654400D01*
X308916Y652044D01*
X309825Y649849D01*
X311272Y647964D01*
X313157Y646518D01*
X315352Y645608D01*
X317708Y645298D01*
X320063Y645608D01*
X322258Y646518D01*
X324143Y647964D01*
X325590Y649849D01*
X326499Y652044D01*
X326809Y654400D01*
X326499Y656756D01*
X325590Y658951D01*
X324143Y660836D01*
X322258Y662282D01*
X320063Y663192D01*
X317708Y663502D01*
D02*
G37*
G36*
X292308D02*
X289952Y663192D01*
X287757Y662282D01*
X285872Y660836D01*
X284425Y658951D01*
X283516Y656756D01*
X283206Y654400D01*
X283516Y652044D01*
X284425Y649849D01*
X285872Y647964D01*
X287757Y646518D01*
X289952Y645608D01*
X292308Y645298D01*
X294663Y645608D01*
X296859Y646518D01*
X298743Y647964D01*
X300190Y649849D01*
X301099Y652044D01*
X301409Y654400D01*
X301099Y656756D01*
X300190Y658951D01*
X298743Y660836D01*
X296859Y662282D01*
X294663Y663192D01*
X292308Y663502D01*
D02*
G37*
G36*
X771400Y644613D02*
X769635Y644261D01*
X768138Y643262D01*
X767139Y641765D01*
X766787Y640000D01*
X767139Y638235D01*
X768138Y636738D01*
X769635Y635738D01*
X771400Y635387D01*
X773165Y635738D01*
X774662Y636738D01*
X775661Y638235D01*
X776013Y640000D01*
X775661Y641765D01*
X774662Y643262D01*
X773165Y644261D01*
X771400Y644613D01*
D02*
G37*
G36*
X562613Y640291D02*
X560848Y639940D01*
X559352Y638940D01*
X558352Y637443D01*
X558001Y635678D01*
X558352Y633913D01*
X559352Y632417D01*
X560848Y631417D01*
X562613Y631066D01*
X564379Y631417D01*
X565875Y632417D01*
X566875Y633913D01*
X567226Y635678D01*
X566875Y637443D01*
X565875Y638940D01*
X564379Y639940D01*
X562613Y640291D01*
D02*
G37*
G36*
X830000Y634613D02*
X828235Y634262D01*
X826738Y633262D01*
X825739Y631765D01*
X825387Y630000D01*
X825739Y628235D01*
X826738Y626738D01*
X828235Y625738D01*
X830000Y625387D01*
X831765Y625738D01*
X833262Y626738D01*
X834261Y628235D01*
X834613Y630000D01*
X834261Y631765D01*
X833262Y633262D01*
X831765Y634262D01*
X830000Y634613D01*
D02*
G37*
G36*
X317708Y638102D02*
X315352Y637792D01*
X313157Y636883D01*
X311272Y635436D01*
X309825Y633551D01*
X308916Y631356D01*
X308606Y629000D01*
X308916Y626644D01*
X309825Y624449D01*
X311272Y622564D01*
X313157Y621118D01*
X315352Y620208D01*
X317708Y619898D01*
X320063Y620208D01*
X322258Y621118D01*
X324143Y622564D01*
X325590Y624449D01*
X326499Y626644D01*
X326809Y629000D01*
X326499Y631356D01*
X325590Y633551D01*
X324143Y635436D01*
X322258Y636883D01*
X320063Y637792D01*
X317708Y638102D01*
D02*
G37*
G36*
X292308D02*
X289952Y637792D01*
X287757Y636883D01*
X285872Y635436D01*
X284425Y633551D01*
X283516Y631356D01*
X283206Y629000D01*
X283516Y626644D01*
X284425Y624449D01*
X285872Y622564D01*
X287757Y621118D01*
X289952Y620208D01*
X292308Y619898D01*
X294663Y620208D01*
X296859Y621118D01*
X298743Y622564D01*
X300190Y624449D01*
X301099Y626644D01*
X301409Y629000D01*
X301099Y631356D01*
X300190Y633551D01*
X298743Y635436D01*
X296859Y636883D01*
X294663Y637792D01*
X292308Y638102D01*
D02*
G37*
G36*
X517249Y624613D02*
X515484Y624262D01*
X513988Y623262D01*
X512988Y621765D01*
X512637Y620000D01*
X512988Y618235D01*
X513988Y616738D01*
X515484Y615738D01*
X517249Y615387D01*
X519014Y615738D01*
X520511Y616738D01*
X521511Y618235D01*
X521862Y620000D01*
X521511Y621765D01*
X520511Y623262D01*
X519014Y624262D01*
X517249Y624613D01*
D02*
G37*
G36*
X534701Y618816D02*
X532936Y618465D01*
X531439Y617465D01*
X530439Y615968D01*
X530088Y614203D01*
X530439Y612438D01*
X531439Y610941D01*
X532936Y609941D01*
X534701Y609590D01*
X536466Y609941D01*
X537963Y610941D01*
X538963Y612438D01*
X539314Y614203D01*
X538963Y615968D01*
X537963Y617465D01*
X536466Y618465D01*
X534701Y618816D01*
D02*
G37*
G36*
X507195Y604613D02*
X505430Y604262D01*
X503933Y603262D01*
X502934Y601765D01*
X502582Y600000D01*
X502934Y598235D01*
X503933Y596738D01*
X505430Y595738D01*
X507195Y595387D01*
X508960Y595738D01*
X510457Y596738D01*
X511456Y598235D01*
X511808Y600000D01*
X511456Y601765D01*
X510457Y603262D01*
X508960Y604262D01*
X507195Y604613D01*
D02*
G37*
G36*
X712978Y604561D02*
X711213Y604210D01*
X709716Y603210D01*
X708717Y601713D01*
X708365Y599948D01*
X708717Y598183D01*
X709716Y596686D01*
X711213Y595686D01*
X712978Y595335D01*
X714743Y595686D01*
X716240Y596686D01*
X717240Y598183D01*
X717591Y599948D01*
X717240Y601713D01*
X716240Y603210D01*
X714743Y604210D01*
X712978Y604561D01*
D02*
G37*
G36*
X317708Y612702D02*
X315352Y612392D01*
X313157Y611483D01*
X311272Y610036D01*
X309825Y608151D01*
X308916Y605956D01*
X308606Y603600D01*
X308916Y601244D01*
X309825Y599049D01*
X311272Y597164D01*
X313157Y595718D01*
X315352Y594808D01*
X317708Y594498D01*
X320063Y594808D01*
X322258Y595718D01*
X324143Y597164D01*
X325590Y599049D01*
X326499Y601244D01*
X326809Y603600D01*
X326499Y605956D01*
X325590Y608151D01*
X324143Y610036D01*
X322258Y611483D01*
X320063Y612392D01*
X317708Y612702D01*
D02*
G37*
G36*
X292308D02*
X289952Y612392D01*
X287757Y611483D01*
X285872Y610036D01*
X284425Y608151D01*
X283516Y605956D01*
X283206Y603600D01*
X283516Y601244D01*
X284425Y599049D01*
X285872Y597164D01*
X287757Y595718D01*
X289952Y594808D01*
X292308Y594498D01*
X294663Y594808D01*
X296859Y595718D01*
X298743Y597164D01*
X300190Y599049D01*
X301099Y601244D01*
X301409Y603600D01*
X301099Y605956D01*
X300190Y608151D01*
X298743Y610036D01*
X296859Y611483D01*
X294663Y612392D01*
X292308Y612702D01*
D02*
G37*
G36*
X602025Y598981D02*
X600260Y598630D01*
X598763Y597630D01*
X597763Y596134D01*
X597412Y594368D01*
X597763Y592603D01*
X598763Y591107D01*
X600260Y590107D01*
X602025Y589756D01*
X603790Y590107D01*
X605287Y591107D01*
X606287Y592603D01*
X606638Y594368D01*
X606287Y596134D01*
X605287Y597630D01*
X603790Y598630D01*
X602025Y598981D01*
D02*
G37*
G36*
X350000Y594613D02*
X348235Y594262D01*
X346738Y593262D01*
X345738Y591765D01*
X345387Y590000D01*
X345738Y588235D01*
X346738Y586738D01*
X348235Y585738D01*
X350000Y585387D01*
X351765Y585738D01*
X353262Y586738D01*
X354262Y588235D01*
X354613Y590000D01*
X354262Y591765D01*
X353262Y593262D01*
X351765Y594262D01*
X350000Y594613D01*
D02*
G37*
G36*
X560000Y584613D02*
X558235Y584262D01*
X556739Y583262D01*
X555739Y581766D01*
X555388Y580000D01*
X555739Y578235D01*
X556739Y576739D01*
X558235Y575739D01*
X560000Y575388D01*
X561766Y575739D01*
X563262Y576739D01*
X564262Y578235D01*
X564613Y580000D01*
X564262Y581766D01*
X563262Y583262D01*
X561766Y584262D01*
X560000Y584613D01*
D02*
G37*
G36*
X615600Y580405D02*
X613835Y580053D01*
X612338Y579053D01*
X611339Y577557D01*
X610987Y575792D01*
X611339Y574027D01*
X612338Y572530D01*
X613835Y571530D01*
X615600Y571179D01*
X617365Y571530D01*
X618862Y572530D01*
X619861Y574027D01*
X620213Y575792D01*
X619861Y577557D01*
X618862Y579053D01*
X617365Y580053D01*
X615600Y580405D01*
D02*
G37*
G36*
X317708Y587302D02*
X315352Y586992D01*
X313157Y586082D01*
X311272Y584636D01*
X309825Y582751D01*
X308916Y580556D01*
X308606Y578200D01*
X308916Y575844D01*
X309825Y573649D01*
X311272Y571764D01*
X313157Y570318D01*
X315352Y569408D01*
X317708Y569098D01*
X320063Y569408D01*
X322258Y570318D01*
X324143Y571764D01*
X325590Y573649D01*
X326499Y575844D01*
X326809Y578200D01*
X326499Y580556D01*
X325590Y582751D01*
X324143Y584636D01*
X322258Y586082D01*
X320063Y586992D01*
X317708Y587302D01*
D02*
G37*
G36*
X292308D02*
X289952Y586992D01*
X287757Y586082D01*
X285872Y584636D01*
X284425Y582751D01*
X283516Y580556D01*
X283206Y578200D01*
X283516Y575844D01*
X284425Y573649D01*
X285872Y571764D01*
X287757Y570318D01*
X289952Y569408D01*
X292308Y569098D01*
X294663Y569408D01*
X296859Y570318D01*
X298743Y571764D01*
X300190Y573649D01*
X301099Y575844D01*
X301409Y578200D01*
X301099Y580556D01*
X300190Y582751D01*
X298743Y584636D01*
X296859Y586082D01*
X294663Y586992D01*
X292308Y587302D01*
D02*
G37*
G36*
X730000Y570767D02*
X728235Y570416D01*
X726738Y569416D01*
X725739Y567919D01*
X725387Y566154D01*
X725739Y564389D01*
X726738Y562893D01*
X728235Y561893D01*
X730000Y561542D01*
X731765Y561893D01*
X733262Y562893D01*
X734261Y564389D01*
X734613Y566154D01*
X734261Y567919D01*
X733262Y569416D01*
X731765Y570416D01*
X730000Y570767D01*
D02*
G37*
G36*
X336307Y570613D02*
X334542Y570261D01*
X333046Y569262D01*
X332046Y567765D01*
X331695Y566000D01*
X332046Y564235D01*
X333046Y562738D01*
X334542Y561739D01*
X336307Y561387D01*
X338073Y561739D01*
X339569Y562738D01*
X340569Y564235D01*
X340920Y566000D01*
X340569Y567765D01*
X339569Y569262D01*
X338073Y570261D01*
X336307Y570613D01*
D02*
G37*
G36*
X513001Y568508D02*
X511236Y568157D01*
X509739Y567157D01*
X508739Y565661D01*
X508388Y563896D01*
X508739Y562131D01*
X509739Y560634D01*
X511236Y559634D01*
X513001Y559283D01*
X514766Y559634D01*
X516262Y560634D01*
X517262Y562131D01*
X517613Y563896D01*
X517262Y565661D01*
X516262Y567157D01*
X514766Y568157D01*
X513001Y568508D01*
D02*
G37*
G36*
X440000Y566193D02*
X438234Y565842D01*
X436738Y564842D01*
X435738Y563345D01*
X435387Y561580D01*
X435738Y559815D01*
X436738Y558319D01*
X438234Y557319D01*
X440000Y556968D01*
X441765Y557319D01*
X443261Y558319D01*
X444261Y559815D01*
X444612Y561580D01*
X444261Y563345D01*
X443261Y564842D01*
X441765Y565842D01*
X440000Y566193D01*
D02*
G37*
G36*
X668124Y557913D02*
X666359Y557561D01*
X664862Y556562D01*
X663863Y555065D01*
X663511Y553300D01*
X663863Y551535D01*
X664862Y550038D01*
X666359Y549039D01*
X668124Y548687D01*
X669889Y549039D01*
X671386Y550038D01*
X672385Y551535D01*
X672737Y553300D01*
X672385Y555065D01*
X671386Y556562D01*
X669889Y557561D01*
X668124Y557913D01*
D02*
G37*
G36*
X557945D02*
X556180Y557561D01*
X554683Y556562D01*
X553683Y555065D01*
X553332Y553300D01*
X553683Y551535D01*
X554683Y550038D01*
X556180Y549039D01*
X557945Y548687D01*
X559710Y549039D01*
X561207Y550038D01*
X562206Y551535D01*
X562558Y553300D01*
X562206Y555065D01*
X561207Y556562D01*
X559710Y557561D01*
X557945Y557913D01*
D02*
G37*
G36*
X460000Y557413D02*
X458235Y557062D01*
X456738Y556062D01*
X455738Y554565D01*
X455387Y552800D01*
X455738Y551035D01*
X456738Y549538D01*
X458235Y548539D01*
X460000Y548187D01*
X461765Y548539D01*
X463262Y549538D01*
X464262Y551035D01*
X464613Y552800D01*
X464262Y554565D01*
X463262Y556062D01*
X461765Y557062D01*
X460000Y557413D01*
D02*
G37*
G36*
X317708Y561902D02*
X315352Y561592D01*
X313157Y560682D01*
X311272Y559236D01*
X309825Y557351D01*
X308916Y555156D01*
X308606Y552800D01*
X308916Y550444D01*
X309825Y548249D01*
X311272Y546364D01*
X313157Y544918D01*
X315352Y544008D01*
X317708Y543698D01*
X320063Y544008D01*
X322258Y544918D01*
X324143Y546364D01*
X325590Y548249D01*
X326499Y550444D01*
X326809Y552800D01*
X326499Y555156D01*
X325590Y557351D01*
X324143Y559236D01*
X322258Y560682D01*
X320063Y561592D01*
X317708Y561902D01*
D02*
G37*
G36*
X292308D02*
X289952Y561592D01*
X287757Y560682D01*
X285872Y559236D01*
X284425Y557351D01*
X283516Y555156D01*
X283206Y552800D01*
X283516Y550444D01*
X284425Y548249D01*
X285872Y546364D01*
X287757Y544918D01*
X289952Y544008D01*
X292308Y543698D01*
X294663Y544008D01*
X296859Y544918D01*
X298743Y546364D01*
X300190Y548249D01*
X301099Y550444D01*
X301409Y552800D01*
X301099Y555156D01*
X300190Y557351D01*
X298743Y559236D01*
X296859Y560682D01*
X294663Y561592D01*
X292308Y561902D01*
D02*
G37*
G36*
X513873Y545213D02*
X512108Y544861D01*
X510611Y543862D01*
X509612Y542365D01*
X509260Y540600D01*
X509612Y538835D01*
X510611Y537338D01*
X512108Y536339D01*
X513873Y535987D01*
X515638Y536339D01*
X517135Y537338D01*
X518134Y538835D01*
X518486Y540600D01*
X518134Y542365D01*
X517135Y543862D01*
X515638Y544861D01*
X513873Y545213D01*
D02*
G37*
G36*
X317708Y536502D02*
X315352Y536192D01*
X313157Y535283D01*
X311272Y533836D01*
X309825Y531951D01*
X308916Y529756D01*
X308606Y527400D01*
X308916Y525044D01*
X309825Y522849D01*
X311272Y520964D01*
X313157Y519518D01*
X315352Y518608D01*
X317708Y518298D01*
X320063Y518608D01*
X322258Y519518D01*
X324143Y520964D01*
X325590Y522849D01*
X326499Y525044D01*
X326809Y527400D01*
X326499Y529756D01*
X325590Y531951D01*
X324143Y533836D01*
X322258Y535283D01*
X320063Y536192D01*
X317708Y536502D01*
D02*
G37*
G36*
X292308D02*
X289952Y536192D01*
X287757Y535283D01*
X285872Y533836D01*
X284425Y531951D01*
X283516Y529756D01*
X283206Y527400D01*
X283516Y525044D01*
X284425Y522849D01*
X285872Y520964D01*
X287757Y519518D01*
X289952Y518608D01*
X292308Y518298D01*
X294663Y518608D01*
X296859Y519518D01*
X298743Y520964D01*
X300190Y522849D01*
X301099Y525044D01*
X301409Y527400D01*
X301099Y529756D01*
X300190Y531951D01*
X298743Y533836D01*
X296859Y535283D01*
X294663Y536192D01*
X292308Y536502D01*
D02*
G37*
G36*
X437872Y520916D02*
X436107Y520565D01*
X434611Y519566D01*
X433611Y518069D01*
X433260Y516304D01*
X433611Y514539D01*
X434611Y513042D01*
X436107Y512042D01*
X437872Y511691D01*
X439637Y512042D01*
X441134Y513042D01*
X442134Y514539D01*
X442485Y516304D01*
X442134Y518069D01*
X441134Y519566D01*
X439637Y520565D01*
X437872Y520916D01*
D02*
G37*
G36*
X345197Y519628D02*
X343432Y519277D01*
X341936Y518277D01*
X340936Y516781D01*
X340585Y515015D01*
X340936Y513250D01*
X341936Y511754D01*
X343432Y510754D01*
X345197Y510403D01*
X346963Y510754D01*
X348459Y511754D01*
X349459Y513250D01*
X349810Y515015D01*
X349459Y516781D01*
X348459Y518277D01*
X346963Y519277D01*
X345197Y519628D01*
D02*
G37*
G36*
X637250Y514613D02*
X635485Y514262D01*
X633988Y513262D01*
X632989Y511765D01*
X632637Y510000D01*
X632989Y508235D01*
X633988Y506738D01*
X635485Y505738D01*
X637250Y505387D01*
X639015Y505738D01*
X640512Y506738D01*
X641512Y508235D01*
X641863Y510000D01*
X641512Y511765D01*
X640512Y513262D01*
X639015Y514262D01*
X637250Y514613D01*
D02*
G37*
G36*
X459085Y511528D02*
X457320Y511176D01*
X455823Y510177D01*
X454824Y508680D01*
X454472Y506915D01*
X454824Y505150D01*
X455823Y503653D01*
X457320Y502654D01*
X459085Y502302D01*
X460850Y502654D01*
X462347Y503653D01*
X463347Y505150D01*
X463698Y506915D01*
X463347Y508680D01*
X462347Y510177D01*
X460850Y511176D01*
X459085Y511528D01*
D02*
G37*
G36*
X583500Y506613D02*
X581735Y506261D01*
X580238Y505262D01*
X579239Y503765D01*
X578887Y502000D01*
X579239Y500235D01*
X580238Y498738D01*
X581735Y497738D01*
X583500Y497387D01*
X585265Y497738D01*
X586762Y498738D01*
X587761Y500235D01*
X588113Y502000D01*
X587761Y503765D01*
X586762Y505262D01*
X585265Y506261D01*
X583500Y506613D01*
D02*
G37*
G36*
X502476D02*
X500711Y506261D01*
X499214Y505262D01*
X498214Y503765D01*
X497863Y502000D01*
X498214Y500235D01*
X499214Y498738D01*
X500711Y497738D01*
X502476Y497387D01*
X504241Y497738D01*
X505738Y498738D01*
X506738Y500235D01*
X507089Y502000D01*
X506738Y503765D01*
X505738Y505262D01*
X504241Y506261D01*
X502476Y506613D01*
D02*
G37*
G36*
X392650D02*
X390885Y506261D01*
X389388Y505262D01*
X388388Y503765D01*
X388037Y502000D01*
X388388Y500235D01*
X389388Y498738D01*
X390885Y497738D01*
X392650Y497387D01*
X394415Y497738D01*
X395912Y498738D01*
X396912Y500235D01*
X397263Y502000D01*
X396912Y503765D01*
X395912Y505262D01*
X394415Y506261D01*
X392650Y506613D01*
D02*
G37*
G36*
X412024Y505687D02*
X410258Y505336D01*
X408762Y504337D01*
X407762Y502840D01*
X407411Y501075D01*
X407762Y499310D01*
X408762Y497813D01*
X410258Y496813D01*
X412024Y496462D01*
X413789Y496813D01*
X415285Y497813D01*
X416285Y499310D01*
X416636Y501075D01*
X416285Y502840D01*
X415285Y504337D01*
X413789Y505336D01*
X412024Y505687D01*
D02*
G37*
G36*
X375900D02*
X374135Y505336D01*
X372638Y504337D01*
X371638Y502840D01*
X371287Y501075D01*
X371638Y499310D01*
X372638Y497813D01*
X374135Y496813D01*
X375900Y496462D01*
X377665Y496813D01*
X379162Y497813D01*
X380162Y499310D01*
X380513Y501075D01*
X380162Y502840D01*
X379162Y504337D01*
X377665Y505336D01*
X375900Y505687D01*
D02*
G37*
G36*
X317708Y511102D02*
X315352Y510792D01*
X313157Y509883D01*
X311272Y508436D01*
X309825Y506551D01*
X308916Y504356D01*
X308606Y502000D01*
X308916Y499644D01*
X309825Y497449D01*
X311272Y495564D01*
X313157Y494118D01*
X315352Y493208D01*
X317708Y492898D01*
X320063Y493208D01*
X322258Y494118D01*
X324143Y495564D01*
X325590Y497449D01*
X326499Y499644D01*
X326809Y502000D01*
X326499Y504356D01*
X325590Y506551D01*
X324143Y508436D01*
X322258Y509883D01*
X320063Y510792D01*
X317708Y511102D01*
D02*
G37*
G36*
X292308D02*
X289952Y510792D01*
X287757Y509883D01*
X285872Y508436D01*
X284425Y506551D01*
X283516Y504356D01*
X283206Y502000D01*
X283516Y499644D01*
X284425Y497449D01*
X285872Y495564D01*
X287757Y494118D01*
X289952Y493208D01*
X292308Y492898D01*
X294663Y493208D01*
X296859Y494118D01*
X298743Y495564D01*
X300190Y497449D01*
X301099Y499644D01*
X301409Y502000D01*
X301099Y504356D01*
X300190Y506551D01*
X298743Y508436D01*
X296859Y509883D01*
X294663Y510792D01*
X292308Y511102D01*
D02*
G37*
G36*
X534701Y501988D02*
X532936Y501637D01*
X531439Y500637D01*
X530439Y499141D01*
X530088Y497376D01*
X530439Y495611D01*
X531439Y494114D01*
X532936Y493114D01*
X534701Y492763D01*
X536466Y493114D01*
X537963Y494114D01*
X538963Y495611D01*
X539314Y497376D01*
X538963Y499141D01*
X537963Y500637D01*
X536466Y501637D01*
X534701Y501988D01*
D02*
G37*
G36*
X440000Y481213D02*
X438234Y480862D01*
X436738Y479862D01*
X435738Y478365D01*
X435387Y476600D01*
X435738Y474835D01*
X436738Y473338D01*
X438234Y472338D01*
X440000Y471987D01*
X441765Y472338D01*
X443261Y473338D01*
X444261Y474835D01*
X444612Y476600D01*
X444261Y478365D01*
X443261Y479862D01*
X441765Y480862D01*
X440000Y481213D01*
D02*
G37*
G36*
X403495Y481053D02*
X401730Y480702D01*
X400234Y479702D01*
X399234Y478205D01*
X398883Y476440D01*
X399234Y474675D01*
X400234Y473179D01*
X401730Y472179D01*
X403495Y471828D01*
X405260Y472179D01*
X406757Y473179D01*
X407757Y474675D01*
X408108Y476440D01*
X407757Y478205D01*
X406757Y479702D01*
X405260Y480702D01*
X403495Y481053D01*
D02*
G37*
G36*
X677903Y480840D02*
X676138Y480489D01*
X674641Y479489D01*
X673642Y477992D01*
X673290Y476227D01*
X673642Y474462D01*
X674641Y472965D01*
X676138Y471965D01*
X677903Y471614D01*
X679668Y471965D01*
X681165Y472965D01*
X682165Y474462D01*
X682516Y476227D01*
X682165Y477992D01*
X681165Y479489D01*
X679668Y480489D01*
X677903Y480840D01*
D02*
G37*
G36*
X574701Y480710D02*
X572936Y480359D01*
X571439Y479359D01*
X570439Y477862D01*
X570088Y476097D01*
X570439Y474332D01*
X571439Y472835D01*
X572936Y471836D01*
X574701Y471484D01*
X576466Y471836D01*
X577963Y472835D01*
X578963Y474332D01*
X579314Y476097D01*
X578963Y477862D01*
X577963Y479359D01*
X576466Y480359D01*
X574701Y480710D01*
D02*
G37*
G36*
X652522Y480613D02*
X650757Y480261D01*
X649260Y479262D01*
X648260Y477765D01*
X647909Y476000D01*
X648260Y474235D01*
X649260Y472738D01*
X650757Y471739D01*
X652522Y471387D01*
X654287Y471739D01*
X655784Y472738D01*
X656784Y474235D01*
X657135Y476000D01*
X656784Y477765D01*
X655784Y479262D01*
X654287Y480261D01*
X652522Y480613D01*
D02*
G37*
G36*
X317708Y485702D02*
X315352Y485392D01*
X313157Y484482D01*
X311272Y483036D01*
X309825Y481151D01*
X308916Y478956D01*
X308606Y476600D01*
X308916Y474244D01*
X309825Y472049D01*
X311272Y470164D01*
X313157Y468718D01*
X315352Y467808D01*
X317708Y467498D01*
X320063Y467808D01*
X322258Y468718D01*
X324143Y470164D01*
X325590Y472049D01*
X326499Y474244D01*
X326809Y476600D01*
X326499Y478956D01*
X325590Y481151D01*
X324143Y483036D01*
X322258Y484482D01*
X320063Y485392D01*
X317708Y485702D01*
D02*
G37*
G36*
X292308D02*
X289952Y485392D01*
X287757Y484482D01*
X285872Y483036D01*
X284425Y481151D01*
X283516Y478956D01*
X283206Y476600D01*
X283516Y474244D01*
X284425Y472049D01*
X285872Y470164D01*
X287757Y468718D01*
X289952Y467808D01*
X292308Y467498D01*
X294663Y467808D01*
X296859Y468718D01*
X298743Y470164D01*
X300190Y472049D01*
X301099Y474244D01*
X301409Y476600D01*
X301099Y478956D01*
X300190Y481151D01*
X298743Y483036D01*
X296859Y484482D01*
X294663Y485392D01*
X292308Y485702D01*
D02*
G37*
G36*
X430000Y464613D02*
X428235Y464262D01*
X426739Y463262D01*
X425739Y461765D01*
X425388Y460000D01*
X425739Y458235D01*
X426739Y456739D01*
X428235Y455739D01*
X430000Y455388D01*
X431765Y455739D01*
X433262Y456739D01*
X434262Y458235D01*
X434613Y460000D01*
X434262Y461765D01*
X433262Y463262D01*
X431765Y464262D01*
X430000Y464613D01*
D02*
G37*
G36*
X663000Y454895D02*
X661235Y454543D01*
X659738Y453544D01*
X658738Y452047D01*
X658387Y450282D01*
X658738Y448517D01*
X659738Y447020D01*
X661235Y446021D01*
X663000Y445669D01*
X664765Y446021D01*
X666262Y447020D01*
X667262Y448517D01*
X667613Y450282D01*
X667262Y452047D01*
X666262Y453544D01*
X664765Y454543D01*
X663000Y454895D01*
D02*
G37*
G36*
X317708Y460302D02*
X315352Y459992D01*
X313157Y459082D01*
X311272Y457636D01*
X309825Y455751D01*
X308916Y453556D01*
X308606Y451200D01*
X308916Y448844D01*
X309825Y446649D01*
X311272Y444764D01*
X313157Y443318D01*
X315352Y442408D01*
X317708Y442098D01*
X320063Y442408D01*
X322258Y443318D01*
X324143Y444764D01*
X325590Y446649D01*
X326499Y448844D01*
X326809Y451200D01*
X326499Y453556D01*
X325590Y455751D01*
X324143Y457636D01*
X322258Y459082D01*
X320063Y459992D01*
X317708Y460302D01*
D02*
G37*
G36*
X292308D02*
X289952Y459992D01*
X287757Y459082D01*
X285872Y457636D01*
X284425Y455751D01*
X283516Y453556D01*
X283206Y451200D01*
X283516Y448844D01*
X284425Y446649D01*
X285872Y444764D01*
X287757Y443318D01*
X289952Y442408D01*
X292308Y442098D01*
X294663Y442408D01*
X296859Y443318D01*
X298743Y444764D01*
X300190Y446649D01*
X301099Y448844D01*
X301409Y451200D01*
X301099Y453556D01*
X300190Y455751D01*
X298743Y457636D01*
X296859Y459082D01*
X294663Y459992D01*
X292308Y460302D01*
D02*
G37*
G36*
X450000Y442613D02*
X448235Y442262D01*
X446738Y441262D01*
X445738Y439765D01*
X445387Y438000D01*
X445738Y436235D01*
X446738Y434738D01*
X448235Y433739D01*
X450000Y433387D01*
X451765Y433739D01*
X453262Y434738D01*
X454262Y436235D01*
X454613Y438000D01*
X454262Y439765D01*
X453262Y441262D01*
X451765Y442262D01*
X450000Y442613D01*
D02*
G37*
G36*
X676910Y441703D02*
X675145Y441352D01*
X673648Y440352D01*
X672648Y438855D01*
X672297Y437090D01*
X672648Y435325D01*
X673648Y433828D01*
X675145Y432828D01*
X676910Y432477D01*
X678675Y432828D01*
X680172Y433828D01*
X681171Y435325D01*
X681523Y437090D01*
X681171Y438855D01*
X680172Y440352D01*
X678675Y441352D01*
X676910Y441703D01*
D02*
G37*
G36*
X464000Y429085D02*
X462235Y428733D01*
X460738Y427733D01*
X459739Y426237D01*
X459387Y424472D01*
X459739Y422707D01*
X460738Y421210D01*
X462235Y420210D01*
X464000Y419859D01*
X465765Y420210D01*
X467262Y421210D01*
X468261Y422707D01*
X468613Y424472D01*
X468261Y426237D01*
X467262Y427733D01*
X465765Y428733D01*
X464000Y429085D01*
D02*
G37*
G36*
X676280Y425613D02*
X674515Y425261D01*
X673018Y424262D01*
X672019Y422765D01*
X671667Y421000D01*
X672019Y419235D01*
X673018Y417738D01*
X674515Y416739D01*
X676280Y416387D01*
X678045Y416739D01*
X679542Y417738D01*
X680542Y419235D01*
X680893Y421000D01*
X680542Y422765D01*
X679542Y424262D01*
X678045Y425261D01*
X676280Y425613D01*
D02*
G37*
G36*
X392650Y336342D02*
X390885Y335991D01*
X389388Y334991D01*
X388388Y333494D01*
X388037Y331729D01*
X388388Y329964D01*
X389388Y328468D01*
X390885Y327468D01*
X392650Y327117D01*
X394415Y327468D01*
X395912Y328468D01*
X396912Y329964D01*
X397263Y331729D01*
X396912Y333494D01*
X395912Y334991D01*
X394415Y335991D01*
X392650Y336342D01*
D02*
G37*
G36*
X651000Y322619D02*
X649235Y322267D01*
X647738Y321268D01*
X646739Y319771D01*
X646387Y318006D01*
X646739Y316241D01*
X647738Y314744D01*
X649235Y313745D01*
X651000Y313393D01*
X652765Y313745D01*
X654262Y314744D01*
X655262Y316241D01*
X655613Y318006D01*
X655262Y319771D01*
X654262Y321268D01*
X652765Y322267D01*
X651000Y322619D01*
D02*
G37*
G36*
X540900Y307601D02*
X539135Y307250D01*
X537638Y306250D01*
X536638Y304753D01*
X536287Y302988D01*
X536638Y301223D01*
X537638Y299727D01*
X539135Y298727D01*
X540900Y298376D01*
X542665Y298727D01*
X544162Y299727D01*
X545162Y301223D01*
X545513Y302988D01*
X545162Y304753D01*
X544162Y306250D01*
X542665Y307250D01*
X540900Y307601D01*
D02*
G37*
G36*
X627250Y300654D02*
X625485Y300303D01*
X623988Y299303D01*
X622989Y297807D01*
X622637Y296042D01*
X622989Y294277D01*
X623988Y292780D01*
X625485Y291780D01*
X627250Y291429D01*
X629015Y291780D01*
X630512Y292780D01*
X631511Y294277D01*
X631863Y296042D01*
X631511Y297807D01*
X630512Y299303D01*
X629015Y300303D01*
X627250Y300654D01*
D02*
G37*
G36*
X504698Y298689D02*
X502933Y298337D01*
X501436Y297338D01*
X500437Y295841D01*
X500085Y294076D01*
X500437Y292311D01*
X501436Y290814D01*
X502933Y289814D01*
X504698Y289463D01*
X506463Y289814D01*
X507960Y290814D01*
X508960Y292311D01*
X509311Y294076D01*
X508960Y295841D01*
X507960Y297338D01*
X506463Y298337D01*
X504698Y298689D01*
D02*
G37*
G36*
X594750Y298613D02*
X592985Y298262D01*
X591488Y297262D01*
X590489Y295765D01*
X590137Y294000D01*
X590489Y292235D01*
X591488Y290738D01*
X592985Y289739D01*
X594750Y289387D01*
X596515Y289739D01*
X598012Y290738D01*
X599011Y292235D01*
X599363Y294000D01*
X599011Y295765D01*
X598012Y297262D01*
X596515Y298262D01*
X594750Y298613D01*
D02*
G37*
G36*
X608618Y286265D02*
X606853Y285914D01*
X605356Y284914D01*
X604356Y283417D01*
X604005Y281652D01*
X604356Y279887D01*
X605356Y278390D01*
X606853Y277390D01*
X608618Y277039D01*
X610383Y277390D01*
X611880Y278390D01*
X612879Y279887D01*
X613231Y281652D01*
X612879Y283417D01*
X611880Y284914D01*
X610383Y285914D01*
X608618Y286265D01*
D02*
G37*
G36*
X400000Y284613D02*
X398235Y284262D01*
X396739Y283262D01*
X395739Y281765D01*
X395388Y280000D01*
X395739Y278235D01*
X396739Y276738D01*
X398235Y275739D01*
X400000Y275387D01*
X401765Y275739D01*
X403262Y276738D01*
X404262Y278235D01*
X404613Y280000D01*
X404262Y281765D01*
X403262Y283262D01*
X401765Y284262D01*
X400000Y284613D01*
D02*
G37*
G36*
X630000Y283331D02*
X628235Y282980D01*
X626738Y281980D01*
X625738Y280483D01*
X625387Y278718D01*
X625738Y276953D01*
X626738Y275456D01*
X628235Y274457D01*
X630000Y274105D01*
X631765Y274457D01*
X633262Y275456D01*
X634262Y276953D01*
X634613Y278718D01*
X634262Y280483D01*
X633262Y281980D01*
X631765Y282980D01*
X630000Y283331D01*
D02*
G37*
G36*
X882378Y275613D02*
X880613Y275261D01*
X879116Y274262D01*
X878117Y272765D01*
X877765Y271000D01*
X878117Y269235D01*
X879116Y267738D01*
X880613Y266738D01*
X882378Y266387D01*
X884143Y266738D01*
X885640Y267738D01*
X886639Y269235D01*
X886991Y271000D01*
X886639Y272765D01*
X885640Y274262D01*
X884143Y275261D01*
X882378Y275613D01*
D02*
G37*
G36*
X717000Y275335D02*
X715235Y274984D01*
X713738Y273984D01*
X712738Y272487D01*
X712387Y270722D01*
X712738Y268957D01*
X713738Y267460D01*
X715235Y266460D01*
X717000Y266109D01*
X718765Y266460D01*
X720262Y267460D01*
X721262Y268957D01*
X721613Y270722D01*
X721262Y272487D01*
X720262Y273984D01*
X718765Y274984D01*
X717000Y275335D01*
D02*
G37*
G36*
X823732Y275113D02*
X821967Y274762D01*
X820470Y273762D01*
X819471Y272265D01*
X819119Y270500D01*
X819471Y268735D01*
X820470Y267238D01*
X821967Y266238D01*
X823732Y265887D01*
X825497Y266238D01*
X826994Y267238D01*
X827993Y268735D01*
X828345Y270500D01*
X827993Y272265D01*
X826994Y273762D01*
X825497Y274762D01*
X823732Y275113D01*
D02*
G37*
G36*
X586876Y273481D02*
X585111Y273130D01*
X583615Y272130D01*
X582615Y270634D01*
X582264Y268868D01*
X582615Y267103D01*
X583615Y265607D01*
X585111Y264607D01*
X586876Y264256D01*
X588642Y264607D01*
X590138Y265607D01*
X591138Y267103D01*
X591489Y268868D01*
X591138Y270634D01*
X590138Y272130D01*
X588642Y273130D01*
X586876Y273481D01*
D02*
G37*
G36*
X530068Y272613D02*
X528303Y272262D01*
X526806Y271262D01*
X525807Y269765D01*
X525455Y268000D01*
X525807Y266235D01*
X526806Y264738D01*
X528303Y263738D01*
X530068Y263387D01*
X531833Y263738D01*
X533330Y264738D01*
X534330Y266235D01*
X534681Y268000D01*
X534330Y269765D01*
X533330Y271262D01*
X531833Y272262D01*
X530068Y272613D01*
D02*
G37*
G36*
X289806Y266995D02*
X288041Y266644D01*
X286544Y265644D01*
X285544Y264147D01*
X285193Y262382D01*
X285544Y260617D01*
X286544Y259120D01*
X288041Y258120D01*
X289806Y257769D01*
X291571Y258120D01*
X293068Y259120D01*
X294067Y260617D01*
X294419Y262382D01*
X294067Y264147D01*
X293068Y265644D01*
X291571Y266644D01*
X289806Y266995D01*
D02*
G37*
G36*
X339980Y266613D02*
X338215Y266262D01*
X336718Y265262D01*
X335718Y263765D01*
X335367Y262000D01*
X335718Y260235D01*
X336718Y258738D01*
X338215Y257738D01*
X339980Y257387D01*
X341745Y257738D01*
X343242Y258738D01*
X344241Y260235D01*
X344593Y262000D01*
X344241Y263765D01*
X343242Y265262D01*
X341745Y266262D01*
X339980Y266613D01*
D02*
G37*
G36*
X395096Y266613D02*
X393331Y266262D01*
X391834Y265262D01*
X390834Y263765D01*
X390483Y262000D01*
X390834Y260235D01*
X391834Y258738D01*
X393331Y257738D01*
X395096Y257387D01*
X396861Y257738D01*
X398358Y258738D01*
X399357Y260235D01*
X399709Y262000D01*
X399357Y263765D01*
X398358Y265262D01*
X396861Y266262D01*
X395096Y266613D01*
D02*
G37*
G36*
X754126Y264709D02*
X752361Y264357D01*
X750864Y263358D01*
X749865Y261861D01*
X749513Y260096D01*
X749865Y258331D01*
X750864Y256834D01*
X752361Y255835D01*
X754126Y255483D01*
X755891Y255835D01*
X757388Y256834D01*
X758388Y258331D01*
X758739Y260096D01*
X758388Y261861D01*
X757388Y263358D01*
X755891Y264357D01*
X754126Y264709D01*
D02*
G37*
G36*
X865000Y203502D02*
X862644Y203192D01*
X860449Y202283D01*
X858564Y200836D01*
X857118Y198951D01*
X856208Y196756D01*
X855898Y194400D01*
X856208Y192044D01*
X857118Y189849D01*
X858564Y187964D01*
X860449Y186518D01*
X862644Y185608D01*
X865000Y185298D01*
X867356Y185608D01*
X869551Y186518D01*
X871436Y187964D01*
X872882Y189849D01*
X873792Y192044D01*
X874102Y194400D01*
X873792Y196756D01*
X872882Y198951D01*
X871436Y200836D01*
X869551Y202283D01*
X867356Y203192D01*
X865000Y203502D01*
D02*
G37*
G36*
X771400D02*
X769044Y203192D01*
X766849Y202283D01*
X764964Y200836D01*
X763518Y198951D01*
X762608Y196756D01*
X762298Y194400D01*
X762608Y192044D01*
X763518Y189849D01*
X764964Y187964D01*
X766849Y186518D01*
X769044Y185608D01*
X771400Y185298D01*
X773756Y185608D01*
X775951Y186518D01*
X777836Y187964D01*
X779282Y189849D01*
X780192Y192044D01*
X780502Y194400D01*
X780192Y196756D01*
X779282Y198951D01*
X777836Y200836D01*
X775951Y202283D01*
X773756Y203192D01*
X771400Y203502D01*
D02*
G37*
G36*
X746000D02*
X743644Y203192D01*
X741449Y202283D01*
X739564Y200836D01*
X738118Y198951D01*
X737208Y196756D01*
X736898Y194400D01*
X737208Y192044D01*
X738118Y189849D01*
X739564Y187964D01*
X741449Y186518D01*
X743644Y185608D01*
X746000Y185298D01*
X748356Y185608D01*
X750551Y186518D01*
X752436Y187964D01*
X753882Y189849D01*
X754792Y192044D01*
X755102Y194400D01*
X754792Y196756D01*
X753882Y198951D01*
X752436Y200836D01*
X750551Y202283D01*
X748356Y203192D01*
X746000Y203502D01*
D02*
G37*
G36*
X622500Y203102D02*
X620144Y202792D01*
X617949Y201882D01*
X616064Y200436D01*
X614618Y198551D01*
X613708Y196356D01*
X613398Y194000D01*
X613708Y191644D01*
X614618Y189449D01*
X616064Y187564D01*
X617949Y186118D01*
X620144Y185208D01*
X622500Y184898D01*
X624856Y185208D01*
X627051Y186118D01*
X628936Y187564D01*
X630382Y189449D01*
X631292Y191644D01*
X631602Y194000D01*
X631292Y196356D01*
X630382Y198551D01*
X628936Y200436D01*
X627051Y201882D01*
X624856Y202792D01*
X622500Y203102D01*
D02*
G37*
G36*
X537100Y202502D02*
X534744Y202192D01*
X532549Y201283D01*
X530664Y199836D01*
X529218Y197951D01*
X528308Y195756D01*
X527998Y193400D01*
X528308Y191044D01*
X529218Y188849D01*
X530664Y186964D01*
X532549Y185518D01*
X534744Y184608D01*
X537100Y184298D01*
X539456Y184608D01*
X541651Y185518D01*
X543536Y186964D01*
X544982Y188849D01*
X545892Y191044D01*
X546202Y193400D01*
X545892Y195756D01*
X544982Y197951D01*
X543536Y199836D01*
X541651Y201283D01*
X539456Y202192D01*
X537100Y202502D01*
D02*
G37*
G36*
X511700D02*
X509344Y202192D01*
X507149Y201283D01*
X505264Y199836D01*
X503818Y197951D01*
X502908Y195756D01*
X502598Y193400D01*
X502908Y191044D01*
X503818Y188849D01*
X505264Y186964D01*
X507149Y185518D01*
X509344Y184608D01*
X511700Y184298D01*
X514056Y184608D01*
X516251Y185518D01*
X518136Y186964D01*
X519582Y188849D01*
X520492Y191044D01*
X520802Y193400D01*
X520492Y195756D01*
X519582Y197951D01*
X518136Y199836D01*
X516251Y201283D01*
X514056Y202192D01*
X511700Y202502D01*
D02*
G37*
G36*
X289300D02*
X286944Y202192D01*
X284749Y201283D01*
X282864Y199836D01*
X281418Y197951D01*
X280508Y195756D01*
X280198Y193400D01*
X280508Y191044D01*
X281418Y188849D01*
X282864Y186964D01*
X284749Y185518D01*
X286944Y184608D01*
X289300Y184298D01*
X291656Y184608D01*
X293851Y185518D01*
X295736Y186964D01*
X297182Y188849D01*
X298092Y191044D01*
X298402Y193400D01*
X298092Y195756D01*
X297182Y197951D01*
X295736Y199836D01*
X293851Y201283D01*
X291656Y202192D01*
X289300Y202502D01*
D02*
G37*
G36*
X263900D02*
X261544Y202192D01*
X259349Y201283D01*
X257464Y199836D01*
X256018Y197951D01*
X255108Y195756D01*
X254798Y193400D01*
X255108Y191044D01*
X256018Y188849D01*
X257464Y186964D01*
X259349Y185518D01*
X261544Y184608D01*
X263900Y184298D01*
X266256Y184608D01*
X268451Y185518D01*
X270336Y186964D01*
X271782Y188849D01*
X272692Y191044D01*
X273002Y193400D01*
X272692Y195756D01*
X271782Y197951D01*
X270336Y199836D01*
X268451Y201283D01*
X266256Y202192D01*
X263900Y202502D01*
D02*
G37*
G36*
X371300Y200752D02*
X368944Y200442D01*
X366749Y199532D01*
X364864Y198086D01*
X363418Y196201D01*
X362508Y194006D01*
X362198Y191650D01*
X362508Y189294D01*
X363418Y187099D01*
X364864Y185214D01*
X366749Y183768D01*
X368944Y182858D01*
X371300Y182548D01*
X373656Y182858D01*
X375851Y183768D01*
X377736Y185214D01*
X379183Y187099D01*
X380092Y189294D01*
X380402Y191650D01*
X380092Y194006D01*
X379183Y196201D01*
X377736Y198086D01*
X375851Y199532D01*
X373656Y200442D01*
X371300Y200752D01*
D02*
G37*
G36*
X874024Y178024D02*
X855976D01*
Y159976D01*
X874024D01*
Y178024D01*
D02*
G37*
G36*
X755024D02*
X736976D01*
Y159976D01*
X755024D01*
Y178024D01*
D02*
G37*
G36*
X796800Y178102D02*
X794444Y177792D01*
X792249Y176882D01*
X790364Y175436D01*
X788918Y173551D01*
X788008Y171356D01*
X787698Y169000D01*
X788008Y166644D01*
X788918Y164449D01*
X790364Y162564D01*
X792249Y161118D01*
X794444Y160208D01*
X796800Y159898D01*
X799156Y160208D01*
X801351Y161118D01*
X803236Y162564D01*
X804682Y164449D01*
X805592Y166644D01*
X805902Y169000D01*
X805592Y171356D01*
X804682Y173551D01*
X803236Y175436D01*
X801351Y176882D01*
X799156Y177792D01*
X796800Y178102D01*
D02*
G37*
G36*
X771400D02*
X769044Y177792D01*
X766849Y176882D01*
X764964Y175436D01*
X763518Y173551D01*
X762608Y171356D01*
X762298Y169000D01*
X762608Y166644D01*
X763518Y164449D01*
X764964Y162564D01*
X766849Y161118D01*
X769044Y160208D01*
X771400Y159898D01*
X773756Y160208D01*
X775951Y161118D01*
X777836Y162564D01*
X779282Y164449D01*
X780192Y166644D01*
X780502Y169000D01*
X780192Y171356D01*
X779282Y173551D01*
X777836Y175436D01*
X775951Y176882D01*
X773756Y177792D01*
X771400Y178102D01*
D02*
G37*
G36*
X631524Y177624D02*
X613476D01*
Y159576D01*
X631524D01*
Y177624D01*
D02*
G37*
G36*
X520724Y177024D02*
X502676D01*
Y158976D01*
X520724D01*
Y177024D01*
D02*
G37*
G36*
X272924D02*
X254876D01*
Y158976D01*
X272924D01*
Y177024D01*
D02*
G37*
G36*
X562500Y177102D02*
X560144Y176792D01*
X557949Y175882D01*
X556064Y174436D01*
X554618Y172551D01*
X553708Y170356D01*
X553398Y168000D01*
X553708Y165644D01*
X554618Y163449D01*
X556064Y161564D01*
X557949Y160118D01*
X560144Y159208D01*
X562500Y158898D01*
X564856Y159208D01*
X567051Y160118D01*
X568936Y161564D01*
X570382Y163449D01*
X571292Y165644D01*
X571602Y168000D01*
X571292Y170356D01*
X570382Y172551D01*
X568936Y174436D01*
X567051Y175882D01*
X564856Y176792D01*
X562500Y177102D01*
D02*
G37*
G36*
X537100D02*
X534744Y176792D01*
X532549Y175882D01*
X530664Y174436D01*
X529218Y172551D01*
X528308Y170356D01*
X527998Y168000D01*
X528308Y165644D01*
X529218Y163449D01*
X530664Y161564D01*
X532549Y160118D01*
X534744Y159208D01*
X537100Y158898D01*
X539456Y159208D01*
X541651Y160118D01*
X543536Y161564D01*
X544982Y163449D01*
X545892Y165644D01*
X546202Y168000D01*
X545892Y170356D01*
X544982Y172551D01*
X543536Y174436D01*
X541651Y175882D01*
X539456Y176792D01*
X537100Y177102D01*
D02*
G37*
G36*
X314700D02*
X312344Y176792D01*
X310149Y175882D01*
X308264Y174436D01*
X306818Y172551D01*
X305908Y170356D01*
X305598Y168000D01*
X305908Y165644D01*
X306818Y163449D01*
X308264Y161564D01*
X310149Y160118D01*
X312344Y159208D01*
X314700Y158898D01*
X317056Y159208D01*
X319251Y160118D01*
X321136Y161564D01*
X322582Y163449D01*
X323492Y165644D01*
X323802Y168000D01*
X323492Y170356D01*
X322582Y172551D01*
X321136Y174436D01*
X319251Y175882D01*
X317056Y176792D01*
X314700Y177102D01*
D02*
G37*
G36*
X289300D02*
X286944Y176792D01*
X284749Y175882D01*
X282864Y174436D01*
X281418Y172551D01*
X280508Y170356D01*
X280198Y168000D01*
X280508Y165644D01*
X281418Y163449D01*
X282864Y161564D01*
X284749Y160118D01*
X286944Y159208D01*
X289300Y158898D01*
X291656Y159208D01*
X293851Y160118D01*
X295736Y161564D01*
X297182Y163449D01*
X298092Y165644D01*
X298402Y168000D01*
X298092Y170356D01*
X297182Y172551D01*
X295736Y174436D01*
X293851Y175882D01*
X291656Y176792D01*
X289300Y177102D01*
D02*
G37*
G36*
X380324Y175274D02*
X362276D01*
Y157226D01*
X380324D01*
Y175274D01*
D02*
G37*
G36*
X410000Y105123D02*
X407613Y104809D01*
X405388Y103887D01*
X403478Y102422D01*
X402013Y100512D01*
X401091Y98287D01*
X400777Y95900D01*
X401091Y93513D01*
X402013Y91289D01*
X403478Y89378D01*
X405388Y87913D01*
X407613Y86991D01*
X410000Y86677D01*
X412387Y86991D01*
X414611Y87913D01*
X416522Y89378D01*
X417987Y91289D01*
X418909Y93513D01*
X419223Y95900D01*
X418909Y98287D01*
X417987Y100512D01*
X416522Y102422D01*
X414611Y103887D01*
X412387Y104809D01*
X410000Y105123D01*
D02*
G37*
G36*
X376980D02*
X374593Y104809D01*
X372369Y103887D01*
X370458Y102422D01*
X368993Y100512D01*
X368071Y98287D01*
X367757Y95900D01*
X368071Y93513D01*
X368993Y91289D01*
X370458Y89378D01*
X372369Y87913D01*
X374593Y86991D01*
X376980Y86677D01*
X379367Y86991D01*
X381591Y87913D01*
X383502Y89378D01*
X384967Y91289D01*
X385889Y93513D01*
X386203Y95900D01*
X385889Y98287D01*
X384967Y100512D01*
X383502Y102422D01*
X381591Y103887D01*
X379367Y104809D01*
X376980Y105123D01*
D02*
G37*
G36*
X643760Y104623D02*
X641373Y104309D01*
X639149Y103387D01*
X637238Y101922D01*
X635773Y100012D01*
X634851Y97787D01*
X634537Y95400D01*
X634851Y93013D01*
X635773Y90789D01*
X637238Y88878D01*
X639149Y87413D01*
X641373Y86491D01*
X643760Y86177D01*
X646147Y86491D01*
X648371Y87413D01*
X650282Y88878D01*
X651747Y90789D01*
X652669Y93013D01*
X652983Y95400D01*
X652669Y97787D01*
X651747Y100012D01*
X650282Y101922D01*
X648371Y103387D01*
X646147Y104309D01*
X643760Y104623D01*
D02*
G37*
G36*
X610740D02*
X608353Y104309D01*
X606129Y103387D01*
X604218Y101922D01*
X602753Y100012D01*
X601831Y97787D01*
X601517Y95400D01*
X601831Y93013D01*
X602753Y90789D01*
X604218Y88878D01*
X606129Y87413D01*
X608353Y86491D01*
X610740Y86177D01*
X613127Y86491D01*
X615351Y87413D01*
X617262Y88878D01*
X618727Y90789D01*
X619649Y93013D01*
X619963Y95400D01*
X619649Y97787D01*
X618727Y100012D01*
X617262Y101922D01*
X615351Y103387D01*
X613127Y104309D01*
X610740Y104623D01*
D02*
G37*
G36*
X877847Y104123D02*
X875460Y103809D01*
X873235Y102887D01*
X871325Y101422D01*
X869860Y99511D01*
X868938Y97287D01*
X868624Y94900D01*
X868938Y92513D01*
X869860Y90289D01*
X871325Y88378D01*
X873235Y86913D01*
X875460Y85991D01*
X877847Y85677D01*
X880234Y85991D01*
X882458Y86913D01*
X884369Y88378D01*
X885834Y90289D01*
X886756Y92513D01*
X887070Y94900D01*
X886756Y97287D01*
X885834Y99511D01*
X884369Y101422D01*
X882458Y102887D01*
X880234Y103809D01*
X877847Y104123D01*
D02*
G37*
G36*
X844827D02*
X842440Y103809D01*
X840216Y102887D01*
X838305Y101422D01*
X836840Y99511D01*
X835918Y97287D01*
X835604Y94900D01*
X835918Y92513D01*
X836840Y90289D01*
X838305Y88378D01*
X840216Y86913D01*
X842440Y85991D01*
X844827Y85677D01*
X847214Y85991D01*
X849438Y86913D01*
X851349Y88378D01*
X852814Y90289D01*
X853736Y92513D01*
X854050Y94900D01*
X853736Y97287D01*
X852814Y99511D01*
X851349Y101422D01*
X849438Y102887D01*
X847214Y103809D01*
X844827Y104123D01*
D02*
G37*
G36*
X410000Y79723D02*
X407613Y79409D01*
X405388Y78487D01*
X403478Y77022D01*
X402013Y75111D01*
X401091Y72887D01*
X400777Y70500D01*
X401091Y68113D01*
X402013Y65889D01*
X403478Y63979D01*
X405388Y62513D01*
X407613Y61591D01*
X410000Y61277D01*
X412387Y61591D01*
X414611Y62513D01*
X416522Y63979D01*
X417987Y65889D01*
X418909Y68113D01*
X419223Y70500D01*
X418909Y72887D01*
X417987Y75111D01*
X416522Y77022D01*
X414611Y78487D01*
X412387Y79409D01*
X410000Y79723D01*
D02*
G37*
G36*
X376980D02*
X374593Y79409D01*
X372369Y78487D01*
X370458Y77022D01*
X368993Y75111D01*
X368071Y72887D01*
X367757Y70500D01*
X368071Y68113D01*
X368993Y65889D01*
X370458Y63979D01*
X372369Y62513D01*
X374593Y61591D01*
X376980Y61277D01*
X379367Y61591D01*
X381591Y62513D01*
X383502Y63979D01*
X384967Y65889D01*
X385889Y68113D01*
X386203Y70500D01*
X385889Y72887D01*
X384967Y75111D01*
X383502Y77022D01*
X381591Y78487D01*
X379367Y79409D01*
X376980Y79723D01*
D02*
G37*
G36*
X643760Y79223D02*
X641373Y78909D01*
X639149Y77987D01*
X637238Y76522D01*
X635773Y74612D01*
X634851Y72387D01*
X634537Y70000D01*
X634851Y67613D01*
X635773Y65389D01*
X637238Y63478D01*
X639149Y62013D01*
X641373Y61091D01*
X643760Y60777D01*
X646147Y61091D01*
X648371Y62013D01*
X650282Y63478D01*
X651747Y65389D01*
X652669Y67613D01*
X652983Y70000D01*
X652669Y72387D01*
X651747Y74612D01*
X650282Y76522D01*
X648371Y77987D01*
X646147Y78909D01*
X643760Y79223D01*
D02*
G37*
G36*
X610740D02*
X608353Y78909D01*
X606129Y77987D01*
X604218Y76522D01*
X602753Y74612D01*
X601831Y72387D01*
X601517Y70000D01*
X601831Y67613D01*
X602753Y65389D01*
X604218Y63478D01*
X606129Y62013D01*
X608353Y61091D01*
X610740Y60777D01*
X613127Y61091D01*
X615351Y62013D01*
X617262Y63478D01*
X618727Y65389D01*
X619649Y67613D01*
X619963Y70000D01*
X619649Y72387D01*
X618727Y74612D01*
X617262Y76522D01*
X615351Y77987D01*
X613127Y78909D01*
X610740Y79223D01*
D02*
G37*
G36*
X877847Y78723D02*
X875460Y78409D01*
X873235Y77487D01*
X871325Y76022D01*
X869860Y74111D01*
X868938Y71887D01*
X868624Y69500D01*
X868938Y67113D01*
X869860Y64889D01*
X871325Y62978D01*
X873235Y61513D01*
X875460Y60591D01*
X877847Y60277D01*
X880234Y60591D01*
X882458Y61513D01*
X884369Y62978D01*
X885834Y64889D01*
X886756Y67113D01*
X887070Y69500D01*
X886756Y71887D01*
X885834Y74111D01*
X884369Y76022D01*
X882458Y77487D01*
X880234Y78409D01*
X877847Y78723D01*
D02*
G37*
G36*
X844827D02*
X842440Y78409D01*
X840216Y77487D01*
X838305Y76022D01*
X836840Y74111D01*
X835918Y71887D01*
X835604Y69500D01*
X835918Y67113D01*
X836840Y64889D01*
X838305Y62978D01*
X840216Y61513D01*
X842440Y60591D01*
X844827Y60277D01*
X847214Y60591D01*
X849438Y61513D01*
X851349Y62978D01*
X852814Y64889D01*
X853736Y67113D01*
X854050Y69500D01*
X853736Y71887D01*
X852814Y74111D01*
X851349Y76022D01*
X849438Y77487D01*
X847214Y78409D01*
X844827Y78723D01*
D02*
G37*
G36*
X419144Y54244D02*
X400856D01*
Y35956D01*
X419144D01*
Y54244D01*
D02*
G37*
G36*
X376980Y54323D02*
X374593Y54009D01*
X372369Y53087D01*
X370458Y51622D01*
X368993Y49711D01*
X368071Y47487D01*
X367757Y45100D01*
X368071Y42713D01*
X368993Y40489D01*
X370458Y38579D01*
X372369Y37113D01*
X374593Y36191D01*
X376980Y35877D01*
X379367Y36191D01*
X381591Y37113D01*
X383502Y38579D01*
X384967Y40489D01*
X385889Y42713D01*
X386203Y45100D01*
X385889Y47487D01*
X384967Y49711D01*
X383502Y51622D01*
X381591Y53087D01*
X379367Y54009D01*
X376980Y54323D01*
D02*
G37*
G36*
X652904Y53744D02*
X634616D01*
Y35456D01*
X652904D01*
Y53744D01*
D02*
G37*
G36*
X610740Y53823D02*
X608353Y53509D01*
X606129Y52587D01*
X604218Y51122D01*
X602753Y49212D01*
X601831Y46987D01*
X601517Y44600D01*
X601831Y42213D01*
X602753Y39989D01*
X604218Y38078D01*
X606129Y36613D01*
X608353Y35691D01*
X610740Y35377D01*
X613127Y35691D01*
X615351Y36613D01*
X617262Y38078D01*
X618727Y39989D01*
X619649Y42213D01*
X619963Y44600D01*
X619649Y46987D01*
X618727Y49212D01*
X617262Y51122D01*
X615351Y52587D01*
X613127Y53509D01*
X610740Y53823D01*
D02*
G37*
G36*
X886991Y53244D02*
X868703D01*
Y34956D01*
X886991D01*
Y53244D01*
D02*
G37*
G36*
X844827Y53323D02*
X842440Y53009D01*
X840216Y52087D01*
X838305Y50622D01*
X836840Y48712D01*
X835918Y46487D01*
X835604Y44100D01*
X835918Y41713D01*
X836840Y39489D01*
X838305Y37578D01*
X840216Y36113D01*
X842440Y35191D01*
X844827Y34877D01*
X847214Y35191D01*
X849438Y36113D01*
X851349Y37578D01*
X852814Y39489D01*
X853736Y41713D01*
X854050Y44100D01*
X853736Y46487D01*
X852814Y48712D01*
X851349Y50622D01*
X849438Y52087D01*
X847214Y53009D01*
X844827Y53323D01*
D02*
G37*
G36*
X39624Y728513D02*
X37859Y728161D01*
X36362Y727162D01*
X35363Y725665D01*
X35011Y723900D01*
X35363Y722135D01*
X36362Y720638D01*
X36800Y720346D01*
Y718818D01*
X36362Y718526D01*
X35363Y717029D01*
X35011Y715264D01*
X35363Y713499D01*
X36362Y712002D01*
X37859Y711003D01*
X39624Y710651D01*
X41389Y711003D01*
X42886Y712002D01*
X43885Y713499D01*
X44237Y715264D01*
X43885Y717029D01*
X42886Y718526D01*
X42448Y718818D01*
Y720346D01*
X42886Y720638D01*
X43885Y722135D01*
X44237Y723900D01*
X43885Y725665D01*
X42886Y727162D01*
X41389Y728161D01*
X39624Y728513D01*
D02*
G37*
G36*
X40894Y588305D02*
X39129Y587953D01*
X37632Y586954D01*
X36632Y585457D01*
X36281Y583692D01*
X36632Y581927D01*
X37632Y580430D01*
X38937Y579558D01*
X39043Y578866D01*
X38937Y578174D01*
X37632Y577302D01*
X36632Y575805D01*
X36281Y574040D01*
X36632Y572275D01*
X37632Y570778D01*
X39129Y569779D01*
X40894Y569427D01*
X42659Y569779D01*
X44156Y570778D01*
X45156Y572275D01*
X45507Y574040D01*
X45156Y575805D01*
X44156Y577302D01*
X42850Y578174D01*
X42745Y578866D01*
X42850Y579558D01*
X44156Y580430D01*
X45156Y581927D01*
X45507Y583692D01*
X45156Y585457D01*
X44156Y586954D01*
X42659Y587953D01*
X40894Y588305D01*
D02*
G37*
G36*
Y444287D02*
X39129Y443936D01*
X37632Y442936D01*
X36632Y441439D01*
X36281Y439674D01*
X36632Y437909D01*
X37632Y436412D01*
X38937Y435540D01*
X39043Y434848D01*
X38937Y434156D01*
X37632Y433284D01*
X36632Y431787D01*
X36281Y430022D01*
X36632Y428257D01*
X37632Y426760D01*
X39129Y425760D01*
X40894Y425409D01*
X42659Y425760D01*
X44156Y426760D01*
X45156Y428257D01*
X45507Y430022D01*
X45156Y431787D01*
X44156Y433284D01*
X42850Y434156D01*
X42745Y434848D01*
X42850Y435540D01*
X44156Y436412D01*
X45156Y437909D01*
X45507Y439674D01*
X45156Y441439D01*
X44156Y442936D01*
X42659Y443936D01*
X40894Y444287D01*
D02*
G37*
G36*
X39878Y310113D02*
X38113Y309762D01*
X36616Y308762D01*
X35617Y307265D01*
X35265Y305500D01*
X35617Y303735D01*
X36616Y302238D01*
X37757Y301476D01*
X37812Y301295D01*
Y300247D01*
X37757Y300065D01*
X36616Y299303D01*
X35617Y297807D01*
X35265Y296042D01*
X35617Y294277D01*
X36616Y292780D01*
X38113Y291780D01*
X39878Y291429D01*
X41643Y291780D01*
X43140Y292780D01*
X44139Y294277D01*
X44491Y296042D01*
X44139Y297807D01*
X43140Y299303D01*
X41999Y300065D01*
X41944Y300247D01*
Y301295D01*
X41999Y301476D01*
X43140Y302238D01*
X44139Y303735D01*
X44491Y305500D01*
X44139Y307265D01*
X43140Y308762D01*
X41643Y309762D01*
X39878Y310113D01*
D02*
G37*
G36*
X40000Y166371D02*
X37057Y165984D01*
X34314Y164848D01*
X31959Y163041D01*
X30152Y160686D01*
X29016Y157943D01*
X28629Y155000D01*
X29016Y152057D01*
X30152Y149314D01*
X31959Y146959D01*
X34314Y145152D01*
X37057Y144016D01*
X40000Y143629D01*
X42943Y144016D01*
X45686Y145152D01*
X48041Y146959D01*
X49848Y149314D01*
X50984Y152057D01*
X51371Y155000D01*
X50984Y157943D01*
X49848Y160686D01*
X48041Y163041D01*
X45686Y164848D01*
X42943Y165984D01*
X40000Y166371D01*
D02*
G37*
%LPD*%
D14*
X0Y0D02*
Y902292D01*
X958596D01*
X958596Y0D01*
X0D02*
X958596D01*
D43*
X811778Y454502D02*
D03*
D44*
X815770Y850000D02*
D03*
X705330D02*
D03*
X594890D02*
D03*
X512060D02*
D03*
D45*
X498255Y821600D02*
D03*
D46*
X428655Y835800D02*
D03*
X899175D02*
D03*
D47*
X292308Y679800D02*
D03*
D48*
X317708D02*
D03*
X796800Y194400D02*
D03*
X290800Y835000D02*
D03*
X265400D02*
D03*
X290800Y809600D02*
D03*
X265400D02*
D03*
X314700Y193400D02*
D03*
X562500D02*
D03*
D52*
X40000Y105000D02*
D03*
X917250Y536580D02*
D03*
D53*
X630682Y322834D02*
D03*
X550695Y425173D02*
D03*
X388150Y287998D02*
D03*
X344678Y300000D02*
D03*
X289806Y300000D02*
D03*
X254197Y105353D02*
D03*
X486300Y105554D02*
D03*
X722044Y105145D02*
D03*
X872980Y299992D02*
D03*
X814832Y298958D02*
D03*
X756000Y298862D02*
D03*
X579000Y296418D02*
D03*
X520500Y297996D02*
D03*
X506890Y708500D02*
D03*
X564455Y709195D02*
D03*
X615774Y709500D02*
D03*
X677258Y708500D02*
D03*
X724992Y694004D02*
D03*
X910000Y687242D02*
D03*
X806632Y686562D02*
D03*
X643994Y519280D02*
D03*
X780034Y557508D02*
D03*
X479044Y518668D02*
D03*
X40132Y405384D02*
D03*
Y414274D02*
D03*
X41910Y550533D02*
D03*
Y559054D02*
D03*
X40132Y689864D02*
D03*
Y700278D02*
D03*
X39370Y270500D02*
D03*
X39624Y279908D02*
D03*
M02*
