G04*
G04 #@! TF.GenerationSoftware,Altium Limited,Altium Designer,18.1.9 (240)*
G04*
G04 Layer_Color=8421504*
%FSLAX44Y44*%
%MOMM*%
G71*
G01*
G75*
%ADD14C,0.2540*%
%ADD20R,0.9000X0.7000*%
%ADD21R,1.6000X0.8000*%
%ADD22R,3.0000X2.1000*%
%ADD23R,0.7000X0.9000*%
%ADD24R,2.0574X0.6096*%
%ADD25R,2.1000X1.4000*%
D14*
Y902292D01*
X958596D01*
X958596Y0D01*
X0D02*
X958596D01*
D20*
X770000Y542508D02*
D03*
Y557508D02*
D03*
X113000Y649000D02*
D03*
Y664000D02*
D03*
X770000Y520860D02*
D03*
Y505860D02*
D03*
X112998Y621580D02*
D03*
Y606580D02*
D03*
X724992Y708500D02*
D03*
Y723500D02*
D03*
Y762377D02*
D03*
Y747377D02*
D03*
X602855Y764378D02*
D03*
Y749378D02*
D03*
X663000Y763378D02*
D03*
Y748378D02*
D03*
X550000Y764378D02*
D03*
Y749378D02*
D03*
X492455Y763378D02*
D03*
Y748378D02*
D03*
X602855Y709500D02*
D03*
Y724500D02*
D03*
X664305Y708500D02*
D03*
Y723500D02*
D03*
X550170Y709195D02*
D03*
Y724195D02*
D03*
X493380Y708500D02*
D03*
Y723500D02*
D03*
D21*
X59000Y701950D02*
D03*
Y689450D02*
D03*
Y714450D02*
D03*
Y726950D02*
D03*
Y586580D02*
D03*
Y574080D02*
D03*
Y549080D02*
D03*
Y561580D02*
D03*
Y442500D02*
D03*
Y430000D02*
D03*
Y405000D02*
D03*
Y417500D02*
D03*
Y306642D02*
D03*
Y294142D02*
D03*
Y269142D02*
D03*
Y281642D02*
D03*
D22*
X30000Y752450D02*
D03*
Y663950D02*
D03*
Y523580D02*
D03*
Y612080D02*
D03*
Y379500D02*
D03*
Y468000D02*
D03*
Y243642D02*
D03*
Y332142D02*
D03*
D23*
X316400Y300000D02*
D03*
X331400D02*
D03*
X315030Y262000D02*
D03*
X330030D02*
D03*
X564000Y310000D02*
D03*
X579000D02*
D03*
X505500Y310000D02*
D03*
X520500D02*
D03*
X371110Y262000D02*
D03*
X386110D02*
D03*
X741000Y311000D02*
D03*
X756000D02*
D03*
X563000Y268868D02*
D03*
X578000D02*
D03*
X276400Y262750D02*
D03*
X261400D02*
D03*
X487695Y438000D02*
D03*
X502695D02*
D03*
X873500Y271000D02*
D03*
X858500D02*
D03*
X520025Y268000D02*
D03*
X505025D02*
D03*
X806632Y663750D02*
D03*
X791632D02*
D03*
X814000Y270500D02*
D03*
X799000D02*
D03*
X754000Y270500D02*
D03*
X739000D02*
D03*
X910000Y661750D02*
D03*
X895000D02*
D03*
X630000Y268000D02*
D03*
X615000D02*
D03*
X388150Y300000D02*
D03*
X373150D02*
D03*
X872980Y311000D02*
D03*
X857980D02*
D03*
X815000D02*
D03*
X800000D02*
D03*
X630000Y310750D02*
D03*
X615000D02*
D03*
X275900Y300000D02*
D03*
X260900D02*
D03*
X550695Y437000D02*
D03*
X535695D02*
D03*
X806632Y699302D02*
D03*
X791632D02*
D03*
X910000Y699303D02*
D03*
X895000D02*
D03*
D24*
X486695Y604100D02*
D03*
Y591400D02*
D03*
Y578700D02*
D03*
Y566000D02*
D03*
Y553300D02*
D03*
Y540600D02*
D03*
Y527900D02*
D03*
X534701D02*
D03*
Y540600D02*
D03*
Y553300D02*
D03*
Y566000D02*
D03*
Y578700D02*
D03*
Y591400D02*
D03*
Y604100D02*
D03*
X643994D02*
D03*
Y591400D02*
D03*
Y578700D02*
D03*
Y566000D02*
D03*
Y553300D02*
D03*
Y540600D02*
D03*
Y527900D02*
D03*
X692000D02*
D03*
Y540600D02*
D03*
Y553300D02*
D03*
Y566000D02*
D03*
Y578700D02*
D03*
Y591400D02*
D03*
Y604100D02*
D03*
D25*
X345197Y48000D02*
D03*
Y93000D02*
D03*
X254197Y48000D02*
D03*
Y93000D02*
D03*
X577300Y47500D02*
D03*
Y92500D02*
D03*
X486300Y47500D02*
D03*
Y92500D02*
D03*
M02*
