G04*
G04 #@! TF.GenerationSoftware,Altium Limited,Altium Designer,18.0.12 (696)*
G04*
G04 Layer_Color=32896*
%FSLAX25Y25*%
%MOIN*%
G70*
G01*
G75*
%ADD10C,0.01000*%
%ADD11C,0.00000*%
%ADD12C,0.00500*%
%ADD14C,0.00600*%
%ADD16C,0.00787*%
%ADD17C,0.00394*%
%ADD18C,0.00700*%
%ADD118C,0.00800*%
G36*
X356367Y121351D02*
X356701Y121251D01*
X357001Y121118D01*
X357267Y120985D01*
X357501Y120851D01*
X357667Y120718D01*
X357767Y120618D01*
X357801Y120585D01*
X358034Y120285D01*
X358267Y119951D01*
X358434Y119585D01*
X358600Y119185D01*
X358834Y118318D01*
X359000Y117452D01*
X359067Y117052D01*
X359100Y116652D01*
X359134Y116285D01*
Y115985D01*
X359167Y115719D01*
Y115352D01*
X359134Y114552D01*
X359100Y113819D01*
X359000Y113152D01*
X358900Y112519D01*
X358734Y111952D01*
X358600Y111419D01*
X358434Y110952D01*
X358267Y110519D01*
X358100Y110152D01*
X357934Y109819D01*
X357767Y109553D01*
X357634Y109353D01*
X357534Y109186D01*
X357434Y109053D01*
X357400Y108986D01*
X357367Y108953D01*
X357101Y108653D01*
X356767Y108386D01*
X356367Y108086D01*
X355934Y107819D01*
X355467Y107553D01*
X354967Y107286D01*
X353967Y106786D01*
X353501Y106586D01*
X353034Y106386D01*
X352634Y106220D01*
X352234Y106053D01*
X351934Y105953D01*
X351701Y105853D01*
X351568Y105820D01*
X351501Y105786D01*
X347902Y104553D01*
X347935Y104786D01*
X347968Y105053D01*
X348002Y105586D01*
Y106953D01*
X348035Y107253D01*
Y107686D01*
X348068Y107819D01*
Y107953D01*
X351401Y109219D01*
X351968Y109453D01*
X352501Y109652D01*
X352968Y109853D01*
X353368Y110019D01*
X353734Y110186D01*
X354067Y110319D01*
X354334Y110419D01*
X354568Y110553D01*
X354734Y110619D01*
X354901Y110719D01*
X355134Y110819D01*
X355234Y110886D01*
X355267Y110919D01*
X355434Y111119D01*
X355601Y111319D01*
X355834Y111852D01*
X356034Y112419D01*
X356134Y113019D01*
X356201Y113585D01*
X356234Y113819D01*
Y114019D01*
X356267Y114219D01*
Y115452D01*
X356234Y115685D01*
Y115885D01*
X356201Y116085D01*
X356167Y116219D01*
Y116552D01*
X356134Y116685D01*
X356101Y116785D01*
Y116818D01*
X356034Y116919D01*
X356001Y117018D01*
Y117119D01*
X355967Y117218D01*
X355934Y117285D01*
X355901Y117352D01*
X355867Y117385D01*
X355767Y117452D01*
X355734Y117518D01*
X355701Y117552D01*
X355634Y117585D01*
X355567Y117685D01*
X355501Y117752D01*
X355467Y117785D01*
X355334Y117885D01*
X355267Y117985D01*
X355201Y118018D01*
Y118052D01*
X353701Y117485D01*
X353001Y117252D01*
X352301Y116985D01*
X351668Y116752D01*
X351101Y116552D01*
X350535Y116352D01*
X350035Y116185D01*
X349568Y116019D01*
X349168Y115885D01*
X348835Y115752D01*
X348535Y115652D01*
X348301Y115552D01*
X348135Y115485D01*
X348035Y115452D01*
X348002D01*
Y117452D01*
X348035Y117718D01*
X348068Y118152D01*
X348168Y118485D01*
X348268Y118752D01*
X348368Y118885D01*
X348435Y118985D01*
X348501Y119052D01*
X348535D01*
X349635Y119452D01*
X350601Y119818D01*
X351501Y120118D01*
X352301Y120385D01*
X352968Y120618D01*
X353601Y120818D01*
X354101Y120985D01*
X354568Y121085D01*
X354934Y121185D01*
X355267Y121251D01*
X355501Y121318D01*
X355701Y121351D01*
X355834Y121385D01*
X355934D01*
X355967D01*
X356001D01*
X356367Y121351D01*
D02*
G37*
G36*
X350734Y103420D02*
X350768Y103353D01*
Y103220D01*
X350801Y103053D01*
X350834Y102653D01*
Y102187D01*
X350868Y101720D01*
Y98420D01*
X354834Y99753D01*
X358900Y101120D01*
X358934Y101087D01*
X358967Y101053D01*
X359000Y100853D01*
X359034Y100587D01*
Y100287D01*
X359067Y99987D01*
Y97854D01*
X356167Y96887D01*
X355601Y96687D01*
X355101Y96521D01*
X354634Y96354D01*
X354201Y96187D01*
X353834Y96054D01*
X353501Y95954D01*
X353234Y95854D01*
X352968Y95754D01*
X352768Y95687D01*
X352568Y95621D01*
X352334Y95521D01*
X352168Y95454D01*
X352134D01*
X350968Y94987D01*
X350935Y94654D01*
X350901Y94287D01*
Y93888D01*
X350868Y93521D01*
Y92121D01*
X350834Y91654D01*
Y91254D01*
X350801Y90954D01*
Y90688D01*
X350768Y90521D01*
Y90388D01*
X349601Y90021D01*
X349235Y89888D01*
X348935Y89754D01*
X348701Y89688D01*
X348535Y89654D01*
X348401Y89621D01*
X348335Y89588D01*
X348268D01*
X348235Y89621D01*
Y89654D01*
X348168Y89855D01*
X348135Y90188D01*
X348101Y90588D01*
Y91088D01*
X348068Y91621D01*
X348035Y92221D01*
Y93421D01*
X348002Y94021D01*
Y98187D01*
X348035Y99054D01*
Y99787D01*
X348068Y100420D01*
Y100953D01*
X348101Y101387D01*
X348135Y101753D01*
X348168Y102020D01*
Y102253D01*
X348201Y102420D01*
X348235Y102520D01*
Y102587D01*
X348268Y102620D01*
Y102653D01*
X348668Y102787D01*
X349001Y102920D01*
X349335Y103020D01*
X349601Y103120D01*
X349835Y103187D01*
X350035Y103253D01*
X350335Y103353D01*
X350535Y103420D01*
X350635Y103453D01*
X350701D01*
X350734Y103420D01*
D02*
G37*
G36*
X361267Y125951D02*
X361300Y125818D01*
X361333Y125651D01*
X361367Y125384D01*
Y125051D01*
X361400Y124684D01*
X361433Y124251D01*
Y123784D01*
X361467Y123284D01*
Y122718D01*
X361500Y121518D01*
X361533Y120252D01*
X361567Y118952D01*
Y116352D01*
X361600Y115185D01*
Y97687D01*
X362033Y98054D01*
X362167Y98154D01*
X362400Y98387D01*
X362700Y98654D01*
X363067Y98987D01*
X363500Y99354D01*
X363933Y99787D01*
X364866Y100687D01*
X365766Y101553D01*
X366200Y101953D01*
X366566Y102287D01*
X366866Y102587D01*
X367099Y102820D01*
X367233Y102953D01*
X367300Y103020D01*
X368133Y103820D01*
X368866Y104520D01*
X369499Y105153D01*
X370066Y105686D01*
X370532Y106120D01*
X370899Y106486D01*
X371233Y106819D01*
X371499Y107053D01*
X371699Y107253D01*
X371866Y107419D01*
X371966Y107519D01*
X372032Y107586D01*
X372132Y107686D01*
X372399Y107919D01*
X372599Y108119D01*
X372766Y108253D01*
X372866Y108353D01*
X372966Y108419D01*
X372999Y108453D01*
X373032Y108486D01*
X372666Y107953D01*
X371666Y106519D01*
X370666Y105120D01*
X369699Y103787D01*
X368766Y102487D01*
X367866Y101287D01*
X367000Y100120D01*
X366200Y99020D01*
X365466Y98020D01*
X364766Y97120D01*
X364166Y96321D01*
X363600Y95621D01*
X363167Y95021D01*
X362800Y94554D01*
X362633Y94354D01*
X362533Y94221D01*
X362433Y94087D01*
X362367Y93988D01*
X362300Y93954D01*
Y93921D01*
X361600Y92921D01*
Y79389D01*
X361867Y79256D01*
X362167Y79122D01*
X362767Y79022D01*
X363000Y78989D01*
X363200Y78956D01*
X363367D01*
X363400D01*
X363600D01*
X363733Y78922D01*
X363833Y78889D01*
X363900Y78856D01*
X363933Y78789D01*
Y78756D01*
X363866Y78689D01*
X363700Y78622D01*
X363533Y78556D01*
X363300Y78489D01*
X363100Y78422D01*
X362933Y78356D01*
X362800Y78322D01*
X362767D01*
X361667Y78156D01*
X361600Y70123D01*
Y69390D01*
X361567Y68690D01*
Y67423D01*
X361533Y66857D01*
Y66324D01*
X361500Y65824D01*
Y65390D01*
X361467Y64957D01*
X361433Y64590D01*
X361400Y63924D01*
X361367Y63390D01*
X361333Y62957D01*
X361300Y62624D01*
X361267Y62357D01*
X361233Y62157D01*
X361200Y62057D01*
X361167Y61991D01*
X361134Y61924D01*
X361100Y61957D01*
Y62024D01*
X361067Y62124D01*
X361034Y62257D01*
Y62457D01*
X361000Y62657D01*
X360967Y63191D01*
Y63791D01*
X360933Y64457D01*
X360900Y65190D01*
Y66690D01*
X360867Y67423D01*
Y77956D01*
X357901Y77323D01*
X357001Y77122D01*
X356201Y76956D01*
X355434Y76789D01*
X354734Y76622D01*
X354067Y76489D01*
X353468Y76356D01*
X352934Y76223D01*
X352468Y76123D01*
X352068Y76023D01*
X351701Y75956D01*
X351401Y75889D01*
X351134Y75823D01*
X350935Y75789D01*
X350801Y75756D01*
X350734Y75723D01*
X350701D01*
X350035Y75556D01*
X349435Y75423D01*
X348868Y75289D01*
X348401Y75189D01*
X348002Y75123D01*
X347635Y75056D01*
X347335Y74989D01*
X347068Y74923D01*
X346835Y74889D01*
X346668Y74856D01*
X346535D01*
X346435Y74823D01*
X346302D01*
X346268D01*
Y74789D01*
X346235Y74723D01*
Y74589D01*
X346202Y74423D01*
Y73989D01*
X346168Y73690D01*
Y72723D01*
X346135Y71956D01*
Y70257D01*
X346102Y69423D01*
Y59758D01*
X346068Y59291D01*
Y57858D01*
X346035Y57458D01*
X345968Y57191D01*
X345902Y56991D01*
X345835Y56824D01*
X345768Y56758D01*
X345702Y56725D01*
X345635Y56691D01*
X345502Y56725D01*
X345402Y56858D01*
X345335Y57058D01*
X345302Y57258D01*
X345268Y57458D01*
X345235Y57658D01*
Y58958D01*
X345202Y59524D01*
Y68557D01*
X345168Y69190D01*
Y70756D01*
X345135Y71223D01*
Y72023D01*
X345102Y72356D01*
Y72923D01*
X345068Y73423D01*
X345035Y73790D01*
X345002Y74056D01*
Y74256D01*
X344968Y74389D01*
Y74456D01*
X344935Y74489D01*
Y74523D01*
X342402Y73889D01*
X342135Y73856D01*
X341802Y73790D01*
X341069Y73656D01*
X340769Y73589D01*
X340469Y73523D01*
X340302Y73456D01*
X340236D01*
X339702Y73323D01*
X339269Y73223D01*
X338902Y73156D01*
X338636Y73089D01*
X338402Y73056D01*
X338269Y73023D01*
X338202D01*
X338169D01*
X337769Y72956D01*
X337436Y72856D01*
X337336Y72823D01*
X337236D01*
X337169Y72790D01*
X337136D01*
X336803Y72723D01*
X336503Y72656D01*
X336336D01*
X336269D01*
X336003D01*
X336036Y72723D01*
X336169Y72856D01*
X336336Y73056D01*
X336536Y73256D01*
X336769Y73456D01*
X336936Y73623D01*
X337069Y73756D01*
X337103Y73790D01*
X337536Y74189D01*
X337969Y74623D01*
X338402Y75056D01*
X338802Y75456D01*
X339169Y75789D01*
X339436Y76056D01*
X339636Y76256D01*
X339669Y76289D01*
X339702Y76323D01*
X340236Y76823D01*
X340669Y77256D01*
X341036Y77589D01*
X341302Y77856D01*
X341502Y78089D01*
X341669Y78222D01*
X341735Y78289D01*
X341769Y78322D01*
X345202Y81755D01*
Y106186D01*
X345168Y106819D01*
Y110452D01*
X345135Y111186D01*
Y112986D01*
X345102Y113452D01*
Y116485D01*
X345135Y117018D01*
Y117918D01*
X345168Y118285D01*
Y118618D01*
X345202Y118918D01*
X345235Y119152D01*
Y119352D01*
X345268Y119518D01*
Y119651D01*
X345302Y119818D01*
Y119885D01*
X345368Y120218D01*
X345468Y120485D01*
X345602Y120651D01*
X345702Y120785D01*
X345835Y120851D01*
X345902Y120885D01*
X345968Y120918D01*
X346002D01*
Y120685D01*
X346035Y120451D01*
Y119152D01*
X346068Y118552D01*
Y113085D01*
X346102Y111286D01*
Y82455D01*
X349168Y85422D01*
X349335Y85588D01*
X349501Y85788D01*
X350001Y86255D01*
X350535Y86788D01*
X351134Y87355D01*
X351668Y87855D01*
X351934Y88088D01*
X352134Y88321D01*
X352301Y88488D01*
X352434Y88621D01*
X352534Y88688D01*
X352568Y88721D01*
X353068Y89188D01*
X353501Y89621D01*
X354334Y90388D01*
X355001Y91054D01*
X355567Y91588D01*
X356001Y92021D01*
X356301Y92321D01*
X356467Y92488D01*
X356534Y92554D01*
X360867Y96887D01*
Y116152D01*
X360900Y117152D01*
Y118985D01*
X360933Y119785D01*
Y120518D01*
X360967Y121218D01*
Y122385D01*
X361000Y122918D01*
Y123351D01*
X361034Y123784D01*
Y124151D01*
X361067Y124484D01*
Y124751D01*
X361100Y124984D01*
Y125218D01*
X361134Y125551D01*
X361167Y125751D01*
X361200Y125884D01*
Y125951D01*
X361233Y125984D01*
X361267Y125951D01*
D02*
G37*
G36*
X350768Y73856D02*
X350801Y73790D01*
Y73656D01*
X350834Y73489D01*
Y73089D01*
X350868Y72623D01*
Y70423D01*
X350901Y70023D01*
Y69657D01*
X350935Y69357D01*
Y69157D01*
X350968Y68990D01*
Y68957D01*
X351034D01*
X351168Y69023D01*
X351368Y69090D01*
X351601Y69157D01*
X351901Y69257D01*
X352234Y69390D01*
X352934Y69623D01*
X353634Y69890D01*
X353967Y69990D01*
X354268Y70123D01*
X354501Y70190D01*
X354701Y70257D01*
X354834Y70323D01*
X354867D01*
X355534Y70556D01*
X356134Y70756D01*
X356667Y70956D01*
X357101Y71090D01*
X357501Y71223D01*
X357834Y71323D01*
X358100Y71423D01*
X358334Y71490D01*
X358500Y71556D01*
X358634Y71590D01*
X358734Y71623D01*
X358800D01*
X358867Y71656D01*
X358900D01*
X358934Y71623D01*
X358967Y71590D01*
X359000Y71390D01*
X359034Y71123D01*
Y70790D01*
X359067Y70490D01*
Y68323D01*
X358500Y68090D01*
X357834Y67857D01*
X357167Y67623D01*
X356501Y67390D01*
X355901Y67190D01*
X355634Y67090D01*
X355401Y67023D01*
X355234Y66957D01*
X355101Y66890D01*
X355001Y66857D01*
X354967D01*
X354001Y66523D01*
X353168Y66224D01*
X352468Y65990D01*
X351901Y65790D01*
X351434Y65624D01*
X351134Y65524D01*
X350935Y65457D01*
X350868Y65424D01*
Y60857D01*
X349435Y60391D01*
X348002Y59857D01*
Y72923D01*
X349235Y73456D01*
X349635Y73589D01*
X349968Y73690D01*
X350235Y73790D01*
X350434Y73823D01*
X350601Y73856D01*
X350701Y73889D01*
X350734D01*
X350768D01*
Y73856D01*
D02*
G37*
%LPC*%
G36*
X360767Y91754D02*
X356901Y86422D01*
X356234Y85488D01*
X355634Y84688D01*
X355101Y83955D01*
X354667Y83355D01*
X354301Y82822D01*
X353967Y82389D01*
X353734Y82022D01*
X353501Y81722D01*
X353368Y81455D01*
X353234Y81289D01*
X353168Y81155D01*
X353101Y81055D01*
X353068Y80989D01*
X353034Y80955D01*
Y80922D01*
X353068Y80889D01*
X353201Y80855D01*
X353401Y80822D01*
X353667Y80755D01*
X353967Y80722D01*
X354301Y80622D01*
X355001Y80489D01*
X355734Y80356D01*
X356067Y80289D01*
X356367Y80222D01*
X356634Y80189D01*
X356834Y80155D01*
X356967Y80122D01*
X357001D01*
X360767Y79389D01*
X360867Y82455D01*
Y88588D01*
X360767Y91754D01*
D02*
G37*
G36*
X352934Y84255D02*
X352634Y84188D01*
X352301Y84022D01*
X351901Y83755D01*
X351468Y83389D01*
X350968Y82989D01*
X350501Y82522D01*
X349501Y81489D01*
X349035Y80989D01*
X348568Y80489D01*
X348168Y80022D01*
X347801Y79622D01*
X347501Y79256D01*
X347268Y78989D01*
X347135Y78822D01*
X347068Y78756D01*
X347135D01*
X347268Y78789D01*
X347568Y78822D01*
X347935Y78889D01*
X348368Y78989D01*
X348768Y79089D01*
X349101Y79156D01*
X349235Y79189D01*
X349335D01*
X349401Y79222D01*
X349435D01*
X349601Y79289D01*
X349801Y79322D01*
X350001D01*
X350035D01*
X350068D01*
X350301Y79389D01*
X350468Y79422D01*
X350768Y79522D01*
X350901Y79556D01*
X350968Y79589D01*
X351134Y79622D01*
X351201Y79656D01*
Y79689D01*
X351168Y79756D01*
X351034Y79822D01*
X351001Y79856D01*
X350968D01*
X350668Y79989D01*
X350434Y80089D01*
X350301Y80189D01*
X350168Y80256D01*
X350101Y80289D01*
X350068Y80322D01*
Y80356D01*
X350101Y80455D01*
X350201Y80589D01*
X350335Y80789D01*
X350468Y80989D01*
X350601Y81222D01*
X350734Y81389D01*
X350834Y81522D01*
X350868Y81555D01*
X351134Y81922D01*
X351368Y82255D01*
X351468Y82389D01*
X351534Y82489D01*
X351568Y82522D01*
X351601Y82555D01*
X351834Y82855D01*
X352034Y83088D01*
X352168Y83255D01*
X352234Y83322D01*
X352401Y83522D01*
X352534Y83688D01*
X352634Y83822D01*
X352668Y83855D01*
X352768Y83988D01*
X352801Y84122D01*
X352834Y84155D01*
Y84188D01*
X352934Y84255D01*
D02*
G37*
%LPD*%
D10*
X282287Y232161D02*
G03*
X282287Y232161I-1500J0D01*
G01*
X282051Y266256D02*
G03*
X282051Y266256I-1500J0D01*
G01*
X156693Y308661D02*
X158268D01*
X158268Y308661D01*
Y221260D02*
Y308661D01*
X146457Y221260D02*
X158268D01*
X146457Y195276D02*
Y221260D01*
X56693Y195276D02*
X146457D01*
X55905Y196063D02*
X56693Y195276D01*
X55905Y196063D02*
Y307087D01*
X54331Y308661D02*
X55905Y307087D01*
X54331Y308661D02*
X156693D01*
X787Y146457D02*
X59842D01*
X61417Y148031D01*
Y192126D01*
X146457D01*
Y131496D02*
Y192126D01*
Y131496D02*
X219685D01*
Y0D02*
Y131496D01*
X273087Y208161D02*
X308787D01*
X273087Y229161D02*
X308787D01*
X273087Y208161D02*
Y229161D01*
X308787Y208161D02*
Y229161D01*
X372441Y317323D02*
X373228Y316535D01*
X332283Y317323D02*
X372441D01*
X331496Y316535D02*
X332283Y317323D01*
X331496Y301575D02*
Y316535D01*
X270866Y301575D02*
X331496D01*
X270079Y302362D02*
X270866Y301575D01*
X270079Y302362D02*
Y333071D01*
X197638D02*
X270079D01*
X197638Y267717D02*
Y333071D01*
Y267717D02*
X224410D01*
Y251181D02*
Y267717D01*
X223622Y250394D02*
X224410Y251181D01*
X223622Y250394D02*
X253543D01*
X254331Y249606D01*
Y266929D01*
X312598D01*
Y225984D02*
Y266929D01*
Y225984D02*
X373228D01*
Y316535D01*
X236221Y151969D02*
X315748D01*
X236221Y29921D02*
Y151969D01*
Y29921D02*
X315748D01*
Y151969D01*
X308551Y242256D02*
Y263256D01*
X272851Y242256D02*
Y263256D01*
X308551D01*
X272851Y242256D02*
X308551D01*
D11*
X123819Y153347D02*
G03*
X123819Y153347I-394J0D01*
G01*
X78365Y267165D02*
G03*
X75965Y267165I-1200J0D01*
G01*
X45118Y90926D02*
G03*
X45118Y93326I0J1200D01*
G01*
X100984Y59252D02*
G03*
X100984Y59252I-394J0D01*
G01*
X347284Y270138D02*
G03*
X347284Y270138I-787J0D01*
G01*
X264508Y308701D02*
G03*
X264508Y308701I-787J0D01*
G01*
D12*
X343504Y266339D02*
Y268898D01*
X342717Y266339D02*
X343504D01*
Y277559D02*
Y280118D01*
X342717D02*
X343504D01*
X325787Y277559D02*
Y280118D01*
X326378D01*
X325787Y266339D02*
Y268898D01*
Y266339D02*
X326575D01*
X264961Y305709D02*
X267520D01*
Y304921D02*
Y305709D01*
X253740D02*
X256299D01*
X253740Y304921D02*
Y305709D01*
Y287992D02*
X256299D01*
X253740D02*
Y288583D01*
X264961Y287992D02*
X267520D01*
Y288779D01*
X291626Y237295D02*
X289627D01*
Y236296D01*
X289960Y235962D01*
X290626D01*
X290960Y236296D01*
Y237295D01*
X289960Y233963D02*
X289627Y234296D01*
Y234963D01*
X289960Y235296D01*
X291293D01*
X291626Y234963D01*
Y234296D01*
X291293Y233963D01*
X290626D01*
Y234630D01*
X291626Y233297D02*
X289627D01*
X290293Y232630D01*
X289627Y231964D01*
X291626D01*
X299575Y238583D02*
X301242D01*
X301575Y238249D01*
Y237583D01*
X301242Y237250D01*
X299575D01*
X301575Y236583D02*
X300242D01*
X299575Y235917D01*
X300242Y235250D01*
X301575D01*
X300575D01*
Y236583D01*
X301575Y234584D02*
X299575D01*
Y233584D01*
X299909Y233251D01*
X300575D01*
X300908Y233584D01*
Y234584D01*
Y233917D02*
X301575Y233251D01*
X299575Y232585D02*
Y231252D01*
Y231918D01*
X301575D01*
D14*
X121761Y202261D02*
G03*
X121761Y202261I-1526J0D01*
G01*
X16386Y112049D02*
G03*
X16386Y112049I-1526J0D01*
G01*
X32336Y55668D02*
G03*
X32336Y55668I-1526J0D01*
G01*
X123811Y21361D02*
G03*
X123811Y21361I-1526J0D01*
G01*
X160819Y21754D02*
G03*
X160819Y21754I-1526J0D01*
G01*
X194678Y21361D02*
G03*
X194678Y21361I-1526J0D01*
G01*
X119301Y95052D02*
G03*
X119301Y95052I-1414J0D01*
G01*
X123209Y295503D02*
G03*
X125609Y295503I1200J0D01*
G01*
X266983Y82187D02*
G03*
X266974Y83187I-1101J490D01*
G01*
X265408Y144392D02*
G03*
X265400Y145391I-1101J490D01*
G01*
X84709Y173792D02*
G03*
X84709Y173792I-1414J0D01*
G01*
X224113Y281944D02*
G03*
X223113Y281935I-490J-1101D01*
G01*
X93701Y70866D02*
Y97638D01*
Y70866D02*
X120472D01*
Y97638D01*
X93701D02*
X120472D01*
X135409Y293603D02*
Y295503D01*
X125609D02*
X135409D01*
X123209D02*
X125609D01*
X113409D02*
X123209D01*
X113409Y254103D02*
Y256003D01*
Y254103D02*
X135409D01*
Y256003D01*
X113409Y293603D02*
Y295503D01*
X68265Y267165D02*
X75965D01*
X78365D01*
X86065D01*
X68265Y287165D02*
X86065D01*
X45118Y93326D02*
Y101026D01*
Y90926D02*
Y93326D01*
Y83226D02*
Y90926D01*
X65118Y83226D02*
Y101026D01*
X80709Y149606D02*
Y176378D01*
X107480D01*
Y149606D02*
Y176378D01*
X80709Y149606D02*
X107480D01*
X4875Y133434D02*
Y135433D01*
X7874D01*
Y133434D01*
X6374Y135433D02*
Y134433D01*
X7874Y132434D02*
X4875D01*
Y130935D01*
X5375Y130435D01*
X6374D01*
X6874Y130935D01*
Y132434D01*
X5375Y127436D02*
X4875Y127936D01*
Y128935D01*
X5375Y129435D01*
X5875D01*
X6374Y128935D01*
Y127936D01*
X6874Y127436D01*
X7374D01*
X7874Y127936D01*
Y128935D01*
X7374Y129435D01*
X5375Y121438D02*
X4875Y121937D01*
Y122937D01*
X5375Y123437D01*
X7374D01*
X7874Y122937D01*
Y121937D01*
X7374Y121438D01*
X7874Y120438D02*
X5875D01*
X4875Y119438D01*
X5875Y118439D01*
X7874D01*
X6374D01*
Y120438D01*
X7874Y117439D02*
X4875D01*
X7874Y115439D01*
X4875D01*
X8025Y72516D02*
Y73516D01*
X8524Y74016D01*
X10524D01*
X11024Y73516D01*
Y72516D01*
X10524Y72016D01*
X8524D01*
X8025Y72516D01*
Y71017D02*
X11024D01*
Y69517D01*
X10524Y69017D01*
X10024D01*
X9524Y69517D01*
Y71017D01*
Y69517D01*
X9024Y69017D01*
X8524D01*
X8025Y69517D01*
Y71017D01*
X8524Y66018D02*
X8025Y66518D01*
Y67518D01*
X8524Y68018D01*
X10524D01*
X11024Y67518D01*
Y66518D01*
X10524Y66018D01*
X8524Y60020D02*
X8025Y60520D01*
Y61520D01*
X8524Y62020D01*
X10524D01*
X11024Y61520D01*
Y60520D01*
X10524Y60020D01*
X11024Y59021D02*
X9024D01*
X8025Y58021D01*
X9024Y57021D01*
X11024D01*
X9524D01*
Y59021D01*
X11024Y56022D02*
X8025D01*
X11024Y54022D01*
X8025D01*
X121623Y229771D02*
X123622D01*
Y226772D01*
X121623D01*
X123622Y228271D02*
X122622D01*
X120623Y226772D02*
Y229771D01*
X119123D01*
X118624Y229271D01*
Y228271D01*
X119123Y227771D01*
X120623D01*
X115625Y229271D02*
X116124Y229771D01*
X117124D01*
X117624Y229271D01*
Y228771D01*
X117124Y228271D01*
X116124D01*
X115625Y227771D01*
Y227272D01*
X116124Y226772D01*
X117124D01*
X117624Y227272D01*
X111626Y226772D02*
Y229771D01*
X110626Y228771D01*
X109627Y229771D01*
Y226772D01*
X106628Y229771D02*
X108627D01*
Y226772D01*
X106628D01*
X108627Y228271D02*
X107627D01*
X105628Y226772D02*
Y229771D01*
X104628Y228771D01*
X103629Y229771D01*
Y226772D01*
X201575Y112598D02*
Y115597D01*
X200075D01*
X199575Y115098D01*
Y114098D01*
X200075Y113598D01*
X201575D01*
X200575D02*
X199575Y112598D01*
X197076D02*
X198076D01*
X198576Y113098D01*
Y114098D01*
X198076Y114598D01*
X197076D01*
X196576Y114098D01*
Y113598D01*
X198576D01*
X195077Y114598D02*
X194077D01*
X193577Y114098D01*
Y112598D01*
X195077D01*
X195577Y113098D01*
X195077Y113598D01*
X193577D01*
X192578Y112598D02*
X191578D01*
X192078D01*
Y115597D01*
X192578D01*
X187080D02*
X185080D01*
X186080D01*
Y112598D01*
X184081D02*
X183081D01*
X183581D01*
Y114598D01*
X184081D01*
X181581Y112598D02*
Y114598D01*
X181081D01*
X180582Y114098D01*
Y112598D01*
Y114098D01*
X180082Y114598D01*
X179582Y114098D01*
Y112598D01*
X177083D02*
X178082D01*
X178582Y113098D01*
Y114098D01*
X178082Y114598D01*
X177083D01*
X176583Y114098D01*
Y113598D01*
X178582D01*
X170585Y115098D02*
X171085Y115597D01*
X172084D01*
X172584Y115098D01*
Y113098D01*
X172084Y112598D01*
X171085D01*
X170585Y113098D01*
X169585Y112598D02*
X168586D01*
X169085D01*
Y115597D01*
X169585D01*
X166586Y112598D02*
X165586D01*
X165087Y113098D01*
Y114098D01*
X165586Y114598D01*
X166586D01*
X167086Y114098D01*
Y113098D01*
X166586Y112598D01*
X162088Y114598D02*
X163587D01*
X164087Y114098D01*
Y113098D01*
X163587Y112598D01*
X162088D01*
X161088D02*
Y115597D01*
Y113598D02*
X159588Y114598D01*
X161088Y113598D02*
X159588Y112598D01*
X111801Y188899D02*
X113800D01*
Y185900D01*
X111801D01*
X113800Y187399D02*
X112800D01*
X110801Y185900D02*
Y188899D01*
X109301D01*
X108802Y188399D01*
Y187399D01*
X109301Y186900D01*
X110801D01*
X105803Y188399D02*
X106302Y188899D01*
X107302D01*
X107802Y188399D01*
Y187899D01*
X107302Y187399D01*
X106302D01*
X105803Y186900D01*
Y186400D01*
X106302Y185900D01*
X107302D01*
X107802Y186400D01*
X135796Y305361D02*
X137795D01*
Y302362D01*
X135796D01*
X137795Y303862D02*
X136796D01*
X134796Y302362D02*
Y305361D01*
X133297D01*
X132797Y304861D01*
Y303862D01*
X133297Y303362D01*
X134796D01*
X129798Y304861D02*
X130298Y305361D01*
X131297D01*
X131797Y304861D01*
Y304362D01*
X131297Y303862D01*
X130298D01*
X129798Y303362D01*
Y302862D01*
X130298Y302362D01*
X131297D01*
X131797Y302862D01*
X125799Y302362D02*
Y305361D01*
X124300D01*
X123800Y304861D01*
Y303862D01*
X124300Y303362D01*
X125799D01*
X120801Y305361D02*
X122800D01*
Y302362D01*
X120801D01*
X122800Y303862D02*
X121800D01*
X119801Y305361D02*
X117802Y302362D01*
Y305361D02*
X119801Y302362D01*
X125272Y112448D02*
X126272D01*
X126772Y111948D01*
Y109949D01*
X126272Y109449D01*
X125272D01*
X124772Y109949D01*
Y111948D01*
X125272Y112448D01*
X123773D02*
Y109449D01*
X122273D01*
X121773Y109949D01*
Y110449D01*
X122273Y110948D01*
X123773D01*
X122273D01*
X121773Y111448D01*
Y111948D01*
X122273Y112448D01*
X123773D01*
X118774Y111948D02*
X119274Y112448D01*
X120274D01*
X120774Y111948D01*
Y109949D01*
X120274Y109449D01*
X119274D01*
X118774Y109949D01*
X114776Y111948D02*
X114276Y112448D01*
X113276D01*
X112776Y111948D01*
Y111448D01*
X113276Y110948D01*
X113776D01*
X113276D01*
X112776Y110449D01*
Y109949D01*
X113276Y109449D01*
X114276D01*
X114776Y109949D01*
X109777Y109449D02*
X111776D01*
X109777Y111448D01*
Y111948D01*
X110277Y112448D01*
X111277D01*
X111776Y111948D01*
X108777Y109449D02*
Y112448D01*
X107778Y111448D01*
X106778Y112448D01*
Y109449D01*
X105778D02*
X104779D01*
X105279D01*
Y112448D01*
X105778Y111948D01*
X287764Y346306D02*
X289764D01*
Y343307D01*
X287764D01*
X289764Y344807D02*
X288764D01*
X286765Y343307D02*
Y346306D01*
X285265D01*
X284765Y345806D01*
Y344807D01*
X285265Y344307D01*
X286765D01*
X281766Y345806D02*
X282266Y346306D01*
X283266D01*
X283766Y345806D01*
Y345306D01*
X283266Y344807D01*
X282266D01*
X281766Y344307D01*
Y343807D01*
X282266Y343307D01*
X283266D01*
X283766Y343807D01*
X334646Y343307D02*
Y346306D01*
X333146D01*
X332646Y345806D01*
Y344807D01*
X333146Y344307D01*
X334646D01*
X333646D02*
X332646Y343307D01*
X329647Y346306D02*
X331647D01*
Y343307D01*
X329647D01*
X331647Y344807D02*
X330647D01*
X326648Y345806D02*
X327148Y346306D01*
X328148D01*
X328648Y345806D01*
Y345306D01*
X328148Y344807D01*
X327148D01*
X326648Y344307D01*
Y343807D01*
X327148Y343307D01*
X328148D01*
X328648Y343807D01*
X323649Y346306D02*
X325649D01*
Y343307D01*
X323649D01*
X325649Y344807D02*
X324649D01*
X322650Y346306D02*
X320650D01*
X321650D01*
Y343307D01*
X315152Y346306D02*
X316152D01*
X316652Y345806D01*
Y343807D01*
X316152Y343307D01*
X315152D01*
X314652Y343807D01*
Y345806D01*
X315152Y346306D01*
X313652D02*
Y343307D01*
X312153D01*
X311653Y343807D01*
Y344307D01*
X312153Y344807D01*
X313652D01*
X312153D01*
X311653Y345306D01*
Y345806D01*
X312153Y346306D01*
X313652D01*
X308654Y345806D02*
X309154Y346306D01*
X310154D01*
X310653Y345806D01*
Y343807D01*
X310154Y343307D01*
X309154D01*
X308654Y343807D01*
X178103Y257056D02*
Y259055D01*
X181102D01*
Y257056D01*
X179603Y259055D02*
Y258055D01*
X181102Y256056D02*
X178103D01*
Y254557D01*
X178603Y254057D01*
X179603D01*
X180103Y254557D01*
Y256056D01*
X178603Y251058D02*
X178103Y251557D01*
Y252557D01*
X178603Y253057D01*
X179103D01*
X179603Y252557D01*
Y251557D01*
X180103Y251058D01*
X180603D01*
X181102Y251557D01*
Y252557D01*
X180603Y253057D01*
X177316Y234721D02*
Y235721D01*
X177816Y236221D01*
X179815D01*
X180315Y235721D01*
Y234721D01*
X179815Y234221D01*
X177816D01*
X177316Y234721D01*
Y233221D02*
X180315D01*
Y231722D01*
X179815Y231222D01*
X179315D01*
X178815Y231722D01*
Y233221D01*
Y231722D01*
X178316Y231222D01*
X177816D01*
X177316Y231722D01*
Y233221D01*
X177816Y228223D02*
X177316Y228723D01*
Y229723D01*
X177816Y230222D01*
X179815D01*
X180315Y229723D01*
Y228723D01*
X179815Y228223D01*
D16*
X188821Y107480D02*
G03*
X188821Y107480I-1419J0D01*
G01*
X7677Y107087D02*
Y108661D01*
X4921Y107087D02*
Y108661D01*
X25394Y222244D02*
X26969D01*
X25394Y225000D02*
X26969D01*
X191535Y244055D02*
X210702D01*
X191535D02*
X221535D01*
X191535Y264055D02*
X221535D01*
Y244055D02*
Y264055D01*
X191535Y244055D02*
Y264055D01*
X194449Y221220D02*
X213615D01*
X194449D02*
X224449D01*
X194449Y241220D02*
X224449D01*
Y221220D02*
Y241220D01*
X194449Y221220D02*
Y241220D01*
X164862Y111024D02*
X191043D01*
X164862Y60630D02*
Y111024D01*
Y60630D02*
X191043D01*
Y111024D01*
X99213Y237992D02*
X100787D01*
X99213Y240748D02*
X100787D01*
X103740Y246457D02*
Y248031D01*
X100984Y246457D02*
Y248031D01*
X104528Y259055D02*
Y260630D01*
X101772Y259055D02*
Y260630D01*
X130512Y29134D02*
Y30709D01*
X127756Y29134D02*
Y30709D01*
X197638Y30118D02*
X199213D01*
X197638Y32874D02*
X199213D01*
X166142Y26969D02*
X167717D01*
X166142Y29724D02*
X167717D01*
X34055Y134843D02*
Y136417D01*
X36811Y134843D02*
Y136417D01*
X45079Y135433D02*
Y137008D01*
X47835Y135433D02*
Y137008D01*
X45472Y52953D02*
Y54528D01*
X42717Y52953D02*
Y54528D01*
X55709Y52756D02*
Y54331D01*
X52953Y52756D02*
Y54331D01*
X121063Y247244D02*
Y248819D01*
X118307Y247244D02*
Y248819D01*
X321535Y156417D02*
Y176417D01*
X301535Y156417D02*
X321535D01*
X301535Y176417D02*
X321535D01*
X301535Y156417D02*
Y176417D01*
X53543Y173031D02*
X55118D01*
X53543Y170276D02*
X55118D01*
X29921Y275394D02*
X31496D01*
X29921Y272638D02*
X31496D01*
X25482Y246260D02*
X27057D01*
X25482Y243504D02*
X27057D01*
X25482Y236024D02*
X27057D01*
X25482Y233268D02*
X27057D01*
X25482Y265945D02*
X27057D01*
X25482Y263189D02*
X27057D01*
X25482Y255709D02*
X27057D01*
X25482Y252953D02*
X27057D01*
X275197Y116319D02*
Y117697D01*
X277165D01*
X287795D02*
X288583D01*
Y116909D02*
Y117697D01*
X275197Y106280D02*
Y107067D01*
Y106280D02*
X275984D01*
X288583D02*
Y107067D01*
X287795Y106280D02*
X288583D01*
X38386Y107087D02*
Y108661D01*
X35630Y107087D02*
Y108661D01*
X30512Y140157D02*
Y141732D01*
X27756Y140157D02*
Y141732D01*
X23425Y140157D02*
Y141732D01*
X20669Y140157D02*
Y141732D01*
X321299Y176417D02*
Y196417D01*
X301299Y176417D02*
X321299D01*
X301299Y196417D02*
X321299D01*
X301299Y176417D02*
Y196417D01*
X15945Y37795D02*
Y39370D01*
X18701Y37795D02*
Y39370D01*
X17913Y79528D02*
Y81102D01*
X15157Y79528D02*
Y81102D01*
X25197Y194291D02*
X26772D01*
X25197Y191535D02*
X26772D01*
X25197Y184055D02*
X26772D01*
X25197Y181299D02*
X26772D01*
X265354Y243110D02*
X266929D01*
X265354Y240354D02*
X266929D01*
X111614Y129134D02*
Y130709D01*
X108858Y129134D02*
Y130709D01*
X30118Y79527D02*
Y81102D01*
X32874Y79527D02*
Y81102D01*
X120276Y129134D02*
Y130709D01*
X117520Y129134D02*
Y130709D01*
X25197Y163583D02*
X26772D01*
X25197Y160827D02*
X26772D01*
X25197Y173819D02*
X26772D01*
X25197Y171063D02*
X26772D01*
X25197Y204528D02*
X26772D01*
X25197Y201772D02*
X26772D01*
X25197Y214764D02*
X26772D01*
X25197Y212008D02*
X26772D01*
X31693Y34646D02*
Y36220D01*
X34449Y34646D02*
Y36220D01*
X88779Y129134D02*
Y130709D01*
X86024Y129134D02*
Y130709D01*
X276339Y58839D02*
Y60216D01*
X278307D01*
X288937D02*
X289724D01*
Y59429D02*
Y60216D01*
X276339Y48799D02*
Y49587D01*
Y48799D02*
X277126D01*
X289724D02*
Y49587D01*
X288937Y48799D02*
X289724D01*
D17*
X224535Y247055D02*
X223880D01*
X224207D01*
Y249023D01*
X224535Y248695D01*
X225223Y257055D02*
X226535D01*
X225223Y258367D01*
Y258695D01*
X225552Y259023D01*
X226207D01*
X226535Y258695D01*
X189224Y249023D02*
X190535D01*
Y248039D01*
X189880Y248367D01*
X189551D01*
X189224Y248039D01*
Y247383D01*
X189551Y247055D01*
X190207D01*
X190535Y247383D01*
X189224Y259023D02*
X189880Y258695D01*
X190535Y258039D01*
Y257383D01*
X190207Y257055D01*
X189551D01*
X189224Y257383D01*
Y257711D01*
X189551Y258039D01*
X190535D01*
X227449Y224220D02*
X226793D01*
X227121D01*
Y226188D01*
X227449Y225860D01*
X228137Y234221D02*
X229449D01*
X228137Y235532D01*
Y235860D01*
X228465Y236188D01*
X229121D01*
X229449Y235860D01*
X192137Y226188D02*
X193449D01*
Y225204D01*
X192793Y225532D01*
X192465D01*
X192137Y225204D01*
Y224549D01*
X192465Y224220D01*
X193121D01*
X193449Y224549D01*
X192137Y236188D02*
X192793Y235860D01*
X193449Y235204D01*
Y234548D01*
X193121Y234221D01*
X192465D01*
X192137Y234548D01*
Y234876D01*
X192465Y235204D01*
X193449D01*
X304535Y153417D02*
Y154073D01*
Y153745D01*
X306503D01*
X306175Y153417D01*
X314535Y152729D02*
Y151417D01*
X315847Y152729D01*
X316175D01*
X316503Y152401D01*
Y151745D01*
X316175Y151417D01*
X314535Y178401D02*
X316503D01*
X315519Y177417D01*
Y178729D01*
X306175Y177417D02*
X306503Y177745D01*
Y178401D01*
X306175Y178729D01*
X305847D01*
X305519Y178401D01*
Y178073D01*
Y178401D01*
X305191Y178729D01*
X304863D01*
X304535Y178401D01*
Y177745D01*
X304863Y177417D01*
X304299Y173417D02*
Y174073D01*
Y173745D01*
X306267D01*
X305939Y173417D01*
X314299Y172729D02*
Y171417D01*
X315611Y172729D01*
X315939D01*
X316267Y172401D01*
Y171745D01*
X315939Y171417D01*
X314299Y198401D02*
X316267D01*
X315283Y197417D01*
Y198729D01*
X305939Y197417D02*
X306267Y197745D01*
Y198401D01*
X305939Y198729D01*
X305611D01*
X305283Y198401D01*
Y198073D01*
Y198401D01*
X304955Y198729D01*
X304627D01*
X304299Y198401D01*
Y197745D01*
X304627Y197417D01*
X340900Y249006D02*
Y247038D01*
X339588D01*
X338932D02*
Y248350D01*
X338276Y249006D01*
X337620Y248350D01*
Y247038D01*
Y248022D01*
X338932D01*
X335652Y247038D02*
X336964D01*
X335652Y248350D01*
Y248678D01*
X335980Y249006D01*
X336636D01*
X336964Y248678D01*
X128609Y36220D02*
X129921D01*
X128609Y37532D01*
Y37860D01*
X128937Y38188D01*
X129593D01*
X129921Y37860D01*
X126641Y36220D02*
X127953D01*
X126641Y37532D01*
Y37860D01*
X126970Y38188D01*
X127625D01*
X127953Y37860D01*
X199476Y34646D02*
X200787D01*
X199476Y35958D01*
Y36286D01*
X199803Y36614D01*
X200459D01*
X200787Y36286D01*
X198819D02*
X198492Y36614D01*
X197836D01*
X197508Y36286D01*
Y34974D01*
X197836Y34646D01*
X198492D01*
X198819Y34974D01*
Y36286D01*
X169291Y31496D02*
Y33464D01*
X168307D01*
X167979Y33136D01*
Y32480D01*
X168307Y32152D01*
X169291D01*
X168635D02*
X167979Y31496D01*
X167324Y33136D02*
X166996Y33464D01*
X166340D01*
X166012Y33136D01*
Y32808D01*
X166340Y32480D01*
X166667D01*
X166340D01*
X166012Y32152D01*
Y31824D01*
X166340Y31496D01*
X166996D01*
X167324Y31824D01*
X165356Y33136D02*
X165028Y33464D01*
X164372D01*
X164044Y33136D01*
Y32808D01*
X164372Y32480D01*
X164700D01*
X164372D01*
X164044Y32152D01*
Y31824D01*
X164372Y31496D01*
X165028D01*
X165356Y31824D01*
X19161Y279133D02*
X20472D01*
Y277165D01*
X19161D01*
X20472Y278149D02*
X19816D01*
X18505Y277165D02*
Y279133D01*
X17521D01*
X17193Y278805D01*
Y278149D01*
X17521Y277821D01*
X18505D01*
X15225Y278805D02*
X15553Y279133D01*
X16209D01*
X16537Y278805D01*
Y278477D01*
X16209Y278149D01*
X15553D01*
X15225Y277821D01*
Y277493D01*
X15553Y277165D01*
X16209D01*
X16537Y277493D01*
X12601Y279133D02*
X11289D01*
X11945D01*
Y277165D01*
X10633Y279133D02*
X9321Y277165D01*
Y279133D02*
X10633Y277165D01*
X19161Y269684D02*
X20472D01*
Y267717D01*
X19161D01*
X20472Y268701D02*
X19816D01*
X18505Y267717D02*
Y269684D01*
X17521D01*
X17193Y269356D01*
Y268701D01*
X17521Y268373D01*
X18505D01*
X15225Y269356D02*
X15553Y269684D01*
X16209D01*
X16537Y269356D01*
Y269028D01*
X16209Y268701D01*
X15553D01*
X15225Y268373D01*
Y268044D01*
X15553Y267717D01*
X16209D01*
X16537Y268044D01*
X12601Y267717D02*
Y269684D01*
X11617D01*
X11289Y269356D01*
Y268701D01*
X11617Y268373D01*
X12601D01*
X11945D02*
X11289Y267717D01*
X10633Y269684D02*
X9321Y267717D01*
Y269684D02*
X10633Y267717D01*
X19161Y260236D02*
X20472D01*
Y258268D01*
X19161D01*
X20472Y259252D02*
X19816D01*
X18505Y258268D02*
Y260236D01*
X17521D01*
X17193Y259908D01*
Y259252D01*
X17521Y258924D01*
X18505D01*
X15225Y259908D02*
X15553Y260236D01*
X16209D01*
X16537Y259908D01*
Y259580D01*
X16209Y259252D01*
X15553D01*
X15225Y258924D01*
Y258596D01*
X15553Y258268D01*
X16209D01*
X16537Y258596D01*
X12601Y260236D02*
X11289D01*
X11945D01*
Y258268D01*
X10633Y260236D02*
X9321Y258268D01*
Y260236D02*
X10633Y258268D01*
X7353Y259908D02*
X7681Y260236D01*
X8337D01*
X8665Y259908D01*
Y258596D01*
X8337Y258268D01*
X7681D01*
X7353Y258596D01*
X6697Y258268D02*
Y259580D01*
X6041Y260236D01*
X5385Y259580D01*
Y258268D01*
Y259252D01*
X6697D01*
X4730Y258268D02*
Y260236D01*
X3418Y258268D01*
Y260236D01*
X19161Y250787D02*
X20472D01*
Y248819D01*
X19161D01*
X20472Y249803D02*
X19816D01*
X18505Y248819D02*
Y250787D01*
X17521D01*
X17193Y250459D01*
Y249803D01*
X17521Y249475D01*
X18505D01*
X15225Y250459D02*
X15553Y250787D01*
X16209D01*
X16537Y250459D01*
Y250131D01*
X16209Y249803D01*
X15553D01*
X15225Y249475D01*
Y249147D01*
X15553Y248819D01*
X16209D01*
X16537Y249147D01*
X12601Y248819D02*
Y250787D01*
X11617D01*
X11289Y250459D01*
Y249803D01*
X11617Y249475D01*
X12601D01*
X11945D02*
X11289Y248819D01*
X10633Y250787D02*
X9321Y248819D01*
Y250787D02*
X10633Y248819D01*
X7353Y250459D02*
X7681Y250787D01*
X8337D01*
X8665Y250459D01*
Y249147D01*
X8337Y248819D01*
X7681D01*
X7353Y249147D01*
X6697Y248819D02*
Y250131D01*
X6041Y250787D01*
X5385Y250131D01*
Y248819D01*
Y249803D01*
X6697D01*
X4730Y248819D02*
Y250787D01*
X3418Y248819D01*
Y250787D01*
X17586Y240550D02*
X18898D01*
Y238583D01*
X17586D01*
X18898Y239567D02*
X18242D01*
X16930Y238583D02*
Y240550D01*
X15946D01*
X15618Y240223D01*
Y239567D01*
X15946Y239239D01*
X16930D01*
X13650Y240223D02*
X13978Y240550D01*
X14634D01*
X14962Y240223D01*
Y239895D01*
X14634Y239567D01*
X13978D01*
X13650Y239239D01*
Y238911D01*
X13978Y238583D01*
X14634D01*
X14962Y238911D01*
X11026Y238583D02*
Y240550D01*
X10042D01*
X9714Y240223D01*
Y239567D01*
X10042Y239239D01*
X11026D01*
X10370D02*
X9714Y238583D01*
X7746Y240223D02*
X8074Y240550D01*
X8730D01*
X9058Y240223D01*
Y239895D01*
X8730Y239567D01*
X8074D01*
X7746Y239239D01*
Y238911D01*
X8074Y238583D01*
X8730D01*
X9058Y238911D01*
X7090Y240550D02*
X5779D01*
X6435D01*
Y238583D01*
X209842Y15157D02*
Y14501D01*
X209514Y14173D01*
X208202D01*
X207874Y14501D01*
Y15157D01*
X208202Y15485D01*
X209514D01*
X209842Y15157D01*
Y16141D02*
X207874D01*
Y17125D01*
X208202Y17453D01*
X208530D01*
X208858Y17125D01*
Y16141D01*
Y17125D01*
X209186Y17453D01*
X209514D01*
X209842Y17125D01*
Y16141D01*
X209514Y19421D02*
X209842Y19093D01*
Y18437D01*
X209514Y18109D01*
X208202D01*
X207874Y18437D01*
Y19093D01*
X208202Y19421D01*
X208858Y20077D02*
Y21389D01*
X207874Y22045D02*
X209842D01*
X209186Y22701D01*
X209842Y23357D01*
X207874D01*
X209842Y25324D02*
Y24013D01*
X207874D01*
Y25324D01*
X208858Y24013D02*
Y24668D01*
X207874Y25980D02*
X209842D01*
X209186Y26636D01*
X209842Y27292D01*
X207874D01*
X209514Y27948D02*
X209842Y28276D01*
Y28932D01*
X209514Y29260D01*
X209186D01*
X208858Y28932D01*
Y28604D01*
Y28932D01*
X208530Y29260D01*
X208202D01*
X207874Y28932D01*
Y28276D01*
X208202Y27948D01*
X161221Y31495D02*
X161877D01*
X162205Y31168D01*
Y29855D01*
X161877Y29528D01*
X161221D01*
X160893Y29855D01*
Y31168D01*
X161221Y31495D01*
X160237D02*
Y29528D01*
X159253D01*
X158925Y29855D01*
Y30184D01*
X159253Y30512D01*
X160237D01*
X159253D01*
X158925Y30839D01*
Y31168D01*
X159253Y31495D01*
X160237D01*
X156957Y31168D02*
X157285Y31495D01*
X157941D01*
X158269Y31168D01*
Y29855D01*
X157941Y29528D01*
X157285D01*
X156957Y29855D01*
X156301Y30512D02*
X154989D01*
X154333Y29528D02*
Y31495D01*
X153677Y30839D01*
X153021Y31495D01*
Y29528D01*
X151054Y31495D02*
X152365D01*
Y29528D01*
X151054D01*
X152365Y30512D02*
X151709D01*
X150398Y29528D02*
Y31495D01*
X149742Y30839D01*
X149086Y31495D01*
Y29528D01*
X147118D02*
X148430D01*
X147118Y30839D01*
Y31168D01*
X147446Y31495D01*
X148102D01*
X148430Y31168D01*
X122638Y28740D02*
X123294D01*
X123622Y28411D01*
Y27100D01*
X123294Y26772D01*
X122638D01*
X122310Y27100D01*
Y28411D01*
X122638Y28740D01*
X121654D02*
Y26772D01*
X120670D01*
X120342Y27100D01*
Y27428D01*
X120670Y27756D01*
X121654D01*
X120670D01*
X120342Y28084D01*
Y28411D01*
X120670Y28740D01*
X121654D01*
X118374Y28411D02*
X118702Y28740D01*
X119358D01*
X119686Y28411D01*
Y27100D01*
X119358Y26772D01*
X118702D01*
X118374Y27100D01*
X117719Y27756D02*
X116407D01*
X115751Y26772D02*
Y28740D01*
X115095Y28084D01*
X114439Y28740D01*
Y26772D01*
X112471Y28740D02*
X113783D01*
Y26772D01*
X112471D01*
X113783Y27756D02*
X113127D01*
X111815Y26772D02*
Y28740D01*
X111159Y28084D01*
X110503Y28740D01*
Y26772D01*
X109847D02*
X109191D01*
X109519D01*
Y28740D01*
X109847Y28411D01*
X174688Y38434D02*
X175016Y38762D01*
X175672D01*
X176000Y38434D01*
Y37122D01*
X175672Y36794D01*
X175016D01*
X174688Y37122D01*
X174032Y38434D02*
X173704Y38762D01*
X173048D01*
X172720Y38434D01*
Y38106D01*
X173048Y37778D01*
X173376D01*
X173048D01*
X172720Y37450D01*
Y37122D01*
X173048Y36794D01*
X173704D01*
X174032Y37122D01*
X170752Y38762D02*
X172064D01*
Y37778D01*
X171408Y38106D01*
X171080D01*
X170752Y37778D01*
Y37122D01*
X171080Y36794D01*
X171736D01*
X172064Y37122D01*
X146769Y39221D02*
X147097Y39549D01*
X147753D01*
X148081Y39221D01*
Y37909D01*
X147753Y37581D01*
X147097D01*
X146769Y37909D01*
X146113Y39221D02*
X145785Y39549D01*
X145129D01*
X144801Y39221D01*
Y38893D01*
X145129Y38565D01*
X145457D01*
X145129D01*
X144801Y38237D01*
Y37909D01*
X145129Y37581D01*
X145785D01*
X146113Y37909D01*
X142833Y39549D02*
X144145D01*
Y38565D01*
X143489Y38893D01*
X143161D01*
X142833Y38565D01*
Y37909D01*
X143161Y37581D01*
X143817D01*
X144145Y37909D01*
X97573Y30972D02*
X97245Y31299D01*
Y31956D01*
X97573Y32283D01*
X98885D01*
X99213Y31956D01*
Y31299D01*
X98885Y30972D01*
X97573Y30316D02*
X97245Y29988D01*
Y29332D01*
X97573Y29004D01*
X97901D01*
X98229Y29332D01*
Y29660D01*
Y29332D01*
X98557Y29004D01*
X98885D01*
X99213Y29332D01*
Y29988D01*
X98885Y30316D01*
X97245Y27036D02*
Y28348D01*
X98229D01*
X97901Y27692D01*
Y27364D01*
X98229Y27036D01*
X98885D01*
X99213Y27364D01*
Y28020D01*
X98885Y28348D01*
X91600Y291868D02*
Y290228D01*
X91272Y289900D01*
X90616D01*
X90288Y290228D01*
Y291868D01*
X88320D02*
X89632D01*
Y290884D01*
X88976Y291212D01*
X88648D01*
X88320Y290884D01*
Y290228D01*
X88648Y289900D01*
X89304D01*
X89632Y290228D01*
X65000Y111268D02*
Y109628D01*
X64672Y109300D01*
X64016D01*
X63688Y109628D01*
Y111268D01*
X61720Y109300D02*
X63032D01*
X61720Y110612D01*
Y110940D01*
X62048Y111268D01*
X62704D01*
X63032Y110940D01*
X364567Y283465D02*
Y285432D01*
X363583D01*
X363255Y285104D01*
Y284449D01*
X363583Y284120D01*
X364567D01*
X363911D02*
X363255Y283465D01*
X362599D02*
X361943D01*
X362271D01*
Y285432D01*
X362599D01*
X360959Y283465D02*
X360303D01*
X360631D01*
Y284776D01*
X360959D01*
X359319Y283465D02*
Y284776D01*
X358991D01*
X358663Y284449D01*
Y283465D01*
Y284449D01*
X358335Y284776D01*
X358007Y284449D01*
Y283465D01*
X357351D02*
Y284776D01*
X356696Y285432D01*
X356040Y284776D01*
Y283465D01*
Y284449D01*
X357351D01*
X354072Y283465D02*
X355384D01*
X354072Y284776D01*
Y285104D01*
X354400Y285432D01*
X355056D01*
X355384Y285104D01*
X255906Y324410D02*
X253938D01*
Y323426D01*
X254266Y323097D01*
X254922D01*
X255250Y323426D01*
Y324410D01*
Y323753D02*
X255906Y323097D01*
Y322442D02*
Y321786D01*
Y322114D01*
X253938D01*
Y322442D01*
X255906Y320802D02*
Y320146D01*
Y320474D01*
X254594D01*
Y320802D01*
X255906Y319162D02*
X254594D01*
Y318834D01*
X254922Y318506D01*
X255906D01*
X254922D01*
X254594Y318178D01*
X254922Y317850D01*
X255906D01*
Y317194D02*
X254594D01*
X253938Y316538D01*
X254594Y315882D01*
X255906D01*
X254922D01*
Y317194D01*
X255906Y315226D02*
Y314570D01*
Y314898D01*
X253938D01*
X254266Y315226D01*
X261000Y119913D02*
Y121880D01*
X260016D01*
X259688Y121553D01*
Y120896D01*
X260016Y120569D01*
X261000D01*
X260344D02*
X259688Y119913D01*
X258704D02*
Y121553D01*
Y120896D01*
X259032D01*
X258376D01*
X258704D01*
Y121553D01*
X258376Y121880D01*
X257392D02*
Y119913D01*
X256408D01*
X256080Y120241D01*
Y120569D01*
Y120896D01*
X256408Y121224D01*
X257392D01*
X255096Y121553D02*
Y121224D01*
X255424D01*
X254768D01*
X255096D01*
Y120241D01*
X254768Y119913D01*
X252473D02*
X253784D01*
X252473Y121224D01*
Y121553D01*
X252801Y121880D01*
X253456D01*
X253784Y121553D01*
X269711Y61687D02*
Y63655D01*
X268727D01*
X268399Y63327D01*
Y62671D01*
X268727Y62343D01*
X269711D01*
X269055D02*
X268399Y61687D01*
X267415D02*
Y63327D01*
Y62671D01*
X267743D01*
X267087D01*
X267415D01*
Y63327D01*
X267087Y63655D01*
X266103D02*
Y61687D01*
X265119D01*
X264791Y62015D01*
Y62343D01*
Y62671D01*
X265119Y62999D01*
X266103D01*
X263807Y63327D02*
Y62999D01*
X264135D01*
X263479D01*
X263807D01*
Y62015D01*
X263479Y61687D01*
X262495D02*
X261840D01*
X262168D01*
Y63655D01*
X262495Y63327D01*
X261015Y104553D02*
Y106521D01*
X260031D01*
X259703Y106193D01*
Y105537D01*
X260031Y105209D01*
X261015D01*
X260359D02*
X259703Y104553D01*
X258719D02*
Y106193D01*
Y105537D01*
X259047D01*
X258391D01*
X258719D01*
Y106193D01*
X258391Y106521D01*
X257407D02*
Y104553D01*
X256423D01*
X256095Y104881D01*
Y105209D01*
Y105537D01*
X256423Y105865D01*
X257407D01*
X255439Y106521D02*
Y104553D01*
X254455D01*
X254128Y104881D01*
Y105209D01*
Y105537D01*
X254455Y105865D01*
X255439D01*
X252160Y104553D02*
X253471D01*
X252160Y105865D01*
Y106193D01*
X252488Y106521D01*
X253144D01*
X253471Y106193D01*
X272441Y30709D02*
Y32677D01*
X271457D01*
X271129Y32349D01*
Y31693D01*
X271457Y31365D01*
X272441D01*
X271785D02*
X271129Y30709D01*
X270145D02*
Y32349D01*
Y31693D01*
X270473D01*
X269817D01*
X270145D01*
Y32349D01*
X269817Y32677D01*
X268833D02*
Y30709D01*
X267849D01*
X267521Y31037D01*
Y31365D01*
Y31693D01*
X267849Y32021D01*
X268833D01*
X266865Y32677D02*
Y30709D01*
X265881D01*
X265553Y31037D01*
Y31365D01*
Y31693D01*
X265881Y32021D01*
X266865D01*
X264897Y30709D02*
X264242D01*
X264569D01*
Y32677D01*
X264897Y32349D01*
X365354Y298425D02*
Y300393D01*
X364370D01*
X364042Y300065D01*
Y299409D01*
X364370Y299081D01*
X365354D01*
X364698D02*
X364042Y298425D01*
X362075Y299737D02*
X363058D01*
X363387Y299409D01*
Y298753D01*
X363058Y298425D01*
X362075D01*
X361091D02*
X360435D01*
X360107Y298753D01*
Y299409D01*
X360435Y299737D01*
X361091D01*
X361419Y299409D01*
Y298753D01*
X361091Y298425D01*
X359451D02*
Y299737D01*
X359123D01*
X358795Y299409D01*
Y298425D01*
Y299409D01*
X358467Y299737D01*
X358139Y299409D01*
Y298425D01*
X357483Y297769D02*
Y299737D01*
X356499D01*
X356171Y299409D01*
Y298753D01*
X356499Y298425D01*
X357483D01*
X355515D02*
Y299737D01*
X354859Y300393D01*
X354203Y299737D01*
Y298425D01*
Y299409D01*
X355515D01*
X352235Y298425D02*
X353547D01*
X352235Y299737D01*
Y300065D01*
X352563Y300393D01*
X353219D01*
X353547Y300065D01*
X239370Y325984D02*
X237402D01*
Y325000D01*
X237730Y324672D01*
X238386D01*
X238714Y325000D01*
Y325984D01*
Y325328D02*
X239370Y324672D01*
X238058Y322705D02*
Y323688D01*
X238386Y324016D01*
X239042D01*
X239370Y323688D01*
Y322705D01*
Y321721D02*
Y321065D01*
X239042Y320737D01*
X238386D01*
X238058Y321065D01*
Y321721D01*
X238386Y322048D01*
X239042D01*
X239370Y321721D01*
Y320081D02*
X238058D01*
Y319753D01*
X238386Y319425D01*
X239370D01*
X238386D01*
X238058Y319097D01*
X238386Y318769D01*
X239370D01*
X240026Y318113D02*
X238058D01*
Y317129D01*
X238386Y316801D01*
X239042D01*
X239370Y317129D01*
Y318113D01*
Y316145D02*
X238058D01*
X237402Y315489D01*
X238058Y314833D01*
X239370D01*
X238386D01*
Y316145D01*
X239370Y314177D02*
Y313521D01*
Y313849D01*
X237402D01*
X237730Y314177D01*
X7874Y99213D02*
Y101181D01*
X6890D01*
X6562Y100853D01*
Y100197D01*
X6890Y99869D01*
X7874D01*
X7218D02*
X6562Y99213D01*
X5906Y100853D02*
X5578Y101181D01*
X4922D01*
X4594Y100853D01*
Y100524D01*
X4922Y100197D01*
X5250D01*
X4922D01*
X4594Y99869D01*
Y99541D01*
X4922Y99213D01*
X5578D01*
X5906Y99541D01*
X3938D02*
X3610Y99213D01*
X2954D01*
X2626Y99541D01*
Y100853D01*
X2954Y101181D01*
X3610D01*
X3938Y100853D01*
Y100524D01*
X3610Y100197D01*
X2626D01*
X33071Y137205D02*
X31103D01*
Y136221D01*
X31431Y135893D01*
X32087D01*
X32415Y136221D01*
Y137205D01*
Y136549D02*
X33071Y135893D01*
X31431Y135237D02*
X31103Y134909D01*
Y134253D01*
X31431Y133925D01*
X31759D01*
X32087Y134253D01*
Y134581D01*
Y134253D01*
X32415Y133925D01*
X32743D01*
X33071Y134253D01*
Y134909D01*
X32743Y135237D01*
X31431Y133269D02*
X31103Y132941D01*
Y132285D01*
X31431Y131957D01*
X31759D01*
X32087Y132285D01*
X32415Y131957D01*
X32743D01*
X33071Y132285D01*
Y132941D01*
X32743Y133269D01*
X32415D01*
X32087Y132941D01*
X31759Y133269D01*
X31431D01*
X32087Y132941D02*
Y132285D01*
X39000Y115200D02*
Y117168D01*
X38016D01*
X37688Y116840D01*
Y116184D01*
X38016Y115856D01*
X39000D01*
X38344D02*
X37688Y115200D01*
X37032Y116840D02*
X36704Y117168D01*
X36048D01*
X35720Y116840D01*
Y116512D01*
X36048Y116184D01*
X36376D01*
X36048D01*
X35720Y115856D01*
Y115528D01*
X36048Y115200D01*
X36704D01*
X37032Y115528D01*
X35064Y117168D02*
X33752D01*
Y116840D01*
X35064Y115528D01*
Y115200D01*
X24000Y148300D02*
Y150268D01*
X23016D01*
X22688Y149940D01*
Y149284D01*
X23016Y148956D01*
X24000D01*
X23344D02*
X22688Y148300D01*
X22032Y149940D02*
X21704Y150268D01*
X21048D01*
X20720Y149940D01*
Y149612D01*
X21048Y149284D01*
X21376D01*
X21048D01*
X20720Y148956D01*
Y148628D01*
X21048Y148300D01*
X21704D01*
X22032Y148628D01*
X18752Y150268D02*
X19408Y149940D01*
X20064Y149284D01*
Y148628D01*
X19736Y148300D01*
X19080D01*
X18752Y148628D01*
Y148956D01*
X19080Y149284D01*
X20064D01*
X44094Y137795D02*
X42127D01*
Y136811D01*
X42455Y136483D01*
X43111D01*
X43439Y136811D01*
Y137795D01*
Y137139D02*
X44094Y136483D01*
X42455Y135827D02*
X42127Y135499D01*
Y134844D01*
X42455Y134516D01*
X42783D01*
X43111Y134844D01*
Y135171D01*
Y134844D01*
X43439Y134516D01*
X43766D01*
X44094Y134844D01*
Y135499D01*
X43766Y135827D01*
X42127Y132548D02*
Y133860D01*
X43111D01*
X42783Y133204D01*
Y132876D01*
X43111Y132548D01*
X43766D01*
X44094Y132876D01*
Y133532D01*
X43766Y133860D01*
X31100Y148300D02*
Y150268D01*
X30116D01*
X29788Y149940D01*
Y149284D01*
X30116Y148956D01*
X31100D01*
X30444D02*
X29788Y148300D01*
X29132Y149940D02*
X28804Y150268D01*
X28148D01*
X27820Y149940D01*
Y149612D01*
X28148Y149284D01*
X28476D01*
X28148D01*
X27820Y148956D01*
Y148628D01*
X28148Y148300D01*
X28804D01*
X29132Y148628D01*
X26180Y148300D02*
Y150268D01*
X27164Y149284D01*
X25852D01*
X33500Y87675D02*
Y89643D01*
X32516D01*
X32188Y89315D01*
Y88659D01*
X32516Y88331D01*
X33500D01*
X32844D02*
X32188Y87675D01*
X31532Y89315D02*
X31204Y89643D01*
X30548D01*
X30220Y89315D01*
Y88987D01*
X30548Y88659D01*
X30876D01*
X30548D01*
X30220Y88331D01*
Y88003D01*
X30548Y87675D01*
X31204D01*
X31532Y88003D01*
X28252Y87675D02*
X29564D01*
X28252Y88987D01*
Y89315D01*
X28580Y89643D01*
X29236D01*
X29564Y89315D01*
X51181Y57480D02*
X49213D01*
Y56496D01*
X49541Y56168D01*
X50197D01*
X50525Y56496D01*
Y57480D01*
Y56824D02*
X51181Y56168D01*
X49541Y55512D02*
X49213Y55185D01*
Y54528D01*
X49541Y54201D01*
X49869D01*
X50197Y54528D01*
Y54856D01*
Y54528D01*
X50525Y54201D01*
X50853D01*
X51181Y54528D01*
Y55185D01*
X50853Y55512D01*
X51181Y53545D02*
Y52889D01*
Y53217D01*
X49213D01*
X49541Y53545D01*
X18500Y87600D02*
Y89568D01*
X17516D01*
X17188Y89240D01*
Y88584D01*
X17516Y88256D01*
X18500D01*
X17844D02*
X17188Y87600D01*
X16532Y89240D02*
X16204Y89568D01*
X15548D01*
X15220Y89240D01*
Y88912D01*
X15548Y88584D01*
X15876D01*
X15548D01*
X15220Y88256D01*
Y87928D01*
X15548Y87600D01*
X16204D01*
X16532Y87928D01*
X14564Y89240D02*
X14236Y89568D01*
X13580D01*
X13252Y89240D01*
Y87928D01*
X13580Y87600D01*
X14236D01*
X14564Y87928D01*
Y89240D01*
X35000Y42700D02*
Y44668D01*
X34016D01*
X33688Y44340D01*
Y43684D01*
X34016Y43356D01*
X35000D01*
X34344D02*
X33688Y42700D01*
X31720D02*
X33032D01*
X31720Y44012D01*
Y44340D01*
X32048Y44668D01*
X32704D01*
X33032Y44340D01*
X31064Y43028D02*
X30736Y42700D01*
X30080D01*
X29752Y43028D01*
Y44340D01*
X30080Y44668D01*
X30736D01*
X31064Y44340D01*
Y44012D01*
X30736Y43684D01*
X29752D01*
X40945Y57677D02*
X38977D01*
Y56693D01*
X39305Y56365D01*
X39961D01*
X40289Y56693D01*
Y57677D01*
Y57021D02*
X40945Y56365D01*
Y54397D02*
Y55709D01*
X39633Y54397D01*
X39305D01*
X38977Y54725D01*
Y55381D01*
X39305Y55709D01*
Y53741D02*
X38977Y53413D01*
Y52758D01*
X39305Y52429D01*
X39633D01*
X39961Y52758D01*
X40289Y52429D01*
X40617D01*
X40945Y52758D01*
Y53413D01*
X40617Y53741D01*
X40289D01*
X39961Y53413D01*
X39633Y53741D01*
X39305D01*
X39961Y53413D02*
Y52758D01*
X19300Y45900D02*
Y47868D01*
X18316D01*
X17988Y47540D01*
Y46884D01*
X18316Y46556D01*
X19300D01*
X18644D02*
X17988Y45900D01*
X16020D02*
X17332D01*
X16020Y47212D01*
Y47540D01*
X16348Y47868D01*
X17004D01*
X17332Y47540D01*
X15364Y47868D02*
X14052D01*
Y47540D01*
X15364Y46228D01*
Y45900D01*
X89400Y137200D02*
Y139168D01*
X88416D01*
X88088Y138840D01*
Y138184D01*
X88416Y137856D01*
X89400D01*
X88744D02*
X88088Y137200D01*
X86120D02*
X87432D01*
X86120Y138512D01*
Y138840D01*
X86448Y139168D01*
X87104D01*
X87432Y138840D01*
X84152Y139168D02*
X84808Y138840D01*
X85464Y138184D01*
Y137528D01*
X85136Y137200D01*
X84480D01*
X84152Y137528D01*
Y137856D01*
X84480Y138184D01*
X85464D01*
X112200Y137200D02*
Y139168D01*
X111216D01*
X110888Y138840D01*
Y138184D01*
X111216Y137856D01*
X112200D01*
X111544D02*
X110888Y137200D01*
X108920D02*
X110232D01*
X108920Y138512D01*
Y138840D01*
X109248Y139168D01*
X109904D01*
X110232Y138840D01*
X106952Y139168D02*
X108264D01*
Y138184D01*
X107608Y138512D01*
X107280D01*
X106952Y138184D01*
Y137528D01*
X107280Y137200D01*
X107936D01*
X108264Y137528D01*
X261000Y135700D02*
Y137668D01*
X260016D01*
X259688Y137340D01*
Y136684D01*
X260016Y136356D01*
X261000D01*
X260344D02*
X259688Y135700D01*
X257720D02*
X259032D01*
X257720Y137012D01*
Y137340D01*
X258048Y137668D01*
X258704D01*
X259032Y137340D01*
X256080Y135700D02*
Y137668D01*
X257064Y136684D01*
X255752D01*
X269700Y73500D02*
Y75468D01*
X268716D01*
X268388Y75140D01*
Y74484D01*
X268716Y74156D01*
X269700D01*
X269044D02*
X268388Y73500D01*
X266420D02*
X267732D01*
X266420Y74812D01*
Y75140D01*
X266748Y75468D01*
X267404D01*
X267732Y75140D01*
X265764D02*
X265436Y75468D01*
X264780D01*
X264452Y75140D01*
Y74812D01*
X264780Y74484D01*
X265108D01*
X264780D01*
X264452Y74156D01*
Y73828D01*
X264780Y73500D01*
X265436D01*
X265764Y73828D01*
X227200Y179800D02*
Y181768D01*
X226216D01*
X225888Y181440D01*
Y180784D01*
X226216Y180456D01*
X227200D01*
X226544D02*
X225888Y179800D01*
X223920D02*
X225232D01*
X223920Y181112D01*
Y181440D01*
X224248Y181768D01*
X224904D01*
X225232Y181440D01*
X221952Y179800D02*
X223264D01*
X221952Y181112D01*
Y181440D01*
X222280Y181768D01*
X222936D01*
X223264Y181440D01*
X227200Y193900D02*
Y195868D01*
X226216D01*
X225888Y195540D01*
Y194884D01*
X226216Y194556D01*
X227200D01*
X226544D02*
X225888Y193900D01*
X223920D02*
X225232D01*
X223920Y195212D01*
Y195540D01*
X224248Y195868D01*
X224904D01*
X225232Y195540D01*
X223264Y193900D02*
X222608D01*
X222936D01*
Y195868D01*
X223264Y195540D01*
X12861Y229527D02*
X14173D01*
Y228543D01*
X13517Y228871D01*
X13189D01*
X12861Y228543D01*
Y227887D01*
X13189Y227559D01*
X13845D01*
X14173Y227887D01*
X12205Y229527D02*
Y228215D01*
X11549Y227559D01*
X10893Y228215D01*
Y229527D01*
X58900Y176400D02*
Y178368D01*
X57916D01*
X57588Y178040D01*
Y177384D01*
X57916Y177056D01*
X58900D01*
X58244D02*
X57588Y176400D01*
X56932D02*
X56276D01*
X56604D01*
Y178368D01*
X56932Y178040D01*
X54308Y176400D02*
Y178368D01*
X55292Y177384D01*
X53980D01*
X121635Y255374D02*
Y257342D01*
X120651D01*
X120323Y257014D01*
Y256358D01*
X120651Y256030D01*
X121635D01*
X120979D02*
X120323Y255374D01*
X119667D02*
X119011D01*
X119339D01*
Y257342D01*
X119667Y257014D01*
X118027D02*
X117699Y257342D01*
X117043D01*
X116715Y257014D01*
Y256686D01*
X117043Y256358D01*
X117371D01*
X117043D01*
X116715Y256030D01*
Y255702D01*
X117043Y255374D01*
X117699D01*
X118027Y255702D01*
X104500Y244087D02*
Y246055D01*
X103516D01*
X103188Y245727D01*
Y245071D01*
X103516Y244743D01*
X104500D01*
X103844D02*
X103188Y244087D01*
X102532D02*
X101876D01*
X102204D01*
Y246055D01*
X102532Y245727D01*
X99580Y244087D02*
X100892D01*
X99580Y245399D01*
Y245727D01*
X99908Y246055D01*
X100564D01*
X100892Y245727D01*
X104362Y254600D02*
Y256568D01*
X103378D01*
X103050Y256240D01*
Y255584D01*
X103378Y255256D01*
X104362D01*
X103706D02*
X103050Y254600D01*
X102394D02*
X101738D01*
X102066D01*
Y256568D01*
X102394Y256240D01*
X100754Y254600D02*
X100099D01*
X100426D01*
Y256568D01*
X100754Y256240D01*
X105166Y267176D02*
Y269144D01*
X104182D01*
X103854Y268816D01*
Y268160D01*
X104182Y267832D01*
X105166D01*
X104510D02*
X103854Y267176D01*
X103198D02*
X102542D01*
X102870D01*
Y269144D01*
X103198Y268816D01*
X101558D02*
X101230Y269144D01*
X100575D01*
X100247Y268816D01*
Y267504D01*
X100575Y267176D01*
X101230D01*
X101558Y267504D01*
Y268816D01*
X270700Y246500D02*
Y248468D01*
X269716D01*
X269388Y248140D01*
Y247484D01*
X269716Y247156D01*
X270700D01*
X270044D02*
X269388Y246500D01*
X268732Y248140D02*
X268404Y248468D01*
X267748D01*
X267420Y248140D01*
Y247812D01*
X267748Y247484D01*
X267420Y247156D01*
Y246828D01*
X267748Y246500D01*
X268404D01*
X268732Y246828D01*
Y247156D01*
X268404Y247484D01*
X268732Y247812D01*
Y248140D01*
X268404Y247484D02*
X267748D01*
X120900Y137200D02*
Y139168D01*
X119916D01*
X119588Y138840D01*
Y138184D01*
X119916Y137856D01*
X120900D01*
X120244D02*
X119588Y137200D01*
X118932D02*
X118276D01*
X118604D01*
Y139168D01*
X118932Y138840D01*
X321500Y181500D02*
Y183468D01*
X320516D01*
X320188Y183140D01*
Y182484D01*
X320516Y182156D01*
X321500D01*
X319532Y183468D02*
X318220D01*
Y183140D01*
X319532Y181828D01*
Y181500D01*
X321300Y201500D02*
Y203468D01*
X320316D01*
X319988Y203140D01*
Y202484D01*
X320316Y202156D01*
X321300D01*
X318020Y201500D02*
X319332D01*
X318020Y202812D01*
Y203140D01*
X318348Y203468D01*
X319004D01*
X319332Y203140D01*
X310333Y300051D02*
Y298083D01*
X309021D01*
X308365D02*
Y299395D01*
X307709Y300051D01*
X307053Y299395D01*
Y298083D01*
Y299067D01*
X308365D01*
X306397Y298083D02*
X305741D01*
X306069D01*
Y300051D01*
X306397Y299723D01*
X302361Y152092D02*
Y150124D01*
X301049D01*
X299082D02*
X300394D01*
X299082Y151435D01*
Y151763D01*
X299410Y152092D01*
X300066D01*
X300394Y151763D01*
X301587Y86705D02*
Y84737D01*
X300275D01*
X299619D02*
X298963D01*
X299291D01*
Y86705D01*
X299619Y86377D01*
X15748Y218963D02*
X15420Y219291D01*
X14764D01*
X14436Y218963D01*
Y218635D01*
X14764Y218307D01*
X15092D01*
X14764D01*
X14436Y217979D01*
Y217651D01*
X14764Y217323D01*
X15420D01*
X15748Y217651D01*
X13780Y219291D02*
Y217979D01*
X13124Y217323D01*
X12468Y217979D01*
Y219291D01*
X11812Y218963D02*
X11484Y219291D01*
X10828D01*
X10500Y218963D01*
Y218635D01*
X10828Y218307D01*
X11156D01*
X10828D01*
X10500Y217979D01*
Y217651D01*
X10828Y217323D01*
X11484D01*
X11812Y217651D01*
X17126Y168110D02*
X17782D01*
X18110Y167782D01*
Y166470D01*
X17782Y166142D01*
X17126D01*
X16798Y166470D01*
Y167782D01*
X17126Y168110D01*
X16142D02*
Y166142D01*
X15158D01*
X14830Y166470D01*
Y166798D01*
X15158Y167126D01*
X16142D01*
X15158D01*
X14830Y167454D01*
Y167782D01*
X15158Y168110D01*
X16142D01*
X12863Y167782D02*
X13191Y168110D01*
X13847D01*
X14175Y167782D01*
Y166470D01*
X13847Y166142D01*
X13191D01*
X12863Y166470D01*
X10239Y168110D02*
X8927D01*
X9583D01*
Y166142D01*
X8271Y168110D02*
X6959Y166142D01*
Y168110D02*
X8271Y166142D01*
X17126Y178346D02*
X17782D01*
X18110Y178018D01*
Y176706D01*
X17782Y176378D01*
X17126D01*
X16798Y176706D01*
Y178018D01*
X17126Y178346D01*
X16142D02*
Y176378D01*
X15158D01*
X14830Y176706D01*
Y177034D01*
X15158Y177362D01*
X16142D01*
X15158D01*
X14830Y177690D01*
Y178018D01*
X15158Y178346D01*
X16142D01*
X12863Y178018D02*
X13191Y178346D01*
X13847D01*
X14175Y178018D01*
Y176706D01*
X13847Y176378D01*
X13191D01*
X12863Y176706D01*
X10239Y176378D02*
Y178346D01*
X9255D01*
X8927Y178018D01*
Y177362D01*
X9255Y177034D01*
X10239D01*
X9583D02*
X8927Y176378D01*
X8271Y178346D02*
X6959Y176378D01*
Y178346D02*
X8271Y176378D01*
X20276Y188582D02*
X20932D01*
X21260Y188254D01*
Y186942D01*
X20932Y186614D01*
X20276D01*
X19948Y186942D01*
Y188254D01*
X20276Y188582D01*
X19292D02*
Y186614D01*
X18308D01*
X17980Y186942D01*
Y187270D01*
X18308Y187598D01*
X19292D01*
X18308D01*
X17980Y187926D01*
Y188254D01*
X18308Y188582D01*
X19292D01*
X16012Y188254D02*
X16340Y188582D01*
X16996D01*
X17324Y188254D01*
Y186942D01*
X16996Y186614D01*
X16340D01*
X16012Y186942D01*
X13388Y188582D02*
X12077D01*
X12732D01*
Y186614D01*
X11421Y188582D02*
X10109Y186614D01*
Y188582D02*
X11421Y186614D01*
X8141Y188254D02*
X8469Y188582D01*
X9125D01*
X9453Y188254D01*
Y186942D01*
X9125Y186614D01*
X8469D01*
X8141Y186942D01*
X7485Y186614D02*
Y187926D01*
X6829Y188582D01*
X6173Y187926D01*
Y186614D01*
Y187598D01*
X7485D01*
X5517Y186614D02*
Y188582D01*
X4205Y186614D01*
Y188582D01*
X20276Y198818D02*
X20932D01*
X21260Y198490D01*
Y197178D01*
X20932Y196850D01*
X20276D01*
X19948Y197178D01*
Y198490D01*
X20276Y198818D01*
X19292D02*
Y196850D01*
X18308D01*
X17980Y197178D01*
Y197506D01*
X18308Y197834D01*
X19292D01*
X18308D01*
X17980Y198162D01*
Y198490D01*
X18308Y198818D01*
X19292D01*
X16012Y198490D02*
X16340Y198818D01*
X16996D01*
X17324Y198490D01*
Y197178D01*
X16996Y196850D01*
X16340D01*
X16012Y197178D01*
X13388Y196850D02*
Y198818D01*
X12404D01*
X12077Y198490D01*
Y197834D01*
X12404Y197506D01*
X13388D01*
X12732D02*
X12077Y196850D01*
X11421Y198818D02*
X10109Y196850D01*
Y198818D02*
X11421Y196850D01*
X8141Y198490D02*
X8469Y198818D01*
X9125D01*
X9453Y198490D01*
Y197178D01*
X9125Y196850D01*
X8469D01*
X8141Y197178D01*
X7485Y196850D02*
Y198162D01*
X6829Y198818D01*
X6173Y198162D01*
Y196850D01*
Y197834D01*
X7485D01*
X5517Y196850D02*
Y198818D01*
X4205Y196850D01*
Y198818D01*
X17126Y209054D02*
X17782D01*
X18110Y208727D01*
Y207415D01*
X17782Y207087D01*
X17126D01*
X16798Y207415D01*
Y208727D01*
X17126Y209054D01*
X16142D02*
Y207087D01*
X15158D01*
X14830Y207415D01*
Y207743D01*
X15158Y208070D01*
X16142D01*
X15158D01*
X14830Y208399D01*
Y208727D01*
X15158Y209054D01*
X16142D01*
X12863Y208727D02*
X13191Y209054D01*
X13847D01*
X14175Y208727D01*
Y207415D01*
X13847Y207087D01*
X13191D01*
X12863Y207415D01*
X10239Y207087D02*
Y209054D01*
X9255D01*
X8927Y208727D01*
Y208070D01*
X9255Y207743D01*
X10239D01*
X9583D02*
X8927Y207087D01*
X6959Y208727D02*
X7287Y209054D01*
X7943D01*
X8271Y208727D01*
Y208399D01*
X7943Y208070D01*
X7287D01*
X6959Y207743D01*
Y207415D01*
X7287Y207087D01*
X7943D01*
X8271Y207415D01*
X6303Y209054D02*
X4991D01*
X5647D01*
Y207087D01*
X363649Y277231D02*
X363977Y277558D01*
X364633D01*
X364961Y277231D01*
Y275919D01*
X364633Y275591D01*
X363977D01*
X363649Y275919D01*
X362993Y276903D02*
X362337Y275591D01*
X361681Y276903D01*
X359713D02*
X360697D01*
X361025Y276574D01*
Y275919D01*
X360697Y275591D01*
X359713D01*
X357745Y276903D02*
X358729D01*
X359057Y276574D01*
Y275919D01*
X358729Y275591D01*
X357745D01*
X357089D02*
Y276903D01*
X356433Y277558D01*
X355777Y276903D01*
Y275591D01*
Y276574D01*
X357089D01*
X353809Y275591D02*
X355121D01*
X353809Y276903D01*
Y277231D01*
X354137Y277558D01*
X354793D01*
X355121Y277231D01*
X262140Y323885D02*
X261812Y324213D01*
Y324869D01*
X262140Y325197D01*
X263452D01*
X263779Y324869D01*
Y324213D01*
X263452Y323885D01*
X262468Y323229D02*
X263779Y322573D01*
X262468Y321917D01*
Y319949D02*
Y320933D01*
X262796Y321261D01*
X263452D01*
X263779Y320933D01*
Y319949D01*
X262468Y317981D02*
Y318965D01*
X262796Y319293D01*
X263452D01*
X263779Y318965D01*
Y317981D01*
Y317325D02*
X262468D01*
X261812Y316670D01*
X262468Y316014D01*
X263779D01*
X262796D01*
Y317325D01*
X263779Y315357D02*
Y314702D01*
Y315030D01*
X261812D01*
X262140Y315357D01*
X250231Y121548D02*
X250559Y121876D01*
X251215D01*
X251543Y121548D01*
Y120236D01*
X251215Y119908D01*
X250559D01*
X250231Y120236D01*
X249247Y119908D02*
X248591D01*
X248263Y120236D01*
Y120892D01*
X248591Y121220D01*
X249247D01*
X249575Y120892D01*
Y120236D01*
X249247Y119908D01*
X247607Y121220D02*
Y120236D01*
X247279Y119908D01*
X246295D01*
Y121220D01*
X245311Y121548D02*
Y121220D01*
X245639D01*
X244983D01*
X245311D01*
Y120236D01*
X244983Y119908D01*
X243999Y121220D02*
X242687Y119908D01*
X243343Y120564D01*
X242687Y121220D01*
X243999Y119908D01*
X240720D02*
X242031D01*
X240720Y121220D01*
Y121548D01*
X241048Y121876D01*
X241704D01*
X242031Y121548D01*
X258951Y63282D02*
X259279Y63610D01*
X259935D01*
X260263Y63282D01*
Y61970D01*
X259935Y61642D01*
X259279D01*
X258951Y61970D01*
X257967Y61642D02*
X257311D01*
X256983Y61970D01*
Y62626D01*
X257311Y62954D01*
X257967D01*
X258295Y62626D01*
Y61970D01*
X257967Y61642D01*
X256327Y62954D02*
Y61970D01*
X255999Y61642D01*
X255015D01*
Y62954D01*
X254031Y63282D02*
Y62954D01*
X254359D01*
X253703D01*
X254031D01*
Y61970D01*
X253703Y61642D01*
X252719Y62954D02*
X251408Y61642D01*
X252063Y62298D01*
X251408Y62954D01*
X252719Y61642D01*
X250752D02*
X250096D01*
X250424D01*
Y63610D01*
X250752Y63282D01*
X240002Y121941D02*
X240330Y122269D01*
X240986D01*
X241314Y121941D01*
Y120629D01*
X240986Y120301D01*
X240330D01*
X240002Y120629D01*
X239018Y120301D02*
X238363D01*
X238035Y120629D01*
Y121285D01*
X238363Y121613D01*
X239018D01*
X239346Y121285D01*
Y120629D01*
X239018Y120301D01*
X237379Y121613D02*
Y120629D01*
X237051Y120301D01*
X236067D01*
Y121613D01*
X235083Y121941D02*
Y121613D01*
X235411D01*
X234755D01*
X235083D01*
Y120629D01*
X234755Y120301D01*
X232459D02*
X233771D01*
X232459Y121613D01*
Y121941D01*
X232787Y122269D01*
X233443D01*
X233771Y121941D01*
X250221Y63282D02*
X250549Y63610D01*
X251205D01*
X251533Y63282D01*
Y61970D01*
X251205Y61642D01*
X250549D01*
X250221Y61970D01*
X249237Y61642D02*
X248581D01*
X248253Y61970D01*
Y62626D01*
X248581Y62954D01*
X249237D01*
X249565Y62626D01*
Y61970D01*
X249237Y61642D01*
X247597Y62954D02*
Y61970D01*
X247269Y61642D01*
X246285D01*
Y62954D01*
X245301Y63282D02*
Y62954D01*
X245629D01*
X244973D01*
X245301D01*
Y61970D01*
X244973Y61642D01*
X243989D02*
X243334D01*
X243661D01*
Y63610D01*
X243989Y63282D01*
X327034Y252034D02*
X327362Y252362D01*
X328018D01*
X328346Y252034D01*
Y250722D01*
X328018Y250394D01*
X327362D01*
X327034Y250722D01*
X326379Y250394D02*
X325723D01*
X326051D01*
Y251706D01*
X326379D01*
X324739Y250394D02*
Y251706D01*
X323755D01*
X323427Y251378D01*
Y250394D01*
X322771D02*
Y251706D01*
X322115Y252362D01*
X321459Y251706D01*
Y250394D01*
Y251378D01*
X322771D01*
X319491Y250394D02*
X320803D01*
X319491Y251706D01*
Y252034D01*
X319819Y252362D01*
X320475D01*
X320803Y252034D01*
X278216Y276443D02*
X278544Y276771D01*
X279200D01*
X279528Y276443D01*
Y275131D01*
X279200Y274803D01*
X278544D01*
X278216Y275131D01*
X277560Y274803D02*
X276904D01*
X277232D01*
Y276115D01*
X277560D01*
X275920Y274803D02*
Y276115D01*
X274936D01*
X274608Y275787D01*
Y274803D01*
X273952D02*
Y276115D01*
X273296Y276771D01*
X272640Y276115D01*
Y274803D01*
Y275787D01*
X273952D01*
X271984Y274803D02*
X271328D01*
X271656D01*
Y276771D01*
X271984Y276443D01*
X325460Y261482D02*
X325788Y261810D01*
X326444D01*
X326772Y261482D01*
Y260171D01*
X326444Y259842D01*
X325788D01*
X325460Y260171D01*
X324804Y259842D02*
X324148D01*
X324476D01*
Y261154D01*
X324804D01*
X323164Y259842D02*
Y261154D01*
X322180D01*
X321852Y260826D01*
Y259842D01*
X320212D02*
Y261810D01*
X321196Y260826D01*
X319884D01*
X279003Y284317D02*
X279331Y284645D01*
X279987D01*
X280315Y284317D01*
Y283005D01*
X279987Y282677D01*
X279331D01*
X279003Y283005D01*
X278347Y282677D02*
X277691D01*
X278019D01*
Y283989D01*
X278347D01*
X276707Y282677D02*
Y283989D01*
X275723D01*
X275395Y283661D01*
Y282677D01*
X274739Y284317D02*
X274411Y284645D01*
X273755D01*
X273427Y284317D01*
Y283989D01*
X273755Y283661D01*
X274083D01*
X273755D01*
X273427Y283333D01*
Y283005D01*
X273755Y282677D01*
X274411D01*
X274739Y283005D01*
X295916Y116823D02*
X296244Y117151D01*
X296900D01*
X297228Y116823D01*
Y115511D01*
X296900Y115183D01*
X296244D01*
X295916Y115511D01*
X295260Y115183D02*
X294604D01*
X294932D01*
Y116495D01*
X295260D01*
X293620Y115183D02*
Y116495D01*
X292636D01*
X292308Y116167D01*
Y115183D01*
X290340D02*
X291652D01*
X290340Y116495D01*
Y116823D01*
X290668Y117151D01*
X291324D01*
X291652Y116823D01*
X297113Y61482D02*
X297441Y61810D01*
X298097D01*
X298425Y61482D01*
Y60171D01*
X298097Y59842D01*
X297441D01*
X297113Y60171D01*
X296457Y59842D02*
X295801D01*
X296129D01*
Y61154D01*
X296457D01*
X294817Y59842D02*
Y61154D01*
X293833D01*
X293506Y60826D01*
Y59842D01*
X292850D02*
X292194D01*
X292522D01*
Y61810D01*
X292850Y61482D01*
X363255Y292979D02*
X363583Y293306D01*
X364239D01*
X364567Y292979D01*
Y291667D01*
X364239Y291339D01*
X363583D01*
X363255Y291667D01*
X361287Y292651D02*
X362271D01*
X362599Y292322D01*
Y291667D01*
X362271Y291339D01*
X361287D01*
X360303D02*
X359647D01*
X359319Y291667D01*
Y292322D01*
X359647Y292651D01*
X360303D01*
X360631Y292322D01*
Y291667D01*
X360303Y291339D01*
X358663D02*
Y292651D01*
X358335D01*
X358007Y292322D01*
Y291339D01*
Y292322D01*
X357679Y292651D01*
X357351Y292322D01*
Y291339D01*
X356696Y290683D02*
Y292651D01*
X355712D01*
X355384Y292322D01*
Y291667D01*
X355712Y291339D01*
X356696D01*
X353416D02*
X354728D01*
X353416Y292651D01*
Y292979D01*
X353744Y293306D01*
X354400D01*
X354728Y292979D01*
X245604Y323097D02*
X245276Y323426D01*
Y324081D01*
X245604Y324410D01*
X246916D01*
X247244Y324081D01*
Y323426D01*
X246916Y323097D01*
X245932Y321130D02*
Y322114D01*
X246260Y322442D01*
X246916D01*
X247244Y322114D01*
Y321130D01*
Y320146D02*
Y319490D01*
X246916Y319162D01*
X246260D01*
X245932Y319490D01*
Y320146D01*
X246260Y320474D01*
X246916D01*
X247244Y320146D01*
Y318506D02*
X245932D01*
Y318178D01*
X246260Y317850D01*
X247244D01*
X246260D01*
X245932Y317522D01*
X246260Y317194D01*
X247244D01*
X247900Y316538D02*
X245932D01*
Y315554D01*
X246260Y315226D01*
X246916D01*
X247244Y315554D01*
Y316538D01*
Y314570D02*
Y313914D01*
Y314242D01*
X245276D01*
X245604Y314570D01*
X96688Y58540D02*
X97016Y58868D01*
X97672D01*
X98000Y58540D01*
Y57228D01*
X97672Y56900D01*
X97016D01*
X96688Y57228D01*
X94720Y56900D02*
X96032D01*
X94720Y58212D01*
Y58540D01*
X95048Y58868D01*
X95704D01*
X96032Y58540D01*
X94064D02*
X93736Y58868D01*
X93080D01*
X92752Y58540D01*
Y57228D01*
X93080Y56900D01*
X93736D01*
X94064Y57228D01*
Y58540D01*
X129788Y61740D02*
X130116Y62068D01*
X130772D01*
X131100Y61740D01*
Y60428D01*
X130772Y60100D01*
X130116D01*
X129788Y60428D01*
X127820Y60100D02*
X129132D01*
X127820Y61412D01*
Y61740D01*
X128148Y62068D01*
X128804D01*
X129132Y61740D01*
X127164Y60100D02*
X126508D01*
X126836D01*
Y62068D01*
X127164Y61740D01*
X210171Y299476D02*
X209843Y299803D01*
Y300459D01*
X210171Y300787D01*
X211483D01*
X211811Y300459D01*
Y299803D01*
X211483Y299476D01*
X211811Y297836D02*
X209843D01*
X210827Y298819D01*
Y297508D01*
X210171Y296852D02*
X209843Y296524D01*
Y295868D01*
X210171Y295540D01*
X210499D01*
X210827Y295868D01*
Y296196D01*
Y295868D01*
X211155Y295540D01*
X211483D01*
X211811Y295868D01*
Y296524D01*
X211483Y296852D01*
X246288Y266440D02*
X246616Y266768D01*
X247272D01*
X247600Y266440D01*
Y265128D01*
X247272Y264800D01*
X246616D01*
X246288Y265128D01*
X244648Y264800D02*
Y266768D01*
X245632Y265784D01*
X244320D01*
X242352Y264800D02*
X243664D01*
X242352Y266112D01*
Y266440D01*
X242680Y266768D01*
X243336D01*
X243664Y266440D01*
X209288Y287740D02*
X209616Y288068D01*
X210272D01*
X210600Y287740D01*
Y286428D01*
X210272Y286100D01*
X209616D01*
X209288Y286428D01*
X207648Y286100D02*
Y288068D01*
X208632Y287084D01*
X207320D01*
X206664Y286100D02*
X206008D01*
X206336D01*
Y288068D01*
X206664Y287740D01*
X105388Y226240D02*
X105716Y226568D01*
X106372D01*
X106700Y226240D01*
Y224928D01*
X106372Y224600D01*
X105716D01*
X105388Y224928D01*
X103748Y224600D02*
Y226568D01*
X104732Y225584D01*
X103420D01*
X102764Y226240D02*
X102436Y226568D01*
X101780D01*
X101452Y226240D01*
Y224928D01*
X101780Y224600D01*
X102436D01*
X102764Y224928D01*
Y226240D01*
X52821Y119422D02*
X53149Y119094D01*
Y118438D01*
X52821Y118110D01*
X51509D01*
X51181Y118438D01*
Y119094D01*
X51509Y119422D01*
X52821Y120078D02*
X53149Y120406D01*
Y121062D01*
X52821Y121390D01*
X52493D01*
X52165Y121062D01*
Y120734D01*
Y121062D01*
X51837Y121390D01*
X51509D01*
X51181Y121062D01*
Y120406D01*
X51509Y120078D01*
Y122046D02*
X51181Y122374D01*
Y123030D01*
X51509Y123358D01*
X52821D01*
X53149Y123030D01*
Y122374D01*
X52821Y122046D01*
X52493D01*
X52165Y122374D01*
Y123358D01*
X36943Y144357D02*
X36615Y144685D01*
Y145341D01*
X36943Y145669D01*
X38255D01*
X38583Y145341D01*
Y144685D01*
X38255Y144357D01*
X36943Y143701D02*
X36615Y143374D01*
Y142718D01*
X36943Y142390D01*
X37271D01*
X37599Y142718D01*
Y143045D01*
Y142718D01*
X37927Y142390D01*
X38255D01*
X38583Y142718D01*
Y143374D01*
X38255Y143701D01*
X36943Y141734D02*
X36615Y141406D01*
Y140750D01*
X36943Y140422D01*
X37271D01*
X37599Y140750D01*
X37927Y140422D01*
X38255D01*
X38583Y140750D01*
Y141406D01*
X38255Y141734D01*
X37927D01*
X37599Y141406D01*
X37271Y141734D01*
X36943D01*
X37599Y141406D02*
Y140750D01*
X3872Y149869D02*
X3544Y150197D01*
Y150853D01*
X3872Y151181D01*
X5184D01*
X5512Y150853D01*
Y150197D01*
X5184Y149869D01*
X3872Y149213D02*
X3544Y148885D01*
Y148229D01*
X3872Y147901D01*
X4200D01*
X4528Y148229D01*
Y148557D01*
Y148229D01*
X4856Y147901D01*
X5184D01*
X5512Y148229D01*
Y148885D01*
X5184Y149213D01*
X3544Y147245D02*
Y145933D01*
X3872D01*
X5184Y147245D01*
X5512D01*
X10105Y149672D02*
X9777Y150000D01*
Y150656D01*
X10105Y150984D01*
X11417D01*
X11745Y150656D01*
Y150000D01*
X11417Y149672D01*
X10105Y149016D02*
X9777Y148688D01*
Y148032D01*
X10105Y147705D01*
X10433D01*
X10761Y148032D01*
Y148360D01*
Y148032D01*
X11089Y147705D01*
X11417D01*
X11745Y148032D01*
Y148688D01*
X11417Y149016D01*
X9777Y145737D02*
X10105Y146393D01*
X10761Y147048D01*
X11417D01*
X11745Y146721D01*
Y146065D01*
X11417Y145737D01*
X11089D01*
X10761Y146065D01*
Y147048D01*
X45145Y37073D02*
X45473Y37401D01*
X46129D01*
X46457Y37073D01*
Y35761D01*
X46129Y35433D01*
X45473D01*
X45145Y35761D01*
X44489Y37073D02*
X44161Y37401D01*
X43505D01*
X43177Y37073D01*
Y36745D01*
X43505Y36417D01*
X43833D01*
X43505D01*
X43177Y36089D01*
Y35761D01*
X43505Y35433D01*
X44161D01*
X44489Y35761D01*
X41537Y35433D02*
Y37401D01*
X42521Y36417D01*
X41209D01*
X52821Y39107D02*
X53149Y38779D01*
Y38123D01*
X52821Y37795D01*
X51509D01*
X51181Y38123D01*
Y38779D01*
X51509Y39107D01*
X52821Y39763D02*
X53149Y40091D01*
Y40747D01*
X52821Y41075D01*
X52493D01*
X52165Y40747D01*
Y40419D01*
Y40747D01*
X51837Y41075D01*
X51509D01*
X51181Y40747D01*
Y40091D01*
X51509Y39763D01*
X52821Y41731D02*
X53149Y42059D01*
Y42715D01*
X52821Y43043D01*
X52493D01*
X52165Y42715D01*
Y42387D01*
Y42715D01*
X51837Y43043D01*
X51509D01*
X51181Y42715D01*
Y42059D01*
X51509Y41731D01*
X7939Y39895D02*
X8267Y39567D01*
Y38911D01*
X7939Y38583D01*
X6627D01*
X6299Y38911D01*
Y39567D01*
X6627Y39895D01*
X7939Y40551D02*
X8267Y40878D01*
Y41535D01*
X7939Y41862D01*
X7611D01*
X7283Y41535D01*
Y41206D01*
Y41535D01*
X6955Y41862D01*
X6627D01*
X6299Y41535D01*
Y40878D01*
X6627Y40551D01*
X6299Y43830D02*
Y42518D01*
X7611Y43830D01*
X7939D01*
X8267Y43502D01*
Y42846D01*
X7939Y42518D01*
X14238Y39895D02*
X14566Y39567D01*
Y38911D01*
X14238Y38583D01*
X12926D01*
X12598Y38911D01*
Y39567D01*
X12926Y39895D01*
X14238Y40551D02*
X14566Y40878D01*
Y41535D01*
X14238Y41862D01*
X13910D01*
X13582Y41535D01*
Y41206D01*
Y41535D01*
X13254Y41862D01*
X12926D01*
X12598Y41535D01*
Y40878D01*
X12926Y40551D01*
X12598Y42518D02*
Y43174D01*
Y42846D01*
X14566D01*
X14238Y42518D01*
X258901Y160177D02*
X259229Y160505D01*
X259885D01*
X260213Y160177D01*
Y158865D01*
X259885Y158537D01*
X259229D01*
X258901Y158865D01*
X258245Y160177D02*
X257917Y160505D01*
X257261D01*
X256933Y160177D01*
Y159849D01*
X257261Y159521D01*
X257589D01*
X257261D01*
X256933Y159193D01*
Y158865D01*
X257261Y158537D01*
X257917D01*
X258245Y158865D01*
X256277Y160177D02*
X255949Y160505D01*
X255293D01*
X254965Y160177D01*
Y158865D01*
X255293Y158537D01*
X255949D01*
X256277Y158865D01*
Y160177D01*
X280188Y98340D02*
X280516Y98668D01*
X281172D01*
X281500Y98340D01*
Y97028D01*
X281172Y96700D01*
X280516D01*
X280188Y97028D01*
X278220Y96700D02*
X279532D01*
X278220Y98012D01*
Y98340D01*
X278548Y98668D01*
X279204D01*
X279532Y98340D01*
X277564Y97028D02*
X277236Y96700D01*
X276580D01*
X276252Y97028D01*
Y98340D01*
X276580Y98668D01*
X277236D01*
X277564Y98340D01*
Y98012D01*
X277236Y97684D01*
X276252D01*
X217988Y181440D02*
X218316Y181768D01*
X218972D01*
X219300Y181440D01*
Y180128D01*
X218972Y179800D01*
X218316D01*
X217988Y180128D01*
X216020Y179800D02*
X217332D01*
X216020Y181112D01*
Y181440D01*
X216348Y181768D01*
X217004D01*
X217332Y181440D01*
X215364D02*
X215036Y181768D01*
X214380D01*
X214052Y181440D01*
Y181112D01*
X214380Y180784D01*
X214052Y180456D01*
Y180128D01*
X214380Y179800D01*
X215036D01*
X215364Y180128D01*
Y180456D01*
X215036Y180784D01*
X215364Y181112D01*
Y181440D01*
X215036Y180784D02*
X214380D01*
X133113Y189840D02*
X133441Y190168D01*
X134097D01*
X134425Y189840D01*
Y188528D01*
X134097Y188200D01*
X133441D01*
X133113Y188528D01*
X131145Y188200D02*
X132457D01*
X131145Y189512D01*
Y189840D01*
X131473Y190168D01*
X132129D01*
X132457Y189840D01*
X130490Y190168D02*
X129178D01*
Y189840D01*
X130490Y188528D01*
Y188200D01*
X134688Y152840D02*
X135016Y153168D01*
X135672D01*
X136000Y152840D01*
Y151528D01*
X135672Y151200D01*
X135016D01*
X134688Y151528D01*
X132720Y151200D02*
X134032D01*
X132720Y152512D01*
Y152840D01*
X133048Y153168D01*
X133704D01*
X134032Y152840D01*
X130752Y153168D02*
X131408Y152840D01*
X132064Y152184D01*
Y151528D01*
X131736Y151200D01*
X131080D01*
X130752Y151528D01*
Y151856D01*
X131080Y152184D01*
X132064D01*
X95688Y138840D02*
X96016Y139168D01*
X96672D01*
X97000Y138840D01*
Y137528D01*
X96672Y137200D01*
X96016D01*
X95688Y137528D01*
X93720Y137200D02*
X95032D01*
X93720Y138512D01*
Y138840D01*
X94048Y139168D01*
X94704D01*
X95032Y138840D01*
X91752Y139168D02*
X93064D01*
Y138184D01*
X92408Y138512D01*
X92080D01*
X91752Y138184D01*
Y137528D01*
X92080Y137200D01*
X92736D01*
X93064Y137528D01*
X103288Y138840D02*
X103616Y139168D01*
X104272D01*
X104600Y138840D01*
Y137528D01*
X104272Y137200D01*
X103616D01*
X103288Y137528D01*
X101320Y137200D02*
X102632D01*
X101320Y138512D01*
Y138840D01*
X101648Y139168D01*
X102304D01*
X102632Y138840D01*
X99680Y137200D02*
Y139168D01*
X100664Y138184D01*
X99352D01*
X96888Y196940D02*
X97216Y197268D01*
X97872D01*
X98200Y196940D01*
Y195628D01*
X97872Y195300D01*
X97216D01*
X96888Y195628D01*
X94920Y195300D02*
X96232D01*
X94920Y196612D01*
Y196940D01*
X95248Y197268D01*
X95904D01*
X96232Y196940D01*
X94264D02*
X93936Y197268D01*
X93280D01*
X92952Y196940D01*
Y196612D01*
X93280Y196284D01*
X93608D01*
X93280D01*
X92952Y195956D01*
Y195628D01*
X93280Y195300D01*
X93936D01*
X94264Y195628D01*
X147088Y286140D02*
X147416Y286468D01*
X148072D01*
X148400Y286140D01*
Y284828D01*
X148072Y284500D01*
X147416D01*
X147088Y284828D01*
X145120Y284500D02*
X146432D01*
X145120Y285812D01*
Y286140D01*
X145448Y286468D01*
X146104D01*
X146432Y286140D01*
X143152Y284500D02*
X144464D01*
X143152Y285812D01*
Y286140D01*
X143480Y286468D01*
X144136D01*
X144464Y286140D01*
X78588Y90840D02*
X78916Y91168D01*
X79572D01*
X79900Y90840D01*
Y89528D01*
X79572Y89200D01*
X78916D01*
X78588Y89528D01*
X77932Y89200D02*
X77276D01*
X77604D01*
Y91168D01*
X77932Y90840D01*
X76292Y89528D02*
X75964Y89200D01*
X75308D01*
X74980Y89528D01*
Y90840D01*
X75308Y91168D01*
X75964D01*
X76292Y90840D01*
Y90512D01*
X75964Y90184D01*
X74980D01*
X84088Y90840D02*
X84416Y91168D01*
X85072D01*
X85400Y90840D01*
Y89528D01*
X85072Y89200D01*
X84416D01*
X84088Y89528D01*
X83432Y89200D02*
X82776D01*
X83104D01*
Y91168D01*
X83432Y90840D01*
X81792D02*
X81464Y91168D01*
X80808D01*
X80480Y90840D01*
Y90512D01*
X80808Y90184D01*
X80480Y89856D01*
Y89528D01*
X80808Y89200D01*
X81464D01*
X81792Y89528D01*
Y89856D01*
X81464Y90184D01*
X81792Y90512D01*
Y90840D01*
X81464Y90184D02*
X80808D01*
X132988Y94740D02*
X133316Y95068D01*
X133972D01*
X134300Y94740D01*
Y93428D01*
X133972Y93100D01*
X133316D01*
X132988Y93428D01*
X132332Y93100D02*
X131676D01*
X132004D01*
Y95068D01*
X132332Y94740D01*
X130692Y95068D02*
X129380D01*
Y94740D01*
X130692Y93428D01*
Y93100D01*
X346900Y287068D02*
Y285100D01*
X345916D01*
X345588Y285428D01*
Y285756D01*
X345916Y286084D01*
X346900D01*
X345916D01*
X345588Y286412D01*
Y286740D01*
X345916Y287068D01*
X346900D01*
X344932D02*
X343620D01*
X344276D01*
Y285100D01*
X341652D02*
X342964D01*
X341652Y286412D01*
Y286740D01*
X341980Y287068D01*
X342636D01*
X342964Y286740D01*
X269700Y313868D02*
Y311900D01*
X268716D01*
X268388Y312228D01*
Y312556D01*
X268716Y312884D01*
X269700D01*
X268716D01*
X268388Y313212D01*
Y313540D01*
X268716Y313868D01*
X269700D01*
X267732D02*
X266420D01*
X267076D01*
Y311900D01*
X265764D02*
X265108D01*
X265436D01*
Y313868D01*
X265764Y313540D01*
X288562Y122411D02*
Y120443D01*
X287578D01*
X287250Y120771D01*
Y121099D01*
X287578Y121427D01*
X288562D01*
X287578D01*
X287250Y121755D01*
Y122083D01*
X287578Y122411D01*
X288562D01*
X286594D02*
Y120443D01*
X285610D01*
X285282Y120771D01*
Y121099D01*
X285610Y121427D01*
X286594D01*
X285610D01*
X285282Y121755D01*
Y122083D01*
X285610Y122411D01*
X286594D01*
X283315Y120443D02*
X284627D01*
X283315Y121755D01*
Y122083D01*
X283643Y122411D01*
X284298D01*
X284627Y122083D01*
X289751Y64932D02*
Y62965D01*
X288767D01*
X288439Y63293D01*
Y63621D01*
X288767Y63949D01*
X289751D01*
X288767D01*
X288439Y64276D01*
Y64605D01*
X288767Y64932D01*
X289751D01*
X287783D02*
Y62965D01*
X286799D01*
X286471Y63293D01*
Y63621D01*
X286799Y63949D01*
X287783D01*
X286799D01*
X286471Y64276D01*
Y64605D01*
X286799Y64932D01*
X287783D01*
X285816Y62965D02*
X285159D01*
X285488D01*
Y64932D01*
X285816Y64605D01*
X203937Y298425D02*
Y297769D01*
Y298097D01*
X201969D01*
X202297Y298425D01*
X203609Y296785D02*
X203937Y296457D01*
Y295801D01*
X203609Y295473D01*
X202297D01*
X201969Y295801D01*
Y296457D01*
X202297Y296785D01*
X202625D01*
X202953Y296457D01*
Y295473D01*
X363779Y306299D02*
X363124D01*
X363452D01*
Y308267D01*
X363779Y307939D01*
X362140D02*
X361812Y308267D01*
X361156D01*
X360828Y307939D01*
Y307611D01*
X361156Y307283D01*
X360828Y306955D01*
Y306627D01*
X361156Y306299D01*
X361812D01*
X362140Y306627D01*
Y306955D01*
X361812Y307283D01*
X362140Y307611D01*
Y307939D01*
X361812Y307283D02*
X361156D01*
X340551Y304724D02*
X339895D01*
X340223D01*
Y306692D01*
X340551Y306364D01*
X338911Y306692D02*
X337599D01*
Y306364D01*
X338911Y305052D01*
Y304724D01*
X326600Y299200D02*
X325944D01*
X326272D01*
Y301168D01*
X326600Y300840D01*
X323648Y301168D02*
X324304Y300840D01*
X324960Y300184D01*
Y299528D01*
X324632Y299200D01*
X323976D01*
X323648Y299528D01*
Y299856D01*
X323976Y300184D01*
X324960D01*
X311811Y274803D02*
Y274147D01*
Y274475D01*
X309843D01*
X310171Y274803D01*
X309843Y271851D02*
Y273163D01*
X310827D01*
X310499Y272507D01*
Y272179D01*
X310827Y271851D01*
X311483D01*
X311811Y272179D01*
Y272835D01*
X311483Y273163D01*
X216900Y319100D02*
X216244D01*
X216572D01*
Y321068D01*
X216900Y320740D01*
X214276Y319100D02*
Y321068D01*
X215260Y320084D01*
X213948D01*
X340945Y296850D02*
X340289D01*
X340617D01*
Y298818D01*
X340945Y298490D01*
X339305D02*
X338977Y298818D01*
X338321D01*
X337993Y298490D01*
Y298162D01*
X338321Y297834D01*
X338649D01*
X338321D01*
X337993Y297506D01*
Y297178D01*
X338321Y296850D01*
X338977D01*
X339305Y297178D01*
X340158Y251969D02*
X339502D01*
X339829D01*
Y253936D01*
X340158Y253608D01*
X337206Y251969D02*
X338518D01*
X337206Y253280D01*
Y253608D01*
X337534Y253936D01*
X338190D01*
X338518Y253608D01*
X344882Y259842D02*
X344226D01*
X344554D01*
Y261810D01*
X344882Y261482D01*
X343242Y259842D02*
X342586D01*
X342914D01*
Y261810D01*
X343242Y261482D01*
X239000Y264800D02*
X238344D01*
X238672D01*
Y266768D01*
X239000Y266440D01*
X237360D02*
X237032Y266768D01*
X236376D01*
X236048Y266440D01*
Y265128D01*
X236376Y264800D01*
X237032D01*
X237360Y265128D01*
Y266440D01*
X230381Y320472D02*
X230709Y320145D01*
Y319489D01*
X230381Y319161D01*
X229069D01*
X228741Y319489D01*
Y320145D01*
X229069Y320472D01*
X229397D01*
X229725Y320145D01*
Y319161D01*
X229921Y311089D02*
X229593Y311417D01*
X228937D01*
X228609Y311089D01*
Y310761D01*
X228937Y310433D01*
X228609Y310105D01*
Y309777D01*
X228937Y309449D01*
X229593D01*
X229921Y309777D01*
Y310105D01*
X229593Y310433D01*
X229921Y310761D01*
Y311089D01*
X229593Y310433D02*
X228937D01*
X245669Y287795D02*
X244357D01*
Y287467D01*
X245669Y286155D01*
Y285827D01*
X256956Y279921D02*
X257612Y279593D01*
X258268Y278937D01*
Y278281D01*
X257940Y277953D01*
X257284D01*
X256956Y278281D01*
Y278609D01*
X257284Y278937D01*
X258268D01*
X241788Y274568D02*
X243100D01*
Y273584D01*
X242444Y273912D01*
X242116D01*
X241788Y273584D01*
Y272928D01*
X242116Y272600D01*
X242772D01*
X243100Y272928D01*
X239174Y303150D02*
Y305118D01*
X240158Y304134D01*
X238846D01*
X284776Y295934D02*
X284448Y296262D01*
X283792D01*
X283465Y295934D01*
Y295606D01*
X283792Y295278D01*
X284120D01*
X283792D01*
X283465Y294950D01*
Y294622D01*
X283792Y294295D01*
X284448D01*
X284776Y294622D01*
X289825Y300200D02*
X291137D01*
X289825Y301512D01*
Y301840D01*
X290153Y302168D01*
X290809D01*
X291137Y301840D01*
X236221Y290551D02*
X235564D01*
X235893D01*
Y292519D01*
X236221Y292191D01*
X140200Y182440D02*
X138888Y181128D01*
X140200D02*
X138888Y182440D01*
X140200Y181784D02*
X138888D01*
X139544Y181128D02*
Y182440D01*
X137248Y180800D02*
Y182768D01*
X138232Y181784D01*
X136920D01*
X125200Y64340D02*
X123888Y63028D01*
X125200D02*
X123888Y64340D01*
X125200Y63684D02*
X123888D01*
X124544Y63028D02*
Y64340D01*
X123232D02*
X122904Y64668D01*
X122248D01*
X121920Y64340D01*
Y64012D01*
X122248Y63684D01*
X122576D01*
X122248D01*
X121920Y63356D01*
Y63028D01*
X122248Y62700D01*
X122904D01*
X123232Y63028D01*
X230000Y293240D02*
X228688Y291928D01*
X230000D02*
X228688Y293240D01*
X230000Y292584D02*
X228688D01*
X229344Y291928D02*
Y293240D01*
X228032D02*
X227704Y293568D01*
X227048D01*
X226720Y293240D01*
Y292912D01*
X227048Y292584D01*
X227376D01*
X227048D01*
X226720Y292256D01*
Y291928D01*
X227048Y291600D01*
X227704D01*
X228032Y291928D01*
X226064Y293240D02*
X225736Y293568D01*
X225080D01*
X224752Y293240D01*
Y291928D01*
X225080Y291600D01*
X225736D01*
X226064Y291928D01*
Y293240D01*
X272300Y155740D02*
X270988Y154428D01*
X272300D02*
X270988Y155740D01*
X272300Y155084D02*
X270988D01*
X271644Y154428D02*
Y155740D01*
X269020Y156068D02*
X269676Y155740D01*
X270332Y155084D01*
Y154428D01*
X270004Y154100D01*
X269348D01*
X269020Y154428D01*
Y154756D01*
X269348Y155084D01*
X270332D01*
X265354Y96916D02*
X264042Y95604D01*
X265354D02*
X264042Y96916D01*
X265354Y96259D02*
X264042D01*
X264698Y95604D02*
Y96916D01*
X262075Y97243D02*
X263387D01*
Y96259D01*
X262731Y96588D01*
X262403D01*
X262075Y96259D01*
Y95604D01*
X262403Y95276D01*
X263058D01*
X263387Y95604D01*
D18*
X367867Y93701D02*
X370866D01*
Y92201D01*
X370366Y91701D01*
X369866D01*
X369367Y92201D01*
Y93701D01*
Y92201D01*
X368867Y91701D01*
X368367D01*
X367867Y92201D01*
Y93701D01*
Y90702D02*
X370366D01*
X370866Y90202D01*
Y89202D01*
X370366Y88702D01*
X367867D01*
X368367Y85703D02*
X367867Y86203D01*
Y87203D01*
X368367Y87703D01*
X368867D01*
X369367Y87203D01*
Y86203D01*
X369866Y85703D01*
X370366D01*
X370866Y86203D01*
Y87203D01*
X370366Y87703D01*
X370866Y81705D02*
X367867D01*
Y80205D01*
X368367Y79705D01*
X369367D01*
X369866Y80205D01*
Y81705D01*
X368367Y76706D02*
X367867Y77206D01*
Y78206D01*
X368367Y78706D01*
X370366D01*
X370866Y78206D01*
Y77206D01*
X370366Y76706D01*
X367867Y75707D02*
X370866D01*
Y74207D01*
X370366Y73707D01*
X369866D01*
X369367Y74207D01*
Y75707D01*
Y74207D01*
X368867Y73707D01*
X368367D01*
X367867Y74207D01*
Y75707D01*
X368867Y69709D02*
X370866Y68709D01*
X368867Y67709D01*
X370866Y66710D02*
Y65710D01*
Y66210D01*
X367867D01*
X368367Y66710D01*
X363143Y93701D02*
X366142D01*
X364642D01*
Y91701D01*
X363143D01*
X366142D01*
X363143Y88702D02*
Y90702D01*
X366142D01*
Y88702D01*
X364642Y90702D02*
Y89702D01*
X366142Y87703D02*
X363143D01*
Y86203D01*
X363643Y85703D01*
X364642D01*
X365142Y86203D01*
Y87703D01*
Y86703D02*
X366142Y85703D01*
X363143Y83204D02*
Y84204D01*
X363643Y84704D01*
X365642D01*
X366142Y84204D01*
Y83204D01*
X365642Y82704D01*
X363643D01*
X363143Y83204D01*
X366142Y81705D02*
X363143D01*
X366142Y79705D01*
X363143D01*
X366142Y75707D02*
X363143D01*
X364142Y74707D01*
X363143Y73707D01*
X366142D01*
Y72708D02*
X363143D01*
X365142D02*
X364142Y71208D01*
X365142Y72708D02*
X366142Y71208D01*
X363143Y66710D02*
Y65710D01*
Y66210D01*
X366142D01*
Y66710D01*
Y65710D01*
X363143Y64210D02*
Y63211D01*
Y63710D01*
X366142D01*
Y64210D01*
Y63211D01*
X261568Y254694D02*
Y256693D01*
X264567D01*
Y254694D01*
X263067Y256693D02*
Y255693D01*
X264567Y253694D02*
X261568D01*
Y252194D01*
X262068Y251694D01*
X263067D01*
X263567Y252194D01*
Y253694D01*
X262068Y248695D02*
X261568Y249195D01*
Y250195D01*
X262068Y250695D01*
X262568D01*
X263067Y250195D01*
Y249195D01*
X263567Y248695D01*
X264067D01*
X264567Y249195D01*
Y250195D01*
X264067Y250695D01*
X262355Y222123D02*
Y223122D01*
X262855Y223622D01*
X264855D01*
X265354Y223122D01*
Y222123D01*
X264855Y221623D01*
X262855D01*
X262355Y222123D01*
Y220623D02*
X265354D01*
Y219124D01*
X264855Y218624D01*
X264355D01*
X263855Y219124D01*
Y220623D01*
Y219124D01*
X263355Y218624D01*
X262855D01*
X262355Y219124D01*
Y220623D01*
X262855Y215625D02*
X262355Y216125D01*
Y217124D01*
X262855Y217624D01*
X264855D01*
X265354Y217124D01*
Y216125D01*
X264855Y215625D01*
D118*
X115354Y199213D02*
X117323D01*
X130315D01*
X115354Y218110D02*
X117323D01*
X130315D01*
X30709Y101969D02*
Y114961D01*
Y116929D01*
X11811Y101969D02*
Y114961D01*
Y116929D01*
X14961Y52756D02*
Y65748D01*
Y50787D02*
Y52756D01*
X33858D02*
Y65748D01*
Y50787D02*
Y52756D01*
X125197Y24409D02*
X127165D01*
X112205D02*
X125197D01*
Y5512D02*
X127165D01*
X112205D02*
X125197D01*
X162205Y24803D02*
X164173D01*
X149213D02*
X162205D01*
Y5906D02*
X164173D01*
X149213D02*
X162205D01*
X196063Y24409D02*
X198031D01*
X183071D02*
X196063D01*
Y5512D02*
X198031D01*
X183071D02*
X196063D01*
X159843Y311024D02*
Y315022D01*
X157843D01*
X157177Y314356D01*
Y313023D01*
X157843Y312356D01*
X159843D01*
X155177Y311024D02*
X153844D01*
X153178Y311690D01*
Y313023D01*
X153844Y313689D01*
X155177D01*
X155844Y313023D01*
Y311690D01*
X155177Y311024D01*
X151845Y313689D02*
Y311690D01*
X151179Y311024D01*
X150512Y311690D01*
X149846Y311024D01*
X149179Y311690D01*
Y313689D01*
X145847Y311024D02*
X147180D01*
X147846Y311690D01*
Y313023D01*
X147180Y313689D01*
X145847D01*
X145181Y313023D01*
Y312356D01*
X147846D01*
X143848Y313689D02*
Y311024D01*
Y312356D01*
X143181Y313023D01*
X142515Y313689D01*
X141848D01*
X133185Y314356D02*
X133851Y315022D01*
X135184D01*
X135850Y314356D01*
Y313689D01*
X135184Y313023D01*
X133851D01*
X133185Y312356D01*
Y311690D01*
X133851Y311024D01*
X135184D01*
X135850Y311690D01*
X129852Y311024D02*
X131185D01*
X131851Y311690D01*
Y313023D01*
X131185Y313689D01*
X129852D01*
X129186Y313023D01*
Y312356D01*
X131851D01*
X127853Y311024D02*
Y313689D01*
X125854D01*
X125187Y313023D01*
Y311024D01*
X123854D02*
X121855D01*
X121188Y311690D01*
X121855Y312356D01*
X123188D01*
X123854Y313023D01*
X123188Y313689D01*
X121188D01*
X119189Y311024D02*
X117856D01*
X117190Y311690D01*
Y313023D01*
X117856Y313689D01*
X119189D01*
X119855Y313023D01*
Y311690D01*
X119189Y311024D01*
X115857Y313689D02*
Y311024D01*
Y312356D01*
X115190Y313023D01*
X114524Y313689D01*
X113857D01*
X111858Y311024D02*
X109859D01*
X109192Y311690D01*
X109859Y312356D01*
X111192D01*
X111858Y313023D01*
X111192Y313689D01*
X109192D01*
X103194D02*
X101861D01*
X101195Y313023D01*
Y311024D01*
X103194D01*
X103861Y311690D01*
X103194Y312356D01*
X101195D01*
X99862Y311024D02*
Y313689D01*
X97862D01*
X97196Y313023D01*
Y311024D01*
X93197Y315022D02*
Y311024D01*
X95197D01*
X95863Y311690D01*
Y313023D01*
X95197Y313689D01*
X93197D01*
X85200Y314356D02*
X85866Y315022D01*
X87199D01*
X87866Y314356D01*
Y311690D01*
X87199Y311024D01*
X85866D01*
X85200Y311690D01*
X83201Y311024D02*
X81868D01*
X81201Y311690D01*
Y313023D01*
X81868Y313689D01*
X83201D01*
X83867Y313023D01*
Y311690D01*
X83201Y311024D01*
X79868D02*
Y313689D01*
X77869D01*
X77202Y313023D01*
Y311024D01*
X75203Y314356D02*
Y313689D01*
X75870D01*
X74537D01*
X75203D01*
Y311690D01*
X74537Y311024D01*
X72537Y313689D02*
Y311024D01*
Y312356D01*
X71871Y313023D01*
X71204Y313689D01*
X70538D01*
X67872Y311024D02*
X66539D01*
X65873Y311690D01*
Y313023D01*
X66539Y313689D01*
X67872D01*
X68539Y313023D01*
Y311690D01*
X67872Y311024D01*
X64540D02*
X63207D01*
X63873D01*
Y315022D01*
X64540D01*
X215323Y137070D02*
X216656D01*
X217323Y136403D01*
Y133737D01*
X216656Y133071D01*
X215323D01*
X214657Y133737D01*
Y136403D01*
X215323Y137070D01*
X213324Y133071D02*
Y135737D01*
X211325D01*
X210658Y135070D01*
Y133071D01*
X209325Y135070D02*
X206660D01*
X205327Y137070D02*
Y133071D01*
X203327D01*
X202661Y133737D01*
Y134404D01*
X203327Y135070D01*
X205327D01*
X203327D01*
X202661Y135737D01*
Y136403D01*
X203327Y137070D01*
X205327D01*
X200661Y133071D02*
X199329D01*
X198662Y133737D01*
Y135070D01*
X199329Y135737D01*
X200661D01*
X201328Y135070D01*
Y133737D01*
X200661Y133071D01*
X196663Y135737D02*
X195330D01*
X194664Y135070D01*
Y133071D01*
X196663D01*
X197329Y133737D01*
X196663Y134404D01*
X194664D01*
X193331Y135737D02*
Y133071D01*
Y134404D01*
X192664Y135070D01*
X191998Y135737D01*
X191331D01*
X186666Y137070D02*
Y133071D01*
X188665D01*
X189332Y133737D01*
Y135070D01*
X188665Y135737D01*
X186666D01*
X178669Y136403D02*
X179335Y137070D01*
X180668D01*
X181334Y136403D01*
Y133737D01*
X180668Y133071D01*
X179335D01*
X178669Y133737D01*
X176669Y133071D02*
X175336D01*
X174670Y133737D01*
Y135070D01*
X175336Y135737D01*
X176669D01*
X177336Y135070D01*
Y133737D01*
X176669Y133071D01*
X173337D02*
Y135737D01*
X172671D01*
X172004Y135070D01*
Y133071D01*
Y135070D01*
X171338Y135737D01*
X170671Y135070D01*
Y133071D01*
X169338Y131738D02*
Y135737D01*
X167339D01*
X166673Y135070D01*
Y133737D01*
X167339Y133071D01*
X169338D01*
X165340Y135737D02*
Y133737D01*
X164673Y133071D01*
X162674D01*
Y135737D01*
X160674Y136403D02*
Y135737D01*
X161341D01*
X160008D01*
X160674D01*
Y133737D01*
X160008Y133071D01*
X156009D02*
X157342D01*
X158009Y133737D01*
Y135070D01*
X157342Y135737D01*
X156009D01*
X155343Y135070D01*
Y134404D01*
X158009D01*
X154010Y135737D02*
Y133071D01*
Y134404D01*
X153343Y135070D01*
X152677Y135737D01*
X152011D01*
X262992Y339432D02*
Y335433D01*
X260993D01*
X260326Y336100D01*
Y336766D01*
X260993Y337432D01*
X262992D01*
X260993D01*
X260326Y338099D01*
Y338765D01*
X260993Y339432D01*
X262992D01*
X258327Y335433D02*
X256994D01*
X256328Y336100D01*
Y337432D01*
X256994Y338099D01*
X258327D01*
X258993Y337432D01*
Y336100D01*
X258327Y335433D01*
X254328D02*
X252995D01*
X252329Y336100D01*
Y337432D01*
X252995Y338099D01*
X254328D01*
X254995Y337432D01*
Y336100D01*
X254328Y335433D01*
X250996D02*
X248997D01*
X248330Y336100D01*
X248997Y336766D01*
X250330D01*
X250996Y337432D01*
X250330Y338099D01*
X248330D01*
X246331Y338765D02*
Y338099D01*
X246997D01*
X245664D01*
X246331D01*
Y336100D01*
X245664Y335433D01*
X237000Y338765D02*
X237667Y339432D01*
X239000D01*
X239666Y338765D01*
Y336100D01*
X239000Y335433D01*
X237667D01*
X237000Y336100D01*
X235001Y335433D02*
X233668D01*
X233002Y336100D01*
Y337432D01*
X233668Y338099D01*
X235001D01*
X235668Y337432D01*
Y336100D01*
X235001Y335433D01*
X231669D02*
Y338099D01*
X229669D01*
X229003Y337432D01*
Y335433D01*
X227670Y338099D02*
X226337Y335433D01*
X225004Y338099D01*
X221672Y335433D02*
X223005D01*
X223672Y336100D01*
Y337432D01*
X223005Y338099D01*
X221672D01*
X221006Y337432D01*
Y336766D01*
X223672D01*
X219673Y338099D02*
Y335433D01*
Y336766D01*
X219006Y337432D01*
X218340Y338099D01*
X217673D01*
X215008Y338765D02*
Y338099D01*
X215674D01*
X214341D01*
X215008D01*
Y336100D01*
X214341Y335433D01*
X210343D02*
X211675D01*
X212342Y336100D01*
Y337432D01*
X211675Y338099D01*
X210343D01*
X209676Y337432D01*
Y336766D01*
X212342D01*
X208343Y338099D02*
Y335433D01*
Y336766D01*
X207677Y337432D01*
X207010Y338099D01*
X206344D01*
X204344Y335433D02*
X202345D01*
X201679Y336100D01*
X202345Y336766D01*
X203678D01*
X204344Y337432D01*
X203678Y338099D01*
X201679D01*
X317261Y111811D02*
X321260D01*
Y109812D01*
X320593Y109145D01*
X319927D01*
X319261Y109812D01*
Y111811D01*
Y109812D01*
X318594Y109145D01*
X317928D01*
X317261Y109812D01*
Y111811D01*
X318594Y107812D02*
X320593D01*
X321260Y107146D01*
Y105147D01*
X318594D01*
Y101148D02*
Y103147D01*
X319261Y103814D01*
X320593D01*
X321260Y103147D01*
Y101148D01*
Y99815D02*
X317261D01*
X319927D02*
X318594Y97816D01*
X319927Y99815D02*
X321260Y97816D01*
X317261Y91817D02*
X321260D01*
Y89818D01*
X320593Y89152D01*
X319927D01*
X319261Y89818D01*
Y91817D01*
Y89818D01*
X318594Y89152D01*
X317928D01*
X317261Y89818D01*
Y91817D01*
X321260Y87152D02*
Y85819D01*
X320593Y85153D01*
X319261D01*
X318594Y85819D01*
Y87152D01*
X319261Y87819D01*
X320593D01*
X321260Y87152D01*
Y83154D02*
Y81821D01*
X320593Y81154D01*
X319261D01*
X318594Y81821D01*
Y83154D01*
X319261Y83820D01*
X320593D01*
X321260Y83154D01*
Y79821D02*
Y77822D01*
X320593Y77156D01*
X319927Y77822D01*
Y79155D01*
X319261Y79821D01*
X318594Y79155D01*
Y77156D01*
X317928Y75156D02*
X318594D01*
Y75823D01*
Y74490D01*
Y75156D01*
X320593D01*
X321260Y74490D01*
X317928Y65826D02*
X317261Y66492D01*
Y67825D01*
X317928Y68492D01*
X320593D01*
X321260Y67825D01*
Y66492D01*
X320593Y65826D01*
X321260Y63827D02*
Y62494D01*
X320593Y61827D01*
X319261D01*
X318594Y62494D01*
Y63827D01*
X319261Y64493D01*
X320593D01*
X321260Y63827D01*
Y60494D02*
X318594D01*
Y58495D01*
X319261Y57828D01*
X321260D01*
X318594Y56495D02*
X321260Y55163D01*
X318594Y53830D01*
X321260Y50498D02*
Y51830D01*
X320593Y52497D01*
X319261D01*
X318594Y51830D01*
Y50498D01*
X319261Y49831D01*
X319927D01*
Y52497D01*
X318594Y48498D02*
X321260D01*
X319927D01*
X319261Y47832D01*
X318594Y47165D01*
Y46499D01*
X317928Y43833D02*
X318594D01*
Y44499D01*
Y43167D01*
Y43833D01*
X320593D01*
X321260Y43167D01*
Y39168D02*
Y40501D01*
X320593Y41167D01*
X319261D01*
X318594Y40501D01*
Y39168D01*
X319261Y38501D01*
X319927D01*
Y41167D01*
X318594Y37168D02*
X321260D01*
X319927D01*
X319261Y36502D01*
X318594Y35835D01*
Y35169D01*
X321260Y33170D02*
Y31170D01*
X320593Y30504D01*
X319927Y31170D01*
Y32503D01*
X319261Y33170D01*
X318594Y32503D01*
Y30504D01*
M02*
