G04*
G04 #@! TF.GenerationSoftware,Altium Limited,Altium Designer,19.1.5 (86)*
G04*
G04 Layer_Physical_Order=1*
G04 Layer_Color=255*
%FSLAX44Y44*%
%MOMM*%
G71*
G01*
G75*
%ADD11C,0.2000*%
%ADD15R,0.4000X0.6000*%
%ADD16R,0.6000X1.1000*%
%ADD17R,0.6000X0.4000*%
%ADD18R,0.6000X0.4500*%
%ADD19R,0.7000X0.7500*%
%ADD20R,0.4500X0.6000*%
%ADD21R,0.7000X0.9000*%
%ADD22R,1.4000X0.3500*%
%ADD23R,0.3500X1.4000*%
%ADD24R,2.2000X1.6000*%
%ADD25R,1.8000X0.7000*%
%ADD45C,1.2700*%
%ADD46R,1.2700X1.2700*%
%ADD47C,5.5000*%
%ADD48R,1.5240X1.5240*%
%ADD49C,1.5240*%
%ADD50C,1.9500*%
%ADD51C,1.5000*%
%ADD52R,1.5000X1.5000*%
%ADD53C,1.6900*%
%ADD54R,1.6900X1.6900*%
%ADD55C,4.7600*%
%ADD56R,1.5240X1.5240*%
%ADD57C,0.6000*%
G36*
X812500Y85000D02*
Y10000D01*
X755000Y10000D01*
Y85000D01*
X812500Y85000D01*
D02*
G37*
G36*
X875000Y85000D02*
Y10000D01*
X817500Y10000D01*
Y85000D01*
X875000Y85000D01*
D02*
G37*
G36*
X950000Y145000D02*
X950000Y94952D01*
X934415D01*
X933466Y95726D01*
X933466Y96222D01*
Y114774D01*
X908418D01*
Y96222D01*
X907469Y94952D01*
X860000Y94952D01*
X860000Y145000D01*
X950000Y145000D01*
D02*
G37*
G36*
X907449Y200000D02*
X908418Y199274D01*
X908418Y198730D01*
Y180226D01*
X933466D01*
Y198730D01*
X934435Y200000D01*
X950000Y200000D01*
X950000Y149952D01*
X860000Y149952D01*
X860000Y200000D01*
X907449Y200000D01*
D02*
G37*
G36*
X950000Y255000D02*
X950000Y204952D01*
X934415D01*
X933466Y205726D01*
X933466Y206222D01*
Y224774D01*
X908418D01*
Y206222D01*
X907469Y204952D01*
X860000Y204952D01*
X860000Y255000D01*
X950000Y255000D01*
D02*
G37*
G36*
X907449Y310000D02*
X908418Y309274D01*
X908418Y308730D01*
Y290226D01*
X933466D01*
Y308730D01*
X934435Y310000D01*
X950000Y310000D01*
X950000Y259952D01*
X860000Y259952D01*
X860000Y310000D01*
X907449Y310000D01*
D02*
G37*
G36*
X950000Y365000D02*
X950000Y314952D01*
X934415D01*
X933466Y315726D01*
X933466Y316222D01*
Y334774D01*
X908418D01*
Y316222D01*
X907469Y314952D01*
X860000Y314952D01*
X860000Y365000D01*
X950000Y365000D01*
D02*
G37*
G36*
X907449Y420000D02*
X908418Y419274D01*
X908418Y418730D01*
Y400226D01*
X933466D01*
Y418730D01*
X934435Y420000D01*
X950000Y420000D01*
X950000Y369952D01*
X860000Y369952D01*
X860000Y420000D01*
X907449Y420000D01*
D02*
G37*
G36*
X950000Y475000D02*
X950000Y424952D01*
X934415D01*
X933466Y425726D01*
X933466Y426222D01*
Y444774D01*
X908418D01*
Y426222D01*
X907469Y424952D01*
X860000Y424952D01*
X860000Y475000D01*
X950000Y475000D01*
D02*
G37*
G36*
X812500Y896602D02*
X812500Y747573D01*
X798024D01*
Y749524D01*
X790976D01*
Y740476D01*
X798024D01*
Y742427D01*
X812500D01*
X812500Y627500D01*
X952500Y627500D01*
X952500Y555000D01*
X752500Y555000D01*
X752500Y896602D01*
X812500D01*
D02*
G37*
G36*
X952500D02*
X952500Y632500D01*
X817500Y632500D01*
Y742427D01*
X819976D01*
Y738976D01*
X830024D01*
Y751024D01*
X819976D01*
Y747573D01*
X817500D01*
X817500Y896602D01*
X952500D01*
D02*
G37*
G36*
X907449Y530000D02*
X908418Y529274D01*
X908418Y528730D01*
Y510226D01*
X933466D01*
Y528730D01*
X934435Y530000D01*
X950000Y530000D01*
X950000Y479952D01*
X860000Y479952D01*
X860000Y530000D01*
X907449Y530000D01*
D02*
G37*
%LPC*%
G36*
X917500Y889114D02*
X912946Y888755D01*
X908503Y887689D01*
X904283Y885940D01*
X900387Y883553D01*
X896914Y880586D01*
X893947Y877113D01*
X891560Y873217D01*
X889811Y868997D01*
X888745Y864554D01*
X888386Y860000D01*
X888745Y855446D01*
X889811Y851003D01*
X891560Y846783D01*
X893947Y842887D01*
X896914Y839414D01*
X900387Y836447D01*
X904283Y834060D01*
X908503Y832311D01*
X912946Y831245D01*
X917500Y830886D01*
X922054Y831245D01*
X926497Y832311D01*
X930717Y834060D01*
X934613Y836447D01*
X938086Y839414D01*
X941053Y842887D01*
X943440Y846783D01*
X945189Y851003D01*
X946255Y855446D01*
X946614Y860000D01*
X946255Y864554D01*
X945189Y868997D01*
X943440Y873217D01*
X941053Y877113D01*
X938086Y880586D01*
X934613Y883553D01*
X930717Y885940D01*
X926497Y887689D01*
X922054Y888755D01*
X917500Y889114D01*
D02*
G37*
%LPD*%
D11*
X530000Y740000D02*
X540000Y730000D01*
X430000Y740000D02*
X530000D01*
X530000Y690000D02*
X540000Y680000D01*
X442500Y690000D02*
X530000D01*
X540000Y517500D02*
Y530000D01*
Y567500D02*
Y580000D01*
X490000Y567500D02*
X530000D01*
X540000Y530000D02*
X622500D01*
X540000Y580000D02*
X645000D01*
X660000Y595000D01*
X672500Y292500D02*
X687500D01*
X687500Y312500D02*
X687500Y312500D01*
X674600Y312500D02*
X687500D01*
X599600Y312500D02*
X612500D01*
X532500Y130000D02*
X533500Y131000D01*
X247500Y452000D02*
X257000D01*
X357500Y312300D02*
X357700Y312500D01*
X282000Y312300D02*
X282200Y312500D01*
X290000Y130000D02*
X291000Y131000D01*
X190000Y312700D02*
X190200Y312500D01*
X115000Y312700D02*
X115200Y312500D01*
X40000Y312700D02*
X40200Y312500D01*
X47500Y130000D02*
X48500Y131000D01*
X599600Y312500D02*
X599600Y312500D01*
X597500Y292500D02*
X612500D01*
X524600Y312500D02*
X537500D01*
X522500Y292500D02*
X537500D01*
X430000D02*
X445000D01*
X445000Y312500D02*
X445000Y312500D01*
X432500Y312500D02*
X445000D01*
X355000Y292500D02*
X370000D01*
Y312500D02*
X372100D01*
X357700D02*
X370000D01*
X280000Y292500D02*
X295000D01*
Y312500D02*
X297100D01*
X282200D02*
X295000D01*
X202500D02*
X204600D01*
X190200D02*
X202500D01*
X187500Y292500D02*
X202500D01*
X127500Y312500D02*
X129600D01*
X115200D02*
X127500D01*
X112500Y292500D02*
X127500D01*
X52500Y312500D02*
X54600D01*
X40200D02*
X52500D01*
X539500Y610500D02*
X540000Y610000D01*
X539500Y610500D02*
Y617500D01*
X545000Y252500D02*
X545400Y252900D01*
X547500Y227100D02*
Y227500D01*
X572500D02*
X572900Y227100D01*
X647500Y225200D02*
X647700Y225000D01*
X645766Y228466D02*
X646600D01*
X645000Y227700D02*
X645766Y228466D01*
X647500Y227500D02*
X672700D01*
X637700Y262500D02*
X647300Y252900D01*
X557500Y262500D02*
X637700D01*
X647900Y252900D02*
X672700D01*
X547500Y252500D02*
X557500Y262500D01*
X647500Y252500D02*
X647900Y252900D01*
X706476Y253960D02*
X712500Y259984D01*
X706476Y171476D02*
Y253960D01*
X685344Y150344D02*
X706476Y171476D01*
X674808Y150344D02*
X685344D01*
X664464Y140000D02*
X674808Y150344D01*
X645000Y140000D02*
X664464D01*
X632500Y128290D02*
X645990Y114800D01*
X632500Y128290D02*
Y167500D01*
X572900Y227100D02*
X632500Y167500D01*
X672700Y172300D02*
Y227500D01*
Y172300D02*
X680000Y165000D01*
X710000Y252500D02*
X716476Y258976D01*
X680000Y140000D02*
X710000Y170000D01*
Y252500D01*
X547500Y197500D02*
Y227100D01*
X667500Y102500D02*
X680000Y115000D01*
X642500Y102500D02*
X667500D01*
X547500Y197500D02*
X642500Y102500D01*
X532500Y147500D02*
X533000D01*
X565000D01*
X575000D01*
X573500Y131000D02*
X575000Y132500D01*
X565000Y131000D02*
X573500D01*
X533500D02*
X565000D01*
X302500Y252500D02*
X302900Y252900D01*
X305000Y227100D02*
Y227500D01*
X330000D02*
X330400Y227100D01*
X405000Y225200D02*
X405200Y225000D01*
X403266Y228466D02*
X404100D01*
X402500Y227700D02*
X403266Y228466D01*
X405000Y227500D02*
X430200D01*
X395200Y262500D02*
X404800Y252900D01*
X315000Y262500D02*
X395200D01*
X405400Y252900D02*
X430200D01*
X305000Y252500D02*
X315000Y262500D01*
X405000Y252500D02*
X405400Y252900D01*
X463976Y253960D02*
X470000Y259984D01*
X463976Y171476D02*
Y253960D01*
X442844Y150344D02*
X463976Y171476D01*
X432308Y150344D02*
X442844D01*
X421964Y140000D02*
X432308Y150344D01*
X402500Y140000D02*
X421964D01*
X390000Y128290D02*
X403490Y114800D01*
X390000Y128290D02*
Y167500D01*
X330400Y227100D02*
X390000Y167500D01*
X430200Y172300D02*
Y227500D01*
Y172300D02*
X437500Y165000D01*
X467500Y252500D02*
X473976Y258976D01*
X437500Y140000D02*
X467500Y170000D01*
Y252500D01*
X305000Y197500D02*
Y227100D01*
X425000Y102500D02*
X437500Y115000D01*
X400000Y102500D02*
X425000D01*
X305000Y197500D02*
X400000Y102500D01*
X290000Y147500D02*
X290500D01*
X322500D01*
X332500D01*
X331000Y131000D02*
X332500Y132500D01*
X322500Y131000D02*
X331000D01*
X291000D02*
X322500D01*
X361500Y598000D02*
Y605000D01*
X362500D02*
Y612500D01*
X330000Y487500D02*
X335524Y481976D01*
X250000Y762500D02*
Y777500D01*
X244206Y626478D02*
Y809206D01*
X240142Y618105D02*
Y814778D01*
X236078Y616422D02*
Y816462D01*
X232554Y614962D02*
Y809946D01*
X244206Y626478D02*
X247500Y623184D01*
X240142Y618105D02*
X265747Y592500D01*
X236078Y616422D02*
X274858Y577642D01*
X232554Y614962D02*
X297500Y550016D01*
X370000Y537500D02*
X380000D01*
X285000Y867500D02*
X495613D01*
X270000Y852500D02*
X285000Y867500D01*
X62500Y252500D02*
X72500Y262500D01*
X162500Y252500D02*
X162900Y252900D01*
X72500Y262500D02*
X152700D01*
X162300Y252900D01*
X182500Y102500D02*
X195000Y115000D01*
X157500Y102500D02*
X182500D01*
X437500Y545000D02*
Y685000D01*
X424500Y507000D02*
X425000Y507500D01*
X424500Y496500D02*
Y507000D01*
X425000Y735000D02*
X430000Y740000D01*
X425000Y545000D02*
Y735000D01*
X421024Y538976D02*
X477000Y483000D01*
X421024Y538976D02*
Y538976D01*
X418524Y541476D02*
X421024Y538976D01*
X415000Y540000D02*
X515000Y440000D01*
X418524Y541476D02*
Y613160D01*
X415000Y540000D02*
Y611700D01*
X365694Y665990D02*
X418524Y613160D01*
X355400Y671300D02*
X415000Y611700D01*
X477000Y483000D02*
X523500D01*
X437500Y685000D02*
X442500Y690000D01*
X437500Y496500D02*
Y507500D01*
X430000Y477500D02*
Y490000D01*
X417500Y487500D02*
Y492500D01*
Y487500D02*
X420000Y485000D01*
X544500Y427000D02*
X557500D01*
X542500Y487500D02*
Y497500D01*
X411500Y486500D02*
Y496500D01*
X404476Y479476D02*
X411500Y486500D01*
X542500Y425000D02*
Y437500D01*
X602500Y405000D02*
Y410000D01*
X532500D02*
X602500D01*
X523500Y419000D02*
X532500Y410000D01*
X523500Y419000D02*
Y422500D01*
X550000Y420000D02*
X552500Y417500D01*
X557500D01*
X550500Y478000D02*
X557500D01*
X536976Y469476D02*
X601476D01*
X602500Y470500D01*
X542500Y487500D02*
X543000Y487000D01*
X557500D01*
X542500Y425000D02*
X544500Y427000D01*
X550000Y402500D02*
X550000Y402500D01*
X525000Y457500D02*
X536976Y469476D01*
X602500Y465000D02*
Y470500D01*
Y390000D02*
Y395500D01*
Y419500D02*
Y425000D01*
Y450000D02*
Y455500D01*
Y479500D02*
Y485000D01*
X532500Y432500D02*
X533000Y432000D01*
Y422500D02*
Y432000D01*
X532500Y492500D02*
X533000Y492000D01*
Y483000D02*
Y492000D01*
X550000Y462500D02*
X557500D01*
X550000Y402500D02*
X557500D01*
X542500Y392500D02*
X550000D01*
X550000Y392500D01*
X557500D01*
X542500Y452500D02*
X550000D01*
X557500D01*
X515000Y405000D02*
X522500Y397500D01*
X515000Y405000D02*
Y440000D01*
X460000Y517500D02*
X460000Y517500D01*
X425000Y412484D02*
Y437500D01*
X355000Y487500D02*
X360524Y481976D01*
X425000Y412484D02*
X479984Y357500D01*
X664984D01*
X719984Y302500D01*
X399595Y775000D02*
X448695Y824100D01*
X342500Y487500D02*
X348024Y481976D01*
X663976Y353524D02*
X716024Y301476D01*
X478976Y353524D02*
X663976D01*
X411500Y421000D02*
X478976Y353524D01*
X477188Y350000D02*
X662500D01*
X398500Y428688D02*
X477188Y350000D01*
X398500Y428688D02*
Y442500D01*
X411500Y421000D02*
Y442500D01*
X418000Y429500D02*
Y442500D01*
X405000Y430000D02*
X405000Y430000D01*
X662500Y350000D02*
X712500Y300000D01*
X297500Y387500D02*
Y393000D01*
Y545000D02*
Y550016D01*
Y545000D02*
X305000Y537500D01*
X370000D01*
X330000Y487500D02*
Y492500D01*
Y487000D02*
Y487500D01*
X418976Y468524D02*
X425000Y462500D01*
X363976Y468524D02*
X418976D01*
X360524Y471976D02*
X363976Y468524D01*
X346476Y461476D02*
X393834D01*
X398500Y456810D01*
Y442500D02*
Y456810D01*
X392000Y454500D02*
X392499Y454999D01*
X392000Y442500D02*
Y454500D01*
X353524Y465000D02*
X410000D01*
X412500Y462500D01*
X384500Y447000D02*
X385000Y447500D01*
X377500Y447000D02*
X384500D01*
X377500Y438000D02*
X392000D01*
X392500Y437500D01*
X345000Y460000D02*
X346476Y461476D01*
X348024Y470500D02*
X353524Y465000D01*
X348024Y470500D02*
Y481976D01*
X360524Y471976D02*
Y481976D01*
X373225Y478225D02*
X373951Y477499D01*
X373225Y478225D02*
X374476Y479476D01*
X372500Y477500D02*
X373225Y478225D01*
X374476Y479476D02*
X404476D01*
X398500Y486000D02*
Y496500D01*
X412500Y447500D02*
Y462500D01*
X425000Y447500D02*
Y462500D01*
X389500Y537500D02*
X395000D01*
X370000D02*
X405000Y502500D01*
X365694Y665990D02*
Y675564D01*
X335524Y469476D02*
X345000Y460000D01*
X335524Y469476D02*
Y481976D01*
X342500Y472500D02*
Y477500D01*
X719984Y302500D02*
X720000D01*
Y252500D02*
Y302500D01*
X712500Y260000D02*
Y300000D01*
X355000Y487500D02*
Y492500D01*
Y472500D02*
Y478000D01*
X342500Y487500D02*
Y492500D01*
X330000Y472500D02*
Y477500D01*
X399595Y775000D02*
X400000D01*
X399595D02*
X399595D01*
X392500Y757500D02*
X400000D01*
X357500Y765000D02*
X389595D01*
X399595Y775000D01*
X405000Y430000D02*
Y442500D01*
X431000Y431500D02*
X432500Y430000D01*
X431000Y431500D02*
Y442500D01*
X432000Y430000D02*
X432500D01*
X265000Y527500D02*
X275000D01*
X162500D02*
X265000D01*
X270000Y522500D01*
X262500Y512500D02*
X263000Y513000D01*
X270000D01*
X164688Y532500D02*
X287500D01*
X130440Y566748D02*
X164688Y532500D01*
X267500Y810000D02*
X282500Y825000D01*
X277500Y502500D02*
Y525000D01*
X275000Y527500D02*
X277500Y525000D01*
X290000Y530000D02*
X293000Y527000D01*
X297500D01*
X290000Y502500D02*
Y530000D01*
X287500Y532500D02*
X290000Y530000D01*
X310000Y527500D02*
X312500D01*
X305000Y532500D02*
X310000Y527500D01*
X312500Y512500D02*
Y518000D01*
X297500Y512500D02*
Y518000D01*
X305000Y502500D02*
Y532500D01*
X297500Y540000D02*
X305000Y532500D01*
X247500Y540000D02*
X297500D01*
Y402500D02*
Y412500D01*
X262500Y407500D02*
Y413000D01*
X270000Y429500D02*
Y435000D01*
Y395000D02*
Y429500D01*
X262500Y422000D02*
X270000Y429500D01*
Y435000D02*
X272500Y437500D01*
X277500Y430000D02*
X278000Y430500D01*
X227500Y352500D02*
X270000Y395000D01*
X239475Y460524D02*
X267288D01*
X160000Y140000D02*
X179464D01*
X284476Y436976D02*
Y442476D01*
Y428976D02*
Y436976D01*
Y404476D02*
Y428976D01*
Y436976D02*
X285000Y437500D01*
X231476Y351476D02*
X284476Y404476D01*
X231476Y258976D02*
Y351476D01*
X225000Y252500D02*
X231476Y258976D01*
X297500Y412500D02*
Y437500D01*
X235000Y350000D02*
X297500Y412500D01*
X277500Y407500D02*
Y413000D01*
Y422000D02*
X284476Y428976D01*
X80000Y147500D02*
X90000D01*
X88500Y131000D02*
X90000Y132500D01*
X80000Y131000D02*
X88500D01*
X62500Y227100D02*
Y227500D01*
Y197500D02*
Y227100D01*
Y197500D02*
X157500Y102500D01*
X147500Y128290D02*
Y167500D01*
Y128290D02*
X160990Y114800D01*
X87900Y227100D02*
X147500Y167500D01*
X87500Y227500D02*
X87900Y227100D01*
X622500Y530000D02*
X660000Y567500D01*
X145000Y570000D02*
X162500Y552500D01*
X145000Y570000D02*
Y585000D01*
X140464Y564536D02*
X162500Y542500D01*
X140464Y564536D02*
Y582036D01*
X130440Y566748D02*
Y577100D01*
X382500Y495000D02*
X392500D01*
X375000D02*
X382500D01*
X382500Y485000D02*
X382500Y485000D01*
X375000Y485000D02*
X382500D01*
X307500Y545000D02*
Y552500D01*
X315000Y605000D02*
X317000Y607000D01*
Y612500D01*
X307500Y597500D02*
X308000Y598000D01*
Y612500D01*
X291000Y483688D02*
X295212Y479476D01*
X291000Y483688D02*
Y496500D01*
X297500Y447500D02*
Y455000D01*
X140464Y589536D02*
X145000Y585000D01*
X140464Y589536D02*
Y606652D01*
X130440Y616676D02*
X140464Y606652D01*
X130440Y616676D02*
Y622900D01*
X140000Y550000D02*
X162500Y527500D01*
X130000Y550000D02*
X140000D01*
X130440Y592060D02*
X140464Y582036D01*
X130440Y592060D02*
Y597500D01*
X105000Y472500D02*
Y500000D01*
Y472500D02*
X137500Y440000D01*
X265747Y592500D02*
X302500D01*
X460000Y617500D02*
X475000D01*
X460000Y680000D02*
X475000D01*
X460000Y730000D02*
X475000D01*
X460000Y567500D02*
X475000D01*
X352500Y605000D02*
Y612500D01*
X490000Y617500D02*
X530000D01*
X490000Y617500D02*
X490000Y617500D01*
X312500Y597500D02*
X320000D01*
X326000Y591500D01*
X361500D01*
X530000Y852500D02*
X637500Y745000D01*
Y672500D02*
Y745000D01*
X633524Y671476D02*
X660000Y645000D01*
X633524Y671476D02*
Y743002D01*
X535000Y841526D02*
X633524Y743002D01*
X534042Y837500D02*
X630000Y741542D01*
Y670000D02*
Y741542D01*
X507500Y837500D02*
X534042D01*
X637500Y672500D02*
X654976Y655024D01*
X668546D01*
X670024Y653546D01*
Y636455D02*
Y653546D01*
X670000Y636431D02*
X670024Y636455D01*
X670000Y623800D02*
Y636431D01*
Y623800D02*
X670024Y623776D01*
Y590048D02*
Y623776D01*
X670000Y590024D02*
X670024Y590048D01*
X670000Y574012D02*
Y590024D01*
Y574012D02*
X670024Y573988D01*
Y564648D02*
Y573988D01*
X660000Y554624D02*
X670024Y564648D01*
X660000Y543400D02*
Y554624D01*
X517720Y852500D02*
X530000D01*
X367500Y572500D02*
X370000D01*
X375358Y577858D01*
Y635977D01*
X367500Y585000D02*
X371024Y588524D01*
Y634564D01*
X340294Y665294D02*
X371024Y634564D01*
X445000Y442500D02*
X445000Y442500D01*
X437500Y442500D02*
X445000D01*
X310500Y442500D02*
X317500D01*
X431000Y429000D02*
X432000Y430000D01*
X227815Y814685D02*
X232554Y809946D01*
X227815Y814685D02*
Y824100D01*
X239059Y819443D02*
Y828757D01*
X243123Y817759D02*
Y850997D01*
X236078Y816462D02*
X239059Y819443D01*
X215316Y852500D02*
X239059Y828757D01*
X240142Y814778D02*
X243123Y817759D01*
X241620Y852500D02*
X243123Y850997D01*
X716024Y258524D02*
Y301476D01*
X304000Y421000D02*
Y442500D01*
X290000Y430000D02*
X291000Y431000D01*
Y442500D01*
X284476Y442476D02*
X284500Y442500D01*
X257500Y619999D02*
Y620997D01*
X248000Y630496D02*
X257500Y620997D01*
X345500Y565500D02*
X361500D01*
X347000Y580000D02*
X348500Y578500D01*
X271500Y484000D02*
Y496500D01*
X247500Y442500D02*
X265000D01*
X255000Y452499D02*
X256501D01*
X257000Y452000D01*
X352500Y772500D02*
X385000D01*
X432059Y823365D02*
X461194Y852500D01*
X385000Y772500D02*
X388806Y776306D01*
X388811D01*
X432059Y819554D01*
Y823365D01*
X649976Y630024D02*
X660000Y620000D01*
X649976Y630024D02*
Y650024D01*
X630000Y670000D02*
X649976Y650024D01*
X260000Y757500D02*
X260001D01*
X260000D02*
Y777500D01*
X267500Y750000D02*
Y810000D01*
X275000Y742500D02*
Y785000D01*
X281433Y741121D02*
Y786067D01*
X275312Y735000D02*
X281433Y741121D01*
X250000Y735000D02*
X275312D01*
X495613Y867500D02*
X504608Y858505D01*
X501084Y843916D02*
Y857046D01*
X504608Y845392D02*
Y858505D01*
Y845392D02*
X508474Y841526D01*
X535000D01*
X501084Y843916D02*
X507500Y837500D01*
X494656Y863474D02*
X501084Y857046D01*
X319904Y863474D02*
X494656D01*
X461194Y852500D02*
X462500D01*
X308930D02*
X319904Y863474D01*
X296840Y852500D02*
X308930D01*
X519435Y824100D02*
X531525D01*
X355000Y722500D02*
Y732500D01*
X365000Y742500D01*
X427500D01*
X498126Y813126D01*
X508461D01*
X519435Y824100D01*
X48500Y131000D02*
X80000D01*
X48000Y147500D02*
X80000D01*
X47500D02*
X48000D01*
X470452Y260452D02*
Y302048D01*
X467500Y305000D02*
X470452Y302048D01*
X467500Y305000D02*
Y305033D01*
X298040Y479476D02*
X473976Y303540D01*
Y258976D02*
Y303540D01*
X477500Y252500D02*
Y305000D01*
X305000Y477500D02*
X477500Y305000D01*
X660000Y295100D02*
Y312500D01*
Y295100D02*
X662600Y292500D01*
X585000Y295100D02*
Y312500D01*
Y295100D02*
X587600Y292500D01*
X524600Y312500D02*
X524600Y312500D01*
X510000Y295100D02*
Y312500D01*
Y295100D02*
X512600Y292500D01*
X342500Y363000D02*
Y380000D01*
Y363000D02*
X345500Y360000D01*
X355000D02*
X372500D01*
X372500Y380000D02*
X372500Y380000D01*
X357500Y380000D02*
X372500D01*
X417500Y295500D02*
Y312500D01*
Y295500D02*
X420500Y292500D01*
X342500Y295300D02*
Y312500D01*
Y295300D02*
X345500Y292300D01*
X267500Y294800D02*
Y312500D01*
Y294800D02*
X270000Y292300D01*
X37500Y292700D02*
X52500D01*
X187700Y172300D02*
X195000Y165000D01*
X187700Y172300D02*
Y227500D01*
X162500D02*
X187700D01*
X179464Y140000D02*
X189808Y150344D01*
X200344D01*
X221476Y171476D01*
Y253960D01*
X227500Y259984D01*
Y352500D01*
X195000Y140000D02*
X225000Y170000D01*
Y252500D01*
X235000D02*
Y350000D01*
X60000Y252500D02*
X60400Y252900D01*
X162900D02*
X187700D01*
X240000Y461049D02*
Y462500D01*
X239475Y460524D02*
X240000Y461049D01*
X270000Y485000D02*
X270500D01*
X271500Y484000D01*
X277500Y482500D02*
X285000Y475000D01*
X277500Y482500D02*
Y492500D01*
X285000Y475000D02*
X297533D01*
X284500Y485500D02*
Y496500D01*
Y485500D02*
X285000Y485000D01*
X297533Y475000D02*
X467500Y305033D01*
X297500Y485000D02*
X297500Y485000D01*
X305000Y477500D02*
Y492500D01*
X295212Y479476D02*
X298040D01*
X400000Y757500D02*
X466600Y824100D01*
X310500Y487000D02*
X312500Y485000D01*
X310500Y487000D02*
Y496500D01*
X297500Y485000D02*
Y496500D01*
X257500Y485000D02*
X257500Y485000D01*
X250000Y485000D02*
X257500D01*
X259000Y496500D02*
X265000D01*
X257500Y495000D02*
X259000Y496500D01*
X252500Y495000D02*
X257500D01*
X248451Y464048D02*
X269917D01*
X284500Y449465D01*
Y442500D02*
Y449465D01*
X240000Y472499D02*
X248451Y464048D01*
X267288Y460524D02*
X270524Y457288D01*
Y443476D02*
Y457288D01*
X247500Y620000D02*
Y623184D01*
X248000Y630496D02*
Y733000D01*
X250000Y735000D01*
X281433Y786067D02*
X307866Y812500D01*
X326655D01*
X338255Y824100D01*
X275000Y785000D02*
X310645Y820645D01*
X244206Y809206D02*
X255425Y820425D01*
X785000Y165500D02*
Y177500D01*
X840000Y165000D02*
Y177500D01*
X162500Y225200D02*
X162700Y225000D01*
X490000Y680000D02*
X530000D01*
X355400Y685858D02*
X365694Y675564D01*
X355400Y685858D02*
Y696700D01*
X785000Y165500D02*
X785500Y165000D01*
X840000Y165000D02*
Y165000D01*
X840000Y165000D02*
X840000Y165000D01*
X265000Y442500D02*
Y455000D01*
X278000Y430500D02*
Y442500D01*
X175000Y295700D02*
Y312700D01*
Y295700D02*
X178000Y292700D01*
X100000Y295700D02*
Y312700D01*
Y295700D02*
X103000Y292700D01*
X25000Y295700D02*
Y312700D01*
Y295700D02*
X28000Y292700D01*
X340294Y665294D02*
Y803651D01*
X344358Y666977D02*
Y801968D01*
X357500Y747500D02*
X427315D01*
X466600Y824100D02*
X476305D01*
X310645Y820645D02*
Y824100D01*
X274858Y577642D02*
X302358D01*
X255425Y820425D02*
Y824100D01*
X349499Y812856D02*
Y828757D01*
X353563Y811173D02*
Y850997D01*
X325756Y852500D02*
X349499Y828757D01*
X324450Y852500D02*
X325756D01*
X340294Y803651D02*
X349499Y812856D01*
X344358Y801968D02*
X353563Y811173D01*
X344358Y666977D02*
X375358Y635977D01*
X427315Y747500D02*
X503915Y824100D01*
X460000Y680000D02*
X460000Y680000D01*
Y517500D02*
X475000D01*
X460000Y567500D02*
X460000Y567500D01*
X460000Y617500D02*
X460000Y617500D01*
X460000Y730000D02*
X460000Y730000D01*
X490000Y517500D02*
X530000D01*
X490000Y730000D02*
X530000D01*
X345500Y565500D02*
Y567000D01*
X348500Y578500D02*
X361500D01*
X352060Y852500D02*
X353563Y850997D01*
X310000Y572500D02*
X322500D01*
X307500Y585000D02*
X322500D01*
X302358Y577642D02*
X302500Y577500D01*
X214010Y852500D02*
X215316D01*
X160766Y228466D02*
X161600D01*
X160000Y227700D02*
X160766Y228466D01*
X795000Y745000D02*
X825000D01*
X792000Y165000D02*
X825000D01*
D15*
X389500Y537500D02*
D03*
X380500D02*
D03*
X794500Y165000D02*
D03*
X785500D02*
D03*
X530500Y680000D02*
D03*
X539500D02*
D03*
X345500Y292500D02*
D03*
X354500D02*
D03*
X270000D02*
D03*
X279000D02*
D03*
X512600D02*
D03*
X521600D02*
D03*
X103000D02*
D03*
X112000D02*
D03*
X28000D02*
D03*
X37000D02*
D03*
X587600D02*
D03*
X596600D02*
D03*
X420500D02*
D03*
X429500D02*
D03*
X178000D02*
D03*
X187000D02*
D03*
X662600D02*
D03*
X671600D02*
D03*
X345500Y360000D02*
D03*
X354500D02*
D03*
X530500Y730000D02*
D03*
X539500D02*
D03*
X530500Y567500D02*
D03*
X539500D02*
D03*
X794500Y745000D02*
D03*
X785500D02*
D03*
X308000Y612500D02*
D03*
X317000D02*
D03*
X539500Y517500D02*
D03*
X530500D02*
D03*
X539500Y617500D02*
D03*
X530500D02*
D03*
D16*
X542500Y483000D02*
D03*
X533000D02*
D03*
X523500D02*
D03*
Y455000D02*
D03*
X542500D02*
D03*
Y422500D02*
D03*
X533000D02*
D03*
X523500D02*
D03*
Y394500D02*
D03*
X542500D02*
D03*
D17*
X557500Y417500D02*
D03*
Y426500D02*
D03*
X602500Y479500D02*
D03*
Y470500D02*
D03*
X557500Y478000D02*
D03*
Y487000D02*
D03*
X602500Y464500D02*
D03*
Y455500D02*
D03*
Y419500D02*
D03*
Y410500D02*
D03*
Y404500D02*
D03*
Y395500D02*
D03*
X355000Y487000D02*
D03*
Y478000D02*
D03*
X342500Y487000D02*
D03*
Y478000D02*
D03*
X330000D02*
D03*
Y487000D02*
D03*
X270000Y513000D02*
D03*
Y522000D02*
D03*
X297500Y527000D02*
D03*
Y518000D02*
D03*
X312500Y527000D02*
D03*
Y518000D02*
D03*
X277500Y422000D02*
D03*
Y413000D02*
D03*
X297500Y402000D02*
D03*
Y393000D02*
D03*
X262500Y413000D02*
D03*
Y422000D02*
D03*
X377500Y447000D02*
D03*
Y438000D02*
D03*
X247500Y452000D02*
D03*
Y443000D02*
D03*
D18*
X557500Y462500D02*
D03*
Y452500D02*
D03*
Y402500D02*
D03*
Y392500D02*
D03*
X250000Y495000D02*
D03*
Y485000D02*
D03*
X375000Y495000D02*
D03*
Y485000D02*
D03*
D19*
X533000Y131000D02*
D03*
X565000D02*
D03*
Y147500D02*
D03*
X533000D02*
D03*
X290500Y131000D02*
D03*
X322500D02*
D03*
Y147500D02*
D03*
X290500D02*
D03*
X48000Y131000D02*
D03*
X80000D02*
D03*
Y147500D02*
D03*
X48000D02*
D03*
D20*
X362500Y612500D02*
D03*
X352500D02*
D03*
D21*
X840000Y165000D02*
D03*
X825000D02*
D03*
X490000Y680000D02*
D03*
X475000D02*
D03*
X342500Y312500D02*
D03*
X357500D02*
D03*
X267000Y312500D02*
D03*
X282000Y312500D02*
D03*
X509600D02*
D03*
X524600D02*
D03*
X100000D02*
D03*
X115000D02*
D03*
X25000D02*
D03*
X40000D02*
D03*
X584600D02*
D03*
X599600D02*
D03*
X417500D02*
D03*
X432500D02*
D03*
X175000D02*
D03*
X190000D02*
D03*
X659600Y312500D02*
D03*
X674600Y312500D02*
D03*
X342500Y380000D02*
D03*
X357500D02*
D03*
X490000Y730000D02*
D03*
X475000D02*
D03*
X490000Y567500D02*
D03*
X475000D02*
D03*
X825000Y745000D02*
D03*
X840000D02*
D03*
X475000Y517500D02*
D03*
X490000D02*
D03*
X475000Y617500D02*
D03*
X490000D02*
D03*
D22*
X361500Y552500D02*
D03*
Y559000D02*
D03*
Y565500D02*
D03*
Y572000D02*
D03*
Y578500D02*
D03*
Y585000D02*
D03*
Y591500D02*
D03*
Y598000D02*
D03*
X307500Y552500D02*
D03*
Y559000D02*
D03*
Y565500D02*
D03*
Y572000D02*
D03*
Y578500D02*
D03*
Y585000D02*
D03*
Y591500D02*
D03*
Y598000D02*
D03*
D23*
X392000Y442500D02*
D03*
X398500D02*
D03*
X405000D02*
D03*
X411500D02*
D03*
X418000D02*
D03*
X424500D02*
D03*
X431000D02*
D03*
X437500D02*
D03*
X392000Y496500D02*
D03*
X398500D02*
D03*
X405000D02*
D03*
X411500D02*
D03*
X418000D02*
D03*
X424500D02*
D03*
X431000D02*
D03*
X437500D02*
D03*
X265000Y442500D02*
D03*
X271500D02*
D03*
X278000D02*
D03*
X284500D02*
D03*
X291000D02*
D03*
X297500D02*
D03*
X304000D02*
D03*
X310500D02*
D03*
X265000Y496500D02*
D03*
X271500D02*
D03*
X278000D02*
D03*
X284500D02*
D03*
X291000D02*
D03*
X297500D02*
D03*
X304000D02*
D03*
X310500D02*
D03*
D24*
X920942Y189750D02*
D03*
Y105250D02*
D03*
Y299750D02*
D03*
Y215250D02*
D03*
Y435250D02*
D03*
Y519750D02*
D03*
Y325250D02*
D03*
Y409750D02*
D03*
D25*
X887942Y141250D02*
D03*
Y128750D02*
D03*
Y153750D02*
D03*
Y166250D02*
D03*
Y251250D02*
D03*
Y238750D02*
D03*
Y263750D02*
D03*
Y276250D02*
D03*
Y496250D02*
D03*
Y483750D02*
D03*
Y458750D02*
D03*
Y471250D02*
D03*
Y386250D02*
D03*
Y373750D02*
D03*
Y348750D02*
D03*
Y361250D02*
D03*
D45*
X162300Y252500D02*
D03*
X187700D02*
D03*
Y227100D02*
D03*
X672700Y227100D02*
D03*
Y252500D02*
D03*
X647300D02*
D03*
X404800Y252500D02*
D03*
X430200D02*
D03*
Y227100D02*
D03*
X572900Y227100D02*
D03*
Y252500D02*
D03*
X547500Y227100D02*
D03*
Y252500D02*
D03*
X522100D02*
D03*
X87900Y227100D02*
D03*
Y252500D02*
D03*
X62500Y227100D02*
D03*
Y252500D02*
D03*
X37100D02*
D03*
X330400Y227100D02*
D03*
Y252500D02*
D03*
X305000Y227100D02*
D03*
Y252500D02*
D03*
X279600D02*
D03*
D46*
X162300Y227100D02*
D03*
X647300Y227100D02*
D03*
X404800Y227100D02*
D03*
X522100Y227100D02*
D03*
X37100Y227100D02*
D03*
X279600D02*
D03*
D47*
X42500Y860000D02*
D03*
X917500D02*
D03*
Y42500D02*
D03*
X42500D02*
D03*
D48*
X679010Y114800D02*
D03*
X436510Y114800D02*
D03*
X194010D02*
D03*
D49*
X679010Y140200D02*
D03*
Y165600D02*
D03*
X645990Y114800D02*
D03*
Y140200D02*
D03*
Y165600D02*
D03*
X403490Y165600D02*
D03*
Y140200D02*
D03*
Y114800D02*
D03*
X436510Y165600D02*
D03*
Y140200D02*
D03*
X194010D02*
D03*
Y165600D02*
D03*
X160990Y114800D02*
D03*
Y140200D02*
D03*
Y165600D02*
D03*
X137500Y405990D02*
D03*
X162900D02*
D03*
X112100Y439010D02*
D03*
X137500D02*
D03*
X162900D02*
D03*
D50*
X915000Y655000D02*
D03*
Y605000D02*
D03*
X790000Y860000D02*
D03*
X840000D02*
D03*
Y42500D02*
D03*
X790000D02*
D03*
D51*
X130440Y500900D02*
D03*
X105040D02*
D03*
X130440Y526300D02*
D03*
X105040D02*
D03*
X130440Y551700D02*
D03*
X105040D02*
D03*
X130440Y577100D02*
D03*
X105040D02*
D03*
X130440Y602500D02*
D03*
X105040D02*
D03*
X130440Y627900D02*
D03*
X685400Y518000D02*
D03*
X660000D02*
D03*
X685400Y543400D02*
D03*
X660000D02*
D03*
X685400Y568800D02*
D03*
X660000D02*
D03*
X685400Y594200D02*
D03*
X660000D02*
D03*
X685400Y619600D02*
D03*
X660000D02*
D03*
X685400Y645000D02*
D03*
X355400Y671300D02*
D03*
X330000D02*
D03*
X355400Y696700D02*
D03*
X330000D02*
D03*
X355400Y722100D02*
D03*
X330000D02*
D03*
X355400Y747500D02*
D03*
D52*
X105040Y627900D02*
D03*
X660000Y645000D02*
D03*
X330000Y747500D02*
D03*
D53*
X531525Y824100D02*
D03*
X517720Y852500D02*
D03*
X503915Y824100D02*
D03*
X490110Y852500D02*
D03*
X476305Y824100D02*
D03*
X462500Y852500D02*
D03*
X448695Y824100D02*
D03*
X434890Y852500D02*
D03*
X421085Y824100D02*
D03*
X407280Y852500D02*
D03*
X393475Y824100D02*
D03*
X379670Y852500D02*
D03*
X365865Y824100D02*
D03*
X352060Y852500D02*
D03*
X338255Y824100D02*
D03*
X324450Y852500D02*
D03*
X310645Y824100D02*
D03*
X296840Y852500D02*
D03*
X283035Y824100D02*
D03*
X269230Y852500D02*
D03*
X255425Y824100D02*
D03*
X241620Y852500D02*
D03*
X227815Y824100D02*
D03*
X214010Y852500D02*
D03*
D54*
X200205Y824100D02*
D03*
D55*
X130605Y838300D02*
D03*
X601125D02*
D03*
D56*
X112100Y405990D02*
D03*
D57*
X540000Y530000D02*
D03*
Y580000D02*
D03*
X687500Y292500D02*
D03*
Y312500D02*
D03*
X612500Y292500D02*
D03*
Y312500D02*
D03*
X537500D02*
D03*
Y292500D02*
D03*
X445000D02*
D03*
Y312500D02*
D03*
X370000Y292500D02*
D03*
Y312500D02*
D03*
X295000Y292500D02*
D03*
Y312500D02*
D03*
X202500Y292500D02*
D03*
Y312500D02*
D03*
X127500Y292500D02*
D03*
Y312500D02*
D03*
X52500Y292500D02*
D03*
Y312500D02*
D03*
X540000Y610000D02*
D03*
X720000Y252500D02*
D03*
X575000Y147500D02*
D03*
Y132500D02*
D03*
X477500Y252500D02*
D03*
X332500Y147500D02*
D03*
Y132500D02*
D03*
X250000Y777500D02*
D03*
X437500Y545000D02*
D03*
X425000Y507500D02*
D03*
Y545000D02*
D03*
X437500Y507500D02*
D03*
X430000Y477500D02*
D03*
X420000Y485000D02*
D03*
X542500Y497500D02*
D03*
Y437500D02*
D03*
X550024Y421476D02*
D03*
X550500Y478000D02*
D03*
X550000Y402500D02*
D03*
X602500Y390000D02*
D03*
Y425000D02*
D03*
Y450000D02*
D03*
Y485000D02*
D03*
X532500Y432500D02*
D03*
Y492500D02*
D03*
X550000Y462500D02*
D03*
X550000Y392500D02*
D03*
X550000Y452500D02*
D03*
X460000Y517500D02*
D03*
X418000Y429500D02*
D03*
X405000Y430000D02*
D03*
X392499Y454999D02*
D03*
X385000Y447500D02*
D03*
X372499Y477499D02*
D03*
X398500Y486000D02*
D03*
X395000Y537500D02*
D03*
X342500Y472500D02*
D03*
X355000Y492500D02*
D03*
Y472500D02*
D03*
X342500Y492500D02*
D03*
X330000Y472500D02*
D03*
Y492500D02*
D03*
X392500Y757500D02*
D03*
X400000Y775000D02*
D03*
X432500Y430000D02*
D03*
X262500Y512500D02*
D03*
X312500D02*
D03*
X297500D02*
D03*
Y387500D02*
D03*
X262500Y407500D02*
D03*
X277500Y430000D02*
D03*
Y407500D02*
D03*
X90000Y147500D02*
D03*
Y132500D02*
D03*
X162500Y552500D02*
D03*
X382500Y495000D02*
D03*
Y485000D02*
D03*
X307500Y545000D02*
D03*
X315000Y605000D02*
D03*
X297500Y455000D02*
D03*
X162500Y542500D02*
D03*
X357500Y765000D02*
D03*
X247500Y540000D02*
D03*
X445000Y442500D02*
D03*
X317500D02*
D03*
X304000Y421000D02*
D03*
X290000Y430000D02*
D03*
X257500Y619999D02*
D03*
X347000Y580000D02*
D03*
X255000Y452499D02*
D03*
X260000Y757500D02*
D03*
X267500Y750000D02*
D03*
X275000Y742500D02*
D03*
X250000Y762500D02*
D03*
X352500Y772500D02*
D03*
X372500Y360000D02*
D03*
Y380000D02*
D03*
X235000Y252500D02*
D03*
X944001Y464001D02*
D03*
Y448000D02*
D03*
Y432001D02*
D03*
X936001Y464001D02*
D03*
X940001Y456001D02*
D03*
X936001Y448000D02*
D03*
X940001Y440000D02*
D03*
X928001Y464001D02*
D03*
X932001Y456001D02*
D03*
X928001Y448000D02*
D03*
X920001Y464001D02*
D03*
X924001Y456001D02*
D03*
X920001Y448000D02*
D03*
X912001Y464001D02*
D03*
X916001Y456001D02*
D03*
X912001Y448000D02*
D03*
X904001Y464001D02*
D03*
X908001Y456001D02*
D03*
X904001Y448000D02*
D03*
Y432001D02*
D03*
X896001Y448000D02*
D03*
X900001Y440000D02*
D03*
X896001Y432001D02*
D03*
X888001Y448000D02*
D03*
X892001Y440000D02*
D03*
X888001Y432001D02*
D03*
X880001Y448000D02*
D03*
X884001Y440000D02*
D03*
X880001Y432001D02*
D03*
X872001Y464001D02*
D03*
Y448000D02*
D03*
X876001Y440000D02*
D03*
X872001Y432001D02*
D03*
X864001Y464001D02*
D03*
X868001Y456001D02*
D03*
X864001Y448000D02*
D03*
X868001Y440000D02*
D03*
X864001Y432001D02*
D03*
X944001Y352000D02*
D03*
Y336000D02*
D03*
Y320000D02*
D03*
X940001Y360000D02*
D03*
X936001Y352000D02*
D03*
X940001Y344000D02*
D03*
Y328000D02*
D03*
X932001Y360000D02*
D03*
X928001Y352000D02*
D03*
X932001Y344000D02*
D03*
X924001Y360000D02*
D03*
X920001Y352000D02*
D03*
X924001Y344000D02*
D03*
X916001Y360000D02*
D03*
X912001Y352000D02*
D03*
X916001Y344000D02*
D03*
X908001Y360000D02*
D03*
X904001Y352000D02*
D03*
X908001Y344000D02*
D03*
X904001Y336000D02*
D03*
Y320000D02*
D03*
X896001Y336000D02*
D03*
X900001Y328000D02*
D03*
X896001Y320000D02*
D03*
X888001Y336000D02*
D03*
X892001Y328000D02*
D03*
X888001Y320000D02*
D03*
X880001Y336000D02*
D03*
X884001Y328000D02*
D03*
X880001Y320000D02*
D03*
X872001Y352000D02*
D03*
Y336000D02*
D03*
X876001Y328000D02*
D03*
X872001Y320000D02*
D03*
X868001Y360000D02*
D03*
X864001Y352000D02*
D03*
X868001Y344000D02*
D03*
X864001Y336000D02*
D03*
X868001Y328000D02*
D03*
X864001Y320000D02*
D03*
X944001Y240000D02*
D03*
Y224000D02*
D03*
X940001Y248000D02*
D03*
X936001Y240000D02*
D03*
X940001Y232000D02*
D03*
Y216000D02*
D03*
X932001Y248000D02*
D03*
X928001Y240000D02*
D03*
X932001Y232000D02*
D03*
X924001Y248000D02*
D03*
X920001Y240000D02*
D03*
X924001Y232000D02*
D03*
X916001Y248000D02*
D03*
X912001Y240000D02*
D03*
X916001Y232000D02*
D03*
X908001Y248000D02*
D03*
X904001Y240000D02*
D03*
X908001Y232000D02*
D03*
X904001Y224000D02*
D03*
X900001Y232000D02*
D03*
X896001Y224000D02*
D03*
X900001Y216000D02*
D03*
X888001Y224000D02*
D03*
X892001Y216000D02*
D03*
X880001Y224000D02*
D03*
X884001Y216000D02*
D03*
X872001Y240000D02*
D03*
X876001Y232000D02*
D03*
X872001Y224000D02*
D03*
X876001Y216000D02*
D03*
X868001Y248000D02*
D03*
X864001Y240000D02*
D03*
X868001Y232000D02*
D03*
X864001Y224000D02*
D03*
X868001Y216000D02*
D03*
X944001Y136000D02*
D03*
Y120000D02*
D03*
Y104000D02*
D03*
X936001Y136000D02*
D03*
X940001Y128000D02*
D03*
X936001Y120000D02*
D03*
X940001Y112000D02*
D03*
X928001Y136000D02*
D03*
X932001Y128000D02*
D03*
X928001Y120000D02*
D03*
X920001Y136000D02*
D03*
X924001Y128000D02*
D03*
X920001Y120000D02*
D03*
X912001Y136000D02*
D03*
X916001Y128000D02*
D03*
X912001Y120000D02*
D03*
X904001Y136000D02*
D03*
X908001Y128000D02*
D03*
X904001Y120000D02*
D03*
Y104000D02*
D03*
X896001Y120000D02*
D03*
X900001Y112000D02*
D03*
X896001Y104000D02*
D03*
X888001Y120000D02*
D03*
X892001Y112000D02*
D03*
X888001Y104000D02*
D03*
X880001Y120000D02*
D03*
X884001Y112000D02*
D03*
X880001Y104000D02*
D03*
X872001Y136000D02*
D03*
Y120000D02*
D03*
X876001Y112000D02*
D03*
X872001Y104000D02*
D03*
X864001Y136000D02*
D03*
X868001Y128000D02*
D03*
X864001Y120000D02*
D03*
X868001Y112000D02*
D03*
X864001Y104000D02*
D03*
X944001Y192000D02*
D03*
Y176000D02*
D03*
Y160000D02*
D03*
X940001Y184000D02*
D03*
X936001Y176000D02*
D03*
X940001Y168000D02*
D03*
X936001Y160000D02*
D03*
X928001Y176000D02*
D03*
X932001Y168000D02*
D03*
X928001Y160000D02*
D03*
X920001Y176000D02*
D03*
X924001Y168000D02*
D03*
X920001Y160000D02*
D03*
X912001Y176000D02*
D03*
X916001Y168000D02*
D03*
X912001Y160000D02*
D03*
X904001Y192000D02*
D03*
Y176000D02*
D03*
X908001Y168000D02*
D03*
X904001Y160000D02*
D03*
X896001Y192000D02*
D03*
X900001Y184000D02*
D03*
X896001Y176000D02*
D03*
X888001Y192000D02*
D03*
X892001Y184000D02*
D03*
X888001Y176000D02*
D03*
X880001Y192000D02*
D03*
X884001Y184000D02*
D03*
X880001Y176000D02*
D03*
X872001Y192000D02*
D03*
X876001Y184000D02*
D03*
X872001Y176000D02*
D03*
Y160000D02*
D03*
X864001Y192000D02*
D03*
X868001Y184000D02*
D03*
X864001Y176000D02*
D03*
X868001Y168000D02*
D03*
X864001Y160000D02*
D03*
X944001Y296000D02*
D03*
Y280000D02*
D03*
Y264000D02*
D03*
X940001Y304000D02*
D03*
Y288000D02*
D03*
X936001Y280000D02*
D03*
X940001Y272000D02*
D03*
X936001Y264000D02*
D03*
X928001Y280000D02*
D03*
X932001Y272000D02*
D03*
X928001Y264000D02*
D03*
X920001Y280000D02*
D03*
X924001Y272000D02*
D03*
X920001Y264000D02*
D03*
X912001Y280000D02*
D03*
X916001Y272000D02*
D03*
X912001Y264000D02*
D03*
X904001Y296000D02*
D03*
Y280000D02*
D03*
X908001Y272000D02*
D03*
X904001Y264000D02*
D03*
X900001Y304000D02*
D03*
X896001Y296000D02*
D03*
X900001Y288000D02*
D03*
X892001Y304000D02*
D03*
X888001Y296000D02*
D03*
X892001Y288000D02*
D03*
X884001Y304000D02*
D03*
X880001Y296000D02*
D03*
X884001Y288000D02*
D03*
X876001Y304000D02*
D03*
X872001Y296000D02*
D03*
X876001Y288000D02*
D03*
X872001Y280000D02*
D03*
Y264000D02*
D03*
X868001Y304000D02*
D03*
X864001Y296000D02*
D03*
X868001Y288000D02*
D03*
X864001Y280000D02*
D03*
X868001Y272000D02*
D03*
X864001Y264000D02*
D03*
X944001Y408000D02*
D03*
Y392001D02*
D03*
Y376000D02*
D03*
X940001Y400000D02*
D03*
X936001Y392001D02*
D03*
X940001Y384001D02*
D03*
X936001Y376000D02*
D03*
X928001Y392001D02*
D03*
X932001Y384001D02*
D03*
X928001Y376000D02*
D03*
X920001Y392001D02*
D03*
X924001Y384001D02*
D03*
X920001Y376000D02*
D03*
X912001Y392001D02*
D03*
X916001Y384001D02*
D03*
X912001Y376000D02*
D03*
X904001Y408000D02*
D03*
Y392001D02*
D03*
X908001Y384001D02*
D03*
X904001Y376000D02*
D03*
X896001Y408000D02*
D03*
X900001Y400000D02*
D03*
X888001Y408000D02*
D03*
X892001Y400000D02*
D03*
X880001Y408000D02*
D03*
X884001Y400000D02*
D03*
X872001Y408000D02*
D03*
X876001Y400000D02*
D03*
X872001Y392001D02*
D03*
Y376000D02*
D03*
X864001Y408000D02*
D03*
X868001Y400000D02*
D03*
X864001Y392001D02*
D03*
X868001Y384001D02*
D03*
X864001Y376000D02*
D03*
X944001Y520001D02*
D03*
Y504001D02*
D03*
Y488001D02*
D03*
X940001Y512001D02*
D03*
X936001Y504001D02*
D03*
X940001Y496001D02*
D03*
X936001Y488001D02*
D03*
X928001Y504001D02*
D03*
X932001Y496001D02*
D03*
X928001Y488001D02*
D03*
X920001Y504001D02*
D03*
X924001Y496001D02*
D03*
X920001Y488001D02*
D03*
X912001Y504001D02*
D03*
X916001Y496001D02*
D03*
X912001Y488001D02*
D03*
X904001Y520001D02*
D03*
Y504001D02*
D03*
X908001Y496001D02*
D03*
X904001Y488001D02*
D03*
X896001Y520001D02*
D03*
X900001Y512001D02*
D03*
X888001Y520001D02*
D03*
X892001Y512001D02*
D03*
X880001Y520001D02*
D03*
X884001Y512001D02*
D03*
X872001Y520001D02*
D03*
X876001Y512001D02*
D03*
X872001Y504001D02*
D03*
Y488001D02*
D03*
X864001Y520001D02*
D03*
X868001Y512001D02*
D03*
X864001Y504001D02*
D03*
X868001Y496001D02*
D03*
X864001Y488001D02*
D03*
Y80000D02*
D03*
X868001Y72000D02*
D03*
X864001Y64000D02*
D03*
X868001Y56000D02*
D03*
X864001Y48000D02*
D03*
X868001Y40000D02*
D03*
X864001Y32000D02*
D03*
X868001Y24000D02*
D03*
X864001Y16000D02*
D03*
X856001Y80000D02*
D03*
X860001Y72000D02*
D03*
X856001Y64000D02*
D03*
X860001Y56000D02*
D03*
X856001Y48000D02*
D03*
X860001Y40000D02*
D03*
X856001Y32000D02*
D03*
X860001Y24000D02*
D03*
X856001Y16000D02*
D03*
X848001Y80000D02*
D03*
X852001Y72000D02*
D03*
X848001Y64000D02*
D03*
X852001Y56000D02*
D03*
Y24000D02*
D03*
X848001Y16000D02*
D03*
X840001Y80000D02*
D03*
X844001Y72000D02*
D03*
X840001Y64000D02*
D03*
X844001Y56000D02*
D03*
Y24000D02*
D03*
X840001Y16000D02*
D03*
X832001Y80000D02*
D03*
X836001Y72000D02*
D03*
X832001Y64000D02*
D03*
X836001Y56000D02*
D03*
Y24000D02*
D03*
X832001Y16000D02*
D03*
X824001Y80000D02*
D03*
X828001Y72000D02*
D03*
X824001Y64000D02*
D03*
X828001Y56000D02*
D03*
X824001Y48000D02*
D03*
Y32000D02*
D03*
X828001Y24000D02*
D03*
X824001Y16000D02*
D03*
X808001Y80000D02*
D03*
Y64000D02*
D03*
Y48000D02*
D03*
Y32000D02*
D03*
Y16000D02*
D03*
X800001Y80000D02*
D03*
X804001Y72000D02*
D03*
X800001Y64000D02*
D03*
X804001Y56000D02*
D03*
Y40000D02*
D03*
X800001Y32000D02*
D03*
X804001Y24000D02*
D03*
X800001Y16000D02*
D03*
X792001Y80000D02*
D03*
X796001Y72000D02*
D03*
X792001Y64000D02*
D03*
X796001Y56000D02*
D03*
Y24000D02*
D03*
X792001Y16000D02*
D03*
X784001Y80000D02*
D03*
X788001Y72000D02*
D03*
X784001Y64000D02*
D03*
X788001Y24000D02*
D03*
X784001Y16000D02*
D03*
X776001Y80000D02*
D03*
X780001Y72000D02*
D03*
X776001Y64000D02*
D03*
X780001Y56000D02*
D03*
X776001Y48000D02*
D03*
Y32000D02*
D03*
X780001Y24000D02*
D03*
X776001Y16000D02*
D03*
X768001Y80000D02*
D03*
X772001Y72000D02*
D03*
X768001Y64000D02*
D03*
X772001Y56000D02*
D03*
X768001Y48000D02*
D03*
X772001Y40000D02*
D03*
X768001Y32000D02*
D03*
X772001Y24000D02*
D03*
X768001Y16000D02*
D03*
X764001Y72000D02*
D03*
Y56000D02*
D03*
Y40000D02*
D03*
Y24000D02*
D03*
X240000Y462500D02*
D03*
X270000Y485000D02*
D03*
X285000D02*
D03*
X297500D02*
D03*
X312500D02*
D03*
X352500Y605000D02*
D03*
X362500D02*
D03*
X257500Y484999D02*
D03*
X257500Y495000D02*
D03*
X240000Y472499D02*
D03*
X247500Y620000D02*
D03*
X260000Y777500D02*
D03*
X785000Y177500D02*
D03*
X840000D02*
D03*
X265000Y455000D02*
D03*
X460000Y680000D02*
D03*
Y567500D02*
D03*
Y617500D02*
D03*
Y730000D02*
D03*
X345500Y567000D02*
D03*
X322500Y572500D02*
D03*
Y585000D02*
D03*
M02*
