G04*
G04 #@! TF.GenerationSoftware,Altium Limited,Altium Designer,19.1.5 (86)*
G04*
G04 Layer_Color=16711935*
%FSLAX44Y44*%
%MOMM*%
G71*
G01*
G75*
%ADD58C,0.1000*%
D58*
X390000Y535000D02*
Y540000D01*
X380000D02*
X390000D01*
X380000Y535000D02*
Y540000D01*
Y535000D02*
X390000D01*
X560000Y417000D02*
Y427000D01*
X555000Y417000D02*
X560000D01*
X555000D02*
Y427000D01*
X560000D01*
X600000Y470000D02*
Y480000D01*
X605000D01*
Y470000D02*
Y480000D01*
X600000Y470000D02*
X605000D01*
X560000Y452500D02*
Y462500D01*
X555000Y452500D02*
X560000D01*
X555000D02*
Y462500D01*
X560000D01*
Y477500D02*
Y487500D01*
X555000Y477500D02*
X560000D01*
X555000D02*
Y487500D01*
X560000D01*
X600000Y455000D02*
Y465000D01*
X605000D01*
Y455000D02*
Y465000D01*
X600000Y455000D02*
X605000D01*
X600000Y410000D02*
Y420000D01*
X605000D01*
Y410000D02*
Y420000D01*
X600000Y410000D02*
X605000D01*
X600000Y395000D02*
Y405000D01*
X605000D01*
Y395000D02*
Y405000D01*
X600000Y395000D02*
X605000D01*
X560000Y392500D02*
Y402500D01*
X555000Y392500D02*
X560000D01*
X555000D02*
Y402500D01*
X560000D01*
X352500Y477500D02*
Y487500D01*
X357500D01*
Y477500D02*
Y487500D01*
X352500Y477500D02*
X357500D01*
X340000D02*
Y487500D01*
X345000D01*
Y477500D02*
Y487500D01*
X340000Y477500D02*
X345000D01*
X332500D02*
Y487500D01*
X327500Y477500D02*
X332500D01*
X327500D02*
Y487500D01*
X332500D01*
X272500Y512500D02*
Y522500D01*
X267500Y512500D02*
X272500D01*
X267500D02*
Y522500D01*
X272500D01*
X295000Y517500D02*
Y527500D01*
X300000D01*
Y517500D02*
Y527500D01*
X295000Y517500D02*
X300000D01*
X310000D02*
Y527500D01*
X315000D01*
Y517500D02*
Y527500D01*
X310000Y517500D02*
X315000D01*
X275000Y412500D02*
Y422500D01*
X280000D01*
Y412500D02*
Y422500D01*
X275000Y412500D02*
X280000D01*
X295000Y392500D02*
Y402500D01*
X300000D01*
Y392500D02*
Y402500D01*
X295000Y392500D02*
X300000D01*
X265000Y412500D02*
Y422500D01*
X260000Y412500D02*
X265000D01*
X260000D02*
Y422500D01*
X265000D01*
X352500Y610000D02*
Y615000D01*
Y610000D02*
X362500D01*
Y615000D01*
X352500D02*
X362500D01*
X247500Y485000D02*
X252500D01*
Y495000D01*
X247500D02*
X252500D01*
X247500Y485000D02*
Y495000D01*
X372500Y485000D02*
X377500D01*
Y495000D01*
X372500D02*
X377500D01*
X372500Y485000D02*
Y495000D01*
X785000Y167500D02*
X795000D01*
Y162500D02*
Y167500D01*
X785000Y162500D02*
X795000D01*
X785000D02*
Y167500D01*
X824000Y160250D02*
X841000D01*
X824000Y169750D02*
X841000D01*
Y160250D02*
Y169750D01*
X824000Y160250D02*
Y169750D01*
X491000Y675250D02*
Y684750D01*
X474000Y675250D02*
Y684750D01*
Y675250D02*
X491000D01*
X474000Y684750D02*
X491000D01*
X530000Y677500D02*
Y682500D01*
Y677500D02*
X540000D01*
Y682500D01*
X530000D02*
X540000D01*
X345000Y290000D02*
Y295000D01*
Y290000D02*
X355000D01*
Y295000D01*
X345000D02*
X355000D01*
X341500Y307750D02*
Y317250D01*
X358500Y307750D02*
Y317250D01*
X341500D02*
X358500D01*
X341500Y307750D02*
X358500D01*
X266000D02*
Y317250D01*
X283000Y307750D02*
Y317250D01*
X266000D02*
X283000D01*
X266000Y307750D02*
X283000D01*
X269500Y290000D02*
Y295000D01*
Y290000D02*
X279500D01*
Y295000D01*
X269500D02*
X279500D01*
X512100Y290000D02*
Y295000D01*
Y290000D02*
X522100D01*
Y295000D01*
X512100D02*
X522100D01*
X508600Y307750D02*
Y317250D01*
X525600Y307750D02*
Y317250D01*
X508600D02*
X525600D01*
X508600Y307750D02*
X525600D01*
X102500Y290000D02*
Y295000D01*
Y290000D02*
X112500D01*
Y295000D01*
X102500D02*
X112500D01*
X99000Y307750D02*
Y317250D01*
X116000Y307750D02*
Y317250D01*
X99000D02*
X116000D01*
X99000Y307750D02*
X116000D01*
X27500Y290000D02*
Y295000D01*
Y290000D02*
X37500D01*
Y295000D01*
X27500D02*
X37500D01*
X24000Y307750D02*
Y317250D01*
X41000Y307750D02*
Y317250D01*
X24000D02*
X41000D01*
X24000Y307750D02*
X41000D01*
X587100Y290000D02*
Y295000D01*
Y290000D02*
X597100D01*
Y295000D01*
X587100D02*
X597100D01*
X583600Y307750D02*
Y317250D01*
X600600Y307750D02*
Y317250D01*
X583600D02*
X600600D01*
X583600Y307750D02*
X600600D01*
X416500D02*
Y317250D01*
X433500Y307750D02*
Y317250D01*
X416500D02*
X433500D01*
X416500Y307750D02*
X433500D01*
X420000Y290000D02*
Y295000D01*
Y290000D02*
X430000D01*
Y295000D01*
X420000D02*
X430000D01*
X177500Y290000D02*
Y295000D01*
Y290000D02*
X187500D01*
Y295000D01*
X177500D02*
X187500D01*
X174000Y307750D02*
Y317250D01*
X191000Y307750D02*
Y317250D01*
X174000D02*
X191000D01*
X174000Y307750D02*
X191000D01*
X662100Y290000D02*
Y295000D01*
Y290000D02*
X672100D01*
Y295000D01*
X662100D02*
X672100D01*
X658600Y307750D02*
Y317250D01*
X675600Y307750D02*
Y317250D01*
X658600D02*
X675600D01*
X658600Y307750D02*
X675600D01*
X341500Y375250D02*
Y384750D01*
X358500Y375250D02*
Y384750D01*
X341500D02*
X358500D01*
X341500Y375250D02*
X358500D01*
X345000Y357500D02*
Y362500D01*
Y357500D02*
X355000D01*
Y362500D01*
X345000D02*
X355000D01*
X491000Y725250D02*
Y734750D01*
X474000Y725250D02*
Y734750D01*
Y725250D02*
X491000D01*
X474000Y734750D02*
X491000D01*
X530000Y727500D02*
Y732500D01*
Y727500D02*
X540000D01*
Y732500D01*
X530000D02*
X540000D01*
X530000Y565000D02*
Y570000D01*
Y565000D02*
X540000D01*
Y570000D01*
X530000D02*
X540000D01*
X491000Y562750D02*
Y572250D01*
X474000Y562750D02*
Y572250D01*
Y562750D02*
X491000D01*
X474000Y572250D02*
X491000D01*
X795000Y742500D02*
Y747500D01*
X785000D02*
X795000D01*
X785000Y742500D02*
Y747500D01*
Y742500D02*
X795000D01*
X824000Y740250D02*
Y749750D01*
X841000Y740250D02*
Y749750D01*
X824000D02*
X841000D01*
X824000Y740250D02*
X841000D01*
X307500Y610000D02*
X317500D01*
X307500D02*
Y615000D01*
X317500D01*
Y610000D02*
Y615000D01*
X375000Y447500D02*
X380000D01*
X375000Y437500D02*
Y447500D01*
Y437500D02*
X380000D01*
Y447500D01*
X245000Y452500D02*
X250000D01*
X245000Y442500D02*
Y452500D01*
Y442500D02*
X250000D01*
Y452500D01*
X530000Y520000D02*
X540000D01*
Y515000D02*
Y520000D01*
X530000Y515000D02*
X540000D01*
X530000D02*
Y520000D01*
Y620000D02*
X540000D01*
Y615000D02*
Y620000D01*
X530000Y615000D02*
X540000D01*
X530000D02*
Y620000D01*
X474000Y522250D02*
X491000D01*
X474000Y512750D02*
X491000D01*
X474000D02*
Y522250D01*
X491000Y512750D02*
Y522250D01*
X474000Y622250D02*
X491000D01*
X474000Y612750D02*
X491000D01*
X474000D02*
Y622250D01*
X491000Y612750D02*
Y622250D01*
M02*
