G04*
G04 #@! TF.GenerationSoftware,Altium Limited,Altium Designer,18.1.9 (240)*
G04*
G04 Layer_Color=32768*
%FSLAX44Y44*%
%MOMM*%
G71*
G01*
G75*
%ADD10C,0.2000*%
%ADD20C,0.1520*%
%ADD65C,0.0500*%
%ADD66C,0.1000*%
D10*
X155000Y178900D02*
X165000D01*
X155000D02*
X160000D01*
Y183900D01*
Y173900D02*
Y183900D01*
D20*
X0Y0D02*
Y261586D01*
Y0D02*
X600202D01*
Y350012D01*
X129000D02*
X600202D01*
X126828Y350000D02*
X129000Y350012D01*
X126156Y350000D02*
X126828Y350000D01*
X124837Y349738D02*
X126156Y350000D01*
X123594Y349223D02*
X124837Y349738D01*
X122476Y348475D02*
X123594Y349223D01*
X122000Y348000D02*
X122476Y348475D01*
X121524Y347524D02*
X122000Y348000D01*
X120777Y346406D02*
X121524Y347524D01*
X120262Y345163D02*
X120777Y346406D01*
X120000Y343844D02*
X120262Y345163D01*
X120000Y343172D02*
Y343844D01*
X120000Y274828D02*
X120000Y343172D01*
X120000Y274828D02*
X120053Y273918D01*
X119892Y272102D02*
X120053Y273918D01*
X119380Y270353D02*
X119892Y272102D01*
X118536Y268738D02*
X119380Y270353D01*
X118000Y268000D02*
X118536Y268738D01*
X117184Y267300D02*
X118000Y268000D01*
X115368Y266155D02*
X117184Y267300D01*
X113363Y265387D02*
X115368Y266155D01*
X111246Y265024D02*
X113363Y265387D01*
X110172Y265000D02*
X111246Y265024D01*
X3414Y265000D02*
X110172D01*
X3078Y265000D02*
X3414Y265000D01*
X2418Y264869D02*
X3078Y265000D01*
X1797Y264611D02*
X2418Y264869D01*
X1238Y264238D02*
X1797Y264611D01*
X1000Y264000D02*
X1238Y264238D01*
X762Y263762D02*
X1000Y264000D01*
X389Y263203D02*
X762Y263762D01*
X131Y262582D02*
X389Y263203D01*
X0Y261922D02*
X131Y262582D01*
X0Y261586D02*
Y261922D01*
D65*
X585000Y218315D02*
X587000D01*
X586000Y217315D02*
Y219315D01*
X584000Y186000D02*
X586000D01*
X585000Y185000D02*
Y187000D01*
X200402Y53000D02*
X202402D01*
X201402Y52000D02*
Y54000D01*
X349188Y247666D02*
Y249666D01*
X348188Y248666D02*
X350188D01*
X349188Y235474D02*
Y237474D01*
X348188Y236474D02*
X350188D01*
X129000Y202000D02*
Y204000D01*
X128000Y203000D02*
X130000D01*
X129000Y191786D02*
Y193786D01*
X128000Y192786D02*
X130000D01*
X99000Y42000D02*
X101000D01*
X100000Y41000D02*
Y43000D01*
X89218Y42000D02*
X91218D01*
X90218Y41000D02*
Y43000D01*
X477371Y268240D02*
Y270240D01*
X476371Y269240D02*
X478372D01*
X446278Y255032D02*
Y257032D01*
X445278Y256032D02*
X447278D01*
X446147Y268494D02*
Y270494D01*
X445146Y269494D02*
X447146D01*
X477564Y255030D02*
Y257030D01*
X476563Y256030D02*
X478563D01*
X328692Y64008D02*
X330692D01*
X329692Y63008D02*
Y65008D01*
X119396Y80867D02*
X121396D01*
X120396Y79867D02*
Y81867D01*
X20481Y127000D02*
X22481D01*
X21481Y126000D02*
Y128000D01*
X20299Y188468D02*
X22299D01*
X21299Y187468D02*
Y189468D01*
X18595Y247274D02*
X20595D01*
X19595Y246274D02*
Y248274D01*
X579822Y259842D02*
X581822D01*
X580822Y258842D02*
Y260842D01*
X579822Y227025D02*
X581822D01*
X580822Y226025D02*
Y228025D01*
X579822Y243434D02*
X581822D01*
X580822Y242434D02*
Y244434D01*
X579000Y89424D02*
Y91424D01*
X578000Y90424D02*
X580000D01*
X579000Y125238D02*
Y127238D01*
X578000Y126238D02*
X580000D01*
X579000Y107204D02*
Y109204D01*
X578000Y108204D02*
X580000D01*
X154496Y218190D02*
X156496D01*
X155496Y217190D02*
Y219190D01*
X166132Y265430D02*
X168132D01*
X167132Y264430D02*
Y266430D01*
X247666Y258826D02*
X249666D01*
X248666Y257826D02*
Y259826D01*
X247666Y251206D02*
X249666D01*
X248666Y250206D02*
Y252206D01*
X247666Y243586D02*
X249666D01*
X248666Y242586D02*
Y244586D01*
X247666Y230378D02*
X249666D01*
X248666Y229378D02*
Y231378D01*
X247666Y221996D02*
X249666D01*
X248666Y220996D02*
Y222996D01*
X322546Y53048D02*
Y80048D01*
X286546Y53048D02*
Y80048D01*
Y53048D02*
X322546D01*
X286546Y80048D02*
X322546D01*
X424042Y222190D02*
Y278190D01*
X502042Y222190D02*
Y278190D01*
X424042D02*
X502042D01*
X424042Y222190D02*
X502042D01*
D66*
X583000Y170000D02*
X587000D01*
X585000Y168000D02*
Y172000D01*
X163250Y53000D02*
X167250D01*
X165250Y51000D02*
Y55000D01*
X264000Y237000D02*
X268000D01*
X266000Y235000D02*
Y239000D01*
X503460Y234000D02*
X507460D01*
X505460Y232000D02*
Y236000D01*
X304800Y85884D02*
Y89884D01*
X302800Y87884D02*
X306800D01*
X19104Y99426D02*
X23104D01*
X21104Y97426D02*
Y101426D01*
X19104Y158882D02*
X23104D01*
X21104Y156882D02*
Y160882D01*
X17396Y219080D02*
X21396D01*
X19396Y217080D02*
Y221080D01*
X397542Y65770D02*
X401542D01*
X399542Y63770D02*
Y67770D01*
X406686Y65770D02*
X410686D01*
X408686Y63770D02*
Y67770D01*
X555750Y104216D02*
Y113716D01*
X551000Y108966D02*
X560500D01*
X543750Y114466D02*
X567750D01*
X543750Y103466D02*
X567750D01*
X543750D02*
Y114466D01*
X567750Y103466D02*
Y114466D01*
X555750Y121488D02*
Y130988D01*
X551000Y126238D02*
X560500D01*
X543750Y131738D02*
X567750D01*
X543750Y120738D02*
X567750D01*
X543750D02*
Y131738D01*
X567750Y120738D02*
Y131738D01*
X555750Y86436D02*
Y95936D01*
X551000Y91186D02*
X560500D01*
X543750Y96686D02*
X567750D01*
X543750Y85686D02*
X567750D01*
X543750D02*
Y96686D01*
X567750Y85686D02*
Y96686D01*
X567752Y221022D02*
Y232022D01*
X543752Y221022D02*
Y232022D01*
Y221022D02*
X567752D01*
X543752Y232022D02*
X567752D01*
X551002Y226522D02*
X560502D01*
X555752Y221772D02*
Y231272D01*
X567752Y255028D02*
Y266028D01*
X543752Y255028D02*
Y266028D01*
Y255028D02*
X567752D01*
X543752Y266028D02*
X567752D01*
X551002Y260528D02*
X560502D01*
X555752Y255778D02*
Y265278D01*
X567752Y238025D02*
Y249025D01*
X543752Y238025D02*
Y249025D01*
Y238025D02*
X567752D01*
X543752Y249025D02*
X567752D01*
X551002Y243525D02*
X560502D01*
X555752Y238775D02*
Y248275D01*
X484632Y141764D02*
Y145764D01*
X482632Y143764D02*
X486632D01*
X477520Y125000D02*
Y129000D01*
X475520Y127000D02*
X479520D01*
X487557Y124460D02*
X491557D01*
X489557Y122460D02*
Y126460D01*
X149352Y234982D02*
Y238982D01*
X147352Y236982D02*
X151352D01*
X131906D02*
X141906D01*
X136906Y231982D02*
Y241982D01*
X327000Y143256D02*
X337000D01*
X332000Y138256D02*
Y148256D01*
X344678Y142643D02*
Y146643D01*
X342678Y144643D02*
X346678D01*
X299546Y66548D02*
X309546D01*
X304546Y61548D02*
Y71548D01*
X458042Y250190D02*
X468042D01*
X463042Y245190D02*
Y255190D01*
M02*
