G04*
G04 #@! TF.GenerationSoftware,Altium Limited,Altium Designer,19.1.5 (86)*
G04*
G04 Layer_Physical_Order=3*
G04 Layer_Color=36540*
%FSLAX44Y44*%
%MOMM*%
G71*
G01*
G75*
%ADD10C,0.2000*%
%ADD17C,0.1000*%
%ADD63C,1.2700*%
%ADD64R,1.2700X1.2700*%
%ADD66C,1.5240*%
%ADD68C,0.6000*%
G36*
X1822450Y626489D02*
X1732280Y626490D01*
X1731114Y626006D01*
X1730630Y624840D01*
Y579120D01*
X1714500D01*
Y646430D01*
X1822450D01*
Y626489D01*
D02*
G37*
G36*
X1822450Y648080D02*
X1822450Y648080D01*
X1714500D01*
X1713334Y647596D01*
X1712850Y646430D01*
Y579120D01*
X1713334Y577954D01*
X1714500Y577470D01*
X1716917D01*
X1717815Y576870D01*
X1719580Y576519D01*
X1721345Y576870D01*
X1722243Y577470D01*
X1730630D01*
Y566321D01*
X1730815Y565876D01*
X1730909Y565404D01*
X1731178Y565001D01*
X1731401Y563880D01*
X1731178Y562758D01*
X1730908Y562356D01*
X1730815Y561884D01*
X1730630Y561439D01*
X1729901Y560841D01*
X1729740Y560873D01*
X1727975Y560522D01*
X1727867Y560450D01*
X1725263Y560450D01*
X1725155Y560522D01*
X1723390Y560873D01*
X1721625Y560522D01*
X1721517Y560450D01*
X1718272D01*
X1718116Y560385D01*
X1717950Y560418D01*
X1717414Y560311D01*
X1717379Y560288D01*
X1717338Y560294D01*
X1717035Y560070D01*
X1695450D01*
X1695450Y670560D01*
X1822450Y670560D01*
Y648080D01*
D02*
G37*
G36*
Y624840D02*
X1822450Y604900D01*
X1747520D01*
X1746604Y604520D01*
X1746250D01*
Y604166D01*
X1745870Y603250D01*
Y543940D01*
X1717040Y543940D01*
X1717040Y557537D01*
X1717736Y558693D01*
X1718272Y558800D01*
X1732280Y558800D01*
Y561439D01*
X1732731Y562115D01*
X1733083Y563880D01*
X1732731Y565645D01*
X1732280Y566321D01*
Y624840D01*
X1822450Y624840D01*
D02*
G37*
G36*
X1822450Y572788D02*
X1765300D01*
X1765210Y572770D01*
X1764030D01*
Y572535D01*
X1763349Y572400D01*
X1761695Y571295D01*
X1760590Y569641D01*
X1760202Y567690D01*
Y522100D01*
X1715770Y522100D01*
X1715770Y542290D01*
X1747520Y542290D01*
Y603250D01*
X1822450D01*
X1822450Y572788D01*
D02*
G37*
G36*
X1731900Y447040D02*
Y444401D01*
X1732085Y443956D01*
X1732178Y443484D01*
X1732448Y443082D01*
X1732671Y441960D01*
X1732448Y440838D01*
X1732178Y440435D01*
X1732085Y439964D01*
X1731900Y439519D01*
Y431800D01*
X1714500Y431800D01*
X1714500Y370840D01*
X1819910D01*
Y346710D01*
X1694180Y346710D01*
X1694180Y447040D01*
X1731900Y447040D01*
D02*
G37*
G36*
X1621790Y645160D02*
X1621790Y490121D01*
X1621339Y489445D01*
X1620987Y487680D01*
X1621339Y485915D01*
X1621790Y485239D01*
X1621790Y417830D01*
X1569720Y417830D01*
X1569720Y594360D01*
X1513741D01*
X1513065Y594812D01*
X1511300Y595163D01*
X1509535Y594812D01*
X1508859Y594360D01*
X1496341D01*
X1495535Y595342D01*
X1495593Y595630D01*
X1495242Y597395D01*
X1494242Y598892D01*
X1492745Y599892D01*
X1490980Y600243D01*
X1489215Y599892D01*
X1487718Y598892D01*
X1486718Y597395D01*
X1486367Y595630D01*
X1486425Y595342D01*
X1485619Y594360D01*
X1476353D01*
X1475674Y595630D01*
X1476192Y596405D01*
X1476543Y598170D01*
X1476192Y599935D01*
X1475192Y601432D01*
X1473695Y602431D01*
X1471930Y602783D01*
X1470165Y602431D01*
X1468668Y601432D01*
X1467668Y599935D01*
X1467317Y598170D01*
X1467668Y596405D01*
X1468186Y595630D01*
X1467507Y594360D01*
X1407061D01*
X1406385Y594812D01*
X1404620Y595163D01*
X1402855Y594812D01*
X1402179Y594360D01*
X1312460D01*
X1312361Y594855D01*
X1311362Y596352D01*
X1309865Y597351D01*
X1308100Y597703D01*
X1306335Y597351D01*
X1304838Y596352D01*
X1304571Y595952D01*
X1302857Y595672D01*
X1302245Y596082D01*
X1300480Y596433D01*
X1298715Y596082D01*
X1297218Y595082D01*
X1296736Y594360D01*
X1101090D01*
X1101090Y645160D01*
X1621790Y645160D01*
D02*
G37*
G36*
X1760202Y447040D02*
X1760590Y445089D01*
X1761695Y443435D01*
X1763349Y442330D01*
X1765300Y441942D01*
X1819493D01*
X1819493Y413130D01*
X1749170D01*
Y463550D01*
X1748686Y464716D01*
X1747520Y465200D01*
X1713029Y465200D01*
X1713029Y483870D01*
X1760202D01*
Y447040D01*
D02*
G37*
G36*
X1747520Y463550D02*
Y411480D01*
X1819910D01*
Y393700D01*
X1733550Y393700D01*
X1733550Y439519D01*
X1734001Y440195D01*
X1734353Y441960D01*
X1734001Y443725D01*
X1733550Y444401D01*
Y449580D01*
X1710690D01*
Y463550D01*
X1747520Y463550D01*
D02*
G37*
G36*
X1731900Y430150D02*
X1731900Y393700D01*
X1732384Y392533D01*
X1733550Y392050D01*
X1818640Y392050D01*
X1819910Y390780D01*
Y372490D01*
X1716150D01*
X1716150Y430150D01*
X1731900Y430150D01*
D02*
G37*
G36*
X1557020Y359410D02*
X1643099Y359410D01*
X1643905Y358428D01*
X1643847Y358140D01*
X1644198Y356375D01*
X1645198Y354878D01*
X1646695Y353879D01*
X1648460Y353527D01*
X1650225Y353879D01*
X1651722Y354878D01*
X1652722Y356375D01*
X1653073Y358140D01*
X1653015Y358428D01*
X1653821Y359410D01*
X1680677D01*
X1680677Y359410D01*
X1681028Y357645D01*
X1682028Y356148D01*
X1682750Y355666D01*
X1682750Y243840D01*
X1611705D01*
X1610910Y245110D01*
X1611163Y246380D01*
X1610811Y248145D01*
X1609812Y249642D01*
X1608315Y250641D01*
X1606550Y250993D01*
X1604785Y250641D01*
X1603586Y249841D01*
X1602740Y249720D01*
X1601894Y249841D01*
X1600695Y250641D01*
X1598930Y250993D01*
X1597165Y250641D01*
X1595668Y249642D01*
X1595249Y249014D01*
X1593721D01*
X1593302Y249642D01*
X1591805Y250641D01*
X1590040Y250993D01*
X1588275Y250641D01*
X1587156Y249894D01*
X1586098Y250714D01*
X1586366Y252063D01*
X1586015Y253828D01*
X1585015Y255325D01*
X1583518Y256325D01*
X1581753Y256676D01*
X1579988Y256325D01*
X1578492Y255325D01*
X1577492Y253828D01*
X1577141Y252063D01*
X1577492Y250298D01*
X1578492Y248802D01*
X1579988Y247802D01*
X1581753Y247451D01*
X1583518Y247802D01*
X1584637Y248549D01*
X1585696Y247729D01*
X1585427Y246380D01*
X1585680Y245110D01*
X1584885Y243840D01*
X1520265D01*
X1519470Y245110D01*
X1519723Y246380D01*
X1519371Y248145D01*
X1518372Y249642D01*
X1516875Y250641D01*
X1515110Y250993D01*
X1513345Y250641D01*
X1511848Y249642D01*
X1511429Y249014D01*
X1509901D01*
X1509482Y249642D01*
X1507985Y250641D01*
X1506220Y250993D01*
X1504455Y250641D01*
X1503256Y249841D01*
X1502410Y249720D01*
X1501564Y249841D01*
X1500365Y250641D01*
X1498600Y250993D01*
X1498042Y250882D01*
X1496863Y251460D01*
X1496512Y253225D01*
X1495512Y254722D01*
X1494015Y255721D01*
X1492250Y256073D01*
X1490485Y255721D01*
X1488988Y254722D01*
X1487988Y253225D01*
X1487637Y251460D01*
X1487988Y249695D01*
X1488988Y248198D01*
X1490485Y247199D01*
X1492250Y246847D01*
X1492807Y246958D01*
X1493987Y246380D01*
X1494240Y245110D01*
X1493445Y243840D01*
X1431365D01*
X1430570Y245110D01*
X1430823Y246380D01*
X1430471Y248145D01*
X1429472Y249642D01*
X1427975Y250641D01*
X1426210Y250993D01*
X1424445Y250641D01*
X1423246Y249841D01*
X1422400Y249720D01*
X1421554Y249841D01*
X1420355Y250641D01*
X1418590Y250993D01*
X1416825Y250641D01*
X1415626Y249841D01*
X1414780Y249720D01*
X1413934Y249841D01*
X1412735Y250641D01*
X1410970Y250993D01*
X1409205Y250641D01*
X1407708Y249642D01*
X1406709Y248145D01*
X1406357Y246380D01*
X1406610Y245110D01*
X1405815Y243840D01*
X1342465D01*
X1341670Y245110D01*
X1341923Y246380D01*
X1341572Y248145D01*
X1340572Y249642D01*
X1339075Y250641D01*
X1337310Y250993D01*
X1335545Y250641D01*
X1334048Y249642D01*
X1333049Y248145D01*
X1332877Y247285D01*
X1331583D01*
X1331411Y248145D01*
X1330412Y249642D01*
X1328915Y250641D01*
X1327150Y250993D01*
X1325385Y250641D01*
X1323888Y249642D01*
X1323469Y249014D01*
X1321941D01*
X1321522Y249642D01*
X1320025Y250641D01*
X1318260Y250993D01*
X1317070Y250756D01*
X1316673Y251083D01*
X1316133Y251811D01*
X1316436Y253333D01*
X1316085Y255098D01*
X1315085Y256595D01*
X1313588Y257595D01*
X1311823Y257946D01*
X1310058Y257595D01*
X1308562Y256595D01*
X1307562Y255098D01*
X1307211Y253333D01*
X1307562Y251568D01*
X1308562Y250072D01*
X1310058Y249072D01*
X1311823Y248721D01*
X1313014Y248957D01*
X1313410Y248631D01*
X1313950Y247902D01*
X1313647Y246380D01*
X1313900Y245110D01*
X1313105Y243840D01*
X1286585D01*
X1285790Y245110D01*
X1286043Y246380D01*
X1285692Y248145D01*
X1284692Y249642D01*
X1283195Y250641D01*
X1281430Y250993D01*
X1279665Y250641D01*
X1278168Y249642D01*
X1277169Y248145D01*
X1276817Y246380D01*
X1277070Y245110D01*
X1276275Y243840D01*
X1205230D01*
Y276860D01*
X1238671D01*
X1239054Y276625D01*
X1243638Y274726D01*
X1248463Y273568D01*
X1253410Y273179D01*
X1258357Y273568D01*
X1263182Y274726D01*
X1267766Y276625D01*
X1271997Y279218D01*
X1275770Y282440D01*
X1278992Y286213D01*
X1281585Y290444D01*
X1283484Y295028D01*
X1284642Y299853D01*
X1285031Y304800D01*
X1284642Y309747D01*
X1283484Y314572D01*
X1281585Y319156D01*
X1278992Y323387D01*
X1275770Y327160D01*
X1271997Y330382D01*
X1267766Y332975D01*
X1267460Y333102D01*
Y346710D01*
X1524000Y346710D01*
X1524000Y397510D01*
X1557020D01*
X1557020Y359410D01*
D02*
G37*
%LPC*%
G36*
X1454150Y623103D02*
X1452385Y622752D01*
X1450888Y621752D01*
X1449888Y620255D01*
X1449537Y618490D01*
X1449888Y616725D01*
X1450888Y615228D01*
X1452385Y614229D01*
X1454150Y613877D01*
X1455915Y614229D01*
X1457412Y615228D01*
X1458412Y616725D01*
X1458763Y618490D01*
X1458412Y620255D01*
X1457412Y621752D01*
X1455915Y622752D01*
X1454150Y623103D01*
D02*
G37*
G36*
X1374140Y614213D02*
X1372375Y613862D01*
X1370878Y612862D01*
X1369879Y611365D01*
X1369527Y609600D01*
X1369879Y607835D01*
X1370878Y606338D01*
X1372375Y605339D01*
X1374140Y604987D01*
X1375905Y605339D01*
X1377402Y606338D01*
X1378401Y607835D01*
X1378753Y609600D01*
X1378401Y611365D01*
X1377402Y612862D01*
X1375905Y613862D01*
X1374140Y614213D01*
D02*
G37*
G36*
X1322070Y611673D02*
X1320305Y611321D01*
X1318808Y610322D01*
X1317809Y608825D01*
X1317457Y607060D01*
X1317809Y605295D01*
X1318808Y603798D01*
X1320305Y602799D01*
X1322070Y602447D01*
X1323835Y602799D01*
X1325332Y603798D01*
X1326331Y605295D01*
X1326683Y607060D01*
X1326331Y608825D01*
X1325332Y610322D01*
X1323835Y611321D01*
X1322070Y611673D01*
D02*
G37*
G36*
X1314070Y319573D02*
X1312305Y319221D01*
X1310808Y318222D01*
X1309809Y316725D01*
X1309637Y315865D01*
X1308343D01*
X1308172Y316725D01*
X1307172Y318222D01*
X1305675Y319221D01*
X1303910Y319573D01*
X1302145Y319221D01*
X1300648Y318222D01*
X1299648Y316725D01*
X1299297Y314960D01*
X1299648Y313195D01*
X1300648Y311698D01*
X1302145Y310699D01*
X1303910Y310347D01*
X1305675Y310699D01*
X1307172Y311698D01*
X1308172Y313195D01*
X1308343Y314055D01*
X1309637D01*
X1309809Y313195D01*
X1310808Y311698D01*
X1311436Y311279D01*
Y309751D01*
X1310808Y309332D01*
X1309809Y307835D01*
X1309457Y306070D01*
X1309809Y304305D01*
X1310808Y302808D01*
X1311281Y302492D01*
Y300965D01*
X1310498Y300442D01*
X1309498Y298945D01*
X1309147Y297180D01*
X1309498Y295415D01*
X1310498Y293918D01*
X1311995Y292918D01*
X1313760Y292567D01*
X1315525Y292918D01*
X1317022Y293918D01*
X1318022Y295415D01*
X1318373Y297180D01*
X1318022Y298945D01*
X1317022Y300442D01*
X1316548Y300758D01*
Y302285D01*
X1317332Y302808D01*
X1318331Y304305D01*
X1318683Y306070D01*
X1318331Y307835D01*
X1317332Y309332D01*
X1316704Y309751D01*
Y311279D01*
X1317332Y311698D01*
X1318331Y313195D01*
X1318683Y314960D01*
X1318331Y316725D01*
X1317332Y318222D01*
X1315835Y319221D01*
X1314070Y319573D01*
D02*
G37*
G36*
X1584000Y318303D02*
X1582235Y317952D01*
X1580738Y316952D01*
X1579738Y315455D01*
X1579568Y314595D01*
X1578273D01*
X1578102Y315455D01*
X1577102Y316952D01*
X1575605Y317952D01*
X1573840Y318303D01*
X1572075Y317952D01*
X1570578Y316952D01*
X1569579Y315455D01*
X1569227Y313690D01*
X1569579Y311925D01*
X1570578Y310428D01*
X1572075Y309429D01*
X1573840Y309077D01*
X1575605Y309429D01*
X1577102Y310428D01*
X1578102Y311925D01*
X1578273Y312785D01*
X1579568D01*
X1579738Y311925D01*
X1580738Y310428D01*
X1581366Y310009D01*
Y308481D01*
X1580738Y308062D01*
X1579738Y306565D01*
X1579387Y304800D01*
X1579738Y303035D01*
X1580738Y301538D01*
X1581212Y301222D01*
Y299695D01*
X1580428Y299172D01*
X1579429Y297675D01*
X1579077Y295910D01*
X1579429Y294145D01*
X1580428Y292648D01*
X1581925Y291649D01*
X1583690Y291297D01*
X1585455Y291649D01*
X1586952Y292648D01*
X1587952Y294145D01*
X1588303Y295910D01*
X1587952Y297675D01*
X1586952Y299172D01*
X1586478Y299488D01*
Y301015D01*
X1587262Y301538D01*
X1588262Y303035D01*
X1588613Y304800D01*
X1588262Y306565D01*
X1587262Y308062D01*
X1586634Y308481D01*
Y310009D01*
X1587262Y310428D01*
X1588262Y311925D01*
X1588613Y313690D01*
X1588262Y315455D01*
X1587262Y316952D01*
X1585765Y317952D01*
X1584000Y318303D01*
D02*
G37*
G36*
X1404350D02*
X1402585Y317952D01*
X1401088Y316952D01*
X1400089Y315455D01*
X1399917Y314595D01*
X1398623D01*
X1398452Y315455D01*
X1397452Y316952D01*
X1395955Y317952D01*
X1394190Y318303D01*
X1392425Y317952D01*
X1390928Y316952D01*
X1389928Y315455D01*
X1389577Y313690D01*
X1389928Y311925D01*
X1390928Y310428D01*
X1392425Y309429D01*
X1394190Y309077D01*
X1395955Y309429D01*
X1397452Y310428D01*
X1398452Y311925D01*
X1398623Y312785D01*
X1399917D01*
X1400089Y311925D01*
X1401088Y310428D01*
X1401716Y310009D01*
Y308481D01*
X1401088Y308062D01*
X1400089Y306565D01*
X1399737Y304800D01*
X1400089Y303035D01*
X1401088Y301538D01*
X1401561Y301222D01*
Y299695D01*
X1400778Y299172D01*
X1399778Y297675D01*
X1399427Y295910D01*
X1399778Y294145D01*
X1400778Y292648D01*
X1402275Y291649D01*
X1404040Y291297D01*
X1405805Y291649D01*
X1407302Y292648D01*
X1408302Y294145D01*
X1408653Y295910D01*
X1408302Y297675D01*
X1407302Y299172D01*
X1406828Y299488D01*
Y301015D01*
X1407612Y301538D01*
X1408611Y303035D01*
X1408963Y304800D01*
X1408611Y306565D01*
X1407612Y308062D01*
X1406983Y308481D01*
Y310009D01*
X1407612Y310428D01*
X1408611Y311925D01*
X1408963Y313690D01*
X1408611Y315455D01*
X1407612Y316952D01*
X1406115Y317952D01*
X1404350Y318303D01*
D02*
G37*
G36*
X1482090D02*
X1480325Y317952D01*
X1478828Y316952D01*
X1477829Y315455D01*
X1477477Y313690D01*
X1477829Y311925D01*
X1478828Y310428D01*
X1480325Y309429D01*
X1482090Y309077D01*
X1483855Y309429D01*
X1485352Y310428D01*
X1486351Y311925D01*
X1486703Y313690D01*
X1486351Y315455D01*
X1485352Y316952D01*
X1483855Y317952D01*
X1482090Y318303D01*
D02*
G37*
G36*
X1492560D02*
X1490795Y317952D01*
X1489298Y316952D01*
X1488298Y315455D01*
X1487947Y313690D01*
X1488298Y311925D01*
X1489298Y310428D01*
X1489926Y310009D01*
Y308481D01*
X1489298Y308062D01*
X1488298Y306565D01*
X1487947Y304800D01*
X1488298Y303035D01*
X1489298Y301538D01*
X1489772Y301222D01*
Y299695D01*
X1488988Y299172D01*
X1487988Y297675D01*
X1487637Y295910D01*
X1487988Y294145D01*
X1488988Y292648D01*
X1490485Y291649D01*
X1492250Y291297D01*
X1494015Y291649D01*
X1495512Y292648D01*
X1496512Y294145D01*
X1496863Y295910D01*
X1496512Y297675D01*
X1495512Y299172D01*
X1495038Y299488D01*
Y301015D01*
X1495822Y301538D01*
X1496821Y303035D01*
X1497173Y304800D01*
X1496821Y306565D01*
X1495822Y308062D01*
X1495194Y308481D01*
Y310009D01*
X1495822Y310428D01*
X1496821Y311925D01*
X1497173Y313690D01*
X1496821Y315455D01*
X1495822Y316952D01*
X1494325Y317952D01*
X1492560Y318303D01*
D02*
G37*
G36*
X1314720Y290363D02*
X1312955Y290012D01*
X1311458Y289012D01*
X1310459Y287515D01*
X1310107Y285750D01*
X1310459Y283985D01*
X1311458Y282488D01*
X1312955Y281488D01*
X1314720Y281137D01*
X1316485Y281488D01*
X1317691Y280767D01*
X1317809Y280175D01*
X1318808Y278678D01*
X1320305Y277679D01*
X1322070Y277327D01*
X1323835Y277679D01*
X1325332Y278678D01*
X1325901Y279530D01*
X1327399D01*
X1327968Y278678D01*
X1329465Y277679D01*
X1331230Y277327D01*
X1332995Y277679D01*
X1334492Y278678D01*
X1335491Y280175D01*
X1335843Y281940D01*
X1335491Y283705D01*
X1334492Y285202D01*
X1332995Y286201D01*
X1331230Y286553D01*
X1329465Y286201D01*
X1327968Y285202D01*
X1327399Y284350D01*
X1325901D01*
X1325332Y285202D01*
X1323835Y286201D01*
X1322070Y286553D01*
X1320305Y286201D01*
X1319099Y286923D01*
X1318981Y287515D01*
X1317982Y289012D01*
X1316485Y290012D01*
X1314720Y290363D01*
D02*
G37*
G36*
X1584650Y289093D02*
X1582885Y288741D01*
X1581388Y287742D01*
X1580388Y286245D01*
X1580037Y284480D01*
X1580388Y282715D01*
X1581388Y281218D01*
X1582885Y280219D01*
X1584650Y279867D01*
X1586415Y280219D01*
X1586448Y280240D01*
X1587859Y279656D01*
X1588009Y278905D01*
X1589008Y277408D01*
X1590505Y276409D01*
X1592270Y276057D01*
X1594035Y276409D01*
X1595532Y277408D01*
X1595951Y278036D01*
X1597479D01*
X1597898Y277408D01*
X1599395Y276409D01*
X1601160Y276057D01*
X1602925Y276409D01*
X1604422Y277408D01*
X1605421Y278905D01*
X1605773Y280670D01*
X1605421Y282435D01*
X1604422Y283932D01*
X1602925Y284932D01*
X1601160Y285283D01*
X1599395Y284932D01*
X1597898Y283932D01*
X1597479Y283304D01*
X1595951D01*
X1595532Y283932D01*
X1594035Y284932D01*
X1592270Y285283D01*
X1590505Y284932D01*
X1590472Y284910D01*
X1589061Y285494D01*
X1588911Y286245D01*
X1587912Y287742D01*
X1586415Y288741D01*
X1584650Y289093D01*
D02*
G37*
G36*
X1494790Y290363D02*
X1493025Y290012D01*
X1491528Y289012D01*
X1490529Y287515D01*
X1490177Y285750D01*
X1490529Y283985D01*
X1491528Y282488D01*
X1493025Y281488D01*
X1494790Y281137D01*
X1495347Y281248D01*
X1496527Y280670D01*
X1496879Y278905D01*
X1497878Y277408D01*
X1499375Y276409D01*
X1501140Y276057D01*
X1502905Y276409D01*
X1504402Y277408D01*
X1504821Y278036D01*
X1506349D01*
X1506768Y277408D01*
X1508265Y276409D01*
X1510030Y276057D01*
X1511795Y276409D01*
X1513292Y277408D01*
X1514292Y278905D01*
X1514643Y280670D01*
X1514292Y282435D01*
X1513292Y283932D01*
X1511795Y284932D01*
X1510030Y285283D01*
X1508265Y284932D01*
X1506768Y283932D01*
X1506349Y283304D01*
X1504821D01*
X1504402Y283932D01*
X1502905Y284932D01*
X1501140Y285283D01*
X1500582Y285172D01*
X1499403Y285750D01*
X1499052Y287515D01*
X1498052Y289012D01*
X1496555Y290012D01*
X1494790Y290363D01*
D02*
G37*
G36*
X1405000Y289093D02*
X1403235Y288741D01*
X1401738Y287742D01*
X1400739Y286245D01*
X1400387Y284480D01*
X1400739Y282715D01*
X1401738Y281218D01*
X1403235Y280219D01*
X1405000Y279867D01*
X1406765Y280219D01*
X1406798Y280240D01*
X1408209Y279656D01*
X1408358Y278905D01*
X1409358Y277408D01*
X1410855Y276409D01*
X1412620Y276057D01*
X1414385Y276409D01*
X1415882Y277408D01*
X1416301Y278036D01*
X1417829D01*
X1418248Y277408D01*
X1419745Y276409D01*
X1421510Y276057D01*
X1423275Y276409D01*
X1424772Y277408D01*
X1425771Y278905D01*
X1426123Y280670D01*
X1425771Y282435D01*
X1424772Y283932D01*
X1423275Y284932D01*
X1421510Y285283D01*
X1419745Y284932D01*
X1418248Y283932D01*
X1417829Y283304D01*
X1416301D01*
X1415882Y283932D01*
X1414385Y284932D01*
X1412620Y285283D01*
X1410855Y284932D01*
X1410822Y284910D01*
X1409411Y285494D01*
X1409261Y286245D01*
X1408262Y287742D01*
X1406765Y288741D01*
X1405000Y289093D01*
D02*
G37*
G36*
X1302076Y285283D02*
X1300311Y284932D01*
X1298814Y283932D01*
X1297814Y282435D01*
X1297463Y280670D01*
X1297814Y278905D01*
X1298814Y277408D01*
X1300311Y276409D01*
X1302076Y276057D01*
X1303841Y276409D01*
X1305338Y277408D01*
X1306337Y278905D01*
X1306689Y280670D01*
X1306337Y282435D01*
X1305338Y283932D01*
X1303841Y284932D01*
X1302076Y285283D01*
D02*
G37*
G36*
X1572006Y284013D02*
X1570241Y283661D01*
X1568744Y282662D01*
X1567744Y281165D01*
X1567393Y279400D01*
X1567744Y277635D01*
X1568744Y276138D01*
X1570241Y275138D01*
X1572006Y274787D01*
X1573771Y275138D01*
X1575268Y276138D01*
X1576268Y277635D01*
X1576619Y279400D01*
X1576268Y281165D01*
X1575268Y282662D01*
X1573771Y283661D01*
X1572006Y284013D01*
D02*
G37*
G36*
X1480566D02*
X1478801Y283661D01*
X1477304Y282662D01*
X1476304Y281165D01*
X1475953Y279400D01*
X1476304Y277635D01*
X1477304Y276138D01*
X1478801Y275138D01*
X1480566Y274787D01*
X1482331Y275138D01*
X1483828Y276138D01*
X1484828Y277635D01*
X1485179Y279400D01*
X1484828Y281165D01*
X1483828Y282662D01*
X1482331Y283661D01*
X1480566Y284013D01*
D02*
G37*
G36*
X1392356D02*
X1390591Y283661D01*
X1389094Y282662D01*
X1388094Y281165D01*
X1387743Y279400D01*
X1388094Y277635D01*
X1389094Y276138D01*
X1390591Y275138D01*
X1392356Y274787D01*
X1394121Y275138D01*
X1395618Y276138D01*
X1396617Y277635D01*
X1396969Y279400D01*
X1396617Y281165D01*
X1395618Y282662D01*
X1394121Y283661D01*
X1392356Y284013D01*
D02*
G37*
G36*
X1554480Y266233D02*
X1552715Y265882D01*
X1551218Y264882D01*
X1550219Y263385D01*
X1549867Y261620D01*
X1550219Y259855D01*
X1551218Y258358D01*
X1552715Y257358D01*
X1554480Y257007D01*
X1556245Y257358D01*
X1557742Y258358D01*
X1558741Y259855D01*
X1559093Y261620D01*
X1558741Y263385D01*
X1557742Y264882D01*
X1556245Y265882D01*
X1554480Y266233D01*
D02*
G37*
G36*
X1464310Y264963D02*
X1462545Y264611D01*
X1461048Y263612D01*
X1460049Y262115D01*
X1459697Y260350D01*
X1460049Y258585D01*
X1461048Y257088D01*
X1462545Y256089D01*
X1464310Y255737D01*
X1466075Y256089D01*
X1467572Y257088D01*
X1468571Y258585D01*
X1468923Y260350D01*
X1468571Y262115D01*
X1467572Y263612D01*
X1466075Y264611D01*
X1464310Y264963D01*
D02*
G37*
G36*
X1375410Y263693D02*
X1373645Y263342D01*
X1372148Y262342D01*
X1371149Y260845D01*
X1370797Y259080D01*
X1371149Y257315D01*
X1372148Y255818D01*
X1373645Y254818D01*
X1375410Y254467D01*
X1377175Y254818D01*
X1378672Y255818D01*
X1379671Y257315D01*
X1380023Y259080D01*
X1379671Y260845D01*
X1378672Y262342D01*
X1377175Y263342D01*
X1375410Y263693D01*
D02*
G37*
G36*
X1402103Y256676D02*
X1400338Y256325D01*
X1398842Y255325D01*
X1397842Y253828D01*
X1397491Y252063D01*
X1397842Y250298D01*
X1398842Y248802D01*
X1400338Y247802D01*
X1402103Y247451D01*
X1403868Y247802D01*
X1405365Y248802D01*
X1406365Y250298D01*
X1406716Y252063D01*
X1406365Y253828D01*
X1405365Y255325D01*
X1403868Y256325D01*
X1402103Y256676D01*
D02*
G37*
%LPD*%
D10*
X1381760Y525780D02*
X1390650D01*
X1365250Y509270D02*
X1381760Y525780D01*
X1354898Y509270D02*
X1365250D01*
X1398270Y547370D02*
X1405890D01*
X1363980Y513080D02*
X1398270Y547370D01*
X1353724Y513080D02*
X1363980D01*
X1174716Y487522D02*
X1188750D01*
X1194942Y428118D02*
Y481330D01*
X1188750Y487522D02*
X1194942Y481330D01*
Y428118D02*
X1220470Y402590D01*
X1253489Y649774D02*
X1269998Y649752D01*
X1242059Y649789D02*
X1253489Y649774D01*
X1310640Y496570D02*
Y502920D01*
X1304290Y509270D02*
X1310640Y502920D01*
X1287780Y509270D02*
X1304290D01*
X1206500Y590550D02*
X1287780Y509270D01*
X1057910Y590550D02*
X1206500Y590550D01*
X1289050Y502920D02*
X1300480D01*
X1205230Y586740D02*
X1289050Y502920D01*
X1061720Y586740D02*
X1205230D01*
X1031337Y529783D02*
Y547467D01*
X1020636Y519082D02*
X1031337Y529783D01*
X1061720Y577850D02*
Y586740D01*
X1031337Y547467D02*
X1061720Y577850D01*
X1057910Y582930D02*
Y590550D01*
X1021080Y546100D02*
X1057910Y582930D01*
X1054386Y588296D02*
Y631476D01*
X1015556Y549466D02*
X1054386Y588296D01*
X1184084Y397066D02*
X1233996D01*
X1179830Y401320D02*
X1184084Y397066D01*
X1179830Y401320D02*
Y405130D01*
X1187894Y413194D01*
X1191418Y408782D02*
Y479584D01*
Y408782D02*
X1196340Y403860D01*
X1233996Y397066D02*
X1247140Y410210D01*
Y431800D01*
X1262380Y447040D01*
X1134110Y518161D02*
X1172211Y480060D01*
X1134110Y518161D02*
Y546100D01*
X1172211Y480060D02*
X1184910D01*
X1150620Y506634D02*
X1173670Y483584D01*
X1150620Y506634D02*
Y544830D01*
X1173670Y483584D02*
X1187418D01*
X1140460Y554990D02*
X1150620Y544830D01*
X1188750Y487522D02*
X1328166D01*
X1329626Y483998D02*
X1354898Y509270D01*
X1262380Y447040D02*
Y473664D01*
X1272714Y483998D01*
X1268229Y467861D02*
X1280160Y455930D01*
Y381000D02*
Y455930D01*
X1266634Y367474D02*
X1280160Y381000D01*
X1268229Y467861D02*
Y474529D01*
X1273753Y471373D02*
X1348943D01*
X1268229Y474529D02*
X1274174Y480474D01*
X1348943Y471373D02*
X1374140Y496570D01*
X1274174Y480474D02*
X1333914D01*
X1272714Y483998D02*
X1329626D01*
X1328166Y487522D02*
X1353724Y513080D01*
X1356360Y502920D02*
X1384300D01*
X1346200Y492760D02*
X1356360Y502920D01*
X1384300D02*
X1390650Y509270D01*
X1409700D01*
X1155256Y506982D02*
X1174716Y487522D01*
X1155256Y506982D02*
Y550354D01*
X1136650Y568960D02*
X1155256Y550354D01*
X1397218Y490194D02*
X1418146Y469266D01*
X1383388Y490194D02*
X1397218D01*
X1381952Y496570D02*
X1398270D01*
X1377864Y492482D02*
X1381952Y496570D01*
X1377864Y492482D02*
Y492482D01*
X1353231Y467849D02*
X1377864Y492482D01*
X1330179Y467849D02*
X1353231D01*
X1418146Y392874D02*
Y469266D01*
X1283970Y464820D02*
X1303020D01*
X1283970Y401320D02*
Y464820D01*
Y401320D02*
X1291590Y393700D01*
X911034Y450406D02*
X1052482D01*
X873760Y487680D02*
X911034Y450406D01*
X909478Y446882D02*
X1054038D01*
X874586Y481774D02*
X909478Y446882D01*
X908018Y443358D02*
X1055498D01*
X875126Y476250D02*
X908018Y443358D01*
X1016534Y438790D02*
X1017678Y437645D01*
X847923Y438790D02*
X1016534D01*
X845569Y436436D02*
X847923Y438790D01*
X847029Y432912D02*
X849383Y435266D01*
X848489Y429388D02*
X850843Y431742D01*
X852302Y428218D02*
X1006690D01*
X849948Y425864D02*
X852302Y428218D01*
X853762Y424694D02*
X1001516D01*
X851408Y422340D02*
X853762Y424694D01*
X966470Y455930D02*
X967740Y457200D01*
X971550Y463550D02*
X986346D01*
X1015556Y492760D01*
X981710Y361950D02*
X983710Y363950D01*
X1269652D02*
X1327150Y421448D01*
X983710Y363950D02*
X1269652D01*
X703738Y432912D02*
X847029D01*
X1054038Y446882D02*
X1086104Y478948D01*
X700819Y425864D02*
X849948D01*
X768350Y485140D02*
X817054Y436436D01*
X1055498Y443358D02*
X1087564Y475424D01*
X701740Y422340D02*
X851408D01*
X1052482Y450406D02*
X1084676Y482600D01*
X702278Y429388D02*
X848489D01*
X817054Y436436D02*
X845569D01*
X850843Y431742D02*
X1010786D01*
X849383Y435266D02*
X1015074D01*
X1017678Y437645D02*
X1022855D01*
X1023620Y436880D01*
X972978Y352902D02*
X1347120D01*
X963198Y362682D02*
X972978Y352902D01*
X963198Y362682D02*
Y415828D01*
X967740Y388620D02*
X989330D01*
X967296Y388176D02*
X967740Y388620D01*
X967296Y364742D02*
Y388176D01*
Y364742D02*
X975612Y356426D01*
X1345660D01*
X963198Y415828D02*
X965200Y417830D01*
X1001516Y424694D02*
X1023620Y402590D01*
X1006690Y428218D02*
X1023428Y411480D01*
X1010786Y431742D02*
X1023428Y419100D01*
X1015074Y435266D02*
X1022350Y427990D01*
X973264Y367474D02*
X1266634D01*
X972820Y367030D02*
X973264Y367474D01*
X1371600Y359696D02*
X1372366D01*
X661542Y475108D02*
X703738Y432912D01*
X658018Y473648D02*
X702278Y429388D01*
X654494Y472189D02*
X700819Y425864D01*
X631190Y351790D02*
X701740Y422340D01*
X859790Y476250D02*
X875126D01*
X871220Y487680D02*
X873760D01*
X865247Y481774D02*
X874586D01*
X949960Y650240D02*
X960120Y640080D01*
Y593090D02*
Y640080D01*
Y593090D02*
X1002030Y551180D01*
X935936Y487274D02*
Y629866D01*
X935990Y629920D01*
X949960Y650240D02*
X950404Y650684D01*
X967740Y457200D02*
X984980D01*
X1020636Y492856D01*
X1015556Y492760D02*
Y549466D01*
X1020636Y492856D02*
Y519082D01*
X1345660Y356426D02*
X1362170Y372936D01*
X1347120Y352902D02*
X1363630Y369412D01*
X1327150Y421448D02*
Y464820D01*
X694881Y467361D02*
X697230Y465012D01*
Y453390D02*
Y465012D01*
X694881Y473901D02*
X697674Y476694D01*
X694881Y467361D02*
Y473901D01*
X697674Y476694D02*
Y593534D01*
X700405Y470535D02*
X701198Y471328D01*
Y591978D01*
X697674Y593534D02*
X737870Y633730D01*
X701198Y591978D02*
X736600Y627380D01*
X596439Y351790D02*
X631190D01*
X654494Y472189D02*
Y643446D01*
X658018Y473648D02*
Y687228D01*
X661542Y475108D02*
Y685324D01*
X737870Y633730D02*
X806450D01*
X736600Y627380D02*
X811530D01*
X770890Y619760D02*
X834390D01*
X767080Y615950D02*
X770890Y619760D01*
X873125Y754396D02*
Y761365D01*
X621030Y676910D02*
X654494Y643446D01*
X661542Y685324D02*
X673448Y697230D01*
X658018Y687228D02*
X674370Y703580D01*
X1449659Y372936D02*
X1496060Y419337D01*
X1362170Y372936D02*
X1449659D01*
X1496060Y419337D02*
Y472538D01*
X857250Y751840D02*
X861060Y755650D01*
X857250Y650240D02*
Y751840D01*
X849630Y642620D02*
X857250Y650240D01*
X869950Y758190D02*
X873125Y761365D01*
X867410Y755650D02*
X869950Y758190D01*
X861060Y755650D02*
X867410D01*
X905494Y753988D02*
Y754396D01*
X899552Y748046D02*
X905494Y753988D01*
X891148Y748046D02*
X899552D01*
X936668Y752142D02*
X1114772D01*
X899552Y715026D02*
X936668Y752142D01*
X862480Y680720D02*
X896786Y715026D01*
X899552D01*
X901011Y711502D02*
X937539Y748030D01*
X1115644D01*
X900732Y711502D02*
X901011D01*
X872490Y683260D02*
X900732Y711502D01*
X885206Y753988D02*
X891148Y748046D01*
X885206Y753988D02*
Y754396D01*
X905494D02*
X931173D01*
X873125D02*
X885206D01*
X1327150Y464820D02*
X1330179Y467849D01*
X1187418Y483584D02*
X1191418Y479584D01*
X1187894Y413194D02*
Y477076D01*
X1184910Y480060D02*
X1187894Y477076D01*
X1322310Y494270D02*
X1323080D01*
X1409700Y509270D02*
X1424112Y523682D01*
Y587568D01*
X1333914Y480474D02*
X1346200Y492760D01*
X1421130Y590550D02*
X1424112Y587568D01*
X1404620Y590550D02*
X1421130D01*
X1570704Y393986D02*
X1619632D01*
X1562100Y402590D02*
X1570704Y393986D01*
X1619632D02*
X1648174Y422528D01*
X1618172Y397510D02*
X1644650Y423988D01*
X1572260Y397510D02*
X1618172D01*
X1564640Y405130D02*
X1572260Y397510D01*
X1648174Y422528D02*
Y486312D01*
X1644650Y423988D02*
Y493428D01*
X1564544Y405130D02*
X1564640D01*
X1494504Y406114D02*
X1563560D01*
X1564544Y405130D01*
X1451610Y363220D02*
X1494504Y406114D01*
X1497330Y402590D02*
X1562100D01*
X1454436Y359696D02*
X1497330Y402590D01*
X1511300Y584392D02*
Y590550D01*
X1453706Y526798D02*
X1511300Y584392D01*
X1057910Y590550D02*
Y630016D01*
X1077690Y649796D01*
X1054386Y631476D02*
X1078221Y655311D01*
X1077690Y649796D02*
X1236728D01*
X1363630Y369412D02*
X1451118D01*
X1376592Y759372D02*
X1389380Y772160D01*
X1117019Y759372D02*
X1376592D01*
X1113313Y755666D02*
X1117019Y759372D01*
X1384306Y755848D02*
X1394904Y766446D01*
X1118478Y755848D02*
X1384306D01*
X1114772Y752142D02*
X1118478Y755848D01*
X1119938Y752324D02*
X1388594D01*
X1398270Y762000D01*
X1115644Y748030D02*
X1119938Y752324D01*
X1003284Y679466D02*
X1054084D01*
X1062118Y671432D01*
X1043790Y697230D02*
X1065380Y675640D01*
X1023620Y697230D02*
X1043790D01*
X1065380Y675640D02*
X1286608D01*
X1060546Y662940D02*
X1299210D01*
X1051672Y671814D02*
X1060546Y662940D01*
X1000776Y671814D02*
X1051672D01*
X1061133Y667337D02*
X1298623D01*
X1053132Y675338D02*
X1061133Y667337D01*
X1002332Y675338D02*
X1053132D01*
X1062118Y671432D02*
X1297734D01*
X1286608Y675640D02*
X1287780Y676812D01*
Y690880D01*
X1014730Y688340D02*
X1023620Y697230D01*
X982980Y689610D02*
Y718218D01*
Y689610D02*
X1000776Y671814D01*
X982378Y718820D02*
X982980Y718218D01*
X1078221Y655311D02*
X1245872D01*
X1269998Y649752D02*
X1644364Y649256D01*
X1236728Y649796D02*
X1242059Y649789D01*
X932625Y755848D02*
X1010872D01*
X931173Y754396D02*
X932625Y755848D01*
X1011054Y755666D02*
X1113313D01*
X872490Y678180D02*
Y683260D01*
X1010872Y755848D02*
X1011054Y755666D01*
X1297734Y671432D02*
X1346393Y720090D01*
X1298623Y667337D02*
X1347724Y716438D01*
X1299210Y662940D02*
X1349184Y712914D01*
X1427924D01*
X1346393Y720090D02*
X1425036D01*
X1363980Y778510D02*
X1390650D01*
X1347724Y716438D02*
X1426368D01*
X1390650Y778510D02*
X1391476Y777684D01*
X1391668D02*
X1394904Y774448D01*
X1391476Y777684D02*
X1391668D01*
X862480Y642770D02*
Y680720D01*
X861012Y641302D02*
X862480Y642770D01*
X985268Y724344D02*
X991044Y718568D01*
X980090Y724344D02*
X985268D01*
X996950Y685800D02*
Y722630D01*
X975360Y715010D02*
X976125Y715775D01*
X1394904Y766446D02*
Y774448D01*
X1592583Y654852D02*
Y709927D01*
X1590040Y712470D02*
X1592583Y709927D01*
X1644364Y649256D02*
X1659064Y634556D01*
X849630Y551180D02*
Y642620D01*
X996950Y685800D02*
X1003284Y679466D01*
X991044Y686626D02*
X1002332Y675338D01*
X843280Y544830D02*
X849630Y551180D01*
X835660Y544830D02*
X843280D01*
X767080Y601980D02*
Y615950D01*
X1086104Y478948D02*
X1144112D01*
X1142556Y475424D02*
X1168400Y449580D01*
X1087564Y475424D02*
X1142556D01*
X1168400Y401320D02*
Y449580D01*
X1144112Y478948D02*
X1151890Y471170D01*
X1084676Y482600D02*
X1157699D01*
X1167859Y472440D01*
X1151890Y471170D02*
X1158240D01*
X1167859Y472440D02*
X1182370D01*
X1447854Y525929D02*
X1471930Y550006D01*
X1447854Y388674D02*
Y525929D01*
X1441450Y382270D02*
X1447854Y388674D01*
X1453706Y384366D02*
Y526798D01*
X1446086Y376746D02*
X1453706Y384366D01*
X1659064Y617664D02*
Y634556D01*
X1653540Y618490D02*
Y631190D01*
X1643380Y608330D02*
X1653540Y618490D01*
X1646904Y599776D02*
Y605504D01*
X1643380Y596252D02*
X1646904Y599776D01*
Y605504D02*
X1659064Y617664D01*
X1643380Y509270D02*
Y596252D01*
Y509270D02*
X1656080Y496570D01*
X1643380Y601236D02*
Y608330D01*
X1639570Y597426D02*
X1643380Y601236D01*
X1639570Y500380D02*
Y597426D01*
X1363980Y361950D02*
X1365250Y363220D01*
X1023428Y419100D02*
X1023620D01*
X1023428Y411480D02*
X1023620D01*
X1342390Y382270D02*
X1441450D01*
X1336484Y376746D02*
X1446086D01*
X1334770Y378460D02*
X1336484Y376746D01*
X1365250Y363220D02*
X1451610D01*
X1371600Y356870D02*
Y358929D01*
X1372366Y359696D01*
X1451118Y369412D02*
X1502390Y420684D01*
X1471930Y550006D02*
Y598170D01*
X1496060Y472538D02*
X1498502Y474980D01*
X1536798D01*
X1537970Y473808D01*
Y459740D02*
Y473808D01*
X976125Y720379D02*
X980090Y724344D01*
X976125Y715775D02*
Y720379D01*
X991044Y686626D02*
Y718568D01*
X1502390Y420684D02*
Y468630D01*
X1372366Y359696D02*
X1454436D01*
X1646950Y495728D02*
Y496810D01*
X1648174Y486312D02*
X1650365Y488503D01*
Y489585D01*
X1644650Y493428D02*
X1646950Y495728D01*
X1425036Y720090D02*
X1470660Y765714D01*
X1426368Y716438D02*
X1480820Y770890D01*
X1427924Y712914D02*
X1492250Y777240D01*
X1470660Y765714D02*
Y779780D01*
X1480820Y770890D02*
Y779780D01*
X1492250Y777240D02*
Y779780D01*
X886412Y641302D02*
X897890Y652780D01*
X861012Y641302D02*
X886412D01*
X618046Y676910D02*
X621030D01*
X674370Y703580D02*
X676755D01*
X673448Y697230D02*
X683260D01*
X699770Y713740D01*
X747789D01*
X756679Y704850D01*
D17*
X558800Y440690D02*
X628650D01*
X558800Y593090D02*
Y788670D01*
Y237490D02*
Y440690D01*
X628650D02*
Y593090D01*
X558800D02*
X628650D01*
X1828800Y567690D02*
Y650875D01*
Y375285D02*
Y447040D01*
X1765300D02*
X1828800D01*
X1765300D02*
Y567690D01*
X1828800D01*
Y650875D02*
Y788670D01*
Y237490D02*
Y375285D01*
X558800Y237490D02*
X1828800D01*
X558800Y788670D02*
X1828800D01*
D63*
X872490Y678180D02*
D03*
X1014730Y688340D02*
D03*
D64*
X897890Y652780D02*
D03*
D66*
X869950Y758190D02*
D03*
D68*
X1300480Y502920D02*
D03*
X1179830Y401320D02*
D03*
X1196340Y403860D02*
D03*
X1273753Y471373D02*
D03*
X1383388Y490194D02*
D03*
X1390650Y525780D02*
D03*
X1374140Y496570D02*
D03*
X1303020Y464820D02*
D03*
X971550Y463550D02*
D03*
X989330Y388620D02*
D03*
X965200Y417830D02*
D03*
X972820Y367030D02*
D03*
X981710Y361950D02*
D03*
X871220Y487680D02*
D03*
X865247Y481774D02*
D03*
X859790Y476250D02*
D03*
X1002030Y551180D02*
D03*
X935990Y629920D02*
D03*
X949960Y650240D02*
D03*
X1021080Y546100D02*
D03*
X966470Y455930D02*
D03*
X935936Y487274D02*
D03*
X697230Y453390D02*
D03*
X700405Y470535D02*
D03*
X811530Y627380D02*
D03*
X834390Y619760D02*
D03*
X806450Y633730D02*
D03*
X1722199Y538480D02*
D03*
X1723390Y532130D02*
D03*
Y525780D02*
D03*
Y474980D02*
D03*
X1718310Y480060D02*
D03*
X1723390Y444500D02*
D03*
Y452120D02*
D03*
X1729740D02*
D03*
X1220470Y402590D02*
D03*
X1323080Y494270D02*
D03*
X1346200Y492760D02*
D03*
X1291590Y393700D02*
D03*
X1310640Y496570D02*
D03*
X1405890Y547370D02*
D03*
X1404620Y590550D02*
D03*
X1136650Y568960D02*
D03*
X1140460Y554990D02*
D03*
X1134110Y546100D02*
D03*
X1253490Y650240D02*
D03*
X1245872Y655311D02*
D03*
X1287780Y690880D02*
D03*
X982378Y718820D02*
D03*
X996950Y722630D02*
D03*
X975360Y715010D02*
D03*
X1398270Y762000D02*
D03*
X1389380Y772160D02*
D03*
X1363980Y778510D02*
D03*
X1592583Y654852D02*
D03*
X1398270Y496570D02*
D03*
X1022350Y427990D02*
D03*
X1023620Y411480D02*
D03*
Y419100D02*
D03*
Y436880D02*
D03*
X1342390Y382270D02*
D03*
X1363980Y361950D02*
D03*
X1371600Y356870D02*
D03*
X1334770Y378460D02*
D03*
X1023620Y402590D02*
D03*
X1471930Y598170D02*
D03*
X1511300Y590550D02*
D03*
X1537970Y459740D02*
D03*
X1168400Y401320D02*
D03*
X1182370Y472440D02*
D03*
X1158240Y471170D02*
D03*
X1553210Y392430D02*
D03*
X1537970Y386080D02*
D03*
X1545590D02*
D03*
X1553210D02*
D03*
X1545590Y392430D02*
D03*
X1537970D02*
D03*
X1530350D02*
D03*
X1639570Y500380D02*
D03*
X1646950Y496810D02*
D03*
X1553210Y365760D02*
D03*
X1545590D02*
D03*
X1553210Y378460D02*
D03*
X1545590D02*
D03*
X1553210Y372110D02*
D03*
X1653540Y631190D02*
D03*
X1656080Y496570D02*
D03*
X1650365Y489585D02*
D03*
X1722120Y426449D02*
D03*
X1720215Y588645D02*
D03*
X1719580Y581132D02*
D03*
X1719897Y595312D02*
D03*
X1718310Y469925D02*
D03*
X1716632Y452024D02*
D03*
X1716588Y442412D02*
D03*
X1722120Y419100D02*
D03*
Y411480D02*
D03*
X1729740Y441960D02*
D03*
X1723390Y563880D02*
D03*
X1737360Y556260D02*
D03*
X1728470Y563880D02*
D03*
X1717736Y563306D02*
D03*
X1723390Y556260D02*
D03*
X1729740D02*
D03*
X1783080Y618490D02*
D03*
X1765300D02*
D03*
X1774190D02*
D03*
Y610870D02*
D03*
X1765300D02*
D03*
X1783080D02*
D03*
Y632460D02*
D03*
X1765300D02*
D03*
X1774190D02*
D03*
Y640080D02*
D03*
X1765300D02*
D03*
X1783080D02*
D03*
X1805796Y589994D02*
D03*
X1814686D02*
D03*
X1796906D02*
D03*
Y597614D02*
D03*
X1814686D02*
D03*
X1805796D02*
D03*
X1805940Y652780D02*
D03*
X1797050D02*
D03*
X1814830D02*
D03*
Y660400D02*
D03*
X1797050D02*
D03*
X1805940D02*
D03*
X1781810Y377190D02*
D03*
X1764030D02*
D03*
X1772920D02*
D03*
X1813560Y356870D02*
D03*
X1795780D02*
D03*
X1804670D02*
D03*
X1784350Y406400D02*
D03*
X1766570D02*
D03*
X1775460D02*
D03*
X1804670Y425450D02*
D03*
X1795780D02*
D03*
X1813560D02*
D03*
X1526540Y640080D02*
D03*
X1557020Y640116D02*
D03*
X1549400D02*
D03*
X1541780Y640080D02*
D03*
X1534160D02*
D03*
X1511300D02*
D03*
X1518920D02*
D03*
X1503680D02*
D03*
X1537970Y365760D02*
D03*
X1530350D02*
D03*
Y386080D02*
D03*
X1470660Y779780D02*
D03*
X1418146Y392874D02*
D03*
X1587500Y534670D02*
D03*
Y556260D02*
D03*
Y546100D02*
D03*
Y567690D02*
D03*
Y524510D02*
D03*
Y433070D02*
D03*
Y466090D02*
D03*
Y454660D02*
D03*
X861012Y641302D02*
D03*
X768350Y485140D02*
D03*
X835660Y544830D02*
D03*
X1125220Y631190D02*
D03*
X767080Y601980D02*
D03*
X618046Y676910D02*
D03*
X676755Y703580D02*
D03*
X1492250Y779780D02*
D03*
X1480820D02*
D03*
X1361440Y267970D02*
D03*
Y276860D02*
D03*
Y285750D02*
D03*
Y303530D02*
D03*
Y311150D02*
D03*
Y294640D02*
D03*
Y259080D02*
D03*
X1450340D02*
D03*
Y294640D02*
D03*
Y311150D02*
D03*
Y303530D02*
D03*
Y285750D02*
D03*
Y276860D02*
D03*
Y267970D02*
D03*
X1537970Y294640D02*
D03*
Y311150D02*
D03*
Y303530D02*
D03*
Y285750D02*
D03*
Y276860D02*
D03*
Y267970D02*
D03*
Y259080D02*
D03*
X1629410Y260350D02*
D03*
Y269240D02*
D03*
Y278130D02*
D03*
Y287020D02*
D03*
Y304800D02*
D03*
Y312420D02*
D03*
Y295910D02*
D03*
X1804670Y364490D02*
D03*
X1795780D02*
D03*
X1813560D02*
D03*
X1772920Y384810D02*
D03*
X1764030D02*
D03*
X1781810D02*
D03*
X1775460Y398780D02*
D03*
X1766570D02*
D03*
X1784350D02*
D03*
X1813560Y417830D02*
D03*
X1795780D02*
D03*
X1804670D02*
D03*
X1590040Y712470D02*
D03*
X1503680Y633730D02*
D03*
Y627380D02*
D03*
X1518920D02*
D03*
X1511300D02*
D03*
Y633730D02*
D03*
X1502390Y468630D02*
D03*
X1537970Y378460D02*
D03*
X1530350D02*
D03*
X596439Y351790D02*
D03*
X756679Y704850D02*
D03*
X1587500Y422910D02*
D03*
Y444500D02*
D03*
X1125220Y604520D02*
D03*
X1116330D02*
D03*
X1125220Y622300D02*
D03*
X1116330D02*
D03*
X1125220Y613410D02*
D03*
X1116330D02*
D03*
Y631190D02*
D03*
X1264920Y252730D02*
D03*
X1256030D02*
D03*
X1247140D02*
D03*
X1238250D02*
D03*
X1229360D02*
D03*
X1264920Y261620D02*
D03*
X1256030D02*
D03*
X1247140D02*
D03*
X1238250D02*
D03*
X1229360D02*
D03*
X1664970Y351790D02*
D03*
Y344170D02*
D03*
Y335280D02*
D03*
Y326390D02*
D03*
Y317500D02*
D03*
Y308610D02*
D03*
Y299720D02*
D03*
X1534160Y633730D02*
D03*
X1541780D02*
D03*
X1549400Y633766D02*
D03*
X1557020D02*
D03*
X1518920Y633730D02*
D03*
X1526540D02*
D03*
X1534160Y627380D02*
D03*
X1541780D02*
D03*
X1549400Y627416D02*
D03*
X1557020D02*
D03*
X1526540Y627380D02*
D03*
X1545590Y372110D02*
D03*
X1537970D02*
D03*
X1530350D02*
D03*
M02*
