G04*
G04 #@! TF.GenerationSoftware,Altium Limited,Altium Designer,19.1.5 (86)*
G04*
G04 Layer_Color=65535*
%FSLAX44Y44*%
%MOMM*%
G71*
G01*
G75*
%ADD10C,0.2000*%
%ADD11C,0.1524*%
%ADD12C,0.0000*%
%ADD13C,0.1270*%
%ADD14C,0.3000*%
%ADD15C,0.2540*%
%ADD16C,0.5000*%
D10*
X780350Y438100D02*
G03*
X780350Y438100I-2500J0D01*
G01*
X339740Y477545D02*
G03*
X339740Y474295I0J-1625D01*
G01*
X1175470Y453910D02*
G03*
X1175470Y453910I-2500J0D01*
G01*
X1133070Y563370D02*
G03*
X1133070Y563370I-2500J0D01*
G01*
X899770Y429845D02*
X914375D01*
Y370155D02*
Y429845D01*
X899770Y370155D02*
X914375D01*
X755625Y429845D02*
X770230D01*
X755625Y370155D02*
Y429845D01*
Y370155D02*
X770230D01*
X1031950Y438640D02*
Y442640D01*
X1044450Y438640D02*
Y442640D01*
X339740Y477545D02*
Y487570D01*
Y464270D02*
Y474295D01*
X287740Y464270D02*
X339740D01*
X287740D02*
Y487570D01*
X339740D01*
X1226000Y382910D02*
X1236000D01*
X1226000Y398910D02*
X1236000D01*
X1226000Y401960D02*
X1236000D01*
X1226000Y417960D02*
X1236000D01*
X1226000Y420600D02*
X1236000D01*
X1226000Y436600D02*
X1236000D01*
X1374850Y370060D02*
Y374060D01*
X1387350Y370060D02*
Y374060D01*
X1390090Y370060D02*
Y374060D01*
X1402590Y370060D02*
Y374060D01*
X1398780Y444380D02*
Y448380D01*
X1386280Y444380D02*
Y448380D01*
X1383540Y444380D02*
Y448380D01*
X1371040Y444380D02*
Y448380D01*
X1257910Y360420D02*
X1286400D01*
Y346920D02*
Y360420D01*
X1257910Y346920D02*
X1286400D01*
X1226000Y483660D02*
X1236000D01*
X1226000Y499660D02*
X1236000D01*
X1226000Y502710D02*
X1236000D01*
X1226000Y518710D02*
X1236000D01*
X1226000Y521760D02*
X1236000D01*
X1226000Y537760D02*
X1236000D01*
X1387550Y477400D02*
Y481400D01*
X1400050Y477400D02*
Y481400D01*
X1372310Y477400D02*
Y481400D01*
X1384810Y477400D02*
Y481400D01*
X1379989Y553600D02*
Y557600D01*
X1367489Y553600D02*
Y557600D01*
X1396240Y553600D02*
Y557600D01*
X1383740Y553600D02*
Y557600D01*
X1282040Y479800D02*
X1310530D01*
Y466300D02*
Y479800D01*
X1282040Y466300D02*
X1310530D01*
X1160660Y410720D02*
X1164660D01*
X1160660Y398220D02*
X1164660D01*
X826650Y224050D02*
X830650D01*
X826650Y214050D02*
X830650D01*
X737750Y579650D02*
X741750D01*
X737750Y569650D02*
X741750D01*
X1186690Y550450D02*
Y554450D01*
X1174190Y550450D02*
Y554450D01*
X1110490Y391040D02*
Y395040D01*
X1097990Y391040D02*
Y395040D01*
X1138450Y407550D02*
Y411550D01*
X1128450Y407550D02*
Y411550D01*
X739020Y451380D02*
X743020D01*
X739020Y441380D02*
X743020D01*
X1013340Y405820D02*
X1017340D01*
X1013340Y415820D02*
X1017340D01*
X968250Y568230D02*
Y572230D01*
X955750Y568230D02*
Y572230D01*
X1113230Y391040D02*
Y395040D01*
X1125730Y391040D02*
Y395040D01*
X1021590Y568840D02*
Y572840D01*
X1009090Y568840D02*
Y572840D01*
X848080Y489640D02*
Y499640D01*
X832080Y489640D02*
Y499640D01*
X826490Y489640D02*
Y499640D01*
X810490Y489640D02*
Y499640D01*
X1094000Y563760D02*
Y567760D01*
X1084000Y563760D02*
Y567760D01*
X907930Y546630D02*
X911930D01*
X907930Y536630D02*
X911930D01*
X809680Y651390D02*
Y655390D01*
X819680Y651390D02*
Y655390D01*
X936500Y547250D02*
Y551250D01*
X924000Y547250D02*
Y551250D01*
X977620Y387800D02*
Y397800D01*
X961620Y387800D02*
Y397800D01*
X956030Y387800D02*
Y397800D01*
X940030Y387800D02*
Y397800D01*
D11*
X952348Y432410D02*
G03*
X952348Y432410I-762J0D01*
G01*
X1131672Y239370D02*
G03*
X1137768Y239370I3048J0D01*
G01*
X953182Y240640D02*
G03*
X959278Y240640I3048J0D01*
G01*
X1353668Y297790D02*
G03*
X1347572Y297790I-3048J0D01*
G01*
X1043462Y239370D02*
G03*
X1049558Y239370I3048J0D01*
G01*
X1223112D02*
G03*
X1229208Y239370I3048J0D01*
G01*
X1131672Y274930D02*
G03*
X1137768Y274930I3048J0D01*
G01*
X953182Y276200D02*
G03*
X959278Y276200I3048J0D01*
G01*
X1223112Y274930D02*
G03*
X1229208Y274930I3048J0D01*
G01*
X1353668Y263500D02*
G03*
X1347572Y263500I-3048J0D01*
G01*
X1043462Y274930D02*
G03*
X1049558Y274930I3048J0D01*
G01*
X1001624Y438238D02*
Y449682D01*
X963016Y415138D02*
X1001624D01*
Y426582D01*
X963016Y449682D02*
X1001624D01*
X963016Y438238D02*
Y449682D01*
Y415138D02*
Y426582D01*
X1129386Y239370D02*
X1131672D01*
X1137768D01*
X1140054D01*
X950896Y240640D02*
X953182D01*
X959278D01*
X961564D01*
X1353668Y297790D02*
X1355954D01*
X1347572D02*
X1353668D01*
X1345286D02*
X1347572D01*
X1041176Y239370D02*
X1043462D01*
X1049558D01*
X1051844D01*
X1220826D02*
X1223112D01*
X1229208D01*
X1231494D01*
X1129386Y274930D02*
X1131672D01*
X1137768D01*
X1140054D01*
X950896Y276200D02*
X953182D01*
X959278D01*
X961564D01*
X1220826Y274930D02*
X1223112D01*
X1229208D01*
X1231494D01*
X1353668Y263500D02*
X1355954D01*
X1347572D02*
X1353668D01*
X1345286D02*
X1347572D01*
X1041176Y274930D02*
X1043462D01*
X1049558D01*
X1051844D01*
D12*
X976470Y561570D02*
G03*
X976470Y561570I-2000J0D01*
G01*
X1065370Y437110D02*
G03*
X1065370Y437110I-2000J0D01*
G01*
D13*
X1332356Y377650D02*
G03*
X1332356Y377650I-1556J0D01*
G01*
X1331900D02*
G03*
X1331900Y377650I-1100J0D01*
G01*
X1333000D02*
G03*
X1333000Y377650I-1100J0D01*
G01*
D02*
G03*
X1333000Y377650I-1100J0D01*
G01*
X1333260D02*
G03*
X1333260Y377650I-2460J0D01*
G01*
X1333516Y490240D02*
G03*
X1333516Y490240I-1556J0D01*
G01*
X1333060D02*
G03*
X1333060Y490240I-1100J0D01*
G01*
X1334160D02*
G03*
X1334160Y490240I-1100J0D01*
G01*
D02*
G03*
X1334160Y490240I-1100J0D01*
G01*
X1334420D02*
G03*
X1334420Y490240I-2460J0D01*
G01*
X964820Y553970D02*
X971320D01*
X964820Y551970D02*
Y553970D01*
X993320D02*
X999820D01*
Y551970D02*
Y553970D01*
X993320Y508970D02*
X999820D01*
Y510470D01*
X964820Y508970D02*
X971320D01*
X964820D02*
Y510970D01*
X1053720Y429510D02*
X1060220D01*
X1053720Y427510D02*
Y429510D01*
X1082220D02*
X1088720D01*
Y427510D02*
Y429510D01*
X1082220Y384510D02*
X1088720D01*
Y386010D01*
X1053720Y384510D02*
X1060220D01*
X1053720D02*
Y386510D01*
X1295600Y370550D02*
X1339600D01*
X1295600Y448550D02*
X1339600D01*
X1296760Y483140D02*
X1340760D01*
X1296760Y561140D02*
X1340760D01*
X1188390Y486190D02*
Y515790D01*
X1134390Y486190D02*
Y515790D01*
X1127430Y486190D02*
Y515790D01*
X1073430Y486190D02*
Y515790D01*
X1065200Y486190D02*
Y515790D01*
X1011200Y486190D02*
Y515790D01*
D14*
X1348310Y366370D02*
G03*
X1348310Y366370I-1500J0D01*
G01*
X1349470Y478960D02*
G03*
X1349470Y478960I-1500J0D01*
G01*
X555600Y719430D02*
X564490Y728320D01*
X633070D01*
X643230Y718160D01*
Y674980D02*
Y718160D01*
X638150Y667360D02*
X643230Y672440D01*
Y673710D01*
Y674980D01*
X555600Y673710D02*
X560680Y668630D01*
X555600Y673710D02*
Y687045D01*
Y719430D01*
D15*
X1193140Y342240D02*
X1196950D01*
X927710Y457810D02*
X1189330D01*
X922630Y452730D02*
X927710Y457810D01*
X1162660Y342240D02*
X1193140D01*
X1196950D02*
X1200760Y346050D01*
Y446380D01*
X1189330Y457810D02*
X1200760Y446380D01*
X922630Y348590D02*
Y452730D01*
Y348590D02*
X928980Y342240D01*
X1089000D01*
X1200760Y469240D02*
Y600050D01*
X1189330Y457810D02*
X1200760Y469240D01*
X804520Y457810D02*
X1189330D01*
X799440Y462890D02*
Y603860D01*
Y462890D02*
X804520Y457810D01*
X803250Y607670D02*
X885800D01*
X799440Y603860D02*
X803250Y607670D01*
X1193140D02*
X1200760Y600050D01*
X965810Y607670D02*
X1193140D01*
X893801Y517373D02*
Y586207D01*
X873481Y517373D02*
X893801D01*
X826999D02*
X847319D01*
X873481Y586207D02*
X893801D01*
X826999Y517373D02*
Y586207D01*
X847319D01*
X561950Y681142D02*
Y686141D01*
X564449Y688640D01*
X566948Y686141D01*
Y681142D01*
Y684891D01*
X561950D01*
X569448Y681142D02*
Y686141D01*
X570697D01*
X571947Y684891D01*
Y681142D01*
Y684891D01*
X573196Y686141D01*
X574446Y684891D01*
Y681142D01*
X576945Y688640D02*
Y681142D01*
X580694D01*
X581944Y682392D01*
Y683642D01*
Y684891D01*
X580694Y686141D01*
X576945D01*
X584443Y681142D02*
X586942D01*
X585692D01*
Y686141D01*
X584443D01*
X594440Y681142D02*
X591940D01*
X590691Y682392D01*
Y684891D01*
X591940Y686141D01*
X594440D01*
X595689Y684891D01*
Y683642D01*
X590691D01*
X598188Y681142D02*
Y686141D01*
X601937D01*
X603187Y684891D01*
Y681142D01*
X606936Y687390D02*
Y686141D01*
X605686D01*
X608185D01*
X606936D01*
Y682392D01*
X608185Y681142D01*
X561950Y673547D02*
X566948D01*
X564449D01*
Y666049D01*
X573196D02*
X570697D01*
X569448Y667299D01*
Y669798D01*
X570697Y671048D01*
X573196D01*
X574446Y669798D01*
Y668548D01*
X569448D01*
X576945Y666049D02*
Y671048D01*
X578195D01*
X579444Y669798D01*
Y666049D01*
Y669798D01*
X580694Y671048D01*
X581944Y669798D01*
Y666049D01*
X584443Y663550D02*
Y671048D01*
X588192D01*
X589441Y669798D01*
Y667299D01*
X588192Y666049D01*
X584443D01*
X604436Y672297D02*
X603187Y673547D01*
X600688D01*
X599438Y672297D01*
Y671048D01*
X600688Y669798D01*
X603187D01*
X604436Y668548D01*
Y667299D01*
X603187Y666049D01*
X600688D01*
X599438Y667299D01*
X610684Y666049D02*
X608185D01*
X606936Y667299D01*
Y669798D01*
X608185Y671048D01*
X610684D01*
X611934Y669798D01*
Y668548D01*
X606936D01*
X614433Y666049D02*
Y671048D01*
X618182D01*
X619432Y669798D01*
Y666049D01*
X621931D02*
X625680D01*
X626929Y667299D01*
X625680Y668548D01*
X623180D01*
X621931Y669798D01*
X623180Y671048D01*
X626929D01*
X633177Y666049D02*
X630678D01*
X629428Y667299D01*
Y669798D01*
X630678Y671048D01*
X633177D01*
X634427Y669798D01*
Y668548D01*
X629428D01*
X1393800Y320650D02*
Y328148D01*
X1397549D01*
X1398798Y326898D01*
Y324399D01*
X1397549Y323149D01*
X1393800D01*
X1396299D02*
X1398798Y320650D01*
X1406296Y328148D02*
X1403797Y326898D01*
X1401298Y324399D01*
Y321900D01*
X1402547Y320650D01*
X1405046D01*
X1406296Y321900D01*
Y323149D01*
X1405046Y324399D01*
X1401298D01*
X1413794Y328148D02*
X1411294Y326898D01*
X1408795Y324399D01*
Y321900D01*
X1410045Y320650D01*
X1412544D01*
X1413794Y321900D01*
Y323149D01*
X1412544Y324399D01*
X1408795D01*
X702920Y592308D02*
Y584810D01*
X706669D01*
X707918Y586060D01*
Y587309D01*
X706669Y588559D01*
X702920D01*
X706669D01*
X707918Y589808D01*
Y591058D01*
X706669Y592308D01*
X702920D01*
X710418Y584810D02*
Y589808D01*
X712917Y592308D01*
X715416Y589808D01*
Y584810D01*
Y588559D01*
X710418D01*
X717915Y592308D02*
X722914D01*
X720414D01*
Y584810D01*
X725413Y592308D02*
X730411D01*
X727912D01*
Y584810D01*
X732910D02*
X736659Y588559D01*
X732910Y592308D01*
X739158Y584810D02*
Y592308D01*
X741658Y589808D01*
X744157Y592308D01*
Y584810D01*
X750405Y592308D02*
X747906D01*
X746656Y591058D01*
Y586060D01*
X747906Y584810D01*
X750405D01*
X751654Y586060D01*
Y591058D01*
X750405Y592308D01*
X754154D02*
X759152D01*
X756653D01*
Y584810D01*
X810870Y638028D02*
Y630530D01*
X814619D01*
X815868Y631780D01*
Y633029D01*
X814619Y634279D01*
X810870D01*
X814619D01*
X815868Y635528D01*
Y636778D01*
X814619Y638028D01*
X810870D01*
X818368Y630530D02*
Y635528D01*
X820867Y638028D01*
X823366Y635528D01*
Y630530D01*
Y634279D01*
X818368D01*
X825865Y638028D02*
X830864D01*
X828364D01*
Y630530D01*
X833363Y638028D02*
X838361D01*
X835862D01*
Y630530D01*
X840860D02*
X844609Y634279D01*
X840860Y638028D01*
X847108D02*
Y630530D01*
X850857D01*
X852107Y631780D01*
Y633029D01*
X850857Y634279D01*
X847108D01*
X850857D01*
X852107Y635528D01*
Y636778D01*
X850857Y638028D01*
X847108D01*
X859604Y636778D02*
X858355Y638028D01*
X855856D01*
X854606Y636778D01*
Y635528D01*
X855856Y634279D01*
X858355D01*
X859604Y633029D01*
Y631780D01*
X858355Y630530D01*
X855856D01*
X854606Y631780D01*
X862104Y638028D02*
X867102D01*
X864603D01*
Y630530D01*
X869601D02*
X872100D01*
X870851D01*
Y638028D01*
X869601Y636778D01*
X875849D02*
X877099Y638028D01*
X879598D01*
X880848Y636778D01*
Y631780D01*
X879598Y630530D01*
X877099D01*
X875849Y631780D01*
Y636778D01*
X883347Y638028D02*
Y633029D01*
X885846Y630530D01*
X888345Y633029D01*
Y638028D01*
X704190Y465308D02*
Y457810D01*
X707939D01*
X709188Y459060D01*
Y460309D01*
X707939Y461559D01*
X704190D01*
X707939D01*
X709188Y462808D01*
Y464058D01*
X707939Y465308D01*
X704190D01*
X711688Y457810D02*
Y462808D01*
X714187Y465308D01*
X716686Y462808D01*
Y457810D01*
Y461559D01*
X711688D01*
X719185Y465308D02*
X724184D01*
X721684D01*
Y457810D01*
X726683Y465308D02*
X731681D01*
X729182D01*
Y457810D01*
X734180D02*
X737929Y461559D01*
X734180Y465308D01*
X740428D02*
Y457810D01*
X744177D01*
X745427Y459060D01*
Y460309D01*
X744177Y461559D01*
X740428D01*
X744177D01*
X745427Y462808D01*
Y464058D01*
X744177Y465308D01*
X740428D01*
X752924Y464058D02*
X751675Y465308D01*
X749176D01*
X747926Y464058D01*
Y462808D01*
X749176Y461559D01*
X751675D01*
X752924Y460309D01*
Y459060D01*
X751675Y457810D01*
X749176D01*
X747926Y459060D01*
X755424Y465308D02*
X760422D01*
X757923D01*
Y457810D01*
X767920Y465308D02*
X765420Y464058D01*
X762921Y461559D01*
Y459060D01*
X764171Y457810D01*
X766670D01*
X767920Y459060D01*
Y460309D01*
X766670Y461559D01*
X762921D01*
X770419Y465308D02*
Y460309D01*
X772918Y457810D01*
X775417Y460309D01*
Y465308D01*
X799440Y236708D02*
Y229210D01*
X803189D01*
X804438Y230460D01*
Y231709D01*
X803189Y232959D01*
X799440D01*
X803189D01*
X804438Y234208D01*
Y235458D01*
X803189Y236708D01*
X799440D01*
X806938Y229210D02*
Y234208D01*
X809437Y236708D01*
X811936Y234208D01*
Y229210D01*
Y232959D01*
X806938D01*
X814435Y236708D02*
X819434D01*
X816934D01*
Y229210D01*
X821933Y236708D02*
X826931D01*
X824432D01*
Y229210D01*
X829430D02*
X833179Y232959D01*
X829430Y236708D01*
X835678D02*
Y229210D01*
Y232959D01*
X840677D01*
Y236708D01*
Y229210D01*
X848174Y236708D02*
X843176D01*
Y229210D01*
X848174D01*
X843176Y232959D02*
X845675D01*
X850674Y229210D02*
Y234208D01*
X853173Y236708D01*
X855672Y234208D01*
Y229210D01*
Y232959D01*
X850674D01*
X858171Y236708D02*
X863170D01*
X860670D01*
Y229210D01*
X801898Y361168D02*
X799399D01*
X800649D01*
Y354920D01*
X799399Y353670D01*
X798150D01*
X796900Y354920D01*
X809396Y353670D02*
X804398D01*
X809396Y358668D01*
Y359918D01*
X808146Y361168D01*
X805647D01*
X804398Y359918D01*
X356088Y484480D02*
X349840D01*
X348590Y483230D01*
Y480731D01*
X349840Y479482D01*
X356088D01*
X348590Y476982D02*
Y474483D01*
Y475733D01*
X356088D01*
X354838Y476982D01*
X348590Y470734D02*
Y468235D01*
Y469485D01*
X356088D01*
X354838Y470734D01*
X946760Y447528D02*
Y440030D01*
X951758D01*
X954258Y446278D02*
X955507Y447528D01*
X958006D01*
X959256Y446278D01*
Y445028D01*
X958006Y443779D01*
X956757D01*
X958006D01*
X959256Y442529D01*
Y441280D01*
X958006Y440030D01*
X955507D01*
X954258Y441280D01*
X915010Y471780D02*
Y479278D01*
X918759D01*
X920008Y478028D01*
Y475529D01*
X918759Y474279D01*
X915010D01*
X917509D02*
X920008Y471780D01*
X926256D02*
Y479278D01*
X922508Y475529D01*
X927506D01*
X930005Y471780D02*
X932504D01*
X931255D01*
Y479278D01*
X930005Y478028D01*
X1193018Y433680D02*
X1186770D01*
X1185520Y432430D01*
Y429931D01*
X1186770Y428682D01*
X1193018D01*
X1191768Y426182D02*
X1193018Y424933D01*
Y422434D01*
X1191768Y421184D01*
X1190518D01*
X1189269Y422434D01*
X1188019Y421184D01*
X1186770D01*
X1185520Y422434D01*
Y424933D01*
X1186770Y426182D01*
X1188019D01*
X1189269Y424933D01*
X1190518Y426182D01*
X1191768D01*
X1189269Y424933D02*
Y422434D01*
X1141070Y371450D02*
X1148568D01*
Y367701D01*
X1147318Y366452D01*
X1144819D01*
X1143569Y367701D01*
Y371450D01*
Y368951D02*
X1141070Y366452D01*
X1142320Y363952D02*
X1141070Y362703D01*
Y360204D01*
X1142320Y358954D01*
X1147318D01*
X1148568Y360204D01*
Y362703D01*
X1147318Y363952D01*
X1146068D01*
X1144819Y362703D01*
Y358954D01*
X1141070Y356455D02*
Y353956D01*
Y355205D01*
X1148568D01*
X1147318Y356455D01*
X1129640Y394310D02*
X1137138D01*
Y390561D01*
X1135888Y389312D01*
X1133389D01*
X1132139Y390561D01*
Y394310D01*
Y391811D02*
X1129640Y389312D01*
X1135888Y386812D02*
X1137138Y385563D01*
Y383064D01*
X1135888Y381814D01*
X1134638D01*
X1133389Y383064D01*
X1132139Y381814D01*
X1130890D01*
X1129640Y383064D01*
Y385563D01*
X1130890Y386812D01*
X1132139D01*
X1133389Y385563D01*
X1134638Y386812D01*
X1135888D01*
X1133389Y385563D02*
Y383064D01*
X1130890Y379315D02*
X1129640Y378065D01*
Y375566D01*
X1130890Y374316D01*
X1135888D01*
X1137138Y375566D01*
Y378065D01*
X1135888Y379315D01*
X1134638D01*
X1133389Y378065D01*
Y374316D01*
X1155040Y385420D02*
Y392918D01*
X1158789D01*
X1160038Y391668D01*
Y389169D01*
X1158789Y387919D01*
X1155040D01*
X1157539D02*
X1160038Y385420D01*
X1162538Y391668D02*
X1163787Y392918D01*
X1166286D01*
X1167536Y391668D01*
Y390418D01*
X1166286Y389169D01*
X1167536Y387919D01*
Y386670D01*
X1166286Y385420D01*
X1163787D01*
X1162538Y386670D01*
Y387919D01*
X1163787Y389169D01*
X1162538Y390418D01*
Y391668D01*
X1163787Y389169D02*
X1166286D01*
X1170035Y392918D02*
X1175034D01*
Y391668D01*
X1170035Y386670D01*
Y385420D01*
X1147318Y389312D02*
X1148568Y390561D01*
Y393060D01*
X1147318Y394310D01*
X1142320D01*
X1141070Y393060D01*
Y390561D01*
X1142320Y389312D01*
X1148568Y381814D02*
Y386812D01*
X1144819D01*
X1146068Y384313D01*
Y383064D01*
X1144819Y381814D01*
X1142320D01*
X1141070Y383064D01*
Y385563D01*
X1142320Y386812D01*
X1141070Y374316D02*
Y379315D01*
X1146068Y374316D01*
X1147318D01*
X1148568Y375566D01*
Y378065D01*
X1147318Y379315D01*
X1069868Y446278D02*
X1068619Y447528D01*
X1066120D01*
X1064870Y446278D01*
Y441280D01*
X1066120Y440030D01*
X1068619D01*
X1069868Y441280D01*
X1077366Y447528D02*
X1072368D01*
Y443779D01*
X1074867Y445028D01*
X1076116D01*
X1077366Y443779D01*
Y441280D01*
X1076116Y440030D01*
X1073617D01*
X1072368Y441280D01*
X1079865Y440030D02*
X1082364D01*
X1081115D01*
Y447528D01*
X1079865Y446278D01*
X1107948Y370262D02*
X1109198Y371511D01*
Y374010D01*
X1107948Y375260D01*
X1102950D01*
X1101700Y374010D01*
Y371511D01*
X1102950Y370262D01*
X1109198Y362764D02*
Y367762D01*
X1105449D01*
X1106698Y365263D01*
Y364014D01*
X1105449Y362764D01*
X1102950D01*
X1101700Y364014D01*
Y366513D01*
X1102950Y367762D01*
X1107948Y360265D02*
X1109198Y359015D01*
Y356516D01*
X1107948Y355266D01*
X1102950D01*
X1101700Y356516D01*
Y359015D01*
X1102950Y360265D01*
X1107948D01*
X1053358Y362458D02*
X1052109Y363708D01*
X1049610D01*
X1048360Y362458D01*
Y357460D01*
X1049610Y356210D01*
X1052109D01*
X1053358Y357460D01*
X1059606Y356210D02*
Y363708D01*
X1055858Y359959D01*
X1060856D01*
X1063355Y357460D02*
X1064605Y356210D01*
X1067104D01*
X1068354Y357460D01*
Y362458D01*
X1067104Y363708D01*
X1064605D01*
X1063355Y362458D01*
Y361208D01*
X1064605Y359959D01*
X1068354D01*
X1058418Y449002D02*
X1059668Y450251D01*
Y452750D01*
X1058418Y454000D01*
X1053420D01*
X1052170Y452750D01*
Y450251D01*
X1053420Y449002D01*
X1052170Y442754D02*
X1059668D01*
X1055919Y446502D01*
Y441504D01*
X1058418Y439005D02*
X1059668Y437755D01*
Y435256D01*
X1058418Y434006D01*
X1057168D01*
X1055919Y435256D01*
X1054669Y434006D01*
X1053420D01*
X1052170Y435256D01*
Y437755D01*
X1053420Y439005D01*
X1054669D01*
X1055919Y437755D01*
X1057168Y439005D01*
X1058418D01*
X1055919Y437755D02*
Y435256D01*
X1025398Y449002D02*
X1026648Y450251D01*
Y452750D01*
X1025398Y454000D01*
X1020400D01*
X1019150Y452750D01*
Y450251D01*
X1020400Y449002D01*
X1019150Y442754D02*
X1026648D01*
X1022899Y446502D01*
Y441504D01*
X1026648Y439005D02*
Y434006D01*
X1025398D01*
X1020400Y439005D01*
X1019150D01*
X1099160Y347198D02*
Y339700D01*
X1102909D01*
X1104158Y340950D01*
Y342199D01*
X1102909Y343449D01*
X1099160D01*
X1102909D01*
X1104158Y344698D01*
Y345948D01*
X1102909Y347198D01*
X1099160D01*
X1106658D02*
X1111656D01*
X1109157D01*
Y339700D01*
X1119154D02*
X1114155D01*
X1119154Y344698D01*
Y345948D01*
X1117904Y347198D01*
X1115405D01*
X1114155Y345948D01*
X1302360Y297790D02*
Y305288D01*
X1306109D01*
X1307358Y304038D01*
Y301539D01*
X1306109Y300289D01*
X1302360D01*
X1304859D02*
X1307358Y297790D01*
X1314856Y305288D02*
X1312357Y304038D01*
X1309858Y301539D01*
Y299040D01*
X1311107Y297790D01*
X1313606D01*
X1314856Y299040D01*
Y300289D01*
X1313606Y301539D01*
X1309858D01*
X1322354Y305288D02*
X1317355D01*
Y301539D01*
X1319854Y302788D01*
X1321104D01*
X1322354Y301539D01*
Y299040D01*
X1321104Y297790D01*
X1318605D01*
X1317355Y299040D01*
X1350538Y250780D02*
Y255778D01*
X1349289Y257028D01*
X1346790D01*
X1345540Y255778D01*
Y250780D01*
X1346790Y249530D01*
X1349289D01*
X1348039Y252029D02*
X1350538Y249530D01*
X1349289D02*
X1350538Y250780D01*
X1353038Y249530D02*
X1355537D01*
X1354287D01*
Y257028D01*
X1353038Y255778D01*
X1383558Y301580D02*
Y306578D01*
X1382309Y307828D01*
X1379810D01*
X1378560Y306578D01*
Y301580D01*
X1379810Y300330D01*
X1382309D01*
X1381059Y302829D02*
X1383558Y300330D01*
X1382309D02*
X1383558Y301580D01*
X1391056Y300330D02*
X1386058D01*
X1391056Y305328D01*
Y306578D01*
X1389806Y307828D01*
X1387307D01*
X1386058Y306578D01*
X824840Y647040D02*
Y654538D01*
X828589D01*
X829838Y653288D01*
Y650789D01*
X828589Y649539D01*
X824840D01*
X827339D02*
X829838Y647040D01*
X832338Y653288D02*
X833587Y654538D01*
X836086D01*
X837336Y653288D01*
Y652038D01*
X836086Y650789D01*
X837336Y649539D01*
Y648290D01*
X836086Y647040D01*
X833587D01*
X832338Y648290D01*
Y649539D01*
X833587Y650789D01*
X832338Y652038D01*
Y653288D01*
X833587Y650789D02*
X836086D01*
X844834Y654538D02*
X842334Y653288D01*
X839835Y650789D01*
Y648290D01*
X841085Y647040D01*
X843584D01*
X844834Y648290D01*
Y649539D01*
X843584Y650789D01*
X839835D01*
X992378Y485832D02*
X993628Y487081D01*
Y489580D01*
X992378Y490830D01*
X987380D01*
X986130Y489580D01*
Y487081D01*
X987380Y485832D01*
X986130Y478334D02*
Y483332D01*
X991128Y478334D01*
X992378D01*
X993628Y479584D01*
Y482083D01*
X992378Y483332D01*
Y475835D02*
X993628Y474585D01*
Y472086D01*
X992378Y470836D01*
X991128D01*
X989879Y472086D01*
X988629Y470836D01*
X987380D01*
X986130Y472086D01*
Y474585D01*
X987380Y475835D01*
X988629D01*
X989879Y474585D01*
X991128Y475835D01*
X992378D01*
X989879Y474585D02*
Y472086D01*
X1147420Y579608D02*
Y573360D01*
X1148670Y572110D01*
X1151169D01*
X1152418Y573360D01*
Y579608D01*
X1154918Y578358D02*
X1156167Y579608D01*
X1158666D01*
X1159916Y578358D01*
Y577108D01*
X1158666Y575859D01*
X1159916Y574609D01*
Y573360D01*
X1158666Y572110D01*
X1156167D01*
X1154918Y573360D01*
Y574609D01*
X1156167Y575859D01*
X1154918Y577108D01*
Y578358D01*
X1156167Y575859D02*
X1158666D01*
X1265530Y583540D02*
Y591038D01*
X1268029Y588538D01*
X1270528Y591038D01*
Y583540D01*
X1276776Y591038D02*
X1274277D01*
X1273028Y589788D01*
Y584790D01*
X1274277Y583540D01*
X1276776D01*
X1278026Y584790D01*
Y589788D01*
X1276776Y591038D01*
X1280525D02*
X1285524D01*
X1283024D01*
Y583540D01*
X1291772Y591038D02*
X1289272D01*
X1288023Y589788D01*
Y584790D01*
X1289272Y583540D01*
X1291772D01*
X1293021Y584790D01*
Y589788D01*
X1291772Y591038D01*
X1295520Y583540D02*
Y591038D01*
X1299269D01*
X1300519Y589788D01*
Y587289D01*
X1299269Y586039D01*
X1295520D01*
X1298020D02*
X1300519Y583540D01*
X1303018Y582290D02*
X1308016D01*
X1310516Y591038D02*
Y583540D01*
X1314264D01*
X1315514Y584790D01*
Y589788D01*
X1314264Y591038D01*
X1310516D01*
X1318013Y583540D02*
Y591038D01*
X1321762D01*
X1323012Y589788D01*
Y587289D01*
X1321762Y586039D01*
X1318013D01*
X1320512D02*
X1323012Y583540D01*
X1325511Y591038D02*
Y586039D01*
X1328010Y583540D01*
X1330509Y586039D01*
Y591038D01*
X1338007Y583540D02*
X1333008D01*
X1338007Y588538D01*
Y589788D01*
X1336757Y591038D01*
X1334258D01*
X1333008Y589788D01*
X1298550Y339700D02*
Y347198D01*
X1301049Y344698D01*
X1303548Y347198D01*
Y339700D01*
X1309796Y347198D02*
X1307297D01*
X1306048Y345948D01*
Y340950D01*
X1307297Y339700D01*
X1309796D01*
X1311046Y340950D01*
Y345948D01*
X1309796Y347198D01*
X1313545D02*
X1318544D01*
X1316044D01*
Y339700D01*
X1324792Y347198D02*
X1322292D01*
X1321043Y345948D01*
Y340950D01*
X1322292Y339700D01*
X1324792D01*
X1326041Y340950D01*
Y345948D01*
X1324792Y347198D01*
X1328540Y339700D02*
Y347198D01*
X1332289D01*
X1333539Y345948D01*
Y343449D01*
X1332289Y342199D01*
X1328540D01*
X1331040D02*
X1333539Y339700D01*
X1336038Y338450D02*
X1341036D01*
X1343536Y347198D02*
Y339700D01*
X1347284D01*
X1348534Y340950D01*
Y345948D01*
X1347284Y347198D01*
X1343536D01*
X1351033Y339700D02*
Y347198D01*
X1354782D01*
X1356032Y345948D01*
Y343449D01*
X1354782Y342199D01*
X1351033D01*
X1353532D02*
X1356032Y339700D01*
X1358531Y347198D02*
Y342199D01*
X1361030Y339700D01*
X1363529Y342199D01*
Y347198D01*
X1366028Y339700D02*
X1368528D01*
X1367278D01*
Y347198D01*
X1366028Y345948D01*
X578460Y714350D02*
Y721848D01*
X582209D01*
X583458Y720598D01*
Y718099D01*
X582209Y716849D01*
X578460D01*
X580959D02*
X583458Y714350D01*
X585958Y721848D02*
X590956D01*
Y720598D01*
X585958Y715600D01*
Y714350D01*
X593455Y720598D02*
X594705Y721848D01*
X597204D01*
X598454Y720598D01*
Y719348D01*
X597204Y718099D01*
X598454Y716849D01*
Y715600D01*
X597204Y714350D01*
X594705D01*
X593455Y715600D01*
Y716849D01*
X594705Y718099D01*
X593455Y719348D01*
Y720598D01*
X594705Y718099D02*
X597204D01*
X937870Y471780D02*
Y479278D01*
X941619D01*
X942868Y478028D01*
Y475529D01*
X941619Y474279D01*
X937870D01*
X940369D02*
X942868Y471780D01*
X945368Y479278D02*
X950366D01*
Y478028D01*
X945368Y473030D01*
Y471780D01*
X952865Y478028D02*
X954115Y479278D01*
X956614D01*
X957864Y478028D01*
Y476778D01*
X956614Y475529D01*
X957864Y474279D01*
Y473030D01*
X956614Y471780D01*
X954115D01*
X952865Y473030D01*
Y474279D01*
X954115Y475529D01*
X952865Y476778D01*
Y478028D01*
X954115Y475529D02*
X956614D01*
X842620Y591160D02*
Y598658D01*
X846369D01*
X847618Y597408D01*
Y594909D01*
X846369Y593659D01*
X842620D01*
X845119D02*
X847618Y591160D01*
X850118Y598658D02*
X855116D01*
Y597408D01*
X850118Y592410D01*
Y591160D01*
X857615Y597408D02*
X858865Y598658D01*
X861364D01*
X862614Y597408D01*
Y596158D01*
X861364Y594909D01*
X862614Y593659D01*
Y592410D01*
X861364Y591160D01*
X858865D01*
X857615Y592410D01*
Y593659D01*
X858865Y594909D01*
X857615Y596158D01*
Y597408D01*
X858865Y594909D02*
X861364D01*
X591160Y700380D02*
Y707878D01*
X594909D01*
X596158Y706628D01*
Y704129D01*
X594909Y702879D01*
X591160D01*
X593659D02*
X596158Y700380D01*
X598658Y707878D02*
X603656D01*
Y706628D01*
X598658Y701630D01*
Y700380D01*
X611154Y707878D02*
X608654Y706628D01*
X606155Y704129D01*
Y701630D01*
X607405Y700380D01*
X609904D01*
X611154Y701630D01*
Y702879D01*
X609904Y704129D01*
X606155D01*
X922630Y245720D02*
X930128D01*
Y241971D01*
X928878Y240722D01*
X926379D01*
X925129Y241971D01*
Y245720D01*
Y243221D02*
X922630Y240722D01*
X930128Y233224D02*
X928878Y235723D01*
X926379Y238222D01*
X923880D01*
X922630Y236973D01*
Y234474D01*
X923880Y233224D01*
X925129D01*
X926379Y234474D01*
Y238222D01*
X930128Y225726D02*
X928878Y228226D01*
X926379Y230725D01*
X923880D01*
X922630Y229475D01*
Y226976D01*
X923880Y225726D01*
X925129D01*
X926379Y226976D01*
Y230725D01*
X1014070Y245720D02*
X1021568D01*
Y241971D01*
X1020318Y240722D01*
X1017819D01*
X1016569Y241971D01*
Y245720D01*
Y243221D02*
X1014070Y240722D01*
X1021568Y233224D02*
X1020318Y235723D01*
X1017819Y238222D01*
X1015320D01*
X1014070Y236973D01*
Y234474D01*
X1015320Y233224D01*
X1016569D01*
X1017819Y234474D01*
Y238222D01*
X1021568Y225726D02*
X1020318Y228226D01*
X1017819Y230725D01*
X1015320D01*
X1014070Y229475D01*
Y226976D01*
X1015320Y225726D01*
X1016569D01*
X1017819Y226976D01*
Y230725D01*
X1101700Y245720D02*
X1109198D01*
Y241971D01*
X1107948Y240722D01*
X1105449D01*
X1104199Y241971D01*
Y245720D01*
Y243221D02*
X1101700Y240722D01*
X1109198Y233224D02*
X1107948Y235723D01*
X1105449Y238222D01*
X1102950D01*
X1101700Y236973D01*
Y234474D01*
X1102950Y233224D01*
X1104199D01*
X1105449Y234474D01*
Y238222D01*
X1109198Y225726D02*
X1107948Y228226D01*
X1105449Y230725D01*
X1102950D01*
X1101700Y229475D01*
Y226976D01*
X1102950Y225726D01*
X1104199D01*
X1105449Y226976D01*
Y230725D01*
X1194500Y245750D02*
X1201998D01*
Y242001D01*
X1200748Y240752D01*
X1198249D01*
X1196999Y242001D01*
Y245750D01*
Y243251D02*
X1194500Y240752D01*
X1201998Y233254D02*
X1200748Y235753D01*
X1198249Y238252D01*
X1195750D01*
X1194500Y237003D01*
Y234504D01*
X1195750Y233254D01*
X1196999D01*
X1198249Y234504D01*
Y238252D01*
X1201998Y225756D02*
X1200748Y228256D01*
X1198249Y230755D01*
X1195750D01*
X1194500Y229505D01*
Y227006D01*
X1195750Y225756D01*
X1196999D01*
X1198249Y227006D01*
Y230755D01*
X979780Y241910D02*
Y249408D01*
X983529D01*
X984778Y248158D01*
Y245659D01*
X983529Y244409D01*
X979780D01*
X982279D02*
X984778Y241910D01*
X992276Y249408D02*
X989777Y248158D01*
X987278Y245659D01*
Y243160D01*
X988527Y241910D01*
X991026D01*
X992276Y243160D01*
Y244409D01*
X991026Y245659D01*
X987278D01*
X999774Y249408D02*
X994775D01*
Y245659D01*
X997274Y246908D01*
X998524D01*
X999774Y245659D01*
Y243160D01*
X998524Y241910D01*
X996025D01*
X994775Y243160D01*
X1069950Y240640D02*
Y248138D01*
X1073699D01*
X1074948Y246888D01*
Y244389D01*
X1073699Y243139D01*
X1069950D01*
X1072449D02*
X1074948Y240640D01*
X1082446Y248138D02*
X1079947Y246888D01*
X1077448Y244389D01*
Y241890D01*
X1078697Y240640D01*
X1081196D01*
X1082446Y241890D01*
Y243139D01*
X1081196Y244389D01*
X1077448D01*
X1089944Y248138D02*
X1084945D01*
Y244389D01*
X1087444Y245638D01*
X1088694D01*
X1089944Y244389D01*
Y241890D01*
X1088694Y240640D01*
X1086195D01*
X1084945Y241890D01*
X1157580Y240640D02*
Y248138D01*
X1161329D01*
X1162578Y246888D01*
Y244389D01*
X1161329Y243139D01*
X1157580D01*
X1160079D02*
X1162578Y240640D01*
X1170076Y248138D02*
X1167577Y246888D01*
X1165078Y244389D01*
Y241890D01*
X1166327Y240640D01*
X1168826D01*
X1170076Y241890D01*
Y243139D01*
X1168826Y244389D01*
X1165078D01*
X1177574Y248138D02*
X1172575D01*
Y244389D01*
X1175074Y245638D01*
X1176324D01*
X1177574Y244389D01*
Y241890D01*
X1176324Y240640D01*
X1173825D01*
X1172575Y241890D01*
X1251560Y240640D02*
Y248138D01*
X1255309D01*
X1256558Y246888D01*
Y244389D01*
X1255309Y243139D01*
X1251560D01*
X1254059D02*
X1256558Y240640D01*
X1264056Y248138D02*
X1261557Y246888D01*
X1259058Y244389D01*
Y241890D01*
X1260307Y240640D01*
X1262806D01*
X1264056Y241890D01*
Y243139D01*
X1262806Y244389D01*
X1259058D01*
X1271554Y248138D02*
X1266555D01*
Y244389D01*
X1269054Y245638D01*
X1270304D01*
X1271554Y244389D01*
Y241890D01*
X1270304Y240640D01*
X1267805D01*
X1266555Y241890D01*
X1389990Y517500D02*
X1397488D01*
Y513751D01*
X1396238Y512502D01*
X1393739D01*
X1392489Y513751D01*
Y517500D01*
Y515001D02*
X1389990Y512502D01*
X1397488Y505004D02*
Y510002D01*
X1393739D01*
X1394988Y507503D01*
Y506254D01*
X1393739Y505004D01*
X1391240D01*
X1389990Y506254D01*
Y508753D01*
X1391240Y510002D01*
X1397488Y502505D02*
Y497506D01*
X1396238D01*
X1391240Y502505D01*
X1389990D01*
X1393800Y352400D02*
X1401298D01*
Y348651D01*
X1400048Y347402D01*
X1397549D01*
X1396299Y348651D01*
Y352400D01*
Y349901D02*
X1393800Y347402D01*
X1401298Y339904D02*
Y344902D01*
X1397549D01*
X1398798Y342403D01*
Y341154D01*
X1397549Y339904D01*
X1395050D01*
X1393800Y341154D01*
Y343653D01*
X1395050Y344902D01*
X1401298Y337405D02*
Y332406D01*
X1400048D01*
X1395050Y337405D01*
X1393800D01*
X1374750Y517500D02*
X1382248D01*
Y513751D01*
X1380998Y512502D01*
X1378499D01*
X1377249Y513751D01*
Y517500D01*
Y515001D02*
X1374750Y512502D01*
X1382248Y505004D02*
Y510002D01*
X1378499D01*
X1379748Y507503D01*
Y506254D01*
X1378499Y505004D01*
X1376000D01*
X1374750Y506254D01*
Y508753D01*
X1376000Y510002D01*
X1382248Y497506D02*
X1380998Y500006D01*
X1378499Y502505D01*
X1376000D01*
X1374750Y501255D01*
Y498756D01*
X1376000Y497506D01*
X1377249D01*
X1378499Y498756D01*
Y502505D01*
X1377290Y352400D02*
X1384788D01*
Y348651D01*
X1383538Y347402D01*
X1381039D01*
X1379789Y348651D01*
Y352400D01*
Y349901D02*
X1377290Y347402D01*
X1384788Y339904D02*
Y344902D01*
X1381039D01*
X1382288Y342403D01*
Y341154D01*
X1381039Y339904D01*
X1378540D01*
X1377290Y341154D01*
Y343653D01*
X1378540Y344902D01*
X1384788Y332406D02*
X1383538Y334906D01*
X1381039Y337405D01*
X1378540D01*
X1377290Y336155D01*
Y333656D01*
X1378540Y332406D01*
X1379789D01*
X1381039Y333656D01*
Y337405D01*
X1369670Y592430D02*
X1377168D01*
Y588681D01*
X1375918Y587432D01*
X1373419D01*
X1372169Y588681D01*
Y592430D01*
Y589931D02*
X1369670Y587432D01*
X1377168Y579934D02*
Y584932D01*
X1373419D01*
X1374668Y582433D01*
Y581184D01*
X1373419Y579934D01*
X1370920D01*
X1369670Y581184D01*
Y583683D01*
X1370920Y584932D01*
X1377168Y572436D02*
Y577435D01*
X1373419D01*
X1374668Y574936D01*
Y573686D01*
X1373419Y572436D01*
X1370920D01*
X1369670Y573686D01*
Y576185D01*
X1370920Y577435D01*
X1373480Y428600D02*
X1380978D01*
Y424851D01*
X1379728Y423602D01*
X1377229D01*
X1375979Y424851D01*
Y428600D01*
Y426101D02*
X1373480Y423602D01*
X1380978Y416104D02*
Y421102D01*
X1377229D01*
X1378478Y418603D01*
Y417354D01*
X1377229Y416104D01*
X1374730D01*
X1373480Y417354D01*
Y419853D01*
X1374730Y421102D01*
X1380978Y408606D02*
Y413605D01*
X1377229D01*
X1378478Y411106D01*
Y409856D01*
X1377229Y408606D01*
X1374730D01*
X1373480Y409856D01*
Y412355D01*
X1374730Y413605D01*
X1386180Y592430D02*
X1393678D01*
Y588681D01*
X1392428Y587432D01*
X1389929D01*
X1388679Y588681D01*
Y592430D01*
Y589931D02*
X1386180Y587432D01*
X1393678Y579934D02*
Y584932D01*
X1389929D01*
X1391178Y582433D01*
Y581184D01*
X1389929Y579934D01*
X1387430D01*
X1386180Y581184D01*
Y583683D01*
X1387430Y584932D01*
X1386180Y573686D02*
X1393678D01*
X1389929Y577435D01*
Y572436D01*
X1388720Y428600D02*
X1396218D01*
Y424851D01*
X1394968Y423602D01*
X1392469D01*
X1391219Y424851D01*
Y428600D01*
Y426101D02*
X1388720Y423602D01*
X1396218Y416104D02*
Y421102D01*
X1392469D01*
X1393718Y418603D01*
Y417354D01*
X1392469Y416104D01*
X1389970D01*
X1388720Y417354D01*
Y419853D01*
X1389970Y421102D01*
X1388720Y409856D02*
X1396218D01*
X1392469Y413605D01*
Y408606D01*
X995020Y394310D02*
Y401808D01*
X998769D01*
X1000018Y400558D01*
Y398059D01*
X998769Y396809D01*
X995020D01*
X997519D02*
X1000018Y394310D01*
X1002518Y400558D02*
X1003767Y401808D01*
X1006266D01*
X1007516Y400558D01*
Y399308D01*
X1006266Y398059D01*
X1005017D01*
X1006266D01*
X1007516Y396809D01*
Y395560D01*
X1006266Y394310D01*
X1003767D01*
X1002518Y395560D01*
X1010015Y400558D02*
X1011265Y401808D01*
X1013764D01*
X1015014Y400558D01*
Y399308D01*
X1013764Y398059D01*
X1015014Y396809D01*
Y395560D01*
X1013764Y394310D01*
X1011265D01*
X1010015Y395560D01*
Y396809D01*
X1011265Y398059D01*
X1010015Y399308D01*
Y400558D01*
X1011265Y398059D02*
X1013764D01*
X705460Y442570D02*
Y450068D01*
X709209D01*
X710458Y448818D01*
Y446319D01*
X709209Y445069D01*
X705460D01*
X707959D02*
X710458Y442570D01*
X712958Y448818D02*
X714207Y450068D01*
X716706D01*
X717956Y448818D01*
Y447568D01*
X716706Y446319D01*
X715457D01*
X716706D01*
X717956Y445069D01*
Y443820D01*
X716706Y442570D01*
X714207D01*
X712958Y443820D01*
X720455Y450068D02*
X725454D01*
Y448818D01*
X720455Y443820D01*
Y442570D01*
X817220Y591160D02*
Y598658D01*
X820969D01*
X822218Y597408D01*
Y594909D01*
X820969Y593659D01*
X817220D01*
X819719D02*
X822218Y591160D01*
X824718Y597408D02*
X825967Y598658D01*
X828466D01*
X829716Y597408D01*
Y596158D01*
X828466Y594909D01*
X827217D01*
X828466D01*
X829716Y593659D01*
Y592410D01*
X828466Y591160D01*
X825967D01*
X824718Y592410D01*
X837214Y598658D02*
X834714Y597408D01*
X832215Y594909D01*
Y592410D01*
X833465Y591160D01*
X835964D01*
X837214Y592410D01*
Y593659D01*
X835964Y594909D01*
X832215D01*
X1110590Y603860D02*
X1118088D01*
Y600111D01*
X1116838Y598862D01*
X1114339D01*
X1113089Y600111D01*
Y603860D01*
Y601361D02*
X1110590Y598862D01*
X1116838Y596362D02*
X1118088Y595113D01*
Y592614D01*
X1116838Y591364D01*
X1115588D01*
X1114339Y592614D01*
Y593863D01*
Y592614D01*
X1113089Y591364D01*
X1111840D01*
X1110590Y592614D01*
Y595113D01*
X1111840Y596362D01*
X1118088Y583866D02*
Y588865D01*
X1114339D01*
X1115588Y586366D01*
Y585116D01*
X1114339Y583866D01*
X1111840D01*
X1110590Y585116D01*
Y587615D01*
X1111840Y588865D01*
X1087730Y603860D02*
X1095228D01*
Y600111D01*
X1093978Y598862D01*
X1091479D01*
X1090229Y600111D01*
Y603860D01*
Y601361D02*
X1087730Y598862D01*
X1093978Y596362D02*
X1095228Y595113D01*
Y592614D01*
X1093978Y591364D01*
X1092728D01*
X1091479Y592614D01*
Y593863D01*
Y592614D01*
X1090229Y591364D01*
X1088980D01*
X1087730Y592614D01*
Y595113D01*
X1088980Y596362D01*
X1087730Y585116D02*
X1095228D01*
X1091479Y588865D01*
Y583866D01*
X1043280Y588620D02*
Y596118D01*
X1047029D01*
X1048278Y594868D01*
Y592369D01*
X1047029Y591119D01*
X1043280D01*
X1045779D02*
X1048278Y588620D01*
X1050778Y594868D02*
X1052027Y596118D01*
X1054526D01*
X1055776Y594868D01*
Y593618D01*
X1054526Y592369D01*
X1053277D01*
X1054526D01*
X1055776Y591119D01*
Y589870D01*
X1054526Y588620D01*
X1052027D01*
X1050778Y589870D01*
X1058275Y594868D02*
X1059525Y596118D01*
X1062024D01*
X1063274Y594868D01*
Y593618D01*
X1062024Y592369D01*
X1060774D01*
X1062024D01*
X1063274Y591119D01*
Y589870D01*
X1062024Y588620D01*
X1059525D01*
X1058275Y589870D01*
X1122020Y592430D02*
X1129518D01*
Y588681D01*
X1128268Y587432D01*
X1125769D01*
X1124519Y588681D01*
Y592430D01*
Y589931D02*
X1122020Y587432D01*
X1128268Y584932D02*
X1129518Y583683D01*
Y581184D01*
X1128268Y579934D01*
X1127018D01*
X1125769Y581184D01*
Y582433D01*
Y581184D01*
X1124519Y579934D01*
X1123270D01*
X1122020Y581184D01*
Y583683D01*
X1123270Y584932D01*
X1122020Y572436D02*
Y577435D01*
X1127018Y572436D01*
X1128268D01*
X1129518Y573686D01*
Y576185D01*
X1128268Y577435D01*
X1020500Y545250D02*
Y552748D01*
X1024249D01*
X1025498Y551498D01*
Y548999D01*
X1024249Y547749D01*
X1020500D01*
X1022999D02*
X1025498Y545250D01*
X1027998Y551498D02*
X1029247Y552748D01*
X1031746D01*
X1032996Y551498D01*
Y550248D01*
X1031746Y548999D01*
X1030497D01*
X1031746D01*
X1032996Y547749D01*
Y546500D01*
X1031746Y545250D01*
X1029247D01*
X1027998Y546500D01*
X1035495Y545250D02*
X1037994D01*
X1036745D01*
Y552748D01*
X1035495Y551498D01*
X1061060Y545440D02*
Y552938D01*
X1064809D01*
X1066058Y551688D01*
Y549189D01*
X1064809Y547939D01*
X1061060D01*
X1063559D02*
X1066058Y545440D01*
X1068558Y551688D02*
X1069807Y552938D01*
X1072306D01*
X1073556Y551688D01*
Y550438D01*
X1072306Y549189D01*
X1071057D01*
X1072306D01*
X1073556Y547939D01*
Y546690D01*
X1072306Y545440D01*
X1069807D01*
X1068558Y546690D01*
X1076055Y551688D02*
X1077305Y552938D01*
X1079804D01*
X1081054Y551688D01*
Y546690D01*
X1079804Y545440D01*
X1077305D01*
X1076055Y546690D01*
Y551688D01*
X993750Y581000D02*
X1001248D01*
Y577251D01*
X999998Y576002D01*
X997499D01*
X996249Y577251D01*
Y581000D01*
Y578501D02*
X993750Y576002D01*
Y568504D02*
Y573502D01*
X998748Y568504D01*
X999998D01*
X1001248Y569754D01*
Y572253D01*
X999998Y573502D01*
X995000Y566005D02*
X993750Y564755D01*
Y562256D01*
X995000Y561006D01*
X999998D01*
X1001248Y562256D01*
Y564755D01*
X999998Y566005D01*
X998748D01*
X997499Y564755D01*
Y561006D01*
X1174090Y569570D02*
Y577068D01*
X1177839D01*
X1179088Y575818D01*
Y573319D01*
X1177839Y572069D01*
X1174090D01*
X1176589D02*
X1179088Y569570D01*
X1186586D02*
X1181588D01*
X1186586Y574568D01*
Y575818D01*
X1185336Y577068D01*
X1182837D01*
X1181588Y575818D01*
X1189085D02*
X1190335Y577068D01*
X1192834D01*
X1194084Y575818D01*
Y574568D01*
X1192834Y573319D01*
X1194084Y572069D01*
Y570820D01*
X1192834Y569570D01*
X1190335D01*
X1189085Y570820D01*
Y572069D01*
X1190335Y573319D01*
X1189085Y574568D01*
Y575818D01*
X1190335Y573319D02*
X1192834D01*
X1019150Y588620D02*
Y596118D01*
X1022899D01*
X1024148Y594868D01*
Y592369D01*
X1022899Y591119D01*
X1019150D01*
X1021649D02*
X1024148Y588620D01*
X1031646D02*
X1026648D01*
X1031646Y593618D01*
Y594868D01*
X1030396Y596118D01*
X1027897D01*
X1026648Y594868D01*
X1034145Y596118D02*
X1039144D01*
Y594868D01*
X1034145Y589870D01*
Y588620D01*
X916280Y565760D02*
Y573258D01*
X920029D01*
X921278Y572008D01*
Y569509D01*
X920029Y568259D01*
X916280D01*
X918779D02*
X921278Y565760D01*
X928776D02*
X923778D01*
X928776Y570758D01*
Y572008D01*
X927526Y573258D01*
X925027D01*
X923778Y572008D01*
X936274Y573258D02*
X933774Y572008D01*
X931275Y569509D01*
Y567010D01*
X932525Y565760D01*
X935024D01*
X936274Y567010D01*
Y568259D01*
X935024Y569509D01*
X931275D01*
X898500Y551790D02*
Y559288D01*
X902249D01*
X903498Y558038D01*
Y555539D01*
X902249Y554289D01*
X898500D01*
X900999D02*
X903498Y551790D01*
X910996D02*
X905998D01*
X910996Y556788D01*
Y558038D01*
X909746Y559288D01*
X907247D01*
X905998Y558038D01*
X918494Y559288D02*
X913495D01*
Y555539D01*
X915994Y556788D01*
X917244D01*
X918494Y555539D01*
Y553040D01*
X917244Y551790D01*
X914745D01*
X913495Y553040D01*
X843890Y215240D02*
Y222738D01*
X847639D01*
X848888Y221488D01*
Y218989D01*
X847639Y217739D01*
X843890D01*
X846389D02*
X848888Y215240D01*
X851388Y222738D02*
X856386D01*
Y221488D01*
X851388Y216490D01*
Y215240D01*
X702920Y572110D02*
Y579608D01*
X706669D01*
X707918Y578358D01*
Y575859D01*
X706669Y574609D01*
X702920D01*
X705419D02*
X707918Y572110D01*
X710418Y578358D02*
X711667Y579608D01*
X714166D01*
X715416Y578358D01*
Y577108D01*
X714166Y575859D01*
X712917D01*
X714166D01*
X715416Y574609D01*
Y573360D01*
X714166Y572110D01*
X711667D01*
X710418Y573360D01*
X986048Y212700D02*
Y217698D01*
X984799Y218948D01*
X982300D01*
X981050Y217698D01*
Y212700D01*
X982300Y211450D01*
X984799D01*
X983549Y213950D02*
X986048Y211450D01*
X984799D02*
X986048Y212700D01*
X993546Y211450D02*
X988548D01*
X993546Y216449D01*
Y217698D01*
X992296Y218948D01*
X989797D01*
X988548Y217698D01*
X1077488Y213950D02*
Y218948D01*
X1076239Y220198D01*
X1073740D01*
X1072490Y218948D01*
Y213950D01*
X1073740Y212700D01*
X1076239D01*
X1074989Y215199D02*
X1077488Y212700D01*
X1076239D02*
X1077488Y213950D01*
X1084986Y212700D02*
X1079988D01*
X1084986Y217698D01*
Y218948D01*
X1083736Y220198D01*
X1081237D01*
X1079988Y218948D01*
X1163848Y212700D02*
Y217698D01*
X1162599Y218948D01*
X1160100D01*
X1158850Y217698D01*
Y212700D01*
X1160100Y211450D01*
X1162599D01*
X1161349Y213950D02*
X1163848Y211450D01*
X1162599D02*
X1163848Y212700D01*
X1171346Y211450D02*
X1166348D01*
X1171346Y216449D01*
Y217698D01*
X1170096Y218948D01*
X1167597D01*
X1166348Y217698D01*
X1256558Y213950D02*
Y218948D01*
X1255309Y220198D01*
X1252810D01*
X1251560Y218948D01*
Y213950D01*
X1252810Y212700D01*
X1255309D01*
X1254059Y215199D02*
X1256558Y212700D01*
X1255309D02*
X1256558Y213950D01*
X1264056Y212700D02*
X1259058D01*
X1264056Y217698D01*
Y218948D01*
X1262806Y220198D01*
X1260307D01*
X1259058Y218948D01*
X956838Y283800D02*
Y288798D01*
X955589Y290048D01*
X953090D01*
X951840Y288798D01*
Y283800D01*
X953090Y282550D01*
X955589D01*
X954339Y285049D02*
X956838Y282550D01*
X955589D02*
X956838Y283800D01*
X959338Y282550D02*
X961837D01*
X960587D01*
Y290048D01*
X959338Y288798D01*
X1045738Y283800D02*
Y288798D01*
X1044489Y290048D01*
X1041990D01*
X1040740Y288798D01*
Y283800D01*
X1041990Y282550D01*
X1044489D01*
X1043239Y285049D02*
X1045738Y282550D01*
X1044489D02*
X1045738Y283800D01*
X1048238Y282550D02*
X1050737D01*
X1049487D01*
Y290048D01*
X1048238Y288798D01*
X1134638Y283800D02*
Y288798D01*
X1133389Y290048D01*
X1130890D01*
X1129640Y288798D01*
Y283800D01*
X1130890Y282550D01*
X1133389D01*
X1132139Y285049D02*
X1134638Y282550D01*
X1133389D02*
X1134638Y283800D01*
X1137138Y282550D02*
X1139637D01*
X1138387D01*
Y290048D01*
X1137138Y288798D01*
X1226078Y283800D02*
Y288798D01*
X1224829Y290048D01*
X1222330D01*
X1221080Y288798D01*
Y283800D01*
X1222330Y282550D01*
X1224829D01*
X1223579Y285049D02*
X1226078Y282550D01*
X1224829D02*
X1226078Y283800D01*
X1228578Y282550D02*
X1231077D01*
X1229827D01*
Y290048D01*
X1228578Y288798D01*
X808330Y583418D02*
Y575920D01*
X813328D01*
X820826D02*
X815828D01*
X820826Y580918D01*
Y582168D01*
X819576Y583418D01*
X817077D01*
X815828Y582168D01*
X1222350Y467970D02*
Y472968D01*
X1226099D01*
X1227348Y471719D01*
Y467970D01*
X1234846Y474218D02*
X1233596Y475468D01*
X1231097D01*
X1229848Y474218D01*
Y472968D01*
X1231097Y471719D01*
X1233596D01*
X1234846Y470469D01*
Y469220D01*
X1233596Y467970D01*
X1231097D01*
X1229848Y469220D01*
X1237345Y475468D02*
Y467970D01*
X1242344D01*
X1249841Y475468D02*
X1244843D01*
Y467970D01*
X1249841D01*
X1244843Y471719D02*
X1247342D01*
X1257339Y475468D02*
X1252340D01*
Y467970D01*
X1257339D01*
X1252340Y471719D02*
X1254840D01*
X1259838Y467970D02*
Y475468D01*
X1263587D01*
X1264836Y474218D01*
Y471719D01*
X1263587Y470469D01*
X1259838D01*
X1227430Y334620D02*
Y339618D01*
X1231179D01*
X1232428Y338369D01*
Y334620D01*
X1239926Y340868D02*
X1238676Y342118D01*
X1236177D01*
X1234928Y340868D01*
Y339618D01*
X1236177Y338369D01*
X1238676D01*
X1239926Y337119D01*
Y335870D01*
X1238676Y334620D01*
X1236177D01*
X1234928Y335870D01*
X1242425Y342118D02*
Y334620D01*
X1247424D01*
X1254921Y342118D02*
X1249923D01*
Y334620D01*
X1254921D01*
X1249923Y338369D02*
X1252422D01*
X1262419Y342118D02*
X1257420D01*
Y334620D01*
X1262419D01*
X1257420Y338369D02*
X1259920D01*
X1264918Y334620D02*
Y342118D01*
X1268667D01*
X1269916Y340868D01*
Y338369D01*
X1268667Y337119D01*
X1264918D01*
X347238Y436118D02*
X345989Y437368D01*
X343490D01*
X342240Y436118D01*
Y431120D01*
X343490Y429870D01*
X345989D01*
X347238Y431120D01*
X354736Y437368D02*
X349738D01*
Y433619D01*
X352237Y434868D01*
X353486D01*
X354736Y433619D01*
Y431120D01*
X353486Y429870D01*
X350987D01*
X349738Y431120D01*
X362234Y437368D02*
X359734Y436118D01*
X357235Y433619D01*
Y431120D01*
X358485Y429870D01*
X360984D01*
X362234Y431120D01*
Y432369D01*
X360984Y433619D01*
X357235D01*
X1140968Y587432D02*
X1142218Y588681D01*
Y591180D01*
X1140968Y592430D01*
X1135970D01*
X1134720Y591180D01*
Y588681D01*
X1135970Y587432D01*
X1134720Y581184D02*
X1142218D01*
X1138469Y584932D01*
Y579934D01*
X1142218Y572436D02*
X1140968Y574936D01*
X1138469Y577435D01*
X1135970D01*
X1134720Y576185D01*
Y573686D01*
X1135970Y572436D01*
X1137219D01*
X1138469Y573686D01*
Y577435D01*
X1262888Y511232D02*
X1264138Y512481D01*
Y514980D01*
X1262888Y516230D01*
X1257890D01*
X1256640Y514980D01*
Y512481D01*
X1257890Y511232D01*
X1256640Y504984D02*
X1264138D01*
X1260389Y508732D01*
Y503734D01*
X1262888Y501235D02*
X1264138Y499985D01*
Y497486D01*
X1262888Y496236D01*
X1257890D01*
X1256640Y497486D01*
Y499985D01*
X1257890Y501235D01*
X1262888D01*
X1261618Y398202D02*
X1262868Y399451D01*
Y401950D01*
X1261618Y403200D01*
X1256620D01*
X1255370Y401950D01*
Y399451D01*
X1256620Y398202D01*
X1255370Y391954D02*
X1262868D01*
X1259119Y395702D01*
Y390704D01*
X1261618Y388205D02*
X1262868Y386955D01*
Y384456D01*
X1261618Y383206D01*
X1256620D01*
X1255370Y384456D01*
Y386955D01*
X1256620Y388205D01*
X1261618D01*
X1213378Y551688D02*
X1212129Y552938D01*
X1209630D01*
X1208380Y551688D01*
Y546690D01*
X1209630Y545440D01*
X1212129D01*
X1213378Y546690D01*
X1215878Y551688D02*
X1217127Y552938D01*
X1219626D01*
X1220876Y551688D01*
Y550438D01*
X1219626Y549189D01*
X1218377D01*
X1219626D01*
X1220876Y547939D01*
Y546690D01*
X1219626Y545440D01*
X1217127D01*
X1215878Y546690D01*
X1223375D02*
X1224625Y545440D01*
X1227124D01*
X1228374Y546690D01*
Y551688D01*
X1227124Y552938D01*
X1224625D01*
X1223375Y551688D01*
Y550438D01*
X1224625Y549189D01*
X1228374D01*
X1217188Y363728D02*
X1215939Y364978D01*
X1213440D01*
X1212190Y363728D01*
Y358730D01*
X1213440Y357480D01*
X1215939D01*
X1217188Y358730D01*
X1219688Y363728D02*
X1220937Y364978D01*
X1223436D01*
X1224686Y363728D01*
Y362478D01*
X1223436Y361229D01*
X1222187D01*
X1223436D01*
X1224686Y359979D01*
Y358730D01*
X1223436Y357480D01*
X1220937D01*
X1219688Y358730D01*
X1227185D02*
X1228435Y357480D01*
X1230934D01*
X1232184Y358730D01*
Y363728D01*
X1230934Y364978D01*
X1228435D01*
X1227185Y363728D01*
Y362478D01*
X1228435Y361229D01*
X1232184D01*
X1213378Y564388D02*
X1212129Y565638D01*
X1209630D01*
X1208380Y564388D01*
Y559390D01*
X1209630Y558140D01*
X1212129D01*
X1213378Y559390D01*
X1215878Y564388D02*
X1217127Y565638D01*
X1219626D01*
X1220876Y564388D01*
Y563138D01*
X1219626Y561889D01*
X1218377D01*
X1219626D01*
X1220876Y560639D01*
Y559390D01*
X1219626Y558140D01*
X1217127D01*
X1215878Y559390D01*
X1223375Y564388D02*
X1224625Y565638D01*
X1227124D01*
X1228374Y564388D01*
Y563138D01*
X1227124Y561889D01*
X1228374Y560639D01*
Y559390D01*
X1227124Y558140D01*
X1224625D01*
X1223375Y559390D01*
Y560639D01*
X1224625Y561889D01*
X1223375Y563138D01*
Y564388D01*
X1224625Y561889D02*
X1227124D01*
X1217188Y375158D02*
X1215939Y376408D01*
X1213440D01*
X1212190Y375158D01*
Y370160D01*
X1213440Y368910D01*
X1215939D01*
X1217188Y370160D01*
X1219688Y375158D02*
X1220937Y376408D01*
X1223436D01*
X1224686Y375158D01*
Y373908D01*
X1223436Y372659D01*
X1222187D01*
X1223436D01*
X1224686Y371409D01*
Y370160D01*
X1223436Y368910D01*
X1220937D01*
X1219688Y370160D01*
X1227185Y375158D02*
X1228435Y376408D01*
X1230934D01*
X1232184Y375158D01*
Y373908D01*
X1230934Y372659D01*
X1232184Y371409D01*
Y370160D01*
X1230934Y368910D01*
X1228435D01*
X1227185Y370160D01*
Y371409D01*
X1228435Y372659D01*
X1227185Y373908D01*
Y375158D01*
X1228435Y372659D02*
X1230934D01*
X1213378Y577088D02*
X1212129Y578338D01*
X1209630D01*
X1208380Y577088D01*
Y572090D01*
X1209630Y570840D01*
X1212129D01*
X1213378Y572090D01*
X1215878Y577088D02*
X1217127Y578338D01*
X1219626D01*
X1220876Y577088D01*
Y575838D01*
X1219626Y574589D01*
X1218377D01*
X1219626D01*
X1220876Y573339D01*
Y572090D01*
X1219626Y570840D01*
X1217127D01*
X1215878Y572090D01*
X1223375Y578338D02*
X1228374D01*
Y577088D01*
X1223375Y572090D01*
Y570840D01*
X1218458Y447548D02*
X1217209Y448798D01*
X1214710D01*
X1213460Y447548D01*
Y442550D01*
X1214710Y441300D01*
X1217209D01*
X1218458Y442550D01*
X1220958Y447548D02*
X1222207Y448798D01*
X1224706D01*
X1225956Y447548D01*
Y446298D01*
X1224706Y445049D01*
X1223457D01*
X1224706D01*
X1225956Y443799D01*
Y442550D01*
X1224706Y441300D01*
X1222207D01*
X1220958Y442550D01*
X1228455Y448798D02*
X1233454D01*
Y447548D01*
X1228455Y442550D01*
Y441300D01*
X1262888Y535362D02*
X1264138Y536611D01*
Y539110D01*
X1262888Y540360D01*
X1257890D01*
X1256640Y539110D01*
Y536611D01*
X1257890Y535362D01*
X1262888Y532862D02*
X1264138Y531613D01*
Y529114D01*
X1262888Y527864D01*
X1261638D01*
X1260389Y529114D01*
Y530363D01*
Y529114D01*
X1259139Y527864D01*
X1257890D01*
X1256640Y529114D01*
Y531613D01*
X1257890Y532862D01*
X1264138Y520366D02*
X1262888Y522866D01*
X1260389Y525365D01*
X1257890D01*
X1256640Y524115D01*
Y521616D01*
X1257890Y520366D01*
X1259139D01*
X1260389Y521616D01*
Y525365D01*
X1261618Y422332D02*
X1262868Y423581D01*
Y426080D01*
X1261618Y427330D01*
X1256620D01*
X1255370Y426080D01*
Y423581D01*
X1256620Y422332D01*
X1261618Y419832D02*
X1262868Y418583D01*
Y416084D01*
X1261618Y414834D01*
X1260368D01*
X1259119Y416084D01*
Y417333D01*
Y416084D01*
X1257869Y414834D01*
X1256620D01*
X1255370Y416084D01*
Y418583D01*
X1256620Y419832D01*
X1262868Y407336D02*
X1261618Y409836D01*
X1259119Y412335D01*
X1256620D01*
X1255370Y411085D01*
Y408586D01*
X1256620Y407336D01*
X1257869D01*
X1259119Y408586D01*
Y412335D01*
X1120648Y370262D02*
X1121898Y371511D01*
Y374010D01*
X1120648Y375260D01*
X1115650D01*
X1114400Y374010D01*
Y371511D01*
X1115650Y370262D01*
X1120648Y367762D02*
X1121898Y366513D01*
Y364014D01*
X1120648Y362764D01*
X1119398D01*
X1118149Y364014D01*
Y365263D01*
Y364014D01*
X1116899Y362764D01*
X1115650D01*
X1114400Y364014D01*
Y366513D01*
X1115650Y367762D01*
X1121898Y355266D02*
Y360265D01*
X1118149D01*
X1119398Y357766D01*
Y356516D01*
X1118149Y355266D01*
X1115650D01*
X1114400Y356516D01*
Y359015D01*
X1115650Y360265D01*
X939058Y366268D02*
X937809Y367518D01*
X935310D01*
X934060Y366268D01*
Y361270D01*
X935310Y360020D01*
X937809D01*
X939058Y361270D01*
X941558Y366268D02*
X942807Y367518D01*
X945306D01*
X946556Y366268D01*
Y365018D01*
X945306Y363769D01*
X944057D01*
X945306D01*
X946556Y362519D01*
Y361270D01*
X945306Y360020D01*
X942807D01*
X941558Y361270D01*
X952804Y360020D02*
Y367518D01*
X949055Y363769D01*
X954054D01*
X968268Y366268D02*
X967019Y367518D01*
X964520D01*
X963270Y366268D01*
Y361270D01*
X964520Y360020D01*
X967019D01*
X968268Y361270D01*
X970768Y366268D02*
X972017Y367518D01*
X974516D01*
X975766Y366268D01*
Y365018D01*
X974516Y363769D01*
X973267D01*
X974516D01*
X975766Y362519D01*
Y361270D01*
X974516Y360020D01*
X972017D01*
X970768Y361270D01*
X978265Y366268D02*
X979515Y367518D01*
X982014D01*
X983264Y366268D01*
Y365018D01*
X982014Y363769D01*
X980764D01*
X982014D01*
X983264Y362519D01*
Y361270D01*
X982014Y360020D01*
X979515D01*
X978265Y361270D01*
X1031748Y372802D02*
X1032998Y374051D01*
Y376550D01*
X1031748Y377800D01*
X1026750D01*
X1025500Y376550D01*
Y374051D01*
X1026750Y372802D01*
X1031748Y370302D02*
X1032998Y369053D01*
Y366554D01*
X1031748Y365304D01*
X1030498D01*
X1029249Y366554D01*
Y367803D01*
Y366554D01*
X1027999Y365304D01*
X1026750D01*
X1025500Y366554D01*
Y369053D01*
X1026750Y370302D01*
X1025500Y357806D02*
Y362805D01*
X1030498Y357806D01*
X1031748D01*
X1032998Y359056D01*
Y361555D01*
X1031748Y362805D01*
Y395662D02*
X1032998Y396911D01*
Y399410D01*
X1031748Y400660D01*
X1026750D01*
X1025500Y399410D01*
Y396911D01*
X1026750Y395662D01*
X1031748Y393162D02*
X1032998Y391913D01*
Y389414D01*
X1031748Y388164D01*
X1030498D01*
X1029249Y389414D01*
Y390663D01*
Y389414D01*
X1027999Y388164D01*
X1026750D01*
X1025500Y389414D01*
Y391913D01*
X1026750Y393162D01*
X1025500Y385665D02*
Y383166D01*
Y384415D01*
X1032998D01*
X1031748Y385665D01*
X1105408Y598862D02*
X1106658Y600111D01*
Y602610D01*
X1105408Y603860D01*
X1100410D01*
X1099160Y602610D01*
Y600111D01*
X1100410Y598862D01*
X1105408Y596362D02*
X1106658Y595113D01*
Y592614D01*
X1105408Y591364D01*
X1104158D01*
X1102909Y592614D01*
Y593863D01*
Y592614D01*
X1101659Y591364D01*
X1100410D01*
X1099160Y592614D01*
Y595113D01*
X1100410Y596362D01*
X1105408Y588865D02*
X1106658Y587615D01*
Y585116D01*
X1105408Y583866D01*
X1100410D01*
X1099160Y585116D01*
Y587615D01*
X1100410Y588865D01*
X1105408D01*
X1050248Y559502D02*
X1051498Y560751D01*
Y563250D01*
X1050248Y564500D01*
X1045250D01*
X1044000Y563250D01*
Y560751D01*
X1045250Y559502D01*
X1044000Y552004D02*
Y557002D01*
X1048998Y552004D01*
X1050248D01*
X1051498Y553254D01*
Y555753D01*
X1050248Y557002D01*
X1045250Y549505D02*
X1044000Y548255D01*
Y545756D01*
X1045250Y544506D01*
X1050248D01*
X1051498Y545756D01*
Y548255D01*
X1050248Y549505D01*
X1048998D01*
X1047749Y548255D01*
Y544506D01*
X955568Y494538D02*
X954319Y495788D01*
X951820D01*
X950570Y494538D01*
Y489540D01*
X951820Y488290D01*
X954319D01*
X955568Y489540D01*
X963066Y488290D02*
X958068D01*
X963066Y493288D01*
Y494538D01*
X961816Y495788D01*
X959317D01*
X958068Y494538D01*
X965565Y495788D02*
X970564D01*
Y494538D01*
X965565Y489540D01*
Y488290D01*
X1083818Y598862D02*
X1085068Y600111D01*
Y602610D01*
X1083818Y603860D01*
X1078820D01*
X1077570Y602610D01*
Y600111D01*
X1078820Y598862D01*
X1077570Y591364D02*
Y596362D01*
X1082568Y591364D01*
X1083818D01*
X1085068Y592614D01*
Y595113D01*
X1083818Y596362D01*
X1085068Y583866D02*
X1083818Y586366D01*
X1081319Y588865D01*
X1078820D01*
X1077570Y587615D01*
Y585116D01*
X1078820Y583866D01*
X1080069D01*
X1081319Y585116D01*
Y588865D01*
X947928Y574122D02*
X949178Y575371D01*
Y577870D01*
X947928Y579120D01*
X942930D01*
X941680Y577870D01*
Y575371D01*
X942930Y574122D01*
X941680Y566624D02*
Y571622D01*
X946678Y566624D01*
X947928D01*
X949178Y567874D01*
Y570373D01*
X947928Y571622D01*
X949178Y559126D02*
Y564125D01*
X945429D01*
X946678Y561626D01*
Y560376D01*
X945429Y559126D01*
X942930D01*
X941680Y560376D01*
Y562875D01*
X942930Y564125D01*
X1005078Y485832D02*
X1006328Y487081D01*
Y489580D01*
X1005078Y490830D01*
X1000080D01*
X998830Y489580D01*
Y487081D01*
X1000080Y485832D01*
X998830Y478334D02*
Y483332D01*
X1003828Y478334D01*
X1005078D01*
X1006328Y479584D01*
Y482083D01*
X1005078Y483332D01*
X998830Y472086D02*
X1006328D01*
X1002579Y475835D01*
Y470836D01*
X839998Y469138D02*
X838749Y470388D01*
X836250D01*
X835000Y469138D01*
Y464140D01*
X836250Y462890D01*
X838749D01*
X839998Y464140D01*
X847496Y462890D02*
X842498D01*
X847496Y467888D01*
Y469138D01*
X846246Y470388D01*
X843747D01*
X842498Y469138D01*
X849995D02*
X851245Y470388D01*
X853744D01*
X854994Y469138D01*
Y467888D01*
X853744Y466639D01*
X852494D01*
X853744D01*
X854994Y465389D01*
Y464140D01*
X853744Y462890D01*
X851245D01*
X849995Y464140D01*
X810788Y469138D02*
X809539Y470388D01*
X807040D01*
X805790Y469138D01*
Y464140D01*
X807040Y462890D01*
X809539D01*
X810788Y464140D01*
X818286Y462890D02*
X813288D01*
X818286Y467888D01*
Y469138D01*
X817036Y470388D01*
X814537D01*
X813288Y469138D01*
X825784Y462890D02*
X820785D01*
X825784Y467888D01*
Y469138D01*
X824534Y470388D01*
X822035D01*
X820785Y469138D01*
X979678Y485832D02*
X980928Y487081D01*
Y489580D01*
X979678Y490830D01*
X974680D01*
X973430Y489580D01*
Y487081D01*
X974680Y485832D01*
X973430Y478334D02*
Y483332D01*
X978428Y478334D01*
X979678D01*
X980928Y479584D01*
Y482083D01*
X979678Y483332D01*
X973430Y475835D02*
Y473336D01*
Y474585D01*
X980928D01*
X979678Y475835D01*
X928898Y509778D02*
X927649Y511028D01*
X925150D01*
X923900Y509778D01*
Y504780D01*
X925150Y503530D01*
X927649D01*
X928898Y504780D01*
X936396Y503530D02*
X931398D01*
X936396Y508528D01*
Y509778D01*
X935146Y511028D01*
X932647D01*
X931398Y509778D01*
X938895D02*
X940145Y511028D01*
X942644D01*
X943894Y509778D01*
Y504780D01*
X942644Y503530D01*
X940145D01*
X938895Y504780D01*
Y509778D01*
X928898Y530098D02*
X927649Y531348D01*
X925150D01*
X923900Y530098D01*
Y525100D01*
X925150Y523850D01*
X927649D01*
X928898Y525100D01*
X931398Y523850D02*
X933897D01*
X932647D01*
Y531348D01*
X931398Y530098D01*
X937646Y525100D02*
X938895Y523850D01*
X941394D01*
X942644Y525100D01*
Y530098D01*
X941394Y531348D01*
X938895D01*
X937646Y530098D01*
Y528848D01*
X938895Y527599D01*
X942644D01*
X525038Y525018D02*
X523789Y526268D01*
X521290D01*
X520040Y525018D01*
Y520020D01*
X521290Y518770D01*
X523789D01*
X525038Y520020D01*
X532536Y526268D02*
X530037Y525018D01*
X527538Y522519D01*
Y520020D01*
X528787Y518770D01*
X531286D01*
X532536Y520020D01*
Y521269D01*
X531286Y522519D01*
X527538D01*
X514878Y538988D02*
X513629Y540238D01*
X511130D01*
X509880Y538988D01*
Y533990D01*
X511130Y532740D01*
X513629D01*
X514878Y533990D01*
X522376Y540238D02*
X517378D01*
Y536489D01*
X519877Y537738D01*
X521126D01*
X522376Y536489D01*
Y533990D01*
X521126Y532740D01*
X518627D01*
X517378Y533990D01*
X894690Y610088D02*
Y602590D01*
X898439D01*
X899688Y603840D01*
Y605089D01*
X898439Y606339D01*
X894690D01*
X898439D01*
X899688Y607588D01*
Y608838D01*
X898439Y610088D01*
X894690D01*
X902188D02*
X907186D01*
X904687D01*
Y602590D01*
X909685D02*
X912184D01*
X910935D01*
Y610088D01*
X909685Y608838D01*
D16*
X1258160Y348400D02*
Y358900D01*
X1282290Y467780D02*
Y478280D01*
M02*
