G04*
G04 #@! TF.GenerationSoftware,Altium Limited,Altium Designer,19.1.5 (86)*
G04*
G04 Layer_Physical_Order=3*
G04 Layer_Color=36540*
%FSLAX44Y44*%
%MOMM*%
G71*
G01*
G75*
%ADD12C,0.2000*%
%ADD17C,0.1000*%
%ADD62C,1.2700*%
%ADD66C,0.6000*%
%ADD67C,1.0000*%
%ADD68C,1.3700*%
G36*
X1264902Y450886D02*
X1224191Y450884D01*
X1224041Y452154D01*
X1224382Y452236D01*
X1228966Y454135D01*
X1233197Y456728D01*
X1236970Y459950D01*
X1240192Y463723D01*
X1242785Y467954D01*
X1244684Y472538D01*
X1245842Y477363D01*
X1246232Y482310D01*
X1245842Y487257D01*
X1244684Y492082D01*
X1242785Y496666D01*
X1240192Y500897D01*
X1236970Y504670D01*
X1233197Y507892D01*
X1228966Y510485D01*
X1224382Y512384D01*
X1219557Y513542D01*
X1214610Y513932D01*
X1209663Y513542D01*
X1204838Y512384D01*
X1200254Y510485D01*
X1196023Y507892D01*
X1192250Y504670D01*
X1189028Y500897D01*
X1186435Y496666D01*
X1184536Y492082D01*
X1183378Y487257D01*
X1182989Y482310D01*
X1183378Y477363D01*
X1184536Y472538D01*
X1186435Y467954D01*
X1189028Y463723D01*
X1192250Y459950D01*
X1196023Y456728D01*
X1200254Y454135D01*
X1204838Y452236D01*
X1205181Y452154D01*
X1205031Y450884D01*
X1120148Y450882D01*
X1119250Y451780D01*
Y457200D01*
X1118766Y458366D01*
X1117600Y458850D01*
X717394D01*
X717114Y460120D01*
X720192Y463723D01*
X722785Y467954D01*
X724684Y472538D01*
X725842Y477363D01*
X726232Y482310D01*
X725842Y487257D01*
X724684Y492082D01*
X722785Y496666D01*
X720192Y500897D01*
X716970Y504670D01*
X713197Y507892D01*
X708966Y510485D01*
X704382Y512384D01*
X699557Y513542D01*
X694610Y513932D01*
X689663Y513542D01*
X684838Y512384D01*
X680254Y510485D01*
X676023Y507892D01*
X672250Y504670D01*
X669028Y500897D01*
X666435Y496666D01*
X664536Y492082D01*
X663378Y487257D01*
X662989Y482310D01*
X663378Y477363D01*
X664536Y472538D01*
X666435Y467954D01*
X669028Y463723D01*
X672106Y460120D01*
X671826Y458850D01*
X597394D01*
X597114Y460120D01*
X600192Y463723D01*
X602785Y467954D01*
X604684Y472538D01*
X605842Y477363D01*
X606231Y482310D01*
X605842Y487257D01*
X604684Y492082D01*
X602785Y496666D01*
X600192Y500897D01*
X596970Y504670D01*
X593197Y507892D01*
X588966Y510485D01*
X584382Y512384D01*
X579557Y513542D01*
X574610Y513932D01*
X569663Y513542D01*
X564838Y512384D01*
X560254Y510485D01*
X556023Y507892D01*
X552250Y504670D01*
X549028Y500897D01*
X546435Y496666D01*
X544536Y492082D01*
X543378Y487257D01*
X542989Y482310D01*
X543378Y477363D01*
X544536Y472538D01*
X546435Y467954D01*
X549028Y463723D01*
X552106Y460120D01*
X551826Y458850D01*
X542290D01*
X541124Y458366D01*
X540640Y457200D01*
Y450865D01*
X489270Y450864D01*
X489001Y452906D01*
X488208Y454821D01*
X486946Y456466D01*
X485301Y457728D01*
X483386Y458521D01*
X481330Y458792D01*
X479274Y458521D01*
X477359Y457728D01*
X475714Y456466D01*
X474452Y454821D01*
X473659Y452906D01*
X472440Y453141D01*
Y546082D01*
X1264902D01*
Y450886D01*
D02*
G37*
G36*
X1117600Y325154D02*
X1113701D01*
X1113242Y325842D01*
X1111745Y326842D01*
X1109980Y327193D01*
X1108215Y326842D01*
X1106718Y325842D01*
X1105719Y324345D01*
X1105367Y322580D01*
X1105719Y320815D01*
X1106718Y319318D01*
X1108215Y318319D01*
X1109980Y317967D01*
X1111745Y318319D01*
X1113242Y319318D01*
X1113701Y320006D01*
X1117600D01*
Y254842D01*
X1116330Y254407D01*
X1115104Y255226D01*
X1113338Y255577D01*
X1111573Y255226D01*
X1110077Y254226D01*
X1109077Y252730D01*
X1108726Y250965D01*
X1107552Y250357D01*
X1106493Y250146D01*
X1104997Y249146D01*
X1103997Y247650D01*
X1103646Y245885D01*
X1103997Y244120D01*
X1104997Y242623D01*
X1106493Y241623D01*
X1108259Y241272D01*
X1110024Y241623D01*
X1111473Y241065D01*
X1111798Y240578D01*
X1113295Y239578D01*
X1114790Y239281D01*
Y237986D01*
X1114565Y237941D01*
X1113068Y236942D01*
X1112068Y235445D01*
X1111717Y233680D01*
X1112068Y231915D01*
X1113068Y230418D01*
X1114565Y229419D01*
X1116330Y229067D01*
X1116464Y229094D01*
X1117600Y228124D01*
Y185249D01*
X1098591Y166240D01*
X820453D01*
Y231140D01*
X820258Y232125D01*
X819700Y232960D01*
X786771Y265888D01*
X786933Y266700D01*
X786581Y268465D01*
X785582Y269962D01*
X784085Y270961D01*
X782320Y271313D01*
X780555Y270961D01*
X779058Y269962D01*
X778058Y268465D01*
X777887Y267605D01*
X776593D01*
X776422Y268465D01*
X775422Y269962D01*
X773925Y270961D01*
X772160Y271313D01*
X770395Y270961D01*
X768898Y269962D01*
X767898Y268465D01*
X767547Y266700D01*
X767898Y264935D01*
X768898Y263438D01*
X770395Y262439D01*
X772160Y262087D01*
X772972Y262249D01*
X811497Y223724D01*
Y170214D01*
X808990D01*
X808005Y170018D01*
X807170Y169460D01*
X803951Y166240D01*
X718076D01*
X717397Y167510D01*
X718001Y168415D01*
X718353Y170180D01*
X718001Y171945D01*
X717002Y173442D01*
X715505Y174442D01*
X713740Y174793D01*
X711975Y174442D01*
X710478Y173442D01*
X709382D01*
X707885Y174442D01*
X706120Y174793D01*
X704355Y174442D01*
X702858Y173442D01*
X701762D01*
X700265Y174442D01*
X698500Y174793D01*
X696735Y174442D01*
X695238Y173442D01*
X694239Y171945D01*
X693887Y170180D01*
X694239Y168415D01*
X694843Y167510D01*
X694164Y166240D01*
X649496D01*
X648817Y167510D01*
X649421Y168415D01*
X649773Y170180D01*
X649421Y171945D01*
X648422Y173442D01*
X646925Y174442D01*
X645160Y174793D01*
X643395Y174442D01*
X641898Y173442D01*
X640802D01*
X639305Y174442D01*
X637540Y174793D01*
X635775Y174442D01*
X634278Y173442D01*
X633182D01*
X631685Y174442D01*
X629920Y174793D01*
X628155Y174442D01*
X626658Y173442D01*
X625562D01*
X624065Y174442D01*
X622300Y174793D01*
X620535Y174442D01*
X619038Y173442D01*
X617942D01*
X616445Y174442D01*
X614680Y174793D01*
X612915Y174442D01*
X611418Y173442D01*
X610322D01*
X608825Y174442D01*
X607060Y174793D01*
X605295Y174442D01*
X603798Y173442D01*
X602702D01*
X601205Y174442D01*
X599440Y174793D01*
X597675Y174442D01*
X596178Y173442D01*
X595082D01*
X593585Y174442D01*
X591820Y174793D01*
X590055Y174442D01*
X588558Y173442D01*
X587462D01*
X585965Y174442D01*
X584200Y174793D01*
X582435Y174442D01*
X580938Y173442D01*
X579939Y171945D01*
X579587Y170180D01*
X579939Y168415D01*
X580543Y167510D01*
X579864Y166240D01*
X542290D01*
Y457200D01*
X555470D01*
X556023Y456728D01*
X560254Y454135D01*
X564838Y452236D01*
X569663Y451078D01*
X574610Y450689D01*
X579557Y451078D01*
X584382Y452236D01*
X588966Y454135D01*
X593197Y456728D01*
X593750Y457200D01*
X675470D01*
X676023Y456728D01*
X680254Y454135D01*
X684838Y452236D01*
X689663Y451078D01*
X694610Y450689D01*
X699557Y451078D01*
X704382Y452236D01*
X708966Y454135D01*
X713197Y456728D01*
X713750Y457200D01*
X1117600D01*
Y325154D01*
D02*
G37*
G36*
X540640Y233264D02*
X539370Y232879D01*
X539202Y233132D01*
X537705Y234132D01*
X535940Y234483D01*
X534175Y234132D01*
X532678Y233132D01*
X531679Y231635D01*
X531327Y229870D01*
X531679Y228105D01*
X532480Y226906D01*
X532600Y226060D01*
X532480Y225214D01*
X531679Y224015D01*
X531327Y222250D01*
X531679Y220485D01*
X532480Y219286D01*
X532600Y218440D01*
X532480Y217594D01*
X531679Y216395D01*
X531327Y214630D01*
X531679Y212865D01*
X532678Y211368D01*
X534175Y210368D01*
X535940Y210017D01*
X537705Y210368D01*
X539202Y211368D01*
X539370Y211621D01*
X540640Y211236D01*
Y166240D01*
X541124Y165074D01*
X542290Y164590D01*
X579864D01*
X580095Y164686D01*
X580343Y164662D01*
X580656Y164918D01*
X581031Y165074D01*
X581126Y165304D01*
X581319Y165462D01*
X581428Y165666D01*
X582435Y165919D01*
X584200Y165567D01*
X585965Y165919D01*
X587462Y166918D01*
X588558D01*
X590055Y165919D01*
X591820Y165567D01*
X593585Y165919D01*
X595082Y166918D01*
X596178D01*
X597675Y165919D01*
X599440Y165567D01*
X601205Y165919D01*
X602702Y166918D01*
X603798D01*
X605295Y165919D01*
X607060Y165567D01*
X608825Y165919D01*
X610322Y166918D01*
X611418D01*
X612915Y165919D01*
X614680Y165567D01*
X616445Y165919D01*
X617942Y166918D01*
X619038D01*
X620535Y165919D01*
X622300Y165567D01*
X624065Y165919D01*
X625562Y166918D01*
X626658D01*
X628155Y165919D01*
X629099Y165731D01*
X629751Y164337D01*
X629540Y163830D01*
Y6350D01*
X474576Y6350D01*
X473678Y7248D01*
X473686Y102172D01*
X474669Y103645D01*
X475021Y105410D01*
X474669Y107175D01*
X473686Y108647D01*
X473706Y369565D01*
X474977Y369996D01*
X475714Y369034D01*
X477359Y367772D01*
X479274Y366979D01*
X481330Y366708D01*
X483386Y366979D01*
X485301Y367772D01*
X486946Y369034D01*
X488208Y370679D01*
X489001Y372594D01*
X489272Y374650D01*
X489001Y376706D01*
X488208Y378621D01*
X486946Y380266D01*
X485301Y381528D01*
X483386Y382321D01*
X481330Y382592D01*
X479274Y382321D01*
X477359Y381528D01*
X475714Y380266D01*
X474977Y379305D01*
X473707Y379737D01*
X473708Y394962D01*
X474978Y395393D01*
X475714Y394434D01*
X477359Y393172D01*
X479274Y392379D01*
X481330Y392108D01*
X483386Y392379D01*
X485301Y393172D01*
X486946Y394434D01*
X488208Y396079D01*
X489001Y397994D01*
X489272Y400050D01*
X489001Y402105D01*
X488208Y404021D01*
X486946Y405666D01*
X485301Y406928D01*
X483386Y407721D01*
X481330Y407992D01*
X479274Y407721D01*
X477359Y406928D01*
X475714Y405666D01*
X474979Y404708D01*
X473709Y405139D01*
X473710Y420359D01*
X474980Y420790D01*
X475714Y419834D01*
X477359Y418572D01*
X479274Y417779D01*
X481330Y417508D01*
X483386Y417779D01*
X485301Y418572D01*
X486946Y419834D01*
X488208Y421479D01*
X489001Y423395D01*
X489272Y425450D01*
X489001Y427505D01*
X488208Y429421D01*
X486946Y431066D01*
X485301Y432328D01*
X483386Y433121D01*
X481330Y433392D01*
X479274Y433121D01*
X477359Y432328D01*
X475714Y431066D01*
X474981Y430111D01*
X473711Y430542D01*
X473712Y445757D01*
X474982Y446188D01*
X475714Y445234D01*
X477359Y443972D01*
X479274Y443179D01*
X481330Y442908D01*
X483386Y443179D01*
X485301Y443972D01*
X486946Y445234D01*
X488208Y446879D01*
X489001Y448795D01*
X489272Y450850D01*
X540640Y450850D01*
Y233264D01*
D02*
G37*
G36*
X1126490Y130744D02*
X1125768Y130262D01*
X1124769Y128765D01*
X1124417Y127000D01*
X1124769Y125235D01*
X1125768Y123738D01*
X1126490Y123256D01*
X1126490Y5098D01*
X631190D01*
Y163830D01*
X797274D01*
X797659Y162560D01*
X796838Y162012D01*
X795838Y160515D01*
X795487Y158750D01*
X795838Y156985D01*
X796838Y155488D01*
X798335Y154488D01*
X800100Y154137D01*
X801865Y154488D01*
X803362Y155488D01*
X804361Y156985D01*
X804406Y157210D01*
X805701D01*
X805999Y155715D01*
X806998Y154218D01*
X808495Y153218D01*
X810260Y152867D01*
X812025Y153218D01*
X813522Y154218D01*
X813700Y154486D01*
X814992Y154132D01*
X815032Y153398D01*
X814618Y153122D01*
X813618Y151625D01*
X813267Y149860D01*
X813618Y148095D01*
X814618Y146598D01*
X816115Y145598D01*
X817880Y145247D01*
X819645Y145598D01*
X821142Y146598D01*
X822141Y148095D01*
X822493Y149860D01*
X822141Y151625D01*
X821142Y153122D01*
X820453Y153581D01*
Y163830D01*
X1091587D01*
X1092266Y162560D01*
X1091749Y161785D01*
X1091397Y160020D01*
X1091749Y158255D01*
X1092748Y156758D01*
X1094245Y155758D01*
X1096010Y155407D01*
X1097509Y155705D01*
X1098004Y154509D01*
X1097828Y154392D01*
X1096829Y152895D01*
X1096477Y151130D01*
X1096829Y149365D01*
X1097828Y147868D01*
X1099325Y146868D01*
X1101090Y146517D01*
X1102855Y146868D01*
X1104352Y147868D01*
X1104866Y148639D01*
X1106136Y148254D01*
Y145961D01*
X1105448Y145502D01*
X1104448Y144005D01*
X1104097Y142240D01*
X1104448Y140475D01*
X1105448Y138978D01*
X1106945Y137978D01*
X1108710Y137627D01*
X1110475Y137978D01*
X1111972Y138978D01*
X1112971Y140475D01*
X1113323Y142240D01*
X1112971Y144005D01*
X1111972Y145502D01*
X1111283Y145961D01*
Y156318D01*
X1118795Y163830D01*
X1126490D01*
X1126490Y130744D01*
D02*
G37*
%LPC*%
G36*
X624840Y422443D02*
X623075Y422091D01*
X621578Y421092D01*
X621159Y420463D01*
X619631D01*
X619212Y421092D01*
X617715Y422091D01*
X615950Y422443D01*
X614185Y422091D01*
X612688Y421092D01*
X612269Y420463D01*
X610741D01*
X610322Y421092D01*
X608825Y422091D01*
X607060Y422443D01*
X605295Y422091D01*
X603798Y421092D01*
X603379Y420463D01*
X601851D01*
X601432Y421092D01*
X599935Y422091D01*
X598170Y422443D01*
X596405Y422091D01*
X594908Y421092D01*
X593909Y419595D01*
X593557Y417830D01*
X593909Y416065D01*
X594908Y414568D01*
X595536Y414149D01*
Y412621D01*
X594908Y412202D01*
X593909Y410705D01*
X593557Y408940D01*
X593909Y407175D01*
X594908Y405678D01*
X595536Y405259D01*
Y403731D01*
X594908Y403312D01*
X593909Y401815D01*
X593557Y400050D01*
X593909Y398285D01*
X594908Y396788D01*
X595536Y396369D01*
Y394841D01*
X594908Y394422D01*
X593909Y392925D01*
X593557Y391160D01*
X593909Y389395D01*
X594908Y387898D01*
X596405Y386898D01*
X598170Y386547D01*
X599935Y386898D01*
X601432Y387898D01*
X601851Y388526D01*
X603379D01*
X603798Y387898D01*
X605295Y386898D01*
X607060Y386547D01*
X608825Y386898D01*
X610322Y387898D01*
X610741Y388526D01*
X612269D01*
X612688Y387898D01*
X614185Y386898D01*
X615950Y386547D01*
X617715Y386898D01*
X619212Y387898D01*
X619631Y388526D01*
X621159D01*
X621578Y387898D01*
X623075Y386898D01*
X624840Y386547D01*
X626605Y386898D01*
X628102Y387898D01*
X629101Y389395D01*
X629453Y391160D01*
X629101Y392925D01*
X628102Y394422D01*
X627473Y394841D01*
Y396369D01*
X628102Y396788D01*
X629101Y398285D01*
X629453Y400050D01*
X629101Y401815D01*
X628102Y403312D01*
X627473Y403731D01*
Y405259D01*
X628102Y405678D01*
X629101Y407175D01*
X629453Y408940D01*
X629101Y410705D01*
X628102Y412202D01*
X627473Y412621D01*
Y414149D01*
X628102Y414568D01*
X629101Y416065D01*
X629453Y417830D01*
X629101Y419595D01*
X628102Y421092D01*
X626605Y422091D01*
X624840Y422443D01*
D02*
G37*
G36*
X1023620Y403393D02*
X1021855Y403041D01*
X1020656Y402240D01*
X1019810Y402120D01*
X1018964Y402240D01*
X1017765Y403041D01*
X1016000Y403393D01*
X1014235Y403041D01*
X1012738Y402042D01*
X1011739Y400545D01*
X1011387Y398780D01*
X1011739Y397015D01*
X1012681Y395605D01*
X1011739Y394195D01*
X1011387Y392430D01*
X1011739Y390665D01*
X1012738Y389168D01*
X1014235Y388168D01*
X1016000Y387817D01*
X1017765Y388168D01*
X1018964Y388969D01*
X1019810Y389090D01*
X1020656Y388969D01*
X1021855Y388168D01*
X1023620Y387817D01*
X1025385Y388168D01*
X1026882Y389168D01*
X1027881Y390665D01*
X1028233Y392430D01*
X1027881Y394195D01*
X1026939Y395605D01*
X1027881Y397015D01*
X1028233Y398780D01*
X1027881Y400545D01*
X1026882Y402042D01*
X1025385Y403041D01*
X1023620Y403393D01*
D02*
G37*
G36*
X1038860Y367833D02*
X1037095Y367481D01*
X1035598Y366482D01*
X1034598Y364985D01*
X1034247Y363220D01*
X1034598Y361455D01*
X1035598Y359958D01*
X1037095Y358959D01*
X1038860Y358607D01*
X1040625Y358959D01*
X1042122Y359958D01*
X1043121Y361455D01*
X1043473Y363220D01*
X1043121Y364985D01*
X1042122Y366482D01*
X1040625Y367481D01*
X1038860Y367833D01*
D02*
G37*
G36*
X952500D02*
X950735Y367481D01*
X949238Y366482D01*
X948239Y364985D01*
X947887Y363220D01*
X948239Y361455D01*
X949238Y359958D01*
X950735Y358959D01*
X952500Y358607D01*
X954265Y358959D01*
X955762Y359958D01*
X956761Y361455D01*
X957113Y363220D01*
X956761Y364985D01*
X955762Y366482D01*
X954265Y367481D01*
X952500Y367833D01*
D02*
G37*
G36*
X1083310Y366563D02*
X1081545Y366212D01*
X1080048Y365212D01*
X1079048Y363715D01*
X1078697Y361950D01*
X1079048Y360185D01*
X1080048Y358688D01*
X1081545Y357688D01*
X1083310Y357337D01*
X1085075Y357688D01*
X1086572Y358688D01*
X1087571Y360185D01*
X1087923Y361950D01*
X1087571Y363715D01*
X1086572Y365212D01*
X1085075Y366212D01*
X1083310Y366563D01*
D02*
G37*
G36*
X1060450Y365293D02*
X1058685Y364941D01*
X1057188Y363942D01*
X1056189Y362445D01*
X1055837Y360680D01*
X1056189Y358915D01*
X1057188Y357418D01*
X1058685Y356418D01*
X1060450Y356067D01*
X1062215Y356418D01*
X1063712Y357418D01*
X1064712Y358915D01*
X1065063Y360680D01*
X1064712Y362445D01*
X1063712Y363942D01*
X1062215Y364941D01*
X1060450Y365293D01*
D02*
G37*
G36*
X829511Y358742D02*
X827746Y358391D01*
X826249Y357391D01*
X825249Y355894D01*
X824898Y354129D01*
X825249Y352364D01*
X826249Y350868D01*
X827746Y349868D01*
X829511Y349517D01*
X831276Y349868D01*
X832772Y350868D01*
X833772Y352364D01*
X834123Y354129D01*
X833772Y355894D01*
X832772Y357391D01*
X831276Y358391D01*
X829511Y358742D01*
D02*
G37*
G36*
X932255Y355058D02*
X930490Y354706D01*
X928993Y353707D01*
X927993Y352210D01*
X927642Y350445D01*
X927993Y348680D01*
X928993Y347183D01*
X930490Y346184D01*
X932255Y345832D01*
X934020Y346184D01*
X935517Y347183D01*
X936516Y348680D01*
X936868Y350445D01*
X936516Y352210D01*
X935517Y353707D01*
X934020Y354706D01*
X932255Y355058D01*
D02*
G37*
G36*
X845820Y348783D02*
X844055Y348432D01*
X842558Y347432D01*
X841559Y345935D01*
X841207Y344170D01*
X841559Y342405D01*
X842558Y340908D01*
X844055Y339908D01*
X845820Y339557D01*
X847585Y339908D01*
X849082Y340908D01*
X850081Y342405D01*
X850433Y344170D01*
X850081Y345935D01*
X849082Y347432D01*
X847585Y348432D01*
X845820Y348783D01*
D02*
G37*
G36*
X828040Y317033D02*
X826275Y316681D01*
X824778Y315682D01*
X823779Y314185D01*
X823427Y312420D01*
X823779Y310655D01*
X824778Y309158D01*
X826275Y308158D01*
X828040Y307807D01*
X829805Y308158D01*
X831302Y309158D01*
X832301Y310655D01*
X832653Y312420D01*
X832301Y314185D01*
X831302Y315682D01*
X829805Y316681D01*
X828040Y317033D01*
D02*
G37*
G36*
X800100Y311953D02*
X798335Y311602D01*
X796838Y310602D01*
X795838Y309105D01*
X795487Y307340D01*
X795838Y305575D01*
X796838Y304078D01*
X798335Y303078D01*
X800100Y302727D01*
X801865Y303078D01*
X803362Y304078D01*
X804361Y305575D01*
X804713Y307340D01*
X804361Y309105D01*
X803362Y310602D01*
X801865Y311602D01*
X800100Y311953D01*
D02*
G37*
G36*
X876300Y300523D02*
X874535Y300172D01*
X873336Y299370D01*
X872490Y299250D01*
X871644Y299370D01*
X870445Y300172D01*
X868680Y300523D01*
X866915Y300172D01*
X865418Y299172D01*
X864418Y297675D01*
X864067Y295910D01*
X864418Y294145D01*
X865418Y292648D01*
X866915Y291649D01*
X868680Y291297D01*
X870445Y291649D01*
X871644Y292449D01*
X872490Y292570D01*
X873336Y292449D01*
X874535Y291649D01*
X876300Y291297D01*
X878065Y291649D01*
X879562Y292648D01*
X880562Y294145D01*
X880913Y295910D01*
X880562Y297675D01*
X879562Y299172D01*
X878065Y300172D01*
X876300Y300523D01*
D02*
G37*
G36*
X1027430Y287823D02*
X1025665Y287472D01*
X1024466Y286670D01*
X1023620Y286550D01*
X1022774Y286670D01*
X1021575Y287472D01*
X1019810Y287823D01*
X1018045Y287472D01*
X1016548Y286472D01*
X1015548Y284975D01*
X1015197Y283210D01*
X1015548Y281445D01*
X1016490Y280035D01*
X1015548Y278625D01*
X1015197Y276860D01*
X1015548Y275095D01*
X1016548Y273598D01*
X1018045Y272598D01*
X1019810Y272247D01*
X1021575Y272598D01*
X1022774Y273400D01*
X1023620Y273520D01*
X1024466Y273400D01*
X1025665Y272598D01*
X1027430Y272247D01*
X1029195Y272598D01*
X1030692Y273598D01*
X1031692Y275095D01*
X1032043Y276860D01*
X1031692Y278625D01*
X1030750Y280035D01*
X1031692Y281445D01*
X1032043Y283210D01*
X1031692Y284975D01*
X1030692Y286472D01*
X1029195Y287472D01*
X1027430Y287823D01*
D02*
G37*
G36*
X849838Y292147D02*
X848073Y291796D01*
X846577Y290796D01*
X845577Y289299D01*
X845226Y287534D01*
X845577Y285769D01*
X846577Y284272D01*
X848073Y283272D01*
X849838Y282921D01*
X851603Y283272D01*
X853100Y284272D01*
X854100Y285769D01*
X854451Y287534D01*
X854100Y289299D01*
X853100Y290796D01*
X851603Y291796D01*
X849838Y292147D01*
D02*
G37*
G36*
X1062990Y277663D02*
X1061225Y277311D01*
X1059728Y276312D01*
X1058728Y274815D01*
X1058377Y273050D01*
X1058728Y271285D01*
X1059728Y269788D01*
X1061225Y268789D01*
X1062990Y268437D01*
X1064755Y268789D01*
X1066252Y269788D01*
X1067252Y271285D01*
X1067603Y273050D01*
X1067252Y274815D01*
X1066252Y276312D01*
X1064755Y277311D01*
X1062990Y277663D01*
D02*
G37*
G36*
X1084580Y256073D02*
X1082815Y255721D01*
X1081318Y254722D01*
X1080319Y253225D01*
X1079967Y251460D01*
X1080319Y249695D01*
X1081318Y248198D01*
X1082815Y247199D01*
X1084580Y246847D01*
X1086345Y247199D01*
X1087842Y248198D01*
X1088841Y249695D01*
X1089193Y251460D01*
X1088841Y253225D01*
X1087842Y254722D01*
X1086345Y255721D01*
X1084580Y256073D01*
D02*
G37*
G36*
X960120D02*
X958355Y255721D01*
X956858Y254722D01*
X955859Y253225D01*
X955507Y251460D01*
X955859Y249695D01*
X956858Y248198D01*
X958355Y247199D01*
X960120Y246847D01*
X961885Y247199D01*
X963382Y248198D01*
X964381Y249695D01*
X964733Y251460D01*
X964381Y253225D01*
X963382Y254722D01*
X961885Y255721D01*
X960120Y256073D01*
D02*
G37*
G36*
X647700Y235753D02*
X645935Y235401D01*
X644736Y234601D01*
X643890Y234480D01*
X643044Y234601D01*
X641845Y235401D01*
X640080Y235753D01*
X638315Y235401D01*
X637116Y234601D01*
X636270Y234480D01*
X635424Y234601D01*
X634225Y235401D01*
X632460Y235753D01*
X630695Y235401D01*
X629496Y234601D01*
X628650Y234480D01*
X627804Y234601D01*
X626605Y235401D01*
X624840Y235753D01*
X623075Y235401D01*
X621876Y234601D01*
X621030Y234480D01*
X620184Y234601D01*
X618985Y235401D01*
X617220Y235753D01*
X615455Y235401D01*
X614256Y234601D01*
X613410Y234480D01*
X612564Y234601D01*
X611365Y235401D01*
X609600Y235753D01*
X607835Y235401D01*
X606338Y234402D01*
X605339Y232905D01*
X604987Y231140D01*
X605339Y229375D01*
X606338Y227878D01*
X607835Y226879D01*
X609600Y226527D01*
X611365Y226879D01*
X612564Y227680D01*
X613410Y227800D01*
X614256Y227680D01*
X615455Y226879D01*
X617220Y226527D01*
X618985Y226879D01*
X620184Y227680D01*
X621030Y227800D01*
X621876Y227680D01*
X623075Y226879D01*
X624840Y226527D01*
X626605Y226879D01*
X627804Y227680D01*
X628650Y227800D01*
X629496Y227680D01*
X630695Y226879D01*
X632460Y226527D01*
X634225Y226879D01*
X635424Y227680D01*
X636270Y227800D01*
X637116Y227680D01*
X638315Y226879D01*
X640080Y226527D01*
X641845Y226879D01*
X643044Y227680D01*
X643890Y227800D01*
X644736Y227680D01*
X645935Y226879D01*
X647700Y226527D01*
X649465Y226879D01*
X650962Y227878D01*
X651962Y229375D01*
X652313Y231140D01*
X651962Y232905D01*
X650962Y234402D01*
X649465Y235401D01*
X647700Y235753D01*
D02*
G37*
G36*
X582930D02*
X581165Y235401D01*
X579966Y234601D01*
X579120Y234480D01*
X578274Y234601D01*
X577075Y235401D01*
X575310Y235753D01*
X573545Y235401D01*
X572346Y234601D01*
X571500Y234480D01*
X570654Y234601D01*
X569455Y235401D01*
X567690Y235753D01*
X565925Y235401D01*
X564726Y234601D01*
X563880Y234480D01*
X563034Y234601D01*
X561835Y235401D01*
X560070Y235753D01*
X558305Y235401D01*
X556808Y234402D01*
X555808Y232905D01*
X555457Y231140D01*
X555808Y229375D01*
X556808Y227878D01*
X558305Y226879D01*
X560070Y226527D01*
X561835Y226879D01*
X563034Y227680D01*
X563880Y227800D01*
X564726Y227680D01*
X565925Y226879D01*
X567690Y226527D01*
X569455Y226879D01*
X570654Y227680D01*
X571500Y227800D01*
X572346Y227680D01*
X573545Y226879D01*
X575310Y226527D01*
X577075Y226879D01*
X578274Y227680D01*
X579120Y227800D01*
X579966Y227680D01*
X581165Y226879D01*
X582930Y226527D01*
X584695Y226879D01*
X586192Y227878D01*
X587192Y229375D01*
X587543Y231140D01*
X587192Y232905D01*
X586192Y234402D01*
X584695Y235401D01*
X582930Y235753D01*
D02*
G37*
G36*
X972820Y237023D02*
X971055Y236672D01*
X969558Y235672D01*
X968559Y234175D01*
X968207Y232410D01*
X968559Y230645D01*
X969558Y229148D01*
X971055Y228148D01*
X972820Y227797D01*
X974585Y228148D01*
X976082Y229148D01*
X977082Y230645D01*
X977433Y232410D01*
X977082Y234175D01*
X976082Y235672D01*
X974585Y236672D01*
X972820Y237023D01*
D02*
G37*
G36*
X1082545Y233333D02*
X1080779Y232982D01*
X1079283Y231982D01*
X1078283Y230486D01*
X1077932Y228721D01*
X1078283Y226956D01*
X1079283Y225459D01*
X1080779Y224459D01*
X1082545Y224108D01*
X1084310Y224459D01*
X1085806Y225459D01*
X1086806Y226956D01*
X1087157Y228721D01*
X1086806Y230486D01*
X1085806Y231982D01*
X1084310Y232982D01*
X1082545Y233333D01*
D02*
G37*
G36*
X1014730Y234483D02*
X1012965Y234132D01*
X1011468Y233132D01*
X1010469Y231635D01*
X1010117Y229870D01*
X1010469Y228105D01*
X1011411Y226695D01*
X1010469Y225285D01*
X1010117Y223520D01*
X1010469Y221755D01*
X1011468Y220258D01*
X1012965Y219258D01*
X1014730Y218907D01*
X1016495Y219258D01*
X1017992Y220258D01*
X1018991Y221755D01*
X1019343Y223520D01*
X1018991Y225285D01*
X1018049Y226695D01*
X1018991Y228105D01*
X1019343Y229870D01*
X1018991Y231635D01*
X1017992Y233132D01*
X1016495Y234132D01*
X1014730Y234483D01*
D02*
G37*
G36*
X873760Y215433D02*
X871995Y215082D01*
X870796Y214280D01*
X869950Y214160D01*
X869104Y214280D01*
X867905Y215082D01*
X866140Y215433D01*
X864375Y215082D01*
X862878Y214082D01*
X861879Y212585D01*
X861527Y210820D01*
X861879Y209055D01*
X862821Y207645D01*
X861879Y206235D01*
X861527Y204470D01*
X861879Y202705D01*
X862878Y201208D01*
X864375Y200208D01*
X866140Y199857D01*
X867905Y200208D01*
X869402Y201208D01*
X870498D01*
X871995Y200208D01*
X873760Y199857D01*
X875525Y200208D01*
X877022Y201208D01*
X878021Y202705D01*
X878373Y204470D01*
X878021Y206235D01*
X877079Y207645D01*
X878021Y209055D01*
X878373Y210820D01*
X878021Y212585D01*
X877022Y214082D01*
X875525Y215082D01*
X873760Y215433D01*
D02*
G37*
G36*
X711200Y234483D02*
X709435Y234132D01*
X707938Y233132D01*
X706938Y231635D01*
X706587Y229870D01*
X706938Y228105D01*
X707739Y226906D01*
X707860Y226060D01*
X707739Y225214D01*
X706938Y224015D01*
X706587Y222250D01*
X706938Y220485D01*
X707739Y219286D01*
X707860Y218440D01*
X707739Y217594D01*
X706938Y216395D01*
X706587Y214630D01*
X706938Y212865D01*
X707938Y211368D01*
X709435Y210368D01*
X711200Y210017D01*
X712965Y210368D01*
X714462Y211368D01*
X715462Y212865D01*
X715813Y214630D01*
X715462Y216395D01*
X714660Y217594D01*
X714540Y218440D01*
X714660Y219286D01*
X715462Y220485D01*
X715813Y222250D01*
X715462Y224015D01*
X714660Y225214D01*
X714540Y226060D01*
X714660Y226906D01*
X715462Y228105D01*
X715813Y229870D01*
X715462Y231635D01*
X714462Y233132D01*
X712965Y234132D01*
X711200Y234483D01*
D02*
G37*
G36*
X1014730Y216703D02*
X1012965Y216352D01*
X1011468Y215352D01*
X1010469Y213855D01*
X1010117Y212090D01*
X1010469Y210325D01*
X1011411Y208915D01*
X1010469Y207505D01*
X1010117Y205740D01*
X1010469Y203975D01*
X1011468Y202478D01*
X1012965Y201479D01*
X1014730Y201127D01*
X1016495Y201479D01*
X1017992Y202478D01*
X1018991Y203975D01*
X1019343Y205740D01*
X1018991Y207505D01*
X1018049Y208915D01*
X1018991Y210325D01*
X1019343Y212090D01*
X1018991Y213855D01*
X1017992Y215352D01*
X1016495Y216352D01*
X1014730Y216703D01*
D02*
G37*
G36*
X495300Y110023D02*
X493535Y109671D01*
X492038Y108672D01*
X491039Y107175D01*
X490687Y105410D01*
X491039Y103645D01*
X492038Y102148D01*
X493535Y101149D01*
X495300Y100797D01*
X497065Y101149D01*
X498562Y102148D01*
X499562Y103645D01*
X499913Y105410D01*
X499562Y107175D01*
X498562Y108672D01*
X497065Y109671D01*
X495300Y110023D01*
D02*
G37*
G36*
X574610Y98931D02*
X569663Y98542D01*
X564838Y97384D01*
X560254Y95485D01*
X556023Y92892D01*
X552250Y89670D01*
X549028Y85897D01*
X546435Y81666D01*
X544536Y77081D01*
X543378Y72257D01*
X542989Y67310D01*
X543378Y62363D01*
X544536Y57538D01*
X546435Y52954D01*
X549028Y48723D01*
X552250Y44950D01*
X556023Y41728D01*
X560254Y39135D01*
X564838Y37236D01*
X569663Y36078D01*
X574610Y35689D01*
X579557Y36078D01*
X584382Y37236D01*
X588966Y39135D01*
X593197Y41728D01*
X596970Y44950D01*
X600192Y48723D01*
X602785Y52954D01*
X604684Y57538D01*
X605842Y62363D01*
X606231Y67310D01*
X605842Y72257D01*
X604684Y77081D01*
X602785Y81666D01*
X600192Y85897D01*
X596970Y89670D01*
X593197Y92892D01*
X588966Y95485D01*
X584382Y97384D01*
X579557Y98542D01*
X574610Y98931D01*
D02*
G37*
G36*
X934720Y159553D02*
X932955Y159201D01*
X931458Y158202D01*
X930362D01*
X928865Y159201D01*
X927100Y159553D01*
X925335Y159201D01*
X923838Y158202D01*
X922839Y156705D01*
X922487Y154940D01*
X922839Y153175D01*
X923781Y151765D01*
X922839Y150355D01*
X922487Y148590D01*
X922839Y146825D01*
X923838Y145328D01*
X925335Y144328D01*
X927100Y143977D01*
X928865Y144328D01*
X930362Y145328D01*
X931458D01*
X932955Y144328D01*
X934720Y143977D01*
X936485Y144328D01*
X937982Y145328D01*
X938981Y146825D01*
X939333Y148590D01*
X938981Y150355D01*
X938039Y151765D01*
X938981Y153175D01*
X939333Y154940D01*
X938981Y156705D01*
X937982Y158202D01*
X936485Y159201D01*
X934720Y159553D01*
D02*
G37*
G36*
X853440D02*
X851675Y159201D01*
X850178Y158202D01*
X849082D01*
X847585Y159201D01*
X845820Y159553D01*
X844055Y159201D01*
X842558Y158202D01*
X841559Y156705D01*
X841207Y154940D01*
X841559Y153175D01*
X842501Y151765D01*
X841559Y150355D01*
X841207Y148590D01*
X841559Y146825D01*
X842558Y145328D01*
X844055Y144328D01*
X845820Y143977D01*
X847585Y144328D01*
X849082Y145328D01*
X850178D01*
X851675Y144328D01*
X853440Y143977D01*
X855205Y144328D01*
X856702Y145328D01*
X857701Y146825D01*
X858053Y148590D01*
X857701Y150355D01*
X856759Y151765D01*
X857701Y153175D01*
X858053Y154940D01*
X857701Y156705D01*
X856702Y158202D01*
X855205Y159201D01*
X853440Y159553D01*
D02*
G37*
G36*
X825500Y145583D02*
X823735Y145232D01*
X822238Y144232D01*
X821238Y142735D01*
X820887Y140970D01*
X821238Y139205D01*
X822238Y137708D01*
X823735Y136708D01*
X825500Y136357D01*
X827265Y136708D01*
X828762Y137708D01*
X829762Y139205D01*
X830113Y140970D01*
X829762Y142735D01*
X828762Y144232D01*
X827265Y145232D01*
X825500Y145583D01*
D02*
G37*
G36*
X913130Y144313D02*
X911365Y143961D01*
X909868Y142962D01*
X908868Y141465D01*
X908517Y139700D01*
X908868Y137935D01*
X909868Y136438D01*
X911365Y135438D01*
X913130Y135087D01*
X914895Y135438D01*
X916392Y136438D01*
X917392Y137935D01*
X917743Y139700D01*
X917392Y141465D01*
X916392Y142962D01*
X914895Y143961D01*
X913130Y144313D01*
D02*
G37*
G36*
X1097280Y137963D02*
X1095515Y137612D01*
X1094018Y136612D01*
X1093018Y135115D01*
X1092667Y133350D01*
X1093018Y131585D01*
X1094018Y130088D01*
X1095515Y129088D01*
X1097280Y128737D01*
X1099045Y129088D01*
X1100542Y130088D01*
X1101542Y131585D01*
X1101893Y133350D01*
X1101542Y135115D01*
X1100542Y136612D01*
X1099045Y137612D01*
X1097280Y137963D01*
D02*
G37*
G36*
X1038860Y134153D02*
X1037095Y133801D01*
X1035598Y132802D01*
X1034598Y131305D01*
X1034247Y129540D01*
X1034598Y127775D01*
X1035598Y126278D01*
X1037095Y125279D01*
X1038860Y124927D01*
X1040625Y125279D01*
X1042122Y126278D01*
X1043121Y127775D01*
X1043473Y129540D01*
X1043121Y131305D01*
X1042122Y132802D01*
X1040625Y133801D01*
X1038860Y134153D01*
D02*
G37*
G36*
X951230Y132883D02*
X949465Y132531D01*
X947968Y131532D01*
X946969Y130035D01*
X946617Y128270D01*
X946969Y126505D01*
X947968Y125008D01*
X949465Y124009D01*
X951230Y123657D01*
X952995Y124009D01*
X954492Y125008D01*
X955491Y126505D01*
X955843Y128270D01*
X955491Y130035D01*
X954492Y131532D01*
X952995Y132531D01*
X951230Y132883D01*
D02*
G37*
G36*
X1059180Y129073D02*
X1057415Y128722D01*
X1055918Y127722D01*
X1054919Y126225D01*
X1054567Y124460D01*
X1054919Y122695D01*
X1055918Y121198D01*
X1057415Y120198D01*
X1059180Y119847D01*
X1060945Y120198D01*
X1062442Y121198D01*
X1063441Y122695D01*
X1063793Y124460D01*
X1063441Y126225D01*
X1062442Y127722D01*
X1060945Y128722D01*
X1059180Y129073D01*
D02*
G37*
G36*
X866140D02*
X864375Y128722D01*
X862878Y127722D01*
X861879Y126225D01*
X861527Y124460D01*
X861879Y122695D01*
X862878Y121198D01*
X864375Y120198D01*
X866140Y119847D01*
X867905Y120198D01*
X869402Y121198D01*
X870402Y122695D01*
X870753Y124460D01*
X870402Y126225D01*
X869402Y127722D01*
X867905Y128722D01*
X866140Y129073D01*
D02*
G37*
G36*
X777240D02*
X775475Y128722D01*
X773978Y127722D01*
X772979Y126225D01*
X772627Y124460D01*
X772979Y122695D01*
X773978Y121198D01*
X775475Y120198D01*
X777240Y119847D01*
X779005Y120198D01*
X780502Y121198D01*
X781501Y122695D01*
X781853Y124460D01*
X781501Y126225D01*
X780502Y127722D01*
X779005Y128722D01*
X777240Y129073D01*
D02*
G37*
G36*
X1004570Y115103D02*
X1002805Y114752D01*
X1001308Y113752D01*
X1000309Y112255D01*
X999957Y110490D01*
X1000309Y108725D01*
X1001308Y107228D01*
X1002805Y106229D01*
X1004570Y105877D01*
X1006335Y106229D01*
X1007832Y107228D01*
X1008831Y108725D01*
X1009183Y110490D01*
X1008831Y112255D01*
X1007832Y113752D01*
X1006335Y114752D01*
X1004570Y115103D01*
D02*
G37*
G36*
X1060450Y117643D02*
X1058685Y117291D01*
X1057188Y116292D01*
X1056189Y114795D01*
X1055837Y113030D01*
X1056189Y111265D01*
X1057188Y109768D01*
X1057816Y109349D01*
Y107821D01*
X1057188Y107402D01*
X1056189Y105905D01*
X1055837Y104140D01*
X1056189Y102375D01*
X1057188Y100878D01*
X1058685Y99879D01*
X1060450Y99527D01*
X1062215Y99879D01*
X1063712Y100878D01*
X1064712Y102375D01*
X1065063Y104140D01*
X1064712Y105905D01*
X1063712Y107402D01*
X1063083Y107821D01*
Y109349D01*
X1063712Y109768D01*
X1064712Y111265D01*
X1065063Y113030D01*
X1064712Y114795D01*
X1063712Y116292D01*
X1062215Y117291D01*
X1060450Y117643D01*
D02*
G37*
G36*
X970280Y125263D02*
X968515Y124911D01*
X967018Y123912D01*
X966019Y122415D01*
X965667Y120650D01*
X966019Y118885D01*
X967018Y117388D01*
X968281Y116544D01*
X968459Y115604D01*
X968423Y115112D01*
X968288Y115022D01*
X967289Y113525D01*
X966937Y111760D01*
X967289Y109995D01*
X968288Y108498D01*
X968916Y108079D01*
Y106551D01*
X968288Y106132D01*
X967289Y104635D01*
X966937Y102870D01*
X967289Y101105D01*
X968288Y99608D01*
X969785Y98609D01*
X971550Y98257D01*
X973315Y98609D01*
X974812Y99608D01*
X975811Y101105D01*
X976163Y102870D01*
X975811Y104635D01*
X974812Y106132D01*
X974184Y106551D01*
Y108079D01*
X974812Y108498D01*
X975811Y109995D01*
X976163Y111760D01*
X975811Y113525D01*
X974812Y115022D01*
X973549Y115866D01*
X973371Y116806D01*
X973407Y117298D01*
X973542Y117388D01*
X974541Y118885D01*
X974893Y120650D01*
X974541Y122415D01*
X973542Y123912D01*
X972045Y124911D01*
X970280Y125263D01*
D02*
G37*
G36*
X884070Y123993D02*
X882305Y123642D01*
X880808Y122642D01*
X879809Y121145D01*
X879457Y119380D01*
X879809Y117615D01*
X880808Y116118D01*
X882305Y115119D01*
X883907Y114800D01*
X884215Y114346D01*
X884487Y113555D01*
X883618Y112255D01*
X883267Y110490D01*
X883618Y108725D01*
X884618Y107228D01*
X885246Y106809D01*
Y105281D01*
X884618Y104862D01*
X883618Y103365D01*
X883267Y101600D01*
X883618Y99835D01*
X884618Y98338D01*
X886115Y97338D01*
X887880Y96987D01*
X889645Y97338D01*
X891142Y98338D01*
X892141Y99835D01*
X892493Y101600D01*
X892141Y103365D01*
X891142Y104862D01*
X890514Y105281D01*
Y106809D01*
X891142Y107228D01*
X892141Y108725D01*
X892493Y110490D01*
X892141Y112255D01*
X891142Y113752D01*
X889645Y114752D01*
X888042Y115070D01*
X887735Y115524D01*
X887463Y116314D01*
X888332Y117615D01*
X888683Y119380D01*
X888332Y121145D01*
X887332Y122642D01*
X885835Y123642D01*
X884070Y123993D01*
D02*
G37*
G36*
X797250D02*
X795485Y123642D01*
X793988Y122642D01*
X792989Y121145D01*
X792637Y119380D01*
X792989Y117615D01*
X793988Y116118D01*
X795485Y115119D01*
X797087Y114800D01*
X797395Y114346D01*
X797667Y113555D01*
X796798Y112255D01*
X796447Y110490D01*
X796798Y108725D01*
X797798Y107228D01*
X798426Y106809D01*
Y105281D01*
X797798Y104862D01*
X796798Y103365D01*
X796447Y101600D01*
X796798Y99835D01*
X797798Y98338D01*
X799295Y97338D01*
X801060Y96987D01*
X802825Y97338D01*
X804322Y98338D01*
X805322Y99835D01*
X805673Y101600D01*
X805322Y103365D01*
X804322Y104862D01*
X803693Y105281D01*
Y106809D01*
X804322Y107228D01*
X805322Y108725D01*
X805673Y110490D01*
X805322Y112255D01*
X804322Y113752D01*
X802825Y114752D01*
X801223Y115070D01*
X800915Y115524D01*
X800643Y116314D01*
X801512Y117615D01*
X801863Y119380D01*
X801512Y121145D01*
X800512Y122642D01*
X799015Y123642D01*
X797250Y123993D01*
D02*
G37*
G36*
X1046480Y98593D02*
X1044715Y98242D01*
X1043218Y97242D01*
X1042218Y95745D01*
X1041867Y93980D01*
X1042218Y92215D01*
X1043218Y90718D01*
X1044715Y89719D01*
X1046480Y89367D01*
X1048245Y89719D01*
X1049742Y90718D01*
X1050742Y92215D01*
X1051093Y93980D01*
X1050742Y95745D01*
X1049742Y97242D01*
X1048245Y98242D01*
X1046480Y98593D01*
D02*
G37*
G36*
X869950Y96053D02*
X868185Y95702D01*
X866688Y94702D01*
X865688Y93205D01*
X865337Y91440D01*
X865688Y89675D01*
X866688Y88178D01*
X868185Y87178D01*
X869950Y86827D01*
X871715Y87178D01*
X873212Y88178D01*
X874212Y89675D01*
X874563Y91440D01*
X874212Y93205D01*
X873212Y94702D01*
X871715Y95702D01*
X869950Y96053D01*
D02*
G37*
G36*
X782320D02*
X780555Y95702D01*
X779058Y94702D01*
X778058Y93205D01*
X777707Y91440D01*
X778058Y89675D01*
X779058Y88178D01*
X780555Y87178D01*
X782320Y86827D01*
X784085Y87178D01*
X785582Y88178D01*
X786581Y89675D01*
X786933Y91440D01*
X786581Y93205D01*
X785582Y94702D01*
X784085Y95702D01*
X782320Y96053D01*
D02*
G37*
G36*
X1059180Y93513D02*
X1057415Y93161D01*
X1055918Y92162D01*
X1054919Y90665D01*
X1054567Y88900D01*
X1054919Y87135D01*
X1055918Y85638D01*
X1057415Y84639D01*
X1059180Y84287D01*
X1060945Y84639D01*
X1062442Y85638D01*
X1063441Y87135D01*
X1063793Y88900D01*
X1063441Y90665D01*
X1062442Y92162D01*
X1060945Y93161D01*
X1059180Y93513D01*
D02*
G37*
G36*
X1073150Y65573D02*
X1071385Y65222D01*
X1069888Y64222D01*
X1068888Y62725D01*
X1068537Y60960D01*
X1068888Y59195D01*
X1069888Y57698D01*
X1071385Y56698D01*
X1073150Y56347D01*
X1074915Y56698D01*
X1076412Y57698D01*
X1077411Y59195D01*
X1077763Y60960D01*
X1077411Y62725D01*
X1076412Y64222D01*
X1074915Y65222D01*
X1073150Y65573D01*
D02*
G37*
G36*
X1061720Y83353D02*
X1059955Y83001D01*
X1058458Y82002D01*
X1057458Y80505D01*
X1057107Y78740D01*
X1057458Y76975D01*
X1058458Y75478D01*
X1059087Y75059D01*
Y73531D01*
X1058458Y73112D01*
X1057458Y71615D01*
X1057107Y69850D01*
X1057458Y68085D01*
X1058458Y66588D01*
X1059087Y66169D01*
Y64641D01*
X1058458Y64222D01*
X1057458Y62725D01*
X1057107Y60960D01*
X1057458Y59195D01*
X1058458Y57698D01*
X1059955Y56698D01*
X1061720Y56347D01*
X1063485Y56698D01*
X1064982Y57698D01*
X1065982Y59195D01*
X1066333Y60960D01*
X1065982Y62725D01*
X1064982Y64222D01*
X1064353Y64641D01*
Y66169D01*
X1064982Y66588D01*
X1065982Y68085D01*
X1066333Y69850D01*
X1065982Y71615D01*
X1064982Y73112D01*
X1064353Y73531D01*
Y75059D01*
X1064982Y75478D01*
X1065982Y76975D01*
X1066333Y78740D01*
X1065982Y80505D01*
X1064982Y82002D01*
X1063485Y83001D01*
X1061720Y83353D01*
D02*
G37*
G36*
X972510Y92243D02*
X970745Y91891D01*
X969248Y90892D01*
X968249Y89395D01*
X967897Y87630D01*
X968249Y85865D01*
X969248Y84368D01*
X970745Y83369D01*
X972510Y83017D01*
X972643Y81795D01*
X972325Y81732D01*
X970828Y80732D01*
X969828Y79235D01*
X969477Y77470D01*
X969828Y75705D01*
X970828Y74208D01*
X971301Y73892D01*
Y72365D01*
X970518Y71842D01*
X969519Y70345D01*
X969167Y68580D01*
X969519Y66815D01*
X970518Y65318D01*
X971146Y64899D01*
Y63371D01*
X970518Y62952D01*
X969519Y61455D01*
X969167Y59690D01*
X969519Y57925D01*
X970518Y56428D01*
X972015Y55429D01*
X973780Y55077D01*
X975545Y55429D01*
X977042Y56428D01*
X978042Y57925D01*
X978213Y58785D01*
X979507D01*
X979678Y57925D01*
X980678Y56428D01*
X982175Y55429D01*
X983940Y55077D01*
X985705Y55429D01*
X987202Y56428D01*
X988202Y57925D01*
X988553Y59690D01*
X988202Y61455D01*
X987202Y62952D01*
X985705Y63952D01*
X983940Y64303D01*
X982175Y63952D01*
X980678Y62952D01*
X979678Y61455D01*
X979507Y60595D01*
X978213D01*
X978042Y61455D01*
X977042Y62952D01*
X976413Y63371D01*
Y64899D01*
X977042Y65318D01*
X978042Y66815D01*
X978393Y68580D01*
X978042Y70345D01*
X977042Y71842D01*
X976569Y72158D01*
Y73685D01*
X977352Y74208D01*
X978352Y75705D01*
X978703Y77470D01*
X978352Y79235D01*
X977352Y80732D01*
X975855Y81732D01*
X974090Y82083D01*
X973958Y83305D01*
X974275Y83369D01*
X975772Y84368D01*
X976771Y85865D01*
X977123Y87630D01*
X976771Y89395D01*
X975772Y90892D01*
X974275Y91891D01*
X972510Y92243D01*
D02*
G37*
G36*
X900430Y63033D02*
X898665Y62681D01*
X897168Y61682D01*
X896169Y60185D01*
X895817Y58420D01*
X896169Y56655D01*
X897168Y55158D01*
X898665Y54159D01*
X900430Y53807D01*
X902195Y54159D01*
X903692Y55158D01*
X904691Y56655D01*
X905043Y58420D01*
X904691Y60185D01*
X903692Y61682D01*
X902195Y62681D01*
X900430Y63033D01*
D02*
G37*
G36*
X887880Y90973D02*
X886115Y90622D01*
X884618Y89622D01*
X883618Y88125D01*
X883267Y86360D01*
X883618Y84595D01*
X884618Y83098D01*
X886115Y82099D01*
X887535Y81816D01*
Y80521D01*
X887235Y80462D01*
X885738Y79462D01*
X884738Y77965D01*
X884387Y76200D01*
X884738Y74435D01*
X885738Y72938D01*
X886367Y72519D01*
Y70991D01*
X885738Y70572D01*
X884738Y69075D01*
X884387Y67310D01*
X884738Y65545D01*
X885738Y64048D01*
X886367Y63629D01*
Y62101D01*
X885738Y61682D01*
X884738Y60185D01*
X884387Y58420D01*
X884738Y56655D01*
X885738Y55158D01*
X887235Y54159D01*
X889000Y53807D01*
X890765Y54159D01*
X892262Y55158D01*
X893261Y56655D01*
X893613Y58420D01*
X893261Y60185D01*
X892262Y61682D01*
X891634Y62101D01*
Y63629D01*
X892262Y64048D01*
X893261Y65545D01*
X893613Y67310D01*
X893261Y69075D01*
X892262Y70572D01*
X891634Y70991D01*
Y72519D01*
X892262Y72938D01*
X893261Y74435D01*
X893613Y76200D01*
X893261Y77965D01*
X892262Y79462D01*
X890765Y80462D01*
X889345Y80744D01*
Y82039D01*
X889645Y82099D01*
X891142Y83098D01*
X892141Y84595D01*
X892493Y86360D01*
X892141Y88125D01*
X891142Y89622D01*
X889645Y90622D01*
X887880Y90973D01*
D02*
G37*
G36*
X811530Y63033D02*
X809765Y62681D01*
X808268Y61682D01*
X807269Y60185D01*
X806917Y58420D01*
X807269Y56655D01*
X808268Y55158D01*
X809765Y54159D01*
X811530Y53807D01*
X813295Y54159D01*
X814792Y55158D01*
X815791Y56655D01*
X816143Y58420D01*
X815791Y60185D01*
X814792Y61682D01*
X813295Y62681D01*
X811530Y63033D01*
D02*
G37*
G36*
X801060Y90973D02*
X799295Y90622D01*
X797798Y89622D01*
X796798Y88125D01*
X796447Y86360D01*
X796798Y84595D01*
X797798Y83098D01*
X799295Y82099D01*
X799675Y82023D01*
Y80728D01*
X798335Y80462D01*
X796838Y79462D01*
X795838Y77965D01*
X795487Y76200D01*
X795838Y74435D01*
X796838Y72938D01*
X797467Y72519D01*
Y70991D01*
X796838Y70572D01*
X795838Y69075D01*
X795487Y67310D01*
X795838Y65545D01*
X796838Y64048D01*
X797467Y63629D01*
Y62101D01*
X796838Y61682D01*
X795838Y60185D01*
X795487Y58420D01*
X795838Y56655D01*
X796838Y55158D01*
X798335Y54159D01*
X800100Y53807D01*
X801865Y54159D01*
X803362Y55158D01*
X804361Y56655D01*
X804713Y58420D01*
X804361Y60185D01*
X803362Y61682D01*
X802734Y62101D01*
Y63629D01*
X803362Y64048D01*
X804361Y65545D01*
X804713Y67310D01*
X804361Y69075D01*
X803362Y70572D01*
X802734Y70991D01*
Y72519D01*
X803362Y72938D01*
X804361Y74435D01*
X804713Y76200D01*
X804361Y77965D01*
X803362Y79462D01*
X801865Y80462D01*
X801485Y80537D01*
Y81832D01*
X802825Y82099D01*
X804322Y83098D01*
X805322Y84595D01*
X805673Y86360D01*
X805322Y88125D01*
X804322Y89622D01*
X802825Y90622D01*
X801060Y90973D01*
D02*
G37*
G36*
X694610Y98932D02*
X689663Y98542D01*
X684838Y97384D01*
X680254Y95485D01*
X676023Y92892D01*
X672250Y89670D01*
X669028Y85897D01*
X666435Y81666D01*
X664536Y77082D01*
X663378Y72257D01*
X662989Y67310D01*
X663378Y62363D01*
X664536Y57538D01*
X666435Y52954D01*
X669028Y48723D01*
X672250Y44950D01*
X676023Y41728D01*
X680254Y39135D01*
X684838Y37236D01*
X689663Y36078D01*
X694610Y35689D01*
X699557Y36078D01*
X704382Y37236D01*
X708966Y39135D01*
X713197Y41728D01*
X716970Y44950D01*
X720192Y48723D01*
X722785Y52954D01*
X724684Y57538D01*
X725842Y62363D01*
X726232Y67310D01*
X725842Y72257D01*
X724684Y77082D01*
X722785Y81666D01*
X720192Y85897D01*
X716970Y89670D01*
X713197Y92892D01*
X708966Y95485D01*
X704382Y97384D01*
X699557Y98542D01*
X694610Y98932D01*
D02*
G37*
%LPD*%
D12*
X312420Y67310D02*
Y175314D01*
X314960Y177854D01*
X312420Y52070D02*
Y59690D01*
Y67310D01*
X800100Y158750D02*
X808990Y167640D01*
X812898D01*
X814070Y168812D01*
Y224790D01*
X772160Y266700D02*
X814070Y224790D01*
X817880Y149860D02*
Y231140D01*
X782320Y266700D02*
X817880Y231140D01*
X1131570Y256540D02*
Y259080D01*
X1125220Y265430D02*
X1131570Y259080D01*
X1105186Y158844D02*
X1129474Y183132D01*
X1105186Y155519D02*
Y158844D01*
X1101090Y151423D02*
X1105186Y155519D01*
X1101090Y151130D02*
Y151423D01*
X1121410Y204566D02*
X1129474Y196502D01*
X1121410Y204566D02*
Y228600D01*
X1129474Y183132D02*
Y196502D01*
X1132998Y181672D02*
Y197962D01*
X1108710Y157384D02*
X1132998Y181672D01*
X1125220Y205740D02*
X1132998Y197962D01*
X1125220Y205740D02*
Y255078D01*
X1116330Y233680D02*
X1121410Y228600D01*
Y258888D02*
X1125220Y255078D01*
X1121410Y258888D02*
Y321310D01*
X1123185Y184655D02*
X1123950Y185420D01*
X1120645Y184655D02*
X1123185D01*
X1096010Y160020D02*
X1120645Y184655D01*
X1108710Y142240D02*
Y157384D01*
X1125220Y265430D02*
Y299720D01*
X1120140Y322580D02*
X1121410Y321310D01*
X1109980Y322580D02*
X1120140D01*
X1125220Y299720D02*
X1129030Y303530D01*
X1135380D01*
X1186180Y208280D02*
Y208685D01*
D17*
X0Y0D02*
X1270000D01*
Y551180D01*
X0D02*
X1270000D01*
X0Y0D02*
Y551180D01*
D62*
X481330Y476250D02*
D03*
Y501650D02*
D03*
Y527050D02*
D03*
D66*
X312420Y52070D02*
D03*
Y67310D02*
D03*
Y59690D02*
D03*
X800100Y158750D02*
D03*
X817880Y149860D02*
D03*
X772160Y266700D02*
D03*
X782320D02*
D03*
X1229360Y407670D02*
D03*
X1235710D02*
D03*
X1236980Y394970D02*
D03*
Y369570D02*
D03*
X1230630D02*
D03*
X1224280Y368300D02*
D03*
X1236980Y382270D02*
D03*
X1229360D02*
D03*
X1221740D02*
D03*
X1229360Y394970D02*
D03*
X1221740D02*
D03*
Y407670D02*
D03*
X1217930Y134620D02*
D03*
X1234440Y147320D02*
D03*
X1225550D02*
D03*
X1245870Y195580D02*
D03*
Y180340D02*
D03*
Y187960D02*
D03*
X1230630Y160020D02*
D03*
X1238250D02*
D03*
X1223010D02*
D03*
X1216660Y147320D02*
D03*
X1226820Y134620D02*
D03*
X1235710D02*
D03*
X641350Y533400D02*
D03*
Y524510D02*
D03*
X623570Y533400D02*
D03*
Y524510D02*
D03*
X632460Y533400D02*
D03*
Y524510D02*
D03*
X614680Y533400D02*
D03*
Y524510D02*
D03*
X314960Y177854D02*
D03*
X1041400Y303530D02*
D03*
Y293370D02*
D03*
Y283210D02*
D03*
X1131570Y256540D02*
D03*
X1174115Y346710D02*
D03*
X1176020Y327660D02*
D03*
X1140460Y341630D02*
D03*
X1123950Y185420D02*
D03*
X1167130Y191770D02*
D03*
X1168400Y205740D02*
D03*
X1180465Y213995D02*
D03*
X1174105Y189408D02*
D03*
X1186180Y208280D02*
D03*
X1179830Y232410D02*
D03*
X1169670Y229403D02*
D03*
X1116330Y233680D02*
D03*
X1108710Y142240D02*
D03*
X1109980Y322580D02*
D03*
X1176020Y318770D02*
D03*
X1183640Y326390D02*
D03*
X1135380Y303530D02*
D03*
X1170940Y302260D02*
D03*
X1177290Y297180D02*
D03*
X527050Y358140D02*
D03*
Y349250D02*
D03*
X1181735Y346710D02*
D03*
X1101090Y151130D02*
D03*
X1096010Y160020D02*
D03*
X1174750Y205740D02*
D03*
X1043940Y195580D02*
D03*
Y207010D02*
D03*
X1003300Y144780D02*
D03*
X995680D02*
D03*
X988060D02*
D03*
X980440D02*
D03*
X1018540Y107950D02*
D03*
X928370Y96520D02*
D03*
X843280Y95250D02*
D03*
X755650D02*
D03*
X640080D02*
D03*
X1018540Y115570D02*
D03*
X1164590Y318770D02*
D03*
X1043940Y237490D02*
D03*
Y215900D02*
D03*
Y226060D02*
D03*
X557530Y346710D02*
D03*
Y355600D02*
D03*
X575310Y346710D02*
D03*
Y355600D02*
D03*
X566420Y346710D02*
D03*
Y355600D02*
D03*
X584200Y346710D02*
D03*
Y355600D02*
D03*
X640080Y50800D02*
D03*
Y59690D02*
D03*
Y68580D02*
D03*
Y77470D02*
D03*
Y86360D02*
D03*
Y102870D02*
D03*
X618490Y49530D02*
D03*
Y58420D02*
D03*
Y67310D02*
D03*
Y76200D02*
D03*
Y85090D02*
D03*
Y93980D02*
D03*
Y101600D02*
D03*
X541020Y13970D02*
D03*
X549910D02*
D03*
X558800D02*
D03*
X567690D02*
D03*
X576580D02*
D03*
X585470D02*
D03*
X593090D02*
D03*
X541020Y22860D02*
D03*
X549910D02*
D03*
X558800D02*
D03*
X567690D02*
D03*
X576580D02*
D03*
X585470D02*
D03*
X593090D02*
D03*
X690880Y16510D02*
D03*
X681990D02*
D03*
X673100D02*
D03*
X664210D02*
D03*
X655320D02*
D03*
X646430D02*
D03*
X638810D02*
D03*
X690880Y25400D02*
D03*
X681990D02*
D03*
X673100D02*
D03*
X664210D02*
D03*
X655320D02*
D03*
X646430D02*
D03*
X638810D02*
D03*
X488950Y358140D02*
D03*
X496570D02*
D03*
X504190D02*
D03*
X511810D02*
D03*
X519430D02*
D03*
X488950Y349250D02*
D03*
X496570D02*
D03*
X504190D02*
D03*
X511810D02*
D03*
X519430D02*
D03*
X497840Y214630D02*
D03*
Y222250D02*
D03*
Y229870D02*
D03*
Y237490D02*
D03*
Y245110D02*
D03*
Y252730D02*
D03*
X488950Y214630D02*
D03*
Y222250D02*
D03*
Y229870D02*
D03*
Y237490D02*
D03*
Y245110D02*
D03*
Y252730D02*
D03*
X755650Y111760D02*
D03*
Y104140D02*
D03*
Y86360D02*
D03*
Y77470D02*
D03*
Y68580D02*
D03*
Y59690D02*
D03*
X843280D02*
D03*
Y68580D02*
D03*
Y77470D02*
D03*
Y86360D02*
D03*
Y104140D02*
D03*
Y111760D02*
D03*
X928370Y113030D02*
D03*
Y105410D02*
D03*
Y87630D02*
D03*
Y78740D02*
D03*
Y69850D02*
D03*
Y60960D02*
D03*
X1018540Y63500D02*
D03*
Y72390D02*
D03*
Y81280D02*
D03*
Y90170D02*
D03*
Y99060D02*
D03*
X1106170Y114300D02*
D03*
Y106680D02*
D03*
Y97790D02*
D03*
Y88900D02*
D03*
Y80010D02*
D03*
Y71120D02*
D03*
Y62230D02*
D03*
X975360Y433070D02*
D03*
X982980D02*
D03*
X990600D02*
D03*
X998220D02*
D03*
X944880D02*
D03*
X952500D02*
D03*
X960120D02*
D03*
X967740D02*
D03*
X975360Y425450D02*
D03*
X982980D02*
D03*
X990600D02*
D03*
X998220D02*
D03*
X944880D02*
D03*
X952500D02*
D03*
X960120D02*
D03*
X967740D02*
D03*
X1003300Y138430D02*
D03*
X995680D02*
D03*
X988060D02*
D03*
X980440D02*
D03*
D67*
X1211580Y394970D02*
X1257300D01*
X1240116Y408344D02*
X1240790Y407670D01*
X1249680D01*
X1216660Y147320D02*
X1225550D01*
X1253490D01*
X1245870Y173394D02*
X1254760D01*
X1151666Y193263D02*
X1170249D01*
X1223010Y160020D02*
X1230630D01*
X1254760D01*
X1221740D02*
X1223010D01*
X1200150Y134620D02*
X1257300D01*
X1209040Y147320D02*
X1216660D01*
X1206500Y149860D02*
X1209040Y147320D01*
X1170249Y193263D02*
X1174105Y189408D01*
X1171075Y304164D02*
X1177290Y297949D01*
X1160144Y304164D02*
X1171075D01*
X1164590Y318770D02*
X1176020D01*
X1158240Y302260D02*
X1160144Y304164D01*
X1177290Y297180D02*
Y297949D01*
X1209040Y392430D02*
X1211580Y394970D01*
X1220470Y382270D02*
X1257300D01*
X1229974Y369570D02*
X1257300D01*
X1227434Y367030D02*
X1229974Y369570D01*
X1249680Y407670D02*
X1256030D01*
X1168400Y229870D02*
X1186180D01*
X1180465Y213995D02*
X1189990Y204470D01*
X1164273Y204788D02*
X1172686D01*
X1160780Y208280D02*
X1164273Y204788D01*
X1174750Y329565D02*
X1189355D01*
D68*
X1193204Y408344D02*
X1240116D01*
X1193856Y269184D02*
X1245870Y217170D01*
Y173394D02*
Y217170D01*
X1206500Y149860D02*
Y209550D01*
X1191260Y143510D02*
Y201930D01*
Y143510D02*
X1200150Y134620D01*
X1186180Y229870D02*
X1206500Y209550D01*
X1161149Y269184D02*
X1193856D01*
X1137952Y245987D02*
X1161149Y269184D01*
X1137952Y206978D02*
Y245987D01*
X1145572Y314928D02*
Y374257D01*
X1160796Y351746D02*
X1201480Y392430D01*
X1160796Y322564D02*
Y351746D01*
X1137952Y206978D02*
X1151666Y193263D01*
X1153176Y215884D02*
Y236176D01*
X1162166Y245166D01*
X1192414D01*
X1153176Y215884D02*
X1160780Y208280D01*
X1156266Y384951D02*
X1169811D01*
X1145572Y374257D02*
X1156266Y384951D01*
X1145572Y314928D02*
X1158240Y302260D01*
X1169811Y384951D02*
X1193204Y408344D01*
X1201480Y392430D02*
X1209040D01*
X1192414Y245166D02*
X1221740Y215840D01*
Y160694D02*
Y215840D01*
X1189969Y329565D02*
X1227434Y367030D01*
X1189355Y329565D02*
X1189969D01*
X1177290Y346710D02*
X1184910D01*
X1219856Y381596D02*
X1220470D01*
X1219856Y381596D02*
X1219856Y381596D01*
X1219796Y381596D02*
X1219856D01*
X1184910Y346710D02*
X1219796Y381596D01*
M02*
