G04*
G04 #@! TF.GenerationSoftware,Altium Limited,Altium Designer,19.1.5 (86)*
G04*
G04 Layer_Color=8421504*
%FSLAX44Y44*%
%MOMM*%
G71*
G01*
G75*
%ADD17C,0.1000*%
%ADD18R,0.7400X2.9200*%
%ADD19R,0.4000X0.6000*%
%ADD20R,1.3000X0.8000*%
%ADD21R,1.3716X0.5080*%
%ADD22R,0.3500X1.4000*%
%ADD23R,0.6000X0.4000*%
%ADD24R,0.6000X0.4500*%
%ADD25R,0.4500X0.6000*%
%ADD26R,1.2700X0.5588*%
%ADD27R,0.9000X0.2600*%
%ADD28R,0.2600X0.9000*%
%ADD29R,2.0700X3.0700*%
%ADD30R,0.8000X0.6000*%
%ADD31R,1.0000X1.6000*%
%ADD32R,1.3000X0.7000*%
%ADD33R,0.7000X0.9000*%
%ADD34R,2.0250X2.6800*%
%ADD35R,1.5700X0.4100*%
%ADD36R,0.7000X1.3000*%
%ADD37R,0.5000X0.9000*%
%ADD38R,0.9000X0.5000*%
%ADD39R,0.3500X0.8500*%
%ADD40R,5.4100X1.8800*%
%ADD41R,1.4224X5.4102*%
%ADD42R,1.6000X1.0000*%
%ADD43R,0.8500X0.3500*%
G36*
X1685477Y560730D02*
X1678660D01*
Y570753D01*
X1685477D01*
Y560730D01*
D02*
G37*
G36*
X1676457D02*
X1669660D01*
Y570765D01*
X1676457D01*
Y560730D01*
D02*
G37*
G36*
X1346290Y558987D02*
X1334397D01*
Y576630D01*
X1346290D01*
Y558987D01*
D02*
G37*
G36*
X1685470Y548530D02*
X1678660D01*
Y558529D01*
X1685470D01*
Y548530D01*
D02*
G37*
G36*
X1676456D02*
X1669660D01*
Y558526D01*
X1676456D01*
Y548530D01*
D02*
G37*
G36*
X1684317Y448140D02*
X1677500D01*
Y458163D01*
X1684317D01*
Y448140D01*
D02*
G37*
G36*
X1675297D02*
X1668500D01*
Y458175D01*
X1675297D01*
Y448140D01*
D02*
G37*
G36*
X1684310Y435940D02*
X1677500D01*
Y445939D01*
X1684310D01*
Y435940D01*
D02*
G37*
G36*
X1675296D02*
X1668500D01*
Y445936D01*
X1675296D01*
Y435940D01*
D02*
G37*
G36*
X1435190Y434526D02*
X1423297D01*
Y452170D01*
X1435190D01*
Y434526D01*
D02*
G37*
D17*
X558800Y440690D02*
X628650D01*
X558800Y593090D02*
Y788670D01*
Y237490D02*
Y440690D01*
X628650D02*
Y593090D01*
X558800D02*
X628650D01*
X1828800Y567690D02*
Y650875D01*
Y375285D02*
Y447040D01*
X1765300D02*
X1828800D01*
X1765300D02*
Y567690D01*
X1828800D01*
Y650875D02*
Y788670D01*
Y237490D02*
Y375285D01*
X558800Y237490D02*
X1828800D01*
X558800Y788670D02*
X1828800D01*
D18*
X1136650Y454640D02*
D03*
Y420340D02*
D03*
X1149350Y454640D02*
D03*
Y420340D02*
D03*
X1162050Y454640D02*
D03*
Y420340D02*
D03*
X1174750Y454640D02*
D03*
Y420340D02*
D03*
X1187450Y454640D02*
D03*
Y420340D02*
D03*
X1200150Y454640D02*
D03*
Y420340D02*
D03*
X1212850Y454640D02*
D03*
Y420340D02*
D03*
X1225550Y454640D02*
D03*
Y420340D02*
D03*
X1238250Y454640D02*
D03*
Y420340D02*
D03*
X1250950Y454640D02*
D03*
Y420340D02*
D03*
D19*
X1475160Y488950D02*
D03*
X1466160D02*
D03*
X1401390Y621030D02*
D03*
X1410390D02*
D03*
X1327260Y501650D02*
D03*
X1318260D02*
D03*
X1467430Y467360D02*
D03*
X1476430D02*
D03*
X1241950Y632460D02*
D03*
X1250950D02*
D03*
X1334080Y501650D02*
D03*
X1343080D02*
D03*
X932870Y746760D02*
D03*
X923870D02*
D03*
X1281320Y254000D02*
D03*
X1290320D02*
D03*
X1371600Y252730D02*
D03*
X1380600D02*
D03*
X1459810D02*
D03*
X1468810D02*
D03*
X1551250D02*
D03*
X1560250D02*
D03*
X1745670Y360680D02*
D03*
X1736670D02*
D03*
X1348160Y271780D02*
D03*
X1339160D02*
D03*
X1438440Y270510D02*
D03*
X1429440D02*
D03*
X1526650D02*
D03*
X1517650D02*
D03*
X1618090D02*
D03*
X1609090D02*
D03*
X1676980Y350520D02*
D03*
X1685980D02*
D03*
X1650310Y391160D02*
D03*
X1659310D02*
D03*
X1676980Y506730D02*
D03*
X1685980D02*
D03*
X1677670Y398780D02*
D03*
X1668670D02*
D03*
X1685980Y514350D02*
D03*
X1676980D02*
D03*
X1718890Y400050D02*
D03*
X1727890D02*
D03*
X1716350Y516890D02*
D03*
X1725350D02*
D03*
X1633910Y500380D02*
D03*
X1624910D02*
D03*
X1630100Y609600D02*
D03*
X1621100D02*
D03*
X1706190Y392430D02*
D03*
X1715190D02*
D03*
X1706190Y508000D02*
D03*
X1715190D02*
D03*
X1633910Y480060D02*
D03*
X1624910D02*
D03*
X1630100Y600710D02*
D03*
X1621100D02*
D03*
X1624910Y471170D02*
D03*
X1633910D02*
D03*
X1621100Y591820D02*
D03*
X1630100D02*
D03*
X1632640Y412750D02*
D03*
X1623640D02*
D03*
X1635910Y527050D02*
D03*
X1626910D02*
D03*
X1623640Y403860D02*
D03*
X1632640D02*
D03*
X1626910Y519430D02*
D03*
X1635910D02*
D03*
X1621100Y584200D02*
D03*
X1630100D02*
D03*
X1467430Y458470D02*
D03*
X1476430D02*
D03*
X1226710Y632460D02*
D03*
X1235710D02*
D03*
X1386414Y612490D02*
D03*
X1395413D02*
D03*
X1386150Y621030D02*
D03*
X1395150D02*
D03*
D20*
X1397000Y468630D02*
D03*
Y487630D02*
D03*
X1463040Y440030D02*
D03*
Y421030D02*
D03*
X1320800Y617220D02*
D03*
Y598220D02*
D03*
X1478280Y421030D02*
D03*
Y440030D02*
D03*
D21*
X1329182Y469900D02*
D03*
X1353058D02*
D03*
D22*
X695290Y540410D02*
D03*
X688790D02*
D03*
X682290D02*
D03*
X675790D02*
D03*
X669290D02*
D03*
X662790D02*
D03*
X656290D02*
D03*
X649790D02*
D03*
X695290Y486410D02*
D03*
X688790D02*
D03*
X682290D02*
D03*
X675790D02*
D03*
X669290D02*
D03*
X662790D02*
D03*
X656290D02*
D03*
X649790D02*
D03*
D23*
X1508960Y480056D02*
D03*
Y489056D02*
D03*
X1492250Y461590D02*
D03*
Y470590D02*
D03*
X1502410Y445080D02*
D03*
Y454080D02*
D03*
X1459230Y462860D02*
D03*
Y471860D02*
D03*
X942340Y737180D02*
D03*
Y746180D02*
D03*
X1704340Y490220D02*
D03*
Y499220D02*
D03*
Y605100D02*
D03*
Y614100D02*
D03*
X1686560Y490220D02*
D03*
Y499220D02*
D03*
X1682750Y605100D02*
D03*
Y614100D02*
D03*
X1671320Y490220D02*
D03*
Y499220D02*
D03*
X1666240Y605100D02*
D03*
Y614100D02*
D03*
X1612900Y491600D02*
D03*
Y482600D02*
D03*
X1380490Y457090D02*
D03*
Y466090D02*
D03*
X1471930Y605790D02*
D03*
Y614790D02*
D03*
X1463040Y579700D02*
D03*
Y588700D02*
D03*
X1447800Y579700D02*
D03*
Y588700D02*
D03*
D24*
X1499870Y488870D02*
D03*
Y478870D02*
D03*
X1450340Y478950D02*
D03*
Y488950D02*
D03*
X703580Y491410D02*
D03*
Y481410D02*
D03*
X1480820Y599360D02*
D03*
Y589360D02*
D03*
X1633220Y457120D02*
D03*
Y447120D02*
D03*
Y570150D02*
D03*
Y560150D02*
D03*
X1399540Y415370D02*
D03*
Y425370D02*
D03*
Y431880D02*
D03*
Y441880D02*
D03*
X1463040Y614600D02*
D03*
Y604600D02*
D03*
X1418590Y622220D02*
D03*
Y612220D02*
D03*
X1428750Y622220D02*
D03*
Y612220D02*
D03*
X1310640Y539830D02*
D03*
Y549830D02*
D03*
D25*
X1466930Y476250D02*
D03*
X1476930D02*
D03*
X1412320Y408940D02*
D03*
X1422320D02*
D03*
X1346120Y537210D02*
D03*
X1336120D02*
D03*
X871140Y560070D02*
D03*
X861140D02*
D03*
X852170Y572770D02*
D03*
X862170D02*
D03*
D26*
X1506474Y271018D02*
D03*
Y261620D02*
D03*
Y252222D02*
D03*
X1480566D02*
D03*
Y261620D02*
D03*
Y271018D02*
D03*
X1327984Y272288D02*
D03*
Y262890D02*
D03*
Y253492D02*
D03*
X1302076D02*
D03*
Y262890D02*
D03*
Y272288D02*
D03*
X1696466Y341122D02*
D03*
Y350520D02*
D03*
Y359918D02*
D03*
X1722374D02*
D03*
Y350520D02*
D03*
Y341122D02*
D03*
X1418264Y271018D02*
D03*
Y261620D02*
D03*
Y252222D02*
D03*
X1392356D02*
D03*
Y261620D02*
D03*
Y271018D02*
D03*
X1597914D02*
D03*
Y261620D02*
D03*
Y252222D02*
D03*
X1572006D02*
D03*
Y261620D02*
D03*
Y271018D02*
D03*
X1506474Y306578D02*
D03*
Y297180D02*
D03*
Y287782D02*
D03*
X1480566D02*
D03*
Y297180D02*
D03*
Y306578D02*
D03*
X1327984Y307848D02*
D03*
Y298450D02*
D03*
Y289052D02*
D03*
X1302076D02*
D03*
Y298450D02*
D03*
Y307848D02*
D03*
X1597914Y306578D02*
D03*
Y297180D02*
D03*
Y287782D02*
D03*
X1572006D02*
D03*
Y297180D02*
D03*
Y306578D02*
D03*
X1696466Y306832D02*
D03*
Y316230D02*
D03*
Y325628D02*
D03*
X1722374D02*
D03*
Y316230D02*
D03*
Y306832D02*
D03*
X1418264Y306578D02*
D03*
Y297180D02*
D03*
Y287782D02*
D03*
X1392356D02*
D03*
Y297180D02*
D03*
Y306578D02*
D03*
D27*
X1324270Y551460D02*
D03*
X1357970Y586460D02*
D03*
X1324270D02*
D03*
Y581460D02*
D03*
Y576460D02*
D03*
Y571460D02*
D03*
Y566460D02*
D03*
Y561460D02*
D03*
Y556460D02*
D03*
X1357970Y551460D02*
D03*
Y556460D02*
D03*
Y561460D02*
D03*
Y566460D02*
D03*
Y571460D02*
D03*
Y576460D02*
D03*
Y581460D02*
D03*
X1413170Y427000D02*
D03*
X1446870Y462000D02*
D03*
X1413170D02*
D03*
Y457000D02*
D03*
Y452000D02*
D03*
Y447000D02*
D03*
Y442000D02*
D03*
Y437000D02*
D03*
Y432000D02*
D03*
X1446870Y427000D02*
D03*
Y432000D02*
D03*
Y437000D02*
D03*
Y442000D02*
D03*
Y447000D02*
D03*
Y452000D02*
D03*
Y457000D02*
D03*
D28*
X1333620Y547110D02*
D03*
X1348620Y590810D02*
D03*
X1333620D02*
D03*
X1348620Y547110D02*
D03*
X1422520Y422650D02*
D03*
X1437520Y466350D02*
D03*
X1422520D02*
D03*
X1437520Y422650D02*
D03*
D29*
X1341120Y568960D02*
D03*
X1430020Y444500D02*
D03*
D30*
X1630680Y420990D02*
D03*
Y434990D02*
D03*
X1633220Y535290D02*
D03*
Y549290D02*
D03*
X1309370Y559420D02*
D03*
Y573420D02*
D03*
D31*
X1574800Y428400D02*
D03*
X1604800D02*
D03*
X1574800Y447450D02*
D03*
X1604800D02*
D03*
X1574800Y466090D02*
D03*
X1604800D02*
D03*
X1574800Y529150D02*
D03*
X1604800D02*
D03*
X1574800Y548200D02*
D03*
X1604800D02*
D03*
X1574800Y567250D02*
D03*
X1604800D02*
D03*
D32*
X1739900Y400050D02*
D03*
Y419050D02*
D03*
X1755140Y400050D02*
D03*
Y419050D02*
D03*
X1751330Y493370D02*
D03*
Y474370D02*
D03*
X1736090Y493370D02*
D03*
Y474370D02*
D03*
X1752600Y507390D02*
D03*
Y526390D02*
D03*
X1737360Y507390D02*
D03*
Y526390D02*
D03*
X1732539Y602590D02*
D03*
Y583590D02*
D03*
X1748790Y602590D02*
D03*
Y583590D02*
D03*
X1539240Y599440D02*
D03*
Y580440D02*
D03*
X1374140Y617830D02*
D03*
Y598830D02*
D03*
X1289050Y596240D02*
D03*
Y577240D02*
D03*
D33*
X1639450Y391160D02*
D03*
X1624450D02*
D03*
X1663580Y510540D02*
D03*
X1648580D02*
D03*
D34*
X1676400Y447040D02*
D03*
X1677560Y559630D02*
D03*
D35*
X1647700Y411290D02*
D03*
Y417790D02*
D03*
Y424290D02*
D03*
Y430790D02*
D03*
Y437290D02*
D03*
Y443790D02*
D03*
Y450290D02*
D03*
Y456790D02*
D03*
Y463290D02*
D03*
Y469790D02*
D03*
Y476290D02*
D03*
Y482790D02*
D03*
X1705100D02*
D03*
Y476290D02*
D03*
Y469790D02*
D03*
Y463290D02*
D03*
Y456790D02*
D03*
Y450290D02*
D03*
Y443790D02*
D03*
Y437290D02*
D03*
Y430790D02*
D03*
Y424290D02*
D03*
Y417790D02*
D03*
Y411290D02*
D03*
X1648860Y523880D02*
D03*
Y530380D02*
D03*
Y536880D02*
D03*
Y543380D02*
D03*
Y549880D02*
D03*
Y556380D02*
D03*
Y562880D02*
D03*
Y569380D02*
D03*
Y575880D02*
D03*
Y582380D02*
D03*
Y588880D02*
D03*
Y595380D02*
D03*
X1706260D02*
D03*
Y588880D02*
D03*
Y582380D02*
D03*
Y575880D02*
D03*
Y569380D02*
D03*
Y562880D02*
D03*
Y556380D02*
D03*
Y549880D02*
D03*
Y543380D02*
D03*
Y536880D02*
D03*
Y530380D02*
D03*
Y523880D02*
D03*
D36*
X1511960Y441960D02*
D03*
X1530960D02*
D03*
D37*
X1179950Y256540D02*
D03*
X1194950D02*
D03*
X1091050Y612140D02*
D03*
X1106050D02*
D03*
X1092320Y483870D02*
D03*
X1107320D02*
D03*
X1381640Y448310D02*
D03*
X1366640D02*
D03*
X1261230Y579120D02*
D03*
X1276230D02*
D03*
D38*
X1492250Y454540D02*
D03*
Y439540D02*
D03*
X1447800Y610750D02*
D03*
Y595750D02*
D03*
X1173480Y683380D02*
D03*
Y698380D02*
D03*
D39*
X1531770Y480900D02*
D03*
X1525270D02*
D03*
X1518770D02*
D03*
Y458900D02*
D03*
X1525270D02*
D03*
X1531770D02*
D03*
D40*
X1520190Y565860D02*
D03*
Y511100D02*
D03*
X1459230Y565860D02*
D03*
Y511100D02*
D03*
X1397000Y565860D02*
D03*
Y511100D02*
D03*
D41*
X1199007Y589280D02*
D03*
X1239393D02*
D03*
D42*
X1198880Y517130D02*
D03*
Y547130D02*
D03*
X1177290Y517130D02*
D03*
Y547130D02*
D03*
X1328420Y415290D02*
D03*
Y445290D02*
D03*
X1306830Y415290D02*
D03*
Y445290D02*
D03*
D43*
X1499870Y600860D02*
D03*
Y594360D02*
D03*
Y587860D02*
D03*
X1521870D02*
D03*
Y594360D02*
D03*
Y600860D02*
D03*
M02*
