G04*
G04 #@! TF.GenerationSoftware,Altium Limited,Altium Designer,19.1.5 (86)*
G04*
G04 Layer_Color=255*
%FSLAX44Y44*%
%MOMM*%
G71*
G01*
G75*
%ADD17R,0.8000X0.6000*%
%ADD18R,0.6000X0.4000*%
%ADD19R,0.4000X0.6000*%
%ADD20R,0.6000X0.4500*%
%ADD22R,1.3000X0.8000*%
%ADD25R,0.4500X0.6000*%
%ADD32R,0.7000X0.9000*%
%ADD36R,0.5000X0.9000*%
%ADD62C,1.2700*%
%ADD63R,1.2700X1.2700*%
%ADD64C,6.0000*%
%ADD65C,1.5240*%
%ADD66R,1.5240X1.5240*%
%ADD68R,3.7000X3.7000*%
%ADD69R,0.3300X1.0400*%
%ADD70R,1.0400X0.3300*%
%ADD71R,0.4500X1.3500*%
%ADD72R,1.6000X2.2000*%
%ADD73R,0.7000X1.8000*%
%ADD74R,0.8000X1.3000*%
%ADD75R,1.3500X0.4500*%
%ADD76R,0.9000X0.7000*%
%ADD77R,2.2000X1.6000*%
%ADD78R,1.8000X0.7000*%
%ADD79R,1.5000X0.5500*%
%ADD80R,0.5500X1.5000*%
%ADD81R,0.6000X0.8000*%
%ADD82R,0.7000X0.7500*%
%ADD83R,2.2000X0.6000*%
%ADD84R,2.2500X0.9000*%
%ADD85R,2.8000X0.9000*%
%ADD86R,3.6000X3.6000*%
%ADD87R,0.8400X0.2600*%
%ADD88R,0.2600X0.8400*%
%ADD89R,1.0000X0.4700*%
%ADD90R,1.2000X1.8000*%
%ADD91R,0.4700X1.0000*%
D17*
X569570Y458430D02*
D03*
Y472430D02*
D03*
X688950Y523880D02*
D03*
Y509880D02*
D03*
X469250Y356500D02*
D03*
Y342500D02*
D03*
D18*
X1000100Y240060D02*
D03*
Y231060D02*
D03*
X1090270Y236940D02*
D03*
Y227940D02*
D03*
X1177900Y238790D02*
D03*
Y229790D02*
D03*
X1270610Y238790D02*
D03*
Y229790D02*
D03*
X1307440Y305990D02*
D03*
Y314990D02*
D03*
X955500Y525750D02*
D03*
Y534750D02*
D03*
X653390Y426750D02*
D03*
Y417750D02*
D03*
X661010D02*
D03*
Y426750D02*
D03*
X1095350Y736630D02*
D03*
Y727630D02*
D03*
X1318870Y505380D02*
D03*
Y514380D02*
D03*
X1317600Y429290D02*
D03*
Y420290D02*
D03*
X327000Y219740D02*
D03*
Y210740D02*
D03*
X352146Y219740D02*
D03*
Y210740D02*
D03*
X377292Y219740D02*
D03*
Y210740D02*
D03*
X402438Y219740D02*
D03*
Y210740D02*
D03*
X427584Y219740D02*
D03*
Y210740D02*
D03*
X452730Y219740D02*
D03*
Y210740D02*
D03*
X561950Y219740D02*
D03*
Y210740D02*
D03*
X587350Y219740D02*
D03*
Y210740D02*
D03*
X612750Y219740D02*
D03*
Y210740D02*
D03*
X638150Y219740D02*
D03*
Y210740D02*
D03*
X663550Y219740D02*
D03*
Y210740D02*
D03*
X687680Y219740D02*
D03*
Y210740D02*
D03*
X873100Y488870D02*
D03*
Y497870D02*
D03*
X1042500Y569750D02*
D03*
Y560750D02*
D03*
X933750Y534500D02*
D03*
Y525500D02*
D03*
X1063600Y476170D02*
D03*
Y485170D02*
D03*
X957250Y422500D02*
D03*
Y431500D02*
D03*
X1318870Y490140D02*
D03*
Y499140D02*
D03*
X1317600Y444530D02*
D03*
Y435530D02*
D03*
X575920Y505380D02*
D03*
Y514380D02*
D03*
X471780Y386000D02*
D03*
Y395000D02*
D03*
X648310Y443260D02*
D03*
Y434260D02*
D03*
X549250Y357480D02*
D03*
Y366480D02*
D03*
X583540Y505380D02*
D03*
Y514380D02*
D03*
X480670Y386000D02*
D03*
Y395000D02*
D03*
X1247750Y712970D02*
D03*
Y721970D02*
D03*
X1238860Y722080D02*
D03*
Y713080D02*
D03*
X1337920Y722660D02*
D03*
Y713660D02*
D03*
X1133450Y736630D02*
D03*
Y727630D02*
D03*
X1122020Y736630D02*
D03*
Y727630D02*
D03*
X1111860Y736630D02*
D03*
Y727630D02*
D03*
X1022246Y735066D02*
D03*
Y726066D02*
D03*
X1012086Y735066D02*
D03*
Y726066D02*
D03*
X1001926Y735066D02*
D03*
Y726066D02*
D03*
X989940Y731550D02*
D03*
Y722550D02*
D03*
D19*
X1355750Y307000D02*
D03*
X1364750D02*
D03*
X947250Y229750D02*
D03*
X938250D02*
D03*
X1041000Y230000D02*
D03*
X1032000D02*
D03*
X1127250Y229250D02*
D03*
X1118250D02*
D03*
X1219500Y229500D02*
D03*
X1210500D02*
D03*
X1033500Y441000D02*
D03*
X1042500D02*
D03*
X316150Y531470D02*
D03*
X325150D02*
D03*
X324460Y432410D02*
D03*
X315460D02*
D03*
X324910Y447650D02*
D03*
X315910D02*
D03*
X324460Y464160D02*
D03*
X315460D02*
D03*
X324910Y480670D02*
D03*
X315910D02*
D03*
X324910Y495910D02*
D03*
X315910D02*
D03*
X324910Y512420D02*
D03*
X315910D02*
D03*
X878870Y563220D02*
D03*
X869870D02*
D03*
X1007830Y522580D02*
D03*
X998830D02*
D03*
X914620Y471680D02*
D03*
X923620D02*
D03*
X1007830Y537820D02*
D03*
X998830D02*
D03*
X914620Y486920D02*
D03*
X923620D02*
D03*
X1007830Y551790D02*
D03*
X998830D02*
D03*
X914620Y502160D02*
D03*
X923620D02*
D03*
X1028150Y522580D02*
D03*
X1019150D02*
D03*
X896840Y471680D02*
D03*
X905840D02*
D03*
X1028730Y537820D02*
D03*
X1019730D02*
D03*
X896840Y486920D02*
D03*
X905840D02*
D03*
X1028730Y551790D02*
D03*
X1019730D02*
D03*
X896840Y502160D02*
D03*
X905840D02*
D03*
X383460Y667360D02*
D03*
X392460D02*
D03*
X302180Y666090D02*
D03*
X311180D02*
D03*
X563800Y480670D02*
D03*
X572800D02*
D03*
X443890Y366230D02*
D03*
X452890D02*
D03*
X572800Y495910D02*
D03*
X563800D02*
D03*
X452890Y384010D02*
D03*
X443890D02*
D03*
X572800Y488290D02*
D03*
X563800D02*
D03*
X452890Y375120D02*
D03*
X443890D02*
D03*
X1248440Y700380D02*
D03*
X1239440D02*
D03*
Y674980D02*
D03*
X1248440D02*
D03*
X1306750Y663550D02*
D03*
X1315750D02*
D03*
X1248440Y687680D02*
D03*
X1239440D02*
D03*
X349750Y523850D02*
D03*
X358750D02*
D03*
X968930Y721970D02*
D03*
X977930D02*
D03*
X1071910Y724510D02*
D03*
X1062910D02*
D03*
D20*
X869290Y591080D02*
D03*
Y581080D02*
D03*
X777850Y551710D02*
D03*
Y541710D02*
D03*
X779750Y487000D02*
D03*
Y497000D02*
D03*
X648310Y461460D02*
D03*
Y451460D02*
D03*
X549250Y340970D02*
D03*
Y350970D02*
D03*
X1231240Y689030D02*
D03*
Y699030D02*
D03*
X1334110D02*
D03*
Y689030D02*
D03*
X417170Y436300D02*
D03*
Y446300D02*
D03*
D22*
X690220Y472440D02*
D03*
Y491440D02*
D03*
X1052170Y740750D02*
D03*
Y721750D02*
D03*
X1360780Y704800D02*
D03*
Y685800D02*
D03*
X619100Y518110D02*
D03*
Y499110D02*
D03*
X522580Y419660D02*
D03*
Y400660D02*
D03*
X501250Y419750D02*
D03*
Y400750D02*
D03*
D25*
X577110Y342240D02*
D03*
X567110D02*
D03*
X673630Y471780D02*
D03*
X663630D02*
D03*
X1160200Y422250D02*
D03*
X1170200D02*
D03*
X1087650Y724510D02*
D03*
X1077650D02*
D03*
X1070000Y492750D02*
D03*
X1080000D02*
D03*
X973500Y425750D02*
D03*
X983500D02*
D03*
X424790Y448920D02*
D03*
X434790D02*
D03*
X425980Y560680D02*
D03*
X415980D02*
D03*
D32*
X290990Y432368D02*
D03*
X305990D02*
D03*
X290990Y448011D02*
D03*
X305990D02*
D03*
X290990Y463654D02*
D03*
X305990D02*
D03*
X290990Y480205D02*
D03*
X305990D02*
D03*
X290990Y496313D02*
D03*
X305990D02*
D03*
X290990Y512420D02*
D03*
X305990D02*
D03*
D36*
X439830Y437490D02*
D03*
X424830D02*
D03*
D62*
X655930Y701650D02*
D03*
X681330Y650850D02*
D03*
X655930Y625450D02*
D03*
X488290Y615290D02*
D03*
Y640690D02*
D03*
X513690Y615290D02*
D03*
Y640690D02*
D03*
X539090D02*
D03*
X681330Y676250D02*
D03*
X655930D02*
D03*
X681330Y701650D02*
D03*
Y727050D02*
D03*
X655930D02*
D03*
Y650850D02*
D03*
X681330Y625450D02*
D03*
X655930Y600050D02*
D03*
X681330D02*
D03*
Y574650D02*
D03*
X655930D02*
D03*
X419710Y640690D02*
D03*
Y615290D02*
D03*
X394310Y640690D02*
D03*
Y615290D02*
D03*
D63*
X539090D02*
D03*
D64*
X1414610Y682310D02*
D03*
Y267310D02*
D03*
X894610D02*
D03*
X774610Y267310D02*
D03*
X894610Y682310D02*
D03*
X774610D02*
D03*
X254610D02*
D03*
Y267310D02*
D03*
D65*
X536550Y687680D02*
D03*
X511150D02*
D03*
X485750D02*
D03*
X536550Y720700D02*
D03*
X511150D02*
D03*
D66*
X485750D02*
D03*
D68*
X988500Y471000D02*
D03*
X1083920Y534010D02*
D03*
D69*
X1008000Y499350D02*
D03*
X1001500D02*
D03*
X995000D02*
D03*
X988500D02*
D03*
X982000D02*
D03*
X975500D02*
D03*
X969000D02*
D03*
Y442650D02*
D03*
X975500D02*
D03*
X982000D02*
D03*
X988500D02*
D03*
X995000D02*
D03*
X1001500D02*
D03*
X1008000D02*
D03*
X1103420Y505660D02*
D03*
X1096920D02*
D03*
X1090420D02*
D03*
X1083920D02*
D03*
X1077420D02*
D03*
X1070920D02*
D03*
X1064420D02*
D03*
Y562360D02*
D03*
X1070920D02*
D03*
X1077420D02*
D03*
X1083920D02*
D03*
X1090420D02*
D03*
X1096920D02*
D03*
X1103420D02*
D03*
D70*
X1016850Y451500D02*
D03*
Y458000D02*
D03*
Y464500D02*
D03*
Y471000D02*
D03*
Y477500D02*
D03*
Y484000D02*
D03*
Y490500D02*
D03*
X960150D02*
D03*
Y484000D02*
D03*
Y477500D02*
D03*
Y471000D02*
D03*
Y464500D02*
D03*
Y458000D02*
D03*
Y451500D02*
D03*
X1055570Y514510D02*
D03*
Y521010D02*
D03*
Y527510D02*
D03*
Y534010D02*
D03*
Y540510D02*
D03*
Y547010D02*
D03*
Y553510D02*
D03*
X1112270D02*
D03*
Y547010D02*
D03*
Y540510D02*
D03*
Y534010D02*
D03*
Y527510D02*
D03*
Y521010D02*
D03*
Y514510D02*
D03*
D71*
X674250Y484500D02*
D03*
X667750D02*
D03*
X661250D02*
D03*
X654750D02*
D03*
X674250Y524000D02*
D03*
X667750D02*
D03*
X661250D02*
D03*
X654750D02*
D03*
D72*
X1279310Y295250D02*
D03*
X1219810D02*
D03*
X488290Y272390D02*
D03*
X303790D02*
D03*
X723280Y272370D02*
D03*
X538780D02*
D03*
X1359320Y236830D02*
D03*
X1299820D02*
D03*
X1038390Y295250D02*
D03*
X1097890D02*
D03*
X1126560Y295230D02*
D03*
X1186060D02*
D03*
X950130D02*
D03*
X1009630D02*
D03*
X954470Y673730D02*
D03*
X1176470D02*
D03*
X382240Y711790D02*
D03*
X441740D02*
D03*
X300960D02*
D03*
X360460D02*
D03*
D73*
X1255810Y262250D02*
D03*
X1243310D02*
D03*
X464790Y239390D02*
D03*
X452290D02*
D03*
X427290D02*
D03*
X439790D02*
D03*
X389790D02*
D03*
X377290D02*
D03*
X402290D02*
D03*
X414790D02*
D03*
X352290D02*
D03*
X364790D02*
D03*
X339790D02*
D03*
X327290D02*
D03*
X699780Y239370D02*
D03*
X687280D02*
D03*
X662280D02*
D03*
X674780D02*
D03*
X624780D02*
D03*
X612280D02*
D03*
X637280D02*
D03*
X649780D02*
D03*
X587280D02*
D03*
X599780D02*
D03*
X574780D02*
D03*
X562280D02*
D03*
X1335820Y269830D02*
D03*
X1323320D02*
D03*
X1061890Y262250D02*
D03*
X1074390D02*
D03*
X1150060Y262230D02*
D03*
X1162560D02*
D03*
X973630D02*
D03*
X986130D02*
D03*
X977970Y706730D02*
D03*
X990470D02*
D03*
X1015470D02*
D03*
X1002970D02*
D03*
X1052970D02*
D03*
X1065470D02*
D03*
X1040470D02*
D03*
X1027970D02*
D03*
X1090470D02*
D03*
X1077970D02*
D03*
X1140470D02*
D03*
X1152970D02*
D03*
X1102970D02*
D03*
X1127970D02*
D03*
X1115470D02*
D03*
X405740Y678790D02*
D03*
X418240D02*
D03*
X324460D02*
D03*
X336960D02*
D03*
D74*
X548640Y440030D02*
D03*
X567640D02*
D03*
X1061720Y465430D02*
D03*
X1080720D02*
D03*
X987500Y409000D02*
D03*
X968500D02*
D03*
X430480Y581000D02*
D03*
X411480D02*
D03*
X642620Y540360D02*
D03*
X661620D02*
D03*
D75*
X541630Y403050D02*
D03*
Y409550D02*
D03*
Y416050D02*
D03*
Y422550D02*
D03*
X581130Y403050D02*
D03*
Y409550D02*
D03*
Y416050D02*
D03*
Y422550D02*
D03*
D76*
X984860Y225520D02*
D03*
Y240520D02*
D03*
X1075030Y224250D02*
D03*
Y239250D02*
D03*
X1162660Y225520D02*
D03*
Y240520D02*
D03*
X1256450Y225520D02*
D03*
Y240520D02*
D03*
X1322680Y328150D02*
D03*
Y313150D02*
D03*
D77*
X1417950Y396220D02*
D03*
Y311720D02*
D03*
X1418458Y546570D02*
D03*
Y631070D02*
D03*
D78*
X1450950Y347720D02*
D03*
Y335220D02*
D03*
Y360220D02*
D03*
Y372720D02*
D03*
X1451458Y607570D02*
D03*
Y595070D02*
D03*
Y570070D02*
D03*
Y582570D02*
D03*
D79*
X378160Y532230D02*
D03*
Y524230D02*
D03*
Y516230D02*
D03*
Y508230D02*
D03*
Y500230D02*
D03*
Y492230D02*
D03*
Y484230D02*
D03*
Y476230D02*
D03*
X464160D02*
D03*
Y484230D02*
D03*
Y492230D02*
D03*
Y500230D02*
D03*
Y508230D02*
D03*
Y516230D02*
D03*
Y524230D02*
D03*
Y532230D02*
D03*
D80*
X393160Y461230D02*
D03*
X401160D02*
D03*
X409160D02*
D03*
X417160D02*
D03*
X425160D02*
D03*
X433160D02*
D03*
X441160D02*
D03*
X449160D02*
D03*
Y547230D02*
D03*
X441160D02*
D03*
X433160D02*
D03*
X425160D02*
D03*
X417160D02*
D03*
X409160D02*
D03*
X401160D02*
D03*
X393160D02*
D03*
D81*
X1073110Y734670D02*
D03*
X1087110D02*
D03*
X607050Y503530D02*
D03*
X593050D02*
D03*
X631150Y499720D02*
D03*
X645150D02*
D03*
X505450Y386690D02*
D03*
X491450D02*
D03*
X557490Y390500D02*
D03*
X571490D02*
D03*
X528280Y386690D02*
D03*
X542280D02*
D03*
D82*
X575160Y722600D02*
D03*
X607160D02*
D03*
Y706100D02*
D03*
X575160D02*
D03*
D83*
X799510Y550520D02*
D03*
Y563220D02*
D03*
Y588620D02*
D03*
X851510Y550520D02*
D03*
Y563220D02*
D03*
Y588620D02*
D03*
X799510Y575920D02*
D03*
X851510D02*
D03*
X1266200Y674980D02*
D03*
Y687680D02*
D03*
Y713080D02*
D03*
X1318200Y674980D02*
D03*
Y687680D02*
D03*
Y713080D02*
D03*
X1266200Y700380D02*
D03*
X1318200D02*
D03*
D84*
X852860Y523800D02*
D03*
Y511300D02*
D03*
Y485800D02*
D03*
X799360D02*
D03*
Y498300D02*
D03*
Y511300D02*
D03*
Y523800D02*
D03*
D85*
X850110Y498300D02*
D03*
D86*
X610210Y460350D02*
D03*
X508610Y344780D02*
D03*
D87*
X585860Y477850D02*
D03*
Y472850D02*
D03*
Y467850D02*
D03*
Y462850D02*
D03*
Y457850D02*
D03*
Y452850D02*
D03*
Y447850D02*
D03*
Y442850D02*
D03*
X634560D02*
D03*
Y447850D02*
D03*
Y452850D02*
D03*
Y457850D02*
D03*
Y462850D02*
D03*
Y467850D02*
D03*
Y472850D02*
D03*
Y477850D02*
D03*
X484260Y362280D02*
D03*
Y357280D02*
D03*
Y352280D02*
D03*
Y347280D02*
D03*
Y342280D02*
D03*
Y337280D02*
D03*
Y332280D02*
D03*
Y327280D02*
D03*
X532960D02*
D03*
Y332280D02*
D03*
Y337280D02*
D03*
Y342280D02*
D03*
Y347280D02*
D03*
Y352280D02*
D03*
Y357280D02*
D03*
Y362280D02*
D03*
D88*
X627710Y484700D02*
D03*
X622710D02*
D03*
X617710D02*
D03*
X612710D02*
D03*
X607710D02*
D03*
X602710D02*
D03*
X597710D02*
D03*
X592710D02*
D03*
Y436000D02*
D03*
X597710D02*
D03*
X602710D02*
D03*
X607710D02*
D03*
X612710D02*
D03*
X617710D02*
D03*
X622710D02*
D03*
X627710D02*
D03*
X526110Y369130D02*
D03*
X521110D02*
D03*
X516110D02*
D03*
X511110D02*
D03*
X506110D02*
D03*
X501110D02*
D03*
X496110D02*
D03*
X491110D02*
D03*
Y320430D02*
D03*
X496110D02*
D03*
X501110D02*
D03*
X506110D02*
D03*
X511110D02*
D03*
X516110D02*
D03*
X521110D02*
D03*
X526110D02*
D03*
D89*
X664820Y446380D02*
D03*
X682820Y452880D02*
D03*
Y439880D02*
D03*
X664820Y452880D02*
D03*
Y439880D02*
D03*
D90*
X514830Y549250D02*
D03*
Y509250D02*
D03*
X490830D02*
D03*
Y549250D02*
D03*
D91*
X572110Y373990D02*
D03*
X578610Y355990D02*
D03*
X565610D02*
D03*
X578610Y373990D02*
D03*
X565610D02*
D03*
M02*
