G04*
G04 #@! TF.GenerationSoftware,Altium Limited,Altium Designer,19.1.5 (86)*
G04*
G04 Layer_Physical_Order=2*
G04 Layer_Color=6736896*
%FSLAX44Y44*%
%MOMM*%
G71*
G01*
G75*
%ADD17C,0.1000*%
%ADD63C,1.2700*%
%ADD68C,0.6000*%
G36*
X1823702Y572788D02*
X1765300D01*
X1763349Y572400D01*
X1761695Y571295D01*
X1760590Y569641D01*
X1760202Y567690D01*
Y447040D01*
X1760590Y445089D01*
X1761695Y443435D01*
X1763349Y442330D01*
X1765300Y441942D01*
X1823702D01*
Y242588D01*
X1555105D01*
X1554426Y243858D01*
X1554931Y244615D01*
X1555283Y246380D01*
X1554931Y248145D01*
X1553932Y249642D01*
X1552435Y250641D01*
X1550670Y250993D01*
X1548905Y250641D01*
X1547408Y249642D01*
X1546409Y248145D01*
X1546057Y246380D01*
X1546409Y244615D01*
X1546914Y243858D01*
X1546236Y242588D01*
X1379845D01*
X1379166Y243858D01*
X1379671Y244615D01*
X1380023Y246380D01*
X1379671Y248145D01*
X1378672Y249642D01*
X1377175Y250641D01*
X1375410Y250993D01*
X1373645Y250641D01*
X1372148Y249642D01*
X1371149Y248145D01*
X1370797Y246380D01*
X1371149Y244615D01*
X1371654Y243858D01*
X1370975Y242588D01*
X1285865D01*
X1285186Y243858D01*
X1285692Y244615D01*
X1286043Y246380D01*
X1285692Y248145D01*
X1284692Y249642D01*
X1283195Y250641D01*
X1281430Y250993D01*
X1279665Y250641D01*
X1278168Y249642D01*
X1277169Y248145D01*
X1276817Y246380D01*
X1277169Y244615D01*
X1277674Y243858D01*
X1276995Y242588D01*
X563898D01*
Y435592D01*
X628650D01*
X630601Y435980D01*
X632255Y437085D01*
X633360Y438739D01*
X633748Y440690D01*
Y593090D01*
X633360Y595041D01*
X632255Y596695D01*
X630601Y597800D01*
X628650Y598188D01*
X563898D01*
Y783572D01*
X1361127D01*
X1361512Y782302D01*
X1360718Y781772D01*
X1359718Y780275D01*
X1359367Y778510D01*
X1359718Y776745D01*
X1360718Y775248D01*
X1362215Y774249D01*
X1363980Y773897D01*
X1365745Y774249D01*
X1367242Y775248D01*
X1368241Y776745D01*
X1368593Y778510D01*
X1368241Y780275D01*
X1367242Y781772D01*
X1366448Y782302D01*
X1366833Y783572D01*
X1419236D01*
X1419914Y782302D01*
X1419409Y781545D01*
X1419057Y779780D01*
X1419409Y778015D01*
X1420210Y776816D01*
X1420330Y775970D01*
X1420210Y775124D01*
X1419409Y773925D01*
X1419057Y772160D01*
X1419409Y770395D01*
X1420408Y768898D01*
X1421905Y767898D01*
X1423670Y767547D01*
X1425435Y767898D01*
X1426932Y768898D01*
X1427932Y770395D01*
X1428283Y772160D01*
X1427932Y773925D01*
X1427130Y775124D01*
X1427081Y775471D01*
X1427979Y776369D01*
X1428326Y776320D01*
X1429525Y775518D01*
X1431290Y775167D01*
X1433055Y775518D01*
X1434254Y776320D01*
X1435100Y776440D01*
X1435946Y776320D01*
X1437145Y775518D01*
X1438910Y775167D01*
X1440675Y775518D01*
X1442172Y776518D01*
X1443172Y778015D01*
X1443523Y779780D01*
X1443172Y781545D01*
X1442666Y782302D01*
X1443345Y783572D01*
X1466225D01*
X1466904Y782302D01*
X1466398Y781545D01*
X1466047Y779780D01*
X1466398Y778015D01*
X1467398Y776518D01*
X1468895Y775518D01*
X1470660Y775167D01*
X1472425Y775518D01*
X1473922Y776518D01*
X1474922Y778015D01*
X1475093Y778875D01*
X1476387D01*
X1476559Y778015D01*
X1477558Y776518D01*
X1479055Y775518D01*
X1480820Y775167D01*
X1482585Y775518D01*
X1484082Y776518D01*
X1485081Y778015D01*
X1485433Y779780D01*
X1485081Y781545D01*
X1484576Y782302D01*
X1485255Y783572D01*
X1487816D01*
X1488494Y782302D01*
X1487988Y781545D01*
X1487637Y779780D01*
X1487988Y778015D01*
X1488988Y776518D01*
X1490485Y775518D01*
X1492250Y775167D01*
X1494015Y775518D01*
X1495512Y776518D01*
X1496512Y778015D01*
X1496863Y779780D01*
X1496512Y781545D01*
X1496006Y782302D01*
X1496685Y783572D01*
X1823702D01*
Y572788D01*
D02*
G37*
%LPC*%
G36*
X1532890Y770423D02*
X1531125Y770071D01*
X1529628Y769072D01*
X1529209Y768444D01*
X1527681D01*
X1527262Y769072D01*
X1525765Y770071D01*
X1524000Y770423D01*
X1522235Y770071D01*
X1520738Y769072D01*
X1519738Y767575D01*
X1519387Y765810D01*
X1519738Y764045D01*
X1520738Y762548D01*
X1521366Y762129D01*
Y760601D01*
X1520738Y760182D01*
X1519738Y758685D01*
X1519387Y756920D01*
X1519738Y755155D01*
X1520738Y753658D01*
X1521366Y753239D01*
Y751711D01*
X1520738Y751292D01*
X1519738Y749795D01*
X1519387Y748030D01*
X1519738Y746265D01*
X1520738Y744768D01*
X1521366Y744349D01*
Y742821D01*
X1520738Y742402D01*
X1519738Y740905D01*
X1519387Y739140D01*
X1519738Y737375D01*
X1520738Y735878D01*
X1522235Y734878D01*
X1524000Y734527D01*
X1525765Y734878D01*
X1527262Y735878D01*
X1527681Y736507D01*
X1529209D01*
X1529628Y735878D01*
X1531125Y734878D01*
X1532890Y734527D01*
X1534655Y734878D01*
X1536152Y735878D01*
X1537151Y737375D01*
X1537503Y739140D01*
X1537151Y740905D01*
X1536152Y742402D01*
X1535524Y742821D01*
Y744349D01*
X1536152Y744768D01*
X1537151Y746265D01*
X1537503Y748030D01*
X1537151Y749795D01*
X1536152Y751292D01*
X1535524Y751711D01*
Y753239D01*
X1536152Y753658D01*
X1537151Y755155D01*
X1537503Y756920D01*
X1537151Y758685D01*
X1536152Y760182D01*
X1535524Y760601D01*
Y762129D01*
X1536152Y762548D01*
X1537151Y764045D01*
X1537503Y765810D01*
X1537151Y767575D01*
X1536152Y769072D01*
X1534655Y770071D01*
X1532890Y770423D01*
D02*
G37*
G36*
X1389380Y776773D02*
X1387615Y776422D01*
X1386118Y775422D01*
X1385119Y773925D01*
X1384767Y772160D01*
X1385119Y770395D01*
X1386118Y768898D01*
X1387615Y767898D01*
X1389380Y767547D01*
X1391145Y767898D01*
X1392642Y768898D01*
X1393642Y770395D01*
X1393993Y772160D01*
X1393642Y773925D01*
X1392642Y775422D01*
X1391145Y776422D01*
X1389380Y776773D01*
D02*
G37*
G36*
X1398270Y766613D02*
X1396505Y766262D01*
X1395008Y765262D01*
X1394008Y763765D01*
X1393657Y762000D01*
X1394008Y760235D01*
X1395008Y758738D01*
X1396505Y757738D01*
X1398270Y757387D01*
X1400035Y757738D01*
X1401532Y758738D01*
X1402531Y760235D01*
X1402883Y762000D01*
X1402531Y763765D01*
X1401532Y765262D01*
X1400035Y766262D01*
X1398270Y766613D01*
D02*
G37*
G36*
X1040130Y772482D02*
X1038074Y772211D01*
X1036159Y771418D01*
X1034514Y770156D01*
X1033252Y768511D01*
X1032459Y766596D01*
X1032188Y764540D01*
X1032459Y762485D01*
X1033252Y760569D01*
X1034514Y758924D01*
X1036159Y757662D01*
X1038074Y756869D01*
X1040130Y756598D01*
X1042186Y756869D01*
X1044101Y757662D01*
X1045746Y758924D01*
X1047008Y760569D01*
X1047801Y762485D01*
X1048072Y764540D01*
X1047801Y766596D01*
X1047008Y768511D01*
X1045746Y770156D01*
X1044101Y771418D01*
X1042186Y772211D01*
X1040130Y772482D01*
D02*
G37*
G36*
X1014730D02*
X1012674Y772211D01*
X1010759Y771418D01*
X1009114Y770156D01*
X1007852Y768511D01*
X1007059Y766596D01*
X1006788Y764540D01*
X1007059Y762485D01*
X1007852Y760569D01*
X1009114Y758924D01*
X1010759Y757662D01*
X1012674Y756869D01*
X1014730Y756598D01*
X1016786Y756869D01*
X1018701Y757662D01*
X1020346Y758924D01*
X1021608Y760569D01*
X1022401Y762485D01*
X1022672Y764540D01*
X1022401Y766596D01*
X1021608Y768511D01*
X1020346Y770156D01*
X1018701Y771418D01*
X1016786Y772211D01*
X1014730Y772482D01*
D02*
G37*
G36*
X853694Y767334D02*
X835406D01*
Y749046D01*
X853694D01*
Y767334D01*
D02*
G37*
G36*
X895350Y767413D02*
X892963Y767099D01*
X890739Y766177D01*
X888828Y764712D01*
X887363Y762801D01*
X886441Y760577D01*
X886127Y758190D01*
X886441Y755803D01*
X887363Y753579D01*
X888828Y751668D01*
X890739Y750203D01*
X892963Y749281D01*
X895350Y748967D01*
X897737Y749281D01*
X899961Y750203D01*
X901872Y751668D01*
X903337Y753579D01*
X904259Y755803D01*
X904573Y758190D01*
X904259Y760577D01*
X903337Y762801D01*
X901872Y764712D01*
X899961Y766177D01*
X897737Y767099D01*
X895350Y767413D01*
D02*
G37*
G36*
X869950D02*
X867563Y767099D01*
X865339Y766177D01*
X863428Y764712D01*
X861963Y762801D01*
X861041Y760577D01*
X860727Y758190D01*
X861041Y755803D01*
X861963Y753579D01*
X863428Y751668D01*
X865339Y750203D01*
X867563Y749281D01*
X869950Y748967D01*
X872337Y749281D01*
X874561Y750203D01*
X876472Y751668D01*
X877937Y753579D01*
X878859Y755803D01*
X879173Y758190D01*
X878859Y760577D01*
X877937Y762801D01*
X876472Y764712D01*
X874561Y766177D01*
X872337Y767099D01*
X869950Y767413D01*
D02*
G37*
G36*
X1512570Y733593D02*
X1510805Y733242D01*
X1509308Y732242D01*
X1508889Y731613D01*
X1507361D01*
X1506942Y732242D01*
X1505445Y733242D01*
X1503680Y733593D01*
X1501915Y733242D01*
X1500418Y732242D01*
X1499999Y731613D01*
X1498471D01*
X1498052Y732242D01*
X1496555Y733242D01*
X1494790Y733593D01*
X1493025Y733242D01*
X1491528Y732242D01*
X1491109Y731613D01*
X1489581D01*
X1489162Y732242D01*
X1487665Y733242D01*
X1485900Y733593D01*
X1484135Y733242D01*
X1482638Y732242D01*
X1481638Y730745D01*
X1481287Y728980D01*
X1481638Y727215D01*
X1482638Y725718D01*
X1483266Y725299D01*
Y723771D01*
X1482638Y723352D01*
X1481638Y721855D01*
X1481287Y720090D01*
X1481638Y718325D01*
X1482638Y716828D01*
X1484135Y715828D01*
X1485900Y715477D01*
X1487665Y715828D01*
X1489162Y716828D01*
X1489581Y717457D01*
X1491109D01*
X1491528Y716828D01*
X1493025Y715828D01*
X1494790Y715477D01*
X1496555Y715828D01*
X1498052Y716828D01*
X1498471Y717457D01*
X1499999D01*
X1500418Y716828D01*
X1501915Y715828D01*
X1503680Y715477D01*
X1505445Y715828D01*
X1506942Y716828D01*
X1507361Y717457D01*
X1508889D01*
X1509308Y716828D01*
X1510805Y715828D01*
X1512570Y715477D01*
X1514335Y715828D01*
X1515832Y716828D01*
X1516832Y718325D01*
X1517183Y720090D01*
X1516832Y721855D01*
X1515832Y723352D01*
X1515204Y723771D01*
Y725299D01*
X1515832Y725718D01*
X1516832Y727215D01*
X1517183Y728980D01*
X1516832Y730745D01*
X1515832Y732242D01*
X1514335Y733242D01*
X1512570Y733593D01*
D02*
G37*
G36*
X1040130Y747082D02*
X1038074Y746811D01*
X1036159Y746018D01*
X1034514Y744756D01*
X1033252Y743111D01*
X1032459Y741196D01*
X1032188Y739140D01*
X1032459Y737085D01*
X1033252Y735169D01*
X1034514Y733524D01*
X1036159Y732262D01*
X1038074Y731469D01*
X1040130Y731198D01*
X1042186Y731469D01*
X1044101Y732262D01*
X1045746Y733524D01*
X1047008Y735169D01*
X1047801Y737085D01*
X1048072Y739140D01*
X1047801Y741196D01*
X1047008Y743111D01*
X1045746Y744756D01*
X1044101Y746018D01*
X1042186Y746811D01*
X1040130Y747082D01*
D02*
G37*
G36*
X694690Y737403D02*
X692925Y737051D01*
X691428Y736052D01*
X690428Y734555D01*
X690077Y732790D01*
X690428Y731025D01*
X691428Y729528D01*
X692925Y728529D01*
X694690Y728177D01*
X696455Y728529D01*
X697952Y729528D01*
X698951Y731025D01*
X699303Y732790D01*
X698951Y734555D01*
X697952Y736052D01*
X696455Y737051D01*
X694690Y737403D01*
D02*
G37*
G36*
X777240Y736133D02*
X775475Y735781D01*
X773978Y734782D01*
X772979Y733285D01*
X772627Y731520D01*
X772979Y729755D01*
X773978Y728258D01*
X775475Y727259D01*
X777240Y726907D01*
X779005Y727259D01*
X780502Y728258D01*
X781501Y729755D01*
X781853Y731520D01*
X781501Y733285D01*
X780502Y734782D01*
X779005Y735781D01*
X777240Y736133D01*
D02*
G37*
G36*
X1700530Y730458D02*
X1698765Y730107D01*
X1697268Y729107D01*
X1696268Y727610D01*
X1695917Y725845D01*
X1696268Y724080D01*
X1697268Y722583D01*
X1698765Y721583D01*
X1700530Y721232D01*
X1702295Y721583D01*
X1703792Y722583D01*
X1703930Y722790D01*
X1705457D01*
X1705821Y722246D01*
X1707317Y721246D01*
X1709082Y720895D01*
X1710848Y721246D01*
X1712344Y722246D01*
X1713344Y723742D01*
X1713695Y725508D01*
X1713344Y727273D01*
X1712344Y728769D01*
X1710848Y729769D01*
X1709082Y730120D01*
X1707317Y729769D01*
X1705821Y728769D01*
X1705683Y728562D01*
X1704155D01*
X1703792Y729107D01*
X1702295Y730107D01*
X1700530Y730458D01*
D02*
G37*
G36*
X982378Y723433D02*
X980613Y723082D01*
X979116Y722082D01*
X978117Y720585D01*
X978017Y720087D01*
X976582Y719380D01*
X975360Y719623D01*
X973595Y719271D01*
X972098Y718272D01*
X971098Y716775D01*
X970747Y715010D01*
X971098Y713245D01*
X972098Y711748D01*
X973595Y710749D01*
X975360Y710397D01*
X977125Y710749D01*
X978622Y711748D01*
X979622Y713245D01*
X979721Y713744D01*
X981156Y714450D01*
X982378Y714207D01*
X984143Y714558D01*
X985640Y715558D01*
X986640Y717055D01*
X986991Y718820D01*
X986640Y720585D01*
X985640Y722082D01*
X984143Y723082D01*
X982378Y723433D01*
D02*
G37*
G36*
X996950Y727243D02*
X995185Y726891D01*
X993688Y725892D01*
X992689Y724395D01*
X992337Y722630D01*
X992689Y720865D01*
X993688Y719368D01*
X995185Y718369D01*
X996950Y718017D01*
X998715Y718369D01*
X1000212Y719368D01*
X1001211Y720865D01*
X1001563Y722630D01*
X1001211Y724395D01*
X1000212Y725892D01*
X998715Y726891D01*
X996950Y727243D01*
D02*
G37*
G36*
X895350Y734393D02*
X892963Y734079D01*
X890739Y733157D01*
X888828Y731692D01*
X887363Y729781D01*
X886441Y727557D01*
X886127Y725170D01*
X886441Y722783D01*
X887363Y720559D01*
X888828Y718648D01*
X890739Y717183D01*
X892963Y716261D01*
X895350Y715947D01*
X897737Y716261D01*
X899961Y717183D01*
X901872Y718648D01*
X903337Y720559D01*
X904259Y722783D01*
X904573Y725170D01*
X904259Y727557D01*
X903337Y729781D01*
X901872Y731692D01*
X899961Y733157D01*
X897737Y734079D01*
X895350Y734393D01*
D02*
G37*
G36*
X869950D02*
X867563Y734079D01*
X865339Y733157D01*
X863428Y731692D01*
X861963Y729781D01*
X861041Y727557D01*
X860727Y725170D01*
X861041Y722783D01*
X861963Y720559D01*
X863428Y718648D01*
X865339Y717183D01*
X867563Y716261D01*
X869950Y715947D01*
X872337Y716261D01*
X874561Y717183D01*
X876472Y718648D01*
X877937Y720559D01*
X878859Y722783D01*
X879173Y725170D01*
X878859Y727557D01*
X877937Y729781D01*
X876472Y731692D01*
X874561Y733157D01*
X872337Y734079D01*
X869950Y734393D01*
D02*
G37*
G36*
X844550D02*
X842163Y734079D01*
X839939Y733157D01*
X838028Y731692D01*
X836563Y729781D01*
X835641Y727557D01*
X835327Y725170D01*
X835641Y722783D01*
X836563Y720559D01*
X838028Y718648D01*
X839939Y717183D01*
X842163Y716261D01*
X844550Y715947D01*
X846937Y716261D01*
X849161Y717183D01*
X851072Y718648D01*
X852537Y720559D01*
X853459Y722783D01*
X853773Y725170D01*
X853459Y727557D01*
X852537Y729781D01*
X851072Y731692D01*
X849161Y733157D01*
X846937Y734079D01*
X844550Y734393D01*
D02*
G37*
G36*
X1590040Y717083D02*
X1588275Y716731D01*
X1586778Y715732D01*
X1585779Y714235D01*
X1585427Y712470D01*
X1585779Y710705D01*
X1586778Y709208D01*
X1588275Y708208D01*
X1590040Y707857D01*
X1591805Y708208D01*
X1593302Y709208D01*
X1594301Y710705D01*
X1594653Y712470D01*
X1594301Y714235D01*
X1593302Y715732D01*
X1591805Y716731D01*
X1590040Y717083D01*
D02*
G37*
G36*
X1040130Y721682D02*
X1038074Y721411D01*
X1036159Y720618D01*
X1034514Y719356D01*
X1033252Y717711D01*
X1032459Y715796D01*
X1032188Y713740D01*
X1032459Y711684D01*
X1033252Y709769D01*
X1034514Y708124D01*
X1036159Y706862D01*
X1038074Y706069D01*
X1040130Y705798D01*
X1042186Y706069D01*
X1044101Y706862D01*
X1045746Y708124D01*
X1047008Y709769D01*
X1047801Y711684D01*
X1048072Y713740D01*
X1047801Y715796D01*
X1047008Y717711D01*
X1045746Y719356D01*
X1044101Y720618D01*
X1042186Y721411D01*
X1040130Y721682D01*
D02*
G37*
G36*
X1014730D02*
X1012674Y721411D01*
X1010759Y720618D01*
X1009114Y719356D01*
X1007852Y717711D01*
X1007059Y715796D01*
X1006788Y713740D01*
X1007059Y711684D01*
X1007852Y709769D01*
X1009114Y708124D01*
X1010759Y706862D01*
X1012674Y706069D01*
X1014730Y705798D01*
X1016786Y706069D01*
X1018701Y706862D01*
X1020346Y708124D01*
X1021608Y709769D01*
X1022401Y711684D01*
X1022672Y713740D01*
X1022401Y715796D01*
X1021608Y717711D01*
X1020346Y719356D01*
X1018701Y720618D01*
X1016786Y721411D01*
X1014730Y721682D01*
D02*
G37*
G36*
X756679Y709463D02*
X754914Y709111D01*
X753418Y708112D01*
X752418Y706615D01*
X752067Y704850D01*
X752418Y703085D01*
X753418Y701588D01*
X754914Y700589D01*
X756679Y700237D01*
X758444Y700589D01*
X759941Y701588D01*
X760941Y703085D01*
X761292Y704850D01*
X760941Y706615D01*
X759941Y708112D01*
X758444Y709111D01*
X756679Y709463D01*
D02*
G37*
G36*
X676755Y708193D02*
X674990Y707841D01*
X673493Y706842D01*
X672494Y705345D01*
X672142Y703580D01*
X672494Y701815D01*
X673493Y700318D01*
X674990Y699318D01*
X676755Y698967D01*
X678520Y699318D01*
X680017Y700318D01*
X681016Y701815D01*
X681368Y703580D01*
X681016Y705345D01*
X680017Y706842D01*
X678520Y707841D01*
X676755Y708193D01*
D02*
G37*
G36*
X1773410Y751422D02*
X1768463Y751032D01*
X1763638Y749874D01*
X1759054Y747975D01*
X1754823Y745382D01*
X1751050Y742160D01*
X1747828Y738387D01*
X1745235Y734156D01*
X1743336Y729572D01*
X1742178Y724747D01*
X1741788Y719800D01*
X1742178Y714853D01*
X1743336Y710028D01*
X1745235Y705444D01*
X1747828Y701213D01*
X1751050Y697440D01*
X1754823Y694218D01*
X1759054Y691625D01*
X1763638Y689726D01*
X1768463Y688568D01*
X1773410Y688178D01*
X1778357Y688568D01*
X1783182Y689726D01*
X1787766Y691625D01*
X1791997Y694218D01*
X1795770Y697440D01*
X1798992Y701213D01*
X1801585Y705444D01*
X1803484Y710028D01*
X1804642Y714853D01*
X1805031Y719800D01*
X1804642Y724747D01*
X1803484Y729572D01*
X1801585Y734156D01*
X1798992Y738387D01*
X1795770Y742160D01*
X1791997Y745382D01*
X1787766Y747975D01*
X1783182Y749874D01*
X1778357Y751032D01*
X1773410Y751422D01*
D02*
G37*
G36*
X1253410D02*
X1248463Y751032D01*
X1243638Y749874D01*
X1239054Y747975D01*
X1234823Y745382D01*
X1231050Y742160D01*
X1227828Y738387D01*
X1225235Y734156D01*
X1223336Y729572D01*
X1222178Y724747D01*
X1221788Y719800D01*
X1222178Y714853D01*
X1223336Y710028D01*
X1225235Y705444D01*
X1227828Y701213D01*
X1231050Y697440D01*
X1234823Y694218D01*
X1239054Y691625D01*
X1243638Y689726D01*
X1248463Y688568D01*
X1253410Y688178D01*
X1258357Y688568D01*
X1263182Y689726D01*
X1267766Y691625D01*
X1271997Y694218D01*
X1275770Y697440D01*
X1278992Y701213D01*
X1281585Y705444D01*
X1283484Y710028D01*
X1284642Y714853D01*
X1285031Y719800D01*
X1284642Y724747D01*
X1283484Y729572D01*
X1281585Y734156D01*
X1278992Y738387D01*
X1275770Y742160D01*
X1271997Y745382D01*
X1267766Y747975D01*
X1263182Y749874D01*
X1258357Y751032D01*
X1253410Y751422D01*
D02*
G37*
G36*
X1133410D02*
X1128463Y751032D01*
X1123638Y749874D01*
X1119054Y747975D01*
X1114823Y745382D01*
X1111050Y742160D01*
X1107828Y738387D01*
X1105235Y734156D01*
X1103336Y729572D01*
X1102178Y724747D01*
X1101788Y719800D01*
X1102178Y714853D01*
X1103336Y710028D01*
X1105235Y705444D01*
X1107828Y701213D01*
X1111050Y697440D01*
X1114823Y694218D01*
X1119054Y691625D01*
X1123638Y689726D01*
X1128463Y688568D01*
X1133410Y688178D01*
X1138357Y688568D01*
X1143182Y689726D01*
X1147766Y691625D01*
X1151997Y694218D01*
X1155770Y697440D01*
X1158992Y701213D01*
X1161585Y705444D01*
X1163484Y710028D01*
X1164642Y714853D01*
X1165032Y719800D01*
X1164642Y724747D01*
X1163484Y729572D01*
X1161585Y734156D01*
X1158992Y738387D01*
X1155770Y742160D01*
X1151997Y745382D01*
X1147766Y747975D01*
X1143182Y749874D01*
X1138357Y751032D01*
X1133410Y751422D01*
D02*
G37*
G36*
X613410D02*
X608463Y751032D01*
X603638Y749874D01*
X599054Y747975D01*
X594823Y745382D01*
X591050Y742160D01*
X587828Y738387D01*
X585235Y734156D01*
X583336Y729572D01*
X582178Y724747D01*
X581788Y719800D01*
X582178Y714853D01*
X583336Y710028D01*
X585235Y705444D01*
X587828Y701213D01*
X591050Y697440D01*
X594823Y694218D01*
X599054Y691625D01*
X603638Y689726D01*
X608463Y688568D01*
X613410Y688178D01*
X618357Y688568D01*
X623182Y689726D01*
X627766Y691625D01*
X631997Y694218D01*
X635770Y697440D01*
X638992Y701213D01*
X641585Y705444D01*
X643484Y710028D01*
X644642Y714853D01*
X645032Y719800D01*
X644642Y724747D01*
X643484Y729572D01*
X641585Y734156D01*
X638992Y738387D01*
X635770Y742160D01*
X631997Y745382D01*
X627766Y747975D01*
X623182Y749874D01*
X618357Y751032D01*
X613410Y751422D01*
D02*
G37*
G36*
X1287780Y695493D02*
X1286015Y695142D01*
X1284518Y694142D01*
X1283519Y692645D01*
X1283167Y690880D01*
X1283519Y689115D01*
X1284518Y687618D01*
X1286015Y686618D01*
X1287780Y686267D01*
X1289545Y686618D01*
X1291042Y687618D01*
X1292041Y689115D01*
X1292393Y690880D01*
X1292041Y692645D01*
X1291042Y694142D01*
X1289545Y695142D01*
X1287780Y695493D01*
D02*
G37*
G36*
X1014730Y696282D02*
X1012674Y696011D01*
X1010759Y695218D01*
X1009114Y693956D01*
X1007852Y692311D01*
X1007059Y690396D01*
X1006788Y688340D01*
X1007059Y686284D01*
X1007852Y684369D01*
X1009114Y682724D01*
X1010759Y681462D01*
X1012674Y680669D01*
X1014730Y680398D01*
X1016786Y680669D01*
X1018701Y681462D01*
X1020346Y682724D01*
X1021608Y684369D01*
X1022401Y686284D01*
X1022672Y688340D01*
X1022401Y690396D01*
X1021608Y692311D01*
X1020346Y693956D01*
X1018701Y695218D01*
X1016786Y696011D01*
X1014730Y696282D01*
D02*
G37*
G36*
X618046Y681523D02*
X616281Y681171D01*
X614784Y680172D01*
X613784Y678675D01*
X613433Y676910D01*
X613784Y675145D01*
X614784Y673648D01*
X616281Y672648D01*
X618046Y672297D01*
X619811Y672648D01*
X621307Y673648D01*
X622307Y675145D01*
X622658Y676910D01*
X622307Y678675D01*
X621307Y680172D01*
X619811Y681171D01*
X618046Y681523D01*
D02*
G37*
G36*
X897890Y686122D02*
X895835Y685851D01*
X893919Y685058D01*
X892274Y683796D01*
X891012Y682151D01*
X890219Y680236D01*
X889948Y678180D01*
X890219Y676124D01*
X891012Y674209D01*
X892274Y672564D01*
X893919Y671302D01*
X895835Y670509D01*
X897890Y670238D01*
X899946Y670509D01*
X901861Y671302D01*
X903506Y672564D01*
X904768Y674209D01*
X905561Y676124D01*
X905832Y678180D01*
X905561Y680236D01*
X904768Y682151D01*
X903506Y683796D01*
X901861Y685058D01*
X899946Y685851D01*
X897890Y686122D01*
D02*
G37*
G36*
X872490D02*
X870434Y685851D01*
X868519Y685058D01*
X866874Y683796D01*
X865612Y682151D01*
X864819Y680236D01*
X864548Y678180D01*
X864819Y676124D01*
X865612Y674209D01*
X866874Y672564D01*
X868519Y671302D01*
X870434Y670509D01*
X872490Y670238D01*
X874546Y670509D01*
X876461Y671302D01*
X878106Y672564D01*
X879368Y674209D01*
X880161Y676124D01*
X880432Y678180D01*
X880161Y680236D01*
X879368Y682151D01*
X878106Y683796D01*
X876461Y685058D01*
X874546Y685851D01*
X872490Y686122D01*
D02*
G37*
G36*
X778510D02*
X776454Y685851D01*
X774539Y685058D01*
X772894Y683796D01*
X771632Y682151D01*
X770839Y680236D01*
X770568Y678180D01*
X770839Y676124D01*
X771632Y674209D01*
X772894Y672564D01*
X774539Y671302D01*
X776454Y670509D01*
X778510Y670238D01*
X780565Y670509D01*
X782481Y671302D01*
X784126Y672564D01*
X785388Y674209D01*
X786181Y676124D01*
X786452Y678180D01*
X786181Y680236D01*
X785388Y682151D01*
X784126Y683796D01*
X782481Y685058D01*
X780565Y685851D01*
X778510Y686122D01*
D02*
G37*
G36*
X753110D02*
X751055Y685851D01*
X749139Y685058D01*
X747494Y683796D01*
X746232Y682151D01*
X745439Y680236D01*
X745168Y678180D01*
X745439Y676124D01*
X746232Y674209D01*
X747494Y672564D01*
X749139Y671302D01*
X751055Y670509D01*
X753110Y670238D01*
X755165Y670509D01*
X757081Y671302D01*
X758726Y672564D01*
X759988Y674209D01*
X760781Y676124D01*
X761052Y678180D01*
X760781Y680236D01*
X759988Y682151D01*
X758726Y683796D01*
X757081Y685058D01*
X755165Y685851D01*
X753110Y686122D01*
D02*
G37*
G36*
X1814830Y665013D02*
X1813065Y664661D01*
X1811568Y663662D01*
X1811149Y663034D01*
X1809621D01*
X1809202Y663662D01*
X1807705Y664661D01*
X1805940Y665013D01*
X1804175Y664661D01*
X1802678Y663662D01*
X1802259Y663034D01*
X1800731D01*
X1800312Y663662D01*
X1798815Y664661D01*
X1797050Y665013D01*
X1795285Y664661D01*
X1793788Y663662D01*
X1792789Y662165D01*
X1792437Y660400D01*
X1792789Y658635D01*
X1793589Y657436D01*
X1793710Y656590D01*
X1793589Y655744D01*
X1792789Y654545D01*
X1792437Y652780D01*
X1792789Y651015D01*
X1793788Y649518D01*
X1795285Y648519D01*
X1797050Y648167D01*
X1798815Y648519D01*
X1800312Y649518D01*
X1800731Y650146D01*
X1802259D01*
X1802678Y649518D01*
X1804175Y648519D01*
X1805940Y648167D01*
X1807705Y648519D01*
X1809202Y649518D01*
X1809621Y650146D01*
X1811149D01*
X1811568Y649518D01*
X1813065Y648519D01*
X1814830Y648167D01*
X1816595Y648519D01*
X1818092Y649518D01*
X1819091Y651015D01*
X1819443Y652780D01*
X1819091Y654545D01*
X1818291Y655744D01*
X1818170Y656590D01*
X1818291Y657436D01*
X1819091Y658635D01*
X1819443Y660400D01*
X1819091Y662165D01*
X1818092Y663662D01*
X1816595Y664661D01*
X1814830Y665013D01*
D02*
G37*
G36*
X1040130Y670882D02*
X1038074Y670611D01*
X1036159Y669818D01*
X1034514Y668556D01*
X1033252Y666911D01*
X1032459Y664995D01*
X1032188Y662940D01*
X1032459Y660884D01*
X1033252Y658969D01*
X1034514Y657324D01*
X1036159Y656062D01*
X1038074Y655269D01*
X1040130Y654998D01*
X1042186Y655269D01*
X1044101Y656062D01*
X1045746Y657324D01*
X1047008Y658969D01*
X1047801Y660884D01*
X1048072Y662940D01*
X1047801Y664995D01*
X1047008Y666911D01*
X1045746Y668556D01*
X1044101Y669818D01*
X1042186Y670611D01*
X1040130Y670882D01*
D02*
G37*
G36*
X1592583Y659464D02*
X1590818Y659113D01*
X1589321Y658113D01*
X1588321Y656617D01*
X1587970Y654852D01*
X1588321Y653086D01*
X1589321Y651590D01*
X1590818Y650590D01*
X1592583Y650239D01*
X1594348Y650590D01*
X1595844Y651590D01*
X1596844Y653086D01*
X1597195Y654852D01*
X1596844Y656617D01*
X1595844Y658113D01*
X1594348Y659113D01*
X1592583Y659464D01*
D02*
G37*
G36*
X1245872Y659923D02*
X1244107Y659572D01*
X1242610Y658572D01*
X1241610Y657076D01*
X1241259Y655311D01*
X1241610Y653546D01*
X1242610Y652049D01*
X1244107Y651049D01*
X1245872Y650698D01*
X1247637Y651049D01*
X1247760Y651132D01*
X1248903Y650368D01*
X1248877Y650240D01*
X1249229Y648475D01*
X1250228Y646978D01*
X1251725Y645978D01*
X1253490Y645627D01*
X1255255Y645978D01*
X1256752Y646978D01*
X1257751Y648475D01*
X1258103Y650240D01*
X1257751Y652005D01*
X1256752Y653502D01*
X1255255Y654501D01*
X1253490Y654853D01*
X1251725Y654501D01*
X1251602Y654419D01*
X1250459Y655183D01*
X1250484Y655311D01*
X1250133Y657076D01*
X1249133Y658572D01*
X1247637Y659572D01*
X1245872Y659923D01*
D02*
G37*
G36*
X949960Y654853D02*
X948195Y654501D01*
X946698Y653502D01*
X945698Y652005D01*
X945347Y650240D01*
X945698Y648475D01*
X946698Y646978D01*
X948195Y645978D01*
X949960Y645627D01*
X951725Y645978D01*
X953222Y646978D01*
X954221Y648475D01*
X954573Y650240D01*
X954221Y652005D01*
X953222Y653502D01*
X951725Y654501D01*
X949960Y654853D01*
D02*
G37*
G36*
X905764Y660654D02*
X890016D01*
Y644906D01*
X905764D01*
Y660654D01*
D02*
G37*
G36*
X872490Y660722D02*
X870434Y660451D01*
X868519Y659658D01*
X866874Y658396D01*
X865612Y656751D01*
X864819Y654836D01*
X864548Y652780D01*
X864819Y650724D01*
X865612Y648809D01*
X866874Y647164D01*
X868519Y645902D01*
X870434Y645109D01*
X872490Y644838D01*
X874546Y645109D01*
X876461Y645902D01*
X878106Y647164D01*
X879368Y648809D01*
X880161Y650724D01*
X880432Y652780D01*
X880161Y654836D01*
X879368Y656751D01*
X878106Y658396D01*
X876461Y659658D01*
X874546Y660451D01*
X872490Y660722D01*
D02*
G37*
G36*
X847090D02*
X845034Y660451D01*
X843119Y659658D01*
X841474Y658396D01*
X840212Y656751D01*
X839419Y654836D01*
X839148Y652780D01*
X839419Y650724D01*
X840212Y648809D01*
X841474Y647164D01*
X843119Y645902D01*
X845034Y645109D01*
X847090Y644838D01*
X849146Y645109D01*
X851061Y645902D01*
X852706Y647164D01*
X853968Y648809D01*
X854761Y650724D01*
X855032Y652780D01*
X854761Y654836D01*
X853968Y656751D01*
X852706Y658396D01*
X851061Y659658D01*
X849146Y660451D01*
X847090Y660722D01*
D02*
G37*
G36*
X778510D02*
X776454Y660451D01*
X774539Y659658D01*
X772894Y658396D01*
X771632Y656751D01*
X770839Y654836D01*
X770568Y652780D01*
X770839Y650724D01*
X771632Y648809D01*
X772894Y647164D01*
X774539Y645902D01*
X776454Y645109D01*
X778510Y644838D01*
X780565Y645109D01*
X782481Y645902D01*
X784126Y647164D01*
X785388Y648809D01*
X786181Y650724D01*
X786452Y652780D01*
X786181Y654836D01*
X785388Y656751D01*
X784126Y658396D01*
X782481Y659658D01*
X780565Y660451D01*
X778510Y660722D01*
D02*
G37*
G36*
X753110D02*
X751055Y660451D01*
X749139Y659658D01*
X747494Y658396D01*
X746232Y656751D01*
X745439Y654836D01*
X745168Y652780D01*
X745439Y650724D01*
X746232Y648809D01*
X747494Y647164D01*
X749139Y645902D01*
X751055Y645109D01*
X753110Y644838D01*
X755165Y645109D01*
X757081Y645902D01*
X758726Y647164D01*
X759988Y648809D01*
X760781Y650724D01*
X761052Y652780D01*
X760781Y654836D01*
X759988Y656751D01*
X758726Y658396D01*
X757081Y659658D01*
X755165Y660451D01*
X753110Y660722D01*
D02*
G37*
G36*
X598170Y653583D02*
X596405Y653232D01*
X594908Y652232D01*
X593909Y650735D01*
X593557Y648970D01*
X593909Y647205D01*
X594908Y645708D01*
X596405Y644708D01*
X598170Y644357D01*
X599935Y644708D01*
X601432Y645708D01*
X602431Y647205D01*
X602783Y648970D01*
X602431Y650735D01*
X601432Y652232D01*
X599935Y653232D01*
X598170Y653583D01*
D02*
G37*
G36*
X1557020Y644728D02*
X1555255Y644377D01*
X1554056Y643576D01*
X1553210Y643456D01*
X1552364Y643576D01*
X1551165Y644377D01*
X1549400Y644728D01*
X1547635Y644377D01*
X1546420Y643565D01*
X1545042Y643342D01*
X1543545Y644342D01*
X1541780Y644693D01*
X1540015Y644342D01*
X1538816Y643540D01*
X1537970Y643420D01*
X1537124Y643540D01*
X1535925Y644342D01*
X1534160Y644693D01*
X1532395Y644342D01*
X1531196Y643540D01*
X1530350Y643420D01*
X1529504Y643540D01*
X1528305Y644342D01*
X1526540Y644693D01*
X1524775Y644342D01*
X1523576Y643540D01*
X1522730Y643420D01*
X1521884Y643540D01*
X1520685Y644342D01*
X1518920Y644693D01*
X1517155Y644342D01*
X1515956Y643540D01*
X1515110Y643420D01*
X1514264Y643540D01*
X1513065Y644342D01*
X1511300Y644693D01*
X1509535Y644342D01*
X1508336Y643540D01*
X1507490Y643420D01*
X1506644Y643540D01*
X1505445Y644342D01*
X1503680Y644693D01*
X1501915Y644342D01*
X1500418Y643342D01*
X1499418Y641845D01*
X1499067Y640080D01*
X1499418Y638315D01*
X1500361Y636905D01*
X1499418Y635495D01*
X1499067Y633730D01*
X1499418Y631965D01*
X1500361Y630555D01*
X1499418Y629145D01*
X1499067Y627380D01*
X1499418Y625615D01*
X1500418Y624118D01*
X1501915Y623119D01*
X1503680Y622767D01*
X1505445Y623119D01*
X1506644Y623919D01*
X1507490Y624040D01*
X1508336Y623919D01*
X1509535Y623119D01*
X1511300Y622767D01*
X1513065Y623119D01*
X1514264Y623919D01*
X1515110Y624040D01*
X1515956Y623919D01*
X1517155Y623119D01*
X1518920Y622767D01*
X1520685Y623119D01*
X1521884Y623919D01*
X1522730Y624040D01*
X1523576Y623919D01*
X1524775Y623119D01*
X1526540Y622767D01*
X1528305Y623119D01*
X1529504Y623919D01*
X1530350Y624040D01*
X1531196Y623919D01*
X1532395Y623119D01*
X1534160Y622767D01*
X1535925Y623119D01*
X1537124Y623919D01*
X1537970Y624040D01*
X1538816Y623919D01*
X1540015Y623119D01*
X1541780Y622767D01*
X1543545Y623119D01*
X1544760Y623931D01*
X1546138Y624154D01*
X1547635Y623154D01*
X1549400Y622803D01*
X1551165Y623154D01*
X1552364Y623955D01*
X1553210Y624076D01*
X1554056Y623955D01*
X1555255Y623154D01*
X1557020Y622803D01*
X1558785Y623154D01*
X1560282Y624154D01*
X1561281Y625650D01*
X1561633Y627416D01*
X1561281Y629181D01*
X1560340Y630591D01*
X1561281Y632001D01*
X1561633Y633766D01*
X1561281Y635531D01*
X1560340Y636941D01*
X1561281Y638350D01*
X1561633Y640116D01*
X1561281Y641881D01*
X1560282Y643377D01*
X1558785Y644377D01*
X1557020Y644728D01*
D02*
G37*
G36*
X1783080Y644693D02*
X1781315Y644342D01*
X1779818Y643342D01*
X1779399Y642713D01*
X1777871D01*
X1777452Y643342D01*
X1775955Y644342D01*
X1774190Y644693D01*
X1772425Y644342D01*
X1770928Y643342D01*
X1770509Y642713D01*
X1768981D01*
X1768562Y643342D01*
X1767065Y644342D01*
X1765300Y644693D01*
X1763535Y644342D01*
X1762038Y643342D01*
X1761039Y641845D01*
X1760687Y640080D01*
X1761039Y638315D01*
X1761839Y637116D01*
X1761960Y636270D01*
X1761839Y635424D01*
X1761039Y634225D01*
X1760687Y632460D01*
X1761039Y630695D01*
X1762038Y629198D01*
X1763535Y628199D01*
X1765300Y627847D01*
X1767065Y628199D01*
X1768562Y629198D01*
X1768981Y629827D01*
X1770509D01*
X1770928Y629198D01*
X1772425Y628199D01*
X1774190Y627847D01*
X1775955Y628199D01*
X1777452Y629198D01*
X1777871Y629827D01*
X1779399D01*
X1779818Y629198D01*
X1781315Y628199D01*
X1783080Y627847D01*
X1784845Y628199D01*
X1786342Y629198D01*
X1787341Y630695D01*
X1787693Y632460D01*
X1787341Y634225D01*
X1786541Y635424D01*
X1786420Y636270D01*
X1786541Y637116D01*
X1787341Y638315D01*
X1787693Y640080D01*
X1787341Y641845D01*
X1786342Y643342D01*
X1784845Y644342D01*
X1783080Y644693D01*
D02*
G37*
G36*
X861012Y645915D02*
X859247Y645563D01*
X857750Y644564D01*
X856750Y643067D01*
X856399Y641302D01*
X856750Y639537D01*
X857750Y638040D01*
X859247Y637040D01*
X861012Y636689D01*
X862777Y637040D01*
X864274Y638040D01*
X865273Y639537D01*
X865624Y641302D01*
X865273Y643067D01*
X864274Y644564D01*
X862777Y645563D01*
X861012Y645915D01*
D02*
G37*
G36*
X1125220Y635803D02*
X1123455Y635452D01*
X1121958Y634452D01*
X1121539Y633824D01*
X1120011D01*
X1119592Y634452D01*
X1118095Y635452D01*
X1116330Y635803D01*
X1114565Y635452D01*
X1113068Y634452D01*
X1112068Y632955D01*
X1111717Y631190D01*
X1112068Y629425D01*
X1113068Y627928D01*
X1113697Y627509D01*
Y625981D01*
X1113068Y625562D01*
X1112068Y624065D01*
X1111717Y622300D01*
X1112068Y620535D01*
X1113068Y619038D01*
X1113697Y618619D01*
Y617091D01*
X1113068Y616672D01*
X1112068Y615175D01*
X1111717Y613410D01*
X1112068Y611645D01*
X1113068Y610148D01*
X1113697Y609729D01*
Y608201D01*
X1113068Y607782D01*
X1112068Y606285D01*
X1111717Y604520D01*
X1112068Y602755D01*
X1113068Y601258D01*
X1114565Y600258D01*
X1116330Y599907D01*
X1118095Y600258D01*
X1119592Y601258D01*
X1120011Y601886D01*
X1121539D01*
X1121958Y601258D01*
X1123455Y600258D01*
X1125220Y599907D01*
X1126985Y600258D01*
X1128482Y601258D01*
X1129482Y602755D01*
X1129833Y604520D01*
X1129482Y606285D01*
X1128482Y607782D01*
X1127853Y608201D01*
Y609729D01*
X1128482Y610148D01*
X1129482Y611645D01*
X1129833Y613410D01*
X1129482Y615175D01*
X1128482Y616672D01*
X1127853Y617091D01*
Y618619D01*
X1128482Y619038D01*
X1129482Y620535D01*
X1129833Y622300D01*
X1129482Y624065D01*
X1128482Y625562D01*
X1127853Y625981D01*
Y627509D01*
X1128482Y627928D01*
X1129482Y629425D01*
X1129833Y631190D01*
X1129482Y632955D01*
X1128482Y634452D01*
X1126985Y635452D01*
X1125220Y635803D01*
D02*
G37*
G36*
X1628140Y640883D02*
X1626375Y640531D01*
X1624878Y639532D01*
X1623878Y638035D01*
X1623527Y636270D01*
X1623878Y634505D01*
X1624878Y633008D01*
X1626375Y632009D01*
X1628140Y631657D01*
X1629905Y632009D01*
X1631402Y633008D01*
X1632401Y634505D01*
X1632753Y636270D01*
X1632401Y638035D01*
X1631402Y639532D01*
X1629905Y640531D01*
X1628140Y640883D01*
D02*
G37*
G36*
X1040130Y645482D02*
X1038074Y645211D01*
X1036159Y644418D01*
X1034514Y643156D01*
X1033252Y641511D01*
X1032459Y639595D01*
X1032188Y637540D01*
X1032459Y635485D01*
X1033252Y633569D01*
X1034514Y631924D01*
X1036159Y630662D01*
X1038074Y629869D01*
X1040130Y629598D01*
X1042186Y629869D01*
X1044101Y630662D01*
X1045746Y631924D01*
X1047008Y633569D01*
X1047801Y635485D01*
X1048072Y637540D01*
X1047801Y639595D01*
X1047008Y641511D01*
X1045746Y643156D01*
X1044101Y644418D01*
X1042186Y645211D01*
X1040130Y645482D01*
D02*
G37*
G36*
X1014730D02*
X1012674Y645211D01*
X1010759Y644418D01*
X1009114Y643156D01*
X1007852Y641511D01*
X1007059Y639595D01*
X1006788Y637540D01*
X1007059Y635485D01*
X1007852Y633569D01*
X1009114Y631924D01*
X1010759Y630662D01*
X1012674Y629869D01*
X1014730Y629598D01*
X1016786Y629869D01*
X1018701Y630662D01*
X1020346Y631924D01*
X1021608Y633569D01*
X1022401Y635485D01*
X1022672Y637540D01*
X1022401Y639595D01*
X1021608Y641511D01*
X1020346Y643156D01*
X1018701Y644418D01*
X1016786Y645211D01*
X1014730Y645482D01*
D02*
G37*
G36*
X981067Y633906D02*
X979302Y633554D01*
X977805Y632555D01*
X976805Y631058D01*
X976636Y630207D01*
X975571Y629417D01*
X975290Y629456D01*
X973788Y629755D01*
X972023Y629403D01*
X970526Y628404D01*
X969527Y626907D01*
X969175Y625142D01*
X969527Y623377D01*
X970526Y621880D01*
X972023Y620881D01*
X973788Y620529D01*
X975553Y620881D01*
X977050Y621880D01*
X978049Y623377D01*
X978219Y624228D01*
X979284Y625018D01*
X979565Y624979D01*
X981067Y624680D01*
X982832Y625032D01*
X984329Y626031D01*
X985329Y627528D01*
X985680Y629293D01*
X985329Y631058D01*
X984329Y632555D01*
X982832Y633554D01*
X981067Y633906D01*
D02*
G37*
G36*
X1653540Y635803D02*
X1651775Y635452D01*
X1650278Y634452D01*
X1649279Y632955D01*
X1648927Y631190D01*
X1649279Y629425D01*
X1650278Y627928D01*
X1651775Y626928D01*
X1653540Y626577D01*
X1655305Y626928D01*
X1656802Y627928D01*
X1657802Y629425D01*
X1658153Y631190D01*
X1657802Y632955D01*
X1656802Y634452D01*
X1655305Y635452D01*
X1653540Y635803D01*
D02*
G37*
G36*
X935990Y634533D02*
X934225Y634182D01*
X932728Y633182D01*
X931729Y631685D01*
X931377Y629920D01*
X931729Y628155D01*
X932728Y626658D01*
X934225Y625658D01*
X935990Y625307D01*
X937755Y625658D01*
X939252Y626658D01*
X940251Y628155D01*
X940603Y629920D01*
X940251Y631685D01*
X939252Y633182D01*
X937755Y634182D01*
X935990Y634533D01*
D02*
G37*
G36*
X806450Y638343D02*
X804685Y637991D01*
X803188Y636992D01*
X802188Y635495D01*
X801837Y633730D01*
X802188Y631965D01*
X803188Y630468D01*
X804685Y629468D01*
X806450Y629117D01*
X807028Y627938D01*
X806917Y627380D01*
X807269Y625615D01*
X808268Y624118D01*
X809765Y623119D01*
X811530Y622767D01*
X813295Y623119D01*
X814792Y624118D01*
X815791Y625615D01*
X816143Y627380D01*
X815791Y629145D01*
X814792Y630642D01*
X813295Y631642D01*
X811530Y631993D01*
X810952Y633172D01*
X811063Y633730D01*
X810712Y635495D01*
X809712Y636992D01*
X808215Y637991D01*
X806450Y638343D01*
D02*
G37*
G36*
X1783080Y623103D02*
X1781315Y622752D01*
X1779818Y621752D01*
X1779399Y621124D01*
X1777871D01*
X1777452Y621752D01*
X1775955Y622752D01*
X1774190Y623103D01*
X1772425Y622752D01*
X1770928Y621752D01*
X1770509Y621124D01*
X1768981D01*
X1768562Y621752D01*
X1767065Y622752D01*
X1765300Y623103D01*
X1763535Y622752D01*
X1762038Y621752D01*
X1761039Y620255D01*
X1760687Y618490D01*
X1761039Y616725D01*
X1761839Y615526D01*
X1761960Y614680D01*
X1761839Y613834D01*
X1761039Y612635D01*
X1760687Y610870D01*
X1761039Y609105D01*
X1762038Y607608D01*
X1763535Y606609D01*
X1765300Y606257D01*
X1767065Y606609D01*
X1768562Y607608D01*
X1768981Y608237D01*
X1770509D01*
X1770928Y607608D01*
X1772425Y606609D01*
X1774190Y606257D01*
X1775955Y606609D01*
X1777452Y607608D01*
X1777871Y608237D01*
X1779399D01*
X1779818Y607608D01*
X1781315Y606609D01*
X1783080Y606257D01*
X1784845Y606609D01*
X1786342Y607608D01*
X1787341Y609105D01*
X1787693Y610870D01*
X1787341Y612635D01*
X1786541Y613834D01*
X1786420Y614680D01*
X1786541Y615526D01*
X1787341Y616725D01*
X1787693Y618490D01*
X1787341Y620255D01*
X1786342Y621752D01*
X1784845Y622752D01*
X1783080Y623103D01*
D02*
G37*
G36*
X1626870Y625643D02*
X1625105Y625291D01*
X1623608Y624292D01*
X1622608Y622795D01*
X1622257Y621030D01*
X1622608Y619265D01*
X1623608Y617768D01*
X1625105Y616768D01*
X1626870Y616417D01*
X1628635Y616768D01*
X1630132Y617768D01*
X1631131Y619265D01*
X1631483Y621030D01*
X1631131Y622795D01*
X1630132Y624292D01*
X1628635Y625291D01*
X1626870Y625643D01*
D02*
G37*
G36*
X834390Y624373D02*
X832625Y624021D01*
X831128Y623022D01*
X830128Y621525D01*
X829777Y619760D01*
X830128Y617995D01*
X831128Y616498D01*
X832625Y615499D01*
X834390Y615147D01*
X836155Y615499D01*
X837652Y616498D01*
X838652Y617995D01*
X839003Y619760D01*
X838652Y621525D01*
X837652Y623022D01*
X836155Y624021D01*
X834390Y624373D01*
D02*
G37*
G36*
X1643380Y621833D02*
X1641615Y621482D01*
X1640118Y620482D01*
X1639118Y618985D01*
X1638767Y617220D01*
X1639118Y615455D01*
X1640118Y613958D01*
X1641615Y612958D01*
X1643380Y612607D01*
X1645145Y612958D01*
X1646642Y613958D01*
X1647641Y615455D01*
X1647993Y617220D01*
X1647641Y618985D01*
X1646642Y620482D01*
X1645145Y621482D01*
X1643380Y621833D01*
D02*
G37*
G36*
X774115Y611088D02*
X772350Y610737D01*
X770853Y609737D01*
X769854Y608240D01*
X769652Y607229D01*
X768995Y606424D01*
X768282Y606353D01*
X767080Y606593D01*
X765315Y606241D01*
X763818Y605242D01*
X763728Y605107D01*
X763236Y605071D01*
X762296Y605248D01*
X761452Y606512D01*
X759955Y607511D01*
X758190Y607863D01*
X756425Y607511D01*
X754928Y606512D01*
X753929Y605015D01*
X753577Y603250D01*
X753929Y601485D01*
X754284Y600953D01*
X753855Y600282D01*
X753444Y599924D01*
X751840Y600243D01*
X750075Y599892D01*
X748578Y598892D01*
X747579Y597395D01*
X747227Y595630D01*
X747579Y593865D01*
X748578Y592368D01*
X750075Y591368D01*
X751840Y591017D01*
X753605Y591368D01*
X755102Y592368D01*
X756102Y593865D01*
X756453Y595630D01*
X756102Y597395D01*
X755746Y597927D01*
X756175Y598598D01*
X756586Y598956D01*
X758190Y598637D01*
X759955Y598988D01*
X761452Y599988D01*
X761542Y600123D01*
X762034Y600159D01*
X762974Y599981D01*
X763818Y598718D01*
X765315Y597719D01*
X767080Y597367D01*
X768845Y597719D01*
X770342Y598718D01*
X771341Y600215D01*
X771543Y601226D01*
X772200Y602030D01*
X772913Y602102D01*
X774115Y601862D01*
X775880Y602214D01*
X777377Y603213D01*
X778376Y604710D01*
X778728Y606475D01*
X778376Y608240D01*
X777377Y609737D01*
X775880Y610737D01*
X774115Y611088D01*
D02*
G37*
G36*
X1040130Y620082D02*
X1038074Y619811D01*
X1036159Y619018D01*
X1034514Y617756D01*
X1033252Y616111D01*
X1032459Y614196D01*
X1032188Y612140D01*
X1032459Y610084D01*
X1033252Y608169D01*
X1034514Y606524D01*
X1036159Y605262D01*
X1038074Y604469D01*
X1040130Y604198D01*
X1042186Y604469D01*
X1044101Y605262D01*
X1045746Y606524D01*
X1047008Y608169D01*
X1047801Y610084D01*
X1048072Y612140D01*
X1047801Y614196D01*
X1047008Y616111D01*
X1045746Y617756D01*
X1044101Y619018D01*
X1042186Y619811D01*
X1040130Y620082D01*
D02*
G37*
G36*
X1014730D02*
X1012674Y619811D01*
X1010759Y619018D01*
X1009114Y617756D01*
X1007852Y616111D01*
X1007059Y614196D01*
X1006788Y612140D01*
X1007059Y610084D01*
X1007852Y608169D01*
X1009114Y606524D01*
X1010759Y605262D01*
X1012674Y604469D01*
X1014730Y604198D01*
X1016786Y604469D01*
X1018701Y605262D01*
X1020346Y606524D01*
X1021608Y608169D01*
X1022401Y610084D01*
X1022672Y612140D01*
X1022401Y614196D01*
X1021608Y616111D01*
X1020346Y617756D01*
X1018701Y619018D01*
X1016786Y619811D01*
X1014730Y620082D01*
D02*
G37*
G36*
X1690370Y610403D02*
X1688605Y610051D01*
X1687108Y609052D01*
X1686109Y607555D01*
X1685757Y605790D01*
X1686109Y604025D01*
X1687108Y602528D01*
X1688605Y601529D01*
X1690370Y601177D01*
X1692135Y601529D01*
X1693632Y602528D01*
X1694632Y604025D01*
X1694983Y605790D01*
X1694632Y607555D01*
X1693632Y609052D01*
X1692135Y610051D01*
X1690370Y610403D01*
D02*
G37*
G36*
X1675130D02*
X1673365Y610051D01*
X1671868Y609052D01*
X1670869Y607555D01*
X1670517Y605790D01*
X1670869Y604025D01*
X1671868Y602528D01*
X1673365Y601529D01*
X1675130Y601177D01*
X1676895Y601529D01*
X1678392Y602528D01*
X1679391Y604025D01*
X1679743Y605790D01*
X1679391Y607555D01*
X1678392Y609052D01*
X1676895Y610051D01*
X1675130Y610403D01*
D02*
G37*
G36*
X1658620D02*
X1656855Y610051D01*
X1655358Y609052D01*
X1654359Y607555D01*
X1654007Y605790D01*
X1654359Y604025D01*
X1655358Y602528D01*
X1656855Y601529D01*
X1658620Y601177D01*
X1660385Y601529D01*
X1661882Y602528D01*
X1662881Y604025D01*
X1663233Y605790D01*
X1662881Y607555D01*
X1661882Y609052D01*
X1660385Y610051D01*
X1658620Y610403D01*
D02*
G37*
G36*
X1814686Y602227D02*
X1812921Y601875D01*
X1811424Y600876D01*
X1811005Y600247D01*
X1809477D01*
X1809058Y600876D01*
X1807561Y601875D01*
X1805796Y602227D01*
X1804031Y601875D01*
X1802534Y600876D01*
X1802115Y600247D01*
X1800587D01*
X1800168Y600876D01*
X1798671Y601875D01*
X1796906Y602227D01*
X1795141Y601875D01*
X1793644Y600876D01*
X1792645Y599379D01*
X1792293Y597614D01*
X1792645Y595849D01*
X1793445Y594650D01*
X1793566Y593804D01*
X1793445Y592958D01*
X1792645Y591759D01*
X1792293Y589994D01*
X1792645Y588229D01*
X1793644Y586732D01*
X1795141Y585732D01*
X1796906Y585381D01*
X1798671Y585732D01*
X1800168Y586732D01*
X1800587Y587360D01*
X1802115D01*
X1802534Y586732D01*
X1804031Y585732D01*
X1805796Y585381D01*
X1807561Y585732D01*
X1809058Y586732D01*
X1809477Y587360D01*
X1811005D01*
X1811424Y586732D01*
X1812921Y585732D01*
X1814686Y585381D01*
X1816451Y585732D01*
X1817948Y586732D01*
X1818947Y588229D01*
X1819299Y589994D01*
X1818947Y591759D01*
X1818147Y592958D01*
X1818026Y593804D01*
X1818147Y594650D01*
X1818947Y595849D01*
X1819299Y597614D01*
X1818947Y599379D01*
X1817948Y600876D01*
X1816451Y601875D01*
X1814686Y602227D01*
D02*
G37*
G36*
X835660Y607863D02*
X833895Y607511D01*
X832398Y606512D01*
X831398Y605015D01*
X831047Y603250D01*
X831398Y601485D01*
X832398Y599988D01*
X833895Y598988D01*
X835660Y598637D01*
X837425Y598988D01*
X838922Y599988D01*
X839921Y601485D01*
X840273Y603250D01*
X839921Y605015D01*
X838922Y606512D01*
X837425Y607511D01*
X835660Y607863D01*
D02*
G37*
G36*
X1636671Y606952D02*
X1634906Y606600D01*
X1633409Y605601D01*
X1632410Y604104D01*
X1632058Y602339D01*
X1632410Y600574D01*
X1633409Y599077D01*
X1634906Y598078D01*
X1636671Y597726D01*
X1638436Y598078D01*
X1639933Y599077D01*
X1640932Y600574D01*
X1641284Y602339D01*
X1640932Y604104D01*
X1639933Y605601D01*
X1638436Y606600D01*
X1636671Y606952D01*
D02*
G37*
G36*
X1308100Y597703D02*
X1306335Y597351D01*
X1304838Y596352D01*
X1304571Y595952D01*
X1302857Y595672D01*
X1302245Y596082D01*
X1300480Y596433D01*
X1298715Y596082D01*
X1297218Y595082D01*
X1296219Y593585D01*
X1295867Y591820D01*
X1296219Y590055D01*
X1297218Y588558D01*
X1298715Y587559D01*
X1300480Y587207D01*
X1302245Y587559D01*
X1303742Y588558D01*
X1304009Y588958D01*
X1305723Y589238D01*
X1306335Y588829D01*
X1308100Y588477D01*
X1309865Y588829D01*
X1311362Y589828D01*
X1312361Y591325D01*
X1312713Y593090D01*
X1312361Y594855D01*
X1311362Y596352D01*
X1309865Y597351D01*
X1308100Y597703D01*
D02*
G37*
G36*
X1471930Y602783D02*
X1470165Y602431D01*
X1468668Y601432D01*
X1467668Y599935D01*
X1467317Y598170D01*
X1467668Y596405D01*
X1468668Y594908D01*
X1470165Y593909D01*
X1471930Y593557D01*
X1473695Y593909D01*
X1475192Y594908D01*
X1476192Y596405D01*
X1476543Y598170D01*
X1476192Y599935D01*
X1475192Y601432D01*
X1473695Y602431D01*
X1471930Y602783D01*
D02*
G37*
G36*
X1404620Y595163D02*
X1402855Y594812D01*
X1401358Y593812D01*
X1400939Y593184D01*
X1399411D01*
X1398992Y593812D01*
X1397495Y594812D01*
X1395730Y595163D01*
X1393965Y594812D01*
X1392468Y593812D01*
X1391469Y592315D01*
X1391117Y590550D01*
X1391469Y588785D01*
X1392468Y587288D01*
X1393965Y586288D01*
X1395730Y585937D01*
X1397495Y586288D01*
X1398992Y587288D01*
X1399411Y587916D01*
X1400939D01*
X1401358Y587288D01*
X1402855Y586288D01*
X1404620Y585937D01*
X1406385Y586288D01*
X1407882Y587288D01*
X1408882Y588785D01*
X1409233Y590550D01*
X1408882Y592315D01*
X1407882Y593812D01*
X1406385Y594812D01*
X1404620Y595163D01*
D02*
G37*
G36*
X1511300D02*
X1509535Y594812D01*
X1508038Y593812D01*
X1507039Y592315D01*
X1506687Y590550D01*
X1507039Y588785D01*
X1508038Y587288D01*
X1509535Y586288D01*
X1511300Y585937D01*
X1513065Y586288D01*
X1514562Y587288D01*
X1515562Y588785D01*
X1515913Y590550D01*
X1515562Y592315D01*
X1514562Y593812D01*
X1513065Y594812D01*
X1511300Y595163D01*
D02*
G37*
G36*
X1490980Y592623D02*
X1489215Y592271D01*
X1487718Y591272D01*
X1486718Y589775D01*
X1486367Y588010D01*
X1486718Y586245D01*
X1487718Y584748D01*
X1489215Y583749D01*
X1490980Y583397D01*
X1492745Y583749D01*
X1494242Y584748D01*
X1495242Y586245D01*
X1495593Y588010D01*
X1495242Y589775D01*
X1494242Y591272D01*
X1492745Y592271D01*
X1490980Y592623D01*
D02*
G37*
G36*
X1719897Y599925D02*
X1718132Y599574D01*
X1716636Y598574D01*
X1715636Y597078D01*
X1715285Y595312D01*
X1715636Y593547D01*
X1716636Y592051D01*
X1716922Y591860D01*
X1715954Y590410D01*
X1715602Y588645D01*
X1715954Y586880D01*
X1716581Y585940D01*
X1716321Y584395D01*
X1716318Y584394D01*
X1715318Y582897D01*
X1714967Y581132D01*
X1715318Y579367D01*
X1716318Y577870D01*
X1717815Y576870D01*
X1719580Y576519D01*
X1721345Y576870D01*
X1722842Y577870D01*
X1723842Y579367D01*
X1724193Y581132D01*
X1723842Y582897D01*
X1723214Y583837D01*
X1723474Y585382D01*
X1723477Y585383D01*
X1724476Y586880D01*
X1724828Y588645D01*
X1724476Y590410D01*
X1723477Y591907D01*
X1723190Y592098D01*
X1724159Y593547D01*
X1724510Y595312D01*
X1724159Y597078D01*
X1723159Y598574D01*
X1721663Y599574D01*
X1719897Y599925D01*
D02*
G37*
G36*
X1143000Y585003D02*
X1141235Y584651D01*
X1139738Y583652D01*
X1138738Y582155D01*
X1138387Y580390D01*
X1138738Y578625D01*
X1139738Y577128D01*
X1141235Y576129D01*
X1143000Y575777D01*
X1144765Y576129D01*
X1146262Y577128D01*
X1147262Y578625D01*
X1147613Y580390D01*
X1147262Y582155D01*
X1146262Y583652D01*
X1144765Y584651D01*
X1143000Y585003D01*
D02*
G37*
G36*
X862330D02*
X860565Y584651D01*
X859068Y583652D01*
X858068Y582155D01*
X857717Y580390D01*
X858068Y578625D01*
X859068Y577128D01*
X860565Y576129D01*
X862330Y575777D01*
X864095Y576129D01*
X865592Y577128D01*
X866591Y578625D01*
X866943Y580390D01*
X866591Y582155D01*
X865592Y583652D01*
X864095Y584651D01*
X862330Y585003D01*
D02*
G37*
G36*
X720090Y574843D02*
X718325Y574492D01*
X716828Y573492D01*
X715828Y571995D01*
X715657Y571135D01*
X714363D01*
X714192Y571995D01*
X713192Y573492D01*
X711695Y574492D01*
X709930Y574843D01*
X708165Y574492D01*
X706668Y573492D01*
X705668Y571995D01*
X705317Y570230D01*
X705668Y568465D01*
X706668Y566968D01*
X708165Y565969D01*
X709930Y565617D01*
X711695Y565969D01*
X713192Y566968D01*
X714192Y568465D01*
X714363Y569325D01*
X715657D01*
X715828Y568465D01*
X716828Y566968D01*
X718325Y565969D01*
X719618Y565711D01*
X720218Y564596D01*
X720244Y564390D01*
X719639Y563485D01*
X719287Y561720D01*
X719639Y559955D01*
X720638Y558458D01*
X722135Y557458D01*
X723900Y557107D01*
X725665Y557458D01*
X727162Y558458D01*
X728161Y559955D01*
X728513Y561720D01*
X728161Y563485D01*
X727162Y564982D01*
X725665Y565981D01*
X724372Y566239D01*
X723772Y567354D01*
X723746Y567559D01*
X724352Y568465D01*
X724703Y570230D01*
X724352Y571995D01*
X723352Y573492D01*
X721855Y574492D01*
X720090Y574843D01*
D02*
G37*
G36*
X827745Y579923D02*
X825980Y579571D01*
X824483Y578572D01*
X823484Y577075D01*
X823132Y575310D01*
X823484Y573545D01*
X824483Y572048D01*
X825980Y571049D01*
X827745Y570697D01*
X829510Y571049D01*
X831007Y572048D01*
X832007Y573545D01*
X832358Y575310D01*
X832007Y577075D01*
X831007Y578572D01*
X829510Y579571D01*
X827745Y579923D01*
D02*
G37*
G36*
X1728470Y568493D02*
X1726705Y568142D01*
X1725930Y567624D01*
X1725155Y568142D01*
X1723390Y568493D01*
X1721625Y568142D01*
X1720134Y567145D01*
X1719501Y567567D01*
X1717736Y567919D01*
X1715971Y567567D01*
X1714474Y566568D01*
X1713474Y565071D01*
X1713123Y563306D01*
X1713474Y561541D01*
X1714474Y560044D01*
X1715971Y559044D01*
X1717736Y558693D01*
X1718095Y558765D01*
X1718418Y558534D01*
X1719056Y557661D01*
X1718777Y556260D01*
X1719129Y554495D01*
X1720128Y552998D01*
X1721625Y551998D01*
X1723390Y551647D01*
X1725155Y551998D01*
X1726565Y552940D01*
X1727975Y551998D01*
X1729740Y551647D01*
X1731505Y551998D01*
X1732704Y552799D01*
X1733550Y552920D01*
X1734396Y552799D01*
X1735595Y551998D01*
X1737360Y551647D01*
X1739125Y551998D01*
X1740622Y552998D01*
X1741622Y554495D01*
X1741973Y556260D01*
X1741622Y558025D01*
X1740622Y559522D01*
X1739125Y560522D01*
X1737360Y560873D01*
X1735595Y560522D01*
X1734396Y559720D01*
X1733550Y559600D01*
X1732704Y559720D01*
X1732602Y559789D01*
X1732323Y561503D01*
X1732731Y562115D01*
X1733083Y563880D01*
X1732731Y565645D01*
X1731732Y567142D01*
X1730235Y568142D01*
X1728470Y568493D01*
D02*
G37*
G36*
X1136650Y573573D02*
X1134885Y573222D01*
X1133388Y572222D01*
X1132389Y570725D01*
X1132037Y568960D01*
X1132389Y567195D01*
X1133388Y565698D01*
X1134885Y564698D01*
X1136650Y564347D01*
X1138415Y564698D01*
X1139912Y565698D01*
X1140911Y567195D01*
X1141263Y568960D01*
X1140911Y570725D01*
X1139912Y572222D01*
X1138415Y573222D01*
X1136650Y573573D01*
D02*
G37*
G36*
X1587500Y572303D02*
X1585735Y571951D01*
X1584238Y570952D01*
X1583239Y569455D01*
X1582887Y567690D01*
X1583239Y565925D01*
X1584238Y564428D01*
X1585735Y563428D01*
X1587500Y563077D01*
X1589265Y563428D01*
X1590762Y564428D01*
X1591761Y565925D01*
X1592113Y567690D01*
X1591761Y569455D01*
X1590762Y570952D01*
X1589265Y571951D01*
X1587500Y572303D01*
D02*
G37*
G36*
X1127760Y565953D02*
X1125995Y565602D01*
X1124498Y564602D01*
X1123499Y563105D01*
X1123147Y561340D01*
X1123499Y559575D01*
X1124498Y558078D01*
X1125995Y557079D01*
X1127760Y556727D01*
X1129525Y557079D01*
X1131022Y558078D01*
X1132021Y559575D01*
X1132373Y561340D01*
X1132021Y563105D01*
X1131022Y564602D01*
X1129525Y565602D01*
X1127760Y565953D01*
D02*
G37*
G36*
X924560Y562143D02*
X922795Y561791D01*
X921298Y560792D01*
X920298Y559295D01*
X919947Y557530D01*
X920298Y555765D01*
X921298Y554268D01*
X922795Y553269D01*
X924560Y552917D01*
X926325Y553269D01*
X927822Y554268D01*
X928821Y555765D01*
X929173Y557530D01*
X928821Y559295D01*
X927822Y560792D01*
X926325Y561791D01*
X924560Y562143D01*
D02*
G37*
G36*
X684530Y563413D02*
X682765Y563061D01*
X681268Y562062D01*
X680268Y560565D01*
X679917Y558800D01*
X680268Y557035D01*
X681268Y555538D01*
X682765Y554538D01*
X684530Y554187D01*
X686295Y554538D01*
X686907Y554948D01*
X688621Y554668D01*
X688888Y554268D01*
X690385Y553269D01*
X692150Y552917D01*
X693915Y553269D01*
X695412Y554268D01*
X696412Y555765D01*
X696763Y557530D01*
X696412Y559295D01*
X695412Y560792D01*
X693915Y561791D01*
X692150Y562143D01*
X690385Y561791D01*
X689773Y561382D01*
X688059Y561662D01*
X687792Y562062D01*
X686295Y563061D01*
X684530Y563413D01*
D02*
G37*
G36*
X1140460Y559603D02*
X1138695Y559252D01*
X1137198Y558252D01*
X1136199Y556755D01*
X1135847Y554990D01*
X1136199Y553225D01*
X1137198Y551728D01*
X1138695Y550728D01*
X1140460Y550377D01*
X1142225Y550728D01*
X1143722Y551728D01*
X1144722Y553225D01*
X1145073Y554990D01*
X1144722Y556755D01*
X1143722Y558252D01*
X1142225Y559252D01*
X1140460Y559603D01*
D02*
G37*
G36*
X1002030Y555793D02*
X1000265Y555442D01*
X998768Y554442D01*
X997768Y552945D01*
X997417Y551180D01*
X997768Y549415D01*
X998768Y547918D01*
X1000265Y546918D01*
X1002030Y546567D01*
X1003795Y546918D01*
X1005292Y547918D01*
X1006292Y549415D01*
X1006643Y551180D01*
X1006292Y552945D01*
X1005292Y554442D01*
X1003795Y555442D01*
X1002030Y555793D01*
D02*
G37*
G36*
X948690D02*
X946925Y555442D01*
X945428Y554442D01*
X944428Y552945D01*
X944077Y551180D01*
X944428Y549415D01*
X945428Y547918D01*
X946925Y546918D01*
X948690Y546567D01*
X950455Y546918D01*
X951952Y547918D01*
X952952Y549415D01*
X953303Y551180D01*
X952952Y552945D01*
X951952Y554442D01*
X950455Y555442D01*
X948690Y555793D01*
D02*
G37*
G36*
X1386840Y553253D02*
X1385075Y552901D01*
X1383578Y551902D01*
X1382578Y550405D01*
X1382227Y548640D01*
X1382578Y546875D01*
X1383578Y545378D01*
X1385075Y544379D01*
X1386840Y544027D01*
X1388605Y544379D01*
X1390102Y545378D01*
X1391102Y546875D01*
X1391453Y548640D01*
X1391102Y550405D01*
X1390102Y551902D01*
X1388605Y552901D01*
X1386840Y553253D01*
D02*
G37*
G36*
X1405890Y551983D02*
X1404125Y551632D01*
X1402628Y550632D01*
X1401629Y549135D01*
X1401277Y547370D01*
X1401629Y545605D01*
X1402628Y544108D01*
X1404125Y543108D01*
X1405890Y542757D01*
X1407655Y543108D01*
X1409152Y544108D01*
X1410152Y545605D01*
X1410503Y547370D01*
X1410152Y549135D01*
X1409152Y550632D01*
X1407655Y551632D01*
X1405890Y551983D01*
D02*
G37*
G36*
X1587500Y560873D02*
X1585735Y560522D01*
X1584238Y559522D01*
X1583239Y558025D01*
X1582887Y556260D01*
X1583239Y554495D01*
X1584238Y552998D01*
X1585735Y551998D01*
X1586595Y551827D01*
Y550533D01*
X1585735Y550362D01*
X1584238Y549362D01*
X1583239Y547865D01*
X1582887Y546100D01*
X1583239Y544335D01*
X1584238Y542838D01*
X1585735Y541838D01*
X1587500Y541487D01*
X1589265Y541838D01*
X1590762Y542838D01*
X1591761Y544335D01*
X1592113Y546100D01*
X1591761Y547865D01*
X1590762Y549362D01*
X1589265Y550362D01*
X1588405Y550533D01*
Y551827D01*
X1589265Y551998D01*
X1590762Y552998D01*
X1591761Y554495D01*
X1592113Y556260D01*
X1591761Y558025D01*
X1590762Y559522D01*
X1589265Y560522D01*
X1587500Y560873D01*
D02*
G37*
G36*
X1134110Y550713D02*
X1132345Y550362D01*
X1130848Y549362D01*
X1129848Y547865D01*
X1129497Y546100D01*
X1129848Y544335D01*
X1130848Y542838D01*
X1132345Y541838D01*
X1134110Y541487D01*
X1135875Y541838D01*
X1137372Y542838D01*
X1138372Y544335D01*
X1138723Y546100D01*
X1138372Y547865D01*
X1137372Y549362D01*
X1135875Y550362D01*
X1134110Y550713D01*
D02*
G37*
G36*
X1021080D02*
X1019315Y550362D01*
X1017818Y549362D01*
X1016818Y547865D01*
X1016467Y546100D01*
X1016818Y544335D01*
X1017818Y542838D01*
X1019315Y541838D01*
X1021080Y541487D01*
X1022845Y541838D01*
X1024342Y542838D01*
X1025341Y544335D01*
X1025693Y546100D01*
X1025341Y547865D01*
X1024342Y549362D01*
X1022845Y550362D01*
X1021080Y550713D01*
D02*
G37*
G36*
X711835Y557698D02*
X710070Y557346D01*
X708573Y556347D01*
X707573Y554850D01*
X707222Y553085D01*
X707573Y551320D01*
X708573Y549823D01*
X710070Y548824D01*
X711835Y548472D01*
X712228Y548551D01*
X712507Y548370D01*
X713206Y547450D01*
X712937Y546100D01*
X713288Y544335D01*
X714288Y542838D01*
X715785Y541838D01*
X717550Y541487D01*
X719315Y541838D01*
X720812Y542838D01*
X721812Y544335D01*
X722163Y546100D01*
X721812Y547865D01*
X720812Y549362D01*
X719315Y550362D01*
X717550Y550713D01*
X717157Y550634D01*
X716878Y550815D01*
X716179Y551735D01*
X716448Y553085D01*
X716096Y554850D01*
X715097Y556347D01*
X713600Y557346D01*
X711835Y557698D01*
D02*
G37*
G36*
X835660Y565953D02*
X833895Y565602D01*
X832398Y564602D01*
X831398Y563105D01*
X831047Y561340D01*
X831398Y559575D01*
X832398Y558078D01*
X833196Y557546D01*
Y556982D01*
X832196Y555485D01*
X831845Y553720D01*
X832196Y551955D01*
X833196Y550458D01*
X833512Y550247D01*
X833546Y550144D01*
X833425Y548778D01*
X832398Y548092D01*
X831398Y546595D01*
X831047Y544830D01*
X831398Y543065D01*
X832398Y541568D01*
X833895Y540569D01*
X835660Y540217D01*
X837425Y540569D01*
X838922Y541568D01*
X839921Y543065D01*
X840273Y544830D01*
X839921Y546595D01*
X838922Y548092D01*
X838605Y548303D01*
X838571Y548406D01*
X838692Y549772D01*
X839719Y550458D01*
X840719Y551955D01*
X841070Y553720D01*
X840719Y555485D01*
X839719Y556982D01*
X838922Y557514D01*
Y558078D01*
X839921Y559575D01*
X840273Y561340D01*
X839921Y563105D01*
X838922Y564602D01*
X837425Y565602D01*
X835660Y565953D01*
D02*
G37*
G36*
X803910Y549443D02*
X802145Y549091D01*
X800648Y548092D01*
X799649Y546595D01*
X799297Y544830D01*
X799649Y543065D01*
X800648Y541568D01*
X802145Y540569D01*
X803910Y540217D01*
X805675Y540569D01*
X807172Y541568D01*
X808171Y543065D01*
X808523Y544830D01*
X808171Y546595D01*
X807172Y548092D01*
X805675Y549091D01*
X803910Y549443D01*
D02*
G37*
G36*
X1021080Y538013D02*
X1019315Y537662D01*
X1017818Y536662D01*
X1016818Y535165D01*
X1016467Y533400D01*
X1016818Y531635D01*
X1017818Y530138D01*
X1019315Y529138D01*
X1021080Y528787D01*
X1022845Y529138D01*
X1024342Y530138D01*
X1025341Y531635D01*
X1025693Y533400D01*
X1025341Y535165D01*
X1024342Y536662D01*
X1022845Y537662D01*
X1021080Y538013D01*
D02*
G37*
G36*
X722630D02*
X720865Y537662D01*
X719368Y536662D01*
X718369Y535165D01*
X718017Y533400D01*
X718369Y531635D01*
X719368Y530138D01*
X720865Y529138D01*
X722630Y528787D01*
X724395Y529138D01*
X725892Y530138D01*
X726891Y531635D01*
X727243Y533400D01*
X726891Y535165D01*
X725892Y536662D01*
X724395Y537662D01*
X722630Y538013D01*
D02*
G37*
G36*
X916940Y536743D02*
X915175Y536391D01*
X913678Y535392D01*
X912679Y533895D01*
X912327Y532130D01*
X912679Y530365D01*
X913678Y528868D01*
X915175Y527868D01*
X916940Y527517D01*
X918705Y527868D01*
X920202Y528868D01*
X921201Y530365D01*
X921553Y532130D01*
X921201Y533895D01*
X920202Y535392D01*
X918705Y536391D01*
X916940Y536743D01*
D02*
G37*
G36*
X966470Y535473D02*
X964705Y535121D01*
X963208Y534122D01*
X962208Y532625D01*
X961857Y530860D01*
X962208Y529095D01*
X963208Y527598D01*
X964705Y526599D01*
X966470Y526247D01*
X968235Y526599D01*
X969732Y527598D01*
X970732Y529095D01*
X971083Y530860D01*
X970732Y532625D01*
X969732Y534122D01*
X968235Y535121D01*
X966470Y535473D01*
D02*
G37*
G36*
X989330Y534633D02*
X987565Y534282D01*
X986068Y533282D01*
X985069Y531785D01*
X984717Y530020D01*
X985069Y528255D01*
X986068Y526758D01*
X987565Y525759D01*
X989330Y525407D01*
X991095Y525759D01*
X992592Y526758D01*
X993592Y528255D01*
X993943Y530020D01*
X993592Y531785D01*
X992592Y533282D01*
X991095Y534282D01*
X989330Y534633D01*
D02*
G37*
G36*
X1438910Y532933D02*
X1437145Y532581D01*
X1435648Y531582D01*
X1434648Y530085D01*
X1434297Y528320D01*
X1434648Y526555D01*
X1435648Y525058D01*
X1437145Y524058D01*
X1438910Y523707D01*
X1440675Y524058D01*
X1442172Y525058D01*
X1443172Y526555D01*
X1443523Y528320D01*
X1443172Y530085D01*
X1442172Y531582D01*
X1440675Y532581D01*
X1438910Y532933D01*
D02*
G37*
G36*
X1327150D02*
X1325385Y532581D01*
X1323888Y531582D01*
X1322888Y530085D01*
X1322537Y528320D01*
X1322888Y526555D01*
X1323888Y525058D01*
X1325385Y524058D01*
X1327150Y523707D01*
X1328915Y524058D01*
X1330412Y525058D01*
X1331411Y526555D01*
X1331763Y528320D01*
X1331411Y530085D01*
X1330412Y531582D01*
X1328915Y532581D01*
X1327150Y532933D01*
D02*
G37*
G36*
X1722199Y543093D02*
X1720434Y542742D01*
X1718938Y541742D01*
X1717938Y540245D01*
X1717587Y538480D01*
X1717938Y536715D01*
X1718938Y535218D01*
X1719681Y534722D01*
X1719129Y533895D01*
X1718777Y532130D01*
X1719129Y530365D01*
X1720070Y528955D01*
X1719129Y527545D01*
X1718777Y525780D01*
X1719129Y524015D01*
X1720128Y522518D01*
X1721625Y521519D01*
X1723390Y521167D01*
X1725155Y521519D01*
X1726652Y522518D01*
X1727652Y524015D01*
X1728003Y525780D01*
X1727652Y527545D01*
X1726709Y528955D01*
X1727652Y530365D01*
X1728003Y532130D01*
X1727652Y533895D01*
X1726652Y535392D01*
X1725909Y535888D01*
X1726461Y536715D01*
X1726812Y538480D01*
X1726461Y540245D01*
X1725461Y541742D01*
X1723965Y542742D01*
X1722199Y543093D01*
D02*
G37*
G36*
X1390650Y530393D02*
X1388885Y530042D01*
X1387388Y529042D01*
X1386389Y527545D01*
X1386037Y525780D01*
X1386389Y524015D01*
X1387388Y522518D01*
X1388885Y521519D01*
X1390650Y521167D01*
X1392415Y521519D01*
X1393912Y522518D01*
X1394911Y524015D01*
X1395263Y525780D01*
X1394911Y527545D01*
X1393912Y529042D01*
X1392415Y530042D01*
X1390650Y530393D01*
D02*
G37*
G36*
X683260D02*
X681495Y530042D01*
X679998Y529042D01*
X678998Y527545D01*
X678647Y525780D01*
X678998Y524015D01*
X679998Y522518D01*
X681495Y521519D01*
X683260Y521167D01*
X685025Y521519D01*
X686522Y522518D01*
X687522Y524015D01*
X687873Y525780D01*
X687522Y527545D01*
X686522Y529042D01*
X685025Y530042D01*
X683260Y530393D01*
D02*
G37*
G36*
X1587500Y539283D02*
X1585735Y538932D01*
X1584238Y537932D01*
X1583239Y536435D01*
X1582887Y534670D01*
X1583239Y532905D01*
X1584238Y531408D01*
X1585735Y530409D01*
X1586595Y530237D01*
Y528943D01*
X1585735Y528772D01*
X1584238Y527772D01*
X1583239Y526275D01*
X1582887Y524510D01*
X1583239Y522745D01*
X1584238Y521248D01*
X1585735Y520248D01*
X1587500Y519897D01*
X1589265Y520248D01*
X1590762Y521248D01*
X1591761Y522745D01*
X1592113Y524510D01*
X1591761Y526275D01*
X1590762Y527772D01*
X1589265Y528772D01*
X1588405Y528943D01*
Y530237D01*
X1589265Y530409D01*
X1590762Y531408D01*
X1591761Y532905D01*
X1592113Y534670D01*
X1591761Y536435D01*
X1590762Y537932D01*
X1589265Y538932D01*
X1587500Y539283D01*
D02*
G37*
G36*
X1141730Y527853D02*
X1139965Y527501D01*
X1138468Y526502D01*
X1137468Y525005D01*
X1137117Y523240D01*
X1137468Y521475D01*
X1138468Y519978D01*
X1139965Y518979D01*
X1141730Y518627D01*
X1143495Y518979D01*
X1144992Y519978D01*
X1145992Y521475D01*
X1146343Y523240D01*
X1145992Y525005D01*
X1144992Y526502D01*
X1143495Y527501D01*
X1141730Y527853D01*
D02*
G37*
G36*
X1709420Y521503D02*
X1707655Y521152D01*
X1706158Y520152D01*
X1705159Y518655D01*
X1704807Y516890D01*
X1705159Y515125D01*
X1706158Y513628D01*
X1707655Y512629D01*
X1709420Y512277D01*
X1711185Y512629D01*
X1712682Y513628D01*
X1713681Y515125D01*
X1714033Y516890D01*
X1713681Y518655D01*
X1712682Y520152D01*
X1711185Y521152D01*
X1709420Y521503D01*
D02*
G37*
G36*
X1626870Y517693D02*
X1625105Y517341D01*
X1623608Y516342D01*
X1622608Y514845D01*
X1622257Y513080D01*
X1622608Y511315D01*
X1623608Y509818D01*
X1625105Y508819D01*
X1626870Y508467D01*
X1628635Y508819D01*
X1630132Y509818D01*
X1631131Y511315D01*
X1631483Y513080D01*
X1631131Y514845D01*
X1630132Y516342D01*
X1628635Y517341D01*
X1626870Y517693D01*
D02*
G37*
G36*
X1017270Y515153D02*
X1015505Y514801D01*
X1014008Y513802D01*
X1013008Y512305D01*
X1012657Y510540D01*
X1013008Y508775D01*
X1014008Y507278D01*
X1015505Y506278D01*
X1017270Y505927D01*
X1019035Y506278D01*
X1020532Y507278D01*
X1021532Y508775D01*
X1021883Y510540D01*
X1021532Y512305D01*
X1020532Y513802D01*
X1019035Y514801D01*
X1017270Y515153D01*
D02*
G37*
G36*
X683260D02*
X681495Y514801D01*
X679998Y513802D01*
X678998Y512305D01*
X678647Y510540D01*
X678998Y508775D01*
X679998Y507278D01*
X681495Y506278D01*
X683260Y505927D01*
X685025Y506278D01*
X686522Y507278D01*
X687522Y508775D01*
X687873Y510540D01*
X687522Y512305D01*
X686522Y513802D01*
X685025Y514801D01*
X683260Y515153D01*
D02*
G37*
G36*
X1696720Y518963D02*
X1694955Y518611D01*
X1693458Y517612D01*
X1692458Y516115D01*
X1692107Y514350D01*
X1692458Y512585D01*
X1692839Y512015D01*
X1692415Y510992D01*
X1690918Y509992D01*
X1689919Y508495D01*
X1689567Y506730D01*
X1689919Y504965D01*
X1690918Y503468D01*
X1692415Y502468D01*
X1694180Y502117D01*
X1695945Y502468D01*
X1697442Y503468D01*
X1698441Y504965D01*
X1698793Y506730D01*
X1698441Y508495D01*
X1698061Y509065D01*
X1698485Y510089D01*
X1699982Y511088D01*
X1700981Y512585D01*
X1701333Y514350D01*
X1700981Y516115D01*
X1699982Y517612D01*
X1698485Y518611D01*
X1696720Y518963D01*
D02*
G37*
G36*
X1405890Y501183D02*
X1404125Y500831D01*
X1402926Y500031D01*
X1402080Y499910D01*
X1401234Y500031D01*
X1400035Y500831D01*
X1398270Y501183D01*
X1396505Y500831D01*
X1395008Y499832D01*
X1394008Y498335D01*
X1393657Y496570D01*
X1394008Y494805D01*
X1395008Y493308D01*
X1396505Y492309D01*
X1398270Y491957D01*
X1400035Y492309D01*
X1401234Y493110D01*
X1402080Y493230D01*
X1402926Y493110D01*
X1404125Y492309D01*
X1405890Y491957D01*
X1407655Y492309D01*
X1409152Y493308D01*
X1410152Y494805D01*
X1410503Y496570D01*
X1410152Y498335D01*
X1409152Y499832D01*
X1407655Y500831D01*
X1405890Y501183D01*
D02*
G37*
G36*
X1300480Y507533D02*
X1298715Y507182D01*
X1297218Y506182D01*
X1296219Y504685D01*
X1295867Y502920D01*
X1296219Y501155D01*
X1297218Y499658D01*
X1298715Y498658D01*
X1300480Y498307D01*
X1302245Y498658D01*
X1303742Y499658D01*
X1304742Y501155D01*
X1305093Y502920D01*
X1304742Y504685D01*
X1303742Y506182D01*
X1302245Y507182D01*
X1300480Y507533D01*
D02*
G37*
G36*
X690880Y506263D02*
X689115Y505911D01*
X687618Y504912D01*
X686618Y503415D01*
X686267Y501650D01*
X686618Y499885D01*
X687618Y498388D01*
X689115Y497388D01*
X690880Y497037D01*
X692645Y497388D01*
X694142Y498388D01*
X695142Y499885D01*
X695493Y501650D01*
X695142Y503415D01*
X694142Y504912D01*
X692645Y505911D01*
X690880Y506263D01*
D02*
G37*
G36*
X708660Y503723D02*
X706895Y503372D01*
X705398Y502372D01*
X704398Y500875D01*
X704047Y499110D01*
X704398Y497345D01*
X705398Y495848D01*
X706895Y494849D01*
X708660Y494497D01*
X710425Y494849D01*
X711922Y495848D01*
X712922Y497345D01*
X713273Y499110D01*
X712922Y500875D01*
X711922Y502372D01*
X710425Y503372D01*
X708660Y503723D01*
D02*
G37*
G36*
X1374140Y501183D02*
X1372375Y500831D01*
X1370878Y499832D01*
X1369879Y498335D01*
X1369527Y496570D01*
X1369879Y494805D01*
X1370878Y493308D01*
X1372375Y492309D01*
X1374140Y491957D01*
X1375905Y492309D01*
X1377402Y493308D01*
X1378401Y494805D01*
X1378753Y496570D01*
X1378401Y498335D01*
X1377402Y499832D01*
X1375905Y500831D01*
X1374140Y501183D01*
D02*
G37*
G36*
X1310640D02*
X1308875Y500831D01*
X1307378Y499832D01*
X1306378Y498335D01*
X1306027Y496570D01*
X1306378Y494805D01*
X1307378Y493308D01*
X1308875Y492309D01*
X1310640Y491957D01*
X1312405Y492309D01*
X1313902Y493308D01*
X1314901Y494805D01*
X1315253Y496570D01*
X1314901Y498335D01*
X1313902Y499832D01*
X1312405Y500831D01*
X1310640Y501183D01*
D02*
G37*
G36*
X919480D02*
X917715Y500831D01*
X916218Y499832D01*
X915219Y498335D01*
X914867Y496570D01*
X915219Y494805D01*
X916218Y493308D01*
X917715Y492309D01*
X919480Y491957D01*
X921245Y492309D01*
X922742Y493308D01*
X923742Y494805D01*
X924093Y496570D01*
X923742Y498335D01*
X922742Y499832D01*
X921245Y500831D01*
X919480Y501183D01*
D02*
G37*
G36*
X1231900Y499913D02*
X1230135Y499562D01*
X1228638Y498562D01*
X1227638Y497065D01*
X1227287Y495300D01*
X1227638Y493535D01*
X1228638Y492038D01*
X1230135Y491039D01*
X1231900Y490687D01*
X1233665Y491039D01*
X1235162Y492038D01*
X1236161Y493535D01*
X1236513Y495300D01*
X1236161Y497065D01*
X1235162Y498562D01*
X1233665Y499562D01*
X1231900Y499913D01*
D02*
G37*
G36*
X1323080Y498883D02*
X1321315Y498531D01*
X1319818Y497532D01*
X1318818Y496035D01*
X1318467Y494270D01*
X1318818Y492505D01*
X1319818Y491008D01*
X1321315Y490009D01*
X1323080Y489657D01*
X1324845Y490009D01*
X1326342Y491008D01*
X1327341Y492505D01*
X1327693Y494270D01*
X1327341Y496035D01*
X1326342Y497532D01*
X1324845Y498531D01*
X1323080Y498883D01*
D02*
G37*
G36*
X1346200Y497373D02*
X1344435Y497021D01*
X1342938Y496022D01*
X1341938Y494525D01*
X1341587Y492760D01*
X1341938Y490995D01*
X1342938Y489498D01*
X1344435Y488498D01*
X1346200Y488147D01*
X1347965Y488498D01*
X1349462Y489498D01*
X1350461Y490995D01*
X1350813Y492760D01*
X1350461Y494525D01*
X1349462Y496022D01*
X1347965Y497021D01*
X1346200Y497373D01*
D02*
G37*
G36*
X1639570Y504993D02*
X1637805Y504641D01*
X1636308Y503642D01*
X1635309Y502145D01*
X1634957Y500380D01*
X1635309Y498615D01*
X1636308Y497118D01*
X1637805Y496119D01*
X1639570Y495767D01*
X1641335Y496119D01*
X1641391Y496156D01*
X1642564Y495670D01*
X1642688Y495045D01*
X1643688Y493549D01*
X1645185Y492549D01*
X1645645Y492457D01*
X1645660Y492421D01*
X1646050Y491082D01*
X1645752Y489585D01*
X1646104Y487820D01*
X1647103Y486323D01*
X1648600Y485323D01*
X1650365Y484972D01*
X1652130Y485323D01*
X1653627Y486323D01*
X1654626Y487820D01*
X1654978Y489585D01*
X1654709Y490935D01*
X1655408Y491855D01*
X1655686Y492036D01*
X1656080Y491957D01*
X1657845Y492309D01*
X1657972Y492393D01*
X1659115Y491630D01*
X1659087Y491490D01*
X1659438Y489725D01*
X1660438Y488228D01*
X1661935Y487229D01*
X1663700Y486877D01*
X1665465Y487229D01*
X1666962Y488228D01*
X1667961Y489725D01*
X1668313Y491490D01*
X1667961Y493255D01*
X1666962Y494752D01*
X1665465Y495751D01*
X1663700Y496103D01*
X1661935Y495751D01*
X1661808Y495667D01*
X1660665Y496430D01*
X1660693Y496570D01*
X1660341Y498335D01*
X1659342Y499832D01*
X1657845Y500831D01*
X1656080Y501183D01*
X1654315Y500831D01*
X1652818Y499832D01*
X1652309Y499070D01*
X1650831Y499144D01*
X1650211Y500072D01*
X1648715Y501072D01*
X1646950Y501423D01*
X1645185Y501072D01*
X1645129Y501035D01*
X1643956Y501521D01*
X1643831Y502145D01*
X1642832Y503642D01*
X1641335Y504641D01*
X1639570Y504993D01*
D02*
G37*
G36*
X871220Y492293D02*
X869455Y491941D01*
X867958Y490942D01*
X866958Y489445D01*
X866607Y487680D01*
X866708Y487173D01*
X865810Y486274D01*
X865247Y486387D01*
X863481Y486035D01*
X861985Y485036D01*
X860985Y483539D01*
X860675Y481981D01*
X860305Y481415D01*
X859531Y480811D01*
X858025Y480512D01*
X856528Y479512D01*
X855528Y478015D01*
X855177Y476250D01*
X855528Y474485D01*
X856528Y472988D01*
X858025Y471988D01*
X859790Y471637D01*
X861555Y471988D01*
X863052Y472988D01*
X864052Y474485D01*
X864361Y476043D01*
X864731Y476609D01*
X865506Y477213D01*
X867012Y477513D01*
X868508Y478512D01*
X869508Y480009D01*
X869859Y481774D01*
X869758Y482281D01*
X870656Y483180D01*
X871220Y483067D01*
X872985Y483419D01*
X874482Y484418D01*
X875481Y485915D01*
X875833Y487680D01*
X875481Y489445D01*
X874482Y490942D01*
X872985Y491941D01*
X871220Y492293D01*
D02*
G37*
G36*
X1694180Y494833D02*
X1692415Y494482D01*
X1690918Y493482D01*
X1689919Y491985D01*
X1689567Y490220D01*
X1689919Y488455D01*
X1690918Y486958D01*
X1692415Y485959D01*
X1694180Y485607D01*
X1695945Y485959D01*
X1697442Y486958D01*
X1698441Y488455D01*
X1698793Y490220D01*
X1698441Y491985D01*
X1697442Y493482D01*
X1695945Y494482D01*
X1694180Y494833D01*
D02*
G37*
G36*
X1678940D02*
X1677175Y494482D01*
X1675678Y493482D01*
X1674678Y491985D01*
X1674327Y490220D01*
X1674678Y488455D01*
X1675678Y486958D01*
X1677175Y485959D01*
X1678940Y485607D01*
X1680705Y485959D01*
X1682202Y486958D01*
X1683201Y488455D01*
X1683553Y490220D01*
X1683201Y491985D01*
X1682202Y493482D01*
X1680705Y494482D01*
X1678940Y494833D01*
D02*
G37*
G36*
X1383388Y494807D02*
X1381623Y494455D01*
X1380126Y493456D01*
X1379127Y491959D01*
X1378775Y490194D01*
X1379127Y488429D01*
X1380126Y486932D01*
X1381623Y485933D01*
X1383388Y485581D01*
X1385153Y485933D01*
X1386650Y486932D01*
X1387650Y488429D01*
X1388001Y490194D01*
X1387650Y491959D01*
X1386650Y493456D01*
X1385153Y494455D01*
X1383388Y494807D01*
D02*
G37*
G36*
X935936Y491887D02*
X934171Y491535D01*
X932674Y490536D01*
X931674Y489039D01*
X931323Y487274D01*
X931674Y485509D01*
X932674Y484012D01*
X934171Y483013D01*
X935936Y482661D01*
X937701Y483013D01*
X939198Y484012D01*
X940198Y485509D01*
X940549Y487274D01*
X940198Y489039D01*
X939198Y490536D01*
X937701Y491535D01*
X935936Y491887D01*
D02*
G37*
G36*
X1631064Y497469D02*
X1629299Y497118D01*
X1627803Y496118D01*
X1626803Y494621D01*
X1626452Y492856D01*
X1626803Y491091D01*
X1627803Y489594D01*
X1629299Y488595D01*
X1629914Y488472D01*
X1631064Y488242D01*
X1630836Y487093D01*
X1630713Y486477D01*
X1631064Y484712D01*
X1632064Y483216D01*
X1633561Y482216D01*
X1635326Y481865D01*
X1637091Y482216D01*
X1638588Y483216D01*
X1639588Y484712D01*
X1639939Y486477D01*
X1639588Y488242D01*
X1638588Y489739D01*
X1637091Y490739D01*
X1636476Y490861D01*
X1635326Y491091D01*
X1635555Y492241D01*
X1635677Y492856D01*
X1635326Y494621D01*
X1634326Y496118D01*
X1632830Y497118D01*
X1631064Y497469D01*
D02*
G37*
G36*
X807720Y489753D02*
X805955Y489402D01*
X804458Y488402D01*
X803458Y486905D01*
X803107Y485140D01*
X803458Y483375D01*
X804458Y481878D01*
X805955Y480878D01*
X807720Y480527D01*
X809485Y480878D01*
X810982Y481878D01*
X811982Y483375D01*
X812333Y485140D01*
X811982Y486905D01*
X810982Y488402D01*
X809485Y489402D01*
X807720Y489753D01*
D02*
G37*
G36*
X768350D02*
X766585Y489402D01*
X765088Y488402D01*
X764089Y486905D01*
X763737Y485140D01*
X764089Y483375D01*
X765088Y481878D01*
X766585Y480878D01*
X768350Y480527D01*
X770115Y480878D01*
X771612Y481878D01*
X772611Y483375D01*
X772963Y485140D01*
X772611Y486905D01*
X771612Y488402D01*
X770115Y489402D01*
X768350Y489753D01*
D02*
G37*
G36*
X711200Y485943D02*
X709435Y485592D01*
X707938Y484592D01*
X706938Y483095D01*
X706587Y481330D01*
X706938Y479565D01*
X707938Y478068D01*
X709435Y477068D01*
X711200Y476717D01*
X712965Y477068D01*
X714462Y478068D01*
X715462Y479565D01*
X715813Y481330D01*
X715462Y483095D01*
X714462Y484592D01*
X712965Y485592D01*
X711200Y485943D01*
D02*
G37*
G36*
X1428750Y479593D02*
X1426985Y479241D01*
X1425488Y478242D01*
X1424489Y476745D01*
X1424137Y474980D01*
X1424489Y473215D01*
X1425488Y471718D01*
X1426985Y470718D01*
X1428750Y470367D01*
X1430515Y470718D01*
X1432012Y471718D01*
X1433011Y473215D01*
X1433363Y474980D01*
X1433011Y476745D01*
X1432012Y478242D01*
X1430515Y479241D01*
X1428750Y479593D01*
D02*
G37*
G36*
X789860D02*
X788095Y479241D01*
X786598Y478242D01*
X785599Y476745D01*
X785247Y474980D01*
X785599Y473215D01*
X786598Y471718D01*
X788095Y470718D01*
X789860Y470367D01*
X791625Y470718D01*
X793122Y471718D01*
X794121Y473215D01*
X794473Y474980D01*
X794121Y476745D01*
X793122Y478242D01*
X791625Y479241D01*
X789860Y479593D01*
D02*
G37*
G36*
X1182370Y477053D02*
X1180605Y476702D01*
X1179108Y475702D01*
X1178109Y474205D01*
X1177757Y472440D01*
X1178109Y470675D01*
X1179108Y469178D01*
X1180605Y468178D01*
X1182370Y467827D01*
X1184135Y468178D01*
X1185632Y469178D01*
X1186631Y470675D01*
X1186983Y472440D01*
X1186631Y474205D01*
X1185632Y475702D01*
X1184135Y476702D01*
X1182370Y477053D01*
D02*
G37*
G36*
X806450D02*
X804685Y476702D01*
X803188Y475702D01*
X802188Y474205D01*
X801837Y472440D01*
X802188Y470675D01*
X803188Y469178D01*
X804685Y468178D01*
X806450Y467827D01*
X808215Y468178D01*
X809712Y469178D01*
X810712Y470675D01*
X811063Y472440D01*
X810712Y474205D01*
X809712Y475702D01*
X808215Y476702D01*
X806450Y477053D01*
D02*
G37*
G36*
X1273753Y475986D02*
X1271988Y475635D01*
X1270491Y474635D01*
X1269492Y473138D01*
X1269140Y471373D01*
X1269492Y469608D01*
X1270491Y468111D01*
X1271988Y467112D01*
X1273753Y466760D01*
X1275518Y467112D01*
X1277015Y468111D01*
X1278015Y469608D01*
X1278366Y471373D01*
X1278015Y473138D01*
X1277015Y474635D01*
X1275518Y475635D01*
X1273753Y475986D01*
D02*
G37*
G36*
X1158240Y475783D02*
X1156475Y475432D01*
X1154978Y474432D01*
X1153979Y472935D01*
X1153627Y471170D01*
X1153979Y469405D01*
X1154978Y467908D01*
X1156475Y466908D01*
X1158240Y466557D01*
X1160005Y466908D01*
X1161502Y467908D01*
X1162502Y469405D01*
X1162853Y471170D01*
X1162502Y472935D01*
X1161502Y474432D01*
X1160005Y475432D01*
X1158240Y475783D01*
D02*
G37*
G36*
X700405Y475148D02*
X698640Y474796D01*
X697143Y473797D01*
X696143Y472300D01*
X695792Y470535D01*
X696143Y468770D01*
X697143Y467273D01*
X698640Y466273D01*
X700405Y465922D01*
X702170Y466273D01*
X703667Y467273D01*
X704667Y468770D01*
X705018Y470535D01*
X704667Y472300D01*
X703667Y473797D01*
X702170Y474796D01*
X700405Y475148D01*
D02*
G37*
G36*
X1025142Y474919D02*
X1023377Y474567D01*
X1021880Y473568D01*
X1020880Y472071D01*
X1020529Y470306D01*
X1020880Y468541D01*
X1021880Y467044D01*
X1023377Y466044D01*
X1025142Y465693D01*
X1026907Y466044D01*
X1028403Y467044D01*
X1029403Y468541D01*
X1029754Y470306D01*
X1029403Y472071D01*
X1028403Y473568D01*
X1026907Y474567D01*
X1025142Y474919D01*
D02*
G37*
G36*
X1718310Y484673D02*
X1716545Y484322D01*
X1715048Y483322D01*
X1714048Y481825D01*
X1713697Y480060D01*
X1714048Y478295D01*
X1715048Y476798D01*
X1716545Y475798D01*
X1717343Y475640D01*
Y474345D01*
X1716545Y474186D01*
X1715048Y473186D01*
X1714048Y471690D01*
X1713697Y469925D01*
X1714048Y468159D01*
X1715048Y466663D01*
X1716545Y465663D01*
X1718310Y465312D01*
X1720075Y465663D01*
X1721572Y466663D01*
X1722572Y468159D01*
X1722777Y469194D01*
X1723390Y470367D01*
X1725155Y470718D01*
X1726652Y471718D01*
X1727652Y473215D01*
X1728003Y474980D01*
X1727652Y476745D01*
X1726652Y478242D01*
X1725155Y479241D01*
X1724097Y479452D01*
X1723230Y479901D01*
X1722782Y480767D01*
X1722572Y481825D01*
X1721572Y483322D01*
X1720075Y484322D01*
X1718310Y484673D01*
D02*
G37*
G36*
X1518920Y473243D02*
X1517155Y472892D01*
X1515658Y471892D01*
X1514659Y470395D01*
X1514307Y468630D01*
X1514659Y466865D01*
X1515658Y465368D01*
X1517155Y464369D01*
X1518920Y464017D01*
X1520685Y464369D01*
X1522182Y465368D01*
X1523181Y466865D01*
X1523533Y468630D01*
X1523181Y470395D01*
X1522182Y471892D01*
X1520685Y472892D01*
X1518920Y473243D01*
D02*
G37*
G36*
X1502390D02*
X1500625Y472892D01*
X1499128Y471892D01*
X1498129Y470395D01*
X1497777Y468630D01*
X1498129Y466865D01*
X1499128Y465368D01*
X1500625Y464369D01*
X1502390Y464017D01*
X1504155Y464369D01*
X1505652Y465368D01*
X1506651Y466865D01*
X1507003Y468630D01*
X1506651Y470395D01*
X1505652Y471892D01*
X1504155Y472892D01*
X1502390Y473243D01*
D02*
G37*
G36*
X1587500Y470703D02*
X1585735Y470351D01*
X1584238Y469352D01*
X1583239Y467855D01*
X1582887Y466090D01*
X1583239Y464325D01*
X1584238Y462828D01*
X1585735Y461828D01*
X1587500Y461477D01*
X1589265Y461828D01*
X1590762Y462828D01*
X1591761Y464325D01*
X1592113Y466090D01*
X1591761Y467855D01*
X1590762Y469352D01*
X1589265Y470351D01*
X1587500Y470703D01*
D02*
G37*
G36*
X971550Y468163D02*
X969785Y467812D01*
X968288Y466812D01*
X967289Y465315D01*
X966937Y463550D01*
X967289Y461785D01*
X967373Y461658D01*
X966610Y460515D01*
X966470Y460543D01*
X964705Y460191D01*
X963208Y459192D01*
X962208Y457695D01*
X961857Y455930D01*
X962208Y454165D01*
X963208Y452668D01*
X964705Y451669D01*
X966470Y451317D01*
X968235Y451669D01*
X969732Y452668D01*
X970732Y454165D01*
X971083Y455930D01*
X970732Y457695D01*
X970647Y457822D01*
X971410Y458965D01*
X971550Y458937D01*
X973315Y459288D01*
X974812Y460288D01*
X975811Y461785D01*
X976163Y463550D01*
X975811Y465315D01*
X974812Y466812D01*
X973315Y467812D01*
X971550Y468163D01*
D02*
G37*
G36*
X1303020Y469433D02*
X1301255Y469081D01*
X1299758Y468082D01*
X1298759Y466585D01*
X1298407Y464820D01*
X1298759Y463055D01*
X1299758Y461558D01*
X1301255Y460559D01*
X1303020Y460207D01*
X1304785Y460559D01*
X1306282Y461558D01*
X1307281Y463055D01*
X1307633Y464820D01*
X1307281Y466585D01*
X1306282Y468082D01*
X1304785Y469081D01*
X1303020Y469433D01*
D02*
G37*
G36*
X689610D02*
X687845Y469081D01*
X686348Y468082D01*
X685349Y466585D01*
X684997Y464820D01*
X685349Y463055D01*
X686348Y461558D01*
X687845Y460559D01*
X689610Y460207D01*
X691375Y460559D01*
X692872Y461558D01*
X693872Y463055D01*
X694223Y464820D01*
X693872Y466585D01*
X692872Y468082D01*
X691375Y469081D01*
X689610Y469433D01*
D02*
G37*
G36*
X1628071Y468232D02*
X1626306Y467880D01*
X1624810Y466880D01*
X1623810Y465384D01*
X1623458Y463619D01*
X1623810Y461854D01*
X1624810Y460357D01*
X1626306Y459357D01*
X1628071Y459006D01*
X1629836Y459357D01*
X1631333Y460357D01*
X1632333Y461854D01*
X1632684Y463619D01*
X1632333Y465384D01*
X1631333Y466880D01*
X1629836Y467880D01*
X1628071Y468232D01*
D02*
G37*
G36*
X927100Y465623D02*
X925335Y465271D01*
X923838Y464272D01*
X922839Y462775D01*
X922487Y461010D01*
X922839Y459245D01*
X923838Y457748D01*
X925335Y456749D01*
X927100Y456397D01*
X928865Y456749D01*
X930362Y457748D01*
X931361Y459245D01*
X931713Y461010D01*
X931361Y462775D01*
X930362Y464272D01*
X928865Y465271D01*
X927100Y465623D01*
D02*
G37*
G36*
X708660D02*
X706895Y465271D01*
X705398Y464272D01*
X704398Y462775D01*
X704047Y461010D01*
X704398Y459245D01*
X705398Y457748D01*
X706895Y456749D01*
X708660Y456397D01*
X710425Y456749D01*
X711922Y457748D01*
X712922Y459245D01*
X713273Y461010D01*
X712922Y462775D01*
X711922Y464272D01*
X710425Y465271D01*
X708660Y465623D01*
D02*
G37*
G36*
X1729740Y456733D02*
X1727975Y456381D01*
X1726565Y455439D01*
X1725155Y456381D01*
X1723390Y456733D01*
X1721625Y456381D01*
X1720978Y455949D01*
X1719893Y455286D01*
X1718397Y456286D01*
X1716632Y456637D01*
X1714867Y456286D01*
X1713370Y455286D01*
X1712370Y453789D01*
X1712019Y452024D01*
X1712370Y450259D01*
X1713370Y448762D01*
X1714619Y447928D01*
X1714722Y447293D01*
X1714718Y447063D01*
X1714604Y446527D01*
X1713326Y445674D01*
X1712327Y444177D01*
X1711975Y442412D01*
X1712327Y440647D01*
X1713326Y439150D01*
X1714823Y438150D01*
X1716588Y437799D01*
X1718353Y438150D01*
X1719850Y439150D01*
X1720195Y439667D01*
X1721625Y440238D01*
X1723390Y439887D01*
X1724212Y440051D01*
X1725479Y440195D01*
X1726478Y438698D01*
X1727975Y437699D01*
X1729740Y437347D01*
X1731505Y437699D01*
X1733002Y438698D01*
X1734001Y440195D01*
X1734353Y441960D01*
X1734001Y443725D01*
X1733002Y445222D01*
X1731505Y446222D01*
X1730645Y446393D01*
Y447687D01*
X1731505Y447859D01*
X1733002Y448858D01*
X1734001Y450355D01*
X1734353Y452120D01*
X1734001Y453885D01*
X1733002Y455382D01*
X1731505Y456381D01*
X1729740Y456733D01*
D02*
G37*
G36*
X1537970Y464353D02*
X1536205Y464002D01*
X1534708Y463002D01*
X1533708Y461505D01*
X1533357Y459740D01*
X1533708Y457975D01*
X1534708Y456478D01*
X1536205Y455479D01*
X1537970Y455127D01*
X1539735Y455479D01*
X1541232Y456478D01*
X1542231Y457975D01*
X1542583Y459740D01*
X1542231Y461505D01*
X1541232Y463002D01*
X1539735Y464002D01*
X1537970Y464353D01*
D02*
G37*
G36*
X1035050Y461813D02*
X1033285Y461461D01*
X1031788Y460462D01*
X1030788Y458965D01*
X1030437Y457200D01*
X1030788Y455435D01*
X1031788Y453938D01*
X1033285Y452938D01*
X1035050Y452587D01*
X1036815Y452938D01*
X1038312Y453938D01*
X1039312Y455435D01*
X1039663Y457200D01*
X1039312Y458965D01*
X1038312Y460462D01*
X1036815Y461461D01*
X1035050Y461813D01*
D02*
G37*
G36*
X830580Y459273D02*
X828815Y458922D01*
X827318Y457922D01*
X826319Y456425D01*
X825967Y454660D01*
X826319Y452895D01*
X827318Y451398D01*
X828815Y450398D01*
X830580Y450047D01*
X832345Y450398D01*
X833842Y451398D01*
X834842Y452895D01*
X835193Y454660D01*
X834842Y456425D01*
X833842Y457922D01*
X832345Y458922D01*
X830580Y459273D01*
D02*
G37*
G36*
X697230Y458003D02*
X695465Y457651D01*
X693968Y456652D01*
X692969Y455155D01*
X692617Y453390D01*
X692969Y451625D01*
X693968Y450128D01*
X695465Y449128D01*
X697230Y448777D01*
X698995Y449128D01*
X700492Y450128D01*
X701491Y451625D01*
X701843Y453390D01*
X701491Y455155D01*
X700492Y456652D01*
X698995Y457651D01*
X697230Y458003D01*
D02*
G37*
G36*
X1129030Y455463D02*
X1127265Y455112D01*
X1125768Y454112D01*
X1124769Y452615D01*
X1124417Y450850D01*
X1124769Y449085D01*
X1125768Y447588D01*
X1127265Y446589D01*
X1129030Y446237D01*
X1130795Y446589D01*
X1132292Y447588D01*
X1133291Y449085D01*
X1133643Y450850D01*
X1133291Y452615D01*
X1132292Y454112D01*
X1130795Y455112D01*
X1129030Y455463D01*
D02*
G37*
G36*
X840740Y452923D02*
X838975Y452571D01*
X837478Y451572D01*
X836479Y450075D01*
X836127Y448310D01*
X836479Y446545D01*
X837478Y445048D01*
X838975Y444049D01*
X840740Y443697D01*
X842505Y444049D01*
X844002Y445048D01*
X845002Y446545D01*
X845353Y448310D01*
X845002Y450075D01*
X844002Y451572D01*
X842505Y452571D01*
X840740Y452923D01*
D02*
G37*
G36*
X1587500Y459273D02*
X1585735Y458922D01*
X1584238Y457922D01*
X1583239Y456425D01*
X1582887Y454660D01*
X1583239Y452895D01*
X1584238Y451398D01*
X1585735Y450398D01*
X1586595Y450227D01*
Y448933D01*
X1585735Y448761D01*
X1584238Y447762D01*
X1583239Y446265D01*
X1582887Y444500D01*
X1583239Y442735D01*
X1584238Y441238D01*
X1585735Y440238D01*
X1587500Y439887D01*
X1589265Y440238D01*
X1590762Y441238D01*
X1591761Y442735D01*
X1592113Y444500D01*
X1591761Y446265D01*
X1590762Y447762D01*
X1589265Y448761D01*
X1588405Y448933D01*
Y450227D01*
X1589265Y450398D01*
X1590762Y451398D01*
X1591761Y452895D01*
X1592113Y454660D01*
X1591761Y456425D01*
X1590762Y457922D01*
X1589265Y458922D01*
X1587500Y459273D01*
D02*
G37*
G36*
X821690Y446573D02*
X819925Y446222D01*
X818428Y445222D01*
X817429Y443725D01*
X817077Y441960D01*
X817429Y440195D01*
X818428Y438698D01*
X819925Y437699D01*
X821690Y437347D01*
X823455Y437699D01*
X824952Y438698D01*
X825952Y440195D01*
X826303Y441960D01*
X825952Y443725D01*
X824952Y445222D01*
X823455Y446222D01*
X821690Y446573D01*
D02*
G37*
G36*
X1813560Y430063D02*
X1811795Y429711D01*
X1810298Y428712D01*
X1809879Y428083D01*
X1808351D01*
X1807932Y428712D01*
X1806435Y429711D01*
X1804670Y430063D01*
X1802905Y429711D01*
X1801408Y428712D01*
X1800989Y428083D01*
X1799461D01*
X1799042Y428712D01*
X1797545Y429711D01*
X1795780Y430063D01*
X1794015Y429711D01*
X1792518Y428712D01*
X1791519Y427215D01*
X1791167Y425450D01*
X1791519Y423685D01*
X1792319Y422486D01*
X1792440Y421640D01*
X1792319Y420794D01*
X1791519Y419595D01*
X1791167Y417830D01*
X1791519Y416065D01*
X1792518Y414568D01*
X1794015Y413568D01*
X1795780Y413217D01*
X1797545Y413568D01*
X1799042Y414568D01*
X1799461Y415196D01*
X1800989D01*
X1801408Y414568D01*
X1802905Y413568D01*
X1804670Y413217D01*
X1806435Y413568D01*
X1807932Y414568D01*
X1808351Y415196D01*
X1809879D01*
X1810298Y414568D01*
X1811795Y413568D01*
X1813560Y413217D01*
X1815325Y413568D01*
X1816822Y414568D01*
X1817822Y416065D01*
X1818173Y417830D01*
X1817822Y419595D01*
X1817021Y420794D01*
X1816900Y421640D01*
X1817021Y422486D01*
X1817822Y423685D01*
X1818173Y425450D01*
X1817822Y427215D01*
X1816822Y428712D01*
X1815325Y429711D01*
X1813560Y430063D01*
D02*
G37*
G36*
X1257794Y427988D02*
X1256029Y427637D01*
X1254533Y426637D01*
X1253533Y425141D01*
X1253182Y423376D01*
X1253533Y421611D01*
X1254533Y420114D01*
X1256029Y419114D01*
X1257794Y418763D01*
X1259560Y419114D01*
X1261056Y420114D01*
X1262056Y421611D01*
X1262407Y423376D01*
X1262056Y425141D01*
X1261056Y426637D01*
X1259560Y427637D01*
X1257794Y427988D01*
D02*
G37*
G36*
X1587500Y437683D02*
X1585735Y437332D01*
X1584238Y436332D01*
X1583239Y434835D01*
X1582887Y433070D01*
X1583239Y431305D01*
X1584238Y429808D01*
X1585735Y428809D01*
X1586595Y428637D01*
Y427343D01*
X1585735Y427172D01*
X1584238Y426172D01*
X1583239Y424675D01*
X1582887Y422910D01*
X1583239Y421145D01*
X1584238Y419648D01*
X1585735Y418648D01*
X1587500Y418297D01*
X1589265Y418648D01*
X1590762Y419648D01*
X1591761Y421145D01*
X1592113Y422910D01*
X1591761Y424675D01*
X1590762Y426172D01*
X1589265Y427172D01*
X1588405Y427343D01*
Y428637D01*
X1589265Y428809D01*
X1590762Y429808D01*
X1591761Y431305D01*
X1592113Y433070D01*
X1591761Y434835D01*
X1590762Y436332D01*
X1589265Y437332D01*
X1587500Y437683D01*
D02*
G37*
G36*
X965200Y422443D02*
X963435Y422091D01*
X961938Y421092D01*
X960938Y419595D01*
X960587Y417830D01*
X960938Y416065D01*
X961938Y414568D01*
X963435Y413568D01*
X965200Y413217D01*
X966965Y413568D01*
X968462Y414568D01*
X969462Y416065D01*
X969813Y417830D01*
X969462Y419595D01*
X968462Y421092D01*
X966965Y422091D01*
X965200Y422443D01*
D02*
G37*
G36*
X875880Y423105D02*
X874115Y422754D01*
X872618Y421754D01*
X871618Y420258D01*
X871267Y418492D01*
X871618Y416727D01*
X872618Y415231D01*
X874115Y414231D01*
X875880Y413880D01*
X877645Y414231D01*
X879142Y415231D01*
X879335Y415521D01*
X880152Y415369D01*
X880608Y415139D01*
X880928Y413525D01*
X881928Y412028D01*
X883425Y411029D01*
X885190Y410677D01*
X886955Y411029D01*
X888452Y412028D01*
X889452Y413525D01*
X889803Y415290D01*
X889452Y417055D01*
X888452Y418552D01*
X886955Y419552D01*
X885190Y419903D01*
X883425Y419552D01*
X881928Y418552D01*
X881735Y418262D01*
X880918Y418414D01*
X880462Y418644D01*
X880142Y420258D01*
X879142Y421754D01*
X877645Y422754D01*
X875880Y423105D01*
D02*
G37*
G36*
X864870Y419903D02*
X863105Y419552D01*
X861608Y418552D01*
X860609Y417055D01*
X860257Y415290D01*
X860609Y413525D01*
X861608Y412028D01*
X863105Y411029D01*
X864870Y410677D01*
X866635Y411029D01*
X868132Y412028D01*
X869131Y413525D01*
X869483Y415290D01*
X869131Y417055D01*
X868132Y418552D01*
X866635Y419552D01*
X864870Y419903D01*
D02*
G37*
G36*
X1784350Y411013D02*
X1782585Y410662D01*
X1781088Y409662D01*
X1780669Y409034D01*
X1779141D01*
X1778722Y409662D01*
X1777225Y410662D01*
X1775460Y411013D01*
X1773695Y410662D01*
X1772198Y409662D01*
X1771779Y409034D01*
X1770251D01*
X1769832Y409662D01*
X1768335Y410662D01*
X1766570Y411013D01*
X1764805Y410662D01*
X1763308Y409662D01*
X1762309Y408165D01*
X1761957Y406400D01*
X1762309Y404635D01*
X1763109Y403436D01*
X1763230Y402590D01*
X1763109Y401744D01*
X1762309Y400545D01*
X1761957Y398780D01*
X1762309Y397015D01*
X1763308Y395518D01*
X1764805Y394519D01*
X1766570Y394167D01*
X1768335Y394519D01*
X1769832Y395518D01*
X1770251Y396147D01*
X1771779D01*
X1772198Y395518D01*
X1773695Y394519D01*
X1775460Y394167D01*
X1777225Y394519D01*
X1778722Y395518D01*
X1779141Y396147D01*
X1780669D01*
X1781088Y395518D01*
X1782585Y394519D01*
X1784350Y394167D01*
X1786115Y394519D01*
X1787612Y395518D01*
X1788611Y397015D01*
X1788963Y398780D01*
X1788611Y400545D01*
X1787811Y401744D01*
X1787690Y402590D01*
X1787811Y403436D01*
X1788611Y404635D01*
X1788963Y406400D01*
X1788611Y408165D01*
X1787612Y409662D01*
X1786115Y410662D01*
X1784350Y411013D01*
D02*
G37*
G36*
X1722120Y431062D02*
X1720355Y430711D01*
X1718858Y429711D01*
X1717858Y428215D01*
X1717507Y426449D01*
X1717858Y424684D01*
X1718858Y423188D01*
Y422362D01*
X1717858Y420865D01*
X1717507Y419100D01*
X1717858Y417335D01*
X1718660Y416136D01*
X1718780Y415290D01*
X1718660Y414444D01*
X1717858Y413245D01*
X1717507Y411480D01*
X1717858Y409715D01*
X1718858Y408218D01*
X1720355Y407219D01*
X1722120Y406867D01*
X1723885Y407219D01*
X1725382Y408218D01*
X1726382Y409715D01*
X1726733Y411480D01*
X1726382Y413245D01*
X1725580Y414444D01*
X1725460Y415290D01*
X1725580Y416136D01*
X1726382Y417335D01*
X1726733Y419100D01*
X1726382Y420865D01*
X1725382Y422362D01*
Y423188D01*
X1726382Y424684D01*
X1726733Y426449D01*
X1726382Y428215D01*
X1725382Y429711D01*
X1723885Y430711D01*
X1722120Y431062D01*
D02*
G37*
G36*
X1616710Y408473D02*
X1614945Y408121D01*
X1613448Y407122D01*
X1612448Y405625D01*
X1612097Y403860D01*
X1612448Y402095D01*
X1613448Y400598D01*
X1614945Y399599D01*
X1616710Y399247D01*
X1618475Y399599D01*
X1619972Y400598D01*
X1620972Y402095D01*
X1621323Y403860D01*
X1620972Y405625D01*
X1619972Y407122D01*
X1618475Y408121D01*
X1616710Y408473D01*
D02*
G37*
G36*
X1196340D02*
X1194575Y408121D01*
X1193078Y407122D01*
X1192078Y405625D01*
X1191727Y403860D01*
X1192078Y402095D01*
X1193078Y400598D01*
X1194575Y399599D01*
X1196340Y399247D01*
X1198105Y399599D01*
X1199602Y400598D01*
X1200602Y402095D01*
X1200953Y403860D01*
X1200602Y405625D01*
X1199602Y407122D01*
X1198105Y408121D01*
X1196340Y408473D01*
D02*
G37*
G36*
X1220470Y407203D02*
X1218705Y406852D01*
X1217208Y405852D01*
X1216208Y404355D01*
X1215857Y402590D01*
X1216208Y400825D01*
X1217208Y399328D01*
X1218705Y398329D01*
X1220470Y397977D01*
X1222235Y398329D01*
X1223732Y399328D01*
X1224732Y400825D01*
X1225083Y402590D01*
X1224732Y404355D01*
X1223732Y405852D01*
X1222235Y406852D01*
X1220470Y407203D01*
D02*
G37*
G36*
X1023620Y441493D02*
X1021855Y441142D01*
X1020358Y440142D01*
X1019359Y438645D01*
X1019007Y436880D01*
X1019359Y435115D01*
X1020358Y433618D01*
X1020493Y433528D01*
X1020529Y433036D01*
X1020351Y432096D01*
X1019088Y431252D01*
X1018089Y429755D01*
X1017737Y427990D01*
X1018089Y426225D01*
X1019088Y424728D01*
X1020351Y423884D01*
X1020529Y422944D01*
X1020493Y422452D01*
X1020358Y422362D01*
X1019359Y420865D01*
X1019007Y419100D01*
X1019359Y417335D01*
X1020160Y416136D01*
X1020280Y415290D01*
X1020160Y414444D01*
X1019359Y413245D01*
X1019007Y411480D01*
X1019359Y409715D01*
X1020358Y408218D01*
X1020986Y407799D01*
Y406271D01*
X1020358Y405852D01*
X1019359Y404355D01*
X1019007Y402590D01*
X1019359Y400825D01*
X1020358Y399328D01*
X1021855Y398329D01*
X1023620Y397977D01*
X1025385Y398329D01*
X1026882Y399328D01*
X1027881Y400825D01*
X1028233Y402590D01*
X1027881Y404355D01*
X1026882Y405852D01*
X1026254Y406271D01*
Y407799D01*
X1026882Y408218D01*
X1027881Y409715D01*
X1028233Y411480D01*
X1027881Y413245D01*
X1027081Y414444D01*
X1026960Y415290D01*
X1027081Y416136D01*
X1027881Y417335D01*
X1028233Y419100D01*
X1027881Y420865D01*
X1026882Y422362D01*
X1025619Y423206D01*
X1025441Y424146D01*
X1025477Y424638D01*
X1025612Y424728D01*
X1026611Y426225D01*
X1026963Y427990D01*
X1026611Y429755D01*
X1025612Y431252D01*
X1025477Y431342D01*
X1025441Y431834D01*
X1025619Y432774D01*
X1026882Y433618D01*
X1027881Y435115D01*
X1028233Y436880D01*
X1027881Y438645D01*
X1026882Y440142D01*
X1025385Y441142D01*
X1023620Y441493D01*
D02*
G37*
G36*
X1179830Y405933D02*
X1178065Y405582D01*
X1176568Y404582D01*
X1175568Y403085D01*
X1175217Y401320D01*
X1175568Y399555D01*
X1176568Y398058D01*
X1178065Y397058D01*
X1179830Y396707D01*
X1181595Y397058D01*
X1183092Y398058D01*
X1184091Y399555D01*
X1184443Y401320D01*
X1184091Y403085D01*
X1183092Y404582D01*
X1181595Y405582D01*
X1179830Y405933D01*
D02*
G37*
G36*
X1168400D02*
X1166635Y405582D01*
X1165138Y404582D01*
X1164138Y403085D01*
X1163787Y401320D01*
X1164138Y399555D01*
X1165138Y398058D01*
X1166635Y397058D01*
X1168400Y396707D01*
X1170165Y397058D01*
X1171662Y398058D01*
X1172662Y399555D01*
X1173013Y401320D01*
X1172662Y403085D01*
X1171662Y404582D01*
X1170165Y405582D01*
X1168400Y405933D01*
D02*
G37*
G36*
X1553210Y397043D02*
X1551445Y396692D01*
X1550246Y395891D01*
X1549400Y395770D01*
X1548554Y395891D01*
X1547355Y396692D01*
X1545590Y397043D01*
X1543825Y396692D01*
X1542626Y395891D01*
X1541780Y395770D01*
X1540934Y395891D01*
X1539735Y396692D01*
X1537970Y397043D01*
X1536205Y396692D01*
X1535006Y395891D01*
X1534160Y395770D01*
X1533314Y395891D01*
X1532115Y396692D01*
X1530350Y397043D01*
X1528585Y396692D01*
X1527088Y395692D01*
X1526089Y394195D01*
X1525737Y392430D01*
X1526089Y390665D01*
X1527030Y389255D01*
X1526089Y387845D01*
X1525737Y386080D01*
X1526089Y384315D01*
X1526889Y383116D01*
X1527010Y382270D01*
X1526889Y381424D01*
X1526089Y380225D01*
X1525737Y378460D01*
X1526089Y376695D01*
X1527030Y375285D01*
X1526089Y373875D01*
X1525737Y372110D01*
X1526089Y370345D01*
X1527030Y368935D01*
X1526089Y367525D01*
X1525737Y365760D01*
X1526089Y363995D01*
X1527088Y362498D01*
X1528585Y361498D01*
X1530350Y361147D01*
X1532115Y361498D01*
X1533314Y362299D01*
X1534160Y362420D01*
X1535006Y362299D01*
X1536205Y361498D01*
X1537970Y361147D01*
X1539735Y361498D01*
X1540934Y362299D01*
X1541780Y362420D01*
X1542626Y362299D01*
X1543825Y361498D01*
X1545590Y361147D01*
X1547355Y361498D01*
X1548554Y362299D01*
X1549400Y362420D01*
X1550246Y362299D01*
X1551445Y361498D01*
X1553210Y361147D01*
X1554975Y361498D01*
X1556472Y362498D01*
X1557471Y363995D01*
X1557823Y365760D01*
X1557471Y367525D01*
X1556530Y368935D01*
X1557471Y370345D01*
X1557823Y372110D01*
X1557471Y373875D01*
X1556530Y375285D01*
X1557471Y376695D01*
X1557823Y378460D01*
X1557471Y380225D01*
X1556671Y381424D01*
X1556550Y382270D01*
X1556671Y383116D01*
X1557471Y384315D01*
X1557823Y386080D01*
X1557471Y387845D01*
X1556530Y389255D01*
X1557471Y390665D01*
X1557823Y392430D01*
X1557471Y394195D01*
X1556472Y395692D01*
X1554975Y396692D01*
X1553210Y397043D01*
D02*
G37*
G36*
X1656080Y404663D02*
X1654315Y404311D01*
X1652818Y403312D01*
X1651819Y401815D01*
X1651467Y400050D01*
X1651819Y398285D01*
X1652818Y396788D01*
X1654315Y395788D01*
X1656080Y395437D01*
X1657845Y395788D01*
X1659342Y396788D01*
X1660341Y398285D01*
X1660693Y400050D01*
X1660341Y401815D01*
X1659342Y403312D01*
X1657845Y404311D01*
X1656080Y404663D01*
D02*
G37*
G36*
X1689100Y411013D02*
X1687335Y410662D01*
X1685838Y409662D01*
X1684839Y408165D01*
X1684487Y406400D01*
X1684839Y404635D01*
X1685219Y404065D01*
X1684795Y403041D01*
X1683298Y402042D01*
X1682298Y400545D01*
X1681947Y398780D01*
X1682298Y397015D01*
X1683298Y395518D01*
X1684795Y394519D01*
X1686560Y394167D01*
X1688325Y394519D01*
X1689822Y395518D01*
X1690822Y397015D01*
X1691173Y398780D01*
X1690822Y400545D01*
X1690441Y401115D01*
X1690865Y402138D01*
X1692362Y403138D01*
X1693362Y404635D01*
X1693713Y406400D01*
X1693362Y408165D01*
X1692362Y409662D01*
X1690865Y410662D01*
X1689100Y411013D01*
D02*
G37*
G36*
X811530Y399583D02*
X809765Y399231D01*
X808268Y398232D01*
X807269Y396735D01*
X806917Y394970D01*
X807269Y393205D01*
X808268Y391708D01*
X809765Y390709D01*
X811530Y390357D01*
X813295Y390709D01*
X814792Y391708D01*
X815791Y393205D01*
X816143Y394970D01*
X815791Y396735D01*
X814792Y398232D01*
X813295Y399231D01*
X811530Y399583D01*
D02*
G37*
G36*
X1291590Y398313D02*
X1289825Y397962D01*
X1288328Y396962D01*
X1287328Y395465D01*
X1286977Y393700D01*
X1287328Y391935D01*
X1288328Y390438D01*
X1289825Y389439D01*
X1291590Y389087D01*
X1293355Y389439D01*
X1294852Y390438D01*
X1295851Y391935D01*
X1296203Y393700D01*
X1295851Y395465D01*
X1294852Y396962D01*
X1293355Y397962D01*
X1291590Y398313D01*
D02*
G37*
G36*
X1418146Y397487D02*
X1416381Y397136D01*
X1414884Y396136D01*
X1413884Y394639D01*
X1413533Y392874D01*
X1413884Y391109D01*
X1414884Y389612D01*
X1416381Y388613D01*
X1418146Y388261D01*
X1419911Y388613D01*
X1421408Y389612D01*
X1422408Y391109D01*
X1422759Y392874D01*
X1422408Y394639D01*
X1421408Y396136D01*
X1419911Y397136D01*
X1418146Y397487D01*
D02*
G37*
G36*
X1781810Y389423D02*
X1780045Y389072D01*
X1778548Y388072D01*
X1778129Y387444D01*
X1776601D01*
X1776182Y388072D01*
X1774685Y389072D01*
X1772920Y389423D01*
X1771155Y389072D01*
X1769658Y388072D01*
X1769239Y387444D01*
X1767711D01*
X1767292Y388072D01*
X1765795Y389072D01*
X1764030Y389423D01*
X1762265Y389072D01*
X1760768Y388072D01*
X1759769Y386575D01*
X1759417Y384810D01*
X1759769Y383045D01*
X1760569Y381846D01*
X1760690Y381000D01*
X1760569Y380154D01*
X1759769Y378955D01*
X1759417Y377190D01*
X1759769Y375425D01*
X1760768Y373928D01*
X1762265Y372929D01*
X1764030Y372577D01*
X1765795Y372929D01*
X1767292Y373928D01*
X1767711Y374557D01*
X1769239D01*
X1769658Y373928D01*
X1771155Y372929D01*
X1772920Y372577D01*
X1774685Y372929D01*
X1776182Y373928D01*
X1776601Y374557D01*
X1778129D01*
X1778548Y373928D01*
X1780045Y372929D01*
X1781810Y372577D01*
X1783575Y372929D01*
X1785072Y373928D01*
X1786071Y375425D01*
X1786423Y377190D01*
X1786071Y378955D01*
X1785271Y380154D01*
X1785150Y381000D01*
X1785271Y381846D01*
X1786071Y383045D01*
X1786423Y384810D01*
X1786071Y386575D01*
X1785072Y388072D01*
X1783575Y389072D01*
X1781810Y389423D01*
D02*
G37*
G36*
X989330Y393233D02*
X987565Y392882D01*
X986068Y391882D01*
X985069Y390385D01*
X984717Y388620D01*
X985069Y386855D01*
X986068Y385358D01*
X987565Y384358D01*
X989330Y384007D01*
X991095Y384358D01*
X992592Y385358D01*
X993592Y386855D01*
X993943Y388620D01*
X993592Y390385D01*
X992592Y391882D01*
X991095Y392882D01*
X989330Y393233D01*
D02*
G37*
G36*
X1342390Y386883D02*
X1340625Y386531D01*
X1339128Y385532D01*
X1338129Y384035D01*
X1337979Y383284D01*
X1336568Y382700D01*
X1336535Y382721D01*
X1334770Y383073D01*
X1333005Y382721D01*
X1331508Y381722D01*
X1330509Y380225D01*
X1330157Y378460D01*
X1330509Y376695D01*
X1331508Y375198D01*
X1333005Y374198D01*
X1334770Y373847D01*
X1336535Y374198D01*
X1338032Y375198D01*
X1339032Y376695D01*
X1339181Y377446D01*
X1340592Y378030D01*
X1340625Y378008D01*
X1342390Y377657D01*
X1344155Y378008D01*
X1345652Y379008D01*
X1346651Y380505D01*
X1347003Y382270D01*
X1346651Y384035D01*
X1345652Y385532D01*
X1344155Y386531D01*
X1342390Y386883D01*
D02*
G37*
G36*
X918210Y389423D02*
X916445Y389072D01*
X914948Y388072D01*
X913949Y386575D01*
X913597Y384810D01*
X913949Y383045D01*
X914948Y381548D01*
X916445Y380549D01*
X918210Y380197D01*
X919975Y380549D01*
X921472Y381548D01*
X922471Y383045D01*
X922823Y384810D01*
X922471Y386575D01*
X921472Y388072D01*
X919975Y389072D01*
X918210Y389423D01*
D02*
G37*
G36*
X833120D02*
X831355Y389072D01*
X829858Y388072D01*
X828858Y386575D01*
X828507Y384810D01*
X828858Y383045D01*
X829858Y381548D01*
X831355Y380549D01*
X833120Y380197D01*
X834885Y380549D01*
X836382Y381548D01*
X837382Y383045D01*
X837733Y384810D01*
X837382Y386575D01*
X836382Y388072D01*
X834885Y389072D01*
X833120Y389423D01*
D02*
G37*
G36*
X615950Y386883D02*
X614185Y386531D01*
X612688Y385532D01*
X611688Y384035D01*
X611337Y382270D01*
X611688Y380505D01*
X612688Y379008D01*
X614185Y378008D01*
X615950Y377657D01*
X617715Y378008D01*
X619212Y379008D01*
X620211Y380505D01*
X620563Y382270D01*
X620211Y384035D01*
X619212Y385532D01*
X617715Y386531D01*
X615950Y386883D01*
D02*
G37*
G36*
X1813560Y369103D02*
X1811795Y368751D01*
X1810298Y367752D01*
X1809879Y367123D01*
X1808351D01*
X1807932Y367752D01*
X1806435Y368751D01*
X1804670Y369103D01*
X1802905Y368751D01*
X1801408Y367752D01*
X1800989Y367123D01*
X1799461D01*
X1799042Y367752D01*
X1797545Y368751D01*
X1795780Y369103D01*
X1794015Y368751D01*
X1792518Y367752D01*
X1791519Y366255D01*
X1791167Y364490D01*
X1791519Y362725D01*
X1792319Y361526D01*
X1792440Y360680D01*
X1792319Y359834D01*
X1791519Y358635D01*
X1791167Y356870D01*
X1791519Y355105D01*
X1792518Y353608D01*
X1794015Y352608D01*
X1795780Y352257D01*
X1797545Y352608D01*
X1799042Y353608D01*
X1799461Y354236D01*
X1800989D01*
X1801408Y353608D01*
X1802905Y352608D01*
X1804670Y352257D01*
X1806435Y352608D01*
X1807932Y353608D01*
X1808351Y354236D01*
X1809879D01*
X1810298Y353608D01*
X1811795Y352608D01*
X1813560Y352257D01*
X1815325Y352608D01*
X1816822Y353608D01*
X1817822Y355105D01*
X1818173Y356870D01*
X1817822Y358635D01*
X1817021Y359834D01*
X1816900Y360680D01*
X1817021Y361526D01*
X1817822Y362725D01*
X1818173Y364490D01*
X1817822Y366255D01*
X1816822Y367752D01*
X1815325Y368751D01*
X1813560Y369103D01*
D02*
G37*
G36*
X972820Y371643D02*
X971055Y371292D01*
X969558Y370292D01*
X968559Y368795D01*
X968207Y367030D01*
X968559Y365265D01*
X969558Y363768D01*
X971055Y362769D01*
X972820Y362417D01*
X974585Y362769D01*
X976082Y363768D01*
X976199Y363944D01*
X977395Y363449D01*
X977097Y361950D01*
X977449Y360185D01*
X978448Y358688D01*
X979945Y357688D01*
X981710Y357337D01*
X983475Y357688D01*
X984972Y358688D01*
X985972Y360185D01*
X986323Y361950D01*
X985972Y363715D01*
X984972Y365212D01*
X983475Y366212D01*
X981710Y366563D01*
X979945Y366212D01*
X978448Y365212D01*
X978331Y365036D01*
X977134Y365531D01*
X977433Y367030D01*
X977082Y368795D01*
X976082Y370292D01*
X974585Y371292D01*
X972820Y371643D01*
D02*
G37*
G36*
X1648460Y362753D02*
X1646695Y362402D01*
X1645198Y361402D01*
X1644198Y359905D01*
X1643847Y358140D01*
X1644198Y356375D01*
X1645198Y354878D01*
X1646695Y353879D01*
X1648460Y353527D01*
X1650225Y353879D01*
X1651722Y354878D01*
X1652722Y356375D01*
X1653073Y358140D01*
X1652722Y359905D01*
X1651722Y361402D01*
X1650225Y362402D01*
X1648460Y362753D01*
D02*
G37*
G36*
X1363980Y366563D02*
X1362215Y366212D01*
X1360718Y365212D01*
X1359718Y363715D01*
X1359367Y361950D01*
X1359718Y360185D01*
X1360718Y358688D01*
X1362215Y357688D01*
X1363980Y357337D01*
X1365745Y357688D01*
X1365872Y357773D01*
X1367015Y357010D01*
X1366987Y356870D01*
X1367339Y355105D01*
X1368338Y353608D01*
X1369835Y352608D01*
X1371600Y352257D01*
X1373365Y352608D01*
X1374862Y353608D01*
X1375862Y355105D01*
X1376213Y356870D01*
X1375862Y358635D01*
X1374862Y360132D01*
X1373365Y361132D01*
X1371600Y361483D01*
X1369835Y361132D01*
X1369708Y361047D01*
X1368565Y361810D01*
X1368593Y361950D01*
X1368241Y363715D01*
X1367242Y365212D01*
X1365745Y366212D01*
X1363980Y366563D01*
D02*
G37*
G36*
X596439Y356403D02*
X594674Y356051D01*
X593178Y355052D01*
X592178Y353555D01*
X591827Y351790D01*
X592178Y350025D01*
X593178Y348528D01*
X594674Y347528D01*
X596439Y347177D01*
X598204Y347528D01*
X599701Y348528D01*
X600701Y350025D01*
X601052Y351790D01*
X600701Y353555D01*
X599701Y355052D01*
X598204Y356051D01*
X596439Y356403D01*
D02*
G37*
G36*
X1747520Y341163D02*
X1745755Y340812D01*
X1744258Y339812D01*
X1743259Y338315D01*
X1742907Y336550D01*
X1743259Y334785D01*
X1744258Y333288D01*
X1745755Y332289D01*
X1747520Y331937D01*
X1749285Y332289D01*
X1750782Y333288D01*
X1751781Y334785D01*
X1752133Y336550D01*
X1751781Y338315D01*
X1750782Y339812D01*
X1749285Y340812D01*
X1747520Y341163D01*
D02*
G37*
G36*
X1410970Y318613D02*
X1409205Y318262D01*
X1407708Y317262D01*
X1407289Y316634D01*
X1405761D01*
X1405342Y317262D01*
X1403845Y318262D01*
X1402080Y318613D01*
X1400315Y318262D01*
X1398818Y317262D01*
X1397818Y315765D01*
X1397617Y314750D01*
X1396322D01*
X1396181Y315455D01*
X1395182Y316952D01*
X1393685Y317952D01*
X1391920Y318303D01*
X1390155Y317952D01*
X1388658Y316952D01*
X1387659Y315455D01*
X1387307Y313690D01*
X1387659Y311925D01*
X1388658Y310428D01*
X1390155Y309429D01*
X1391920Y309077D01*
X1393685Y309429D01*
X1395182Y310428D01*
X1396181Y311925D01*
X1396383Y312940D01*
X1397678D01*
X1397818Y312235D01*
X1398818Y310738D01*
X1400315Y309739D01*
X1402080Y309387D01*
X1403845Y309739D01*
X1405342Y310738D01*
X1405761Y311367D01*
X1407289D01*
X1407708Y310738D01*
X1409205Y309739D01*
X1410970Y309387D01*
X1412735Y309739D01*
X1414232Y310738D01*
X1414548Y311211D01*
X1416075D01*
X1416598Y310428D01*
X1418095Y309429D01*
X1419860Y309077D01*
X1421625Y309429D01*
X1423122Y310428D01*
X1424122Y311925D01*
X1424473Y313690D01*
X1424122Y315455D01*
X1423122Y316952D01*
X1421625Y317952D01*
X1419860Y318303D01*
X1418095Y317952D01*
X1416598Y316952D01*
X1416282Y316479D01*
X1414755D01*
X1414232Y317262D01*
X1412735Y318262D01*
X1410970Y318613D01*
D02*
G37*
G36*
X1586230Y318303D02*
X1584465Y317952D01*
X1582968Y316952D01*
X1582549Y316324D01*
X1581021D01*
X1580602Y316952D01*
X1579105Y317952D01*
X1577340Y318303D01*
X1575575Y317952D01*
X1574078Y316952D01*
X1573078Y315455D01*
X1572907Y314595D01*
X1571613D01*
X1571441Y315455D01*
X1570442Y316952D01*
X1568945Y317952D01*
X1567180Y318303D01*
X1565415Y317952D01*
X1563918Y316952D01*
X1562919Y315455D01*
X1562567Y313690D01*
X1562919Y311925D01*
X1563918Y310428D01*
X1565415Y309429D01*
X1567180Y309077D01*
X1568945Y309429D01*
X1570442Y310428D01*
X1571441Y311925D01*
X1571613Y312785D01*
X1572907D01*
X1573078Y311925D01*
X1574078Y310428D01*
X1575575Y309429D01*
X1577340Y309077D01*
X1579105Y309429D01*
X1580602Y310428D01*
X1581021Y311056D01*
X1582549D01*
X1582968Y310428D01*
X1584465Y309429D01*
X1586230Y309077D01*
X1587995Y309429D01*
X1589492Y310428D01*
X1589808Y310902D01*
X1591335D01*
X1591858Y310118D01*
X1593355Y309118D01*
X1595120Y308767D01*
X1596885Y309118D01*
X1598382Y310118D01*
X1599382Y311615D01*
X1599733Y313380D01*
X1599382Y315145D01*
X1598382Y316642D01*
X1596885Y317642D01*
X1595120Y317993D01*
X1593355Y317642D01*
X1591858Y316642D01*
X1591542Y316168D01*
X1590015D01*
X1589492Y316952D01*
X1587995Y317952D01*
X1586230Y318303D01*
D02*
G37*
G36*
X1497330D02*
X1495565Y317952D01*
X1494068Y316952D01*
X1493649Y316324D01*
X1492121D01*
X1491702Y316952D01*
X1490205Y317952D01*
X1488440Y318303D01*
X1486675Y317952D01*
X1485178Y316952D01*
X1484759Y316324D01*
X1483231D01*
X1482812Y316952D01*
X1481315Y317952D01*
X1479550Y318303D01*
X1477785Y317952D01*
X1476288Y316952D01*
X1475289Y315455D01*
X1474937Y313690D01*
X1475289Y311925D01*
X1476288Y310428D01*
X1477785Y309429D01*
X1479550Y309077D01*
X1481315Y309429D01*
X1482812Y310428D01*
X1483231Y311056D01*
X1484759D01*
X1485178Y310428D01*
X1486675Y309429D01*
X1488440Y309077D01*
X1490205Y309429D01*
X1491702Y310428D01*
X1492121Y311056D01*
X1493649D01*
X1494068Y310428D01*
X1495565Y309429D01*
X1497330Y309077D01*
X1499095Y309429D01*
X1500592Y310428D01*
X1500908Y310902D01*
X1502435D01*
X1502958Y310118D01*
X1504455Y309118D01*
X1506220Y308767D01*
X1507985Y309118D01*
X1509482Y310118D01*
X1510482Y311615D01*
X1510833Y313380D01*
X1510482Y315145D01*
X1509482Y316642D01*
X1507985Y317642D01*
X1506220Y317993D01*
X1504455Y317642D01*
X1502958Y316642D01*
X1502642Y316168D01*
X1501115D01*
X1500592Y316952D01*
X1499095Y317952D01*
X1497330Y318303D01*
D02*
G37*
G36*
X1314070Y319573D02*
X1312305Y319221D01*
X1310808Y318222D01*
X1309809Y316725D01*
X1309637Y315865D01*
X1308343D01*
X1308172Y316725D01*
X1307172Y318222D01*
X1305675Y319221D01*
X1303910Y319573D01*
X1302145Y319221D01*
X1300648Y318222D01*
X1299648Y316725D01*
X1299297Y314960D01*
X1299648Y313195D01*
X1300648Y311698D01*
X1302145Y310699D01*
X1303910Y310347D01*
X1305675Y310699D01*
X1307172Y311698D01*
X1308172Y313195D01*
X1308343Y314055D01*
X1309637D01*
X1309809Y313195D01*
X1310808Y311698D01*
X1311436Y311279D01*
Y309751D01*
X1310808Y309332D01*
X1309809Y307835D01*
X1309457Y306070D01*
X1309809Y304305D01*
X1310808Y302808D01*
X1311281Y302492D01*
Y300965D01*
X1310498Y300442D01*
X1309498Y298945D01*
X1309147Y297180D01*
X1309498Y295415D01*
X1310498Y293918D01*
X1311995Y292918D01*
X1313760Y292567D01*
X1315525Y292918D01*
X1317022Y293918D01*
X1318022Y295415D01*
X1318373Y297180D01*
X1318022Y298945D01*
X1317022Y300442D01*
X1316548Y300758D01*
Y302285D01*
X1317332Y302808D01*
X1318331Y304305D01*
X1318683Y306070D01*
X1318331Y307835D01*
X1317332Y309332D01*
X1316704Y309751D01*
Y311279D01*
X1317332Y311698D01*
X1318331Y313195D01*
X1318683Y314960D01*
X1318331Y316725D01*
X1317332Y318222D01*
X1315835Y319221D01*
X1314070Y319573D01*
D02*
G37*
G36*
X1663700Y337353D02*
X1661935Y337001D01*
X1660438Y336002D01*
X1659438Y334505D01*
X1659087Y332740D01*
X1659438Y330975D01*
X1660438Y329478D01*
X1661066Y329059D01*
Y327531D01*
X1660438Y327112D01*
X1659438Y325615D01*
X1659087Y323850D01*
X1659438Y322085D01*
X1660240Y320886D01*
X1660360Y320040D01*
X1660240Y319194D01*
X1659438Y317995D01*
X1659087Y316230D01*
X1659438Y314465D01*
X1660438Y312968D01*
X1661066Y312549D01*
Y311021D01*
X1660438Y310602D01*
X1659438Y309105D01*
X1659087Y307340D01*
X1659438Y305575D01*
X1660438Y304078D01*
X1661935Y303078D01*
X1663700Y302727D01*
X1665465Y303078D01*
X1666962Y304078D01*
X1667961Y305575D01*
X1668313Y307340D01*
X1667961Y309105D01*
X1666962Y310602D01*
X1666333Y311021D01*
Y312549D01*
X1666962Y312968D01*
X1667961Y314465D01*
X1668313Y316230D01*
X1667961Y317995D01*
X1667160Y319194D01*
X1667040Y320040D01*
X1667160Y320886D01*
X1667961Y322085D01*
X1668313Y323850D01*
X1667961Y325615D01*
X1666962Y327112D01*
X1666333Y327531D01*
Y329059D01*
X1666962Y329478D01*
X1667961Y330975D01*
X1668313Y332740D01*
X1667961Y334505D01*
X1666962Y336002D01*
X1665465Y337001D01*
X1663700Y337353D01*
D02*
G37*
G36*
X1731010Y304333D02*
X1729245Y303981D01*
X1727748Y302982D01*
X1727329Y302353D01*
X1725801D01*
X1725382Y302982D01*
X1723885Y303981D01*
X1722120Y304333D01*
X1720355Y303981D01*
X1718858Y302982D01*
X1718439Y302353D01*
X1716911D01*
X1716492Y302982D01*
X1714995Y303981D01*
X1713230Y304333D01*
X1711465Y303981D01*
X1709968Y302982D01*
X1708969Y301485D01*
X1708797Y300625D01*
X1707503D01*
X1707332Y301485D01*
X1706332Y302982D01*
X1704835Y303981D01*
X1703070Y304333D01*
X1701305Y303981D01*
X1699808Y302982D01*
X1698808Y301485D01*
X1698457Y299720D01*
X1698808Y297955D01*
X1699808Y296458D01*
X1701305Y295459D01*
X1703070Y295107D01*
X1704835Y295459D01*
X1706332Y296458D01*
X1707332Y297955D01*
X1707503Y298815D01*
X1708797D01*
X1708969Y297955D01*
X1709968Y296458D01*
X1711465Y295459D01*
X1713230Y295107D01*
X1714995Y295459D01*
X1716492Y296458D01*
X1716911Y297087D01*
X1718439D01*
X1718858Y296458D01*
X1720355Y295459D01*
X1722120Y295107D01*
X1723885Y295459D01*
X1725382Y296458D01*
X1725801Y297087D01*
X1727329D01*
X1727748Y296458D01*
X1729245Y295459D01*
X1731010Y295107D01*
X1732775Y295459D01*
X1734272Y296458D01*
X1735271Y297955D01*
X1735623Y299720D01*
X1735271Y301485D01*
X1734272Y302982D01*
X1732775Y303981D01*
X1731010Y304333D01*
D02*
G37*
G36*
X1629410Y317033D02*
X1627645Y316681D01*
X1626148Y315682D01*
X1625148Y314185D01*
X1624797Y312420D01*
X1625148Y310655D01*
X1625950Y309456D01*
X1626070Y308610D01*
X1625950Y307764D01*
X1625148Y306565D01*
X1624797Y304800D01*
X1625148Y303035D01*
X1626148Y301538D01*
X1626776Y301119D01*
Y299591D01*
X1626148Y299172D01*
X1625148Y297675D01*
X1624797Y295910D01*
X1625148Y294145D01*
X1626148Y292648D01*
X1626776Y292229D01*
Y290701D01*
X1626148Y290282D01*
X1625148Y288785D01*
X1624797Y287020D01*
X1625148Y285255D01*
X1626148Y283758D01*
X1627645Y282759D01*
X1629410Y282407D01*
X1631175Y282759D01*
X1632672Y283758D01*
X1633672Y285255D01*
X1634023Y287020D01*
X1633672Y288785D01*
X1632672Y290282D01*
X1632043Y290701D01*
Y292229D01*
X1632672Y292648D01*
X1633672Y294145D01*
X1634023Y295910D01*
X1633672Y297675D01*
X1632672Y299172D01*
X1632043Y299591D01*
Y301119D01*
X1632672Y301538D01*
X1633672Y303035D01*
X1634023Y304800D01*
X1633672Y306565D01*
X1632870Y307764D01*
X1632750Y308610D01*
X1632870Y309456D01*
X1633672Y310655D01*
X1634023Y312420D01*
X1633672Y314185D01*
X1632672Y315682D01*
X1631175Y316681D01*
X1629410Y317033D01*
D02*
G37*
G36*
X1537970Y315763D02*
X1536205Y315411D01*
X1534708Y314412D01*
X1533708Y312915D01*
X1533357Y311150D01*
X1533708Y309385D01*
X1534509Y308186D01*
X1534630Y307340D01*
X1534509Y306494D01*
X1533708Y305295D01*
X1533357Y303530D01*
X1533708Y301765D01*
X1534708Y300268D01*
X1535336Y299849D01*
Y298321D01*
X1534708Y297902D01*
X1533708Y296405D01*
X1533357Y294640D01*
X1533708Y292875D01*
X1534708Y291378D01*
X1535336Y290959D01*
Y289431D01*
X1534708Y289012D01*
X1533708Y287515D01*
X1533357Y285750D01*
X1533708Y283985D01*
X1534708Y282488D01*
X1536205Y281488D01*
X1537970Y281137D01*
X1539735Y281488D01*
X1541232Y282488D01*
X1542231Y283985D01*
X1542583Y285750D01*
X1542231Y287515D01*
X1541232Y289012D01*
X1540603Y289431D01*
Y290959D01*
X1541232Y291378D01*
X1542231Y292875D01*
X1542583Y294640D01*
X1542231Y296405D01*
X1541232Y297902D01*
X1540603Y298321D01*
Y299849D01*
X1541232Y300268D01*
X1542231Y301765D01*
X1542583Y303530D01*
X1542231Y305295D01*
X1541431Y306494D01*
X1541310Y307340D01*
X1541431Y308186D01*
X1542231Y309385D01*
X1542583Y311150D01*
X1542231Y312915D01*
X1541232Y314412D01*
X1539735Y315411D01*
X1537970Y315763D01*
D02*
G37*
G36*
X1450340D02*
X1448575Y315411D01*
X1447078Y314412D01*
X1446078Y312915D01*
X1445727Y311150D01*
X1446078Y309385D01*
X1446879Y308186D01*
X1447000Y307340D01*
X1446879Y306494D01*
X1446078Y305295D01*
X1445727Y303530D01*
X1446078Y301765D01*
X1447078Y300268D01*
X1447706Y299849D01*
Y298321D01*
X1447078Y297902D01*
X1446078Y296405D01*
X1445727Y294640D01*
X1446078Y292875D01*
X1447078Y291378D01*
X1447706Y290959D01*
Y289431D01*
X1447078Y289012D01*
X1446078Y287515D01*
X1445727Y285750D01*
X1446078Y283985D01*
X1447078Y282488D01*
X1448575Y281488D01*
X1450340Y281137D01*
X1452105Y281488D01*
X1453602Y282488D01*
X1454601Y283985D01*
X1454953Y285750D01*
X1454601Y287515D01*
X1453602Y289012D01*
X1452973Y289431D01*
Y290959D01*
X1453602Y291378D01*
X1454601Y292875D01*
X1454953Y294640D01*
X1454601Y296405D01*
X1453602Y297902D01*
X1452973Y298321D01*
Y299849D01*
X1453602Y300268D01*
X1454601Y301765D01*
X1454953Y303530D01*
X1454601Y305295D01*
X1453801Y306494D01*
X1453680Y307340D01*
X1453801Y308186D01*
X1454601Y309385D01*
X1454953Y311150D01*
X1454601Y312915D01*
X1453602Y314412D01*
X1452105Y315411D01*
X1450340Y315763D01*
D02*
G37*
G36*
X1361440D02*
X1359675Y315411D01*
X1358178Y314412D01*
X1357178Y312915D01*
X1356827Y311150D01*
X1357178Y309385D01*
X1357979Y308186D01*
X1358100Y307340D01*
X1357979Y306494D01*
X1357178Y305295D01*
X1356827Y303530D01*
X1357178Y301765D01*
X1358178Y300268D01*
X1358806Y299849D01*
Y298321D01*
X1358178Y297902D01*
X1357178Y296405D01*
X1356827Y294640D01*
X1357178Y292875D01*
X1358178Y291378D01*
X1358806Y290959D01*
Y289431D01*
X1358178Y289012D01*
X1357178Y287515D01*
X1356827Y285750D01*
X1357178Y283985D01*
X1358178Y282488D01*
X1359675Y281488D01*
X1361440Y281137D01*
X1363205Y281488D01*
X1364702Y282488D01*
X1365701Y283985D01*
X1366053Y285750D01*
X1365701Y287515D01*
X1364702Y289012D01*
X1364073Y289431D01*
Y290959D01*
X1364702Y291378D01*
X1365701Y292875D01*
X1366053Y294640D01*
X1365701Y296405D01*
X1364702Y297902D01*
X1364073Y298321D01*
Y299849D01*
X1364702Y300268D01*
X1365701Y301765D01*
X1366053Y303530D01*
X1365701Y305295D01*
X1364901Y306494D01*
X1364780Y307340D01*
X1364901Y308186D01*
X1365701Y309385D01*
X1366053Y311150D01*
X1365701Y312915D01*
X1364702Y314412D01*
X1363205Y315411D01*
X1361440Y315763D01*
D02*
G37*
G36*
X1302076Y285283D02*
X1300311Y284932D01*
X1298814Y283932D01*
X1297814Y282435D01*
X1297463Y280670D01*
X1297814Y278905D01*
X1298814Y277408D01*
X1300311Y276409D01*
X1302076Y276057D01*
X1303841Y276409D01*
X1305338Y277408D01*
X1306337Y278905D01*
X1306689Y280670D01*
X1306337Y282435D01*
X1305338Y283932D01*
X1303841Y284932D01*
X1302076Y285283D01*
D02*
G37*
G36*
X1572006Y284013D02*
X1570241Y283661D01*
X1568744Y282662D01*
X1567744Y281165D01*
X1567393Y279400D01*
X1567744Y277635D01*
X1568744Y276138D01*
X1570241Y275138D01*
X1572006Y274787D01*
X1573771Y275138D01*
X1575268Y276138D01*
X1576268Y277635D01*
X1576619Y279400D01*
X1576268Y281165D01*
X1575268Y282662D01*
X1573771Y283661D01*
X1572006Y284013D01*
D02*
G37*
G36*
X1480566D02*
X1478801Y283661D01*
X1477304Y282662D01*
X1476304Y281165D01*
X1475953Y279400D01*
X1476304Y277635D01*
X1477304Y276138D01*
X1478801Y275138D01*
X1480566Y274787D01*
X1482331Y275138D01*
X1483828Y276138D01*
X1484828Y277635D01*
X1485179Y279400D01*
X1484828Y281165D01*
X1483828Y282662D01*
X1482331Y283661D01*
X1480566Y284013D01*
D02*
G37*
G36*
X1392356D02*
X1390591Y283661D01*
X1389094Y282662D01*
X1388094Y281165D01*
X1387743Y279400D01*
X1388094Y277635D01*
X1389094Y276138D01*
X1390591Y275138D01*
X1392356Y274787D01*
X1394121Y275138D01*
X1395618Y276138D01*
X1396617Y277635D01*
X1396969Y279400D01*
X1396617Y281165D01*
X1395618Y282662D01*
X1394121Y283661D01*
X1392356Y284013D01*
D02*
G37*
G36*
X876076D02*
X874311Y283661D01*
X872814Y282662D01*
X871814Y281165D01*
X871463Y279400D01*
X871814Y277635D01*
X872814Y276138D01*
X874311Y275138D01*
X876076Y274787D01*
X877841Y275138D01*
X879337Y276138D01*
X880337Y277635D01*
X880688Y279400D01*
X880337Y281165D01*
X879337Y282662D01*
X877841Y283661D01*
X876076Y284013D01*
D02*
G37*
G36*
X613410Y336422D02*
X608463Y336032D01*
X603638Y334874D01*
X599054Y332975D01*
X594823Y330382D01*
X591050Y327160D01*
X587828Y323387D01*
X585235Y319156D01*
X583336Y314572D01*
X582178Y309747D01*
X581788Y304800D01*
X582178Y299853D01*
X583336Y295028D01*
X585235Y290444D01*
X587828Y286213D01*
X591050Y282440D01*
X594823Y279218D01*
X599054Y276625D01*
X603638Y274726D01*
X608463Y273568D01*
X613410Y273179D01*
X618357Y273568D01*
X623182Y274726D01*
X627766Y276625D01*
X631997Y279218D01*
X635770Y282440D01*
X638992Y286213D01*
X641585Y290444D01*
X643484Y295028D01*
X644642Y299853D01*
X645032Y304800D01*
X644642Y309747D01*
X643484Y314572D01*
X641585Y319156D01*
X638992Y323387D01*
X635770Y327160D01*
X631997Y330382D01*
X627766Y332975D01*
X623182Y334874D01*
X618357Y336032D01*
X613410Y336422D01*
D02*
G37*
G36*
X1773410Y336422D02*
X1768463Y336032D01*
X1763638Y334874D01*
X1759054Y332975D01*
X1754823Y330382D01*
X1751050Y327160D01*
X1747828Y323387D01*
X1745235Y319156D01*
X1743336Y314572D01*
X1742178Y309747D01*
X1741788Y304800D01*
X1742178Y299853D01*
X1743336Y295028D01*
X1745235Y290444D01*
X1747828Y286213D01*
X1751050Y282440D01*
X1754823Y279218D01*
X1759054Y276625D01*
X1763638Y274726D01*
X1768463Y273568D01*
X1773410Y273179D01*
X1778357Y273568D01*
X1783182Y274726D01*
X1787766Y276625D01*
X1791997Y279218D01*
X1795770Y282440D01*
X1798992Y286213D01*
X1801585Y290444D01*
X1803484Y295028D01*
X1804642Y299853D01*
X1805031Y304800D01*
X1804642Y309747D01*
X1803484Y314572D01*
X1801585Y319156D01*
X1798992Y323387D01*
X1795770Y327160D01*
X1791997Y330382D01*
X1787766Y332975D01*
X1783182Y334874D01*
X1778357Y336032D01*
X1773410Y336422D01*
D02*
G37*
G36*
X1253410D02*
X1248463Y336032D01*
X1243638Y334874D01*
X1239054Y332975D01*
X1234823Y330382D01*
X1231050Y327160D01*
X1227828Y323387D01*
X1225235Y319156D01*
X1223336Y314572D01*
X1222178Y309747D01*
X1221788Y304800D01*
X1222178Y299853D01*
X1223336Y295028D01*
X1225235Y290444D01*
X1227828Y286213D01*
X1231050Y282440D01*
X1234823Y279218D01*
X1239054Y276625D01*
X1243638Y274726D01*
X1248463Y273568D01*
X1253410Y273179D01*
X1258357Y273568D01*
X1263182Y274726D01*
X1267766Y276625D01*
X1271997Y279218D01*
X1275770Y282440D01*
X1278992Y286213D01*
X1281585Y290444D01*
X1283484Y295028D01*
X1284642Y299853D01*
X1285031Y304800D01*
X1284642Y309747D01*
X1283484Y314572D01*
X1281585Y319156D01*
X1278992Y323387D01*
X1275770Y327160D01*
X1271997Y330382D01*
X1267766Y332975D01*
X1263182Y334874D01*
X1258357Y336032D01*
X1253410Y336422D01*
D02*
G37*
G36*
X1133410Y336421D02*
X1128463Y336032D01*
X1123638Y334874D01*
X1119054Y332975D01*
X1114823Y330382D01*
X1111050Y327160D01*
X1107828Y323387D01*
X1105235Y319156D01*
X1103336Y314571D01*
X1102178Y309747D01*
X1101788Y304800D01*
X1102178Y299853D01*
X1103336Y295028D01*
X1105235Y290444D01*
X1107828Y286213D01*
X1111050Y282440D01*
X1114823Y279218D01*
X1119054Y276625D01*
X1123638Y274726D01*
X1128463Y273568D01*
X1133410Y273179D01*
X1138357Y273568D01*
X1143182Y274726D01*
X1147766Y276625D01*
X1151997Y279218D01*
X1155770Y282440D01*
X1158992Y286213D01*
X1161585Y290444D01*
X1163484Y295028D01*
X1164642Y299853D01*
X1165032Y304800D01*
X1164642Y309747D01*
X1163484Y314571D01*
X1161585Y319156D01*
X1158992Y323387D01*
X1155770Y327160D01*
X1151997Y330382D01*
X1147766Y332975D01*
X1143182Y334874D01*
X1138357Y336032D01*
X1133410Y336421D01*
D02*
G37*
G36*
X1264920Y266233D02*
X1263155Y265882D01*
X1261658Y264882D01*
X1261239Y264254D01*
X1259711D01*
X1259292Y264882D01*
X1257795Y265882D01*
X1256030Y266233D01*
X1254265Y265882D01*
X1252768Y264882D01*
X1252349Y264254D01*
X1250821D01*
X1250402Y264882D01*
X1248905Y265882D01*
X1247140Y266233D01*
X1245375Y265882D01*
X1243878Y264882D01*
X1243459Y264254D01*
X1241931D01*
X1241512Y264882D01*
X1240015Y265882D01*
X1238250Y266233D01*
X1236485Y265882D01*
X1234988Y264882D01*
X1234569Y264254D01*
X1233041D01*
X1232622Y264882D01*
X1231125Y265882D01*
X1229360Y266233D01*
X1227595Y265882D01*
X1226098Y264882D01*
X1225098Y263385D01*
X1224747Y261620D01*
X1225098Y259855D01*
X1226098Y258358D01*
X1226727Y257939D01*
Y256411D01*
X1226098Y255992D01*
X1225098Y254495D01*
X1224747Y252730D01*
X1225098Y250965D01*
X1226098Y249468D01*
X1227595Y248468D01*
X1229360Y248117D01*
X1231125Y248468D01*
X1232622Y249468D01*
X1233041Y250096D01*
X1234569D01*
X1234988Y249468D01*
X1236485Y248468D01*
X1238250Y248117D01*
X1240015Y248468D01*
X1241512Y249468D01*
X1241931Y250096D01*
X1243459D01*
X1243878Y249468D01*
X1245375Y248468D01*
X1247140Y248117D01*
X1248905Y248468D01*
X1250402Y249468D01*
X1250821Y250096D01*
X1252349D01*
X1252768Y249468D01*
X1254265Y248468D01*
X1256030Y248117D01*
X1257795Y248468D01*
X1259292Y249468D01*
X1259711Y250096D01*
X1261239D01*
X1261658Y249468D01*
X1263155Y248468D01*
X1264920Y248117D01*
X1266685Y248468D01*
X1268182Y249468D01*
X1269182Y250965D01*
X1269533Y252730D01*
X1269182Y254495D01*
X1268182Y255992D01*
X1267553Y256411D01*
Y257939D01*
X1268182Y258358D01*
X1269182Y259855D01*
X1269533Y261620D01*
X1269182Y263385D01*
X1268182Y264882D01*
X1266685Y265882D01*
X1264920Y266233D01*
D02*
G37*
G36*
X1464310Y264963D02*
X1462545Y264611D01*
X1461048Y263612D01*
X1460049Y262115D01*
X1459697Y260350D01*
X1460049Y258585D01*
X1461048Y257088D01*
X1462545Y256089D01*
X1464310Y255737D01*
X1466075Y256089D01*
X1467572Y257088D01*
X1468571Y258585D01*
X1468923Y260350D01*
X1468571Y262115D01*
X1467572Y263612D01*
X1466075Y264611D01*
X1464310Y264963D01*
D02*
G37*
G36*
X1311823Y257946D02*
X1310058Y257595D01*
X1308562Y256595D01*
X1307562Y255098D01*
X1307211Y253333D01*
X1307562Y251568D01*
X1308562Y250072D01*
X1310058Y249072D01*
X1311823Y248721D01*
X1313588Y249072D01*
X1315085Y250072D01*
X1316085Y251568D01*
X1316436Y253333D01*
X1316085Y255098D01*
X1315085Y256595D01*
X1313588Y257595D01*
X1311823Y257946D01*
D02*
G37*
G36*
X1581753Y256676D02*
X1579988Y256325D01*
X1578492Y255325D01*
X1577492Y253828D01*
X1577141Y252063D01*
X1577492Y250298D01*
X1578492Y248802D01*
X1579988Y247802D01*
X1581753Y247451D01*
X1583518Y247802D01*
X1585015Y248802D01*
X1586015Y250298D01*
X1586366Y252063D01*
X1586015Y253828D01*
X1585015Y255325D01*
X1583518Y256325D01*
X1581753Y256676D01*
D02*
G37*
G36*
X1402103D02*
X1400338Y256325D01*
X1398842Y255325D01*
X1397842Y253828D01*
X1397491Y252063D01*
X1397842Y250298D01*
X1398842Y248802D01*
X1400338Y247802D01*
X1402103Y247451D01*
X1403868Y247802D01*
X1405365Y248802D01*
X1406365Y250298D01*
X1406716Y252063D01*
X1406365Y253828D01*
X1405365Y255325D01*
X1403868Y256325D01*
X1402103Y256676D01*
D02*
G37*
G36*
X1492250Y256073D02*
X1490485Y255721D01*
X1488988Y254722D01*
X1487988Y253225D01*
X1487637Y251460D01*
X1487988Y249695D01*
X1488988Y248198D01*
X1490485Y247199D01*
X1492250Y246847D01*
X1494015Y247199D01*
X1495512Y248198D01*
X1496512Y249695D01*
X1496863Y251460D01*
X1496512Y253225D01*
X1495512Y254722D01*
X1494015Y255721D01*
X1492250Y256073D01*
D02*
G37*
%LPD*%
D17*
X558800Y440690D02*
X628650D01*
X558800Y593090D02*
Y788670D01*
Y237490D02*
Y440690D01*
X628650D02*
Y593090D01*
X558800D02*
X628650D01*
X1828800Y567690D02*
Y650875D01*
Y375285D02*
Y447040D01*
X1765300D02*
X1828800D01*
X1765300D02*
Y567690D01*
X1828800D01*
Y650875D02*
Y788670D01*
Y237490D02*
Y375285D01*
X558800Y237490D02*
X1828800D01*
X558800Y788670D02*
X1828800D01*
D63*
X847090Y678180D02*
D03*
X1014730Y739140D02*
D03*
X1040130Y688340D02*
D03*
X1014730Y662940D02*
D03*
D68*
X946150Y419100D02*
D03*
X1649730Y622300D02*
D03*
X1634490Y617220D02*
D03*
X1624330Y379730D02*
D03*
X1615440Y411480D02*
D03*
X1028700Y501650D02*
D03*
X1022350Y497840D02*
D03*
X1001295Y500033D02*
D03*
X1440180Y492760D02*
D03*
X1431290D02*
D03*
X1705610Y326390D02*
D03*
X1710690Y331470D02*
D03*
X1496060Y287020D02*
D03*
X1403350Y280670D02*
D03*
X1587500Y287020D02*
D03*
X1197610Y391160D02*
D03*
X1271270Y447040D02*
D03*
Y454660D02*
D03*
Y424180D02*
D03*
X1251436Y471405D02*
D03*
X1243816D02*
D03*
X1393190Y478790D02*
D03*
X1122680Y580390D02*
D03*
X1297940Y424180D02*
D03*
X1290320Y417830D02*
D03*
X840740Y457200D02*
D03*
X833120Y462280D02*
D03*
X835660Y441960D02*
D03*
X914400Y459740D02*
D03*
X942340Y402590D02*
D03*
X941070Y379730D02*
D03*
X900430Y412750D02*
D03*
X863600Y464820D02*
D03*
X877570D02*
D03*
X918210Y541020D02*
D03*
X924560Y565150D02*
D03*
X957580Y551180D02*
D03*
X988060Y553720D02*
D03*
X1003300Y527670D02*
D03*
X1025813Y539307D02*
D03*
X958850Y532130D02*
D03*
X1004570Y455930D02*
D03*
X855980Y419100D02*
D03*
X993140Y580390D02*
D03*
X920750Y508000D02*
D03*
X648970Y563880D02*
D03*
X711200Y491490D02*
D03*
X1322070Y607060D02*
D03*
X1220470Y391160D02*
D03*
X1205230D02*
D03*
X1212850D02*
D03*
X1407160Y537210D02*
D03*
X1320800Y424180D02*
D03*
X1271270Y439420D02*
D03*
X1512570Y532130D02*
D03*
X1504950D02*
D03*
X1497330D02*
D03*
X1520190D02*
D03*
X1543050D02*
D03*
X1535430D02*
D03*
X1527810D02*
D03*
X1454150Y618490D02*
D03*
X924560Y763270D02*
D03*
X1374140Y707390D02*
D03*
X789940Y607060D02*
D03*
X878840Y560070D02*
D03*
X843280Y572770D02*
D03*
X798830Y513080D02*
D03*
X791210D02*
D03*
X775970D02*
D03*
X783590D02*
D03*
X768350Y570230D02*
D03*
X1120140Y469900D02*
D03*
X1127760D02*
D03*
X1108710Y464820D02*
D03*
X1112520Y469900D02*
D03*
X1271270Y408940D02*
D03*
Y431800D02*
D03*
Y416560D02*
D03*
Y401320D02*
D03*
X1245870Y391160D02*
D03*
X1268730D02*
D03*
X1261110D02*
D03*
X1253490D02*
D03*
X1238250D02*
D03*
X1228090D02*
D03*
X1165860D02*
D03*
X1188720D02*
D03*
X1181100D02*
D03*
X1173480D02*
D03*
X1158240D02*
D03*
X1125220D02*
D03*
X1148080D02*
D03*
X1140460D02*
D03*
X1132840D02*
D03*
X1117600D02*
D03*
X1108710Y417830D02*
D03*
Y394970D02*
D03*
Y402590D02*
D03*
Y410210D02*
D03*
Y425450D02*
D03*
X833120Y372110D02*
D03*
X1177290Y529590D02*
D03*
X1141730Y534670D02*
D03*
X1160780Y509270D02*
D03*
X1334770Y527050D02*
D03*
X1414780Y524510D02*
D03*
X1339850Y411480D02*
D03*
X1590040Y720090D02*
D03*
X1614170Y759460D02*
D03*
X1700530Y736600D02*
D03*
X1709420D02*
D03*
X1692910Y367030D02*
D03*
X1564640Y433070D02*
D03*
X1526540Y490220D02*
D03*
X1668780Y450850D02*
D03*
X1564640Y521970D02*
D03*
X1468120Y533400D02*
D03*
X1466850Y429260D02*
D03*
X1459230D02*
D03*
X1436370Y455930D02*
D03*
X1474470Y429260D02*
D03*
X1475740Y525780D02*
D03*
Y533400D02*
D03*
X1685290Y571500D02*
D03*
X1668780D02*
D03*
X1625600Y487680D02*
D03*
X1632334Y507904D02*
D03*
X1668780Y435610D02*
D03*
X1685290Y548640D02*
D03*
X1668780D02*
D03*
X1014730Y251460D02*
D03*
X1336040Y565150D02*
D03*
Y580390D02*
D03*
X1407160Y524510D02*
D03*
Y530860D02*
D03*
X1414780D02*
D03*
X1670050Y622300D02*
D03*
X1685290D02*
D03*
X1692910D02*
D03*
X1677670D02*
D03*
Y382270D02*
D03*
X1692910D02*
D03*
X1685290D02*
D03*
X1670050D02*
D03*
X1713230Y500380D02*
D03*
X1727200D02*
D03*
X1720850D02*
D03*
X1733550D02*
D03*
X1748790D02*
D03*
X1756410D02*
D03*
X1741170D02*
D03*
X1684020Y435610D02*
D03*
Y450850D02*
D03*
Y458470D02*
D03*
X1668780D02*
D03*
X1684020Y443230D02*
D03*
X1668780D02*
D03*
Y563880D02*
D03*
X1685290D02*
D03*
X1668780Y556260D02*
D03*
X1685290D02*
D03*
X1700530Y331470D02*
D03*
X1592270Y280670D02*
D03*
X1501140D02*
D03*
X1322070Y281940D02*
D03*
X1412620Y280670D02*
D03*
X1409700Y770890D02*
D03*
X1463040Y779780D02*
D03*
X1461770Y706120D02*
D03*
Y697230D02*
D03*
X1374140Y698500D02*
D03*
X1366520Y707390D02*
D03*
Y698500D02*
D03*
X1236196Y471405D02*
D03*
X1213336D02*
D03*
X1529080Y468630D02*
D03*
X1391920Y417830D02*
D03*
X1492250Y488950D02*
D03*
X1400810Y478790D02*
D03*
X1518920Y490220D02*
D03*
X1423670Y448310D02*
D03*
Y440690D02*
D03*
Y433070D02*
D03*
Y455930D02*
D03*
X1436370Y448310D02*
D03*
Y440690D02*
D03*
Y433070D02*
D03*
X1482090Y429260D02*
D03*
X1357630Y541020D02*
D03*
X1310640Y533400D02*
D03*
X1527810Y524510D02*
D03*
X1535430D02*
D03*
X1543050D02*
D03*
X1520190D02*
D03*
X1497330D02*
D03*
X1504950D02*
D03*
X1512570D02*
D03*
X1483360Y525780D02*
D03*
Y533400D02*
D03*
X1430020Y532130D02*
D03*
X1468120Y525780D02*
D03*
X1414780Y537210D02*
D03*
X1216660Y509270D02*
D03*
X1193800D02*
D03*
X1201420D02*
D03*
X1209040D02*
D03*
X1183640D02*
D03*
X1168400D02*
D03*
X1176020D02*
D03*
X1374140Y609600D02*
D03*
X1336040Y572770D02*
D03*
Y557530D02*
D03*
X1347470D02*
D03*
Y580390D02*
D03*
Y572770D02*
D03*
Y565150D02*
D03*
X1313180Y424180D02*
D03*
X1490980Y595630D02*
D03*
X1040130Y251460D02*
D03*
X1003300D02*
D03*
X977900D02*
D03*
X951959Y250190D02*
D03*
X927100Y251460D02*
D03*
X805180Y250190D02*
D03*
X779780D02*
D03*
X754380Y251460D02*
D03*
X729615D02*
D03*
X704850D02*
D03*
X676910Y247650D02*
D03*
X1564640Y532130D02*
D03*
Y553720D02*
D03*
Y543560D02*
D03*
Y565150D02*
D03*
Y422910D02*
D03*
Y466090D02*
D03*
Y444500D02*
D03*
Y454660D02*
D03*
X1358900Y707390D02*
D03*
Y698500D02*
D03*
X1477010Y697230D02*
D03*
Y706120D02*
D03*
X1412240Y697230D02*
D03*
Y706120D02*
D03*
X1469390D02*
D03*
Y697230D02*
D03*
X1421130Y706120D02*
D03*
Y697230D02*
D03*
X861060Y595630D02*
D03*
X862330Y541020D02*
D03*
X806450Y565150D02*
D03*
Y556260D02*
D03*
X777240Y570230D02*
D03*
X758190D02*
D03*
X762000Y473710D02*
D03*
X1290320Y424180D02*
D03*
X1305560D02*
D03*
X638810Y676910D02*
D03*
X654050Y703580D02*
D03*
X1108710Y449580D02*
D03*
Y441960D02*
D03*
Y434340D02*
D03*
X1337310Y246380D02*
D03*
X1426210D02*
D03*
X1492250Y280670D02*
D03*
X1515110Y246380D02*
D03*
X1314720Y285750D02*
D03*
X1331230Y281940D02*
D03*
X1408430Y287020D02*
D03*
X1421510Y280670D02*
D03*
X1510030D02*
D03*
X1606550Y246380D02*
D03*
X1583690Y280670D02*
D03*
X1601160D02*
D03*
X972820Y487680D02*
D03*
Y495300D02*
D03*
X1108710Y457200D02*
D03*
X882650Y377190D02*
D03*
Y383540D02*
D03*
X853440Y384810D02*
D03*
Y377190D02*
D03*
X966470Y487680D02*
D03*
Y495300D02*
D03*
X736600Y704850D02*
D03*
X576580Y351790D02*
D03*
X1692910Y331470D02*
D03*
X1220956Y471405D02*
D03*
X1228576D02*
D03*
M02*
