M48
;Layer_Color=9474304
;FILE_FORMAT=4:4
METRIC,LZ
;TYPE=PLATED
T1F00S00C0.3000
T2F00S00C0.8636
T3F00S00C0.8890
%
T01
X0031811Y0021397
X0034605
X00370815
X0039558
X0042098Y002127
X0044638
X00517276Y0024191
X005683Y0021397
X00593159Y002127
X006191Y0021397
X006445
X0065593
X0068133
X0062291Y0032446
X0063053Y0035113
X006064Y0038034
X0058354Y003651
X0058227Y0034224
X0055941Y0034732
X0052375Y0034725
X0052385Y003397
X0052305Y0035864
X0051543
X0051708Y00381002
X0052639Y003778
X0054163Y0037526
X0050607Y003778
X0049718Y0038161
X0049464Y0034732
Y003397
X0049493Y0032989
X0050255
X0045775Y0034125
X0045725Y003555
X0044375Y003585
X0074991Y0035748
Y003651
Y0037272
Y0038034
Y0038796
Y0039685
X007588Y0035367
X0076642
X0077404
X0078166
X0078928
X0079944
X0080706
X0081468
X008223
X0082992
X0083881
X0084643
X0085405
X0086167
X0086929
X0087945
X0088707
X0089469
X0090231
X0090993
X0091247Y0036383
Y0037145
Y0037907
Y0038669
Y0039431
X00898995Y00385886
X0093025Y0038475
X0093787
X0094549
X0095311
X0096375
X0097225Y003845
X00988Y0038575
X009875Y00333
X00979Y0032875
X0100518Y0032446
X010128Y0031938
X0100264Y0027366
Y0026604
Y0025715
Y0024826
X0097243Y0024445
X00965Y002445
X00958Y0024425
X0095425Y0025025
X0095496Y0025969
X0095527Y0026858
Y0027747
X0094511
X0095525Y0023
X00953023Y00215843
X0097851Y0020889
X0101661
X01043303Y00214573
X010465Y002295
X0104455Y0024318
X0105382
X0106271
X0104963Y0024953
X0105217Y0027651
X0104328
X0103312Y002762
X0106106
X0109154Y0027366
Y0026604
Y0025715
Y0024826
X0110551Y0022286
X01135Y00229
X0113345Y0024318
X0114234
X0115123
X0113726Y0024953
X0113853Y002762
X0112964
X0112075
X0114742Y0027589
X0117917Y0027366
Y0026604
Y0025715
Y0024826
X0115631Y0020889
X0113345Y0021397
X0106741Y0020889
X0092263
X0090612Y0021524
X0089723
X0088834
X0087945
X0087056
Y0022413
X0087945
X0088834
X0089723
X0090612
X008096Y0036383
X01049Y003785
X0106487Y0039558
X0107757
X0110043Y0039177
X0110805
X0111567
X0112329
X0117155Y0035494
Y0034859
X0117917
Y0035494
X0118679
Y0034859
Y0034097
Y0033462
Y0032827
X0117917
Y0033462
Y0034097
X0117155
Y0033462
Y0032827
X0119441
Y0033462
Y0034097
Y0034859
Y0035494
X0120584Y0038542
Y0039558
X012287
Y0038542
X0125664Y0037399
X0125791Y0036637
X0126553Y0034224
X0128966Y0032065
X013049Y0029525
Y0028636
Y0027874
Y0026985
X0127061Y0026731
Y0027493
Y0025842
Y0024953
X0124236Y0024318
X0123347
X0122489
X012287Y0024953
X0122675Y002295
X01222953Y00214573
X0124775Y0020889
X0119187
X0120838Y002762
X0121854
X0122743
X0123632Y0027589
X0133411Y0029398
X0134173
X0134681Y002889
X0135189Y0029398
X0135025Y00307
X0133411Y0032954
Y0034478
X0132649
X0131887
X0131125
X0129728Y0036256
X0132776Y0036129
X013303Y0036891
X0136332Y0037399
Y0038161
Y00388959
X0140777Y0036891
Y0036129
X0141666
Y0036891
X0142555
Y0036129
X0142301Y0034732
Y003397
X0141412
Y0034732
X0140523
Y003397
X0143698Y00327
Y0031938
X0144587
Y00327
X0145476
Y0031938
Y0038034
Y0038796
X0144587
Y0038034
X0143698
Y0038796
X0138872Y0029906
X0137221Y0026223
X0136332
X0135443
X0134427
X0132522Y0039812
Y0040574
Y0041336
Y0042098
X0130998
Y0041336
Y0040574
Y0039812
X01357788Y00404922
X0136459Y0040701
Y0041463
X0137094
Y0040447
X01357832Y00414534
X0135951Y00432435
X0136459Y0043749
X0135951Y0044257
X0136205Y0046289
X013684
X0137475
X0138237
X0138999
X0139761
X0135443
X0135062Y004794
X0133792Y0047686
X0133538Y0046924
Y0045273
X0132014
X013049Y00454
X0129728Y0045908
X0128815Y0045932
X01291565Y00452095
X01276526Y00448987
X01272264Y00455366
X012668Y0045019
X01269271Y00426129
X012287Y004286
Y0041717
Y0040701
X0120584
Y0041717
Y004286
Y0048448
Y0049464
Y0050607
Y0051623
Y0052766
X012287Y005302
Y0051877
Y0050861
Y0049718
Y0048702
X0126807Y0047559
X01273534Y00470414
X0128077Y0046289
X0130998Y0051115
Y0051877
Y0052639
Y0053401
X0132649
Y0052639
Y0051877
Y0051115
X01364567Y00518275
X0137175Y0051825
X0137856Y0051877
X01369817Y00525776
X013635Y0052725
X01357356Y00525488
X0136078Y00543642
X01361415Y00551155
X01361098Y00557822
X0133157Y005683
X0131633
X0129982
X01277871Y00564849
X0127569Y0057973
X0128458
X0129093Y0058481
X0129474Y005937
X0131125Y0058481
X0131887
X0132649
X0133411
X0126807Y0058354
X0126934Y0059878
X01233783Y00617362
X0119822Y00597876
Y00591526
Y00585176
X0123124Y0067498
Y006826
X0125537Y0072197
X0134173Y0069911
X0135062
X01350282Y00688018
X0134173Y00688355
X014065Y0060259
Y0059497
X0141539
Y0060259
X0142428
Y0059497
Y00581
Y0057338
X0141539
Y00581
X014065
Y0057338
X01438106Y00560124
Y00552504
X01446996
Y00560124
X01455886
Y00552504
X0145603Y0061529
Y0062291
X0144714
Y0061529
X0143825
Y0062291
X01363399Y0050099
X0136459Y0049464
Y0048829
X0118425Y0048702
Y0049464
X0117663
X0116901
X0116139
X0115377
X0114615
X0113853
Y0048702
X0114615
X0115377
X0116139
X0116901
X0117663
X0116774Y0045273
X0116012
Y0043114
X0117028
X0117917Y0042225
X01150306Y00424021
X01135055Y00429521
X0107757Y0041844
Y0041082
Y004032
X0106487
Y0041082
Y0041844
X0104925Y0044175
Y0044925
X0104709Y0045908
X010313Y00459522
X010265Y00441
X010815Y0045325
X0107425Y004865
X0105598Y0048702
Y0049337
Y0049972
X0104836
Y0049337
Y0048702
X0104709Y0050988
X01039301Y00509525
X010333Y00504775
X0102804Y0051115
X0098867Y0052004
Y0052766
Y0053528
Y005429
X0097724
Y0053528
Y0052766
Y0052004
X00949Y005495
X00931045Y00550527
X0096217Y005719
X0101542
X0101405Y00546027
X0103693Y0055306
X0106168Y0057714
X0111313Y0056068
X0113218Y0055814
Y0055052
X01153556Y00553027
X011525Y0058514
Y0059149
Y0059784
X0116012
Y0059149
Y0058514
X0116774
Y0059149
Y0059784
X0117536
Y0059149
Y0058514
X0118298
Y0059149
Y0059784
X011906Y00597876
Y00591526
Y00585176
X0114488Y0058514
Y0059149
Y0059784
Y006826
X0115377
Y0069149
X0114488
X0113599
Y006826
X011271
Y0069149
X0111821Y0066863
X0111059
X0110297
Y0065974
X0111059
X0111821
X0106233
X0105344
Y0066863
X0106233
X0101534Y006699
X0100772
X010001
Y0066101
X0100772
X0101534
X00993Y006125
X00983Y0061225
X00909003Y00611817
X00914075Y00617785
X00887072Y00617821
X00890794Y0060653
X0088175Y0060675
X0086825Y0061225
X00929Y00655
X0100518Y0074102
X0103058Y0073467
X0103947Y0072451
X010509Y007334
X0106487Y00735066
Y0074175
X0107249
X0108025
X0110424
X01111804Y00741786
X01122Y0074175
X011335
X011652Y0072832
X0117409
Y0071943
Y0071054
X011652
Y0071943
Y0070165
X0117409
X0112456Y0049591
X0111694
X0110932
X0110207
Y0048829
X0110932
X0111694
X0112456
X0093575Y00487
X00941296Y00497274
X0094075Y00463
X00932Y0046225
X0091675Y0046275
X00905544Y00434021
X00910794Y00428271
X00918Y0042275
X00920295Y0041502
X0091247Y0041717
Y0040955
Y0040193
X00919545Y0040577
X00892636Y00433915
X00885016
X00877396
X00869776
X00862156
X00854536
X0082357Y0043495
X0079944Y0043368
X0080198Y0047178
X008096
X0081722
X0082484
X00835
X0084262
X0085024
X0085786
X008731Y0045781
X00862292Y00398019
X00845791
X0082029
X0081849Y004921
X00765Y00497
X0076475Y00487
X0077531Y0050861
X0078166Y005175
X0077775Y00526
X0076896Y0052385
X0076388Y005429
X007842
X0076642Y0056703
X0075753
Y0057592
Y0058481
X0076642
Y005937
X0075753
X0076642Y0057592
X00644Y0057775
X00646Y00591
X0063775Y0058775
X0063434Y005429
X0062926Y0051623
X0063053Y0049253
X006445Y0049018
X0066228Y0049591
X00667013Y00501817
X0066228Y0050861
X0066355Y0046035
X006699Y0046416
X00642495Y00462542
X0062414Y0046045
Y0046807
X0062407Y0047511
X0061645
X0060767Y0049337
X0060005Y0049464
X0059878Y0051369
X0058989
X0056576Y0052004
Y0052766
X0055941Y0050353
X0055814Y0049464
X0054275Y004825
X0056195Y0047051
X0056068Y0045908
X00577136Y00449784
X0059736Y0045218
X0059743Y0044539
X0060505
X0059736Y004598
X0061275Y0042606
X0060767Y0041844
X0064577
X0067625Y0041971
X00666342Y00432816
X0075372Y0043241
X0076134
X0076896
X0077023Y0041336
X0074991Y0041209
Y0040447
Y0041971
Y0042733
X005683Y0042352
X005556Y0042225
X0051877Y0042733
X0050125Y004275
X0050099Y0043876
X00506447Y00444284
X0051242Y0045019
X0048194Y0041971
Y0041082
X0047686Y0040447
X0046289
X0047178Y0041717
X0047432Y0042479
X0044765Y0043495
X0044892Y0044765
X0043106Y0043749
X004032Y0043622
X0040955Y0044765
X0041717Y0047559
X0042479
X0043241
X0044003
X00452Y0050825
X0044765Y0051877
Y0052766
X00468945Y0053782
X0048448Y0053528
X0047686Y0052385
X00477658Y0051623
X0050353Y0050353
X0052004Y0052258
X0050353Y005429
X00503Y0055425
X0047686Y0056576
X00455Y0056075
X00442772Y00581028
X00439004Y00587901
X0043114Y0056957
X00415315Y00568985
X0040828Y0056449
X0039939Y0056576
Y0053274
X0040955
X0041844
X00397879Y0066736
X0041844Y0069403
X0056075Y007095
X005835Y00668
X0058875Y00661
X0060828Y00651032
X00618Y0065125
X0063815Y0068514
X0057325Y00598
X00566Y0059275
X00532526Y0060428
X0052225Y0060525
X005065Y0060425
X0059025Y0039725
X0034986Y0042352
X00341605Y00433045
X0033081Y0042733
X0033843Y004159
X003524Y0044384
Y00454
X0034986Y0046162
X0033208Y0046416
X0032446Y0047305
Y0048829
X0032573Y0052131
X0033335Y0052004
X00353035Y00515595
X0035875Y0050861
X0036383Y0049591
X003651Y0052423
X0036129Y0053274
X0035113
X0029017Y0052639
X0039304Y0055814
X003778Y0066736
X00317955Y0066609
X0029525
X0033589Y006953
T02
X0041971Y0061529
Y0064069
X0048829
Y0061529
X0051369
Y0064069
X0053909
Y0061529
X0065593Y0062545
Y0065085
X0068133
Y0067625
X0065593
Y0070165
X0068133
Y0072705
X0065593
X0068133Y0062545
Y0060005
X0065593
Y0057465
X0068133
X0039431Y0061529
Y0064069
T03
X0048575Y0068768
X0051115
X0053655
Y007207
X0051115
X0048575
M30
