G04*
G04 #@! TF.GenerationSoftware,Altium Limited,Altium Designer,19.1.5 (86)*
G04*
G04 Layer_Color=8421504*
%FSLAX44Y44*%
%MOMM*%
G71*
G01*
G75*
%ADD17R,0.7400X2.9200*%
%ADD18R,0.4000X0.6000*%
%ADD19R,1.3000X0.8000*%
%ADD20R,1.3716X0.5080*%
%ADD21R,0.3500X1.4000*%
%ADD22R,0.6000X0.4000*%
%ADD23R,0.6000X0.4500*%
%ADD24R,0.4500X0.6000*%
%ADD25R,1.2700X0.5588*%
%ADD26R,0.9000X0.2600*%
%ADD27R,0.2600X0.9000*%
%ADD28R,2.0700X3.0700*%
%ADD29R,0.8000X0.6000*%
%ADD30R,1.0000X1.6000*%
%ADD31R,1.3000X0.7000*%
%ADD32R,0.7000X0.9000*%
%ADD33R,2.0250X2.6800*%
%ADD34R,1.5700X0.4100*%
%ADD35R,0.7000X1.3000*%
%ADD36R,0.5000X0.9000*%
%ADD37R,0.9000X0.5000*%
%ADD38R,0.3500X0.8500*%
%ADD39R,5.4100X1.8800*%
%ADD40R,1.4224X5.4102*%
%ADD41R,1.6000X1.0000*%
%ADD42R,0.8500X0.3500*%
G36*
X1326677Y523240D02*
X1319860D01*
Y533263D01*
X1326677D01*
Y523240D01*
D02*
G37*
G36*
X1317657D02*
X1310860D01*
Y533275D01*
X1317657D01*
Y523240D01*
D02*
G37*
G36*
X987490Y521497D02*
X975597D01*
Y539140D01*
X987490D01*
Y521497D01*
D02*
G37*
G36*
X1326670Y511040D02*
X1319860D01*
Y521039D01*
X1326670D01*
Y511040D01*
D02*
G37*
G36*
X1317656D02*
X1310860D01*
Y521036D01*
X1317656D01*
Y511040D01*
D02*
G37*
G36*
X1325517Y410650D02*
X1318700D01*
Y420673D01*
X1325517D01*
Y410650D01*
D02*
G37*
G36*
X1316497D02*
X1309700D01*
Y420685D01*
X1316497D01*
Y410650D01*
D02*
G37*
G36*
X1325510Y398450D02*
X1318700D01*
Y408449D01*
X1325510D01*
Y398450D01*
D02*
G37*
G36*
X1316496D02*
X1309700D01*
Y408446D01*
X1316496D01*
Y398450D01*
D02*
G37*
G36*
X1076390Y397037D02*
X1064497D01*
Y414680D01*
X1076390D01*
Y397037D01*
D02*
G37*
D17*
X777850Y417150D02*
D03*
Y382850D02*
D03*
X790550Y417150D02*
D03*
Y382850D02*
D03*
X803250Y417150D02*
D03*
Y382850D02*
D03*
X815950Y417150D02*
D03*
Y382850D02*
D03*
X828650Y417150D02*
D03*
Y382850D02*
D03*
X841350Y417150D02*
D03*
Y382850D02*
D03*
X854050Y417150D02*
D03*
Y382850D02*
D03*
X866750Y417150D02*
D03*
Y382850D02*
D03*
X879450Y417150D02*
D03*
Y382850D02*
D03*
X892150Y417150D02*
D03*
Y382850D02*
D03*
D18*
X1116360Y451460D02*
D03*
X1107360D02*
D03*
X1043170Y574650D02*
D03*
X1052170D02*
D03*
X968460Y464160D02*
D03*
X959460D02*
D03*
X1108630Y429870D02*
D03*
X1117630D02*
D03*
X883150Y594970D02*
D03*
X892150D02*
D03*
X975280Y464160D02*
D03*
X984280D02*
D03*
X574070Y709270D02*
D03*
X565070D02*
D03*
X922520Y216510D02*
D03*
X931520D02*
D03*
X1012800Y215240D02*
D03*
X1021800D02*
D03*
X1101010D02*
D03*
X1110010D02*
D03*
X1192450D02*
D03*
X1201450D02*
D03*
X1386870Y323190D02*
D03*
X1377870D02*
D03*
X989360Y234290D02*
D03*
X980360D02*
D03*
X1079640Y233020D02*
D03*
X1070640D02*
D03*
X1167850D02*
D03*
X1158850D02*
D03*
X1259290D02*
D03*
X1250290D02*
D03*
X1318180Y313030D02*
D03*
X1327180D02*
D03*
X1291510Y353670D02*
D03*
X1300510D02*
D03*
X1318180Y469240D02*
D03*
X1327180D02*
D03*
X1318870Y361290D02*
D03*
X1309870D02*
D03*
X1327180Y476860D02*
D03*
X1318180D02*
D03*
X1360090Y362560D02*
D03*
X1369090D02*
D03*
X1357550Y479400D02*
D03*
X1366550D02*
D03*
X1275110Y462890D02*
D03*
X1266110D02*
D03*
X1271300Y572110D02*
D03*
X1262300D02*
D03*
X1347390Y354940D02*
D03*
X1356390D02*
D03*
X1347390Y470510D02*
D03*
X1356390D02*
D03*
X1275110Y442570D02*
D03*
X1266110D02*
D03*
X1271300Y563220D02*
D03*
X1262300D02*
D03*
X1266110Y433680D02*
D03*
X1275110D02*
D03*
X1262300Y554330D02*
D03*
X1271300D02*
D03*
X1273840Y375260D02*
D03*
X1264840D02*
D03*
X1277110Y489560D02*
D03*
X1268110D02*
D03*
X1264840Y366370D02*
D03*
X1273840D02*
D03*
X1268110Y481940D02*
D03*
X1277110D02*
D03*
X1262300Y546710D02*
D03*
X1271300D02*
D03*
X1108630Y420980D02*
D03*
X1117630D02*
D03*
X867910Y594970D02*
D03*
X876910D02*
D03*
X1027930Y565760D02*
D03*
X1036930D02*
D03*
X1027930Y574650D02*
D03*
X1036930D02*
D03*
D19*
X1038200Y431140D02*
D03*
Y450140D02*
D03*
X1104240Y402540D02*
D03*
Y383540D02*
D03*
X962000Y579730D02*
D03*
Y560730D02*
D03*
X1119480Y383540D02*
D03*
Y402540D02*
D03*
D20*
X970382Y432410D02*
D03*
X994258D02*
D03*
D21*
X336490Y502920D02*
D03*
X329990D02*
D03*
X323490D02*
D03*
X316990D02*
D03*
X310490D02*
D03*
X303990D02*
D03*
X297490D02*
D03*
X290990D02*
D03*
X336490Y448920D02*
D03*
X329990D02*
D03*
X323490D02*
D03*
X316990D02*
D03*
X310490D02*
D03*
X303990D02*
D03*
X297490D02*
D03*
X290990D02*
D03*
D22*
X1150160Y442566D02*
D03*
Y451566D02*
D03*
X1133450Y424100D02*
D03*
Y433100D02*
D03*
X1143610Y407590D02*
D03*
Y416590D02*
D03*
X1100430Y425370D02*
D03*
Y434370D02*
D03*
X583540Y699690D02*
D03*
Y708690D02*
D03*
X1345540Y452730D02*
D03*
Y461730D02*
D03*
Y567610D02*
D03*
Y576610D02*
D03*
X1327760Y452730D02*
D03*
Y461730D02*
D03*
X1323950Y567610D02*
D03*
Y576610D02*
D03*
X1312520Y452730D02*
D03*
Y461730D02*
D03*
X1307440Y567610D02*
D03*
Y576610D02*
D03*
X1254100Y454110D02*
D03*
Y445110D02*
D03*
X1021690Y419600D02*
D03*
Y428600D02*
D03*
X1113130Y568300D02*
D03*
Y577300D02*
D03*
X1104240Y542210D02*
D03*
Y551210D02*
D03*
X1089000Y542210D02*
D03*
Y551210D02*
D03*
D23*
X1141070Y451380D02*
D03*
Y441380D02*
D03*
X1091540Y441460D02*
D03*
Y451460D02*
D03*
X344780Y453920D02*
D03*
Y443920D02*
D03*
X1122020Y561870D02*
D03*
Y551870D02*
D03*
X1274420Y419630D02*
D03*
Y409630D02*
D03*
Y532660D02*
D03*
Y522660D02*
D03*
X1040740Y377880D02*
D03*
Y387880D02*
D03*
Y394390D02*
D03*
Y404390D02*
D03*
X1104240Y577110D02*
D03*
Y567110D02*
D03*
X1059790Y574570D02*
D03*
Y564570D02*
D03*
X1071220Y574570D02*
D03*
Y564570D02*
D03*
X951840Y502340D02*
D03*
Y512340D02*
D03*
D24*
X1108130Y438760D02*
D03*
X1118130D02*
D03*
X1053520Y371450D02*
D03*
X1063520D02*
D03*
X987320Y499720D02*
D03*
X977320D02*
D03*
X512340Y522580D02*
D03*
X502340D02*
D03*
X493370Y535280D02*
D03*
X503370D02*
D03*
D25*
X1147674Y233528D02*
D03*
Y224130D02*
D03*
Y214732D02*
D03*
X1121766D02*
D03*
Y224130D02*
D03*
Y233528D02*
D03*
X969184Y234798D02*
D03*
Y225400D02*
D03*
Y216002D02*
D03*
X943276D02*
D03*
Y225400D02*
D03*
Y234798D02*
D03*
X1337666Y303632D02*
D03*
Y313030D02*
D03*
Y322428D02*
D03*
X1363574D02*
D03*
Y313030D02*
D03*
Y303632D02*
D03*
X1059464Y233528D02*
D03*
Y224130D02*
D03*
Y214732D02*
D03*
X1033556D02*
D03*
Y224130D02*
D03*
Y233528D02*
D03*
X1239114D02*
D03*
Y224130D02*
D03*
Y214732D02*
D03*
X1213206D02*
D03*
Y224130D02*
D03*
Y233528D02*
D03*
X1147674Y269088D02*
D03*
Y259690D02*
D03*
Y250292D02*
D03*
X1121766D02*
D03*
Y259690D02*
D03*
Y269088D02*
D03*
X969184Y270358D02*
D03*
Y260960D02*
D03*
Y251562D02*
D03*
X943276D02*
D03*
Y260960D02*
D03*
Y270358D02*
D03*
X1239114Y269088D02*
D03*
Y259690D02*
D03*
Y250292D02*
D03*
X1213206D02*
D03*
Y259690D02*
D03*
Y269088D02*
D03*
X1337666Y269342D02*
D03*
Y278740D02*
D03*
Y288138D02*
D03*
X1363574D02*
D03*
Y278740D02*
D03*
Y269342D02*
D03*
X1059464Y269088D02*
D03*
Y259690D02*
D03*
Y250292D02*
D03*
X1033556D02*
D03*
Y259690D02*
D03*
Y269088D02*
D03*
D26*
X965470Y513970D02*
D03*
X999170Y548970D02*
D03*
X965470D02*
D03*
Y543970D02*
D03*
Y538970D02*
D03*
Y533970D02*
D03*
Y528970D02*
D03*
Y523970D02*
D03*
Y518970D02*
D03*
X999170Y513970D02*
D03*
Y518970D02*
D03*
Y523970D02*
D03*
Y528970D02*
D03*
Y533970D02*
D03*
Y538970D02*
D03*
Y543970D02*
D03*
X1054370Y389510D02*
D03*
X1088070Y424510D02*
D03*
X1054370D02*
D03*
Y419510D02*
D03*
Y414510D02*
D03*
Y409510D02*
D03*
Y404510D02*
D03*
Y399510D02*
D03*
Y394510D02*
D03*
X1088070Y389510D02*
D03*
Y394510D02*
D03*
Y399510D02*
D03*
Y404510D02*
D03*
Y409510D02*
D03*
Y414510D02*
D03*
Y419510D02*
D03*
D27*
X974820Y509620D02*
D03*
X989820Y553320D02*
D03*
X974820D02*
D03*
X989820Y509620D02*
D03*
X1063720Y385160D02*
D03*
X1078720Y428860D02*
D03*
X1063720D02*
D03*
X1078720Y385160D02*
D03*
D28*
X982320Y531470D02*
D03*
X1071220Y407010D02*
D03*
D29*
X1271880Y383500D02*
D03*
Y397500D02*
D03*
X1274420Y497800D02*
D03*
Y511800D02*
D03*
X950570Y521930D02*
D03*
Y535930D02*
D03*
D30*
X1216000Y390910D02*
D03*
X1246000D02*
D03*
X1216000Y409960D02*
D03*
X1246000D02*
D03*
X1216000Y428600D02*
D03*
X1246000D02*
D03*
X1216000Y491660D02*
D03*
X1246000D02*
D03*
X1216000Y510710D02*
D03*
X1246000D02*
D03*
X1216000Y529760D02*
D03*
X1246000D02*
D03*
D31*
X1381100Y362560D02*
D03*
Y381560D02*
D03*
X1396340Y362560D02*
D03*
Y381560D02*
D03*
X1392530Y455880D02*
D03*
Y436880D02*
D03*
X1377290Y455880D02*
D03*
Y436880D02*
D03*
X1393800Y469900D02*
D03*
Y488900D02*
D03*
X1378560Y469900D02*
D03*
Y488900D02*
D03*
X1373739Y565100D02*
D03*
Y546100D02*
D03*
X1389990Y565100D02*
D03*
Y546100D02*
D03*
X1180440Y561950D02*
D03*
Y542950D02*
D03*
X1015340Y580340D02*
D03*
Y561340D02*
D03*
X930250Y558750D02*
D03*
Y539750D02*
D03*
D32*
X1280650Y353670D02*
D03*
X1265650D02*
D03*
X1304780Y473050D02*
D03*
X1289780D02*
D03*
D33*
X1317600Y409550D02*
D03*
X1318760Y522140D02*
D03*
D34*
X1288900Y373800D02*
D03*
Y380300D02*
D03*
Y386800D02*
D03*
Y393300D02*
D03*
Y399800D02*
D03*
Y406300D02*
D03*
Y412800D02*
D03*
Y419300D02*
D03*
Y425800D02*
D03*
Y432300D02*
D03*
Y438800D02*
D03*
Y445300D02*
D03*
X1346300D02*
D03*
Y438800D02*
D03*
Y432300D02*
D03*
Y425800D02*
D03*
Y419300D02*
D03*
Y412800D02*
D03*
Y406300D02*
D03*
Y399800D02*
D03*
Y393300D02*
D03*
Y386800D02*
D03*
Y380300D02*
D03*
Y373800D02*
D03*
X1290060Y486390D02*
D03*
Y492890D02*
D03*
Y499390D02*
D03*
Y505890D02*
D03*
Y512390D02*
D03*
Y518890D02*
D03*
Y525390D02*
D03*
Y531890D02*
D03*
Y538390D02*
D03*
Y544890D02*
D03*
Y551390D02*
D03*
Y557890D02*
D03*
X1347460D02*
D03*
Y551390D02*
D03*
Y544890D02*
D03*
Y538390D02*
D03*
Y531890D02*
D03*
Y525390D02*
D03*
Y518890D02*
D03*
Y512390D02*
D03*
Y505890D02*
D03*
Y499390D02*
D03*
Y492890D02*
D03*
Y486390D02*
D03*
D35*
X1153160Y404470D02*
D03*
X1172160D02*
D03*
D36*
X821150Y219050D02*
D03*
X836150D02*
D03*
X732250Y574650D02*
D03*
X747250D02*
D03*
X733520Y446380D02*
D03*
X748520D02*
D03*
X1022840Y410820D02*
D03*
X1007840D02*
D03*
X902430Y541630D02*
D03*
X917430D02*
D03*
D37*
X1133450Y417050D02*
D03*
Y402050D02*
D03*
X1089000Y573260D02*
D03*
Y558260D02*
D03*
X814680Y645890D02*
D03*
Y660890D02*
D03*
D38*
X1172970Y443410D02*
D03*
X1166470D02*
D03*
X1159970D02*
D03*
Y421410D02*
D03*
X1166470D02*
D03*
X1172970D02*
D03*
D39*
X1161390Y528370D02*
D03*
Y473610D02*
D03*
X1100430Y528370D02*
D03*
Y473610D02*
D03*
X1038200Y528370D02*
D03*
Y473610D02*
D03*
D40*
X840207Y551790D02*
D03*
X880593D02*
D03*
D41*
X840080Y479640D02*
D03*
Y509640D02*
D03*
X818490Y479640D02*
D03*
Y509640D02*
D03*
X969620Y377800D02*
D03*
Y407800D02*
D03*
X948030Y377800D02*
D03*
Y407800D02*
D03*
D42*
X1141070Y563370D02*
D03*
Y556870D02*
D03*
Y550370D02*
D03*
X1163070D02*
D03*
Y556870D02*
D03*
Y563370D02*
D03*
M02*
