G04*
G04 #@! TF.GenerationSoftware,Altium Limited,Altium Designer,19.1.5 (86)*
G04*
G04 Layer_Color=65535*
%FSLAX44Y44*%
%MOMM*%
G71*
G01*
G75*
%ADD10C,0.1524*%
%ADD11C,0.0000*%
%ADD12C,0.2000*%
%ADD13C,0.1270*%
%ADD14C,0.3000*%
%ADD15C,0.5000*%
%ADD16C,0.2540*%
%ADD17C,0.1000*%
D10*
X975558Y96520D02*
G03*
X969462Y96520I-3048J0D01*
G01*
X804108Y95250D02*
G03*
X798012Y95250I-3048J0D01*
G01*
X1153668Y97790D02*
G03*
X1147572Y97790I-3048J0D01*
G01*
X890928Y95250D02*
G03*
X884832Y95250I-3048J0D01*
G01*
X1064768Y99060D02*
G03*
X1058672Y99060I-3048J0D01*
G01*
X975868Y62230D02*
G03*
X969772Y62230I-3048J0D01*
G01*
X804108Y60960D02*
G03*
X798012Y60960I-3048J0D01*
G01*
X1064768Y63500D02*
G03*
X1058672Y63500I-3048J0D01*
G01*
X1153668D02*
G03*
X1147572Y63500I-3048J0D01*
G01*
X890928Y60960D02*
G03*
X884832Y60960I-3048J0D01*
G01*
X752348Y232410D02*
G03*
X752348Y232410I-762J0D01*
G01*
X975558Y96520D02*
X977844D01*
X969462D02*
X975558D01*
X967176D02*
X969462D01*
X804108Y95250D02*
X806394D01*
X798012D02*
X804108D01*
X795726D02*
X798012D01*
X1153668Y97790D02*
X1155954D01*
X1147572D02*
X1153668D01*
X1145286D02*
X1147572D01*
X890928Y95250D02*
X893214D01*
X884832D02*
X890928D01*
X882546D02*
X884832D01*
X1064768Y99060D02*
X1067054D01*
X1058672D02*
X1064768D01*
X1056386D02*
X1058672D01*
X975868Y62230D02*
X978154D01*
X969772D02*
X975868D01*
X967486D02*
X969772D01*
X804108Y60960D02*
X806394D01*
X798012D02*
X804108D01*
X795726D02*
X798012D01*
X1064768Y63500D02*
X1067054D01*
X1058672D02*
X1064768D01*
X1056386D02*
X1058672D01*
X1153668D02*
X1155954D01*
X1147572D02*
X1153668D01*
X1145286D02*
X1147572D01*
X890928Y60960D02*
X893214D01*
X884832D02*
X890928D01*
X882546D02*
X884832D01*
X763016Y215138D02*
Y226582D01*
Y238238D02*
Y249682D01*
X801624D01*
Y215138D02*
Y226582D01*
X763016Y215138D02*
X801624D01*
Y238238D02*
Y249682D01*
D11*
X776470Y361570D02*
G03*
X776470Y361570I-2000J0D01*
G01*
X865370Y237110D02*
G03*
X865370Y237110I-2000J0D01*
G01*
D12*
X259665Y322620D02*
G03*
X262915Y322620I1625J0D01*
G01*
X975470Y253910D02*
G03*
X975470Y253910I-2500J0D01*
G01*
X933070Y363370D02*
G03*
X933070Y363370I-2500J0D01*
G01*
X249640Y270620D02*
Y322620D01*
Y270620D02*
X272940D01*
Y322620D01*
X262915D02*
X272940D01*
X249640D02*
X259665D01*
X1037125Y182910D02*
X1047125D01*
X1037125Y198910D02*
X1047125D01*
X1037125Y201960D02*
X1047125D01*
X1037125Y217960D02*
X1047125D01*
X1037670Y220600D02*
X1047670D01*
X1037670Y236600D02*
X1047670D01*
X1201960Y174090D02*
X1205960D01*
X1201960Y186590D02*
X1205960D01*
X1201960Y189330D02*
X1205960D01*
X1201960Y201830D02*
X1205960D01*
X1202525Y213830D02*
X1206525D01*
X1202525Y226330D02*
X1206525D01*
X1202525Y229070D02*
X1206525D01*
X1202525Y241570D02*
X1206525D01*
X1112400Y169310D02*
X1140890D01*
Y155810D02*
Y169310D01*
X1112400Y155810D02*
X1140890D01*
X1033900Y283660D02*
X1043900D01*
X1033900Y299660D02*
X1043900D01*
X1033900Y302710D02*
X1043900D01*
X1033900Y318710D02*
X1043900D01*
X1033900Y321760D02*
X1043900D01*
X1033900Y337760D02*
X1043900D01*
X1203230Y301090D02*
X1207230D01*
X1203230Y313590D02*
X1207230D01*
X1203230Y284580D02*
X1207230D01*
X1203230Y297080D02*
X1207230D01*
X1201960Y344270D02*
X1205960D01*
X1201960Y356770D02*
X1205960D01*
X1201960Y329030D02*
X1205960D01*
X1201960Y341530D02*
X1205960D01*
X1116480Y279800D02*
X1144970D01*
Y266300D02*
Y279800D01*
X1116480Y266300D02*
X1144970D01*
X960660Y210720D02*
X964660D01*
X960660Y198220D02*
X964660D01*
X626650Y24050D02*
X630650D01*
X626650Y14050D02*
X630650D01*
X539020Y344090D02*
X543020D01*
X539020Y334090D02*
X543020D01*
X986690Y350450D02*
Y354450D01*
X974190Y350450D02*
Y354450D01*
X910490Y191040D02*
Y195040D01*
X897990Y191040D02*
Y195040D01*
X938450Y207550D02*
Y211550D01*
X928450Y207550D02*
Y211550D01*
X909860Y257710D02*
X913860D01*
X909860Y245210D02*
X913860D01*
X844450Y238030D02*
Y242030D01*
X831950Y238030D02*
Y242030D01*
X528860Y251380D02*
X532860D01*
X528860Y241380D02*
X532860D01*
X813340Y205820D02*
X817340D01*
X813340Y215820D02*
X817340D01*
X755550Y359950D02*
Y363950D01*
X743050Y359950D02*
Y363950D01*
X913230Y191040D02*
Y195040D01*
X925730Y191040D02*
Y195040D01*
X821590Y368840D02*
Y372840D01*
X809090Y368840D02*
Y372840D01*
X853980Y368400D02*
X857980D01*
X853980Y380900D02*
X857980D01*
X648080Y290910D02*
Y300910D01*
X632080Y290910D02*
Y300910D01*
X626490Y290910D02*
Y300910D01*
X610490Y290910D02*
Y300910D01*
X894000Y363760D02*
Y367760D01*
X884000Y363760D02*
Y367760D01*
X705390Y346630D02*
X709390D01*
X705390Y336630D02*
X709390D01*
X609680Y451390D02*
Y455390D01*
X619680Y451390D02*
Y455390D01*
X737770Y347250D02*
Y351250D01*
X725270Y347250D02*
Y351250D01*
X777620Y189310D02*
Y199310D01*
X761620Y189310D02*
Y199310D01*
X756030Y189310D02*
Y199310D01*
X740030Y189310D02*
Y199310D01*
D13*
X1138706Y177650D02*
G03*
X1138706Y177650I-1556J0D01*
G01*
X1138250D02*
G03*
X1138250Y177650I-1100J0D01*
G01*
X1139350D02*
G03*
X1139350Y177650I-1100J0D01*
G01*
D02*
G03*
X1139350Y177650I-1100J0D01*
G01*
X1139610D02*
G03*
X1139610Y177650I-2460J0D01*
G01*
X1139866Y290240D02*
G03*
X1139866Y290240I-1556J0D01*
G01*
X1139410D02*
G03*
X1139410Y290240I-1100J0D01*
G01*
X1140510D02*
G03*
X1140510Y290240I-1100J0D01*
G01*
D02*
G03*
X1140510Y290240I-1100J0D01*
G01*
X1140770D02*
G03*
X1140770Y290240I-2460J0D01*
G01*
X764820Y353970D02*
X771320D01*
X764820Y351970D02*
Y353970D01*
X793320D02*
X799820D01*
Y351970D02*
Y353970D01*
X793320Y308970D02*
X799820D01*
Y310470D01*
X764820Y308970D02*
X771320D01*
X764820D02*
Y310970D01*
X853720Y229510D02*
X860220D01*
X853720Y227510D02*
Y229510D01*
X882220D02*
X888720D01*
Y227510D02*
Y229510D01*
X882220Y184510D02*
X888720D01*
Y186010D01*
X853720Y184510D02*
X860220D01*
X853720D02*
Y186510D01*
X1101950Y170550D02*
X1145950D01*
X1101950Y248550D02*
X1145950D01*
X1103110Y283140D02*
X1147110D01*
X1103110Y361140D02*
X1147110D01*
X988390Y286190D02*
Y315790D01*
X934390Y286190D02*
Y315790D01*
X927430Y286190D02*
Y315790D01*
X873430Y286190D02*
Y315790D01*
X865200Y286190D02*
Y315790D01*
X811200Y286190D02*
Y315790D01*
D14*
X1154660Y166370D02*
G03*
X1154660Y166370I-1500J0D01*
G01*
X1155820Y278960D02*
G03*
X1155820Y278960I-1500J0D01*
G01*
D15*
X1112650Y157290D02*
Y167790D01*
X1116730Y267780D02*
Y278280D01*
D16*
X696341Y317373D02*
Y386207D01*
X676021Y317373D02*
X696341D01*
X629539D02*
X649859D01*
X676021Y386207D02*
X696341D01*
X629539Y317373D02*
Y386207D01*
X649859D01*
X706120Y172695D02*
Y227305D01*
X564515D02*
X706120D01*
X564515Y172695D02*
Y227305D01*
Y172695D02*
X706120D01*
D17*
X0Y0D02*
X1270000D01*
Y551180D01*
X0D02*
X1270000D01*
X0Y0D02*
Y551180D01*
M02*
