M48
;Layer_Color=9474304
;FILE_FORMAT=2:5
INCH,LZ
;TYPE=PLATED
T1F00S00C0.01181
T2F00S00C0.03400
T3F00S00C0.03500
;TYPE=NON_PLATED
T4F00S00C0.14173
%
T01
X00545Y00415
X00644
X00743
X00842
X00941
X0104
X0096Y0051
Y00535
X0093
Y0051
X00995Y0062
X0108Y0058
X01205Y007
X0124Y0070021
X01285Y007
X01265Y0079
X0144734Y0066758
X0146Y00415
X01558
X0123Y00265
Y00235
Y00205
X01656Y00415
X01754
X01852
X0195
X0167Y0052
Y00545
X0164
Y0052
X016Y0081
X01925Y00845
Y00875
Y00905
Y00935
Y00965
Y00995
X0196
Y00965
Y00935
Y00905
Y00875
Y00845
X0211
Y00875
Y00905
X02205Y0091
X02235
X02265
X02295
X024
X0243
X0246
X0249
X0252
X0255
X0254Y0067
X0251
X0248
X0245
X0242
X0239
X0236
X0233
X023
X02435Y004
Y0037
Y00335
Y003
Y00265
Y0023
Y00195
X0252Y002
Y00235
Y0027
Y00305
Y0034
Y00375
Y00405
X02515Y001
X02545
Y00065
X02515
X0258
X02615
X0265
X02685
X0272
Y001
X02685
X0265
X02615
X0258
X02335Y0009
X02305
Y00055
X02335
X0227
X02235
X022
X02165
X0213
Y0009
X02165
X022
X02235
X0227
X02975Y00235
Y0027
Y00305
Y0034
Y00375
Y0041
Y0044
X0306Y0049
X0308Y0036
X0281Y0067
X0278
X0275
X028Y00845
Y00875
Y00905
X0304Y0105
X0308
X023Y01365
X02265
Y014
X0223
X02195
Y01365
X0223
X023Y014
X02355Y0154
X0239
X02425
X0246
X02075Y0141
X02045
X02015
X01985
X01955
X01925
Y01375
X01955
X01985
X02015
X02045
X02075
X0326579Y0139421
X0333Y01355
X0326Y0123
X0315Y0121
X0334582Y0113202
X0342Y01165
X0345
X0344Y0083
Y00805
X0341
Y0083
X0336Y0061
Y00585
X0333
Y0061
X0322Y0059
X0319Y0062
X0315Y00625
X0313878Y0047
X0315378Y00435
Y004
Y0034
X0315Y003
Y00265
Y0023
X03195
X0332Y00235
Y0027
Y00305
Y0034
Y00375
Y0041
Y0044
X0341Y0049
X0348059Y0047
X0349559Y00435
Y004
Y0034
X035Y003
Y00265
Y0023
X03545
X03655Y0024
Y00275
Y0031
Y00345
Y0038
Y00415
Y00445
X0365Y00585
Y0061
X0368
Y00585
X03595Y0055
X03745Y00505
X0382Y00475
X03825Y0044
Y00405
X0382878Y00345
X03835Y00305
X0383378Y0027
Y00235
X0387378
X0401Y0025
Y00285
Y0032
Y00355
Y0039
Y00425
Y00455
X03955Y00435
X0395Y00545
Y0057
X0392
Y00545
X0389
Y0057
X0386
Y00545
X0409Y0051
X0417Y0049
X04175Y00445
Y0041
X0417Y0035
X0418Y0031
Y00275
Y0024
X04225
X04355Y00245
Y0028
Y00315
Y0035
Y00385
Y0042
Y0045
X0432Y00525
X04365Y0056
X04335Y00595
X04315Y0063
X04425Y0073
X0449Y0074
Y0071
X04475Y00685
X0459Y0068
Y0072
X04595Y00755
X0462246Y007457
X04625Y0081
X046
X046475Y008425
X0467Y0082
X04645Y00915
X04605Y0090316
X04585Y0101
X0458Y01105
X0459651Y0113038
X04595Y0116
X0461Y0119
X04635Y0117
X0463Y01255
Y0129
X0466Y01285
X046525Y01365
X046225
X0458413Y0147078
X04555Y01455
X0449Y01345
X04465Y01355
Y01325
X0447Y01195
X04485Y0116
Y01125
X0446Y0114
X04455Y0101
X0438322Y0098805
X0439Y0096
X0436322Y0096805
X04395Y0092
X0426199Y0090048
X0427Y0099
X04185Y01075
X041Y01115
Y01155
Y01195
X04045Y01115
Y0109
X04015
Y01115
X03995Y00905
Y0088
Y00835
Y0081
X0411Y00815
Y0085
Y0089
Y00935
Y0077
X0412Y0037
X0446Y00375
X0453Y0035
X04535Y0031
Y00275
Y0024
X0458
X0453Y0041
Y00445
X0452Y0048
X04445Y005
X04645Y0045
X04595Y0064
X04685Y0101
X04585Y01255
X0437Y0127
X04265Y01425
X04175Y0142
X0409Y0143
X0403Y01545
X04
X0375Y0143
X036703Y013797
X0378Y0099
X0383Y00915
X0325Y00555
X03425Y0036
X04795Y0053
X0483
X04865
X0486Y0058
X04825
X0479
X04815Y0063
X04845
X04875
X04905Y0071
Y0074
Y0077
X0487Y01455
X04845
X0482Y0145
X0481Y01505
X0484
X0487
Y01555
X0484
X0481
Y01605
X0484
X04865
X0403Y0157
X04
X0393Y01675
Y01705
X039
X0387
X0384
X0381
X0378
X0375
X0372
Y01675
X0375
X0378
X0381
X0384
X0387
X039
X0246Y01645
Y0161
Y01575
X02425
X0239
X02355
Y0161
X0239
Y01645
X02425
Y0161
X02355Y01645
X0242Y02065
X02455
Y021
X0249
X02525
Y02065
X0249
X0242Y021
T02
X0057Y01555
X0067
X0077
X0095
X0105
X01795Y01475
X01895
Y01575
Y01675
Y01775
Y01875
X01795
Y01975
X01895
Y02075
X01795
Y01775
Y01675
Y01575
X0105Y01655
X0095
X0077
X0067
X0057
T03
X00425Y0193
X00525
X00625
Y0206
X00525
X00425
T04
X00215Y00265
X0226224Y00265
X0273468Y00265
X0478193
Y0189886
X0273468
X0226224
X00215
M30
