G04*
G04 #@! TF.GenerationSoftware,Altium Limited,Altium Designer,19.1.5 (86)*
G04*
G04 Layer_Color=8388736*
%FSLAX44Y44*%
%MOMM*%
G71*
G01*
G75*
%ADD10C,0.1000*%
%ADD11R,0.6000X0.4000*%
%ADD13R,0.4000X0.6000*%
%ADD17R,0.4500X0.6000*%
%ADD19R,0.6000X0.4500*%
%ADD20R,0.8000X0.6000*%
%ADD21R,1.0000X1.6000*%
%ADD22R,0.7000X1.3000*%
%ADD26R,0.5000X0.9000*%
%ADD27R,1.3000X0.7000*%
%ADD28R,1.3000X0.8000*%
%ADD29R,0.9000X0.5000*%
%ADD32R,1.3716X0.5080*%
%ADD34R,1.6000X1.0000*%
%ADD37R,1.3716X0.6604*%
%ADD38R,1.0016X0.3616*%
%ADD39R,0.3616X1.0016*%
%ADD40R,2.1716X3.1716*%
%ADD41R,1.5016X0.4516*%
%ADD42R,0.8016X1.0016*%
%ADD43R,2.1266X2.7816*%
%ADD44R,1.6716X0.5116*%
%ADD45R,0.4516X0.9516*%
%ADD46R,5.5116X1.9816*%
%ADD47R,1.5240X5.5118*%
%ADD48R,0.9516X0.4516*%
%ADD49R,0.8382X2.3368*%
%ADD50C,6.1016*%
%ADD51C,1.3716*%
%ADD52C,1.6256*%
%ADD53R,1.6256X1.6256*%
D10*
X1270000D01*
Y551180D01*
X0D02*
X1270000D01*
X0Y0D02*
Y551180D01*
D11*
X825500Y125040D02*
D03*
Y134040D02*
D03*
X912320Y125040D02*
D03*
Y134040D02*
D03*
X1153160Y263580D02*
D03*
Y254580D02*
D03*
X834390Y172140D02*
D03*
Y163140D02*
D03*
X782320Y282630D02*
D03*
Y273630D02*
D03*
Y297870D02*
D03*
Y288870D02*
D03*
X900430Y234370D02*
D03*
Y225370D02*
D03*
X933450Y233100D02*
D03*
Y224100D02*
D03*
X943610Y216590D02*
D03*
Y207590D02*
D03*
X953770Y240720D02*
D03*
Y231720D02*
D03*
X834390Y147900D02*
D03*
Y156900D02*
D03*
X904240Y351210D02*
D03*
Y342210D02*
D03*
X913130Y368410D02*
D03*
Y359410D02*
D03*
X889000Y351210D02*
D03*
Y342210D02*
D03*
X822960Y219710D02*
D03*
Y228710D02*
D03*
X309880Y510862D02*
D03*
Y501862D02*
D03*
X297180Y502442D02*
D03*
Y511442D02*
D03*
D13*
X949070Y111760D02*
D03*
X940070D02*
D03*
X1005260Y121920D02*
D03*
X996260D02*
D03*
X1127180Y113030D02*
D03*
X1118180D02*
D03*
X1177870Y123190D02*
D03*
X1186870D02*
D03*
X777620Y110490D02*
D03*
X768620D02*
D03*
X1080080Y133350D02*
D03*
X1089080D02*
D03*
X225370Y327660D02*
D03*
X234370D02*
D03*
X864440Y110490D02*
D03*
X855440D02*
D03*
X1037590Y105410D02*
D03*
X1028590D02*
D03*
X1181790Y162560D02*
D03*
X1172790D02*
D03*
X1181790Y170180D02*
D03*
X1172790D02*
D03*
X1152580Y162560D02*
D03*
X1143580D02*
D03*
X1179250Y256540D02*
D03*
X1170250D02*
D03*
X1069920Y170180D02*
D03*
X1078920D02*
D03*
Y161290D02*
D03*
X1069920D02*
D03*
X1076289Y234050D02*
D03*
X1067289D02*
D03*
X1073840Y247650D02*
D03*
X1064840D02*
D03*
X1180520Y179070D02*
D03*
X1171520D02*
D03*
X1183060Y245110D02*
D03*
X1174060D02*
D03*
X1067380Y255270D02*
D03*
X1076380D02*
D03*
X1072460Y262890D02*
D03*
X1081460D02*
D03*
X1182480Y269240D02*
D03*
X1173480D02*
D03*
X1181210Y388620D02*
D03*
X1172210D02*
D03*
X1077650Y346710D02*
D03*
X1068650D02*
D03*
Y363220D02*
D03*
X1077650D02*
D03*
X1159080Y274320D02*
D03*
X1150080D02*
D03*
X1181210Y381000D02*
D03*
X1172210D02*
D03*
X1183060Y278130D02*
D03*
X1174060D02*
D03*
X1183060Y285750D02*
D03*
X1174060D02*
D03*
X1070650Y287020D02*
D03*
X1079650D02*
D03*
X1077650Y354330D02*
D03*
X1068650D02*
D03*
Y372110D02*
D03*
X1077650D02*
D03*
X1181210Y373380D02*
D03*
X1172210D02*
D03*
X1079650Y279400D02*
D03*
X1070650D02*
D03*
X917630Y229870D02*
D03*
X908630D02*
D03*
X838890Y361950D02*
D03*
X829890D02*
D03*
X838890Y369570D02*
D03*
X829890D02*
D03*
X908630Y220980D02*
D03*
X917630D02*
D03*
D17*
X184230Y262890D02*
D03*
X194230D02*
D03*
X194150Y300990D02*
D03*
X184150D02*
D03*
X287100Y327660D02*
D03*
X297100D02*
D03*
X1078300Y326390D02*
D03*
X1068300D02*
D03*
X863520Y171450D02*
D03*
X853520D02*
D03*
X918130Y238760D02*
D03*
X908130D02*
D03*
X955120Y223520D02*
D03*
X965120D02*
D03*
X844630Y361950D02*
D03*
X854630D02*
D03*
D19*
X1070610Y213520D02*
D03*
Y223520D02*
D03*
X875030Y376000D02*
D03*
Y386000D02*
D03*
X892810Y252650D02*
D03*
Y242650D02*
D03*
X943610Y231220D02*
D03*
Y241220D02*
D03*
X840740Y177880D02*
D03*
Y187880D02*
D03*
Y194390D02*
D03*
Y204390D02*
D03*
X925830Y361870D02*
D03*
Y351870D02*
D03*
X764540Y288370D02*
D03*
Y298370D02*
D03*
X751840Y312340D02*
D03*
Y302340D02*
D03*
X904240Y358910D02*
D03*
Y368910D02*
D03*
D20*
X1070610Y182230D02*
D03*
Y196230D02*
D03*
X1073300Y297800D02*
D03*
Y311800D02*
D03*
X750570Y321930D02*
D03*
Y335930D02*
D03*
D21*
X1027125Y190910D02*
D03*
X1057125D02*
D03*
X1027125Y209960D02*
D03*
X1057125D02*
D03*
X1027670Y228600D02*
D03*
X1057670D02*
D03*
X1023900Y291660D02*
D03*
X1053900D02*
D03*
X1023900Y310710D02*
D03*
X1053900D02*
D03*
X1023900Y329760D02*
D03*
X1053900D02*
D03*
D22*
X1213460Y180340D02*
D03*
X1194460D02*
D03*
X1213460Y195580D02*
D03*
X1194460D02*
D03*
X1214025Y220080D02*
D03*
X1195025D02*
D03*
X1214025Y235320D02*
D03*
X1195025D02*
D03*
X1214730Y307340D02*
D03*
X1195730D02*
D03*
X1214730Y290830D02*
D03*
X1195730D02*
D03*
X1213460Y350520D02*
D03*
X1194460D02*
D03*
X1213460Y335280D02*
D03*
X1194460D02*
D03*
X949350Y167640D02*
D03*
X968350D02*
D03*
X902360Y251460D02*
D03*
X921360D02*
D03*
X865480Y374650D02*
D03*
X846480D02*
D03*
D26*
X621150Y19050D02*
D03*
X636150D02*
D03*
X533520Y339090D02*
D03*
X548520D02*
D03*
X523360Y246380D02*
D03*
X538360D02*
D03*
X822840Y210820D02*
D03*
X807840D02*
D03*
X699890Y341630D02*
D03*
X714890D02*
D03*
D27*
X980440Y361950D02*
D03*
Y342950D02*
D03*
X815340Y380340D02*
D03*
Y361340D02*
D03*
X731520Y358750D02*
D03*
Y339750D02*
D03*
D28*
X904240Y202540D02*
D03*
Y183540D02*
D03*
X838200Y249530D02*
D03*
Y230530D02*
D03*
X749300Y371450D02*
D03*
Y352450D02*
D03*
X919480Y183540D02*
D03*
Y202540D02*
D03*
D29*
X933450Y217050D02*
D03*
Y202050D02*
D03*
X889000Y373260D02*
D03*
Y358260D02*
D03*
X614680Y445890D02*
D03*
Y460890D02*
D03*
D32*
X794258Y232410D02*
D03*
X770382D02*
D03*
D34*
X640080Y280910D02*
D03*
Y310910D02*
D03*
X618490Y280910D02*
D03*
Y310910D02*
D03*
X769620Y179310D02*
D03*
Y209310D02*
D03*
X748030Y179310D02*
D03*
Y209310D02*
D03*
D37*
X959556Y102362D02*
D03*
Y111760D02*
D03*
Y121158D02*
D03*
X985464D02*
D03*
Y111760D02*
D03*
Y102362D02*
D03*
X788106Y101092D02*
D03*
Y110490D02*
D03*
Y119888D02*
D03*
X814014D02*
D03*
Y110490D02*
D03*
Y101092D02*
D03*
X1137666Y103632D02*
D03*
Y113030D02*
D03*
Y122428D02*
D03*
X1163574D02*
D03*
Y113030D02*
D03*
Y103632D02*
D03*
X874926Y101092D02*
D03*
Y110490D02*
D03*
Y119888D02*
D03*
X900834D02*
D03*
Y110490D02*
D03*
Y101092D02*
D03*
X1048766Y104902D02*
D03*
Y114300D02*
D03*
Y123698D02*
D03*
X1074674D02*
D03*
Y114300D02*
D03*
Y104902D02*
D03*
X959866Y68072D02*
D03*
Y77470D02*
D03*
Y86868D02*
D03*
X985774D02*
D03*
Y77470D02*
D03*
Y68072D02*
D03*
X788106Y66802D02*
D03*
Y76200D02*
D03*
Y85598D02*
D03*
X814014D02*
D03*
Y76200D02*
D03*
Y66802D02*
D03*
X1048766Y69342D02*
D03*
Y78740D02*
D03*
Y88138D02*
D03*
X1074674D02*
D03*
Y78740D02*
D03*
Y69342D02*
D03*
X1137666D02*
D03*
Y78740D02*
D03*
Y88138D02*
D03*
X1163574D02*
D03*
Y78740D02*
D03*
Y69342D02*
D03*
X874926Y66802D02*
D03*
Y76200D02*
D03*
Y85598D02*
D03*
X900834D02*
D03*
Y76200D02*
D03*
Y66802D02*
D03*
D38*
X765470Y313970D02*
D03*
X799170Y348970D02*
D03*
X765470D02*
D03*
Y343970D02*
D03*
Y338970D02*
D03*
Y333970D02*
D03*
Y328970D02*
D03*
Y323970D02*
D03*
Y318970D02*
D03*
X799170Y313970D02*
D03*
Y318970D02*
D03*
Y323970D02*
D03*
Y328970D02*
D03*
Y333970D02*
D03*
Y338970D02*
D03*
Y343970D02*
D03*
X854370Y189510D02*
D03*
X888070Y224510D02*
D03*
X854370D02*
D03*
Y219510D02*
D03*
Y214510D02*
D03*
Y209510D02*
D03*
Y204510D02*
D03*
Y199510D02*
D03*
Y194510D02*
D03*
X888070Y189510D02*
D03*
Y194510D02*
D03*
Y199510D02*
D03*
Y204510D02*
D03*
Y209510D02*
D03*
Y214510D02*
D03*
Y219510D02*
D03*
D39*
X774820Y309620D02*
D03*
X789820Y353320D02*
D03*
X774820D02*
D03*
X789820Y309620D02*
D03*
X863720Y185160D02*
D03*
X878720Y228860D02*
D03*
X863720D02*
D03*
X878720Y185160D02*
D03*
D40*
X782320Y331470D02*
D03*
X871220Y207010D02*
D03*
D41*
X288290Y273870D02*
D03*
Y280370D02*
D03*
Y286870D02*
D03*
Y293370D02*
D03*
Y299870D02*
D03*
Y306370D02*
D03*
Y312870D02*
D03*
Y319370D02*
D03*
X234290Y273870D02*
D03*
Y280370D02*
D03*
Y286870D02*
D03*
Y293370D02*
D03*
Y299870D02*
D03*
Y306370D02*
D03*
Y312870D02*
D03*
Y319370D02*
D03*
D42*
X1135140Y162560D02*
D03*
X1120140D02*
D03*
X1139220Y273050D02*
D03*
X1124220D02*
D03*
D43*
X1123950Y209550D02*
D03*
X1125110Y322140D02*
D03*
D44*
X1095250Y173800D02*
D03*
Y180300D02*
D03*
Y186800D02*
D03*
Y193300D02*
D03*
Y199800D02*
D03*
Y206300D02*
D03*
Y212800D02*
D03*
Y219300D02*
D03*
Y225800D02*
D03*
Y232300D02*
D03*
Y238800D02*
D03*
Y245300D02*
D03*
X1152650D02*
D03*
Y238800D02*
D03*
Y232300D02*
D03*
Y225800D02*
D03*
Y219300D02*
D03*
Y212800D02*
D03*
Y206300D02*
D03*
Y199800D02*
D03*
Y193300D02*
D03*
Y186800D02*
D03*
Y180300D02*
D03*
Y173800D02*
D03*
X1096410Y286390D02*
D03*
Y292890D02*
D03*
Y299390D02*
D03*
Y305890D02*
D03*
Y312390D02*
D03*
Y318890D02*
D03*
Y325390D02*
D03*
Y331890D02*
D03*
Y338390D02*
D03*
Y344890D02*
D03*
Y351390D02*
D03*
Y357890D02*
D03*
X1153810D02*
D03*
Y351390D02*
D03*
Y344890D02*
D03*
Y338390D02*
D03*
Y331890D02*
D03*
Y325390D02*
D03*
Y318890D02*
D03*
Y312390D02*
D03*
Y305890D02*
D03*
Y299390D02*
D03*
Y292890D02*
D03*
Y286390D02*
D03*
D45*
X967890Y209120D02*
D03*
X961390D02*
D03*
X954890D02*
D03*
Y187120D02*
D03*
X961390D02*
D03*
X967890D02*
D03*
D46*
X961390Y328370D02*
D03*
Y273610D02*
D03*
X900430Y328370D02*
D03*
Y273610D02*
D03*
X838200Y328370D02*
D03*
Y273610D02*
D03*
D47*
X642747Y351790D02*
D03*
X683133D02*
D03*
D48*
X941070Y363370D02*
D03*
Y356870D02*
D03*
Y350370D02*
D03*
X963070D02*
D03*
Y356870D02*
D03*
Y363370D02*
D03*
D49*
X615950Y186411D02*
D03*
Y213589D02*
D03*
X603250Y186411D02*
D03*
Y213589D02*
D03*
X590550Y186411D02*
D03*
Y213589D02*
D03*
X577850Y186411D02*
D03*
Y213589D02*
D03*
X628650D02*
D03*
Y186411D02*
D03*
X641350Y213589D02*
D03*
Y186411D02*
D03*
X654050Y213589D02*
D03*
Y186411D02*
D03*
X666750Y213589D02*
D03*
Y186411D02*
D03*
X679450Y213589D02*
D03*
Y186411D02*
D03*
X692150Y213589D02*
D03*
Y186411D02*
D03*
D50*
X1214610Y482310D02*
D03*
Y67310D02*
D03*
X694610D02*
D03*
X574610Y67310D02*
D03*
X694610Y482310D02*
D03*
X574610D02*
D03*
X54610D02*
D03*
Y67310D02*
D03*
D51*
X455930Y476250D02*
D03*
X481330D02*
D03*
X455930Y501650D02*
D03*
X481330D02*
D03*
X455930Y527050D02*
D03*
X481330D02*
D03*
Y450850D02*
D03*
X455930D02*
D03*
X481330Y425450D02*
D03*
X455930D02*
D03*
X481330Y400050D02*
D03*
X455930D02*
D03*
Y374650D02*
D03*
X481330D02*
D03*
X266700Y420370D02*
D03*
Y394970D02*
D03*
X241300Y420370D02*
D03*
Y394970D02*
D03*
X195580Y420370D02*
D03*
Y394970D02*
D03*
X170180Y420370D02*
D03*
Y394970D02*
D03*
X144780Y420370D02*
D03*
Y394970D02*
D03*
D52*
X158750Y490220D02*
D03*
X133350D02*
D03*
X107950D02*
D03*
X158750Y523240D02*
D03*
X133350D02*
D03*
D53*
X107950D02*
D03*
M02*
