M48
;Layer_Color=9474304
;FILE_FORMAT=2:5
INCH,LZ
;TYPE=PLATED
T1F00S00C0.01181
T2F00S00C0.03400
T3F00S00C0.03500
;TYPE=NON_PLATED
T4F00S00C0.14173
%
T01
X02665Y00975
X02775Y0099
X028725
X0297
X0307Y00985
X0234819Y01385
X0227
X02425Y01505
X03195Y01555
X0328Y01515
Y01465
X0336Y01485
Y01515
X03475Y0151
Y01485
X03615Y01515
X03705Y01495
X0383Y01445
X03865Y01425
X03895Y0153
X04365Y01555
X044Y0154
X0443
X0446
X0449
X0452
X0456
X0459
X0462
X0465
X0468
X04095Y0099
X03995
X0395
X0385
X0374787Y00985
X0365Y0099
X0344912Y011
X0317Y00985
X0484Y00995
X04875
X0491
X04945
X0498
Y0103
X04945
X0491
X04875
X0484
X05045Y0097
X0516466Y0099738
X05265Y0097
X05415
X0552009Y0099238
X05615Y0097
X055965Y01105
X055615
X05525
X05545Y0113
X0548172Y011
X0548Y01235
X0552Y0123622
X05555
X0559Y01235
X0571Y01225
Y01195
Y0116
Y01125
X05829Y011
X05875Y01105
X0591
X05945
X0589Y0113
X05895Y01235
X0586
X05825
X0593Y0123378
X06055Y01225
Y01195
Y0116
Y01125
X06189Y011
X06235Y01105
X0622738Y0099238
X06105Y0097
X05965
X05875Y0099
X05765Y01025
X0536Y01125
Y0116
Y01195
Y01225
X051735Y0124
Y01205
X0517228Y0117
X0517606Y01125
X05205Y0111
X0524106
X0512628Y01105
X051335Y0124
X05085Y0155
X04995Y0154
X04965
X04935
X04905
X04875
X04835
X04805
X04775
X04745
X04715
X05255Y0149
X05285Y01505
X0537Y01425
X054Y01405
X0558325Y0154675
X06025Y01545
Y0152
X06055
Y01545
X06085
Y0152
X06115
Y01545
Y0149
Y01465
Y0144
X06085
Y01465
Y0149
X06055
Y01465
Y0144
X06025
Y01465
Y0149
X0617Y01235
X0621
X06245
X0628Y0123378
X0625Y0113
X0626878Y01105
X0630378
X06415Y0113
Y01165
Y012
Y0123
X0655Y01245
Y01275
Y0131
Y0121
X06705Y0118
X06745
X0678
X06815
X06715Y01285
X06735Y01305
X06695
X06665
Y01445
Y01505
X06635
X06605
X06575
X0649Y0141
X06395Y01495
X06945Y01485
Y01515
X0698
Y01485
X07015
Y01515
X0707Y01435
Y01405
X07105
Y01435
X0714
Y01405
X0688Y01325
X06325Y0097
X06365Y0159
X0636Y0162
X0625Y01665
Y01705
Y0175
Y0179
Y01835
X0640973Y0182527
X064Y0192
X0642151Y0194038
X0643829Y0191526
X06455Y0197
X0648405Y0195595
X0652Y01955
X064975Y019275
X0655Y01935
X0661Y0193
X0667
Y01995
X0668Y02025
X0673Y02035
X06745Y0197
X06775
X068
X06825
X06855
X06885
X06915
X06785Y0207
Y02095
X0678031Y0212
X06785Y0219
X0681
X0684
X06805Y0222
X06785
X0676274Y0221774
X0677Y0228792
X067725Y023175
X0677125Y0234375
X06655Y02385
X06595
X0653
X0644359Y0237141
X06435Y0243
X0647
X06495Y0245
X0651Y02485
X06575Y0245
X06605
X06635
X06665
X06635Y0225
Y0222
Y0219
Y0216
X0657
Y0219
Y0222
Y0225
X0625Y02235
Y0219
Y0215
Y02105
Y02065
X06405Y0202
X0642651Y0199962
X0657Y01805
Y01775
Y01745
Y01715
X0663
Y01745
Y01775
Y01805
X0675839Y0177962
X06785Y0178
X0681
Y0174
X06785Y0175
X0675822Y0174178
X0678Y0167894
Y0165
Y0162
X0665Y016
X0664Y0157
X0652Y01575
X06955Y0157
Y016
X0699
Y0157
X07025
Y016
X0707Y01645
Y01675
X07105
Y01645
X0714
Y01675
X06785Y0187
X06765Y018501
Y0189
X0695Y02405
Y02435
X06985
Y02405
X0702
Y02435
Y0249
Y0252
X06985
Y0249
X0695
Y0252
X07075Y0257
Y026
X0711
Y0257
X07145
Y026
X0714443Y0235281
Y0232281
X0710943
Y0235281
X0707443
Y0232281
X06405Y02445
X0641Y02505
X0627001Y0257816
X0626Y02805
Y02835
X06355Y0299
X06695Y029
X0673
X0672867Y0285633
X06695Y0285766
X06035Y0291
Y02945
X06
Y0298
Y03015
X06035
Y0298
X06Y0291
X05955Y0287
Y02835
X0592
X05885
Y0287
X0592
X0585
Y02835
X05815Y0278
X05785
X05755
Y02745
X05785
X05815
X05595
X0556
Y0278
X05595
X0541Y02785
X0538
X0535
Y0275
X0538
X0541
X05505Y03
X0547Y0304
X0555Y03035
X05605Y0304
Y0307
X05635
X05665
X0576
X0579
X0583
X05875
X0537Y03065
X0507Y0272
X04935Y0256
X0490501Y0257996
X0512Y0233
X0515Y02335
X05205Y0239
X0526Y02285
Y02255
Y02225
Y02195
X05305
Y02225
Y02255
Y02285
X05345Y0213
X0546Y0216
X05535Y02155
X0554Y02115
Y0209
Y02065
X0557
Y0209
Y02115
X0563Y02095
X05665Y0208
X0578Y0207
Y021
X0581
Y0207
X0584
Y021
X05895Y02095
X05925
X05955
X05985
X06015
X06045
X06075
Y02065
X06045
X06015
X05985
X05955
X05925
X05895
X05875Y01925
X0598Y0193
X0601
X0602Y01845
X0598
X0591492
X06055Y0181
X0616Y0179
Y0175
Y01705
Y01665
Y01835
Y02055
Y02095
Y0214
Y0218
Y02225
X0613Y0247014
Y0249514
Y0252014
X061
Y0249514
Y0247014
X0607Y0247
Y02495
Y0252
X0604
Y02495
Y0247
X0601
Y02495
Y0252
X0598
Y02495
Y0247
X0595
Y02495
Y0252
X0592
Y02495
Y0247
X0595Y02325
X0587Y02315
Y02345
X05795Y02355
X05725Y02435
X0553Y02325
X05495
X0541Y024
X05475Y0207
X05505Y01955
X05535
X05515Y01885
X05485
X0544641Y019299
X0541Y01955
X053Y0194
X0520898Y0194595
X0516Y01955
X0512Y0198
X0513Y0183
X0501478Y018558
X05005Y0179
Y0176
Y0173
Y017
Y0167
Y0164
Y0161
Y0158
X0495195Y0166683
X0508Y0167
Y01645
X0511Y0167
X0514
X0517
X052
X05275Y0162
X0548Y01645
X05605Y01705
Y01735
Y01765
Y01795
X05655
Y01765
Y01735
Y01705
X05745Y0169
X05775
X05805
X05835
X05625Y0187
X05635Y0194
X0567
X05255Y02075
X05225Y0208
X0516Y021
X0485Y0195
X0483691Y0185592
X0486691
X0489691
X0492691
X0480691
X0477691
X0479Y02005
X0476
X0473
X047
X0471Y0159
X04805Y01585
X04645Y0158
X046
X04365Y01585
Y01615
Y01645
Y01675
Y0171
Y0174
Y0177
Y018
Y0183
X0438Y0185
X0441
X0444
X04445Y01775
X0456Y01855
X04655Y0186
X0466Y02005
X0463
X046
X0457
X04495Y0206
Y02105
X04465Y0215
X0449Y02185
X04475Y0224
X0444Y0221
X0442Y02285
X045
X0443Y0238
X04395
Y02415
Y0245
X0443
Y02485
X04395
X0443Y02415
X04635Y02085
X0402Y021
X0403863Y0212326
X0402Y0215
X03945Y0217
X0389Y0218
X03895Y0208669
X0395Y0207744
X0394211Y0196863
X04025Y0196
X0405Y01975
X04005Y0201
X0403599Y018516
X04075Y018
X03955Y01795
X03805
X03825Y01825
X0383Y0192
X03805
Y0195
X0383
X03805Y0209
X03775Y02095
X0377Y0217
X03735
X0364Y02195
Y02225
X03615Y0213
X0361Y02095
X03625Y02
X0362Y01955
X0368479Y019184
X0365Y01815
X036Y0181
X03455Y0183
X034
X03385Y01875
X0340648Y0189675
X0343Y0192
X0331Y018
Y01765
X0329Y0174
X03235
X0327Y0179
X0328Y0182
X03175Y0186
X0318Y0191
X03145Y0202
X03165Y02145
X03175Y0219
Y02225
X0325884Y02265
X0332Y02255
X0329Y0221
X0329314Y0218
X0329Y02145
X03395Y0213
X0346Y02205
X03395Y02285
X0339Y02345
X0329Y02375
X03285Y0244
X03195Y0247
X03175Y02495
X0338981Y0252481
X03685Y0248
X0374Y0256
X0383381Y0246119
X0386247Y0247753
X0391Y02285
X03925Y02845
X0386763Y0283
X0384Y02815
X0364Y03005
X03725Y0165
X0371Y01585
X038Y01645
X0403Y0165
Y0162
Y01585
X04025Y01685
X0403Y0172
X03545Y01625
X03485Y01635
X0344835Y0164761
X03405Y01635
X0337Y0165
X0310968Y0187
X03Y01865
X03025Y0191
X03055Y0202
X03085
X03115
X0306Y02245
X03025
X02985
X0296Y02345
X02985Y02375
X0302Y0237
X030477Y023877
X0311Y0239
X02835Y02245
X02795
X028025Y021775
X02825Y0215
X02845Y021
X0285Y022115
X02725Y02195
X02695Y022
X0269Y0207
Y0201
X0272Y01975
X0279Y01965
X028Y01935
Y01895
X027575Y018525
X02715Y0183
X02745Y01785
X0279Y01815
X02555Y0222
X02515Y02665
X0243325
X02355Y02555
X02575Y0277
X0266439
X02735Y02885
X029Y02775
X0297905
X0306Y0288
T02
X03335Y0257
Y0267
X03435
Y0257
X03535
Y0267
X03995Y0271
Y0281
X04095
Y0291
X03995
Y0301
X04095
Y0271
Y0261
X03995
Y0251
X04095
Y0241
X03995
X03065Y0257
Y0267
X02965
Y0257
T03
X03325Y02855
X03425
X03525
Y02985
X03425
X03325
T04
X02415Y012
X0446224Y012
X0493469Y012
X0698193
Y0283386
X0493469
X0446224
X02415
M30
