G04*
G04 #@! TF.GenerationSoftware,Altium Limited,Altium Designer,19.1.5 (86)*
G04*
G04 Layer_Physical_Order=5*
G04 Layer_Color=16737945*
%FSLAX44Y44*%
%MOMM*%
G71*
G01*
G75*
%ADD62C,1.2700*%
%ADD67C,0.6000*%
G36*
X1464902Y535298D02*
X1406500D01*
X1404549Y534910D01*
X1402895Y533805D01*
X1401790Y532151D01*
X1401402Y530200D01*
Y409550D01*
X1401790Y407599D01*
X1402895Y405945D01*
X1404549Y404840D01*
X1406500Y404452D01*
X1464902D01*
Y205098D01*
X1196304D01*
X1195626Y206368D01*
X1196132Y207125D01*
X1196483Y208890D01*
X1196132Y210655D01*
X1195132Y212152D01*
X1193635Y213151D01*
X1191870Y213503D01*
X1190105Y213151D01*
X1188608Y212152D01*
X1187608Y210655D01*
X1187257Y208890D01*
X1187608Y207125D01*
X1188114Y206368D01*
X1187436Y205098D01*
X1021044D01*
X1020366Y206368D01*
X1020872Y207125D01*
X1021223Y208890D01*
X1020872Y210655D01*
X1019872Y212152D01*
X1018375Y213151D01*
X1016610Y213503D01*
X1014845Y213151D01*
X1013348Y212152D01*
X1012348Y210655D01*
X1011997Y208890D01*
X1012348Y207125D01*
X1012854Y206368D01*
X1012176Y205098D01*
X927065D01*
X926386Y206368D01*
X926891Y207125D01*
X927243Y208890D01*
X926891Y210655D01*
X925892Y212152D01*
X924395Y213151D01*
X922630Y213503D01*
X920865Y213151D01*
X919368Y212152D01*
X918369Y210655D01*
X918017Y208890D01*
X918369Y207125D01*
X918874Y206368D01*
X918195Y205098D01*
X205098D01*
Y398102D01*
X269850D01*
X271801Y398490D01*
X273455Y399595D01*
X274560Y401249D01*
X274948Y403200D01*
Y555600D01*
X274560Y557551D01*
X273455Y559205D01*
X271801Y560310D01*
X269850Y560698D01*
X205098D01*
Y744902D01*
X1000806D01*
X1001484Y743632D01*
X1000919Y742785D01*
X1000567Y741020D01*
X1000919Y739255D01*
X1001918Y737758D01*
X1003415Y736758D01*
X1005180Y736407D01*
X1006945Y736758D01*
X1008442Y737758D01*
X1009442Y739255D01*
X1009793Y741020D01*
X1009442Y742785D01*
X1008876Y743632D01*
X1009554Y744902D01*
X1060188D01*
X1060787Y743782D01*
X1060609Y743515D01*
X1060257Y741750D01*
X1060609Y739985D01*
X1061608Y738488D01*
Y738328D01*
X1060609Y736831D01*
X1060257Y735066D01*
X1060609Y733301D01*
X1061608Y731804D01*
X1063105Y730805D01*
X1064870Y730453D01*
X1066635Y730805D01*
X1068132Y731804D01*
X1069131Y733301D01*
X1069483Y735066D01*
X1069131Y736831D01*
X1068897Y737183D01*
X1069812Y738098D01*
X1070725Y737488D01*
X1072490Y737137D01*
X1074255Y737488D01*
X1075551Y738354D01*
X1076370Y738485D01*
X1077189Y738354D01*
X1078485Y737488D01*
X1080250Y737137D01*
X1082015Y737488D01*
X1083512Y738488D01*
X1084511Y739985D01*
X1084863Y741750D01*
X1084511Y743515D01*
X1084333Y743782D01*
X1084932Y744902D01*
X1107098D01*
X1107697Y743782D01*
X1107543Y743551D01*
X1107192Y741786D01*
X1107543Y740021D01*
X1108543Y738525D01*
X1110039Y737525D01*
X1111804Y737174D01*
X1113569Y737525D01*
X1115066Y738525D01*
X1116066Y740021D01*
X1116251Y740953D01*
X1117546D01*
X1117738Y739985D01*
X1118738Y738488D01*
X1120235Y737488D01*
X1122000Y737137D01*
X1123765Y737488D01*
X1125262Y738488D01*
X1126262Y739985D01*
X1126613Y741750D01*
X1126262Y743515D01*
X1126083Y743782D01*
X1126682Y744902D01*
X1128818D01*
X1129417Y743782D01*
X1129239Y743515D01*
X1128887Y741750D01*
X1129239Y739985D01*
X1130238Y738488D01*
X1131735Y737488D01*
X1133500Y737137D01*
X1135265Y737488D01*
X1136762Y738488D01*
X1137762Y739985D01*
X1138113Y741750D01*
X1137762Y743515D01*
X1137583Y743782D01*
X1138182Y744902D01*
X1464902D01*
Y535298D01*
D02*
G37*
%LPC*%
G36*
X1174090Y732933D02*
X1172325Y732581D01*
X1170828Y731582D01*
X1170409Y730954D01*
X1168881D01*
X1168462Y731582D01*
X1166965Y732581D01*
X1165200Y732933D01*
X1163435Y732581D01*
X1161938Y731582D01*
X1160938Y730085D01*
X1160587Y728320D01*
X1160938Y726555D01*
X1161938Y725058D01*
X1162567Y724639D01*
Y723111D01*
X1161938Y722692D01*
X1160938Y721195D01*
X1160587Y719430D01*
X1160938Y717665D01*
X1161938Y716168D01*
X1162567Y715749D01*
Y714221D01*
X1161938Y713802D01*
X1160938Y712305D01*
X1160587Y710540D01*
X1160938Y708775D01*
X1161938Y707278D01*
X1162567Y706859D01*
Y705331D01*
X1161938Y704912D01*
X1160938Y703415D01*
X1160587Y701650D01*
X1160938Y699885D01*
X1161938Y698388D01*
X1163435Y697389D01*
X1165200Y697037D01*
X1166965Y697389D01*
X1168462Y698388D01*
X1168881Y699016D01*
X1170409D01*
X1170828Y698388D01*
X1172325Y697389D01*
X1174090Y697037D01*
X1175855Y697389D01*
X1177352Y698388D01*
X1178352Y699885D01*
X1178703Y701650D01*
X1178352Y703415D01*
X1177352Y704912D01*
X1176724Y705331D01*
Y706859D01*
X1177352Y707278D01*
X1178352Y708775D01*
X1178703Y710540D01*
X1178352Y712305D01*
X1177352Y713802D01*
X1176724Y714221D01*
Y715749D01*
X1177352Y716168D01*
X1178352Y717665D01*
X1178703Y719430D01*
X1178352Y721195D01*
X1177352Y722692D01*
X1176724Y723111D01*
Y724639D01*
X1177352Y725058D01*
X1178352Y726555D01*
X1178703Y728320D01*
X1178352Y730085D01*
X1177352Y731582D01*
X1175855Y732581D01*
X1174090Y732933D01*
D02*
G37*
G36*
X1030580Y739283D02*
X1028815Y738932D01*
X1027318Y737932D01*
X1026319Y736435D01*
X1025967Y734670D01*
X1026319Y732905D01*
X1027318Y731408D01*
X1028815Y730408D01*
X1030580Y730057D01*
X1032345Y730408D01*
X1033842Y731408D01*
X1034842Y732905D01*
X1035193Y734670D01*
X1034842Y736435D01*
X1033842Y737932D01*
X1032345Y738932D01*
X1030580Y739283D01*
D02*
G37*
G36*
X1039470Y729123D02*
X1037705Y728772D01*
X1036208Y727772D01*
X1035209Y726275D01*
X1034857Y724510D01*
X1035209Y722745D01*
X1036208Y721248D01*
X1037705Y720248D01*
X1039470Y719897D01*
X1041235Y720248D01*
X1042732Y721248D01*
X1043732Y722745D01*
X1044083Y724510D01*
X1043732Y726275D01*
X1042732Y727772D01*
X1041235Y728772D01*
X1039470Y729123D01*
D02*
G37*
G36*
X681330Y734992D02*
X679275Y734721D01*
X677359Y733928D01*
X675714Y732666D01*
X674452Y731021D01*
X673659Y729106D01*
X673388Y727050D01*
X673659Y724995D01*
X674452Y723079D01*
X675714Y721434D01*
X677359Y720172D01*
X679275Y719379D01*
X681330Y719108D01*
X683386Y719379D01*
X685301Y720172D01*
X686946Y721434D01*
X688208Y723079D01*
X689001Y724995D01*
X689272Y727050D01*
X689001Y729106D01*
X688208Y731021D01*
X686946Y732666D01*
X685301Y733928D01*
X683386Y734721D01*
X681330Y734992D01*
D02*
G37*
G36*
X655930D02*
X653875Y734721D01*
X651959Y733928D01*
X650314Y732666D01*
X649052Y731021D01*
X648259Y729106D01*
X647988Y727050D01*
X648259Y724995D01*
X649052Y723079D01*
X650314Y721434D01*
X651959Y720172D01*
X653875Y719379D01*
X655930Y719108D01*
X657986Y719379D01*
X659901Y720172D01*
X661546Y721434D01*
X662808Y723079D01*
X663601Y724995D01*
X663872Y727050D01*
X663601Y729106D01*
X662808Y731021D01*
X661546Y732666D01*
X659901Y733928D01*
X657986Y734721D01*
X655930Y734992D01*
D02*
G37*
G36*
X494894Y729844D02*
X476606D01*
Y711556D01*
X494894D01*
Y729844D01*
D02*
G37*
G36*
X536550Y729923D02*
X534163Y729609D01*
X531939Y728687D01*
X530028Y727222D01*
X528563Y725312D01*
X527641Y723087D01*
X527327Y720700D01*
X527641Y718313D01*
X528563Y716089D01*
X530028Y714178D01*
X531939Y712713D01*
X534163Y711791D01*
X536550Y711477D01*
X538937Y711791D01*
X541161Y712713D01*
X543072Y714178D01*
X544537Y716089D01*
X545459Y718313D01*
X545773Y720700D01*
X545459Y723087D01*
X544537Y725312D01*
X543072Y727222D01*
X541161Y728687D01*
X538937Y729609D01*
X536550Y729923D01*
D02*
G37*
G36*
X511150D02*
X508763Y729609D01*
X506539Y728687D01*
X504628Y727222D01*
X503163Y725312D01*
X502241Y723087D01*
X501927Y720700D01*
X502241Y718313D01*
X503163Y716089D01*
X504628Y714178D01*
X506539Y712713D01*
X508763Y711791D01*
X511150Y711477D01*
X513537Y711791D01*
X515761Y712713D01*
X517672Y714178D01*
X519137Y716089D01*
X520059Y718313D01*
X520373Y720700D01*
X520059Y723087D01*
X519137Y725312D01*
X517672Y727222D01*
X515761Y728687D01*
X513537Y729609D01*
X511150Y729923D01*
D02*
G37*
G36*
X1153770Y696103D02*
X1152005Y695751D01*
X1150508Y694752D01*
X1150089Y694124D01*
X1148561D01*
X1148142Y694752D01*
X1146645Y695751D01*
X1144880Y696103D01*
X1143115Y695751D01*
X1141618Y694752D01*
X1141199Y694124D01*
X1139671D01*
X1139252Y694752D01*
X1137755Y695751D01*
X1135990Y696103D01*
X1134225Y695751D01*
X1132728Y694752D01*
X1132309Y694124D01*
X1130781D01*
X1130362Y694752D01*
X1128865Y695751D01*
X1127100Y696103D01*
X1125335Y695751D01*
X1123838Y694752D01*
X1122839Y693255D01*
X1122487Y691490D01*
X1122839Y689725D01*
X1123838Y688228D01*
X1124466Y687809D01*
Y686281D01*
X1123838Y685862D01*
X1122839Y684365D01*
X1122487Y682600D01*
X1122839Y680835D01*
X1123838Y679338D01*
X1125335Y678338D01*
X1127100Y677987D01*
X1128865Y678338D01*
X1130362Y679338D01*
X1130781Y679967D01*
X1132309D01*
X1132728Y679338D01*
X1134225Y678338D01*
X1135990Y677987D01*
X1137755Y678338D01*
X1139252Y679338D01*
X1139671Y679967D01*
X1141199D01*
X1141618Y679338D01*
X1143115Y678338D01*
X1144880Y677987D01*
X1146645Y678338D01*
X1148142Y679338D01*
X1148561Y679967D01*
X1150089D01*
X1150508Y679338D01*
X1152005Y678338D01*
X1153770Y677987D01*
X1155535Y678338D01*
X1157032Y679338D01*
X1158031Y680835D01*
X1158383Y682600D01*
X1158031Y684365D01*
X1157032Y685862D01*
X1156404Y686281D01*
Y687809D01*
X1157032Y688228D01*
X1158031Y689725D01*
X1158383Y691490D01*
X1158031Y693255D01*
X1157032Y694752D01*
X1155535Y695751D01*
X1153770Y696103D01*
D02*
G37*
G36*
X681330Y709592D02*
X679275Y709321D01*
X677359Y708528D01*
X675714Y707266D01*
X674452Y705621D01*
X673659Y703706D01*
X673388Y701650D01*
X673659Y699594D01*
X674452Y697679D01*
X675714Y696034D01*
X677359Y694772D01*
X679275Y693979D01*
X681330Y693708D01*
X683386Y693979D01*
X685301Y694772D01*
X686946Y696034D01*
X688208Y697679D01*
X689001Y699594D01*
X689272Y701650D01*
X689001Y703706D01*
X688208Y705621D01*
X686946Y707266D01*
X685301Y708528D01*
X683386Y709321D01*
X681330Y709592D01*
D02*
G37*
G36*
X335890Y699913D02*
X334125Y699561D01*
X332628Y698562D01*
X331628Y697065D01*
X331277Y695300D01*
X331628Y693535D01*
X332628Y692038D01*
X334125Y691039D01*
X335890Y690687D01*
X337655Y691039D01*
X339152Y692038D01*
X340151Y693535D01*
X340503Y695300D01*
X340151Y697065D01*
X339152Y698562D01*
X337655Y699561D01*
X335890Y699913D01*
D02*
G37*
G36*
X418440Y698643D02*
X416675Y698291D01*
X415178Y697292D01*
X414179Y695795D01*
X413827Y694030D01*
X414179Y692265D01*
X415178Y690768D01*
X416675Y689769D01*
X418440Y689417D01*
X420205Y689769D01*
X421702Y690768D01*
X422701Y692265D01*
X423053Y694030D01*
X422701Y695795D01*
X421702Y697292D01*
X420205Y698291D01*
X418440Y698643D01*
D02*
G37*
G36*
X1341730Y692968D02*
X1339965Y692617D01*
X1338468Y691617D01*
X1337469Y690120D01*
X1337117Y688355D01*
X1337469Y686590D01*
X1338468Y685093D01*
X1339965Y684093D01*
X1341730Y683742D01*
X1343495Y684093D01*
X1344992Y685093D01*
X1345130Y685300D01*
X1346657D01*
X1347021Y684756D01*
X1348517Y683756D01*
X1350282Y683405D01*
X1352048Y683756D01*
X1353544Y684756D01*
X1354544Y686252D01*
X1354895Y688018D01*
X1354544Y689783D01*
X1353544Y691279D01*
X1352048Y692279D01*
X1350282Y692630D01*
X1348517Y692279D01*
X1347021Y691279D01*
X1346883Y691072D01*
X1345355D01*
X1344992Y691617D01*
X1343495Y692617D01*
X1341730Y692968D01*
D02*
G37*
G36*
X638150Y689753D02*
X636385Y689401D01*
X634888Y688402D01*
X633889Y686905D01*
X633537Y685140D01*
X633889Y683375D01*
X634888Y681878D01*
X636385Y680879D01*
X638150Y680527D01*
X639915Y680879D01*
X641412Y681878D01*
X642411Y683375D01*
X642763Y685140D01*
X642411Y686905D01*
X641412Y688402D01*
X639915Y689401D01*
X638150Y689753D01*
D02*
G37*
G36*
X536550Y696903D02*
X534163Y696589D01*
X531939Y695667D01*
X530028Y694202D01*
X528563Y692291D01*
X527641Y690067D01*
X527327Y687680D01*
X527641Y685293D01*
X528563Y683069D01*
X530028Y681158D01*
X531939Y679693D01*
X534163Y678771D01*
X536550Y678457D01*
X538937Y678771D01*
X541161Y679693D01*
X543072Y681158D01*
X544537Y683069D01*
X545459Y685293D01*
X545773Y687680D01*
X545459Y690067D01*
X544537Y692291D01*
X543072Y694202D01*
X541161Y695667D01*
X538937Y696589D01*
X536550Y696903D01*
D02*
G37*
G36*
X511150D02*
X508763Y696589D01*
X506539Y695667D01*
X504628Y694202D01*
X503163Y692291D01*
X502241Y690067D01*
X501927Y687680D01*
X502241Y685293D01*
X503163Y683069D01*
X504628Y681158D01*
X506539Y679693D01*
X508763Y678771D01*
X511150Y678457D01*
X513537Y678771D01*
X515761Y679693D01*
X517672Y681158D01*
X519137Y683069D01*
X520059Y685293D01*
X520373Y687680D01*
X520059Y690067D01*
X519137Y692291D01*
X517672Y694202D01*
X515761Y695667D01*
X513537Y696589D01*
X511150Y696903D01*
D02*
G37*
G36*
X485750D02*
X483363Y696589D01*
X481139Y695667D01*
X479228Y694202D01*
X477763Y692291D01*
X476841Y690067D01*
X476527Y687680D01*
X476841Y685293D01*
X477763Y683069D01*
X479228Y681158D01*
X481139Y679693D01*
X483363Y678771D01*
X485750Y678457D01*
X488137Y678771D01*
X490362Y679693D01*
X492272Y681158D01*
X493737Y683069D01*
X494659Y685293D01*
X494973Y687680D01*
X494659Y690067D01*
X493737Y692291D01*
X492272Y694202D01*
X490362Y695667D01*
X488137Y696589D01*
X485750Y696903D01*
D02*
G37*
G36*
X1231240Y679593D02*
X1229475Y679241D01*
X1227978Y678242D01*
X1226979Y676745D01*
X1226627Y674980D01*
X1226979Y673215D01*
X1227978Y671718D01*
X1229475Y670719D01*
X1231240Y670367D01*
X1233005Y670719D01*
X1234502Y671718D01*
X1235501Y673215D01*
X1235853Y674980D01*
X1235501Y676745D01*
X1234502Y678242D01*
X1233005Y679241D01*
X1231240Y679593D01*
D02*
G37*
G36*
X681330Y684192D02*
X679275Y683921D01*
X677359Y683128D01*
X675714Y681866D01*
X674452Y680221D01*
X673659Y678306D01*
X673388Y676250D01*
X673659Y674194D01*
X674452Y672279D01*
X675714Y670634D01*
X677359Y669372D01*
X679275Y668579D01*
X681330Y668308D01*
X683386Y668579D01*
X685301Y669372D01*
X686946Y670634D01*
X688208Y672279D01*
X689001Y674194D01*
X689272Y676250D01*
X689001Y678306D01*
X688208Y680221D01*
X686946Y681866D01*
X685301Y683128D01*
X683386Y683921D01*
X681330Y684192D01*
D02*
G37*
G36*
X655930D02*
X653875Y683921D01*
X651959Y683128D01*
X650314Y681866D01*
X649052Y680221D01*
X648259Y678306D01*
X647988Y676250D01*
X648259Y674194D01*
X649052Y672279D01*
X650314Y670634D01*
X651959Y669372D01*
X653875Y668579D01*
X655930Y668308D01*
X657986Y668579D01*
X659901Y669372D01*
X661546Y670634D01*
X662808Y672279D01*
X663601Y674194D01*
X663872Y676250D01*
X663601Y678306D01*
X662808Y680221D01*
X661546Y681866D01*
X659901Y683128D01*
X657986Y683921D01*
X655930Y684192D01*
D02*
G37*
G36*
X397879Y671973D02*
X396114Y671621D01*
X394618Y670622D01*
X393618Y669125D01*
X393267Y667360D01*
X393618Y665595D01*
X394618Y664098D01*
X396114Y663099D01*
X397879Y662747D01*
X399644Y663099D01*
X401141Y664098D01*
X402141Y665595D01*
X402492Y667360D01*
X402141Y669125D01*
X401141Y670622D01*
X399644Y671621D01*
X397879Y671973D01*
D02*
G37*
G36*
X317955Y670703D02*
X316190Y670351D01*
X314693Y669352D01*
X313694Y667855D01*
X313342Y666090D01*
X313694Y664325D01*
X314693Y662828D01*
X316190Y661829D01*
X317955Y661477D01*
X319720Y661829D01*
X321217Y662828D01*
X322216Y664325D01*
X322568Y666090D01*
X322216Y667855D01*
X321217Y669352D01*
X319720Y670351D01*
X317955Y670703D01*
D02*
G37*
G36*
X583500Y672613D02*
X581735Y672262D01*
X580238Y671262D01*
X579239Y669765D01*
X578887Y668000D01*
X579239Y666235D01*
X580238Y664738D01*
X581735Y663738D01*
X583419Y663403D01*
X583549Y663326D01*
X584390Y662270D01*
X584137Y661000D01*
X584488Y659235D01*
X585488Y657738D01*
X586985Y656739D01*
X588750Y656387D01*
X590515Y656739D01*
X592012Y657738D01*
X593012Y659235D01*
X593363Y661000D01*
X593012Y662765D01*
X592012Y664262D01*
X590515Y665262D01*
X588831Y665596D01*
X588701Y665674D01*
X587860Y666730D01*
X588113Y668000D01*
X587761Y669765D01*
X586762Y671262D01*
X585265Y672262D01*
X583500Y672613D01*
D02*
G37*
G36*
X618000Y655863D02*
X616235Y655511D01*
X614738Y654512D01*
X613773Y653066D01*
X613143Y652929D01*
X612433Y652960D01*
X611541Y654293D01*
X610045Y655293D01*
X608280Y655644D01*
X606515Y655293D01*
X605018Y654293D01*
X604018Y652797D01*
X603667Y651032D01*
X604018Y649267D01*
X605018Y647770D01*
X606515Y646770D01*
X608280Y646419D01*
X610045Y646770D01*
X611541Y647770D01*
X612507Y649216D01*
X613136Y649353D01*
X613847Y649322D01*
X614738Y647988D01*
X616235Y646989D01*
X618000Y646637D01*
X619765Y646989D01*
X621262Y647988D01*
X622262Y649485D01*
X622613Y651250D01*
X622262Y653015D01*
X621262Y654512D01*
X619765Y655511D01*
X618000Y655863D01*
D02*
G37*
G36*
X1414610Y713932D02*
X1409663Y713542D01*
X1404838Y712384D01*
X1400254Y710485D01*
X1396023Y707892D01*
X1392250Y704670D01*
X1389028Y700897D01*
X1386435Y696666D01*
X1384536Y692082D01*
X1383378Y687257D01*
X1382988Y682310D01*
X1383378Y677363D01*
X1384536Y672538D01*
X1386435Y667954D01*
X1389028Y663723D01*
X1392250Y659950D01*
X1396023Y656728D01*
X1400254Y654135D01*
X1404838Y652236D01*
X1409663Y651078D01*
X1414610Y650688D01*
X1419557Y651078D01*
X1424382Y652236D01*
X1428966Y654135D01*
X1433197Y656728D01*
X1436970Y659950D01*
X1440192Y663723D01*
X1442785Y667954D01*
X1444684Y672538D01*
X1445842Y677363D01*
X1446232Y682310D01*
X1445842Y687257D01*
X1444684Y692082D01*
X1442785Y696666D01*
X1440192Y700897D01*
X1436970Y704670D01*
X1433197Y707892D01*
X1428966Y710485D01*
X1424382Y712384D01*
X1419557Y713542D01*
X1414610Y713932D01*
D02*
G37*
G36*
X894610D02*
X889663Y713542D01*
X884838Y712384D01*
X880254Y710485D01*
X876023Y707892D01*
X872250Y704670D01*
X869028Y700897D01*
X866435Y696666D01*
X864536Y692082D01*
X863378Y687257D01*
X862989Y682310D01*
X863378Y677363D01*
X864536Y672538D01*
X866435Y667954D01*
X869028Y663723D01*
X872250Y659950D01*
X876023Y656728D01*
X880254Y654135D01*
X884838Y652236D01*
X889663Y651078D01*
X894610Y650688D01*
X899557Y651078D01*
X904382Y652236D01*
X908966Y654135D01*
X913197Y656728D01*
X916970Y659950D01*
X920192Y663723D01*
X922785Y667954D01*
X924684Y672538D01*
X925842Y677363D01*
X926232Y682310D01*
X925842Y687257D01*
X924684Y692082D01*
X922785Y696666D01*
X920192Y700897D01*
X916970Y704670D01*
X913197Y707892D01*
X908966Y710485D01*
X904382Y712384D01*
X899557Y713542D01*
X894610Y713932D01*
D02*
G37*
G36*
X774610D02*
X769663Y713542D01*
X764838Y712384D01*
X760254Y710485D01*
X756023Y707892D01*
X752250Y704670D01*
X749028Y700897D01*
X746435Y696666D01*
X744536Y692082D01*
X743378Y687257D01*
X742989Y682310D01*
X743378Y677363D01*
X744536Y672538D01*
X746435Y667954D01*
X749028Y663723D01*
X752250Y659950D01*
X756023Y656728D01*
X760254Y654135D01*
X764838Y652236D01*
X769663Y651078D01*
X774610Y650688D01*
X779557Y651078D01*
X784382Y652236D01*
X788966Y654135D01*
X793197Y656728D01*
X796970Y659950D01*
X800192Y663723D01*
X802785Y667954D01*
X804684Y672538D01*
X805842Y677363D01*
X806232Y682310D01*
X805842Y687257D01*
X804684Y692082D01*
X802785Y696666D01*
X800192Y700897D01*
X796970Y704670D01*
X793197Y707892D01*
X788966Y710485D01*
X784382Y712384D01*
X779557Y713542D01*
X774610Y713932D01*
D02*
G37*
G36*
X254610D02*
X249663Y713542D01*
X244838Y712384D01*
X240254Y710485D01*
X236023Y707892D01*
X232250Y704670D01*
X229028Y700897D01*
X226435Y696666D01*
X224536Y692082D01*
X223378Y687257D01*
X222988Y682310D01*
X223378Y677363D01*
X224536Y672538D01*
X226435Y667954D01*
X229028Y663723D01*
X232250Y659950D01*
X236023Y656728D01*
X240254Y654135D01*
X244838Y652236D01*
X249663Y651078D01*
X254610Y650688D01*
X259557Y651078D01*
X264382Y652236D01*
X268966Y654135D01*
X273197Y656728D01*
X276970Y659950D01*
X280192Y663723D01*
X282785Y667954D01*
X284684Y672538D01*
X285842Y677363D01*
X286231Y682310D01*
X285842Y687257D01*
X284684Y692082D01*
X282785Y696666D01*
X280192Y700897D01*
X276970Y704670D01*
X273197Y707892D01*
X268966Y710485D01*
X264382Y712384D01*
X259557Y713542D01*
X254610Y713932D01*
D02*
G37*
G36*
X929000Y659613D02*
X927235Y659261D01*
X925738Y658262D01*
X924738Y656765D01*
X924387Y655000D01*
X924738Y653235D01*
X925738Y651738D01*
X927235Y650739D01*
X929000Y650387D01*
X930765Y650739D01*
X932262Y651738D01*
X933261Y653235D01*
X933613Y655000D01*
X933261Y656765D01*
X932262Y658262D01*
X930765Y659261D01*
X929000Y659613D01*
D02*
G37*
G36*
X655930Y658792D02*
X653875Y658521D01*
X651959Y657728D01*
X650314Y656466D01*
X649052Y654821D01*
X648259Y652906D01*
X647988Y650850D01*
X648259Y648794D01*
X649052Y646879D01*
X650314Y645234D01*
X651959Y643972D01*
X653875Y643179D01*
X655930Y642908D01*
X657986Y643179D01*
X659901Y643972D01*
X661546Y645234D01*
X662808Y646879D01*
X663601Y648794D01*
X663872Y650850D01*
X663601Y652906D01*
X662808Y654821D01*
X661546Y656466D01*
X659901Y657728D01*
X657986Y658521D01*
X655930Y658792D01*
D02*
G37*
G36*
X539090Y648632D02*
X537034Y648361D01*
X535119Y647568D01*
X533474Y646306D01*
X532212Y644661D01*
X531419Y642746D01*
X531148Y640690D01*
X531419Y638634D01*
X532212Y636719D01*
X533474Y635074D01*
X535119Y633812D01*
X537034Y633019D01*
X539090Y632748D01*
X541146Y633019D01*
X543061Y633812D01*
X544706Y635074D01*
X545968Y636719D01*
X546761Y638634D01*
X547032Y640690D01*
X546761Y642746D01*
X545968Y644661D01*
X544706Y646306D01*
X543061Y647568D01*
X541146Y648361D01*
X539090Y648632D01*
D02*
G37*
G36*
X513690D02*
X511634Y648361D01*
X509719Y647568D01*
X508074Y646306D01*
X506812Y644661D01*
X506019Y642746D01*
X505748Y640690D01*
X506019Y638634D01*
X506812Y636719D01*
X508074Y635074D01*
X509719Y633812D01*
X511634Y633019D01*
X513690Y632748D01*
X515746Y633019D01*
X517661Y633812D01*
X519306Y635074D01*
X520568Y636719D01*
X521361Y638634D01*
X521632Y640690D01*
X521361Y642746D01*
X520568Y644661D01*
X519306Y646306D01*
X517661Y647568D01*
X515746Y648361D01*
X513690Y648632D01*
D02*
G37*
G36*
X419710D02*
X417654Y648361D01*
X415739Y647568D01*
X414094Y646306D01*
X412832Y644661D01*
X412039Y642746D01*
X411768Y640690D01*
X412039Y638634D01*
X412832Y636719D01*
X414094Y635074D01*
X415739Y633812D01*
X417654Y633019D01*
X419710Y632748D01*
X421766Y633019D01*
X423681Y633812D01*
X425326Y635074D01*
X426588Y636719D01*
X427381Y638634D01*
X427652Y640690D01*
X427381Y642746D01*
X426588Y644661D01*
X425326Y646306D01*
X423681Y647568D01*
X421766Y648361D01*
X419710Y648632D01*
D02*
G37*
G36*
X394310D02*
X392254Y648361D01*
X390339Y647568D01*
X388694Y646306D01*
X387432Y644661D01*
X386639Y642746D01*
X386368Y640690D01*
X386639Y638634D01*
X387432Y636719D01*
X388694Y635074D01*
X390339Y633812D01*
X392254Y633019D01*
X394310Y632748D01*
X396366Y633019D01*
X398281Y633812D01*
X399926Y635074D01*
X401188Y636719D01*
X401981Y638634D01*
X402252Y640690D01*
X401981Y642746D01*
X401188Y644661D01*
X399926Y646306D01*
X398281Y647568D01*
X396366Y648361D01*
X394310Y648632D01*
D02*
G37*
G36*
X1456030Y627523D02*
X1454265Y627172D01*
X1452768Y626172D01*
X1452349Y625544D01*
X1450821D01*
X1450402Y626172D01*
X1448905Y627172D01*
X1447140Y627523D01*
X1445375Y627172D01*
X1443878Y626172D01*
X1443459Y625544D01*
X1441931D01*
X1441512Y626172D01*
X1440015Y627172D01*
X1438250Y627523D01*
X1436485Y627172D01*
X1434988Y626172D01*
X1433988Y624675D01*
X1433637Y622910D01*
X1433988Y621145D01*
X1434789Y619946D01*
X1434910Y619100D01*
X1434789Y618254D01*
X1433988Y617055D01*
X1433637Y615290D01*
X1433988Y613525D01*
X1434988Y612028D01*
X1436485Y611029D01*
X1438250Y610677D01*
X1440015Y611029D01*
X1441512Y612028D01*
X1441931Y612657D01*
X1443459D01*
X1443878Y612028D01*
X1445375Y611029D01*
X1447140Y610677D01*
X1448905Y611029D01*
X1450402Y612028D01*
X1450821Y612657D01*
X1452349D01*
X1452768Y612028D01*
X1454265Y611029D01*
X1456030Y610677D01*
X1457795Y611029D01*
X1459292Y612028D01*
X1460291Y613525D01*
X1460643Y615290D01*
X1460291Y617055D01*
X1459491Y618254D01*
X1459370Y619100D01*
X1459491Y619946D01*
X1460291Y621145D01*
X1460643Y622910D01*
X1460291Y624675D01*
X1459292Y626172D01*
X1457795Y627172D01*
X1456030Y627523D01*
D02*
G37*
G36*
X681330Y633392D02*
X679275Y633121D01*
X677359Y632328D01*
X675714Y631066D01*
X674452Y629421D01*
X673659Y627505D01*
X673388Y625450D01*
X673659Y623395D01*
X674452Y621479D01*
X675714Y619834D01*
X677359Y618572D01*
X679275Y617779D01*
X681330Y617508D01*
X683386Y617779D01*
X685301Y618572D01*
X686946Y619834D01*
X688208Y621479D01*
X689001Y623395D01*
X689272Y625450D01*
X689001Y627505D01*
X688208Y629421D01*
X686946Y631066D01*
X685301Y632328D01*
X683386Y633121D01*
X681330Y633392D01*
D02*
G37*
G36*
X993000Y617113D02*
X991235Y616762D01*
X989738Y615762D01*
X988738Y614265D01*
X988623Y613682D01*
X987328D01*
X987262Y614015D01*
X986262Y615512D01*
X984765Y616511D01*
X983000Y616863D01*
X981235Y616511D01*
X979738Y615512D01*
X978738Y614015D01*
X978387Y612250D01*
X978738Y610485D01*
X979738Y608988D01*
X981235Y607989D01*
X983000Y607637D01*
X984765Y607989D01*
X986262Y608988D01*
X987262Y610485D01*
X987377Y611068D01*
X988672D01*
X988738Y610735D01*
X989738Y609238D01*
X991235Y608238D01*
X993000Y607887D01*
X994765Y608238D01*
X996262Y609238D01*
X997262Y610735D01*
X997613Y612500D01*
X997262Y614265D01*
X996262Y615762D01*
X994765Y616762D01*
X993000Y617113D01*
D02*
G37*
G36*
X887072Y622434D02*
X885306Y622082D01*
X883810Y621082D01*
X882810Y619586D01*
X882459Y617821D01*
X882810Y616056D01*
X883810Y614559D01*
X885306Y613559D01*
X887072Y613208D01*
X888837Y613559D01*
X890333Y614559D01*
X891333Y616056D01*
X891684Y617821D01*
X891333Y619586D01*
X890333Y621082D01*
X888837Y622082D01*
X887072Y622434D01*
D02*
G37*
G36*
X1233783Y621974D02*
X1232018Y621623D01*
X1230521Y620623D01*
X1229521Y619127D01*
X1229170Y617362D01*
X1229521Y615596D01*
X1230521Y614100D01*
X1232018Y613100D01*
X1233783Y612749D01*
X1235548Y613100D01*
X1237044Y614100D01*
X1238044Y615596D01*
X1238395Y617362D01*
X1238044Y619127D01*
X1237044Y620623D01*
X1235548Y621623D01*
X1233783Y621974D01*
D02*
G37*
G36*
X513690Y623232D02*
X511634Y622961D01*
X509719Y622168D01*
X508074Y620906D01*
X506812Y619261D01*
X506019Y617346D01*
X505748Y615290D01*
X506019Y613234D01*
X506812Y611319D01*
X507920Y609875D01*
X507651Y609161D01*
X507277Y608708D01*
X506500Y608863D01*
X504735Y608512D01*
X503238Y607512D01*
X502239Y606015D01*
X501887Y604250D01*
X502239Y602485D01*
X503238Y600988D01*
X504735Y599989D01*
X506500Y599637D01*
X508265Y599989D01*
X509762Y600988D01*
X510761Y602485D01*
X511113Y604250D01*
X510761Y606015D01*
X510216Y606832D01*
X511058Y607858D01*
X511634Y607619D01*
X513690Y607348D01*
X515746Y607619D01*
X517293Y608259D01*
X518134Y607234D01*
X517989Y607015D01*
X517637Y605250D01*
X517989Y603485D01*
X518988Y601988D01*
X520485Y600989D01*
X522250Y600637D01*
X524015Y600989D01*
X525512Y601988D01*
X526511Y603485D01*
X526623Y604048D01*
X526693Y604399D01*
X527913Y604279D01*
X527993Y603877D01*
X528265Y602514D01*
X529264Y601018D01*
X530761Y600018D01*
X532526Y599667D01*
X534291Y600018D01*
X535788Y601018D01*
X536787Y602514D01*
X537139Y604280D01*
X536787Y606045D01*
X536620Y606296D01*
X537218Y607416D01*
X546964D01*
Y623164D01*
X531216D01*
Y608632D01*
X530761Y608541D01*
X529264Y607541D01*
X528265Y606045D01*
X528153Y605482D01*
X528083Y605131D01*
X526863Y605250D01*
X526783Y605652D01*
X526511Y607015D01*
X525512Y608512D01*
X524015Y609511D01*
X522250Y609863D01*
X520835Y609581D01*
X520031Y610620D01*
X520568Y611319D01*
X521361Y613234D01*
X521632Y615290D01*
X521361Y617346D01*
X520568Y619261D01*
X519306Y620906D01*
X517661Y622168D01*
X515746Y622961D01*
X513690Y623232D01*
D02*
G37*
G36*
X868250Y616863D02*
X866485Y616511D01*
X864988Y615512D01*
X863988Y614015D01*
X863637Y612250D01*
X863988Y610485D01*
X864988Y608988D01*
X866485Y607989D01*
X868250Y607637D01*
X870015Y607989D01*
X871512Y608988D01*
X872512Y610485D01*
X872863Y612250D01*
X872512Y614015D01*
X871512Y615512D01*
X870015Y616511D01*
X868250Y616863D01*
D02*
G37*
G36*
X488290Y623232D02*
X486235Y622961D01*
X484319Y622168D01*
X482674Y620906D01*
X481412Y619261D01*
X480619Y617346D01*
X480348Y615290D01*
X480619Y613234D01*
X481412Y611319D01*
X482674Y609674D01*
X484319Y608412D01*
X486235Y607619D01*
X488290Y607348D01*
X490345Y607619D01*
X492261Y608412D01*
X493906Y609674D01*
X495168Y611319D01*
X495961Y613234D01*
X496232Y615290D01*
X495961Y617346D01*
X495168Y619261D01*
X493906Y620906D01*
X492261Y622168D01*
X490345Y622961D01*
X488290Y623232D01*
D02*
G37*
G36*
X419710D02*
X417654Y622961D01*
X415739Y622168D01*
X414094Y620906D01*
X412832Y619261D01*
X412039Y617346D01*
X411768Y615290D01*
X412039Y613234D01*
X412832Y611319D01*
X414094Y609674D01*
X415739Y608412D01*
X417654Y607619D01*
X419710Y607348D01*
X421766Y607619D01*
X423681Y608412D01*
X425326Y609674D01*
X426588Y611319D01*
X427381Y613234D01*
X427652Y615290D01*
X427381Y617346D01*
X426588Y619261D01*
X425326Y620906D01*
X423681Y622168D01*
X421766Y622961D01*
X419710Y623232D01*
D02*
G37*
G36*
X394310D02*
X392254Y622961D01*
X390339Y622168D01*
X388694Y620906D01*
X387432Y619261D01*
X386639Y617346D01*
X386368Y615290D01*
X386639Y613234D01*
X387432Y611319D01*
X388694Y609674D01*
X390339Y608412D01*
X392254Y607619D01*
X394310Y607348D01*
X396366Y607619D01*
X398281Y608412D01*
X399926Y609674D01*
X401188Y611319D01*
X401981Y613234D01*
X402252Y615290D01*
X401981Y617346D01*
X401188Y619261D01*
X399926Y620906D01*
X398281Y622168D01*
X396366Y622961D01*
X394310Y623232D01*
D02*
G37*
G36*
X914075Y622398D02*
X912310Y622047D01*
X910814Y621047D01*
X909814Y619550D01*
X909463Y617785D01*
X909514Y617525D01*
X908459Y616322D01*
X907238Y616079D01*
X905741Y615079D01*
X904741Y613583D01*
X904390Y611817D01*
X904741Y610052D01*
X905741Y608556D01*
X907238Y607556D01*
X909003Y607205D01*
X910768Y607556D01*
X912264Y608556D01*
X913264Y610052D01*
X913615Y611817D01*
X913564Y612078D01*
X914619Y613281D01*
X915840Y613524D01*
X917337Y614524D01*
X918337Y616020D01*
X918688Y617785D01*
X918337Y619550D01*
X917337Y621047D01*
X915840Y622047D01*
X914075Y622398D01*
D02*
G37*
G36*
X1424280Y607203D02*
X1422515Y606852D01*
X1421018Y605852D01*
X1420599Y605224D01*
X1419071D01*
X1418652Y605852D01*
X1417155Y606852D01*
X1415390Y607203D01*
X1413625Y606852D01*
X1412128Y605852D01*
X1411709Y605224D01*
X1410181D01*
X1409762Y605852D01*
X1408265Y606852D01*
X1406500Y607203D01*
X1404735Y606852D01*
X1403238Y605852D01*
X1402238Y604355D01*
X1401887Y602590D01*
X1402238Y600825D01*
X1403040Y599626D01*
X1403160Y598780D01*
X1403040Y597934D01*
X1402238Y596735D01*
X1401887Y594970D01*
X1402238Y593205D01*
X1403238Y591708D01*
X1404735Y590709D01*
X1406500Y590357D01*
X1408265Y590709D01*
X1409762Y591708D01*
X1410181Y592337D01*
X1411709D01*
X1412128Y591708D01*
X1413625Y590709D01*
X1415390Y590357D01*
X1417155Y590709D01*
X1418652Y591708D01*
X1419071Y592337D01*
X1420599D01*
X1421018Y591708D01*
X1422515Y590709D01*
X1424280Y590357D01*
X1426045Y590709D01*
X1427542Y591708D01*
X1428542Y593205D01*
X1428893Y594970D01*
X1428542Y596735D01*
X1427741Y597934D01*
X1427620Y598780D01*
X1427741Y599626D01*
X1428542Y600825D01*
X1428893Y602590D01*
X1428542Y604355D01*
X1427542Y605852D01*
X1426045Y606852D01*
X1424280Y607203D01*
D02*
G37*
G36*
X890794Y611142D02*
X889028Y610791D01*
X887532Y609791D01*
X886532Y608295D01*
X886181Y606530D01*
X886532Y604764D01*
X887532Y603268D01*
X889028Y602268D01*
X890794Y601917D01*
X892559Y602268D01*
X894055Y603268D01*
X895055Y604764D01*
X895406Y606530D01*
X895055Y608295D01*
X894055Y609791D01*
X892559Y610791D01*
X890794Y611142D01*
D02*
G37*
G36*
X1198220Y602488D02*
X1196455Y602137D01*
X1195256Y601336D01*
X1194410Y601216D01*
X1193564Y601336D01*
X1192365Y602137D01*
X1190600Y602488D01*
X1188835Y602137D01*
X1187620Y601325D01*
X1186242Y601102D01*
X1184745Y602102D01*
X1182980Y602453D01*
X1181215Y602102D01*
X1180016Y601301D01*
X1179170Y601180D01*
X1178324Y601301D01*
X1177125Y602102D01*
X1175360Y602453D01*
X1173595Y602102D01*
X1172396Y601301D01*
X1171550Y601180D01*
X1170704Y601301D01*
X1169505Y602102D01*
X1167740Y602453D01*
X1165975Y602102D01*
X1164776Y601301D01*
X1163930Y601180D01*
X1163084Y601301D01*
X1161885Y602102D01*
X1160120Y602453D01*
X1158355Y602102D01*
X1157156Y601301D01*
X1156310Y601180D01*
X1155464Y601301D01*
X1154265Y602102D01*
X1152500Y602453D01*
X1150735Y602102D01*
X1149536Y601301D01*
X1148690Y601180D01*
X1147844Y601301D01*
X1146645Y602102D01*
X1144880Y602453D01*
X1143115Y602102D01*
X1141618Y601102D01*
X1140619Y599605D01*
X1140267Y597840D01*
X1140619Y596075D01*
X1141561Y594665D01*
X1140619Y593255D01*
X1140267Y591490D01*
X1140619Y589725D01*
X1141561Y588315D01*
X1140619Y586905D01*
X1140267Y585140D01*
X1140619Y583375D01*
X1141618Y581878D01*
X1143115Y580878D01*
X1144880Y580527D01*
X1146645Y580878D01*
X1147844Y581679D01*
X1148690Y581800D01*
X1149536Y581679D01*
X1150735Y580878D01*
X1152500Y580527D01*
X1154265Y580878D01*
X1155464Y581679D01*
X1156310Y581800D01*
X1157156Y581679D01*
X1158355Y580878D01*
X1160120Y580527D01*
X1161885Y580878D01*
X1163084Y581679D01*
X1163930Y581800D01*
X1164776Y581679D01*
X1165975Y580878D01*
X1167740Y580527D01*
X1169505Y580878D01*
X1170704Y581679D01*
X1171550Y581800D01*
X1172396Y581679D01*
X1173595Y580878D01*
X1175360Y580527D01*
X1177125Y580878D01*
X1178324Y581679D01*
X1179170Y581800D01*
X1180016Y581679D01*
X1181215Y580878D01*
X1182980Y580527D01*
X1184745Y580878D01*
X1185960Y581690D01*
X1187338Y581914D01*
X1188835Y580914D01*
X1190600Y580563D01*
X1192365Y580914D01*
X1193564Y581715D01*
X1194410Y581836D01*
X1195256Y581715D01*
X1196455Y580914D01*
X1198220Y580563D01*
X1199985Y580914D01*
X1201482Y581914D01*
X1202482Y583410D01*
X1202833Y585176D01*
X1202482Y586941D01*
X1201540Y588351D01*
X1202482Y589761D01*
X1202833Y591526D01*
X1202482Y593291D01*
X1201540Y594701D01*
X1202482Y596110D01*
X1202833Y597876D01*
X1202482Y599641D01*
X1201482Y601137D01*
X1199985Y602137D01*
X1198220Y602488D01*
D02*
G37*
G36*
X573250Y602613D02*
X571485Y602262D01*
X569988Y601262D01*
X568988Y599765D01*
X568637Y598000D01*
X568647Y597949D01*
X568270Y597548D01*
X567530Y597058D01*
X566000Y597363D01*
X564235Y597011D01*
X562738Y596012D01*
X561739Y594515D01*
X561387Y592750D01*
X561739Y590985D01*
X562738Y589488D01*
X564235Y588489D01*
X566000Y588137D01*
X567765Y588489D01*
X569262Y589488D01*
X570261Y590985D01*
X570613Y592750D01*
X570603Y592801D01*
X570980Y593202D01*
X571720Y593692D01*
X573250Y593387D01*
X575015Y593739D01*
X576512Y594738D01*
X577511Y596235D01*
X577863Y598000D01*
X577511Y599765D01*
X576512Y601262D01*
X575015Y602262D01*
X573250Y602613D01*
D02*
G37*
G36*
X766420Y598313D02*
X764655Y597962D01*
X763158Y596962D01*
X762739Y596334D01*
X761211D01*
X760792Y596962D01*
X759295Y597962D01*
X757530Y598313D01*
X755765Y597962D01*
X754268Y596962D01*
X753269Y595465D01*
X752917Y593700D01*
X753269Y591935D01*
X754268Y590438D01*
X754896Y590019D01*
Y588491D01*
X754268Y588072D01*
X753269Y586575D01*
X752917Y584810D01*
X753269Y583045D01*
X754268Y581548D01*
X754896Y581129D01*
Y579601D01*
X754268Y579182D01*
X753269Y577685D01*
X752917Y575920D01*
X753269Y574155D01*
X754268Y572658D01*
X754896Y572239D01*
Y570711D01*
X754268Y570292D01*
X753269Y568795D01*
X752917Y567030D01*
X753269Y565265D01*
X754268Y563768D01*
X755765Y562769D01*
X757530Y562417D01*
X759295Y562769D01*
X760792Y563768D01*
X761211Y564397D01*
X762739D01*
X763158Y563768D01*
X764655Y562769D01*
X766420Y562417D01*
X768185Y562769D01*
X769682Y563768D01*
X770682Y565265D01*
X771033Y567030D01*
X770682Y568795D01*
X769682Y570292D01*
X769054Y570711D01*
Y572239D01*
X769682Y572658D01*
X770682Y574155D01*
X771033Y575920D01*
X770682Y577685D01*
X769682Y579182D01*
X769054Y579601D01*
Y581129D01*
X769682Y581548D01*
X770682Y583045D01*
X771033Y584810D01*
X770682Y586575D01*
X769682Y588072D01*
X769054Y588491D01*
Y590019D01*
X769682Y590438D01*
X770682Y591935D01*
X771033Y593700D01*
X770682Y595465D01*
X769682Y596962D01*
X768185Y597962D01*
X766420Y598313D01*
D02*
G37*
G36*
X655930Y607992D02*
X653875Y607721D01*
X651959Y606928D01*
X650314Y605666D01*
X649052Y604021D01*
X648259Y602105D01*
X647988Y600050D01*
X648259Y597994D01*
X649052Y596079D01*
X649288Y595771D01*
X648408Y594832D01*
X647765Y595261D01*
X646000Y595613D01*
X644235Y595261D01*
X642738Y594262D01*
X641739Y592765D01*
X641613Y592137D01*
X640202Y591552D01*
X639515Y592011D01*
X637750Y592363D01*
X635985Y592011D01*
X634488Y591012D01*
X633489Y589515D01*
X633137Y587750D01*
X633489Y585985D01*
X634488Y584488D01*
X635985Y583489D01*
X637750Y583137D01*
X639515Y583489D01*
X641012Y584488D01*
X642011Y585985D01*
X642137Y586613D01*
X643548Y587198D01*
X644235Y586739D01*
X646000Y586387D01*
X647765Y586739D01*
X649262Y587738D01*
X650262Y589235D01*
X650613Y591000D01*
X650262Y592765D01*
X650113Y592988D01*
X651052Y593868D01*
X651959Y593172D01*
X653875Y592379D01*
X655930Y592108D01*
X657986Y592379D01*
X659901Y593172D01*
X661546Y594434D01*
X662808Y596079D01*
X663601Y597994D01*
X663872Y600050D01*
X663601Y602105D01*
X662808Y604021D01*
X661546Y605666D01*
X659901Y606928D01*
X657986Y607721D01*
X655930Y607992D01*
D02*
G37*
G36*
X1269340Y603393D02*
X1267575Y603041D01*
X1266078Y602042D01*
X1265079Y600545D01*
X1264727Y598780D01*
X1265079Y597015D01*
X1266078Y595518D01*
X1267575Y594519D01*
X1269340Y594167D01*
X1271105Y594519D01*
X1272602Y595518D01*
X1273602Y597015D01*
X1273953Y598780D01*
X1273602Y600545D01*
X1272602Y602042D01*
X1271105Y603041D01*
X1269340Y603393D01*
D02*
G37*
G36*
X681330Y607992D02*
X679275Y607721D01*
X677359Y606928D01*
X675714Y605666D01*
X674452Y604021D01*
X673659Y602105D01*
X673388Y600050D01*
X673659Y597994D01*
X674452Y596079D01*
X675714Y594434D01*
X677359Y593172D01*
X679275Y592379D01*
X681330Y592108D01*
X683386Y592379D01*
X685301Y593172D01*
X686946Y594434D01*
X688208Y596079D01*
X689001Y597994D01*
X689272Y600050D01*
X689001Y602105D01*
X688208Y604021D01*
X686946Y605666D01*
X685301Y606928D01*
X683386Y607721D01*
X681330Y607992D01*
D02*
G37*
G36*
X1294740Y598313D02*
X1292975Y597962D01*
X1291478Y596962D01*
X1290479Y595465D01*
X1290127Y593700D01*
X1290479Y591935D01*
X1291478Y590438D01*
X1292975Y589439D01*
X1294740Y589087D01*
X1296505Y589439D01*
X1298002Y590438D01*
X1299001Y591935D01*
X1299353Y593700D01*
X1299001Y595465D01*
X1298002Y596962D01*
X1296505Y597962D01*
X1294740Y598313D01*
D02*
G37*
G36*
X1424280Y585613D02*
X1422515Y585261D01*
X1421018Y584262D01*
X1420599Y583634D01*
X1419071D01*
X1418652Y584262D01*
X1417155Y585261D01*
X1415390Y585613D01*
X1413625Y585261D01*
X1412128Y584262D01*
X1411709Y583634D01*
X1410181D01*
X1409762Y584262D01*
X1408265Y585261D01*
X1406500Y585613D01*
X1404735Y585261D01*
X1403238Y584262D01*
X1402238Y582765D01*
X1401887Y581000D01*
X1402238Y579235D01*
X1403040Y578036D01*
X1403160Y577190D01*
X1403040Y576344D01*
X1402238Y575145D01*
X1401887Y573380D01*
X1402238Y571615D01*
X1403238Y570118D01*
X1404735Y569118D01*
X1406500Y568767D01*
X1408265Y569118D01*
X1409762Y570118D01*
X1410181Y570746D01*
X1411709D01*
X1412128Y570118D01*
X1413625Y569118D01*
X1415390Y568767D01*
X1417155Y569118D01*
X1418652Y570118D01*
X1419071Y570746D01*
X1420599D01*
X1421018Y570118D01*
X1422515Y569118D01*
X1424280Y568767D01*
X1426045Y569118D01*
X1427542Y570118D01*
X1428542Y571615D01*
X1428893Y573380D01*
X1428542Y575145D01*
X1427741Y576344D01*
X1427620Y577190D01*
X1427741Y578036D01*
X1428542Y579235D01*
X1428893Y581000D01*
X1428542Y582765D01*
X1427542Y584262D01*
X1426045Y585261D01*
X1424280Y585613D01*
D02*
G37*
G36*
X655930Y582592D02*
X653875Y582321D01*
X651959Y581528D01*
X650314Y580266D01*
X649594Y579327D01*
X648337Y579505D01*
X648204Y579602D01*
X647262Y581012D01*
X645765Y582011D01*
X644000Y582363D01*
X642235Y582011D01*
X640738Y581012D01*
X639739Y579515D01*
X639387Y577750D01*
X639739Y575985D01*
X640738Y574488D01*
X642235Y573489D01*
X644000Y573137D01*
X645765Y573489D01*
X646771Y574161D01*
X648107Y573663D01*
X648120Y573651D01*
X648259Y572594D01*
X649052Y570679D01*
X650314Y569034D01*
X651959Y567772D01*
X653875Y566979D01*
X655930Y566708D01*
X657986Y566979D01*
X659901Y567772D01*
X661546Y569034D01*
X662808Y570679D01*
X663601Y572594D01*
X663872Y574650D01*
X663601Y576706D01*
X662808Y578621D01*
X661546Y580266D01*
X659901Y581528D01*
X657986Y582321D01*
X655930Y582592D01*
D02*
G37*
G36*
X1268070Y588153D02*
X1266305Y587802D01*
X1264808Y586802D01*
X1263809Y585305D01*
X1263457Y583540D01*
X1263809Y581775D01*
X1264808Y580278D01*
X1266305Y579278D01*
X1268070Y578927D01*
X1269835Y579278D01*
X1271332Y580278D01*
X1272331Y581775D01*
X1272683Y583540D01*
X1272331Y585305D01*
X1271332Y586802D01*
X1269835Y587802D01*
X1268070Y588153D01*
D02*
G37*
G36*
X439004Y592514D02*
X437239Y592163D01*
X435742Y591163D01*
X434743Y589666D01*
X434391Y587901D01*
X434743Y586136D01*
X435742Y584640D01*
X437239Y583640D01*
X437614Y583565D01*
X438376Y582119D01*
X438159Y581028D01*
X438510Y579263D01*
X439510Y577767D01*
X441006Y576767D01*
X442772Y576416D01*
X444537Y576767D01*
X446033Y577767D01*
X447033Y579263D01*
X447384Y581028D01*
X447033Y582794D01*
X446033Y584290D01*
X444537Y585290D01*
X444161Y585365D01*
X443400Y586811D01*
X443617Y587901D01*
X443265Y589666D01*
X442266Y591163D01*
X440769Y592163D01*
X439004Y592514D01*
D02*
G37*
G36*
X1284580Y584343D02*
X1282815Y583992D01*
X1281318Y582992D01*
X1280318Y581495D01*
X1279967Y579730D01*
X1280318Y577965D01*
X1281318Y576468D01*
X1282815Y575468D01*
X1284580Y575117D01*
X1286345Y575468D01*
X1287842Y576468D01*
X1288842Y577965D01*
X1289193Y579730D01*
X1288842Y581495D01*
X1287842Y582992D01*
X1286345Y583992D01*
X1284580Y584343D01*
D02*
G37*
G36*
X415315Y573598D02*
X413550Y573246D01*
X412053Y572247D01*
X411054Y570750D01*
X410853Y569739D01*
X410195Y568935D01*
X409482Y568864D01*
X408280Y569103D01*
X406515Y568751D01*
X405018Y567752D01*
X404928Y567617D01*
X404436Y567581D01*
X403496Y567759D01*
X402652Y569022D01*
X401155Y570022D01*
X399390Y570373D01*
X397625Y570022D01*
X396128Y569022D01*
X395129Y567525D01*
X394777Y565760D01*
X395129Y563995D01*
X395484Y563463D01*
X395055Y562792D01*
X394644Y562434D01*
X393040Y562753D01*
X391275Y562402D01*
X389778Y561402D01*
X388778Y559905D01*
X388427Y558140D01*
X388778Y556375D01*
X389778Y554878D01*
X391275Y553879D01*
X393040Y553527D01*
X394805Y553879D01*
X396302Y554878D01*
X397301Y556375D01*
X397653Y558140D01*
X397301Y559905D01*
X396946Y560437D01*
X397375Y561108D01*
X397786Y561466D01*
X399390Y561147D01*
X401155Y561498D01*
X402652Y562498D01*
X402742Y562633D01*
X403234Y562669D01*
X404174Y562491D01*
X405018Y561228D01*
X406515Y560229D01*
X408280Y559877D01*
X410045Y560229D01*
X411542Y561228D01*
X412542Y562725D01*
X412743Y563736D01*
X413400Y564540D01*
X414113Y564612D01*
X415315Y564372D01*
X417080Y564724D01*
X418577Y565723D01*
X419576Y567220D01*
X419928Y568985D01*
X419576Y570750D01*
X418577Y572247D01*
X417080Y573246D01*
X415315Y573598D01*
D02*
G37*
G36*
X681330Y582592D02*
X679275Y582321D01*
X677359Y581528D01*
X675714Y580266D01*
X674452Y578621D01*
X673659Y576706D01*
X673388Y574650D01*
X673659Y572594D01*
X674452Y570679D01*
X675714Y569034D01*
X677359Y567772D01*
X679275Y566979D01*
X681330Y566708D01*
X683386Y566979D01*
X685301Y567772D01*
X686946Y569034D01*
X688208Y570679D01*
X689001Y572594D01*
X689272Y574650D01*
X689001Y576706D01*
X688208Y578621D01*
X686946Y580266D01*
X685301Y581528D01*
X683386Y582321D01*
X681330Y582592D01*
D02*
G37*
G36*
X1331570Y572913D02*
X1329805Y572561D01*
X1328308Y571562D01*
X1327309Y570065D01*
X1326957Y568300D01*
X1327309Y566535D01*
X1328308Y565038D01*
X1329805Y564039D01*
X1331570Y563687D01*
X1333335Y564039D01*
X1334832Y565038D01*
X1335831Y566535D01*
X1336183Y568300D01*
X1335831Y570065D01*
X1334832Y571562D01*
X1333335Y572561D01*
X1331570Y572913D01*
D02*
G37*
G36*
X1316330D02*
X1314565Y572561D01*
X1313068Y571562D01*
X1312068Y570065D01*
X1311717Y568300D01*
X1312068Y566535D01*
X1313068Y565038D01*
X1314565Y564039D01*
X1316330Y563687D01*
X1318095Y564039D01*
X1319592Y565038D01*
X1320591Y566535D01*
X1320943Y568300D01*
X1320591Y570065D01*
X1319592Y571562D01*
X1318095Y572561D01*
X1316330Y572913D01*
D02*
G37*
G36*
X1299820D02*
X1298055Y572561D01*
X1296558Y571562D01*
X1295558Y570065D01*
X1295207Y568300D01*
X1295558Y566535D01*
X1296558Y565038D01*
X1298055Y564039D01*
X1299820Y563687D01*
X1301585Y564039D01*
X1303082Y565038D01*
X1304082Y566535D01*
X1304433Y568300D01*
X1304082Y570065D01*
X1303082Y571562D01*
X1301585Y572561D01*
X1299820Y572913D01*
D02*
G37*
G36*
X1455886Y564737D02*
X1454121Y564385D01*
X1452624Y563386D01*
X1452205Y562757D01*
X1450677D01*
X1450258Y563386D01*
X1448761Y564385D01*
X1446996Y564737D01*
X1445231Y564385D01*
X1443734Y563386D01*
X1443315Y562757D01*
X1441787D01*
X1441368Y563386D01*
X1439871Y564385D01*
X1438106Y564737D01*
X1436341Y564385D01*
X1434844Y563386D01*
X1433844Y561889D01*
X1433493Y560124D01*
X1433844Y558359D01*
X1434645Y557160D01*
X1434766Y556314D01*
X1434645Y555468D01*
X1433844Y554269D01*
X1433493Y552504D01*
X1433844Y550739D01*
X1434844Y549242D01*
X1436341Y548242D01*
X1438106Y547891D01*
X1439871Y548242D01*
X1441368Y549242D01*
X1441787Y549870D01*
X1443315D01*
X1443734Y549242D01*
X1445231Y548242D01*
X1446996Y547891D01*
X1448761Y548242D01*
X1450258Y549242D01*
X1450677Y549870D01*
X1452205D01*
X1452624Y549242D01*
X1454121Y548242D01*
X1455886Y547891D01*
X1457651Y548242D01*
X1459148Y549242D01*
X1460148Y550739D01*
X1460499Y552504D01*
X1460148Y554269D01*
X1459346Y555468D01*
X1459226Y556314D01*
X1459346Y557160D01*
X1460148Y558359D01*
X1460499Y560124D01*
X1460148Y561889D01*
X1459148Y563386D01*
X1457651Y564385D01*
X1455886Y564737D01*
D02*
G37*
G36*
X476860Y570373D02*
X475095Y570022D01*
X473598Y569022D01*
X472598Y567525D01*
X472247Y565760D01*
X472598Y563995D01*
X473598Y562498D01*
X475095Y561498D01*
X476860Y561147D01*
X478625Y561498D01*
X480122Y562498D01*
X481121Y563995D01*
X481473Y565760D01*
X481121Y567525D01*
X480122Y569022D01*
X478625Y570022D01*
X476860Y570373D01*
D02*
G37*
G36*
X1277871Y569462D02*
X1276106Y569110D01*
X1274609Y568111D01*
X1273609Y566614D01*
X1273258Y564849D01*
X1273609Y563084D01*
X1274609Y561587D01*
X1276106Y560588D01*
X1277871Y560236D01*
X1279636Y560588D01*
X1281133Y561587D01*
X1282133Y563084D01*
X1282484Y564849D01*
X1282133Y566614D01*
X1281133Y568111D01*
X1279636Y569110D01*
X1277871Y569462D01*
D02*
G37*
G36*
X455000Y565363D02*
X453235Y565011D01*
X451738Y564012D01*
X450738Y562515D01*
X450387Y560750D01*
X450738Y558985D01*
X451738Y557488D01*
X453235Y556488D01*
X455000Y556137D01*
X456765Y556488D01*
X458262Y557488D01*
X459262Y558985D01*
X459613Y560750D01*
X459262Y562515D01*
X458262Y564012D01*
X456765Y565011D01*
X455000Y565363D01*
D02*
G37*
G36*
X1113054Y564390D02*
X1111289Y564039D01*
X1109793Y563039D01*
X1108793Y561543D01*
X1108442Y559777D01*
X1108793Y558012D01*
X1109793Y556516D01*
X1111289Y555516D01*
X1113054Y555165D01*
X1114819Y555516D01*
X1116316Y556516D01*
X1117316Y558012D01*
X1117667Y559777D01*
X1117316Y561543D01*
X1116316Y563039D01*
X1114819Y564039D01*
X1113054Y564390D01*
D02*
G37*
G36*
X1153556Y557640D02*
X1151791Y557289D01*
X1150295Y556289D01*
X1149295Y554792D01*
X1148944Y553027D01*
X1149295Y551262D01*
X1150295Y549765D01*
X1151791Y548765D01*
X1153556Y548414D01*
X1155322Y548765D01*
X1156818Y549765D01*
X1157818Y551262D01*
X1158169Y553027D01*
X1157818Y554792D01*
X1156818Y556289D01*
X1155322Y557289D01*
X1153556Y557640D01*
D02*
G37*
G36*
X1044250Y556613D02*
X1042485Y556261D01*
X1040988Y555262D01*
X1039988Y553765D01*
X1039637Y552000D01*
X1039988Y550235D01*
X1040988Y548738D01*
X1042485Y547738D01*
X1044250Y547387D01*
X1046015Y547738D01*
X1047512Y548738D01*
X1048512Y550235D01*
X1048863Y552000D01*
X1048512Y553765D01*
X1047512Y555262D01*
X1046015Y556261D01*
X1044250Y556613D01*
D02*
G37*
G36*
X931045Y555140D02*
X929280Y554788D01*
X927784Y553788D01*
X926784Y552292D01*
X926433Y550527D01*
X926784Y548762D01*
X927784Y547265D01*
X929280Y546265D01*
X931045Y545914D01*
X932811Y546265D01*
X934307Y547265D01*
X935307Y548762D01*
X935658Y550527D01*
X935307Y552292D01*
X934307Y553788D01*
X932811Y554788D01*
X931045Y555140D01*
D02*
G37*
G36*
X1132180Y555133D02*
X1130415Y554781D01*
X1128918Y553782D01*
X1127918Y552285D01*
X1127567Y550520D01*
X1127918Y548755D01*
X1128918Y547258D01*
X1130415Y546259D01*
X1132180Y545907D01*
X1133945Y546259D01*
X1135442Y547258D01*
X1136441Y548755D01*
X1136793Y550520D01*
X1136441Y552285D01*
X1135442Y553782D01*
X1133945Y554781D01*
X1132180Y555133D01*
D02*
G37*
G36*
X949000Y554113D02*
X947235Y553761D01*
X945738Y552762D01*
X944738Y551265D01*
X944387Y549500D01*
X944738Y547735D01*
X945738Y546238D01*
X947235Y545238D01*
X949000Y544887D01*
X950765Y545238D01*
X952262Y546238D01*
X953261Y547735D01*
X953613Y549500D01*
X953261Y551265D01*
X952262Y552762D01*
X950765Y553761D01*
X949000Y554113D01*
D02*
G37*
G36*
X1014250Y548363D02*
X1012485Y548012D01*
X1010988Y547012D01*
X1009988Y545515D01*
X1009637Y543750D01*
X1009988Y541985D01*
X1010988Y540488D01*
X1012485Y539488D01*
X1014250Y539137D01*
X1016015Y539488D01*
X1017512Y540488D01*
X1018512Y541985D01*
X1018863Y543750D01*
X1018512Y545515D01*
X1017512Y547012D01*
X1016015Y548012D01*
X1014250Y548363D01*
D02*
G37*
G36*
X1361098Y562435D02*
X1359332Y562084D01*
X1357836Y561084D01*
X1356836Y559588D01*
X1356485Y557822D01*
X1356836Y556057D01*
X1357836Y554561D01*
X1358122Y554370D01*
X1357153Y552920D01*
X1356802Y551155D01*
X1357153Y549390D01*
X1358153Y547893D01*
Y547328D01*
X1357518Y546904D01*
X1356519Y545407D01*
X1356167Y543642D01*
X1356519Y541877D01*
X1357518Y540380D01*
X1359015Y539380D01*
X1360780Y539029D01*
X1362545Y539380D01*
X1364042Y540380D01*
X1365042Y541877D01*
X1365393Y543642D01*
X1365042Y545407D01*
X1364042Y546903D01*
Y547469D01*
X1364677Y547893D01*
X1365677Y549390D01*
X1366028Y551155D01*
X1365677Y552920D01*
X1364677Y554417D01*
X1364391Y554608D01*
X1365359Y556057D01*
X1365710Y557822D01*
X1365359Y559588D01*
X1364359Y561084D01*
X1362863Y562084D01*
X1361098Y562435D01*
D02*
G37*
G36*
X784200Y547513D02*
X782435Y547161D01*
X780938Y546162D01*
X779939Y544665D01*
X779587Y542900D01*
X779939Y541135D01*
X780938Y539638D01*
X782435Y538638D01*
X784200Y538287D01*
X785965Y538638D01*
X787462Y539638D01*
X788462Y541135D01*
X788813Y542900D01*
X788462Y544665D01*
X787462Y546162D01*
X785965Y547161D01*
X784200Y547513D01*
D02*
G37*
G36*
X503530D02*
X501765Y547161D01*
X500268Y546162D01*
X499268Y544665D01*
X498917Y542900D01*
X499268Y541135D01*
X500268Y539638D01*
X501765Y538638D01*
X503530Y538287D01*
X505295Y538638D01*
X506792Y539638D01*
X507791Y541135D01*
X508143Y542900D01*
X507791Y544665D01*
X506792Y546162D01*
X505295Y547161D01*
X503530Y547513D01*
D02*
G37*
G36*
X361290Y537353D02*
X359525Y537001D01*
X358028Y536002D01*
X357029Y534505D01*
X356857Y533645D01*
X355563D01*
X355392Y534505D01*
X354392Y536002D01*
X352895Y537001D01*
X351130Y537353D01*
X349365Y537001D01*
X347868Y536002D01*
X346869Y534505D01*
X346517Y532740D01*
X346869Y530975D01*
X347868Y529478D01*
X349365Y528479D01*
X351130Y528127D01*
X352895Y528479D01*
X354392Y529478D01*
X355392Y530975D01*
X355563Y531835D01*
X356857D01*
X357029Y530975D01*
X358028Y529478D01*
X359525Y528479D01*
X360818Y528221D01*
X361418Y527106D01*
X361443Y526900D01*
X360839Y525995D01*
X360487Y524230D01*
X360839Y522465D01*
X361838Y520968D01*
X363335Y519968D01*
X365100Y519617D01*
X366865Y519968D01*
X368362Y520968D01*
X369361Y522465D01*
X369713Y524230D01*
X369361Y525995D01*
X368362Y527492D01*
X366865Y528492D01*
X365572Y528749D01*
X364972Y529864D01*
X364947Y530069D01*
X365551Y530975D01*
X365903Y532740D01*
X365551Y534505D01*
X364552Y536002D01*
X363055Y537001D01*
X361290Y537353D01*
D02*
G37*
G36*
X468945Y542433D02*
X467180Y542081D01*
X465683Y541082D01*
X464684Y539585D01*
X464332Y537820D01*
X464684Y536055D01*
X465683Y534558D01*
X467180Y533559D01*
X468945Y533207D01*
X470710Y533559D01*
X472207Y534558D01*
X473207Y536055D01*
X473558Y537820D01*
X473207Y539585D01*
X472207Y541082D01*
X470710Y542081D01*
X468945Y542433D01*
D02*
G37*
G36*
X1363500Y531863D02*
X1361735Y531511D01*
X1360238Y530512D01*
X1359541Y529469D01*
X1359121Y529749D01*
X1357356Y530101D01*
X1355591Y529749D01*
X1354094Y528750D01*
X1353094Y527253D01*
X1352743Y525488D01*
X1353094Y523723D01*
X1354094Y522226D01*
X1355591Y521227D01*
X1357356Y520875D01*
X1359121Y521227D01*
X1359932Y521769D01*
X1360848Y520853D01*
X1360305Y520041D01*
X1359954Y518275D01*
X1360305Y516510D01*
X1361305Y515014D01*
X1362801Y514014D01*
X1364567Y513663D01*
X1366332Y514014D01*
X1367217Y514605D01*
X1368488Y514988D01*
X1369985Y513988D01*
X1371750Y513637D01*
X1373515Y513988D01*
X1375012Y514988D01*
X1375340Y515480D01*
X1376795Y514509D01*
X1378560Y514157D01*
X1380325Y514509D01*
X1381822Y515508D01*
X1382822Y517005D01*
X1383173Y518770D01*
X1382822Y520535D01*
X1381822Y522032D01*
X1380325Y523032D01*
X1378560Y523383D01*
X1376795Y523032D01*
X1375470Y522147D01*
X1374634Y522329D01*
X1374240Y522505D01*
X1373896Y523737D01*
X1374078Y524011D01*
X1374429Y525776D01*
X1374078Y527541D01*
X1373078Y529037D01*
X1371582Y530037D01*
X1369817Y530388D01*
X1368052Y530037D01*
X1367379Y529588D01*
X1366762Y530512D01*
X1365265Y531511D01*
X1363500Y531863D01*
D02*
G37*
G36*
X777750Y530613D02*
X775985Y530261D01*
X774488Y529262D01*
X773488Y527765D01*
X773448Y527562D01*
X772802Y527325D01*
X772082Y527205D01*
X770725Y528111D01*
X768960Y528463D01*
X767195Y528111D01*
X765698Y527112D01*
X764698Y525615D01*
X764347Y523850D01*
X764698Y522085D01*
X765698Y520588D01*
X767195Y519589D01*
X768960Y519237D01*
X770725Y519589D01*
X772222Y520588D01*
X773222Y522085D01*
X773262Y522288D01*
X773908Y522525D01*
X774628Y522645D01*
X775985Y521739D01*
X777344Y521468D01*
X777921Y520486D01*
X777986Y520144D01*
X777399Y519265D01*
X777047Y517500D01*
X777399Y515735D01*
X778398Y514238D01*
X779895Y513238D01*
X781660Y512887D01*
X783425Y513238D01*
X784922Y514238D01*
X785921Y515735D01*
X786273Y517500D01*
X785921Y519265D01*
X784922Y520762D01*
X783425Y521762D01*
X782066Y522032D01*
X781489Y523014D01*
X781424Y523356D01*
X782011Y524235D01*
X782363Y526000D01*
X782011Y527765D01*
X781012Y529262D01*
X779515Y530261D01*
X777750Y530613D01*
D02*
G37*
G36*
X1228700Y534813D02*
X1226935Y534462D01*
X1225438Y533462D01*
X1224438Y531965D01*
X1224087Y530200D01*
X1224438Y528435D01*
X1225438Y526938D01*
X1226935Y525938D01*
X1228700Y525587D01*
X1230465Y525938D01*
X1231962Y526938D01*
X1232962Y528435D01*
X1233313Y530200D01*
X1232962Y531965D01*
X1231962Y533462D01*
X1230465Y534462D01*
X1228700Y534813D01*
D02*
G37*
G36*
X565760Y524653D02*
X563995Y524301D01*
X562498Y523302D01*
X561498Y521805D01*
X561147Y520040D01*
X561498Y518275D01*
X562498Y516778D01*
X563995Y515779D01*
X565760Y515427D01*
X567525Y515779D01*
X569022Y516778D01*
X570022Y518275D01*
X570373Y520040D01*
X570022Y521805D01*
X569022Y523302D01*
X567525Y524301D01*
X565760Y524653D01*
D02*
G37*
G36*
X325730Y525923D02*
X323965Y525572D01*
X322468Y524572D01*
X321469Y523075D01*
X321117Y521310D01*
X321469Y519545D01*
X322468Y518048D01*
X323965Y517048D01*
X325730Y516697D01*
X327495Y517048D01*
X328107Y517458D01*
X329821Y517178D01*
X330088Y516778D01*
X331585Y515779D01*
X333350Y515427D01*
X335115Y515779D01*
X336612Y516778D01*
X337612Y518275D01*
X337963Y520040D01*
X337612Y521805D01*
X336612Y523302D01*
X335115Y524301D01*
X333350Y524653D01*
X331585Y524301D01*
X330973Y523893D01*
X329259Y524172D01*
X328992Y524572D01*
X327495Y525572D01*
X325730Y525923D01*
D02*
G37*
G36*
X1047090Y514493D02*
X1045325Y514142D01*
X1043828Y513142D01*
X1043782Y513073D01*
X1042218Y513017D01*
X1041066Y513786D01*
X1039301Y514137D01*
X1037535Y513786D01*
X1036039Y512786D01*
X1035039Y511290D01*
X1034835Y510262D01*
X1033528Y509342D01*
X1033300Y509387D01*
X1031535Y509036D01*
X1030039Y508036D01*
X1029039Y506540D01*
X1028688Y504775D01*
X1029039Y503009D01*
X1030039Y501513D01*
X1031535Y500513D01*
X1033300Y500162D01*
X1035066Y500513D01*
X1036562Y501513D01*
X1037562Y503009D01*
X1037766Y504037D01*
X1039073Y504958D01*
X1039301Y504912D01*
X1041066Y505263D01*
X1042562Y506263D01*
X1042608Y506332D01*
X1044173Y506388D01*
X1045325Y505619D01*
X1047090Y505267D01*
X1048855Y505619D01*
X1050352Y506618D01*
X1051351Y508115D01*
X1051703Y509880D01*
X1051351Y511645D01*
X1050352Y513142D01*
X1048855Y514142D01*
X1047090Y514493D01*
D02*
G37*
G36*
X476860Y528463D02*
X475095Y528111D01*
X473598Y527112D01*
X472598Y525615D01*
X472247Y523850D01*
X472598Y522085D01*
X473598Y520588D01*
X474396Y520056D01*
Y519492D01*
X473396Y517995D01*
X473045Y516230D01*
X473396Y514465D01*
X474396Y512968D01*
X475892Y511968D01*
X477658Y511617D01*
X479423Y511968D01*
X480919Y512968D01*
X481919Y514465D01*
X482270Y516230D01*
X481919Y517995D01*
X480919Y519492D01*
X480122Y520024D01*
Y520588D01*
X481121Y522085D01*
X481473Y523850D01*
X481121Y525615D01*
X480122Y527112D01*
X478625Y528111D01*
X476860Y528463D01*
D02*
G37*
G36*
X1022750Y518613D02*
X1020985Y518261D01*
X1019488Y517262D01*
X1018488Y515765D01*
X1018137Y514000D01*
X1018488Y512235D01*
X1019488Y510738D01*
X1020985Y509739D01*
X1022750Y509387D01*
X1024515Y509739D01*
X1026012Y510738D01*
X1027011Y512235D01*
X1027363Y514000D01*
X1027011Y515765D01*
X1026012Y517262D01*
X1024515Y518261D01*
X1022750Y518613D01*
D02*
G37*
G36*
X589890Y518303D02*
X588125Y517952D01*
X586628Y516952D01*
X585629Y515455D01*
X585277Y513690D01*
X585629Y511925D01*
X586628Y510428D01*
X588125Y509428D01*
X589890Y509077D01*
X591655Y509428D01*
X593152Y510428D01*
X594151Y511925D01*
X594503Y513690D01*
X594151Y515455D01*
X593152Y516952D01*
X591655Y517952D01*
X589890Y518303D01*
D02*
G37*
G36*
X1228700Y523383D02*
X1226935Y523032D01*
X1225438Y522032D01*
X1224438Y520535D01*
X1224087Y518770D01*
X1224438Y517005D01*
X1225438Y515508D01*
X1226935Y514509D01*
X1227795Y514338D01*
Y513043D01*
X1226935Y512872D01*
X1225438Y511872D01*
X1224438Y510375D01*
X1224087Y508610D01*
X1224438Y506845D01*
X1225438Y505348D01*
X1226935Y504348D01*
X1228700Y503997D01*
X1230465Y504348D01*
X1231962Y505348D01*
X1232962Y506845D01*
X1233313Y508610D01*
X1232962Y510375D01*
X1231962Y511872D01*
X1230465Y512872D01*
X1229605Y513043D01*
Y514338D01*
X1230465Y514509D01*
X1231962Y515508D01*
X1232962Y517005D01*
X1233313Y518770D01*
X1232962Y520535D01*
X1231962Y522032D01*
X1230465Y523032D01*
X1228700Y523383D01*
D02*
G37*
G36*
X775310Y513223D02*
X773545Y512872D01*
X772048Y511872D01*
X771049Y510375D01*
X770697Y508610D01*
X771049Y506845D01*
X772048Y505348D01*
X773545Y504348D01*
X775310Y503997D01*
X777075Y504348D01*
X778572Y505348D01*
X779572Y506845D01*
X779923Y508610D01*
X779572Y510375D01*
X778572Y511872D01*
X777075Y512872D01*
X775310Y513223D01*
D02*
G37*
G36*
X662280D02*
X660515Y512872D01*
X659018Y511872D01*
X658018Y510375D01*
X657667Y508610D01*
X658018Y506845D01*
X659018Y505348D01*
X660515Y504348D01*
X662280Y503997D01*
X664045Y504348D01*
X665542Y505348D01*
X666542Y506845D01*
X666893Y508610D01*
X666542Y510375D01*
X665542Y511872D01*
X664045Y512872D01*
X662280Y513223D01*
D02*
G37*
G36*
X353035Y520208D02*
X351270Y519856D01*
X349773Y518857D01*
X348773Y517360D01*
X348422Y515595D01*
X348773Y513830D01*
X349773Y512333D01*
X351270Y511334D01*
X353035Y510982D01*
X353428Y511061D01*
X353707Y510880D01*
X354406Y509960D01*
X354137Y508610D01*
X354488Y506845D01*
X355488Y505348D01*
X356985Y504348D01*
X358750Y503997D01*
X360515Y504348D01*
X362012Y505348D01*
X363012Y506845D01*
X363363Y508610D01*
X363012Y510375D01*
X362012Y511872D01*
X360515Y512872D01*
X358750Y513223D01*
X358357Y513144D01*
X358078Y513325D01*
X357379Y514245D01*
X357648Y515595D01*
X357296Y517360D01*
X356297Y518857D01*
X354800Y519856D01*
X353035Y520208D01*
D02*
G37*
G36*
X452000Y512863D02*
X450235Y512511D01*
X448738Y511512D01*
X447738Y510015D01*
X447387Y508250D01*
X447738Y506485D01*
X448738Y504988D01*
X450235Y503988D01*
X452000Y503637D01*
X453765Y503988D01*
X455262Y504988D01*
X456261Y506485D01*
X456613Y508250D01*
X456261Y510015D01*
X455262Y511512D01*
X453765Y512511D01*
X452000Y512863D01*
D02*
G37*
G36*
X662280Y500523D02*
X660515Y500172D01*
X659018Y499172D01*
X658018Y497675D01*
X657667Y495910D01*
X658018Y494145D01*
X659018Y492648D01*
X660515Y491648D01*
X662280Y491297D01*
X664045Y491648D01*
X665542Y492648D01*
X666542Y494145D01*
X666893Y495910D01*
X666542Y497675D01*
X665542Y499172D01*
X664045Y500172D01*
X662280Y500523D01*
D02*
G37*
G36*
X363830D02*
X362065Y500172D01*
X360568Y499172D01*
X359568Y497675D01*
X359217Y495910D01*
X359568Y494145D01*
X360568Y492648D01*
X362065Y491648D01*
X363830Y491297D01*
X365595Y491648D01*
X367092Y492648D01*
X368092Y494145D01*
X368443Y495910D01*
X368092Y497675D01*
X367092Y499172D01*
X365595Y500172D01*
X363830Y500523D01*
D02*
G37*
G36*
X558140Y499253D02*
X556375Y498901D01*
X554878Y497902D01*
X553879Y496405D01*
X553527Y494640D01*
X553879Y492875D01*
X554878Y491378D01*
X556375Y490378D01*
X558140Y490027D01*
X559905Y490378D01*
X561402Y491378D01*
X562402Y492875D01*
X562753Y494640D01*
X562402Y496405D01*
X561402Y497902D01*
X559905Y498901D01*
X558140Y499253D01*
D02*
G37*
G36*
X607670Y497983D02*
X605905Y497631D01*
X604408Y496632D01*
X603409Y495135D01*
X603057Y493370D01*
X603409Y491605D01*
X604408Y490108D01*
X605905Y489109D01*
X607670Y488757D01*
X609435Y489109D01*
X610932Y490108D01*
X611931Y491605D01*
X612283Y493370D01*
X611931Y495135D01*
X610932Y496632D01*
X609435Y497631D01*
X607670Y497983D01*
D02*
G37*
G36*
X630530Y497143D02*
X628765Y496791D01*
X627268Y495792D01*
X626269Y494295D01*
X625917Y492530D01*
X626269Y490765D01*
X627268Y489268D01*
X628765Y488269D01*
X630530Y487917D01*
X632295Y488269D01*
X633792Y489268D01*
X634791Y490765D01*
X635143Y492530D01*
X634791Y494295D01*
X633792Y495792D01*
X632295Y496791D01*
X630530Y497143D01*
D02*
G37*
G36*
X1363399Y505603D02*
X1361634Y505252D01*
X1360138Y504252D01*
X1359138Y502755D01*
X1358787Y500990D01*
X1359138Y499225D01*
X1360138Y497728D01*
X1360881Y497232D01*
X1360329Y496405D01*
X1359977Y494640D01*
X1360329Y492875D01*
X1361270Y491465D01*
X1360329Y490055D01*
X1359977Y488290D01*
X1360329Y486525D01*
X1361328Y485028D01*
X1362825Y484029D01*
X1364590Y483677D01*
X1366355Y484029D01*
X1367852Y485028D01*
X1368851Y486525D01*
X1369203Y488290D01*
X1368851Y490055D01*
X1367910Y491465D01*
X1368851Y492875D01*
X1369203Y494640D01*
X1368851Y496405D01*
X1367852Y497902D01*
X1367108Y498398D01*
X1367661Y499225D01*
X1368012Y500990D01*
X1367661Y502755D01*
X1366661Y504252D01*
X1365165Y505252D01*
X1363399Y505603D01*
D02*
G37*
G36*
X324460Y492903D02*
X322695Y492551D01*
X321198Y491552D01*
X320199Y490055D01*
X319847Y488290D01*
X320199Y486525D01*
X321198Y485028D01*
X322695Y484029D01*
X324460Y483677D01*
X326225Y484029D01*
X327722Y485028D01*
X328722Y486525D01*
X329073Y488290D01*
X328722Y490055D01*
X327722Y491552D01*
X326225Y492551D01*
X324460Y492903D01*
D02*
G37*
G36*
X769500Y491863D02*
X767735Y491511D01*
X766238Y490512D01*
X765238Y489015D01*
X764887Y487250D01*
X765238Y485485D01*
X766238Y483988D01*
X767735Y482989D01*
X769500Y482637D01*
X771265Y482989D01*
X772762Y483988D01*
X773762Y485485D01*
X774113Y487250D01*
X773762Y489015D01*
X772762Y490512D01*
X771265Y491511D01*
X769500Y491863D01*
D02*
G37*
G36*
X1228700Y501793D02*
X1226935Y501441D01*
X1225438Y500442D01*
X1224438Y498945D01*
X1224087Y497180D01*
X1224438Y495415D01*
X1225438Y493918D01*
X1226935Y492919D01*
X1227795Y492747D01*
Y491453D01*
X1226935Y491282D01*
X1225438Y490282D01*
X1224438Y488785D01*
X1224087Y487020D01*
X1224438Y485255D01*
X1225438Y483758D01*
X1226935Y482758D01*
X1228700Y482407D01*
X1230465Y482758D01*
X1231962Y483758D01*
X1232962Y485255D01*
X1233313Y487020D01*
X1232962Y488785D01*
X1231962Y490282D01*
X1230465Y491282D01*
X1229605Y491453D01*
Y492747D01*
X1230465Y492919D01*
X1231962Y493918D01*
X1232962Y495415D01*
X1233313Y497180D01*
X1232962Y498945D01*
X1231962Y500442D01*
X1230465Y501441D01*
X1228700Y501793D01*
D02*
G37*
G36*
X542750Y487113D02*
X540985Y486762D01*
X539488Y485762D01*
X538489Y484265D01*
X538137Y482500D01*
X538489Y480735D01*
X539488Y479238D01*
X540985Y478238D01*
X542750Y477887D01*
X544515Y478238D01*
X546012Y479238D01*
X547011Y480735D01*
X547363Y482500D01*
X547011Y484265D01*
X546012Y485762D01*
X544515Y486762D01*
X542750Y487113D01*
D02*
G37*
G36*
X1350620Y484013D02*
X1348855Y483661D01*
X1347358Y482662D01*
X1346358Y481165D01*
X1346007Y479400D01*
X1346358Y477635D01*
X1347358Y476138D01*
X1348855Y475139D01*
X1350620Y474787D01*
X1352385Y475139D01*
X1353882Y476138D01*
X1354881Y477635D01*
X1355233Y479400D01*
X1354881Y481165D01*
X1353882Y482662D01*
X1352385Y483661D01*
X1350620Y484013D01*
D02*
G37*
G36*
X1268070Y480203D02*
X1266305Y479851D01*
X1264808Y478852D01*
X1263809Y477355D01*
X1263457Y475590D01*
X1263809Y473825D01*
X1264808Y472328D01*
X1266305Y471329D01*
X1268070Y470977D01*
X1269835Y471329D01*
X1271332Y472328D01*
X1272331Y473825D01*
X1272683Y475590D01*
X1272331Y477355D01*
X1271332Y478852D01*
X1269835Y479851D01*
X1268070Y480203D01*
D02*
G37*
G36*
X324460Y477663D02*
X322695Y477312D01*
X321198Y476312D01*
X320199Y474815D01*
X319847Y473050D01*
X320199Y471285D01*
X321198Y469788D01*
X322695Y468788D01*
X324460Y468437D01*
X326225Y468788D01*
X327722Y469788D01*
X328722Y471285D01*
X329073Y473050D01*
X328722Y474815D01*
X327722Y476312D01*
X326225Y477312D01*
X324460Y477663D01*
D02*
G37*
G36*
X1337920Y481473D02*
X1336155Y481121D01*
X1334658Y480122D01*
X1333658Y478625D01*
X1333307Y476860D01*
X1333658Y475095D01*
X1334039Y474525D01*
X1333615Y473502D01*
X1332118Y472502D01*
X1331118Y471005D01*
X1330767Y469240D01*
X1331118Y467475D01*
X1332118Y465978D01*
X1333615Y464978D01*
X1335380Y464627D01*
X1337145Y464978D01*
X1338642Y465978D01*
X1339642Y467475D01*
X1339993Y469240D01*
X1339642Y471005D01*
X1339261Y471575D01*
X1339685Y472598D01*
X1341182Y473598D01*
X1342182Y475095D01*
X1342533Y476860D01*
X1342182Y478625D01*
X1341182Y480122D01*
X1339685Y481121D01*
X1337920Y481473D01*
D02*
G37*
G36*
X940296Y463385D02*
X938531Y463034D01*
X937034Y462034D01*
X936184Y460762D01*
X936012D01*
X934515Y461762D01*
X932750Y462113D01*
X930985Y461762D01*
X929488Y460762D01*
X928488Y459265D01*
X928137Y457500D01*
X928488Y455735D01*
X929488Y454238D01*
X930985Y453238D01*
X932750Y452887D01*
X934515Y453238D01*
X936012Y454238D01*
X936862Y455511D01*
X937034D01*
X938531Y454511D01*
X940296Y454160D01*
X942061Y454511D01*
X943558Y455511D01*
X944557Y457007D01*
X944909Y458772D01*
X944557Y460538D01*
X943558Y462034D01*
X942061Y463034D01*
X940296Y463385D01*
D02*
G37*
G36*
X332080Y468773D02*
X330315Y468422D01*
X328818Y467422D01*
X327818Y465925D01*
X327467Y464160D01*
X327818Y462395D01*
X328818Y460898D01*
X330315Y459898D01*
X332080Y459547D01*
X333845Y459898D01*
X335342Y460898D01*
X336342Y462395D01*
X336693Y464160D01*
X336342Y465925D01*
X335342Y467422D01*
X333845Y468422D01*
X332080Y468773D01*
D02*
G37*
G36*
X349860Y466233D02*
X348095Y465882D01*
X346598Y464882D01*
X345598Y463385D01*
X345247Y461620D01*
X345598Y459855D01*
X346598Y458358D01*
X348095Y457359D01*
X349860Y457007D01*
X351625Y457359D01*
X353122Y458358D01*
X354122Y459855D01*
X354473Y461620D01*
X354122Y463385D01*
X353122Y464882D01*
X351625Y465882D01*
X349860Y466233D01*
D02*
G37*
G36*
X1047090Y463693D02*
X1045325Y463341D01*
X1043828Y462342D01*
X1042829Y460845D01*
X1042477Y459080D01*
X1042829Y457315D01*
X1043828Y455818D01*
X1045325Y454818D01*
X1047090Y454467D01*
X1048855Y454818D01*
X1050352Y455818D01*
X1051351Y457315D01*
X1051703Y459080D01*
X1051351Y460845D01*
X1050352Y462342D01*
X1048855Y463341D01*
X1047090Y463693D01*
D02*
G37*
G36*
X560680D02*
X558915Y463341D01*
X557418Y462342D01*
X556418Y460845D01*
X556067Y459080D01*
X556418Y457315D01*
X557418Y455818D01*
X558915Y454818D01*
X560680Y454467D01*
X562445Y454818D01*
X563942Y455818D01*
X564941Y457315D01*
X565293Y459080D01*
X564941Y460845D01*
X563942Y462342D01*
X562445Y463341D01*
X560680Y463693D01*
D02*
G37*
G36*
X1029237Y462688D02*
X1027472Y462337D01*
X1025975Y461337D01*
X1024976Y459840D01*
X1024624Y458075D01*
X1024976Y456310D01*
X1025975Y454813D01*
X1027472Y453814D01*
X1029237Y453462D01*
X1031002Y453814D01*
X1032499Y454813D01*
X1033499Y456310D01*
X1033850Y458075D01*
X1033499Y459840D01*
X1032499Y461337D01*
X1031002Y462337D01*
X1029237Y462688D01*
D02*
G37*
G36*
X873100Y462423D02*
X871335Y462071D01*
X869838Y461072D01*
X868839Y459575D01*
X868487Y457810D01*
X868839Y456045D01*
X869838Y454548D01*
X871335Y453549D01*
X873100Y453197D01*
X874865Y453549D01*
X876362Y454548D01*
X877362Y456045D01*
X877713Y457810D01*
X877362Y459575D01*
X876362Y461072D01*
X874865Y462071D01*
X873100Y462423D01*
D02*
G37*
G36*
X1280770Y467503D02*
X1279005Y467151D01*
X1277508Y466152D01*
X1276508Y464655D01*
X1276157Y462890D01*
X1276508Y461125D01*
X1277508Y459628D01*
X1279005Y458629D01*
X1280770Y458277D01*
X1282535Y458629D01*
X1282591Y458666D01*
X1283764Y458180D01*
X1283888Y457555D01*
X1284888Y456059D01*
X1286385Y455059D01*
X1286845Y454967D01*
X1286860Y454931D01*
X1287250Y453592D01*
X1286952Y452095D01*
X1287303Y450330D01*
X1288303Y448833D01*
X1289800Y447834D01*
X1291565Y447482D01*
X1293330Y447834D01*
X1294827Y448833D01*
X1295827Y450330D01*
X1296178Y452095D01*
X1295909Y453445D01*
X1296608Y454365D01*
X1296886Y454546D01*
X1297280Y454467D01*
X1299045Y454818D01*
X1299172Y454903D01*
X1300315Y454140D01*
X1300287Y454000D01*
X1300638Y452235D01*
X1301638Y450738D01*
X1303135Y449739D01*
X1304900Y449387D01*
X1306665Y449739D01*
X1308162Y450738D01*
X1309162Y452235D01*
X1309513Y454000D01*
X1309162Y455765D01*
X1308162Y457262D01*
X1306665Y458261D01*
X1304900Y458613D01*
X1303135Y458261D01*
X1303008Y458177D01*
X1301865Y458940D01*
X1301893Y459080D01*
X1301541Y460845D01*
X1300542Y462342D01*
X1299045Y463341D01*
X1297280Y463693D01*
X1295515Y463341D01*
X1294018Y462342D01*
X1293509Y461580D01*
X1292031Y461654D01*
X1291411Y462582D01*
X1289915Y463582D01*
X1288150Y463933D01*
X1286385Y463582D01*
X1286329Y463545D01*
X1285156Y464031D01*
X1285031Y464655D01*
X1284032Y466152D01*
X1282535Y467151D01*
X1280770Y467503D01*
D02*
G37*
G36*
X512420Y454803D02*
X510655Y454451D01*
X509158Y453452D01*
X508158Y451955D01*
X507807Y450190D01*
X507908Y449683D01*
X507010Y448784D01*
X506447Y448897D01*
X504681Y448545D01*
X503185Y447546D01*
X502185Y446049D01*
X501875Y444491D01*
X501505Y443925D01*
X500731Y443321D01*
X499225Y443022D01*
X497728Y442022D01*
X496729Y440525D01*
X496377Y438760D01*
X496729Y436995D01*
X497728Y435498D01*
X499225Y434498D01*
X500990Y434147D01*
X502755Y434498D01*
X504252Y435498D01*
X505252Y436995D01*
X505561Y438553D01*
X505931Y439119D01*
X506706Y439723D01*
X508212Y440023D01*
X509708Y441022D01*
X510708Y442519D01*
X511059Y444284D01*
X510958Y444791D01*
X511856Y445690D01*
X512420Y445577D01*
X514185Y445928D01*
X515682Y446928D01*
X516682Y448425D01*
X517033Y450190D01*
X516682Y451955D01*
X515682Y453452D01*
X514185Y454451D01*
X512420Y454803D01*
D02*
G37*
G36*
X1335380Y457343D02*
X1333615Y456992D01*
X1332118Y455992D01*
X1331118Y454495D01*
X1330767Y452730D01*
X1331118Y450965D01*
X1332118Y449468D01*
X1333615Y448469D01*
X1335380Y448117D01*
X1337145Y448469D01*
X1338642Y449468D01*
X1339642Y450965D01*
X1339993Y452730D01*
X1339642Y454495D01*
X1338642Y455992D01*
X1337145Y456992D01*
X1335380Y457343D01*
D02*
G37*
G36*
X1320140D02*
X1318375Y456992D01*
X1316878Y455992D01*
X1315878Y454495D01*
X1315527Y452730D01*
X1315878Y450965D01*
X1316878Y449468D01*
X1318375Y448469D01*
X1320140Y448117D01*
X1321905Y448469D01*
X1323402Y449468D01*
X1324402Y450965D01*
X1324753Y452730D01*
X1324402Y454495D01*
X1323402Y455992D01*
X1321905Y456992D01*
X1320140Y457343D01*
D02*
G37*
G36*
X577136Y454397D02*
X575371Y454045D01*
X573874Y453046D01*
X572874Y451549D01*
X572523Y449784D01*
X572874Y448019D01*
X573874Y446522D01*
X575371Y445522D01*
X577136Y445171D01*
X578901Y445522D01*
X580398Y446522D01*
X581398Y448019D01*
X581749Y449784D01*
X581398Y451549D01*
X580398Y453046D01*
X578901Y454045D01*
X577136Y454397D01*
D02*
G37*
G36*
X1272264Y459979D02*
X1270499Y459628D01*
X1269003Y458628D01*
X1268003Y457131D01*
X1267652Y455366D01*
X1268003Y453601D01*
X1269003Y452104D01*
X1270499Y451105D01*
X1271114Y450982D01*
X1272264Y450752D01*
X1272036Y449603D01*
X1271913Y448987D01*
X1272264Y447222D01*
X1273264Y445726D01*
X1274761Y444726D01*
X1276526Y444375D01*
X1278291Y444726D01*
X1279788Y445726D01*
X1280788Y447222D01*
X1281139Y448987D01*
X1280788Y450752D01*
X1279788Y452249D01*
X1278291Y453249D01*
X1277676Y453371D01*
X1276526Y453601D01*
X1276755Y454751D01*
X1276877Y455366D01*
X1276526Y457131D01*
X1275526Y458628D01*
X1274030Y459628D01*
X1272264Y459979D01*
D02*
G37*
G36*
X448920Y452263D02*
X447155Y451912D01*
X445658Y450912D01*
X444659Y449415D01*
X444307Y447650D01*
X444659Y445885D01*
X445658Y444388D01*
X447155Y443388D01*
X448920Y443037D01*
X450685Y443388D01*
X452182Y444388D01*
X453181Y445885D01*
X453533Y447650D01*
X453181Y449415D01*
X452182Y450912D01*
X450685Y451912D01*
X448920Y452263D01*
D02*
G37*
G36*
X409550D02*
X407785Y451912D01*
X406288Y450912D01*
X405289Y449415D01*
X404937Y447650D01*
X405289Y445885D01*
X406288Y444388D01*
X407785Y443388D01*
X409550Y443037D01*
X411315Y443388D01*
X412812Y444388D01*
X413811Y445885D01*
X414163Y447650D01*
X413811Y449415D01*
X412812Y450912D01*
X411315Y451912D01*
X409550Y452263D01*
D02*
G37*
G36*
X352400Y448453D02*
X350635Y448102D01*
X349138Y447102D01*
X348139Y445605D01*
X347787Y443840D01*
X348139Y442075D01*
X349138Y440578D01*
X350635Y439579D01*
X352400Y439227D01*
X354165Y439579D01*
X355662Y440578D01*
X356661Y442075D01*
X357013Y443840D01*
X356661Y445605D01*
X355662Y447102D01*
X354165Y448102D01*
X352400Y448453D01*
D02*
G37*
G36*
X1026500Y445613D02*
X1024735Y445261D01*
X1023238Y444262D01*
X1022238Y442765D01*
X1021887Y441000D01*
X1022238Y439235D01*
X1023238Y437738D01*
X1024735Y436739D01*
X1026500Y436387D01*
X1028265Y436739D01*
X1029762Y437738D01*
X1030761Y439235D01*
X1031113Y441000D01*
X1030761Y442765D01*
X1029762Y444262D01*
X1028265Y445261D01*
X1026500Y445613D01*
D02*
G37*
G36*
X431060Y442103D02*
X429295Y441752D01*
X427798Y440752D01*
X426799Y439255D01*
X426447Y437490D01*
X426799Y435725D01*
X427798Y434228D01*
X429295Y433228D01*
X431060Y432877D01*
X432825Y433228D01*
X434322Y434228D01*
X435322Y435725D01*
X435673Y437490D01*
X435322Y439255D01*
X434322Y440752D01*
X432825Y441752D01*
X431060Y442103D01*
D02*
G37*
G36*
X447650Y439563D02*
X445885Y439212D01*
X444388Y438212D01*
X443388Y436715D01*
X443037Y434950D01*
X443388Y433185D01*
X444388Y431688D01*
X445885Y430689D01*
X447650Y430337D01*
X449415Y430689D01*
X450912Y431688D01*
X451912Y433185D01*
X452263Y434950D01*
X451912Y436715D01*
X450912Y438212D01*
X449415Y439212D01*
X447650Y439563D01*
D02*
G37*
G36*
X341605Y437658D02*
X339840Y437307D01*
X338343Y436307D01*
X337343Y434810D01*
X336992Y433045D01*
X337343Y431280D01*
X338343Y429783D01*
X339840Y428783D01*
X341605Y428432D01*
X343370Y428783D01*
X344867Y429783D01*
X345867Y431280D01*
X346218Y433045D01*
X345867Y434810D01*
X344867Y436307D01*
X343370Y437307D01*
X341605Y437658D01*
D02*
G37*
G36*
X666342Y437429D02*
X664577Y437077D01*
X663080Y436077D01*
X662080Y434581D01*
X661729Y432816D01*
X662080Y431051D01*
X663080Y429554D01*
X664577Y428554D01*
X666342Y428203D01*
X668107Y428554D01*
X669604Y429554D01*
X670603Y431051D01*
X670955Y432816D01*
X670603Y434581D01*
X669604Y436077D01*
X668107Y437077D01*
X666342Y437429D01*
D02*
G37*
G36*
X1359510Y447183D02*
X1357745Y446832D01*
X1356248Y445832D01*
X1355249Y444335D01*
X1354897Y442570D01*
X1355249Y440805D01*
X1356248Y439308D01*
X1357745Y438308D01*
X1358543Y438150D01*
Y436855D01*
X1357745Y436696D01*
X1356248Y435696D01*
X1355249Y434200D01*
X1354897Y432435D01*
X1355249Y430669D01*
X1356248Y429173D01*
X1357745Y428173D01*
X1359510Y427822D01*
X1361275Y428173D01*
X1362772Y429173D01*
X1363772Y430669D01*
X1363977Y431704D01*
X1364590Y432877D01*
X1366355Y433228D01*
X1367852Y434228D01*
X1368851Y435725D01*
X1369203Y437490D01*
X1368851Y439255D01*
X1367852Y440752D01*
X1366355Y441752D01*
X1365297Y441962D01*
X1364431Y442411D01*
X1363982Y443277D01*
X1363772Y444335D01*
X1362772Y445832D01*
X1361275Y446832D01*
X1359510Y447183D01*
D02*
G37*
G36*
X1160120Y435753D02*
X1158355Y435401D01*
X1156858Y434402D01*
X1155859Y432905D01*
X1155507Y431140D01*
X1155859Y429375D01*
X1156858Y427878D01*
X1158355Y426879D01*
X1160120Y426527D01*
X1161885Y426879D01*
X1163382Y427878D01*
X1164381Y429375D01*
X1164733Y431140D01*
X1164381Y432905D01*
X1163382Y434402D01*
X1161885Y435401D01*
X1160120Y435753D01*
D02*
G37*
G36*
X1135055Y434134D02*
X1133290Y433783D01*
X1131794Y432783D01*
X1130794Y431286D01*
X1130443Y429521D01*
X1130794Y427756D01*
X1131794Y426259D01*
X1133290Y425259D01*
X1135055Y424908D01*
X1136821Y425259D01*
X1138317Y426259D01*
X1139317Y427756D01*
X1139668Y429521D01*
X1139317Y431286D01*
X1138317Y432783D01*
X1136821Y433783D01*
X1135055Y434134D01*
D02*
G37*
G36*
X1228700Y433213D02*
X1226935Y432862D01*
X1225438Y431862D01*
X1224438Y430365D01*
X1224087Y428600D01*
X1224438Y426835D01*
X1225438Y425338D01*
X1226935Y424338D01*
X1228700Y423987D01*
X1230465Y424338D01*
X1231962Y425338D01*
X1232962Y426835D01*
X1233313Y428600D01*
X1232962Y430365D01*
X1231962Y431862D01*
X1230465Y432862D01*
X1228700Y433213D01*
D02*
G37*
G36*
X612750Y430673D02*
X610985Y430322D01*
X609488Y429322D01*
X608489Y427825D01*
X608137Y426060D01*
X608489Y424295D01*
X608573Y424168D01*
X607810Y423025D01*
X607670Y423053D01*
X605905Y422701D01*
X604408Y421702D01*
X603409Y420205D01*
X603057Y418440D01*
X603409Y416675D01*
X604408Y415178D01*
X605905Y414179D01*
X607670Y413827D01*
X609435Y414179D01*
X610932Y415178D01*
X611931Y416675D01*
X612283Y418440D01*
X611931Y420205D01*
X611847Y420332D01*
X612610Y421475D01*
X612750Y421447D01*
X614515Y421799D01*
X616012Y422798D01*
X617011Y424295D01*
X617363Y426060D01*
X617011Y427825D01*
X616012Y429322D01*
X614515Y430322D01*
X612750Y430673D01*
D02*
G37*
G36*
X330810Y431943D02*
X329045Y431591D01*
X327548Y430592D01*
X326549Y429095D01*
X326197Y427330D01*
X326549Y425565D01*
X327548Y424068D01*
X329045Y423069D01*
X330810Y422717D01*
X332575Y423069D01*
X334072Y424068D01*
X335071Y425565D01*
X335423Y427330D01*
X335071Y429095D01*
X334072Y430592D01*
X332575Y431591D01*
X330810Y431943D01*
D02*
G37*
G36*
X1269271Y430742D02*
X1267506Y430390D01*
X1266010Y429390D01*
X1265010Y427894D01*
X1264659Y426129D01*
X1265010Y424364D01*
X1266010Y422867D01*
X1267506Y421867D01*
X1269271Y421516D01*
X1271036Y421867D01*
X1272533Y422867D01*
X1273533Y424364D01*
X1273884Y426129D01*
X1273533Y427894D01*
X1272533Y429390D01*
X1271036Y430390D01*
X1269271Y430742D01*
D02*
G37*
G36*
X568300Y428133D02*
X566535Y427781D01*
X565038Y426782D01*
X564039Y425285D01*
X563687Y423520D01*
X564039Y421755D01*
X565038Y420258D01*
X566535Y419258D01*
X568300Y418907D01*
X570065Y419258D01*
X571562Y420258D01*
X572561Y421755D01*
X572913Y423520D01*
X572561Y425285D01*
X571562Y426782D01*
X570065Y427781D01*
X568300Y428133D01*
D02*
G37*
G36*
X349860D02*
X348095Y427781D01*
X346598Y426782D01*
X345598Y425285D01*
X345247Y423520D01*
X345598Y421755D01*
X346598Y420258D01*
X348095Y419258D01*
X349860Y418907D01*
X351625Y419258D01*
X353122Y420258D01*
X354122Y421755D01*
X354473Y423520D01*
X354122Y425285D01*
X353122Y426782D01*
X351625Y427781D01*
X349860Y428133D01*
D02*
G37*
G36*
X1370940Y419243D02*
X1369175Y418891D01*
X1367765Y417949D01*
X1366355Y418891D01*
X1364590Y419243D01*
X1362825Y418891D01*
X1362178Y418459D01*
X1361093Y417796D01*
X1359597Y418796D01*
X1357832Y419147D01*
X1356067Y418796D01*
X1354570Y417796D01*
X1353570Y416299D01*
X1353219Y414534D01*
X1353570Y412769D01*
X1354570Y411272D01*
X1355819Y410438D01*
X1355922Y409803D01*
X1355918Y409574D01*
X1355804Y409037D01*
X1354526Y408184D01*
X1353526Y406687D01*
X1353175Y404922D01*
X1353526Y403157D01*
X1354526Y401660D01*
X1356023Y400661D01*
X1357788Y400309D01*
X1359553Y400661D01*
X1361050Y401660D01*
X1362050Y403157D01*
X1362512Y402958D01*
X1362825Y402748D01*
X1364590Y402397D01*
X1365412Y402561D01*
X1366678Y402705D01*
X1367678Y401208D01*
X1369175Y400209D01*
X1370940Y399857D01*
X1372705Y400209D01*
X1374202Y401208D01*
X1375202Y402705D01*
X1375553Y404470D01*
X1375202Y406235D01*
X1374202Y407732D01*
X1372705Y408731D01*
X1371845Y408903D01*
Y410197D01*
X1372705Y410368D01*
X1374202Y411368D01*
X1375202Y412865D01*
X1375553Y414630D01*
X1375202Y416395D01*
X1374202Y417892D01*
X1372705Y418891D01*
X1370940Y419243D01*
D02*
G37*
G36*
X1179170Y426863D02*
X1177405Y426511D01*
X1175908Y425512D01*
X1174909Y424015D01*
X1174557Y422250D01*
X1174909Y420485D01*
X1175908Y418988D01*
X1177405Y417989D01*
X1179170Y417637D01*
X1180935Y417989D01*
X1182432Y418988D01*
X1183431Y420485D01*
X1183783Y422250D01*
X1183431Y424015D01*
X1182432Y425512D01*
X1180935Y426511D01*
X1179170Y426863D01*
D02*
G37*
G36*
X676250Y424323D02*
X674485Y423971D01*
X672988Y422972D01*
X671989Y421475D01*
X671637Y419710D01*
X671989Y417945D01*
X672988Y416448D01*
X674485Y415448D01*
X676250Y415097D01*
X678015Y415448D01*
X679512Y416448D01*
X680511Y417945D01*
X680863Y419710D01*
X680511Y421475D01*
X679512Y422972D01*
X678015Y423971D01*
X676250Y424323D01*
D02*
G37*
G36*
X471780Y421783D02*
X470015Y421432D01*
X468518Y420432D01*
X467519Y418935D01*
X467167Y417170D01*
X467519Y415405D01*
X468518Y413908D01*
X470015Y412909D01*
X471780Y412557D01*
X473545Y412909D01*
X475042Y413908D01*
X476041Y415405D01*
X476393Y417170D01*
X476041Y418935D01*
X475042Y420432D01*
X473545Y421432D01*
X471780Y421783D01*
D02*
G37*
G36*
X338430Y420513D02*
X336665Y420162D01*
X335168Y419162D01*
X334169Y417665D01*
X333817Y415900D01*
X334169Y414135D01*
X335168Y412638D01*
X336665Y411638D01*
X338430Y411287D01*
X340195Y411638D01*
X341692Y412638D01*
X342691Y414135D01*
X343043Y415900D01*
X342691Y417665D01*
X341692Y419162D01*
X340195Y420162D01*
X338430Y420513D01*
D02*
G37*
G36*
X770230Y417973D02*
X768465Y417621D01*
X766968Y416622D01*
X765968Y415125D01*
X765617Y413360D01*
X765968Y411595D01*
X766968Y410098D01*
X768465Y409099D01*
X770230Y408747D01*
X771995Y409099D01*
X773492Y410098D01*
X774492Y411595D01*
X774843Y413360D01*
X774492Y415125D01*
X773492Y416622D01*
X771995Y417621D01*
X770230Y417973D01*
D02*
G37*
G36*
X481940Y415433D02*
X480175Y415081D01*
X478678Y414082D01*
X477678Y412585D01*
X477327Y410820D01*
X477678Y409055D01*
X478678Y407558D01*
X480175Y406558D01*
X481940Y406207D01*
X483705Y406558D01*
X485202Y407558D01*
X486202Y409055D01*
X486553Y410820D01*
X486202Y412585D01*
X485202Y414082D01*
X483705Y415081D01*
X481940Y415433D01*
D02*
G37*
G36*
X1228700Y421783D02*
X1226935Y421432D01*
X1225438Y420432D01*
X1224438Y418935D01*
X1224087Y417170D01*
X1224438Y415405D01*
X1225438Y413908D01*
X1226935Y412909D01*
X1227795Y412738D01*
Y411443D01*
X1226935Y411272D01*
X1225438Y410272D01*
X1224438Y408775D01*
X1224087Y407010D01*
X1224438Y405245D01*
X1225438Y403748D01*
X1226935Y402748D01*
X1228700Y402397D01*
X1230465Y402748D01*
X1231962Y403748D01*
X1232962Y405245D01*
X1233313Y407010D01*
X1232962Y408775D01*
X1231962Y410272D01*
X1230465Y411272D01*
X1229605Y411443D01*
Y412738D01*
X1230465Y412909D01*
X1231962Y413908D01*
X1232962Y415405D01*
X1233313Y417170D01*
X1232962Y418935D01*
X1231962Y420432D01*
X1230465Y421432D01*
X1228700Y421783D01*
D02*
G37*
G36*
X905544Y438634D02*
X903779Y438283D01*
X902283Y437283D01*
X901283Y435786D01*
X900932Y434021D01*
X901283Y432256D01*
X902283Y430760D01*
X903779Y429760D01*
X905544Y429409D01*
X906005Y428948D01*
X906188Y428242D01*
X906533Y426506D01*
X907533Y425009D01*
X909029Y424009D01*
X910794Y423658D01*
X912334Y423965D01*
X913060Y423488D01*
X913453Y423079D01*
X913387Y422750D01*
X913738Y420985D01*
X914738Y419488D01*
X915907Y418708D01*
X916235Y418489D01*
X916298Y417181D01*
X916033Y416785D01*
X915682Y415020D01*
X916033Y413255D01*
X917033Y411759D01*
X917703Y411311D01*
X917734Y410803D01*
X917556Y409882D01*
X916283Y409031D01*
X915283Y407535D01*
X914932Y405770D01*
X915283Y404005D01*
X916283Y402508D01*
X917780Y401508D01*
X919545Y401157D01*
X921310Y401508D01*
X922806Y402508D01*
X923806Y404005D01*
X924157Y405770D01*
X923806Y407535D01*
X922806Y409031D01*
X922137Y409479D01*
X922106Y409987D01*
X922284Y410908D01*
X923557Y411759D01*
X924556Y413255D01*
X924908Y415020D01*
X924556Y416785D01*
X923557Y418282D01*
X922388Y419062D01*
X922060Y419282D01*
X921997Y420589D01*
X922262Y420985D01*
X922613Y422750D01*
X922262Y424515D01*
X921262Y426012D01*
X919765Y427011D01*
X918000Y427363D01*
X916460Y427056D01*
X915735Y427533D01*
X915342Y427942D01*
X915407Y428271D01*
X915056Y430036D01*
X914056Y431533D01*
X912560Y432532D01*
X910795Y432883D01*
X910333Y433344D01*
X910151Y434050D01*
X909806Y435786D01*
X908806Y437283D01*
X907309Y438283D01*
X905544Y438634D01*
D02*
G37*
G36*
X462890Y409083D02*
X461125Y408731D01*
X459628Y407732D01*
X458629Y406235D01*
X458277Y404470D01*
X458629Y402705D01*
X459628Y401208D01*
X461125Y400209D01*
X462890Y399857D01*
X464655Y400209D01*
X466152Y401208D01*
X467151Y402705D01*
X467503Y404470D01*
X467151Y406235D01*
X466152Y407732D01*
X464655Y408731D01*
X462890Y409083D01*
D02*
G37*
G36*
X798789Y406632D02*
X797024Y406281D01*
X795527Y405281D01*
X794528Y403785D01*
X794176Y402020D01*
X794528Y400254D01*
X795527Y398758D01*
X797024Y397758D01*
X798789Y397407D01*
X800554Y397758D01*
X802051Y398758D01*
X803051Y400254D01*
X803402Y402020D01*
X803051Y403785D01*
X802051Y405281D01*
X800554Y406281D01*
X798789Y406632D01*
D02*
G37*
G36*
X862292Y402632D02*
X860527Y402281D01*
X859031Y401281D01*
X858031Y399785D01*
X857680Y398019D01*
X858031Y396254D01*
X859031Y394758D01*
X860527Y393758D01*
X862292Y393407D01*
X864057Y393758D01*
X865554Y394758D01*
X866554Y396254D01*
X866905Y398019D01*
X866554Y399785D01*
X865554Y401281D01*
X864057Y402281D01*
X862292Y402632D01*
D02*
G37*
G36*
X845791D02*
X844026Y402281D01*
X842530Y401281D01*
X841530Y399785D01*
X841179Y398019D01*
X841530Y396254D01*
X842530Y394758D01*
X844026Y393758D01*
X845791Y393407D01*
X847556Y393758D01*
X849053Y394758D01*
X850053Y396254D01*
X850404Y398019D01*
X850053Y399785D01*
X849053Y401281D01*
X847556Y402281D01*
X845791Y402632D01*
D02*
G37*
G36*
X824290Y409382D02*
X822525Y409031D01*
X821029Y408031D01*
X820029Y406535D01*
X819678Y404770D01*
X820029Y403005D01*
X819837Y402542D01*
X818525Y402281D01*
X817028Y401281D01*
X816029Y399785D01*
X815677Y398019D01*
X816029Y396254D01*
X817028Y394758D01*
X818525Y393758D01*
X820290Y393407D01*
X822055Y393758D01*
X823552Y394758D01*
X824551Y396254D01*
X824903Y398019D01*
X824551Y399785D01*
X824743Y400247D01*
X826055Y400508D01*
X827552Y401508D01*
X828552Y403005D01*
X828903Y404770D01*
X828552Y406535D01*
X827552Y408031D01*
X826055Y409031D01*
X824290Y409382D01*
D02*
G37*
G36*
X987500Y400863D02*
X985735Y400512D01*
X984238Y399512D01*
X983239Y398015D01*
X982887Y396250D01*
X983239Y394485D01*
X984238Y392988D01*
X985735Y391988D01*
X987500Y391637D01*
X989265Y391988D01*
X990762Y392988D01*
X991761Y394485D01*
X992113Y396250D01*
X991761Y398015D01*
X990762Y399512D01*
X989265Y400512D01*
X987500Y400863D01*
D02*
G37*
G36*
X1454760Y392573D02*
X1452995Y392221D01*
X1451498Y391222D01*
X1451079Y390594D01*
X1449551D01*
X1449132Y391222D01*
X1447635Y392221D01*
X1445870Y392573D01*
X1444105Y392221D01*
X1442608Y391222D01*
X1442189Y390594D01*
X1440661D01*
X1440242Y391222D01*
X1438745Y392221D01*
X1436980Y392573D01*
X1435215Y392221D01*
X1433718Y391222D01*
X1432719Y389725D01*
X1432367Y387960D01*
X1432719Y386195D01*
X1433519Y384996D01*
X1433640Y384150D01*
X1433519Y383304D01*
X1432719Y382105D01*
X1432367Y380340D01*
X1432719Y378575D01*
X1433718Y377078D01*
X1435215Y376078D01*
X1436980Y375727D01*
X1438745Y376078D01*
X1440242Y377078D01*
X1440661Y377706D01*
X1442189D01*
X1442608Y377078D01*
X1444105Y376078D01*
X1445870Y375727D01*
X1447635Y376078D01*
X1449132Y377078D01*
X1449551Y377706D01*
X1451079D01*
X1451498Y377078D01*
X1452995Y376078D01*
X1454760Y375727D01*
X1456525Y376078D01*
X1458022Y377078D01*
X1459021Y378575D01*
X1459373Y380340D01*
X1459021Y382105D01*
X1458221Y383304D01*
X1458100Y384150D01*
X1458221Y384996D01*
X1459021Y386195D01*
X1459373Y387960D01*
X1459021Y389725D01*
X1458022Y391222D01*
X1456525Y392221D01*
X1454760Y392573D01*
D02*
G37*
G36*
X898995Y390498D02*
X897229Y390147D01*
X895733Y389147D01*
X894733Y387651D01*
X894382Y385886D01*
X894733Y384121D01*
X895733Y382624D01*
X897229Y381624D01*
X898995Y381273D01*
X900760Y381624D01*
X902256Y382624D01*
X903256Y384121D01*
X903607Y385886D01*
X903256Y387651D01*
X902256Y389147D01*
X900760Y390147D01*
X898995Y390498D01*
D02*
G37*
G36*
X1228700Y400193D02*
X1226935Y399841D01*
X1225438Y398842D01*
X1224438Y397345D01*
X1224087Y395580D01*
X1224438Y393815D01*
X1225438Y392318D01*
X1226935Y391319D01*
X1227795Y391147D01*
Y389853D01*
X1226935Y389682D01*
X1225438Y388682D01*
X1224438Y387185D01*
X1224087Y385420D01*
X1224438Y383655D01*
X1225438Y382158D01*
X1226935Y381158D01*
X1228700Y380807D01*
X1230465Y381158D01*
X1231962Y382158D01*
X1232962Y383655D01*
X1233313Y385420D01*
X1232962Y387185D01*
X1231962Y388682D01*
X1230465Y389682D01*
X1229605Y389853D01*
Y391147D01*
X1230465Y391319D01*
X1231962Y392318D01*
X1232962Y393815D01*
X1233313Y395580D01*
X1232962Y397345D01*
X1231962Y398842D01*
X1230465Y399841D01*
X1228700Y400193D01*
D02*
G37*
G36*
X606400Y384953D02*
X604635Y384602D01*
X603138Y383602D01*
X602138Y382105D01*
X601787Y380340D01*
X602138Y378575D01*
X603138Y377078D01*
X604635Y376078D01*
X606400Y375727D01*
X608165Y376078D01*
X609662Y377078D01*
X610662Y378575D01*
X611013Y380340D01*
X610662Y382105D01*
X609662Y383602D01*
X608165Y384602D01*
X606400Y384953D01*
D02*
G37*
G36*
X517080Y385615D02*
X515315Y385264D01*
X513818Y384264D01*
X512818Y382768D01*
X512467Y381002D01*
X512818Y379237D01*
X513818Y377741D01*
X515315Y376741D01*
X517080Y376390D01*
X518845Y376741D01*
X520342Y377741D01*
X520535Y378031D01*
X521352Y377879D01*
X521808Y377649D01*
X522128Y376035D01*
X523128Y374538D01*
X524625Y373539D01*
X526390Y373187D01*
X528155Y373539D01*
X529652Y374538D01*
X530652Y376035D01*
X531003Y377800D01*
X530652Y379565D01*
X529652Y381062D01*
X528155Y382062D01*
X526390Y382413D01*
X524625Y382062D01*
X523128Y381062D01*
X522935Y380772D01*
X522118Y380924D01*
X521662Y381154D01*
X521342Y382768D01*
X520342Y384264D01*
X518845Y385264D01*
X517080Y385615D01*
D02*
G37*
G36*
X506070Y382413D02*
X504305Y382062D01*
X502808Y381062D01*
X501809Y379565D01*
X501457Y377800D01*
X501809Y376035D01*
X502808Y374538D01*
X504305Y373539D01*
X506070Y373187D01*
X507835Y373539D01*
X509332Y374538D01*
X510331Y376035D01*
X510683Y377800D01*
X510331Y379565D01*
X509332Y381062D01*
X507835Y382062D01*
X506070Y382413D01*
D02*
G37*
G36*
X1425550Y373523D02*
X1423785Y373172D01*
X1422288Y372172D01*
X1421869Y371544D01*
X1420341D01*
X1419922Y372172D01*
X1418425Y373172D01*
X1416660Y373523D01*
X1414895Y373172D01*
X1413398Y372172D01*
X1412979Y371544D01*
X1411451D01*
X1411032Y372172D01*
X1409535Y373172D01*
X1407770Y373523D01*
X1406005Y373172D01*
X1404508Y372172D01*
X1403508Y370675D01*
X1403157Y368910D01*
X1403508Y367145D01*
X1404310Y365946D01*
X1404430Y365100D01*
X1404310Y364254D01*
X1403508Y363055D01*
X1403157Y361290D01*
X1403508Y359525D01*
X1404508Y358028D01*
X1406005Y357029D01*
X1407770Y356677D01*
X1409535Y357029D01*
X1411032Y358028D01*
X1411451Y358657D01*
X1412979D01*
X1413398Y358028D01*
X1414895Y357029D01*
X1416660Y356677D01*
X1418425Y357029D01*
X1419922Y358028D01*
X1420341Y358657D01*
X1421869D01*
X1422288Y358028D01*
X1423785Y357029D01*
X1425550Y356677D01*
X1427315Y357029D01*
X1428812Y358028D01*
X1429812Y359525D01*
X1430163Y361290D01*
X1429812Y363055D01*
X1429011Y364254D01*
X1428890Y365100D01*
X1429011Y365946D01*
X1429812Y367145D01*
X1430163Y368910D01*
X1429812Y370675D01*
X1428812Y372172D01*
X1427315Y373172D01*
X1425550Y373523D01*
D02*
G37*
G36*
X1363320Y393572D02*
X1361555Y393221D01*
X1360058Y392221D01*
X1359059Y390725D01*
X1358707Y388959D01*
X1359059Y387194D01*
X1360058Y385698D01*
Y384872D01*
X1359059Y383375D01*
X1358707Y381610D01*
X1359059Y379845D01*
X1359859Y378646D01*
X1359980Y377800D01*
X1359859Y376954D01*
X1359059Y375755D01*
X1358707Y373990D01*
X1359059Y372225D01*
X1360058Y370728D01*
X1361555Y369729D01*
X1363320Y369377D01*
X1365085Y369729D01*
X1366582Y370728D01*
X1367581Y372225D01*
X1367933Y373990D01*
X1367581Y375755D01*
X1366781Y376954D01*
X1366660Y377800D01*
X1366781Y378646D01*
X1367581Y379845D01*
X1367933Y381610D01*
X1367581Y383375D01*
X1366582Y384872D01*
Y385698D01*
X1367581Y387194D01*
X1367933Y388959D01*
X1367581Y390725D01*
X1366582Y392221D01*
X1365085Y393221D01*
X1363320Y393572D01*
D02*
G37*
G36*
X1257910Y370983D02*
X1256145Y370631D01*
X1254648Y369632D01*
X1253649Y368135D01*
X1253297Y366370D01*
X1253649Y364605D01*
X1254648Y363108D01*
X1256145Y362108D01*
X1257910Y361757D01*
X1259675Y362108D01*
X1261172Y363108D01*
X1262171Y364605D01*
X1262523Y366370D01*
X1262171Y368135D01*
X1261172Y369632D01*
X1259675Y370631D01*
X1257910Y370983D01*
D02*
G37*
G36*
X809600Y368443D02*
X807835Y368092D01*
X806338Y367092D01*
X805339Y365595D01*
X804987Y363830D01*
X805339Y362065D01*
X806338Y360568D01*
X807835Y359568D01*
X809600Y359217D01*
X811365Y359568D01*
X812862Y360568D01*
X813861Y362065D01*
X814213Y363830D01*
X813861Y365595D01*
X812862Y367092D01*
X811365Y368092D01*
X809600Y368443D01*
D02*
G37*
G36*
X1194410Y359553D02*
X1192645Y359202D01*
X1191446Y358401D01*
X1190600Y358280D01*
X1189754Y358401D01*
X1188555Y359202D01*
X1186790Y359553D01*
X1185025Y359202D01*
X1183826Y358401D01*
X1182980Y358280D01*
X1182134Y358401D01*
X1180935Y359202D01*
X1179170Y359553D01*
X1177405Y359202D01*
X1176206Y358401D01*
X1175360Y358280D01*
X1174514Y358401D01*
X1173315Y359202D01*
X1171550Y359553D01*
X1169785Y359202D01*
X1168288Y358202D01*
X1167289Y356705D01*
X1166937Y354940D01*
X1167289Y353175D01*
X1168231Y351765D01*
X1167289Y350355D01*
X1166937Y348590D01*
X1167289Y346825D01*
X1168090Y345626D01*
X1168210Y344780D01*
X1168090Y343934D01*
X1167289Y342735D01*
X1166937Y340970D01*
X1167289Y339205D01*
X1168231Y337795D01*
X1167289Y336385D01*
X1166937Y334620D01*
X1167289Y332855D01*
X1168231Y331445D01*
X1167289Y330035D01*
X1166937Y328270D01*
X1167289Y326505D01*
X1168288Y325008D01*
X1169785Y324008D01*
X1171550Y323657D01*
X1173315Y324008D01*
X1174514Y324809D01*
X1175360Y324930D01*
X1176206Y324809D01*
X1177405Y324008D01*
X1179170Y323657D01*
X1180935Y324008D01*
X1182134Y324809D01*
X1182980Y324930D01*
X1183826Y324809D01*
X1185025Y324008D01*
X1186790Y323657D01*
X1188555Y324008D01*
X1189754Y324809D01*
X1190600Y324930D01*
X1191446Y324809D01*
X1192645Y324008D01*
X1194410Y323657D01*
X1196175Y324008D01*
X1197672Y325008D01*
X1198671Y326505D01*
X1199023Y328270D01*
X1198671Y330035D01*
X1197729Y331445D01*
X1198671Y332855D01*
X1199023Y334620D01*
X1198671Y336385D01*
X1197729Y337795D01*
X1198671Y339205D01*
X1199023Y340970D01*
X1198671Y342735D01*
X1197871Y343934D01*
X1197750Y344780D01*
X1197871Y345626D01*
X1198671Y346825D01*
X1199023Y348590D01*
X1198671Y350355D01*
X1197729Y351765D01*
X1198671Y353175D01*
X1199023Y354940D01*
X1198671Y356705D01*
X1197672Y358202D01*
X1196175Y359202D01*
X1194410Y359553D01*
D02*
G37*
G36*
X1297280Y367173D02*
X1295515Y366822D01*
X1294018Y365822D01*
X1293018Y364325D01*
X1292667Y362560D01*
X1293018Y360795D01*
X1294018Y359298D01*
X1295515Y358298D01*
X1297280Y357947D01*
X1299045Y358298D01*
X1300542Y359298D01*
X1301541Y360795D01*
X1301893Y362560D01*
X1301541Y364325D01*
X1300542Y365822D01*
X1299045Y366822D01*
X1297280Y367173D01*
D02*
G37*
G36*
X1330300Y373523D02*
X1328535Y373172D01*
X1327038Y372172D01*
X1326039Y370675D01*
X1325687Y368910D01*
X1326039Y367145D01*
X1326419Y366575D01*
X1325995Y365551D01*
X1324498Y364552D01*
X1323499Y363055D01*
X1323147Y361290D01*
X1323499Y359525D01*
X1324498Y358028D01*
X1325995Y357029D01*
X1327760Y356677D01*
X1329525Y357029D01*
X1331022Y358028D01*
X1332021Y359525D01*
X1332373Y361290D01*
X1332021Y363055D01*
X1331641Y363625D01*
X1332065Y364649D01*
X1333562Y365648D01*
X1334561Y367145D01*
X1334913Y368910D01*
X1334561Y370675D01*
X1333562Y372172D01*
X1332065Y373172D01*
X1330300Y373523D01*
D02*
G37*
G36*
X443750Y363113D02*
X441985Y362761D01*
X440488Y361762D01*
X439488Y360265D01*
X439137Y358500D01*
X439488Y356735D01*
X440488Y355238D01*
X441985Y354239D01*
X443750Y353887D01*
X445515Y354239D01*
X447012Y355238D01*
X448012Y356735D01*
X448363Y358500D01*
X448012Y360265D01*
X447012Y361762D01*
X445515Y362761D01*
X443750Y363113D01*
D02*
G37*
G36*
X457250Y360113D02*
X455485Y359762D01*
X453988Y358762D01*
X452989Y357265D01*
X452637Y355500D01*
X452989Y353735D01*
X453988Y352238D01*
X455485Y351239D01*
X457250Y350887D01*
X459015Y351239D01*
X460512Y352238D01*
X461511Y353735D01*
X461863Y355500D01*
X461511Y357265D01*
X460512Y358762D01*
X459015Y359762D01*
X457250Y360113D01*
D02*
G37*
G36*
X1423010Y351933D02*
X1421245Y351581D01*
X1419748Y350582D01*
X1419329Y349954D01*
X1417801D01*
X1417382Y350582D01*
X1415885Y351581D01*
X1414120Y351933D01*
X1412355Y351581D01*
X1410858Y350582D01*
X1410439Y349954D01*
X1408911D01*
X1408492Y350582D01*
X1406995Y351581D01*
X1405230Y351933D01*
X1403465Y351581D01*
X1401968Y350582D01*
X1400968Y349085D01*
X1400617Y347320D01*
X1400968Y345555D01*
X1401770Y344356D01*
X1401890Y343510D01*
X1401770Y342664D01*
X1400968Y341465D01*
X1400617Y339700D01*
X1400968Y337935D01*
X1401968Y336438D01*
X1403465Y335438D01*
X1405230Y335087D01*
X1406995Y335438D01*
X1408492Y336438D01*
X1408911Y337066D01*
X1410439D01*
X1410858Y336438D01*
X1412355Y335438D01*
X1414120Y335087D01*
X1415885Y335438D01*
X1417382Y336438D01*
X1417801Y337066D01*
X1419329D01*
X1419748Y336438D01*
X1421245Y335438D01*
X1423010Y335087D01*
X1424775Y335438D01*
X1426272Y336438D01*
X1427272Y337935D01*
X1427623Y339700D01*
X1427272Y341465D01*
X1426471Y342664D01*
X1426350Y343510D01*
X1426471Y344356D01*
X1427272Y345555D01*
X1427623Y347320D01*
X1427272Y349085D01*
X1426272Y350582D01*
X1424775Y351581D01*
X1423010Y351933D01*
D02*
G37*
G36*
X630530Y355743D02*
X628765Y355392D01*
X627268Y354392D01*
X626269Y352895D01*
X625917Y351130D01*
X626269Y349365D01*
X627268Y347868D01*
X628765Y346869D01*
X630530Y346517D01*
X632295Y346869D01*
X633792Y347868D01*
X634791Y349365D01*
X635143Y351130D01*
X634791Y352895D01*
X633792Y354392D01*
X632295Y355392D01*
X630530Y355743D01*
D02*
G37*
G36*
X559410Y351933D02*
X557645Y351581D01*
X556148Y350582D01*
X555149Y349085D01*
X554797Y347320D01*
X555149Y345555D01*
X556148Y344058D01*
X557645Y343059D01*
X559410Y342707D01*
X561175Y343059D01*
X562672Y344058D01*
X563671Y345555D01*
X564023Y347320D01*
X563671Y349085D01*
X562672Y350582D01*
X561175Y351581D01*
X559410Y351933D01*
D02*
G37*
G36*
X987500Y337613D02*
X985735Y337262D01*
X984238Y336262D01*
X983239Y334765D01*
X982909Y333107D01*
X982465Y332775D01*
X981717Y332376D01*
X980765Y333012D01*
X979000Y333363D01*
X977235Y333012D01*
X975738Y332012D01*
X974738Y330515D01*
X974387Y328750D01*
X974738Y326985D01*
X975738Y325488D01*
X977235Y324488D01*
X979000Y324137D01*
X980765Y324488D01*
X982262Y325488D01*
X983261Y326985D01*
X983591Y328643D01*
X984035Y328975D01*
X984783Y329374D01*
X985735Y328739D01*
X987500Y328387D01*
X989265Y328739D01*
X990762Y329738D01*
X991761Y331235D01*
X992113Y333000D01*
X991761Y334765D01*
X990762Y336262D01*
X989265Y337262D01*
X987500Y337613D01*
D02*
G37*
G36*
X1454760Y331613D02*
X1452995Y331261D01*
X1451498Y330262D01*
X1451079Y329634D01*
X1449551D01*
X1449132Y330262D01*
X1447635Y331261D01*
X1445870Y331613D01*
X1444105Y331261D01*
X1442608Y330262D01*
X1442189Y329634D01*
X1440661D01*
X1440242Y330262D01*
X1438745Y331261D01*
X1436980Y331613D01*
X1435215Y331261D01*
X1433718Y330262D01*
X1432719Y328765D01*
X1432367Y327000D01*
X1432719Y325235D01*
X1433519Y324036D01*
X1433640Y323190D01*
X1433519Y322344D01*
X1432719Y321145D01*
X1432367Y319380D01*
X1432719Y317615D01*
X1433718Y316118D01*
X1435215Y315119D01*
X1436980Y314767D01*
X1438745Y315119D01*
X1440242Y316118D01*
X1440661Y316747D01*
X1442189D01*
X1442608Y316118D01*
X1444105Y315119D01*
X1445870Y314767D01*
X1447635Y315119D01*
X1449132Y316118D01*
X1449551Y316747D01*
X1451079D01*
X1451498Y316118D01*
X1452995Y315119D01*
X1454760Y314767D01*
X1456525Y315119D01*
X1458022Y316118D01*
X1459021Y317615D01*
X1459373Y319380D01*
X1459021Y321145D01*
X1458221Y322344D01*
X1458100Y323190D01*
X1458221Y324036D01*
X1459021Y325235D01*
X1459373Y327000D01*
X1459021Y328765D01*
X1458022Y330262D01*
X1456525Y331261D01*
X1454760Y331613D01*
D02*
G37*
G36*
X622910Y329073D02*
X621145Y328722D01*
X619648Y327722D01*
X618648Y326225D01*
X618297Y324460D01*
X618648Y322695D01*
X619648Y321198D01*
X621145Y320199D01*
X622910Y319847D01*
X624675Y320199D01*
X626172Y321198D01*
X627172Y322695D01*
X627523Y324460D01*
X627172Y326225D01*
X626172Y327722D01*
X624675Y328722D01*
X622910Y329073D01*
D02*
G37*
G36*
X1289660Y325263D02*
X1287895Y324911D01*
X1286398Y323912D01*
X1285399Y322415D01*
X1285047Y320650D01*
X1285399Y318885D01*
X1286398Y317388D01*
X1287895Y316388D01*
X1289660Y316037D01*
X1291425Y316388D01*
X1292922Y317388D01*
X1293922Y318885D01*
X1294273Y320650D01*
X1293922Y322415D01*
X1292922Y323912D01*
X1291425Y324911D01*
X1289660Y325263D01*
D02*
G37*
G36*
X1005180Y329073D02*
X1003415Y328722D01*
X1001918Y327722D01*
X1000919Y326225D01*
X1000567Y324460D01*
X1000919Y322695D01*
X1001918Y321198D01*
X1003415Y320199D01*
X1005180Y319847D01*
X1006945Y320199D01*
X1007072Y320283D01*
X1008215Y319520D01*
X1008187Y319380D01*
X1008539Y317615D01*
X1009538Y316118D01*
X1011035Y315119D01*
X1012800Y314767D01*
X1014565Y315119D01*
X1016062Y316118D01*
X1017061Y317615D01*
X1017413Y319380D01*
X1017061Y321145D01*
X1016062Y322642D01*
X1014565Y323642D01*
X1012800Y323993D01*
X1011035Y323642D01*
X1010908Y323557D01*
X1009765Y324320D01*
X1009793Y324460D01*
X1009442Y326225D01*
X1008442Y327722D01*
X1006945Y328722D01*
X1005180Y329073D01*
D02*
G37*
G36*
X1350250Y311613D02*
X1348485Y311262D01*
X1346988Y310262D01*
X1345988Y308765D01*
X1345637Y307000D01*
X1345988Y305235D01*
X1346988Y303738D01*
X1348485Y302738D01*
X1350250Y302387D01*
X1352015Y302738D01*
X1353512Y303738D01*
X1354512Y305235D01*
X1354863Y307000D01*
X1354512Y308765D01*
X1353512Y310262D01*
X1352015Y311262D01*
X1350250Y311613D01*
D02*
G37*
G36*
X1388720Y303673D02*
X1386955Y303321D01*
X1385458Y302322D01*
X1384458Y300825D01*
X1384107Y299060D01*
X1384458Y297295D01*
X1385458Y295798D01*
X1386955Y294799D01*
X1388720Y294447D01*
X1390485Y294799D01*
X1391982Y295798D01*
X1392982Y297295D01*
X1393333Y299060D01*
X1392982Y300825D01*
X1391982Y302322D01*
X1390485Y303321D01*
X1388720Y303673D01*
D02*
G37*
G36*
X1052170Y281123D02*
X1050405Y280772D01*
X1048908Y279772D01*
X1048489Y279144D01*
X1046961D01*
X1046542Y279772D01*
X1045045Y280772D01*
X1043280Y281123D01*
X1041515Y280772D01*
X1040018Y279772D01*
X1039018Y278275D01*
X1038817Y277260D01*
X1037522D01*
X1037382Y277965D01*
X1036382Y279462D01*
X1034885Y280462D01*
X1033120Y280813D01*
X1031355Y280462D01*
X1029858Y279462D01*
X1028858Y277965D01*
X1028507Y276200D01*
X1028858Y274435D01*
X1029858Y272938D01*
X1031355Y271938D01*
X1033120Y271587D01*
X1034885Y271938D01*
X1036382Y272938D01*
X1037382Y274435D01*
X1037583Y275450D01*
X1038878D01*
X1039018Y274745D01*
X1040018Y273248D01*
X1041515Y272248D01*
X1043280Y271897D01*
X1045045Y272248D01*
X1046542Y273248D01*
X1046961Y273876D01*
X1048489D01*
X1048908Y273248D01*
X1050405Y272248D01*
X1052170Y271897D01*
X1053935Y272248D01*
X1055432Y273248D01*
X1055748Y273722D01*
X1057275D01*
X1057798Y272938D01*
X1059295Y271938D01*
X1061060Y271587D01*
X1062825Y271938D01*
X1064322Y272938D01*
X1065322Y274435D01*
X1065673Y276200D01*
X1065322Y277965D01*
X1064322Y279462D01*
X1062825Y280462D01*
X1061060Y280813D01*
X1059295Y280462D01*
X1057798Y279462D01*
X1057482Y278988D01*
X1055955D01*
X1055432Y279772D01*
X1053935Y280772D01*
X1052170Y281123D01*
D02*
G37*
G36*
X1227430Y280813D02*
X1225665Y280462D01*
X1224168Y279462D01*
X1223749Y278834D01*
X1222221D01*
X1221802Y279462D01*
X1220305Y280462D01*
X1218540Y280813D01*
X1216775Y280462D01*
X1215278Y279462D01*
X1214278Y277965D01*
X1214108Y277105D01*
X1212813D01*
X1212642Y277965D01*
X1211642Y279462D01*
X1210145Y280462D01*
X1208380Y280813D01*
X1206615Y280462D01*
X1205118Y279462D01*
X1204118Y277965D01*
X1203767Y276200D01*
X1204118Y274435D01*
X1205118Y272938D01*
X1206615Y271938D01*
X1208380Y271587D01*
X1210145Y271938D01*
X1211642Y272938D01*
X1212642Y274435D01*
X1212813Y275295D01*
X1214108D01*
X1214278Y274435D01*
X1215278Y272938D01*
X1216775Y271938D01*
X1218540Y271587D01*
X1220305Y271938D01*
X1221802Y272938D01*
X1222221Y273566D01*
X1223749D01*
X1224168Y272938D01*
X1225665Y271938D01*
X1227430Y271587D01*
X1229195Y271938D01*
X1230692Y272938D01*
X1231008Y273412D01*
X1232535D01*
X1233058Y272628D01*
X1234555Y271628D01*
X1236320Y271277D01*
X1238085Y271628D01*
X1239582Y272628D01*
X1240582Y274125D01*
X1240933Y275890D01*
X1240582Y277655D01*
X1239582Y279152D01*
X1238085Y280152D01*
X1236320Y280503D01*
X1234555Y280152D01*
X1233058Y279152D01*
X1232742Y278678D01*
X1231215D01*
X1230692Y279462D01*
X1229195Y280462D01*
X1227430Y280813D01*
D02*
G37*
G36*
X1138530D02*
X1136765Y280462D01*
X1135268Y279462D01*
X1134849Y278834D01*
X1133321D01*
X1132902Y279462D01*
X1131405Y280462D01*
X1129640Y280813D01*
X1127875Y280462D01*
X1126378Y279462D01*
X1125959Y278834D01*
X1124431D01*
X1124012Y279462D01*
X1122515Y280462D01*
X1120750Y280813D01*
X1118985Y280462D01*
X1117488Y279462D01*
X1116488Y277965D01*
X1116137Y276200D01*
X1116488Y274435D01*
X1117488Y272938D01*
X1118985Y271938D01*
X1120750Y271587D01*
X1122515Y271938D01*
X1124012Y272938D01*
X1124431Y273566D01*
X1125959D01*
X1126378Y272938D01*
X1127875Y271938D01*
X1129640Y271587D01*
X1131405Y271938D01*
X1132902Y272938D01*
X1133321Y273566D01*
X1134849D01*
X1135268Y272938D01*
X1136765Y271938D01*
X1138530Y271587D01*
X1140295Y271938D01*
X1141792Y272938D01*
X1142108Y273412D01*
X1143635D01*
X1144158Y272628D01*
X1145655Y271628D01*
X1147420Y271277D01*
X1149185Y271628D01*
X1150682Y272628D01*
X1151682Y274125D01*
X1152033Y275890D01*
X1151682Y277655D01*
X1150682Y279152D01*
X1149185Y280152D01*
X1147420Y280503D01*
X1145655Y280152D01*
X1144158Y279152D01*
X1143842Y278678D01*
X1142315D01*
X1141792Y279462D01*
X1140295Y280462D01*
X1138530Y280813D01*
D02*
G37*
G36*
X955270Y282083D02*
X953505Y281731D01*
X952008Y280732D01*
X951009Y279235D01*
X950837Y278375D01*
X949543D01*
X949371Y279235D01*
X948372Y280732D01*
X946875Y281731D01*
X945110Y282083D01*
X943345Y281731D01*
X941848Y280732D01*
X940848Y279235D01*
X940497Y277470D01*
X940848Y275705D01*
X941848Y274208D01*
X943345Y273209D01*
X945110Y272857D01*
X946875Y273209D01*
X948372Y274208D01*
X949371Y275705D01*
X949543Y276565D01*
X950837D01*
X951009Y275705D01*
X952008Y274208D01*
X952636Y273789D01*
Y272261D01*
X952008Y271842D01*
X951009Y270345D01*
X950657Y268580D01*
X951009Y266815D01*
X952008Y265318D01*
X952482Y265002D01*
Y263475D01*
X951698Y262952D01*
X950698Y261455D01*
X950347Y259690D01*
X950698Y257925D01*
X951698Y256428D01*
X953195Y255429D01*
X954960Y255077D01*
X956725Y255429D01*
X958222Y256428D01*
X959221Y257925D01*
X959573Y259690D01*
X959221Y261455D01*
X958222Y262952D01*
X957749Y263268D01*
Y264795D01*
X958532Y265318D01*
X959531Y266815D01*
X959883Y268580D01*
X959531Y270345D01*
X958532Y271842D01*
X957904Y272261D01*
Y273789D01*
X958532Y274208D01*
X959531Y275705D01*
X959883Y277470D01*
X959531Y279235D01*
X958532Y280732D01*
X957035Y281731D01*
X955270Y282083D01*
D02*
G37*
G36*
X1304900Y299863D02*
X1303135Y299512D01*
X1301638Y298512D01*
X1300638Y297015D01*
X1300287Y295250D01*
X1300638Y293485D01*
X1301638Y291988D01*
X1302267Y291569D01*
Y290041D01*
X1301638Y289622D01*
X1300638Y288125D01*
X1300287Y286360D01*
X1300638Y284595D01*
X1301440Y283396D01*
X1301560Y282550D01*
X1301440Y281704D01*
X1300638Y280505D01*
X1300287Y278740D01*
X1300638Y276975D01*
X1301638Y275478D01*
X1302267Y275059D01*
Y273531D01*
X1301638Y273112D01*
X1300638Y271615D01*
X1300287Y269850D01*
X1300638Y268085D01*
X1301638Y266588D01*
X1303135Y265588D01*
X1304900Y265237D01*
X1306665Y265588D01*
X1308162Y266588D01*
X1309162Y268085D01*
X1309513Y269850D01*
X1309162Y271615D01*
X1308162Y273112D01*
X1307534Y273531D01*
Y275059D01*
X1308162Y275478D01*
X1309162Y276975D01*
X1309513Y278740D01*
X1309162Y280505D01*
X1308361Y281704D01*
X1308240Y282550D01*
X1308361Y283396D01*
X1309162Y284595D01*
X1309513Y286360D01*
X1309162Y288125D01*
X1308162Y289622D01*
X1307534Y290041D01*
Y291569D01*
X1308162Y291988D01*
X1309162Y293485D01*
X1309513Y295250D01*
X1309162Y297015D01*
X1308162Y298512D01*
X1306665Y299512D01*
X1304900Y299863D01*
D02*
G37*
G36*
X1372210Y266843D02*
X1370445Y266492D01*
X1368948Y265492D01*
X1368529Y264864D01*
X1367001D01*
X1366582Y265492D01*
X1365085Y266492D01*
X1363320Y266843D01*
X1361555Y266492D01*
X1360058Y265492D01*
X1359639Y264864D01*
X1358111D01*
X1357692Y265492D01*
X1356195Y266492D01*
X1354430Y266843D01*
X1352665Y266492D01*
X1351168Y265492D01*
X1350168Y263995D01*
X1349998Y263135D01*
X1348703D01*
X1348531Y263995D01*
X1347532Y265492D01*
X1346035Y266492D01*
X1344270Y266843D01*
X1342505Y266492D01*
X1341008Y265492D01*
X1340009Y263995D01*
X1339657Y262230D01*
X1340009Y260465D01*
X1341008Y258968D01*
X1342505Y257969D01*
X1344270Y257617D01*
X1346035Y257969D01*
X1347532Y258968D01*
X1348531Y260465D01*
X1348703Y261325D01*
X1349998D01*
X1350168Y260465D01*
X1351168Y258968D01*
X1352665Y257969D01*
X1354430Y257617D01*
X1356195Y257969D01*
X1357692Y258968D01*
X1358111Y259597D01*
X1359639D01*
X1360058Y258968D01*
X1361555Y257969D01*
X1363320Y257617D01*
X1365085Y257969D01*
X1366582Y258968D01*
X1367001Y259597D01*
X1368529D01*
X1368948Y258968D01*
X1370445Y257969D01*
X1372210Y257617D01*
X1373975Y257969D01*
X1375472Y258968D01*
X1376472Y260465D01*
X1376823Y262230D01*
X1376472Y263995D01*
X1375472Y265492D01*
X1373975Y266492D01*
X1372210Y266843D01*
D02*
G37*
G36*
X1270610Y279543D02*
X1268845Y279191D01*
X1267348Y278192D01*
X1266348Y276695D01*
X1265997Y274930D01*
X1266348Y273165D01*
X1267150Y271966D01*
X1267270Y271120D01*
X1267150Y270274D01*
X1266348Y269075D01*
X1265997Y267310D01*
X1266348Y265545D01*
X1267348Y264048D01*
X1267977Y263629D01*
Y262101D01*
X1267348Y261682D01*
X1266348Y260185D01*
X1265997Y258420D01*
X1266348Y256655D01*
X1267348Y255158D01*
X1267977Y254739D01*
Y253211D01*
X1267348Y252792D01*
X1266348Y251295D01*
X1265997Y249530D01*
X1266348Y247765D01*
X1267348Y246268D01*
X1268845Y245268D01*
X1270610Y244917D01*
X1272375Y245268D01*
X1273872Y246268D01*
X1274872Y247765D01*
X1275223Y249530D01*
X1274872Y251295D01*
X1273872Y252792D01*
X1273244Y253211D01*
Y254739D01*
X1273872Y255158D01*
X1274872Y256655D01*
X1275223Y258420D01*
X1274872Y260185D01*
X1273872Y261682D01*
X1273244Y262101D01*
Y263629D01*
X1273872Y264048D01*
X1274872Y265545D01*
X1275223Y267310D01*
X1274872Y269075D01*
X1274071Y270274D01*
X1273950Y271120D01*
X1274071Y271966D01*
X1274872Y273165D01*
X1275223Y274930D01*
X1274872Y276695D01*
X1273872Y278192D01*
X1272375Y279191D01*
X1270610Y279543D01*
D02*
G37*
G36*
X1179170Y278273D02*
X1177405Y277922D01*
X1175908Y276922D01*
X1174909Y275425D01*
X1174557Y273660D01*
X1174909Y271895D01*
X1175710Y270696D01*
X1175830Y269850D01*
X1175710Y269004D01*
X1174909Y267805D01*
X1174557Y266040D01*
X1174909Y264275D01*
X1175908Y262778D01*
X1176536Y262359D01*
Y260831D01*
X1175908Y260412D01*
X1174909Y258915D01*
X1174557Y257150D01*
X1174909Y255385D01*
X1175908Y253888D01*
X1176536Y253469D01*
Y251941D01*
X1175908Y251522D01*
X1174909Y250025D01*
X1174557Y248260D01*
X1174909Y246495D01*
X1175908Y244998D01*
X1177405Y243999D01*
X1179170Y243647D01*
X1180935Y243999D01*
X1182432Y244998D01*
X1183431Y246495D01*
X1183783Y248260D01*
X1183431Y250025D01*
X1182432Y251522D01*
X1181804Y251941D01*
Y253469D01*
X1182432Y253888D01*
X1183431Y255385D01*
X1183783Y257150D01*
X1183431Y258915D01*
X1182432Y260412D01*
X1181804Y260831D01*
Y262359D01*
X1182432Y262778D01*
X1183431Y264275D01*
X1183783Y266040D01*
X1183431Y267805D01*
X1182631Y269004D01*
X1182510Y269850D01*
X1182631Y270696D01*
X1183431Y271895D01*
X1183783Y273660D01*
X1183431Y275425D01*
X1182432Y276922D01*
X1180935Y277922D01*
X1179170Y278273D01*
D02*
G37*
G36*
X1091540D02*
X1089775Y277922D01*
X1088278Y276922D01*
X1087279Y275425D01*
X1086927Y273660D01*
X1087279Y271895D01*
X1088080Y270696D01*
X1088200Y269850D01*
X1088080Y269004D01*
X1087279Y267805D01*
X1086927Y266040D01*
X1087279Y264275D01*
X1088278Y262778D01*
X1088906Y262359D01*
Y260831D01*
X1088278Y260412D01*
X1087279Y258915D01*
X1086927Y257150D01*
X1087279Y255385D01*
X1088278Y253888D01*
X1088906Y253469D01*
Y251941D01*
X1088278Y251522D01*
X1087279Y250025D01*
X1086927Y248260D01*
X1087279Y246495D01*
X1088278Y244998D01*
X1089775Y243999D01*
X1091540Y243647D01*
X1093305Y243999D01*
X1094802Y244998D01*
X1095801Y246495D01*
X1096153Y248260D01*
X1095801Y250025D01*
X1094802Y251522D01*
X1094174Y251941D01*
Y253469D01*
X1094802Y253888D01*
X1095801Y255385D01*
X1096153Y257150D01*
X1095801Y258915D01*
X1094802Y260412D01*
X1094174Y260831D01*
Y262359D01*
X1094802Y262778D01*
X1095801Y264275D01*
X1096153Y266040D01*
X1095801Y267805D01*
X1095001Y269004D01*
X1094880Y269850D01*
X1095001Y270696D01*
X1095801Y271895D01*
X1096153Y273660D01*
X1095801Y275425D01*
X1094802Y276922D01*
X1093305Y277922D01*
X1091540Y278273D01*
D02*
G37*
G36*
X1002640D02*
X1000875Y277922D01*
X999378Y276922D01*
X998379Y275425D01*
X998027Y273660D01*
X998379Y271895D01*
X999180Y270696D01*
X999300Y269850D01*
X999180Y269004D01*
X998379Y267805D01*
X998027Y266040D01*
X998379Y264275D01*
X999378Y262778D01*
X1000006Y262359D01*
Y260831D01*
X999378Y260412D01*
X998379Y258915D01*
X998027Y257150D01*
X998379Y255385D01*
X999378Y253888D01*
X1000006Y253469D01*
Y251941D01*
X999378Y251522D01*
X998379Y250025D01*
X998027Y248260D01*
X998379Y246495D01*
X999378Y244998D01*
X1000875Y243999D01*
X1002640Y243647D01*
X1004405Y243999D01*
X1005902Y244998D01*
X1006901Y246495D01*
X1007253Y248260D01*
X1006901Y250025D01*
X1005902Y251522D01*
X1005274Y251941D01*
Y253469D01*
X1005902Y253888D01*
X1006901Y255385D01*
X1007253Y257150D01*
X1006901Y258915D01*
X1005902Y260412D01*
X1005274Y260831D01*
Y262359D01*
X1005902Y262778D01*
X1006901Y264275D01*
X1007253Y266040D01*
X1006901Y267805D01*
X1006101Y269004D01*
X1005980Y269850D01*
X1006101Y270696D01*
X1006901Y271895D01*
X1007253Y273660D01*
X1006901Y275425D01*
X1005902Y276922D01*
X1004405Y277922D01*
X1002640Y278273D01*
D02*
G37*
G36*
X517276Y246523D02*
X515511Y246171D01*
X514014Y245172D01*
X513014Y243675D01*
X512663Y241910D01*
X513014Y240145D01*
X514014Y238648D01*
X515511Y237649D01*
X517276Y237297D01*
X519041Y237649D01*
X520537Y238648D01*
X521537Y240145D01*
X521888Y241910D01*
X521537Y243675D01*
X520537Y245172D01*
X519041Y246171D01*
X517276Y246523D01*
D02*
G37*
G36*
X254610Y298932D02*
X249663Y298542D01*
X244838Y297384D01*
X240254Y295485D01*
X236023Y292892D01*
X232250Y289670D01*
X229028Y285897D01*
X226435Y281666D01*
X224536Y277082D01*
X223378Y272257D01*
X222988Y267310D01*
X223378Y262363D01*
X224536Y257538D01*
X226435Y252954D01*
X229028Y248723D01*
X232250Y244950D01*
X236023Y241728D01*
X240254Y239135D01*
X244838Y237236D01*
X249663Y236078D01*
X254610Y235688D01*
X259557Y236078D01*
X264382Y237236D01*
X268966Y239135D01*
X273197Y241728D01*
X276970Y244950D01*
X280192Y248723D01*
X282785Y252954D01*
X284684Y257538D01*
X285842Y262363D01*
X286231Y267310D01*
X285842Y272257D01*
X284684Y277082D01*
X282785Y281666D01*
X280192Y285897D01*
X276970Y289670D01*
X273197Y292892D01*
X268966Y295485D01*
X264382Y297384D01*
X259557Y298542D01*
X254610Y298932D01*
D02*
G37*
G36*
X1414610Y298932D02*
X1409663Y298542D01*
X1404838Y297384D01*
X1400254Y295485D01*
X1396023Y292892D01*
X1392250Y289670D01*
X1389028Y285897D01*
X1386435Y281666D01*
X1384536Y277082D01*
X1383378Y272257D01*
X1382988Y267310D01*
X1383378Y262363D01*
X1384536Y257538D01*
X1386435Y252954D01*
X1389028Y248723D01*
X1392250Y244950D01*
X1396023Y241728D01*
X1400254Y239135D01*
X1404838Y237236D01*
X1409663Y236078D01*
X1414610Y235688D01*
X1419557Y236078D01*
X1424382Y237236D01*
X1428966Y239135D01*
X1433197Y241728D01*
X1436970Y244950D01*
X1440192Y248723D01*
X1442785Y252954D01*
X1444684Y257538D01*
X1445842Y262363D01*
X1446232Y267310D01*
X1445842Y272257D01*
X1444684Y277082D01*
X1442785Y281666D01*
X1440192Y285897D01*
X1436970Y289670D01*
X1433197Y292892D01*
X1428966Y295485D01*
X1424382Y297384D01*
X1419557Y298542D01*
X1414610Y298932D01*
D02*
G37*
G36*
X894610D02*
X889663Y298542D01*
X884838Y297384D01*
X880254Y295485D01*
X876023Y292892D01*
X872250Y289670D01*
X869028Y285897D01*
X866435Y281666D01*
X864536Y277082D01*
X863378Y272257D01*
X862989Y267310D01*
X863378Y262363D01*
X864536Y257538D01*
X866435Y252954D01*
X869028Y248723D01*
X872250Y244950D01*
X876023Y241728D01*
X880254Y239135D01*
X884838Y237236D01*
X889663Y236078D01*
X894610Y235688D01*
X899557Y236078D01*
X904382Y237236D01*
X908966Y239135D01*
X913197Y241728D01*
X916970Y244950D01*
X920192Y248723D01*
X922785Y252954D01*
X924684Y257538D01*
X925842Y262363D01*
X926232Y267310D01*
X925842Y272257D01*
X924684Y277082D01*
X922785Y281666D01*
X920192Y285897D01*
X916970Y289670D01*
X913197Y292892D01*
X908966Y295485D01*
X904382Y297384D01*
X899557Y298542D01*
X894610Y298932D01*
D02*
G37*
G36*
X774610Y298931D02*
X769663Y298542D01*
X764838Y297384D01*
X760254Y295485D01*
X756023Y292892D01*
X752250Y289670D01*
X749028Y285897D01*
X746435Y281666D01*
X744536Y277082D01*
X743378Y272257D01*
X742989Y267310D01*
X743378Y262363D01*
X744536Y257538D01*
X746435Y252954D01*
X749028Y248723D01*
X752250Y244950D01*
X756023Y241728D01*
X760254Y239135D01*
X764838Y237236D01*
X769663Y236078D01*
X774610Y235688D01*
X779557Y236078D01*
X784382Y237236D01*
X788966Y239135D01*
X793197Y241728D01*
X796970Y244950D01*
X800192Y248723D01*
X802785Y252954D01*
X804684Y257538D01*
X805842Y262363D01*
X806232Y267310D01*
X805842Y272257D01*
X804684Y277082D01*
X802785Y281666D01*
X800192Y285897D01*
X796970Y289670D01*
X793197Y292892D01*
X788966Y295485D01*
X784382Y297384D01*
X779557Y298542D01*
X774610Y298931D01*
D02*
G37*
G36*
X906120Y228743D02*
X904355Y228391D01*
X902858Y227392D01*
X902439Y226764D01*
X900911D01*
X900492Y227392D01*
X898995Y228391D01*
X897230Y228743D01*
X895465Y228391D01*
X893968Y227392D01*
X893549Y226764D01*
X892021D01*
X891602Y227392D01*
X890105Y228391D01*
X888340Y228743D01*
X886575Y228391D01*
X885078Y227392D01*
X884659Y226764D01*
X883131D01*
X882712Y227392D01*
X881215Y228391D01*
X879450Y228743D01*
X877685Y228391D01*
X876188Y227392D01*
X875769Y226764D01*
X874241D01*
X873822Y227392D01*
X872325Y228391D01*
X870560Y228743D01*
X868795Y228391D01*
X867298Y227392D01*
X866299Y225895D01*
X865947Y224130D01*
X866299Y222365D01*
X867298Y220868D01*
X867926Y220449D01*
Y218921D01*
X867298Y218502D01*
X866299Y217005D01*
X865947Y215240D01*
X866299Y213475D01*
X867298Y211978D01*
X868795Y210979D01*
X870560Y210627D01*
X872325Y210979D01*
X873822Y211978D01*
X874241Y212607D01*
X875769D01*
X876188Y211978D01*
X877685Y210979D01*
X879450Y210627D01*
X881215Y210979D01*
X882712Y211978D01*
X883131Y212607D01*
X884659D01*
X885078Y211978D01*
X886575Y210979D01*
X888340Y210627D01*
X890105Y210979D01*
X891602Y211978D01*
X892021Y212607D01*
X893549D01*
X893968Y211978D01*
X895465Y210979D01*
X897230Y210627D01*
X898995Y210979D01*
X900492Y211978D01*
X900911Y212607D01*
X902439D01*
X902858Y211978D01*
X904355Y210979D01*
X906120Y210627D01*
X907885Y210979D01*
X909382Y211978D01*
X910381Y213475D01*
X910733Y215240D01*
X910381Y217005D01*
X909382Y218502D01*
X908754Y218921D01*
Y220449D01*
X909382Y220868D01*
X910381Y222365D01*
X910733Y224130D01*
X910381Y225895D01*
X909382Y227392D01*
X907885Y228391D01*
X906120Y228743D01*
D02*
G37*
G36*
X955250Y234613D02*
X953485Y234261D01*
X951988Y233262D01*
X950988Y231765D01*
X950637Y230000D01*
X950988Y228235D01*
X951988Y226738D01*
X953485Y225739D01*
X955250Y225387D01*
X957015Y225739D01*
X958512Y226738D01*
X959511Y228235D01*
X959863Y230000D01*
X959511Y231765D01*
X958512Y233262D01*
X957015Y234261D01*
X955250Y234613D01*
D02*
G37*
G36*
X1226750Y234113D02*
X1224985Y233762D01*
X1223488Y232762D01*
X1222488Y231265D01*
X1222137Y229500D01*
X1222488Y227735D01*
X1223488Y226238D01*
X1224985Y225238D01*
X1226750Y224887D01*
X1228515Y225238D01*
X1230012Y226238D01*
X1231012Y227735D01*
X1231363Y229500D01*
X1231012Y231265D01*
X1230012Y232762D01*
X1228515Y233762D01*
X1226750Y234113D01*
D02*
G37*
G36*
X1046500D02*
X1044735Y233762D01*
X1043238Y232762D01*
X1042238Y231265D01*
X1041887Y229500D01*
X1042238Y227735D01*
X1043238Y226238D01*
X1044735Y225238D01*
X1046500Y224887D01*
X1048265Y225238D01*
X1049762Y226238D01*
X1050761Y227735D01*
X1051113Y229500D01*
X1050761Y231265D01*
X1049762Y232762D01*
X1048265Y233762D01*
X1046500Y234113D01*
D02*
G37*
G36*
X1135000Y233613D02*
X1133235Y233262D01*
X1131738Y232262D01*
X1130739Y230765D01*
X1130387Y229000D01*
X1130739Y227235D01*
X1131738Y225738D01*
X1133235Y224739D01*
X1135000Y224387D01*
X1136765Y224739D01*
X1138262Y225738D01*
X1139261Y227235D01*
X1139613Y229000D01*
X1139261Y230765D01*
X1138262Y232262D01*
X1136765Y233262D01*
X1135000Y233613D01*
D02*
G37*
G36*
X1105510Y227473D02*
X1103745Y227122D01*
X1102248Y226122D01*
X1101248Y224625D01*
X1100897Y222860D01*
X1101248Y221095D01*
X1102248Y219598D01*
X1103745Y218598D01*
X1105510Y218247D01*
X1107275Y218598D01*
X1108772Y219598D01*
X1109771Y221095D01*
X1110123Y222860D01*
X1109771Y224625D01*
X1108772Y226122D01*
X1107275Y227122D01*
X1105510Y227473D01*
D02*
G37*
G36*
X953023Y220456D02*
X951258Y220105D01*
X949762Y219105D01*
X948762Y217608D01*
X948411Y215843D01*
X948762Y214078D01*
X949762Y212582D01*
X951258Y211582D01*
X953023Y211231D01*
X954788Y211582D01*
X956285Y212582D01*
X957285Y214078D01*
X957636Y215843D01*
X957285Y217608D01*
X956285Y219105D01*
X954788Y220105D01*
X953023Y220456D01*
D02*
G37*
G36*
X1222953Y219186D02*
X1221188Y218835D01*
X1219692Y217835D01*
X1218692Y216338D01*
X1218341Y214573D01*
X1218692Y212808D01*
X1219692Y211312D01*
X1221188Y210312D01*
X1222953Y209961D01*
X1224718Y210312D01*
X1226215Y211312D01*
X1227215Y212808D01*
X1227566Y214573D01*
X1227215Y216338D01*
X1226215Y217835D01*
X1224718Y218835D01*
X1222953Y219186D01*
D02*
G37*
G36*
X1043303D02*
X1041538Y218835D01*
X1040042Y217835D01*
X1039042Y216338D01*
X1038691Y214573D01*
X1039042Y212808D01*
X1040042Y211312D01*
X1041538Y210312D01*
X1043303Y209961D01*
X1045068Y210312D01*
X1046565Y211312D01*
X1047565Y212808D01*
X1047916Y214573D01*
X1047565Y216338D01*
X1046565Y217835D01*
X1045068Y218835D01*
X1043303Y219186D01*
D02*
G37*
G36*
X1133450Y218583D02*
X1131685Y218232D01*
X1130188Y217232D01*
X1129189Y215735D01*
X1128837Y213970D01*
X1129189Y212205D01*
X1130188Y210708D01*
X1131685Y209708D01*
X1133450Y209357D01*
X1135215Y209708D01*
X1136712Y210708D01*
X1137711Y212205D01*
X1138063Y213970D01*
X1137711Y215735D01*
X1136712Y217232D01*
X1135215Y218232D01*
X1133450Y218583D01*
D02*
G37*
%LPD*%
D62*
X655930Y701650D02*
D03*
X681330Y650850D02*
D03*
X655930Y625450D02*
D03*
X488290Y640690D02*
D03*
D67*
X1034500Y486750D02*
D03*
X989000Y520140D02*
D03*
X975750Y542750D02*
D03*
X991857Y469720D02*
D03*
X999730D02*
D03*
X976110D02*
D03*
X983983D02*
D03*
X1095250Y550000D02*
D03*
X1081750D02*
D03*
X1088500D02*
D03*
X1068780Y549980D02*
D03*
X1075130D02*
D03*
X1056250Y493750D02*
D03*
X981250Y369750D02*
D03*
X943500Y495500D02*
D03*
X998670Y570150D02*
D03*
X999730Y476620D02*
D03*
X983983D02*
D03*
X975750Y535130D02*
D03*
Y519890D02*
D03*
X989000Y527760D02*
D03*
Y535380D02*
D03*
Y543000D02*
D03*
X975750Y527510D02*
D03*
X769500Y496750D02*
D03*
X981250Y377500D02*
D03*
X1089750Y374380D02*
D03*
X1089500Y382500D02*
D03*
X1112820Y487290D02*
D03*
X1105570D02*
D03*
X1112820Y494910D02*
D03*
X1120440Y487290D02*
D03*
Y494910D02*
D03*
X1105570D02*
D03*
X1083000Y371130D02*
D03*
Y378750D02*
D03*
X1053000Y369000D02*
D03*
X1045380D02*
D03*
X983983Y483220D02*
D03*
X976110Y476620D02*
D03*
Y483220D02*
D03*
X999730D02*
D03*
X991857Y476620D02*
D03*
Y483220D02*
D03*
X806500Y436750D02*
D03*
X846250Y435000D02*
D03*
X820250Y436750D02*
D03*
X813500D02*
D03*
X1135500Y421250D02*
D03*
X1144130Y376000D02*
D03*
X1151750D02*
D03*
X958000Y244250D02*
D03*
X954250Y250250D02*
D03*
X881750Y606750D02*
D03*
X1074250Y486500D02*
D03*
X501250Y427500D02*
D03*
X457750Y341250D02*
D03*
X916750Y462750D02*
D03*
X935750Y487000D02*
D03*
X962170Y571900D02*
D03*
X667013Y501817D02*
D03*
X1049250Y441750D02*
D03*
X624140Y460450D02*
D03*
Y468070D02*
D03*
X616450Y475110D02*
D03*
X624070D02*
D03*
X597360Y459800D02*
D03*
Y452180D02*
D03*
X605050Y445390D02*
D03*
X597430D02*
D03*
X523050Y358640D02*
D03*
X515430D02*
D03*
X502550Y329890D02*
D03*
X494930D02*
D03*
X590250Y397250D02*
D03*
X949630Y366500D02*
D03*
X822300Y353670D02*
D03*
X912470Y394310D02*
D03*
Y386690D02*
D03*
X565760Y527660D02*
D03*
X560750Y709500D02*
D03*
X1081500Y453250D02*
D03*
X1049250Y449250D02*
D03*
X1133450Y243180D02*
D03*
X1044550D02*
D03*
X1224890D02*
D03*
X1104240Y741750D02*
D03*
X1290930Y584810D02*
D03*
X1275690Y579730D02*
D03*
X1265530Y342240D02*
D03*
X1256640Y373990D02*
D03*
X669900Y464160D02*
D03*
X663550Y460350D02*
D03*
X642495Y462542D02*
D03*
X1346810Y288900D02*
D03*
X1351890Y293980D02*
D03*
X1137260Y249530D02*
D03*
X1228700D02*
D03*
X838810Y353670D02*
D03*
X912470Y409550D02*
D03*
Y417170D02*
D03*
X892600Y434750D02*
D03*
X884980D02*
D03*
X763880Y542900D02*
D03*
X942010Y366500D02*
D03*
X481940Y419710D02*
D03*
X474320Y424790D02*
D03*
X476860Y404470D02*
D03*
X555600Y422250D02*
D03*
X583540Y365100D02*
D03*
X582270Y342240D02*
D03*
X541630Y375260D02*
D03*
X518770Y427330D02*
D03*
X559410Y503530D02*
D03*
X598780Y513690D02*
D03*
X629260Y516230D02*
D03*
X644500Y490180D02*
D03*
X600050Y494640D02*
D03*
X645770Y418440D02*
D03*
X497180Y381610D02*
D03*
X634340Y542900D02*
D03*
X561950Y470510D02*
D03*
X290170Y526390D02*
D03*
X352400Y454000D02*
D03*
X861670Y353670D02*
D03*
X846430D02*
D03*
X854050D02*
D03*
X1041750Y487000D02*
D03*
X912470Y401930D02*
D03*
X1153770Y494640D02*
D03*
X1146150D02*
D03*
X1138530D02*
D03*
X1161390D02*
D03*
X1184250D02*
D03*
X1176630D02*
D03*
X1169010D02*
D03*
X1015340Y669900D02*
D03*
X431140Y569570D02*
D03*
X520040Y522580D02*
D03*
X484480Y535280D02*
D03*
X440030Y475590D02*
D03*
X432410D02*
D03*
X417170D02*
D03*
X424790D02*
D03*
X409550Y532740D02*
D03*
X758620Y435000D02*
D03*
X766240D02*
D03*
X749910Y427330D02*
D03*
X751000Y435000D02*
D03*
X912470Y371450D02*
D03*
Y379070D02*
D03*
Y363830D02*
D03*
X887070Y353670D02*
D03*
X909930D02*
D03*
X902310D02*
D03*
X894690D02*
D03*
X879450D02*
D03*
X869290D02*
D03*
X807060D02*
D03*
X829920D02*
D03*
X814680D02*
D03*
X799440D02*
D03*
X766420D02*
D03*
X789280D02*
D03*
X781660D02*
D03*
X774040D02*
D03*
X758800D02*
D03*
X749910Y380340D02*
D03*
Y357480D02*
D03*
Y365100D02*
D03*
Y372720D02*
D03*
Y387960D02*
D03*
X818490Y492100D02*
D03*
X843250Y469000D02*
D03*
X1231240Y682600D02*
D03*
X1255370Y721970D02*
D03*
X1341730Y699110D02*
D03*
X1350620D02*
D03*
X1334110Y329540D02*
D03*
X1205840Y395580D02*
D03*
X1167740Y452730D02*
D03*
X1309980Y413360D02*
D03*
X1205840Y484480D02*
D03*
X1136510Y376000D02*
D03*
X1128890D02*
D03*
X1077570Y418440D02*
D03*
X1326490Y534010D02*
D03*
X1309980D02*
D03*
X1266800Y450190D02*
D03*
X1273534Y470414D02*
D03*
X1309980Y398120D02*
D03*
X1326490Y511150D02*
D03*
X1309980D02*
D03*
X655930Y213970D02*
D03*
X1049250Y487000D02*
D03*
Y493750D02*
D03*
X1311250Y584810D02*
D03*
X1326490D02*
D03*
X1334110D02*
D03*
X1318870D02*
D03*
Y344780D02*
D03*
X1334110D02*
D03*
X1326490D02*
D03*
X1311250D02*
D03*
X1354430Y462890D02*
D03*
X1368400D02*
D03*
X1362050D02*
D03*
X1374750D02*
D03*
X1389990D02*
D03*
X1397610D02*
D03*
X1382370D02*
D03*
X1325220Y398120D02*
D03*
Y413360D02*
D03*
Y420980D02*
D03*
X1309980D02*
D03*
X1325220Y405740D02*
D03*
X1309980D02*
D03*
Y526390D02*
D03*
X1326490D02*
D03*
X1309980Y518770D02*
D03*
X1326490D02*
D03*
X1341730Y293980D02*
D03*
X1233470Y243180D02*
D03*
X1142340D02*
D03*
X965000Y244500D02*
D03*
X1053820Y243180D02*
D03*
X1050900Y733400D02*
D03*
X1102970Y668630D02*
D03*
Y659740D02*
D03*
X1015340Y661010D02*
D03*
X1007720Y669900D02*
D03*
Y661010D02*
D03*
X877360Y434750D02*
D03*
X854500D02*
D03*
X1170280Y431140D02*
D03*
X1048750Y376000D02*
D03*
X1160120Y452730D02*
D03*
X1064870Y410820D02*
D03*
Y403200D02*
D03*
Y395580D02*
D03*
Y418440D02*
D03*
X1077570Y410820D02*
D03*
Y403200D02*
D03*
Y395580D02*
D03*
X1169010Y487020D02*
D03*
X1176630D02*
D03*
X1184250D02*
D03*
X1161390D02*
D03*
X1138530D02*
D03*
X1146150D02*
D03*
X1153770D02*
D03*
X1128060Y487290D02*
D03*
Y494910D02*
D03*
X834250Y485250D02*
D03*
X826630D02*
D03*
X819010D02*
D03*
X866110Y469000D02*
D03*
X850870D02*
D03*
X858490D02*
D03*
X957250Y366500D02*
D03*
X1132180Y558140D02*
D03*
X681330Y213970D02*
D03*
X644500D02*
D03*
X619100D02*
D03*
X593159Y212700D02*
D03*
X568300Y213970D02*
D03*
X446380Y212700D02*
D03*
X420980D02*
D03*
X395580Y213970D02*
D03*
X370815D02*
D03*
X346050D02*
D03*
X318110D02*
D03*
X1205840Y494640D02*
D03*
Y516230D02*
D03*
Y506070D02*
D03*
Y527660D02*
D03*
Y385420D02*
D03*
Y428600D02*
D03*
Y407010D02*
D03*
Y417170D02*
D03*
X1000100Y669900D02*
D03*
Y661010D02*
D03*
X1118210Y659740D02*
D03*
Y668630D02*
D03*
X1053440Y659740D02*
D03*
Y668630D02*
D03*
X1110590D02*
D03*
Y659740D02*
D03*
X1062330Y668630D02*
D03*
Y659740D02*
D03*
X503000Y554250D02*
D03*
X503530Y503530D02*
D03*
X447650Y527660D02*
D03*
Y518770D02*
D03*
X418440Y532740D02*
D03*
X399390D02*
D03*
X403200Y436220D02*
D03*
X934390Y366500D02*
D03*
X295250Y666090D02*
D03*
X749910Y412090D02*
D03*
Y404470D02*
D03*
Y396850D02*
D03*
X978510Y208890D02*
D03*
X1067410D02*
D03*
X1156310D02*
D03*
X972430Y244450D02*
D03*
X1049630Y249530D02*
D03*
X1062710Y243180D02*
D03*
X1151230D02*
D03*
X1247750Y208890D02*
D03*
X1242360Y243180D02*
D03*
X749910Y419710D02*
D03*
X523850Y339700D02*
D03*
X523750Y347250D02*
D03*
X494640Y347320D02*
D03*
Y339700D02*
D03*
X377800Y667360D02*
D03*
X1334110Y293980D02*
D03*
X862120Y434750D02*
D03*
X869740D02*
D03*
M02*
