G04*
G04 #@! TF.GenerationSoftware,Altium Limited,Altium Designer,19.1.5 (86)*
G04*
G04 Layer_Color=65535*
%FSLAX44Y44*%
%MOMM*%
G71*
G01*
G75*
%ADD10C,0.2000*%
%ADD11C,0.1524*%
%ADD12C,0.0000*%
%ADD13C,0.1270*%
%ADD14C,0.3000*%
%ADD15C,0.2540*%
%ADD16C,0.5000*%
D10*
X780350Y438100D02*
G03*
X780350Y438100I-2500J0D01*
G01*
X339740Y477545D02*
G03*
X339740Y474295I0J-1625D01*
G01*
X1175470Y453910D02*
G03*
X1175470Y453910I-2500J0D01*
G01*
X1133070Y563370D02*
G03*
X1133070Y563370I-2500J0D01*
G01*
X899770Y429845D02*
X914375D01*
Y370155D02*
Y429845D01*
X899770Y370155D02*
X914375D01*
X755625Y429845D02*
X770230D01*
X755625Y370155D02*
Y429845D01*
Y370155D02*
X770230D01*
X1031950Y438640D02*
Y442640D01*
X1044450Y438640D02*
Y442640D01*
X339740Y477545D02*
Y487570D01*
Y464270D02*
Y474295D01*
X287740Y464270D02*
X339740D01*
X287740D02*
Y487570D01*
X339740D01*
X1226000Y382910D02*
X1236000D01*
X1226000Y398910D02*
X1236000D01*
X1226000Y401960D02*
X1236000D01*
X1226000Y417960D02*
X1236000D01*
X1226000Y420600D02*
X1236000D01*
X1226000Y436600D02*
X1236000D01*
X1374850Y370060D02*
Y374060D01*
X1387350Y370060D02*
Y374060D01*
X1390090Y370060D02*
Y374060D01*
X1402590Y370060D02*
Y374060D01*
X1398780Y444380D02*
Y448380D01*
X1386280Y444380D02*
Y448380D01*
X1383540Y444380D02*
Y448380D01*
X1371040Y444380D02*
Y448380D01*
X1257910Y360420D02*
X1286400D01*
Y346920D02*
Y360420D01*
X1257910Y346920D02*
X1286400D01*
X1226000Y483660D02*
X1236000D01*
X1226000Y499660D02*
X1236000D01*
X1226000Y502710D02*
X1236000D01*
X1226000Y518710D02*
X1236000D01*
X1226000Y521760D02*
X1236000D01*
X1226000Y537760D02*
X1236000D01*
X1387550Y477400D02*
Y481400D01*
X1400050Y477400D02*
Y481400D01*
X1372310Y477400D02*
Y481400D01*
X1384810Y477400D02*
Y481400D01*
X1379989Y553600D02*
Y557600D01*
X1367489Y553600D02*
Y557600D01*
X1396240Y553600D02*
Y557600D01*
X1383740Y553600D02*
Y557600D01*
X1282040Y479800D02*
X1310530D01*
Y466300D02*
Y479800D01*
X1282040Y466300D02*
X1310530D01*
X1160660Y410720D02*
X1164660D01*
X1160660Y398220D02*
X1164660D01*
X826650Y224050D02*
X830650D01*
X826650Y214050D02*
X830650D01*
X737750Y579650D02*
X741750D01*
X737750Y569650D02*
X741750D01*
X1186690Y550450D02*
Y554450D01*
X1174190Y550450D02*
Y554450D01*
X1121250Y391000D02*
Y395000D01*
X1108750Y391000D02*
Y395000D01*
X739020Y451380D02*
X743020D01*
X739020Y441380D02*
X743020D01*
X1013340Y405820D02*
X1017340D01*
X1013340Y415820D02*
X1017340D01*
X968250Y568230D02*
Y572230D01*
X955750Y568230D02*
Y572230D01*
X1124750Y391000D02*
Y395000D01*
X1137250Y391000D02*
Y395000D01*
X1021590Y568840D02*
Y572840D01*
X1009090Y568840D02*
Y572840D01*
X848080Y489640D02*
Y499640D01*
X832080Y489640D02*
Y499640D01*
X826490Y489640D02*
Y499640D01*
X810490Y489640D02*
Y499640D01*
X907930Y546630D02*
X911930D01*
X907930Y536630D02*
X911930D01*
X809680Y651390D02*
Y655390D01*
X819680Y651390D02*
Y655390D01*
X936500Y547250D02*
Y551250D01*
X924000Y547250D02*
Y551250D01*
X976750Y384750D02*
Y394750D01*
X960750Y384750D02*
Y394750D01*
X949000Y385000D02*
Y395000D01*
X933000Y385000D02*
Y395000D01*
D11*
X952348Y432410D02*
G03*
X952348Y432410I-762J0D01*
G01*
X1131672Y239370D02*
G03*
X1137768Y239370I3048J0D01*
G01*
X953182Y240640D02*
G03*
X959278Y240640I3048J0D01*
G01*
X1353668Y297790D02*
G03*
X1347572Y297790I-3048J0D01*
G01*
X1043462Y239370D02*
G03*
X1049558Y239370I3048J0D01*
G01*
X1223112D02*
G03*
X1229208Y239370I3048J0D01*
G01*
X1131672Y274930D02*
G03*
X1137768Y274930I3048J0D01*
G01*
X953182Y276200D02*
G03*
X959278Y276200I3048J0D01*
G01*
X1223112Y274930D02*
G03*
X1229208Y274930I3048J0D01*
G01*
X1353668Y263500D02*
G03*
X1347572Y263500I-3048J0D01*
G01*
X1043462Y274930D02*
G03*
X1049558Y274930I3048J0D01*
G01*
X1001624Y438238D02*
Y449682D01*
X963016Y415138D02*
X1001624D01*
Y426582D01*
X963016Y449682D02*
X1001624D01*
X963016Y438238D02*
Y449682D01*
Y415138D02*
Y426582D01*
X1129386Y239370D02*
X1131672D01*
X1137768D01*
X1140054D01*
X950896Y240640D02*
X953182D01*
X959278D01*
X961564D01*
X1353668Y297790D02*
X1355954D01*
X1347572D02*
X1353668D01*
X1345286D02*
X1347572D01*
X1041176Y239370D02*
X1043462D01*
X1049558D01*
X1051844D01*
X1220826D02*
X1223112D01*
X1229208D01*
X1231494D01*
X1129386Y274930D02*
X1131672D01*
X1137768D01*
X1140054D01*
X950896Y276200D02*
X953182D01*
X959278D01*
X961564D01*
X1220826Y274930D02*
X1223112D01*
X1229208D01*
X1231494D01*
X1353668Y263500D02*
X1355954D01*
X1347572D02*
X1353668D01*
X1345286D02*
X1347572D01*
X1041176Y274930D02*
X1043462D01*
X1049558D01*
X1051844D01*
D12*
X976470Y561570D02*
G03*
X976470Y561570I-2000J0D01*
G01*
X1065370Y437110D02*
G03*
X1065370Y437110I-2000J0D01*
G01*
D13*
X1332356Y377650D02*
G03*
X1332356Y377650I-1556J0D01*
G01*
X1331900D02*
G03*
X1331900Y377650I-1100J0D01*
G01*
X1333000D02*
G03*
X1333000Y377650I-1100J0D01*
G01*
D02*
G03*
X1333000Y377650I-1100J0D01*
G01*
X1333260D02*
G03*
X1333260Y377650I-2460J0D01*
G01*
X1333516Y490240D02*
G03*
X1333516Y490240I-1556J0D01*
G01*
X1333060D02*
G03*
X1333060Y490240I-1100J0D01*
G01*
X1334160D02*
G03*
X1334160Y490240I-1100J0D01*
G01*
D02*
G03*
X1334160Y490240I-1100J0D01*
G01*
X1334420D02*
G03*
X1334420Y490240I-2460J0D01*
G01*
X964820Y553970D02*
X971320D01*
X964820Y551970D02*
Y553970D01*
X993320D02*
X999820D01*
Y551970D02*
Y553970D01*
X993320Y508970D02*
X999820D01*
Y510470D01*
X964820Y508970D02*
X971320D01*
X964820D02*
Y510970D01*
X1053720Y429510D02*
X1060220D01*
X1053720Y427510D02*
Y429510D01*
X1082220D02*
X1088720D01*
Y427510D02*
Y429510D01*
X1082220Y384510D02*
X1088720D01*
Y386010D01*
X1053720Y384510D02*
X1060220D01*
X1053720D02*
Y386510D01*
X1295600Y370550D02*
X1339600D01*
X1295600Y448550D02*
X1339600D01*
X1296760Y483140D02*
X1340760D01*
X1296760Y561140D02*
X1340760D01*
X1194000Y485950D02*
Y515550D01*
X1140000Y485950D02*
Y515550D01*
X1134000Y485950D02*
Y515550D01*
X1080000Y485950D02*
Y515550D01*
X1074750Y485950D02*
Y515550D01*
X1020750Y485950D02*
Y515550D01*
D14*
X1348310Y366370D02*
G03*
X1348310Y366370I-1500J0D01*
G01*
X1349470Y478960D02*
G03*
X1349470Y478960I-1500J0D01*
G01*
X643230Y674980D02*
Y718160D01*
X638150Y667360D02*
X643230Y672440D01*
Y673710D02*
Y674980D01*
X633070Y728320D02*
X643230Y718160D01*
Y672440D02*
Y673710D01*
X555600D02*
X560680Y668630D01*
X555600Y719430D02*
X564490Y728320D01*
X633070D01*
X555600Y673710D02*
Y687045D01*
Y719430D01*
D15*
X1188640Y457500D02*
X1194250D01*
X807500D02*
X1188640D01*
X1195500Y609000D02*
X1200760Y603740D01*
X1193875Y457875D02*
X1200760Y464760D01*
X1194250Y457500D02*
X1200760Y450990D01*
X1193140Y342240D02*
X1196950D01*
X922630Y449630D02*
X930250Y457250D01*
X1178500Y342240D02*
X1193140D01*
X1196950D02*
X1200760Y346050D01*
Y450990D01*
X922630Y352120D02*
Y449630D01*
Y352120D02*
X932510Y342240D01*
X1089000D01*
X1200760Y464760D02*
Y603740D01*
X799440Y465560D02*
Y600940D01*
Y465560D02*
X807500Y457500D01*
X807750Y609250D02*
X884220D01*
X799440Y600940D02*
X807750Y609250D01*
X982580Y609000D02*
X1195500Y609000D01*
X893801Y517373D02*
Y586207D01*
X873481Y517373D02*
X893801D01*
X826999D02*
X847319D01*
X873481Y586207D02*
X893801D01*
X826999Y517373D02*
Y586207D01*
X847319D01*
X1393800Y320650D02*
Y328148D01*
X1397549D01*
X1398798Y326898D01*
Y324399D01*
X1397549Y323149D01*
X1393800D01*
X1396299D02*
X1398798Y320650D01*
X1406296Y328148D02*
X1403797Y326898D01*
X1401298Y324399D01*
Y321900D01*
X1402547Y320650D01*
X1405046D01*
X1406296Y321900D01*
Y323149D01*
X1405046Y324399D01*
X1401298D01*
X1413794Y328148D02*
X1411294Y326898D01*
X1408795Y324399D01*
Y321900D01*
X1410045Y320650D01*
X1412544D01*
X1413794Y321900D01*
Y323149D01*
X1412544Y324399D01*
X1408795D01*
X562790Y672132D02*
Y677131D01*
X565289Y679630D01*
X567788Y677131D01*
Y672132D01*
Y675881D01*
X562790D01*
X570288Y672132D02*
Y677131D01*
X571537D01*
X572787Y675881D01*
Y672132D01*
Y675881D01*
X574036Y677131D01*
X575286Y675881D01*
Y672132D01*
X577785Y679630D02*
Y672132D01*
X581534D01*
X582784Y673382D01*
Y674632D01*
Y675881D01*
X581534Y677131D01*
X577785D01*
X585283Y672132D02*
X587782D01*
X586532D01*
Y677131D01*
X585283D01*
X595280Y672132D02*
X592780D01*
X591531Y673382D01*
Y675881D01*
X592780Y677131D01*
X595280D01*
X596529Y675881D01*
Y674632D01*
X591531D01*
X599028Y672132D02*
Y677131D01*
X602777D01*
X604027Y675881D01*
Y672132D01*
X607776Y678380D02*
Y677131D01*
X606526D01*
X609025D01*
X607776D01*
Y673382D01*
X609025Y672132D01*
X562790Y664537D02*
X567788D01*
X565289D01*
Y657039D01*
X574036D02*
X571537D01*
X570288Y658289D01*
Y660788D01*
X571537Y662038D01*
X574036D01*
X575286Y660788D01*
Y659538D01*
X570288D01*
X577785Y657039D02*
Y662038D01*
X579035D01*
X580284Y660788D01*
Y657039D01*
Y660788D01*
X581534Y662038D01*
X582784Y660788D01*
Y657039D01*
X585283Y654540D02*
Y662038D01*
X589032D01*
X590281Y660788D01*
Y658289D01*
X589032Y657039D01*
X585283D01*
X605276Y663287D02*
X604027Y664537D01*
X601528D01*
X600278Y663287D01*
Y662038D01*
X601528Y660788D01*
X604027D01*
X605276Y659538D01*
Y658289D01*
X604027Y657039D01*
X601528D01*
X600278Y658289D01*
X611524Y657039D02*
X609025D01*
X607776Y658289D01*
Y660788D01*
X609025Y662038D01*
X611524D01*
X612774Y660788D01*
Y659538D01*
X607776D01*
X615273Y657039D02*
Y662038D01*
X619022D01*
X620272Y660788D01*
Y657039D01*
X622771D02*
X626520D01*
X627769Y658289D01*
X626520Y659538D01*
X624020D01*
X622771Y660788D01*
X624020Y662038D01*
X627769D01*
X634017Y657039D02*
X631518D01*
X630268Y658289D01*
Y660788D01*
X631518Y662038D01*
X634017D01*
X635267Y660788D01*
Y659538D01*
X630268D01*
X1104498Y370002D02*
X1105748Y371251D01*
Y373750D01*
X1104498Y375000D01*
X1099500D01*
X1098250Y373750D01*
Y371251D01*
X1099500Y370002D01*
X1105748Y362504D02*
Y367502D01*
X1101999D01*
X1103248Y365003D01*
Y363754D01*
X1101999Y362504D01*
X1099500D01*
X1098250Y363754D01*
Y366253D01*
X1099500Y367502D01*
X1104498Y360005D02*
X1105748Y358755D01*
Y356256D01*
X1104498Y355006D01*
X1103248D01*
X1101999Y356256D01*
X1100749Y355006D01*
X1099500D01*
X1098250Y356256D01*
Y358755D01*
X1099500Y360005D01*
X1100749D01*
X1101999Y358755D01*
X1103248Y360005D01*
X1104498D01*
X1101999Y358755D02*
Y356256D01*
X978998Y485752D02*
X980248Y487001D01*
Y489500D01*
X978998Y490750D01*
X974000D01*
X972750Y489500D01*
Y487001D01*
X974000Y485752D01*
X980248Y478254D02*
Y483252D01*
X976499D01*
X977748Y480753D01*
Y479504D01*
X976499Y478254D01*
X974000D01*
X972750Y479504D01*
Y482003D01*
X974000Y483252D01*
X980248Y475755D02*
Y470756D01*
X978998D01*
X974000Y475755D01*
X972750D01*
X792664Y354831D02*
X790998Y356497D01*
X787666D01*
X786000Y354831D01*
Y353164D01*
X787666Y351498D01*
X790998D01*
X792664Y349832D01*
Y348166D01*
X790998Y346500D01*
X787666D01*
X786000Y348166D01*
X802661Y354831D02*
X800995Y356497D01*
X797663D01*
X795997Y354831D01*
Y353164D01*
X797663Y351498D01*
X800995D01*
X802661Y349832D01*
Y348166D01*
X800995Y346500D01*
X797663D01*
X795997Y348166D01*
X805994Y346500D02*
Y356497D01*
X809326Y353164D01*
X812658Y356497D01*
Y346500D01*
X815990Y351498D02*
X822655D01*
X830985Y356497D02*
X827653D01*
X825987Y354831D01*
Y348166D01*
X827653Y346500D01*
X830985D01*
X832652Y348166D01*
Y354831D01*
X830985Y356497D01*
X835984Y346500D02*
Y356497D01*
X840982D01*
X842648Y354831D01*
Y351498D01*
X840982Y349832D01*
X835984D01*
X845981Y356497D02*
X852645D01*
X849313D01*
Y346500D01*
X855977Y356497D02*
X859310D01*
X857644D01*
Y346500D01*
X855977D01*
X859310D01*
X870973Y354831D02*
X869306Y356497D01*
X865974D01*
X864308Y354831D01*
Y348166D01*
X865974Y346500D01*
X869306D01*
X870973Y348166D01*
X874305Y346500D02*
Y353164D01*
X877637Y356497D01*
X880969Y353164D01*
Y346500D01*
Y351498D01*
X874305D01*
X884302Y356497D02*
Y346500D01*
X890966D01*
X1270500Y585000D02*
Y592498D01*
X1272999Y589998D01*
X1275498Y592498D01*
Y585000D01*
X1281746Y592498D02*
X1279247D01*
X1277998Y591248D01*
Y586250D01*
X1279247Y585000D01*
X1281746D01*
X1282996Y586250D01*
Y591248D01*
X1281746Y592498D01*
X1285495D02*
X1290494D01*
X1287994D01*
Y585000D01*
X1296742Y592498D02*
X1294242D01*
X1292993Y591248D01*
Y586250D01*
X1294242Y585000D01*
X1296742D01*
X1297991Y586250D01*
Y591248D01*
X1296742Y592498D01*
X1300490Y585000D02*
Y592498D01*
X1304239D01*
X1305489Y591248D01*
Y588749D01*
X1304239Y587499D01*
X1300490D01*
X1302990D02*
X1305489Y585000D01*
X1307988Y583750D02*
X1312986D01*
X1315486Y592498D02*
Y585000D01*
X1319234D01*
X1320484Y586250D01*
Y591248D01*
X1319234Y592498D01*
X1315486D01*
X1322983Y585000D02*
Y592498D01*
X1326732D01*
X1327982Y591248D01*
Y588749D01*
X1326732Y587499D01*
X1322983D01*
X1325482D02*
X1327982Y585000D01*
X1330481Y592498D02*
Y587499D01*
X1332980Y585000D01*
X1335479Y587499D01*
Y592498D01*
X1342977Y585000D02*
X1337978D01*
X1342977Y589998D01*
Y591248D01*
X1341727Y592498D01*
X1339228D01*
X1337978Y591248D01*
X1291750Y339750D02*
Y347248D01*
X1294249Y344748D01*
X1296748Y347248D01*
Y339750D01*
X1302996Y347248D02*
X1300497D01*
X1299248Y345998D01*
Y341000D01*
X1300497Y339750D01*
X1302996D01*
X1304246Y341000D01*
Y345998D01*
X1302996Y347248D01*
X1306745D02*
X1311744D01*
X1309244D01*
Y339750D01*
X1317992Y347248D02*
X1315492D01*
X1314243Y345998D01*
Y341000D01*
X1315492Y339750D01*
X1317992D01*
X1319241Y341000D01*
Y345998D01*
X1317992Y347248D01*
X1321740Y339750D02*
Y347248D01*
X1325489D01*
X1326739Y345998D01*
Y343499D01*
X1325489Y342249D01*
X1321740D01*
X1324240D02*
X1326739Y339750D01*
X1329238Y338500D02*
X1334236D01*
X1336736Y347248D02*
Y339750D01*
X1340484D01*
X1341734Y341000D01*
Y345998D01*
X1340484Y347248D01*
X1336736D01*
X1344233Y339750D02*
Y347248D01*
X1347982D01*
X1349232Y345998D01*
Y343499D01*
X1347982Y342249D01*
X1344233D01*
X1346732D02*
X1349232Y339750D01*
X1351731Y347248D02*
Y342249D01*
X1354230Y339750D01*
X1356729Y342249D01*
Y347248D01*
X1359228Y339750D02*
X1361728D01*
X1360478D01*
Y347248D01*
X1359228Y345998D01*
X1286498Y461248D02*
X1281500D01*
Y453750D01*
X1286498D01*
X1281500Y457499D02*
X1283999D01*
X1288998Y453750D02*
Y461248D01*
X1293996Y453750D01*
Y461248D01*
X1262998Y340998D02*
X1258000D01*
Y333500D01*
X1262998D01*
X1258000Y337249D02*
X1260499D01*
X1265498Y333500D02*
Y340998D01*
X1270496Y333500D01*
Y340998D01*
X890500Y612247D02*
Y602250D01*
X895498D01*
X897165Y603916D01*
Y605582D01*
X895498Y607248D01*
X890500D01*
X895498D01*
X897165Y608914D01*
Y610581D01*
X895498Y612247D01*
X890500D01*
X905495D02*
X902163D01*
X900497Y610581D01*
Y603916D01*
X902163Y602250D01*
X905495D01*
X907161Y603916D01*
Y610581D01*
X905495Y612247D01*
X915492D02*
X912160D01*
X910494Y610581D01*
Y603916D01*
X912160Y602250D01*
X915492D01*
X917158Y603916D01*
Y610581D01*
X915492Y612247D01*
X927155Y610581D02*
X925489Y612247D01*
X922157D01*
X920490Y610581D01*
Y608914D01*
X922157Y607248D01*
X925489D01*
X927155Y605582D01*
Y603916D01*
X925489Y602250D01*
X922157D01*
X920490Y603916D01*
X930487Y612247D02*
X937152D01*
X933819D01*
Y602250D01*
X940484Y607248D02*
X947148D01*
X950481Y602250D02*
X953813D01*
X952147D01*
Y612247D01*
X950481Y610581D01*
X958811D02*
X960478Y612247D01*
X963810D01*
X965476Y610581D01*
Y603916D01*
X963810Y602250D01*
X960478D01*
X958811Y603916D01*
Y610581D01*
X968808Y612247D02*
Y605582D01*
X972140Y602250D01*
X975473Y605582D01*
Y612247D01*
X1095500Y344997D02*
Y335000D01*
X1100498D01*
X1102165Y336666D01*
Y338332D01*
X1100498Y339998D01*
X1095500D01*
X1100498D01*
X1102165Y341665D01*
Y343331D01*
X1100498Y344997D01*
X1095500D01*
X1110495D02*
X1107163D01*
X1105497Y343331D01*
Y336666D01*
X1107163Y335000D01*
X1110495D01*
X1112161Y336666D01*
Y343331D01*
X1110495Y344997D01*
X1120492D02*
X1117160D01*
X1115494Y343331D01*
Y336666D01*
X1117160Y335000D01*
X1120492D01*
X1122158Y336666D01*
Y343331D01*
X1120492Y344997D01*
X1132155Y343331D02*
X1130489Y344997D01*
X1127157D01*
X1125490Y343331D01*
Y341665D01*
X1127157Y339998D01*
X1130489D01*
X1132155Y338332D01*
Y336666D01*
X1130489Y335000D01*
X1127157D01*
X1125490Y336666D01*
X1135487Y344997D02*
X1142152D01*
X1138819D01*
Y335000D01*
X1145484Y339998D02*
X1152148D01*
X1162145Y344997D02*
X1158813Y343331D01*
X1155481Y339998D01*
Y336666D01*
X1157147Y335000D01*
X1160479D01*
X1162145Y336666D01*
Y338332D01*
X1160479Y339998D01*
X1155481D01*
X1165478Y344997D02*
Y338332D01*
X1168810Y335000D01*
X1172142Y338332D01*
Y344997D01*
X702920Y592308D02*
Y584810D01*
X706669D01*
X707918Y586060D01*
Y587309D01*
X706669Y588559D01*
X702920D01*
X706669D01*
X707918Y589808D01*
Y591058D01*
X706669Y592308D01*
X702920D01*
X710418Y584810D02*
Y589808D01*
X712917Y592308D01*
X715416Y589808D01*
Y584810D01*
Y588559D01*
X710418D01*
X717915Y592308D02*
X722914D01*
X720414D01*
Y584810D01*
X725413Y592308D02*
X730411D01*
X727912D01*
Y584810D01*
X732910D02*
X736659Y588559D01*
X732910Y592308D01*
X739158Y584810D02*
Y592308D01*
X741658Y589808D01*
X744157Y592308D01*
Y584810D01*
X750405Y592308D02*
X747906D01*
X746656Y591058D01*
Y586060D01*
X747906Y584810D01*
X750405D01*
X751654Y586060D01*
Y591058D01*
X750405Y592308D01*
X754154D02*
X759152D01*
X756653D01*
Y584810D01*
X810870Y638028D02*
Y630530D01*
X814619D01*
X815868Y631780D01*
Y633029D01*
X814619Y634279D01*
X810870D01*
X814619D01*
X815868Y635528D01*
Y636778D01*
X814619Y638028D01*
X810870D01*
X818368Y630530D02*
Y635528D01*
X820867Y638028D01*
X823366Y635528D01*
Y630530D01*
Y634279D01*
X818368D01*
X825865Y638028D02*
X830864D01*
X828364D01*
Y630530D01*
X833363Y638028D02*
X838361D01*
X835862D01*
Y630530D01*
X840860D02*
X844609Y634279D01*
X840860Y638028D01*
X847108D02*
Y630530D01*
X850857D01*
X852107Y631780D01*
Y633029D01*
X850857Y634279D01*
X847108D01*
X850857D01*
X852107Y635528D01*
Y636778D01*
X850857Y638028D01*
X847108D01*
X859604Y636778D02*
X858355Y638028D01*
X855856D01*
X854606Y636778D01*
Y635528D01*
X855856Y634279D01*
X858355D01*
X859604Y633029D01*
Y631780D01*
X858355Y630530D01*
X855856D01*
X854606Y631780D01*
X862104Y638028D02*
X867102D01*
X864603D01*
Y630530D01*
X869601D02*
X872100D01*
X870851D01*
Y638028D01*
X869601Y636778D01*
X875849D02*
X877099Y638028D01*
X879598D01*
X880848Y636778D01*
Y631780D01*
X879598Y630530D01*
X877099D01*
X875849Y631780D01*
Y636778D01*
X883347Y638028D02*
Y633029D01*
X885846Y630530D01*
X888345Y633029D01*
Y638028D01*
X704190Y465308D02*
Y457810D01*
X707939D01*
X709188Y459060D01*
Y460309D01*
X707939Y461559D01*
X704190D01*
X707939D01*
X709188Y462808D01*
Y464058D01*
X707939Y465308D01*
X704190D01*
X711688Y457810D02*
Y462808D01*
X714187Y465308D01*
X716686Y462808D01*
Y457810D01*
Y461559D01*
X711688D01*
X719185Y465308D02*
X724184D01*
X721684D01*
Y457810D01*
X726683Y465308D02*
X731681D01*
X729182D01*
Y457810D01*
X734180D02*
X737929Y461559D01*
X734180Y465308D01*
X740428D02*
Y457810D01*
X744177D01*
X745427Y459060D01*
Y460309D01*
X744177Y461559D01*
X740428D01*
X744177D01*
X745427Y462808D01*
Y464058D01*
X744177Y465308D01*
X740428D01*
X752924Y464058D02*
X751675Y465308D01*
X749176D01*
X747926Y464058D01*
Y462808D01*
X749176Y461559D01*
X751675D01*
X752924Y460309D01*
Y459060D01*
X751675Y457810D01*
X749176D01*
X747926Y459060D01*
X755424Y465308D02*
X760422D01*
X757923D01*
Y457810D01*
X767920Y465308D02*
X765420Y464058D01*
X762921Y461559D01*
Y459060D01*
X764171Y457810D01*
X766670D01*
X767920Y459060D01*
Y460309D01*
X766670Y461559D01*
X762921D01*
X770419Y465308D02*
Y460309D01*
X772918Y457810D01*
X775417Y460309D01*
Y465308D01*
X799440Y236708D02*
Y229210D01*
X803189D01*
X804438Y230460D01*
Y231709D01*
X803189Y232959D01*
X799440D01*
X803189D01*
X804438Y234208D01*
Y235458D01*
X803189Y236708D01*
X799440D01*
X806938Y229210D02*
Y234208D01*
X809437Y236708D01*
X811936Y234208D01*
Y229210D01*
Y232959D01*
X806938D01*
X814435Y236708D02*
X819434D01*
X816934D01*
Y229210D01*
X821933Y236708D02*
X826931D01*
X824432D01*
Y229210D01*
X829430D02*
X833179Y232959D01*
X829430Y236708D01*
X835678D02*
Y229210D01*
Y232959D01*
X840677D01*
Y236708D01*
Y229210D01*
X848174Y236708D02*
X843176D01*
Y229210D01*
X848174D01*
X843176Y232959D02*
X845675D01*
X850674Y229210D02*
Y234208D01*
X853173Y236708D01*
X855672Y234208D01*
Y229210D01*
Y232959D01*
X850674D01*
X858171Y236708D02*
X863170D01*
X860670D01*
Y229210D01*
X1262888Y535362D02*
X1264138Y536611D01*
Y539110D01*
X1262888Y540360D01*
X1257890D01*
X1256640Y539110D01*
Y536611D01*
X1257890Y535362D01*
X1262888Y532862D02*
X1264138Y531613D01*
Y529114D01*
X1262888Y527864D01*
X1261638D01*
X1260389Y529114D01*
Y530363D01*
Y529114D01*
X1259139Y527864D01*
X1257890D01*
X1256640Y529114D01*
Y531613D01*
X1257890Y532862D01*
X1264138Y520366D02*
X1262888Y522866D01*
X1260389Y525365D01*
X1257890D01*
X1256640Y524115D01*
Y521616D01*
X1257890Y520366D01*
X1259139D01*
X1260389Y521616D01*
Y525365D01*
X1261618Y422332D02*
X1262868Y423581D01*
Y426080D01*
X1261618Y427330D01*
X1256620D01*
X1255370Y426080D01*
Y423581D01*
X1256620Y422332D01*
X1261618Y419832D02*
X1262868Y418583D01*
Y416084D01*
X1261618Y414834D01*
X1260368D01*
X1259119Y416084D01*
Y417333D01*
Y416084D01*
X1257869Y414834D01*
X1256620D01*
X1255370Y416084D01*
Y418583D01*
X1256620Y419832D01*
X1262868Y407336D02*
X1261618Y409836D01*
X1259119Y412335D01*
X1256620D01*
X1255370Y411085D01*
Y408586D01*
X1256620Y407336D01*
X1257869D01*
X1259119Y408586D01*
Y412335D01*
X356088Y484480D02*
X349840D01*
X348590Y483230D01*
Y480731D01*
X349840Y479482D01*
X356088D01*
X348590Y476982D02*
Y474483D01*
Y475733D01*
X356088D01*
X354838Y476982D01*
X348590Y470734D02*
Y468235D01*
Y469485D01*
X356088D01*
X354838Y470734D01*
X946760Y447528D02*
Y440030D01*
X951758D01*
X954258Y446278D02*
X955507Y447528D01*
X958006D01*
X959256Y446278D01*
Y445028D01*
X958006Y443779D01*
X956757D01*
X958006D01*
X959256Y442529D01*
Y441280D01*
X958006Y440030D01*
X955507D01*
X954258Y441280D01*
X915010Y471780D02*
Y479278D01*
X918759D01*
X920008Y478028D01*
Y475529D01*
X918759Y474279D01*
X915010D01*
X917509D02*
X920008Y471780D01*
X926256D02*
Y479278D01*
X922508Y475529D01*
X927506D01*
X930005Y471780D02*
X932504D01*
X931255D01*
Y479278D01*
X930005Y478028D01*
X1193018Y433680D02*
X1186770D01*
X1185520Y432430D01*
Y429931D01*
X1186770Y428682D01*
X1193018D01*
X1191768Y426182D02*
X1193018Y424933D01*
Y422434D01*
X1191768Y421184D01*
X1190518D01*
X1189269Y422434D01*
X1188019Y421184D01*
X1186770D01*
X1185520Y422434D01*
Y424933D01*
X1186770Y426182D01*
X1188019D01*
X1189269Y424933D01*
X1190518Y426182D01*
X1191768D01*
X1189269Y424933D02*
Y422434D01*
X1142000Y393500D02*
X1149498D01*
Y389751D01*
X1148248Y388502D01*
X1145749D01*
X1144499Y389751D01*
Y393500D01*
Y391001D02*
X1142000Y388502D01*
X1148248Y386002D02*
X1149498Y384753D01*
Y382254D01*
X1148248Y381004D01*
X1146998D01*
X1145749Y382254D01*
X1144499Y381004D01*
X1143250D01*
X1142000Y382254D01*
Y384753D01*
X1143250Y386002D01*
X1144499D01*
X1145749Y384753D01*
X1146998Y386002D01*
X1148248D01*
X1145749Y384753D02*
Y382254D01*
X1143250Y378505D02*
X1142000Y377255D01*
Y374756D01*
X1143250Y373506D01*
X1148248D01*
X1149498Y374756D01*
Y377255D01*
X1148248Y378505D01*
X1146998D01*
X1145749Y377255D01*
Y373506D01*
X1164500Y385750D02*
Y393248D01*
X1168249D01*
X1169498Y391998D01*
Y389499D01*
X1168249Y388249D01*
X1164500D01*
X1166999D02*
X1169498Y385750D01*
X1171998Y391998D02*
X1173247Y393248D01*
X1175746D01*
X1176996Y391998D01*
Y390748D01*
X1175746Y389499D01*
X1176996Y388249D01*
Y387000D01*
X1175746Y385750D01*
X1173247D01*
X1171998Y387000D01*
Y388249D01*
X1173247Y389499D01*
X1171998Y390748D01*
Y391998D01*
X1173247Y389499D02*
X1175746D01*
X1179495Y393248D02*
X1184494D01*
Y391998D01*
X1179495Y387000D01*
Y385750D01*
X1066748Y453498D02*
X1065499Y454748D01*
X1063000D01*
X1061750Y453498D01*
Y448500D01*
X1063000Y447250D01*
X1065499D01*
X1066748Y448500D01*
X1074246Y454748D02*
X1069248D01*
Y450999D01*
X1071747Y452248D01*
X1072996D01*
X1074246Y450999D01*
Y448500D01*
X1072996Y447250D01*
X1070497D01*
X1069248Y448500D01*
X1081744Y447250D02*
X1076745D01*
X1081744Y452248D01*
Y453498D01*
X1080494Y454748D01*
X1077995D01*
X1076745Y453498D01*
X1073498Y442998D02*
X1072249Y444248D01*
X1069750D01*
X1068500Y442998D01*
Y438000D01*
X1069750Y436750D01*
X1072249D01*
X1073498Y438000D01*
X1080996Y444248D02*
X1075998D01*
Y440499D01*
X1078497Y441748D01*
X1079746D01*
X1080996Y440499D01*
Y438000D01*
X1079746Y436750D01*
X1077247D01*
X1075998Y438000D01*
X1083495Y436750D02*
X1085994D01*
X1084745D01*
Y444248D01*
X1083495Y442998D01*
X1117748Y369752D02*
X1118998Y371001D01*
Y373500D01*
X1117748Y374750D01*
X1112750D01*
X1111500Y373500D01*
Y371001D01*
X1112750Y369752D01*
X1118998Y362254D02*
Y367252D01*
X1115249D01*
X1116498Y364753D01*
Y363504D01*
X1115249Y362254D01*
X1112750D01*
X1111500Y363504D01*
Y366003D01*
X1112750Y367252D01*
X1117748Y359755D02*
X1118998Y358505D01*
Y356006D01*
X1117748Y354756D01*
X1112750D01*
X1111500Y356006D01*
Y358505D01*
X1112750Y359755D01*
X1117748D01*
X1053358Y362458D02*
X1052109Y363708D01*
X1049610D01*
X1048360Y362458D01*
Y357460D01*
X1049610Y356210D01*
X1052109D01*
X1053358Y357460D01*
X1059606Y356210D02*
Y363708D01*
X1055858Y359959D01*
X1060856D01*
X1063355Y357460D02*
X1064605Y356210D01*
X1067104D01*
X1068354Y357460D01*
Y362458D01*
X1067104Y363708D01*
X1064605D01*
X1063355Y362458D01*
Y361208D01*
X1064605Y359959D01*
X1068354D01*
X1055248Y448752D02*
X1056498Y450001D01*
Y452500D01*
X1055248Y453750D01*
X1050250D01*
X1049000Y452500D01*
Y450001D01*
X1050250Y448752D01*
X1049000Y442504D02*
X1056498D01*
X1052749Y446252D01*
Y441254D01*
X1055248Y438755D02*
X1056498Y437505D01*
Y435006D01*
X1055248Y433756D01*
X1053998D01*
X1052749Y435006D01*
X1051499Y433756D01*
X1050250D01*
X1049000Y435006D01*
Y437505D01*
X1050250Y438755D01*
X1051499D01*
X1052749Y437505D01*
X1053998Y438755D01*
X1055248D01*
X1052749Y437505D02*
Y435006D01*
X1025398Y449002D02*
X1026648Y450251D01*
Y452750D01*
X1025398Y454000D01*
X1020400D01*
X1019150Y452750D01*
Y450251D01*
X1020400Y449002D01*
X1019150Y442754D02*
X1026648D01*
X1022899Y446502D01*
Y441504D01*
X1026648Y439005D02*
Y434006D01*
X1025398D01*
X1020400Y439005D01*
X1019150D01*
X1302360Y297790D02*
Y305288D01*
X1306109D01*
X1307358Y304038D01*
Y301539D01*
X1306109Y300289D01*
X1302360D01*
X1304859D02*
X1307358Y297790D01*
X1314856Y305288D02*
X1312357Y304038D01*
X1309858Y301539D01*
Y299040D01*
X1311107Y297790D01*
X1313606D01*
X1314856Y299040D01*
Y300289D01*
X1313606Y301539D01*
X1309858D01*
X1322354Y305288D02*
X1317355D01*
Y301539D01*
X1319854Y302788D01*
X1321104D01*
X1322354Y301539D01*
Y299040D01*
X1321104Y297790D01*
X1318605D01*
X1317355Y299040D01*
X1350538Y250780D02*
Y255778D01*
X1349289Y257028D01*
X1346790D01*
X1345540Y255778D01*
Y250780D01*
X1346790Y249530D01*
X1349289D01*
X1348039Y252029D02*
X1350538Y249530D01*
X1349289D02*
X1350538Y250780D01*
X1353038Y249530D02*
X1355537D01*
X1354287D01*
Y257028D01*
X1353038Y255778D01*
X1306998Y324500D02*
Y329498D01*
X1305749Y330748D01*
X1303250D01*
X1302000Y329498D01*
Y324500D01*
X1303250Y323250D01*
X1305749D01*
X1304499Y325749D02*
X1306998Y323250D01*
X1305749D02*
X1306998Y324500D01*
X1314496Y323250D02*
X1309498D01*
X1314496Y328248D01*
Y329498D01*
X1313246Y330748D01*
X1310747D01*
X1309498Y329498D01*
X824840Y647040D02*
Y654538D01*
X828589D01*
X829838Y653288D01*
Y650789D01*
X828589Y649539D01*
X824840D01*
X827339D02*
X829838Y647040D01*
X832338Y653288D02*
X833587Y654538D01*
X836086D01*
X837336Y653288D01*
Y652038D01*
X836086Y650789D01*
X837336Y649539D01*
Y648290D01*
X836086Y647040D01*
X833587D01*
X832338Y648290D01*
Y649539D01*
X833587Y650789D01*
X832338Y652038D01*
Y653288D01*
X833587Y650789D02*
X836086D01*
X844834Y654538D02*
X842334Y653288D01*
X839835Y650789D01*
Y648290D01*
X841085Y647040D01*
X843584D01*
X844834Y648290D01*
Y649539D01*
X843584Y650789D01*
X839835D01*
X1002498Y486002D02*
X1003748Y487251D01*
Y489750D01*
X1002498Y491000D01*
X997500D01*
X996250Y489750D01*
Y487251D01*
X997500Y486002D01*
X996250Y478504D02*
Y483502D01*
X1001248Y478504D01*
X1002498D01*
X1003748Y479754D01*
Y482253D01*
X1002498Y483502D01*
Y476005D02*
X1003748Y474755D01*
Y472256D01*
X1002498Y471006D01*
X1001248D01*
X999999Y472256D01*
X998749Y471006D01*
X997500D01*
X996250Y472256D01*
Y474755D01*
X997500Y476005D01*
X998749D01*
X999999Y474755D01*
X1001248Y476005D01*
X1002498D01*
X999999Y474755D02*
Y472256D01*
X1138250Y581498D02*
Y575250D01*
X1139500Y574000D01*
X1141999D01*
X1143248Y575250D01*
Y581498D01*
X1145748Y580248D02*
X1146997Y581498D01*
X1149496D01*
X1150746Y580248D01*
Y578998D01*
X1149496Y577749D01*
X1150746Y576499D01*
Y575250D01*
X1149496Y574000D01*
X1146997D01*
X1145748Y575250D01*
Y576499D01*
X1146997Y577749D01*
X1145748Y578998D01*
Y580248D01*
X1146997Y577749D02*
X1149496D01*
X578460Y714350D02*
Y721848D01*
X582209D01*
X583458Y720598D01*
Y718099D01*
X582209Y716849D01*
X578460D01*
X580959D02*
X583458Y714350D01*
X585958Y721848D02*
X590956D01*
Y720598D01*
X585958Y715600D01*
Y714350D01*
X593455Y720598D02*
X594705Y721848D01*
X597204D01*
X598454Y720598D01*
Y719348D01*
X597204Y718099D01*
X598454Y716849D01*
Y715600D01*
X597204Y714350D01*
X594705D01*
X593455Y715600D01*
Y716849D01*
X594705Y718099D01*
X593455Y719348D01*
Y720598D01*
X594705Y718099D02*
X597204D01*
X937870Y471780D02*
Y479278D01*
X941619D01*
X942868Y478028D01*
Y475529D01*
X941619Y474279D01*
X937870D01*
X940369D02*
X942868Y471780D01*
X945368Y479278D02*
X950366D01*
Y478028D01*
X945368Y473030D01*
Y471780D01*
X952865Y478028D02*
X954115Y479278D01*
X956614D01*
X957864Y478028D01*
Y476778D01*
X956614Y475529D01*
X957864Y474279D01*
Y473030D01*
X956614Y471780D01*
X954115D01*
X952865Y473030D01*
Y474279D01*
X954115Y475529D01*
X952865Y476778D01*
Y478028D01*
X954115Y475529D02*
X956614D01*
X842620Y591160D02*
Y598658D01*
X846369D01*
X847618Y597408D01*
Y594909D01*
X846369Y593659D01*
X842620D01*
X845119D02*
X847618Y591160D01*
X850118Y598658D02*
X855116D01*
Y597408D01*
X850118Y592410D01*
Y591160D01*
X857615Y597408D02*
X858865Y598658D01*
X861364D01*
X862614Y597408D01*
Y596158D01*
X861364Y594909D01*
X862614Y593659D01*
Y592410D01*
X861364Y591160D01*
X858865D01*
X857615Y592410D01*
Y593659D01*
X858865Y594909D01*
X857615Y596158D01*
Y597408D01*
X858865Y594909D02*
X861364D01*
X591160Y700380D02*
Y707878D01*
X594909D01*
X596158Y706628D01*
Y704129D01*
X594909Y702879D01*
X591160D01*
X593659D02*
X596158Y700380D01*
X598658Y707878D02*
X603656D01*
Y706628D01*
X598658Y701630D01*
Y700380D01*
X611154Y707878D02*
X608654Y706628D01*
X606155Y704129D01*
Y701630D01*
X607405Y700380D01*
X609904D01*
X611154Y701630D01*
Y702879D01*
X609904Y704129D01*
X606155D01*
X922630Y245720D02*
X930128D01*
Y241971D01*
X928878Y240722D01*
X926379D01*
X925129Y241971D01*
Y245720D01*
Y243221D02*
X922630Y240722D01*
X930128Y233224D02*
X928878Y235723D01*
X926379Y238222D01*
X923880D01*
X922630Y236973D01*
Y234474D01*
X923880Y233224D01*
X925129D01*
X926379Y234474D01*
Y238222D01*
X930128Y225726D02*
X928878Y228226D01*
X926379Y230725D01*
X923880D01*
X922630Y229475D01*
Y226976D01*
X923880Y225726D01*
X925129D01*
X926379Y226976D01*
Y230725D01*
X1014070Y245720D02*
X1021568D01*
Y241971D01*
X1020318Y240722D01*
X1017819D01*
X1016569Y241971D01*
Y245720D01*
Y243221D02*
X1014070Y240722D01*
X1021568Y233224D02*
X1020318Y235723D01*
X1017819Y238222D01*
X1015320D01*
X1014070Y236973D01*
Y234474D01*
X1015320Y233224D01*
X1016569D01*
X1017819Y234474D01*
Y238222D01*
X1021568Y225726D02*
X1020318Y228226D01*
X1017819Y230725D01*
X1015320D01*
X1014070Y229475D01*
Y226976D01*
X1015320Y225726D01*
X1016569D01*
X1017819Y226976D01*
Y230725D01*
X1101700Y245720D02*
X1109198D01*
Y241971D01*
X1107948Y240722D01*
X1105449D01*
X1104199Y241971D01*
Y245720D01*
Y243221D02*
X1101700Y240722D01*
X1109198Y233224D02*
X1107948Y235723D01*
X1105449Y238222D01*
X1102950D01*
X1101700Y236973D01*
Y234474D01*
X1102950Y233224D01*
X1104199D01*
X1105449Y234474D01*
Y238222D01*
X1109198Y225726D02*
X1107948Y228226D01*
X1105449Y230725D01*
X1102950D01*
X1101700Y229475D01*
Y226976D01*
X1102950Y225726D01*
X1104199D01*
X1105449Y226976D01*
Y230725D01*
X1194500Y245750D02*
X1201998D01*
Y242001D01*
X1200748Y240752D01*
X1198249D01*
X1196999Y242001D01*
Y245750D01*
Y243251D02*
X1194500Y240752D01*
X1201998Y233254D02*
X1200748Y235753D01*
X1198249Y238252D01*
X1195750D01*
X1194500Y237003D01*
Y234504D01*
X1195750Y233254D01*
X1196999D01*
X1198249Y234504D01*
Y238252D01*
X1201998Y225756D02*
X1200748Y228256D01*
X1198249Y230755D01*
X1195750D01*
X1194500Y229505D01*
Y227006D01*
X1195750Y225756D01*
X1196999D01*
X1198249Y227006D01*
Y230755D01*
X979780Y241910D02*
Y249408D01*
X983529D01*
X984778Y248158D01*
Y245659D01*
X983529Y244409D01*
X979780D01*
X982279D02*
X984778Y241910D01*
X992276Y249408D02*
X989777Y248158D01*
X987278Y245659D01*
Y243160D01*
X988527Y241910D01*
X991026D01*
X992276Y243160D01*
Y244409D01*
X991026Y245659D01*
X987278D01*
X999774Y249408D02*
X994775D01*
Y245659D01*
X997274Y246908D01*
X998524D01*
X999774Y245659D01*
Y243160D01*
X998524Y241910D01*
X996025D01*
X994775Y243160D01*
X1069950Y240640D02*
Y248138D01*
X1073699D01*
X1074948Y246888D01*
Y244389D01*
X1073699Y243139D01*
X1069950D01*
X1072449D02*
X1074948Y240640D01*
X1082446Y248138D02*
X1079947Y246888D01*
X1077448Y244389D01*
Y241890D01*
X1078697Y240640D01*
X1081196D01*
X1082446Y241890D01*
Y243139D01*
X1081196Y244389D01*
X1077448D01*
X1089944Y248138D02*
X1084945D01*
Y244389D01*
X1087444Y245638D01*
X1088694D01*
X1089944Y244389D01*
Y241890D01*
X1088694Y240640D01*
X1086195D01*
X1084945Y241890D01*
X1157580Y240640D02*
Y248138D01*
X1161329D01*
X1162578Y246888D01*
Y244389D01*
X1161329Y243139D01*
X1157580D01*
X1160079D02*
X1162578Y240640D01*
X1170076Y248138D02*
X1167577Y246888D01*
X1165078Y244389D01*
Y241890D01*
X1166327Y240640D01*
X1168826D01*
X1170076Y241890D01*
Y243139D01*
X1168826Y244389D01*
X1165078D01*
X1177574Y248138D02*
X1172575D01*
Y244389D01*
X1175074Y245638D01*
X1176324D01*
X1177574Y244389D01*
Y241890D01*
X1176324Y240640D01*
X1173825D01*
X1172575Y241890D01*
X1251560Y240640D02*
Y248138D01*
X1255309D01*
X1256558Y246888D01*
Y244389D01*
X1255309Y243139D01*
X1251560D01*
X1254059D02*
X1256558Y240640D01*
X1264056Y248138D02*
X1261557Y246888D01*
X1259058Y244389D01*
Y241890D01*
X1260307Y240640D01*
X1262806D01*
X1264056Y241890D01*
Y243139D01*
X1262806Y244389D01*
X1259058D01*
X1271554Y248138D02*
X1266555D01*
Y244389D01*
X1269054Y245638D01*
X1270304D01*
X1271554Y244389D01*
Y241890D01*
X1270304Y240640D01*
X1267805D01*
X1266555Y241890D01*
X1389990Y517500D02*
X1397488D01*
Y513751D01*
X1396238Y512502D01*
X1393739D01*
X1392489Y513751D01*
Y517500D01*
Y515001D02*
X1389990Y512502D01*
X1397488Y505004D02*
Y510002D01*
X1393739D01*
X1394988Y507503D01*
Y506254D01*
X1393739Y505004D01*
X1391240D01*
X1389990Y506254D01*
Y508753D01*
X1391240Y510002D01*
X1397488Y502505D02*
Y497506D01*
X1396238D01*
X1391240Y502505D01*
X1389990D01*
X1393800Y352400D02*
X1401298D01*
Y348651D01*
X1400048Y347402D01*
X1397549D01*
X1396299Y348651D01*
Y352400D01*
Y349901D02*
X1393800Y347402D01*
X1401298Y339904D02*
Y344902D01*
X1397549D01*
X1398798Y342403D01*
Y341154D01*
X1397549Y339904D01*
X1395050D01*
X1393800Y341154D01*
Y343653D01*
X1395050Y344902D01*
X1401298Y337405D02*
Y332406D01*
X1400048D01*
X1395050Y337405D01*
X1393800D01*
X1374750Y517500D02*
X1382248D01*
Y513751D01*
X1380998Y512502D01*
X1378499D01*
X1377249Y513751D01*
Y517500D01*
Y515001D02*
X1374750Y512502D01*
X1382248Y505004D02*
Y510002D01*
X1378499D01*
X1379748Y507503D01*
Y506254D01*
X1378499Y505004D01*
X1376000D01*
X1374750Y506254D01*
Y508753D01*
X1376000Y510002D01*
X1382248Y497506D02*
X1380998Y500006D01*
X1378499Y502505D01*
X1376000D01*
X1374750Y501255D01*
Y498756D01*
X1376000Y497506D01*
X1377249D01*
X1378499Y498756D01*
Y502505D01*
X1377290Y352400D02*
X1384788D01*
Y348651D01*
X1383538Y347402D01*
X1381039D01*
X1379789Y348651D01*
Y352400D01*
Y349901D02*
X1377290Y347402D01*
X1384788Y339904D02*
Y344902D01*
X1381039D01*
X1382288Y342403D01*
Y341154D01*
X1381039Y339904D01*
X1378540D01*
X1377290Y341154D01*
Y343653D01*
X1378540Y344902D01*
X1384788Y332406D02*
X1383538Y334906D01*
X1381039Y337405D01*
X1378540D01*
X1377290Y336155D01*
Y333656D01*
X1378540Y332406D01*
X1379789D01*
X1381039Y333656D01*
Y337405D01*
X1369670Y592430D02*
X1377168D01*
Y588681D01*
X1375918Y587432D01*
X1373419D01*
X1372169Y588681D01*
Y592430D01*
Y589931D02*
X1369670Y587432D01*
X1377168Y579934D02*
Y584932D01*
X1373419D01*
X1374668Y582433D01*
Y581184D01*
X1373419Y579934D01*
X1370920D01*
X1369670Y581184D01*
Y583683D01*
X1370920Y584932D01*
X1377168Y572436D02*
Y577435D01*
X1373419D01*
X1374668Y574936D01*
Y573686D01*
X1373419Y572436D01*
X1370920D01*
X1369670Y573686D01*
Y576185D01*
X1370920Y577435D01*
X1373480Y428600D02*
X1380978D01*
Y424851D01*
X1379728Y423602D01*
X1377229D01*
X1375979Y424851D01*
Y428600D01*
Y426101D02*
X1373480Y423602D01*
X1380978Y416104D02*
Y421102D01*
X1377229D01*
X1378478Y418603D01*
Y417354D01*
X1377229Y416104D01*
X1374730D01*
X1373480Y417354D01*
Y419853D01*
X1374730Y421102D01*
X1380978Y408606D02*
Y413605D01*
X1377229D01*
X1378478Y411106D01*
Y409856D01*
X1377229Y408606D01*
X1374730D01*
X1373480Y409856D01*
Y412355D01*
X1374730Y413605D01*
X1386180Y592430D02*
X1393678D01*
Y588681D01*
X1392428Y587432D01*
X1389929D01*
X1388679Y588681D01*
Y592430D01*
Y589931D02*
X1386180Y587432D01*
X1393678Y579934D02*
Y584932D01*
X1389929D01*
X1391178Y582433D01*
Y581184D01*
X1389929Y579934D01*
X1387430D01*
X1386180Y581184D01*
Y583683D01*
X1387430Y584932D01*
X1386180Y573686D02*
X1393678D01*
X1389929Y577435D01*
Y572436D01*
X1388720Y428600D02*
X1396218D01*
Y424851D01*
X1394968Y423602D01*
X1392469D01*
X1391219Y424851D01*
Y428600D01*
Y426101D02*
X1388720Y423602D01*
X1396218Y416104D02*
Y421102D01*
X1392469D01*
X1393718Y418603D01*
Y417354D01*
X1392469Y416104D01*
X1389970D01*
X1388720Y417354D01*
Y419853D01*
X1389970Y421102D01*
X1388720Y409856D02*
X1396218D01*
X1392469Y413605D01*
Y408606D01*
X995020Y394310D02*
Y401808D01*
X998769D01*
X1000018Y400558D01*
Y398059D01*
X998769Y396809D01*
X995020D01*
X997519D02*
X1000018Y394310D01*
X1002518Y400558D02*
X1003767Y401808D01*
X1006266D01*
X1007516Y400558D01*
Y399308D01*
X1006266Y398059D01*
X1005017D01*
X1006266D01*
X1007516Y396809D01*
Y395560D01*
X1006266Y394310D01*
X1003767D01*
X1002518Y395560D01*
X1010015Y400558D02*
X1011265Y401808D01*
X1013764D01*
X1015014Y400558D01*
Y399308D01*
X1013764Y398059D01*
X1015014Y396809D01*
Y395560D01*
X1013764Y394310D01*
X1011265D01*
X1010015Y395560D01*
Y396809D01*
X1011265Y398059D01*
X1010015Y399308D01*
Y400558D01*
X1011265Y398059D02*
X1013764D01*
X705460Y442570D02*
Y450068D01*
X709209D01*
X710458Y448818D01*
Y446319D01*
X709209Y445069D01*
X705460D01*
X707959D02*
X710458Y442570D01*
X712958Y448818D02*
X714207Y450068D01*
X716706D01*
X717956Y448818D01*
Y447568D01*
X716706Y446319D01*
X715457D01*
X716706D01*
X717956Y445069D01*
Y443820D01*
X716706Y442570D01*
X714207D01*
X712958Y443820D01*
X720455Y450068D02*
X725454D01*
Y448818D01*
X720455Y443820D01*
Y442570D01*
X817220Y591160D02*
Y598658D01*
X820969D01*
X822218Y597408D01*
Y594909D01*
X820969Y593659D01*
X817220D01*
X819719D02*
X822218Y591160D01*
X824718Y597408D02*
X825967Y598658D01*
X828466D01*
X829716Y597408D01*
Y596158D01*
X828466Y594909D01*
X827217D01*
X828466D01*
X829716Y593659D01*
Y592410D01*
X828466Y591160D01*
X825967D01*
X824718Y592410D01*
X837214Y598658D02*
X834714Y597408D01*
X832215Y594909D01*
Y592410D01*
X833465Y591160D01*
X835964D01*
X837214Y592410D01*
Y593659D01*
X835964Y594909D01*
X832215D01*
X1110250Y604000D02*
X1117748D01*
Y600251D01*
X1116498Y599002D01*
X1113999D01*
X1112749Y600251D01*
Y604000D01*
Y601501D02*
X1110250Y599002D01*
X1116498Y596502D02*
X1117748Y595253D01*
Y592754D01*
X1116498Y591504D01*
X1115248D01*
X1113999Y592754D01*
Y594003D01*
Y592754D01*
X1112749Y591504D01*
X1111500D01*
X1110250Y592754D01*
Y595253D01*
X1111500Y596502D01*
X1117748Y584006D02*
Y589005D01*
X1113999D01*
X1115248Y586506D01*
Y585256D01*
X1113999Y584006D01*
X1111500D01*
X1110250Y585256D01*
Y587755D01*
X1111500Y589005D01*
X1065250Y555250D02*
Y562748D01*
X1068999D01*
X1070248Y561498D01*
Y558999D01*
X1068999Y557749D01*
X1065250D01*
X1067749D02*
X1070248Y555250D01*
X1072748Y561498D02*
X1073997Y562748D01*
X1076496D01*
X1077746Y561498D01*
Y560248D01*
X1076496Y558999D01*
X1075247D01*
X1076496D01*
X1077746Y557749D01*
Y556500D01*
X1076496Y555250D01*
X1073997D01*
X1072748Y556500D01*
X1083994Y555250D02*
Y562748D01*
X1080245Y558999D01*
X1085244D01*
X998250Y588000D02*
Y595498D01*
X1001999D01*
X1003248Y594248D01*
Y591749D01*
X1001999Y590499D01*
X998250D01*
X1000749D02*
X1003248Y588000D01*
X1005748Y594248D02*
X1006997Y595498D01*
X1009496D01*
X1010746Y594248D01*
Y592998D01*
X1009496Y591749D01*
X1008247D01*
X1009496D01*
X1010746Y590499D01*
Y589250D01*
X1009496Y588000D01*
X1006997D01*
X1005748Y589250D01*
X1013245Y594248D02*
X1014495Y595498D01*
X1016994D01*
X1018244Y594248D01*
Y592998D01*
X1016994Y591749D01*
X1015744D01*
X1016994D01*
X1018244Y590499D01*
Y589250D01*
X1016994Y588000D01*
X1014495D01*
X1013245Y589250D01*
X1087750Y572250D02*
X1095248D01*
Y568501D01*
X1093998Y567252D01*
X1091499D01*
X1090249Y568501D01*
Y572250D01*
Y569751D02*
X1087750Y567252D01*
X1093998Y564752D02*
X1095248Y563503D01*
Y561004D01*
X1093998Y559754D01*
X1092748D01*
X1091499Y561004D01*
Y562253D01*
Y561004D01*
X1090249Y559754D01*
X1089000D01*
X1087750Y561004D01*
Y563503D01*
X1089000Y564752D01*
X1087750Y552256D02*
Y557255D01*
X1092748Y552256D01*
X1093998D01*
X1095248Y553506D01*
Y556005D01*
X1093998Y557255D01*
X1024000Y605750D02*
X1031498D01*
Y602001D01*
X1030248Y600752D01*
X1027749D01*
X1026499Y602001D01*
Y605750D01*
Y603251D02*
X1024000Y600752D01*
X1030248Y598252D02*
X1031498Y597003D01*
Y594504D01*
X1030248Y593254D01*
X1028998D01*
X1027749Y594504D01*
Y595753D01*
Y594504D01*
X1026499Y593254D01*
X1025250D01*
X1024000Y594504D01*
Y597003D01*
X1025250Y598252D01*
X1024000Y590755D02*
Y588256D01*
Y589505D01*
X1031498D01*
X1030248Y590755D01*
X1073750Y588000D02*
Y595498D01*
X1077499D01*
X1078748Y594248D01*
Y591749D01*
X1077499Y590499D01*
X1073750D01*
X1076249D02*
X1078748Y588000D01*
X1081248Y594248D02*
X1082497Y595498D01*
X1084996D01*
X1086246Y594248D01*
Y592998D01*
X1084996Y591749D01*
X1083747D01*
X1084996D01*
X1086246Y590499D01*
Y589250D01*
X1084996Y588000D01*
X1082497D01*
X1081248Y589250D01*
X1088745Y594248D02*
X1089995Y595498D01*
X1092494D01*
X1093744Y594248D01*
Y589250D01*
X1092494Y588000D01*
X1089995D01*
X1088745Y589250D01*
Y594248D01*
X984500Y593250D02*
X991998D01*
Y589501D01*
X990748Y588252D01*
X988249D01*
X986999Y589501D01*
Y593250D01*
Y590751D02*
X984500Y588252D01*
Y580754D02*
Y585752D01*
X989498Y580754D01*
X990748D01*
X991998Y582004D01*
Y584503D01*
X990748Y585752D01*
X985750Y578255D02*
X984500Y577005D01*
Y574506D01*
X985750Y573256D01*
X990748D01*
X991998Y574506D01*
Y577005D01*
X990748Y578255D01*
X989498D01*
X988249Y577005D01*
Y573256D01*
X1173750Y574000D02*
Y581498D01*
X1177499D01*
X1178748Y580248D01*
Y577749D01*
X1177499Y576499D01*
X1173750D01*
X1176249D02*
X1178748Y574000D01*
X1186246D02*
X1181248D01*
X1186246Y578998D01*
Y580248D01*
X1184996Y581498D01*
X1182497D01*
X1181248Y580248D01*
X1188745D02*
X1189995Y581498D01*
X1192494D01*
X1193744Y580248D01*
Y578998D01*
X1192494Y577749D01*
X1193744Y576499D01*
Y575250D01*
X1192494Y574000D01*
X1189995D01*
X1188745Y575250D01*
Y576499D01*
X1189995Y577749D01*
X1188745Y578998D01*
Y580248D01*
X1189995Y577749D02*
X1192494D01*
X996000Y581750D02*
X1003498D01*
Y578001D01*
X1002248Y576752D01*
X999749D01*
X998499Y578001D01*
Y581750D01*
Y579251D02*
X996000Y576752D01*
Y569254D02*
Y574252D01*
X1000998Y569254D01*
X1002248D01*
X1003498Y570504D01*
Y573003D01*
X1002248Y574252D01*
X1003498Y566755D02*
Y561756D01*
X1002248D01*
X997250Y566755D01*
X996000D01*
X916280Y565760D02*
Y573258D01*
X920029D01*
X921278Y572008D01*
Y569509D01*
X920029Y568259D01*
X916280D01*
X918779D02*
X921278Y565760D01*
X928776D02*
X923778D01*
X928776Y570758D01*
Y572008D01*
X927526Y573258D01*
X925027D01*
X923778Y572008D01*
X936274Y573258D02*
X933774Y572008D01*
X931275Y569509D01*
Y567010D01*
X932525Y565760D01*
X935024D01*
X936274Y567010D01*
Y568259D01*
X935024Y569509D01*
X931275D01*
X898500Y551790D02*
Y559288D01*
X902249D01*
X903498Y558038D01*
Y555539D01*
X902249Y554289D01*
X898500D01*
X900999D02*
X903498Y551790D01*
X910996D02*
X905998D01*
X910996Y556788D01*
Y558038D01*
X909746Y559288D01*
X907247D01*
X905998Y558038D01*
X918494Y559288D02*
X913495D01*
Y555539D01*
X915994Y556788D01*
X917244D01*
X918494Y555539D01*
Y553040D01*
X917244Y551790D01*
X914745D01*
X913495Y553040D01*
X843890Y215240D02*
Y222738D01*
X847639D01*
X848888Y221488D01*
Y218989D01*
X847639Y217739D01*
X843890D01*
X846389D02*
X848888Y215240D01*
X851388Y222738D02*
X856386D01*
Y221488D01*
X851388Y216490D01*
Y215240D01*
X702920Y572110D02*
Y579608D01*
X706669D01*
X707918Y578358D01*
Y575859D01*
X706669Y574609D01*
X702920D01*
X705419D02*
X707918Y572110D01*
X710418Y578358D02*
X711667Y579608D01*
X714166D01*
X715416Y578358D01*
Y577108D01*
X714166Y575859D01*
X712917D01*
X714166D01*
X715416Y574609D01*
Y573360D01*
X714166Y572110D01*
X711667D01*
X710418Y573360D01*
X986048Y212700D02*
Y217698D01*
X984799Y218948D01*
X982300D01*
X981050Y217698D01*
Y212700D01*
X982300Y211450D01*
X984799D01*
X983549Y213950D02*
X986048Y211450D01*
X984799D02*
X986048Y212700D01*
X993546Y211450D02*
X988548D01*
X993546Y216449D01*
Y217698D01*
X992296Y218948D01*
X989797D01*
X988548Y217698D01*
X1077488Y213950D02*
Y218948D01*
X1076239Y220198D01*
X1073740D01*
X1072490Y218948D01*
Y213950D01*
X1073740Y212700D01*
X1076239D01*
X1074989Y215199D02*
X1077488Y212700D01*
X1076239D02*
X1077488Y213950D01*
X1084986Y212700D02*
X1079988D01*
X1084986Y217698D01*
Y218948D01*
X1083736Y220198D01*
X1081237D01*
X1079988Y218948D01*
X1163848Y212700D02*
Y217698D01*
X1162599Y218948D01*
X1160100D01*
X1158850Y217698D01*
Y212700D01*
X1160100Y211450D01*
X1162599D01*
X1161349Y213950D02*
X1163848Y211450D01*
X1162599D02*
X1163848Y212700D01*
X1171346Y211450D02*
X1166348D01*
X1171346Y216449D01*
Y217698D01*
X1170096Y218948D01*
X1167597D01*
X1166348Y217698D01*
X1256558Y213950D02*
Y218948D01*
X1255309Y220198D01*
X1252810D01*
X1251560Y218948D01*
Y213950D01*
X1252810Y212700D01*
X1255309D01*
X1254059Y215199D02*
X1256558Y212700D01*
X1255309D02*
X1256558Y213950D01*
X1264056Y212700D02*
X1259058D01*
X1264056Y217698D01*
Y218948D01*
X1262806Y220198D01*
X1260307D01*
X1259058Y218948D01*
X956838Y283800D02*
Y288798D01*
X955589Y290048D01*
X953090D01*
X951840Y288798D01*
Y283800D01*
X953090Y282550D01*
X955589D01*
X954339Y285049D02*
X956838Y282550D01*
X955589D02*
X956838Y283800D01*
X959338Y282550D02*
X961837D01*
X960587D01*
Y290048D01*
X959338Y288798D01*
X1045738Y283800D02*
Y288798D01*
X1044489Y290048D01*
X1041990D01*
X1040740Y288798D01*
Y283800D01*
X1041990Y282550D01*
X1044489D01*
X1043239Y285049D02*
X1045738Y282550D01*
X1044489D02*
X1045738Y283800D01*
X1048238Y282550D02*
X1050737D01*
X1049487D01*
Y290048D01*
X1048238Y288798D01*
X1134638Y283800D02*
Y288798D01*
X1133389Y290048D01*
X1130890D01*
X1129640Y288798D01*
Y283800D01*
X1130890Y282550D01*
X1133389D01*
X1132139Y285049D02*
X1134638Y282550D01*
X1133389D02*
X1134638Y283800D01*
X1137138Y282550D02*
X1139637D01*
X1138387D01*
Y290048D01*
X1137138Y288798D01*
X1226078Y283800D02*
Y288798D01*
X1224829Y290048D01*
X1222330D01*
X1221080Y288798D01*
Y283800D01*
X1222330Y282550D01*
X1224829D01*
X1223579Y285049D02*
X1226078Y282550D01*
X1224829D02*
X1226078Y283800D01*
X1228578Y282550D02*
X1231077D01*
X1229827D01*
Y290048D01*
X1228578Y288798D01*
X808330Y583418D02*
Y575920D01*
X813328D01*
X820826D02*
X815828D01*
X820826Y580918D01*
Y582168D01*
X819576Y583418D01*
X817077D01*
X815828Y582168D01*
X347238Y436118D02*
X345989Y437368D01*
X343490D01*
X342240Y436118D01*
Y431120D01*
X343490Y429870D01*
X345989D01*
X347238Y431120D01*
X354736Y437368D02*
X349738D01*
Y433619D01*
X352237Y434868D01*
X353486D01*
X354736Y433619D01*
Y431120D01*
X353486Y429870D01*
X350987D01*
X349738Y431120D01*
X362234Y437368D02*
X359734Y436118D01*
X357235Y433619D01*
Y431120D01*
X358485Y429870D01*
X360984D01*
X362234Y431120D01*
Y432369D01*
X360984Y433619D01*
X357235D01*
X1128498Y589752D02*
X1129748Y591001D01*
Y593500D01*
X1128498Y594750D01*
X1123500D01*
X1122250Y593500D01*
Y591001D01*
X1123500Y589752D01*
X1122250Y583504D02*
X1129748D01*
X1125999Y587252D01*
Y582254D01*
X1129748Y574756D02*
X1128498Y577256D01*
X1125999Y579755D01*
X1123500D01*
X1122250Y578505D01*
Y576006D01*
X1123500Y574756D01*
X1124749D01*
X1125999Y576006D01*
Y579755D01*
X1262888Y511232D02*
X1264138Y512481D01*
Y514980D01*
X1262888Y516230D01*
X1257890D01*
X1256640Y514980D01*
Y512481D01*
X1257890Y511232D01*
X1256640Y504984D02*
X1264138D01*
X1260389Y508732D01*
Y503734D01*
X1262888Y501235D02*
X1264138Y499985D01*
Y497486D01*
X1262888Y496236D01*
X1257890D01*
X1256640Y497486D01*
Y499985D01*
X1257890Y501235D01*
X1262888D01*
X1261618Y398202D02*
X1262868Y399451D01*
Y401950D01*
X1261618Y403200D01*
X1256620D01*
X1255370Y401950D01*
Y399451D01*
X1256620Y398202D01*
X1255370Y391954D02*
X1262868D01*
X1259119Y395702D01*
Y390704D01*
X1261618Y388205D02*
X1262868Y386955D01*
Y384456D01*
X1261618Y383206D01*
X1256620D01*
X1255370Y384456D01*
Y386955D01*
X1256620Y388205D01*
X1261618D01*
X1213378Y551688D02*
X1212129Y552938D01*
X1209630D01*
X1208380Y551688D01*
Y546690D01*
X1209630Y545440D01*
X1212129D01*
X1213378Y546690D01*
X1215878Y551688D02*
X1217127Y552938D01*
X1219626D01*
X1220876Y551688D01*
Y550438D01*
X1219626Y549189D01*
X1218377D01*
X1219626D01*
X1220876Y547939D01*
Y546690D01*
X1219626Y545440D01*
X1217127D01*
X1215878Y546690D01*
X1223375D02*
X1224625Y545440D01*
X1227124D01*
X1228374Y546690D01*
Y551688D01*
X1227124Y552938D01*
X1224625D01*
X1223375Y551688D01*
Y550438D01*
X1224625Y549189D01*
X1228374D01*
X1217188Y363728D02*
X1215939Y364978D01*
X1213440D01*
X1212190Y363728D01*
Y358730D01*
X1213440Y357480D01*
X1215939D01*
X1217188Y358730D01*
X1219688Y363728D02*
X1220937Y364978D01*
X1223436D01*
X1224686Y363728D01*
Y362478D01*
X1223436Y361229D01*
X1222187D01*
X1223436D01*
X1224686Y359979D01*
Y358730D01*
X1223436Y357480D01*
X1220937D01*
X1219688Y358730D01*
X1227185D02*
X1228435Y357480D01*
X1230934D01*
X1232184Y358730D01*
Y363728D01*
X1230934Y364978D01*
X1228435D01*
X1227185Y363728D01*
Y362478D01*
X1228435Y361229D01*
X1232184D01*
X1213378Y564388D02*
X1212129Y565638D01*
X1209630D01*
X1208380Y564388D01*
Y559390D01*
X1209630Y558140D01*
X1212129D01*
X1213378Y559390D01*
X1215878Y564388D02*
X1217127Y565638D01*
X1219626D01*
X1220876Y564388D01*
Y563138D01*
X1219626Y561889D01*
X1218377D01*
X1219626D01*
X1220876Y560639D01*
Y559390D01*
X1219626Y558140D01*
X1217127D01*
X1215878Y559390D01*
X1223375Y564388D02*
X1224625Y565638D01*
X1227124D01*
X1228374Y564388D01*
Y563138D01*
X1227124Y561889D01*
X1228374Y560639D01*
Y559390D01*
X1227124Y558140D01*
X1224625D01*
X1223375Y559390D01*
Y560639D01*
X1224625Y561889D01*
X1223375Y563138D01*
Y564388D01*
X1224625Y561889D02*
X1227124D01*
X1217188Y375158D02*
X1215939Y376408D01*
X1213440D01*
X1212190Y375158D01*
Y370160D01*
X1213440Y368910D01*
X1215939D01*
X1217188Y370160D01*
X1219688Y375158D02*
X1220937Y376408D01*
X1223436D01*
X1224686Y375158D01*
Y373908D01*
X1223436Y372659D01*
X1222187D01*
X1223436D01*
X1224686Y371409D01*
Y370160D01*
X1223436Y368910D01*
X1220937D01*
X1219688Y370160D01*
X1227185Y375158D02*
X1228435Y376408D01*
X1230934D01*
X1232184Y375158D01*
Y373908D01*
X1230934Y372659D01*
X1232184Y371409D01*
Y370160D01*
X1230934Y368910D01*
X1228435D01*
X1227185Y370160D01*
Y371409D01*
X1228435Y372659D01*
X1227185Y373908D01*
Y375158D01*
X1228435Y372659D02*
X1230934D01*
X1213378Y577088D02*
X1212129Y578338D01*
X1209630D01*
X1208380Y577088D01*
Y572090D01*
X1209630Y570840D01*
X1212129D01*
X1213378Y572090D01*
X1215878Y577088D02*
X1217127Y578338D01*
X1219626D01*
X1220876Y577088D01*
Y575838D01*
X1219626Y574589D01*
X1218377D01*
X1219626D01*
X1220876Y573339D01*
Y572090D01*
X1219626Y570840D01*
X1217127D01*
X1215878Y572090D01*
X1223375Y578338D02*
X1228374D01*
Y577088D01*
X1223375Y572090D01*
Y570840D01*
X1218458Y447548D02*
X1217209Y448798D01*
X1214710D01*
X1213460Y447548D01*
Y442550D01*
X1214710Y441300D01*
X1217209D01*
X1218458Y442550D01*
X1220958Y447548D02*
X1222207Y448798D01*
X1224706D01*
X1225956Y447548D01*
Y446298D01*
X1224706Y445049D01*
X1223457D01*
X1224706D01*
X1225956Y443799D01*
Y442550D01*
X1224706Y441300D01*
X1222207D01*
X1220958Y442550D01*
X1228455Y448798D02*
X1233454D01*
Y447548D01*
X1228455Y442550D01*
Y441300D01*
X1133248Y369502D02*
X1134498Y370751D01*
Y373250D01*
X1133248Y374500D01*
X1128250D01*
X1127000Y373250D01*
Y370751D01*
X1128250Y369502D01*
X1133248Y367002D02*
X1134498Y365753D01*
Y363254D01*
X1133248Y362004D01*
X1131998D01*
X1130749Y363254D01*
Y364503D01*
Y363254D01*
X1129499Y362004D01*
X1128250D01*
X1127000Y363254D01*
Y365753D01*
X1128250Y367002D01*
X1134498Y354506D02*
Y359505D01*
X1130749D01*
X1131998Y357006D01*
Y355756D01*
X1130749Y354506D01*
X1128250D01*
X1127000Y355756D01*
Y358255D01*
X1128250Y359505D01*
X932028Y363468D02*
X930779Y364718D01*
X928280D01*
X927030Y363468D01*
Y358470D01*
X928280Y357220D01*
X930779D01*
X932028Y358470D01*
X934528Y363468D02*
X935777Y364718D01*
X938276D01*
X939526Y363468D01*
Y362218D01*
X938276Y360969D01*
X937027D01*
X938276D01*
X939526Y359719D01*
Y358470D01*
X938276Y357220D01*
X935777D01*
X934528Y358470D01*
X945774Y357220D02*
Y364718D01*
X942025Y360969D01*
X947024D01*
X967398Y363218D02*
X966149Y364468D01*
X963650D01*
X962400Y363218D01*
Y358220D01*
X963650Y356970D01*
X966149D01*
X967398Y358220D01*
X969898Y363218D02*
X971147Y364468D01*
X973646D01*
X974896Y363218D01*
Y361968D01*
X973646Y360719D01*
X972397D01*
X973646D01*
X974896Y359469D01*
Y358220D01*
X973646Y356970D01*
X971147D01*
X969898Y358220D01*
X977395Y363218D02*
X978645Y364468D01*
X981144D01*
X982394Y363218D01*
Y361968D01*
X981144Y360719D01*
X979894D01*
X981144D01*
X982394Y359469D01*
Y358220D01*
X981144Y356970D01*
X978645D01*
X977395Y358220D01*
X1030258Y373172D02*
X1031508Y374421D01*
Y376920D01*
X1030258Y378170D01*
X1025260D01*
X1024010Y376920D01*
Y374421D01*
X1025260Y373172D01*
X1030258Y370672D02*
X1031508Y369423D01*
Y366924D01*
X1030258Y365674D01*
X1029008D01*
X1027759Y366924D01*
Y368173D01*
Y366924D01*
X1026509Y365674D01*
X1025260D01*
X1024010Y366924D01*
Y369423D01*
X1025260Y370672D01*
X1024010Y358176D02*
Y363175D01*
X1029008Y358176D01*
X1030258D01*
X1031508Y359426D01*
Y361925D01*
X1030258Y363175D01*
X1030248Y395502D02*
X1031498Y396751D01*
Y399250D01*
X1030248Y400500D01*
X1025250D01*
X1024000Y399250D01*
Y396751D01*
X1025250Y395502D01*
X1030248Y393002D02*
X1031498Y391753D01*
Y389254D01*
X1030248Y388004D01*
X1028998D01*
X1027749Y389254D01*
Y390503D01*
Y389254D01*
X1026499Y388004D01*
X1025250D01*
X1024000Y389254D01*
Y391753D01*
X1025250Y393002D01*
X1024000Y385505D02*
Y383006D01*
Y384255D01*
X1031498D01*
X1030248Y385505D01*
X1105498Y599502D02*
X1106748Y600751D01*
Y603250D01*
X1105498Y604500D01*
X1100500D01*
X1099250Y603250D01*
Y600751D01*
X1100500Y599502D01*
X1105498Y597002D02*
X1106748Y595753D01*
Y593254D01*
X1105498Y592004D01*
X1104248D01*
X1102999Y593254D01*
Y594503D01*
Y593254D01*
X1101749Y592004D01*
X1100500D01*
X1099250Y593254D01*
Y595753D01*
X1100500Y597002D01*
X1105498Y589505D02*
X1106748Y588255D01*
Y585756D01*
X1105498Y584506D01*
X1100500D01*
X1099250Y585756D01*
Y588255D01*
X1100500Y589505D01*
X1105498D01*
X1041748Y601252D02*
X1042998Y602501D01*
Y605000D01*
X1041748Y606250D01*
X1036750D01*
X1035500Y605000D01*
Y602501D01*
X1036750Y601252D01*
X1035500Y593754D02*
Y598752D01*
X1040498Y593754D01*
X1041748D01*
X1042998Y595004D01*
Y597503D01*
X1041748Y598752D01*
X1036750Y591255D02*
X1035500Y590005D01*
Y587506D01*
X1036750Y586256D01*
X1041748D01*
X1042998Y587506D01*
Y590005D01*
X1041748Y591255D01*
X1040498D01*
X1039249Y590005D01*
Y586256D01*
X952498Y488998D02*
X951249Y490248D01*
X948750D01*
X947500Y488998D01*
Y484000D01*
X948750Y482750D01*
X951249D01*
X952498Y484000D01*
X959996Y482750D02*
X954998D01*
X959996Y487748D01*
Y488998D01*
X958746Y490248D01*
X956247D01*
X954998Y488998D01*
X962495Y490248D02*
X967494D01*
Y488998D01*
X962495Y484000D01*
Y482750D01*
X1052998Y593498D02*
X1051749Y594748D01*
X1049250D01*
X1048000Y593498D01*
Y588500D01*
X1049250Y587250D01*
X1051749D01*
X1052998Y588500D01*
X1060496Y587250D02*
X1055498D01*
X1060496Y592248D01*
Y593498D01*
X1059246Y594748D01*
X1056747D01*
X1055498Y593498D01*
X1067994Y594748D02*
X1065494Y593498D01*
X1062995Y590999D01*
Y588500D01*
X1064245Y587250D01*
X1066744D01*
X1067994Y588500D01*
Y589749D01*
X1066744Y590999D01*
X1062995D01*
X947928Y574122D02*
X949178Y575371D01*
Y577870D01*
X947928Y579120D01*
X942930D01*
X941680Y577870D01*
Y575371D01*
X942930Y574122D01*
X941680Y566624D02*
Y571622D01*
X946678Y566624D01*
X947928D01*
X949178Y567874D01*
Y570373D01*
X947928Y571622D01*
X949178Y559126D02*
Y564125D01*
X945429D01*
X946678Y561626D01*
Y560376D01*
X945429Y559126D01*
X942930D01*
X941680Y560376D01*
Y562875D01*
X942930Y564125D01*
X1014248Y485502D02*
X1015498Y486751D01*
Y489250D01*
X1014248Y490500D01*
X1009250D01*
X1008000Y489250D01*
Y486751D01*
X1009250Y485502D01*
X1008000Y478004D02*
Y483002D01*
X1012998Y478004D01*
X1014248D01*
X1015498Y479254D01*
Y481753D01*
X1014248Y483002D01*
X1008000Y471756D02*
X1015498D01*
X1011749Y475505D01*
Y470506D01*
X847498Y469498D02*
X846249Y470748D01*
X843750D01*
X842500Y469498D01*
Y464500D01*
X843750Y463250D01*
X846249D01*
X847498Y464500D01*
X854996Y463250D02*
X849998D01*
X854996Y468248D01*
Y469498D01*
X853746Y470748D01*
X851247D01*
X849998Y469498D01*
X857495D02*
X858745Y470748D01*
X861244D01*
X862494Y469498D01*
Y468248D01*
X861244Y466999D01*
X859994D01*
X861244D01*
X862494Y465749D01*
Y464500D01*
X861244Y463250D01*
X858745D01*
X857495Y464500D01*
X820498Y469498D02*
X819249Y470748D01*
X816750D01*
X815500Y469498D01*
Y464500D01*
X816750Y463250D01*
X819249D01*
X820498Y464500D01*
X827996Y463250D02*
X822998D01*
X827996Y468248D01*
Y469498D01*
X826746Y470748D01*
X824247D01*
X822998Y469498D01*
X835494Y463250D02*
X830495D01*
X835494Y468248D01*
Y469498D01*
X834244Y470748D01*
X831745D01*
X830495Y469498D01*
X990748Y485502D02*
X991998Y486751D01*
Y489250D01*
X990748Y490500D01*
X985750D01*
X984500Y489250D01*
Y486751D01*
X985750Y485502D01*
X984500Y478004D02*
Y483002D01*
X989498Y478004D01*
X990748D01*
X991998Y479254D01*
Y481753D01*
X990748Y483002D01*
X984500Y475505D02*
Y473006D01*
Y474255D01*
X991998D01*
X990748Y475505D01*
X927058Y505688D02*
X925809Y506938D01*
X923310D01*
X922060Y505688D01*
Y500690D01*
X923310Y499440D01*
X925809D01*
X927058Y500690D01*
X934556Y499440D02*
X929558D01*
X934556Y504438D01*
Y505688D01*
X933306Y506938D01*
X930807D01*
X929558Y505688D01*
X937055D02*
X938305Y506938D01*
X940804D01*
X942054Y505688D01*
Y500690D01*
X940804Y499440D01*
X938305D01*
X937055Y500690D01*
Y505688D01*
X928828Y531418D02*
X927579Y532668D01*
X925080D01*
X923830Y531418D01*
Y526420D01*
X925080Y525170D01*
X927579D01*
X928828Y526420D01*
X931328Y525170D02*
X933827D01*
X932577D01*
Y532668D01*
X931328Y531418D01*
X937576Y526420D02*
X938825Y525170D01*
X941324D01*
X942574Y526420D01*
Y531418D01*
X941324Y532668D01*
X938825D01*
X937576Y531418D01*
Y530168D01*
X938825Y528919D01*
X942574D01*
X525038Y525018D02*
X523789Y526268D01*
X521290D01*
X520040Y525018D01*
Y520020D01*
X521290Y518770D01*
X523789D01*
X525038Y520020D01*
X532536Y526268D02*
X530037Y525018D01*
X527538Y522519D01*
Y520020D01*
X528787Y518770D01*
X531286D01*
X532536Y520020D01*
Y521269D01*
X531286Y522519D01*
X527538D01*
X514878Y538988D02*
X513629Y540238D01*
X511130D01*
X509880Y538988D01*
Y533990D01*
X511130Y532740D01*
X513629D01*
X514878Y533990D01*
X522376Y540238D02*
X517378D01*
Y536489D01*
X519877Y537738D01*
X521126D01*
X522376Y536489D01*
Y533990D01*
X521126Y532740D01*
X518627D01*
X517378Y533990D01*
D16*
X1258160Y348400D02*
Y358900D01*
X1282290Y467780D02*
Y478280D01*
M02*
