G04*
G04 #@! TF.GenerationSoftware,Altium Limited,Altium Designer,19.1.5 (86)*
G04*
G04 Layer_Physical_Order=6*
G04 Layer_Color=16711680*
%FSLAX44Y44*%
%MOMM*%
G71*
G01*
G75*
%ADD12C,0.2000*%
%ADD17C,0.1000*%
%ADD18R,0.4500X0.6000*%
%ADD19R,0.8000X1.3000*%
%ADD20R,0.6000X0.4000*%
%ADD21R,0.4000X0.6000*%
%ADD22R,0.6000X0.4500*%
%ADD28R,0.8000X0.6000*%
%ADD32R,0.7000X0.9000*%
%ADD35R,0.5000X0.9000*%
%ADD36R,1.3000X0.8000*%
%ADD62C,1.2700*%
%ADD63C,6.0000*%
%ADD64C,1.5240*%
%ADD65R,1.5240X1.5240*%
%ADD66C,0.6000*%
%ADD69R,1.5000X0.5500*%
%ADD70R,0.5500X1.5000*%
G04:AMPARAMS|DCode=71|XSize=0.4mm|YSize=0.6mm|CornerRadius=0mm|HoleSize=0mm|Usage=FLASHONLY|Rotation=135.000|XOffset=0mm|YOffset=0mm|HoleType=Round|Shape=Rectangle|*
%AMROTATEDRECTD71*
4,1,4,0.3536,0.0707,-0.0707,-0.3536,-0.3536,-0.0707,0.0707,0.3536,0.3536,0.0707,0.0*
%
%ADD71ROTATEDRECTD71*%

%ADD72R,0.6000X0.8000*%
%ADD73R,0.7000X0.7500*%
%ADD74R,3.7000X3.7000*%
%ADD75R,1.0400X0.3300*%
%ADD76R,0.3300X1.0400*%
%ADD77R,2.2000X0.6000*%
%ADD78R,2.2500X0.9000*%
%ADD79R,2.8000X0.9000*%
%ADD80R,1.6000X2.2000*%
%ADD81R,0.7000X1.8000*%
%ADD82R,3.6000X3.6000*%
%ADD83R,0.2600X0.8400*%
%ADD84R,0.8400X0.2600*%
%ADD85R,0.4700X1.0000*%
%ADD86R,0.4500X1.3500*%
%ADD87R,1.2000X1.8000*%
%ADD88R,1.3500X0.4500*%
%ADD89R,3.6000X3.6000*%
%ADD90R,3.7000X3.7000*%
%ADD91R,1.8000X0.7000*%
%ADD92R,2.2000X1.6000*%
G36*
X1021080Y473970D02*
X1020909Y473733D01*
X1020880Y473703D01*
X1020629Y473517D01*
X1019568Y473216D01*
X1018318Y473465D01*
X1016553Y473114D01*
X1015715Y472554D01*
X995672Y492598D01*
X994837Y493156D01*
X993852Y493351D01*
X917926D01*
X916952Y494622D01*
X916973Y494730D01*
Y496206D01*
X920494D01*
Y515681D01*
X929640D01*
X930625Y515876D01*
X931460Y516434D01*
X933270Y518244D01*
X933828Y519079D01*
X934024Y520064D01*
Y523901D01*
X934435Y523982D01*
X934620Y524106D01*
X937974D01*
Y531154D01*
X928926D01*
Y525609D01*
X928877Y525360D01*
Y521130D01*
X928574Y520827D01*
X925977D01*
X924872Y521778D01*
Y524106D01*
X926544D01*
Y531154D01*
X917496D01*
Y531154D01*
X916384D01*
Y531154D01*
X907336D01*
Y527875D01*
X906075D01*
X905090Y527680D01*
X904255Y527122D01*
X902193Y525060D01*
X901467Y525146D01*
X900844Y526498D01*
X900882Y526555D01*
X901233Y528320D01*
X901122Y528876D01*
X902104Y530146D01*
X902104D01*
Y539194D01*
X895056D01*
Y533919D01*
X895006Y533670D01*
Y533339D01*
X894374Y532968D01*
X893104Y533696D01*
Y539194D01*
X886056D01*
X885284Y540144D01*
Y540194D01*
X876236D01*
Y537865D01*
X874966Y537187D01*
X874255Y537662D01*
X872490Y538013D01*
X872266Y537968D01*
X871284Y538774D01*
Y540194D01*
X862236D01*
Y529146D01*
X861012Y529034D01*
X859574D01*
Y540154D01*
X848526D01*
Y526832D01*
X847256Y526153D01*
X846645Y526562D01*
X844880Y526913D01*
X844068Y526751D01*
X840574Y530245D01*
Y540154D01*
X829526D01*
Y524106D01*
X839435D01*
X840429Y523112D01*
X840267Y522300D01*
X840619Y520535D01*
X841618Y519038D01*
X842388Y518524D01*
X842003Y517254D01*
X837155D01*
X833208Y521200D01*
X832374Y521758D01*
X831389Y521954D01*
X827787D01*
X827221Y522520D01*
X827221Y522520D01*
X826804Y522938D01*
Y525066D01*
X826770Y525234D01*
Y529590D01*
X817722D01*
X817722Y529590D01*
X816610D01*
Y529590D01*
X816452Y529590D01*
X807562D01*
Y529590D01*
X806450D01*
Y529590D01*
X797402D01*
Y522542D01*
X800186D01*
X800262Y522157D01*
X800820Y521322D01*
X802420Y519722D01*
X803255Y519164D01*
X804240Y518969D01*
X810814D01*
X811132Y518524D01*
X810478Y517254D01*
X810446D01*
Y499053D01*
X809273Y498567D01*
X807994Y499845D01*
Y517254D01*
X797946D01*
Y496206D01*
X804355D01*
X806036Y494525D01*
X805550Y493351D01*
X778919D01*
X777237Y495033D01*
X777723Y496206D01*
X782994D01*
Y517254D01*
X780543D01*
Y522256D01*
X783034D01*
Y529304D01*
X782197D01*
X781447Y530502D01*
X781760Y531154D01*
X781885Y531256D01*
X783034D01*
Y537177D01*
X785416D01*
Y531256D01*
X794464D01*
Y538304D01*
X791244D01*
Y538578D01*
X791048Y539563D01*
X790490Y540398D01*
X789318Y541570D01*
X788483Y542128D01*
X787498Y542323D01*
X775970D01*
X774985Y542128D01*
X774150Y541570D01*
X770340Y537760D01*
X769782Y536925D01*
X769586Y535940D01*
Y534049D01*
X766602Y531065D01*
X766044Y530230D01*
X765848Y529245D01*
Y495225D01*
X766044Y494240D01*
X766602Y493405D01*
X774573Y485434D01*
X775408Y484876D01*
X776393Y484680D01*
X966946D01*
Y461206D01*
X985994D01*
Y484680D01*
X991326D01*
X997563Y478444D01*
X1006811Y469196D01*
X1009063Y466944D01*
X1009039Y466701D01*
X1008039Y465204D01*
X1007688Y463439D01*
X1008023Y461758D01*
X1008014Y461480D01*
X1007484Y460489D01*
X1004207D01*
X1003222Y460293D01*
X1002387Y459735D01*
X998920Y456267D01*
X714613Y456267D01*
X714145Y457537D01*
X716970Y459950D01*
X720192Y463723D01*
X722785Y467954D01*
X724684Y472538D01*
X725842Y477363D01*
X726232Y482310D01*
X725842Y487257D01*
X724684Y492082D01*
X722785Y496666D01*
X720192Y500897D01*
X716970Y504670D01*
X713197Y507892D01*
X708966Y510485D01*
X704382Y512384D01*
X699557Y513542D01*
X694610Y513932D01*
X689663Y513542D01*
X684838Y512384D01*
X680254Y510485D01*
X676023Y507892D01*
X672250Y504670D01*
X669028Y500897D01*
X666435Y496666D01*
X664536Y492082D01*
X663378Y487257D01*
X662989Y482310D01*
X663378Y477363D01*
X664536Y472538D01*
X666435Y467954D01*
X669028Y463723D01*
X672250Y459950D01*
X675076Y457537D01*
X674607Y456267D01*
X594613D01*
X594145Y457537D01*
X596970Y459950D01*
X600192Y463723D01*
X602785Y467954D01*
X604684Y472538D01*
X605842Y477363D01*
X606231Y482310D01*
X605842Y487257D01*
X604684Y492082D01*
X602785Y496666D01*
X600192Y500897D01*
X596970Y504670D01*
X593197Y507892D01*
X588966Y510485D01*
X584382Y512384D01*
X579557Y513542D01*
X574610Y513932D01*
X569663Y513542D01*
X564838Y512384D01*
X560254Y510485D01*
X556023Y507892D01*
X552250Y504670D01*
X549028Y500897D01*
X546435Y496666D01*
X544536Y492082D01*
X543378Y487257D01*
X542989Y482310D01*
X543378Y477363D01*
X544536Y472538D01*
X546435Y467954D01*
X549028Y463723D01*
X552250Y459950D01*
X555075Y457537D01*
X554607Y456267D01*
X487098D01*
X486946Y456466D01*
X485301Y457728D01*
X483386Y458521D01*
X481330Y458792D01*
X479274Y458521D01*
X477359Y457728D01*
X475714Y456466D01*
X475562Y456267D01*
X461698D01*
X461546Y456466D01*
X459901Y457728D01*
X457985Y458521D01*
X455930Y458792D01*
X453875Y458521D01*
X451959Y457728D01*
X450314Y456466D01*
X450162Y456267D01*
X438730D01*
X438730Y546082D01*
X798517D01*
X798902Y544812D01*
X798108Y544282D01*
X797109Y542785D01*
X796757Y541020D01*
X797109Y539255D01*
X797402Y538590D01*
X797402Y538590D01*
X797402Y538590D01*
Y531542D01*
X806292D01*
X806450Y531542D01*
X807562D01*
X807720Y531542D01*
X816452D01*
X816610Y531542D01*
X817722D01*
X817880Y531542D01*
X826770D01*
Y538579D01*
X827222Y539255D01*
X827573Y541020D01*
X827222Y542785D01*
X826222Y544282D01*
X825428Y544812D01*
X825813Y546082D01*
X1021080D01*
Y473970D01*
D02*
G37*
G36*
X868386Y528278D02*
Y519986D01*
X880291D01*
X880817Y518716D01*
X879355Y517254D01*
X872946D01*
Y497345D01*
X870494D01*
Y517254D01*
X860446D01*
Y497345D01*
X857994D01*
Y517254D01*
X853565D01*
X849331Y521488D01*
X849493Y522300D01*
X849386Y522836D01*
X850428Y524106D01*
X855935D01*
X857566Y522474D01*
X858401Y521916D01*
X859386Y521721D01*
Y519986D01*
X866434D01*
Y528278D01*
X867410Y528866D01*
X868386Y528278D01*
D02*
G37*
G36*
X1177960Y457200D02*
X1088320Y457200D01*
X1087834Y458373D01*
X1090437Y460976D01*
X1103226D01*
Y459026D01*
X1110274D01*
Y468074D01*
X1103226D01*
Y466124D01*
X1092260D01*
X1091774Y467297D01*
X1094020Y469543D01*
X1094578Y470378D01*
X1094773Y471363D01*
Y513284D01*
X1101576Y520087D01*
X1133396D01*
Y519136D01*
X1142444D01*
Y526184D01*
X1133396D01*
Y525233D01*
X1100510D01*
X1099525Y525038D01*
X1098690Y524480D01*
X1090380Y516170D01*
X1089822Y515335D01*
X1089626Y514350D01*
Y472429D01*
X1087153Y469955D01*
X1085883Y470482D01*
Y500380D01*
X1085688Y501365D01*
X1085130Y502200D01*
X1084295Y502758D01*
X1083310Y502953D01*
X1078724D01*
Y504904D01*
X1053676D01*
X1052714Y505648D01*
Y507812D01*
X1053676Y508556D01*
X1053984Y508556D01*
X1078724D01*
Y517604D01*
X1053676D01*
Y515544D01*
X1052274D01*
Y516494D01*
X1043384D01*
Y516604D01*
X1034336D01*
Y509556D01*
X1043226D01*
Y509446D01*
X1044173D01*
X1045141Y508654D01*
X1045124Y507512D01*
X1044427Y507046D01*
X1042096Y504716D01*
X1041538Y503881D01*
X1041342Y502896D01*
Y499824D01*
X1035916D01*
Y490776D01*
Y483156D01*
X1042964D01*
Y484291D01*
X1043671Y484679D01*
X1044916Y483963D01*
Y483156D01*
X1051964D01*
Y485107D01*
X1053676D01*
Y483156D01*
X1075085D01*
X1077151Y481090D01*
Y479504D01*
X1053676D01*
Y477553D01*
X1051964D01*
Y479504D01*
X1044916D01*
Y470753D01*
X1043940Y470197D01*
X1042964Y470753D01*
X1042964Y471203D01*
Y479504D01*
X1035916D01*
Y478411D01*
X1034646Y478026D01*
X1034502Y478242D01*
X1033005Y479241D01*
X1031240Y479593D01*
X1029475Y479241D01*
X1027978Y478242D01*
X1026979Y476745D01*
X1026627Y474980D01*
X1026979Y473215D01*
X1027978Y471718D01*
X1028749Y471203D01*
X1028364Y469934D01*
X1022936D01*
X1022580Y470612D01*
X1022579Y470617D01*
X1022572Y470629D01*
X1022350Y471052D01*
Y472942D01*
X1022404Y473072D01*
X1022662Y473391D01*
X1022636Y473633D01*
X1022730Y473859D01*
Y546082D01*
X1177960D01*
X1177960Y457200D01*
D02*
G37*
G36*
X1262380Y403860D02*
X1216660D01*
Y412750D01*
X1262380D01*
Y403860D01*
D02*
G37*
G36*
Y391160D02*
X1216660D01*
Y400050D01*
X1262380D01*
Y391160D01*
D02*
G37*
G36*
Y378460D02*
X1216660D01*
Y387350D01*
X1262380D01*
Y378460D01*
D02*
G37*
G36*
X444483Y362030D02*
X444678Y361045D01*
X445236Y360211D01*
X467891Y337556D01*
X468726Y336998D01*
X469710Y336803D01*
X476138D01*
X476138Y300994D01*
X467364D01*
Y310744D01*
X461716D01*
Y299296D01*
X465666D01*
Y290346D01*
Y280346D01*
Y270346D01*
Y260346D01*
X472407D01*
Y242366D01*
X454849Y224808D01*
X447132D01*
X446747Y226078D01*
X447170Y226360D01*
X450780Y229970D01*
X451338Y230805D01*
X451534Y231790D01*
Y231966D01*
X453484D01*
Y243014D01*
X449261D01*
X448875Y244284D01*
X449032Y244388D01*
X450032Y245885D01*
X450383Y247650D01*
X450032Y249415D01*
X449032Y250912D01*
X447535Y251912D01*
X447413Y251936D01*
Y256020D01*
X447364Y256269D01*
Y262044D01*
X441716D01*
Y250596D01*
X441716Y250596D01*
X441508Y249412D01*
X441157Y247650D01*
X441508Y245885D01*
X442399Y244552D01*
X442387Y244490D01*
Y242366D01*
X441410Y241390D01*
X440852Y240555D01*
X440657Y239570D01*
Y236016D01*
X435394Y230753D01*
X431596D01*
X431244Y231105D01*
Y235244D01*
X413585D01*
X413460Y235346D01*
X413147Y235998D01*
X413897Y237196D01*
X430887D01*
X430887Y237196D01*
Y237196D01*
X432072Y237120D01*
X432467Y237083D01*
X432489Y236977D01*
X432582Y236505D01*
X433140Y235670D01*
X433975Y235112D01*
X434960Y234916D01*
X435945Y235112D01*
X436780Y235670D01*
X437338Y236505D01*
X437533Y237490D01*
Y237570D01*
X437338Y238555D01*
X436780Y239390D01*
X435945Y239948D01*
X434960Y240143D01*
X433975Y239948D01*
X433140Y239390D01*
X432582Y238555D01*
X432542Y238352D01*
X432514Y238211D01*
X431244Y238336D01*
X431244Y238466D01*
Y241471D01*
X431293Y241720D01*
Y244425D01*
X436060Y249191D01*
X436618Y250026D01*
X436731Y250596D01*
X437364D01*
Y262044D01*
X428414D01*
Y270994D01*
X416966D01*
Y270292D01*
X416745Y270248D01*
X415910Y269690D01*
X413470Y267250D01*
X412912Y266415D01*
X412716Y265430D01*
Y257606D01*
X410414Y255303D01*
X404264D01*
Y257254D01*
X397216D01*
Y248206D01*
Y239576D01*
X396240Y239018D01*
X395264Y239576D01*
Y248206D01*
Y257254D01*
X388216D01*
Y253304D01*
X385350D01*
X384365Y253108D01*
X383530Y252550D01*
X380918Y249937D01*
X354218D01*
Y378460D01*
X377427D01*
X378496Y377974D01*
X378496Y377190D01*
Y372409D01*
X378264Y372182D01*
X377226Y371763D01*
X376755Y372078D01*
X375770Y372273D01*
X374785Y372078D01*
X373950Y371520D01*
X373392Y370685D01*
X373196Y369700D01*
X373392Y368715D01*
X373889Y367972D01*
Y359950D01*
X374085Y358965D01*
X374643Y358130D01*
X376607Y356166D01*
Y355412D01*
X376803Y354428D01*
X377361Y353593D01*
X378195Y353035D01*
X379180Y352839D01*
X380165Y353035D01*
X381000Y353593D01*
X381558Y354428D01*
X381754Y355412D01*
Y357232D01*
X381558Y358217D01*
X381000Y359052D01*
X379896Y360156D01*
X380422Y361426D01*
X386122D01*
Y356772D01*
X386317Y355787D01*
X386875Y354952D01*
X387281Y354546D01*
X388116Y353988D01*
X388139Y353983D01*
X388168Y353835D01*
X389168Y352338D01*
X390665Y351339D01*
X392430Y350987D01*
X394195Y351339D01*
X395692Y352338D01*
X396692Y353835D01*
X397043Y355600D01*
X396692Y357365D01*
X395692Y358862D01*
X394195Y359861D01*
X392715Y360156D01*
X392840Y361426D01*
X399044D01*
Y377190D01*
X399044Y377974D01*
X400113Y378460D01*
X444483D01*
Y362030D01*
D02*
G37*
G36*
X1262380Y365760D02*
X1216660D01*
Y374650D01*
X1262380D01*
Y365760D01*
D02*
G37*
G36*
X905546Y350336D02*
X905546D01*
Y350184D01*
X905546D01*
Y343836D01*
X905546D01*
Y343684D01*
X905546D01*
Y337336D01*
X905546D01*
Y337184D01*
X905546D01*
Y330836D01*
X905546D01*
Y330684D01*
X905546D01*
Y324336D01*
X905546D01*
Y324184D01*
X905546D01*
Y317836D01*
X905546Y317836D01*
Y317684D01*
X905546D01*
X905546Y316566D01*
Y312384D01*
X900246D01*
X900246Y312384D01*
X900094D01*
Y312384D01*
X898976Y312384D01*
X893746D01*
X893746Y312384D01*
X893594D01*
Y312384D01*
X892476Y312384D01*
X887246D01*
Y312384D01*
X887094D01*
Y312384D01*
X880746D01*
Y312384D01*
X880594D01*
Y312384D01*
X874246D01*
Y307511D01*
X872976Y307126D01*
X872740Y307480D01*
X871905Y308038D01*
X870920Y308233D01*
X869935Y308038D01*
X869100Y307480D01*
X868864Y307243D01*
X867594Y307769D01*
Y312384D01*
X862294D01*
Y317684D01*
X862294Y317684D01*
Y317836D01*
X862294D01*
X862294Y318954D01*
Y324184D01*
X862294Y324184D01*
Y324336D01*
X862294D01*
X862294Y325454D01*
Y330684D01*
X862294Y330684D01*
Y330836D01*
X862294D01*
X862294Y331954D01*
Y337184D01*
X862294Y337184D01*
Y337336D01*
X862294D01*
X862294Y338454D01*
Y343684D01*
X862294D01*
Y343836D01*
X862294D01*
Y349066D01*
X862294Y350184D01*
X862294D01*
Y350336D01*
X862294D01*
Y355636D01*
X867594Y355636D01*
X868864Y355636D01*
X874094Y355636D01*
X875364Y355636D01*
X880594Y355636D01*
X881864Y355636D01*
X887094D01*
Y355636D01*
X887246D01*
Y355636D01*
X892476D01*
X893594Y355636D01*
Y355636D01*
X893746D01*
Y355636D01*
X898976D01*
X900094Y355636D01*
Y355636D01*
X900246D01*
Y355636D01*
X905546D01*
Y350336D01*
D02*
G37*
G36*
X607836Y351076D02*
X632884D01*
Y353027D01*
X644094D01*
X650207Y346914D01*
Y300658D01*
X649684Y299604D01*
X648936Y299604D01*
X640636D01*
X640114Y300658D01*
Y315076D01*
X648414D01*
Y322624D01*
X639366D01*
Y321423D01*
X632884D01*
Y322024D01*
X607836D01*
Y312976D01*
X632884D01*
Y316277D01*
X634967D01*
Y302680D01*
X633964Y302034D01*
X608416D01*
Y289986D01*
X633964D01*
Y291331D01*
X635234Y292010D01*
X635775Y291649D01*
X637540Y291297D01*
X639305Y291649D01*
X640235Y292270D01*
X640636Y292056D01*
Y292056D01*
X649684Y292056D01*
X650207Y291003D01*
Y272846D01*
X637944Y260583D01*
X633964D01*
Y264034D01*
X633964Y264034D01*
Y264486D01*
X633964D01*
X633964Y265304D01*
Y276534D01*
X608416D01*
Y268125D01*
X607284Y266994D01*
X607075Y266854D01*
X605596Y265375D01*
X605038Y264540D01*
X604843Y263556D01*
Y255270D01*
X580464Y255270D01*
Y264034D01*
X554916D01*
Y260583D01*
X549506D01*
X543560Y266529D01*
Y276686D01*
X544116Y277726D01*
X544830Y277726D01*
X553164D01*
Y278677D01*
X554916D01*
Y277486D01*
X585964D01*
Y289534D01*
X581547D01*
X580464Y289986D01*
X580464Y290804D01*
Y302034D01*
X554916D01*
Y290804D01*
X554916Y289986D01*
X554916Y288716D01*
Y283824D01*
X553164D01*
Y284774D01*
X544830D01*
X543875Y285556D01*
X544450Y286726D01*
X553164D01*
Y293774D01*
X553164D01*
X552654Y295044D01*
X552901Y295415D01*
X553253Y297180D01*
X552901Y298945D01*
X551902Y300442D01*
X550405Y301441D01*
X548640Y301793D01*
X546875Y301441D01*
X545378Y300442D01*
X544830Y299621D01*
X543560Y300006D01*
X543560Y335346D01*
X544282Y335828D01*
X544741Y336516D01*
X546656D01*
Y332336D01*
X555704D01*
Y337161D01*
X555836Y338376D01*
X556337Y338376D01*
X580884D01*
Y347424D01*
X569588D01*
X569540Y347433D01*
X555704D01*
Y348384D01*
X546656D01*
Y341664D01*
X544741D01*
X544282Y342352D01*
X543560Y342834D01*
Y350691D01*
X545896Y353027D01*
X555836D01*
Y351076D01*
X580884D01*
Y359410D01*
X607836D01*
Y351076D01*
D02*
G37*
G36*
X473948Y377404D02*
X473659Y376706D01*
X473388Y374650D01*
X473659Y372594D01*
X474452Y370679D01*
X475714Y369034D01*
X476138Y368709D01*
Y345474D01*
X472236D01*
X458503Y359206D01*
Y367193D01*
X459901Y367772D01*
X461546Y369034D01*
X462808Y370679D01*
X463601Y372594D01*
X463872Y374650D01*
X463601Y376706D01*
X463312Y377404D01*
X464018Y378460D01*
X473242D01*
X473948Y377404D01*
D02*
G37*
G36*
X848846Y343836D02*
X848846D01*
Y343684D01*
X848846D01*
Y341345D01*
X830423Y322921D01*
X818864D01*
Y330839D01*
X817914D01*
Y337106D01*
X818864D01*
Y340326D01*
X825589D01*
X826048Y339638D01*
X827545Y338638D01*
X829310Y338287D01*
X831075Y338638D01*
X832572Y339638D01*
X833571Y341135D01*
X833923Y342900D01*
X833588Y344580D01*
X833597Y344859D01*
X834127Y345850D01*
X848846D01*
Y343836D01*
D02*
G37*
G36*
X785256Y346154D02*
Y337106D01*
X792304D01*
Y339057D01*
X802816D01*
Y337106D01*
X809864D01*
Y342412D01*
X810645Y343045D01*
X811816Y342535D01*
Y337106D01*
X812766D01*
Y330839D01*
X811816D01*
Y322921D01*
X809864D01*
Y330839D01*
X802816D01*
Y328964D01*
X792304D01*
Y330914D01*
X785256D01*
Y321866D01*
X792304D01*
Y322401D01*
X793574Y322927D01*
X797203Y319297D01*
X797210Y317574D01*
X793574Y313937D01*
X792304Y314240D01*
Y315674D01*
X785256D01*
Y306626D01*
X785256D01*
X785146Y305514D01*
X785146D01*
X785146Y305402D01*
Y296466D01*
X792194D01*
Y298417D01*
X793954D01*
X798724Y293646D01*
X799559Y293088D01*
X800544Y292893D01*
X808614D01*
X809100Y291719D01*
X808996Y291615D01*
X808438Y290780D01*
X808338Y290274D01*
X802816D01*
Y288323D01*
X792194D01*
Y290274D01*
X785146D01*
Y281226D01*
X792194D01*
Y283176D01*
X795655D01*
X796334Y281907D01*
X795838Y281165D01*
X795487Y279400D01*
X795838Y277635D01*
X796334Y276894D01*
X795655Y275623D01*
X792304D01*
Y277574D01*
X785256D01*
Y275458D01*
X783986Y275038D01*
X783403Y275428D01*
X782418Y275623D01*
X782243D01*
Y285750D01*
Y300769D01*
X782299Y301045D01*
Y309825D01*
X782194Y310349D01*
X782354Y311150D01*
Y326390D01*
Y341630D01*
X782158Y342615D01*
X781600Y343450D01*
X780765Y344008D01*
X779780Y344203D01*
X779080Y344064D01*
X778351Y345066D01*
X778332Y345112D01*
X779896Y346676D01*
X784202D01*
X785256Y346154D01*
D02*
G37*
G36*
X325120Y289389D02*
X324054Y288323D01*
X297784D01*
Y309294D01*
X293221D01*
X292912Y310564D01*
X293822Y311925D01*
X294173Y313690D01*
X293822Y315455D01*
X292822Y316952D01*
X292715Y317023D01*
X293101Y318293D01*
X306071D01*
X307056Y318488D01*
X307891Y319046D01*
X311418Y322574D01*
X312230Y322412D01*
X313995Y322763D01*
X315492Y323763D01*
X316492Y325260D01*
X316843Y327025D01*
X316795Y327264D01*
X317601Y328246D01*
X321784D01*
Y349294D01*
X306736D01*
Y328246D01*
X306859D01*
X307665Y327264D01*
X307617Y327025D01*
X307779Y326213D01*
X305005Y323439D01*
X282492D01*
X280622Y325309D01*
Y351742D01*
X280670Y351790D01*
X325120D01*
Y289389D01*
D02*
G37*
G36*
X865287Y294701D02*
X865092Y294410D01*
X864897Y293426D01*
Y290606D01*
X864400Y290110D01*
X863842Y289275D01*
X863647Y288290D01*
X863842Y287305D01*
X864400Y286470D01*
X865235Y285912D01*
X866220Y285716D01*
X867376D01*
Y279097D01*
X866344Y278065D01*
X862215D01*
X861720Y278164D01*
X860735Y277968D01*
X859900Y277410D01*
X859342Y276575D01*
X859146Y275590D01*
X859342Y274605D01*
X859900Y273770D01*
X859999Y273672D01*
X860834Y273114D01*
X861818Y272918D01*
X867410D01*
X868395Y273114D01*
X869230Y273672D01*
X871007Y275449D01*
X871781Y276202D01*
X872718Y275434D01*
X874382Y273770D01*
X875196Y273226D01*
Y267566D01*
X886244D01*
Y283614D01*
X881201D01*
X879994Y283766D01*
Y292814D01*
X879994D01*
X879851Y293081D01*
X880562Y294145D01*
X880750Y295095D01*
X882099Y295363D01*
X882100Y295360D01*
X890259Y287201D01*
X891094Y286643D01*
X892079Y286448D01*
X916401D01*
X917386Y286643D01*
X918221Y287201D01*
X924657Y293637D01*
X925830Y293151D01*
X925830Y172720D01*
X882421D01*
X866115Y189026D01*
Y212148D01*
X865920Y213133D01*
X865362Y213968D01*
X857180Y222150D01*
X856345Y222708D01*
X855494Y222877D01*
X855494Y224154D01*
X856452Y224907D01*
X859940D01*
X860925Y225102D01*
X861760Y225660D01*
X870408Y234309D01*
X871220Y234147D01*
X872985Y234499D01*
X874048Y235209D01*
X874316Y235066D01*
Y235066D01*
X879725D01*
X884200Y230590D01*
X885035Y230032D01*
X886020Y229837D01*
X888967D01*
Y228434D01*
X883516D01*
Y217386D01*
X899564D01*
Y228434D01*
X894113D01*
Y231238D01*
X893918Y232223D01*
X893360Y233058D01*
X892188Y234230D01*
X891353Y234788D01*
X890368Y234984D01*
X887086D01*
X883364Y238705D01*
Y242614D01*
X874316D01*
X873793Y243668D01*
Y247650D01*
X873598Y248635D01*
X873040Y249470D01*
X870500Y252010D01*
X869665Y252568D01*
X869084Y252683D01*
Y254714D01*
X862036D01*
Y245666D01*
X868646D01*
Y242481D01*
X867958Y242022D01*
X866958Y240525D01*
X866607Y238760D01*
X866769Y237948D01*
X858874Y230054D01*
X855494D01*
Y230654D01*
X842046D01*
X842046Y224306D01*
X842046Y223036D01*
Y218924D01*
X842046Y217806D01*
X842046D01*
Y217654D01*
X842046D01*
Y212424D01*
X842046Y211306D01*
X842046D01*
Y211154D01*
X842046D01*
Y204806D01*
X842046D01*
Y204654D01*
X842046D01*
Y199354D01*
X836746Y199354D01*
X835476Y199354D01*
X830246Y199354D01*
X828976Y199354D01*
X823746Y199354D01*
X822476Y199354D01*
X817246D01*
X817246Y199354D01*
X817094D01*
Y199354D01*
X815976Y199354D01*
X810746D01*
Y199354D01*
X810594D01*
Y199354D01*
X804246D01*
Y199354D01*
X804094D01*
Y199354D01*
X798794D01*
Y204654D01*
X798794D01*
Y204806D01*
X798794D01*
X798794Y211154D01*
X798794Y212424D01*
X798794Y217654D01*
X798794Y218924D01*
X798794Y224154D01*
X798794Y225424D01*
X798794Y230654D01*
X798794Y231924D01*
Y237154D01*
X798794D01*
Y237306D01*
X798794D01*
Y242606D01*
X804094D01*
Y242606D01*
X804246D01*
Y242606D01*
X809476D01*
X810594Y242606D01*
Y242606D01*
X810746D01*
Y242606D01*
X815976D01*
X817094Y242606D01*
Y242606D01*
X817246D01*
Y242606D01*
X822476D01*
X823594Y242606D01*
Y242606D01*
X823746D01*
Y242606D01*
X828976D01*
X830094Y242606D01*
Y242606D01*
X830246D01*
Y242606D01*
X836594D01*
X836594Y242606D01*
X836746D01*
Y242606D01*
X837864Y242606D01*
X842046D01*
Y237306D01*
X855494D01*
Y243654D01*
X851344D01*
Y247617D01*
X853036D01*
Y245666D01*
X860084D01*
Y254714D01*
X853036D01*
Y252764D01*
X850546D01*
X844584Y258725D01*
Y281885D01*
X846646Y283948D01*
X847657Y283272D01*
X849422Y282921D01*
X851187Y283272D01*
X852683Y284272D01*
X853504Y285501D01*
X857110D01*
X858095Y285697D01*
X858930Y286255D01*
X861610Y288935D01*
X862168Y289769D01*
X862364Y290754D01*
Y293574D01*
X864301Y295511D01*
X865287Y294701D01*
D02*
G37*
G36*
X826720Y369570D02*
X827246Y368300D01*
X818104Y359157D01*
X805704D01*
X804719Y358962D01*
X803884Y358404D01*
X800827Y355347D01*
X777371D01*
X776386Y355152D01*
X775551Y354594D01*
X769802Y348845D01*
X769245Y348010D01*
X769049Y347025D01*
Y269670D01*
X768652Y269273D01*
X760730D01*
X759745Y269078D01*
X759460Y268887D01*
X758190Y269554D01*
X758190Y369570D01*
X826720Y369570D01*
D02*
G37*
G36*
X802926Y268526D02*
X807686D01*
Y260146D01*
X806250Y258710D01*
X805692Y257875D01*
X805497Y256890D01*
Y256101D01*
X804246Y256054D01*
X804094D01*
Y256054D01*
X797746D01*
Y251253D01*
X795348D01*
Y256245D01*
X795153Y257230D01*
X794595Y258065D01*
X793030Y259630D01*
X792195Y260188D01*
X791210Y260383D01*
X784052D01*
X783926Y261653D01*
X784575Y261782D01*
X785410Y262340D01*
X785968Y263175D01*
X786163Y264160D01*
Y268526D01*
X792304D01*
Y270476D01*
X802926D01*
Y268526D01*
D02*
G37*
G36*
X385554Y234376D02*
X386389Y233818D01*
X387374Y233622D01*
X406956D01*
Y228768D01*
X354218D01*
Y237743D01*
X382188D01*
X385554Y234376D01*
D02*
G37*
G36*
X431800Y127603D02*
X383327D01*
X382801Y128873D01*
X386630Y132702D01*
X387188Y133537D01*
X387383Y134522D01*
Y135176D01*
X393584D01*
Y144224D01*
X392834D01*
Y151844D01*
X385786D01*
Y142796D01*
X384875Y141930D01*
X384260Y141520D01*
X382990Y140250D01*
X382432Y139415D01*
X382237Y138430D01*
Y135588D01*
X378763Y132114D01*
X347776D01*
X342934Y136956D01*
Y141851D01*
X344203Y142377D01*
X346015Y140566D01*
X346850Y140008D01*
X347835Y139812D01*
X351246D01*
Y135861D01*
X358994D01*
Y148556D01*
X358994Y148909D01*
X359845Y149826D01*
X363395D01*
X364246Y148909D01*
Y135861D01*
X371994D01*
Y147217D01*
X373167Y147703D01*
X374100Y146770D01*
X374935Y146212D01*
X375920Y146017D01*
X376786D01*
Y142796D01*
X383834D01*
Y151844D01*
X376786D01*
X376786Y151844D01*
Y151844D01*
X375750Y152399D01*
X373930Y154220D01*
X373095Y154778D01*
X372110Y154973D01*
X371994D01*
Y166909D01*
X371994Y166909D01*
X371962Y168179D01*
X372238Y169565D01*
X371886Y171330D01*
X370887Y172827D01*
X370724Y172935D01*
Y181054D01*
X363176D01*
Y172006D01*
X363176Y172006D01*
X363245Y170736D01*
X363012Y169565D01*
X363363Y167800D01*
X364246Y166479D01*
Y154973D01*
X358994D01*
Y166909D01*
X351246D01*
Y153861D01*
X353027D01*
Y153572D01*
X353222Y152587D01*
X353780Y151752D01*
X354952Y150580D01*
X355552Y150179D01*
X355385Y149020D01*
X355341Y148909D01*
X351246D01*
Y144959D01*
X348901D01*
X348013Y145846D01*
Y149862D01*
X347818Y150847D01*
X347260Y151682D01*
X340142Y158800D01*
X339307Y159358D01*
X338684Y159481D01*
Y160104D01*
X327236D01*
Y149456D01*
X336214D01*
X337786Y147884D01*
Y135890D01*
X337141Y135104D01*
X327236D01*
Y126154D01*
X289984D01*
Y135104D01*
X278536D01*
Y134853D01*
X275886D01*
X274902Y134658D01*
X274067Y134100D01*
X270810Y130843D01*
X253723D01*
X252738Y130648D01*
X251903Y130090D01*
X246584Y124770D01*
X232410D01*
Y168876D01*
X252565D01*
X254866Y166575D01*
Y162905D01*
X253596Y161920D01*
X252730Y162093D01*
X250965Y161742D01*
X249468Y160742D01*
X248468Y159245D01*
X248117Y157480D01*
X248468Y155715D01*
X249468Y154218D01*
X250965Y153218D01*
X252730Y152867D01*
X253596Y153040D01*
X254866Y152956D01*
X254866Y152956D01*
X254866Y152956D01*
X258827D01*
X259906Y152494D01*
X259906Y151686D01*
Y143446D01*
X270954D01*
X270954Y143446D01*
Y143446D01*
X272170Y143316D01*
X272555Y143059D01*
X274320Y142707D01*
X276085Y143059D01*
X277463Y143979D01*
X278536Y144456D01*
X289984D01*
Y150104D01*
X278536D01*
X277489Y150643D01*
X276085Y151581D01*
X274320Y151933D01*
X272555Y151581D01*
X272224Y151361D01*
X270954Y152039D01*
Y152494D01*
X270914Y153747D01*
Y159397D01*
X272087Y159883D01*
X276210Y155760D01*
X277045Y155202D01*
X278030Y155007D01*
X278536D01*
Y154456D01*
X289984D01*
Y163406D01*
X298934D01*
Y174854D01*
X298040D01*
X297930Y175019D01*
X295234Y177715D01*
X294399Y178273D01*
X293414Y178468D01*
X287451D01*
X284617Y181303D01*
X285103Y182476D01*
X285194D01*
Y189524D01*
X267256D01*
Y182476D01*
X269340D01*
Y181476D01*
X269424Y181054D01*
X268598Y179784D01*
X263866D01*
Y170736D01*
Y161846D01*
X263866Y153340D01*
X262890Y152786D01*
X261914Y153340D01*
Y161846D01*
Y170736D01*
Y179784D01*
X255303D01*
Y207010D01*
X255108Y207995D01*
X254550Y208830D01*
X252010Y211370D01*
X251175Y211928D01*
X250190Y212124D01*
X232410D01*
Y220980D01*
X252658D01*
X252844Y220045D01*
X253402Y219211D01*
X270476Y202136D01*
Y198524D01*
X267256D01*
Y191476D01*
X285194D01*
Y198524D01*
X283244D01*
Y200881D01*
X283048Y201866D01*
X282490Y202701D01*
X265384Y219807D01*
X265870Y220980D01*
X318484D01*
X318869Y219710D01*
X318048Y219162D01*
X317048Y217665D01*
X316697Y215900D01*
X317048Y214135D01*
X318048Y212638D01*
X319545Y211639D01*
X321310Y211287D01*
X323075Y211639D01*
X324016Y212267D01*
X325286Y211596D01*
Y209146D01*
X325286D01*
Y208684D01*
X325286D01*
Y201964D01*
X322580D01*
X321595Y201768D01*
X320760Y201210D01*
X318114Y198564D01*
X317556Y197729D01*
X317361Y196744D01*
Y184975D01*
X317556Y183990D01*
X318114Y183155D01*
X318293Y182977D01*
Y174854D01*
X318286D01*
Y163406D01*
X328934D01*
Y174059D01*
X329652Y174538D01*
X330652Y176035D01*
X331003Y177800D01*
X330652Y179565D01*
X330430Y179896D01*
X331109Y181166D01*
X331564D01*
Y192214D01*
X332659Y192636D01*
X334836D01*
Y189166D01*
X345884D01*
Y190166D01*
X347196D01*
Y188966D01*
X363744D01*
Y195466D01*
Y201966D01*
Y208466D01*
Y216014D01*
X347196D01*
Y208466D01*
Y201813D01*
X336334D01*
Y208684D01*
X336334D01*
Y209146D01*
X336334D01*
Y220980D01*
X431800D01*
Y127603D01*
D02*
G37*
G36*
X250156Y205944D02*
Y176432D01*
X250352Y175447D01*
X250455Y175294D01*
X249776Y174023D01*
X232410D01*
Y206977D01*
X249124D01*
X250156Y205944D01*
D02*
G37*
G36*
X762528Y239480D02*
X763363Y238922D01*
X764348Y238727D01*
X776174D01*
X782740Y232160D01*
X783575Y231602D01*
X784401Y231438D01*
X784838Y231075D01*
X785346Y230471D01*
X785346Y229536D01*
X785346Y224306D01*
X785346Y223036D01*
X785346Y217806D01*
X785346Y216536D01*
X785346Y211306D01*
X785146Y210119D01*
X784668Y209800D01*
X782526Y207658D01*
X781968Y206823D01*
X781773Y205838D01*
Y193359D01*
X781968Y192374D01*
X782526Y191539D01*
X784827Y189239D01*
Y181879D01*
X775667Y172720D01*
X758190D01*
Y242159D01*
X759363Y242645D01*
X762528Y239480D01*
D02*
G37*
G36*
X1261110Y168275D02*
X1206500D01*
Y177165D01*
X1261110D01*
Y168275D01*
D02*
G37*
G36*
Y156210D02*
X1206500D01*
Y165100D01*
X1261110D01*
Y156210D01*
D02*
G37*
G36*
Y143510D02*
X1206500D01*
Y152400D01*
X1261110D01*
Y143510D01*
D02*
G37*
G36*
Y130810D02*
X1206500D01*
Y139700D01*
X1261110D01*
Y130810D01*
D02*
G37*
G36*
X1176020Y57150D02*
X1129030D01*
Y83820D01*
X1176020D01*
Y57150D01*
D02*
G37*
G36*
X1122680Y101600D02*
X1126490Y97790D01*
Y57150D01*
X1101090D01*
X1101090Y120650D01*
X1122680D01*
X1122680Y101600D01*
D02*
G37*
G36*
X1087120Y57150D02*
X1040130D01*
Y83820D01*
X1087120D01*
Y57150D01*
D02*
G37*
G36*
X1033780Y101600D02*
X1037590Y97790D01*
Y57150D01*
X1012190D01*
X1012190Y120650D01*
X1033780D01*
X1033780Y101600D01*
D02*
G37*
G36*
X772160Y99391D02*
X775970Y95581D01*
Y54941D01*
X750570D01*
X750570Y118441D01*
X772160D01*
X772160Y99391D01*
D02*
G37*
G36*
X999490Y54610D02*
X952500D01*
Y81280D01*
X999490D01*
Y54610D01*
D02*
G37*
G36*
X944880Y99060D02*
X948690Y95250D01*
Y54610D01*
X923290D01*
X923290Y118110D01*
X944880D01*
X944880Y99060D01*
D02*
G37*
G36*
X913130Y54610D02*
X866140D01*
Y81280D01*
X913130D01*
Y54610D01*
D02*
G37*
G36*
X825500D02*
X778510D01*
Y81280D01*
X825500D01*
Y54610D01*
D02*
G37*
G36*
X860064Y98716D02*
X863874Y94906D01*
Y54266D01*
X838474D01*
X838474Y117766D01*
X860064D01*
X860064Y98716D01*
D02*
G37*
G36*
X134006Y86360D02*
Y65676D01*
X144054D01*
Y86360D01*
X159006D01*
Y65676D01*
X169054D01*
Y86360D01*
X184006Y86360D01*
Y65676D01*
X194054D01*
Y86360D01*
X209006D01*
Y65676D01*
X219054D01*
Y86360D01*
X234006D01*
Y65676D01*
X244054D01*
Y86360D01*
X259006D01*
Y65676D01*
X269054D01*
Y86360D01*
X326390Y86360D01*
D01*
X365146D01*
Y65676D01*
X375194D01*
Y86360D01*
X390146Y86360D01*
Y65676D01*
X400194D01*
Y86360D01*
X415146D01*
Y65676D01*
X425194D01*
Y86360D01*
X440146D01*
Y65676D01*
X450194D01*
Y86360D01*
X465146D01*
Y65676D01*
X475194D01*
Y86360D01*
X490146D01*
Y65676D01*
X500194D01*
Y86360D01*
X508000D01*
X508000Y41910D01*
X343694Y41910D01*
Y55724D01*
X324646D01*
Y41910D01*
D01*
X297054D01*
D01*
Y55724D01*
X278006D01*
Y41910D01*
D01*
X271780D01*
Y41910D01*
X118110Y41910D01*
Y86360D01*
X134006D01*
D02*
G37*
%LPC*%
G36*
X937974Y540154D02*
X928926D01*
Y533106D01*
X937974D01*
Y540154D01*
D02*
G37*
G36*
X917496Y540154D02*
X916384D01*
X916226Y540154D01*
X907336D01*
Y533106D01*
X916226D01*
X916384Y533106D01*
X917496D01*
X917654Y533106D01*
X926544D01*
Y540154D01*
X917654D01*
X917496Y540154D01*
D02*
G37*
G36*
X481330Y534992D02*
X479274Y534721D01*
X477359Y533928D01*
X475714Y532666D01*
X474452Y531021D01*
X473659Y529105D01*
X473388Y527050D01*
X473659Y524995D01*
X474452Y523079D01*
X475714Y521434D01*
X477359Y520172D01*
X479274Y519379D01*
X481330Y519108D01*
X483386Y519379D01*
X485301Y520172D01*
X486946Y521434D01*
X488208Y523079D01*
X489001Y524995D01*
X489272Y527050D01*
X489001Y529105D01*
X488208Y531021D01*
X486946Y532666D01*
X485301Y533928D01*
X483386Y534721D01*
X481330Y534992D01*
D02*
G37*
G36*
X794464Y529304D02*
X785416D01*
Y522256D01*
X787896D01*
Y517254D01*
X785446D01*
Y496206D01*
X795494D01*
Y517254D01*
X793043D01*
Y522256D01*
X794464D01*
Y529304D01*
D02*
G37*
G36*
X481330Y509592D02*
X479274Y509321D01*
X477359Y508528D01*
X475714Y507266D01*
X474452Y505621D01*
X473659Y503705D01*
X473388Y501650D01*
X473659Y499594D01*
X474452Y497679D01*
X475714Y496034D01*
X477359Y494772D01*
X479274Y493979D01*
X481330Y493708D01*
X483386Y493979D01*
X485301Y494772D01*
X486946Y496034D01*
X488208Y497679D01*
X489001Y499594D01*
X489272Y501650D01*
X489001Y503705D01*
X488208Y505621D01*
X486946Y507266D01*
X485301Y508528D01*
X483386Y509321D01*
X481330Y509592D01*
D02*
G37*
G36*
Y484192D02*
X479274Y483921D01*
X477359Y483128D01*
X475714Y481866D01*
X474452Y480221D01*
X473659Y478306D01*
X473388Y476250D01*
X473659Y474194D01*
X474452Y472279D01*
X475714Y470634D01*
X477359Y469372D01*
X479274Y468579D01*
X481330Y468308D01*
X483386Y468579D01*
X485301Y469372D01*
X486946Y470634D01*
X488208Y472279D01*
X489001Y474194D01*
X489272Y476250D01*
X489001Y478306D01*
X488208Y480221D01*
X486946Y481866D01*
X485301Y483128D01*
X483386Y483921D01*
X481330Y484192D01*
D02*
G37*
G36*
X763994Y486254D02*
X744946D01*
Y461206D01*
X763994D01*
Y486254D01*
D02*
G37*
G36*
X1043384Y525604D02*
X1034336D01*
Y518556D01*
X1043384D01*
Y525604D01*
D02*
G37*
G36*
X1130724Y517604D02*
X1105676D01*
Y508556D01*
X1130724D01*
Y511087D01*
X1133396D01*
Y510136D01*
X1142444D01*
Y517184D01*
X1133396D01*
Y516233D01*
X1130724D01*
Y517604D01*
D02*
G37*
G36*
X1134666Y492804D02*
X1133396Y492182D01*
X1132840Y492293D01*
X1131994Y492124D01*
X1130724Y492204D01*
X1130724Y492204D01*
X1130724Y492204D01*
X1105676D01*
Y483156D01*
X1130724D01*
X1130724Y483156D01*
Y483156D01*
X1131994Y483236D01*
X1132840Y483067D01*
X1134605Y483419D01*
X1135347Y483914D01*
X1136617Y483235D01*
Y482600D01*
X1136812Y481615D01*
X1137370Y480780D01*
X1139910Y478240D01*
X1140745Y477682D01*
X1141730Y477486D01*
X1149350D01*
X1150335Y477682D01*
X1151170Y478240D01*
X1152440Y479510D01*
X1152951Y480276D01*
X1159914D01*
Y491324D01*
X1143866D01*
X1143714Y492531D01*
Y492804D01*
X1134666D01*
Y492804D01*
D02*
G37*
G36*
X1130724Y479504D02*
X1105676D01*
Y470456D01*
X1118837D01*
Y468074D01*
X1112226D01*
Y459026D01*
X1119274D01*
Y460976D01*
X1120238D01*
X1121223Y461172D01*
X1122058Y461730D01*
X1123230Y462902D01*
X1123788Y463737D01*
X1123984Y464722D01*
Y470456D01*
X1130724D01*
Y479504D01*
D02*
G37*
G36*
X441674Y349734D02*
X433926D01*
Y341464D01*
X432752Y340978D01*
X431160Y342570D01*
X430325Y343128D01*
X429340Y343324D01*
X428674D01*
Y349734D01*
X420925D01*
Y336687D01*
X419698Y336584D01*
X416560D01*
X415575Y336388D01*
X414740Y335830D01*
X414224Y335313D01*
X414020D01*
X413035Y335118D01*
X412200Y334560D01*
X411642Y333725D01*
X411446Y332740D01*
X411642Y331755D01*
X412200Y330920D01*
X413035Y330362D01*
X414020Y330167D01*
X415290D01*
X416275Y330362D01*
X417110Y330920D01*
X417626Y331437D01*
X420925D01*
Y318687D01*
X423726D01*
X423772Y318456D01*
X424330Y317621D01*
X428811Y313140D01*
X429646Y312582D01*
X430630Y312386D01*
X431967D01*
Y310744D01*
X431716D01*
Y299296D01*
X442364D01*
Y307105D01*
X442536Y307276D01*
X443094Y308111D01*
X443289Y309096D01*
Y309200D01*
X447747Y313657D01*
X449580D01*
X450565Y313852D01*
X451400Y314410D01*
X451958Y315245D01*
X452154Y316230D01*
Y316346D01*
X455374D01*
Y317096D01*
X464264D01*
Y324144D01*
X455216D01*
Y323894D01*
X446326D01*
Y318733D01*
X445696Y318608D01*
X444861Y318050D01*
X438896Y312085D01*
X438383Y311318D01*
X438289Y311302D01*
X437113Y311852D01*
Y313788D01*
X436918Y314773D01*
X436360Y315608D01*
X435188Y316780D01*
X434627Y317155D01*
X434357Y317335D01*
X434324Y317418D01*
X435161Y318687D01*
X441674D01*
Y328095D01*
X446285Y332706D01*
X455216D01*
Y326096D01*
X464264D01*
Y333144D01*
X462233D01*
X462118Y333725D01*
X461560Y334560D01*
X459020Y337100D01*
X458185Y337658D01*
X457200Y337854D01*
X448646D01*
X448261Y339123D01*
X449032Y339638D01*
X450032Y341135D01*
X450383Y342900D01*
X450032Y344665D01*
X449032Y346162D01*
X447535Y347161D01*
X445770Y347513D01*
X444005Y347161D01*
X442943Y346452D01*
X441674Y347024D01*
Y349734D01*
D02*
G37*
G36*
X399044Y338474D02*
X371996D01*
Y335313D01*
X364392D01*
X363407Y335118D01*
X362572Y334560D01*
X361400Y333388D01*
X360842Y332553D01*
X360647Y331568D01*
Y331534D01*
X357696D01*
Y322486D01*
X368744D01*
Y330167D01*
X371996D01*
Y321926D01*
X374954D01*
X376136Y321714D01*
Y305854D01*
X375516D01*
Y294806D01*
X380966D01*
Y293370D01*
X381162Y292385D01*
X381720Y291550D01*
X383434Y289836D01*
X384269Y289278D01*
X385254Y289083D01*
X386465D01*
X386628Y288838D01*
X388125Y287838D01*
X389890Y287487D01*
X391655Y287838D01*
X393152Y288838D01*
X393315Y289083D01*
X413768D01*
X414753Y289278D01*
X415588Y289836D01*
X415814Y290062D01*
X416966Y290346D01*
X416966Y290346D01*
Y290346D01*
X416966Y290346D01*
X428414D01*
Y300994D01*
X416966D01*
Y300443D01*
X414739D01*
X413245Y301441D01*
X411480Y301793D01*
X409715Y301441D01*
X409384Y301220D01*
X408114Y301899D01*
Y302354D01*
X397066D01*
Y294230D01*
X393908D01*
X393152Y295362D01*
X391655Y296362D01*
X391564Y296380D01*
Y303081D01*
X391614Y303330D01*
Y312040D01*
X391418Y313025D01*
X390860Y313860D01*
X389210Y315510D01*
X388375Y316068D01*
X387390Y316264D01*
X387184D01*
Y321714D01*
X388366Y321926D01*
X399044D01*
Y338474D01*
D02*
G37*
G36*
X428414Y285994D02*
X416966D01*
Y280744D01*
X415490D01*
X414505Y280548D01*
X414305Y280414D01*
X413245Y281122D01*
X411480Y281473D01*
X409715Y281122D01*
X409340Y280871D01*
X408114Y280764D01*
X408114Y280764D01*
X408114Y280764D01*
X397066D01*
Y271716D01*
X408114D01*
Y272141D01*
X409384Y272819D01*
X409715Y272598D01*
X411480Y272247D01*
X413245Y272598D01*
X414742Y273598D01*
X415734Y275083D01*
X416966Y275346D01*
Y275346D01*
X416966Y275346D01*
X428414D01*
Y280346D01*
Y285994D01*
D02*
G37*
G36*
X632884Y347424D02*
X607836D01*
Y338376D01*
X632884D01*
Y347424D01*
D02*
G37*
G36*
Y334724D02*
X607836D01*
Y325676D01*
X632884D01*
Y334724D01*
D02*
G37*
G36*
X555704Y322624D02*
X546656D01*
Y315076D01*
X555704D01*
X555836Y313861D01*
Y312976D01*
X580884D01*
Y322024D01*
X555836D01*
X555704Y322624D01*
D02*
G37*
G36*
X890368Y251493D02*
X878920D01*
X877935Y251298D01*
X877100Y250740D01*
X877020Y250660D01*
X876462Y249825D01*
X876266Y248840D01*
X876462Y247855D01*
X877020Y247020D01*
X877855Y246462D01*
X878840Y246266D01*
X879242Y246346D01*
X888967D01*
Y241910D01*
X889162Y240925D01*
X889720Y240090D01*
X890555Y239532D01*
X891540Y239337D01*
X892525Y239532D01*
X893360Y240090D01*
X893918Y240925D01*
X894113Y241910D01*
Y247748D01*
X893918Y248733D01*
X893360Y249568D01*
X892188Y250740D01*
X891353Y251298D01*
X890368Y251493D01*
D02*
G37*
G36*
X403244Y216014D02*
X386696D01*
Y208466D01*
Y201966D01*
Y195466D01*
X403244D01*
Y200880D01*
X404514Y201559D01*
X404635Y201479D01*
X406400Y201127D01*
X408165Y201479D01*
X408536Y201726D01*
X409806Y201047D01*
Y199556D01*
X425854D01*
Y210604D01*
X409806D01*
Y210433D01*
X408536Y209754D01*
X408165Y210002D01*
X406400Y210353D01*
X404635Y210002D01*
X404364Y209821D01*
X403244Y210419D01*
Y216014D01*
D02*
G37*
G36*
X309974Y192214D02*
X300926D01*
Y181166D01*
X301351D01*
X302029Y179896D01*
X301808Y179565D01*
X301457Y177800D01*
X301808Y176035D01*
X302808Y174538D01*
X303286Y174219D01*
Y163406D01*
X313934D01*
Y174854D01*
X310890D01*
X310363Y175840D01*
X310349Y176124D01*
X310683Y177800D01*
X310331Y179565D01*
X310081Y179940D01*
X309974Y181166D01*
X309974Y181166D01*
X309974Y181166D01*
Y192214D01*
D02*
G37*
%LPD*%
D12*
X1137237Y363903D02*
X1152765D01*
X1157253Y368391D01*
Y372812D01*
X1158018Y373577D01*
X1120457Y347123D02*
X1137237Y363903D01*
X1118997Y350647D02*
X1137920Y369570D01*
X1150620D01*
X1069181Y354171D02*
X1076960Y361950D01*
X948753Y354171D02*
X1069181D01*
X950213Y357695D02*
X1043495D01*
X1046480Y360680D01*
X1130826Y295910D02*
X1134110D01*
X1126760Y299976D02*
X1130826Y295910D01*
X1118426Y190056D02*
X1123220Y194850D01*
Y198970D01*
X1124220Y199970D01*
X1120701Y298223D02*
X1131904Y287020D01*
X1134110D01*
X1120701Y298223D02*
Y301551D01*
X1123332Y304182D01*
X1113790Y298081D02*
Y309784D01*
Y298081D02*
X1131645Y280226D01*
X1107931Y297959D02*
X1124208Y281682D01*
X1107931Y297959D02*
Y310659D01*
X1104407Y296210D02*
Y307833D01*
Y296210D02*
X1142714Y257903D01*
X1100883Y294751D02*
X1139190Y256444D01*
X1100883Y294751D02*
Y305007D01*
X1083438Y322452D02*
X1100883Y305007D01*
X1080612Y318928D02*
X1097359Y302181D01*
Y293291D02*
Y302181D01*
Y293291D02*
X1135380Y255270D01*
X1078516Y315404D02*
X1093835Y300085D01*
Y291831D02*
Y300085D01*
Y291831D02*
X1098708Y286958D01*
Y244884D02*
Y286958D01*
X1076230Y311880D02*
X1090311Y297799D01*
Y290372D02*
Y297799D01*
Y290372D02*
X1095184Y285499D01*
Y260602D02*
Y285499D01*
X1089090Y329500D02*
X1107931Y310659D01*
X1090550Y333024D02*
X1113790Y309784D01*
X932052Y322452D02*
X1083438D01*
X936244Y318928D02*
X1080612D01*
X1139190Y188500D02*
Y256444D01*
X1082545Y228721D02*
X1082665Y228600D01*
X1082545Y228721D02*
X1098708Y244884D01*
X937704Y315404D02*
X1078516D01*
X927480Y333024D02*
X1090550D01*
X1124208Y281393D02*
X1145153Y260448D01*
X1086264Y325976D02*
X1104407Y307833D01*
X1135380Y187040D02*
Y255270D01*
X1086042Y251460D02*
X1095184Y260602D01*
X1124208Y281393D02*
Y281682D01*
X1142714Y255556D02*
Y257903D01*
X385254Y291656D02*
X413768D01*
X1127615Y319107D02*
X1134110Y312612D01*
Y303530D02*
Y312612D01*
X1118171Y343599D02*
X1151604Y310166D01*
Y300006D02*
Y310166D01*
Y300006D02*
X1156970Y294640D01*
X1160780D01*
X1155844Y286780D02*
X1160828D01*
X1148080Y294544D02*
X1155844Y286780D01*
X1148080Y294544D02*
Y308609D01*
X1144270Y293370D02*
X1156970Y280670D01*
X1144270Y293370D02*
Y307436D01*
X1115158Y336548D02*
X1144270Y307436D01*
X925828Y336548D02*
X1115158D01*
X1116615Y340074D02*
X1148080Y308609D01*
X1151664Y275532D02*
X1169670Y257526D01*
X1151664Y275532D02*
Y279054D01*
X1150492Y280226D02*
X1151664Y279054D01*
X1131645Y280226D02*
X1150492D01*
X943389Y347123D02*
X1120457D01*
X947294Y350647D02*
X1118997D01*
X1127568Y173990D02*
X1136650D01*
X1118426Y183132D02*
X1127568Y173990D01*
X1118426Y183132D02*
Y190056D01*
X1145153Y260448D02*
X1161764D01*
X1169670Y242570D02*
Y257526D01*
X1131570Y193040D02*
Y237490D01*
X1123950Y185420D02*
X1131570Y193040D01*
X1125220Y256540D02*
X1131570Y250190D01*
X1124568Y304182D02*
X1127433Y307047D01*
X1127467D01*
X1128837Y308417D01*
Y310073D01*
X1161764Y260448D02*
X1164590Y257622D01*
Y250190D02*
Y257622D01*
X1123332Y304182D02*
X1124568D01*
X1142714Y255556D02*
X1147493Y250777D01*
X1078230Y251460D02*
X1086042D01*
X1243458Y175120D02*
X1245958Y172620D01*
X1251458D01*
X156520Y537210D02*
X156790Y537480D01*
X163250Y324610D02*
X163630Y324230D01*
X822960Y535780D02*
Y541020D01*
X822246Y535066D02*
X822960Y535780D01*
X811530Y535622D02*
Y541020D01*
Y535622D02*
X812086Y535066D01*
X801370Y535622D02*
Y541020D01*
Y535622D02*
X801926Y535066D01*
X815470Y506730D02*
Y518698D01*
X812626Y521542D02*
X815470Y518698D01*
X804240Y521542D02*
X812626D01*
X825402Y520700D02*
Y520700D01*
Y520700D02*
X826721Y519381D01*
X831389D01*
X840740Y510029D01*
Y507000D02*
Y510029D01*
X813086Y526066D02*
X827446Y511706D01*
X827446D01*
X827970Y512230D01*
X768422Y495225D02*
X776393Y487254D01*
X1078752Y457915D02*
X1092200Y471363D01*
X1004207Y457915D02*
X1078752D01*
X986538Y440246D02*
X1004207Y457915D01*
X1016826Y467360D02*
X1076150D01*
X1079724Y470934D01*
X1016826Y467360D02*
X1018318Y468852D01*
X1012412Y463328D02*
X1077101D01*
X1012301Y463439D02*
X1012412Y463328D01*
X1077101D02*
X1083310Y469537D01*
X1012301Y463439D02*
Y467345D01*
X1008631Y471016D02*
X1012301Y467345D01*
X999382Y480264D02*
X1008631Y471016D01*
X1015556Y469074D02*
X1018096D01*
X993852Y490778D02*
X1015556Y469074D01*
X992392Y487254D02*
X999382Y480264D01*
X776393Y487254D02*
X992392D01*
X777852Y490778D02*
X993852D01*
X771946Y496684D02*
X777852Y490778D01*
X768422Y495225D02*
Y529245D01*
X772160Y532983D01*
Y535940D01*
X771946Y496684D02*
Y527785D01*
X772160Y535940D02*
X775970Y539750D01*
X787498D01*
X788670Y538578D01*
Y535780D02*
Y538578D01*
Y535780D02*
X789670Y534780D01*
X789940D01*
X1066200Y487680D02*
X1074200D01*
X1048440D02*
X1066200D01*
X924974Y411009D02*
Y429358D01*
X928498Y409550D02*
Y427898D01*
X932022Y408090D02*
Y424022D01*
X935546Y406630D02*
Y422562D01*
X939070Y417830D02*
X942468Y421228D01*
X939070Y405171D02*
Y417830D01*
X771946Y527785D02*
X774464Y530304D01*
X777338D01*
X778510Y531476D01*
Y534780D01*
X1079724Y470934D02*
Y482156D01*
X1074200Y487680D02*
X1079724Y482156D01*
X1005524Y454248D02*
X1080069D01*
X1004570Y448310D02*
X1019810D01*
X1003300Y441960D02*
X1014730D01*
X987998Y436722D02*
X1005524Y454248D01*
X988060Y431800D02*
X1004570Y448310D01*
X1083310Y469537D02*
Y500380D01*
X469900Y99314D02*
Y106680D01*
X445770Y99822D02*
Y105410D01*
X420370Y99568D02*
Y105410D01*
X238760Y100004D02*
Y105410D01*
X214630Y100512D02*
Y105410D01*
X394970Y99314D02*
Y105410D01*
X189230Y100258D02*
Y105410D01*
X163830Y100004D02*
Y105410D01*
X844880Y522300D02*
X852970Y514210D01*
Y506730D02*
Y514210D01*
Y494772D02*
Y506730D01*
Y494772D02*
X912388D01*
X871910Y524510D02*
Y533498D01*
X872008Y533400D02*
X872490D01*
X871910Y533498D02*
X872008Y533400D01*
X835050Y532130D02*
X844880Y522300D01*
X809428Y494772D02*
X852970D01*
X802970Y501230D02*
X809428Y494772D01*
X912430Y494730D02*
X914400D01*
X912388Y494772D02*
X912430Y494730D01*
X914400D02*
Y505660D01*
X915470Y506730D01*
X802970Y501230D02*
Y506730D01*
X859386Y524294D02*
X862694D01*
X862910Y524510D01*
X854050Y529630D02*
X859386Y524294D01*
X854050Y529630D02*
Y532130D01*
X871910Y524510D02*
X877650D01*
X880760Y534670D02*
X889580D01*
X897580Y533670D02*
X898580Y534670D01*
X897580Y530362D02*
Y533670D01*
X896620Y529402D02*
X897580Y530362D01*
X896620Y528320D02*
Y529402D01*
X891683Y518426D02*
X895226Y521970D01*
X902743D02*
X906075Y525302D01*
X904010Y518254D02*
X907534Y521778D01*
X896494Y518254D02*
X904010D01*
X890470Y512230D02*
X896494Y518254D01*
X895226Y521970D02*
X902743D01*
X895538Y528320D02*
X896620D01*
X893728Y526510D02*
X895538Y528320D01*
X888900Y526510D02*
X893728D01*
X887650Y525260D02*
X888900Y526510D01*
X887650Y524510D02*
Y525260D01*
X906075Y525302D02*
X909532D01*
X911860Y527630D01*
X922298Y521778D02*
Y526360D01*
X907534Y521778D02*
X922298D01*
X884166Y518426D02*
X891683D01*
X877970Y512230D02*
X884166Y518426D01*
X877970Y506730D02*
Y512230D01*
X812086Y526066D02*
X813086D01*
X802640Y523142D02*
X804240Y521542D01*
X802640Y523142D02*
Y525352D01*
X801926Y526066D02*
X802640Y525352D01*
X827970Y506730D02*
Y512230D01*
X840470Y506730D02*
X840740Y507000D01*
X824230Y521872D02*
X825402Y520700D01*
X824230Y521872D02*
Y525066D01*
X823230Y526066D02*
X824230Y525066D01*
X822246Y526066D02*
X823230D01*
X890470Y506730D02*
Y512230D01*
X929640Y518254D02*
X931450Y520064D01*
Y525360D01*
X932450Y526360D01*
X933450D01*
X908994Y518254D02*
X929640D01*
X902970Y512230D02*
X908994Y518254D01*
X902970Y506730D02*
Y512230D01*
X789940Y525780D02*
X790470Y525250D01*
Y506730D02*
Y525250D01*
X777970Y525240D02*
X778510Y525780D01*
X777970Y506730D02*
Y525240D01*
X868776Y295814D02*
Y296896D01*
Y294732D02*
Y295814D01*
X930878Y440246D02*
X986538D01*
X921450Y430818D02*
X930878Y440246D01*
X932338Y436722D02*
X987998D01*
X924974Y429358D02*
X932338Y436722D01*
X932400Y431800D02*
X988060D01*
X928498Y427898D02*
X932400Y431800D01*
X1029937Y449580D02*
X1031240Y448276D01*
Y367030D02*
Y448276D01*
X1066200Y500380D02*
X1083310D01*
X989616Y428276D02*
X1003300Y441960D01*
X936276Y428276D02*
X989616D01*
X932022Y424022D02*
X936276Y428276D01*
X999680Y433356D02*
X1014444D01*
X991076Y424752D02*
X999680Y433356D01*
X343026Y288702D02*
X346424Y292100D01*
X343026Y283721D02*
Y288702D01*
X342042Y282737D02*
X343026Y283721D01*
X342042Y282641D02*
Y282737D01*
X341693Y282292D02*
X342042Y282641D01*
X339502Y294734D02*
X345122Y300355D01*
X339502Y285181D02*
Y294734D01*
X338518Y284197D02*
X339502Y285181D01*
X338518Y284101D02*
Y284197D01*
X338169Y283752D02*
X338518Y284101D01*
X335978Y299023D02*
X341630Y304675D01*
X335978Y286641D02*
Y299023D01*
X334994Y285657D02*
X335978Y286641D01*
X334994Y285560D02*
Y285657D01*
X334645Y285211D02*
X334994Y285560D01*
X332454Y288100D02*
Y314674D01*
X331470Y287116D02*
X332454Y288100D01*
X331470Y287020D02*
Y287116D01*
X326390Y281940D02*
X331470Y287020D01*
X283537Y281940D02*
X326390D01*
X277708Y287769D02*
X283537Y281940D01*
X277708Y287769D02*
Y296332D01*
X274660Y299380D02*
X277708Y296332D01*
X265010Y299380D02*
X274660D01*
X264160Y300230D02*
X265010Y299380D01*
X328930Y377190D02*
X340360Y388620D01*
X328930Y289560D02*
Y377190D01*
X325120Y285750D02*
X328930Y289560D01*
X415282Y293170D02*
X422690D01*
X413768Y291656D02*
X415282Y293170D01*
X341630Y304675D02*
Y308610D01*
X346424Y292100D02*
X346710D01*
X284711Y285750D02*
X325120D01*
X500380Y231622D02*
Y293370D01*
X496856Y233081D02*
Y289274D01*
X493332Y234541D02*
Y285750D01*
X489808Y236001D02*
Y280670D01*
X457040Y203233D02*
X489808Y236001D01*
X486284Y237460D02*
Y275590D01*
X453516Y204692D02*
X486284Y237460D01*
X482600Y238760D02*
Y270510D01*
X449992Y206152D02*
X482600Y238760D01*
X479076Y240220D02*
Y265144D01*
X467456Y228600D02*
X479076Y240220D01*
X464946Y201171D02*
X496856Y233081D01*
X460850Y202059D02*
X493332Y234541D01*
X474980Y241300D02*
Y261600D01*
X441960Y208280D02*
X474980Y241300D01*
X483704Y278170D02*
X486284Y275590D01*
X471390Y278170D02*
X483704D01*
X487308Y283170D02*
X489808Y280670D01*
X471390Y283170D02*
X487308D01*
X490912Y288170D02*
X493332Y285750D01*
X471390Y288170D02*
X490912D01*
X492960Y293170D02*
X496856Y289274D01*
X471390Y293170D02*
X492960D01*
X468470Y199712D02*
X500380Y231622D01*
X495580Y298170D02*
X500380Y293370D01*
X471390Y298170D02*
X495580D01*
X467360Y228600D02*
X467456D01*
X476350Y267870D02*
X479076Y265144D01*
X445770Y207010D02*
X467360Y228600D01*
X479940Y273170D02*
X482600Y270510D01*
X471390Y273170D02*
X479940D01*
X570725Y244291D02*
Y254975D01*
X562699Y238768D02*
X576572D01*
X548440Y258010D02*
X567690D01*
X576580Y238760D02*
X607416D01*
X567690Y258010D02*
X570725Y254975D01*
X531972Y269494D02*
X562699Y238768D01*
X576572D02*
X576580Y238760D01*
X645160Y355600D02*
X652780Y347980D01*
X620360Y355600D02*
X645160D01*
X270780Y195000D02*
X273050Y197270D01*
X447056Y362030D02*
X469710Y339376D01*
X527876D02*
X531972Y335280D01*
X469710Y339376D02*
X527876D01*
X607416Y238760D02*
Y263556D01*
Y199034D02*
Y238760D01*
X531972Y269494D02*
Y335280D01*
X867470Y293426D02*
X868776Y294732D01*
X867470Y289540D02*
Y293426D01*
X866220Y288290D02*
X867470Y289540D01*
X868776Y296896D02*
X870270Y298390D01*
Y305010D01*
X870920Y305660D01*
X471170Y342900D02*
X535496D01*
Y346266D01*
X544830Y355600D01*
X541020Y339090D02*
X551180D01*
X447056Y362030D02*
Y380438D01*
X455930Y389311D01*
Y400050D01*
Y358140D02*
X471170Y342900D01*
X455930Y358140D02*
Y374650D01*
X253632Y175530D02*
X258390D01*
X535496Y270954D02*
Y341630D01*
X848882Y288074D02*
X857110D01*
X842010Y282950D02*
X848008Y288948D01*
X798830Y379730D02*
X829310D01*
X830580Y367994D02*
Y378460D01*
X829310Y379730D02*
X830580Y378460D01*
X831332Y383540D02*
X834390Y380482D01*
X824230Y383540D02*
X831332D01*
X469455Y415242D02*
X469503Y415290D01*
X688827Y411718D02*
X688875Y411766D01*
X921450Y412469D02*
Y430818D01*
X913699Y404718D02*
X921450Y412469D01*
X915159Y401194D02*
X924974Y411009D01*
X916458Y397510D02*
X928498Y409550D01*
X917918Y393986D02*
X932022Y408090D01*
X919378Y390462D02*
X935546Y406630D01*
X920837Y386938D02*
X939070Y405171D01*
X935546Y422562D02*
X937736Y424752D01*
X991076D01*
X835660Y364934D02*
X841986D01*
X834390D02*
X835660D01*
X834390Y365020D02*
Y380482D01*
Y364934D02*
Y365020D01*
X835574D01*
X832590D02*
X834390D01*
X819170Y356584D02*
X830580Y367994D01*
X835574Y365020D02*
X835660Y364934D01*
X805704Y356584D02*
X819170D01*
X801893Y352774D02*
X805704Y356584D01*
X777371Y352774D02*
X801893D01*
X771622Y347025D02*
X777371Y352774D01*
X771622Y268604D02*
Y347025D01*
X784560Y233980D02*
X792070D01*
X777240Y241300D02*
X784560Y233980D01*
X764348Y241300D02*
X777240D01*
X756920Y248728D02*
X764348Y241300D01*
X756920Y248728D02*
Y262890D01*
X769718Y266700D02*
X771622Y268604D01*
X760730Y266700D02*
X769718D01*
X756920Y262890D02*
X760730Y266700D01*
X829310Y295910D02*
X829754Y296354D01*
Y305613D01*
X849324Y325184D01*
X849694D01*
X852020Y327510D01*
X855570D01*
X834834Y289560D02*
Y304193D01*
X851650Y340510D02*
X855570D01*
X831488Y320348D02*
X851650Y340510D01*
X799792Y320348D02*
X831488D01*
X834464Y316824D02*
X851650Y334010D01*
X855570D01*
X800100Y316824D02*
X834464D01*
X859790Y290754D02*
Y294640D01*
X857110Y288074D02*
X859790Y290754D01*
X848882Y288074D02*
X849422Y287534D01*
X843935Y302015D02*
Y302875D01*
X840606Y298685D02*
X843935Y302015D01*
X840606Y287520D02*
Y298685D01*
X838486Y285400D02*
X840606Y287520D01*
X838486Y256200D02*
Y285400D01*
Y256200D02*
X839270Y255416D01*
Y249980D02*
Y255416D01*
Y249980D02*
X839920Y249330D01*
X833420D02*
Y288146D01*
X834834Y289560D01*
X829310Y256540D02*
Y295910D01*
X826920Y254150D02*
X829310Y256540D01*
X826920Y249330D02*
Y254150D01*
X843935Y302875D02*
X849670Y308610D01*
X819177Y295466D02*
X823944Y290699D01*
Y258290D02*
Y290699D01*
X820420Y254766D02*
X823944Y258290D01*
X818385Y291274D02*
X820420Y289240D01*
Y259750D02*
Y289240D01*
X813920Y253249D02*
X820420Y259750D01*
X812294Y291274D02*
X818385D01*
X842010Y257659D02*
Y282950D01*
X824230Y306070D02*
Y306168D01*
X823670Y305510D02*
X824230Y306070D01*
X800544Y295466D02*
X819177D01*
X820629Y353060D02*
X832590Y365020D01*
X807720Y353060D02*
X820629D01*
X803910Y349250D02*
X807720Y353060D01*
X775146Y345565D02*
X778830Y349250D01*
X803910D01*
X829511Y354629D02*
X834292Y359410D01*
X829511Y354129D02*
Y354629D01*
X834292Y359410D02*
X837510D01*
X775146Y262636D02*
Y345565D01*
Y262636D02*
X779972Y257810D01*
X792775Y248680D02*
X800270D01*
X785280D02*
X792775D01*
Y256245D01*
X791210Y257810D02*
X792775Y256245D01*
X779972Y257810D02*
X791210D01*
X765810Y247650D02*
X775280D01*
X841986Y364934D02*
X846510Y360410D01*
Y359410D02*
Y360410D01*
X812134Y348424D02*
X854156D01*
X815340Y342900D02*
X829310D01*
X806340Y342630D02*
X812134Y348424D01*
X854156D02*
X855570Y347010D01*
X815340Y341630D02*
Y342900D01*
X438937Y342073D02*
X439764Y342900D01*
X215980Y370920D02*
X217612Y372552D01*
X27940Y150520D02*
X29820Y152400D01*
X27320D02*
X27940Y151780D01*
X850654Y300164D02*
X855154D01*
X845130Y294640D02*
X850654Y300164D01*
X855154D02*
X857250Y302260D01*
X849670Y308610D02*
X857250D01*
X848770Y249018D02*
Y250900D01*
X842010Y257659D02*
X848770Y250900D01*
X996757Y425450D02*
X1014730D01*
X992535Y421228D02*
X996757Y425450D01*
X942468Y421228D02*
X992535D01*
X1080069Y454248D02*
X1089371Y463550D01*
X919706Y377132D02*
X926284Y370554D01*
X896289Y377132D02*
X919706D01*
X942338Y370554D02*
X951673Y361219D01*
X926284Y370554D02*
X942338D01*
X886460Y370840D02*
X889997D01*
X896289Y377132D01*
X940878Y367030D02*
X950213Y357695D01*
X939907Y363017D02*
X948753Y354171D01*
X920761Y363017D02*
X939907D01*
X938531Y359410D02*
X947294Y350647D01*
X936086Y359410D02*
X938531D01*
X936003Y359493D02*
X936086Y359410D01*
X904070Y359493D02*
X936003D01*
X934543Y355969D02*
X943389Y347123D01*
X927046Y355969D02*
X934543D01*
X928306Y346582D02*
X931289Y343599D01*
X916940Y346582D02*
X928306D01*
X931289Y343599D02*
X1118171D01*
X912706Y340074D02*
X1116615D01*
X928940Y329500D02*
X1089090D01*
X930496Y325976D02*
X1086264D01*
X915260Y305660D02*
X932052Y322452D01*
X915252Y297936D02*
X936244Y318928D01*
X914845Y292545D02*
X937704Y315404D01*
X939260Y311880D02*
X1076230D01*
X916401Y289021D02*
X939260Y311880D01*
X924587Y353510D02*
X927046Y355969D01*
X923290Y334010D02*
X925828Y336548D01*
X916512Y347010D02*
X916940Y346582D01*
X919680Y315160D02*
X930496Y325976D01*
X903420Y360143D02*
Y362360D01*
X924824Y367030D02*
X940878D01*
X912270Y347010D02*
X916512D01*
X920450Y321010D02*
X928940Y329500D01*
X903420Y360143D02*
X904070Y359493D01*
X912270Y340510D02*
X912706Y340074D01*
X921966Y327510D02*
X927480Y333024D01*
X912270Y353510D02*
X924587D01*
X913694Y370084D02*
X920761Y363017D01*
X918246Y373608D02*
X924824Y367030D01*
X1025429Y361219D02*
X1031240Y367030D01*
X951673Y361219D02*
X1025429D01*
X1029177Y449580D02*
X1029937Y448821D01*
Y449580D01*
X1031240Y474980D02*
X1039440D01*
X629920Y167640D02*
Y181514D01*
X610940Y200494D02*
X629920Y181514D01*
X610940Y200494D02*
Y254510D01*
X622300Y167640D02*
Y184150D01*
X607416Y199034D02*
X622300Y184150D01*
X515778Y161132D02*
X767719D01*
X513827Y157608D02*
X769178D01*
X512368Y154084D02*
X770638D01*
X508079Y150560D02*
X773550D01*
X503791Y147036D02*
X775687D01*
X502332Y143512D02*
X777146D01*
X500872Y139988D02*
X778606D01*
X499412Y136464D02*
X780547D01*
X497953Y132940D02*
X782006D01*
X496493Y129416D02*
X783466D01*
X495033Y125892D02*
X784926D01*
X493574Y122368D02*
X786385D01*
X441960Y173982D02*
X493574Y122368D01*
X786385D02*
X800351Y136334D01*
X445770Y175156D02*
X495033Y125892D01*
X784926D02*
X798892Y139858D01*
X449992Y175917D02*
X496493Y129416D01*
X783466D02*
X798386Y144336D01*
X453516Y177377D02*
X497953Y132940D01*
X782006D02*
X796926Y147860D01*
X457040Y178836D02*
X499412Y136464D01*
X780547D02*
X795467Y151384D01*
X460850Y180010D02*
X500872Y139988D01*
X778606D02*
X810512Y171894D01*
X464946Y180898D02*
X502332Y143512D01*
X777146D02*
X809052Y175418D01*
X468470Y182357D02*
X503791Y147036D01*
X775687D02*
X807912Y179261D01*
X489729Y168910D02*
X508079Y150560D01*
X773550D02*
X807420Y184430D01*
X488652Y177800D02*
X512368Y154084D01*
X770638D02*
X800920Y184366D01*
X490111Y181324D02*
X513827Y157608D01*
X769178D02*
X792070Y180499D01*
X481330Y195580D02*
X515778Y161132D01*
X767719D02*
X787400Y180813D01*
Y190305D01*
X784346Y193359D02*
X787400Y190305D01*
X784346Y193359D02*
Y205838D01*
X786488Y207980D01*
X610940Y254510D02*
X614440Y258010D01*
X621190D01*
X608895Y265034D02*
X608964D01*
X607416Y263556D02*
X608895Y265034D01*
X608964D02*
X614440Y270510D01*
X621190D01*
X652780Y271780D02*
Y347980D01*
X639010Y258010D02*
X652780Y271780D01*
X621190Y258010D02*
X639010D01*
X535496Y270954D02*
X548440Y258010D01*
X544830Y355600D02*
X568360D01*
X551180Y335860D02*
Y339090D01*
Y344860D02*
X569540D01*
X570230Y344170D01*
X570150Y318850D02*
X570230Y318770D01*
X551180Y318850D02*
X570150D01*
X637540D02*
X643890D01*
X622310D02*
X637540D01*
Y295910D02*
Y318850D01*
X622230Y318770D02*
X622310Y318850D01*
X637540Y295910D02*
X637580Y295870D01*
X645120D01*
X645160Y295830D01*
X621290Y295910D02*
X637540D01*
X621190Y296010D02*
X621290Y295910D01*
X548640Y290250D02*
Y297180D01*
Y281250D02*
X568180D01*
X570440Y283510D01*
X169146Y224554D02*
X305125D01*
X163830Y229870D02*
X169146Y224554D01*
X305125D02*
X306765Y226194D01*
X273050Y197270D02*
Y203202D01*
X228600Y209550D02*
X250190D01*
X252730Y207010D01*
Y176432D02*
Y207010D01*
Y176432D02*
X253632Y175530D01*
X255222Y221030D02*
X273050Y203202D01*
X260571Y220980D02*
X280670Y200881D01*
Y195000D02*
Y200881D01*
X270780Y195000D02*
X271780D01*
X258390Y175260D02*
Y175530D01*
X330200Y240316D02*
X383254D01*
X306765Y226194D02*
X418062D01*
X238858Y248920D02*
X240030Y247748D01*
Y237690D02*
Y247748D01*
X239830Y237490D02*
X240030Y237690D01*
X234790Y248920D02*
X238858D01*
X233160Y261230D02*
X233975Y260415D01*
Y249735D02*
Y260415D01*
Y249735D02*
X234790Y248920D01*
X418062Y226194D02*
X419100Y227232D01*
X163830Y280670D02*
X167390Y284230D01*
X178160D01*
X163830Y229870D02*
Y280670D01*
X257711Y167370D02*
X258390D01*
X158750Y198120D02*
X185420Y171450D01*
X166370Y293370D02*
X177020D01*
X178160Y292230D01*
X158750Y285750D02*
X166370Y293370D01*
X158750Y198120D02*
Y285750D01*
X253866Y171215D02*
X257711Y167370D01*
X253866Y171215D02*
Y171450D01*
X185420D02*
X253866D01*
X258390Y166370D02*
Y167370D01*
X896920Y362360D02*
Y366279D01*
X1124175Y317759D02*
X1125524Y319107D01*
X1127615D01*
X1120768Y319412D02*
X1122421Y317759D01*
X1124175D01*
X1119498Y319412D02*
X1120768D01*
X1131570Y237490D02*
Y250190D01*
X186690Y268579D02*
X188184Y270074D01*
X328930Y247364D02*
X381984D01*
X385350Y250730D01*
X390740D01*
X391740Y251730D01*
Y252730D01*
X306071Y320866D02*
X312230Y327025D01*
X281426Y320866D02*
X306071D01*
X278062Y324230D02*
X281426Y320866D01*
X264160Y324230D02*
X278062D01*
X364392Y332740D02*
X374520D01*
X363220Y331568D02*
X364392Y332740D01*
X375770Y330200D02*
Y331490D01*
X363220Y327010D02*
Y331568D01*
X374520Y332740D02*
X375770Y331490D01*
X143510Y537210D02*
X156520D01*
X183979Y300230D02*
X188184Y296025D01*
X178160Y300230D02*
X183979D01*
X193160Y347230D02*
Y358020D01*
X191770Y359410D02*
X193160Y358020D01*
X180340Y359410D02*
X191770D01*
X188184Y270074D02*
Y296025D01*
X224830Y237490D02*
X231060D01*
X199390Y349000D02*
Y392430D01*
Y349000D02*
X201160Y347230D01*
X209160D02*
Y357260D01*
X203200Y363220D02*
X209160Y357260D01*
X203200Y363220D02*
Y382980D01*
X211381Y391160D02*
X242570D01*
X203200Y382980D02*
X211381Y391160D01*
X249160Y358140D02*
X265154D01*
X249160Y347230D02*
Y358140D01*
X276860Y333912D02*
Y354330D01*
X278130Y355600D01*
X275688Y332740D02*
X276860Y333912D01*
X274320Y361950D02*
X276860Y364490D01*
X243840Y361950D02*
X274320D01*
X163630Y324230D02*
X178160D01*
X241160Y359270D02*
X243840Y361950D01*
X241160Y347230D02*
Y359270D01*
X270224Y365760D02*
X270510Y365474D01*
X241300Y365760D02*
X270224D01*
X233270Y357730D02*
X241300Y365760D01*
X233270Y347340D02*
Y357730D01*
X233160Y347230D02*
X233270Y347340D01*
X215980Y364490D02*
Y370920D01*
X217612Y372552D02*
Y377190D01*
X211480D02*
X217612D01*
X216575Y358735D02*
X217170Y358140D01*
X216575Y358735D02*
Y363895D01*
X215980Y364490D02*
X216575Y363895D01*
X217165Y358135D02*
X217170Y358140D01*
X217165Y347235D02*
Y358135D01*
X217160Y347230D02*
X217165Y347235D01*
X225015Y261085D02*
X225160Y261230D01*
X224790Y248920D02*
X224935Y249065D01*
X217160Y247660D02*
Y261230D01*
Y247660D02*
X217170Y247650D01*
X274660Y307000D02*
X281232Y300428D01*
Y289228D02*
Y300428D01*
Y289228D02*
X284711Y285750D01*
X265390Y307000D02*
X274660D01*
X264160Y308230D02*
X265390Y307000D01*
X264670Y332740D02*
X275688D01*
X264160Y332230D02*
X264670Y332740D01*
X290260Y298770D02*
Y312990D01*
X289560Y313690D02*
X290260Y312990D01*
X288478Y313690D02*
X289560D01*
X285938Y316230D02*
X288478Y313690D01*
X264160Y316230D02*
X285938D01*
X1092200Y471363D02*
Y514350D01*
X1089371Y463550D02*
X1106750D01*
X1120238D02*
X1121410Y464722D01*
Y472980D01*
X1119410Y474980D02*
X1121410Y472980D01*
X1118200Y474980D02*
X1119410D01*
X1115750Y463550D02*
X1120238D01*
X1058200Y500380D02*
X1066200D01*
X1056200Y498380D02*
X1058200Y500380D01*
X1056200Y496130D02*
Y498380D01*
X1055370Y495300D02*
X1056200Y496130D01*
X1048440Y495300D02*
X1055370D01*
X1092200Y514350D02*
X1100510Y522660D01*
X1137920D01*
X1118780Y513660D02*
X1137920D01*
X1118200Y513080D02*
X1118780Y513660D01*
X1150620Y481330D02*
Y484530D01*
X1151890Y485800D01*
X1149350Y480060D02*
X1150620Y481330D01*
X1141730Y480060D02*
X1149350D01*
X1139190Y482600D02*
X1141730Y480060D01*
X1139190Y482600D02*
Y489030D01*
X1132840Y487680D02*
X1133515Y488355D01*
X1138515D01*
X1139190Y489030D01*
X1118200Y487680D02*
X1132840D01*
X1066090Y512970D02*
X1066200Y513080D01*
X1047750Y512970D02*
X1066090D01*
X1047695Y513025D02*
X1047750Y512970D01*
X1038915Y513025D02*
X1047695D01*
X1038860Y513080D02*
X1038915Y513025D01*
X1048440Y474980D02*
X1066200D01*
X1043916Y488926D02*
Y496546D01*
X1042670Y487680D02*
X1043916Y488926D01*
X1039440Y487680D02*
X1042670D01*
X1048740Y504170D02*
X1048940D01*
X1046247Y505227D02*
X1047903D01*
X1048940Y504190D01*
X1043916Y502896D02*
X1046247Y505227D01*
X1043916Y496546D02*
Y502896D01*
X1042670Y495300D02*
X1043916Y496546D01*
X1039440Y495300D02*
X1042670D01*
X1048940Y504170D02*
Y504190D01*
X325120Y243840D02*
X391740D01*
X419100Y227232D02*
Y231720D01*
X383254Y240316D02*
X387374Y236196D01*
X409038D01*
X410210Y235024D01*
Y232720D02*
Y235024D01*
Y232720D02*
X411210Y231720D01*
X411480D01*
X319934Y184975D02*
Y196744D01*
Y184975D02*
X320866Y184043D01*
Y169374D02*
Y184043D01*
Y169374D02*
X321110Y169130D01*
X379180Y355412D02*
Y357232D01*
X376462Y359950D02*
X379180Y357232D01*
X388695Y356772D02*
X389101Y356365D01*
X391665D01*
X392430Y355600D01*
X388695Y356772D02*
Y369625D01*
X800920Y184366D02*
Y192630D01*
X792070Y180499D02*
Y201480D01*
X786488Y207980D02*
X792070D01*
X807420Y184430D02*
Y192630D01*
X468470Y182357D02*
Y199712D01*
X464946Y180898D02*
Y201171D01*
X460850Y180010D02*
Y202059D01*
X457040Y178836D02*
Y203233D01*
X453516Y177377D02*
Y204692D01*
X473410Y263170D02*
X474980Y261600D01*
X471390Y263170D02*
X473410D01*
X819356Y139256D02*
X830232D01*
X471690Y267870D02*
X476350D01*
X471390Y268170D02*
X471690Y267870D01*
X798892Y139858D02*
X818754D01*
X819356Y139256D01*
X441960Y173982D02*
Y208280D01*
X445770Y175156D02*
Y207010D01*
X449992Y175917D02*
Y206152D01*
X835946Y144970D02*
Y149574D01*
X830232Y139256D02*
X835946Y144970D01*
X829310Y156210D02*
X835946Y149574D01*
X825500Y156210D02*
X829310D01*
X839470Y143510D02*
Y173990D01*
X831692Y135732D02*
X839470Y143510D01*
X817896Y135732D02*
X831692D01*
X833216Y180244D02*
X839470Y173990D01*
X831850Y130810D02*
X849446Y148406D01*
X814070Y130810D02*
X831850D01*
X476250Y195580D02*
X481330D01*
X482888Y187960D02*
X489524Y181324D01*
X480743Y187960D02*
X482888D01*
X489524Y181324D02*
X490111D01*
X485236Y177800D02*
X488652D01*
X807912Y179261D02*
X813179D01*
X809052Y175418D02*
X821999D01*
X810512Y171894D02*
X815088D01*
X795467Y151384D02*
X797560D01*
X812546Y166370D01*
X803180Y147860D02*
X812800Y157480D01*
X796926Y147860D02*
X803180D01*
X812546Y166370D02*
X812800D01*
X825056Y144336D02*
X825500Y144780D01*
X823465Y168405D02*
X824230Y167640D01*
X817294Y136334D02*
X817896Y135732D01*
X800351Y136334D02*
X817294D01*
X798386Y144336D02*
X825056D01*
X346140Y125030D02*
X440598D01*
X343314Y121506D02*
X439139D01*
X341854Y117982D02*
X415864D01*
X355785Y114458D02*
X395895D01*
X374206Y110934D02*
X390604Y94536D01*
X358584Y110934D02*
X374206D01*
X415864Y117982D02*
X439310Y94536D01*
X379828Y129540D02*
X384810Y134522D01*
X346710Y129540D02*
X379828D01*
X353087Y111760D02*
X355785Y114458D01*
X394970Y90314D02*
Y93364D01*
X328778Y120650D02*
X339186D01*
X439139Y121506D02*
X466109Y94536D01*
X393798D02*
X394970Y93364D01*
X384810Y134522D02*
Y138430D01*
X390604Y94536D02*
X393798D01*
X339186Y120650D02*
X341854Y117982D01*
X440598Y125030D02*
X446248Y119380D01*
X384810Y138430D02*
X386080Y139700D01*
X395895Y114458D02*
X415816Y94536D01*
X326110Y117982D02*
X328778Y120650D01*
X394716Y90060D02*
X394970Y90314D01*
X386080Y139700D02*
X389810D01*
X813179Y179261D02*
X815528Y181610D01*
X816610D01*
X812800Y119380D02*
X817880Y114300D01*
X797250Y119380D02*
X812800D01*
X817880Y105312D02*
Y114300D01*
X816708Y104140D02*
X817880Y105312D01*
X811650Y104140D02*
X816708D01*
X821999Y175418D02*
X822157Y175260D01*
X815088Y171894D02*
X818577Y168405D01*
X823465D01*
X897748Y373608D02*
X918246D01*
X890575Y366435D02*
X897748Y373608D01*
X900724Y370084D02*
X913694D01*
X896920Y366279D02*
X900724Y370084D01*
X338890Y132280D02*
X346140Y125030D01*
X332960Y132280D02*
X338890D01*
X340360Y135890D02*
X346710Y129540D01*
X340360Y135890D02*
Y148949D01*
X844960Y192630D02*
X849446Y188144D01*
Y148406D02*
Y188144D01*
X854710Y208280D02*
X856494Y206496D01*
Y183394D02*
Y206496D01*
Y183394D02*
X894664Y145224D01*
X848770Y193900D02*
X852970Y189700D01*
Y181934D02*
Y189700D01*
X848770Y193900D02*
Y201480D01*
X839920Y192630D02*
X844960D01*
X414020Y332740D02*
X415290D01*
X416560Y334010D01*
X428888D01*
X430060Y332838D01*
Y326451D02*
Y332838D01*
Y326451D02*
X431300Y325210D01*
X424799Y340750D02*
X429340D01*
X436880Y326130D02*
Y333210D01*
X429340Y340750D02*
X436880Y333210D01*
X434540Y305020D02*
Y313788D01*
X433368Y314960D02*
X434540Y313788D01*
X430630Y314960D02*
X433368D01*
X426149Y319441D02*
X430630Y314960D01*
X426149Y319441D02*
Y323861D01*
X424799Y325210D02*
X426149Y323861D01*
X459740Y329620D02*
Y332740D01*
X457200Y335280D02*
X459740Y332740D01*
X445219Y335280D02*
X457200D01*
X437799Y327860D02*
X445219Y335280D01*
X437799Y325210D02*
Y327860D01*
X459490Y320370D02*
X459740Y320620D01*
X451100Y320370D02*
X459490D01*
X450850Y320120D02*
X451100Y320370D01*
X449580Y316230D02*
Y318870D01*
X450830Y320120D01*
X450850D01*
X446680Y316230D02*
X449580D01*
X440716Y310266D02*
X446680Y316230D01*
X440716Y309096D02*
Y310266D01*
X439540Y307920D02*
X440716Y309096D01*
X439540Y305020D02*
Y307920D01*
X439764Y342900D02*
X445770D01*
X436880Y326130D02*
X437799Y325210D01*
X424799Y340750D02*
Y343210D01*
X437799D02*
X438937Y342073D01*
X410058Y248768D02*
X412598D01*
X405130Y243840D02*
X410058Y248768D01*
X400740Y243840D02*
X405130D01*
X337029Y152280D02*
X340360Y148949D01*
X332960Y152280D02*
X337029D01*
X389560Y139950D02*
X389810Y139700D01*
X389560Y139950D02*
Y147070D01*
X389310Y147320D02*
X389560Y147070D01*
X388695Y369625D02*
X388770Y369700D01*
X376462Y359950D02*
Y369008D01*
X375770Y369700D02*
X376462Y369008D01*
X382270Y314300D02*
Y330200D01*
X381660Y313690D02*
X382270Y314300D01*
X387390Y313690D02*
X389040Y312040D01*
X381660Y313690D02*
X387390D01*
X389040Y303330D02*
Y312040D01*
X386040Y300330D02*
X389040Y303330D01*
X383540Y300330D02*
X386040D01*
X319934Y196744D02*
X322580Y199390D01*
X326250Y177660D02*
X326390Y177800D01*
Y186040D01*
X322580Y199390D02*
X329540D01*
X330810Y200660D01*
X383540Y293370D02*
Y300330D01*
Y293370D02*
X385254Y291656D01*
X411480Y297180D02*
X412170Y297870D01*
X422390D01*
X422690Y298170D01*
X403240Y297180D02*
X411480D01*
X402590Y297830D02*
X403240Y297180D01*
X414945Y277625D02*
X415490Y278170D01*
X412245Y277625D02*
X414945D01*
X411480Y276860D02*
X412245Y277625D01*
X415490Y278170D02*
X422690D01*
X403210Y276860D02*
X411480D01*
X402590Y276240D02*
X403210Y276860D01*
X422690Y258860D02*
Y263170D01*
X412598Y248768D02*
X422690Y258860D01*
X400740Y252730D02*
X411480D01*
X415290Y256540D01*
Y265430D01*
X417730Y267870D01*
X422390D01*
X422690Y268170D01*
X412480Y240720D02*
Y242669D01*
X415055Y245244D01*
X421364D02*
X429540Y253420D01*
X415055Y245244D02*
X421364D01*
X434240Y256020D02*
X434540Y256320D01*
X434240Y251011D02*
Y256020D01*
X428720Y245491D02*
X434240Y251011D01*
X428720Y241720D02*
Y245491D01*
X427720Y240720D02*
X428720Y241720D01*
X426720Y240720D02*
X427720D01*
X411480D02*
X412480D01*
X429540Y253420D02*
Y256320D01*
X419100Y240720D02*
X426720D01*
X448960Y231790D02*
Y237490D01*
X445350Y228180D02*
X448960Y231790D01*
X436460Y228180D02*
X445350D01*
X444960Y241300D02*
Y244490D01*
X445005Y244535D01*
Y246885D01*
X445770Y247650D01*
X436460Y228180D02*
X443230Y234950D01*
X430530Y228180D02*
X436460D01*
X426990Y231720D02*
X430530Y228180D01*
X426720Y231720D02*
X426990D01*
X443230Y234950D02*
Y239570D01*
X444960Y241300D01*
X445770Y247650D02*
Y248732D01*
X444840Y249662D02*
X445770Y248732D01*
X444840Y249662D02*
Y256020D01*
X444540Y256320D02*
X444840Y256020D01*
X434960Y237490D02*
Y237570D01*
X848770Y227480D02*
X859940D01*
X890368Y248920D02*
X891540Y247748D01*
X878920Y248920D02*
X890368D01*
X878840Y248840D02*
X878920Y248920D01*
X891540Y241910D02*
Y247748D01*
X890368Y232410D02*
X891540Y231238D01*
Y222910D02*
Y231238D01*
X886020Y232410D02*
X890368D01*
X879590Y238840D02*
X886020Y232410D01*
X878840Y238840D02*
X879590D01*
X871220Y238760D02*
Y247650D01*
X868680Y250190D02*
X871220Y247650D01*
X865560Y250190D02*
X868680D01*
X871220Y238760D02*
X871300Y238840D01*
X878840D01*
X859940Y227480D02*
X871220Y238760D01*
X779670Y285750D02*
Y300990D01*
X848770Y249018D02*
X849942Y250190D01*
X848770Y240480D02*
Y249018D01*
X849942Y250190D02*
X856560D01*
X1099028Y139414D02*
X1103822Y134620D01*
X957865Y139414D02*
X1099028D01*
X926560Y146590D02*
X950689D01*
X957865Y139414D01*
X956406Y135890D02*
X1068730D01*
X924812Y143066D02*
X949230D01*
X956406Y135890D01*
X947770Y139542D02*
X957772Y129540D01*
X923352Y139542D02*
X947770D01*
X920878Y152272D02*
X926560Y146590D01*
X899230Y152272D02*
X920878D01*
X863542Y187960D02*
X899230Y152272D01*
X919130Y148748D02*
X924812Y143066D01*
X896124Y148748D02*
X919130D01*
X860018Y184854D02*
X896124Y148748D01*
X917670Y145224D02*
X923352Y139542D01*
X894664Y145224D02*
X917670D01*
X815340Y326315D02*
Y341630D01*
X816340Y309880D02*
X820518D01*
X815340Y310880D02*
X816340Y309880D01*
X820518D02*
X824230Y306168D01*
X800100Y279400D02*
X809990D01*
X815340Y310880D02*
Y311300D01*
Y273160D02*
Y284750D01*
X809990Y279400D02*
X815340Y284750D01*
Y285750D01*
X1103822Y134620D02*
X1160780D01*
X1163320Y132080D01*
X863542Y187960D02*
Y212148D01*
X855360Y220330D02*
X863542Y212148D01*
X849420Y220330D02*
X855360D01*
X848770Y220980D02*
X849420Y220330D01*
X860018Y184854D02*
Y207956D01*
X852970Y181934D02*
X900430Y134474D01*
Y132080D02*
Y134474D01*
X848770Y214480D02*
X853494D01*
X860018Y207956D01*
X848770Y207980D02*
X849070Y208280D01*
X854710D01*
X1068730Y135890D02*
X1073175Y131445D01*
X957772Y129540D02*
X985520D01*
X795020Y311150D02*
X806190D01*
X788780D02*
X795020D01*
Y311744D02*
X800100Y316824D01*
X795020Y311150D02*
Y311744D01*
X793750Y326390D02*
X806265D01*
X793750D02*
X799792Y320348D01*
X788780Y326390D02*
X793750D01*
X815340Y300990D02*
Y310030D01*
X779670Y273160D02*
Y285750D01*
X783590Y264160D02*
Y271878D01*
X782418Y273050D02*
X783590Y271878D01*
X779780Y273050D02*
X782418D01*
X800100Y279400D02*
X800155Y279455D01*
X800270Y248680D02*
X800920Y249330D01*
X820420D02*
Y254766D01*
X813920Y249330D02*
Y253249D01*
X810816Y289795D02*
X812294Y291274D01*
X795020Y300990D02*
X800544Y295466D01*
X795020Y300990D02*
X806340D01*
X788670D02*
X795020D01*
X810816Y287576D02*
Y289795D01*
X808990Y285750D02*
X810816Y287576D01*
X806340Y285750D02*
X808990D01*
X815340Y273160D02*
X815450Y273050D01*
X779670Y273160D02*
X779780Y273050D01*
X808070Y256890D02*
X810260Y259080D01*
X808070Y249980D02*
Y256890D01*
X807420Y249330D02*
X808070Y249980D01*
X810260Y259080D02*
Y271878D01*
X809088Y273050D02*
X810260Y271878D01*
X806450Y273050D02*
X809088D01*
X788670Y285750D02*
X806340D01*
X788780Y273050D02*
X806450D01*
X779780Y311150D02*
Y326390D01*
Y341630D01*
X779725Y311095D02*
X779780Y311150D01*
X779725Y301045D02*
Y309825D01*
X779670Y300990D02*
X779725Y301045D01*
X815340Y285750D02*
X815395Y285805D01*
X806340Y341630D02*
Y342630D01*
X788780Y341630D02*
X806340D01*
X788780Y311150D02*
Y312150D01*
X806190Y311150D02*
X806340Y311300D01*
X806265Y326390D02*
X806340Y326315D01*
X857250Y308610D02*
X858520Y309880D01*
X31090Y151130D02*
X44450D01*
X29820Y152400D02*
X31090Y151130D01*
X26690Y151770D02*
X27940Y150520D01*
X321310Y215900D02*
X329540D01*
X330810Y217170D01*
X306070Y177800D02*
X306090Y177780D01*
X306070Y177800D02*
Y186070D01*
X305450Y186690D02*
X306070Y186070D01*
X13970Y165442D02*
Y170641D01*
Y175840D01*
X12700Y412652D02*
Y418071D01*
Y423490D01*
X223322Y537210D02*
X229426D01*
X235530D01*
X24330Y397510D02*
X39370D01*
X24130Y397710D02*
X24330Y397510D01*
X130810Y509270D02*
Y524310D01*
X131010Y524510D01*
X209550Y508000D02*
Y524410D01*
X209650Y524510D01*
X165790Y537210D02*
X171450D01*
X244530D02*
X250190D01*
X12700Y432490D02*
Y438150D01*
X13970Y184840D02*
Y190500D01*
Y165442D02*
X15142Y164270D01*
X26690D01*
X12700Y412652D02*
X13872Y411480D01*
X22860D01*
X24130Y410210D01*
X222150Y536038D02*
X223322Y537210D01*
X222150Y524510D02*
Y536038D01*
X156790Y537210D02*
Y537480D01*
X143510Y524510D02*
Y537210D01*
X858520Y309880D02*
Y313860D01*
X857870Y314510D02*
X858520Y313860D01*
X855570Y314510D02*
X857870D01*
X834834Y304193D02*
X851650Y321010D01*
X855570D01*
X970472Y120650D02*
X978060Y113062D01*
Y105370D02*
Y113062D01*
Y105370D02*
X980560Y102870D01*
X1148080Y121920D02*
X1148845Y121155D01*
X1150307D01*
X1160940Y110522D01*
Y105370D02*
Y110522D01*
Y105370D02*
X1163440Y102870D01*
X1060450Y97982D02*
Y104140D01*
Y97982D02*
X1067532Y90900D01*
X1065974Y102870D02*
Y115318D01*
X1059180Y122112D02*
X1065974Y115318D01*
X1059180Y122112D02*
Y124460D01*
X1065974Y102870D02*
X1070730D01*
X970280Y120650D02*
X970472D01*
X973264Y94688D02*
Y101156D01*
Y94688D02*
X978034Y89918D01*
X971550Y102870D02*
X973264Y101156D01*
X978034Y88802D02*
Y89918D01*
X1121174Y306340D02*
X1123332Y304182D01*
X1120396Y306340D02*
X1121174D01*
X1125862Y313048D02*
X1128837Y310073D01*
X1125862Y313048D02*
X1125862D01*
X1116330Y224531D02*
X1121174Y219686D01*
X1116330Y224531D02*
Y233680D01*
X1121174Y219686D02*
X1124048D01*
X1125220Y218514D01*
Y215210D02*
Y218514D01*
X1124220Y199970D02*
X1125220D01*
Y231140D02*
X1131570Y237490D01*
X1125220Y224210D02*
Y231140D01*
Y208970D02*
Y215210D01*
X873687Y285757D02*
X876220Y288290D01*
X873687Y278105D02*
Y285757D01*
X861818Y275492D02*
X867410D01*
X861720Y275590D02*
X861818Y275492D01*
X867410D02*
X869950Y278032D01*
Y287118D01*
X876202Y275590D02*
X880720D01*
X873687Y278105D02*
X876202Y275590D01*
X868778Y288290D02*
X869950Y287118D01*
X866220Y288290D02*
X868778D01*
X863504Y298354D02*
Y298546D01*
X859790Y294640D02*
X863504Y298354D01*
Y298546D02*
X863770Y298812D01*
Y305010D02*
X864420Y305660D01*
X863770Y298812D02*
Y305010D01*
X267390Y157480D02*
Y165370D01*
X283960Y157580D02*
X284260Y157280D01*
X268390Y164370D02*
X271240D01*
X267390Y165370D02*
X268390Y164370D01*
X267390Y165370D02*
Y166370D01*
X271240Y164370D02*
X278030Y157580D01*
X283960D01*
X268390Y176110D02*
X281060Y163440D01*
Y162580D02*
Y163440D01*
Y162580D02*
X281360Y162280D01*
X284260D01*
Y169130D02*
X291110D01*
X271914Y181476D02*
X284260Y169130D01*
X271914Y181476D02*
Y186000D01*
X280670Y181610D02*
X286385Y175895D01*
X293414D01*
X280670Y181610D02*
Y186000D01*
X268390Y173990D02*
Y176110D01*
X279670Y195000D02*
X280670D01*
X330810Y200660D02*
Y217170D01*
Y200660D02*
X332230Y199240D01*
X355470D01*
X340360Y193690D02*
X341310Y192740D01*
X355470D01*
X394970Y205740D02*
X406400D01*
X417170D01*
X417830Y205080D01*
X367625Y169565D02*
X367873Y169317D01*
Y160633D02*
Y169317D01*
Y160633D02*
X368120Y160385D01*
X367625Y169565D02*
Y173315D01*
X365760Y152400D02*
X372110D01*
X375920Y148590D01*
X379310D01*
X380310Y147590D01*
Y147320D02*
Y147590D01*
X367775Y146558D02*
Y150385D01*
Y146558D02*
X368537Y147320D01*
X345440Y144780D02*
Y149862D01*
X338322Y156980D02*
X345440Y149862D01*
X333260Y156980D02*
X338322D01*
X332960Y157280D02*
X333260Y156980D01*
X345440Y144780D02*
X347835Y142385D01*
X355120D01*
X366950Y173990D02*
X367625Y173315D01*
X365760Y152400D02*
X367775Y150385D01*
X356772Y152400D02*
X365760D01*
X355600Y153572D02*
X356772Y152400D01*
X355600Y153572D02*
Y159905D01*
X355120Y160385D02*
X355600Y159905D01*
X293414Y175895D02*
X296110Y173200D01*
Y169130D02*
Y173200D01*
X270510Y186000D02*
X271914D01*
X267390Y174990D02*
X268390Y173990D01*
X267390Y174990D02*
Y175260D01*
X252730Y157480D02*
X258390D01*
X306090Y169150D02*
Y177780D01*
Y169150D02*
X306110Y169130D01*
X326390Y186040D02*
X327040Y186690D01*
X326250Y169270D02*
Y177660D01*
X326110Y169130D02*
X326250Y169270D01*
X265430Y147970D02*
X266080Y147320D01*
X274320D01*
X274340Y147300D01*
X284240D01*
X284260Y147280D01*
X319362Y104712D02*
X353600D01*
X311110Y112964D02*
X319362Y104712D01*
X353600D02*
X363776Y94536D01*
X355886Y108236D02*
X358584Y110934D01*
X321390Y108236D02*
X355886D01*
X316396Y113230D02*
X321390Y108236D01*
X322850Y111760D02*
X353087D01*
X321110Y113499D02*
X322850Y111760D01*
X306110Y114340D02*
Y120430D01*
X297180Y105410D02*
X306110Y114340D01*
X278130Y105410D02*
X297180D01*
X294932Y110182D02*
X301110Y116361D01*
Y120430D01*
X296110Y116361D02*
Y120430D01*
X293456Y113706D02*
X296110Y116361D01*
X244514Y95250D02*
X263438Y114174D01*
X277948D01*
X281940Y110182D01*
X294932D01*
X285074Y113706D02*
X293456D01*
X281082Y117698D02*
X285074Y113706D01*
X261978Y117698D02*
X281082D01*
X255214Y110934D02*
X261978Y117698D01*
X290318Y121222D02*
X291110Y120430D01*
X260519Y121222D02*
X290318D01*
X254446Y115149D02*
X260519Y121222D01*
X273336Y124746D02*
X275870Y127280D01*
X255867Y124746D02*
X273336D01*
X249794Y118673D02*
X255867Y124746D01*
X271876Y128270D02*
X275886Y132280D01*
X253723Y128270D02*
X271876D01*
X247650Y122197D02*
X253723Y128270D01*
X236726Y110934D02*
X255214D01*
X221042Y95250D02*
X236726Y110934D01*
X268206Y95226D02*
X269684Y96705D01*
Y96964D01*
X278130Y105410D01*
X265332Y95226D02*
X268206D01*
X264160Y94054D02*
X265332Y95226D01*
X214121Y115149D02*
X254446D01*
X193714Y94742D02*
X214121Y115149D01*
X192333Y118673D02*
X249794D01*
X168886Y95226D02*
X192333Y118673D01*
X143300Y95040D02*
X170457Y122197D01*
X247650D01*
X137160Y93868D02*
X138332Y95040D01*
X137160Y91750D02*
Y93868D01*
Y91750D02*
X138160Y90750D01*
X138430D01*
X165076Y95226D02*
X168886D01*
X163576Y93726D02*
X165076Y95226D01*
X163576Y90750D02*
Y93726D01*
X138332Y95040D02*
X143300D01*
X275886Y132280D02*
X284260D01*
X275870Y127280D02*
X284260D01*
X188722Y94742D02*
X193714D01*
X188722Y90750D02*
Y94742D01*
X217938Y95250D02*
X221042D01*
X239014Y94234D02*
X240006Y95226D01*
X243060D01*
X243083Y95250D01*
X244514D01*
X239014Y90750D02*
Y94234D01*
X214630Y91512D02*
Y93980D01*
X213868Y90750D02*
X214630Y91512D01*
Y93980D02*
X215876Y95226D01*
X217913D01*
X217938Y95250D01*
X138430Y99750D02*
Y105410D01*
X163576Y99750D02*
X163830Y100004D01*
X188722Y99750D02*
X189230Y100258D01*
X213868Y99750D02*
X214630Y100512D01*
X238760Y100004D02*
X239014Y99750D01*
X264160D02*
Y105410D01*
Y90750D02*
Y94054D01*
X264030Y90620D02*
X264160Y90750D01*
X264030Y76200D02*
Y90620D01*
X239014Y90750D02*
X239030Y90734D01*
Y76200D02*
Y90734D01*
X213868Y90750D02*
X214030Y90588D01*
Y76200D02*
Y90588D01*
X188722Y90750D02*
X189030Y90442D01*
Y76200D02*
Y90442D01*
X163576Y90750D02*
X164030Y90296D01*
Y76200D02*
Y90296D01*
X138430Y90750D02*
X139030Y90150D01*
Y76200D02*
Y90150D01*
X337540Y127280D02*
X343314Y121506D01*
X332960Y127280D02*
X337540D01*
X489856Y94536D02*
X494128D01*
X472393Y111999D02*
X489856Y94536D01*
X453629Y111999D02*
X472393D01*
X446248Y119380D02*
X453629Y111999D01*
X446248Y119380D02*
X446248D01*
X469900Y99314D02*
X470154Y99060D01*
X445008D02*
X445770Y99822D01*
X495300Y99060D02*
Y105410D01*
X316396Y113230D02*
Y120144D01*
X316110Y120430D02*
X316396Y120144D01*
X321110Y113499D02*
Y120430D01*
X370840Y100330D02*
Y105410D01*
X369570Y99060D02*
X370840Y100330D01*
X419862Y99060D02*
X420370Y99568D01*
X394716Y99060D02*
X394970Y99314D01*
X311110Y112964D02*
Y120430D01*
X363776Y94536D02*
X368398D01*
X369570Y93364D01*
Y90060D02*
Y93364D01*
X415816Y94536D02*
X419198D01*
X420370Y93364D01*
Y90568D02*
Y93364D01*
X419862Y90060D02*
X420370Y90568D01*
X439310Y94536D02*
X444598D01*
X445770Y93364D01*
Y90822D02*
Y93364D01*
X445008Y90060D02*
X445770Y90822D01*
X466109Y94536D02*
X469998D01*
X471170Y93364D01*
Y91060D02*
Y93364D01*
X470170Y90060D02*
X471170Y91060D01*
X470154Y90060D02*
X470170D01*
X494128Y94536D02*
X495300Y93364D01*
Y90060D02*
Y93364D01*
X495170Y89930D02*
X495300Y90060D01*
X495170Y76200D02*
Y89930D01*
X470154Y90060D02*
X470170Y90044D01*
Y76200D02*
Y90044D01*
X445008Y90060D02*
X445170Y89898D01*
Y76200D02*
Y89898D01*
X419862Y90060D02*
X420170Y89752D01*
Y76200D02*
Y89752D01*
X394716Y90060D02*
X395170Y89606D01*
Y76200D02*
Y89606D01*
X369570Y90060D02*
X370170Y89460D01*
Y76200D02*
Y89460D01*
X892079Y289021D02*
X916401D01*
X883920Y297180D02*
X892079Y289021D01*
X883920Y297180D02*
Y305660D01*
X890420Y302110D02*
X892746Y299784D01*
X890420Y302110D02*
Y305660D01*
X900724Y297936D02*
X915252D01*
X899246Y299415D02*
X900724Y297936D01*
X899246Y299415D02*
Y299784D01*
X896920Y302110D02*
X899246Y299784D01*
X896920Y302110D02*
Y305660D01*
X899616Y292545D02*
X914845D01*
X892746Y299415D02*
X899616Y292545D01*
X892746Y299415D02*
Y299784D01*
X903420Y305660D02*
X915260D01*
X912920Y315160D02*
X919680D01*
X912270Y314510D02*
X912920Y315160D01*
X912270Y334010D02*
X923290D01*
X912270Y321010D02*
X920450D01*
X912270Y327510D02*
X921966D01*
X890420Y362360D02*
X890575Y362515D01*
X887880Y101600D02*
X888645Y100835D01*
Y95605D02*
Y100835D01*
X855570Y353510D02*
Y358238D01*
X854398Y359410D02*
X855570Y358238D01*
X846510Y359410D02*
X854398D01*
X854130Y294640D02*
X859790D01*
X876300Y295910D02*
X876860Y296470D01*
Y305100D01*
X877420Y305660D01*
X876260Y295870D02*
X876300Y295910D01*
X876260Y288330D02*
Y295870D01*
X876220Y288290D02*
X876260Y288330D01*
X1176020Y92710D02*
X1178658D01*
X1172210Y96520D02*
X1176020Y92710D01*
X1172210Y96520D02*
Y99158D01*
X1173900Y87630D02*
X1178560D01*
X1172900Y88630D02*
X1173900Y87630D01*
X1172900Y88630D02*
Y88900D01*
X1178560Y87630D02*
X1179830Y88900D01*
Y91538D01*
X1178658Y92710D02*
X1179830Y91538D01*
X1172210Y99158D02*
X1173382Y100330D01*
X1175940D01*
X1178440Y102830D01*
Y102870D01*
X826868Y85090D02*
X828040Y86262D01*
X822690Y85090D02*
X826868D01*
X821690Y86090D02*
X822690Y85090D01*
X821690Y86090D02*
Y86360D01*
X828040Y86262D02*
Y90268D01*
X826868Y91440D02*
X828040Y90268D01*
X822960Y91440D02*
X826868D01*
X819150Y95250D02*
X822960Y91440D01*
X819150Y95250D02*
Y100330D01*
X820420Y101600D01*
X824110D01*
X825380Y102870D01*
X801060Y94290D02*
Y101600D01*
Y94290D02*
X806990Y88360D01*
X811690D01*
X812690Y87360D01*
Y86360D02*
Y87360D01*
X810380Y102870D02*
X811650Y104140D01*
X907470Y86090D02*
X914130D01*
X915670Y87630D02*
Y90268D01*
X914130Y86090D02*
X915670Y87630D01*
X907470Y86090D02*
Y86360D01*
X914498Y91440D02*
X915670Y90268D01*
X909320Y91440D02*
X914498D01*
X902972Y97788D02*
X909320Y91440D01*
X902972Y97788D02*
Y99444D01*
X904144Y100616D01*
X908216D01*
X910470Y102870D01*
X884070Y119380D02*
X894080D01*
X902970Y110490D01*
Y105312D02*
Y110490D01*
X901798Y104140D02*
X902970Y105312D01*
X896740Y104140D02*
X901798D01*
X895470Y102870D02*
X896740Y104140D01*
X888645Y95605D02*
X890270Y93980D01*
Y91782D02*
Y93980D01*
Y91782D02*
X894422Y87630D01*
X897470D01*
X898470Y86630D01*
Y86360D02*
Y86630D01*
X978034Y88802D02*
X979206Y87630D01*
X981290D01*
X982290Y86630D01*
Y86360D02*
Y86630D01*
X1002128Y101600D02*
X1003300Y100428D01*
X996830Y101600D02*
X1002128D01*
X1003300Y90170D02*
Y100428D01*
X995560Y102870D02*
X996830Y101600D01*
X999490Y86360D02*
X1003300Y90170D01*
X991290Y86360D02*
X999490D01*
X1082040Y88900D02*
X1093470D01*
X1096010Y91440D01*
Y100330D01*
X1093470Y102870D02*
X1096010Y100330D01*
X1085730Y102870D02*
X1093470D01*
X1067532Y90900D02*
X1072040D01*
X1073040Y89900D01*
Y88900D02*
Y89900D01*
X1156970Y90170D02*
Y92708D01*
X1151385Y98292D02*
X1156970Y92708D01*
X1151385Y98292D02*
Y103375D01*
X1150620Y104140D02*
X1151385Y103375D01*
X1156970Y90170D02*
X1158240Y88900D01*
X1163900D01*
D17*
X0Y355600D02*
Y551180D01*
Y0D02*
Y203200D01*
X69850D02*
Y355600D01*
X0D02*
X69850D01*
X1270000Y330200D02*
Y413385D01*
Y137795D02*
Y209550D01*
X1206500D02*
X1270000D01*
X1206500D02*
Y330200D01*
X1270000D01*
Y413385D02*
Y551180D01*
Y0D02*
Y137795D01*
X0Y0D02*
X1270000D01*
X0Y551180D02*
X1270000D01*
D18*
X887650Y524510D02*
D03*
X877650D02*
D03*
X866220Y288290D02*
D03*
X876220D02*
D03*
X379810Y139700D02*
D03*
X389810D02*
D03*
X356950Y176530D02*
D03*
X366950D02*
D03*
X1038940Y504190D02*
D03*
X1048940D02*
D03*
X224790Y248920D02*
D03*
X234790D02*
D03*
X225980Y364490D02*
D03*
X215980D02*
D03*
D19*
X861720Y275590D02*
D03*
X880720D02*
D03*
X835050Y532130D02*
D03*
X854050D02*
D03*
X400660Y313690D02*
D03*
X381660D02*
D03*
X211480Y377190D02*
D03*
X230480D02*
D03*
X311810Y200660D02*
D03*
X330810D02*
D03*
X311810Y217170D02*
D03*
X330810D02*
D03*
D20*
X1125220Y208970D02*
D03*
Y199970D02*
D03*
X264160Y90750D02*
D03*
Y99750D02*
D03*
X239014Y90750D02*
D03*
Y99750D02*
D03*
X213868Y90750D02*
D03*
Y99750D02*
D03*
X188722Y90750D02*
D03*
Y99750D02*
D03*
X163576Y90750D02*
D03*
Y99750D02*
D03*
X138430Y90750D02*
D03*
Y99750D02*
D03*
X495300Y90060D02*
D03*
Y99060D02*
D03*
X470154Y90060D02*
D03*
Y99060D02*
D03*
X445008Y90060D02*
D03*
Y99060D02*
D03*
X419862Y90060D02*
D03*
Y99060D02*
D03*
X394716Y90060D02*
D03*
Y99060D02*
D03*
X369570Y90060D02*
D03*
Y99060D02*
D03*
X551180Y335860D02*
D03*
Y344860D02*
D03*
X548640Y290250D02*
D03*
Y281250D02*
D03*
X12700Y432490D02*
D03*
Y423490D02*
D03*
X13970Y184840D02*
D03*
Y175840D02*
D03*
X1125220Y224210D02*
D03*
Y215210D02*
D03*
X426720Y231720D02*
D03*
Y240720D02*
D03*
X411480D02*
D03*
Y231720D02*
D03*
X271780Y186000D02*
D03*
Y195000D02*
D03*
X459740Y320620D02*
D03*
Y329620D02*
D03*
X280670Y186000D02*
D03*
Y195000D02*
D03*
X419100Y240720D02*
D03*
Y231720D02*
D03*
X1047750Y512970D02*
D03*
Y521970D02*
D03*
X1038860Y522080D02*
D03*
Y513080D02*
D03*
X1137920Y522660D02*
D03*
Y513660D02*
D03*
X933450Y536630D02*
D03*
Y527630D02*
D03*
X922020Y536630D02*
D03*
Y527630D02*
D03*
X911860Y536630D02*
D03*
Y527630D02*
D03*
X822246Y535066D02*
D03*
Y526066D02*
D03*
X812086Y535066D02*
D03*
Y526066D02*
D03*
X801926Y535066D02*
D03*
Y526066D02*
D03*
X789940Y534780D02*
D03*
Y525780D02*
D03*
X778510Y534780D02*
D03*
Y525780D02*
D03*
D21*
X821690Y86360D02*
D03*
X812690D02*
D03*
X907470D02*
D03*
X898470D02*
D03*
X991290D02*
D03*
X982290D02*
D03*
X1082040Y88900D02*
D03*
X1073040D02*
D03*
X1172900D02*
D03*
X1163900D02*
D03*
X889580Y534670D02*
D03*
X898580D02*
D03*
X139360Y264625D02*
D03*
X130360D02*
D03*
X139360Y248517D02*
D03*
X130360D02*
D03*
X139360Y232410D02*
D03*
X130360D02*
D03*
X139360Y280732D02*
D03*
X130360D02*
D03*
X139360Y296839D02*
D03*
X130360D02*
D03*
X139360Y312946D02*
D03*
X130360D02*
D03*
X788780Y311150D02*
D03*
X779780D02*
D03*
X788670Y300990D02*
D03*
X779670D02*
D03*
X788780Y326390D02*
D03*
X779780D02*
D03*
X788670Y285750D02*
D03*
X779670D02*
D03*
X788780Y341630D02*
D03*
X779780D02*
D03*
X788780Y273050D02*
D03*
X779780D02*
D03*
X815340Y311300D02*
D03*
X806340D02*
D03*
X815340Y300990D02*
D03*
X806340D02*
D03*
X815340Y326315D02*
D03*
X806340D02*
D03*
X815340Y285750D02*
D03*
X806340D02*
D03*
X815340Y341630D02*
D03*
X806340D02*
D03*
X815450Y273050D02*
D03*
X806450D02*
D03*
X837510Y359410D02*
D03*
X846510D02*
D03*
X775280Y247650D02*
D03*
X784280D02*
D03*
X845130Y294640D02*
D03*
X854130D02*
D03*
X865560Y250190D02*
D03*
X856560D02*
D03*
X165790Y537210D02*
D03*
X156790D02*
D03*
X244530D02*
D03*
X235530D02*
D03*
X258390Y157480D02*
D03*
X267390D02*
D03*
Y175260D02*
D03*
X258390D02*
D03*
X400740Y243840D02*
D03*
X391740D02*
D03*
X389310Y147320D02*
D03*
X380310D02*
D03*
X400740Y252730D02*
D03*
X391740D02*
D03*
X267390Y166370D02*
D03*
X258390D02*
D03*
X1048440Y495300D02*
D03*
X1039440D02*
D03*
Y474980D02*
D03*
X1048440D02*
D03*
X1106750Y463550D02*
D03*
X1115750D02*
D03*
X1048440Y487680D02*
D03*
X1039440D02*
D03*
X154250Y323850D02*
D03*
X163250D02*
D03*
X871910Y524510D02*
D03*
X862910D02*
D03*
D22*
X551180Y318850D02*
D03*
Y328850D02*
D03*
X643890D02*
D03*
Y318850D02*
D03*
X645160Y295830D02*
D03*
Y285830D02*
D03*
X878840Y248840D02*
D03*
Y238840D02*
D03*
X450850Y330120D02*
D03*
Y320120D02*
D03*
X1139190Y499030D02*
D03*
Y489030D02*
D03*
X217170Y237650D02*
D03*
Y247650D02*
D03*
D28*
X402590Y297830D02*
D03*
Y283830D02*
D03*
Y276240D02*
D03*
Y262240D02*
D03*
X363220Y327010D02*
D03*
Y341010D02*
D03*
X340360Y193690D02*
D03*
Y179690D02*
D03*
X265430Y147970D02*
D03*
Y133970D02*
D03*
D32*
X101840Y264118D02*
D03*
X116840D02*
D03*
X101840Y248011D02*
D03*
X116840D02*
D03*
X101840Y231904D02*
D03*
X116840D02*
D03*
X895470Y102870D02*
D03*
X910470D02*
D03*
X980560D02*
D03*
X995560D02*
D03*
X1070730D02*
D03*
X1085730D02*
D03*
X810380D02*
D03*
X825380D02*
D03*
X1163440D02*
D03*
X1178440D02*
D03*
X101840Y280205D02*
D03*
X116840D02*
D03*
X101840Y296313D02*
D03*
X116840D02*
D03*
X101840Y312420D02*
D03*
X116840D02*
D03*
D35*
X239830Y237490D02*
D03*
X224830D02*
D03*
D36*
X891540Y241910D02*
D03*
Y222910D02*
D03*
X1151890Y504800D02*
D03*
Y485800D02*
D03*
X383540Y281330D02*
D03*
Y300330D02*
D03*
X417830Y186080D02*
D03*
Y205080D02*
D03*
D62*
X481330Y476250D02*
D03*
X455930D02*
D03*
X481330Y501650D02*
D03*
X455930D02*
D03*
X481330Y527050D02*
D03*
X455930D02*
D03*
Y450850D02*
D03*
X481330D02*
D03*
X455930Y425450D02*
D03*
X481330D02*
D03*
X455930Y400050D02*
D03*
X481330D02*
D03*
Y374650D02*
D03*
X455930D02*
D03*
X304800Y447040D02*
D03*
Y421640D02*
D03*
X279400Y447040D02*
D03*
Y421640D02*
D03*
X387350Y447040D02*
D03*
Y421640D02*
D03*
X361950Y447040D02*
D03*
Y421640D02*
D03*
X336550Y447040D02*
D03*
Y421640D02*
D03*
D63*
X1214610Y482310D02*
D03*
Y67310D02*
D03*
X694610D02*
D03*
X574610Y67310D02*
D03*
X694610Y482310D02*
D03*
X574610D02*
D03*
X54610D02*
D03*
Y67310D02*
D03*
D64*
X336550Y494030D02*
D03*
X311150D02*
D03*
X285750D02*
D03*
X336550Y527050D02*
D03*
X311150D02*
D03*
D65*
X285750D02*
D03*
D66*
X1223010Y407670D02*
D03*
X1230630D02*
D03*
X1238250D02*
D03*
X1223010Y394970D02*
D03*
X1230630D02*
D03*
X1238250D02*
D03*
X1223010Y382270D02*
D03*
X1230630D02*
D03*
X1238250D02*
D03*
X1226820Y172720D02*
D03*
X1217930D02*
D03*
X1235710D02*
D03*
X1226820Y160020D02*
D03*
X1217930D02*
D03*
X1235710D02*
D03*
X1226820Y147320D02*
D03*
X1217930D02*
D03*
X1235710D02*
D03*
X1046480Y360680D02*
D03*
X1134110Y295910D02*
D03*
Y287020D02*
D03*
Y303530D02*
D03*
X1160780Y294640D02*
D03*
X1161164Y287116D02*
D03*
X1156970Y280670D02*
D03*
X1158240Y318770D02*
D03*
X1169670Y327660D02*
D03*
X1130300Y340360D02*
D03*
X1134110Y346710D02*
D03*
X1112520Y323850D02*
D03*
Y330200D02*
D03*
X1113790Y207010D02*
D03*
Y213360D02*
D03*
X1104900Y185420D02*
D03*
X1108710Y177800D02*
D03*
X1123950Y185420D02*
D03*
X1125220Y256540D02*
D03*
X1159510Y172720D02*
D03*
X1089660Y262890D02*
D03*
X1163320Y242570D02*
D03*
X1158240Y250190D02*
D03*
X1238250Y369570D02*
D03*
X1230630D02*
D03*
X1223010D02*
D03*
X1235710Y134620D02*
D03*
X1217930D02*
D03*
X1226820D02*
D03*
X822960Y541020D02*
D03*
X811530D02*
D03*
X801370D02*
D03*
X1012301Y463439D02*
D03*
X1018318Y468852D02*
D03*
X1019810Y448310D02*
D03*
X1014730Y441960D02*
D03*
X1004570Y539750D02*
D03*
X1013460D02*
D03*
X1004570Y521970D02*
D03*
X1013460D02*
D03*
X1004570Y530860D02*
D03*
X1013460D02*
D03*
X1004570Y513080D02*
D03*
X1013460D02*
D03*
X872490Y533400D02*
D03*
X844880Y522300D02*
D03*
X896620Y528320D02*
D03*
X1031240Y448276D02*
D03*
X842010Y439420D02*
D03*
X345122Y300355D02*
D03*
X346710Y292100D02*
D03*
X341630Y308610D02*
D03*
X457200Y284480D02*
D03*
X449580D02*
D03*
X556260Y232410D02*
D03*
X506730Y251460D02*
D03*
Y243840D02*
D03*
X514350Y251460D02*
D03*
X548640Y232410D02*
D03*
X506730Y236220D02*
D03*
X514350Y243840D02*
D03*
X534670Y223520D02*
D03*
X579120Y170180D02*
D03*
X514350Y228600D02*
D03*
X506730D02*
D03*
Y213360D02*
D03*
Y220980D02*
D03*
X514350D02*
D03*
X534670Y200660D02*
D03*
X556260Y170180D02*
D03*
X571500Y232410D02*
D03*
X563880D02*
D03*
X570725Y244291D02*
D03*
X541020Y339090D02*
D03*
X527050Y349250D02*
D03*
X488950Y358140D02*
D03*
X496570D02*
D03*
X504190D02*
D03*
X511810D02*
D03*
Y349250D02*
D03*
X519430Y358140D02*
D03*
Y349250D02*
D03*
X496570D02*
D03*
X849422Y287534D02*
D03*
X843935Y302875D02*
D03*
X829310Y295910D02*
D03*
X834834Y289560D02*
D03*
X824230Y306070D02*
D03*
X763270Y259080D02*
D03*
X765810Y247650D02*
D03*
X829310Y342900D02*
D03*
X829511Y354129D02*
D03*
X868776Y295814D02*
D03*
X857250Y302260D02*
D03*
X1014444Y433356D02*
D03*
X1014730Y425450D02*
D03*
X952500Y369570D02*
D03*
Y377993D02*
D03*
X932255Y350445D02*
D03*
X1031240Y474980D02*
D03*
X614680Y167640D02*
D03*
X638810D02*
D03*
X629920Y231140D02*
D03*
X641350D02*
D03*
X629920Y167640D02*
D03*
X622300D02*
D03*
X703580Y186690D02*
D03*
X567690Y213360D02*
D03*
X598170Y280670D02*
D03*
X591820Y274320D02*
D03*
X637540Y295910D02*
D03*
X548640Y297180D02*
D03*
X1136650Y408940D02*
D03*
X1167765Y346710D02*
D03*
X1076960Y372110D02*
D03*
X1080770Y262890D02*
D03*
X321310Y313690D02*
D03*
X285750Y326390D02*
D03*
X312230Y327025D02*
D03*
X607060Y394970D02*
D03*
X615950Y403860D02*
D03*
X607060D02*
D03*
X598170Y394970D02*
D03*
X946150Y406400D02*
D03*
Y398780D02*
D03*
X961390D02*
D03*
X953770D02*
D03*
Y406400D02*
D03*
X231060Y237490D02*
D03*
X289560Y313690D02*
D03*
X1059180Y529590D02*
D03*
Y538480D02*
D03*
X1076960Y529590D02*
D03*
Y538480D02*
D03*
X1068070Y529590D02*
D03*
Y538480D02*
D03*
X1085850Y529590D02*
D03*
Y538480D02*
D03*
X1132840Y487680D02*
D03*
X379180Y355412D02*
D03*
X392430Y355600D02*
D03*
X476250Y195580D02*
D03*
X389890Y292100D02*
D03*
X488950Y349250D02*
D03*
X485236Y177800D02*
D03*
X817880Y149860D02*
D03*
X825500Y144780D02*
D03*
Y156210D02*
D03*
X824230Y167640D02*
D03*
X812800Y166370D02*
D03*
X814070Y130810D02*
D03*
X489729Y168910D02*
D03*
X534670Y215900D02*
D03*
Y231140D02*
D03*
Y208280D02*
D03*
Y193040D02*
D03*
X586740Y170180D02*
D03*
X571500D02*
D03*
X563880D02*
D03*
X480743Y187960D02*
D03*
X812800Y157480D02*
D03*
X816610Y181610D02*
D03*
X822157Y175260D02*
D03*
X833216Y180244D02*
D03*
X943590Y231140D02*
D03*
X416560Y132080D02*
D03*
X424180D02*
D03*
Y138430D02*
D03*
X416560D02*
D03*
X847090Y137160D02*
D03*
X935990Y153670D02*
D03*
X929640D02*
D03*
X1003300Y157480D02*
D03*
X995680D02*
D03*
X988060D02*
D03*
X980440D02*
D03*
X414020Y346710D02*
D03*
X407670D02*
D03*
X414020Y340360D02*
D03*
X407670D02*
D03*
X323850Y139700D02*
D03*
Y146050D02*
D03*
X294640Y147320D02*
D03*
Y139700D02*
D03*
X457200Y278130D02*
D03*
X449580D02*
D03*
X414020Y332740D02*
D03*
X445770Y342900D02*
D03*
X326390Y177800D02*
D03*
X411480Y297180D02*
D03*
Y276860D02*
D03*
X445770Y247650D02*
D03*
X355600Y535940D02*
D03*
X871220Y238760D02*
D03*
X1163320Y132080D02*
D03*
X913130Y139700D02*
D03*
X1073175Y131445D02*
D03*
X985520Y129540D02*
D03*
X900430Y132080D02*
D03*
X783590Y264160D02*
D03*
X800100Y279400D02*
D03*
X770890Y259080D02*
D03*
X877570Y200660D02*
D03*
X44450Y151130D02*
D03*
X321310Y215900D02*
D03*
X306070Y177800D02*
D03*
X13970Y170641D02*
D03*
X12700Y418071D02*
D03*
X229426Y537210D02*
D03*
X39370Y397510D02*
D03*
X250190Y537210D02*
D03*
X12700Y438150D02*
D03*
X13970Y190500D02*
D03*
X312420Y52070D02*
D03*
Y67310D02*
D03*
X782320Y91440D02*
D03*
X798830Y125730D02*
D03*
X889000Y76200D02*
D03*
X869950Y91440D02*
D03*
X866140Y124460D02*
D03*
X1132840Y95250D02*
D03*
X1148080Y121920D02*
D03*
X1129030Y127000D02*
D03*
X1046480Y93980D02*
D03*
X1060450Y104140D02*
D03*
Y113030D02*
D03*
X1059180Y124460D02*
D03*
X970280Y120650D02*
D03*
X951230Y128270D02*
D03*
X971550Y102870D02*
D03*
X983940Y59690D02*
D03*
X974090Y77470D02*
D03*
X641350Y533400D02*
D03*
Y524510D02*
D03*
X623570Y533400D02*
D03*
Y524510D02*
D03*
X632460Y533400D02*
D03*
Y524510D02*
D03*
X614680Y533400D02*
D03*
Y524510D02*
D03*
X624840Y403860D02*
D03*
Y394970D02*
D03*
X615950D02*
D03*
X598170Y403860D02*
D03*
X643890D02*
D03*
Y394970D02*
D03*
X635000Y403860D02*
D03*
Y394970D02*
D03*
X236220Y129540D02*
D03*
Y135890D02*
D03*
X243840Y129540D02*
D03*
Y135890D02*
D03*
X406400Y205740D02*
D03*
X367625Y169565D02*
D03*
X252730Y157480D02*
D03*
X274320Y147320D02*
D03*
X213868Y105410D02*
D03*
X239014D02*
D03*
X138430D02*
D03*
X163576D02*
D03*
X188722D02*
D03*
X264160D02*
D03*
X470408D02*
D03*
X445516D02*
D03*
X495300D02*
D03*
X370840D02*
D03*
X420624D02*
D03*
X395732D02*
D03*
X1078230Y251460D02*
D03*
X1054100Y360680D02*
D03*
X1035050Y303530D02*
D03*
Y293370D02*
D03*
Y283210D02*
D03*
X1159510Y182880D02*
D03*
X1160780Y191770D02*
D03*
X1167755Y189408D02*
D03*
X1173480Y232410D02*
D03*
X1163320Y229403D02*
D03*
X1109980Y233680D02*
D03*
X1169670Y318770D02*
D03*
X1177290Y326390D02*
D03*
X1164590Y302260D02*
D03*
X1170940Y297180D02*
D03*
X1076960Y361950D02*
D03*
X527050Y358140D02*
D03*
X1175385Y346710D02*
D03*
X1158018Y373577D02*
D03*
X1150620Y369570D02*
D03*
X1160780Y162560D02*
D03*
X1076195Y228721D02*
D03*
X1037590Y195580D02*
D03*
X866140Y219710D02*
D03*
X878840D02*
D03*
X1097280Y133350D02*
D03*
X1008380Y212090D02*
D03*
X1037590Y207010D02*
D03*
X1018540Y107950D02*
D03*
X928370Y96520D02*
D03*
X887880Y110490D02*
D03*
X843280Y95250D02*
D03*
X801060Y110490D02*
D03*
X755650Y95250D02*
D03*
X640080D02*
D03*
X887880Y101600D02*
D03*
X1018540Y115570D02*
D03*
X1179830Y114300D02*
D03*
X1037590Y237490D02*
D03*
Y215900D02*
D03*
Y226060D02*
D03*
X1008380Y229870D02*
D03*
Y223520D02*
D03*
Y205740D02*
D03*
X876300Y295910D02*
D03*
X1056640Y273050D02*
D03*
X1013460Y276860D02*
D03*
Y283210D02*
D03*
X1021080Y276860D02*
D03*
Y283210D02*
D03*
X655320Y231140D02*
D03*
X662940D02*
D03*
X670560D02*
D03*
X1150620Y104140D02*
D03*
Y88900D02*
D03*
X558800Y373380D02*
D03*
Y382270D02*
D03*
X576580Y373380D02*
D03*
Y382270D02*
D03*
X567690Y373380D02*
D03*
Y382270D02*
D03*
X585470Y373380D02*
D03*
Y382270D02*
D03*
X640080Y50800D02*
D03*
Y59690D02*
D03*
Y68580D02*
D03*
Y77470D02*
D03*
Y86360D02*
D03*
Y102870D02*
D03*
X618490Y49530D02*
D03*
Y58420D02*
D03*
Y67310D02*
D03*
Y76200D02*
D03*
Y85090D02*
D03*
Y93980D02*
D03*
Y101600D02*
D03*
X541020Y13970D02*
D03*
X549910D02*
D03*
X558800D02*
D03*
X567690D02*
D03*
X576580D02*
D03*
X585470D02*
D03*
X593090D02*
D03*
X541020Y22860D02*
D03*
X549910D02*
D03*
X558800D02*
D03*
X567690D02*
D03*
X576580D02*
D03*
X585470D02*
D03*
X593090D02*
D03*
X690880Y16510D02*
D03*
X681990D02*
D03*
X673100D02*
D03*
X664210D02*
D03*
X655320D02*
D03*
X646430D02*
D03*
X638810D02*
D03*
X690880Y25400D02*
D03*
X681990D02*
D03*
X673100D02*
D03*
X664210D02*
D03*
X655320D02*
D03*
X646430D02*
D03*
X638810D02*
D03*
X504190Y349250D02*
D03*
X514350Y213360D02*
D03*
Y236220D02*
D03*
X693420Y231140D02*
D03*
X685800D02*
D03*
X678180D02*
D03*
X711200Y214630D02*
D03*
Y222250D02*
D03*
Y229870D02*
D03*
X755650Y111760D02*
D03*
Y104140D02*
D03*
Y86360D02*
D03*
Y77470D02*
D03*
Y68580D02*
D03*
Y59690D02*
D03*
X811530Y58420D02*
D03*
X801060Y101600D02*
D03*
Y86360D02*
D03*
X797250Y119380D02*
D03*
X800100Y67310D02*
D03*
Y58420D02*
D03*
Y76200D02*
D03*
X843280Y59690D02*
D03*
Y68580D02*
D03*
Y77470D02*
D03*
Y86360D02*
D03*
Y104140D02*
D03*
Y111760D02*
D03*
X889000Y67310D02*
D03*
X900430Y58420D02*
D03*
X887880Y86360D02*
D03*
X884070Y119380D02*
D03*
X889000Y58420D02*
D03*
X1004570Y110490D02*
D03*
X928370Y113030D02*
D03*
Y105410D02*
D03*
Y87630D02*
D03*
Y78740D02*
D03*
Y69850D02*
D03*
Y60960D02*
D03*
X973780Y68580D02*
D03*
X1018540Y63500D02*
D03*
Y72390D02*
D03*
Y81280D02*
D03*
Y90170D02*
D03*
Y99060D02*
D03*
X1061720Y60960D02*
D03*
X1073150D02*
D03*
X1061720Y69850D02*
D03*
Y78740D02*
D03*
X1059180Y88900D02*
D03*
X1038860Y129540D02*
D03*
X973780Y59690D02*
D03*
X971550Y111760D02*
D03*
X972510Y87630D02*
D03*
X1106170Y114300D02*
D03*
Y106680D02*
D03*
Y97790D02*
D03*
Y88900D02*
D03*
Y80010D02*
D03*
Y71120D02*
D03*
Y62230D02*
D03*
X1150620Y113030D02*
D03*
X1151890Y78740D02*
D03*
Y69850D02*
D03*
X1163320Y60960D02*
D03*
X1151890D02*
D03*
X1009650Y398780D02*
D03*
Y392430D02*
D03*
X1017270Y398780D02*
D03*
Y392430D02*
D03*
X976630Y406400D02*
D03*
X984250D02*
D03*
X991870D02*
D03*
X999490D02*
D03*
X961390D02*
D03*
X969010D02*
D03*
X976630Y398780D02*
D03*
X984250D02*
D03*
X991870D02*
D03*
X999490D02*
D03*
X969010D02*
D03*
X1003300Y151130D02*
D03*
X995680D02*
D03*
X988060D02*
D03*
X980440D02*
D03*
X972820Y232410D02*
D03*
X960120Y251460D02*
D03*
D69*
X178160Y332230D02*
D03*
Y324230D02*
D03*
Y316230D02*
D03*
Y308230D02*
D03*
Y300230D02*
D03*
Y292230D02*
D03*
Y284230D02*
D03*
Y276230D02*
D03*
X264160D02*
D03*
Y284230D02*
D03*
Y292230D02*
D03*
Y300230D02*
D03*
Y308230D02*
D03*
Y316230D02*
D03*
Y324230D02*
D03*
Y332230D02*
D03*
D70*
X193160Y261230D02*
D03*
X201160D02*
D03*
X209160D02*
D03*
X217160D02*
D03*
X225160D02*
D03*
X233160D02*
D03*
X241160D02*
D03*
X249160D02*
D03*
Y347230D02*
D03*
X241160D02*
D03*
X233160D02*
D03*
X225160D02*
D03*
X217160D02*
D03*
X209160D02*
D03*
X201160D02*
D03*
X193160D02*
D03*
D71*
X1120396Y306340D02*
D03*
X1126760Y299976D02*
D03*
X1119498Y319412D02*
D03*
X1125862Y313048D02*
D03*
D72*
X866760Y534670D02*
D03*
X880760D02*
D03*
X448960Y237490D02*
D03*
X434960D02*
D03*
X305450Y186690D02*
D03*
X291450D02*
D03*
X327040D02*
D03*
X313040D02*
D03*
D73*
X370080Y535300D02*
D03*
X402080D02*
D03*
Y518800D02*
D03*
X370080D02*
D03*
D74*
X820420Y220980D02*
D03*
D75*
X792070Y201480D02*
D03*
Y207980D02*
D03*
Y214480D02*
D03*
Y220980D02*
D03*
Y227480D02*
D03*
Y233980D02*
D03*
Y240480D02*
D03*
X848770D02*
D03*
Y233980D02*
D03*
Y227480D02*
D03*
Y220980D02*
D03*
Y214480D02*
D03*
Y207980D02*
D03*
Y201480D02*
D03*
X855570Y314510D02*
D03*
Y321010D02*
D03*
Y327510D02*
D03*
Y334010D02*
D03*
Y340510D02*
D03*
Y347010D02*
D03*
Y353510D02*
D03*
X912270D02*
D03*
Y347010D02*
D03*
Y340510D02*
D03*
Y334010D02*
D03*
Y327510D02*
D03*
Y321010D02*
D03*
Y314510D02*
D03*
D76*
X839920Y192630D02*
D03*
X833420D02*
D03*
X826920D02*
D03*
X820420D02*
D03*
X813920D02*
D03*
X807420D02*
D03*
X800920D02*
D03*
Y249330D02*
D03*
X807420D02*
D03*
X813920D02*
D03*
X820420D02*
D03*
X826920D02*
D03*
X833420D02*
D03*
X839920D02*
D03*
X903420Y305660D02*
D03*
X896920D02*
D03*
X890420D02*
D03*
X883920D02*
D03*
X877420D02*
D03*
X870920D02*
D03*
X864420D02*
D03*
Y362360D02*
D03*
X870920D02*
D03*
X877420D02*
D03*
X883920D02*
D03*
X890420D02*
D03*
X896920D02*
D03*
X903420D02*
D03*
D77*
X620360Y355600D02*
D03*
Y342900D02*
D03*
Y317500D02*
D03*
X568360Y355600D02*
D03*
Y342900D02*
D03*
Y317500D02*
D03*
X620360Y330200D02*
D03*
X568360D02*
D03*
X1066200Y474980D02*
D03*
Y487680D02*
D03*
Y513080D02*
D03*
X1118200Y474980D02*
D03*
Y487680D02*
D03*
Y513080D02*
D03*
X1066200Y500380D02*
D03*
X1118200D02*
D03*
D78*
X567690Y258010D02*
D03*
Y270510D02*
D03*
Y296010D02*
D03*
X621190D02*
D03*
Y283510D02*
D03*
Y270510D02*
D03*
Y258010D02*
D03*
D79*
X570440Y283510D02*
D03*
D80*
X103030Y43200D02*
D03*
X287530D02*
D03*
X334170D02*
D03*
X518670D02*
D03*
X1156970Y36830D02*
D03*
X1097470D02*
D03*
X1069340D02*
D03*
X1009840D02*
D03*
X894080D02*
D03*
X834580D02*
D03*
X981710Y36830D02*
D03*
X922210D02*
D03*
X806450D02*
D03*
X746950D02*
D03*
X754470Y473730D02*
D03*
X976470D02*
D03*
X245650Y491510D02*
D03*
X186150D02*
D03*
X167010D02*
D03*
X107510D02*
D03*
D81*
X126530Y76200D02*
D03*
X139030D02*
D03*
X164030D02*
D03*
X151530D02*
D03*
X201530D02*
D03*
X214030D02*
D03*
X189030D02*
D03*
X176530D02*
D03*
X239030D02*
D03*
X226530D02*
D03*
X251530D02*
D03*
X264030D02*
D03*
X357670D02*
D03*
X370170D02*
D03*
X395170D02*
D03*
X382670D02*
D03*
X432670D02*
D03*
X445170D02*
D03*
X420170D02*
D03*
X407670D02*
D03*
X470170D02*
D03*
X457670D02*
D03*
X482670D02*
D03*
X495170D02*
D03*
X1133470Y69830D02*
D03*
X1120970D02*
D03*
X1045840D02*
D03*
X1033340D02*
D03*
X870580D02*
D03*
X858080D02*
D03*
X958210Y69830D02*
D03*
X945710D02*
D03*
X782950D02*
D03*
X770450D02*
D03*
X777970Y506730D02*
D03*
X790470D02*
D03*
X815470D02*
D03*
X802970D02*
D03*
X852970D02*
D03*
X865470D02*
D03*
X840470D02*
D03*
X827970D02*
D03*
X890470D02*
D03*
X877970D02*
D03*
X940470D02*
D03*
X952970D02*
D03*
X902970D02*
D03*
X927970D02*
D03*
X915470D02*
D03*
X222150Y524510D02*
D03*
X209650D02*
D03*
X143510D02*
D03*
X131010D02*
D03*
D82*
X447040Y280670D02*
D03*
D83*
X429540Y256320D02*
D03*
X434540D02*
D03*
X439540D02*
D03*
X444540D02*
D03*
X449540D02*
D03*
X454540D02*
D03*
X459540D02*
D03*
X464540D02*
D03*
Y305020D02*
D03*
X459540D02*
D03*
X454540D02*
D03*
X449540D02*
D03*
X444540D02*
D03*
X439540D02*
D03*
X434540D02*
D03*
X429540D02*
D03*
X326110Y169130D02*
D03*
X321110D02*
D03*
X316110D02*
D03*
X311110D02*
D03*
X306110D02*
D03*
X301110D02*
D03*
X296110D02*
D03*
X291110D02*
D03*
Y120430D02*
D03*
X296110D02*
D03*
X301110D02*
D03*
X306110D02*
D03*
X311110D02*
D03*
X316110D02*
D03*
X321110D02*
D03*
X326110D02*
D03*
D84*
X422690Y298170D02*
D03*
Y293170D02*
D03*
Y288170D02*
D03*
Y283170D02*
D03*
Y278170D02*
D03*
Y273170D02*
D03*
Y268170D02*
D03*
Y263170D02*
D03*
X471390D02*
D03*
Y268170D02*
D03*
Y273170D02*
D03*
Y278170D02*
D03*
Y283170D02*
D03*
Y288170D02*
D03*
Y293170D02*
D03*
Y298170D02*
D03*
X284260Y162280D02*
D03*
Y157280D02*
D03*
Y152280D02*
D03*
Y147280D02*
D03*
Y142280D02*
D03*
Y137280D02*
D03*
Y132280D02*
D03*
Y127280D02*
D03*
X332960D02*
D03*
Y132280D02*
D03*
Y137280D02*
D03*
Y142280D02*
D03*
Y147280D02*
D03*
Y152280D02*
D03*
Y157280D02*
D03*
Y162280D02*
D03*
D85*
X431300Y325210D02*
D03*
X424799Y343210D02*
D03*
X437799D02*
D03*
X424799Y325210D02*
D03*
X437799D02*
D03*
X361620Y142385D02*
D03*
X355120Y160385D02*
D03*
X368120D02*
D03*
X355120Y142385D02*
D03*
X368120D02*
D03*
D86*
X395270Y369700D02*
D03*
X388770D02*
D03*
X382270D02*
D03*
X375770D02*
D03*
X395270Y330200D02*
D03*
X388770D02*
D03*
X382270D02*
D03*
X375770D02*
D03*
D87*
X314260Y338770D02*
D03*
Y298770D02*
D03*
X290260D02*
D03*
Y338770D02*
D03*
D88*
X394970Y212240D02*
D03*
Y205740D02*
D03*
Y199240D02*
D03*
Y192740D02*
D03*
X355470Y212240D02*
D03*
Y205740D02*
D03*
Y199240D02*
D03*
Y192740D02*
D03*
D89*
X308610Y144780D02*
D03*
D90*
X883920Y334010D02*
D03*
D91*
X26690Y164270D02*
D03*
Y151770D02*
D03*
X24130Y410210D02*
D03*
Y397710D02*
D03*
X1251458Y407570D02*
D03*
Y395070D02*
D03*
Y370070D02*
D03*
Y382570D02*
D03*
Y172620D02*
D03*
Y160120D02*
D03*
Y135120D02*
D03*
Y147620D02*
D03*
D92*
X59690Y187770D02*
D03*
Y128270D02*
D03*
X57130Y433710D02*
D03*
Y374210D02*
D03*
X1218458Y346570D02*
D03*
Y431070D02*
D03*
Y111620D02*
D03*
Y196120D02*
D03*
M02*
