G04*
G04 #@! TF.GenerationSoftware,Altium Limited,Altium Designer,18.1.9 (240)*
G04*
G04 Layer_Color=16711935*
%FSLAX44Y44*%
%MOMM*%
G71*
G01*
G75*
%ADD20C,0.1520*%
%ADD21R,0.6000X0.4000*%
%ADD24R,0.4000X0.6000*%
%ADD29R,0.4500X0.6000*%
%ADD30R,0.6000X0.4500*%
%ADD55R,0.7000X1.3000*%
%ADD78R,1.9016X0.8016*%
%ADD79R,2.3016X1.7016*%
%ADD83R,1.3216X0.7016*%
%ADD100R,0.4516X0.9516*%
%ADD117C,0.1016*%
%ADD118C,1.6016*%
%ADD119R,1.6016X1.6016*%
%ADD120C,2.6924*%
%ADD121C,1.3716*%
%ADD122C,1.6516*%
%ADD123R,1.6516X1.6516*%
%ADD124C,5.6016*%
%ADD125C,1.6256*%
%ADD126R,1.6256X1.6256*%
%ADD127C,1.1684*%
%ADD128O,1.6096X3.1176*%
%ADD129C,1.7016*%
%ADD130O,3.1176X1.6096*%
%ADD131C,2.8956*%
%ADD171R,1.3116X0.6916*%
%ADD172R,4.0616X4.0616*%
%ADD173R,5.1816X5.1816*%
%ADD174R,1.1016X0.7016*%
%ADD175R,1.9016X1.3516*%
%ADD176R,1.5016X0.4516*%
%ADD177R,0.8016X1.9016*%
%ADD178R,1.7016X2.3016*%
%ADD179R,0.6016X0.6616*%
%ADD180R,2.0116X10.9016*%
%ADD181R,5.1816X8.4316*%
%ADD182R,2.9016X1.1516*%
%ADD183R,0.9016X1.0016*%
%ADD184R,0.9016X0.6516*%
%ADD185R,1.3516X1.0016*%
%ADD186R,0.8516X1.0016*%
%ADD187R,0.6516X0.6516*%
G36*
X780740Y374960D02*
X774340D01*
Y381960D01*
X780740D01*
Y374960D01*
D02*
G37*
G36*
X774240D02*
X767840D01*
Y381960D01*
X774240D01*
Y374960D01*
D02*
G37*
G36*
X767740D02*
X761340D01*
Y381960D01*
X767740D01*
Y374960D01*
D02*
G37*
G36*
X761240D02*
X754840D01*
Y381960D01*
X761240D01*
Y374960D01*
D02*
G37*
G36*
X784808Y350552D02*
X780740D01*
Y345560D01*
X774340D01*
Y350552D01*
X774240D01*
Y345560D01*
X767840D01*
Y350552D01*
X767740D01*
Y345560D01*
X761340D01*
Y350552D01*
X761240D01*
Y345560D01*
X754840D01*
Y350552D01*
X750772D01*
Y370872D01*
X784808D01*
Y350552D01*
D02*
G37*
G36*
X804418Y461062D02*
X800350D01*
Y456070D01*
X793950D01*
Y461062D01*
X793850D01*
Y456070D01*
X787450D01*
Y461062D01*
X787350D01*
Y456070D01*
X780950D01*
Y461062D01*
X780850D01*
Y456070D01*
X774450D01*
Y461062D01*
X770382D01*
Y481382D01*
X804418D01*
Y461062D01*
D02*
G37*
G36*
X774450Y485470D02*
Y492470D01*
X780850D01*
Y485470D01*
X774450D01*
D02*
G37*
G36*
X780950D02*
Y492470D01*
X787350D01*
Y485470D01*
X780950D01*
D02*
G37*
G36*
X787450D02*
Y492470D01*
X793850D01*
Y485470D01*
X787450D01*
D02*
G37*
G36*
X793950D02*
Y492470D01*
X800350D01*
Y485470D01*
X793950D01*
D02*
G37*
G36*
X804118Y569722D02*
X800050D01*
Y564730D01*
X793650D01*
Y569722D01*
X793550D01*
Y564730D01*
X787150D01*
Y569722D01*
X787050D01*
Y564730D01*
X780650D01*
Y569722D01*
X780550D01*
Y564730D01*
X774150D01*
Y569722D01*
X770082D01*
Y590042D01*
X804118D01*
Y569722D01*
D02*
G37*
G36*
X774150Y594130D02*
Y601130D01*
X780550D01*
Y594130D01*
X774150D01*
D02*
G37*
G36*
X780650D02*
Y601130D01*
X787050D01*
Y594130D01*
X780650D01*
D02*
G37*
G36*
X787150D02*
Y601130D01*
X793550D01*
Y594130D01*
X787150D01*
D02*
G37*
G36*
X793650D02*
Y601130D01*
X800050D01*
Y594130D01*
X793650D01*
D02*
G37*
G36*
X801789Y681482D02*
X797721D01*
Y676490D01*
X791321D01*
Y681482D01*
X791221D01*
Y676490D01*
X784821D01*
Y681482D01*
X784721D01*
Y676490D01*
X778321D01*
Y681482D01*
X778221D01*
Y676490D01*
X771821D01*
Y681482D01*
X767753D01*
Y701802D01*
X801789D01*
Y681482D01*
D02*
G37*
G36*
X771821Y705890D02*
Y712890D01*
X778221D01*
Y705890D01*
X771821D01*
D02*
G37*
G36*
X778321D02*
Y712890D01*
X784721D01*
Y705890D01*
X778321D01*
D02*
G37*
G36*
X784821D02*
Y712890D01*
X791221D01*
Y705890D01*
X784821D01*
D02*
G37*
G36*
X791321D02*
Y712890D01*
X797721D01*
Y705890D01*
X791321D01*
D02*
G37*
D20*
X958850Y363220D02*
Y901700D01*
X0D02*
X958850D01*
X0Y0D02*
Y901700D01*
Y0D02*
X958850D01*
Y218440D01*
X914400D02*
X958850D01*
X914400D02*
Y363220D01*
X958850D01*
D21*
X903355Y112358D02*
D03*
Y121358D02*
D03*
Y95158D02*
D03*
Y104158D02*
D03*
D24*
X624548Y193040D02*
D03*
X633548D02*
D03*
X610465Y180340D02*
D03*
X601465D02*
D03*
D29*
X203500Y348344D02*
D03*
X193500D02*
D03*
X203660Y357964D02*
D03*
X193660D02*
D03*
D30*
X822975Y377444D02*
D03*
Y387444D02*
D03*
X845875Y489629D02*
D03*
Y499629D02*
D03*
X846540Y596622D02*
D03*
Y606622D02*
D03*
X843280Y707202D02*
D03*
Y717201D02*
D03*
X464820Y480140D02*
D03*
Y490140D02*
D03*
X474980Y480140D02*
D03*
Y490140D02*
D03*
D55*
X803300Y350520D02*
D03*
X822300D02*
D03*
X823260Y460056D02*
D03*
X842260D02*
D03*
X821080Y678180D02*
D03*
X840080D02*
D03*
X826160Y568960D02*
D03*
X845160D02*
D03*
D78*
X846582Y347050D02*
D03*
Y359550D02*
D03*
Y384550D02*
D03*
Y372050D02*
D03*
X866902Y673300D02*
D03*
Y685800D02*
D03*
Y710800D02*
D03*
Y698300D02*
D03*
Y565290D02*
D03*
Y577790D02*
D03*
Y602790D02*
D03*
Y590290D02*
D03*
Y457307D02*
D03*
Y469807D02*
D03*
Y494807D02*
D03*
Y482307D02*
D03*
D79*
X879582Y408050D02*
D03*
Y323550D02*
D03*
X899902Y734300D02*
D03*
Y649800D02*
D03*
Y626290D02*
D03*
Y541790D02*
D03*
Y518307D02*
D03*
Y433807D02*
D03*
D83*
X579500Y151740D02*
D03*
Y142240D02*
D03*
Y132740D02*
D03*
X554600D02*
D03*
Y151740D02*
D03*
X579500Y184680D02*
D03*
Y175180D02*
D03*
Y165680D02*
D03*
X554600D02*
D03*
Y184680D02*
D03*
D100*
X819000Y695120D02*
D03*
X825500D02*
D03*
X832000D02*
D03*
Y717120D02*
D03*
X825500D02*
D03*
X819000D02*
D03*
X822960Y499709D02*
D03*
X829460D02*
D03*
X835960D02*
D03*
Y477709D02*
D03*
X829460D02*
D03*
X822960D02*
D03*
X801200Y390032D02*
D03*
X807700D02*
D03*
X814200D02*
D03*
Y368032D02*
D03*
X807700D02*
D03*
X801200D02*
D03*
X823720Y607210D02*
D03*
X830220D02*
D03*
X836720D02*
D03*
Y585210D02*
D03*
X830220D02*
D03*
X823720D02*
D03*
D117*
X328900Y444700D02*
D03*
Y508700D02*
D03*
D118*
X173960Y101384D02*
D03*
D119*
Y75984D02*
D03*
D120*
X720950Y269680D02*
D03*
Y311590D02*
D03*
D121*
X565700Y680720D02*
D03*
X591100D02*
D03*
X565700Y706120D02*
D03*
X591100D02*
D03*
X565700Y731520D02*
D03*
X591100D02*
D03*
X728980Y803659D02*
D03*
Y778259D02*
D03*
X754380Y803659D02*
D03*
Y778259D02*
D03*
X779780Y803659D02*
D03*
Y778259D02*
D03*
X356300Y850900D02*
D03*
Y876300D02*
D03*
X330900Y850900D02*
D03*
Y876300D02*
D03*
X305500Y850900D02*
D03*
Y876300D02*
D03*
X261620Y848580D02*
D03*
Y873980D02*
D03*
X236220Y848580D02*
D03*
Y873980D02*
D03*
D122*
X125700Y774800D02*
D03*
Y749400D02*
D03*
Y724000D02*
D03*
Y698600D02*
D03*
Y673200D02*
D03*
Y647800D02*
D03*
Y622400D02*
D03*
Y597000D02*
D03*
Y571600D02*
D03*
Y546200D02*
D03*
Y520800D02*
D03*
Y495400D02*
D03*
Y470000D02*
D03*
Y444600D02*
D03*
Y419200D02*
D03*
Y393800D02*
D03*
Y368400D02*
D03*
Y343000D02*
D03*
Y317600D02*
D03*
Y292200D02*
D03*
Y266800D02*
D03*
Y241400D02*
D03*
Y216000D02*
D03*
Y190600D02*
D03*
Y165200D02*
D03*
Y139800D02*
D03*
X100300Y774800D02*
D03*
Y749400D02*
D03*
Y724000D02*
D03*
Y698600D02*
D03*
Y673200D02*
D03*
Y647800D02*
D03*
Y622400D02*
D03*
Y597000D02*
D03*
Y571600D02*
D03*
Y546200D02*
D03*
Y520800D02*
D03*
Y495400D02*
D03*
Y470000D02*
D03*
Y444600D02*
D03*
Y419200D02*
D03*
Y393800D02*
D03*
Y368400D02*
D03*
Y343000D02*
D03*
Y317600D02*
D03*
Y292200D02*
D03*
Y266800D02*
D03*
Y241400D02*
D03*
Y216000D02*
D03*
Y190600D02*
D03*
Y165200D02*
D03*
X50800D02*
D03*
Y190600D02*
D03*
Y216000D02*
D03*
Y241400D02*
D03*
Y266800D02*
D03*
Y292200D02*
D03*
Y317600D02*
D03*
Y343000D02*
D03*
Y368400D02*
D03*
Y393800D02*
D03*
Y419200D02*
D03*
Y444600D02*
D03*
Y470000D02*
D03*
Y495400D02*
D03*
Y520800D02*
D03*
Y546200D02*
D03*
Y571600D02*
D03*
Y597000D02*
D03*
Y622400D02*
D03*
Y647800D02*
D03*
Y673200D02*
D03*
Y698600D02*
D03*
Y724000D02*
D03*
Y749400D02*
D03*
Y774800D02*
D03*
X76200Y139800D02*
D03*
Y165200D02*
D03*
Y190600D02*
D03*
Y216000D02*
D03*
Y241400D02*
D03*
Y266800D02*
D03*
Y292200D02*
D03*
Y317600D02*
D03*
Y343000D02*
D03*
Y368400D02*
D03*
Y393800D02*
D03*
Y419200D02*
D03*
Y444600D02*
D03*
Y470000D02*
D03*
Y495400D02*
D03*
Y520800D02*
D03*
Y546200D02*
D03*
Y571600D02*
D03*
Y597000D02*
D03*
Y622400D02*
D03*
Y647800D02*
D03*
Y673200D02*
D03*
Y698600D02*
D03*
Y724000D02*
D03*
Y749400D02*
D03*
Y774800D02*
D03*
D123*
X100300Y139800D02*
D03*
X50800D02*
D03*
D124*
X908100Y50800D02*
D03*
Y850900D02*
D03*
X450000Y776700D02*
D03*
X200000D02*
D03*
X450000Y276700D02*
D03*
X200000D02*
D03*
X50800Y825500D02*
D03*
Y88900D02*
D03*
D125*
X406400Y844550D02*
D03*
X431800D02*
D03*
X457200D02*
D03*
X406400Y877570D02*
D03*
X431800D02*
D03*
D126*
X457200D02*
D03*
D127*
X483300Y94200D02*
D03*
X470600D02*
D03*
X457900D02*
D03*
X445200D02*
D03*
X432500D02*
D03*
X419800D02*
D03*
X407100D02*
D03*
X394400D02*
D03*
X381700D02*
D03*
X369000D02*
D03*
X356300D02*
D03*
X343600D02*
D03*
X330900D02*
D03*
X476950Y68800D02*
D03*
X464250D02*
D03*
X451550D02*
D03*
X438850D02*
D03*
X426150D02*
D03*
X413450D02*
D03*
X400750D02*
D03*
X388050D02*
D03*
X375350D02*
D03*
X362650D02*
D03*
X349950D02*
D03*
X337250D02*
D03*
D128*
X666740Y80480D02*
D03*
X591740D02*
D03*
X691740D02*
D03*
D129*
X591740Y30480D02*
D03*
X691740D02*
D03*
X641740Y80480D02*
D03*
D130*
Y30480D02*
D03*
D131*
X284545Y56100D02*
D03*
X529655D02*
D03*
D171*
X789690Y243460D02*
D03*
Y252960D02*
D03*
Y262460D02*
D03*
X814790D02*
D03*
Y243460D02*
D03*
X789370Y282620D02*
D03*
Y292120D02*
D03*
Y301620D02*
D03*
X814470D02*
D03*
Y282620D02*
D03*
D172*
X325000Y604774D02*
D03*
D173*
X171350Y604264D02*
D03*
X478650D02*
D03*
D174*
X842260Y209000D02*
D03*
Y194000D02*
D03*
Y224000D02*
D03*
Y239000D02*
D03*
Y254000D02*
D03*
Y269000D02*
D03*
D175*
X894160Y167950D02*
D03*
Y295050D02*
D03*
D176*
X509840Y819483D02*
D03*
Y825983D02*
D03*
Y832483D02*
D03*
Y838983D02*
D03*
Y845483D02*
D03*
Y851983D02*
D03*
Y858483D02*
D03*
Y864983D02*
D03*
X563840Y819483D02*
D03*
Y825983D02*
D03*
Y832483D02*
D03*
Y838983D02*
D03*
Y845483D02*
D03*
Y851983D02*
D03*
Y858483D02*
D03*
Y864983D02*
D03*
D177*
X272960Y124000D02*
D03*
X260460D02*
D03*
X285460D02*
D03*
X235460D02*
D03*
X247960D02*
D03*
X310460D02*
D03*
X297960D02*
D03*
X360460D02*
D03*
X347960D02*
D03*
X322960D02*
D03*
X335460D02*
D03*
X385460D02*
D03*
X372960D02*
D03*
X397960D02*
D03*
X410460D02*
D03*
D178*
X211960Y157000D02*
D03*
X433960D02*
D03*
D179*
X758040Y378460D02*
D03*
X764540D02*
D03*
X771040D02*
D03*
X777540D02*
D03*
Y349060D02*
D03*
X771040D02*
D03*
X764540D02*
D03*
X758040D02*
D03*
X777650Y488970D02*
D03*
X784150D02*
D03*
X790650D02*
D03*
X797150D02*
D03*
Y459570D02*
D03*
X790650D02*
D03*
X784150D02*
D03*
X777650D02*
D03*
X775021Y709390D02*
D03*
X781521D02*
D03*
X788021D02*
D03*
X794521D02*
D03*
Y679990D02*
D03*
X788021D02*
D03*
X781521D02*
D03*
X775021D02*
D03*
X777350Y597630D02*
D03*
X783850D02*
D03*
X790350D02*
D03*
X796850D02*
D03*
Y568230D02*
D03*
X790350D02*
D03*
X783850D02*
D03*
X777350D02*
D03*
D180*
X594098Y388620D02*
D03*
X611050Y736600D02*
D03*
Y624768D02*
D03*
X614610Y503109D02*
D03*
D181*
X629048Y388620D02*
D03*
X646000Y736600D02*
D03*
Y624768D02*
D03*
X649560Y503109D02*
D03*
D182*
X726247Y363220D02*
D03*
Y414020D02*
D03*
X743200Y711200D02*
D03*
Y762000D02*
D03*
Y599368D02*
D03*
Y650168D02*
D03*
X746760Y477709D02*
D03*
Y528509D02*
D03*
D183*
X619140Y132080D02*
D03*
X605140D02*
D03*
D184*
X600877Y156108D02*
D03*
Y165608D02*
D03*
Y146608D02*
D03*
X624877D02*
D03*
Y165608D02*
D03*
Y156108D02*
D03*
D185*
X664348Y132080D02*
D03*
X647848D02*
D03*
X664348Y181180D02*
D03*
X647848D02*
D03*
D186*
X662097Y150380D02*
D03*
Y162880D02*
D03*
D187*
X650098Y148630D02*
D03*
Y164630D02*
D03*
M02*
