M48
;Layer_Color=9474304
;FILE_FORMAT=4:4
METRIC,LZ
;TYPE=PLATED
T1F00S00C0.2540
T2F00S00C0.3000
T3F00S00C0.7112
T4F00S00C0.8890
T5F00S00C0.9000
T6F00S00C1.0000
T7F00S00C1.0200
T8F00S00C1.8000
T9F00S00C2.7940
T10F00S00C3.0000
%
T01
X009625Y00905
T02
X003119Y00059
X003301
X00326Y000514
X003477Y00059
X003663
X003849Y000591
X00395Y00052
X00379106Y00044106
X003849Y001271
X00391Y00137
X00367999Y00127
X00348Y00127
X003396Y001269
X003304Y00127
X00324Y00137
X00312Y00127
X00346Y00145
X003654Y002449
X003908Y00245101
X00360251Y0030615
X00363Y00327
X00372064Y00327706
X003908Y003508
X00370651Y0038235
X00359492Y00383
X0034Y00349264
X003146Y00350592
X002638Y003502
X00277Y00276
X00299999Y00277999
X00300999Y00256
X00329Y0030615
X004162Y00350489
X00435999Y00349999
X00456Y00341
X0047Y00346
X0048Y00365
X00453Y00368
X00456Y00391471
X00442Y00385
X00397
X0039715Y00394
X00503Y00387
X00514Y00393
X00527Y00385
X00533Y0038
Y00362217
X00546Y00393
X005498Y00308405
X00573Y00280999
X00586
Y0026795
X00573
X0056655Y00240657
X0056Y00234
X0056655Y00225
X00588Y00225
X00580328Y00191
X00596563Y00172
X006053Y001527
X0054535Y00134
X00522906Y00124
X00519Y00169
X004924Y002026
X00464Y00205842
X00515Y00237
X00506Y0025105
X00527405Y00253254
X00521206Y00261294
X00513999Y00269
X00507451Y00277
X00508426Y00341
X0062Y00315
X00612451Y00296
X00636376Y002767
X00630999Y00269
X00649544Y00259
X00635538Y00234
X00644Y00224
X00695499
X006955Y002365
X00695706Y002115
X00695706Y00199
X006965Y001865
X006675Y001815
Y002865
X00667Y0032
Y0033
X00648999Y00329999
X00655Y0032
X00659Y00369999
X00647999Y00370999
X00677Y00384
X00684999Y00383999
X00694Y00362
X00710052Y0035695
X00719Y00324
X00729Y003125
X00751Y00325
X00744Y003365
X00766Y0034
X00776Y00352
X007715Y002615
X00748Y00249
X00695Y00274
X0076Y00096
X00585Y00094
X0053875Y00077
X00519042Y00066
X00494Y00053
X00539Y00024
X00565Y00026
X00632Y00037
X004035Y000594
X00420578Y00097922
X00413927Y00137
X004036Y001269
X00845Y00286
X00806622Y00487586
Y005005
X00806622Y00513
X00847Y00607
X0084729Y007
X00818104Y00705423
Y00713
X00801706Y00709
X00800998Y00700999
X00802998Y00750999
X00810088Y00747448
X00817998Y00747999
X00845Y00789
X00887Y00755549
X00906Y00770461
X00923Y00753
X00927Y0079
X009035Y00731
X00887Y00698
X00793249Y00694182
X00768Y00738
X00749Y00772
X00747647Y00786998
X00735999
X00671Y00647
X00652999Y00647999
X00628Y00644
X00628999Y00623999
X00599999Y00624999
X0059365Y0058565
X00605999Y00580999
X00592Y0056475
X0063Y00565
X00653Y00563
X00650999Y00534999
X0069Y00528
X0071165Y00527046
X0072435Y00527
X0073705
X0073068Y00519554
X0071768
X00682Y00486
X00663999Y00474999
X00668Y00463
X00673Y00445
X00671Y00421
X00660999Y00426999
X00652999
X00655692Y00416873
X00646359Y00419718
X00662Y00410733
X00622999Y00409999
X00614613Y00411906
X00604751Y00412
X00607Y00422
X00565Y0041
X00556Y00408578
X00539Y00423
X00537999Y00447991
X00542999Y00457999
X005506Y00473575
X00563Y00463
X00577999Y00472999
X00585594Y00468406
X00587Y00487586
X005956Y00494
X00602Y00479206
X00624999Y00477999
X00627696Y00490088
X00619999Y00490999
X00633999Y00494999
X00632194Y00468806
X00645999Y00458999
X00641999Y00446999
X00622Y00511
X00605999Y00514999
X00597Y00514844
X00581
X00579549Y00527305
X00563406Y00533594
X00562999Y00546681
X00569999Y00540999
X00548Y00525
X00549276Y00511305
X00513Y00519305
X00497685Y00522234
X00494485Y00536
X00523406Y00535
X00503Y00562
X00509086Y00583228
X00517086Y00583281
X00525297Y00583327
X00496086
X00488086Y00583281
X00480086
X00488086Y00604327
X00496086
X00509086
X00517086Y00604328
X00493109Y00657
X00497999Y00697999
X00478491Y00725688
X00466873Y00736577
X00472976Y0074268
X00460022
X00447676
X00453131Y00735789
X004397Y007327
X00409321Y00734179
X00414548Y0074168
X0040182
X0040035Y0056481
X0041305
X0040668Y00557364
X00428999Y00563999
X0045194Y00536319
X00449Y00492043
X00472Y004905
X00494999Y00479999
X00515Y00485
X00522164Y00481524
X00530142Y0048
X00493999Y00446999
X00486817Y00443424
X00476999Y004422
X004775Y004575
X004675
X00447499Y00464999
X004353Y00467
X0041032Y0046868
X00403999Y00473999
X00399699Y00487999
X003997Y00502004
X00416Y00505
X004275Y00445
X00403Y00437947
X00451499Y00424
X0045Y00414999
X00437943Y00402244
X005105Y00426406
X00611999Y00525999
X00634999Y00588999
X00572Y0065
X0075186Y00451064
X00746Y00441206
Y00433682
X00763998Y00455999
X00769Y00462699
X00777Y00469
X00786Y00476
X00388Y0045
X00388226Y00442396
X00334534Y00428228
X00320534Y00428628
X00357534Y00483
X00355112Y00492206
X00345Y00498
X00351935Y00508628
Y00544763
X00346067Y00539931
X00338999Y00554999
X00328999Y00553999
X003396Y005666
X00362Y00576
X00373Y00556
X0039368Y00557364
X0038765Y00564856
X00365Y00608
X00362Y00616
X00365Y00624
X00346999Y00620999
X00333Y00627748
Y00608
X003157Y00577
X00303
X002903Y00577046
X0029633Y00569554
X0030933
X00291Y00557
X00274109Y00593011
X00266999Y00588999
X00269705Y0066768
X00269706Y0067568
X00381999Y00685358
X00383Y00694014
X00381999Y00702999
X00394321Y00734181
X00388848Y0074168
X00365Y00774
X0020237Y00554446
X0018967
X0017697Y00554492
X00183Y00547
X00196
X00205Y00528646
X00197Y00487
X001983Y004743
X00246Y00487
Y005
X002435Y00819242
Y008305
X00231758Y00819242
X00219258Y00819258
X00218096Y00845
X001679Y00819358
X002875Y00819742
X00339Y00818591
X00349758Y00818242
X00359492
Y00826508
X00378Y00831
X00392435Y00838
X00486817Y00833307
X00497Y00837512
Y00826508
X00503Y00832
X00730502Y00811998
X00766Y00812
X00777
X00788
X00811998Y00805998
X00832584Y00805584
X00838998Y00796998
X00851Y00796
X0086Y0083
X00841921Y00830369
X00828Y00832
X00851998Y00865998
X0084Y00891
X00801998Y00793998
X00892Y00799
T03
X008426Y002998
Y003125
Y003252
Y003379
Y003506
Y003633
Y00376
Y003887
X00868Y0038235
Y0036965
Y0035695
Y0034425
Y0033155
Y0031885
Y0030615
Y0039505
Y0040775
Y0042045
Y0043315
Y0044585
X008426Y004395
Y004268
Y004141
Y004014
Y004522
T04
X007036Y0002549
X00729
X007544
Y0005851
X00729
X007036
T05
X001046Y000366
X0013
Y00062
X001046
X00479346Y00066
X00504746
Y000406
X00479346
X005956Y00029
X00621
X006464
Y000544
X00621
X005956
T06
X00875Y005609
Y006359
Y006609
X00925Y006109
T07
X000508Y001398
X000762
X001003
X001257
Y001652
Y001906
Y00216
Y002414
Y002668
Y002922
Y003176
Y00343
Y003684
Y003938
X001003
X000762
Y003684
X001003
Y00343
X000762
Y003176
X001003
Y002922
X000762
Y002668
X001003
Y002414
X000762
Y00216
X001003
Y001906
X000762
Y001652
X001003
X000508
Y001906
Y00216
Y002414
Y002668
Y002922
Y003176
Y00343
Y003684
Y003938
Y004192
X000762
X001003
X001257
Y004446
Y0047
Y004954
Y005208
Y005462
Y005716
Y00597
Y006224
Y006478
Y006732
Y006986
Y00724
Y007494
Y007748
X001003
X000762
Y007494
X001003
Y00724
X000762
Y006986
X001003
Y006732
X000762
Y006478
X001003
Y006224
X000762
Y00597
X001003
Y005716
X000762
Y005462
X001003
Y005208
X000762
Y004954
X001003
Y0047
X000762
Y004446
X001003
X000508
Y0047
Y004954
Y005208
Y005462
Y005716
Y00597
Y006224
Y006478
Y006732
Y006986
Y00724
Y007494
Y007748
T08
X0054125Y006934
Y007484
X00601Y007482
Y006932
X0066Y006934
Y007484
T09
X008807Y00253445
Y00498555
T10
X0054125Y008214
X00601Y008212
X0066Y008214
M30
