G04*
G04 #@! TF.GenerationSoftware,Altium Limited,Altium Designer,18.1.9 (240)*
G04*
G04 Layer_Color=32768*
%FSLAX44Y44*%
%MOMM*%
G71*
G01*
G75*
%ADD11C,0.2000*%
%ADD13C,0.2540*%
%ADD14C,0.1524*%
%ADD19C,0.1000*%
%ADD20C,0.1520*%
%ADD136C,0.1500*%
%ADD188C,0.0500*%
G36*
X787348Y343720D02*
Y383800D01*
X748232D01*
Y343720D01*
X787348D01*
D02*
G37*
G36*
X806958Y454230D02*
Y494310D01*
X767842D01*
Y454230D01*
X806958D01*
D02*
G37*
G36*
X806658Y562890D02*
Y602970D01*
X767542D01*
Y562890D01*
X806658D01*
D02*
G37*
G36*
X804329Y674650D02*
Y714730D01*
X765213D01*
Y674650D01*
X804329D01*
D02*
G37*
D11*
X328900Y471700D02*
Y481700D01*
Y471700D02*
Y476700D01*
X333900D01*
X323900D02*
X333900D01*
D13*
X325000Y592074D02*
Y617474D01*
X312300Y604774D02*
X337700D01*
X736600Y535980D02*
Y540980D01*
X734100Y538480D02*
X739100D01*
D14*
X748232Y383800D02*
X787348D01*
X748232Y343720D02*
Y383800D01*
Y343720D02*
X787348D01*
Y383800D01*
X767842Y494310D02*
X806958D01*
X767842Y454230D02*
Y494310D01*
Y454230D02*
X806958D01*
Y494310D01*
X765213Y714730D02*
X804329D01*
X765213Y674650D02*
Y714730D01*
Y674650D02*
X804329D01*
Y714730D01*
X767542Y602970D02*
X806658D01*
X767542Y562890D02*
Y602970D01*
Y562890D02*
X806658D01*
Y602970D01*
D19*
X820975Y382444D02*
X824975D01*
X822975Y380444D02*
Y384444D01*
X843875Y494629D02*
X847875D01*
X845875Y492629D02*
Y496629D01*
X844540Y601622D02*
X848540D01*
X846540Y599622D02*
Y603622D01*
X841280Y712201D02*
X845280D01*
X843280Y710201D02*
Y714201D01*
X629951Y395223D02*
Y399223D01*
X627951Y397223D02*
X631951D01*
X278401Y779780D02*
X282401D01*
X280401Y777780D02*
Y781780D01*
X351100Y171700D02*
Y175700D01*
X349100Y173700D02*
X353100D01*
X722400Y718700D02*
Y722700D01*
X720400Y720700D02*
X724400D01*
X582400Y591044D02*
Y595044D01*
X580400Y593044D02*
X584400D01*
X543380Y281940D02*
X547380D01*
X545380Y279940D02*
Y283940D01*
X610140Y297730D02*
X614140D01*
X612140Y295730D02*
Y299730D01*
X550986Y307340D02*
X554986D01*
X552986Y305340D02*
Y309340D01*
X560155Y307340D02*
X564155D01*
X562155Y305340D02*
Y309340D01*
X568780Y307340D02*
X572780D01*
X570780Y305340D02*
Y309340D01*
X395250Y644864D02*
Y648864D01*
X393250Y646864D02*
X397250D01*
X401820Y591598D02*
Y595598D01*
X399820Y593598D02*
X403820D01*
X198500Y346344D02*
Y350344D01*
X196500Y348344D02*
X200500D01*
X198660Y355964D02*
Y359964D01*
X196660Y357964D02*
X200660D01*
X289740Y271124D02*
X293740D01*
X291740Y269124D02*
Y273124D01*
X279014Y270564D02*
X283014D01*
X281014Y268564D02*
Y272564D01*
X284400Y393524D02*
Y397524D01*
X282400Y395524D02*
X286400D01*
X554300Y814100D02*
X558300D01*
X556300Y812100D02*
Y816100D01*
X808260Y803373D02*
X812260D01*
X810260Y801373D02*
Y805373D01*
X889080Y757460D02*
Y761460D01*
X887080Y759460D02*
X891080D01*
X300900Y194330D02*
X304900D01*
X302900Y192330D02*
Y196330D01*
X191070Y189330D02*
X195070D01*
X193070Y187330D02*
Y191330D01*
X462820Y485140D02*
X466820D01*
X464820Y483140D02*
Y487140D01*
X472980Y485140D02*
X476980D01*
X474980Y483140D02*
Y487140D01*
X434880Y454767D02*
X438880D01*
X436880Y452767D02*
Y456767D01*
X424948Y454660D02*
X428948D01*
X426948Y452660D02*
Y456660D01*
X465900Y419000D02*
Y423000D01*
X463900Y421000D02*
X467900D01*
X818233Y734600D02*
Y738600D01*
X816233Y736600D02*
X820233D01*
X724728Y672208D02*
Y676208D01*
X722729Y674208D02*
X726729D01*
X809649Y602187D02*
Y606187D01*
X807649Y604187D02*
X811649D01*
X724728Y680797D02*
Y684797D01*
X722729Y682797D02*
X726729D01*
X809649Y592027D02*
Y596027D01*
X807649Y594027D02*
X811649D01*
X786456Y591217D02*
Y595217D01*
X784456Y593217D02*
X788456D01*
X564440Y636393D02*
X568439D01*
X566440Y634393D02*
Y638393D01*
X799090Y836200D02*
Y840200D01*
X797090Y838200D02*
X801090D01*
X783130Y848758D02*
X787130D01*
X785130Y846758D02*
Y850758D01*
X772970Y848758D02*
X776970D01*
X774970Y846758D02*
Y850758D01*
X211360Y627160D02*
X215360D01*
X213360Y625160D02*
Y629160D01*
X591726Y439536D02*
Y443536D01*
X589726Y441536D02*
X593726D01*
X220245Y37500D02*
X231245D01*
X220245Y13500D02*
X231245D01*
Y37500D01*
X220245Y13500D02*
Y37500D01*
X225745Y20750D02*
Y30250D01*
X220995Y25500D02*
X230495D01*
X283107Y405764D02*
Y415764D01*
X278107Y410764D02*
X288107D01*
X511461Y600456D02*
X515461D01*
X513461Y598456D02*
Y602456D01*
X785229Y687914D02*
X795229D01*
X790229Y682914D02*
Y692914D01*
X785229Y668169D02*
X795229D01*
X790229Y663169D02*
Y673169D01*
X755006Y733748D02*
X765006D01*
X760006Y728748D02*
Y738748D01*
X785229Y707659D02*
X795229D01*
X790229Y702659D02*
Y712659D01*
X755959Y224060D02*
Y228060D01*
X753959Y226060D02*
X757959D01*
X774600Y196080D02*
X778600D01*
X776600Y194080D02*
Y198080D01*
X760958Y167720D02*
Y177720D01*
X755959Y172720D02*
X765958D01*
X602347Y474730D02*
Y484730D01*
X597347Y479730D02*
X607347D01*
X696495Y399320D02*
Y403320D01*
X694495Y401320D02*
X698495D01*
X693420Y342050D02*
Y352050D01*
X688420Y347050D02*
X698420D01*
X657860Y325200D02*
Y335200D01*
X652860Y330200D02*
X662860D01*
X655320Y314040D02*
Y318040D01*
X653320Y316040D02*
X657320D01*
X645700Y276864D02*
X649700D01*
X647700Y274864D02*
Y278864D01*
X612680Y274320D02*
X616680D01*
X614680Y272320D02*
Y276320D01*
X540300Y255704D02*
Y259704D01*
X538300Y257704D02*
X542300D01*
X318100Y160200D02*
X328100D01*
X323100Y155200D02*
Y165200D01*
X262701Y818290D02*
X272701D01*
X267701Y813290D02*
Y823290D01*
X653712Y652338D02*
Y662338D01*
X648712Y657338D02*
X658712D01*
X653712Y633275D02*
Y643275D01*
X648712Y638275D02*
X658712D01*
X653712Y614212D02*
Y624212D01*
X648712Y619212D02*
X658712D01*
X653712Y587813D02*
Y597813D01*
X648712Y592813D02*
X658712D01*
X653712Y568750D02*
Y578750D01*
X648712Y573750D02*
X658712D01*
X653712Y549687D02*
Y559687D01*
X648712Y554687D02*
X658712D01*
X601726Y571250D02*
Y581250D01*
X596726Y576250D02*
X606726D01*
X801562Y513411D02*
Y523411D01*
X796562Y518411D02*
X806562D01*
X801562Y533168D02*
Y543168D01*
X796562Y538168D02*
X806562D01*
X601726Y552700D02*
Y562700D01*
X596726Y557700D02*
X606726D01*
X670640Y411480D02*
X680640D01*
X675640Y406480D02*
Y416480D01*
X807800Y350520D02*
X817800D01*
X812800Y345520D02*
Y355520D01*
X827760Y460056D02*
X837760D01*
X832760Y455056D02*
Y465056D01*
X825580Y678180D02*
X835580D01*
X830580Y673180D02*
Y683180D01*
X830660Y568960D02*
X840660D01*
X835660Y563960D02*
Y573960D01*
X624140Y126580D02*
Y137580D01*
X600140Y126580D02*
Y137580D01*
X624140D01*
X600140Y126580D02*
X624140D01*
X607390Y132080D02*
X616890D01*
X612140Y127330D02*
Y136830D01*
X803199Y760946D02*
X812699D01*
X807949Y756196D02*
Y765696D01*
X813449Y748946D02*
Y772946D01*
X802449Y748946D02*
Y772946D01*
X813449D01*
X802449Y748946D02*
X813449D01*
X937590Y797230D02*
X947090D01*
X942340Y792480D02*
Y801980D01*
X947840Y785230D02*
Y809230D01*
X936840Y785230D02*
Y809230D01*
X947840D01*
X936840Y785230D02*
X947840D01*
X709467Y361920D02*
X713467D01*
X711467Y359920D02*
Y363920D01*
X580293Y871663D02*
X589793D01*
X585043Y866913D02*
Y876413D01*
X590543Y859663D02*
Y883663D01*
X579543Y859663D02*
Y883663D01*
X590543D01*
X579543Y859663D02*
X590543D01*
X559579Y871663D02*
X569079D01*
X564329Y866913D02*
Y876413D01*
X569829Y859663D02*
Y883663D01*
X558829Y859663D02*
Y883663D01*
X569829D01*
X558829Y859663D02*
X569829D01*
X540344Y871663D02*
X549844D01*
X545094Y866913D02*
Y876413D01*
X550594Y859663D02*
Y883663D01*
X539594Y859663D02*
Y883663D01*
X550594D01*
X539594Y859663D02*
X550594D01*
X520835Y871663D02*
X530335D01*
X525585Y866913D02*
Y876413D01*
X531085Y859663D02*
Y883663D01*
X520085Y859663D02*
Y883663D01*
X531085D01*
X520085Y859663D02*
X531085D01*
X503631Y871663D02*
X513131D01*
X508381Y866913D02*
Y876413D01*
X513881Y859663D02*
Y883663D01*
X502881Y859663D02*
Y883663D01*
X513881D01*
X502881Y859663D02*
X513881D01*
X486107Y871663D02*
X495607D01*
X490857Y866913D02*
Y876413D01*
X496357Y859663D02*
Y883663D01*
X485357Y859663D02*
Y883663D01*
X496357D01*
X485357Y859663D02*
X496357D01*
X175290Y184330D02*
Y194330D01*
X170290Y189330D02*
X180290D01*
X551685Y533451D02*
X561685D01*
X556685Y528451D02*
Y538451D01*
X616809Y601175D02*
Y611175D01*
X611809Y606175D02*
X621809D01*
X597347Y540690D02*
X607347D01*
X602347Y535690D02*
Y545690D01*
X751920Y582510D02*
X761920D01*
X756920Y577511D02*
Y587510D01*
X734349Y607288D02*
Y611288D01*
X732348Y609288D02*
X736348D01*
X270470Y266684D02*
Y270684D01*
X268470Y268684D02*
X272470D01*
X457000Y599440D02*
X461000D01*
X459000Y597440D02*
Y601440D01*
X428244Y659535D02*
Y663535D01*
X426244Y661535D02*
X430244D01*
X481660Y601650D02*
X491660D01*
X486660Y596650D02*
Y606650D01*
X363920Y592604D02*
X373920D01*
X368920Y587604D02*
Y597604D01*
X375960Y685904D02*
X385960D01*
X380960Y680904D02*
Y690904D01*
X382460Y671408D02*
X386460D01*
X384460Y669408D02*
Y673408D01*
D20*
X958850Y363220D02*
Y901700D01*
X0D02*
X958850D01*
X0Y0D02*
Y901700D01*
Y0D02*
X958850D01*
Y218440D01*
X914400D02*
X958850D01*
X914400D02*
Y363220D01*
X958850D01*
D136*
X479500Y448900D02*
Y452900D01*
X477500Y450900D02*
X481500D01*
X773458Y629728D02*
Y634808D01*
X770919Y632268D02*
X775999D01*
X802240Y250420D02*
Y255500D01*
X799700Y252960D02*
X804780D01*
X801920Y289580D02*
Y294660D01*
X799380Y292120D02*
X804460D01*
D188*
X903355Y115858D02*
Y117858D01*
X902355Y116858D02*
X904355D01*
X914638Y115600D02*
Y117600D01*
X913638Y116600D02*
X915638D01*
X903355Y98658D02*
Y100658D01*
X902355Y99658D02*
X904355D01*
X914638Y98400D02*
Y100400D01*
X913638Y99400D02*
X915638D01*
X650070Y302230D02*
X652070D01*
X651070Y301230D02*
Y303230D01*
X766080Y201817D02*
X768080D01*
X767080Y200818D02*
Y202817D01*
X704400Y376120D02*
X706400D01*
X705400Y375120D02*
Y377120D01*
X580280Y306730D02*
X582280D01*
X581280Y305730D02*
Y307730D01*
X600405Y301260D02*
Y303260D01*
X599405Y302260D02*
X601405D01*
X623573Y292296D02*
X625573D01*
X624573Y291296D02*
Y293296D01*
X623371Y277220D02*
X625371D01*
X624371Y276220D02*
Y278220D01*
X434950Y623940D02*
Y625940D01*
X433950Y624940D02*
X435950D01*
X434950Y615280D02*
Y617280D01*
X433950Y616280D02*
X435950D01*
X407000Y638800D02*
X409000D01*
X408000Y637800D02*
Y639800D01*
X434950Y606620D02*
Y608620D01*
X433950Y607620D02*
X435950D01*
X434950Y632600D02*
Y634600D01*
X433950Y633600D02*
X435950D01*
X347980Y356104D02*
Y358104D01*
X346980Y357104D02*
X348980D01*
X583691Y847473D02*
X585691D01*
X584691Y846473D02*
Y848473D01*
X562876Y847473D02*
X564876D01*
X563876Y846473D02*
Y848473D01*
X543539Y847473D02*
X545539D01*
X544539Y846473D02*
Y848473D01*
X523928Y847473D02*
X525928D01*
X524928Y846473D02*
Y848473D01*
X506623Y847473D02*
X508623D01*
X507623Y846473D02*
Y848473D01*
X489605D02*
X491605D01*
X490605Y847473D02*
Y849473D01*
X537700Y814700D02*
X539700D01*
X538700Y813700D02*
Y815700D01*
X823036Y749206D02*
Y751206D01*
X822036Y750206D02*
X824036D01*
X941340Y775223D02*
X943340D01*
X942340Y774223D02*
Y776223D01*
X862600Y774960D02*
X864600D01*
X863600Y773960D02*
Y775960D01*
X924560Y811800D02*
Y813800D01*
X923560Y812800D02*
X925560D01*
X434950Y641540D02*
Y643540D01*
X433950Y642540D02*
X435950D01*
X695367Y532679D02*
X697366D01*
X696367Y531679D02*
Y533679D01*
X695367Y549879D02*
X697366D01*
X696367Y548879D02*
Y550879D01*
X876300Y452400D02*
Y454400D01*
X875300Y453400D02*
X877300D01*
X876300Y532400D02*
Y534400D01*
X875300Y533400D02*
X877300D01*
X289590Y218810D02*
Y220810D01*
X288590Y219810D02*
X290590D01*
X289590Y207380D02*
Y209380D01*
X288590Y208380D02*
X290590D01*
X289590Y194680D02*
Y196680D01*
X288590Y195680D02*
X290590D01*
X290170Y169280D02*
Y171280D01*
X289170Y170280D02*
X291170D01*
X193070Y208650D02*
Y210650D01*
X192070Y209650D02*
X194070D01*
X193070Y168010D02*
Y170010D01*
X192070Y169010D02*
X194070D01*
X289600Y182500D02*
Y184500D01*
X288600Y183500D02*
X290600D01*
X520700Y453276D02*
Y455276D01*
X519700Y454277D02*
X521700D01*
X436880Y435880D02*
Y437880D01*
X435880Y436880D02*
X437880D01*
X506950Y420000D02*
Y422000D01*
X505950Y421000D02*
X507950D01*
X520700Y440960D02*
Y442960D01*
X519700Y441960D02*
X521700D01*
X818536Y725440D02*
Y727440D01*
X817536Y726440D02*
X819536D01*
X725479Y692237D02*
Y694237D01*
X724479Y693237D02*
X726479D01*
X725479Y664619D02*
Y666619D01*
X724479Y665619D02*
X726479D01*
X740226Y673208D02*
Y675208D01*
X739226Y674208D02*
X741226D01*
X802993Y725440D02*
Y727440D01*
X801993Y726440D02*
X803993D01*
X725479Y700826D02*
Y702826D01*
X724479Y701826D02*
X726479D01*
X759006Y599128D02*
X761006D01*
X760006Y598128D02*
Y600128D01*
X575006Y635911D02*
X577006D01*
X576006Y634911D02*
Y636911D01*
X638826Y521228D02*
X640826D01*
X639826Y520228D02*
Y522228D01*
X575006Y651701D02*
X577006D01*
X576006Y650701D02*
Y652701D01*
X635000Y532400D02*
Y534400D01*
X634000Y533400D02*
X636000D01*
X866140Y862600D02*
Y864600D01*
X865140Y863600D02*
X867140D01*
X843400Y880700D02*
Y882700D01*
X842400Y881700D02*
X844400D01*
X807840Y880700D02*
Y882700D01*
X806840Y881700D02*
X808840D01*
X252300Y579900D02*
Y581900D01*
X251300Y580900D02*
X253300D01*
X252299Y588390D02*
Y590390D01*
X251299Y589390D02*
X253299D01*
X252260Y571370D02*
Y573370D01*
X251260Y572370D02*
X253260D01*
X275200Y579900D02*
Y581900D01*
X274200Y580900D02*
X276200D01*
X275160Y588390D02*
Y590390D01*
X274160Y589390D02*
X276160D01*
X275120Y571370D02*
Y573370D01*
X274120Y572370D02*
X276120D01*
X291740Y588280D02*
Y590280D01*
X290740Y589280D02*
X292740D01*
X212360Y608110D02*
X214360D01*
X213360Y607110D02*
Y609110D01*
X302600Y626800D02*
Y628800D01*
X301600Y627800D02*
X303600D01*
X302600Y635000D02*
Y637000D01*
X301600Y636000D02*
X303600D01*
X302200Y649100D02*
Y651100D01*
X301200Y650100D02*
X303200D01*
X302370Y657160D02*
Y659160D01*
X301370Y658160D02*
X303370D01*
X299610Y271764D02*
X301610D01*
X300610Y270764D02*
Y272764D01*
X258430Y272364D02*
X260430D01*
X259430Y271364D02*
Y273364D01*
X347620Y364646D02*
Y366646D01*
X346620Y365647D02*
X348620D01*
X591726Y431616D02*
Y433616D01*
X590726Y432616D02*
X592726D01*
X609400Y431466D02*
Y433466D01*
X608400Y432466D02*
X610400D01*
X629048Y192040D02*
Y194040D01*
X628047Y193040D02*
X630047D01*
X605965Y179340D02*
Y181340D01*
X604965Y180340D02*
X606965D01*
X195820Y70324D02*
X197820D01*
X196820Y69324D02*
Y71324D01*
X224745Y50900D02*
X226745D01*
X225745Y49900D02*
Y51900D01*
X460295Y114236D02*
Y144236D01*
X502495Y114236D02*
Y144236D01*
X492695D02*
X502495D01*
X492695D02*
Y146736D01*
X470095D02*
X492695D01*
X470095Y144236D02*
Y146736D01*
X460295Y144236D02*
X470095D01*
X460295Y114236D02*
X470095D01*
Y111736D02*
Y114236D01*
Y111736D02*
X492695D01*
Y114236D01*
X502495D01*
X553295Y114540D02*
Y144540D01*
X511095Y114540D02*
Y144540D01*
Y114540D02*
X520895D01*
Y112040D02*
Y114540D01*
Y112040D02*
X543495D01*
Y114540D01*
X553295D01*
X543495Y144540D02*
X553295D01*
X543495D02*
Y147040D01*
X520895D02*
X543495D01*
X520895Y144540D02*
Y147040D01*
X511095Y144540D02*
X520895D01*
X729149Y182318D02*
X764149D01*
X729149D02*
Y221318D01*
X764149D01*
Y182318D02*
Y221318D01*
X663460Y356420D02*
X698460D01*
X663460D02*
Y395420D01*
X698460D01*
Y356420D02*
Y395420D01*
X655600Y312180D02*
X690600D01*
Y273180D02*
Y312180D01*
X655600Y273180D02*
X690600D01*
X655600D02*
Y312180D01*
X781140Y237960D02*
X790940D01*
Y235160D02*
Y237960D01*
Y235160D02*
X813540D01*
Y237960D01*
X823340D01*
X813540Y267960D02*
X823340D01*
X813540D02*
Y270760D01*
X790940D02*
X813540D01*
X790940Y267960D02*
Y270760D01*
X781140Y267960D02*
X790940D01*
X781140Y237960D02*
Y267960D01*
X823340Y237960D02*
Y267960D01*
X780820Y277120D02*
X790620D01*
Y274320D02*
Y277120D01*
Y274320D02*
X813220D01*
Y277120D01*
X823020D01*
X813220Y307120D02*
X823020D01*
X813220D02*
Y309920D01*
X790620D02*
X813220D01*
X790620Y307120D02*
Y309920D01*
X780820Y307120D02*
X790620D01*
X780820Y277120D02*
Y307120D01*
X823020Y277120D02*
Y307120D01*
X86000Y792300D02*
X140000D01*
Y122300D02*
Y792300D01*
X86000Y122300D02*
X140000D01*
X86000D02*
Y792300D01*
X578350Y157240D02*
X588150D01*
X578350D02*
Y159740D01*
X555750D02*
X578350D01*
X555750Y157240D02*
Y159740D01*
X545950Y157240D02*
X555750D01*
X545950Y127240D02*
X555750D01*
Y124740D02*
Y127240D01*
Y124740D02*
X578350D01*
Y127240D01*
X588150D01*
Y157240D01*
X545950Y127240D02*
Y157240D01*
X578350Y190180D02*
X588150D01*
X578350D02*
Y192680D01*
X555750D02*
X578350D01*
X555750Y190180D02*
Y192680D01*
X545950Y190180D02*
X555750D01*
X545950Y160180D02*
X555750D01*
Y157680D02*
Y160180D01*
Y157680D02*
X578350D01*
Y160180D01*
X588150D01*
Y190180D01*
X545950Y160180D02*
Y190180D01*
X36500Y122300D02*
Y792300D01*
Y122300D02*
X90500D01*
Y792300D01*
X36500D02*
X90500D01*
M02*
