G04*
G04 #@! TF.GenerationSoftware,Altium Limited,Altium Designer,18.1.9 (240)*
G04*
G04 Layer_Color=8421504*
%FSLAX44Y44*%
%MOMM*%
G71*
G01*
G75*
%ADD20C,0.1520*%
%ADD21R,0.6000X0.4000*%
%ADD22R,1.0000X0.2500*%
%ADD23R,0.2500X1.0000*%
%ADD24R,0.4000X0.6000*%
%ADD25R,3.4000X0.9800*%
%ADD26R,0.7000X0.3000*%
%ADD27R,1.8000X0.7000*%
%ADD28R,2.2000X1.6000*%
%ADD29R,0.4500X0.6000*%
%ADD30R,0.6000X0.4500*%
%ADD31R,0.2600X0.9000*%
%ADD32R,0.9000X0.2600*%
%ADD33R,3.0700X2.0700*%
%ADD34R,1.2200X0.6000*%
%ADD35R,1.1112X0.1992*%
%ADD36R,0.9000X0.7000*%
%ADD37R,1.2000X1.8000*%
%ADD38R,1.5000X0.5500*%
%ADD39R,0.5500X1.5000*%
%ADD40R,0.8000X1.3000*%
%ADD41R,1.0000X1.8000*%
%ADD42R,0.8000X0.6000*%
%ADD43R,0.8500X0.3500*%
%ADD44R,1.0000X1.6000*%
%ADD45R,1.3000X0.7000*%
%ADD46R,0.6000X0.8000*%
%ADD47R,0.3000X0.6000*%
%ADD48R,1.6000X0.6000*%
%ADD49R,2.4000X1.6000*%
%ADD50R,0.2400X0.6000*%
%ADD51R,0.6000X0.2400*%
%ADD52R,0.2400X0.5750*%
%ADD53R,0.5750X0.2400*%
%ADD54R,0.3500X0.8500*%
%ADD55R,0.7000X1.3000*%
%ADD56R,5.5000X1.4300*%
%ADD57R,1.2700X0.5588*%
%ADD58R,1.1000X0.6000*%
%ADD59R,0.5588X1.2700*%
%ADD60R,0.6000X1.1000*%
%ADD61R,3.7000X3.7000*%
%ADD62R,1.0400X0.3300*%
%ADD63R,0.3300X1.0400*%
%ADD64R,0.7500X0.7000*%
%ADD65R,1.4500X0.3000*%
%ADD66R,1.3000X0.8000*%
%ADD67R,2.2000X0.6000*%
%ADD68R,0.9000X0.5000*%
%ADD69R,3.6000X3.6000*%
%ADD70R,0.8400X0.2600*%
%ADD71R,0.2600X0.8400*%
%ADD72R,0.4700X1.0000*%
%ADD73R,0.4500X1.3500*%
G36*
X460499Y442151D02*
X453498D01*
Y444648D01*
X460499D01*
Y442151D01*
D02*
G37*
G36*
X463233Y431881D02*
X460750D01*
Y438900D01*
X463233D01*
Y431881D01*
D02*
G37*
G36*
X458225Y431878D02*
X455750D01*
Y438900D01*
X458225D01*
Y431878D01*
D02*
G37*
G36*
X453493Y449643D02*
X460496D01*
Y447154D01*
X453493D01*
Y449643D01*
D02*
G37*
G36*
X453495Y454645D02*
X460495D01*
Y452155D01*
X453495D01*
Y454645D01*
D02*
G37*
G36*
X453484Y459635D02*
X460477D01*
Y457173D01*
X453484D01*
Y459635D01*
D02*
G37*
G36*
X465750Y431889D02*
Y438900D01*
X468244D01*
Y431889D01*
X465750D01*
D02*
G37*
G36*
X470750Y431883D02*
Y438900D01*
X473244D01*
Y431883D01*
X470750D01*
D02*
G37*
G36*
X475750Y431869D02*
Y438900D01*
X478248D01*
Y431869D01*
X475750D01*
D02*
G37*
G36*
X480750Y431867D02*
Y438900D01*
X483257D01*
Y431867D01*
X480750D01*
D02*
G37*
G36*
X485750Y431863D02*
Y438900D01*
X488267D01*
Y431863D01*
X485750D01*
D02*
G37*
G36*
X490750Y431881D02*
Y438900D01*
X493264D01*
Y431881D01*
X490750D01*
D02*
G37*
G36*
X474196Y647340D02*
X460800D01*
Y660765D01*
X474196D01*
Y647340D01*
D02*
G37*
G36*
X474198Y629340D02*
X460800D01*
Y642738D01*
X474198D01*
Y629340D01*
D02*
G37*
G36*
X267830Y622501D02*
X239971D01*
Y650360D01*
X267830D01*
Y622501D01*
D02*
G37*
G36*
X463223Y462920D02*
X460750D01*
Y469900D01*
X463223D01*
Y462920D01*
D02*
G37*
G36*
X473242Y462916D02*
X470750D01*
Y469900D01*
X473242D01*
Y462916D01*
D02*
G37*
G36*
X468246Y462904D02*
X465750D01*
Y469900D01*
X468246D01*
Y462904D01*
D02*
G37*
G36*
X458245Y462903D02*
X455750D01*
Y469900D01*
X458245D01*
Y462903D01*
D02*
G37*
G36*
X492230Y647340D02*
X478800D01*
Y660770D01*
X492230D01*
Y647340D01*
D02*
G37*
G36*
X492221Y629340D02*
X478800D01*
Y642737D01*
X492221D01*
Y629340D01*
D02*
G37*
G36*
X478249Y462907D02*
X475750D01*
Y469900D01*
X478249D01*
Y462907D01*
D02*
G37*
G36*
X483252Y462905D02*
X480750D01*
Y469900D01*
X483252D01*
Y462905D01*
D02*
G37*
G36*
X493255Y462904D02*
X490750D01*
Y469900D01*
X493255D01*
Y462904D01*
D02*
G37*
G36*
X488252Y462903D02*
X485750D01*
Y469900D01*
X488252D01*
Y462903D01*
D02*
G37*
G36*
X579780Y273549D02*
X580280Y273049D01*
Y261049D01*
X579780Y260549D01*
X568900D01*
X568400Y261049D01*
Y273049D01*
X568900Y273549D01*
X579780D01*
D02*
G37*
G36*
X582780D02*
X582280Y273049D01*
Y261049D01*
X582780Y260549D01*
X593660D01*
X594160Y261049D01*
Y273049D01*
X593660Y273549D01*
X582780D01*
D02*
G37*
G36*
X579780Y286349D02*
X580280Y285849D01*
Y279249D01*
X579780Y278749D01*
X568900D01*
X568400Y279249D01*
Y285849D01*
X568900Y286349D01*
X579780D01*
D02*
G37*
G36*
X582780D02*
X582280Y285849D01*
Y279249D01*
X582780Y278749D01*
X593660D01*
X594160Y279249D01*
Y285849D01*
X593660Y286349D01*
X582780D01*
D02*
G37*
G36*
X495750Y431883D02*
Y438900D01*
X498267D01*
Y431883D01*
X495750D01*
D02*
G37*
G36*
X500750Y431887D02*
Y438900D01*
X503266D01*
Y431887D01*
X500750D01*
D02*
G37*
G36*
X505506Y442144D02*
X498502D01*
Y444652D01*
X505506D01*
Y442144D01*
D02*
G37*
G36*
X692565Y368567D02*
X681960D01*
Y383270D01*
X692565D01*
Y368567D01*
D02*
G37*
G36*
X679959Y368563D02*
X669360D01*
Y383270D01*
X679959D01*
Y368563D01*
D02*
G37*
G36*
X684700Y285330D02*
X674101D01*
Y300037D01*
X684700D01*
Y285330D01*
D02*
G37*
G36*
X672100D02*
X661495D01*
Y300033D01*
X672100D01*
Y285330D01*
D02*
G37*
G36*
X758254Y194464D02*
X747649D01*
Y209167D01*
X758254D01*
Y194464D01*
D02*
G37*
G36*
X745648Y194460D02*
X735049D01*
Y209167D01*
X745648D01*
Y194460D01*
D02*
G37*
G36*
X783432Y625546D02*
X765788D01*
Y637438D01*
X783432D01*
Y625546D01*
D02*
G37*
G36*
X618549Y516876D02*
X618642Y516848D01*
X618727Y516802D01*
X618802Y516740D01*
X618864Y516665D01*
X618909Y516580D01*
X618938Y516487D01*
X618947Y516390D01*
Y515180D01*
X618938Y515084D01*
X618909Y514991D01*
X618864Y514905D01*
X618802Y514830D01*
X618727Y514769D01*
X618642Y514723D01*
X618549Y514695D01*
X618452Y514685D01*
X611492D01*
X611396Y514695D01*
X611303Y514723D01*
X611217Y514769D01*
X611142Y514830D01*
X611081Y514905D01*
X611035Y514991D01*
X611007Y515084D01*
X610997Y515180D01*
Y516390D01*
X611007Y516487D01*
X611035Y516580D01*
X611081Y516665D01*
X611142Y516740D01*
X611217Y516802D01*
X611303Y516848D01*
X611396Y516876D01*
X611492Y516885D01*
X618452D01*
X618549Y516876D01*
D02*
G37*
G36*
X608599D02*
X608692Y516848D01*
X608777Y516802D01*
X608852Y516740D01*
X608914Y516665D01*
X608960Y516580D01*
X608988Y516487D01*
X608997Y516390D01*
Y515180D01*
X608988Y515084D01*
X608960Y514991D01*
X608914Y514905D01*
X608852Y514830D01*
X608777Y514769D01*
X608692Y514723D01*
X608599Y514695D01*
X608502Y514685D01*
X601542D01*
X601446Y514695D01*
X601353Y514723D01*
X601267Y514769D01*
X601192Y514830D01*
X601131Y514905D01*
X601085Y514991D01*
X601057Y515084D01*
X601047Y515180D01*
Y516390D01*
X601057Y516487D01*
X601085Y516580D01*
X601131Y516665D01*
X601192Y516740D01*
X601267Y516802D01*
X601353Y516848D01*
X601446Y516876D01*
X601542Y516885D01*
X608502D01*
X608599Y516876D01*
D02*
G37*
G36*
X618541Y512076D02*
X618636Y512047D01*
X618723Y512000D01*
X618800Y511938D01*
X618862Y511861D01*
X618909Y511774D01*
X618937Y511680D01*
X618947Y511581D01*
Y510189D01*
X618937Y510091D01*
X618909Y509996D01*
X618862Y509909D01*
X618800Y509833D01*
X618723Y509770D01*
X618636Y509724D01*
X618541Y509695D01*
X618443Y509685D01*
X611501D01*
X611403Y509695D01*
X611308Y509724D01*
X611221Y509770D01*
X611145Y509833D01*
X611082Y509909D01*
X611035Y509996D01*
X611007Y510091D01*
X610997Y510189D01*
Y511581D01*
X611007Y511680D01*
X611035Y511774D01*
X611082Y511861D01*
X611145Y511938D01*
X611221Y512000D01*
X611308Y512047D01*
X611403Y512076D01*
X611501Y512085D01*
X618443D01*
X618541Y512076D01*
D02*
G37*
G36*
X608591D02*
X608686Y512047D01*
X608773Y512000D01*
X608849Y511938D01*
X608912Y511861D01*
X608959Y511774D01*
X608988Y511680D01*
X608997Y511581D01*
Y510189D01*
X608988Y510091D01*
X608959Y509996D01*
X608912Y509909D01*
X608849Y509833D01*
X608773Y509770D01*
X608686Y509724D01*
X608591Y509695D01*
X608493Y509685D01*
X601551D01*
X601453Y509695D01*
X601358Y509724D01*
X601271Y509770D01*
X601195Y509833D01*
X601132Y509909D01*
X601086Y509996D01*
X601057Y510091D01*
X601047Y510189D01*
Y511581D01*
X601057Y511680D01*
X601086Y511774D01*
X601132Y511861D01*
X601195Y511938D01*
X601271Y512000D01*
X601358Y512047D01*
X601453Y512076D01*
X601551Y512085D01*
X608493D01*
X608591Y512076D01*
D02*
G37*
G36*
X618549Y507076D02*
X618642Y507048D01*
X618727Y507002D01*
X618802Y506940D01*
X618864Y506865D01*
X618909Y506780D01*
X618938Y506687D01*
X618947Y506590D01*
Y505380D01*
X618938Y505284D01*
X618909Y505191D01*
X618864Y505105D01*
X618802Y505030D01*
X618727Y504969D01*
X618642Y504923D01*
X618549Y504895D01*
X618452Y504885D01*
X611492D01*
X611396Y504895D01*
X611303Y504923D01*
X611217Y504969D01*
X611142Y505030D01*
X611081Y505105D01*
X611035Y505191D01*
X611007Y505284D01*
X610997Y505380D01*
Y506590D01*
X611007Y506687D01*
X611035Y506780D01*
X611081Y506865D01*
X611142Y506940D01*
X611217Y507002D01*
X611303Y507048D01*
X611396Y507076D01*
X611492Y507085D01*
X618452D01*
X618549Y507076D01*
D02*
G37*
G36*
X608599D02*
X608692Y507048D01*
X608777Y507002D01*
X608852Y506940D01*
X608914Y506865D01*
X608960Y506780D01*
X608988Y506687D01*
X608997Y506590D01*
Y505380D01*
X608988Y505284D01*
X608960Y505191D01*
X608914Y505105D01*
X608852Y505030D01*
X608777Y504969D01*
X608692Y504923D01*
X608599Y504895D01*
X608502Y504885D01*
X601542D01*
X601446Y504895D01*
X601353Y504923D01*
X601267Y504969D01*
X601192Y505030D01*
X601131Y505105D01*
X601085Y505191D01*
X601057Y505284D01*
X601047Y505380D01*
Y506590D01*
X601057Y506687D01*
X601085Y506780D01*
X601131Y506865D01*
X601192Y506940D01*
X601267Y507002D01*
X601353Y507048D01*
X601446Y507076D01*
X601542Y507085D01*
X608502D01*
X608599Y507076D01*
D02*
G37*
G36*
X503289Y462920D02*
X500750D01*
Y469900D01*
X503289D01*
Y462920D01*
D02*
G37*
G36*
X498258Y462905D02*
X495750D01*
Y469900D01*
X498258D01*
Y462905D01*
D02*
G37*
G36*
X505517Y457133D02*
X498524D01*
Y459674D01*
X505517D01*
Y457133D01*
D02*
G37*
G36*
X505502Y452148D02*
X498501D01*
Y454651D01*
X505502D01*
Y452148D01*
D02*
G37*
G36*
X505518Y447132D02*
X498511D01*
Y449661D01*
X505518D01*
Y447132D01*
D02*
G37*
D20*
X958850Y363220D02*
Y901700D01*
X0D02*
X958850D01*
X0Y0D02*
Y901700D01*
Y0D02*
X958850D01*
Y218440D01*
X914400D02*
X958850D01*
X914400D02*
Y363220D01*
X958850D01*
D21*
X914638Y112100D02*
D03*
Y121100D02*
D03*
Y94900D02*
D03*
Y103900D02*
D03*
X651070Y297730D02*
D03*
Y306730D02*
D03*
X767080Y197318D02*
D03*
Y206318D02*
D03*
X705400Y371620D02*
D03*
Y380620D02*
D03*
X581280Y302230D02*
D03*
Y311230D02*
D03*
X624573Y287796D02*
D03*
Y296796D02*
D03*
X624371Y272720D02*
D03*
Y281720D02*
D03*
X408000Y643300D02*
D03*
Y634300D02*
D03*
X584691Y842973D02*
D03*
Y851973D02*
D03*
X563876Y842973D02*
D03*
Y851973D02*
D03*
X544539Y842973D02*
D03*
Y851973D02*
D03*
X524928Y842973D02*
D03*
Y851973D02*
D03*
X507623Y842973D02*
D03*
Y851973D02*
D03*
X490605Y843973D02*
D03*
Y852973D02*
D03*
X538700Y810200D02*
D03*
Y819200D02*
D03*
X942340Y779723D02*
D03*
Y770723D02*
D03*
X863600Y770460D02*
D03*
Y779460D02*
D03*
X696367Y528179D02*
D03*
Y537179D02*
D03*
Y545379D02*
D03*
Y554379D02*
D03*
X760006Y603628D02*
D03*
Y594628D02*
D03*
X576006Y640411D02*
D03*
Y631411D02*
D03*
X639826Y525728D02*
D03*
Y516728D02*
D03*
X576006Y656201D02*
D03*
Y647201D02*
D03*
X213360Y603610D02*
D03*
Y612610D02*
D03*
X300610Y276264D02*
D03*
Y267264D02*
D03*
X259430Y276864D02*
D03*
Y267864D02*
D03*
X196820Y65824D02*
D03*
Y74824D02*
D03*
X225745Y55400D02*
D03*
Y46400D02*
D03*
D22*
X503500Y458400D02*
D03*
Y453400D02*
D03*
Y448400D02*
D03*
Y443400D02*
D03*
X455500Y458400D02*
D03*
Y453400D02*
D03*
Y448400D02*
D03*
Y443400D02*
D03*
D23*
X457000Y433900D02*
D03*
X462000D02*
D03*
X467000D02*
D03*
X472000D02*
D03*
X477000D02*
D03*
X482000D02*
D03*
X487000D02*
D03*
X492000D02*
D03*
X497000D02*
D03*
X502000D02*
D03*
Y467900D02*
D03*
X497000D02*
D03*
X492000D02*
D03*
X487000D02*
D03*
X482000D02*
D03*
X477000D02*
D03*
X472000D02*
D03*
X467000D02*
D03*
X462000D02*
D03*
X457000D02*
D03*
D24*
X595905Y302260D02*
D03*
X604905D02*
D03*
X439450Y624940D02*
D03*
X430450D02*
D03*
X439450Y616280D02*
D03*
X430450D02*
D03*
X439450Y607620D02*
D03*
X430450D02*
D03*
X439450Y633600D02*
D03*
X430450D02*
D03*
X352480Y357104D02*
D03*
X343480D02*
D03*
X818536Y750206D02*
D03*
X827536D02*
D03*
X929060Y812800D02*
D03*
X920060D02*
D03*
X430450Y642540D02*
D03*
X439450D02*
D03*
X871800Y453400D02*
D03*
X880800D02*
D03*
X871800Y533400D02*
D03*
X880800D02*
D03*
X285090Y219810D02*
D03*
X294090D02*
D03*
Y208380D02*
D03*
X285090D02*
D03*
Y195680D02*
D03*
X294090D02*
D03*
X294670Y170280D02*
D03*
X285670D02*
D03*
X188570Y209650D02*
D03*
X197570D02*
D03*
X188570Y169010D02*
D03*
X197570D02*
D03*
X285100Y183500D02*
D03*
X294100D02*
D03*
X525200Y454277D02*
D03*
X516200D02*
D03*
X432380Y436880D02*
D03*
X441380D02*
D03*
X511450Y421000D02*
D03*
X502450D02*
D03*
X525200Y441960D02*
D03*
X516200D02*
D03*
X814036Y726440D02*
D03*
X823036D02*
D03*
X729978Y693237D02*
D03*
X720978D02*
D03*
X729978Y665619D02*
D03*
X720978D02*
D03*
X744726Y674208D02*
D03*
X735726D02*
D03*
X798493Y726440D02*
D03*
X807493D02*
D03*
X729978Y701826D02*
D03*
X720978D02*
D03*
X630500Y533400D02*
D03*
X639500D02*
D03*
X861640Y863600D02*
D03*
X870640D02*
D03*
X838900Y881700D02*
D03*
X847900D02*
D03*
X812340D02*
D03*
X803340D02*
D03*
X256800Y580900D02*
D03*
X247800D02*
D03*
X256799Y589390D02*
D03*
X247799D02*
D03*
X256760Y572370D02*
D03*
X247760D02*
D03*
X279700Y580900D02*
D03*
X270700D02*
D03*
X279660Y589390D02*
D03*
X270660D02*
D03*
X279620Y572370D02*
D03*
X270620D02*
D03*
X296240Y589280D02*
D03*
X287240D02*
D03*
X298100Y627800D02*
D03*
X307100D02*
D03*
Y636000D02*
D03*
X298100D02*
D03*
X306700Y650100D02*
D03*
X297700D02*
D03*
X297870Y658160D02*
D03*
X306870D02*
D03*
X343120Y365647D02*
D03*
X352120D02*
D03*
X596226Y432616D02*
D03*
X587226D02*
D03*
X613900Y432466D02*
D03*
X604900D02*
D03*
D25*
X546524Y512593D02*
D03*
Y488893D02*
D03*
D26*
X305900Y454200D02*
D03*
X351900D02*
D03*
X305900Y459200D02*
D03*
X351900D02*
D03*
X305900Y464200D02*
D03*
X351900D02*
D03*
X305900Y469200D02*
D03*
X351900D02*
D03*
X305900Y474200D02*
D03*
X351900D02*
D03*
X305900Y479200D02*
D03*
X351900D02*
D03*
X305900Y484200D02*
D03*
X351900D02*
D03*
X305900Y489200D02*
D03*
X351900D02*
D03*
X305900Y494200D02*
D03*
X351900D02*
D03*
X305900Y499200D02*
D03*
X351900D02*
D03*
D27*
X879165Y707726D02*
D03*
Y720226D02*
D03*
X879165Y627481D02*
D03*
Y639981D02*
D03*
X879164Y559011D02*
D03*
Y546511D02*
D03*
Y478766D02*
D03*
Y466266D02*
D03*
X841080Y396680D02*
D03*
Y384180D02*
D03*
X846160Y198560D02*
D03*
Y186060D02*
D03*
D28*
X912165Y684226D02*
D03*
Y743726D02*
D03*
X912165Y603981D02*
D03*
Y663481D02*
D03*
X912164Y582510D02*
D03*
Y523011D02*
D03*
Y502266D02*
D03*
Y442766D02*
D03*
X874080Y420180D02*
D03*
Y360680D02*
D03*
X879160Y222060D02*
D03*
Y162560D02*
D03*
D29*
X634951Y397223D02*
D03*
X624951D02*
D03*
X346100Y173700D02*
D03*
X356100D02*
D03*
X727400Y720700D02*
D03*
X717400D02*
D03*
X587400Y593044D02*
D03*
X577400D02*
D03*
X390250Y646864D02*
D03*
X400250D02*
D03*
X396820Y593598D02*
D03*
X406820D02*
D03*
X279400Y395524D02*
D03*
X289400D02*
D03*
X884080Y759460D02*
D03*
X894080D02*
D03*
X460900Y421000D02*
D03*
X470900D02*
D03*
X813233Y736600D02*
D03*
X823233D02*
D03*
X719728Y674208D02*
D03*
X729728D02*
D03*
X814649Y604187D02*
D03*
X804649D02*
D03*
X719728Y682797D02*
D03*
X729728D02*
D03*
X814649Y594027D02*
D03*
X804649D02*
D03*
X781456Y593217D02*
D03*
X791456D02*
D03*
X794090Y838200D02*
D03*
X804090D02*
D03*
X586726Y441536D02*
D03*
X596726D02*
D03*
D30*
X280401Y784780D02*
D03*
Y774780D02*
D03*
X545380Y286940D02*
D03*
Y276940D02*
D03*
X612140Y302730D02*
D03*
Y292730D02*
D03*
X552986Y312340D02*
D03*
Y302340D02*
D03*
X562155Y312340D02*
D03*
Y302340D02*
D03*
X570780Y312340D02*
D03*
Y302340D02*
D03*
X291740Y266124D02*
D03*
Y276124D02*
D03*
X281014Y265564D02*
D03*
Y275564D02*
D03*
X556300Y819100D02*
D03*
Y809100D02*
D03*
X810260Y808373D02*
D03*
Y798373D02*
D03*
X302900Y199330D02*
D03*
Y189330D02*
D03*
X193070Y194330D02*
D03*
Y184330D02*
D03*
X436880Y459767D02*
D03*
Y449767D02*
D03*
X426948Y459660D02*
D03*
Y449660D02*
D03*
X566440Y631393D02*
D03*
Y641393D02*
D03*
X785130Y843758D02*
D03*
Y853758D02*
D03*
X774970Y843758D02*
D03*
Y853758D02*
D03*
X213360Y622160D02*
D03*
Y632160D02*
D03*
D31*
X790958Y615418D02*
D03*
X755959Y649118D02*
D03*
Y615418D02*
D03*
X760958D02*
D03*
X765958D02*
D03*
X770959D02*
D03*
X775958D02*
D03*
X780959D02*
D03*
X785958D02*
D03*
X790958Y649118D02*
D03*
X785958D02*
D03*
X780959D02*
D03*
X775958D02*
D03*
X770959D02*
D03*
X765958D02*
D03*
X760958D02*
D03*
D32*
X795309Y624768D02*
D03*
X751609Y639768D02*
D03*
Y624768D02*
D03*
X795309Y639768D02*
D03*
D33*
X773458Y632268D02*
D03*
D34*
X468945Y119736D02*
D03*
Y138736D02*
D03*
X493845D02*
D03*
Y129236D02*
D03*
Y119736D02*
D03*
X544645Y139040D02*
D03*
Y120040D02*
D03*
X519745D02*
D03*
Y129540D02*
D03*
Y139040D02*
D03*
D35*
X210020Y71240D02*
D03*
Y76240D02*
D03*
Y81240D02*
D03*
Y86240D02*
D03*
X237020D02*
D03*
Y81240D02*
D03*
Y76240D02*
D03*
Y71240D02*
D03*
D36*
X225745Y33000D02*
D03*
Y18000D02*
D03*
X807949Y768446D02*
D03*
Y753446D02*
D03*
X942340Y804730D02*
D03*
Y789730D02*
D03*
X585043Y879163D02*
D03*
Y864163D02*
D03*
X564329Y879163D02*
D03*
Y864163D02*
D03*
X545094Y879163D02*
D03*
Y864163D02*
D03*
X525585Y879163D02*
D03*
Y864163D02*
D03*
X508381Y879163D02*
D03*
Y864163D02*
D03*
X490857Y879163D02*
D03*
Y864163D02*
D03*
D37*
X210460Y372344D02*
D03*
Y332344D02*
D03*
X186460D02*
D03*
Y372344D02*
D03*
D38*
X327300Y365104D02*
D03*
Y357104D02*
D03*
Y349104D02*
D03*
Y341104D02*
D03*
Y333104D02*
D03*
Y325104D02*
D03*
Y317104D02*
D03*
Y309104D02*
D03*
X241300D02*
D03*
Y317104D02*
D03*
Y325104D02*
D03*
Y333104D02*
D03*
Y341104D02*
D03*
Y349104D02*
D03*
Y357104D02*
D03*
Y365104D02*
D03*
D39*
X312300Y294104D02*
D03*
X304300D02*
D03*
X296300D02*
D03*
X288300D02*
D03*
X280300D02*
D03*
X272300D02*
D03*
X264300D02*
D03*
X256300D02*
D03*
Y380104D02*
D03*
X264300D02*
D03*
X272300D02*
D03*
X280300D02*
D03*
X288300D02*
D03*
X296300D02*
D03*
X304300D02*
D03*
X312300D02*
D03*
D40*
X292607Y410764D02*
D03*
X273607D02*
D03*
X751459Y172720D02*
D03*
X770459D02*
D03*
X611847Y479730D02*
D03*
X592847D02*
D03*
X683920Y347050D02*
D03*
X702920D02*
D03*
X667360Y330200D02*
D03*
X648360D02*
D03*
X592847Y540690D02*
D03*
X611847D02*
D03*
X477160Y601650D02*
D03*
X496160D02*
D03*
X378420Y592604D02*
D03*
X359420D02*
D03*
X390460Y685904D02*
D03*
X371460D02*
D03*
D41*
X482400Y495300D02*
D03*
X457400D02*
D03*
D42*
X513461Y593456D02*
D03*
Y607456D02*
D03*
X776600Y203080D02*
D03*
Y189080D02*
D03*
X647700Y283864D02*
D03*
Y269864D02*
D03*
X614680Y281320D02*
D03*
Y267320D02*
D03*
X734349Y602288D02*
D03*
Y616288D02*
D03*
X428244Y654535D02*
D03*
Y668535D02*
D03*
D43*
X577351Y615374D02*
D03*
Y608875D02*
D03*
Y602374D02*
D03*
X599351D02*
D03*
Y608875D02*
D03*
Y615374D02*
D03*
X624000Y420520D02*
D03*
Y414020D02*
D03*
Y407520D02*
D03*
X646000D02*
D03*
Y414020D02*
D03*
Y420520D02*
D03*
X362340Y151120D02*
D03*
Y157620D02*
D03*
Y164120D02*
D03*
X340340D02*
D03*
Y157620D02*
D03*
Y151120D02*
D03*
X717686Y742788D02*
D03*
Y736288D02*
D03*
Y729788D02*
D03*
X739686D02*
D03*
Y736288D02*
D03*
Y742788D02*
D03*
D44*
X805229Y687914D02*
D03*
X775229D02*
D03*
X805229Y668169D02*
D03*
X775229D02*
D03*
X805229Y707659D02*
D03*
X775229D02*
D03*
X638712Y657338D02*
D03*
X668712D02*
D03*
X638712Y638275D02*
D03*
X668712D02*
D03*
X638712Y619212D02*
D03*
X668712D02*
D03*
X638712Y592813D02*
D03*
X668712D02*
D03*
X638712Y573750D02*
D03*
X668712D02*
D03*
X638712Y554687D02*
D03*
X668712D02*
D03*
X616726Y576250D02*
D03*
X586726D02*
D03*
X786562Y518411D02*
D03*
X816562D02*
D03*
X786562Y538168D02*
D03*
X816562D02*
D03*
X616726Y557700D02*
D03*
X586726D02*
D03*
D45*
X760006Y724248D02*
D03*
Y743248D02*
D03*
X323100Y169700D02*
D03*
Y150700D02*
D03*
X675640Y401980D02*
D03*
Y420980D02*
D03*
X616809Y615675D02*
D03*
Y596675D02*
D03*
D46*
X762959Y226060D02*
D03*
X748959D02*
D03*
X703495Y401320D02*
D03*
X689495D02*
D03*
X648320Y316040D02*
D03*
X662320D02*
D03*
X533300Y257704D02*
D03*
X547300D02*
D03*
X704467Y361920D02*
D03*
X718467D02*
D03*
X466000Y599440D02*
D03*
X452000D02*
D03*
X377460Y671408D02*
D03*
X391460D02*
D03*
D47*
X736899Y187817D02*
D03*
X743399D02*
D03*
X749899D02*
D03*
X756399D02*
D03*
Y215818D02*
D03*
X671210Y361920D02*
D03*
X677710D02*
D03*
X684210D02*
D03*
X690710D02*
D03*
Y389920D02*
D03*
X682850Y306680D02*
D03*
X676350D02*
D03*
X669850D02*
D03*
X663350D02*
D03*
Y278680D02*
D03*
D48*
X743399Y215818D02*
D03*
X677710Y389920D02*
D03*
X676350Y278680D02*
D03*
D49*
X746649Y201817D02*
D03*
X680960Y375920D02*
D03*
X673100Y292680D02*
D03*
D50*
X608047Y524885D02*
D03*
X613047D02*
D03*
X618047D02*
D03*
X623047D02*
D03*
Y496885D02*
D03*
X618047D02*
D03*
X613047D02*
D03*
X608047D02*
D03*
D51*
X627047Y515885D02*
D03*
Y510885D02*
D03*
Y505885D02*
D03*
D52*
X593780Y254174D02*
D03*
X588780D02*
D03*
X583780D02*
D03*
X578780D02*
D03*
X573780D02*
D03*
X568780D02*
D03*
Y292424D02*
D03*
X573780D02*
D03*
X578780D02*
D03*
X583780D02*
D03*
X588780D02*
D03*
X593780D02*
D03*
D53*
X562155Y260799D02*
D03*
Y265799D02*
D03*
Y270799D02*
D03*
Y275799D02*
D03*
Y280799D02*
D03*
Y285799D02*
D03*
X600405D02*
D03*
Y280799D02*
D03*
Y275799D02*
D03*
Y270799D02*
D03*
Y265799D02*
D03*
Y260799D02*
D03*
D54*
X257541Y792484D02*
D03*
X264041D02*
D03*
X270541D02*
D03*
Y770484D02*
D03*
X264041D02*
D03*
X257541D02*
D03*
D55*
X258201Y818290D02*
D03*
X277201D02*
D03*
X566185Y533451D02*
D03*
X547185D02*
D03*
X766420Y582510D02*
D03*
X747420D02*
D03*
D56*
X736600Y558680D02*
D03*
Y518280D02*
D03*
D57*
X849794Y760795D02*
D03*
Y770193D02*
D03*
Y779591D02*
D03*
X823886D02*
D03*
Y770193D02*
D03*
Y760795D02*
D03*
D58*
X851036Y793873D02*
D03*
Y803373D02*
D03*
Y812873D02*
D03*
X823036D02*
D03*
Y793873D02*
D03*
D59*
X929878Y798974D02*
D03*
X920480D02*
D03*
X911082D02*
D03*
Y773066D02*
D03*
X920480D02*
D03*
X929878D02*
D03*
D60*
X895080Y800216D02*
D03*
X885580D02*
D03*
X876080D02*
D03*
Y772216D02*
D03*
X895080D02*
D03*
D61*
X256130Y638660D02*
D03*
D62*
X284480Y658160D02*
D03*
Y651660D02*
D03*
Y645160D02*
D03*
Y638660D02*
D03*
Y632160D02*
D03*
Y625660D02*
D03*
Y619160D02*
D03*
X227780D02*
D03*
Y625660D02*
D03*
Y632160D02*
D03*
Y638660D02*
D03*
Y645160D02*
D03*
Y651660D02*
D03*
Y658160D02*
D03*
D63*
X236630Y667010D02*
D03*
X243130D02*
D03*
X249630D02*
D03*
X256130D02*
D03*
X262630D02*
D03*
X269130D02*
D03*
X275630D02*
D03*
Y610310D02*
D03*
X269130D02*
D03*
X262630D02*
D03*
X256130D02*
D03*
X249630D02*
D03*
X243130D02*
D03*
X236630D02*
D03*
D64*
X178210Y877060D02*
D03*
Y845060D02*
D03*
X194710D02*
D03*
Y877060D02*
D03*
D65*
X804090Y868758D02*
D03*
Y863758D02*
D03*
Y858758D02*
D03*
Y853758D02*
D03*
Y848758D02*
D03*
X848090Y868758D02*
D03*
Y863758D02*
D03*
Y858758D02*
D03*
Y853758D02*
D03*
Y848758D02*
D03*
D66*
X175290Y198830D02*
D03*
Y179830D02*
D03*
D67*
X267330Y170280D02*
D03*
Y182980D02*
D03*
Y208380D02*
D03*
X215330Y170280D02*
D03*
Y182980D02*
D03*
Y208380D02*
D03*
X267330Y195680D02*
D03*
X215330D02*
D03*
D68*
X270470Y276184D02*
D03*
Y261184D02*
D03*
D69*
X476500Y645040D02*
D03*
D70*
X452150Y627540D02*
D03*
Y632540D02*
D03*
Y637540D02*
D03*
Y642540D02*
D03*
Y647540D02*
D03*
Y652540D02*
D03*
Y657540D02*
D03*
Y662540D02*
D03*
X500850D02*
D03*
Y657540D02*
D03*
Y652540D02*
D03*
Y647540D02*
D03*
Y642540D02*
D03*
Y637540D02*
D03*
Y632540D02*
D03*
Y627540D02*
D03*
D71*
X494000Y620690D02*
D03*
X489000D02*
D03*
X484000D02*
D03*
X479000D02*
D03*
X474000D02*
D03*
X469000D02*
D03*
X464000D02*
D03*
X459000D02*
D03*
Y669390D02*
D03*
X464000D02*
D03*
X469000D02*
D03*
X474000D02*
D03*
X479000D02*
D03*
X484000D02*
D03*
X489000D02*
D03*
X494000D02*
D03*
D72*
X401820Y623744D02*
D03*
X395320Y605744D02*
D03*
X408320D02*
D03*
X395320Y623744D02*
D03*
X408320D02*
D03*
D73*
X357770Y613804D02*
D03*
X364270D02*
D03*
X370770D02*
D03*
X377270D02*
D03*
X357770Y653304D02*
D03*
X364270D02*
D03*
X370770D02*
D03*
X377270D02*
D03*
M02*
