G04*
G04 #@! TF.GenerationSoftware,Altium Limited,Altium Designer,18.1.9 (240)*
G04*
G04 Layer_Color=65535*
%FSLAX44Y44*%
%MOMM*%
G71*
G01*
G75*
%ADD10C,0.2032*%
%ADD11C,0.2000*%
%ADD12C,0.0000*%
%ADD13C,0.2540*%
%ADD14C,0.1524*%
%ADD15C,0.3000*%
%ADD16C,0.1778*%
%ADD17C,0.1270*%
%ADD18C,0.5000*%
%ADD19C,0.1000*%
%ADD20C,0.1520*%
D10*
X450012Y467960D02*
G03*
X450012Y467960I-762J0D01*
G01*
X227330Y165330D02*
X260330D01*
X222330D02*
X227330D01*
Y213330D02*
X260330D01*
X222330D02*
X227330D01*
D11*
X364400Y499200D02*
G03*
X364400Y499200I-2500J0D01*
G01*
X507395Y119236D02*
G03*
X507395Y119236I-1000J0D01*
G01*
X508195Y139540D02*
G03*
X508195Y139540I-1000J0D01*
G01*
X569351Y615374D02*
G03*
X569351Y615374I-2500J0D01*
G01*
X733171Y182318D02*
G03*
X733171Y182318I-1000J0D01*
G01*
X667482Y356420D02*
G03*
X667482Y356420I-1000J0D01*
G01*
X616000Y420520D02*
G03*
X616000Y420520I-2500J0D01*
G01*
X688578Y312180D02*
G03*
X688578Y312180I-1000J0D01*
G01*
X375340Y151120D02*
G03*
X375340Y151120I-2500J0D01*
G01*
X260041Y759984D02*
G03*
X260041Y759984I-2500J0D01*
G01*
X709686Y742788D02*
G03*
X709686Y742788I-2500J0D01*
G01*
X215680Y657960D02*
G03*
X215680Y657960I-1000J0D01*
G01*
X191960Y861060D02*
G03*
X191960Y861060I-5500J0D01*
G01*
X849566Y842662D02*
G03*
X849566Y842662I-1984J0D01*
G01*
X829992Y846472D02*
G03*
X821992Y846472I-4000J0D01*
G01*
X354520Y631929D02*
G03*
X354520Y635179I0J1625D01*
G01*
X303900Y504200D02*
Y511700D01*
X318900D01*
Y516700D01*
X338900D01*
Y511700D02*
Y516700D01*
Y511700D02*
X353900D01*
Y504200D02*
Y511700D01*
X303900Y441700D02*
Y449200D01*
Y441700D02*
X318900D01*
Y436700D02*
Y441700D01*
Y436700D02*
X338900D01*
Y441700D01*
X353900D01*
Y449200D01*
X161260Y63284D02*
Y114084D01*
Y63284D02*
X186660D01*
Y114084D01*
X161260D02*
X186660D01*
X218995Y10260D02*
Y38750D01*
X232495D01*
Y10260D02*
Y38750D01*
X281107Y404514D02*
X285107D01*
X281107Y417014D02*
X285107D01*
X785229Y695914D02*
X795229D01*
X785229Y679914D02*
X795229D01*
X785229Y676169D02*
X795229D01*
X785229Y660169D02*
X795229D01*
X753756Y731748D02*
Y735748D01*
X766256Y731748D02*
Y735748D01*
X785229Y715659D02*
X795229D01*
X785229Y699659D02*
X795229D01*
X758959Y178970D02*
X762959D01*
X758959Y166470D02*
X762959D01*
X630047Y493885D02*
Y495885D01*
X628047Y493885D02*
X630047D01*
Y525885D02*
Y527885D01*
X628047D02*
X630047D01*
X601047Y493885D02*
X603047D01*
X601047D02*
Y495885D01*
Y522885D02*
Y527885D01*
X604547D01*
X600347Y473480D02*
X604347D01*
X600347Y485980D02*
X604347D01*
X691420Y353300D02*
X695420D01*
X691420Y340800D02*
X695420D01*
X655860Y323950D02*
X659860D01*
X655860Y336450D02*
X659860D01*
X329350Y158200D02*
Y162200D01*
X316850Y158200D02*
Y162200D01*
X265701Y824540D02*
X269701D01*
X265701Y812040D02*
X269701D01*
X88250Y790050D02*
X137750D01*
Y124550D02*
Y790050D01*
X88250Y124550D02*
X137750D01*
X88250D02*
Y790050D01*
X648712Y649338D02*
X658712D01*
X648712Y665338D02*
X658712D01*
X648712Y630275D02*
X658712D01*
X648712Y646275D02*
X658712D01*
X648712Y611212D02*
X658712D01*
X648712Y627212D02*
X658712D01*
X648712Y584813D02*
X658712D01*
X648712Y600813D02*
X658712D01*
X648712Y565750D02*
X658712D01*
X648712Y581750D02*
X658712D01*
X648712Y546687D02*
X658712D01*
X648712Y562687D02*
X658712D01*
X596726Y584250D02*
X606726D01*
X596726Y568251D02*
X606726D01*
X796562Y510411D02*
X806562D01*
X796562Y526411D02*
X806562D01*
X796562Y530168D02*
X806562D01*
X796562Y546168D02*
X806562D01*
X596726Y565700D02*
X606726D01*
X596726Y549700D02*
X606726D01*
X669390Y409480D02*
Y413480D01*
X681890Y409480D02*
Y413480D01*
X831478Y791333D02*
X833764D01*
X840114D01*
X831478D02*
Y815463D01*
X842654Y791333D02*
Y815463D01*
X831478D02*
X842654D01*
X840114Y791333D02*
X842654D01*
X801199Y747696D02*
Y776186D01*
Y747696D02*
X814699D01*
Y776186D01*
X897620Y780658D02*
Y782944D01*
Y789294D01*
X873490Y780658D02*
X897620D01*
X873490Y791834D02*
X897620D01*
X873490Y780658D02*
Y791834D01*
X897620Y789294D02*
Y791834D01*
X935590Y783980D02*
Y812470D01*
Y783980D02*
X949090D01*
Y812470D01*
X174710Y851560D02*
Y870560D01*
X184710Y880310D02*
X187960D01*
X197960Y851560D02*
Y870560D01*
X184710Y841810D02*
X187960D01*
X578293Y858413D02*
Y886903D01*
Y858413D02*
X591793D01*
Y886903D01*
X557579Y858413D02*
Y886903D01*
Y858413D02*
X571079D01*
Y886903D01*
X538344Y858413D02*
Y886903D01*
Y858413D02*
X551844D01*
Y886903D01*
X518835Y858413D02*
Y886903D01*
Y858413D02*
X532335D01*
Y886903D01*
X501631Y858413D02*
Y886903D01*
Y858413D02*
X515131D01*
Y886903D01*
X484107Y858413D02*
Y886903D01*
Y858413D02*
X497607D01*
Y886903D01*
X38750Y124550D02*
Y790050D01*
Y124550D02*
X88250D01*
Y790050D01*
X38750D02*
X88250D01*
X837168Y846258D02*
Y871258D01*
X814308D02*
X837168D01*
X814308Y846258D02*
Y871258D01*
Y846258D02*
X821928D01*
X830056D02*
X837168D01*
X181540Y187330D02*
Y191330D01*
X169040Y187330D02*
Y191330D01*
X554685Y527201D02*
X558685D01*
X554685Y539701D02*
X558685D01*
X623059Y604175D02*
Y608175D01*
X610559Y604175D02*
Y608175D01*
X600347Y546940D02*
X604347D01*
X600347Y534440D02*
X604347D01*
X754920Y576260D02*
X758920D01*
X754920Y588760D02*
X758920D01*
X275470Y266684D02*
Y270684D01*
X265470Y266684D02*
Y270684D01*
X484660Y607900D02*
X488660D01*
X484660Y595400D02*
X488660D01*
X354520Y624472D02*
Y631929D01*
Y635179D02*
Y642760D01*
X380520D01*
Y624472D02*
Y642760D01*
X354520Y624472D02*
X380520D01*
X366920Y586354D02*
X370920D01*
X366920Y598854D02*
X370920D01*
X378960Y679654D02*
X382960D01*
X378960Y692154D02*
X382960D01*
D12*
X745359Y624418D02*
G03*
X745359Y624418I-2000J0D01*
G01*
X178960Y382844D02*
G03*
X178960Y382844I-1000J0D01*
G01*
X511250Y624940D02*
G03*
X511250Y624940I-2000J0D01*
G01*
D13*
X234952Y68580D02*
G03*
X234952Y68580I-2J0D01*
G01*
X613030Y260599D02*
G03*
X613030Y260599I-2540J0D01*
G01*
X860942Y793873D02*
G03*
X860942Y793873I-254J0D01*
G01*
X895334Y809868D02*
G03*
X895334Y809868I-254J0D01*
G01*
X461010Y895350D02*
G03*
X461010Y895350I-3810J0D01*
G01*
X415029Y627554D02*
G03*
X415029Y627554I-359J0D01*
G01*
X352042Y613786D02*
G03*
X351928Y613804I-114J-341D01*
G01*
X526459Y480849D02*
Y520849D01*
X526453Y480619D02*
X566453D01*
Y480849D02*
Y520849D01*
X526453D02*
X566453D01*
X939340Y678225D02*
Y749726D01*
X927107D02*
X939340D01*
X927489Y678225D02*
X939340D01*
X874339D02*
Y699498D01*
Y678225D02*
X895611D01*
X874339Y749726D02*
X896247D01*
X874339Y727946D02*
Y749726D01*
X939340Y597981D02*
Y669481D01*
X927107D02*
X939340D01*
X927489Y597981D02*
X939340D01*
X874339D02*
Y619253D01*
Y597981D02*
X895611D01*
X874339Y669481D02*
X896247D01*
X874339Y647701D02*
Y669481D01*
X214970Y344724D02*
Y359964D01*
X195920Y325674D02*
X201000D01*
X181950Y344724D02*
Y359964D01*
X195920Y379014D02*
X201000D01*
X465582Y486664D02*
X474218D01*
X465582Y503936D02*
X474218D01*
X874338Y566731D02*
Y588511D01*
X896246D01*
X874338Y517010D02*
X895610D01*
X874338D02*
Y538283D01*
X927488Y517010D02*
X939338D01*
X927106Y588511D02*
X939338D01*
Y517010D02*
Y588511D01*
X874338Y486486D02*
Y508266D01*
X896246D01*
X874338Y436766D02*
X895610D01*
X874338D02*
Y458038D01*
X927488Y436766D02*
X939338D01*
X927106Y508266D02*
X939338D01*
Y436766D02*
Y508266D01*
X836254Y404400D02*
Y426180D01*
X858162D01*
X836254Y354680D02*
X857526D01*
X836254D02*
Y375952D01*
X889404Y354680D02*
X901254D01*
X889022Y426180D02*
X901254D01*
Y354680D02*
Y426180D01*
X841334Y206280D02*
Y228060D01*
X863242D01*
X841334Y156560D02*
X862606D01*
X841334D02*
Y177832D01*
X894484Y156560D02*
X906334D01*
X894102Y228060D02*
X906334D01*
Y156560D02*
Y228060D01*
X703359Y338896D02*
X839186D01*
X703359Y241929D02*
Y338896D01*
Y241929D02*
X839822D01*
Y339085D01*
X807720Y750000D02*
X949960D01*
X548428Y662940D02*
X608372D01*
Y749300D01*
X548428D02*
X608372D01*
X548428Y662940D02*
Y749300D01*
X711200Y760987D02*
Y820931D01*
Y760987D02*
X797560D01*
Y820931D01*
X711200D02*
X797560D01*
X807720Y750000D02*
Y894560D01*
X5300Y750000D02*
X149860D01*
Y892240D01*
Y5300D02*
Y149860D01*
X7620D02*
X149860D01*
X807941Y7860D02*
Y150100D01*
X952500D01*
X701600Y505980D02*
Y570980D01*
Y505980D02*
X771600D01*
Y570980D01*
X701600D02*
X771600D01*
X150000Y226700D02*
Y826700D01*
X500000D01*
Y226700D02*
Y826700D01*
X150000Y226700D02*
X500000D01*
X374080Y833628D02*
Y893572D01*
X287720D02*
X374080D01*
X287720Y833628D02*
Y893572D01*
Y833628D02*
X374080D01*
X386080Y834390D02*
X476758D01*
X386080Y887730D02*
X476758D01*
Y834390D02*
Y887730D01*
X386080Y834390D02*
Y887730D01*
X218440Y891252D02*
X279400D01*
Y831308D02*
Y891252D01*
X218440Y831308D02*
X279400D01*
X218440D02*
Y891252D01*
X255970Y-70900D02*
X559500D01*
Y136110D01*
X255970D02*
X559500D01*
X255970Y-70900D02*
Y136110D01*
X414670Y607234D02*
Y622474D01*
X389270Y607234D02*
Y622474D01*
D14*
X315324Y364536D02*
G03*
X315324Y364536I-3592J0D01*
G01*
X839888Y754953D02*
G03*
X833792Y754953I-3048J0D01*
G01*
X935720Y789068D02*
G03*
X935720Y782972I0J-3048D01*
G01*
X238603Y205586D02*
G03*
X238603Y205586I-3877J0D01*
G01*
X217414Y67470D02*
X229627D01*
X217414Y90010D02*
X229627D01*
X318300Y303104D02*
Y371104D01*
X250300D02*
X318300D01*
X250300Y303104D02*
Y371104D01*
Y303104D02*
X318300D01*
X831506Y754953D02*
X833792D01*
X839888D01*
X842174D01*
X935720Y780686D02*
Y782972D01*
Y789068D01*
Y791354D01*
D15*
X643240Y15480D02*
G03*
X643240Y15480I-1500J0D01*
G01*
D16*
X452500Y430900D02*
X454500D01*
X452500D02*
Y439900D01*
X504500Y470900D02*
X506500D01*
Y461900D02*
Y470900D01*
X504500Y430900D02*
X506500D01*
Y439900D01*
X452500Y470900D02*
X454500D01*
X452500Y461900D02*
Y470900D01*
D17*
X750958Y614768D02*
Y621268D01*
Y614768D02*
X752959D01*
X750958Y643268D02*
Y649768D01*
X752959D01*
X795959Y643268D02*
Y649768D01*
X794459D02*
X795959D01*
Y614768D02*
Y621268D01*
X793959Y614768D02*
X795959D01*
X472595Y144936D02*
X490195D01*
X472595Y113536D02*
X490195D01*
X523395Y113840D02*
X540995D01*
X523395Y145240D02*
X540995D01*
X226130Y608660D02*
Y615660D01*
Y608660D02*
X233130D01*
X286130D02*
Y615660D01*
X279130Y608660D02*
X286130D01*
Y661660D02*
Y668660D01*
X279130D02*
X286130D01*
X226130Y661660D02*
Y668660D01*
X233130D01*
X671740Y-34520D02*
Y480D01*
X611740Y-34520D02*
X671740D01*
X611740D02*
Y480D01*
X671740D02*
X701740D01*
X611740D02*
X671740D01*
X581740D02*
X611740D01*
X701740D02*
Y115480D01*
X581740D02*
X701740D01*
X581740Y480D02*
Y115480D01*
X501500Y620040D02*
Y623540D01*
Y666540D02*
Y670040D01*
X451500Y620040D02*
Y623540D01*
Y666540D02*
Y670040D01*
X498000Y620040D02*
X501500D01*
X498000Y670040D02*
X501500D01*
X451500Y620040D02*
X455000D01*
X451500Y670040D02*
X455000D01*
D18*
X220515Y10510D02*
X231015D01*
X802679Y775936D02*
X813179D01*
X937070Y812220D02*
X947570D01*
X579773Y886653D02*
X590273D01*
X559059D02*
X569559D01*
X539824D02*
X550324D01*
X520315D02*
X530815D01*
X503111D02*
X513611D01*
X485587D02*
X496087D01*
D19*
X560780Y252799D02*
Y257879D01*
Y252799D02*
X565860D01*
X601780Y288719D02*
Y293799D01*
X596700D02*
X601780D01*
Y252799D02*
Y257879D01*
X560780Y293799D02*
X565860D01*
X596700Y252799D02*
X601780D01*
X560780Y288719D02*
Y293799D01*
D20*
X958850Y363220D02*
Y901700D01*
X0D02*
X958850D01*
X0Y0D02*
Y901700D01*
Y0D02*
X958850D01*
Y218440D01*
X914400D02*
X958850D01*
X914400D02*
Y363220D01*
X958850D01*
M02*
