G04*
G04 #@! TF.GenerationSoftware,Altium Limited,Altium Designer,18.1.9 (240)*
G04*
G04 Layer_Physical_Order=1*
G04 Layer_Color=255*
%FSLAX44Y44*%
%MOMM*%
G71*
G01*
G75*
%ADD14C,0.2540*%
%ADD21R,0.9000X0.7000*%
%ADD22R,1.2500X1.8000*%
%ADD23R,0.6000X1.0000*%
%ADD24R,0.8000X1.6000*%
%ADD25R,2.1000X3.0000*%
%ADD26R,1.1000X1.4000*%
%ADD27R,1.4000X1.1000*%
%ADD28R,0.2600X0.9000*%
%ADD29R,0.9000X0.2600*%
%ADD30R,3.0700X2.0700*%
%ADD31R,2.1844X0.5588*%
%ADD32R,0.5588X2.1844*%
%ADD33R,2.2000X0.6000*%
%ADD34R,1.1684X0.3556*%
%ADD35R,0.3556X1.1684*%
%ADD36R,1.2700X2.2600*%
%ADD37R,1.5000X1.2000*%
%ADD38R,1.6000X7.3500*%
%ADD39R,0.6000X0.2400*%
%ADD40R,0.2400X0.6000*%
%ADD41R,0.9000X0.8000*%
G04:AMPARAMS|DCode=42|XSize=0.9mm|YSize=0.7mm|CornerRadius=0mm|HoleSize=0mm|Usage=FLASHONLY|Rotation=135.000|XOffset=0mm|YOffset=0mm|HoleType=Round|Shape=Rectangle|*
%AMROTATEDRECTD42*
4,1,4,0.5657,-0.0707,0.0707,-0.5657,-0.5657,0.0707,-0.0707,0.5657,0.5657,-0.0707,0.0*
%
%ADD42ROTATEDRECTD42*%

%ADD43R,0.8000X0.9000*%
%ADD44R,0.7000X0.9000*%
%ADD45R,0.6000X1.1000*%
%ADD46R,0.5588X1.2700*%
%ADD47R,0.3000X1.4500*%
%ADD48R,1.7000X1.1000*%
%ADD49R,0.4318X1.6510*%
%ADD50R,1.0000X1.8000*%
%ADD51R,0.2500X1.0000*%
%ADD52R,1.0000X0.2500*%
%ADD53R,0.5500X1.5000*%
%ADD54R,1.5000X0.5500*%
%ADD55R,0.4500X1.3500*%
%ADD56R,1.0000X0.4700*%
%ADD57R,0.8400X0.2600*%
%ADD58R,0.2600X0.8400*%
%ADD59R,3.6000X3.6000*%
%ADD60R,1.2000X1.8000*%
%ADD61R,0.7500X0.7000*%
%ADD120R,0.2200X1.7900*%
%ADD121C,0.7620*%
%ADD122C,0.5080*%
%ADD123C,1.0000*%
%ADD124C,0.8890*%
%ADD125C,1.5500*%
%ADD126R,1.5500X1.5500*%
%ADD127C,1.0668*%
%ADD128C,3.5000*%
%ADD129C,2.2000*%
%ADD130O,1.5080X3.0160*%
%ADD131O,3.0160X1.5080*%
%ADD132C,1.6000*%
%ADD133C,1.5000*%
%ADD134R,1.5000X1.5000*%
%ADD135R,1.5000X1.5000*%
%ADD136C,5.5000*%
%ADD137R,1.5240X1.5240*%
%ADD138C,1.5240*%
%ADD139C,2.7940*%
%ADD140C,0.6000*%
G36*
X459740Y669826D02*
X459740Y669826D01*
X459957Y668735D01*
X460574Y667811D01*
X465361Y663024D01*
X465920Y662651D01*
Y662315D01*
X466748D01*
X467375Y662190D01*
X467376Y662190D01*
X470444D01*
X471072Y662315D01*
X473319D01*
Y652315D01*
Y648964D01*
X473319D01*
X472152Y648481D01*
X471669Y647315D01*
Y646713D01*
X464944Y646713D01*
X463778Y646230D01*
X463295Y645063D01*
Y644641D01*
X438859Y644641D01*
Y643165D01*
X438835D01*
Y632117D01*
X438859D01*
X438859Y601813D01*
X448326Y592346D01*
Y586376D01*
X450651D01*
Y566182D01*
X448219Y563750D01*
X432522D01*
X426720Y569552D01*
Y581106D01*
X425727Y582099D01*
Y582611D01*
X425727Y582612D01*
X425510Y583702D01*
X424893Y584626D01*
X424892Y584626D01*
X420933Y588586D01*
Y672713D01*
X459740Y672713D01*
Y669826D01*
D02*
G37*
G36*
X481596Y651989D02*
X481813Y650899D01*
X481820Y650887D01*
Y641515D01*
X481927D01*
Y632641D01*
X465843Y632641D01*
X464944Y633539D01*
X464944Y645063D01*
X473319Y645063D01*
Y647315D01*
X474968D01*
Y652315D01*
Y663641D01*
X481596Y663641D01*
Y651989D01*
D02*
G37*
G36*
X493912Y661991D02*
X493913Y645213D01*
X494396Y644047D01*
X494396Y644047D01*
X495562Y643564D01*
X503945D01*
X503945Y632666D01*
X487843Y632665D01*
X486945Y633564D01*
Y641515D01*
X487068D01*
Y650887D01*
X487076Y650899D01*
X487293Y651989D01*
Y661093D01*
X488191Y661991D01*
X493912Y661991D01*
D02*
G37*
G36*
X485644Y661093D02*
Y652151D01*
X485458Y651220D01*
X485490Y651060D01*
X485419Y650887D01*
Y641814D01*
X485295Y641515D01*
Y633564D01*
X485778Y632397D01*
X486676Y631499D01*
X487843Y631016D01*
X503945Y631016D01*
X505111Y631499D01*
X505594Y632666D01*
X505594Y642991D01*
X540640Y642991D01*
Y601813D01*
X540640Y601813D01*
X524089D01*
X523819Y602463D01*
X514990Y611293D01*
X514990Y622950D01*
X514506Y624117D01*
X513340Y624600D01*
X487424D01*
X487121Y624474D01*
X486793Y624474D01*
X486561Y624242D01*
X486258Y624117D01*
X486132Y623814D01*
X485900Y623581D01*
X485827Y623406D01*
X485827Y623078D01*
X485702Y622775D01*
Y601813D01*
X483391D01*
X483391Y622950D01*
X482908Y624117D01*
X481742Y624600D01*
X455667D01*
X454501Y624117D01*
X454018Y622950D01*
X454018Y607743D01*
X448414Y602139D01*
X448279Y601813D01*
X441495D01*
X440508Y602800D01*
X440508Y632117D01*
X440484Y632175D01*
Y642991D01*
X462397Y642991D01*
X463295Y642093D01*
X463295Y633539D01*
X463778Y632372D01*
X464676Y631474D01*
X465843Y630991D01*
X481927Y630991D01*
X483094Y631474D01*
X483577Y632641D01*
Y641515D01*
X483470Y641773D01*
Y650887D01*
X483398Y651060D01*
X483430Y651220D01*
X483245Y652151D01*
Y661641D01*
X485278D01*
X485644Y661093D01*
D02*
G37*
G36*
X740100Y739356D02*
X740300Y739200D01*
Y655969D01*
X754342D01*
X754342Y638576D01*
X756167D01*
Y627600D01*
X756192Y627477D01*
Y622750D01*
X740338D01*
Y623902D01*
X728290D01*
Y614003D01*
X727069Y612735D01*
X692116Y612799D01*
X692116Y739356D01*
X740100Y739356D01*
D02*
G37*
G36*
X801357Y732740D02*
Y726580D01*
X801357Y726580D01*
X801574Y725490D01*
X802192Y724566D01*
X804871Y721886D01*
Y672306D01*
X804871Y672306D01*
X805000Y671659D01*
Y661699D01*
X793541Y650240D01*
Y640804D01*
X790811Y638074D01*
X784190D01*
X780366Y634250D01*
Y622624D01*
X761866D01*
Y638576D01*
X767080D01*
Y656300D01*
X777000D01*
Y739356D01*
X794741D01*
X801357Y732740D01*
D02*
G37*
G36*
X566430Y679526D02*
X566408Y645213D01*
Y601813D01*
X542290Y601813D01*
Y645213D01*
X495562D01*
X495562Y663641D01*
X487293Y663641D01*
Y674617D01*
X487469D01*
Y680424D01*
X565533D01*
X566430Y679526D01*
D02*
G37*
G36*
X481742Y574445D02*
X455667Y574445D01*
X452301Y577811D01*
Y586376D01*
X451818Y587543D01*
X450651Y588026D01*
X449976D01*
Y592346D01*
X449634Y593171D01*
X449580Y593301D01*
Y600973D01*
X455667Y607060D01*
X455667Y622950D01*
X481742D01*
X481742Y574445D01*
D02*
G37*
G36*
X513340Y610610D02*
X522653Y601297D01*
X522653Y582930D01*
X513973Y574250D01*
X487351Y574250D01*
X487351Y622775D01*
X487424Y622950D01*
X513340D01*
X513340Y610610D01*
D02*
G37*
G36*
X755000Y598964D02*
X760500Y598964D01*
X760500Y579000D01*
X759200Y577700D01*
Y564065D01*
X760500Y562800D01*
Y557000D01*
X692150D01*
Y608250D01*
X755000D01*
X755000Y598964D01*
D02*
G37*
G36*
X776192Y594024D02*
X776167Y593900D01*
Y553684D01*
X776167Y553684D01*
X776384Y552594D01*
X777002Y551670D01*
X782924Y545747D01*
X782924Y532350D01*
X782924Y524660D01*
X776495Y518232D01*
X751767Y518232D01*
X703018Y518232D01*
X692116Y529134D01*
X692116Y555149D01*
X748395Y555149D01*
X762500Y555149D01*
Y562610D01*
X763500Y563810D01*
Y578200D01*
X762500Y579200D01*
Y598876D01*
X776192D01*
Y594024D01*
D02*
G37*
G36*
X474851Y552649D02*
X474851Y540390D01*
X470774Y536313D01*
X457437Y536313D01*
X438607Y536313D01*
X433250Y541671D01*
Y552500D01*
X448703Y552500D01*
X452600Y556397D01*
X471103Y556397D01*
X474851Y552649D01*
D02*
G37*
G36*
X841997Y535000D02*
X807500D01*
Y589500D01*
X805000Y592000D01*
X792763Y592000D01*
X791865Y592898D01*
Y593900D01*
X791840Y594025D01*
Y599924D01*
X788350D01*
Y607500D01*
X800000D01*
Y617500D01*
X841997D01*
Y535000D01*
D02*
G37*
G36*
X603501Y552906D02*
X605727Y550680D01*
Y533281D01*
X607468D01*
X609150Y531599D01*
Y529536D01*
X608737Y529261D01*
X607737Y527764D01*
X607386Y525999D01*
X607737Y524234D01*
X608737Y522737D01*
X610234Y521737D01*
X611999Y521386D01*
X613764Y521737D01*
X615260Y522737D01*
X616260Y524234D01*
X616611Y525999D01*
X616260Y527764D01*
X615260Y529261D01*
X614847Y529536D01*
Y532779D01*
X614847Y532779D01*
X615260Y533281D01*
X628905D01*
X629391Y532108D01*
X611222Y513938D01*
X610604Y513014D01*
X610387Y511924D01*
X610387Y511924D01*
Y477896D01*
X610387Y477896D01*
X610604Y476806D01*
X611222Y475882D01*
X620119Y466985D01*
X620119Y466985D01*
X620696Y466599D01*
X620311Y465329D01*
X605727D01*
Y447281D01*
X605727D01*
Y444679D01*
X614001Y436406D01*
Y426406D01*
X590000Y426406D01*
Y436132D01*
X598275Y444406D01*
Y448406D01*
X598275D01*
Y465329D01*
X590327D01*
X589728Y466449D01*
X589856Y466641D01*
X590207Y468406D01*
X589856Y470171D01*
X588856Y471667D01*
X587360Y472667D01*
X585594Y473018D01*
X583829Y472667D01*
X583728Y472600D01*
X582544Y473336D01*
X582260Y474764D01*
X581260Y476261D01*
X579764Y477261D01*
X577999Y477612D01*
X577849Y477735D01*
Y497507D01*
X577632Y498597D01*
X577014Y499521D01*
X577014Y499521D01*
X572024Y504511D01*
Y515031D01*
Y523031D01*
Y531579D01*
X572024D01*
X571724Y532305D01*
X573000Y533582D01*
X573727Y533281D01*
Y533281D01*
X598275D01*
Y550059D01*
X598275Y550406D01*
X598501Y550406D01*
X598275Y551329D01*
X597578D01*
X597537Y551370D01*
X595501Y553406D01*
Y566320D01*
X603501D01*
Y552906D01*
D02*
G37*
G36*
X794780Y505299D02*
X794780Y467360D01*
X743761Y467360D01*
X743553Y468406D01*
X742553Y469902D01*
X741057Y470902D01*
X739291Y471253D01*
X737526Y470902D01*
X737056Y470588D01*
X735786Y471267D01*
X735786Y473881D01*
X736459Y474015D01*
X737956Y475014D01*
X738956Y476511D01*
X739307Y478276D01*
X738956Y480041D01*
X737956Y481538D01*
X736459Y482538D01*
X735786Y482671D01*
X735787Y505299D01*
X794780Y505299D01*
D02*
G37*
G36*
X436500Y475844D02*
X442500Y469844D01*
X442500Y460549D01*
X446680D01*
X447499Y460387D01*
X448318Y460549D01*
X473578Y460549D01*
X474851Y460549D01*
X474851D01*
X474782Y461664D01*
X474774Y461788D01*
X474774Y461819D01*
Y467524D01*
X474849Y467900D01*
Y472500D01*
X479226D01*
Y461376D01*
X481322D01*
X482000Y460698D01*
X482000Y454298D01*
X481102Y453400D01*
X464907Y453400D01*
X463584Y454723D01*
X463406D01*
X462715Y455415D01*
X462024Y455877D01*
Y456174D01*
X461079D01*
X460701Y456249D01*
X460698Y456249D01*
X447900D01*
X447900Y456249D01*
X446810Y456032D01*
X445886Y455414D01*
X445195Y454723D01*
X432500D01*
X425344Y461880D01*
Y487000D01*
X436500D01*
X436500Y475844D01*
D02*
G37*
G36*
X582972Y302999D02*
X583701Y302270D01*
Y298849D01*
X583726Y298725D01*
Y293125D01*
X594374D01*
Y298725D01*
X594399Y298849D01*
Y302999D01*
X596102D01*
X597000Y302101D01*
X597000Y295500D01*
X597676Y294823D01*
Y284176D01*
X603276D01*
X603400Y284151D01*
X607750D01*
Y279824D01*
X597676D01*
Y269175D01*
X603276D01*
X603400Y269151D01*
X607750D01*
Y264848D01*
X603400D01*
X603276Y264823D01*
X597676D01*
Y255873D01*
X588726D01*
Y250274D01*
X588701Y250149D01*
Y245999D01*
X584399D01*
Y250149D01*
X584374Y250274D01*
Y255873D01*
X578726D01*
Y250274D01*
X578701Y250149D01*
Y245999D01*
X578500D01*
Y232499D01*
X578000Y231999D01*
X570000D01*
Y245373D01*
X569399Y245975D01*
Y250149D01*
X569374Y250274D01*
Y255873D01*
X560424D01*
Y264176D01*
Y274176D01*
Y284176D01*
Y293125D01*
X569374D01*
Y298725D01*
X569399Y298849D01*
Y302999D01*
X582972Y302999D01*
D02*
G37*
D14*
X564605Y528909D02*
Y536000D01*
X562511Y542305D02*
X578001D01*
X554102Y533897D02*
X562511Y542305D01*
X551250Y533897D02*
X554102D01*
X545000Y539917D02*
X545072Y539845D01*
X563000Y527305D02*
X564605Y528909D01*
X530508Y518232D02*
X561927D01*
X513448Y535292D02*
X530508Y518232D01*
X543969Y511275D02*
X562971D01*
X804500Y500900D02*
X814400D01*
X828500Y515000D01*
X833053Y454358D02*
X839023Y460328D01*
X800674Y454358D02*
X833053D01*
X839023Y460328D02*
X845967D01*
X787560Y441206D02*
X817863D01*
X834472Y409528D02*
Y424597D01*
X817863Y441206D02*
X834472Y424597D01*
X709309Y439337D02*
X720181D01*
X831724Y636162D02*
X851936Y615950D01*
X622000Y298999D02*
X641425D01*
X711954Y435273D02*
X721865D01*
X696206Y419524D02*
X711954Y435273D01*
X696206Y412357D02*
Y419524D01*
X495774Y513575D02*
X500474Y518275D01*
X493774Y515575D02*
X495774Y513575D01*
X612000Y311999D02*
X615001Y315000D01*
X591904Y412399D02*
X598002Y418498D01*
X566500Y216000D02*
Y225000D01*
X443452Y545325D02*
X452651Y554523D01*
X244557Y723900D02*
X244589D01*
X210500Y758733D02*
X230447D01*
X460701Y453400D02*
Y453400D01*
X435000Y445000D02*
X435850Y445850D01*
X392531Y488000D02*
X392532Y487999D01*
X815800Y480600D02*
Y484919D01*
X812414Y488305D02*
X815800Y484919D01*
X216000Y487000D02*
X232589D01*
X812414Y511628D02*
Y518232D01*
X828148Y524836D02*
X828500Y524483D01*
Y515000D02*
Y524483D01*
X798299Y508000D02*
X800000D01*
X321226Y313078D02*
X498669D01*
X321170Y313134D02*
X321226Y313078D01*
X498669D02*
X511515Y300231D01*
X499399Y306600D02*
X507451Y298548D01*
X349400Y306600D02*
X499399D01*
X502035Y321206D02*
X519643Y303598D01*
X359776Y321206D02*
X502035D01*
X338353Y317142D02*
X500352D01*
X515579Y301915D01*
X364499Y327899D02*
Y345299D01*
X447681Y331772D02*
X502964D01*
X426794Y352659D02*
X447681Y331772D01*
X426794Y352659D02*
Y388800D01*
X449364Y335836D02*
X504647D01*
X430858Y354342D02*
X449364Y335836D01*
X430858Y354342D02*
Y387117D01*
X420986Y414755D02*
Y489645D01*
Y414755D02*
X434857Y400884D01*
X416922Y412666D02*
Y491328D01*
Y412666D02*
X430793Y398795D01*
X408898Y749274D02*
X418084Y740088D01*
X479991Y529931D02*
X486595D01*
X757806Y354506D02*
X758400Y355100D01*
X757806Y340000D02*
Y354506D01*
X304336Y55981D02*
X308062Y59706D01*
X304336Y55981D02*
X307340Y52977D01*
X729000Y78300D02*
X756200Y105500D01*
X729000Y75020D02*
Y78300D01*
X524200Y60054D02*
Y60942D01*
X504746Y40600D02*
X524200Y60054D01*
X509804Y60942D02*
X524200D01*
X504746Y66000D02*
X509804Y60942D01*
X585000Y56400D02*
Y107950D01*
Y56400D02*
X596000Y45400D01*
X662800D02*
X692420Y75020D01*
X646800Y45400D02*
X662800D01*
X648094Y18706D02*
X680306D01*
X621400Y45400D02*
X648094Y18706D01*
X866795Y318850D02*
X900000Y285645D01*
X817334Y817514D02*
X831834Y832014D01*
X789540Y748586D02*
X804206Y733920D01*
X787600Y748586D02*
X789540D01*
X804206Y726580D02*
Y733920D01*
X724393Y752068D02*
X780094Y807768D01*
X784118Y752068D02*
X787600Y748586D01*
X724393Y752068D02*
X784118D01*
X724166Y751840D02*
X724393Y752068D01*
X790000Y754380D02*
X790218D01*
X252994Y446943D02*
X304937Y395000D01*
X241338Y452851D02*
Y465551D01*
Y452851D02*
X303739Y390450D01*
X239701Y467188D02*
X241338Y465551D01*
X227622Y448900D02*
Y461600D01*
X205000Y478200D02*
Y514328D01*
X216012Y467188D02*
X239701D01*
X227987Y473935D02*
X238701D01*
X239900Y525100D02*
X252994Y512006D01*
Y446943D02*
Y512006D01*
X238701Y473935D02*
X247199Y465437D01*
Y465299D02*
Y465437D01*
X205000Y478200D02*
X216012Y467188D01*
X180378Y448900D02*
Y461600D01*
Y512400D02*
Y525100D01*
Y499700D02*
X192400D01*
X195900Y503200D01*
Y511899D01*
X227622Y512400D02*
Y525100D01*
X565118Y188188D02*
X573434Y179872D01*
X488608Y159270D02*
X517526Y188188D01*
X565118D01*
X532700Y182394D02*
X565165D01*
X479999Y250700D02*
X480000Y250700D01*
Y278530D01*
X467000Y291530D02*
X480000Y278530D01*
X454355Y250744D02*
X454399Y250700D01*
X454355Y250744D02*
Y278775D01*
X541936Y177936D02*
X563875D01*
X540600Y176600D02*
X541936Y177936D01*
X565165Y182394D02*
X571751Y175808D01*
X392630Y159270D02*
X488608D01*
X519000Y169000D02*
X532849D01*
X441600Y291530D02*
X454355Y278775D01*
X463100Y202500D02*
X467000Y198600D01*
X463100Y202500D02*
Y207900D01*
X289200Y164111D02*
X298911D01*
X299400Y164600D01*
X305356Y141838D02*
Y199057D01*
X394400Y167000D02*
X403970Y176570D01*
Y186300D01*
X283500Y211534D02*
X383634D01*
X386034Y217328D02*
X416200Y187162D01*
X153828Y217328D02*
X386034D01*
X151826Y221392D02*
X406808D01*
X297656Y225456D02*
X409050D01*
X302680Y229520D02*
X412820D01*
X273000Y201034D02*
X283500Y211534D01*
X416200Y186600D02*
Y187162D01*
X420550Y213956D02*
X529767D01*
X412820Y229520D02*
X413000Y229700D01*
X409050Y225456D02*
X420550Y213956D01*
X405299Y253300D02*
X405800Y253800D01*
X406808Y221392D02*
X441600Y186600D01*
X405800Y253800D02*
Y281130D01*
X416200Y291530D01*
X529767Y213956D02*
X535211Y219400D01*
X311898Y205600D02*
X313000D01*
X555300Y236756D02*
Y239488D01*
Y236756D02*
X559000Y233056D01*
Y230400D02*
Y233056D01*
X295500Y236700D02*
X302680Y229520D01*
X289100Y234012D02*
X297656Y225456D01*
X314600Y366000D02*
X314800Y366200D01*
Y381400D01*
X319692Y390450D02*
X344750D01*
X304937Y395000D02*
X308711D01*
X309033Y395322D01*
X320567D01*
X320889Y395000D01*
X373300D01*
X318883Y391258D02*
X319692Y390450D01*
X310717Y391258D02*
X318883D01*
X309909Y390450D02*
X310717Y391258D01*
X303739Y390450D02*
X309909D01*
X318008Y386386D02*
X318614D01*
X317200Y387194D02*
X318008Y386386D01*
X312400Y387194D02*
X317200D01*
X311592Y386386D02*
X312400Y387194D01*
X302056Y386386D02*
X311592D01*
X329500Y401000D02*
X331436Y399064D01*
X374983D01*
X379506Y394541D01*
Y392500D02*
Y394541D01*
Y392500D02*
X391265Y380741D01*
X410541D01*
X375442Y390817D02*
X381300Y384959D01*
Y352954D02*
Y384959D01*
X373300Y395000D02*
X375442Y392858D01*
Y390817D02*
Y392858D01*
X410541Y380741D02*
X424999Y395199D01*
X426794Y388800D02*
X430793Y392799D01*
Y398795D01*
X434857Y391116D02*
Y400884D01*
X430858Y387117D02*
X434857Y391116D01*
X418575Y399478D02*
X419600D01*
X403903Y384805D02*
X418575Y399478D01*
X438359Y412699D02*
X446416Y404642D01*
X452660D01*
X444206Y414800D02*
X450300Y408706D01*
X444206Y414800D02*
Y443556D01*
X450300Y408706D02*
X463900D01*
X452000Y415200D02*
X457671D01*
X457872Y414999D01*
X395199Y384805D02*
X403903D01*
X387105Y392899D02*
X395199Y384805D01*
X387105Y392899D02*
Y393095D01*
X412858Y404458D02*
Y453397D01*
X398999Y390599D02*
X412858Y404458D01*
X408794Y411194D02*
Y451714D01*
X392899Y395299D02*
X408794Y411194D01*
X272259Y542250D02*
X273489Y541020D01*
X271404Y541395D02*
X272259Y542250D01*
X452660Y404642D02*
X481330Y375972D01*
X463900Y408706D02*
X491400Y381206D01*
X385300Y394900D02*
X387105Y393095D01*
X340000Y366000D02*
Y382000D01*
X350705Y330277D02*
Y384495D01*
X344750Y390450D02*
X350705Y384495D01*
Y330277D02*
X359776Y321206D01*
X353618Y443183D02*
X387126D01*
X387367Y443424D01*
X521532Y259518D02*
Y270510D01*
X350584Y446217D02*
X353618Y443183D01*
X361467Y449699D02*
X372699D01*
X352868Y436602D02*
X401654D01*
X368300Y455999D02*
Y457618D01*
X343980Y445490D02*
X352868Y436602D01*
X401654D02*
X403000Y437947D01*
X356934Y454232D02*
X361467Y449699D01*
X481330Y360680D02*
Y375972D01*
X239382Y443312D02*
X302000Y380694D01*
Y331156D02*
Y380694D01*
X208974Y443312D02*
X239382D01*
X318614Y386386D02*
X326900Y378100D01*
X239542Y448900D02*
X302056Y386386D01*
X227622Y448900D02*
X239542D01*
X289100Y234012D02*
Y261200D01*
X305356Y199057D02*
X311898Y205600D01*
X305356Y141838D02*
X319194Y128000D01*
Y64080D02*
Y128000D01*
X308062Y59706D02*
X314820D01*
X319194Y64080D01*
X356499Y380712D02*
Y381199D01*
Y380712D02*
X356612Y380599D01*
X356256Y380243D02*
X356612Y380599D01*
X356256Y353543D02*
Y380243D01*
X374544Y353543D02*
Y380244D01*
X374899Y380599D01*
X381300Y352954D02*
X406546Y327708D01*
X403332Y355400D02*
X414062Y366130D01*
X406546Y327708D02*
X501281D01*
X830956Y815914D02*
X832525Y817483D01*
X651000Y341875D02*
Y367998D01*
X436500Y467000D02*
Y471500D01*
X472701Y458400D02*
X477000Y462699D01*
X455500Y458400D02*
X472701D01*
X436500Y459200D02*
Y467000D01*
X384810Y74327D02*
X389890Y69247D01*
X390800Y366130D02*
X390848Y366082D01*
Y351600D02*
Y366082D01*
X414062Y366130D02*
X416200D01*
X770900Y434710D02*
Y437100D01*
Y434710D02*
X777064Y428546D01*
X819028D01*
X826344Y421230D01*
X273000Y153658D02*
Y201034D01*
X181342Y62000D02*
X273000Y153658D01*
X390800Y291530D02*
X391330Y291000D01*
X401500D01*
X135890Y205456D02*
X151826Y221392D01*
X137644Y201144D02*
X153828Y217328D01*
X326900Y328595D02*
X338353Y317142D01*
X320022Y313134D02*
X321170D01*
X302000Y331156D02*
X320022Y313134D01*
X372064Y327706D02*
Y351063D01*
X342543Y253100D02*
X352200D01*
X339900Y255744D02*
X342543Y253100D01*
X339900Y255744D02*
Y261200D01*
X314400Y261100D02*
X314500Y261200D01*
X302200Y261100D02*
X314400D01*
X365300Y186600D02*
X392630Y159270D01*
X467000Y186600D02*
X467100Y186500D01*
Y166100D02*
Y186500D01*
X467000Y123748D02*
Y144242D01*
Y123748D02*
X475178Y115570D01*
X467000Y186600D02*
Y198600D01*
X517823Y252730D02*
X518000D01*
X515283Y255270D02*
X517823Y252730D01*
X515283Y255270D02*
Y280210D01*
X356256Y353543D02*
X364499Y345299D01*
X501281Y327708D02*
X523707Y305281D01*
X502964Y331772D02*
X527771Y306965D01*
X504647Y335836D02*
X531835Y308648D01*
X509730Y339900D02*
X520700Y328930D01*
X462873Y339900D02*
X509730D01*
X454355Y348419D02*
X462873Y339900D01*
X516049Y345266D02*
X557530Y386747D01*
X477874Y345266D02*
X516049D01*
X477400Y345740D02*
X477874Y345266D01*
X507451Y288042D02*
Y298548D01*
X311800Y126900D02*
X311900Y127000D01*
X367899Y120900D02*
Y127000D01*
X367999Y120900D02*
Y127000D01*
X384900Y119500D02*
Y127100D01*
X311900Y126900D02*
X312000Y127000D01*
X824694Y751812D02*
X828821D01*
X824666Y751840D02*
X824694Y751812D01*
X817126Y744300D02*
X824666Y751840D01*
X495099Y491369D02*
X502646Y483822D01*
X495099Y491369D02*
Y501600D01*
X502646Y483822D02*
X502774D01*
X503500Y453400D02*
X530935D01*
X532130Y452205D01*
X503500Y458400D02*
X539603D01*
X511696Y462464D02*
X544675D01*
X513380Y466528D02*
X546358D01*
X518605Y470592D02*
X549332D01*
X627696Y489108D02*
X632559D01*
X539603Y458400D02*
X541810Y456193D01*
X536000Y403800D02*
Y416560D01*
X529469Y403860D02*
Y437437D01*
X536000Y403800D02*
X546000Y393800D01*
X529469Y403860D02*
X535662Y397666D01*
Y373380D02*
Y397666D01*
X511515Y289725D02*
Y300231D01*
X518506Y448400D02*
X529469Y437437D01*
X523206Y381206D02*
X523675Y381675D01*
X491400Y381206D02*
X523206D01*
X660280Y166370D02*
X672500D01*
X540139Y301483D02*
X549622Y291999D01*
X540139Y301483D02*
Y352392D01*
X549622Y291999D02*
X554700D01*
X684999Y283461D02*
Y383999D01*
X677000Y286457D02*
Y384000D01*
X722630Y194310D02*
Y357399D01*
X694000Y165680D02*
X722630Y194310D01*
X694000Y141550D02*
Y165680D01*
X507451Y288042D02*
X515283Y280210D01*
X716280Y54720D02*
X729000Y42000D01*
X716280Y54720D02*
Y86360D01*
X576358Y14642D02*
X716370D01*
X739414Y60034D02*
X754400Y75020D01*
X739414Y37686D02*
Y60034D01*
X716370Y14642D02*
X739414Y37686D01*
X556000Y35000D02*
X576358Y14642D01*
X680306Y18706D02*
X703600Y42000D01*
X692420Y75020D02*
X703600D01*
X841997Y413497D02*
X850728Y404767D01*
X327607Y561287D02*
X332740Y566420D01*
X324674Y561287D02*
X327607D01*
X311468Y536245D02*
Y548080D01*
Y526876D02*
Y536245D01*
Y548080D02*
X314068Y550680D01*
X287874Y545277D02*
X298514Y534637D01*
X300990Y538765D02*
X305118Y534637D01*
Y526876D02*
Y534637D01*
X300990Y538765D02*
Y545325D01*
X298514Y526876D02*
Y534637D01*
X285700Y553720D02*
X294385D01*
X283210D02*
X285700D01*
X294385D02*
X300990Y560325D01*
X285700Y553720D02*
X288290Y556310D01*
Y560277D01*
X308578Y593378D02*
X326900D01*
X295332Y580132D02*
X308578Y593378D01*
X295332Y576016D02*
Y580132D01*
X291938Y572622D02*
X295332Y576016D01*
X288314Y572622D02*
X291938D01*
X279266Y563574D02*
X288314Y572622D01*
X266700Y562610D02*
Y564706D01*
X234870Y576036D02*
X258406Y552500D01*
X244831Y530688D02*
X272494Y558351D01*
X271175Y548640D02*
X275590D01*
X283744Y573799D02*
Y618882D01*
X319612Y654750D01*
X271324Y570230D02*
X271780D01*
X311468Y536245D02*
X335110Y559886D01*
X318072Y537101D02*
X329736Y548765D01*
X318072Y526876D02*
Y537101D01*
X271780Y541020D02*
X273489D01*
X271029D02*
X271780D01*
X262314Y539779D02*
X271175Y548640D01*
X262314Y505500D02*
Y539779D01*
X272494Y558351D02*
Y562549D01*
X283744Y573799D01*
X279266Y561000D02*
Y563574D01*
X211334Y630220D02*
X271324Y570230D01*
X207270Y624136D02*
X266700Y564706D01*
X215543Y530688D02*
X244831D01*
X346712Y572721D02*
X347654Y571779D01*
Y561523D02*
Y571779D01*
X346017Y559886D02*
X347654Y561523D01*
X335110Y559886D02*
X346017D01*
X359206Y555482D02*
Y618125D01*
X329736Y548765D02*
X352489D01*
X351935Y556405D02*
Y593013D01*
X350520Y554990D02*
X351935Y556405D01*
X352489Y548765D02*
X359206Y555482D01*
X266378Y536369D02*
X271029Y541020D01*
X332740Y566420D02*
X340120D01*
X340360Y566180D01*
X346712Y572721D02*
Y613744D01*
X826271Y859291D02*
X834142D01*
X817334Y850354D02*
X826271Y859291D01*
X817334Y832514D02*
Y850354D01*
Y831336D02*
Y832514D01*
X793766Y807768D02*
X817334Y831336D01*
X780094Y807768D02*
X793766D01*
X775160Y811162D02*
Y816374D01*
X710348Y746350D02*
X775160Y811162D01*
X769366Y813562D02*
X771050Y815246D01*
X775160Y816374D02*
X822649Y863863D01*
X842778Y856356D02*
Y862226D01*
X834142Y852687D02*
X839109D01*
X842778Y856356D01*
X841142Y863863D02*
X842778Y862226D01*
X822649Y863863D02*
X841142D01*
X709930Y746350D02*
X710348D01*
X724664Y794714D02*
X756050Y826100D01*
X722010Y794714D02*
X724664D01*
X740695Y826100D02*
X741050D01*
X722010Y807414D02*
X740695Y826100D01*
X627770Y696350D02*
X714804Y783384D01*
Y800208D02*
X722010Y807414D01*
X714804Y783384D02*
Y800208D01*
X722010Y784843D02*
Y794714D01*
X631834Y694667D02*
X722010Y784843D01*
X698806Y807414D02*
X708010D01*
X698500Y807720D02*
X698806Y807414D01*
X698806Y794714D02*
X708010D01*
X698500Y795020D02*
X698806Y794714D01*
X832525Y817483D02*
X839228D01*
X847025D01*
X847556Y818014D01*
X854970Y859291D02*
X863878D01*
X865647Y861060D01*
X847705Y660572D02*
X879564Y692431D01*
X847705Y644836D02*
Y660572D01*
X831724Y636162D02*
X831832Y636270D01*
X871436Y739356D02*
Y819082D01*
X851405Y719325D02*
X871436Y739356D01*
X837302Y719325D02*
X851405D01*
X819671Y693500D02*
Y695947D01*
X813877Y695900D02*
X837302Y719325D01*
X813877Y686143D02*
Y695900D01*
X875500Y737673D02*
Y820765D01*
X807720Y672306D02*
Y723066D01*
X840740Y477252D02*
Y502773D01*
X823924Y460436D02*
X840740Y477252D01*
X747028Y460436D02*
X823924D01*
X840740Y502773D02*
X851936Y513969D01*
Y615950D01*
X854970Y852687D02*
X865647D01*
X838986Y715261D02*
X853088D01*
X875500Y737673D01*
X819671Y695947D02*
X838986Y715261D01*
X879564Y692431D02*
Y822449D01*
X855929Y846083D02*
X879564Y822449D01*
X854970Y846083D02*
X855929D01*
X627770Y573469D02*
Y696350D01*
X631834Y575152D02*
Y694667D01*
Y575152D02*
X654000Y552986D01*
X627770Y573469D02*
X647000Y554239D01*
X856000Y343550D02*
Y624025D01*
X807720Y672306D02*
X856000Y624025D01*
X769630Y530630D02*
X832220D01*
X812414Y524836D02*
X828148D01*
X764500Y525500D02*
X769630Y530630D01*
X832220D02*
X836930Y525920D01*
Y518232D02*
Y525920D01*
X721865Y435273D02*
X747028Y460436D01*
X692142Y422170D02*
X709309Y439337D01*
X692142Y414041D02*
Y422170D01*
X688078Y423853D02*
X707625Y443401D01*
X688078Y415724D02*
Y423853D01*
X657418Y385064D02*
X688078Y415724D01*
X682835Y424358D02*
X705942Y447465D01*
X682835Y417417D02*
Y424358D01*
X678771Y426041D02*
X704259Y451529D01*
X678771Y419100D02*
Y426041D01*
X652863Y393192D02*
X678771Y419100D01*
X715754Y443401D02*
X738994Y466641D01*
X707625Y443401D02*
X715754D01*
X712883Y447465D02*
X731520Y466101D01*
Y467360D01*
X705942Y447465D02*
X712883D01*
X654547Y389128D02*
X682835Y417417D01*
X576875Y389128D02*
X654547D01*
X711200Y451529D02*
X725726Y466055D01*
X704259Y451529D02*
X711200D01*
X725726Y466055D02*
Y469760D01*
X575192Y393192D02*
X652863D01*
X657640Y373792D02*
X696206Y412357D01*
X659101Y381000D02*
X692142Y414041D01*
X645572Y373792D02*
X657640D01*
X580242Y381000D02*
X659101D01*
X745085Y464500D02*
X817787D01*
X745085Y464240D02*
Y464500D01*
X720181Y439337D02*
X745085Y464240D01*
X738994Y466641D02*
X739291D01*
X578559Y385064D02*
X657418D01*
X665848Y437849D02*
X672500Y444500D01*
X665848Y414468D02*
Y437849D01*
X665480Y414100D02*
X665848Y414468D01*
X654050Y403860D02*
X655127D01*
X648523Y397256D02*
X655127Y403860D01*
X653365Y412399D02*
X656936D01*
X642286Y401320D02*
X653365Y412399D01*
X646359Y413587D02*
Y441181D01*
X640584Y441205D02*
X642295Y439494D01*
Y429147D02*
Y439494D01*
X639347Y426199D02*
X642295Y429147D01*
X642170Y445370D02*
X646359Y441181D01*
X643706Y371926D02*
X645572Y373792D01*
X646582Y320224D02*
X657500Y309306D01*
X643706Y334745D02*
X644446Y334005D01*
Y327800D02*
Y334005D01*
Y327800D02*
X646582Y325664D01*
Y320224D02*
Y325664D01*
X657500Y302375D02*
Y309306D01*
X643706Y334745D02*
Y371926D01*
X650240Y330200D02*
X664797D01*
X655000Y320000D02*
X667000D01*
X664797Y330200D02*
X664998Y329999D01*
X665999Y331000D01*
X666999Y329999D02*
X667000Y330000D01*
X817787Y464500D02*
X823797Y470509D01*
X486309Y699770D02*
X494396D01*
X475788Y689249D02*
X486309Y699770D01*
X799129Y556260D02*
X800578Y554811D01*
X790089Y556260D02*
X799129D01*
X788350Y558000D02*
X790089Y556260D01*
X807720Y751840D02*
Y754051D01*
X833670Y780000D01*
X810000Y728980D02*
X818980Y720000D01*
X804206Y726580D02*
X807720Y723066D01*
X311956Y307340D02*
X318770D01*
X257512Y316788D02*
X302508D01*
X148526Y425774D02*
X257512Y316788D01*
X148526Y425774D02*
Y854900D01*
X521532Y259518D02*
X525526Y255524D01*
Y240415D02*
Y255524D01*
Y240415D02*
X551872Y214069D01*
X521532Y270510D02*
X521970D01*
X529590Y242099D02*
X532408Y239280D01*
X532469D01*
X529590Y242099D02*
Y262890D01*
X532469Y239280D02*
X555936Y215814D01*
X511515Y289725D02*
X544241Y257000D01*
X515579Y291409D02*
X544989Y261999D01*
X519643Y293092D02*
X545736Y267000D01*
X523707Y294775D02*
X546483Y271999D01*
X527771Y296459D02*
X547230Y277000D01*
X531835Y298292D02*
X548128Y281999D01*
X548875Y287000D02*
X554700D01*
X536075Y299799D02*
X548875Y287000D01*
X536075Y299799D02*
Y354075D01*
X546483Y271999D02*
X554700D01*
X547230Y277000D02*
X554700D01*
X548128Y281999D02*
X554700D01*
X536000Y241497D02*
Y253254D01*
X454355Y348419D02*
Y378409D01*
X439700Y445200D02*
X447900Y453400D01*
X436500Y445200D02*
X439700D01*
X783993Y518232D02*
X791586D01*
X780112Y514350D02*
X783993Y518232D01*
X764860Y499514D02*
X780112Y514350D01*
X764860Y499514D02*
Y499745D01*
X771050Y815246D02*
Y826100D01*
X382999Y827000D02*
X383250D01*
X726050Y826100D02*
Y826331D01*
X471999Y849680D02*
X473328Y848351D01*
X281728Y824201D02*
X288961D01*
X384688Y813562D02*
X389797D01*
X360250Y838000D02*
X384688Y813562D01*
X485175Y563750D02*
X493199Y555726D01*
X448219Y563750D02*
X485175D01*
X493199Y550759D02*
Y555726D01*
X486595Y550759D02*
Y556583D01*
X483783Y559395D02*
X486595Y556583D01*
X474871Y559395D02*
X483783D01*
X470000Y554523D02*
X474871Y559395D01*
X452651Y554523D02*
X470000D01*
X418084Y587406D02*
Y740088D01*
Y587406D02*
X422878Y582612D01*
Y574445D02*
Y582612D01*
X421000Y572567D02*
X422878Y574445D01*
X421000Y489659D02*
Y572567D01*
X414020Y585722D02*
X418814Y580928D01*
X416936Y574250D02*
X418814Y576128D01*
X416936Y491342D02*
Y574250D01*
X414020Y585722D02*
Y691396D01*
X418814Y576128D02*
Y580928D01*
X412373Y693043D02*
X414020Y691396D01*
X786567Y442200D02*
X787560Y441206D01*
X779710Y434340D02*
X818981D01*
X830408Y422913D01*
Y400892D02*
Y422913D01*
X826344Y392256D02*
Y421230D01*
X794671Y511628D02*
X798299Y508000D01*
X734242Y478276D02*
X734694D01*
X725726Y469760D02*
X734242Y478276D01*
X697014Y492094D02*
X706091Y483017D01*
X674434Y444500D02*
X706091Y476158D01*
X672500Y444500D02*
X674434D01*
X706091Y476158D02*
Y483017D01*
X835660Y603350D02*
Y604350D01*
Y570230D02*
Y571100D01*
Y561209D02*
Y562610D01*
X790218Y754380D02*
X800298Y744300D01*
X817126D01*
X818980Y720000D02*
X828544D01*
X244589Y719274D02*
Y723900D01*
X239870Y728587D02*
X244557Y723900D01*
X239870Y728587D02*
Y736288D01*
X231758Y719274D02*
X244589D01*
X219258Y706773D02*
X231758Y719274D01*
X219258Y704970D02*
Y706773D01*
X244589Y705274D02*
X257810D01*
X231758D02*
X244589D01*
X466487Y508867D02*
Y527997D01*
Y508867D02*
X468995Y506358D01*
X466487Y527997D02*
X479991Y541502D01*
X326900Y328595D02*
Y378100D01*
X302508Y316788D02*
X311956Y307340D01*
X561927Y518232D02*
X563000Y519305D01*
X535250Y502556D02*
X543969Y511275D01*
X447253Y610033D02*
Y610319D01*
X529627Y610509D02*
X530103Y610033D01*
X826770Y561209D02*
Y562610D01*
Y570230D02*
Y571100D01*
Y603350D02*
Y604350D01*
X440250Y571719D02*
X448219Y563750D01*
X536000Y241497D02*
X560000Y217497D01*
X523707Y294775D02*
Y305281D01*
X527771Y296459D02*
Y306965D01*
X531835Y298292D02*
Y308648D01*
X519643Y293092D02*
Y303598D01*
X731000Y312000D02*
Y323850D01*
Y312000D02*
X736794Y306206D01*
X823606D01*
X842600Y325200D01*
X816700Y312000D02*
X842600Y337900D01*
X739500Y312000D02*
X816700D01*
X594794Y210294D02*
Y222999D01*
X594000Y209499D02*
X594794Y210294D01*
X207270Y624136D02*
Y737777D01*
X443230Y763694D02*
X452834D01*
X427898Y749274D02*
X428318Y749694D01*
X443230D01*
X257810Y697230D02*
Y705274D01*
X249916Y727168D02*
X257810Y719274D01*
X249916Y727168D02*
Y736288D01*
X219258Y719970D02*
X224870Y725582D01*
Y736288D01*
X596426Y344050D02*
X609426Y331049D01*
X591426Y344050D02*
X596426D01*
X332566Y40814D02*
X388574D01*
X394000Y46240D01*
X326000Y47380D02*
X332566Y40814D01*
X366300Y66770D02*
Y74417D01*
X389890Y64770D02*
Y69247D01*
X326000Y47380D02*
Y57150D01*
X394000Y46240D02*
Y57150D01*
X420578Y74284D02*
Y74500D01*
X403444Y57150D02*
X420578Y74284D01*
X394000Y57150D02*
X403444D01*
X307340Y52977D02*
Y53340D01*
X312420Y65500D02*
Y74480D01*
X311900Y75000D02*
X312420Y74480D01*
X331470Y64770D02*
Y73047D01*
X330100Y74417D02*
X331470Y73047D01*
X403600Y65500D02*
Y74317D01*
X403500Y74417D02*
X403600Y74317D01*
X384810Y74327D02*
X384900Y74417D01*
X347980Y65500D02*
Y74137D01*
X347700Y74417D02*
X347980Y74137D01*
X757270Y266000D02*
X802000D01*
X835800Y299800D01*
X755657Y273627D02*
X803727D01*
X748030Y266000D02*
X755657Y273627D01*
X475178Y115570D02*
X821071D01*
X900000Y194499D01*
X110844Y205456D02*
X135890D01*
X100300Y216000D02*
X110844Y205456D01*
Y201144D02*
X137644D01*
X100300Y190600D02*
X110844Y201144D01*
X639545Y546453D02*
X650999Y534999D01*
X654000Y543436D02*
Y552986D01*
X660749Y527305D02*
X688144Y499909D01*
X649000Y527305D02*
X660749D01*
X656749Y519305D02*
X676144Y499909D01*
X649000Y519305D02*
X656749D01*
X658280Y511305D02*
X660076Y509509D01*
X649000Y511305D02*
X658280D01*
X649718Y534999D02*
X650999D01*
X647000Y549000D02*
Y554239D01*
X637908Y552599D02*
X639545Y550962D01*
Y546453D02*
Y550962D01*
X630093Y552599D02*
X637908D01*
X831834Y832014D02*
X847556D01*
X858504D01*
X871436Y819082D01*
X836227Y839515D02*
X856750D01*
X834142Y841600D02*
X836227Y839515D01*
X834142Y841600D02*
Y846083D01*
X856750Y839515D02*
X875500Y820765D01*
X833670Y780000D02*
X864560D01*
X380220Y762464D02*
X422104D01*
X378520Y760764D02*
X380220Y762464D01*
X400076Y749274D02*
X408898D01*
X393700Y755650D02*
X400076Y749274D01*
X378657Y730150D02*
X390400Y741893D01*
Y748030D01*
X422104Y762464D02*
X427898Y768258D01*
Y777274D01*
X372487Y693043D02*
X412373D01*
X348000Y717530D02*
X372487Y693043D01*
X333068Y772348D02*
X348000Y757416D01*
Y717530D02*
Y757416D01*
X333068Y772348D02*
Y783782D01*
X300250Y724000D02*
X314068D01*
X314069Y724000D02*
X341630Y751562D01*
Y755592D01*
X333068Y755782D02*
Y765888D01*
X319862Y779094D02*
X333068Y765888D01*
Y783782D02*
Y789612D01*
X316430Y806250D02*
X333068Y789612D01*
X211750Y806250D02*
X316430D01*
X365000Y640622D02*
Y652500D01*
X210500Y750578D02*
Y758250D01*
X548650Y152700D02*
X569350D01*
X545350Y156000D02*
X548650Y152700D01*
X686450Y144160D02*
Y152851D01*
X660350Y140750D02*
X672450Y152851D01*
X660350Y138900D02*
Y140750D01*
X660350Y152851D02*
X660350Y152850D01*
X660350Y152851D02*
X660350Y152851D01*
X672450D01*
X519210Y156000D02*
X531350D01*
X677350Y124900D02*
X694000Y141550D01*
X660350Y124900D02*
X677350D01*
X644311Y165400D02*
X645280Y166370D01*
X621350Y165400D02*
X644311D01*
X501044Y473929D02*
X502000Y472973D01*
X501044Y473929D02*
Y474057D01*
X499407Y475694D02*
X501044Y474057D01*
X499279Y475694D02*
X499407D01*
X495097Y479876D02*
X499279Y475694D01*
X492650Y479876D02*
X495097D01*
X490341Y506358D02*
X495099Y501600D01*
X500474Y518275D02*
X502524D01*
X491035Y489686D02*
Y499917D01*
X488657Y502294D02*
X491035Y499917D01*
X465794Y502294D02*
X488657D01*
X468995Y506358D02*
X490341D01*
X456280Y490220D02*
X467000Y479500D01*
X457219Y490220D02*
X457500Y490500D01*
X456280Y490220D02*
X457219D01*
X448310D02*
X456280D01*
X474100Y482100D02*
X482500Y490500D01*
X472000Y480360D02*
X473740Y482100D01*
X472000Y467900D02*
Y480360D01*
X473740Y482100D02*
X474100D01*
X467000Y467900D02*
Y479500D01*
X513327Y497840D02*
X520700D01*
X511250Y499917D02*
X513327Y497840D01*
X530656Y504511D02*
X535250Y499917D01*
X525780Y504511D02*
X530656D01*
X524510Y477520D02*
X555730D01*
X510128Y469779D02*
Y476468D01*
X502774Y483822D02*
X510128Y476468D01*
X506064Y468096D02*
Y474785D01*
X501091Y479758D02*
X506064Y474785D01*
X545000Y448242D02*
X548872Y452114D01*
Y458267D01*
X549064Y403927D02*
Y446559D01*
X552936Y450431D01*
Y459950D01*
X557000Y448747D02*
Y470539D01*
X553128Y444875D02*
X557000Y448747D01*
X553128Y411239D02*
Y444875D01*
X563000Y463000D02*
X568993D01*
X557192Y443192D02*
X570305Y456305D01*
X557192Y417808D02*
Y443192D01*
X549332Y470592D02*
X549910Y471170D01*
X546358Y466528D02*
X552936Y459950D01*
X544675Y462464D02*
X548872Y458267D01*
X545000Y402244D02*
Y448242D01*
X516160Y473037D02*
Y475129D01*
X510128Y469779D02*
X513380Y466528D01*
X506064Y468096D02*
X511696Y462464D01*
X503500Y448400D02*
X518506D01*
X555730Y477520D02*
X558210Y480000D01*
X516160Y473037D02*
X518605Y470592D01*
X568993Y463000D02*
X573198Y467205D01*
X557000Y470539D02*
X557765Y471305D01*
X451475Y424024D02*
X457000Y429548D01*
X502000Y467900D02*
Y472973D01*
X477000Y433900D02*
Y443000D01*
X558210Y480000D02*
X562305D01*
X491035Y489686D02*
X498444Y482276D01*
X500962Y479758D01*
X497840Y482881D02*
X498444Y482276D01*
Y482276D02*
Y482276D01*
X500962Y479758D02*
X501091D01*
X557765Y471305D02*
X563000D01*
X439690Y508646D02*
X459354D01*
X429250Y508646D02*
X439690D01*
X503500Y443400D02*
X511500D01*
X520999Y433900D01*
X518000Y418900D02*
X520999D01*
X512500Y424400D02*
X518000Y418900D01*
X508575Y420475D02*
X512500Y424400D01*
X508575Y416000D02*
Y420475D01*
X486319Y422319D02*
X490106Y426106D01*
X486319Y408899D02*
Y422319D01*
Y408899D02*
X502218Y393000D01*
X573198Y467205D02*
X584394D01*
X497206Y458400D02*
X503500D01*
X513448Y535292D02*
Y537719D01*
X535250Y499917D02*
Y502556D01*
X812414Y518232D02*
X822706D01*
X544241Y257000D02*
X554700D01*
X544989Y261999D02*
X554700D01*
X515579Y291409D02*
Y301915D01*
X545736Y267000D02*
X554700D01*
X540139Y352392D02*
X576875Y389128D01*
X821186Y448564D02*
X822750Y447000D01*
X842600Y426800D01*
X795439Y448564D02*
X821186D01*
X793875Y447000D02*
X795439Y448564D01*
X660000Y440194D02*
X671422Y451616D01*
X652448Y439086D02*
X667358Y453996D01*
X656176Y451008D02*
Y452121D01*
X649544Y447000D02*
Y453930D01*
X645237Y458237D02*
X649544Y453930D01*
X635932Y458237D02*
X645237D01*
X642170Y445370D02*
Y452205D01*
X652531Y420000D02*
Y439003D01*
X636454Y444350D02*
X639599Y441205D01*
X627954Y444350D02*
X636454D01*
X643564Y462699D02*
X657500D01*
X663294Y459238D02*
Y468116D01*
X667358Y453996D02*
Y469799D01*
X671422Y451616D02*
Y471483D01*
X660105Y471305D02*
X663294Y468116D01*
X657853Y479305D02*
X667358Y469799D01*
X660076Y482829D02*
X671422Y471483D01*
X660054Y420098D02*
Y439748D01*
X551671Y401320D02*
X642286D01*
X549988Y397256D02*
X648523D01*
X629093Y426199D02*
X639347D01*
X660000Y440194D02*
X660250Y439944D01*
X660054Y439748D02*
X660250Y439944D01*
X637988Y468116D02*
X643104Y463000D01*
X637988Y468116D02*
Y471206D01*
X631195Y477999D02*
X637988Y471206D01*
X632001Y468999D02*
X632194Y468806D01*
X624999Y477999D02*
X631195D01*
X620030Y489283D02*
Y490524D01*
X619030Y506275D02*
X640060Y527305D01*
X613236Y477896D02*
Y511924D01*
X634001Y532688D01*
X656176Y452121D02*
X663294Y459238D01*
X403800Y118901D02*
Y126900D01*
X621049Y139700D02*
X621350Y140000D01*
X605300Y139700D02*
X621049D01*
X683959Y492094D02*
X697014D01*
X676144Y499909D02*
X683959Y492094D01*
X660076Y482829D02*
Y509509D01*
X649000Y479305D02*
X657853D01*
X649000Y471305D02*
X660105D01*
X668000Y484909D02*
X676144D01*
X430751Y481085D02*
X433000Y478835D01*
Y475000D02*
Y478835D01*
X459388Y477612D02*
X462000Y475000D01*
X453158Y477612D02*
X459388D01*
X447499Y471953D02*
X453158Y477612D01*
X447499Y471953D02*
Y478337D01*
Y464999D02*
Y471953D01*
X444751Y481085D02*
X447499Y478337D01*
X194228Y525100D02*
X205000Y514328D01*
X180378Y525100D02*
X194228D01*
X162350Y817483D02*
Y824651D01*
X162900Y825200D01*
X239910Y796036D02*
X248227D01*
X535250Y539917D02*
X545000D01*
X523738Y534999D02*
Y537073D01*
X520894Y539917D02*
X523738Y537073D01*
X546000Y393000D02*
Y393800D01*
X536075Y354075D02*
X575192Y393192D01*
X544203Y350708D02*
X578559Y385064D01*
X548267Y349025D02*
X580242Y381000D01*
X511250Y539917D02*
X520894D01*
X604751Y412000D02*
X606689Y413939D01*
X545350Y134000D02*
Y142000D01*
X545350Y142000D01*
X797375Y577561D02*
X800500D01*
X797375D02*
X797426Y577612D01*
X789016Y586021D02*
X797426Y577612D01*
X795350Y565000D02*
X800500D01*
X788350Y572000D02*
X795350Y565000D01*
X444206Y443556D02*
X449050Y448400D01*
X427415Y436115D02*
X436500Y445200D01*
X427415Y432150D02*
Y436115D01*
X275169Y838000D02*
X280499Y843331D01*
X266714Y829545D02*
X275169Y838000D01*
X360250D01*
X275000D02*
X275169D01*
X280499Y843331D02*
Y849680D01*
X266714Y824214D02*
Y829545D01*
X177900Y836580D02*
X191000Y849680D01*
X177900Y825200D02*
Y836580D01*
X384511Y568978D02*
X390694Y575161D01*
X384511Y563609D02*
Y568978D01*
X382500Y561597D02*
X384511Y563609D01*
X390694Y575161D02*
Y593084D01*
X635450Y330549D02*
X636376Y329623D01*
X637000Y328999D01*
X390400Y593378D02*
X390694Y593084D01*
X373048Y568250D02*
Y588726D01*
X351935Y593013D02*
X352300Y593378D01*
X346712Y613744D02*
X352300Y619332D01*
X373048Y588726D02*
X377700Y593378D01*
X555300Y239488D02*
X561550Y245739D01*
Y250149D01*
X562128Y238122D02*
X566550Y242544D01*
Y250149D01*
X560000Y210548D02*
Y217497D01*
X588000Y225000D02*
Y235000D01*
X635538Y234000D02*
X684999Y283461D01*
X555936Y208865D02*
Y215814D01*
X551872Y207181D02*
Y214069D01*
X785286Y634894D02*
X791660D01*
X784016Y633624D02*
X785286Y634894D01*
X791660D02*
X801366Y644600D01*
X784016Y627600D02*
Y633624D01*
X789016Y586021D02*
Y593900D01*
X784016Y576334D02*
Y593900D01*
X779016Y553684D02*
X791853Y540846D01*
X779016Y553684D02*
Y593900D01*
X797491Y541342D02*
X800578D01*
X796996Y540846D02*
X797491Y541342D01*
X791853Y540846D02*
X796996D01*
X900000Y194499D02*
Y285645D01*
X803727Y273627D02*
X842600Y312500D01*
X622450Y138900D02*
X645350D01*
X621350Y140000D02*
X622450Y138900D01*
X636376Y329623D02*
Y337900D01*
X664000Y358375D02*
X664500Y358875D01*
X664000Y341875D02*
Y358375D01*
X664500Y358875D02*
Y367498D01*
X622999Y330549D02*
X635450D01*
X622499Y344050D02*
X622999Y344549D01*
X609426Y344050D02*
X622499D01*
X584750Y305250D02*
Y317250D01*
Y305250D02*
X586550Y303450D01*
X565278Y336722D02*
X584750Y317250D01*
X596550Y298849D02*
Y310549D01*
X598000Y311999D01*
X586550Y298849D02*
Y303450D01*
X591550Y298849D02*
Y308874D01*
X590010Y310414D02*
X591550Y308874D01*
X548267Y322282D02*
Y349025D01*
Y322282D02*
X566550Y303999D01*
X544203Y320199D02*
Y350708D01*
Y320199D02*
X561550Y302852D01*
X591997Y171750D02*
X602750D01*
X587939Y175808D02*
X591997Y171750D01*
X791586Y511628D02*
X794671D01*
X856000Y343550D02*
X868000Y331550D01*
X765164Y524836D02*
X791586D01*
X764500Y525500D02*
X765164Y524836D01*
X851500Y423000D02*
Y454795D01*
X845967Y460328D02*
X851500Y454795D01*
X538750Y25490D02*
Y35000D01*
Y24250D02*
Y25490D01*
X551872Y207181D02*
X575117Y183936D01*
X555936Y208865D02*
X568007Y196794D01*
X560000Y210548D02*
X568549Y201999D01*
X416114Y261114D02*
X416200Y261200D01*
X444190Y522896D02*
Y525602D01*
X444298Y522646D02*
X454692D01*
X194811Y760000D02*
X208061Y773250D01*
X210500D01*
X566550Y298849D02*
Y303999D01*
X561550Y298849D02*
Y302852D01*
X493999Y446999D02*
X495400Y448400D01*
X557192Y417808D02*
X565000Y410000D01*
X549064Y403927D02*
X551671Y401320D01*
X545000Y402244D02*
X549988Y397256D01*
X555789Y408578D02*
X556000D01*
X491353Y387000D02*
X505335D01*
X502218Y393000D02*
X517194D01*
X588738Y412399D02*
X591904D01*
X575166Y405384D02*
X612714D01*
X615475Y408145D01*
X596500Y420000D02*
X598002Y418498D01*
X652448Y439086D02*
X652531Y439003D01*
X643183Y463079D02*
X643564Y462699D01*
X232589Y487000D02*
X244589Y475000D01*
X246000D01*
X227622Y474300D02*
X227987Y473935D01*
X227922Y500000D02*
X246000D01*
X227622Y499700D02*
X227922Y500000D01*
X227622Y525100D02*
X239900D01*
X570305Y456305D02*
X578001D01*
X606689Y413939D02*
X616833D01*
X643104Y463000D02*
X643183Y463079D01*
X676144Y484909D02*
X688144D01*
X622999Y409999D02*
X634734D01*
X218582Y730000D02*
X224870Y736288D01*
X304746Y499262D02*
X312955D01*
X298514Y505494D02*
X304746Y499262D01*
X634001Y456305D02*
X635932Y458237D01*
X639599Y441205D02*
X640584D01*
X626001Y542305D02*
Y548506D01*
X630093Y552599D01*
X634001Y532688D02*
Y542305D01*
X472281Y515765D02*
X479964D01*
X459193Y508896D02*
X465794Y502294D01*
X448864Y530276D02*
X451772D01*
X479991Y541502D02*
Y550759D01*
X462000Y467900D02*
Y475000D01*
X244870Y736288D02*
X249916D01*
X211334Y736094D02*
X221572Y746332D01*
X211334Y630220D02*
Y736094D01*
X207270Y737777D02*
X219889Y750396D01*
X337630Y488288D02*
X368300Y457618D01*
X410320Y455935D02*
Y468680D01*
Y455935D02*
X412858Y453397D01*
X403999Y456509D02*
X408794Y451714D01*
X403999Y456509D02*
Y473999D01*
X394622Y474728D02*
X407250Y487356D01*
X486817Y443424D02*
Y448011D01*
X495400Y448400D02*
X503500D01*
X476999Y442200D02*
Y442999D01*
X649544Y259000D02*
X677000Y286457D01*
X629294Y248294D02*
X667500Y286500D01*
X370870Y616125D02*
X390400Y635655D01*
X365400Y616125D02*
X370870D01*
X390400Y635655D02*
Y640622D01*
X359206Y618125D02*
X363000Y621919D01*
X364919D02*
X377700Y634700D01*
X363000Y621919D02*
X364919D01*
X339600Y623000D02*
Y640622D01*
X228906Y587500D02*
X234870Y581535D01*
Y576036D02*
Y581535D01*
X266378Y507183D02*
Y536369D01*
X201500Y587500D02*
X228906D01*
X266378Y507183D02*
X294538Y479023D01*
X341147D01*
X350584Y469586D01*
Y454232D02*
Y469586D01*
X262314Y505500D02*
X293815Y473999D01*
X338695D01*
X344002Y468692D01*
Y454253D02*
Y468692D01*
X343980Y454232D02*
X344002Y454253D01*
X460701Y453400D02*
X463294Y450807D01*
Y445993D02*
Y450807D01*
X386141Y466874D02*
Y481610D01*
Y466874D02*
X392435Y460579D01*
X420986Y489645D02*
X421000Y489659D01*
X337500Y467000D02*
X337630Y454232D01*
X234870Y736288D02*
Y744737D01*
X219889Y750396D02*
X229211D01*
X229870Y736288D02*
Y743989D01*
X227527Y746332D02*
X229870Y743989D01*
X229211Y750396D02*
X234870Y744737D01*
X221572Y746332D02*
X227527D01*
X217832Y773250D02*
X224870Y780288D01*
X210500Y773250D02*
X217832D01*
X230447Y758733D02*
X239870Y749310D01*
Y736288D02*
Y749310D01*
X618001Y551143D02*
X622999Y556141D01*
X618001Y542305D02*
Y551143D01*
X586001Y542305D02*
Y552109D01*
X575686Y562423D02*
X586001Y552109D01*
X575686Y562423D02*
Y580686D01*
X594001Y542305D02*
Y550679D01*
X583250Y561430D02*
X594001Y550679D01*
X583250Y561430D02*
Y584750D01*
X312955Y499262D02*
X313610Y499917D01*
X305118Y507084D02*
X307146Y505056D01*
X305118Y507084D02*
Y526876D01*
X298514Y505494D02*
Y526876D01*
X481944Y669039D02*
X484444D01*
X479444D02*
X481944D01*
X475788D02*
X479444D01*
X475788D02*
Y689249D01*
X400658Y773710D02*
Y774376D01*
X403556Y777274D01*
X427898Y749274D02*
Y759402D01*
X403556Y777274D02*
X408898D01*
X315551Y766750D02*
X323568Y758733D01*
X300000Y766750D02*
X315551D01*
X280566Y754828D02*
X313114D01*
X239870Y766130D02*
X249306Y756694D01*
X239870Y766130D02*
Y780288D01*
X352300Y619332D02*
Y640622D01*
X365000Y608000D02*
X365000Y608000D01*
X318072Y526434D02*
Y526876D01*
X377700Y634700D02*
Y640622D01*
X390400Y593378D02*
X403100D01*
X416922Y491328D02*
X416936Y491342D01*
X407250Y487356D02*
Y492680D01*
X404406Y495524D02*
X407250Y492680D01*
X435300Y467000D02*
X436500D01*
X356934Y509412D02*
X368695Y497651D01*
X356934Y509412D02*
Y526876D01*
X350584Y505589D02*
X366912Y489261D01*
X350584Y505589D02*
Y526876D01*
X366912Y489261D02*
X376078D01*
X377434Y487904D02*
Y502004D01*
X376078Y489261D02*
X377434Y487904D01*
X368695Y483467D02*
X377434Y474728D01*
X386141Y494198D02*
Y508710D01*
Y494198D02*
X392435Y487904D01*
X386141Y481610D02*
X392435Y487904D01*
X343980Y534637D02*
X347268Y537925D01*
X343980Y526876D02*
Y534637D01*
X347268Y537925D02*
X360251D01*
X371300Y521139D02*
X377434Y515004D01*
X371300Y521139D02*
Y526876D01*
X375782D02*
X377434Y528528D01*
X371300Y526876D02*
X375782D01*
X360251Y537925D02*
X371300Y526876D01*
X190000Y576000D02*
X201500Y587500D01*
X362750Y654750D02*
X365000Y652500D01*
X319612Y654750D02*
X362750D01*
X390400Y640622D02*
X403100D01*
X440000Y545277D02*
X441750Y547027D01*
X440000Y532704D02*
Y545277D01*
X430192Y522896D02*
X440000Y532704D01*
X486595Y522396D02*
Y529931D01*
X479964Y515765D02*
X486595Y522396D01*
X493199Y516530D02*
Y529931D01*
X444190Y525602D02*
X448864Y530276D01*
X313007Y797294D02*
X319862Y790439D01*
Y779094D02*
Y790439D01*
X290500Y780750D02*
X300000D01*
X265233Y797294D02*
X313007D01*
X248227Y780288D02*
X265233Y797294D01*
X244870Y780288D02*
X248227D01*
X261770Y748398D02*
X271168Y739000D01*
X261770Y748398D02*
Y754828D01*
X300000Y780750D02*
X311036D01*
X314068Y783782D01*
X323568Y755782D02*
Y758733D01*
X290500Y766750D02*
X300000D01*
X359767Y729896D02*
X361622Y728042D01*
Y716568D02*
Y728042D01*
X376622Y728115D02*
X378657Y730150D01*
X376622Y716568D02*
Y728115D01*
X280499Y849680D02*
X280500Y849679D01*
X493199Y516530D02*
X493964Y515765D01*
X439690Y508646D02*
X439690Y508646D01*
X493774Y515575D02*
X493964Y515765D01*
X399520Y495524D02*
X404406D01*
X392532Y487999D02*
X399699D01*
X392435Y474728D02*
X394622D01*
X398976Y495524D02*
X399520D01*
X392496Y502004D02*
X398976Y495524D01*
X392435Y502004D02*
X392496D01*
X562971Y511275D02*
X563000Y511305D01*
X571751Y175808D02*
X587939D01*
X835800Y299800D02*
X842600D01*
X575117Y183936D02*
X609388D01*
X619358Y193906D01*
X632031Y496774D02*
Y497031D01*
X633031Y498031D01*
X640060Y527305D02*
X649000D01*
X619999Y489252D02*
X620030Y489283D01*
X632781Y498281D02*
X633031Y498031D01*
X632781Y498281D02*
X637805Y503305D01*
X649000D01*
X637082Y484141D02*
X640246Y487305D01*
X649000D01*
X625109Y484141D02*
X637082D01*
X191000Y827000D02*
X211750Y806250D01*
X191000Y827000D02*
Y849680D01*
X372064Y351063D02*
X374544Y353543D01*
X522906Y124000D02*
X532850D01*
X532849Y169000D02*
X532850Y169000D01*
X592000Y564750D02*
X596470D01*
X599501Y561719D01*
X619999Y489252D02*
X625109Y484141D01*
X213000Y509141D02*
Y528145D01*
Y509141D02*
X213128Y509013D01*
Y489872D02*
Y509013D01*
Y489872D02*
X216000Y487000D01*
X213000Y528145D02*
X215543Y530688D01*
X563875Y177936D02*
X570067Y171744D01*
X586256D01*
X605300Y152700D01*
X568549Y201999D02*
X612451D01*
X615294Y204842D01*
Y219706D01*
X609000Y225999D02*
X615294Y219706D01*
X830956Y815914D02*
Y817514D01*
X326900Y640622D02*
X339600D01*
X619358Y223357D02*
X622000Y225999D01*
X619358Y193906D02*
Y223357D01*
X602001Y542305D02*
Y559219D01*
X346969Y422499D02*
X347268Y422798D01*
Y436212D01*
X337630Y445850D02*
X347268Y436212D01*
X337630Y445850D02*
Y454232D01*
X350584Y446217D02*
Y454232D01*
X337630Y488288D02*
Y526876D01*
X484444Y651989D02*
Y669039D01*
X481944D02*
X481945Y669039D01*
Y680641D01*
X605300Y152700D02*
X621350D01*
X599501Y561719D02*
X602001Y559219D01*
X645200Y152700D02*
X645350Y152851D01*
X621350Y152700D02*
X645200D01*
X457000Y429548D02*
Y433900D01*
X575000Y475998D02*
Y497507D01*
X569202Y503305D02*
X575000Y497507D01*
Y475998D02*
X577999Y472999D01*
X842600Y414100D02*
X851500Y423000D01*
X565278Y336722D02*
Y343999D01*
X576500Y298899D02*
X576550Y298849D01*
X576500Y298899D02*
Y310250D01*
X590010Y310414D02*
Y329385D01*
X591550Y330925D01*
X834472Y409528D02*
X842600Y401400D01*
X830408Y400892D02*
X842600Y388700D01*
X826344Y392256D02*
X842600Y376000D01*
X850728Y296433D02*
Y404767D01*
X845000Y290705D02*
X850728Y296433D01*
X813506Y334206D02*
X842600Y363300D01*
X817200Y325200D02*
X842600Y350600D01*
X751200Y325200D02*
X817200D01*
X746294Y334206D02*
X813506D01*
X744000Y336500D02*
X746294Y334206D01*
X573434Y179872D02*
X611071D01*
X629294Y198095D01*
X585399Y191000D02*
X588399Y188000D01*
X601501D01*
X608000Y194499D01*
X580328Y191000D02*
X585399D01*
X613236Y477896D02*
X622133Y468999D01*
X632559Y489108D02*
X638755Y495305D01*
X584394Y467205D02*
X585594Y468406D01*
X638755Y495305D02*
X649000D01*
X611999Y525999D02*
Y532779D01*
X314068Y755782D02*
X314069Y755781D01*
Y739000D02*
Y755781D01*
X314068Y724000D02*
X314069Y724000D01*
X285250D02*
X285250Y724000D01*
X271168Y724000D02*
X285250D01*
X313114Y754828D02*
X314068Y755782D01*
X378520Y745288D02*
X378657Y745150D01*
X378520Y745288D02*
Y760764D01*
X359724Y744939D02*
Y760764D01*
X234870Y790996D02*
X239910Y796036D01*
X234870Y780288D02*
Y790996D01*
X224910Y796036D02*
X229870Y791076D01*
Y780288D02*
Y791076D01*
X738116Y618250D02*
X738116Y618250D01*
X749666D01*
X148526Y854900D02*
X154512Y860886D01*
X199000D01*
X627696Y489108D02*
Y490088D01*
X622133Y468999D02*
X632001D01*
X563000Y503305D02*
X569202D01*
X608999Y535779D02*
X611999Y532779D01*
X610001Y536781D02*
Y542305D01*
X365000Y593378D02*
Y608000D01*
X420578Y89500D02*
Y97922D01*
X180378Y474300D02*
X198300D01*
X591705Y196794D02*
X594000Y194499D01*
X568007Y196794D02*
X591705D01*
X199000Y860886D02*
X286113D01*
X203499Y849680D02*
Y856387D01*
X199000Y860886D02*
X203499Y856387D01*
X286113Y860886D02*
X292999Y853999D01*
Y849680D02*
Y853999D01*
X654408Y292831D02*
X657500Y295924D01*
Y302375D01*
X665999Y331000D02*
X666999Y329999D01*
X635001Y409733D02*
Y418805D01*
X634734Y409999D02*
X635001Y409733D01*
X616833Y413939D02*
X629093Y426199D01*
X570794Y409756D02*
X575166Y405384D01*
X570794Y409756D02*
Y417379D01*
X569368Y418805D02*
X570794Y417379D01*
X629294Y198095D02*
Y248294D01*
X845000Y286000D02*
Y290705D01*
X553128Y411239D02*
X555789Y408578D01*
X203386Y448900D02*
X208974Y443312D01*
X180378Y487000D02*
X197000D01*
X326900Y593378D02*
X339600D01*
X622000Y269000D02*
X630999D01*
X334534Y428228D02*
Y436285D01*
X320534Y428628D02*
X322472D01*
X320534D02*
Y436285D01*
X322472Y428628D02*
X332100Y419000D01*
X486817Y448011D02*
X497206Y458400D01*
X476999Y442999D02*
X477000Y443000D01*
X615001Y315000D02*
X620000D01*
X580328Y344050D02*
X591426D01*
X580277Y343999D02*
X580328Y344050D01*
X612451Y296000D02*
X615451Y298999D01*
X603400Y291999D02*
Y295143D01*
X610051Y301794D01*
X610089D02*
X612000Y303705D01*
X610051Y301794D02*
X610089D01*
X615451Y298999D02*
X622000D01*
X636376Y276700D02*
Y285699D01*
X180378Y448900D02*
X203386D01*
X581550Y241450D02*
X588000Y235000D01*
X581550Y241450D02*
Y250149D01*
X619000Y271999D02*
X622000Y269000D01*
X603400Y271999D02*
X619000D01*
X610000Y287000D02*
X622000Y298999D01*
X603400Y287000D02*
X610000D01*
X619000Y281999D02*
X622000Y285000D01*
X603400Y281999D02*
X619000D01*
X610001Y558219D02*
X613501Y561719D01*
X610001Y542305D02*
Y558219D01*
X555250Y35000D02*
Y67000D01*
X366000Y118901D02*
X367999Y120900D01*
X647593Y292831D02*
X654408D01*
X641425Y298999D02*
X647593Y292831D01*
X377434Y460579D02*
Y474728D01*
X161689Y36600D02*
X289200Y164111D01*
X130000Y62000D02*
X181342D01*
X130000Y36600D02*
X161689D01*
X538750Y67000D02*
Y77000D01*
X403600Y126900D02*
X403800D01*
X348000Y118901D02*
Y127000D01*
X330400Y118901D02*
Y127000D01*
X311900Y118901D02*
Y126900D01*
X343980Y445490D02*
Y454232D01*
X477000Y462699D02*
Y467900D01*
X457872Y414999D02*
X458873Y416000D01*
X427500Y445000D02*
X435000D01*
X841997Y413497D02*
X842600Y414100D01*
X490106Y426106D02*
X494407D01*
X482000Y396353D02*
X491353Y387000D01*
X581500Y420000D02*
X582000Y420500D01*
Y432805D01*
X593501Y444305D01*
X594001D01*
X610001Y445304D02*
X622250Y433055D01*
X618001Y444305D02*
Y456305D01*
Y444305D02*
X622137Y440168D01*
X628637D01*
X626001Y446304D02*
X627954Y444350D01*
X626001Y446304D02*
Y456305D01*
X467375Y665039D02*
X470444D01*
X462589Y669826D02*
X467375Y665039D01*
X462589Y669826D02*
Y679911D01*
X461859Y680641D02*
X467945D01*
X455295D02*
X461859D01*
X462589Y679911D01*
X502000Y427952D02*
Y433900D01*
X496091Y422042D02*
X502000Y427952D01*
X494407Y426106D02*
X497048Y428747D01*
Y429500D01*
X495500Y422042D02*
X496091D01*
X495500Y416000D02*
Y422042D01*
X472000Y416873D02*
Y433900D01*
X482000Y396353D02*
Y433900D01*
X569368Y433805D02*
X575731Y440168D01*
X582778D01*
X586001Y443391D01*
Y456305D01*
X479346Y66000D02*
X492346Y53000D01*
X494000D01*
X479346Y40600D02*
X481600D01*
X494000Y53000D01*
X455295Y680641D02*
X455295Y680641D01*
X47000Y571600D02*
X50800D01*
X16442Y541042D02*
X47000Y571600D01*
X47392Y542792D02*
X50800Y546200D01*
X24212Y542792D02*
X47392D01*
X20506Y539086D02*
X24212Y542792D01*
X20506Y76352D02*
Y539086D01*
X16442Y74668D02*
Y541042D01*
X74200Y50000D02*
X74264Y49936D01*
X97064D01*
X104600Y42400D01*
Y36600D02*
Y42400D01*
X96600Y54000D02*
X104600Y62000D01*
X75947Y54000D02*
X96600D01*
X75883Y54064D02*
X75947Y54000D01*
X42794Y54064D02*
X75883D01*
X41111Y50000D02*
X74200D01*
X20506Y76352D02*
X42794Y54064D01*
X16442Y74668D02*
X41111Y50000D01*
X591550Y243901D02*
Y250149D01*
Y243901D02*
X594794Y240657D01*
X596550Y244648D02*
Y250149D01*
Y244648D02*
X601000Y240198D01*
X458873Y416000D02*
X458873Y416000D01*
X386141Y508710D02*
X392435Y515004D01*
X398729Y508298D02*
Y522234D01*
X392435Y528528D02*
X398729Y522234D01*
X392435Y502004D02*
X398729Y508298D01*
X392435Y487904D02*
X392531Y488000D01*
X331026Y439793D02*
X334534Y436285D01*
X331026Y439793D02*
Y454232D01*
X320534Y436285D02*
X324422Y440173D01*
Y454232D01*
X610001Y445304D02*
Y456305D01*
X591426Y337549D02*
X596980D01*
X599500Y335029D01*
Y316623D02*
Y335029D01*
X642950Y127300D02*
X645350Y124900D01*
X621350Y127300D02*
X642950D01*
X751000Y325000D02*
X751200Y325200D01*
X555250Y35000D02*
X556000D01*
X601000Y216500D02*
X608000Y209500D01*
X601000Y216500D02*
Y240198D01*
X610549Y267000D02*
X622000Y255548D01*
X603400Y261999D02*
X609801D01*
X614000Y257801D01*
Y249000D02*
Y257801D01*
X866795Y318850D02*
X868000D01*
X594001Y444305D02*
Y456305D01*
X628637Y440168D02*
X635001Y433805D01*
X545350Y142000D02*
X545350Y142000D01*
X759016Y643750D02*
X759866Y644600D01*
X759016Y627600D02*
Y643750D01*
X789016Y627600D02*
X793366Y623250D01*
Y618250D02*
Y623250D01*
X813716Y627600D02*
X813866Y627750D01*
X789016Y627600D02*
X813716D01*
X784016Y576334D02*
X788350Y572000D01*
X547850Y169000D02*
X551450Y165400D01*
X569350D01*
X551150Y127300D02*
X569350D01*
X547850Y124000D02*
X551150Y127300D01*
X547350Y140000D02*
X569350D01*
X531350Y156000D02*
X531350Y156000D01*
X545350D01*
X531350Y142000D02*
X545350D01*
X545350Y142000D02*
X547350Y140000D01*
X597876Y314999D02*
X599500Y316623D01*
X591426Y331049D02*
X591550Y330925D01*
X637000Y314000D02*
X648624Y302375D01*
X651000D01*
X472000Y416873D02*
X472873Y416000D01*
X581500Y215000D02*
X583500Y216999D01*
X588794D01*
X594794Y222999D01*
Y240657D01*
X614000Y249000D02*
X622000Y241000D01*
X603400Y246599D02*
X609000Y241000D01*
X603400Y246599D02*
Y257000D01*
X612000Y303705D02*
Y311999D01*
X622000Y255000D02*
Y255548D01*
X603400Y267000D02*
X610549D01*
X433000Y475000D02*
X436500Y471500D01*
X435700Y460000D02*
X436500Y459200D01*
X435850Y445850D02*
X436500Y445200D01*
X440800Y458400D02*
X455500D01*
X447900Y453400D02*
X455500D01*
X440000Y459200D02*
X440800Y458400D01*
X455500Y453400D02*
X460701D01*
Y443400D02*
X463294Y445993D01*
X455500Y443400D02*
X460701D01*
X449050Y448400D02*
X455500D01*
X403500Y89417D02*
X403800Y89717D01*
Y103901D01*
X384900Y89417D02*
X384900Y89417D01*
Y104500D01*
X366000Y89717D02*
X366300Y89417D01*
X366000Y89717D02*
Y103901D01*
X347700Y89417D02*
X348000Y89717D01*
Y103901D01*
X330100Y89417D02*
X330400Y89717D01*
Y103901D01*
X311900Y90000D02*
X311900Y90000D01*
X311900Y90000D02*
Y103901D01*
X0Y901700D02*
X958850D01*
X958850Y0D01*
X0D02*
X958850D01*
X0D02*
Y901700D01*
D21*
X977646Y20440D02*
D03*
Y35440D02*
D03*
X288290Y560277D02*
D03*
Y545277D02*
D03*
X300990Y560325D02*
D03*
Y545325D02*
D03*
X340360Y551180D02*
D03*
Y566180D02*
D03*
X520999Y418900D02*
D03*
Y433900D02*
D03*
X420578Y74500D02*
D03*
Y89500D02*
D03*
X378657Y730150D02*
D03*
Y745150D02*
D03*
X359767Y729896D02*
D03*
Y744896D02*
D03*
X210500Y758250D02*
D03*
Y773250D02*
D03*
X314069Y724000D02*
D03*
Y739000D02*
D03*
X271168Y724000D02*
D03*
Y739000D02*
D03*
X219258Y704970D02*
D03*
Y719970D02*
D03*
X830956Y817514D02*
D03*
Y832514D02*
D03*
X817334Y817514D02*
D03*
Y832514D02*
D03*
X676144Y499909D02*
D03*
Y484909D02*
D03*
X690644Y499909D02*
D03*
Y484909D02*
D03*
X635001Y418805D02*
D03*
Y433805D02*
D03*
X569368Y418805D02*
D03*
Y433805D02*
D03*
X622000Y241000D02*
D03*
Y225999D02*
D03*
X609000Y241000D02*
D03*
Y225999D02*
D03*
X608000Y209500D02*
D03*
Y194499D02*
D03*
X594000Y209499D02*
D03*
Y194499D02*
D03*
X403800Y118901D02*
D03*
Y103901D02*
D03*
X384900Y119500D02*
D03*
Y104500D02*
D03*
X366000Y118901D02*
D03*
Y103901D02*
D03*
X348000Y118901D02*
D03*
Y103901D02*
D03*
X330400Y118901D02*
D03*
Y103901D02*
D03*
X311900Y118901D02*
D03*
Y103901D02*
D03*
X403500Y89417D02*
D03*
Y74417D02*
D03*
X384900Y89417D02*
D03*
Y74417D02*
D03*
X366300Y89417D02*
D03*
Y74417D02*
D03*
X347700Y89417D02*
D03*
Y74417D02*
D03*
X311900Y90000D02*
D03*
Y75000D02*
D03*
X330100Y89417D02*
D03*
Y74417D02*
D03*
D22*
X700000Y878000D02*
D03*
X797100D02*
D03*
D23*
X726050Y826100D02*
D03*
X741050D02*
D03*
X756050D02*
D03*
X771050D02*
D03*
D24*
X382999Y849680D02*
D03*
X370499D02*
D03*
X203499Y849680D02*
D03*
X190999D02*
D03*
X292999Y849680D02*
D03*
X280499D02*
D03*
X471999Y849680D02*
D03*
X459499D02*
D03*
D25*
X344999Y878680D02*
D03*
X408499D02*
D03*
X165499Y878680D02*
D03*
X228999D02*
D03*
X254999Y878680D02*
D03*
X318499D02*
D03*
X433999Y878680D02*
D03*
X497499D02*
D03*
D26*
X768800Y570900D02*
D03*
X753800D02*
D03*
D27*
X718600Y618200D02*
D03*
Y603200D02*
D03*
X701100Y618110D02*
D03*
Y603110D02*
D03*
D28*
X754016Y627600D02*
D03*
X789016Y593900D02*
D03*
Y627600D02*
D03*
X784016D02*
D03*
X779016D02*
D03*
X774016D02*
D03*
X769016D02*
D03*
X764016D02*
D03*
X759016D02*
D03*
X754016Y593900D02*
D03*
X759016D02*
D03*
X764016D02*
D03*
X769016D02*
D03*
X774016D02*
D03*
X779016D02*
D03*
X784016D02*
D03*
D29*
X749666Y618250D02*
D03*
X793366Y603250D02*
D03*
Y618250D02*
D03*
X749666Y603250D02*
D03*
D30*
X771516Y610750D02*
D03*
D31*
X180378Y448900D02*
D03*
Y461600D02*
D03*
Y474300D02*
D03*
Y487000D02*
D03*
Y499700D02*
D03*
Y512400D02*
D03*
Y525100D02*
D03*
X227622D02*
D03*
Y512400D02*
D03*
Y499700D02*
D03*
Y487000D02*
D03*
Y474300D02*
D03*
Y461600D02*
D03*
Y448900D02*
D03*
D32*
X403100Y593378D02*
D03*
X390400D02*
D03*
X377700D02*
D03*
X365000D02*
D03*
X352300D02*
D03*
X339600D02*
D03*
X326900D02*
D03*
Y640622D02*
D03*
X339600D02*
D03*
X352300D02*
D03*
X365000D02*
D03*
X377700D02*
D03*
X390400D02*
D03*
X403100D02*
D03*
D33*
X569350Y152700D02*
D03*
X621350D02*
D03*
X569350Y165400D02*
D03*
Y140000D02*
D03*
Y127300D02*
D03*
X621350Y165400D02*
D03*
Y140000D02*
D03*
Y127300D02*
D03*
D34*
X854970Y846083D02*
D03*
Y852687D02*
D03*
Y859291D02*
D03*
X834142D02*
D03*
Y852687D02*
D03*
Y846083D02*
D03*
X812414Y511628D02*
D03*
Y518232D02*
D03*
Y524836D02*
D03*
X791586D02*
D03*
Y518232D02*
D03*
Y511628D02*
D03*
D35*
X479991Y529931D02*
D03*
X486595D02*
D03*
X493199D02*
D03*
Y550759D02*
D03*
X486595D02*
D03*
X479991D02*
D03*
D36*
X314600Y366000D02*
D03*
X263800D02*
D03*
X289200D02*
D03*
X365400D02*
D03*
X340000D02*
D03*
Y291400D02*
D03*
X365400D02*
D03*
X289200D02*
D03*
X263800D02*
D03*
X314600D02*
D03*
X441600Y366130D02*
D03*
X390800D02*
D03*
X416200D02*
D03*
X492400D02*
D03*
X467000D02*
D03*
Y291530D02*
D03*
X492400D02*
D03*
X416200D02*
D03*
X390800D02*
D03*
X441600D02*
D03*
Y261200D02*
D03*
X390800D02*
D03*
X416200D02*
D03*
X492400D02*
D03*
X467000D02*
D03*
Y186600D02*
D03*
X492400D02*
D03*
X416200D02*
D03*
X390800D02*
D03*
X441600D02*
D03*
X314500Y261200D02*
D03*
X263700D02*
D03*
X289100D02*
D03*
X365300D02*
D03*
X339900D02*
D03*
Y186600D02*
D03*
X365300D02*
D03*
X289100D02*
D03*
X263700D02*
D03*
X314500D02*
D03*
D37*
X514350Y593900D02*
D03*
X457350D02*
D03*
D38*
X782750Y705274D02*
D03*
X732750D02*
D03*
D39*
X498444Y650039D02*
D03*
Y655039D02*
D03*
Y660039D02*
D03*
Y665039D02*
D03*
X470444D02*
D03*
Y660039D02*
D03*
Y655039D02*
D03*
Y650039D02*
D03*
D40*
X489444Y669039D02*
D03*
X484444D02*
D03*
X479444D02*
D03*
D41*
X812414Y488305D02*
D03*
Y502305D02*
D03*
X455295Y666640D02*
D03*
Y680641D02*
D03*
X512631Y637047D02*
D03*
Y651047D02*
D03*
X457848Y637641D02*
D03*
Y651641D02*
D03*
X444859Y637641D02*
D03*
Y651641D02*
D03*
X300000Y780750D02*
D03*
Y766750D02*
D03*
X231758Y719274D02*
D03*
Y705274D02*
D03*
X244589Y719274D02*
D03*
Y705274D02*
D03*
X443230Y749694D02*
D03*
Y763694D02*
D03*
X257810Y719274D02*
D03*
Y705274D02*
D03*
X788350Y572000D02*
D03*
Y558000D02*
D03*
X734314Y618378D02*
D03*
Y604378D02*
D03*
X813866Y627750D02*
D03*
Y613750D02*
D03*
X847556Y818014D02*
D03*
Y832014D02*
D03*
X459193Y522896D02*
D03*
Y508896D02*
D03*
X444190Y522896D02*
D03*
Y508896D02*
D03*
X430192Y508896D02*
D03*
Y522896D02*
D03*
X436500Y445200D02*
D03*
Y459200D02*
D03*
X545350Y156000D02*
D03*
Y142000D02*
D03*
X531350Y156000D02*
D03*
Y142000D02*
D03*
X622000Y298999D02*
D03*
Y285000D02*
D03*
X636376Y299699D02*
D03*
Y285700D02*
D03*
X637000Y314999D02*
D03*
Y328999D02*
D03*
X622999Y330549D02*
D03*
Y344549D02*
D03*
X576500Y324250D02*
D03*
Y310250D02*
D03*
X622000Y269000D02*
D03*
Y255000D02*
D03*
D42*
X314068Y550680D02*
D03*
X324674Y561287D02*
D03*
D43*
X467945Y680641D02*
D03*
X481945D02*
D03*
X472873Y416000D02*
D03*
X458873D02*
D03*
X611876Y314999D02*
D03*
X597876D02*
D03*
X800500Y577561D02*
D03*
X814500D02*
D03*
X800500Y565000D02*
D03*
X814500D02*
D03*
X800500Y552905D02*
D03*
X814500D02*
D03*
X800500Y540359D02*
D03*
X814500D02*
D03*
X774574Y541388D02*
D03*
X788574D02*
D03*
X801366Y644600D02*
D03*
X787366D02*
D03*
X759866Y644600D02*
D03*
X773866D02*
D03*
X722010Y794714D02*
D03*
X708010D02*
D03*
X722010Y807414D02*
D03*
X708010D02*
D03*
X493964Y515765D02*
D03*
X479964D02*
D03*
X444751Y481085D02*
D03*
X430751D02*
D03*
X320534Y436285D02*
D03*
X334534D02*
D03*
X599501Y561719D02*
D03*
X613501D02*
D03*
X622000Y432805D02*
D03*
X608000D02*
D03*
X596000Y432805D02*
D03*
X582000D02*
D03*
X672450Y152851D02*
D03*
X686450D02*
D03*
X664500Y358875D02*
D03*
X650500D02*
D03*
X588000Y235000D02*
D03*
X574000D02*
D03*
D44*
X508575Y416000D02*
D03*
X493574D02*
D03*
X376622Y716568D02*
D03*
X361622D02*
D03*
X281728Y824201D02*
D03*
X266728D02*
D03*
X162900Y825200D02*
D03*
X177900D02*
D03*
X224910Y796036D02*
D03*
X239910D02*
D03*
X300250Y724000D02*
D03*
X285250D02*
D03*
X427415Y432150D02*
D03*
X442415D02*
D03*
X377434Y528528D02*
D03*
X392435D02*
D03*
X377434Y515004D02*
D03*
X392435D02*
D03*
X377434Y502004D02*
D03*
X392435D02*
D03*
X377434Y487904D02*
D03*
X392435D02*
D03*
X377434Y474728D02*
D03*
X392435D02*
D03*
X377434Y460579D02*
D03*
X392435D02*
D03*
X332100Y419000D02*
D03*
X347100D02*
D03*
X581500Y420000D02*
D03*
X596500D02*
D03*
X645280Y166370D02*
D03*
X660280D02*
D03*
X660350Y152851D02*
D03*
X645350D02*
D03*
X660350Y138900D02*
D03*
X645350D02*
D03*
X660350Y124900D02*
D03*
X645350D02*
D03*
X532850Y169000D02*
D03*
X547850D02*
D03*
X532850Y124000D02*
D03*
X547850D02*
D03*
X580277Y343999D02*
D03*
X565278D02*
D03*
X566500Y216000D02*
D03*
X581500D02*
D03*
D45*
X427898Y749274D02*
D03*
X408898D02*
D03*
Y777274D02*
D03*
X418398D02*
D03*
X427898D02*
D03*
X314068Y783782D02*
D03*
X333068D02*
D03*
Y755782D02*
D03*
X323568D02*
D03*
X314068D02*
D03*
D46*
X359724Y786672D02*
D03*
X369122D02*
D03*
X378520D02*
D03*
Y760764D02*
D03*
X369122D02*
D03*
X359724D02*
D03*
X261770Y780736D02*
D03*
X271168D02*
D03*
X280566D02*
D03*
Y754828D02*
D03*
X271168D02*
D03*
X261770D02*
D03*
D47*
X224870Y736288D02*
D03*
X229870D02*
D03*
X234870D02*
D03*
X239870D02*
D03*
X244870D02*
D03*
X224870Y780288D02*
D03*
X229870D02*
D03*
X234870D02*
D03*
X239870D02*
D03*
X244870D02*
D03*
D48*
X764860Y526514D02*
D03*
Y499514D02*
D03*
X441750Y547027D02*
D03*
Y574027D02*
D03*
D49*
X272606Y454232D02*
D03*
X278956D02*
D03*
X285560D02*
D03*
X291910D02*
D03*
X298514D02*
D03*
X305118D02*
D03*
X311468D02*
D03*
X318072D02*
D03*
X324422D02*
D03*
X331026D02*
D03*
X337630D02*
D03*
X343980D02*
D03*
X350584D02*
D03*
X356934D02*
D03*
Y526876D02*
D03*
X350584D02*
D03*
X343980D02*
D03*
X337630D02*
D03*
X331026D02*
D03*
X324422D02*
D03*
X318072D02*
D03*
X311468D02*
D03*
X305118D02*
D03*
X298514D02*
D03*
X291910D02*
D03*
X285560D02*
D03*
X278956D02*
D03*
X272606D02*
D03*
D50*
X457500Y490500D02*
D03*
X482500D02*
D03*
D51*
X457000Y467900D02*
D03*
X462000D02*
D03*
X467000D02*
D03*
X472000D02*
D03*
X477000D02*
D03*
X482000D02*
D03*
X487000D02*
D03*
X492000D02*
D03*
X497000D02*
D03*
X502000D02*
D03*
Y433900D02*
D03*
X497000D02*
D03*
X492000D02*
D03*
X487000D02*
D03*
X482000D02*
D03*
X477000D02*
D03*
X472000D02*
D03*
X467000D02*
D03*
X462000D02*
D03*
X457000D02*
D03*
D52*
X455500Y443400D02*
D03*
Y448400D02*
D03*
Y453400D02*
D03*
Y458400D02*
D03*
X503500Y443400D02*
D03*
Y448400D02*
D03*
Y453400D02*
D03*
Y458400D02*
D03*
D53*
X634001Y542305D02*
D03*
X626001D02*
D03*
X618001D02*
D03*
X610001D02*
D03*
X602001D02*
D03*
X594001D02*
D03*
X586001D02*
D03*
X578001D02*
D03*
Y456305D02*
D03*
X586001D02*
D03*
X594001D02*
D03*
X602001D02*
D03*
X610001D02*
D03*
X618001D02*
D03*
X626001D02*
D03*
X634001D02*
D03*
D54*
X563000Y527305D02*
D03*
Y519305D02*
D03*
Y511305D02*
D03*
Y503305D02*
D03*
Y495305D02*
D03*
Y487305D02*
D03*
Y479305D02*
D03*
Y471305D02*
D03*
X649000D02*
D03*
Y479305D02*
D03*
Y487305D02*
D03*
Y495305D02*
D03*
Y503305D02*
D03*
Y511305D02*
D03*
Y519305D02*
D03*
Y527305D02*
D03*
D55*
X651000Y302375D02*
D03*
X657500D02*
D03*
X664000D02*
D03*
X670500D02*
D03*
X651000Y341875D02*
D03*
X657500D02*
D03*
X664000D02*
D03*
X670500D02*
D03*
D56*
X591426Y344050D02*
D03*
Y331049D02*
D03*
X609426Y344050D02*
D03*
Y331049D02*
D03*
X591426Y337549D02*
D03*
D57*
X554700Y291999D02*
D03*
Y287000D02*
D03*
Y281999D02*
D03*
Y277000D02*
D03*
Y271999D02*
D03*
Y267000D02*
D03*
Y261999D02*
D03*
Y257000D02*
D03*
X603400D02*
D03*
Y261999D02*
D03*
Y267000D02*
D03*
Y271999D02*
D03*
Y277000D02*
D03*
Y281999D02*
D03*
Y287000D02*
D03*
Y291999D02*
D03*
D58*
X596550Y298849D02*
D03*
X591550D02*
D03*
X586550D02*
D03*
X581550D02*
D03*
X576550D02*
D03*
X571550D02*
D03*
X566550D02*
D03*
X561550D02*
D03*
Y250149D02*
D03*
X566550D02*
D03*
X571550D02*
D03*
X576550D02*
D03*
X581550D02*
D03*
X586550D02*
D03*
X591550D02*
D03*
X596550D02*
D03*
D59*
X579050Y274499D02*
D03*
D60*
X535250Y539917D02*
D03*
Y499917D02*
D03*
X511250D02*
D03*
Y539917D02*
D03*
D61*
X538750Y67000D02*
D03*
Y35000D02*
D03*
X555250D02*
D03*
Y67000D02*
D03*
D120*
X479544Y651989D02*
D03*
X484444D02*
D03*
X489344D02*
D03*
D121*
X289000Y366000D02*
Y381054D01*
X288900Y291400D02*
Y306454D01*
X390848Y185300D02*
Y203170D01*
X491900Y246200D02*
Y257100D01*
X263800Y190600D02*
Y201500D01*
Y245800D02*
Y256700D01*
X264000Y366400D02*
X274900D01*
X492400Y366200D02*
X503300D01*
X492400Y186600D02*
Y202600D01*
X263800Y291400D02*
Y306454D01*
D122*
X761584Y496469D02*
X764860Y499745D01*
X382999Y827000D02*
Y854169D01*
X789390Y199390D02*
X880000Y290000D01*
X729644Y199390D02*
X789390D01*
X763114Y818403D02*
Y832783D01*
X637168Y692458D02*
X763114Y818403D01*
X637168Y578222D02*
Y692458D01*
Y578222D02*
X725237Y490153D01*
X738000D01*
X757977Y837920D02*
X763114Y832783D01*
X737870Y837920D02*
X757977D01*
X726050Y826100D02*
X737870Y837920D01*
X447040Y859291D02*
X449493Y861744D01*
X388121Y859291D02*
X447040D01*
X465183Y861744D02*
X471999Y854927D01*
X449493Y861744D02*
X465183D01*
X471999Y849680D02*
Y854927D01*
X473328Y848351D02*
X704029D01*
X726050Y826331D01*
X413292Y788670D02*
X418398Y783564D01*
X380518Y788670D02*
X413292D01*
X378520Y786672D02*
X380518Y788670D01*
X428140Y802640D02*
X459499Y833999D01*
X378012Y802640D02*
X428140D01*
X369122Y793750D02*
X378012Y802640D01*
X738000Y490153D02*
X744316Y496469D01*
X761584D01*
X382999Y854169D02*
X388121Y859291D01*
X418398Y768258D02*
Y777274D01*
Y783564D01*
X369122Y786672D02*
Y793750D01*
X459499Y833999D02*
Y849680D01*
X261770Y780736D02*
X271168D01*
Y754828D02*
Y780736D01*
X261770Y754828D02*
X271168D01*
X280566Y770566D02*
Y780736D01*
X271168D02*
Y791500D01*
X303309Y849680D02*
X370499D01*
X359724Y744939D02*
X359767Y744896D01*
X359724Y786672D02*
X369122D01*
Y760764D02*
Y786672D01*
X359724Y760764D02*
X369122D01*
D123*
X421169Y235000D02*
X502210D01*
X414545Y241624D02*
X421169Y235000D01*
X383076Y241624D02*
X414545D01*
X502210Y235000D02*
X507489Y229721D01*
X515460Y221750D01*
X644196Y227024D02*
X650852Y233680D01*
X677171Y260000D01*
X695250D01*
X704850D01*
X713740D01*
X637540Y220368D02*
X644196Y227024D01*
X378300Y246400D02*
X383076Y241624D01*
X386080Y33020D02*
X397510D01*
X374650D02*
X386080D01*
X308610D02*
X374650D01*
X288290D02*
X298234D01*
X308610D01*
D124*
X378300Y246400D02*
Y278500D01*
X365400Y291400D02*
X378300Y278500D01*
D125*
X125700Y774800D02*
D03*
Y749400D02*
D03*
Y724000D02*
D03*
Y698600D02*
D03*
Y673200D02*
D03*
Y647800D02*
D03*
Y622400D02*
D03*
Y597000D02*
D03*
Y571600D02*
D03*
Y546200D02*
D03*
Y520800D02*
D03*
Y495400D02*
D03*
Y470000D02*
D03*
Y444600D02*
D03*
Y419200D02*
D03*
Y393800D02*
D03*
Y368400D02*
D03*
Y343000D02*
D03*
Y317600D02*
D03*
Y292200D02*
D03*
Y266800D02*
D03*
Y241400D02*
D03*
Y216000D02*
D03*
Y190600D02*
D03*
Y165200D02*
D03*
Y139800D02*
D03*
X100300Y774800D02*
D03*
Y749400D02*
D03*
Y724000D02*
D03*
Y698600D02*
D03*
Y673200D02*
D03*
Y647800D02*
D03*
Y622400D02*
D03*
Y597000D02*
D03*
Y571600D02*
D03*
Y546200D02*
D03*
Y520800D02*
D03*
Y495400D02*
D03*
Y470000D02*
D03*
Y444600D02*
D03*
Y419200D02*
D03*
Y393800D02*
D03*
Y368400D02*
D03*
Y343000D02*
D03*
Y317600D02*
D03*
Y292200D02*
D03*
Y266800D02*
D03*
Y241400D02*
D03*
Y216000D02*
D03*
Y190600D02*
D03*
Y165200D02*
D03*
X76200Y774800D02*
D03*
Y749400D02*
D03*
Y724000D02*
D03*
Y698600D02*
D03*
Y673200D02*
D03*
Y647800D02*
D03*
Y622400D02*
D03*
Y597000D02*
D03*
Y571600D02*
D03*
Y546200D02*
D03*
Y520800D02*
D03*
Y495400D02*
D03*
Y470000D02*
D03*
Y444600D02*
D03*
Y419200D02*
D03*
Y393800D02*
D03*
Y368400D02*
D03*
Y343000D02*
D03*
Y317600D02*
D03*
Y292200D02*
D03*
Y266800D02*
D03*
Y241400D02*
D03*
Y216000D02*
D03*
Y190600D02*
D03*
Y165200D02*
D03*
Y139800D02*
D03*
X50800Y774800D02*
D03*
Y749400D02*
D03*
Y724000D02*
D03*
Y698600D02*
D03*
Y673200D02*
D03*
Y647800D02*
D03*
Y622400D02*
D03*
Y597000D02*
D03*
Y571600D02*
D03*
Y546200D02*
D03*
Y520800D02*
D03*
Y495400D02*
D03*
Y470000D02*
D03*
Y444600D02*
D03*
Y419200D02*
D03*
Y393800D02*
D03*
Y368400D02*
D03*
Y343000D02*
D03*
Y317600D02*
D03*
Y292200D02*
D03*
Y266800D02*
D03*
Y241400D02*
D03*
Y216000D02*
D03*
Y190600D02*
D03*
Y165200D02*
D03*
D126*
X100300Y139800D02*
D03*
X50800D02*
D03*
D127*
X868000Y306150D02*
D03*
Y318850D02*
D03*
Y331550D02*
D03*
Y344250D02*
D03*
Y356950D02*
D03*
Y369650D02*
D03*
Y382350D02*
D03*
Y395050D02*
D03*
Y407750D02*
D03*
Y420450D02*
D03*
Y433150D02*
D03*
Y445850D02*
D03*
X842600Y299800D02*
D03*
Y312500D02*
D03*
Y325200D02*
D03*
Y337900D02*
D03*
Y350600D02*
D03*
Y363300D02*
D03*
Y376000D02*
D03*
Y388700D02*
D03*
Y401400D02*
D03*
Y414100D02*
D03*
Y426800D02*
D03*
Y439500D02*
D03*
Y452200D02*
D03*
D128*
X600300Y821400D02*
D03*
X539000Y821800D02*
D03*
X660000Y821400D02*
D03*
D129*
X600300Y693400D02*
D03*
Y748400D02*
D03*
X539000Y693800D02*
D03*
Y748800D02*
D03*
X660000Y693400D02*
D03*
Y748400D02*
D03*
D130*
X925000Y610900D02*
D03*
D131*
X875000Y660900D02*
D03*
Y560900D02*
D03*
Y635900D02*
D03*
D132*
Y610900D02*
D03*
X925000Y660900D02*
D03*
Y560900D02*
D03*
D133*
X646800Y70800D02*
D03*
Y45400D02*
D03*
X621400Y70800D02*
D03*
Y45400D02*
D03*
X596000Y70800D02*
D03*
X504746Y66000D02*
D03*
X479346Y40600D02*
D03*
X504746D02*
D03*
X130000Y36600D02*
D03*
X104600D02*
D03*
X130000Y62000D02*
D03*
D134*
X596000Y45400D02*
D03*
D135*
X479346Y66000D02*
D03*
X104600Y62000D02*
D03*
D136*
X908100Y50800D02*
D03*
Y850900D02*
D03*
X50800Y825500D02*
D03*
Y88900D02*
D03*
X726500Y400000D02*
D03*
Y150000D02*
D03*
X226500D02*
D03*
Y400000D02*
D03*
D137*
X703600Y42000D02*
D03*
D138*
X729000D02*
D03*
X754400D02*
D03*
X703600Y75020D02*
D03*
X729000D02*
D03*
X754400D02*
D03*
D139*
X880700Y498555D02*
D03*
Y253445D02*
D03*
D140*
X548027Y524026D02*
D03*
X564605Y536000D02*
D03*
X551250Y533897D02*
D03*
X545072Y539845D02*
D03*
X547370Y495300D02*
D03*
X379820Y46980D02*
D03*
X804500Y500900D02*
D03*
X815800Y480600D02*
D03*
X800000Y508000D02*
D03*
X364499Y327899D02*
D03*
X758400Y355100D02*
D03*
X756200Y105500D02*
D03*
X524200Y60942D02*
D03*
X790000Y754380D02*
D03*
X247199Y465299D02*
D03*
X195900Y511899D02*
D03*
X349400Y306600D02*
D03*
X532700Y182394D02*
D03*
X479999Y250700D02*
D03*
X540600Y176600D02*
D03*
X519000Y169000D02*
D03*
X454399Y250700D02*
D03*
X463100Y207900D02*
D03*
X299400Y164600D02*
D03*
X394400Y167000D02*
D03*
X403970Y186300D02*
D03*
X383634Y211534D02*
D03*
X390848Y203170D02*
D03*
X413000Y229700D02*
D03*
X405299Y253300D02*
D03*
X515460Y221750D02*
D03*
X637540Y220368D02*
D03*
X644196Y227024D02*
D03*
X650852Y233680D02*
D03*
X695250Y260000D02*
D03*
X704850D02*
D03*
X713740D02*
D03*
X313000Y205600D02*
D03*
X507489Y229721D02*
D03*
X535211Y219400D02*
D03*
X559000Y230400D02*
D03*
X314800Y381400D02*
D03*
X329500Y401000D02*
D03*
X424999Y395199D02*
D03*
X419600Y400500D02*
D03*
X438359Y412699D02*
D03*
X452000Y415200D02*
D03*
X398999Y390599D02*
D03*
X392899Y395299D02*
D03*
X385300Y394900D02*
D03*
X340000Y382000D02*
D03*
X387367Y443424D02*
D03*
X372699Y449699D02*
D03*
X368300Y455999D02*
D03*
X289000Y381054D02*
D03*
X288900Y306454D02*
D03*
X295500Y236700D02*
D03*
X491900Y246200D02*
D03*
X263800Y201500D02*
D03*
Y245800D02*
D03*
X274900Y366400D02*
D03*
X356499Y381199D02*
D03*
X374899Y380599D02*
D03*
X403332Y355400D02*
D03*
X503300Y366200D02*
D03*
X390848Y351600D02*
D03*
X770900Y437100D02*
D03*
X401500Y291000D02*
D03*
X372064Y327706D02*
D03*
X352200Y253100D02*
D03*
X302200Y261100D02*
D03*
X467100Y166100D02*
D03*
X467000Y144242D02*
D03*
X492400Y202600D02*
D03*
X518000Y252730D02*
D03*
X477400Y345740D02*
D03*
X339600Y126900D02*
D03*
X367999Y127000D02*
D03*
X384900Y127100D02*
D03*
X348000Y127000D02*
D03*
X330400Y127000D02*
D03*
X312000D02*
D03*
X828821Y751812D02*
D03*
X370000Y545712D02*
D03*
X532130Y452205D02*
D03*
X536000Y416560D02*
D03*
X557530Y386747D02*
D03*
X535662Y373380D02*
D03*
X520700Y328930D02*
D03*
X523675Y381675D02*
D03*
X672500Y166370D02*
D03*
X690880Y361500D02*
D03*
X701040D02*
D03*
X684999Y383999D02*
D03*
X722630Y357399D02*
D03*
X695499Y249000D02*
D03*
X704850D02*
D03*
X713534D02*
D03*
X696500Y186500D02*
D03*
X704850D02*
D03*
X713740Y211500D02*
D03*
X713534Y224000D02*
D03*
X713534Y236500D02*
D03*
X705056Y211500D02*
D03*
X704850Y224000D02*
D03*
X704850Y236500D02*
D03*
X263800Y306454D02*
D03*
X716280Y86360D02*
D03*
X283210Y553720D02*
D03*
X298434Y570924D02*
D03*
X266700Y562610D02*
D03*
X258406Y552500D02*
D03*
X275590Y548640D02*
D03*
X289538Y578416D02*
D03*
X277114Y576210D02*
D03*
X271780Y570230D02*
D03*
X308610Y571500D02*
D03*
X310014Y559388D02*
D03*
X271780Y541020D02*
D03*
X279266Y561000D02*
D03*
X314938Y578370D02*
D03*
X350520Y554990D02*
D03*
X332740Y566420D02*
D03*
X331470Y542305D02*
D03*
X791366Y813562D02*
D03*
X769366D02*
D03*
X781050Y814070D02*
D03*
X724166Y751840D02*
D03*
X709930Y746350D02*
D03*
X698500Y807720D02*
D03*
Y795020D02*
D03*
X839228Y817483D02*
D03*
X865647Y861060D02*
D03*
X847705Y644836D02*
D03*
X831832Y636270D02*
D03*
X865647Y701708D02*
D03*
X858397D02*
D03*
Y709208D02*
D03*
X851147D02*
D03*
X819671Y693500D02*
D03*
X864559Y742596D02*
D03*
X813877Y686143D02*
D03*
X865647Y852687D02*
D03*
X851147Y701708D02*
D03*
X848360Y725170D02*
D03*
X865647Y709208D02*
D03*
X655749Y652250D02*
D03*
X648250D02*
D03*
Y645000D02*
D03*
Y659500D02*
D03*
Y666750D02*
D03*
X621501Y590021D02*
D03*
X828148Y524836D02*
D03*
X836930Y518232D02*
D03*
X665480Y414100D02*
D03*
X654050Y403860D02*
D03*
X656936Y412399D02*
D03*
X646359Y413587D02*
D03*
X651000Y367998D02*
D03*
X650240Y330200D02*
D03*
X655000Y320000D02*
D03*
X667000D02*
D03*
Y330000D02*
D03*
X494396Y699770D02*
D03*
X494030Y721360D02*
D03*
X807720Y751840D02*
D03*
X810000Y728980D02*
D03*
X760465Y614286D02*
D03*
X782965Y607036D02*
D03*
Y614286D02*
D03*
X767965Y607036D02*
D03*
X760465D02*
D03*
X775465Y614286D02*
D03*
Y607036D02*
D03*
X767964Y614286D02*
D03*
X481330Y360680D02*
D03*
X521970Y270510D02*
D03*
X529590Y262890D02*
D03*
X536000Y253254D02*
D03*
X288961Y824201D02*
D03*
X389797Y813562D02*
D03*
X552450Y618129D02*
D03*
X460559Y618444D02*
D03*
X786567Y442200D02*
D03*
X779710Y434340D02*
D03*
X716280Y585883D02*
D03*
X742553Y585708D02*
D03*
Y569552D02*
D03*
Y577612D02*
D03*
X758190Y474450D02*
D03*
X750690D02*
D03*
Y488950D02*
D03*
X750689Y481700D02*
D03*
X758190D02*
D03*
Y488950D02*
D03*
X734694Y478276D02*
D03*
X725170Y478790D02*
D03*
X717550Y468680D02*
D03*
X708660Y468630D02*
D03*
X700297Y478558D02*
D03*
X731520Y467360D02*
D03*
X739291Y466641D02*
D03*
X826770Y553735D02*
D03*
Y544714D02*
D03*
X835660D02*
D03*
Y553735D02*
D03*
Y604350D02*
D03*
X835768Y588049D02*
D03*
Y596900D02*
D03*
X835660Y579120D02*
D03*
Y570230D02*
D03*
Y561209D02*
D03*
X734060Y577612D02*
D03*
Y569552D02*
D03*
Y585708D02*
D03*
X725100D02*
D03*
Y577612D02*
D03*
Y569552D02*
D03*
X716142D02*
D03*
Y577612D02*
D03*
X552450Y625952D02*
D03*
Y641350D02*
D03*
Y633348D02*
D03*
X318770Y307340D02*
D03*
X447253Y610319D02*
D03*
X529627Y617733D02*
D03*
Y610509D02*
D03*
X521963Y617733D02*
D03*
X826770Y561209D02*
D03*
Y570230D02*
D03*
Y579120D02*
D03*
X826878Y596900D02*
D03*
Y588049D02*
D03*
X826770Y604350D02*
D03*
X447253Y618129D02*
D03*
X521963Y610509D02*
D03*
X729644Y199390D02*
D03*
X731000Y323850D02*
D03*
X739500Y312000D02*
D03*
X452834Y763694D02*
D03*
X257810Y697230D02*
D03*
X366300Y66770D02*
D03*
X389890Y64770D02*
D03*
X394000Y57150D02*
D03*
X326000D02*
D03*
X307340Y53340D02*
D03*
X312420Y65500D02*
D03*
X331470Y64770D02*
D03*
X403600Y65500D02*
D03*
X347980D02*
D03*
X288290Y33020D02*
D03*
X298234D02*
D03*
X374650D02*
D03*
X397510D02*
D03*
X386080D02*
D03*
X763270Y219710D02*
D03*
Y210820D02*
D03*
Y227330D02*
D03*
X308610Y33020D02*
D03*
X757270Y266000D02*
D03*
X748030D02*
D03*
X757806Y340000D02*
D03*
X585000Y107950D02*
D03*
X663250Y659500D02*
D03*
X655749Y666750D02*
D03*
X663250D02*
D03*
Y652250D02*
D03*
X655750Y659500D02*
D03*
X654000Y543436D02*
D03*
X673000Y527764D02*
D03*
X650999Y534999D02*
D03*
X647000Y549000D02*
D03*
X393700Y755650D02*
D03*
X390400Y748030D02*
D03*
X418398Y768258D02*
D03*
X341630Y755592D02*
D03*
X210500Y750578D02*
D03*
X864559Y750096D02*
D03*
Y757596D02*
D03*
X857309Y750094D02*
D03*
Y757596D02*
D03*
Y742596D02*
D03*
X864559Y765096D02*
D03*
X850059Y757596D02*
D03*
X857309Y765096D02*
D03*
X850059Y750096D02*
D03*
Y742596D02*
D03*
Y765096D02*
D03*
X851147Y686708D02*
D03*
Y694208D02*
D03*
X858397Y686708D02*
D03*
Y694206D02*
D03*
X865647Y694208D02*
D03*
Y686708D02*
D03*
X828544Y720000D02*
D03*
X686450Y144160D02*
D03*
X519210Y156000D02*
D03*
X502524Y518275D02*
D03*
X448310Y490220D02*
D03*
X473740Y482100D02*
D03*
X520700Y497840D02*
D03*
X525780Y504511D02*
D03*
X591820Y501650D02*
D03*
X524510Y477520D02*
D03*
X541810Y456193D02*
D03*
X563000Y463000D02*
D03*
X549910Y471170D02*
D03*
X516160Y475129D02*
D03*
X822706Y518232D02*
D03*
X823797Y470509D02*
D03*
X847705Y494030D02*
D03*
X793875Y447000D02*
D03*
X800674Y454358D02*
D03*
X672500Y444500D02*
D03*
X773189Y474450D02*
D03*
X765690D02*
D03*
X780689D02*
D03*
X788189D02*
D03*
X780688Y481700D02*
D03*
X788189D02*
D03*
X773189D02*
D03*
X656176Y451008D02*
D03*
X642170Y452205D02*
D03*
X652531Y420000D02*
D03*
X657500Y462699D02*
D03*
X677000Y384000D02*
D03*
X660054Y420098D02*
D03*
X649544Y447000D02*
D03*
X632194Y468806D02*
D03*
X624999Y477999D02*
D03*
X620030Y490524D02*
D03*
X619030Y506275D02*
D03*
X695500Y236500D02*
D03*
X605300Y139700D02*
D03*
X668000Y484909D02*
D03*
X162350Y817483D02*
D03*
X248227Y796036D02*
D03*
X523738Y534999D02*
D03*
X492650Y479876D02*
D03*
X546000Y393000D02*
D03*
X545350Y134000D02*
D03*
X243500Y830500D02*
D03*
Y819242D02*
D03*
X219258Y819258D02*
D03*
X231758Y819242D02*
D03*
X392532Y568594D02*
D03*
X406680Y571080D02*
D03*
X413020Y578528D02*
D03*
X400000Y577561D02*
D03*
X384900D02*
D03*
X373048Y568250D02*
D03*
X382500Y561597D02*
D03*
X562128Y238122D02*
D03*
X566550Y225000D02*
D03*
X588000Y225000D02*
D03*
X635538Y234000D02*
D03*
X880000Y290000D02*
D03*
X481910Y837500D02*
D03*
X370000Y553670D02*
D03*
X636376Y337900D02*
D03*
X664500Y367498D02*
D03*
X765690Y481700D02*
D03*
Y488950D02*
D03*
X788189D02*
D03*
X780689D02*
D03*
X773189D02*
D03*
X847705Y481530D02*
D03*
X538750Y25490D02*
D03*
X864560Y780000D02*
D03*
X732236Y641976D02*
D03*
X716250Y634726D02*
D03*
X732235D02*
D03*
X739736Y627476D02*
D03*
Y634726D02*
D03*
X712997Y478512D02*
D03*
X724736Y627476D02*
D03*
X732236D02*
D03*
X594646Y586480D02*
D03*
X194811Y760000D02*
D03*
X493999Y446999D02*
D03*
X512500Y424400D02*
D03*
X556000Y408578D02*
D03*
X454355Y378409D02*
D03*
X505335Y387000D02*
D03*
X517194Y393000D02*
D03*
X588738Y412399D02*
D03*
X604751Y412000D02*
D03*
X246000Y475000D02*
D03*
Y500000D02*
D03*
X622999Y409999D02*
D03*
X615475Y408145D02*
D03*
X218582Y730000D02*
D03*
X318598Y494123D02*
D03*
X472281Y515765D02*
D03*
X451772Y530276D02*
D03*
X462500Y542250D02*
D03*
X470001D02*
D03*
X249916Y736288D02*
D03*
X410320Y468680D02*
D03*
X403999Y473999D02*
D03*
X467500Y457500D02*
D03*
X477500D02*
D03*
X486817Y443424D02*
D03*
X476999Y442200D02*
D03*
X365400Y616125D02*
D03*
X302514Y579120D02*
D03*
X391000Y683497D02*
D03*
X339600Y623000D02*
D03*
X337500Y467000D02*
D03*
X622999Y556141D02*
D03*
X313610Y499917D02*
D03*
X307146Y505056D02*
D03*
X411066Y538982D02*
D03*
X500242Y618497D02*
D03*
X468559Y618444D02*
D03*
X400658Y773710D02*
D03*
X427898Y759402D02*
D03*
X291000Y744550D02*
D03*
X249306Y756694D02*
D03*
X583250Y584750D02*
D03*
X575686Y580686D02*
D03*
X365000Y608000D02*
D03*
X435300Y467000D02*
D03*
X368695Y497651D02*
D03*
Y483467D02*
D03*
X190000Y576000D02*
D03*
X290500Y780750D02*
D03*
X280566Y770566D02*
D03*
X290500Y766750D02*
D03*
X470000Y549500D02*
D03*
X455000Y542250D02*
D03*
X462500Y549500D02*
D03*
X455000D02*
D03*
X716250Y641976D02*
D03*
Y627476D02*
D03*
X739736Y641976D02*
D03*
X747236D02*
D03*
Y634726D02*
D03*
Y627476D02*
D03*
X724736Y634726D02*
D03*
Y641976D02*
D03*
X359492Y826508D02*
D03*
X491910Y837500D02*
D03*
X502000Y837250D02*
D03*
X481750Y829091D02*
D03*
X491750D02*
D03*
X502000Y828750D02*
D03*
X399699Y487999D02*
D03*
X399520Y495524D02*
D03*
X679945Y616280D02*
D03*
X672412Y616250D02*
D03*
X598750Y473000D02*
D03*
X602750Y171750D02*
D03*
X632031Y496774D02*
D03*
X589500Y520250D02*
D03*
X271168Y791500D02*
D03*
X303309Y849680D02*
D03*
X383250Y827000D02*
D03*
X670750Y645000D02*
D03*
X663250D02*
D03*
X655750D02*
D03*
X670750Y652250D02*
D03*
Y659500D02*
D03*
Y666750D02*
D03*
X522906Y124000D02*
D03*
X592000Y564750D02*
D03*
X451499Y424000D02*
D03*
X193545Y550680D02*
D03*
X193544Y558680D02*
D03*
X605300Y152700D02*
D03*
X695499Y224000D02*
D03*
X577999Y472999D02*
D03*
X611999Y525999D02*
D03*
X359492Y818242D02*
D03*
X215413Y578458D02*
D03*
X221743Y571012D02*
D03*
X403000Y437947D02*
D03*
X627696Y490088D02*
D03*
X585594Y468406D02*
D03*
X349758Y818242D02*
D03*
X339000Y818591D02*
D03*
X420578Y97922D02*
D03*
X198300Y474300D02*
D03*
X580328Y191000D02*
D03*
X744000Y336500D02*
D03*
X649544Y259000D02*
D03*
X667500Y286500D02*
D03*
X845000Y286000D02*
D03*
X565000Y410000D02*
D03*
X197000Y487000D02*
D03*
X586000Y280999D02*
D03*
X573000D02*
D03*
X630999Y269000D02*
D03*
X334534Y428228D02*
D03*
X320534Y428628D02*
D03*
X620000Y315000D02*
D03*
X612451Y296000D02*
D03*
X636376Y276700D02*
D03*
X208743Y571012D02*
D03*
X538750Y77000D02*
D03*
X403600Y126900D02*
D03*
X427500Y445000D02*
D03*
X228113Y578458D02*
D03*
X202713Y578504D02*
D03*
X494000Y53000D02*
D03*
X469945Y637641D02*
D03*
X476559Y618491D02*
D03*
X492242Y618444D02*
D03*
X508453Y618543D02*
D03*
X490945Y637641D02*
D03*
X498945Y637641D02*
D03*
X477945Y637641D02*
D03*
X695706Y211500D02*
D03*
X751000Y325000D02*
D03*
X586000Y267950D02*
D03*
X573000D02*
D03*
X447499Y464999D02*
D03*
M02*
