G04*
G04 #@! TF.GenerationSoftware,Altium Limited,Altium Designer,18.1.9 (240)*
G04*
G04 Layer_Color=8421504*
%FSLAX44Y44*%
%MOMM*%
G71*
G01*
G75*
%ADD13C,0.2540*%
%ADD21R,0.7000X0.9000*%
%ADD22R,0.9000X0.8000*%
%ADD23R,0.8000X1.6000*%
%ADD24R,2.1000X3.0000*%
%ADD25R,0.8000X0.9000*%
%ADD26R,0.9000X0.7000*%
%ADD27R,0.5588X1.2700*%
%ADD28R,0.3000X1.4500*%
%ADD29R,0.6000X1.1000*%
%ADD30R,0.6000X0.2400*%
%ADD31R,0.2400X0.6000*%
%ADD32R,1.1684X0.3556*%
%ADD33R,0.3556X1.1684*%
%ADD34R,0.6500X1.2000*%
%ADD35R,1.5000X0.5500*%
%ADD36R,0.5500X1.5000*%
%ADD37R,1.2000X1.8000*%
%ADD38R,0.9400X0.2700*%
%ADD39R,1.0200X0.2700*%
%ADD40R,0.5588X2.1844*%
%ADD41R,2.1844X0.5588*%
%ADD42R,1.2500X1.8000*%
%ADD43R,0.6000X1.0000*%
%ADD44R,3.0700X2.0700*%
%ADD45R,0.2600X0.9000*%
%ADD46R,0.9000X0.2600*%
%ADD47R,2.2000X0.6000*%
%ADD48R,1.2700X2.2600*%
%ADD49R,1.0000X0.2500*%
%ADD50R,0.2500X1.0000*%
%ADD51R,0.4318X1.6510*%
%ADD52R,1.0000X1.8000*%
%ADD53R,0.4500X1.3500*%
%ADD54R,1.0000X0.4700*%
%ADD55R,3.6000X3.6000*%
%ADD56R,0.2600X0.8400*%
%ADD57R,0.8400X0.2600*%
%ADD58R,0.7500X0.7000*%
G36*
X508187Y627616D02*
X508280Y627588D01*
X508365Y627542D01*
X508440Y627481D01*
X508502Y627406D01*
X508548Y627320D01*
X508576Y627227D01*
X508585Y627131D01*
Y620171D01*
X508576Y620074D01*
X508548Y619981D01*
X508502Y619896D01*
X508440Y619821D01*
X508365Y619759D01*
X508280Y619713D01*
X508187Y619685D01*
X508090Y619675D01*
X506880D01*
X506784Y619685D01*
X506691Y619713D01*
X506605Y619759D01*
X506530Y619821D01*
X506469Y619896D01*
X506423Y619981D01*
X506395Y620074D01*
X506385Y620171D01*
Y627131D01*
X506395Y627227D01*
X506423Y627320D01*
X506469Y627406D01*
X506530Y627481D01*
X506605Y627542D01*
X506691Y627588D01*
X506784Y627616D01*
X506880Y627626D01*
X508090D01*
X508187Y627616D01*
D02*
G37*
G36*
X503380Y627616D02*
X503474Y627587D01*
X503561Y627541D01*
X503638Y627478D01*
X503700Y627402D01*
X503747Y627314D01*
X503776Y627220D01*
X503785Y627122D01*
Y620179D01*
X503776Y620081D01*
X503747Y619987D01*
X503700Y619899D01*
X503638Y619823D01*
X503561Y619760D01*
X503474Y619714D01*
X503380Y619685D01*
X503281Y619675D01*
X501889D01*
X501791Y619685D01*
X501697Y619714D01*
X501609Y619760D01*
X501533Y619823D01*
X501470Y619899D01*
X501424Y619987D01*
X501395Y620081D01*
X501385Y620179D01*
Y627122D01*
X501395Y627220D01*
X501424Y627314D01*
X501470Y627402D01*
X501533Y627478D01*
X501609Y627541D01*
X501697Y627587D01*
X501791Y627616D01*
X501889Y627626D01*
X503281D01*
X503380Y627616D01*
D02*
G37*
G36*
X498387Y627616D02*
X498480Y627588D01*
X498565Y627542D01*
X498640Y627481D01*
X498702Y627406D01*
X498748Y627320D01*
X498776Y627227D01*
X498785Y627131D01*
Y620171D01*
X498776Y620074D01*
X498748Y619981D01*
X498702Y619896D01*
X498640Y619821D01*
X498565Y619759D01*
X498480Y619713D01*
X498387Y619685D01*
X498290Y619675D01*
X497080D01*
X496984Y619685D01*
X496891Y619713D01*
X496805Y619759D01*
X496730Y619821D01*
X496669Y619896D01*
X496623Y619981D01*
X496595Y620074D01*
X496585Y620171D01*
Y627131D01*
X496595Y627227D01*
X496623Y627320D01*
X496669Y627406D01*
X496730Y627481D01*
X496805Y627542D01*
X496891Y627588D01*
X496984Y627616D01*
X497080Y627626D01*
X498290D01*
X498387Y627616D01*
D02*
G37*
G36*
X508187Y617666D02*
X508280Y617638D01*
X508365Y617592D01*
X508440Y617531D01*
X508502Y617455D01*
X508548Y617370D01*
X508576Y617277D01*
X508585Y617180D01*
Y610220D01*
X508576Y610124D01*
X508548Y610031D01*
X508502Y609945D01*
X508440Y609870D01*
X508365Y609809D01*
X508280Y609763D01*
X508187Y609735D01*
X508090Y609725D01*
X506880D01*
X506784Y609735D01*
X506691Y609763D01*
X506605Y609809D01*
X506530Y609870D01*
X506469Y609945D01*
X506423Y610031D01*
X506395Y610124D01*
X506385Y610220D01*
Y617180D01*
X506395Y617277D01*
X506423Y617370D01*
X506469Y617455D01*
X506530Y617531D01*
X506605Y617592D01*
X506691Y617638D01*
X506784Y617666D01*
X506880Y617676D01*
X508090D01*
X508187Y617666D01*
D02*
G37*
G36*
X503380Y617666D02*
X503474Y617637D01*
X503561Y617590D01*
X503638Y617528D01*
X503700Y617452D01*
X503747Y617364D01*
X503776Y617270D01*
X503785Y617172D01*
Y610229D01*
X503776Y610131D01*
X503747Y610037D01*
X503700Y609949D01*
X503638Y609873D01*
X503561Y609810D01*
X503474Y609764D01*
X503380Y609735D01*
X503281Y609725D01*
X501889D01*
X501791Y609735D01*
X501697Y609764D01*
X501609Y609810D01*
X501533Y609873D01*
X501470Y609949D01*
X501424Y610037D01*
X501395Y610131D01*
X501385Y610229D01*
Y617172D01*
X501395Y617270D01*
X501424Y617364D01*
X501470Y617452D01*
X501533Y617528D01*
X501609Y617590D01*
X501697Y617637D01*
X501791Y617666D01*
X501889Y617676D01*
X503281D01*
X503380Y617666D01*
D02*
G37*
G36*
X498387Y617666D02*
X498480Y617638D01*
X498565Y617592D01*
X498640Y617531D01*
X498702Y617455D01*
X498748Y617370D01*
X498776Y617277D01*
X498785Y617180D01*
Y610220D01*
X498776Y610124D01*
X498748Y610031D01*
X498702Y609945D01*
X498640Y609870D01*
X498565Y609809D01*
X498480Y609763D01*
X498387Y609735D01*
X498290Y609725D01*
X497080D01*
X496984Y609735D01*
X496891Y609763D01*
X496805Y609809D01*
X496730Y609870D01*
X496669Y609945D01*
X496623Y610031D01*
X496595Y610124D01*
X496585Y610220D01*
Y617180D01*
X496595Y617277D01*
X496623Y617370D01*
X496669Y617455D01*
X496730Y617531D01*
X496805Y617592D01*
X496891Y617638D01*
X496984Y617666D01*
X497080Y617676D01*
X498290D01*
X498387Y617666D01*
D02*
G37*
G36*
X779820Y597330D02*
X762176D01*
Y609223D01*
X779820D01*
Y597330D01*
D02*
G37*
G36*
X463223Y462920D02*
X460750D01*
Y469900D01*
X463223D01*
Y462920D01*
D02*
G37*
G36*
X503289Y462920D02*
X500750D01*
Y469900D01*
X503289D01*
Y462920D01*
D02*
G37*
G36*
X473242Y462916D02*
X470750D01*
Y469900D01*
X473242D01*
Y462916D01*
D02*
G37*
G36*
X478249Y462907D02*
X475750D01*
Y469900D01*
X478249D01*
Y462907D01*
D02*
G37*
G36*
X483252Y462905D02*
X480750D01*
Y469900D01*
X483252D01*
Y462905D01*
D02*
G37*
G36*
X498258Y462905D02*
X495750D01*
Y469900D01*
X498258D01*
Y462905D01*
D02*
G37*
G36*
X493255Y462904D02*
X490750D01*
Y469900D01*
X493255D01*
Y462904D01*
D02*
G37*
G36*
X468246Y462904D02*
X465750D01*
Y469900D01*
X468246D01*
Y462904D01*
D02*
G37*
G36*
X488252Y462903D02*
X485750D01*
Y469900D01*
X488252D01*
Y462903D01*
D02*
G37*
G36*
X458245Y462903D02*
X455750D01*
Y469900D01*
X458245D01*
Y462903D01*
D02*
G37*
G36*
X460477Y457173D02*
X453484D01*
Y459635D01*
X460477D01*
Y457173D01*
D02*
G37*
G36*
X505517Y457133D02*
X498524D01*
Y459674D01*
X505517D01*
Y457133D01*
D02*
G37*
G36*
X460495Y452155D02*
X453495D01*
Y454645D01*
X460495D01*
Y452155D01*
D02*
G37*
G36*
X505502Y452148D02*
X498501D01*
Y454651D01*
X505502D01*
Y452148D01*
D02*
G37*
G36*
X460496Y447154D02*
X453493D01*
Y449643D01*
X460496D01*
Y447154D01*
D02*
G37*
G36*
X505518Y447132D02*
X498511D01*
Y449661D01*
X505518D01*
Y447132D01*
D02*
G37*
G36*
X460499Y442151D02*
X453498D01*
Y444648D01*
X460499D01*
Y442151D01*
D02*
G37*
G36*
X505506Y442144D02*
X498502D01*
Y444652D01*
X505506D01*
Y442144D01*
D02*
G37*
G36*
X468244Y431889D02*
X465750D01*
Y438900D01*
X468244D01*
Y431889D01*
D02*
G37*
G36*
X503266Y431887D02*
X500750D01*
Y438900D01*
X503266D01*
Y431887D01*
D02*
G37*
G36*
X498267Y431883D02*
X495750D01*
Y438900D01*
X498267D01*
Y431883D01*
D02*
G37*
G36*
X473244Y431883D02*
X470750D01*
Y438900D01*
X473244D01*
Y431883D01*
D02*
G37*
G36*
X493264Y431881D02*
X490750D01*
Y438900D01*
X493264D01*
Y431881D01*
D02*
G37*
G36*
X463233D02*
X460750D01*
Y438900D01*
X463233D01*
Y431881D01*
D02*
G37*
G36*
X458225Y431878D02*
X455750D01*
Y438900D01*
X458225D01*
Y431878D01*
D02*
G37*
G36*
X478248Y431869D02*
X475750D01*
Y438900D01*
X478248D01*
Y431869D01*
D02*
G37*
G36*
X483257Y431867D02*
X480750D01*
Y438900D01*
X483257D01*
Y431867D01*
D02*
G37*
G36*
X488267Y431863D02*
X485750D01*
Y438900D01*
X488267D01*
Y431863D01*
D02*
G37*
G36*
X594750Y276799D02*
X581353D01*
Y290221D01*
X594750D01*
Y276799D01*
D02*
G37*
G36*
X576750D02*
X563320D01*
Y290230D01*
X576750D01*
Y276799D01*
D02*
G37*
G36*
X594750Y258799D02*
X581352D01*
Y272198D01*
X594750D01*
Y258799D01*
D02*
G37*
G36*
X576750D02*
X563325D01*
Y272196D01*
X576750D01*
Y258799D01*
D02*
G37*
D13*
X0Y901700D02*
X958850D01*
X958850Y0D01*
X0D02*
X958850D01*
X0D02*
Y901700D01*
D21*
X1043500Y499700D02*
D03*
X1028500D02*
D03*
X872500Y806440D02*
D03*
X887500D02*
D03*
X882500Y819742D02*
D03*
X867500D02*
D03*
X596500Y420000D02*
D03*
X581500D02*
D03*
X182900Y830000D02*
D03*
X167900D02*
D03*
X272500Y830000D02*
D03*
X287500D02*
D03*
X894292Y715000D02*
D03*
X879293D02*
D03*
X347100Y419000D02*
D03*
X332100D02*
D03*
X392435Y474728D02*
D03*
X377434D02*
D03*
X392435Y460579D02*
D03*
X377434D02*
D03*
X392435Y502004D02*
D03*
X377434D02*
D03*
X392435Y487904D02*
D03*
X377434D02*
D03*
X392435Y528528D02*
D03*
X377434D02*
D03*
X392435Y515004D02*
D03*
X377434D02*
D03*
X495500Y416000D02*
D03*
X510500D02*
D03*
X444899Y433150D02*
D03*
X429899D02*
D03*
X565278Y343999D02*
D03*
X580277D02*
D03*
X581500Y216000D02*
D03*
X566500D02*
D03*
X547850Y124000D02*
D03*
X532850D02*
D03*
X645350Y138900D02*
D03*
X660350D02*
D03*
X547850Y169000D02*
D03*
X532850D02*
D03*
X645350Y124900D02*
D03*
X660350D02*
D03*
X645350Y152851D02*
D03*
X660350D02*
D03*
Y166850D02*
D03*
X645350D02*
D03*
X660350Y181500D02*
D03*
X645350D02*
D03*
D22*
X1042998Y535000D02*
D03*
Y549000D02*
D03*
X808000Y762000D02*
D03*
Y776000D02*
D03*
X826000Y883000D02*
D03*
Y869000D02*
D03*
X840000Y883000D02*
D03*
Y869000D02*
D03*
X828000Y840370D02*
D03*
Y854370D02*
D03*
X627000Y350499D02*
D03*
Y364499D02*
D03*
X637000Y328999D02*
D03*
Y314999D02*
D03*
X636376Y285700D02*
D03*
Y299699D02*
D03*
X755850Y796728D02*
D03*
Y810728D02*
D03*
X739850Y796728D02*
D03*
Y810728D02*
D03*
X466942Y514646D02*
D03*
Y528646D02*
D03*
X451940Y514646D02*
D03*
Y528646D02*
D03*
X437943Y528646D02*
D03*
Y514646D02*
D03*
X438000Y571000D02*
D03*
Y557000D02*
D03*
X494485Y545644D02*
D03*
Y559644D02*
D03*
X538085Y617327D02*
D03*
Y603328D02*
D03*
X463000Y618327D02*
D03*
Y604328D02*
D03*
X475989Y618327D02*
D03*
Y604327D02*
D03*
X473436Y647328D02*
D03*
Y633327D02*
D03*
X476174Y710502D02*
D03*
Y696502D02*
D03*
X603000Y609000D02*
D03*
Y595000D02*
D03*
X215291Y660680D02*
D03*
Y674680D02*
D03*
X330970Y687527D02*
D03*
Y701527D02*
D03*
X622000Y285000D02*
D03*
Y298999D02*
D03*
X436500Y459200D02*
D03*
Y445200D02*
D03*
X622000Y255000D02*
D03*
Y269000D02*
D03*
X781350Y676350D02*
D03*
Y662350D02*
D03*
X788350Y558000D02*
D03*
Y572000D02*
D03*
X814500Y605500D02*
D03*
Y619500D02*
D03*
X531350Y142000D02*
D03*
Y156000D02*
D03*
X545350Y142000D02*
D03*
Y156000D02*
D03*
X517850Y156000D02*
D03*
Y142000D02*
D03*
D23*
X471999Y849680D02*
D03*
X459499D02*
D03*
X292999D02*
D03*
X280499D02*
D03*
X191000D02*
D03*
X203499D02*
D03*
X370499D02*
D03*
X382999D02*
D03*
D24*
X433999Y878680D02*
D03*
X497499D02*
D03*
X254999Y878680D02*
D03*
X318499D02*
D03*
X229000D02*
D03*
X165499D02*
D03*
X408499D02*
D03*
X344999D02*
D03*
D25*
X917000Y785000D02*
D03*
X903000D02*
D03*
X556300Y320999D02*
D03*
X570300D02*
D03*
X650500Y358875D02*
D03*
X664500D02*
D03*
X776000Y526000D02*
D03*
X790000D02*
D03*
X776000Y500500D02*
D03*
X790000D02*
D03*
X790000Y513000D02*
D03*
X776000D02*
D03*
X381586Y577327D02*
D03*
X395586D02*
D03*
X500086Y647328D02*
D03*
X486086D02*
D03*
X613501Y561719D02*
D03*
X599501D02*
D03*
X582000Y432805D02*
D03*
X596000D02*
D03*
X608000Y432805D02*
D03*
X622000D02*
D03*
X273941Y646340D02*
D03*
X287940D02*
D03*
X813000Y654500D02*
D03*
X827000D02*
D03*
X334534Y436285D02*
D03*
X320534D02*
D03*
X458873Y416000D02*
D03*
X472873D02*
D03*
X433000Y475000D02*
D03*
X447000D02*
D03*
X574000Y235000D02*
D03*
X588000D02*
D03*
X597876Y314999D02*
D03*
X611876D02*
D03*
X788000Y636350D02*
D03*
X802000D02*
D03*
X774500Y636350D02*
D03*
X760500D02*
D03*
X788350Y544350D02*
D03*
X774350D02*
D03*
X814500Y585650D02*
D03*
X800500D02*
D03*
X814500Y572000D02*
D03*
X800500D02*
D03*
X729300Y646879D02*
D03*
X743300D02*
D03*
X729300Y661879D02*
D03*
X743300D02*
D03*
X728950Y619474D02*
D03*
X742950D02*
D03*
X753000Y566600D02*
D03*
X767000D02*
D03*
X814500Y544350D02*
D03*
X800500D02*
D03*
X814500Y558000D02*
D03*
X800500D02*
D03*
X332000Y137000D02*
D03*
X346000D02*
D03*
D26*
X864500Y715500D02*
D03*
Y700500D02*
D03*
X776301Y715000D02*
D03*
Y730000D02*
D03*
X860000Y873500D02*
D03*
Y888500D02*
D03*
X569368Y433805D02*
D03*
Y418805D02*
D03*
X635001Y433805D02*
D03*
Y418805D02*
D03*
X676144Y494961D02*
D03*
Y509961D02*
D03*
X572778Y640827D02*
D03*
Y625827D02*
D03*
X461581Y725688D02*
D03*
Y710688D02*
D03*
X572778Y609500D02*
D03*
Y594500D02*
D03*
X434128Y711102D02*
D03*
Y726102D02*
D03*
X586400Y609500D02*
D03*
Y594500D02*
D03*
X688144Y494961D02*
D03*
Y509961D02*
D03*
X403800Y118901D02*
D03*
Y103901D02*
D03*
X384900Y119500D02*
D03*
Y104500D02*
D03*
X366000Y118901D02*
D03*
Y103901D02*
D03*
X348000Y118901D02*
D03*
Y103901D02*
D03*
X330400Y118901D02*
D03*
Y103901D02*
D03*
X311900Y118901D02*
D03*
Y103901D02*
D03*
X403500Y89417D02*
D03*
Y74417D02*
D03*
X384900Y89417D02*
D03*
Y74417D02*
D03*
X366300Y89417D02*
D03*
Y74417D02*
D03*
X347700Y89417D02*
D03*
Y74417D02*
D03*
X311900Y90000D02*
D03*
Y75000D02*
D03*
X330100Y89417D02*
D03*
Y74417D02*
D03*
X847000Y727500D02*
D03*
Y712500D02*
D03*
X755802Y730500D02*
D03*
Y715500D02*
D03*
X800001Y731500D02*
D03*
Y716500D02*
D03*
X521000Y441400D02*
D03*
Y426400D02*
D03*
X608000Y194499D02*
D03*
Y209500D02*
D03*
X609000Y225999D02*
D03*
Y241000D02*
D03*
X622000Y225999D02*
D03*
Y241000D02*
D03*
X594000Y194499D02*
D03*
Y209499D02*
D03*
X420578Y89500D02*
D03*
Y74500D02*
D03*
D27*
X837892Y745507D02*
D03*
X847290D02*
D03*
X856688D02*
D03*
Y771415D02*
D03*
X847290D02*
D03*
X837892D02*
D03*
X721202Y747046D02*
D03*
X730600D02*
D03*
X739998D02*
D03*
Y772954D02*
D03*
X730600D02*
D03*
X721202D02*
D03*
D28*
X840000Y810000D02*
D03*
X845000D02*
D03*
X850000D02*
D03*
X855000D02*
D03*
X860000D02*
D03*
X840000Y854000D02*
D03*
X845000D02*
D03*
X850000D02*
D03*
X855000D02*
D03*
X860000D02*
D03*
D29*
X894000Y743000D02*
D03*
X903500D02*
D03*
X913000D02*
D03*
Y771000D02*
D03*
X894000D02*
D03*
X773500Y748000D02*
D03*
X783000D02*
D03*
X792500D02*
D03*
Y776000D02*
D03*
X773500D02*
D03*
D30*
X516585Y616726D02*
D03*
Y621726D02*
D03*
Y626726D02*
D03*
Y631726D02*
D03*
X488585D02*
D03*
Y626726D02*
D03*
Y621726D02*
D03*
Y616726D02*
D03*
D31*
X507585Y635726D02*
D03*
X502585D02*
D03*
X497585D02*
D03*
D32*
X456071Y546040D02*
D03*
Y552644D02*
D03*
Y559248D02*
D03*
X476899D02*
D03*
Y552644D02*
D03*
Y546040D02*
D03*
X235877Y661076D02*
D03*
Y667680D02*
D03*
Y674284D02*
D03*
X256705D02*
D03*
Y667680D02*
D03*
Y661076D02*
D03*
X347934Y688074D02*
D03*
Y694678D02*
D03*
Y701282D02*
D03*
X368762D02*
D03*
Y694678D02*
D03*
Y688074D02*
D03*
X589586Y623069D02*
D03*
Y629673D02*
D03*
Y636277D02*
D03*
X610414D02*
D03*
Y629673D02*
D03*
Y623069D02*
D03*
D33*
X267505Y624997D02*
D03*
X274109D02*
D03*
X280713D02*
D03*
Y604169D02*
D03*
X274109D02*
D03*
X267505D02*
D03*
X824604Y694014D02*
D03*
X818000D02*
D03*
X811396D02*
D03*
Y673186D02*
D03*
X818000D02*
D03*
X824604D02*
D03*
D34*
X387934Y808940D02*
D03*
X401396D02*
D03*
X414604D02*
D03*
X428066D02*
D03*
X427050Y752750D02*
D03*
X414350D02*
D03*
X401650D02*
D03*
X388950D02*
D03*
X446433Y808940D02*
D03*
X459895D02*
D03*
X473103D02*
D03*
X486565D02*
D03*
X485549Y752750D02*
D03*
X472849D02*
D03*
X460149D02*
D03*
X447449D02*
D03*
D35*
X649000Y527305D02*
D03*
Y519305D02*
D03*
Y511305D02*
D03*
Y503305D02*
D03*
Y495305D02*
D03*
Y487305D02*
D03*
Y479305D02*
D03*
Y471305D02*
D03*
X563000D02*
D03*
Y479305D02*
D03*
Y487305D02*
D03*
Y495305D02*
D03*
Y503305D02*
D03*
Y511305D02*
D03*
Y519305D02*
D03*
Y527305D02*
D03*
D36*
X634001Y456305D02*
D03*
X626001D02*
D03*
X618001D02*
D03*
X610001D02*
D03*
X602001D02*
D03*
X594001D02*
D03*
X586001D02*
D03*
X578001D02*
D03*
Y542305D02*
D03*
X586001D02*
D03*
X594001D02*
D03*
X602001D02*
D03*
X610001D02*
D03*
X618001D02*
D03*
X626001D02*
D03*
X634001D02*
D03*
D37*
X511501Y537719D02*
D03*
Y497719D02*
D03*
X535500D02*
D03*
Y537719D02*
D03*
D38*
X446474Y699502D02*
D03*
Y694502D02*
D03*
Y689502D02*
D03*
X433875D02*
D03*
Y694502D02*
D03*
D39*
X434274Y699502D02*
D03*
D40*
X403100Y640622D02*
D03*
X390400D02*
D03*
X377700D02*
D03*
X365000D02*
D03*
X352300D02*
D03*
X339600D02*
D03*
X326900D02*
D03*
Y593378D02*
D03*
X339600D02*
D03*
X352300D02*
D03*
X365000D02*
D03*
X377700D02*
D03*
X390400D02*
D03*
X403100D02*
D03*
D41*
X227622Y448900D02*
D03*
Y461600D02*
D03*
Y474300D02*
D03*
Y487000D02*
D03*
Y499700D02*
D03*
Y512400D02*
D03*
Y525100D02*
D03*
X180378D02*
D03*
Y512400D02*
D03*
Y499700D02*
D03*
Y487000D02*
D03*
Y474300D02*
D03*
Y461600D02*
D03*
Y448900D02*
D03*
D42*
X700000Y878000D02*
D03*
X797100D02*
D03*
D43*
X726050Y826100D02*
D03*
X741050D02*
D03*
X756050D02*
D03*
X771050D02*
D03*
D44*
X772150Y602500D02*
D03*
D45*
X784650Y585650D02*
D03*
X779650D02*
D03*
X774650D02*
D03*
X769650D02*
D03*
X764650D02*
D03*
X759650D02*
D03*
X754650D02*
D03*
X759650Y619350D02*
D03*
X764650D02*
D03*
X769650D02*
D03*
X774650D02*
D03*
X779650D02*
D03*
X784650D02*
D03*
X789650D02*
D03*
Y585650D02*
D03*
X754650Y619350D02*
D03*
D46*
X750300Y595000D02*
D03*
X794000Y610000D02*
D03*
Y595000D02*
D03*
X750300Y610000D02*
D03*
D47*
X569350Y152700D02*
D03*
X621350D02*
D03*
X569350Y165400D02*
D03*
Y140000D02*
D03*
Y127300D02*
D03*
X621350Y165400D02*
D03*
Y140000D02*
D03*
Y127300D02*
D03*
D48*
X441600Y291400D02*
D03*
X390800D02*
D03*
X416200D02*
D03*
X492400D02*
D03*
X467000D02*
D03*
Y366000D02*
D03*
X492400D02*
D03*
X416200D02*
D03*
X390800D02*
D03*
X441600D02*
D03*
X314600Y186600D02*
D03*
X263800D02*
D03*
X289200D02*
D03*
X365400D02*
D03*
X340000D02*
D03*
Y261200D02*
D03*
X365400D02*
D03*
X289200D02*
D03*
X263800D02*
D03*
X314600D02*
D03*
Y291400D02*
D03*
X263800D02*
D03*
X289200D02*
D03*
X365400D02*
D03*
X340000D02*
D03*
Y366000D02*
D03*
X365400D02*
D03*
X289200D02*
D03*
X263800D02*
D03*
X314600D02*
D03*
X441600Y186600D02*
D03*
X390800D02*
D03*
X416200D02*
D03*
X492400D02*
D03*
X467000D02*
D03*
Y261200D02*
D03*
X492400D02*
D03*
X416200D02*
D03*
X390800D02*
D03*
X441600D02*
D03*
D49*
X503500Y458400D02*
D03*
Y453400D02*
D03*
Y448400D02*
D03*
Y443400D02*
D03*
X455500Y458400D02*
D03*
Y453400D02*
D03*
Y448400D02*
D03*
Y443400D02*
D03*
D50*
X457000Y433900D02*
D03*
X462000D02*
D03*
X467000D02*
D03*
X472000D02*
D03*
X477000D02*
D03*
X482000D02*
D03*
X487000D02*
D03*
X492000D02*
D03*
X497000D02*
D03*
X502000D02*
D03*
Y467900D02*
D03*
X497000D02*
D03*
X492000D02*
D03*
X487000D02*
D03*
X482000D02*
D03*
X477000D02*
D03*
X472000D02*
D03*
X467000D02*
D03*
X462000D02*
D03*
X457000D02*
D03*
D51*
X272606Y526876D02*
D03*
X278956D02*
D03*
X285560D02*
D03*
X291910D02*
D03*
X298514D02*
D03*
X305118D02*
D03*
X311468D02*
D03*
X318072D02*
D03*
X324422D02*
D03*
X331026D02*
D03*
X337630D02*
D03*
X343980D02*
D03*
X350584D02*
D03*
X356934D02*
D03*
Y454232D02*
D03*
X350584D02*
D03*
X343980D02*
D03*
X337630D02*
D03*
X331026D02*
D03*
X324422D02*
D03*
X318072D02*
D03*
X311468D02*
D03*
X305118D02*
D03*
X298514D02*
D03*
X291910D02*
D03*
X285560D02*
D03*
X278956D02*
D03*
X272606D02*
D03*
D52*
X482500Y490500D02*
D03*
X457500D02*
D03*
D53*
X670500Y341875D02*
D03*
X664000D02*
D03*
X657500D02*
D03*
X651000D02*
D03*
X670500Y302375D02*
D03*
X664000D02*
D03*
X657500D02*
D03*
X651000D02*
D03*
D54*
X591426Y337549D02*
D03*
X609426Y331049D02*
D03*
Y344050D02*
D03*
X591426Y331049D02*
D03*
Y344050D02*
D03*
D55*
X579050Y274499D02*
D03*
D56*
X596550Y250149D02*
D03*
X591550D02*
D03*
X586550D02*
D03*
X581550D02*
D03*
X576550D02*
D03*
X571550D02*
D03*
X566550D02*
D03*
X561550D02*
D03*
Y298849D02*
D03*
X566550D02*
D03*
X571550D02*
D03*
X576550D02*
D03*
X581550D02*
D03*
X586550D02*
D03*
X591550D02*
D03*
X596550D02*
D03*
D57*
X603400Y291999D02*
D03*
Y287000D02*
D03*
Y281999D02*
D03*
Y277000D02*
D03*
Y271999D02*
D03*
Y267000D02*
D03*
Y261999D02*
D03*
Y257000D02*
D03*
X554700D02*
D03*
Y261999D02*
D03*
Y267000D02*
D03*
Y271999D02*
D03*
Y277000D02*
D03*
Y281999D02*
D03*
Y287000D02*
D03*
Y291999D02*
D03*
D58*
X538750Y67000D02*
D03*
Y35000D02*
D03*
X555250D02*
D03*
Y67000D02*
D03*
M02*
