G04*
G04 #@! TF.GenerationSoftware,Altium Limited,Altium Designer,18.1.9 (240)*
G04*
G04 Layer_Color=65535*
%FSLAX44Y44*%
%MOMM*%
G71*
G01*
G75*
%ADD10C,0.1500*%
%ADD11C,0.1524*%
%ADD12C,0.2000*%
%ADD13C,0.2540*%
%ADD14C,0.0000*%
%ADD15C,0.3000*%
%ADD16C,0.2032*%
%ADD17C,0.1270*%
%ADD18C,0.4000*%
%ADD19C,0.1778*%
%ADD20C,0.0762*%
G36*
X166916Y497795D02*
X164376D01*
Y501605D01*
X166916D01*
Y497795D01*
D02*
G37*
G36*
X354205Y579916D02*
Y577376D01*
X350395D01*
Y579916D01*
X354205D01*
D02*
G37*
G36*
X385664Y742580D02*
Y742381D01*
X385816Y742013D01*
X386097Y741732D01*
X386465Y741580D01*
X386664D01*
X386863D01*
X387230Y741732D01*
X387512Y742013D01*
X387664Y742381D01*
Y742580D01*
Y742778D01*
X387512Y743146D01*
X387230Y743427D01*
X386863Y743580D01*
X386664D01*
X386465D01*
X386097Y743427D01*
X385816Y743146D01*
X385664Y742778D01*
Y742580D01*
D01*
D02*
G37*
G36*
X444163D02*
Y742381D01*
X444315Y742013D01*
X444597Y741732D01*
X444964Y741580D01*
X445163D01*
X445362D01*
X445730Y741732D01*
X446011Y742013D01*
X446163Y742381D01*
Y742580D01*
Y742778D01*
X446011Y743146D01*
X445730Y743427D01*
X445362Y743580D01*
X445163D01*
X444964D01*
X444597Y743427D01*
X444315Y743146D01*
X444163Y742778D01*
Y742580D01*
D01*
D02*
G37*
D10*
X500425Y836180D02*
G03*
X500425Y836180I-2926J0D01*
G01*
X429524Y704202D02*
G03*
X429524Y704202I-700J0D01*
G01*
X321426Y836180D02*
G03*
X321426Y836180I-2926J0D01*
G01*
X231926Y836180D02*
G03*
X231926Y836180I-2926J0D01*
G01*
X411426Y836180D02*
G03*
X411426Y836180I-2926J0D01*
G01*
D11*
X832050Y755413D02*
G03*
X832050Y761509I0J3048D01*
G01*
X715360Y756952D02*
G03*
X715360Y763048I0J3048D01*
G01*
X467779Y544758D02*
G03*
X465239Y544780I-1294J-2776D01*
G01*
X266224Y613288D02*
G03*
X266246Y615828I-2776J1294D01*
G01*
X247585Y659795D02*
G03*
X245045Y659817I-1294J-2776D01*
G01*
X359642Y686792D02*
G03*
X357102Y686815I-1294J-2776D01*
G01*
X637024Y526737D02*
G03*
X637024Y526737I-3592J0D01*
G01*
X601294Y621788D02*
G03*
X598754Y621810I-1294J-2776D01*
G01*
X408815Y620048D02*
G03*
X408815Y613952I0J-3048D01*
G01*
X207048Y443185D02*
G03*
X200952Y443185I-3048J0D01*
G01*
X825885Y684894D02*
G03*
X825863Y682354I2776J-1294D01*
G01*
X592623Y162606D02*
G03*
X592623Y162606I-3877J0D01*
G01*
X262192Y487506D02*
G03*
X262192Y493602I0J3048D01*
G01*
X832050Y761509D02*
Y763795D01*
Y755413D02*
Y761509D01*
Y753127D02*
Y755413D01*
X715360Y763048D02*
Y765334D01*
Y756952D02*
Y763048D01*
Y754666D02*
Y756952D01*
X640001Y465305D02*
Y533305D01*
X572001D02*
X640001D01*
X572001Y465305D02*
Y533305D01*
Y465305D02*
X640001D01*
X321185Y605840D02*
Y628160D01*
X408815Y605840D02*
Y628160D01*
X192840Y530815D02*
X215160D01*
X192840Y443185D02*
X215160D01*
X262192Y462614D02*
X267018D01*
X262192D02*
Y487506D01*
Y493602D01*
Y518494D01*
X362522D02*
X367348D01*
Y462614D02*
Y518494D01*
X362522Y462614D02*
X367348D01*
X262192Y518494D02*
X267018D01*
D12*
X837714Y828098D02*
G03*
X837714Y836098I0J4000D01*
G01*
X835888Y810508D02*
G03*
X835888Y810508I-1984J0D01*
G01*
X673750Y323750D02*
G03*
X673750Y320500I0J-1625D01*
G01*
X552500Y51000D02*
G03*
X552500Y51000I-5500J0D01*
G01*
X1034000Y496200D02*
X1038000D01*
X1034000Y503200D02*
X1038000D01*
X878000Y809940D02*
X882000D01*
X878000Y802940D02*
X882000D01*
X868000Y706000D02*
Y710000D01*
X861000Y706000D02*
Y710000D01*
X772801Y720500D02*
Y724500D01*
X779801Y720500D02*
Y724500D01*
X856500Y879000D02*
Y883000D01*
X863500Y879000D02*
Y883000D01*
X837500Y820922D02*
Y828034D01*
Y836162D02*
Y843782D01*
X862500D01*
Y820922D02*
Y843782D01*
X837500Y820922D02*
X862500D01*
X873000Y816242D02*
X877000D01*
X873000Y823242D02*
X877000D01*
X891460Y760272D02*
Y762558D01*
Y753922D02*
Y760272D01*
Y762558D02*
X915590D01*
X891460Y751382D02*
X915590D01*
Y762558D01*
X891460Y751382D02*
Y753922D01*
X770960Y765272D02*
Y767558D01*
Y758922D02*
Y765272D01*
Y767558D02*
X795090D01*
X770960Y756382D02*
X795090D01*
Y767558D01*
X770960Y756382D02*
Y758922D01*
X485585Y609725D02*
Y613226D01*
Y609725D02*
X490585D01*
X517585D02*
X519585D01*
Y611726D01*
X485585Y636726D02*
Y638726D01*
X487585D01*
X519585Y636726D02*
Y638726D01*
X517585D02*
X519585D01*
X572868Y424305D02*
Y428305D01*
X565869Y424305D02*
Y428305D01*
X638500Y424305D02*
Y428305D01*
X631501Y424305D02*
Y428305D01*
X587000Y416500D02*
X591000D01*
X587000Y423500D02*
X591000D01*
X672644Y500461D02*
Y504461D01*
X679644Y500461D02*
Y504461D01*
X576278Y631327D02*
Y635327D01*
X569278Y631327D02*
Y635327D01*
X465081Y716188D02*
Y720188D01*
X458081Y716188D02*
Y720188D01*
X576278Y600000D02*
Y604000D01*
X569277Y600000D02*
Y604000D01*
X430628Y716602D02*
Y720602D01*
X437628Y716602D02*
Y720602D01*
X589900Y600000D02*
Y604000D01*
X582900Y600000D02*
Y604000D01*
X684644Y500461D02*
Y504461D01*
X691644Y500461D02*
Y504461D01*
X173400Y826500D02*
X177400D01*
X173400Y833500D02*
X177400D01*
X278000Y833500D02*
X282000D01*
X278000Y826500D02*
X282000D01*
X38750Y790050D02*
X88250D01*
Y124550D02*
Y790050D01*
X38750Y124550D02*
X88250D01*
X38750D02*
Y790050D01*
X88250D02*
X137750D01*
Y124550D02*
Y790050D01*
X88250Y124550D02*
X137750D01*
X88250D02*
Y790050D01*
X407300Y109401D02*
Y113401D01*
X400300Y109401D02*
Y113401D01*
X388400Y110000D02*
Y114000D01*
X381400Y110000D02*
Y114000D01*
X369500Y109401D02*
Y113401D01*
X362500Y109401D02*
Y113401D01*
X351500Y109401D02*
Y113401D01*
X344500Y109401D02*
Y113401D01*
X333900Y109401D02*
Y113401D01*
X326900Y109401D02*
Y113401D01*
X315400Y109401D02*
Y113401D01*
X308400Y109401D02*
Y113401D01*
X396750Y66916D02*
Y95167D01*
X410250D01*
Y66916D02*
Y95167D01*
X378150Y66917D02*
Y95167D01*
X391650D01*
Y66917D02*
Y95167D01*
X359550Y66917D02*
Y95167D01*
X373050D01*
Y66917D02*
Y95167D01*
X340950Y66917D02*
Y95167D01*
X354450D01*
Y66917D02*
Y95167D01*
X305150Y67500D02*
Y95750D01*
X318650D01*
Y67500D02*
Y95750D01*
X323350Y66917D02*
Y95167D01*
X336851D01*
Y66917D02*
Y95167D01*
X610417Y16300D02*
X659100D01*
X582900D02*
X659100D01*
X582900Y67100D02*
X659100D01*
X582900Y16300D02*
Y67100D01*
X659100Y16300D02*
Y67100D01*
X466646Y27900D02*
Y78700D01*
Y27900D02*
X517446D01*
X466646Y78700D02*
X517446D01*
Y27900D02*
Y78700D01*
X873542Y721750D02*
X901792D01*
X873542Y708250D02*
Y721750D01*
Y708250D02*
X901792D01*
X850500Y718000D02*
Y722000D01*
X843500Y718000D02*
Y722000D01*
X749052Y709750D02*
Y738000D01*
Y709750D02*
X762552D01*
Y738000D01*
X803500Y722000D02*
Y726000D01*
X796500Y722000D02*
Y726000D01*
X337600Y415500D02*
X341600D01*
X337600Y422500D02*
X341600D01*
X382934Y471227D02*
X386935D01*
X382934Y478228D02*
X386935D01*
X382934Y457080D02*
X386935D01*
X382934Y464080D02*
X386935D01*
X382934Y498504D02*
X386935D01*
X382934Y505504D02*
X386935D01*
X382934Y484404D02*
X386935D01*
X382934Y491404D02*
X386935D01*
X382934Y525028D02*
X386935D01*
X382934Y532028D02*
X386935D01*
X382934Y511504D02*
X386935D01*
X382934Y518504D02*
X386935D01*
X501000Y419500D02*
X505000D01*
X501000Y412500D02*
X505000D01*
X524500Y431900D02*
Y435900D01*
X517500Y431900D02*
Y435900D01*
X435399Y429650D02*
X439399D01*
X435399Y436650D02*
X439399D01*
X142700Y23900D02*
Y74700D01*
X91900D02*
X142700D01*
X91900Y23900D02*
X142700D01*
X91900D02*
Y74700D01*
X673750Y323750D02*
Y331207D01*
Y312919D02*
Y320500D01*
X647750Y312919D02*
X673750D01*
X647750D02*
Y331207D01*
X673750D01*
X604500Y199999D02*
Y203999D01*
X611500Y199999D02*
Y203999D01*
X605500Y231500D02*
Y235499D01*
X612500Y231500D02*
Y235499D01*
X618500Y231500D02*
Y235499D01*
X625500Y231500D02*
Y235499D01*
X590500Y199999D02*
Y203999D01*
X597500Y199999D02*
Y203999D01*
X570777Y347499D02*
X574778D01*
X570777Y340499D02*
X574778D01*
X572000Y212500D02*
X576000D01*
X572000Y219499D02*
X576000D01*
X538349Y120500D02*
X542350D01*
X538349Y127500D02*
X542350D01*
X650850Y142400D02*
X654849D01*
X650850Y135400D02*
X654849D01*
X538350Y165500D02*
X542350D01*
X538350Y172500D02*
X542350D01*
X650849Y128400D02*
X654849D01*
X650849Y121401D02*
X654849D01*
X650849Y156351D02*
X654849D01*
X650849Y149350D02*
X654849D01*
X650849Y163350D02*
X654849D01*
X650849Y170351D02*
X654849D01*
X650850Y178000D02*
X654849D01*
X650850Y185000D02*
X654849D01*
X535250Y41500D02*
Y60500D01*
X545250Y70250D02*
X548500D01*
X558500Y41500D02*
Y60500D01*
X545250Y31750D02*
X548500D01*
X424078Y80000D02*
Y84000D01*
X417077Y80000D02*
Y84000D01*
X678000Y76000D02*
Y85997D01*
X682998D01*
X684665Y84331D01*
Y80998D01*
X682998Y79332D01*
X678000D01*
X681332D02*
X684665Y76000D01*
X687997Y85997D02*
Y77666D01*
X689663Y76000D01*
X692995D01*
X694661Y77666D01*
Y85997D01*
X697993Y76000D02*
Y85997D01*
X704658Y76000D01*
Y85997D01*
X722986Y76000D02*
X717987Y80998D01*
X722986Y85997D01*
X727984Y80998D02*
X734648D01*
X737981Y76000D02*
X742979Y80998D01*
X737981Y85997D01*
X756308Y76000D02*
Y85997D01*
X761307D01*
X762973Y84331D01*
Y80998D01*
X761307Y79332D01*
X756308D01*
X766305Y76000D02*
Y85997D01*
X771303D01*
X772969Y84331D01*
Y80998D01*
X771303Y79332D01*
X766305D01*
X769637D02*
X772969Y76000D01*
X781300Y85997D02*
X777968D01*
X776302Y84331D01*
Y77666D01*
X777968Y76000D01*
X781300D01*
X782966Y77666D01*
Y84331D01*
X781300Y85997D01*
X792963Y84331D02*
X791297Y85997D01*
X787965D01*
X786298Y84331D01*
Y77666D01*
X787965Y76000D01*
X791297D01*
X792963Y77666D01*
Y80998D01*
X789631D01*
D13*
X894254Y733348D02*
G03*
X894254Y733348I-254J0D01*
G01*
X773754Y738348D02*
G03*
X773754Y738348I-254J0D01*
G01*
X676229Y341894D02*
G03*
X676342Y341875I114J341D01*
G01*
X587975Y350399D02*
G03*
X587975Y350399I-359J0D01*
G01*
X758210Y76290D02*
G03*
X758210Y76290I-3810J0D01*
G01*
X505249Y843680D02*
Y858680D01*
X482749Y843680D02*
X505249D01*
X425249D02*
Y858680D01*
Y843680D02*
X450249D01*
Y891180D02*
X482749D01*
X800690Y224870D02*
X1007700D01*
X800690D02*
Y528400D01*
X1007700D01*
Y224870D02*
Y528400D01*
X520961Y544389D02*
X526040D01*
X506991Y510099D02*
Y525339D01*
X520961Y491049D02*
X526040D01*
X540010Y510099D02*
Y525339D01*
X326250Y843680D02*
Y858680D01*
X303749Y843680D02*
X326250D01*
X246249D02*
Y858680D01*
Y843680D02*
X271249D01*
Y891180D02*
X303749D01*
X181749D02*
X214249D01*
X156749Y843680D02*
X181749D01*
X156749D02*
Y858680D01*
X214249Y843680D02*
X236749D01*
Y858680D01*
X361249Y891180D02*
X393750D01*
X336250Y843680D02*
X361249D01*
X336250D02*
Y858680D01*
X393750Y843680D02*
X416249D01*
Y858680D01*
X515750Y667900D02*
X566750D01*
Y887200D02*
X566750Y667900D01*
X515750Y887200D02*
X566750D01*
X515750D02*
X515750Y667900D01*
X634500D02*
X685500D01*
Y887200D02*
X685500Y667900D01*
X634500Y887200D02*
X685500D01*
X634500D02*
X634500Y667900D01*
X600894Y15977D02*
X607400Y10400D01*
X632400D01*
X639760Y15920D01*
X508300Y281400D02*
Y376400D01*
X373300Y281400D02*
Y348900D01*
Y369734D01*
X378000Y376000D01*
X381300Y176600D02*
Y271600D01*
X246300Y176600D02*
Y244100D01*
Y264933D01*
X251000Y271200D01*
X381300Y281400D02*
Y376400D01*
X246300Y281400D02*
Y348900D01*
Y369734D01*
X251000Y376000D01*
X508300Y176600D02*
Y271600D01*
X373300Y176600D02*
Y244100D01*
Y264933D01*
X378000Y271200D01*
X575500Y667700D02*
X626500D01*
Y887000D01*
X575500D02*
X626500D01*
X575500Y667700D02*
Y887000D01*
X-339800Y-31400D02*
X-331800Y-25100D01*
X-360800Y-31400D02*
X-339800D01*
X-367800Y-25100D02*
X-360800Y-31400D01*
X465682Y481864D02*
X474318D01*
X465682Y499136D02*
X474318D01*
X592696Y350400D02*
X607936D01*
X592696Y325000D02*
X607936D01*
X683280Y15330D02*
Y68670D01*
X773958Y15330D02*
Y68670D01*
X683280D02*
X773958D01*
X683280Y15330D02*
X773958D01*
X1026158Y513228D02*
Y528463D01*
X1033775D01*
X1036315Y525924D01*
Y520845D01*
X1033775Y518306D01*
X1026158D01*
X1031236D02*
X1036315Y513228D01*
X1051550Y528463D02*
X1041393D01*
Y520845D01*
X1046471Y523385D01*
X1049011D01*
X1051550Y520845D01*
Y515767D01*
X1049011Y513228D01*
X1043932D01*
X1041393Y515767D01*
X1064246Y513228D02*
Y528463D01*
X1056628Y520845D01*
X1066785D01*
X1049726Y574889D02*
X1047187Y577428D01*
X1042108D01*
X1039569Y574889D01*
Y564732D01*
X1042108Y562193D01*
X1047187D01*
X1049726Y564732D01*
X1054804Y574889D02*
X1057343Y577428D01*
X1062422D01*
X1064961Y574889D01*
Y572350D01*
X1062422Y569810D01*
X1059883D01*
X1062422D01*
X1064961Y567271D01*
Y564732D01*
X1062422Y562193D01*
X1057343D01*
X1054804Y564732D01*
X1070039Y574889D02*
X1072578Y577428D01*
X1077657D01*
X1080196Y574889D01*
Y564732D01*
X1077657Y562193D01*
X1072578D01*
X1070039Y564732D01*
Y574889D01*
X104998Y82000D02*
X100000Y86998D01*
X104998Y91997D01*
X109997Y86998D02*
X116661D01*
X119994D02*
X126658D01*
X129990Y82000D02*
X134989Y86998D01*
X129990Y91997D01*
X98000Y16997D02*
Y8666D01*
X99666Y7000D01*
X102998D01*
X104664Y8666D01*
Y16997D01*
X107997Y7000D02*
Y13664D01*
X111329Y16997D01*
X114661Y13664D01*
Y7000D01*
Y11998D01*
X107997D01*
X117994Y7000D02*
Y16997D01*
X122992D01*
X124658Y15331D01*
Y11998D01*
X122992Y10332D01*
X117994D01*
X121326D02*
X124658Y7000D01*
X127990Y16997D02*
X134655D01*
X131323D01*
Y7000D01*
X603000Y73000D02*
Y82997D01*
X607998D01*
X609664Y81331D01*
Y77998D01*
X607998Y76332D01*
X603000D01*
X612997Y73000D02*
Y82997D01*
X617995D01*
X619661Y81331D01*
Y77998D01*
X617995Y76332D01*
X612997D01*
X616329D02*
X619661Y73000D01*
X627992Y82997D02*
X624660D01*
X622994Y81331D01*
Y74666D01*
X624660Y73000D01*
X627992D01*
X629658Y74666D01*
Y81331D01*
X627992Y82997D01*
X639655Y81331D02*
X637989Y82997D01*
X634656D01*
X632990Y81331D01*
Y74666D01*
X634656Y73000D01*
X637989D01*
X639655Y74666D01*
Y77998D01*
X636323D01*
X454113Y21997D02*
Y13666D01*
X455779Y12000D01*
X459112D01*
X460778Y13666D01*
Y21997D01*
X464110Y12000D02*
Y18664D01*
X467442Y21997D01*
X470774Y18664D01*
Y12000D01*
Y16998D01*
X464110D01*
X474107Y12000D02*
Y21997D01*
X479105D01*
X480771Y20331D01*
Y16998D01*
X479105Y15332D01*
X474107D01*
X477439D02*
X480771Y12000D01*
X484104Y21997D02*
X490768D01*
X487436D01*
Y12000D01*
X503300Y55997D02*
X509965D01*
X506632D01*
Y46000D01*
X513297Y55997D02*
X519962Y46000D01*
Y55997D02*
X513297Y46000D01*
X421601D02*
Y55997D01*
X426600D01*
X428266Y54331D01*
Y50998D01*
X426600Y49332D01*
X421601D01*
X424933D02*
X428266Y46000D01*
X431598Y55997D02*
X438262Y46000D01*
Y55997D02*
X431598Y46000D01*
X380057Y59990D02*
X390053D01*
Y54991D01*
X388387Y53325D01*
X385055D01*
X383389Y54991D01*
Y59990D01*
Y56658D02*
X380057Y53325D01*
X390053Y49993D02*
X380057Y43329D01*
X390053D02*
X380057Y49993D01*
X388387Y33332D02*
X390053Y34998D01*
Y38330D01*
X388387Y39996D01*
X381723D01*
X380057Y38330D01*
Y34998D01*
X381723Y33332D01*
X380057Y30000D02*
X386721D01*
X390053Y26667D01*
X386721Y23335D01*
X380057D01*
X385055D01*
Y30000D01*
X380057Y20003D02*
X390053D01*
X380057Y13338D01*
X390053D01*
X372250Y59990D02*
Y53325D01*
Y56658D01*
X362253D01*
X372250Y49993D02*
X362253Y43329D01*
X372250D02*
X362253Y49993D01*
X370584Y33332D02*
X372250Y34998D01*
Y38330D01*
X370584Y39996D01*
X363919D01*
X362253Y38330D01*
Y34998D01*
X363919Y33332D01*
X362253Y30000D02*
X368918D01*
X372250Y26667D01*
X368918Y23335D01*
X362253D01*
X367252D01*
Y30000D01*
X362253Y20003D02*
X372250D01*
X362253Y13338D01*
X372250D01*
X344350Y58200D02*
X354347D01*
Y53201D01*
X352681Y51535D01*
X349348D01*
X347682Y53201D01*
Y58200D01*
Y54868D02*
X344350Y51535D01*
X354347Y48203D02*
X344350Y41539D01*
X354347D02*
X344350Y48203D01*
X336497Y59200D02*
Y52535D01*
Y55868D01*
X326500D01*
X336497Y49203D02*
X326500Y42538D01*
X336497D02*
X326500Y49203D01*
X307500Y60200D02*
X317497D01*
Y55201D01*
X315831Y53535D01*
X312499D01*
X310832Y55201D01*
Y60200D01*
Y56867D02*
X307500Y53535D01*
X315831Y43538D02*
X317497Y45205D01*
Y48537D01*
X315831Y50203D01*
X314165D01*
X312499Y48537D01*
Y45205D01*
X310832Y43538D01*
X309166D01*
X307500Y45205D01*
Y48537D01*
X309166Y50203D01*
X317497Y40206D02*
Y33542D01*
Y36874D01*
X307500D01*
Y30209D02*
X314165D01*
Y25211D01*
X312499Y23545D01*
X307500D01*
X155998Y52997D02*
X152666D01*
X151000Y51331D01*
Y44666D01*
X152666Y43000D01*
X155998D01*
X157664Y44666D01*
Y51331D01*
X155998Y52997D01*
X160997D02*
Y43000D01*
X165995D01*
X167661Y44666D01*
Y46332D01*
X165995Y47998D01*
X160997D01*
X165995D01*
X167661Y49665D01*
Y51331D01*
X165995Y52997D01*
X160997D01*
X177658Y51331D02*
X175992Y52997D01*
X172660D01*
X170994Y51331D01*
Y44666D01*
X172660Y43000D01*
X175992D01*
X177658Y44666D01*
X45000Y53997D02*
X51665D01*
X48332D01*
Y44000D01*
X54997D02*
Y53997D01*
X59995D01*
X61661Y52331D01*
Y48998D01*
X59995Y47332D01*
X54997D01*
X58329D02*
X61661Y44000D01*
X64994D02*
Y50665D01*
X68326Y53997D01*
X71658Y50665D01*
Y44000D01*
Y48998D01*
X64994D01*
X74990Y44000D02*
Y53997D01*
X81655Y44000D01*
Y53997D01*
X534000Y15000D02*
Y24997D01*
X538998D01*
X540664Y23331D01*
Y19998D01*
X538998Y18332D01*
X534000D01*
X537332D02*
X540664Y15000D01*
X550661Y23331D02*
X548995Y24997D01*
X545663D01*
X543997Y23331D01*
Y21665D01*
X545663Y19998D01*
X548995D01*
X550661Y18332D01*
Y16666D01*
X548995Y15000D01*
X545663D01*
X543997Y16666D01*
X553994Y24997D02*
X560658D01*
X557326D01*
Y15000D01*
X-508596Y59000D02*
X-498600D01*
Y54002D01*
X-500266Y52336D01*
X-503598D01*
X-505264Y54002D01*
Y59000D01*
Y55668D02*
X-508596Y52336D01*
X-498600Y49003D02*
X-508596Y42339D01*
X-498600D02*
X-508596Y49003D01*
X-474600Y60000D02*
Y53336D01*
Y56668D01*
X-484596D01*
X-474600Y50003D02*
X-484596Y43339D01*
X-474600D02*
X-484596Y50003D01*
X425486Y901988D02*
Y917223D01*
X433104D01*
X435643Y914684D01*
Y909605D01*
X433104Y907066D01*
X425486D01*
X450878Y917223D02*
X445800Y914684D01*
X440722Y909605D01*
Y904527D01*
X443261Y901988D01*
X448339D01*
X450878Y904527D01*
Y907066D01*
X448339Y909605D01*
X440722D01*
X869950Y820166D02*
Y835401D01*
X877568D01*
X880107Y832862D01*
Y827784D01*
X877568Y825244D01*
X869950D01*
X875028D02*
X880107Y820166D01*
X895342Y835401D02*
X885185D01*
Y827784D01*
X890263Y830323D01*
X892803D01*
X895342Y827784D01*
Y822705D01*
X892803Y820166D01*
X887724D01*
X885185Y822705D01*
X910577Y835401D02*
X905499Y832862D01*
X900420Y827784D01*
Y822705D01*
X902959Y820166D01*
X908038D01*
X910577Y822705D01*
Y825244D01*
X908038Y827784D01*
X900420D01*
X861060Y728218D02*
Y743453D01*
X868678D01*
X871217Y740914D01*
Y735835D01*
X868678Y733296D01*
X861060D01*
X866138D02*
X871217Y728218D01*
X886452Y743453D02*
X876295D01*
Y735835D01*
X881373Y738375D01*
X883913D01*
X886452Y735835D01*
Y730757D01*
X883913Y728218D01*
X878834D01*
X876295Y730757D01*
X891530D02*
X894069Y728218D01*
X899148D01*
X901687Y730757D01*
Y740914D01*
X899148Y743453D01*
X894069D01*
X891530Y740914D01*
Y738375D01*
X894069Y735835D01*
X901687D01*
X772922Y742696D02*
Y757931D01*
X780539D01*
X783079Y755392D01*
Y750313D01*
X780539Y747774D01*
X772922D01*
X778000D02*
X783079Y742696D01*
X798314Y757931D02*
X788157D01*
Y750313D01*
X793235Y752853D01*
X795775D01*
X798314Y750313D01*
Y745235D01*
X795775Y742696D01*
X790696D01*
X788157Y745235D01*
X803392D02*
X805931Y742696D01*
X811010D01*
X813549Y745235D01*
Y755392D01*
X811010Y757931D01*
X805931D01*
X803392Y755392D01*
Y752853D01*
X805931Y750313D01*
X813549D01*
X856488Y901192D02*
Y916427D01*
X864106D01*
X866645Y913888D01*
Y908810D01*
X864106Y906270D01*
X856488D01*
X861566D02*
X866645Y901192D01*
X881880Y916427D02*
X871723D01*
Y908810D01*
X876801Y911349D01*
X879341D01*
X881880Y908810D01*
Y903731D01*
X879341Y901192D01*
X874262D01*
X871723Y903731D01*
X897115Y916427D02*
X886958D01*
Y908810D01*
X892037Y911349D01*
X894576D01*
X897115Y908810D01*
Y903731D01*
X894576Y901192D01*
X889497D01*
X886958Y903731D01*
X910079Y811272D02*
X907540Y813811D01*
X902461D01*
X899922Y811272D01*
Y801115D01*
X902461Y798576D01*
X907540D01*
X910079Y801115D01*
X915157Y811272D02*
X917696Y813811D01*
X922775D01*
X925314Y811272D01*
Y808733D01*
X922775Y806193D01*
X920235D01*
X922775D01*
X925314Y803654D01*
Y801115D01*
X922775Y798576D01*
X917696D01*
X915157Y801115D01*
X930392Y811272D02*
X932931Y813811D01*
X938010D01*
X940549Y811272D01*
Y808733D01*
X938010Y806193D01*
X935471D01*
X938010D01*
X940549Y803654D01*
Y801115D01*
X938010Y798576D01*
X932931D01*
X930392Y801115D01*
X814575Y801874D02*
X812036Y804413D01*
X806957D01*
X804418Y801874D01*
Y791717D01*
X806957Y789178D01*
X812036D01*
X814575Y791717D01*
X819653Y801874D02*
X822192Y804413D01*
X827271D01*
X829810Y801874D01*
Y799335D01*
X827271Y796796D01*
X824731D01*
X827271D01*
X829810Y794256D01*
Y791717D01*
X827271Y789178D01*
X822192D01*
X819653Y791717D01*
X834888Y801874D02*
X837427Y804413D01*
X842506D01*
X845045Y801874D01*
Y799335D01*
X842506Y796796D01*
X839967D01*
X842506D01*
X845045Y794256D01*
Y791717D01*
X842506Y789178D01*
X837427D01*
X834888Y791717D01*
X834641Y880106D02*
X832102Y882645D01*
X827023D01*
X824484Y880106D01*
Y869949D01*
X827023Y867410D01*
X832102D01*
X834641Y869949D01*
X839719Y880106D02*
X842258Y882645D01*
X847337D01*
X849876Y880106D01*
Y877567D01*
X847337Y875027D01*
X844797D01*
X847337D01*
X849876Y872488D01*
Y869949D01*
X847337Y867410D01*
X842258D01*
X839719Y869949D01*
X865111Y867410D02*
X854954D01*
X865111Y877567D01*
Y880106D01*
X862572Y882645D01*
X857493D01*
X854954Y880106D01*
X832609Y908808D02*
X830070Y911347D01*
X824991D01*
X822452Y908808D01*
Y898651D01*
X824991Y896112D01*
X830070D01*
X832609Y898651D01*
X837687Y908808D02*
X840226Y911347D01*
X845305D01*
X847844Y908808D01*
Y906269D01*
X845305Y903729D01*
X842765D01*
X845305D01*
X847844Y901190D01*
Y898651D01*
X845305Y896112D01*
X840226D01*
X837687Y898651D01*
X852922Y896112D02*
X858000D01*
X855461D01*
Y911347D01*
X852922Y908808D01*
X846579D02*
X844040Y911347D01*
X838961D01*
X836422Y908808D01*
Y898651D01*
X838961Y896112D01*
X844040D01*
X846579Y898651D01*
X851657Y896112D02*
X856735D01*
X854196D01*
Y911347D01*
X851657Y908808D01*
X864353D02*
X866892Y911347D01*
X871971D01*
X874510Y908808D01*
Y906269D01*
X871971Y903729D01*
X874510Y901190D01*
Y898651D01*
X871971Y896112D01*
X866892D01*
X864353Y898651D01*
Y901190D01*
X866892Y903729D01*
X864353Y906269D01*
Y908808D01*
X866892Y903729D02*
X871971D01*
X752298Y823784D02*
Y839019D01*
X759916D01*
X762455Y836480D01*
Y831402D01*
X759916Y828862D01*
X752298D01*
X757376D02*
X762455Y823784D01*
X767533Y836480D02*
X770072Y839019D01*
X775151D01*
X777690Y836480D01*
Y833941D01*
X775151Y831402D01*
X777690Y828862D01*
Y826323D01*
X775151Y823784D01*
X770072D01*
X767533Y826323D01*
Y828862D01*
X770072Y831402D01*
X767533Y833941D01*
Y836480D01*
X770072Y831402D02*
X775151D01*
X736454Y823784D02*
Y839019D01*
X744072D01*
X746611Y836480D01*
Y831402D01*
X744072Y828862D01*
X736454D01*
X741532D02*
X746611Y823784D01*
X751689Y826323D02*
X754228Y823784D01*
X759307D01*
X761846Y826323D01*
Y836480D01*
X759307Y839019D01*
X754228D01*
X751689Y836480D01*
Y833941D01*
X754228Y831402D01*
X761846D01*
X772922Y526542D02*
Y541777D01*
X780539D01*
X783079Y539238D01*
Y534160D01*
X780539Y531620D01*
X772922D01*
X778000D02*
X783079Y526542D01*
X798314Y541777D02*
X788157D01*
Y534160D01*
X793235Y536699D01*
X795775D01*
X798314Y534160D01*
Y529081D01*
X795775Y526542D01*
X790696D01*
X788157Y529081D01*
X803392Y539238D02*
X805931Y541777D01*
X811010D01*
X813549Y539238D01*
Y536699D01*
X811010Y534160D01*
X808471D01*
X811010D01*
X813549Y531620D01*
Y529081D01*
X811010Y526542D01*
X805931D01*
X803392Y529081D01*
X772922Y539496D02*
Y554731D01*
X780539D01*
X783079Y552192D01*
Y547113D01*
X780539Y544574D01*
X772922D01*
X778000D02*
X783079Y539496D01*
X798314Y554731D02*
X788157D01*
Y547113D01*
X793235Y549653D01*
X795775D01*
X798314Y547113D01*
Y542035D01*
X795775Y539496D01*
X790696D01*
X788157Y542035D01*
X813549Y539496D02*
X803392D01*
X813549Y549653D01*
Y552192D01*
X811010Y554731D01*
X805931D01*
X803392Y552192D01*
X434594Y584200D02*
Y599435D01*
X442211D01*
X444751Y596896D01*
Y591818D01*
X442211Y589278D01*
X434594D01*
X439672D02*
X444751Y584200D01*
X449829Y596896D02*
X452368Y599435D01*
X457447D01*
X459986Y596896D01*
Y594357D01*
X457447Y591818D01*
X454907D01*
X457447D01*
X459986Y589278D01*
Y586739D01*
X457447Y584200D01*
X452368D01*
X449829Y586739D01*
X472682Y584200D02*
Y599435D01*
X465064Y591818D01*
X475221D01*
X448564Y541782D02*
Y557017D01*
X456181D01*
X458721Y554478D01*
Y549399D01*
X456181Y546860D01*
X448564D01*
X453642D02*
X458721Y541782D01*
X463799Y554478D02*
X466338Y557017D01*
X471417D01*
X473956Y554478D01*
Y551939D01*
X471417Y549399D01*
X468877D01*
X471417D01*
X473956Y546860D01*
Y544321D01*
X471417Y541782D01*
X466338D01*
X463799Y544321D01*
X479034Y554478D02*
X481573Y557017D01*
X486652D01*
X489191Y554478D01*
Y551939D01*
X486652Y549399D01*
X484113D01*
X486652D01*
X489191Y546860D01*
Y544321D01*
X486652Y541782D01*
X481573D01*
X479034Y544321D01*
X434594Y541782D02*
Y557017D01*
X442211D01*
X444751Y554478D01*
Y549399D01*
X442211Y546860D01*
X434594D01*
X439672D02*
X444751Y541782D01*
X449829Y554478D02*
X452368Y557017D01*
X457447D01*
X459986Y554478D01*
Y551939D01*
X457447Y549399D01*
X454907D01*
X457447D01*
X459986Y546860D01*
Y544321D01*
X457447Y541782D01*
X452368D01*
X449829Y544321D01*
X475221Y541782D02*
X465064D01*
X475221Y551939D01*
Y554478D01*
X472682Y557017D01*
X467603D01*
X465064Y554478D01*
X501139Y585466D02*
X498600Y588005D01*
X493521D01*
X490982Y585466D01*
Y575309D01*
X493521Y572770D01*
X498600D01*
X501139Y575309D01*
X516374Y572770D02*
X506217D01*
X516374Y582927D01*
Y585466D01*
X513835Y588005D01*
X508756D01*
X506217Y585466D01*
X521452Y575309D02*
X523991Y572770D01*
X529070D01*
X531609Y575309D01*
Y585466D01*
X529070Y588005D01*
X523991D01*
X521452Y585466D01*
Y582927D01*
X523991Y580387D01*
X531609D01*
X783079Y526792D02*
X780539Y529331D01*
X775461D01*
X772922Y526792D01*
Y516635D01*
X775461Y514096D01*
X780539D01*
X783079Y516635D01*
X788157Y526792D02*
X790696Y529331D01*
X795775D01*
X798314Y526792D01*
Y524253D01*
X795775Y521713D01*
X793235D01*
X795775D01*
X798314Y519174D01*
Y516635D01*
X795775Y514096D01*
X790696D01*
X788157Y516635D01*
X811010Y514096D02*
Y529331D01*
X803392Y521713D01*
X813549D01*
X473707Y554478D02*
X471167Y557017D01*
X466089D01*
X463550Y554478D01*
Y544321D01*
X466089Y541782D01*
X471167D01*
X473707Y544321D01*
X488942Y541782D02*
X478785D01*
X488942Y551939D01*
Y554478D01*
X486403Y557017D01*
X481324D01*
X478785Y554478D01*
X494020D02*
X496559Y557017D01*
X501638D01*
X504177Y554478D01*
Y551939D01*
X501638Y549399D01*
X504177Y546860D01*
Y544321D01*
X501638Y541782D01*
X496559D01*
X494020Y544321D01*
Y546860D01*
X496559Y549399D01*
X494020Y551939D01*
Y554478D01*
X496559Y549399D02*
X501638D01*
X544827Y643124D02*
X542287Y645663D01*
X537209D01*
X534670Y643124D01*
Y632967D01*
X537209Y630428D01*
X542287D01*
X544827Y632967D01*
X549905Y630428D02*
X554983D01*
X552444D01*
Y640585D01*
X549905D01*
X562601Y630428D02*
Y640585D01*
X570219D01*
X572758Y638046D01*
Y630428D01*
X577836Y645663D02*
Y630428D01*
X585454D01*
X587993Y632967D01*
Y635506D01*
Y638046D01*
X585454Y640585D01*
X577836D01*
X593071Y645663D02*
Y630428D01*
X600689D01*
X603228Y632967D01*
Y635506D01*
Y638046D01*
X600689Y640585D01*
X593071D01*
X608306Y630428D02*
X613385D01*
X610845D01*
Y645663D01*
X608306Y643124D01*
X469643Y644140D02*
X467104Y646679D01*
X462025D01*
X459486Y644140D01*
Y633983D01*
X462025Y631444D01*
X467104D01*
X469643Y633983D01*
X477260Y631444D02*
X482339D01*
X484878Y633983D01*
Y639062D01*
X482339Y641601D01*
X477260D01*
X474721Y639062D01*
Y633983D01*
X477260Y631444D01*
X489956Y641601D02*
Y633983D01*
X492495Y631444D01*
X500113D01*
Y641601D01*
X507730Y644140D02*
Y641601D01*
X505191D01*
X510270D01*
X507730D01*
Y633983D01*
X510270Y631444D01*
X517887Y646679D02*
Y631444D01*
X525505D01*
X528044Y633983D01*
Y636522D01*
Y639062D01*
X525505Y641601D01*
X517887D01*
X533122Y646679D02*
Y631444D01*
X540740D01*
X543279Y633983D01*
Y636522D01*
Y639062D01*
X540740Y641601D01*
X533122D01*
X548357Y631444D02*
X553436D01*
X550896D01*
Y646679D01*
X548357Y644140D01*
X482597D02*
X480057Y646679D01*
X474979D01*
X472440Y644140D01*
Y633983D01*
X474979Y631444D01*
X480057D01*
X482597Y633983D01*
X490214Y631444D02*
X495293D01*
X497832Y633983D01*
Y639062D01*
X495293Y641601D01*
X490214D01*
X487675Y639062D01*
Y633983D01*
X490214Y631444D01*
X502910Y641601D02*
Y633983D01*
X505449Y631444D01*
X513067D01*
Y641601D01*
X520684Y644140D02*
Y641601D01*
X518145D01*
X523224D01*
X520684D01*
Y633983D01*
X523224Y631444D01*
X530841Y641601D02*
X540998Y631444D01*
X535919Y636522D01*
X540998Y641601D01*
X530841Y631444D01*
X546076D02*
X551155D01*
X548615D01*
Y646679D01*
X546076Y644140D01*
X378714Y606293D02*
Y591058D01*
X388871D01*
X393949Y606293D02*
Y591058D01*
X401567D01*
X404106Y593597D01*
Y596136D01*
Y598675D01*
X401567Y601215D01*
X393949D01*
X409184Y606293D02*
Y591058D01*
X416802D01*
X419341Y593597D01*
Y596136D01*
Y598675D01*
X416802Y601215D01*
X409184D01*
X424419Y591058D02*
X429498D01*
X426958D01*
Y606293D01*
X424419Y603754D01*
X483108Y663448D02*
Y678683D01*
X490726D01*
X493265Y676144D01*
Y671066D01*
X490726Y668526D01*
X483108D01*
X488186D02*
X493265Y663448D01*
X500882D02*
Y676144D01*
Y671066D01*
X498343D01*
X503421D01*
X500882D01*
Y676144D01*
X503421Y678683D01*
X511039D02*
Y663448D01*
X518657D01*
X521196Y665987D01*
Y668526D01*
Y671066D01*
X518657Y673605D01*
X511039D01*
X526274Y678683D02*
Y663448D01*
X533892D01*
X536431Y665987D01*
Y668526D01*
Y671066D01*
X533892Y673605D01*
X526274D01*
X541509Y660909D02*
X551666D01*
X556744Y678683D02*
Y663448D01*
X564362D01*
X566901Y665987D01*
Y668526D01*
Y671066D01*
X564362Y673605D01*
X556744D01*
X571979Y678683D02*
Y663448D01*
X579597D01*
X582136Y665987D01*
Y668526D01*
Y671066D01*
X579597Y673605D01*
X571979D01*
X587214Y663448D02*
X592293D01*
X589753D01*
Y678683D01*
X587214Y676144D01*
X469900Y662940D02*
Y678175D01*
X477518D01*
X480057Y675636D01*
Y670557D01*
X477518Y668018D01*
X469900D01*
X474978D02*
X480057Y662940D01*
X487674D02*
Y675636D01*
Y670557D01*
X485135D01*
X490213D01*
X487674D01*
Y675636D01*
X490213Y678175D01*
X497831D02*
Y662940D01*
X505448D01*
X507988Y665479D01*
Y668018D01*
Y670557D01*
X505448Y673097D01*
X497831D01*
X515605Y675636D02*
Y673097D01*
X513066D01*
X518144D01*
X515605D01*
Y665479D01*
X518144Y662940D01*
X525762Y660401D02*
X535919D01*
X540997Y678175D02*
Y662940D01*
X548615D01*
X551154Y665479D01*
Y668018D01*
Y670557D01*
X548615Y673097D01*
X540997D01*
X556232Y678175D02*
Y662940D01*
X563850D01*
X566389Y665479D01*
Y668018D01*
Y670557D01*
X563850Y673097D01*
X556232D01*
X571467Y662940D02*
X576545D01*
X574006D01*
Y678175D01*
X571467Y675636D01*
X487172Y662681D02*
Y647446D01*
X494790D01*
X497329Y649985D01*
Y652524D01*
X494790Y655063D01*
X487172D01*
X494790D01*
X497329Y657603D01*
Y660142D01*
X494790Y662681D01*
X487172D01*
X502407D02*
Y647446D01*
X510025D01*
X512564Y649985D01*
Y652524D01*
X510025Y655063D01*
X502407D01*
X510025D01*
X512564Y657603D01*
Y660142D01*
X510025Y662681D01*
X502407D01*
X517642Y647446D02*
X522720D01*
X520181D01*
Y662681D01*
X517642Y660142D01*
X452120Y586227D02*
Y573531D01*
X454659Y570992D01*
X459738D01*
X462277Y573531D01*
Y586227D01*
X467355Y570992D02*
X472433D01*
X469894D01*
Y586227D01*
X467355Y583688D01*
X480051D02*
X482590Y586227D01*
X487668D01*
X490208Y583688D01*
Y581149D01*
X487668Y578610D01*
X490208Y576070D01*
Y573531D01*
X487668Y570992D01*
X482590D01*
X480051Y573531D01*
Y576070D01*
X482590Y578610D01*
X480051Y581149D01*
Y583688D01*
X482590Y578610D02*
X487668D01*
X265938Y654299D02*
Y641603D01*
X268477Y639064D01*
X273556D01*
X276095Y641603D01*
Y654299D01*
X281173Y651760D02*
X283712Y654299D01*
X288791D01*
X291330Y651760D01*
Y649221D01*
X288791Y646682D01*
X291330Y644142D01*
Y641603D01*
X288791Y639064D01*
X283712D01*
X281173Y641603D01*
Y644142D01*
X283712Y646682D01*
X281173Y649221D01*
Y651760D01*
X283712Y646682D02*
X288791D01*
X231902Y701289D02*
Y688593D01*
X234441Y686054D01*
X239520D01*
X242059Y688593D01*
Y701289D01*
X247137Y686054D02*
X252215D01*
X249676D01*
Y701289D01*
X247137Y698750D01*
X259833D02*
X262372Y701289D01*
X267451D01*
X269990Y698750D01*
Y688593D01*
X267451Y686054D01*
X262372D01*
X259833Y688593D01*
Y698750D01*
X343916Y728213D02*
Y715517D01*
X346455Y712978D01*
X351534D01*
X354073Y715517D01*
Y728213D01*
X359151Y712978D02*
X364229D01*
X361690D01*
Y728213D01*
X359151Y725674D01*
X371847Y712978D02*
X376925D01*
X374386D01*
Y728213D01*
X371847Y725674D01*
X606803Y588006D02*
X604263Y590545D01*
X599185D01*
X596646Y588006D01*
Y577849D01*
X599185Y575310D01*
X604263D01*
X606803Y577849D01*
X611881Y575310D02*
X616959D01*
X614420D01*
Y590545D01*
X611881Y588006D01*
X624577Y577849D02*
X627116Y575310D01*
X632195D01*
X634734Y577849D01*
Y588006D01*
X632195Y590545D01*
X627116D01*
X624577Y588006D01*
Y585467D01*
X627116Y582928D01*
X634734D01*
X589277Y459228D02*
X586738Y461767D01*
X581659D01*
X579120Y459228D01*
Y449071D01*
X581659Y446532D01*
X586738D01*
X589277Y449071D01*
X604512Y446532D02*
X594355D01*
X604512Y456689D01*
Y459228D01*
X601973Y461767D01*
X596894D01*
X594355Y459228D01*
X609590D02*
X612129Y461767D01*
X617208D01*
X619747Y459228D01*
Y449071D01*
X617208Y446532D01*
X612129D01*
X609590Y449071D01*
Y459228D01*
X615185D02*
X612645Y461767D01*
X607567D01*
X605028Y459228D01*
Y449071D01*
X607567Y446532D01*
X612645D01*
X615185Y449071D01*
X630420Y446532D02*
X620263D01*
X630420Y456689D01*
Y459228D01*
X627881Y461767D01*
X622802D01*
X620263Y459228D01*
X635498Y446532D02*
X640576D01*
X638037D01*
Y461767D01*
X635498Y459228D01*
X482757Y736364D02*
X480218Y738903D01*
X475139D01*
X472600Y736364D01*
Y726207D01*
X475139Y723668D01*
X480218D01*
X482757Y726207D01*
X487835Y723668D02*
X492914D01*
X490374D01*
Y738903D01*
X487835Y736364D01*
X508149Y723668D02*
Y738903D01*
X500531Y731286D01*
X510688D01*
X609687Y634740D02*
X607148Y637279D01*
X602069D01*
X599530Y634740D01*
Y624583D01*
X602069Y622044D01*
X607148D01*
X609687Y624583D01*
X614765Y622044D02*
X619844D01*
X617304D01*
Y637279D01*
X614765Y634740D01*
X637618Y637279D02*
X627461D01*
Y629661D01*
X632540Y632201D01*
X635079D01*
X637618Y629661D01*
Y624583D01*
X635079Y622044D01*
X630000D01*
X627461Y624583D01*
X393801Y826633D02*
Y836790D01*
X391262Y839329D01*
X386184D01*
X383644Y836790D01*
Y826633D01*
X386184Y824094D01*
X391262D01*
X388723Y829172D02*
X393801Y824094D01*
X391262D02*
X393801Y826633D01*
X398880Y824094D02*
X403958D01*
X401419D01*
Y839329D01*
X398880Y836790D01*
X452228Y826633D02*
Y836790D01*
X449689Y839329D01*
X444610D01*
X442071Y836790D01*
Y826633D01*
X444610Y824094D01*
X449689D01*
X447150Y829172D02*
X452228Y824094D01*
X449689D02*
X452228Y826633D01*
X467463Y824094D02*
X457306D01*
X467463Y834251D01*
Y836790D01*
X464924Y839329D01*
X459846D01*
X457306Y836790D01*
X565912Y446532D02*
Y461767D01*
X573530D01*
X576069Y459228D01*
Y454150D01*
X573530Y451610D01*
X565912D01*
X570990D02*
X576069Y446532D01*
X591304D02*
X581147D01*
X591304Y456689D01*
Y459228D01*
X588765Y461767D01*
X583686D01*
X581147Y459228D01*
X606539Y446532D02*
X596382D01*
X606539Y456689D01*
Y459228D01*
X604000Y461767D01*
X598921D01*
X596382Y459228D01*
X631444Y446532D02*
Y461767D01*
X639062D01*
X641601Y459228D01*
Y454150D01*
X639062Y451610D01*
X631444D01*
X636522D02*
X641601Y446532D01*
X656836D02*
X646679D01*
X656836Y456689D01*
Y459228D01*
X654297Y461767D01*
X649218D01*
X646679Y459228D01*
X661914D02*
X664453Y461767D01*
X669532D01*
X672071Y459228D01*
Y456689D01*
X669532Y454150D01*
X666992D01*
X669532D01*
X672071Y451610D01*
Y449071D01*
X669532Y446532D01*
X664453D01*
X661914Y449071D01*
X579120Y433578D02*
Y448813D01*
X586738D01*
X589277Y446274D01*
Y441195D01*
X586738Y438656D01*
X579120D01*
X584198D02*
X589277Y433578D01*
X601973D02*
Y448813D01*
X594355Y441195D01*
X604512D01*
X619747Y433578D02*
X609590D01*
X619747Y443735D01*
Y446274D01*
X617208Y448813D01*
X612129D01*
X609590Y446274D01*
X672592Y522478D02*
Y537713D01*
X680210D01*
X682749Y535174D01*
Y530095D01*
X680210Y527556D01*
X672592D01*
X677670D02*
X682749Y522478D01*
X695445D02*
Y537713D01*
X687827Y530095D01*
X697984D01*
X703062Y535174D02*
X705601Y537713D01*
X710680D01*
X713219Y535174D01*
Y532635D01*
X710680Y530095D01*
X708140D01*
X710680D01*
X713219Y527556D01*
Y525017D01*
X710680Y522478D01*
X705601D01*
X703062Y525017D01*
X271018Y659892D02*
Y675127D01*
X278636D01*
X281175Y672588D01*
Y667510D01*
X278636Y664970D01*
X271018D01*
X276096D02*
X281175Y659892D01*
X296410D02*
X286253D01*
X296410Y670049D01*
Y672588D01*
X293871Y675127D01*
X288792D01*
X286253Y672588D01*
X311645Y675127D02*
X306567Y672588D01*
X301488Y667510D01*
Y662431D01*
X304027Y659892D01*
X309106D01*
X311645Y662431D01*
Y664970D01*
X309106Y667510D01*
X301488D01*
X211836Y687832D02*
Y703067D01*
X219454D01*
X221993Y700528D01*
Y695450D01*
X219454Y692910D01*
X211836D01*
X216914D02*
X221993Y687832D01*
X237228D02*
X227071D01*
X237228Y697989D01*
Y700528D01*
X234689Y703067D01*
X229610D01*
X227071Y700528D01*
X242306D02*
X244845Y703067D01*
X249924D01*
X252463Y700528D01*
Y697989D01*
X249924Y695450D01*
X252463Y692910D01*
Y690371D01*
X249924Y687832D01*
X244845D01*
X242306Y690371D01*
Y692910D01*
X244845Y695450D01*
X242306Y697989D01*
Y700528D01*
X244845Y695450D02*
X249924D01*
X327406Y714756D02*
Y729991D01*
X335023D01*
X337563Y727452D01*
Y722374D01*
X335023Y719834D01*
X327406D01*
X332484D02*
X337563Y714756D01*
X352798D02*
X342641D01*
X352798Y724913D01*
Y727452D01*
X350259Y729991D01*
X345180D01*
X342641Y727452D01*
X357876Y717295D02*
X360415Y714756D01*
X365494D01*
X368033Y717295D01*
Y727452D01*
X365494Y729991D01*
X360415D01*
X357876Y727452D01*
Y724913D01*
X360415Y722374D01*
X368033D01*
X569262Y653479D02*
Y668714D01*
X576879D01*
X579418Y666175D01*
Y661097D01*
X576879Y658557D01*
X569262D01*
X574340D02*
X579418Y653479D01*
X584497D02*
X589575D01*
X587036D01*
Y668714D01*
X584497Y666175D01*
X597192Y668714D02*
X607349D01*
Y666175D01*
X597192Y656018D01*
Y653479D01*
X458167Y738328D02*
Y753563D01*
X465785D01*
X468324Y751024D01*
Y745946D01*
X465785Y743407D01*
X458167D01*
X463246D02*
X468324Y738328D01*
X473402D02*
X478481D01*
X475942D01*
Y753563D01*
X473402Y751024D01*
X486098Y740867D02*
X488637Y738328D01*
X493716D01*
X496255Y740867D01*
Y751024D01*
X493716Y753563D01*
X488637D01*
X486098Y751024D01*
Y748485D01*
X488637Y745946D01*
X496255D01*
X569343Y622052D02*
Y637287D01*
X576960D01*
X579499Y634748D01*
Y629669D01*
X576960Y627130D01*
X569343D01*
X574421D02*
X579499Y622052D01*
X594734D02*
X584578D01*
X594734Y632209D01*
Y634748D01*
X592195Y637287D01*
X587117D01*
X584578Y634748D01*
X599813D02*
X602352Y637287D01*
X607430D01*
X609969Y634748D01*
Y624591D01*
X607430Y622052D01*
X602352D01*
X599813Y624591D01*
Y634748D01*
X430550Y738742D02*
Y753977D01*
X438167D01*
X440706Y751438D01*
Y746360D01*
X438167Y743821D01*
X430550D01*
X435628D02*
X440706Y738742D01*
X445785D02*
X450863D01*
X448324D01*
Y753977D01*
X445785Y751438D01*
X458481D02*
X461020Y753977D01*
X466098D01*
X468637Y751438D01*
Y748899D01*
X466098Y746360D01*
X468637Y743821D01*
Y741282D01*
X466098Y738742D01*
X461020D01*
X458481Y741282D01*
Y743821D01*
X461020Y746360D01*
X458481Y748899D01*
Y751438D01*
X461020Y746360D02*
X466098D01*
X582896Y622044D02*
Y637279D01*
X590513D01*
X593052Y634740D01*
Y629661D01*
X590513Y627122D01*
X582896D01*
X587974D02*
X593052Y622044D01*
X608287D02*
X598131D01*
X608287Y632201D01*
Y634740D01*
X605748Y637279D01*
X600670D01*
X598131Y634740D01*
X613366Y622044D02*
X618444D01*
X615905D01*
Y637279D01*
X613366Y634740D01*
X557530Y573273D02*
Y560577D01*
X560069Y558038D01*
X565148D01*
X567687Y560577D01*
Y573273D01*
X572765Y558038D02*
X577843D01*
X575304D01*
Y573273D01*
X572765Y570734D01*
X593078Y558038D02*
Y573273D01*
X585461Y565656D01*
X595618D01*
X585724Y663164D02*
Y650468D01*
X588263Y647929D01*
X593341D01*
X595881Y650468D01*
Y663164D01*
X611116D02*
X606037Y660625D01*
X600959Y655547D01*
Y650468D01*
X603498Y647929D01*
X608577D01*
X611116Y650468D01*
Y653007D01*
X608577Y655547D01*
X600959D01*
X502832Y573828D02*
Y571289D01*
X507910Y566211D01*
X512989Y571289D01*
Y573828D01*
X507910Y566211D02*
Y558593D01*
X518067D02*
X523145D01*
X520606D01*
Y573828D01*
X518067Y571289D01*
X429074Y728469D02*
Y715773D01*
X431613Y713234D01*
X436692D01*
X439231Y715773D01*
Y728469D01*
X444309D02*
X454466D01*
Y725930D01*
X444309Y715773D01*
Y713234D01*
X330529Y675064D02*
X327990Y677603D01*
X322911D01*
X320372Y675064D01*
Y664907D01*
X322911Y662368D01*
X327990D01*
X330529Y664907D01*
Y669986D01*
X325450D01*
X335607Y677603D02*
Y662368D01*
X343225D01*
X345764Y664907D01*
Y675064D01*
X343225Y677603D01*
X335607D01*
X350842D02*
Y662368D01*
X358460D01*
X360999Y664907D01*
Y667446D01*
X358460Y669986D01*
X350842D01*
X358460D01*
X360999Y672525D01*
Y675064D01*
X358460Y677603D01*
X350842D01*
X366077Y662368D02*
X371156D01*
X368616D01*
Y677603D01*
X366077Y675064D01*
X177095Y554446D02*
X174555Y556985D01*
X169477D01*
X166938Y554446D01*
Y544289D01*
X169477Y541750D01*
X174555D01*
X177095Y544289D01*
Y549367D01*
X172016D01*
X182173Y556985D02*
Y541750D01*
X189790D01*
X192330Y544289D01*
Y554446D01*
X189790Y556985D01*
X182173D01*
X197408D02*
Y541750D01*
X205026D01*
X207565Y544289D01*
Y546828D01*
X205026Y549367D01*
X197408D01*
X205026D01*
X207565Y551907D01*
Y554446D01*
X205026Y556985D01*
X197408D01*
X222800Y541750D02*
X212643D01*
X222800Y551907D01*
Y554446D01*
X220261Y556985D01*
X215182D01*
X212643Y554446D01*
X246419Y901856D02*
Y917091D01*
X254037D01*
X256576Y914552D01*
Y909473D01*
X254037Y906934D01*
X246419D01*
X269272Y901856D02*
Y917091D01*
X261654Y909473D01*
X271811D01*
X156979Y901888D02*
Y917123D01*
X164597D01*
X167136Y914584D01*
Y909505D01*
X164597Y906966D01*
X156979D01*
X172214Y914584D02*
X174754Y917123D01*
X179832D01*
X182371Y914584D01*
Y912045D01*
X179832Y909505D01*
X177293D01*
X179832D01*
X182371Y906966D01*
Y904427D01*
X179832Y901888D01*
X174754D01*
X172214Y904427D01*
X336453Y901904D02*
Y917139D01*
X344071D01*
X346610Y914600D01*
Y909521D01*
X344071Y906982D01*
X336453D01*
X361845Y917139D02*
X351688D01*
Y909521D01*
X356767Y912061D01*
X359306D01*
X361845Y909521D01*
Y904443D01*
X359306Y901904D01*
X354228D01*
X351688Y904443D01*
X684784Y522478D02*
Y537713D01*
X692402D01*
X694941Y535174D01*
Y530095D01*
X692402Y527556D01*
X684784D01*
X689862D02*
X694941Y522478D01*
X707637D02*
Y537713D01*
X700019Y530095D01*
X710176D01*
X722872Y522478D02*
Y537713D01*
X715254Y530095D01*
X725411D01*
X165354Y843534D02*
Y858769D01*
X172971D01*
X175511Y856230D01*
Y851152D01*
X172971Y848612D01*
X165354D01*
X170432D02*
X175511Y843534D01*
X190746D02*
X180589D01*
X190746Y853691D01*
Y856230D01*
X188207Y858769D01*
X183128D01*
X180589Y856230D01*
X203442Y843534D02*
Y858769D01*
X195824Y851152D01*
X205981D01*
X270002Y843534D02*
Y858769D01*
X277619D01*
X280159Y856230D01*
Y851152D01*
X277619Y848612D01*
X270002D01*
X275080D02*
X280159Y843534D01*
X295394D02*
X285237D01*
X295394Y853691D01*
Y856230D01*
X292855Y858769D01*
X287776D01*
X285237Y856230D01*
X310629Y858769D02*
X300472D01*
Y851152D01*
X305550Y853691D01*
X308090D01*
X310629Y851152D01*
Y846073D01*
X308090Y843534D01*
X303011D01*
X300472Y846073D01*
X693352Y913941D02*
X703509Y898706D01*
Y913941D02*
X693352Y898706D01*
X708587D02*
X713665D01*
X711126D01*
Y913941D01*
X708587Y911402D01*
X635743Y911266D02*
Y896031D01*
X643361D01*
X645900Y898570D01*
Y908727D01*
X643361Y911266D01*
X635743D01*
X661135D02*
X650978D01*
Y896031D01*
X661135D01*
X650978Y903649D02*
X656056D01*
X666213Y896031D02*
Y911266D01*
X673831D01*
X676370Y908727D01*
Y903649D01*
X673831Y901109D01*
X666213D01*
X681448Y896031D02*
Y898570D01*
X683987D01*
Y896031D01*
X681448D01*
X719536Y908727D02*
X716997Y911266D01*
X711918D01*
X709379Y908727D01*
Y906188D01*
X711918Y903649D01*
X716997D01*
X719536Y901109D01*
Y898570D01*
X716997Y896031D01*
X711918D01*
X709379Y898570D01*
X724614Y911266D02*
Y896031D01*
X729693Y901109D01*
X734771Y896031D01*
Y911266D01*
X739849D02*
X744928D01*
X742389D01*
Y896031D01*
X739849D01*
X744928D01*
X752545Y911266D02*
X762702D01*
X757624D01*
Y896031D01*
X777937Y908727D02*
X775398Y911266D01*
X770320D01*
X767780Y908727D01*
Y898570D01*
X770320Y896031D01*
X775398D01*
X777937Y898570D01*
X783015Y911266D02*
Y896031D01*
Y903649D01*
X793172D01*
Y911266D01*
Y896031D01*
X808407D02*
X798250D01*
X808407Y906188D01*
Y908727D01*
X805868Y911266D01*
X800790D01*
X798250Y908727D01*
X516993Y911266D02*
Y896031D01*
X524611D01*
X527150Y898570D01*
Y908727D01*
X524611Y911266D01*
X516993D01*
X542385D02*
X532228D01*
Y896031D01*
X542385D01*
X532228Y903649D02*
X537307D01*
X547463Y896031D02*
Y911266D01*
X555081D01*
X557620Y908727D01*
Y903649D01*
X555081Y901109D01*
X547463D01*
X562698Y896031D02*
Y898570D01*
X565238D01*
Y896031D01*
X562698D01*
X600786Y908727D02*
X598247Y911266D01*
X593168D01*
X590629Y908727D01*
Y906188D01*
X593168Y903649D01*
X598247D01*
X600786Y901109D01*
Y898570D01*
X598247Y896031D01*
X593168D01*
X590629Y898570D01*
X605864Y911266D02*
Y896031D01*
X610943Y901109D01*
X616021Y896031D01*
Y911266D01*
X621100D02*
X626178D01*
X623639D01*
Y896031D01*
X621100D01*
X626178D01*
X633795Y911266D02*
X643952D01*
X638874D01*
Y896031D01*
X659187Y908727D02*
X656648Y911266D01*
X651570D01*
X649030Y908727D01*
Y898570D01*
X651570Y896031D01*
X656648D01*
X659187Y898570D01*
X664266Y911266D02*
Y896031D01*
Y903649D01*
X674422D01*
Y911266D01*
Y896031D01*
X679501D02*
X684579D01*
X682040D01*
Y911266D01*
X679501Y908727D01*
X450088Y496311D02*
Y483615D01*
X452627Y481076D01*
X457705D01*
X460245Y483615D01*
Y496311D01*
X465323Y481076D02*
X470401D01*
X467862D01*
Y496311D01*
X465323Y493772D01*
X488176Y496311D02*
X478019D01*
Y488694D01*
X483097Y491233D01*
X485636D01*
X488176Y488694D01*
Y483615D01*
X485636Y481076D01*
X480558D01*
X478019Y483615D01*
X263906Y558541D02*
Y545845D01*
X266445Y543306D01*
X271523D01*
X274063Y545845D01*
Y558541D01*
X279141Y543306D02*
X284219D01*
X281680D01*
Y558541D01*
X279141Y556002D01*
X301994Y558541D02*
X296915Y556002D01*
X291837Y550924D01*
Y545845D01*
X294376Y543306D01*
X299454D01*
X301994Y545845D01*
Y548384D01*
X299454Y550924D01*
X291837D01*
X643125Y325624D02*
X640585Y328163D01*
X635507D01*
X632968Y325624D01*
Y315467D01*
X635507Y312928D01*
X640585D01*
X643125Y315467D01*
X648203D02*
X650742Y312928D01*
X655821D01*
X658360Y315467D01*
Y325624D01*
X655821Y328163D01*
X650742D01*
X648203Y325624D01*
Y323085D01*
X650742Y320546D01*
X658360D01*
X643633Y354834D02*
X641094Y357373D01*
X636015D01*
X633476Y354834D01*
Y344677D01*
X636015Y342138D01*
X641094D01*
X643633Y344677D01*
X648711Y354834D02*
X651250Y357373D01*
X656329D01*
X658868Y354834D01*
Y352295D01*
X656329Y349756D01*
X658868Y347216D01*
Y344677D01*
X656329Y342138D01*
X651250D01*
X648711Y344677D01*
Y347216D01*
X651250Y349756D01*
X648711Y352295D01*
Y354834D01*
X651250Y349756D02*
X656329D01*
X657603Y385314D02*
X655063Y387853D01*
X649985D01*
X647446Y385314D01*
Y375157D01*
X649985Y372618D01*
X655063D01*
X657603Y375157D01*
X662681Y387853D02*
X672838D01*
Y385314D01*
X662681Y375157D01*
Y372618D01*
X628603Y324847D02*
X626063Y327387D01*
X620985D01*
X618446Y324847D01*
Y314691D01*
X620985Y312151D01*
X626063D01*
X628603Y314691D01*
X641299Y312151D02*
Y327387D01*
X633681Y319769D01*
X643838D01*
X576890Y911163D02*
Y895928D01*
X584507D01*
X587047Y898467D01*
Y901006D01*
X584507Y903546D01*
X576890D01*
X584507D01*
X587047Y906085D01*
Y908624D01*
X584507Y911163D01*
X576890D01*
X592125Y895928D02*
Y906085D01*
X597203Y911163D01*
X602282Y906085D01*
Y895928D01*
Y903546D01*
X592125D01*
X607360Y911163D02*
X617517D01*
X612439D01*
Y895928D01*
X622595Y911163D02*
X632752D01*
X627673D01*
Y895928D01*
X637830D02*
X642909D01*
X640369D01*
Y911163D01*
X637830Y908624D01*
X454312Y523343D02*
Y520804D01*
X459390Y515726D01*
X464469Y520804D01*
Y523343D01*
X459390Y515726D02*
Y508108D01*
X479704D02*
X469547D01*
X479704Y518265D01*
Y520804D01*
X477165Y523343D01*
X472086D01*
X469547Y520804D01*
X892810Y800095D02*
Y787399D01*
X895349Y784860D01*
X900427D01*
X902967Y787399D01*
Y800095D01*
X908045Y784860D02*
X913123D01*
X910584D01*
Y800095D01*
X908045Y797556D01*
X920741D02*
X923280Y800095D01*
X928359D01*
X930898Y797556D01*
Y795017D01*
X928359Y792477D01*
X925819D01*
X928359D01*
X930898Y789938D01*
Y787399D01*
X928359Y784860D01*
X923280D01*
X920741Y787399D01*
X772414Y804921D02*
Y792225D01*
X774953Y789686D01*
X780032D01*
X782571Y792225D01*
Y804921D01*
X787649Y789686D02*
X792727D01*
X790188D01*
Y804921D01*
X787649Y802382D01*
X800345D02*
X802884Y804921D01*
X807962D01*
X810502Y802382D01*
Y799843D01*
X807962Y797303D01*
X805423D01*
X807962D01*
X810502Y794764D01*
Y792225D01*
X807962Y789686D01*
X802884D01*
X800345Y792225D01*
X833374Y884677D02*
Y871981D01*
X835913Y869442D01*
X840992D01*
X843531Y871981D01*
Y884677D01*
X848609Y869442D02*
X853687D01*
X851148D01*
Y884677D01*
X848609Y882138D01*
X871462Y869442D02*
X861305D01*
X871462Y879599D01*
Y882138D01*
X868923Y884677D01*
X863844D01*
X861305Y882138D01*
X648418Y372090D02*
Y359395D01*
X650957Y356855D01*
X656036D01*
X658575Y359395D01*
Y372090D01*
X663653Y369551D02*
X666192Y372090D01*
X671271D01*
X673810Y369551D01*
Y367012D01*
X671271Y364473D01*
X668731D01*
X671271D01*
X673810Y361934D01*
Y359395D01*
X671271Y356855D01*
X666192D01*
X663653Y359395D01*
X588220Y374884D02*
Y362189D01*
X590759Y359649D01*
X595838D01*
X598377Y362189D01*
Y374884D01*
X613612Y359649D02*
X603455D01*
X613612Y369806D01*
Y372345D01*
X611073Y374884D01*
X605994D01*
X603455Y372345D01*
X550374Y332212D02*
Y319517D01*
X552913Y316977D01*
X557991D01*
X560531Y319517D01*
Y332212D01*
X565609Y316977D02*
X570687D01*
X568148D01*
Y332212D01*
X565609Y329673D01*
X843534Y740156D02*
Y755391D01*
X851152D01*
X853691Y752852D01*
Y747774D01*
X851152Y745234D01*
X843534D01*
X848612D02*
X853691Y740156D01*
X868926Y755391D02*
X858769D01*
Y747774D01*
X863847Y750313D01*
X866387D01*
X868926Y747774D01*
Y742695D01*
X866387Y740156D01*
X861308D01*
X858769Y742695D01*
X874004Y752852D02*
X876543Y755391D01*
X881622D01*
X884161Y752852D01*
Y750313D01*
X881622Y747774D01*
X884161Y745234D01*
Y742695D01*
X881622Y740156D01*
X876543D01*
X874004Y742695D01*
Y745234D01*
X876543Y747774D01*
X874004Y750313D01*
Y752852D01*
X876543Y747774D02*
X881622D01*
X796544Y744220D02*
Y759455D01*
X804162D01*
X806701Y756916D01*
Y751837D01*
X804162Y749298D01*
X796544D01*
X801622D02*
X806701Y744220D01*
X821936Y759455D02*
X811779D01*
Y751837D01*
X816857Y754377D01*
X819397D01*
X821936Y751837D01*
Y746759D01*
X819397Y744220D01*
X814318D01*
X811779Y746759D01*
X827014Y756916D02*
X829553Y759455D01*
X834632D01*
X837171Y756916D01*
Y754377D01*
X834632Y751837D01*
X837171Y749298D01*
Y746759D01*
X834632Y744220D01*
X829553D01*
X827014Y746759D01*
Y749298D01*
X829553Y751837D01*
X827014Y754377D01*
Y756916D01*
X829553Y751837D02*
X834632D01*
X865124Y833374D02*
Y848609D01*
X872741D01*
X875281Y846070D01*
Y840992D01*
X872741Y838452D01*
X865124D01*
X870202D02*
X875281Y833374D01*
X890516Y848609D02*
X880359D01*
Y840992D01*
X885437Y843531D01*
X887977D01*
X890516Y840992D01*
Y835913D01*
X887977Y833374D01*
X882898D01*
X880359Y835913D01*
X895594Y848609D02*
X905751D01*
Y846070D01*
X895594Y835913D01*
Y833374D01*
X427482Y446786D02*
Y462021D01*
X435099D01*
X437639Y459482D01*
Y454403D01*
X435099Y451864D01*
X427482D01*
X432560D02*
X437639Y446786D01*
X442717Y459482D02*
X445256Y462021D01*
X450335D01*
X452874Y459482D01*
Y456943D01*
X450335Y454403D01*
X447795D01*
X450335D01*
X452874Y451864D01*
Y449325D01*
X450335Y446786D01*
X445256D01*
X442717Y449325D01*
X457952Y446786D02*
X463031D01*
X460491D01*
Y462021D01*
X457952Y459482D01*
X493014Y429514D02*
Y444749D01*
X500631D01*
X503171Y442210D01*
Y437132D01*
X500631Y434592D01*
X493014D01*
X498092D02*
X503171Y429514D01*
X508249Y442210D02*
X510788Y444749D01*
X515867D01*
X518406Y442210D01*
Y439671D01*
X515867Y437132D01*
X513327D01*
X515867D01*
X518406Y434592D01*
Y432053D01*
X515867Y429514D01*
X510788D01*
X508249Y432053D01*
X523484Y442210D02*
X526023Y444749D01*
X531102D01*
X533641Y442210D01*
Y432053D01*
X531102Y429514D01*
X526023D01*
X523484Y432053D01*
Y442210D01*
X517652Y453898D02*
Y469133D01*
X525270D01*
X527809Y466594D01*
Y461516D01*
X525270Y458976D01*
X517652D01*
X522730D02*
X527809Y453898D01*
X532887Y469133D02*
X543044D01*
Y466594D01*
X532887Y456437D01*
Y453898D01*
X374904Y488442D02*
Y503677D01*
X382522D01*
X385061Y501138D01*
Y496059D01*
X382522Y493520D01*
X374904D01*
X379982D02*
X385061Y488442D01*
X400296Y503677D02*
X390139D01*
Y496059D01*
X395217Y498599D01*
X397757D01*
X400296Y496059D01*
Y490981D01*
X397757Y488442D01*
X392678D01*
X390139Y490981D01*
X405374Y488442D02*
X410452D01*
X407913D01*
Y503677D01*
X405374Y501138D01*
X374904Y474218D02*
Y489453D01*
X382522D01*
X385061Y486914D01*
Y481836D01*
X382522Y479296D01*
X374904D01*
X379982D02*
X385061Y474218D01*
X400296Y489453D02*
X390139D01*
Y481836D01*
X395217Y484375D01*
X397757D01*
X400296Y481836D01*
Y476757D01*
X397757Y474218D01*
X392678D01*
X390139Y476757D01*
X405374Y486914D02*
X407913Y489453D01*
X412992D01*
X415531Y486914D01*
Y476757D01*
X412992Y474218D01*
X407913D01*
X405374Y476757D01*
Y486914D01*
X374904Y515620D02*
Y530855D01*
X382522D01*
X385061Y528316D01*
Y523237D01*
X382522Y520698D01*
X374904D01*
X379982D02*
X385061Y515620D01*
X397757D02*
Y530855D01*
X390139Y523237D01*
X400296D01*
X405374Y518159D02*
X407913Y515620D01*
X412992D01*
X415531Y518159D01*
Y528316D01*
X412992Y530855D01*
X407913D01*
X405374Y528316D01*
Y525777D01*
X407913Y523237D01*
X415531D01*
X374904Y501650D02*
Y516885D01*
X382522D01*
X385061Y514346D01*
Y509268D01*
X382522Y506728D01*
X374904D01*
X379982D02*
X385061Y501650D01*
X397757D02*
Y516885D01*
X390139Y509268D01*
X400296D01*
X405374Y514346D02*
X407913Y516885D01*
X412992D01*
X415531Y514346D01*
Y511807D01*
X412992Y509268D01*
X415531Y506728D01*
Y504189D01*
X412992Y501650D01*
X407913D01*
X405374Y504189D01*
Y506728D01*
X407913Y509268D01*
X405374Y511807D01*
Y514346D01*
X407913Y509268D02*
X412992D01*
X374904Y542036D02*
Y557271D01*
X382522D01*
X385061Y554732D01*
Y549654D01*
X382522Y547114D01*
X374904D01*
X379982D02*
X385061Y542036D01*
X397757D02*
Y557271D01*
X390139Y549654D01*
X400296D01*
X405374Y557271D02*
X415531D01*
Y554732D01*
X405374Y544575D01*
Y542036D01*
X374904Y528574D02*
Y543809D01*
X382522D01*
X385061Y541270D01*
Y536191D01*
X382522Y533652D01*
X374904D01*
X379982D02*
X385061Y528574D01*
X397757D02*
Y543809D01*
X390139Y536191D01*
X400296D01*
X415531Y543809D02*
X410452Y541270D01*
X405374Y536191D01*
Y531113D01*
X407913Y528574D01*
X412992D01*
X415531Y531113D01*
Y533652D01*
X412992Y536191D01*
X405374D01*
X329692Y432562D02*
Y447797D01*
X337309D01*
X339849Y445258D01*
Y440179D01*
X337309Y437640D01*
X329692D01*
X334770D02*
X339849Y432562D01*
X352545D02*
Y447797D01*
X344927Y440179D01*
X355084D01*
X370319Y447797D02*
X360162D01*
Y440179D01*
X365241Y442719D01*
X367780D01*
X370319Y440179D01*
Y435101D01*
X367780Y432562D01*
X362701D01*
X360162Y435101D01*
X604476Y222235D02*
Y237470D01*
X612094D01*
X614633Y234931D01*
Y229853D01*
X612094Y227314D01*
X604476D01*
X609554D02*
X614633Y222235D01*
X629868Y237470D02*
X624789Y234931D01*
X619711Y229853D01*
Y224775D01*
X622250Y222235D01*
X627329D01*
X629868Y224775D01*
Y227314D01*
X627329Y229853D01*
X619711D01*
X605492Y253731D02*
Y268967D01*
X613110D01*
X615649Y266427D01*
Y261349D01*
X613110Y258810D01*
X605492D01*
X610570D02*
X615649Y253731D01*
X630884Y268967D02*
X620727D01*
Y261349D01*
X625805Y263888D01*
X628345D01*
X630884Y261349D01*
Y256271D01*
X628345Y253731D01*
X623266D01*
X620727Y256271D01*
X618446Y253731D02*
Y268967D01*
X626063D01*
X628603Y266427D01*
Y261349D01*
X626063Y258810D01*
X618446D01*
X623524D02*
X628603Y253731D01*
X641299D02*
Y268967D01*
X633681Y261349D01*
X643838D01*
X590506Y222235D02*
Y237470D01*
X598124D01*
X600663Y234931D01*
Y229853D01*
X598124Y227314D01*
X590506D01*
X595584D02*
X600663Y222235D01*
X605741Y234931D02*
X608280Y237470D01*
X613359D01*
X615898Y234931D01*
Y232392D01*
X613359Y229853D01*
X610819D01*
X613359D01*
X615898Y227314D01*
Y224775D01*
X613359Y222235D01*
X608280D01*
X605741Y224775D01*
X562863Y357567D02*
Y372802D01*
X570480D01*
X573019Y370263D01*
Y365185D01*
X570480Y362645D01*
X562863D01*
X567941D02*
X573019Y357567D01*
X588254D02*
X578098D01*
X588254Y367724D01*
Y370263D01*
X585715Y372802D01*
X580637D01*
X578098Y370263D01*
X564090Y229601D02*
Y244837D01*
X571707D01*
X574247Y242297D01*
Y237219D01*
X571707Y234680D01*
X564090D01*
X569168D02*
X574247Y229601D01*
X579325D02*
X584403D01*
X581864D01*
Y244837D01*
X579325Y242297D01*
X839213Y789177D02*
Y799334D01*
X836674Y801873D01*
X831595D01*
X829056Y799334D01*
Y789177D01*
X831595Y786638D01*
X836674D01*
X834134Y791716D02*
X839213Y786638D01*
X836674D02*
X839213Y789177D01*
X844291Y801873D02*
X854448D01*
Y799334D01*
X844291Y789177D01*
Y786638D01*
X722451Y790541D02*
Y800698D01*
X719912Y803237D01*
X714833D01*
X712294Y800698D01*
Y790541D01*
X714833Y788002D01*
X719912D01*
X717373Y793080D02*
X722451Y788002D01*
X719912D02*
X722451Y790541D01*
X727529Y803237D02*
X737686D01*
Y800698D01*
X727529Y790541D01*
Y788002D01*
X875030Y745485D02*
Y730250D01*
X882647D01*
X885187Y732789D01*
Y742946D01*
X882647Y745485D01*
X875030D01*
X890265D02*
X900422D01*
Y742946D01*
X890265Y732789D01*
Y730250D01*
X750570Y762503D02*
Y747268D01*
X758187D01*
X760727Y749807D01*
Y759964D01*
X758187Y762503D01*
X750570D01*
X765805D02*
X775962D01*
Y759964D01*
X765805Y749807D01*
Y747268D01*
X440179Y501392D02*
X437640Y503931D01*
X432561D01*
X430022Y501392D01*
Y491235D01*
X432561Y488696D01*
X437640D01*
X440179Y491235D01*
X455414Y488696D02*
X445257D01*
X455414Y498853D01*
Y501392D01*
X452875Y503931D01*
X447796D01*
X445257Y501392D01*
X470649Y503931D02*
X460492D01*
Y496314D01*
X465570Y498853D01*
X468110D01*
X470649Y496314D01*
Y491235D01*
X468110Y488696D01*
X463031D01*
X460492Y491235D01*
X443227Y485136D02*
X440687Y487675D01*
X435609D01*
X433070Y485136D01*
Y474979D01*
X435609Y472440D01*
X440687D01*
X443227Y474979D01*
X448305Y472440D02*
X453383D01*
X450844D01*
Y487675D01*
X448305Y485136D01*
X471158Y487675D02*
X466079Y485136D01*
X461001Y480057D01*
Y474979D01*
X463540Y472440D01*
X468619D01*
X471158Y474979D01*
Y477518D01*
X468619Y480057D01*
X461001D01*
X466087Y442210D02*
X463548Y444749D01*
X458469D01*
X455930Y442210D01*
Y432053D01*
X458469Y429514D01*
X463548D01*
X466087Y432053D01*
X471165Y429514D02*
X476243D01*
X473704D01*
Y444749D01*
X471165Y442210D01*
X483861D02*
X486400Y444749D01*
X491479D01*
X494018Y442210D01*
Y432053D01*
X491479Y429514D01*
X486400D01*
X483861Y432053D01*
Y442210D01*
X327657Y462530D02*
X325117Y465069D01*
X320039D01*
X317500Y462530D01*
Y452373D01*
X320039Y449834D01*
X325117D01*
X327657Y452373D01*
X342892Y449834D02*
X332735D01*
X342892Y459991D01*
Y462530D01*
X340353Y465069D01*
X335274D01*
X332735Y462530D01*
X355588Y449834D02*
Y465069D01*
X347970Y457452D01*
X358127D01*
X555451Y351263D02*
X552911Y353802D01*
X547833D01*
X545294Y351263D01*
Y341107D01*
X547833Y338567D01*
X552911D01*
X555451Y341107D01*
X570686Y353802D02*
X565607Y351263D01*
X560529Y346185D01*
Y341107D01*
X563068Y338567D01*
X568147D01*
X570686Y341107D01*
Y343646D01*
X568147Y346185D01*
X560529D01*
X629619Y398253D02*
X627080Y400793D01*
X622001D01*
X619462Y398253D01*
Y388097D01*
X622001Y385557D01*
X627080D01*
X629619Y388097D01*
X644854Y400793D02*
X634697D01*
Y393175D01*
X639775Y395714D01*
X642315D01*
X644854Y393175D01*
Y388097D01*
X642315Y385557D01*
X637236D01*
X634697Y388097D01*
X581105Y261347D02*
X578565Y263887D01*
X573487D01*
X570948Y261347D01*
Y251191D01*
X573487Y248651D01*
X578565D01*
X581105Y251191D01*
X586183Y261347D02*
X588722Y263887D01*
X593801D01*
X596340Y261347D01*
Y258808D01*
X593801Y256269D01*
X591261D01*
X593801D01*
X596340Y253730D01*
Y251191D01*
X593801Y248651D01*
X588722D01*
X586183Y251191D01*
X604981Y341357D02*
X602441Y343896D01*
X597363D01*
X594824Y341357D01*
Y331201D01*
X597363Y328661D01*
X602441D01*
X604981Y331201D01*
X620216Y328661D02*
X610059D01*
X620216Y338818D01*
Y341357D01*
X617677Y343896D01*
X612598D01*
X610059Y341357D01*
X628603Y294875D02*
X626063Y297414D01*
X620985D01*
X618446Y294875D01*
Y284719D01*
X620985Y282179D01*
X626063D01*
X628603Y284719D01*
X633681Y282179D02*
X638759D01*
X636220D01*
Y297414D01*
X633681Y294875D01*
X374650Y295905D02*
Y280670D01*
X382267D01*
X384807Y283209D01*
Y285748D01*
X382267Y288288D01*
X374650D01*
X382267D01*
X384807Y290827D01*
Y293366D01*
X382267Y295905D01*
X374650D01*
X397503Y280670D02*
Y295905D01*
X389885Y288288D01*
X400042D01*
X247650Y400807D02*
Y385572D01*
X255268D01*
X257807Y388111D01*
Y390650D01*
X255268Y393190D01*
X247650D01*
X255268D01*
X257807Y395729D01*
Y398268D01*
X255268Y400807D01*
X247650D01*
X262885Y398268D02*
X265424Y400807D01*
X270503D01*
X273042Y398268D01*
Y395729D01*
X270503Y393190D01*
X267963D01*
X270503D01*
X273042Y390650D01*
Y388111D01*
X270503Y385572D01*
X265424D01*
X262885Y388111D01*
X247650Y295905D02*
Y280670D01*
X255268D01*
X257807Y283209D01*
Y285748D01*
X255268Y288288D01*
X247650D01*
X255268D01*
X257807Y290827D01*
Y293366D01*
X255268Y295905D01*
X247650D01*
X273042Y280670D02*
X262885D01*
X273042Y290827D01*
Y293366D01*
X270503Y295905D01*
X265424D01*
X262885Y293366D01*
X374650Y400807D02*
Y385572D01*
X382267D01*
X384807Y388111D01*
Y390650D01*
X382267Y393190D01*
X374650D01*
X382267D01*
X384807Y395729D01*
Y398268D01*
X382267Y400807D01*
X374650D01*
X389885Y385572D02*
X394963D01*
X392424D01*
Y400807D01*
X389885Y398268D01*
X812546Y681228D02*
Y696463D01*
X820163D01*
X822703Y693924D01*
Y688846D01*
X820163Y686306D01*
X812546D01*
X817624D02*
X822703Y681228D01*
X827781Y696463D02*
Y681228D01*
X835399D01*
X837938Y683767D01*
Y686306D01*
X835399Y688846D01*
X827781D01*
X835399D01*
X837938Y691385D01*
Y693924D01*
X835399Y696463D01*
X827781D01*
X853173D02*
X843016D01*
Y688846D01*
X848094D01*
X843016D01*
Y681228D01*
X858251D02*
X863330D01*
X860790D01*
Y696463D01*
X858251Y693924D01*
X812035Y552445D02*
X806956D01*
X809495D01*
Y539749D01*
X806956Y537210D01*
X804417D01*
X801878Y539749D01*
X817113Y537210D02*
X822191D01*
X819652D01*
Y552445D01*
X817113Y549906D01*
X560354Y194133D02*
Y181437D01*
X562893Y178898D01*
X567971D01*
X570510Y181437D01*
Y194133D01*
X585746D02*
X575589D01*
Y186516D01*
X580667Y189055D01*
X583206D01*
X585746Y186516D01*
Y181437D01*
X583206Y178898D01*
X578128D01*
X575589Y181437D01*
X797560Y599186D02*
Y614421D01*
X805178D01*
X807717Y611882D01*
Y606804D01*
X805178Y604264D01*
X797560D01*
X802638D02*
X807717Y599186D01*
X812795D02*
X817873D01*
X815334D01*
Y614421D01*
X812795D01*
X825491Y599186D02*
X830569D01*
X828030D01*
Y609343D01*
X825491D01*
X838187Y599186D02*
Y609343D01*
X840726D01*
X843265Y606804D01*
Y599186D01*
Y606804D01*
X845804Y609343D01*
X848344Y606804D01*
Y599186D01*
X853422D02*
X858500D01*
X855961D01*
Y614421D01*
X853422Y611882D01*
X784860Y590296D02*
Y605531D01*
X792477D01*
X795017Y602992D01*
Y597914D01*
X792477Y595374D01*
X784860D01*
X789938D02*
X795017Y590296D01*
X810252Y600453D02*
X802634D01*
X800095Y597914D01*
Y592835D01*
X802634Y590296D01*
X810252D01*
X817869D02*
X822948D01*
X825487Y592835D01*
Y597914D01*
X822948Y600453D01*
X817869D01*
X815330Y597914D01*
Y592835D01*
X817869Y590296D01*
X830565D02*
Y600453D01*
X833104D01*
X835644Y597914D01*
Y590296D01*
Y597914D01*
X838183Y600453D01*
X840722Y597914D01*
Y590296D01*
X845800Y585218D02*
Y600453D01*
X853418D01*
X855957Y597914D01*
Y592835D01*
X853418Y590296D01*
X845800D01*
X861035D02*
X866114D01*
X863575D01*
Y605531D01*
X861035Y602992D01*
X810006Y668020D02*
Y683255D01*
X817624D01*
X820163Y680716D01*
Y675638D01*
X817624Y673098D01*
X810006D01*
X815084D02*
X820163Y668020D01*
X835398D02*
X825241D01*
X835398Y678177D01*
Y680716D01*
X832859Y683255D01*
X827780D01*
X825241Y680716D01*
X840476Y683255D02*
X850633D01*
Y680716D01*
X840476Y670559D01*
Y668020D01*
X417068Y102108D02*
Y117343D01*
X424686D01*
X427225Y114804D01*
Y109726D01*
X424686Y107186D01*
X417068D01*
X422146D02*
X427225Y102108D01*
X439921D02*
Y117343D01*
X432303Y109726D01*
X442460D01*
X447538Y102108D02*
X452617D01*
X450077D01*
Y117343D01*
X447538Y114804D01*
X398500Y155401D02*
X408497D01*
Y150403D01*
X406831Y148736D01*
X403499D01*
X401833Y150403D01*
Y155401D01*
Y152069D02*
X398500Y148736D01*
Y140406D02*
X408497D01*
X403499Y145404D01*
Y138740D01*
X406831Y135407D02*
X408497Y133741D01*
Y130409D01*
X406831Y128743D01*
X400166D01*
X398500Y130409D01*
Y133741D01*
X400166Y135407D01*
X406831D01*
X380200Y156000D02*
X390197D01*
Y151001D01*
X388531Y149335D01*
X385199D01*
X383532Y151001D01*
Y156000D01*
Y152668D02*
X380200Y149335D01*
X388531Y146003D02*
X390197Y144337D01*
Y141005D01*
X388531Y139339D01*
X386865D01*
X385199Y141005D01*
Y142671D01*
Y141005D01*
X383532Y139339D01*
X381866D01*
X380200Y141005D01*
Y144337D01*
X381866Y146003D01*
Y136006D02*
X380200Y134340D01*
Y131008D01*
X381866Y129342D01*
X388531D01*
X390197Y131008D01*
Y134340D01*
X388531Y136006D01*
X386865D01*
X385199Y134340D01*
Y129342D01*
X360900Y155401D02*
X370897D01*
Y150403D01*
X369231Y148737D01*
X365899D01*
X364232Y150403D01*
Y155401D01*
Y152069D02*
X360900Y148737D01*
X369231Y145404D02*
X370897Y143738D01*
Y140406D01*
X369231Y138740D01*
X367565D01*
X365899Y140406D01*
Y142072D01*
Y140406D01*
X364232Y138740D01*
X362566D01*
X360900Y140406D01*
Y143738D01*
X362566Y145404D01*
X369231Y135407D02*
X370897Y133741D01*
Y130409D01*
X369231Y128743D01*
X367565D01*
X365899Y130409D01*
X364232Y128743D01*
X362566D01*
X360900Y130409D01*
Y133741D01*
X362566Y135407D01*
X364232D01*
X365899Y133741D01*
X367565Y135407D01*
X369231D01*
X365899Y133741D02*
Y130409D01*
X343500Y155401D02*
X353497D01*
Y150403D01*
X351831Y148736D01*
X348499D01*
X346833Y150403D01*
Y155401D01*
Y152069D02*
X343500Y148736D01*
X351831Y145404D02*
X353497Y143738D01*
Y140406D01*
X351831Y138740D01*
X350165D01*
X348499Y140406D01*
Y142072D01*
Y140406D01*
X346833Y138740D01*
X345166D01*
X343500Y140406D01*
Y143738D01*
X345166Y145404D01*
X353497Y135407D02*
Y128743D01*
X351831D01*
X345166Y135407D01*
X343500D01*
X325500Y154401D02*
X335497D01*
Y149403D01*
X333831Y147737D01*
X330499D01*
X328833Y149403D01*
Y154401D01*
Y151069D02*
X325500Y147737D01*
X333831Y144404D02*
X335497Y142738D01*
Y139406D01*
X333831Y137740D01*
X332165D01*
X330499Y139406D01*
Y141072D01*
Y139406D01*
X328833Y137740D01*
X327166D01*
X325500Y139406D01*
Y142738D01*
X327166Y144404D01*
X335497Y127743D02*
X333831Y131075D01*
X330499Y134408D01*
X327166D01*
X325500Y132741D01*
Y129409D01*
X327166Y127743D01*
X328833D01*
X330499Y129409D01*
Y134408D01*
X306900Y155001D02*
X316897D01*
Y150003D01*
X315231Y148336D01*
X311899D01*
X310233Y150003D01*
Y155001D01*
Y151669D02*
X306900Y148336D01*
X315231Y145004D02*
X316897Y143338D01*
Y140006D01*
X315231Y138340D01*
X313565D01*
X311899Y140006D01*
Y141672D01*
Y140006D01*
X310233Y138340D01*
X308566D01*
X306900Y140006D01*
Y143338D01*
X308566Y145004D01*
X316897Y128343D02*
Y135007D01*
X311899D01*
X313565Y131675D01*
Y130009D01*
X311899Y128343D01*
X308566D01*
X306900Y130009D01*
Y133341D01*
X308566Y135007D01*
X642904Y195154D02*
Y210389D01*
X650521D01*
X653060Y207850D01*
Y202772D01*
X650521Y200232D01*
X642904D01*
X647982D02*
X653060Y195154D01*
X658139D02*
X663217D01*
X660678D01*
Y210389D01*
X658139Y207850D01*
X680991Y210389D02*
X675913Y207850D01*
X670835Y202772D01*
Y197693D01*
X673374Y195154D01*
X678452D01*
X680991Y197693D01*
Y200232D01*
X678452Y202772D01*
X670835D01*
X642904Y180422D02*
Y195657D01*
X650521D01*
X653060Y193118D01*
Y188040D01*
X650521Y185500D01*
X642904D01*
X647982D02*
X653060Y180422D01*
X658139D02*
X663217D01*
X660678D01*
Y195657D01*
X658139Y193118D01*
X680991Y195657D02*
X670835D01*
Y188040D01*
X675913Y190579D01*
X678452D01*
X680991Y188040D01*
Y182961D01*
X678452Y180422D01*
X673374D01*
X670835Y182961D01*
X642904Y166452D02*
Y181687D01*
X650521D01*
X653060Y179148D01*
Y174070D01*
X650521Y171530D01*
X642904D01*
X647982D02*
X653060Y166452D01*
X658139D02*
X663217D01*
X660678D01*
Y181687D01*
X658139Y179148D01*
X678452Y166452D02*
Y181687D01*
X670835Y174070D01*
X680991D01*
X642904Y138512D02*
Y153747D01*
X650521D01*
X653060Y151208D01*
Y146130D01*
X650521Y143590D01*
X642904D01*
X647982D02*
X653060Y138512D01*
X658139D02*
X663217D01*
X660678D01*
Y153747D01*
X658139Y151208D01*
X670835D02*
X673374Y153747D01*
X678452D01*
X680991Y151208D01*
Y148669D01*
X678452Y146130D01*
X675913D01*
X678452D01*
X680991Y143590D01*
Y141051D01*
X678452Y138512D01*
X673374D01*
X670835Y141051D01*
X530382Y182708D02*
Y197943D01*
X537999D01*
X540538Y195404D01*
Y190326D01*
X537999Y187786D01*
X530382D01*
X535460D02*
X540538Y182708D01*
X545617D02*
X550695D01*
X548156D01*
Y197943D01*
X545617Y195404D01*
X568469Y182708D02*
X558313D01*
X568469Y192865D01*
Y195404D01*
X565930Y197943D01*
X560852D01*
X558313Y195404D01*
X530382Y137496D02*
Y152731D01*
X537999D01*
X540538Y150192D01*
Y145114D01*
X537999Y142574D01*
X530382D01*
X535460D02*
X540538Y137496D01*
X545617D02*
X550695D01*
X548156D01*
Y152731D01*
X545617Y150192D01*
X558313Y137496D02*
X563391D01*
X560852D01*
Y152731D01*
X558313Y150192D01*
X642838Y152494D02*
Y167729D01*
X650455D01*
X652994Y165190D01*
Y160112D01*
X650455Y157572D01*
X642838D01*
X647916D02*
X652994Y152494D01*
X658073D02*
X663151D01*
X660612D01*
Y167729D01*
X658073Y165190D01*
X670769D02*
X673308Y167729D01*
X678386D01*
X680925Y165190D01*
Y155033D01*
X678386Y152494D01*
X673308D01*
X670769Y155033D01*
Y165190D01*
X778002Y704591D02*
Y689356D01*
X788159D01*
X793237Y704591D02*
Y689356D01*
X800855D01*
X803394Y691895D01*
Y694434D01*
Y696973D01*
X800855Y699513D01*
X793237D01*
X811011Y702052D02*
Y699513D01*
X808472D01*
X813550D01*
X811011D01*
Y691895D01*
X813550Y689356D01*
X821168D02*
X826246D01*
X823707D01*
Y704591D01*
X821168Y702052D01*
X88392Y815335D02*
Y800100D01*
Y807718D01*
X98549D01*
Y815335D01*
Y800100D01*
X113784D02*
X103627D01*
X113784Y810257D01*
Y812796D01*
X111245Y815335D01*
X106166D01*
X103627Y812796D01*
X38862Y815335D02*
Y800100D01*
Y807718D01*
X49019D01*
Y815335D01*
Y800100D01*
X54097D02*
X59175D01*
X56636D01*
Y815335D01*
X54097Y812796D01*
X408497Y59401D02*
X398500D01*
Y54402D01*
X400166Y52736D01*
X406831D01*
X408497Y54402D01*
Y59401D01*
Y42739D02*
X406831Y46072D01*
X403499Y49404D01*
X400166D01*
X398500Y47738D01*
Y44405D01*
X400166Y42739D01*
X401833D01*
X403499Y44405D01*
Y49404D01*
X821179Y645410D02*
X818640Y647949D01*
X813561D01*
X811022Y645410D01*
Y635253D01*
X813561Y632714D01*
X818640D01*
X821179Y635253D01*
X826257Y642871D02*
X831335Y632714D01*
X836414Y642871D01*
X851649D02*
X844031D01*
X841492Y640331D01*
Y635253D01*
X844031Y632714D01*
X851649D01*
X866884Y642871D02*
X859266D01*
X856727Y640331D01*
Y635253D01*
X859266Y632714D01*
X866884D01*
X871962D02*
X877041D01*
X874501D01*
Y647949D01*
X871962Y645410D01*
X736597Y688082D02*
X734057Y690621D01*
X728979D01*
X726440Y688082D01*
Y677925D01*
X728979Y675386D01*
X734057D01*
X736597Y677925D01*
X741675Y675386D02*
X746753D01*
X744214D01*
Y685543D01*
X741675D01*
X754371Y675386D02*
Y685543D01*
X761989D01*
X764528Y683003D01*
Y675386D01*
X769606Y690621D02*
Y675386D01*
X777224D01*
X779763Y677925D01*
Y680464D01*
Y683003D01*
X777224Y685543D01*
X769606D01*
X787380Y688082D02*
Y685543D01*
X784841D01*
X789920D01*
X787380D01*
Y677925D01*
X789920Y675386D01*
X797537D02*
X802615D01*
X800076D01*
Y690621D01*
X797537Y688082D01*
X736597Y673096D02*
X734057Y675635D01*
X728979D01*
X726440Y673096D01*
Y662939D01*
X728979Y660400D01*
X734057D01*
X736597Y662939D01*
X741675Y660400D02*
X746753D01*
X744214D01*
Y670557D01*
X741675D01*
X754371Y660400D02*
Y670557D01*
X761989D01*
X764528Y668018D01*
Y660400D01*
X769606Y675635D02*
Y660400D01*
X777224D01*
X779763Y662939D01*
Y665478D01*
Y668018D01*
X777224Y670557D01*
X769606D01*
X787380Y673096D02*
Y670557D01*
X784841D01*
X789920D01*
X787380D01*
Y662939D01*
X789920Y660400D01*
X807694D02*
X797537D01*
X807694Y670557D01*
Y673096D01*
X805154Y675635D01*
X800076D01*
X797537Y673096D01*
X807717Y603500D02*
X805178Y606039D01*
X800099D01*
X797560Y603500D01*
Y593343D01*
X800099Y590804D01*
X805178D01*
X807717Y593343D01*
X822952Y600961D02*
X815334D01*
X812795Y598422D01*
Y593343D01*
X815334Y590804D01*
X822952D01*
X830569D02*
X835648D01*
X838187Y593343D01*
Y598422D01*
X835648Y600961D01*
X830569D01*
X828030Y598422D01*
Y593343D01*
X830569Y590804D01*
X843265D02*
Y600961D01*
X845804D01*
X848344Y598422D01*
Y590804D01*
Y598422D01*
X850883Y600961D01*
X853422Y598422D01*
Y590804D01*
X858500Y585726D02*
Y600961D01*
X866118D01*
X868657Y598422D01*
Y593343D01*
X866118Y590804D01*
X858500D01*
X873735D02*
X878814D01*
X876274D01*
Y606039D01*
X873735Y603500D01*
X339087Y163318D02*
X336548Y165857D01*
X331469D01*
X328930Y163318D01*
Y153161D01*
X331469Y150622D01*
X336548D01*
X339087Y153161D01*
X344165Y150622D02*
X349243D01*
X346704D01*
Y165857D01*
X344165Y163318D01*
X356861Y165857D02*
X367018D01*
Y163318D01*
X356861Y153161D01*
Y150622D01*
X524507Y181860D02*
X521968Y184399D01*
X516889D01*
X514350Y181860D01*
Y171703D01*
X516889Y169164D01*
X521968D01*
X524507Y171703D01*
X529585Y169164D02*
X534663D01*
X532124D01*
Y184399D01*
X529585Y181860D01*
X542281D02*
X544820Y184399D01*
X549898D01*
X552438Y181860D01*
Y179321D01*
X549898Y176782D01*
X547359D01*
X549898D01*
X552438Y174242D01*
Y171703D01*
X549898Y169164D01*
X544820D01*
X542281Y171703D01*
X537969Y181860D02*
X535429Y184399D01*
X530351D01*
X527812Y181860D01*
Y171703D01*
X530351Y169164D01*
X535429D01*
X537969Y171703D01*
X543047Y169164D02*
X548125D01*
X545586D01*
Y184399D01*
X543047Y181860D01*
X565900Y169164D02*
X555743D01*
X565900Y179321D01*
Y181860D01*
X563360Y184399D01*
X558282D01*
X555743Y181860D01*
X551939D02*
X549399Y184399D01*
X544321D01*
X541782Y181860D01*
Y171703D01*
X544321Y169164D01*
X549399D01*
X551939Y171703D01*
X557017Y169164D02*
X562095D01*
X559556D01*
Y184399D01*
X557017Y181860D01*
X569713Y169164D02*
X574791D01*
X572252D01*
Y184399D01*
X569713Y181860D01*
X745490Y649473D02*
Y634238D01*
X753108D01*
X755647Y636777D01*
Y639316D01*
X753108Y641855D01*
X745490D01*
X753108D01*
X755647Y644395D01*
Y646934D01*
X753108Y649473D01*
X745490D01*
X760725D02*
X770882D01*
X765803D01*
Y634238D01*
X775960D02*
X781039D01*
X778499D01*
Y649473D01*
X775960Y646934D01*
X807717Y589276D02*
X805178Y591815D01*
X800099D01*
X797560Y589276D01*
Y579119D01*
X800099Y576580D01*
X805178D01*
X807717Y579119D01*
X822952Y586737D02*
X815334D01*
X812795Y584198D01*
Y579119D01*
X815334Y576580D01*
X822952D01*
X830569D02*
X835648D01*
X838187Y579119D01*
Y584198D01*
X835648Y586737D01*
X830569D01*
X828030Y584198D01*
Y579119D01*
X830569Y576580D01*
X843265D02*
Y586737D01*
X845804D01*
X848344Y584198D01*
Y576580D01*
Y584198D01*
X850883Y586737D01*
X853422Y584198D01*
Y576580D01*
X858500Y571502D02*
Y586737D01*
X866118D01*
X868657Y584198D01*
Y579119D01*
X866118Y576580D01*
X858500D01*
X883892D02*
X873735D01*
X883892Y586737D01*
Y589276D01*
X881353Y591815D01*
X876274D01*
X873735Y589276D01*
X797560Y560578D02*
Y575813D01*
X805178D01*
X807717Y573274D01*
Y568195D01*
X805178Y565656D01*
X797560D01*
X802638D02*
X807717Y560578D01*
X815334D02*
Y573274D01*
Y568195D01*
X812795D01*
X817873D01*
X815334D01*
Y573274D01*
X817873Y575813D01*
X825491D02*
Y560578D01*
X833109D01*
X835648Y563117D01*
Y565656D01*
Y568195D01*
X833109Y570735D01*
X825491D01*
X840726Y575813D02*
Y560578D01*
X848344D01*
X850883Y563117D01*
Y565656D01*
Y568195D01*
X848344Y570735D01*
X840726D01*
X855961Y558039D02*
X866118D01*
X871196Y575813D02*
Y560578D01*
X878814D01*
X881353Y563117D01*
Y565656D01*
Y568195D01*
X878814Y570735D01*
X871196D01*
X888970Y573274D02*
Y570735D01*
X886431D01*
X891510D01*
X888970D01*
Y563117D01*
X891510Y560578D01*
X899127D02*
X904205D01*
X901666D01*
Y575813D01*
X899127Y573274D01*
X760219Y592832D02*
X757680Y595371D01*
X752601D01*
X750062Y592832D01*
Y582675D01*
X752601Y580136D01*
X757680D01*
X760219Y582675D01*
X767836Y580136D02*
X772915D01*
X775454Y582675D01*
Y587753D01*
X772915Y590293D01*
X767836D01*
X765297Y587753D01*
Y582675D01*
X767836Y580136D01*
X780532Y590293D02*
Y582675D01*
X783071Y580136D01*
X790689D01*
Y590293D01*
X798306Y592832D02*
Y590293D01*
X795767D01*
X800846D01*
X798306D01*
Y582675D01*
X800846Y580136D01*
X808463D02*
X813541D01*
X811002D01*
Y595371D01*
X808463Y592832D01*
X736089Y645664D02*
X733549Y648203D01*
X728471D01*
X725932Y645664D01*
Y635507D01*
X728471Y632968D01*
X733549D01*
X736089Y635507D01*
X741167Y632968D02*
X748785D01*
X751324Y635507D01*
X748785Y638046D01*
X743706D01*
X741167Y640585D01*
X743706Y643125D01*
X751324D01*
X756402Y632968D02*
X764020D01*
X766559Y635507D01*
X764020Y638046D01*
X758941D01*
X756402Y640585D01*
X758941Y643125D01*
X766559D01*
X771637Y632968D02*
X776716D01*
X774176D01*
Y648203D01*
X771637Y645664D01*
X771398Y560578D02*
Y575813D01*
X779016D01*
X781555Y573274D01*
Y568195D01*
X779016Y565656D01*
X771398D01*
X776476D02*
X781555Y560578D01*
X789172D02*
Y573274D01*
Y568195D01*
X786633D01*
X791711D01*
X789172D01*
Y573274D01*
X791711Y575813D01*
X799329D02*
Y560578D01*
X806946D01*
X809486Y563117D01*
Y565656D01*
Y568195D01*
X806946Y570735D01*
X799329D01*
X817103Y573274D02*
Y570735D01*
X814564D01*
X819642D01*
X817103D01*
Y563117D01*
X819642Y560578D01*
X827260Y558039D02*
X837417D01*
X842495Y575813D02*
Y560578D01*
X850113D01*
X852652Y563117D01*
Y565656D01*
Y568195D01*
X850113Y570735D01*
X842495D01*
X860269Y573274D02*
Y570735D01*
X857730D01*
X862808D01*
X860269D01*
Y563117D01*
X862808Y560578D01*
X870426D02*
X875504D01*
X872965D01*
Y575813D01*
X870426Y573274D01*
X767585Y662682D02*
X765045Y665221D01*
X759967D01*
X757428Y662682D01*
Y652525D01*
X759967Y649986D01*
X765045D01*
X767585Y652525D01*
X772663Y665221D02*
Y649986D01*
X780281D01*
X782820Y652525D01*
Y655064D01*
Y657604D01*
X780281Y660143D01*
X772663D01*
X787898Y649986D02*
X795516D01*
X798055Y652525D01*
X795516Y655064D01*
X790437D01*
X787898Y657604D01*
X790437Y660143D01*
X798055D01*
X805672Y662682D02*
Y660143D01*
X803133D01*
X808212D01*
X805672D01*
Y652525D01*
X808212Y649986D01*
X815829D02*
X820908D01*
X818368D01*
Y665221D01*
X815829Y662682D01*
X785114Y649986D02*
Y665221D01*
X792731D01*
X795271Y662682D01*
Y657604D01*
X792731Y655064D01*
X785114D01*
X790192D02*
X795271Y649986D01*
X802888Y662682D02*
Y660143D01*
X800349D01*
X805427D01*
X802888D01*
Y652525D01*
X805427Y649986D01*
X813045D02*
X818123D01*
X815584D01*
Y665221D01*
X813045Y662682D01*
X809752Y723387D02*
Y710691D01*
X812291Y708152D01*
X817370D01*
X819909Y710691D01*
Y723387D01*
X824987Y710691D02*
X827526Y708152D01*
X832605D01*
X835144Y710691D01*
Y720848D01*
X832605Y723387D01*
X827526D01*
X824987Y720848D01*
Y718309D01*
X827526Y715770D01*
X835144D01*
X0Y901700D02*
X958850D01*
X958850Y0D01*
X0D02*
X958850D01*
X0D02*
Y901700D01*
D14*
X504001Y548219D02*
G03*
X504001Y548219I-1000J0D01*
G01*
X780020Y822900D02*
G03*
X780020Y822900I-1500J0D01*
G01*
X804250Y610350D02*
G03*
X804250Y610350I-2000J0D01*
G01*
X601150Y307249D02*
G03*
X601150Y307249I-2000J0D01*
G01*
D15*
X941500Y610900D02*
G03*
X941500Y610900I-1500J0D01*
G01*
D16*
X450012Y467960D02*
G03*
X450012Y467960I-762J0D01*
G01*
X576349Y170351D02*
X581350D01*
X614350D01*
X576349Y122350D02*
X581350D01*
X614350D01*
D17*
X699800Y887100D02*
X797300D01*
X749650Y620000D02*
X751650D01*
X749650Y613500D02*
Y620000D01*
Y585000D02*
X751150D01*
X749650D02*
Y591500D01*
X792650Y585000D02*
X794650D01*
Y591500D01*
X792650Y620000D02*
X794650D01*
Y613500D02*
Y620000D01*
X840000Y550900D02*
X955000D01*
X840000D02*
Y670900D01*
X955000D01*
Y550900D02*
Y580900D01*
Y640900D01*
Y670900D01*
Y580900D02*
X990000D01*
Y640900D01*
X955000D02*
X990000D01*
X600550Y299499D02*
X604050D01*
X554050D02*
X557550D01*
X600550Y249500D02*
X604050D01*
X554050D02*
X557550D01*
X604050Y295999D02*
Y299499D01*
X554050Y295999D02*
Y299499D01*
X604050Y249500D02*
Y253000D01*
X554050Y249500D02*
Y253000D01*
D18*
X397750Y67166D02*
X409250D01*
X379150Y67167D02*
X390650D01*
X360550D02*
X372050D01*
X341950D02*
X353450D01*
X306150Y67750D02*
X317650D01*
X324350Y67167D02*
X335850D01*
X901542Y709250D02*
Y720750D01*
X750052Y737750D02*
X761552D01*
D19*
X452500Y430900D02*
X454500D01*
X452500D02*
Y439900D01*
X504500Y470900D02*
X506500D01*
Y461900D02*
Y470900D01*
X504500Y430900D02*
X506500D01*
Y439900D01*
X452500Y470900D02*
X454500D01*
X452500Y461900D02*
Y470900D01*
D20*
X430698Y643162D02*
X422234Y634698D01*
Y643162D02*
X430698Y634698D01*
X426466Y643162D02*
Y634698D01*
X422234Y638930D02*
X430698D01*
X230162Y421302D02*
X221698Y429766D01*
X230162D02*
X221698Y421302D01*
X230162Y425534D02*
X221698D01*
X225930Y429766D02*
Y421302D01*
M02*
