G04*
G04 #@! TF.GenerationSoftware,Altium Limited,Altium Designer,18.0.12 (696)*
G04*
G04 Layer_Color=16711935*
%FSLAX44Y44*%
%MOMM*%
G71*
G01*
G75*
%ADD10C,0.2540*%
%ADD19R,0.6000X0.4500*%
%ADD21R,0.4000X0.6000*%
%ADD37R,0.8270X1.0270*%
%ADD41R,0.9270X1.0270*%
%ADD42R,1.0270X0.8270*%
%ADD47C,1.3970*%
%ADD48R,1.3970X1.3970*%
%ADD49R,1.6510X1.6510*%
%ADD50C,1.6510*%
%ADD51C,0.1270*%
%ADD52R,1.6270X1.6270*%
%ADD53C,1.6270*%
%ADD54C,5.6270*%
%ADD55C,0.7270*%
%ADD64R,0.4500X0.6000*%
%ADD66R,0.6000X0.4000*%
%ADD68R,0.4270X0.8270*%
%ADD69R,0.4770X1.5270*%
D10*
X600000D01*
X0D02*
Y350000D01*
X600000D01*
Y0D02*
Y350000D01*
D19*
X399796Y127588D02*
D03*
Y137588D02*
D03*
X408940Y127588D02*
D03*
Y137588D02*
D03*
X524510Y144700D02*
D03*
Y134700D02*
D03*
D21*
X536774Y130810D02*
D03*
X545774D02*
D03*
D37*
X388486Y165354D02*
D03*
X403486D02*
D03*
X484871Y269240D02*
D03*
X469871D02*
D03*
X453647Y269494D02*
D03*
X438647D02*
D03*
X453724Y257189D02*
D03*
X438724D02*
D03*
X485064Y257048D02*
D03*
X470064D02*
D03*
X402978Y261620D02*
D03*
X387978D02*
D03*
X402822Y248800D02*
D03*
X387822D02*
D03*
X335146Y274574D02*
D03*
X350146D02*
D03*
X334892Y261620D02*
D03*
X349892D02*
D03*
X109354Y46212D02*
D03*
X94354D02*
D03*
X109354Y58674D02*
D03*
X94354D02*
D03*
D41*
X143368Y49530D02*
D03*
X157368D02*
D03*
D42*
X190500Y93518D02*
D03*
Y108518D02*
D03*
D47*
X424434Y327914D02*
D03*
Y302514D02*
D03*
X449834Y327914D02*
D03*
Y302514D02*
D03*
X475234D02*
D03*
X151130Y325882D02*
D03*
Y300482D02*
D03*
X176530Y325882D02*
D03*
Y300482D02*
D03*
D48*
X475234Y327914D02*
D03*
D49*
X313944Y301498D02*
D03*
D50*
X339344D02*
D03*
X364744D02*
D03*
X313944Y334518D02*
D03*
X339344D02*
D03*
X364744D02*
D03*
D51*
X282000Y178900D02*
D03*
X218000D02*
D03*
D52*
X128000Y28851D02*
D03*
D53*
X153400D02*
D03*
X178800D02*
D03*
X204200D02*
D03*
X229600D02*
D03*
X255000D02*
D03*
X280400D02*
D03*
X305800D02*
D03*
X331200D02*
D03*
X356600D02*
D03*
X382000D02*
D03*
X407400D02*
D03*
X432800D02*
D03*
X458200D02*
D03*
X483600D02*
D03*
D54*
X552000Y50000D02*
D03*
Y300000D02*
D03*
X52000D02*
D03*
Y50000D02*
D03*
D55*
X323850Y261620D02*
D03*
X360426Y262382D02*
D03*
X358140Y274574D02*
D03*
X244978Y316616D02*
D03*
X278384Y332232D02*
D03*
X261112Y299720D02*
D03*
X323342Y283210D02*
D03*
X382778Y156054D02*
D03*
X471678Y140208D02*
D03*
X436880Y84582D02*
D03*
X437196Y56580D02*
D03*
X392430Y114420D02*
D03*
X401574D02*
D03*
X394020Y175326D02*
D03*
X352362Y138684D02*
D03*
Y148780D02*
D03*
X158504Y230890D02*
D03*
X158246Y243590D02*
D03*
X276860Y243078D02*
D03*
X247820Y214472D02*
D03*
X269240Y192024D02*
D03*
X279146Y197358D02*
D03*
X210094Y160818D02*
D03*
X377564Y248800D02*
D03*
X226822Y286766D02*
D03*
X241808Y283718D02*
D03*
X327992Y162130D02*
D03*
X190246Y124460D02*
D03*
X150114Y263652D02*
D03*
X341884Y238506D02*
D03*
X327660Y252222D02*
D03*
X320802Y234442D02*
D03*
X408432Y238563D02*
D03*
X425314Y226568D02*
D03*
X393293Y199644D02*
D03*
X537210Y224536D02*
D03*
X509644Y223909D02*
D03*
X322580Y54102D02*
D03*
X281178Y72644D02*
D03*
X262128Y91694D02*
D03*
X287274Y87884D02*
D03*
X322072D02*
D03*
X212503Y143510D02*
D03*
X235204Y67818D02*
D03*
X477520Y115014D02*
D03*
X489557Y110137D02*
D03*
X321310Y201168D02*
D03*
X328930Y200914D02*
D03*
X301244Y248412D02*
D03*
X313690Y201168D02*
D03*
X294894Y241554D02*
D03*
X234950Y144780D02*
D03*
X242500Y144342D02*
D03*
X250444Y144526D02*
D03*
X278892Y147574D02*
D03*
X171958Y208781D02*
D03*
X172720Y187198D02*
D03*
X191770Y204470D02*
D03*
X199898Y211836D02*
D03*
X209042Y211582D02*
D03*
X410020Y198587D02*
D03*
X436118Y217932D02*
D03*
X418020Y201740D02*
D03*
X330454Y100584D02*
D03*
X268224Y59944D02*
D03*
X217424Y33782D02*
D03*
X229870Y46482D02*
D03*
X253746Y46990D02*
D03*
X301498Y202692D02*
D03*
X339344Y164338D02*
D03*
X379476Y237998D02*
D03*
X262128Y103378D02*
D03*
X247142Y110236D02*
D03*
X167894Y88646D02*
D03*
X161798Y95250D02*
D03*
X147828Y62484D02*
D03*
X134112Y49276D02*
D03*
X259588Y224028D02*
D03*
X295354Y209502D02*
D03*
X258826Y234950D02*
D03*
X518716Y200406D02*
D03*
X501598Y185928D02*
D03*
X487426Y182118D02*
D03*
X509270Y183642D02*
D03*
X355346Y108966D02*
D03*
X350520Y103124D02*
D03*
X352806Y90170D02*
D03*
X357378Y72644D02*
D03*
X191262Y144526D02*
D03*
X446532Y238506D02*
D03*
X452882Y242824D02*
D03*
X373126Y108966D02*
D03*
X276606Y108204D02*
D03*
X260600Y256290D02*
D03*
X131064Y76454D02*
D03*
X137668Y177292D02*
D03*
X167640Y49530D02*
D03*
X185420Y41148D02*
D03*
X120396Y97536D02*
D03*
X190500Y116881D02*
D03*
X191008Y84582D02*
D03*
X378206Y183896D02*
D03*
X530606Y130480D02*
D03*
X518922Y185420D02*
D03*
X488696Y218186D02*
D03*
X486410Y205994D02*
D03*
X449160Y189738D02*
D03*
X473710Y193802D02*
D03*
X475996Y156464D02*
D03*
X420796Y233254D02*
D03*
X566166Y224536D02*
D03*
X552196Y236474D02*
D03*
X520566Y247008D02*
D03*
X392430Y152400D02*
D03*
X524510Y128630D02*
D03*
Y151678D02*
D03*
X399796Y145796D02*
D03*
X591820Y130480D02*
D03*
Y146990D02*
D03*
Y163500D02*
D03*
Y196124D02*
D03*
Y180010D02*
D03*
Y203648D02*
D03*
Y213030D02*
D03*
X538150Y172390D02*
D03*
X379730Y69850D02*
D03*
X377190Y261620D02*
D03*
X453647Y280159D02*
D03*
X423672Y251206D02*
D03*
X507746Y269748D02*
D03*
X469871Y279371D02*
D03*
X352552Y62230D02*
D03*
X408940Y146050D02*
D03*
X74676Y142494D02*
D03*
X498703Y174498D02*
D03*
X445704Y124780D02*
D03*
X420624Y259334D02*
D03*
X420370Y268224D02*
D03*
X507238Y258826D02*
D03*
X482346Y239014D02*
D03*
X417627Y114415D02*
D03*
X426720Y114300D02*
D03*
X434340Y112776D02*
D03*
X70104Y218948D02*
D03*
X68072Y152400D02*
D03*
X68580Y93980D02*
D03*
X75184Y213360D02*
D03*
X73914Y86360D02*
D03*
X61468Y243078D02*
D03*
X60960Y125984D02*
D03*
X61468Y186436D02*
D03*
X22352Y248666D02*
D03*
X24892Y80867D02*
D03*
X34290Y80660D02*
D03*
X13462Y194629D02*
D03*
X14808Y134170D02*
D03*
X16764Y81026D02*
D03*
X12642Y215196D02*
D03*
X12056Y229196D02*
D03*
X12476Y151964D02*
D03*
X12294Y165964D02*
D03*
X11908Y92426D02*
D03*
X11938Y106426D02*
D03*
X510464Y78410D02*
D03*
X488950D02*
D03*
X457020Y108278D02*
D03*
D64*
X275764Y235458D02*
D03*
X265764D02*
D03*
D66*
X545350Y213940D02*
D03*
Y222940D02*
D03*
D68*
X272500Y201900D02*
D03*
Y155900D02*
D03*
X267500Y201900D02*
D03*
Y155900D02*
D03*
X262500Y201900D02*
D03*
Y155900D02*
D03*
X257500Y201900D02*
D03*
Y155900D02*
D03*
X252500Y201900D02*
D03*
Y155900D02*
D03*
X247500Y201900D02*
D03*
Y155900D02*
D03*
X242500Y201900D02*
D03*
Y155900D02*
D03*
X237500Y201900D02*
D03*
Y155900D02*
D03*
X232500Y201900D02*
D03*
Y155900D02*
D03*
X227500Y201900D02*
D03*
Y155900D02*
D03*
D69*
X538850Y199060D02*
D03*
X545350D02*
D03*
X551850D02*
D03*
X558350D02*
D03*
X564850D02*
D03*
X571350D02*
D03*
X577850D02*
D03*
X584350D02*
D03*
X538850Y145060D02*
D03*
X545350D02*
D03*
X551850D02*
D03*
X558350D02*
D03*
X564850D02*
D03*
X571350D02*
D03*
X577850D02*
D03*
X584350D02*
D03*
M02*
