G04*
G04 #@! TF.GenerationSoftware,Altium Limited,Altium Designer,18.0.12 (696)*
G04*
G04 Layer_Color=16711935*
%FSLAX44Y44*%
%MOMM*%
G71*
G01*
G75*
%ADD10C,0.2540*%
%ADD15C,0.2000*%
%ADD71C,0.1000*%
D10*
X600000D01*
X0D02*
Y350000D01*
X600000D01*
Y0D02*
Y350000D01*
D15*
X485307Y116710D02*
Y132210D01*
X493807D01*
Y116710D02*
Y132210D01*
X485307Y116710D02*
X493807D01*
X130656Y246982D02*
X143156D01*
X130656Y226982D02*
Y246982D01*
Y226982D02*
X143156D01*
Y246982D01*
X326490Y133510D02*
X338990D01*
Y153510D01*
X326490D02*
X338990D01*
X326490Y133510D02*
Y153510D01*
X205000Y153900D02*
X225000D01*
X205000D02*
Y203900D01*
X295000D01*
Y153900D02*
Y203900D01*
X225000Y153900D02*
X295000D01*
D71*
X455602Y266004D02*
G03*
X455602Y266004I-5000J0D01*
G01*
X482132Y138764D02*
X487132D01*
Y148764D01*
X482132D02*
X487132D01*
X482132Y138764D02*
Y148764D01*
X475020Y122000D02*
X480020D01*
Y132000D01*
X475020D02*
X480020D01*
X475020Y122000D02*
Y132000D01*
X397296Y137588D02*
X402296D01*
Y127588D02*
Y137588D01*
X397296Y127588D02*
X402296D01*
X397296D02*
Y137588D01*
X406440D02*
X411440D01*
Y127588D02*
Y137588D01*
X406440Y127588D02*
X411440D01*
X406440D02*
Y137588D01*
X146852Y241982D02*
X151852D01*
X146852Y231982D02*
Y241982D01*
Y231982D02*
X151852D01*
Y241982D01*
X160496Y215690D02*
Y220690D01*
X150496D02*
X160496D01*
X150496Y215690D02*
Y220690D01*
Y215690D02*
X160496D01*
X162132Y262930D02*
Y267930D01*
Y262930D02*
X172132D01*
Y267930D01*
X162132D02*
X172132D01*
X342178Y139643D02*
X347178D01*
Y149643D01*
X342178D02*
X347178D01*
X342178Y139643D02*
Y149643D01*
X265764Y237958D02*
X275764D01*
X265764Y232958D02*
Y237958D01*
Y232958D02*
X275764D01*
Y237958D01*
X141618Y44780D02*
Y54280D01*
X159118Y44780D02*
Y54280D01*
X141618Y44780D02*
X159118D01*
X141618Y54280D02*
X159118D01*
X185750Y92518D02*
X195250D01*
X185750Y109518D02*
X195250D01*
Y92518D02*
Y109518D01*
X185750Y92518D02*
Y109518D01*
X522010Y134700D02*
X527010D01*
X522010D02*
Y144700D01*
X527010D01*
Y134700D02*
Y144700D01*
X536274Y128310D02*
Y133310D01*
X546274D01*
Y128310D02*
Y133310D01*
X536274Y128310D02*
X546274D01*
X542850Y213440D02*
X547850D01*
X542850D02*
Y223440D01*
X547850D01*
Y213440D02*
Y223440D01*
X387486Y160604D02*
Y170104D01*
X404486Y160604D02*
Y170104D01*
X387486Y160604D02*
X404486D01*
X387486Y170104D02*
X404486D01*
X245190Y264200D02*
Y269200D01*
Y264200D02*
X255190D01*
Y269200D01*
X245190D02*
X255190D01*
Y253790D02*
Y258790D01*
X245190D02*
X255190D01*
X245190Y253790D02*
Y258790D01*
Y253790D02*
X255190D01*
X253666Y241086D02*
Y246086D01*
X243666D02*
X253666D01*
X243666Y241086D02*
Y246086D01*
Y241086D02*
X253666D01*
Y227878D02*
Y232878D01*
X243666D02*
X253666D01*
X243666Y227878D02*
Y232878D01*
Y227878D02*
X253666D01*
X243666Y219496D02*
Y224496D01*
Y219496D02*
X253666D01*
Y224496D01*
X243666D02*
X253666D01*
X569980Y166000D02*
X579980D01*
Y161000D02*
Y166000D01*
X569980Y161000D02*
X579980D01*
X569980D02*
Y166000D01*
Y149490D02*
X579980D01*
Y144490D02*
Y149490D01*
X569980Y144490D02*
X579980D01*
X569980D02*
Y149490D01*
Y132980D02*
X579980D01*
Y127980D02*
Y132980D01*
X569980Y127980D02*
X579980D01*
X569980D02*
Y132980D01*
Y215530D02*
X579980D01*
Y210530D02*
Y215530D01*
X569980Y210530D02*
X579980D01*
X569980D02*
Y215530D01*
Y198870D02*
X579980D01*
Y193870D02*
Y198870D01*
X569980Y193870D02*
X579980D01*
X569980D02*
Y198870D01*
Y182510D02*
X579980D01*
Y177510D02*
Y182510D01*
X569980Y177510D02*
X579980D01*
X569980D02*
Y182510D01*
X537150Y168250D02*
X554150D01*
X537150Y158750D02*
X554150D01*
X537150D02*
Y168250D01*
X554150Y158750D02*
Y168250D01*
X537150Y151740D02*
X554150D01*
X537150Y142240D02*
X554150D01*
X537150D02*
Y151740D01*
X554150Y142240D02*
Y151740D01*
X537150Y135230D02*
X554150D01*
X537150Y125730D02*
X554150D01*
X537150D02*
Y135230D01*
X554150Y125730D02*
Y135230D01*
X537150Y217780D02*
X554150D01*
X537150Y208280D02*
X554150D01*
X537150D02*
Y217780D01*
X554150Y208280D02*
Y217780D01*
X537150Y201120D02*
X554150D01*
X537150Y191620D02*
X554150D01*
X537150D02*
Y201120D01*
X554150Y191620D02*
Y201120D01*
X537150Y184760D02*
X554150D01*
X537150Y175260D02*
X554150D01*
X537150D02*
Y184760D01*
X554150Y175260D02*
Y184760D01*
X468871Y273990D02*
X485872D01*
X468871Y264490D02*
X485872D01*
Y273990D01*
X468871Y264490D02*
Y273990D01*
X437646Y274244D02*
X454646D01*
X437646Y264744D02*
X454646D01*
Y274244D01*
X437646Y264744D02*
Y274244D01*
X437724Y261939D02*
X454724D01*
X437724Y252439D02*
X454724D01*
Y261939D01*
X437724Y252439D02*
Y261939D01*
X486063Y252298D02*
Y261798D01*
X469063Y252298D02*
Y261798D01*
X486063D01*
X469063Y252298D02*
X486063D01*
X386978Y266370D02*
X403978D01*
X386978Y256870D02*
X403978D01*
Y266370D01*
X386978Y256870D02*
Y266370D01*
X386822Y253550D02*
X403822D01*
X386822Y244050D02*
X403822D01*
Y253550D01*
X386822Y244050D02*
Y253550D01*
X334146Y269824D02*
X351146D01*
X334146Y279324D02*
X351146D01*
X334146Y269824D02*
Y279324D01*
X351146Y269824D02*
Y279324D01*
X333892Y256870D02*
X350892D01*
X333892Y266370D02*
X350892D01*
X333892Y256870D02*
Y266370D01*
X350892Y256870D02*
Y266370D01*
X17856Y213446D02*
Y230946D01*
X27356Y213446D02*
Y230946D01*
X17856Y213446D02*
X27356D01*
X17856Y230946D02*
X27356D01*
X296050Y92634D02*
X313550D01*
X296050Y83134D02*
X313550D01*
X296050D02*
Y92634D01*
X313550Y83134D02*
Y92634D01*
X324942Y55508D02*
Y72508D01*
X334442Y55508D02*
Y72508D01*
X324942Y55508D02*
X334442D01*
X324942Y72508D02*
X334442D01*
X311546Y55798D02*
Y77298D01*
X297546Y55798D02*
Y77298D01*
Y55798D02*
X311546D01*
X297546Y77298D02*
X311546D01*
X125146Y72367D02*
Y89367D01*
X115646Y72367D02*
Y89367D01*
X125146D01*
X115646Y72367D02*
X125146D01*
X514394Y231258D02*
Y248758D01*
X504893Y231258D02*
Y248758D01*
X514394D01*
X504893Y231258D02*
X514394D01*
X441602Y224004D02*
Y275004D01*
X486601Y224004D02*
Y275004D01*
X441602D02*
X486601D01*
X441602Y224004D02*
X486601D01*
X110354Y41462D02*
Y50962D01*
X93354Y41462D02*
Y50962D01*
X110354D01*
X93354Y41462D02*
X110354D01*
Y53924D02*
Y63424D01*
X93354Y53924D02*
Y63424D01*
X110354D01*
X93354Y53924D02*
X110354D01*
X18230Y108176D02*
X27730D01*
X18230Y90676D02*
X27730D01*
Y108176D01*
X18230Y90676D02*
Y108176D01*
X17900Y167714D02*
X27400D01*
X17900Y150214D02*
X27400D01*
Y167714D01*
X17900Y150214D02*
Y167714D01*
X17653Y256496D02*
X27153D01*
X17653Y239496D02*
X27153D01*
Y256496D01*
X17653Y239496D02*
Y256496D01*
X17448Y177629D02*
Y194629D01*
X26948Y177629D02*
Y194629D01*
X17448Y177629D02*
X26948D01*
X17448Y194629D02*
X26948D01*
X18409Y116976D02*
Y133976D01*
X27909Y116976D02*
Y133976D01*
X18409Y116976D02*
X27909D01*
X18409Y133976D02*
X27909D01*
M02*
