G04*
G04 #@! TF.GenerationSoftware,Altium Limited,Altium Designer,18.0.12 (696)*
G04*
G04 Layer_Color=255*
%FSLAX44Y44*%
%MOMM*%
G71*
G01*
G75*
%ADD10C,0.2540*%
%ADD19R,0.6000X0.4500*%
%ADD21R,0.4000X0.6000*%
%ADD25R,0.7000X0.9000*%
%ADD29R,0.8000X0.9000*%
%ADD30R,0.9000X0.7000*%
%ADD56C,1.2700*%
%ADD57R,1.2700X1.2700*%
%ADD58R,1.5240X1.5240*%
%ADD59C,1.5240*%
%ADD60R,1.5000X1.5000*%
%ADD61C,1.5000*%
%ADD62C,5.5000*%
%ADD64R,0.4500X0.6000*%
%ADD65R,0.3000X0.7000*%
%ADD66R,0.6000X0.4000*%
%ADD67R,0.3500X1.4000*%
D10*
X600000D01*
X0D02*
Y350000D01*
X600000D01*
Y0D02*
Y350000D01*
D19*
X399796Y127588D02*
D03*
Y137588D02*
D03*
X408940Y127588D02*
D03*
Y137588D02*
D03*
X524510Y144700D02*
D03*
Y134700D02*
D03*
D21*
X536774Y130810D02*
D03*
X545774D02*
D03*
D25*
X388486Y165354D02*
D03*
X403486D02*
D03*
X484871Y269240D02*
D03*
X469871D02*
D03*
X453647Y269494D02*
D03*
X438647D02*
D03*
X453724Y257189D02*
D03*
X438724D02*
D03*
X485064Y257048D02*
D03*
X470064D02*
D03*
X402978Y261620D02*
D03*
X387978D02*
D03*
X402822Y248800D02*
D03*
X387822D02*
D03*
X335146Y274574D02*
D03*
X350146D02*
D03*
X334892Y261620D02*
D03*
X349892D02*
D03*
X109354Y46212D02*
D03*
X94354D02*
D03*
X109354Y58674D02*
D03*
X94354D02*
D03*
D29*
X143368Y49530D02*
D03*
X157368D02*
D03*
D30*
X190500Y93518D02*
D03*
Y108518D02*
D03*
D56*
X424434Y327914D02*
D03*
Y302514D02*
D03*
X449834Y327914D02*
D03*
Y302514D02*
D03*
X475234D02*
D03*
X151130Y325882D02*
D03*
Y300482D02*
D03*
X176530Y325882D02*
D03*
Y300482D02*
D03*
D57*
X475234Y327914D02*
D03*
D58*
X313944Y301498D02*
D03*
D59*
X339344D02*
D03*
X364744D02*
D03*
X313944Y334518D02*
D03*
X339344D02*
D03*
X364744D02*
D03*
D60*
X128000Y28851D02*
D03*
D61*
X153400D02*
D03*
X178800D02*
D03*
X204200D02*
D03*
X229600D02*
D03*
X255000D02*
D03*
X280400D02*
D03*
X305800D02*
D03*
X331200D02*
D03*
X356600D02*
D03*
X382000D02*
D03*
X407400D02*
D03*
X432800D02*
D03*
X458200D02*
D03*
X483600D02*
D03*
D62*
X552000Y50000D02*
D03*
Y300000D02*
D03*
X52000D02*
D03*
Y50000D02*
D03*
D64*
X275764Y235458D02*
D03*
X265764D02*
D03*
D65*
X272500Y201900D02*
D03*
Y155900D02*
D03*
X267500Y201900D02*
D03*
Y155900D02*
D03*
X262500Y201900D02*
D03*
Y155900D02*
D03*
X257500Y201900D02*
D03*
Y155900D02*
D03*
X252500Y201900D02*
D03*
Y155900D02*
D03*
X247500Y201900D02*
D03*
Y155900D02*
D03*
X242500Y201900D02*
D03*
Y155900D02*
D03*
X237500Y201900D02*
D03*
Y155900D02*
D03*
X232500Y201900D02*
D03*
Y155900D02*
D03*
X227500Y201900D02*
D03*
Y155900D02*
D03*
D66*
X545350Y213940D02*
D03*
Y222940D02*
D03*
D67*
X538850Y199060D02*
D03*
X545350D02*
D03*
X551850D02*
D03*
X558350D02*
D03*
X564850D02*
D03*
X571350D02*
D03*
X577850D02*
D03*
X584350D02*
D03*
X538850Y145060D02*
D03*
X545350D02*
D03*
X551850D02*
D03*
X558350D02*
D03*
X564850D02*
D03*
X571350D02*
D03*
X577850D02*
D03*
X584350D02*
D03*
M02*
