M48
;Layer_Color=9474304
;FILE_FORMAT=4:4
METRIC,LZ
;TYPE=PLATED
T1F00S00C0.3000
T2F00S00C0.3000
T3F00S00C0.8636
T4F00S00C0.8890
T5F00S00C0.9000
;TYPE=NON_PLATED
T6F00S00C0.9000
T7F00S00C3.4000
%
T01
X00016764Y00081026
X00024892Y00080867
X0003429Y0008066
X00011908Y00092426
X00011938Y00106426
X00014808Y0013417
X00012476Y00151964
X00012294Y00165964
X00013462Y00194629
X00012642Y00215196
X00012056Y00229196
X00022352Y00248666
X00061468Y00243078
X00070104Y00218948
X00075184Y0021336
X00061468Y00186436
X00068072Y001524
X00074676Y00142494
X0006096Y00125984
X0006858Y0009398
X00073914Y0008636
X00120396Y00097536
X00131064Y00076454
X00134112Y00049276
X00147828Y00062484
X0016764Y0004953
X0018542Y00041148
X00217424Y00033782
X0022987Y00046482
X00253746Y0004699
X00268224Y00059944
X00281178Y00072644
X00287274Y00087884
X00262128Y00091694
Y00103378
X00276606Y00108204
X00247142Y00110236
X00250444Y00144526
X002425Y00144342
X0023495Y0014478
X00212503Y0014351
X00210094Y00160818
X00191262Y00144526
X00190246Y0012446
X001905Y00116881
X00191008Y00084582
X00167894Y00088646
X00161798Y0009525
X00235204Y00067818
X0032258Y00054102
X00322072Y00087884
X00330454Y00100584
X0035052Y00103124
X00355346Y00108966
X00373126
X0039243Y0011442
Y001524
X00382778Y00156054
X00378206Y00183896
X00393293Y00199644
X00379476Y00237998
X00377564Y002488
X0037719Y0026162
X00360426Y00262382
X0035814Y00274574
X0032385Y0026162
X0032766Y00252222
X00320802Y00234442
X00341884Y00238506
X00294894Y00241554
X00301244Y00248412
X0027686Y00243078
X00258826Y0023495
X00259588Y00224028
X0024782Y00214472
X00209042Y00211582
X00199898Y00211836
X0019177Y0020447
X00171958Y00208781
X0017272Y00187198
X00137668Y00177292
X00150114Y00263652
X00226822Y00286766
X00241808Y00283718
X002606Y0025629
X00295354Y00209502
X00301498Y00202692
X0031369Y00201168
X0032131
X0032893Y00200914
X00327992Y0016213
X00339344Y00164338
X00278892Y00147574
X00352806Y0009017
X00357378Y00072644
X00352552Y0006223
X0037973Y0006985
X00401574Y0011442
X00417627Y00114415
X0042672Y001143
X0043434Y00112776
X00445704Y0012478
X0045702Y00108278
X0047752Y00115014
X00489557Y00110137
X0048895Y0007841
X00510464
X0052451Y0012863
X00530606Y0013048
X0052451Y00151678
X0053815Y0017239
X00518922Y0018542
X0050927Y00183642
X00501598Y00185928
X00498703Y00174498
X00487426Y00182118
X0048641Y00205994
X00488696Y00218186
X00509644Y00223909
X0053721Y00224536
X00552196Y00236474
X00566166Y00224536
X0059182Y0021303
Y00203648
Y00196124
Y0018001
Y001635
Y0014699
Y0013048
X00471678Y00140208
X00475996Y00156464
X0047371Y00193802
X0044916Y00189738
X00436118Y00217932
X00425314Y00226568
X00420796Y00233254
X00408432Y00238563
X00423672Y00251206
X00420624Y00259334
X0042037Y00268224
X00453647Y00280159
X00469871Y00279371
X00507746Y00269748
X00507238Y00258826
X00520566Y00247008
X00482346Y00239014
X00452882Y00242824
X00446532Y00238506
X0041802Y0020174
X0041002Y00198587
X0040894Y0014605
X00399796Y00145796
X00518716Y00200406
T02
X00158504Y0023089
X00158246Y0024359
X00261112Y0029972
X00244978Y00316616
X00278384Y00332232
X00323342Y0028321
X00279146Y00197358
X0026924Y00192024
X00352362Y0014878
Y00138684
X0039402Y00175326
X0043688Y00084582
X00437196Y0005658
T03
X0015113Y00300482
Y00325882
X0017653
Y00300482
X00424434Y00302514
Y00327914
X00449834
Y00302514
X00475234
Y00327914
T04
X00313944Y00301498
X00339344
X00364744
Y00334518
X00339344
X00313944
T05
X00128Y00028851
X001534
X001788
X002042
X002296
X00255
X002804
X003058
X003312
X003566
X00382
X004074
X004328
X004582
X004836
T06
X00218Y001789
X00282
T07
X00052Y0005
Y003
X00552
Y0005
M30
