G04*
G04 #@! TF.GenerationSoftware,Altium Limited,Altium Designer,18.0.12 (696)*
G04*
G04 Layer_Color=32896*
%FSLAX44Y44*%
%MOMM*%
G71*
G01*
G75*
%ADD14C,0.2540*%
%ADD15C,0.2000*%
%ADD19C,0.1270*%
%ADD20C,0.1000*%
%ADD21C,0.0500*%
G36*
X567916Y619747D02*
X569725D01*
X571369Y619665D01*
X572685Y619582D01*
X573754Y619500D01*
X574658D01*
X575398Y619418D01*
X575891Y619336D01*
X576302Y619254D01*
X576549Y619171D01*
X576713D01*
X576796Y619089D01*
X576878D01*
X577207Y618102D01*
X577536Y617198D01*
X577865Y616458D01*
X578029Y615800D01*
X578276Y615225D01*
X578440Y614731D01*
X578687Y613992D01*
X578851Y613498D01*
X578933Y613169D01*
Y613005D01*
X578851Y612923D01*
X578687Y612840D01*
X578358D01*
X577947Y612758D01*
X576960Y612676D01*
X575727D01*
X574576Y612594D01*
X566354D01*
X569725Y602727D01*
X573096Y592532D01*
X573014Y592450D01*
X572931Y592368D01*
X572438Y592285D01*
X571780Y592203D01*
X571040D01*
X570300Y592121D01*
X564956D01*
X562490Y599274D01*
X561996Y600672D01*
X561585Y601987D01*
X561174Y603139D01*
X560763Y604207D01*
X560434Y605112D01*
X560187Y605934D01*
X559858Y606674D01*
X559694Y607332D01*
X559447Y607907D01*
X559283Y608318D01*
X559201Y608730D01*
X559036Y608976D01*
X558954Y609387D01*
X558872Y609469D01*
X557803Y612347D01*
X556981Y612429D01*
X555994Y612512D01*
X555090D01*
X554103Y612594D01*
X550650D01*
X549417Y612676D01*
X548430D01*
X547690Y612758D01*
X547032D01*
X546621Y612840D01*
X546292D01*
X545388Y615718D01*
X544977Y616623D01*
X544730Y617363D01*
X544483Y618020D01*
X544401Y618431D01*
X544319Y618760D01*
X544237Y618925D01*
Y619089D01*
X544319Y619171D01*
X544401Y619254D01*
X544648D01*
X544894Y619336D01*
X545717Y619418D01*
X546786Y619500D01*
X548019Y619582D01*
X549334Y619665D01*
X550814D01*
X552294Y619747D01*
X553856D01*
X555336Y619829D01*
X565778Y619829D01*
X567916Y619747D01*
D02*
G37*
G36*
X503949Y616623D02*
X504360Y615636D01*
X504607Y614814D01*
X504853Y614156D01*
X504936Y613663D01*
X505018Y613252D01*
X505100Y613005D01*
Y612923D01*
Y612840D01*
X505018D01*
X504853Y612758D01*
X504524D01*
X504113Y612676D01*
X503127D01*
X501894Y612594D01*
X496385D01*
X495398Y612512D01*
X494494D01*
X493754Y612429D01*
X493178D01*
X492767Y612347D01*
X492685D01*
Y612183D01*
X492849Y611854D01*
X493014Y611361D01*
X493178Y610785D01*
X493425Y610045D01*
X493754Y609223D01*
X494329Y607414D01*
X494987Y605605D01*
X495234Y604783D01*
X495563Y604043D01*
X495727Y603467D01*
X495891Y602974D01*
X496056Y602645D01*
Y602563D01*
X496631Y600919D01*
X497207Y599356D01*
X497618Y598123D01*
X498029Y596972D01*
X498358Y595985D01*
X498605Y595163D01*
X498851Y594505D01*
X499016Y594012D01*
X499180Y593519D01*
X499263Y593190D01*
X499345Y592943D01*
Y592779D01*
X499427Y592614D01*
Y592532D01*
X499345Y592450D01*
X499263Y592368D01*
X498769Y592285D01*
X498111Y592203D01*
X497289D01*
X496467Y592121D01*
X491123D01*
X490547Y593519D01*
X489972Y595163D01*
X489314Y596808D01*
X488738Y598452D01*
X488245Y600014D01*
X487998Y600672D01*
X487834Y601165D01*
X487669Y601659D01*
X487505Y601987D01*
X487423Y602234D01*
Y602316D01*
X487012Y603550D01*
X486601Y604783D01*
X486189Y605852D01*
X485861Y606838D01*
X485285Y608565D01*
X484792Y610045D01*
X484381Y611196D01*
X484134Y611936D01*
X483969Y612429D01*
X483887Y612594D01*
X472459D01*
X471308Y616212D01*
X469910Y619829D01*
X502633D01*
X503949Y616623D01*
D02*
G37*
G36*
X582222Y619911D02*
X582880D01*
X584196Y619829D01*
X587731D01*
X588471Y619747D01*
X589046D01*
X589540Y619665D01*
X589869D01*
X590115Y619582D01*
X590197D01*
X593322Y611278D01*
X593897Y609798D01*
X594391Y608565D01*
X594884Y607332D01*
X595377Y606345D01*
X595706Y605441D01*
X596117Y604618D01*
X596364Y603961D01*
X596693Y603385D01*
X596857Y602892D01*
X597104Y602481D01*
X597351Y601987D01*
X597515Y601659D01*
X597597Y601576D01*
X598091Y601165D01*
X598666Y600754D01*
X599899Y600179D01*
X601379Y599685D01*
X602859Y599439D01*
X604175Y599274D01*
X604833Y599192D01*
X605326D01*
X605737Y599110D01*
X608944D01*
X609519Y599192D01*
X610013D01*
X610506Y599274D01*
X611246D01*
X611657Y599356D01*
X611986Y599439D01*
X612233Y599521D01*
X612315D01*
X612561Y599685D01*
X612808Y599767D01*
X613055D01*
X613301Y599850D01*
X613466Y599932D01*
X613630Y600014D01*
X613712Y600096D01*
X613959Y600343D01*
X614041Y600425D01*
X614206Y600508D01*
X614288Y600672D01*
X614535Y600836D01*
X614699Y601001D01*
X614781Y601083D01*
X615028Y601412D01*
X615275Y601659D01*
X615357Y601741D01*
X615439Y601823D01*
X614041Y605605D01*
X613383Y607332D01*
X612808Y608976D01*
X612232Y610620D01*
X611657Y612100D01*
X611164Y613416D01*
X610670Y614731D01*
X610259Y615883D01*
X609930Y616869D01*
X609601Y617774D01*
X609355Y618514D01*
X609108Y619089D01*
X608944Y619500D01*
X608861Y619747D01*
Y619829D01*
X613877D01*
X614535Y619747D01*
X615686Y619582D01*
X616508Y619418D01*
X617083Y619171D01*
X617495Y618843D01*
X617741Y618678D01*
X617906Y618514D01*
Y618431D01*
X618892Y615718D01*
X619797Y613252D01*
X620619Y611032D01*
X621277Y609058D01*
X621852Y607332D01*
X622346Y605770D01*
X622674Y604454D01*
X623003Y603385D01*
X623250Y602399D01*
X623414Y601659D01*
X623579Y601001D01*
X623661Y600508D01*
X623743Y600179D01*
Y599932D01*
Y599850D01*
Y599767D01*
X623661Y598863D01*
X623414Y598041D01*
X623086Y597219D01*
X622757Y596561D01*
X622428Y596068D01*
X622099Y595574D01*
X621852Y595328D01*
X621770Y595245D01*
X621030Y594670D01*
X620208Y594094D01*
X619303Y593683D01*
X618234Y593272D01*
X616097Y592697D01*
X613959Y592285D01*
X612890Y592121D01*
X611904Y592039D01*
X610999Y591957D01*
X610259D01*
X609601Y591874D01*
X608697D01*
X606724Y591957D01*
X604915Y592039D01*
X603188Y592285D01*
X601626Y592614D01*
X600146Y592943D01*
X598831Y593272D01*
X597680Y593683D01*
X596611Y594177D01*
X595706Y594588D01*
X594884Y594999D01*
X594226Y595328D01*
X593651Y595657D01*
X593240Y595985D01*
X592911Y596232D01*
X592746Y596314D01*
X592664Y596396D01*
X591924Y597054D01*
X591266Y597877D01*
X590526Y598781D01*
X589869Y599932D01*
X589129Y601083D01*
X588471Y602316D01*
X587320Y604783D01*
X586744Y606016D01*
X586251Y607167D01*
X585840Y608236D01*
X585429Y609141D01*
X585182Y609963D01*
X584935Y610538D01*
X584853Y610867D01*
X584771Y611032D01*
X581647Y619994D01*
X582222Y619911D01*
D02*
G37*
G36*
X502058Y649675D02*
X502469Y649346D01*
X502880Y648935D01*
X503456Y648442D01*
X503949Y647866D01*
X504360Y647455D01*
X504689Y647126D01*
X504771Y647044D01*
X505758Y645975D01*
X506827Y644906D01*
X507896Y643755D01*
X508882Y642768D01*
X509704Y641864D01*
X510362Y641124D01*
X510855Y640631D01*
X510938Y640548D01*
X511020Y640466D01*
X512335Y639151D01*
X513404Y638082D01*
X514226Y637178D01*
X514966Y636520D01*
X515460Y636026D01*
X515871Y635615D01*
X516035Y635451D01*
X516118Y635369D01*
X524668Y626818D01*
X585840Y626818D01*
X587402Y626900D01*
X599982D01*
X601462Y626982D01*
X611493D01*
X612808Y626900D01*
X615110D01*
X616015Y626818D01*
X616919D01*
X617577Y626736D01*
X618234Y626653D01*
X618728D01*
X619139Y626571D01*
X619714D01*
X619879Y626489D01*
X620043D01*
X620866Y626325D01*
X621523Y626078D01*
X621934Y625749D01*
X622263Y625502D01*
X622428Y625173D01*
X622510Y625009D01*
X622592Y624845D01*
Y624762D01*
X622017D01*
X621359Y624680D01*
X618152D01*
X616672Y624598D01*
X603024D01*
X598502Y624516D01*
X526477Y624516D01*
X533877Y616869D01*
X534288Y616458D01*
X534781Y615965D01*
X535933Y614814D01*
X537248Y613334D01*
X538646Y611936D01*
X539961Y610538D01*
X540537Y609963D01*
X541030Y609387D01*
X541523Y608976D01*
X541852Y608647D01*
X542017Y608401D01*
X542099Y608318D01*
X543250Y607085D01*
X544319Y605934D01*
X546292Y603961D01*
X547937Y602234D01*
X549334Y600836D01*
X550403Y599767D01*
X551143Y598945D01*
X551554Y598534D01*
X551719Y598370D01*
X562490Y587599D01*
X610670Y587599D01*
X613137Y587517D01*
X617741D01*
X619715Y587435D01*
X621605D01*
X623332Y587352D01*
X626292D01*
X627525Y587270D01*
X628676D01*
X629745Y587188D01*
X630650D01*
X631472Y587106D01*
X632212D01*
X632787Y587024D01*
X633281D01*
X634103Y586941D01*
X634678Y586859D01*
X635007Y586777D01*
X635172D01*
X635254Y586695D01*
X635172Y586612D01*
X634843Y586530D01*
X634350Y586448D01*
X633774Y586366D01*
X632952D01*
X632047Y586283D01*
X630979Y586201D01*
X629745D01*
X628512Y586119D01*
X627114D01*
X624154Y586037D01*
X620948Y585955D01*
X617659Y585872D01*
X611246D01*
X608286Y585790D01*
X564545D01*
X565449Y584639D01*
X565696Y584310D01*
X566272Y583735D01*
X566929Y582912D01*
X567752Y582008D01*
X568738Y581021D01*
X569807Y579870D01*
X572027Y577568D01*
X574165Y575266D01*
X575151Y574279D01*
X576056Y573375D01*
X576796Y572553D01*
X577371Y571977D01*
X577700Y571648D01*
X577865Y571484D01*
X579838Y569428D01*
X581647Y567537D01*
X583209Y565975D01*
X584524Y564577D01*
X585593Y563426D01*
X586580Y562522D01*
X587320Y561700D01*
X587978Y561042D01*
X588471Y560549D01*
X588882Y560138D01*
X589129Y559891D01*
X589293Y559726D01*
X589540Y559480D01*
X590115Y558822D01*
X590609Y558246D01*
X590938Y557835D01*
X591184Y557589D01*
X591349Y557342D01*
X591431Y557260D01*
X591513Y557178D01*
X590197Y558082D01*
X586580Y560631D01*
X583127Y563097D01*
X579756Y565482D01*
X576549Y567866D01*
X573425Y570086D01*
X570547Y572224D01*
X567834Y574279D01*
X565367Y576088D01*
X563065Y577815D01*
X561092Y579377D01*
X559283Y580692D01*
X557803Y581844D01*
X556652Y582748D01*
X556159Y583159D01*
X555830Y583406D01*
X555501Y583652D01*
X555254Y583817D01*
X555172Y583981D01*
X555090D01*
X552623Y585790D01*
X518831D01*
X518420Y585050D01*
X518173Y584310D01*
X517926Y583570D01*
X517844Y582830D01*
X517762Y582255D01*
X517680Y581761D01*
Y581350D01*
Y581268D01*
Y580775D01*
X517598Y580446D01*
X517515Y580199D01*
X517433Y580035D01*
X517351Y579953D01*
X517269D01*
X517104Y580117D01*
X516857Y580528D01*
X516693Y580939D01*
X516529Y581515D01*
X516364Y582008D01*
X516200Y582419D01*
X516118Y582748D01*
Y582830D01*
X515624Y585544D01*
X495645Y585790D01*
X493754D01*
X492027Y585872D01*
X488820D01*
X487423Y585955D01*
X486107D01*
X484874Y586037D01*
X483723D01*
X482736Y586119D01*
X481750Y586201D01*
X480927D01*
X480105Y586283D01*
X478708Y586366D01*
X477639Y586448D01*
X476816Y586530D01*
X476159Y586612D01*
X475748Y586695D01*
X475419Y586777D01*
X475254Y586859D01*
X475090Y586941D01*
X475172Y587023D01*
X475336D01*
X475583Y587106D01*
X475912Y587188D01*
X476405D01*
X476899Y587270D01*
X478214Y587352D01*
X479776D01*
X481421Y587435D01*
X483230Y587517D01*
X487012D01*
X488820Y587599D01*
X515213D01*
X513651Y594999D01*
X513158Y597219D01*
X512664Y599274D01*
X512253Y601165D01*
X511842Y602974D01*
X511513Y604618D01*
X511184Y606098D01*
X510855Y607414D01*
X510609Y608647D01*
X510362Y609634D01*
X510115Y610538D01*
X509951Y611361D01*
X509787Y611936D01*
X509704Y612429D01*
X509622Y612840D01*
X509540Y613005D01*
Y613087D01*
X509129Y614731D01*
X508800Y616294D01*
X508471Y617609D01*
X508224Y618760D01*
X508060Y619829D01*
X507896Y620734D01*
X507731Y621474D01*
X507567Y622131D01*
X507484Y622707D01*
X507402Y623118D01*
Y623447D01*
X507320Y623694D01*
Y624022D01*
Y624105D01*
X507238D01*
X507073Y624187D01*
X506744D01*
X506333Y624269D01*
X505182D01*
X504524Y624351D01*
X502058D01*
X500085Y624433D01*
X495891D01*
X493836Y624516D01*
X469745D01*
X468594Y624598D01*
X465059D01*
X464072Y624680D01*
X463332Y624845D01*
X462839Y625009D01*
X462428Y625173D01*
X462263Y625338D01*
X462181Y625502D01*
X462099Y625667D01*
X462181Y625996D01*
X462510Y626242D01*
X463004Y626407D01*
X463497Y626489D01*
X463990Y626571D01*
X464483Y626653D01*
X465552D01*
X466539Y626736D01*
X470650D01*
X472294Y626818D01*
X491698D01*
X493260Y626900D01*
X497289D01*
X498358Y626982D01*
X500331D01*
X501236Y627065D01*
X502716D01*
X503867Y627147D01*
X504771Y627229D01*
X505511Y627311D01*
X506004D01*
X506333Y627393D01*
X506498D01*
X506580Y627476D01*
X506662D01*
X505100Y633724D01*
X505018Y634464D01*
X504853Y635286D01*
X504442Y637095D01*
X504278Y637835D01*
X504113Y638575D01*
X503949Y638986D01*
Y639151D01*
X503620Y640466D01*
X503373Y641617D01*
X503209Y642522D01*
X503045Y643180D01*
X502962Y643673D01*
X502880Y644084D01*
Y644248D01*
Y644331D01*
X502716Y645317D01*
X502469Y646140D01*
X502387Y646468D01*
Y646715D01*
X502305Y646880D01*
Y646962D01*
X502058Y647784D01*
X501976Y648524D01*
X501894Y648935D01*
Y649099D01*
Y649757D01*
X502058Y649675D01*
D02*
G37*
G36*
X233180Y253840D02*
X222198D01*
Y258759D01*
X233180D01*
Y253840D01*
D02*
G37*
G36*
X182180D02*
X171085D01*
Y258806D01*
X182180D01*
Y253840D01*
D02*
G37*
G36*
X101704Y251804D02*
X90722D01*
Y256723D01*
X101704D01*
Y251804D01*
D02*
G37*
G36*
X50704D02*
X39609D01*
Y256770D01*
X50704D01*
Y251804D01*
D02*
G37*
G36*
X233180Y241140D02*
X222216D01*
Y246056D01*
X233180D01*
Y241140D01*
D02*
G37*
G36*
X182180D02*
X171096D01*
Y246064D01*
X182180D01*
Y241140D01*
D02*
G37*
G36*
X101704Y239104D02*
X90740D01*
Y244020D01*
X101704D01*
Y239104D01*
D02*
G37*
G36*
X50704D02*
X39620D01*
Y244028D01*
X50704D01*
Y239104D01*
D02*
G37*
G36*
X233180Y228440D02*
X222227D01*
Y233331D01*
X233180D01*
Y228440D01*
D02*
G37*
G36*
X182180D02*
X171150D01*
Y233336D01*
X182180D01*
Y228440D01*
D02*
G37*
G36*
X101704Y226404D02*
X90751D01*
Y231295D01*
X101704D01*
Y226404D01*
D02*
G37*
G36*
X50704D02*
X39674D01*
Y231300D01*
X50704D01*
Y226404D01*
D02*
G37*
G36*
X233180Y215740D02*
X222219D01*
Y220607D01*
X233180D01*
Y215740D01*
D02*
G37*
G36*
X182180D02*
X171150D01*
Y220624D01*
X182180D01*
Y215740D01*
D02*
G37*
G36*
X101704Y213704D02*
X90743D01*
Y218571D01*
X101704D01*
Y213704D01*
D02*
G37*
G36*
X50704D02*
X39674D01*
Y218588D01*
X50704D01*
Y213704D01*
D02*
G37*
G36*
X102212Y190336D02*
X91230D01*
Y195255D01*
X102212D01*
Y190336D01*
D02*
G37*
G36*
X51212D02*
X40117D01*
Y195302D01*
X51212D01*
Y190336D01*
D02*
G37*
G36*
X102212Y177636D02*
X91248D01*
Y182552D01*
X102212D01*
Y177636D01*
D02*
G37*
G36*
X51212D02*
X40128D01*
Y182560D01*
X51212D01*
Y177636D01*
D02*
G37*
G36*
X102212Y164936D02*
X91259D01*
Y169827D01*
X102212D01*
Y164936D01*
D02*
G37*
G36*
X51212D02*
X40182D01*
Y169832D01*
X51212D01*
Y164936D01*
D02*
G37*
G36*
X102212Y152236D02*
X91251D01*
Y157103D01*
X102212D01*
Y152236D01*
D02*
G37*
G36*
X51212D02*
X40182D01*
Y157120D01*
X51212D01*
Y152236D01*
D02*
G37*
G36*
X102356Y129204D02*
X91374D01*
Y134123D01*
X102356D01*
Y129204D01*
D02*
G37*
G36*
X51356D02*
X40261D01*
Y134170D01*
X51356D01*
Y129204D01*
D02*
G37*
G36*
X102356Y116504D02*
X91392D01*
Y121420D01*
X102356D01*
Y116504D01*
D02*
G37*
G36*
X51356D02*
X40272D01*
Y121428D01*
X51356D01*
Y116504D01*
D02*
G37*
G36*
X102356Y103804D02*
X91403D01*
Y108695D01*
X102356D01*
Y103804D01*
D02*
G37*
G36*
X51356D02*
X40326D01*
Y108700D01*
X51356D01*
Y103804D01*
D02*
G37*
G36*
X102356Y91104D02*
X91395D01*
Y95971D01*
X102356D01*
Y91104D01*
D02*
G37*
G36*
X51356D02*
X40326D01*
Y95988D01*
X51356D01*
Y91104D01*
D02*
G37*
%LPC*%
G36*
X517269Y622049D02*
Y621885D01*
X517351Y621638D01*
X517433Y620898D01*
X517597Y619911D01*
X517762Y618925D01*
X518008Y617856D01*
X518173Y617034D01*
X518255Y616705D01*
Y616458D01*
X518337Y616294D01*
Y616212D01*
X518502Y615800D01*
X518584Y615225D01*
Y614814D01*
Y614731D01*
Y614649D01*
X518913Y613663D01*
X519077Y612923D01*
X519242Y612512D01*
Y612347D01*
X519324Y611936D01*
X519406Y611772D01*
X519571D01*
X519653Y611854D01*
X519817Y612183D01*
X519900Y612265D01*
Y612347D01*
X520229Y613087D01*
X520475Y613663D01*
X520722Y614074D01*
X520886Y614403D01*
X521051Y614567D01*
X521133Y614649D01*
X521215D01*
X521462Y614567D01*
X521791Y614320D01*
X522284Y613992D01*
X522859Y613663D01*
X523353Y613252D01*
X523846Y612923D01*
X524175Y612676D01*
X524257Y612594D01*
X525162Y611936D01*
X525984Y611361D01*
X526313Y611114D01*
X526559Y610949D01*
X526642Y610867D01*
X526724Y610785D01*
X527464Y610127D01*
X528039Y609634D01*
X528451Y609305D01*
X528615Y609223D01*
X529190Y608730D01*
X529602Y608401D01*
X529930Y608154D01*
X530013Y608072D01*
X530341Y607825D01*
X530588Y607743D01*
X530670Y607661D01*
X530753D01*
X530999Y607414D01*
X530835Y608154D01*
X530424Y608976D01*
X529766Y610045D01*
X528862Y611114D01*
X527793Y612265D01*
X526642Y613498D01*
X524093Y615965D01*
X522859Y617198D01*
X521626Y618349D01*
X520475Y619336D01*
X519406Y620240D01*
X518502Y620980D01*
X517844Y621556D01*
X517433Y621885D01*
X517269Y622049D01*
D02*
G37*
G36*
X522695Y607167D02*
X522613D01*
X522531Y607085D01*
X522448Y606756D01*
X522366Y606263D01*
X522202Y605605D01*
X522119Y604865D01*
X521873Y604043D01*
X521544Y602234D01*
X521215Y600425D01*
X521051Y599603D01*
X520886Y598863D01*
X520804Y598205D01*
X520722Y597712D01*
X520640Y597383D01*
Y597301D01*
X518831Y587846D01*
X526477Y587599D01*
X541770D01*
X549663Y587846D01*
X536344Y597548D01*
X534041Y599274D01*
X531986Y600754D01*
X530259Y601987D01*
X528697Y603139D01*
X527382Y604043D01*
X526313Y604783D01*
X525326Y605441D01*
X524586Y605934D01*
X524011Y606345D01*
X523517Y606674D01*
X523188Y606838D01*
X522942Y607003D01*
X522777Y607085D01*
X522695Y607167D01*
D02*
G37*
%LPD*%
D14*
X89990Y280468D02*
X166190D01*
X89990D02*
Y330252D01*
X166190D01*
Y280468D02*
Y330252D01*
X455930Y289052D02*
Y338836D01*
Y289052D02*
X506730D01*
Y338836D01*
X455930D02*
X506730D01*
X0Y0D02*
X600000D01*
X0D02*
Y350000D01*
X600000D01*
Y0D02*
Y350000D01*
D15*
X275000Y211900D02*
G03*
X275000Y211900I-2500J0D01*
G01*
X535600Y170435D02*
G03*
X535600Y173685I0J1625D01*
G01*
X194000Y99018D02*
Y103018D01*
X187000Y99018D02*
Y103018D01*
X280000Y153900D02*
X295000D01*
Y203900D01*
X280000D02*
X295000D01*
X205000Y153900D02*
X220000D01*
X205000D02*
Y203900D01*
X220000D01*
X393986Y161854D02*
X397986D01*
X393986Y168854D02*
X397986D01*
X535600Y173685D02*
Y183710D01*
Y160410D02*
Y170435D01*
Y160410D02*
X587600D01*
Y183710D01*
X535600D02*
X587600D01*
X475372Y272740D02*
X479371D01*
X475372Y265740D02*
X479371D01*
X444146Y272994D02*
X448147D01*
X444146Y265994D02*
X448147D01*
X444224Y260689D02*
X448224D01*
X444224Y253689D02*
X448224D01*
X475564Y260548D02*
X479563D01*
X475564Y253548D02*
X479563D01*
X393478Y265120D02*
X397478D01*
X393478Y258120D02*
X397478D01*
X393322Y252300D02*
X397322D01*
X393322Y245300D02*
X397322D01*
X340646Y271074D02*
X344646D01*
X340646Y278074D02*
X344646D01*
X340392Y258120D02*
X344392D01*
X340392Y265120D02*
X344392D01*
X99854Y49712D02*
X103854D01*
X99854Y42712D02*
X103854D01*
X99854Y62174D02*
X103854D01*
X99854Y55174D02*
X103854D01*
X428083Y142924D02*
X430582D01*
X431832Y141674D01*
Y136676D01*
X430582Y135426D01*
X428083D01*
X426834Y136676D01*
Y141674D01*
X428083Y142924D01*
X424334D02*
Y135426D01*
X420586D01*
X419336Y136676D01*
Y137925D01*
X420586Y139175D01*
X424334D01*
X420586D01*
X419336Y140424D01*
Y141674D01*
X420586Y142924D01*
X424334D01*
X411838Y141674D02*
X413088Y142924D01*
X415587D01*
X416837Y141674D01*
Y136676D01*
X415587Y135426D01*
X413088D01*
X411838Y136676D01*
X401842Y142924D02*
Y137925D01*
X399342Y135426D01*
X396843Y137925D01*
Y142924D01*
X389346Y135426D02*
X394344D01*
X389346Y140424D01*
Y141674D01*
X390595Y142924D01*
X393094D01*
X394344Y141674D01*
X432086Y159612D02*
Y152114D01*
Y155863D01*
X427088D01*
Y159612D01*
Y152114D01*
X419590Y159612D02*
X424588D01*
Y152114D01*
X419590D01*
X424588Y155863D02*
X422089D01*
X417091Y152114D02*
Y159612D01*
X413342D01*
X412092Y158362D01*
Y155863D01*
X413342Y154613D01*
X417091D01*
X414592D02*
X412092Y152114D01*
X405844Y159612D02*
X408344D01*
X409593Y158362D01*
Y153364D01*
X408344Y152114D01*
X405844D01*
X404595Y153364D01*
Y158362D01*
X405844Y159612D01*
X402096Y152114D02*
Y159612D01*
X397097Y152114D01*
Y159612D01*
X387100Y152114D02*
Y159612D01*
X384601Y157112D01*
X382102Y159612D01*
Y152114D01*
X379603Y159612D02*
Y152114D01*
Y154613D01*
X374604Y159612D01*
X378353Y155863D01*
X374604Y152114D01*
X364608Y159612D02*
X362108D01*
X363358D01*
Y152114D01*
X364608D01*
X362108D01*
X358360Y159612D02*
X355860D01*
X357110D01*
Y152114D01*
X358360D01*
X355860D01*
X485307Y116710D02*
Y132210D01*
X493807D01*
Y116710D02*
Y132210D01*
X485307Y116710D02*
X493807D01*
X130656Y246982D02*
X143156D01*
X130656Y226982D02*
Y246982D01*
Y226982D02*
X143156D01*
Y246982D01*
X326490Y133510D02*
X338990D01*
Y153510D01*
X326490D02*
X338990D01*
X326490Y133510D02*
Y153510D01*
X205000Y153900D02*
X225000D01*
X205000D02*
Y203900D01*
X295000D01*
Y153900D02*
Y203900D01*
X225000Y153900D02*
X295000D01*
X250000Y173900D02*
Y183900D01*
Y178900D02*
Y183900D01*
X245000Y178900D02*
X250000D01*
X245000D02*
X255000D01*
D19*
X423780Y55580D02*
G03*
X420780Y52580I0J-3000D01*
G01*
X376780D02*
G03*
X373780Y55580I-3000J0D01*
G01*
X420780Y84580D02*
G03*
X423780Y81580I3000J0D01*
G01*
X373780D02*
G03*
X376780Y84580I0J3000D01*
G01*
X366280Y46080D02*
Y91080D01*
X431280D01*
Y46080D02*
Y91080D01*
X366280Y46080D02*
X431280D01*
X423780Y55580D02*
Y65580D01*
X406780Y52580D02*
X420780D01*
X376780D02*
X390780D01*
X373780Y55580D02*
Y65580D01*
X423780Y71580D02*
Y81580D01*
X406780Y84580D02*
X420780D01*
X376780D02*
X390780D01*
X373780Y71580D02*
Y81580D01*
D20*
X455602Y266004D02*
G03*
X455602Y266004I-5000J0D01*
G01*
X482132Y138764D02*
X487132D01*
Y148764D01*
X482132D02*
X487132D01*
X482132Y138764D02*
Y148764D01*
X475020Y122000D02*
X480020D01*
Y132000D01*
X475020D02*
X480020D01*
X475020Y122000D02*
Y132000D01*
X397296Y137588D02*
X402296D01*
Y127588D02*
Y137588D01*
X397296Y127588D02*
X402296D01*
X397296D02*
Y137588D01*
X406440D02*
X411440D01*
Y127588D02*
Y137588D01*
X406440Y127588D02*
X411440D01*
X406440D02*
Y137588D01*
X146852Y241982D02*
X151852D01*
X146852Y231982D02*
Y241982D01*
Y231982D02*
X151852D01*
Y241982D01*
X160496Y215690D02*
Y220690D01*
X150496D02*
X160496D01*
X150496Y215690D02*
Y220690D01*
Y215690D02*
X160496D01*
X162132Y262930D02*
Y267930D01*
Y262930D02*
X172132D01*
Y267930D01*
X162132D02*
X172132D01*
X342178Y139643D02*
X347178D01*
Y149643D01*
X342178D02*
X347178D01*
X342178Y139643D02*
Y149643D01*
X265764Y237958D02*
X275764D01*
X265764Y232958D02*
Y237958D01*
Y232958D02*
X275764D01*
Y237958D01*
X141618Y44780D02*
Y54280D01*
X159118Y44780D02*
Y54280D01*
X141618Y44780D02*
X159118D01*
X141618Y54280D02*
X159118D01*
X185750Y92518D02*
X195250D01*
X185750Y109518D02*
X195250D01*
Y92518D02*
Y109518D01*
X185750Y92518D02*
Y109518D01*
X522010Y134700D02*
X527010D01*
X522010D02*
Y144700D01*
X527010D01*
Y134700D02*
Y144700D01*
X536274Y128310D02*
Y133310D01*
X546274D01*
Y128310D02*
Y133310D01*
X536274Y128310D02*
X546274D01*
X542850Y213440D02*
X547850D01*
X542850D02*
Y223440D01*
X547850D01*
Y213440D02*
Y223440D01*
X387486Y160604D02*
Y170104D01*
X404486Y160604D02*
Y170104D01*
X387486Y160604D02*
X404486D01*
X387486Y170104D02*
X404486D01*
X245190Y264200D02*
Y269200D01*
Y264200D02*
X255190D01*
Y269200D01*
X245190D02*
X255190D01*
Y253790D02*
Y258790D01*
X245190D02*
X255190D01*
X245190Y253790D02*
Y258790D01*
Y253790D02*
X255190D01*
X253666Y241086D02*
Y246086D01*
X243666D02*
X253666D01*
X243666Y241086D02*
Y246086D01*
Y241086D02*
X253666D01*
Y227878D02*
Y232878D01*
X243666D02*
X253666D01*
X243666Y227878D02*
Y232878D01*
Y227878D02*
X253666D01*
X243666Y219496D02*
Y224496D01*
Y219496D02*
X253666D01*
Y224496D01*
X243666D02*
X253666D01*
X569980Y166000D02*
X579980D01*
Y161000D02*
Y166000D01*
X569980Y161000D02*
X579980D01*
X569980D02*
Y166000D01*
Y149490D02*
X579980D01*
Y144490D02*
Y149490D01*
X569980Y144490D02*
X579980D01*
X569980D02*
Y149490D01*
Y132980D02*
X579980D01*
Y127980D02*
Y132980D01*
X569980Y127980D02*
X579980D01*
X569980D02*
Y132980D01*
Y215530D02*
X579980D01*
Y210530D02*
Y215530D01*
X569980Y210530D02*
X579980D01*
X569980D02*
Y215530D01*
Y198870D02*
X579980D01*
Y193870D02*
Y198870D01*
X569980Y193870D02*
X579980D01*
X569980D02*
Y198870D01*
Y182510D02*
X579980D01*
Y177510D02*
Y182510D01*
X569980Y177510D02*
X579980D01*
X569980D02*
Y182510D01*
X537150Y168250D02*
X554150D01*
X537150Y158750D02*
X554150D01*
X537150D02*
Y168250D01*
X554150Y158750D02*
Y168250D01*
X537150Y151740D02*
X554150D01*
X537150Y142240D02*
X554150D01*
X537150D02*
Y151740D01*
X554150Y142240D02*
Y151740D01*
X537150Y135230D02*
X554150D01*
X537150Y125730D02*
X554150D01*
X537150D02*
Y135230D01*
X554150Y125730D02*
Y135230D01*
X537150Y217780D02*
X554150D01*
X537150Y208280D02*
X554150D01*
X537150D02*
Y217780D01*
X554150Y208280D02*
Y217780D01*
X537150Y201120D02*
X554150D01*
X537150Y191620D02*
X554150D01*
X537150D02*
Y201120D01*
X554150Y191620D02*
Y201120D01*
X537150Y184760D02*
X554150D01*
X537150Y175260D02*
X554150D01*
X537150D02*
Y184760D01*
X554150Y175260D02*
Y184760D01*
X468871Y273990D02*
X485872D01*
X468871Y264490D02*
X485872D01*
Y273990D01*
X468871Y264490D02*
Y273990D01*
X437646Y274244D02*
X454646D01*
X437646Y264744D02*
X454646D01*
Y274244D01*
X437646Y264744D02*
Y274244D01*
X437724Y261939D02*
X454724D01*
X437724Y252439D02*
X454724D01*
Y261939D01*
X437724Y252439D02*
Y261939D01*
X486063Y252298D02*
Y261798D01*
X469063Y252298D02*
Y261798D01*
X486063D01*
X469063Y252298D02*
X486063D01*
X386978Y266370D02*
X403978D01*
X386978Y256870D02*
X403978D01*
Y266370D01*
X386978Y256870D02*
Y266370D01*
X386822Y253550D02*
X403822D01*
X386822Y244050D02*
X403822D01*
Y253550D01*
X386822Y244050D02*
Y253550D01*
X334146Y269824D02*
X351146D01*
X334146Y279324D02*
X351146D01*
X334146Y269824D02*
Y279324D01*
X351146Y269824D02*
Y279324D01*
X333892Y256870D02*
X350892D01*
X333892Y266370D02*
X350892D01*
X333892Y256870D02*
Y266370D01*
X350892Y256870D02*
Y266370D01*
X17856Y213446D02*
Y230946D01*
X27356Y213446D02*
Y230946D01*
X17856Y213446D02*
X27356D01*
X17856Y230946D02*
X27356D01*
X296050Y92634D02*
X313550D01*
X296050Y83134D02*
X313550D01*
X296050D02*
Y92634D01*
X313550Y83134D02*
Y92634D01*
X324942Y55508D02*
Y72508D01*
X334442Y55508D02*
Y72508D01*
X324942Y55508D02*
X334442D01*
X324942Y72508D02*
X334442D01*
X311546Y55798D02*
Y77298D01*
X297546Y55798D02*
Y77298D01*
Y55798D02*
X311546D01*
X297546Y77298D02*
X311546D01*
X125146Y72367D02*
Y89367D01*
X115646Y72367D02*
Y89367D01*
X125146D01*
X115646Y72367D02*
X125146D01*
X514394Y231258D02*
Y248758D01*
X504893Y231258D02*
Y248758D01*
X514394D01*
X504893Y231258D02*
X514394D01*
X441602Y224004D02*
Y275004D01*
X486601Y224004D02*
Y275004D01*
X441602D02*
X486601D01*
X441602Y224004D02*
X486601D01*
X110354Y41462D02*
Y50962D01*
X93354Y41462D02*
Y50962D01*
X110354D01*
X93354Y41462D02*
X110354D01*
Y53924D02*
Y63424D01*
X93354Y53924D02*
Y63424D01*
X110354D01*
X93354Y53924D02*
X110354D01*
X18230Y108176D02*
X27730D01*
X18230Y90676D02*
X27730D01*
Y108176D01*
X18230Y90676D02*
Y108176D01*
X17900Y167714D02*
X27400D01*
X17900Y150214D02*
X27400D01*
Y167714D01*
X17900Y150214D02*
Y167714D01*
X17653Y256496D02*
X27153D01*
X17653Y239496D02*
X27153D01*
Y256496D01*
X17653Y239496D02*
Y256496D01*
X17448Y177629D02*
Y194629D01*
X26948Y177629D02*
Y194629D01*
X17448Y177629D02*
X26948D01*
X17448Y194629D02*
X26948D01*
X18409Y116976D02*
Y133976D01*
X27909Y116976D02*
Y133976D01*
X18409Y116976D02*
X27909D01*
X18409Y133976D02*
X27909D01*
X484632Y141764D02*
Y145764D01*
X482632Y143764D02*
X486632D01*
X477520Y125000D02*
Y129000D01*
X475520Y127000D02*
X479520D01*
X487557Y124460D02*
X491557D01*
X489557Y122460D02*
Y126460D01*
X399796Y130588D02*
Y134588D01*
X397796Y132588D02*
X401796D01*
X408940Y130588D02*
Y134588D01*
X406940Y132588D02*
X410940D01*
X149352Y234982D02*
Y238982D01*
X147352Y236982D02*
X151352D01*
X131906D02*
X141906D01*
X136906Y231982D02*
Y241982D01*
X327740Y143510D02*
X337740D01*
X332740Y138510D02*
Y148510D01*
X344678Y142643D02*
Y146643D01*
X342678Y144643D02*
X346678D01*
X270764Y233458D02*
Y237458D01*
X268764Y235458D02*
X272764D01*
X138368Y44030D02*
Y55030D01*
X162368Y44030D02*
Y55030D01*
X138368Y44030D02*
X162368D01*
X138368Y55030D02*
X162368D01*
X145618Y49530D02*
X155118D01*
X150368Y44780D02*
Y54280D01*
X185000Y89018D02*
X196000D01*
X185000Y113018D02*
X196000D01*
Y89018D02*
Y113018D01*
X185000Y89018D02*
Y113018D01*
X190500Y96268D02*
Y105768D01*
X185750Y101018D02*
X195250D01*
X524510Y137700D02*
Y141700D01*
X522510Y139700D02*
X526510D01*
X383986Y159854D02*
Y170854D01*
X407986Y159854D02*
Y170854D01*
X383986Y159854D02*
X407986D01*
X383986Y170854D02*
X407986D01*
X391236Y165354D02*
X400736D01*
X395986Y160604D02*
Y170104D01*
X545650Y158750D02*
Y168250D01*
X540900Y163500D02*
X550400D01*
X533650Y169000D02*
X557650D01*
X533650Y158000D02*
X557650D01*
X533650D02*
Y169000D01*
X557650Y158000D02*
Y169000D01*
X545650Y142240D02*
Y151740D01*
X540900Y146990D02*
X550400D01*
X533650Y152490D02*
X557650D01*
X533650Y141490D02*
X557650D01*
X533650D02*
Y152490D01*
X557650Y141490D02*
Y152490D01*
X545650Y125730D02*
Y135230D01*
X540900Y130480D02*
X550400D01*
X533650Y135980D02*
X557650D01*
X533650Y124980D02*
X557650D01*
X533650D02*
Y135980D01*
X557650Y124980D02*
Y135980D01*
X545650Y208280D02*
Y217780D01*
X540900Y213030D02*
X550400D01*
X533650Y218530D02*
X557650D01*
X533650Y207530D02*
X557650D01*
X533650D02*
Y218530D01*
X557650Y207530D02*
Y218530D01*
X545650Y191620D02*
Y201120D01*
X540900Y196370D02*
X550400D01*
X533650Y201870D02*
X557650D01*
X533650Y190870D02*
X557650D01*
X533650D02*
Y201870D01*
X557650Y190870D02*
Y201870D01*
X545650Y175260D02*
Y184760D01*
X540900Y180010D02*
X550400D01*
X533650Y185510D02*
X557650D01*
X533650Y174510D02*
X557650D01*
X533650D02*
Y185510D01*
X557650Y174510D02*
Y185510D01*
X477371Y264490D02*
Y273990D01*
X472621Y269240D02*
X482122D01*
X465372Y274740D02*
X489371D01*
X465372Y263740D02*
X489371D01*
Y274740D01*
X465372Y263740D02*
Y274740D01*
X446147Y264744D02*
Y274244D01*
X441397Y269494D02*
X450896D01*
X434147Y274994D02*
X458147D01*
X434147Y263994D02*
X458147D01*
Y274994D01*
X434147Y263994D02*
Y274994D01*
X446224Y252439D02*
Y261939D01*
X441474Y257189D02*
X450974D01*
X434224Y262689D02*
X458224D01*
X434224Y251689D02*
X458224D01*
Y262689D01*
X434224Y251689D02*
Y262689D01*
X489563Y251548D02*
Y262548D01*
X465564Y251548D02*
Y262548D01*
X489563D01*
X465564Y251548D02*
X489563D01*
X472813Y257048D02*
X482313D01*
X477564Y252298D02*
Y261798D01*
X395478Y256870D02*
Y266370D01*
X390728Y261620D02*
X400228D01*
X383478Y267120D02*
X407478D01*
X383478Y256120D02*
X407478D01*
Y267120D01*
X383478Y256120D02*
Y267120D01*
X395322Y244050D02*
Y253550D01*
X390572Y248800D02*
X400072D01*
X383322Y254300D02*
X407322D01*
X383322Y243300D02*
X407322D01*
Y254300D01*
X383322Y243300D02*
Y254300D01*
X342646Y269824D02*
Y279324D01*
X337896Y274574D02*
X347396D01*
X330646Y269074D02*
X354646D01*
X330646Y280074D02*
X354646D01*
X330646Y269074D02*
Y280074D01*
X354646Y269074D02*
Y280074D01*
X342392Y256870D02*
Y266370D01*
X337642Y261620D02*
X347142D01*
X330392Y256120D02*
X354392D01*
X330392Y267120D02*
X354392D01*
X330392Y256120D02*
Y267120D01*
X354392Y256120D02*
Y267120D01*
X17856Y222196D02*
X27356D01*
X22606Y217446D02*
Y226946D01*
X17106Y210196D02*
Y234196D01*
X28106Y210196D02*
Y234196D01*
X17106Y210196D02*
X28106D01*
X17106Y234196D02*
X28106D01*
X304800Y83134D02*
Y92634D01*
X300050Y87884D02*
X309550D01*
X292800Y93384D02*
X316800D01*
X292800Y82384D02*
X316800D01*
X292800D02*
Y93384D01*
X316800Y82384D02*
Y93384D01*
X324942Y64008D02*
X334442D01*
X329692Y59258D02*
Y68758D01*
X324192Y52008D02*
Y76008D01*
X335192Y52008D02*
Y76008D01*
X324192Y52008D02*
X335192D01*
X324192Y76008D02*
X335192D01*
X299546Y66548D02*
X309546D01*
X304546Y61548D02*
Y71548D01*
X115646Y80867D02*
X125146D01*
X120396Y76117D02*
Y85617D01*
X125896Y68867D02*
Y92867D01*
X114896Y68867D02*
Y92867D01*
X125896D01*
X114896Y68867D02*
X125896D01*
X504893Y240008D02*
X514394D01*
X509644Y235258D02*
Y244758D01*
X515144Y228008D02*
Y252008D01*
X504143Y228008D02*
Y252008D01*
X515144D01*
X504143Y228008D02*
X515144D01*
X459101Y249504D02*
X469102D01*
X464101Y244504D02*
Y254504D01*
X113854Y40712D02*
Y51712D01*
X89854Y40712D02*
Y51712D01*
X113854D01*
X89854Y40712D02*
X113854D01*
X97104Y46212D02*
X106604D01*
X101854Y41462D02*
Y50962D01*
X113854Y53174D02*
Y64174D01*
X89854Y53174D02*
Y64174D01*
X113854D01*
X89854Y53174D02*
X113854D01*
X97104Y58674D02*
X106604D01*
X101854Y53924D02*
Y63424D01*
X17480Y111426D02*
X28480D01*
X17480Y87426D02*
X28480D01*
Y111426D01*
X17480Y87426D02*
Y111426D01*
X22980Y94676D02*
Y104176D01*
X18230Y99426D02*
X27730D01*
X17150Y170964D02*
X28150D01*
X17150Y146964D02*
X28150D01*
Y170964D01*
X17150Y146964D02*
Y170964D01*
X22650Y154214D02*
Y163714D01*
X17900Y158964D02*
X27400D01*
X16903Y259996D02*
X27903D01*
X16903Y235996D02*
X27903D01*
Y259996D01*
X16903Y235996D02*
Y259996D01*
X22403Y243246D02*
Y252746D01*
X17653Y247996D02*
X27153D01*
X17448Y186129D02*
X26948D01*
X22198Y181379D02*
Y190879D01*
X16698Y174129D02*
Y198129D01*
X27698Y174129D02*
Y198129D01*
X16698Y174129D02*
X27698D01*
X16698Y198129D02*
X27698D01*
X18409Y125476D02*
X27909D01*
X23159Y120726D02*
Y130226D01*
X17659Y113476D02*
Y137476D01*
X28659Y113476D02*
Y137476D01*
X17659Y113476D02*
X28659D01*
X17659Y137476D02*
X28659D01*
D21*
X154496Y218190D02*
X156496D01*
X155496Y217190D02*
Y219190D01*
X166132Y265430D02*
X168132D01*
X167132Y264430D02*
Y266430D01*
X540274Y130810D02*
X542274D01*
X541274Y129810D02*
Y131810D01*
X545350Y217440D02*
Y219440D01*
X544350Y218440D02*
X546350D01*
X249190Y266700D02*
X251190D01*
X250190Y265700D02*
Y267700D01*
X249190Y256290D02*
X251190D01*
X250190Y255290D02*
Y257290D01*
X247666Y243586D02*
X249666D01*
X248666Y242586D02*
Y244586D01*
X247666Y230378D02*
X249666D01*
X248666Y229378D02*
Y231378D01*
X247666Y221996D02*
X249666D01*
X248666Y220996D02*
Y222996D01*
X574980Y162500D02*
Y164500D01*
X573980Y163500D02*
X575980D01*
X574980Y145990D02*
Y147990D01*
X573980Y146990D02*
X575980D01*
X574980Y129480D02*
Y131480D01*
X573980Y130480D02*
X575980D01*
X574980Y212030D02*
Y214030D01*
X573980Y213030D02*
X575980D01*
X574980Y195370D02*
Y197370D01*
X573980Y196370D02*
X575980D01*
X574980Y179010D02*
Y181010D01*
X573980Y180010D02*
X575980D01*
X322546Y53048D02*
Y80048D01*
X286546Y53048D02*
Y80048D01*
Y53048D02*
X322546D01*
X286546Y80048D02*
X322546D01*
X425102Y221504D02*
Y277504D01*
X503102Y221504D02*
Y277504D01*
X425102D02*
X503102D01*
X425102Y221504D02*
X503102D01*
M02*
