G04*
G04 #@! TF.GenerationSoftware,Altium Limited,Altium Designer,18.1.9 (240)*
G04*
G04 Layer_Color=32896*
%FSLAX44Y44*%
%MOMM*%
G71*
G01*
G75*
%ADD41C,1.6000*%
%ADD47C,0.1270*%
%ADD50C,0.2000*%
D41*
X585470Y293370D02*
X375920Y293370D01*
X370840Y506730D02*
Y440690D01*
Y506730D02*
X734060D01*
Y290830D01*
X635000Y290830D02*
X734060D01*
X370840Y417830D02*
Y457200D01*
X368810Y109220D02*
X368810Y361950D01*
X368050Y19072D02*
Y54610D01*
X645160Y293370D02*
X749300D01*
X370840D02*
X563880D01*
X368300Y125730D02*
Y293370D01*
X749300Y3810D02*
Y293370D01*
X368300Y3810D02*
X749300D01*
D47*
X111871Y315930D02*
Y348130D01*
X165871Y315930D02*
Y348130D01*
X30591Y315930D02*
Y348130D01*
X84591Y315930D02*
Y348130D01*
X193241Y315930D02*
Y348130D01*
X247241Y315930D02*
Y348130D01*
X165781Y201780D02*
Y233980D01*
X111781Y201780D02*
Y233980D01*
X84501Y201780D02*
Y233980D01*
X30501Y201780D02*
Y233980D01*
D50*
X167691Y371796D02*
X166025Y373462D01*
Y376794D01*
X167691Y378460D01*
X174356D01*
X176022Y376794D01*
Y373462D01*
X174356Y371796D01*
X176022Y368463D02*
Y365131D01*
Y366797D01*
X166025D01*
X167691Y368463D01*
Y360133D02*
X166025Y358466D01*
Y355134D01*
X167691Y353468D01*
X174356D01*
X176022Y355134D01*
Y358466D01*
X174356Y360133D01*
X167691D01*
X5131Y371796D02*
X3465Y373462D01*
Y376794D01*
X5131Y378460D01*
X11796D01*
X13462Y376794D01*
Y373462D01*
X11796Y371796D01*
Y368463D02*
X13462Y366797D01*
Y363465D01*
X11796Y361799D01*
X5131D01*
X3465Y363465D01*
Y366797D01*
X5131Y368463D01*
X6798D01*
X8464Y366797D01*
Y361799D01*
X86411Y371796D02*
X84745Y373462D01*
Y376794D01*
X86411Y378460D01*
X93076D01*
X94742Y376794D01*
Y373462D01*
X93076Y371796D01*
X86411Y368463D02*
X84745Y366797D01*
Y363465D01*
X86411Y361799D01*
X88077D01*
X89744Y363465D01*
X91410Y361799D01*
X93076D01*
X94742Y363465D01*
Y366797D01*
X93076Y368463D01*
X91410D01*
X89744Y366797D01*
X88077Y368463D01*
X86411D01*
X89744Y366797D02*
Y363465D01*
X86411Y257750D02*
X84745Y259416D01*
Y262748D01*
X86411Y264414D01*
X93076D01*
X94742Y262748D01*
Y259416D01*
X93076Y257750D01*
X84745Y254417D02*
Y247753D01*
X86411D01*
X93076Y254417D01*
X94742D01*
X5131Y257750D02*
X3465Y259416D01*
Y262748D01*
X5131Y264414D01*
X11796D01*
X13462Y262748D01*
Y259416D01*
X11796Y257750D01*
X3465Y247753D02*
X5131Y251085D01*
X8464Y254417D01*
X11796D01*
X13462Y252751D01*
Y249419D01*
X11796Y247753D01*
X10130D01*
X8464Y249419D01*
Y254417D01*
M02*
