G04*
G04 #@! TF.GenerationSoftware,Altium Limited,Altium Designer,18.1.9 (240)*
G04*
G04 Layer_Color=16711935*
%FSLAX44Y44*%
%MOMM*%
G71*
G01*
G75*
%ADD41C,1.6000*%
%ADD75C,2.6924*%
%ADD76C,2.0770*%
%ADD77C,5.6270*%
%ADD78R,7.1270X1.6270*%
D41*
X585470Y293370D02*
X375920Y293370D01*
X370840Y506730D02*
Y440690D01*
Y506730D02*
X734060D01*
Y290830D01*
X635000Y290830D02*
X734060D01*
X370840Y417830D02*
Y457200D01*
X368810Y109220D02*
X368810Y361950D01*
X368050Y19072D02*
Y54610D01*
X645160Y293370D02*
X749300D01*
X370840D02*
X563880D01*
X368300Y125730D02*
Y293370D01*
X749300Y3810D02*
Y293370D01*
X368300Y3810D02*
X749300D01*
D75*
X604520Y444500D02*
D03*
Y402590D02*
D03*
X498800Y44175D02*
D03*
Y86085D02*
D03*
D76*
X466090Y365760D02*
D03*
X416090D02*
D03*
X465690Y457200D02*
D03*
X415690D02*
D03*
X225675Y63500D02*
D03*
X275675D02*
D03*
X225675Y422910D02*
D03*
X275675D02*
D03*
X545700Y249787D02*
D03*
X495700D02*
D03*
D77*
X408940Y155100D02*
D03*
X698500Y54610D02*
D03*
X708294Y252730D02*
D03*
D78*
X138871Y371030D02*
D03*
Y293030D02*
D03*
X57591Y371030D02*
D03*
Y293030D02*
D03*
X220241Y371030D02*
D03*
Y293030D02*
D03*
X138781Y178880D02*
D03*
Y256880D02*
D03*
X57501Y178880D02*
D03*
Y256880D02*
D03*
M02*
