M48
;Layer_Color=9474304
;FILE_FORMAT=4:4
METRIC,LZ
;TYPE=PLATED
T1F00S00C0.3000
T2F00S00C1.3000
T3F00S00C1.7780
%
T01
X00150301Y001397
X00159191
X00168081
X00136447Y00163506
X00153005Y00272254
X0022098Y002794
X0025654Y0027305
X0026289Y003302
X0027305Y0035052
X0028321
X002921
Y0036195
X0028321
X0027305
X0028513Y0031942
X0029845Y0032131
X0029337Y0022352
X0028575
X0027686
Y0021336
X0028575
X00347075Y00223885
X0035306Y0026289
X0050168Y0018161
X0051054Y0017653
X0051184Y001468
X0051744Y0012573
X00545845Y00130666
X00549755Y00138286
X0055849Y00159716
X00596207
X00595475Y00189086
X00542785
X00533722Y00086085
X006096Y0010033
X0060706Y0011303
X0046482Y0012573
X0053975Y003683
X00538784Y0037846
X005334Y0040259
X0054356Y0041275
X0052797Y00462946
X00527491Y00492371
X00557717Y00493014
X005588Y00463804
T02
X00225675Y000635
X00275675
X004957Y00249787
X005457
X0046609Y0036576
X0041609
X0041569Y004572
X0046569
X00275675Y0042291
X00225675
T03
X004988Y00044175
Y00086085
X0060452Y0040259
Y004445
M30
