G04*
G04 #@! TF.GenerationSoftware,Altium Limited,Altium Designer,18.1.6 (161)*
G04*
G04 Layer_Color=128*
%FSLAX44Y44*%
%MOMM*%
G71*
G01*
G75*
%ADD14C,0.4064*%
%ADD15O,2.1000X0.4500*%
%ADD16R,0.5000X0.6000*%
%ADD17R,0.6000X0.5000*%
%ADD18R,0.6000X0.5500*%
%ADD20R,0.9000X0.8000*%
%ADD21R,0.5500X0.6000*%
%ADD23R,0.8000X0.9000*%
%ADD55R,1.0000X0.4700*%
%ADD56R,1.0000X1.8000*%
%ADD57R,1.3500X0.4500*%
%ADD58R,1.4500X0.3000*%
%ADD59R,0.5080X2.7940*%
%ADD60R,0.7620X1.1938*%
%ADD61R,0.8128X0.3048*%
%ADD62R,0.4700X1.0000*%
%ADD63R,0.9000X0.7000*%
%ADD64R,2.6000X1.1000*%
%ADD65R,0.7000X0.5000*%
%ADD66R,1.8000X1.2500*%
%ADD67R,0.7000X0.9000*%
%ADD68R,1.2500X1.8000*%
D14*
X709823Y364423D02*
Y405571D01*
X673755Y364423D02*
Y405571D01*
Y364423D02*
X709823D01*
X673755Y405571D02*
X709823D01*
X1161070Y469144D02*
Y505212D01*
X1119922Y469144D02*
Y505212D01*
X1161070D01*
X1119922Y469144D02*
X1161070D01*
X1119462Y36328D02*
Y72396D01*
X1160610Y36328D02*
Y72396D01*
X1119462Y36328D02*
X1160610D01*
X1119462Y72396D02*
X1160610D01*
X980222Y79820D02*
Y115888D01*
X939074Y79820D02*
Y115888D01*
X980222D01*
X939074Y79820D02*
X980222D01*
X878862Y36016D02*
Y72084D01*
X920010Y36016D02*
Y72084D01*
X878862Y36016D02*
X920010D01*
X878862Y72084D02*
X920010D01*
X860496Y79396D02*
Y115464D01*
X819348Y79396D02*
Y115464D01*
X860496D01*
X819348Y79396D02*
X860496D01*
X999760Y36469D02*
Y72537D01*
X1040908Y36469D02*
Y72537D01*
X999760Y36469D02*
X1040908D01*
X999760Y72537D02*
X1040908D01*
X1100618Y79762D02*
Y115830D01*
X1059470Y79762D02*
Y115830D01*
X1100618D01*
X1059470Y79762D02*
X1100618D01*
X939546Y425374D02*
Y461442D01*
X980694Y425374D02*
Y461442D01*
X939546Y425374D02*
X980694D01*
X939546Y461442D02*
X980694D01*
X920540Y468718D02*
Y504786D01*
X879392Y468718D02*
Y504786D01*
X920540D01*
X879392Y468718D02*
X920540D01*
X800109Y469199D02*
Y505267D01*
X758961Y469199D02*
Y505267D01*
X800109D01*
X758961Y469199D02*
X800109D01*
X674056Y176040D02*
X710124D01*
X674056Y134892D02*
X710124D01*
X674056D02*
Y176040D01*
X710124Y134892D02*
Y176040D01*
X569610Y133605D02*
X605678D01*
X569610Y174753D02*
X605678D01*
Y133605D02*
Y174753D01*
X569610Y133605D02*
Y174753D01*
X759730Y36494D02*
Y72562D01*
X800878Y36494D02*
Y72562D01*
X759730Y36494D02*
X800878D01*
X759730Y72562D02*
X800878D01*
X1040868Y468884D02*
Y504952D01*
X999720Y468884D02*
Y504952D01*
X1040868D01*
X999720Y468884D02*
X1040868D01*
X819682Y424942D02*
Y461010D01*
X860830Y424942D02*
Y461010D01*
X819682Y424942D02*
X860830D01*
X819682Y461010D02*
X860830D01*
X570418Y364893D02*
X606486D01*
X570418Y406041D02*
X606486D01*
Y364893D02*
Y406041D01*
X570418Y364893D02*
Y406041D01*
X1059410Y424942D02*
Y461010D01*
X1100558Y424942D02*
Y461010D01*
X1059410Y424942D02*
X1100558D01*
X1059410Y461010D02*
X1100558D01*
X340090Y80094D02*
Y116162D01*
X298942Y80094D02*
Y116162D01*
X340090D01*
X298942Y80094D02*
X340090D01*
X459978Y79708D02*
Y115776D01*
X418830Y79708D02*
Y115776D01*
X459978D01*
X418830Y79708D02*
X459978D01*
X49352Y134185D02*
X85420D01*
X49352Y175333D02*
X85420D01*
Y134185D02*
Y175333D01*
X49352Y134185D02*
Y175333D01*
X220650Y78546D02*
Y114614D01*
X179502Y78546D02*
Y114614D01*
X220650D01*
X179502Y78546D02*
X220650D01*
X359166Y36469D02*
Y72537D01*
X400314Y36469D02*
Y72537D01*
X359166Y36469D02*
X400314D01*
X359166Y72537D02*
X400314D01*
X479622Y36469D02*
Y72537D01*
X520770Y36469D02*
Y72537D01*
X479622Y36469D02*
X520770D01*
X479622Y72537D02*
X520770D01*
X119704Y35544D02*
Y71612D01*
X160852Y35544D02*
Y71612D01*
X119704Y35544D02*
X160852D01*
X119704Y71612D02*
X160852D01*
X238322Y35544D02*
Y71612D01*
X279470Y35544D02*
Y71612D01*
X238322Y35544D02*
X279470D01*
X238322Y71612D02*
X279470D01*
X280138Y469724D02*
Y505792D01*
X238990Y469724D02*
Y505792D01*
X280138D01*
X238990Y469724D02*
X280138D01*
X401490Y468630D02*
Y504698D01*
X360342Y468630D02*
Y504698D01*
X401490D01*
X360342Y468630D02*
X401490D01*
X521124Y468424D02*
Y504492D01*
X479976Y468424D02*
Y504492D01*
X521124D01*
X479976Y468424D02*
X521124D01*
X48000Y364320D02*
X84068D01*
X48000Y405468D02*
X84068D01*
Y364320D02*
Y405468D01*
X48000Y364320D02*
Y405468D01*
X299490Y425704D02*
Y461772D01*
X340638Y425704D02*
Y461772D01*
X299490Y425704D02*
X340638D01*
X299490Y461772D02*
X340638D01*
X420394Y424688D02*
Y460756D01*
X461542Y424688D02*
Y460756D01*
X420394Y424688D02*
X461542D01*
X420394Y460756D02*
X461542D01*
X179086Y425368D02*
Y461436D01*
X220234Y425368D02*
Y461436D01*
X179086Y425368D02*
X220234D01*
X179086Y461436D02*
X220234D01*
X159248Y468906D02*
Y504974D01*
X118100Y468906D02*
Y504974D01*
X159248D01*
X118100Y468906D02*
X159248D01*
D15*
X957139Y325776D02*
D03*
Y332276D02*
D03*
Y338776D02*
D03*
Y345276D02*
D03*
Y351776D02*
D03*
Y358276D02*
D03*
Y364776D02*
D03*
Y371276D02*
D03*
X1026139Y325776D02*
D03*
Y332276D02*
D03*
Y338776D02*
D03*
Y345276D02*
D03*
Y351776D02*
D03*
Y358276D02*
D03*
Y364776D02*
D03*
Y371276D02*
D03*
X842934Y366822D02*
D03*
Y360322D02*
D03*
Y353822D02*
D03*
Y347322D02*
D03*
Y340822D02*
D03*
Y334322D02*
D03*
Y327822D02*
D03*
Y321322D02*
D03*
X773934Y366822D02*
D03*
Y360322D02*
D03*
Y353822D02*
D03*
Y347322D02*
D03*
Y340822D02*
D03*
Y334322D02*
D03*
Y327822D02*
D03*
Y321322D02*
D03*
X395732Y366302D02*
D03*
Y359802D02*
D03*
Y353302D02*
D03*
Y346802D02*
D03*
Y340302D02*
D03*
Y333802D02*
D03*
Y327302D02*
D03*
Y320802D02*
D03*
X326732Y366302D02*
D03*
Y359802D02*
D03*
Y353302D02*
D03*
Y346802D02*
D03*
Y340302D02*
D03*
Y333802D02*
D03*
Y327302D02*
D03*
Y320802D02*
D03*
X215554Y356662D02*
D03*
Y350162D02*
D03*
Y343662D02*
D03*
Y337162D02*
D03*
Y330662D02*
D03*
Y324162D02*
D03*
Y317662D02*
D03*
Y311162D02*
D03*
X146554Y356662D02*
D03*
Y350162D02*
D03*
Y343662D02*
D03*
Y337162D02*
D03*
Y330662D02*
D03*
Y324162D02*
D03*
Y317662D02*
D03*
Y311162D02*
D03*
X140458Y159607D02*
D03*
Y166106D02*
D03*
Y172607D02*
D03*
Y179107D02*
D03*
Y185606D02*
D03*
Y192106D02*
D03*
Y198606D02*
D03*
Y205107D02*
D03*
X209458Y159607D02*
D03*
Y166106D02*
D03*
Y172607D02*
D03*
Y179107D02*
D03*
Y185606D02*
D03*
Y192106D02*
D03*
Y198606D02*
D03*
Y205107D02*
D03*
X330644Y190179D02*
D03*
Y196679D02*
D03*
Y203179D02*
D03*
Y209679D02*
D03*
Y216179D02*
D03*
Y222679D02*
D03*
Y229179D02*
D03*
Y235679D02*
D03*
X399644Y190179D02*
D03*
Y196679D02*
D03*
Y203179D02*
D03*
Y209679D02*
D03*
Y216179D02*
D03*
Y222679D02*
D03*
Y229179D02*
D03*
Y235679D02*
D03*
X842996Y204966D02*
D03*
Y198466D02*
D03*
Y191966D02*
D03*
Y185466D02*
D03*
Y178966D02*
D03*
Y172466D02*
D03*
Y165966D02*
D03*
Y159466D02*
D03*
X773996Y204966D02*
D03*
Y198466D02*
D03*
Y191966D02*
D03*
Y185466D02*
D03*
Y178966D02*
D03*
Y172466D02*
D03*
Y165966D02*
D03*
Y159466D02*
D03*
X1030722Y232885D02*
D03*
Y226385D02*
D03*
Y219885D02*
D03*
Y213385D02*
D03*
Y206885D02*
D03*
Y200385D02*
D03*
Y193885D02*
D03*
Y187385D02*
D03*
X961722Y232885D02*
D03*
Y226385D02*
D03*
Y219885D02*
D03*
Y213385D02*
D03*
Y206885D02*
D03*
Y200385D02*
D03*
Y193885D02*
D03*
Y187385D02*
D03*
X1100420Y246164D02*
D03*
Y252664D02*
D03*
Y259164D02*
D03*
Y265664D02*
D03*
Y272164D02*
D03*
Y278664D02*
D03*
Y285164D02*
D03*
Y291664D02*
D03*
X1169420Y246164D02*
D03*
Y252664D02*
D03*
Y259164D02*
D03*
Y265664D02*
D03*
Y272164D02*
D03*
Y278664D02*
D03*
Y285164D02*
D03*
Y291664D02*
D03*
D16*
X750000Y303500D02*
D03*
Y293500D02*
D03*
X759000Y303500D02*
D03*
Y293500D02*
D03*
X1232662Y220640D02*
D03*
Y210640D02*
D03*
X1234694Y327710D02*
D03*
Y337710D02*
D03*
X1116896Y528106D02*
D03*
Y518106D02*
D03*
X1159060Y528106D02*
D03*
Y518106D02*
D03*
X1163636Y13434D02*
D03*
Y23434D02*
D03*
X1121472Y13434D02*
D03*
Y23434D02*
D03*
X861822Y341710D02*
D03*
Y351710D02*
D03*
X1043373Y372148D02*
D03*
Y362148D02*
D03*
X936048Y138782D02*
D03*
Y128782D02*
D03*
X978212Y138782D02*
D03*
Y128782D02*
D03*
X923036Y13122D02*
D03*
Y23122D02*
D03*
X880872Y13122D02*
D03*
Y23122D02*
D03*
X816322Y138358D02*
D03*
Y128358D02*
D03*
X858486Y138358D02*
D03*
Y128358D02*
D03*
X1043934Y13575D02*
D03*
Y23575D02*
D03*
X1001770Y13575D02*
D03*
Y23575D02*
D03*
X1056444Y138724D02*
D03*
Y128724D02*
D03*
X1098608Y138724D02*
D03*
Y128724D02*
D03*
X983720Y402480D02*
D03*
Y412480D02*
D03*
X941556Y402480D02*
D03*
Y412480D02*
D03*
X876366Y527680D02*
D03*
Y517680D02*
D03*
X918530Y527680D02*
D03*
Y517680D02*
D03*
X755935Y528161D02*
D03*
Y518161D02*
D03*
X798099Y528161D02*
D03*
Y518161D02*
D03*
X803904Y13600D02*
D03*
Y23600D02*
D03*
X761740Y13600D02*
D03*
Y23600D02*
D03*
X996694Y527846D02*
D03*
Y517846D02*
D03*
X1038858Y527846D02*
D03*
Y517846D02*
D03*
X863856Y402048D02*
D03*
Y412048D02*
D03*
X821692Y402048D02*
D03*
Y412048D02*
D03*
X1103584Y402048D02*
D03*
Y412048D02*
D03*
X1061420Y402048D02*
D03*
Y412048D02*
D03*
X295916Y129056D02*
D03*
Y139056D02*
D03*
X338080Y129056D02*
D03*
Y139056D02*
D03*
X415804Y128670D02*
D03*
Y138670D02*
D03*
X457968Y128670D02*
D03*
Y138670D02*
D03*
X176476Y127508D02*
D03*
Y137508D02*
D03*
X218640Y127508D02*
D03*
Y137508D02*
D03*
X403340Y23575D02*
D03*
Y13575D02*
D03*
X361176Y23575D02*
D03*
Y13575D02*
D03*
X523796Y23575D02*
D03*
Y13575D02*
D03*
X481632Y23575D02*
D03*
Y13575D02*
D03*
X163878Y22650D02*
D03*
Y12650D02*
D03*
X121714Y22650D02*
D03*
Y12650D02*
D03*
X282496Y22650D02*
D03*
Y12650D02*
D03*
X240332Y22650D02*
D03*
Y12650D02*
D03*
X233408Y336198D02*
D03*
Y346198D02*
D03*
X235964Y518686D02*
D03*
Y528686D02*
D03*
X278128Y518686D02*
D03*
Y528686D02*
D03*
X357316Y517592D02*
D03*
Y527592D02*
D03*
X399480Y517592D02*
D03*
Y527592D02*
D03*
X476950Y517386D02*
D03*
Y527386D02*
D03*
X519114Y517386D02*
D03*
Y527386D02*
D03*
X343664Y412810D02*
D03*
Y402810D02*
D03*
X301500Y412810D02*
D03*
Y402810D02*
D03*
X464568Y411794D02*
D03*
Y401794D02*
D03*
X422404Y411794D02*
D03*
Y401794D02*
D03*
X223260Y412474D02*
D03*
Y402474D02*
D03*
X181096Y412474D02*
D03*
Y402474D02*
D03*
X115074Y517868D02*
D03*
Y527868D02*
D03*
X157238Y517868D02*
D03*
Y527868D02*
D03*
X1048654Y236140D02*
D03*
Y226140D02*
D03*
X412966Y367174D02*
D03*
Y357174D02*
D03*
X417576Y238934D02*
D03*
Y228934D02*
D03*
D17*
X1061894Y308864D02*
D03*
X1051894D02*
D03*
X903812Y381762D02*
D03*
X913812D02*
D03*
X939661Y357416D02*
D03*
X929661D02*
D03*
X914066Y315722D02*
D03*
X904066D02*
D03*
X766256Y374142D02*
D03*
X776256D02*
D03*
X430064Y304182D02*
D03*
X440064D02*
D03*
X275517Y375518D02*
D03*
X285517D02*
D03*
X309254Y352442D02*
D03*
X299254D02*
D03*
X283346Y312056D02*
D03*
X273346D02*
D03*
X138876Y363982D02*
D03*
X148876D02*
D03*
X142780Y212426D02*
D03*
X132780D02*
D03*
X279480Y181610D02*
D03*
X289480D02*
D03*
X280017Y246380D02*
D03*
X290017D02*
D03*
X313142Y220980D02*
D03*
X303142D02*
D03*
X430958Y173482D02*
D03*
X420958D02*
D03*
X766318Y212286D02*
D03*
X776318D02*
D03*
X910416Y244856D02*
D03*
X920416D02*
D03*
X919908Y176022D02*
D03*
X909908D02*
D03*
X943276Y218440D02*
D03*
X933276D02*
D03*
X1047561Y167386D02*
D03*
X1037561D02*
D03*
X1173500Y238512D02*
D03*
X1163500D02*
D03*
X1211246Y321818D02*
D03*
X1201246D02*
D03*
X739750Y297750D02*
D03*
X729750D02*
D03*
X959411Y378324D02*
D03*
X949411D02*
D03*
X875204Y215240D02*
D03*
X865204D02*
D03*
X651162Y131866D02*
D03*
X661162D02*
D03*
X651162Y174030D02*
D03*
X661162D02*
D03*
X630001Y176521D02*
D03*
X620001D02*
D03*
X630001Y134357D02*
D03*
X620001D02*
D03*
X629380Y409067D02*
D03*
X619380D02*
D03*
X629380Y366903D02*
D03*
X619380D02*
D03*
X650861Y361397D02*
D03*
X660861D02*
D03*
X650861Y403561D02*
D03*
X660861D02*
D03*
X236394Y213039D02*
D03*
X226394D02*
D03*
X98314Y178358D02*
D03*
X108314D02*
D03*
X96962Y408494D02*
D03*
X106962D02*
D03*
X96962Y366330D02*
D03*
X106962D02*
D03*
X965628Y241808D02*
D03*
X955628D02*
D03*
X329004Y373350D02*
D03*
X319004D02*
D03*
X351844Y250190D02*
D03*
X341844D02*
D03*
X108314Y136194D02*
D03*
X98314D02*
D03*
D18*
X940816Y335618D02*
D03*
Y346118D02*
D03*
X309334Y328522D02*
D03*
Y339022D02*
D03*
X313690Y197950D02*
D03*
Y208450D02*
D03*
X246762Y204640D02*
D03*
Y194140D02*
D03*
X875284Y204132D02*
D03*
Y193632D02*
D03*
X944598Y196867D02*
D03*
Y207367D02*
D03*
X1120902Y221930D02*
D03*
Y232430D02*
D03*
X1080262Y268054D02*
D03*
Y278554D02*
D03*
X1216152Y175090D02*
D03*
Y185590D02*
D03*
X1212342Y365844D02*
D03*
Y376344D02*
D03*
X961443Y297302D02*
D03*
Y307802D02*
D03*
X861314Y330370D02*
D03*
Y319870D02*
D03*
X872236Y327998D02*
D03*
Y338498D02*
D03*
X972170Y161882D02*
D03*
Y172382D02*
D03*
X879094Y178732D02*
D03*
Y168232D02*
D03*
X243078Y322918D02*
D03*
Y333418D02*
D03*
X338836Y177970D02*
D03*
Y167470D02*
D03*
X246762Y184713D02*
D03*
Y174213D02*
D03*
X233172Y326814D02*
D03*
Y316314D02*
D03*
D20*
X1054333Y358908D02*
D03*
Y372908D02*
D03*
X542600Y288000D02*
D03*
Y274000D02*
D03*
X490750Y288000D02*
D03*
Y274000D02*
D03*
X423926Y367934D02*
D03*
Y353934D02*
D03*
X1243838Y205598D02*
D03*
Y219598D02*
D03*
X430022Y223886D02*
D03*
Y237886D02*
D03*
X168414Y527050D02*
D03*
Y513050D02*
D03*
X1061100Y235092D02*
D03*
Y221092D02*
D03*
X1110296Y14252D02*
D03*
Y28252D02*
D03*
X1170236Y527288D02*
D03*
Y513288D02*
D03*
X989388Y137964D02*
D03*
Y123964D02*
D03*
X990594Y14393D02*
D03*
Y28393D02*
D03*
X869696Y13940D02*
D03*
Y27940D02*
D03*
X1109784Y137906D02*
D03*
Y123906D02*
D03*
X869662Y137540D02*
D03*
Y123540D02*
D03*
X750564Y14418D02*
D03*
Y28418D02*
D03*
X930380Y403298D02*
D03*
Y417298D02*
D03*
X1050034Y527028D02*
D03*
Y513028D02*
D03*
X929706Y526862D02*
D03*
Y512862D02*
D03*
X1050244Y402866D02*
D03*
Y416866D02*
D03*
X810516Y402866D02*
D03*
Y416866D02*
D03*
X809275Y527343D02*
D03*
Y513343D02*
D03*
X410656Y526774D02*
D03*
Y512774D02*
D03*
X530290Y526568D02*
D03*
Y512568D02*
D03*
X290324Y403628D02*
D03*
Y417628D02*
D03*
X411228Y402612D02*
D03*
Y416612D02*
D03*
X289304Y527868D02*
D03*
Y513868D02*
D03*
X169920Y403292D02*
D03*
Y417292D02*
D03*
X350000Y28393D02*
D03*
Y14393D02*
D03*
X349256Y124238D02*
D03*
Y138238D02*
D03*
X469144Y123852D02*
D03*
Y137852D02*
D03*
X470456Y28393D02*
D03*
Y14393D02*
D03*
X229156Y27468D02*
D03*
Y13468D02*
D03*
X110538Y27468D02*
D03*
Y13468D02*
D03*
X229816Y122690D02*
D03*
Y136690D02*
D03*
D21*
X1119672Y331078D02*
D03*
X1109172D02*
D03*
X649000Y327660D02*
D03*
X659500D02*
D03*
Y337250D02*
D03*
X649000D02*
D03*
X1209750Y265250D02*
D03*
X1220250D02*
D03*
X1209750Y252750D02*
D03*
X1220250D02*
D03*
X467077Y296164D02*
D03*
X477577D02*
D03*
X1222418Y354114D02*
D03*
X1211918D02*
D03*
D23*
X904606Y304038D02*
D03*
X918606D02*
D03*
X274140Y300626D02*
D03*
X288140D02*
D03*
X280020Y170180D02*
D03*
X294020D02*
D03*
X910702Y165308D02*
D03*
X924702D02*
D03*
X1196452Y310388D02*
D03*
X1210452D02*
D03*
X1172494Y228250D02*
D03*
X1158494D02*
D03*
X1066830Y319532D02*
D03*
X1052830D02*
D03*
X1047608Y178642D02*
D03*
X1061608D02*
D03*
X436006Y184404D02*
D03*
X422006D02*
D03*
X425016Y315104D02*
D03*
X439016D02*
D03*
X785654Y223208D02*
D03*
X799654D02*
D03*
X785592Y385064D02*
D03*
X799592D02*
D03*
X651980Y185206D02*
D03*
X665980D02*
D03*
X629183Y123181D02*
D03*
X615183D02*
D03*
X651679Y414737D02*
D03*
X665679D02*
D03*
X628562Y355727D02*
D03*
X614562D02*
D03*
X158212Y374904D02*
D03*
X172212D02*
D03*
X106144Y355154D02*
D03*
X92144D02*
D03*
X166116Y223349D02*
D03*
X152116D02*
D03*
X93496Y125019D02*
D03*
X107496D02*
D03*
D55*
X1055565Y337858D02*
D03*
X1073565Y344358D02*
D03*
Y331358D02*
D03*
X1055565Y344358D02*
D03*
Y331358D02*
D03*
X913071Y365840D02*
D03*
X895071Y359340D02*
D03*
Y372340D02*
D03*
X913071Y359340D02*
D03*
Y372340D02*
D03*
X425158Y332884D02*
D03*
X443158Y339384D02*
D03*
Y326384D02*
D03*
X425158Y339384D02*
D03*
Y326384D02*
D03*
X282664Y360866D02*
D03*
X264664Y354366D02*
D03*
Y367366D02*
D03*
X282664Y354366D02*
D03*
Y367366D02*
D03*
X288290Y237640D02*
D03*
Y224640D02*
D03*
X270290Y237640D02*
D03*
Y224640D02*
D03*
X288290Y231140D02*
D03*
X421386Y201168D02*
D03*
X439386Y207668D02*
D03*
Y194668D02*
D03*
X421386D02*
D03*
Y207668D02*
D03*
X918938Y228450D02*
D03*
X900938Y221950D02*
D03*
Y234950D02*
D03*
X918938Y221950D02*
D03*
Y234950D02*
D03*
X1052464Y198374D02*
D03*
X1070464Y204874D02*
D03*
Y191874D02*
D03*
X1052464Y204874D02*
D03*
Y191874D02*
D03*
X1202182Y337578D02*
D03*
X1220182Y344078D02*
D03*
Y331078D02*
D03*
X1202182Y344078D02*
D03*
Y331078D02*
D03*
X1147122Y529352D02*
D03*
Y516352D02*
D03*
X1129122Y529352D02*
D03*
Y516352D02*
D03*
X1147122Y522852D02*
D03*
X1133410Y12188D02*
D03*
Y25188D02*
D03*
X1151410Y12188D02*
D03*
Y25188D02*
D03*
X1133410Y18688D02*
D03*
X786161Y522907D02*
D03*
X768161Y516407D02*
D03*
Y529407D02*
D03*
X786161Y516407D02*
D03*
Y529407D02*
D03*
X966274Y140028D02*
D03*
Y127028D02*
D03*
X948274Y140028D02*
D03*
Y127028D02*
D03*
X966274Y133528D02*
D03*
X892810Y11876D02*
D03*
Y24876D02*
D03*
X910810Y11876D02*
D03*
Y24876D02*
D03*
X892810Y18376D02*
D03*
X846548Y139604D02*
D03*
Y126604D02*
D03*
X828548Y139604D02*
D03*
Y126604D02*
D03*
X846548Y133104D02*
D03*
X1013708Y12329D02*
D03*
Y25329D02*
D03*
X1031708Y12329D02*
D03*
Y25329D02*
D03*
X1013708Y18829D02*
D03*
X1086670Y139970D02*
D03*
Y126970D02*
D03*
X1068670Y139970D02*
D03*
Y126970D02*
D03*
X1086670Y133470D02*
D03*
X953494Y401234D02*
D03*
Y414234D02*
D03*
X971494Y401234D02*
D03*
Y414234D02*
D03*
X953494Y407734D02*
D03*
X906592Y528926D02*
D03*
Y515926D02*
D03*
X888592Y528926D02*
D03*
Y515926D02*
D03*
X906592Y522426D02*
D03*
X773678Y12354D02*
D03*
Y25354D02*
D03*
X791678Y12354D02*
D03*
Y25354D02*
D03*
X773678Y18854D02*
D03*
X1026920Y529092D02*
D03*
Y516092D02*
D03*
X1008920Y529092D02*
D03*
Y516092D02*
D03*
X1026920Y522592D02*
D03*
X833630Y400802D02*
D03*
Y413802D02*
D03*
X851630Y400802D02*
D03*
Y413802D02*
D03*
X833630Y407302D02*
D03*
X1073358Y400802D02*
D03*
Y413802D02*
D03*
X1091358Y400802D02*
D03*
Y413802D02*
D03*
X1073358Y407302D02*
D03*
X326142Y133802D02*
D03*
X308142Y127302D02*
D03*
Y140302D02*
D03*
X326142Y127302D02*
D03*
Y140302D02*
D03*
X446030Y133416D02*
D03*
X428030Y126916D02*
D03*
Y139916D02*
D03*
X446030Y126916D02*
D03*
Y139916D02*
D03*
X206702Y132254D02*
D03*
X188702Y125754D02*
D03*
Y138754D02*
D03*
X206702Y125754D02*
D03*
Y138754D02*
D03*
X373114Y18829D02*
D03*
X391114Y25329D02*
D03*
Y12329D02*
D03*
X373114Y25329D02*
D03*
Y12329D02*
D03*
X493570Y18829D02*
D03*
X511570Y25329D02*
D03*
Y12329D02*
D03*
X493570Y25329D02*
D03*
Y12329D02*
D03*
X133652Y17904D02*
D03*
X151652Y24404D02*
D03*
Y11404D02*
D03*
X133652Y24404D02*
D03*
Y11404D02*
D03*
X252270Y17904D02*
D03*
X270270Y24404D02*
D03*
Y11404D02*
D03*
X252270Y24404D02*
D03*
Y11404D02*
D03*
X266190Y523432D02*
D03*
X248190Y516932D02*
D03*
Y529932D02*
D03*
X266190Y516932D02*
D03*
Y529932D02*
D03*
X387542Y522338D02*
D03*
X369542Y515838D02*
D03*
Y528838D02*
D03*
X387542Y515838D02*
D03*
Y528838D02*
D03*
X507176Y522132D02*
D03*
X489176Y515632D02*
D03*
Y528632D02*
D03*
X507176Y515632D02*
D03*
Y528632D02*
D03*
X313438Y408064D02*
D03*
X331438Y414564D02*
D03*
Y401564D02*
D03*
X313438Y414564D02*
D03*
Y401564D02*
D03*
X434342Y407048D02*
D03*
X452342Y413548D02*
D03*
Y400548D02*
D03*
X434342Y413548D02*
D03*
Y400548D02*
D03*
X193034Y407728D02*
D03*
X211034Y414228D02*
D03*
Y401228D02*
D03*
X193034Y414228D02*
D03*
Y401228D02*
D03*
X145300Y522614D02*
D03*
X127300Y516114D02*
D03*
Y529114D02*
D03*
X145300Y516114D02*
D03*
Y529114D02*
D03*
D56*
X974739Y302886D02*
D03*
X999739D02*
D03*
X344332Y297912D02*
D03*
X369332D02*
D03*
X352498Y168656D02*
D03*
X377498D02*
D03*
X986482Y165608D02*
D03*
X1011482D02*
D03*
D57*
X926279Y346240D02*
D03*
Y339740D02*
D03*
Y333240D02*
D03*
Y326740D02*
D03*
X886779Y346240D02*
D03*
Y339740D02*
D03*
Y333240D02*
D03*
Y326740D02*
D03*
X295872Y341266D02*
D03*
Y334766D02*
D03*
Y328266D02*
D03*
Y321766D02*
D03*
X256372Y341266D02*
D03*
Y334766D02*
D03*
Y328266D02*
D03*
Y321766D02*
D03*
X260840Y191620D02*
D03*
Y198120D02*
D03*
Y204620D02*
D03*
Y211120D02*
D03*
X300340Y191620D02*
D03*
Y198120D02*
D03*
Y204620D02*
D03*
Y211120D02*
D03*
X929516Y208326D02*
D03*
Y201826D02*
D03*
Y195326D02*
D03*
Y188826D02*
D03*
X890016Y208326D02*
D03*
Y201826D02*
D03*
Y195326D02*
D03*
Y188826D02*
D03*
D58*
X691757Y305500D02*
D03*
Y310500D02*
D03*
Y315500D02*
D03*
Y320500D02*
D03*
Y325500D02*
D03*
X735757Y305500D02*
D03*
Y310500D02*
D03*
Y315500D02*
D03*
Y320500D02*
D03*
Y325500D02*
D03*
D59*
X582850Y219680D02*
D03*
Y260320D02*
D03*
X595550Y219680D02*
D03*
Y260320D02*
D03*
X608250Y219680D02*
D03*
Y260320D02*
D03*
X620950Y219680D02*
D03*
Y260320D02*
D03*
X633650Y219680D02*
D03*
Y260320D02*
D03*
X646350Y219680D02*
D03*
Y260320D02*
D03*
X659050Y219680D02*
D03*
Y260320D02*
D03*
X671750Y219680D02*
D03*
Y260320D02*
D03*
X684450Y219680D02*
D03*
Y260320D02*
D03*
X697150Y219680D02*
D03*
Y260320D02*
D03*
D60*
X516430Y281896D02*
D03*
D61*
X527860Y275292D02*
D03*
Y281896D02*
D03*
Y288500D02*
D03*
X505000D02*
D03*
Y281896D02*
D03*
Y275292D02*
D03*
D62*
X1212746Y200886D02*
D03*
X1206246Y218886D02*
D03*
X1219246D02*
D03*
X1206246Y200886D02*
D03*
X1219246D02*
D03*
X649916Y162092D02*
D03*
X662916D02*
D03*
X649916Y144092D02*
D03*
X662916D02*
D03*
X656416Y162092D02*
D03*
X631247Y146295D02*
D03*
X618247D02*
D03*
X631247Y164295D02*
D03*
X618247D02*
D03*
X624747Y146295D02*
D03*
X630626Y378841D02*
D03*
X617626D02*
D03*
X630626Y396841D02*
D03*
X617626D02*
D03*
X624126Y378841D02*
D03*
X649615Y391623D02*
D03*
X662615D02*
D03*
X649615Y373623D02*
D03*
X662615D02*
D03*
X656115Y391623D02*
D03*
X101708Y378268D02*
D03*
X95208Y396268D02*
D03*
X108208D02*
D03*
X95208Y378268D02*
D03*
X108208D02*
D03*
X109560Y148132D02*
D03*
X96560D02*
D03*
X109560Y166133D02*
D03*
X96560D02*
D03*
X103060Y148132D02*
D03*
D63*
X1245616Y328034D02*
D03*
Y343034D02*
D03*
X1105997Y512558D02*
D03*
Y527558D02*
D03*
X1174535Y28982D02*
D03*
Y13982D02*
D03*
X925149Y123234D02*
D03*
Y138234D02*
D03*
X933935Y28670D02*
D03*
Y13670D02*
D03*
X805423Y122810D02*
D03*
Y137810D02*
D03*
X1054833Y29123D02*
D03*
Y14123D02*
D03*
X1045545Y123176D02*
D03*
Y138176D02*
D03*
X994619Y418028D02*
D03*
Y403028D02*
D03*
X865467Y512132D02*
D03*
Y527132D02*
D03*
X745036Y512613D02*
D03*
Y527613D02*
D03*
X814803Y29148D02*
D03*
Y14148D02*
D03*
X985795Y512298D02*
D03*
Y527298D02*
D03*
X874755Y417596D02*
D03*
Y402596D02*
D03*
X1114483Y417596D02*
D03*
Y402596D02*
D03*
X285017Y138508D02*
D03*
Y123508D02*
D03*
X404905Y138122D02*
D03*
Y123122D02*
D03*
X165577Y136960D02*
D03*
Y121960D02*
D03*
X414239Y14123D02*
D03*
Y29123D02*
D03*
X534695Y14123D02*
D03*
Y29123D02*
D03*
X174777Y13198D02*
D03*
Y28198D02*
D03*
X293395Y13198D02*
D03*
Y28198D02*
D03*
X225065Y528138D02*
D03*
Y513138D02*
D03*
X346417Y527044D02*
D03*
Y512044D02*
D03*
X466051Y526838D02*
D03*
Y511838D02*
D03*
X354563Y403358D02*
D03*
Y418358D02*
D03*
X475467Y402342D02*
D03*
Y417342D02*
D03*
X234159Y403022D02*
D03*
Y418022D02*
D03*
X104175Y527320D02*
D03*
Y512320D02*
D03*
D64*
X1175258Y340398D02*
D03*
Y313398D02*
D03*
D65*
X955160Y68896D02*
D03*
X962660Y36896D02*
D03*
X962821Y472001D02*
D03*
X955321Y504001D02*
D03*
X383928Y425706D02*
D03*
X376428Y457706D02*
D03*
X374964Y115737D02*
D03*
X382464Y83737D02*
D03*
X1015298Y117067D02*
D03*
X1022798Y85067D02*
D03*
X1023306Y425960D02*
D03*
X1015806Y457960D02*
D03*
X503562Y425500D02*
D03*
X496062Y457500D02*
D03*
X434908Y66162D02*
D03*
X442408Y34162D02*
D03*
X895071Y116578D02*
D03*
X902571Y84578D02*
D03*
X905002Y424188D02*
D03*
X897502Y456188D02*
D03*
X324552Y472696D02*
D03*
X317052Y504696D02*
D03*
X315271Y66548D02*
D03*
X322771Y34548D02*
D03*
X1075556Y68838D02*
D03*
X1083056Y36838D02*
D03*
X1084472Y471934D02*
D03*
X1076972Y503934D02*
D03*
X443432Y473286D02*
D03*
X435932Y505286D02*
D03*
X495420Y115737D02*
D03*
X502920Y83737D02*
D03*
X835434Y68472D02*
D03*
X842934Y36472D02*
D03*
X726754Y402588D02*
D03*
X734254Y370588D02*
D03*
X27626Y369572D02*
D03*
X20126Y401572D02*
D03*
X254120Y114812D02*
D03*
X261620Y82812D02*
D03*
X734956Y137918D02*
D03*
X727456Y169918D02*
D03*
X844744Y471934D02*
D03*
X837244Y503934D02*
D03*
X262576Y426800D02*
D03*
X255076Y458800D02*
D03*
X28896Y139702D02*
D03*
X21396Y171702D02*
D03*
X1135000Y116926D02*
D03*
X1142500Y84926D02*
D03*
X552390Y136570D02*
D03*
X544890Y168570D02*
D03*
X784098Y425712D02*
D03*
X776598Y457712D02*
D03*
X204156Y474982D02*
D03*
X196656Y506982D02*
D03*
X135502Y114812D02*
D03*
X143002Y82812D02*
D03*
X1143508Y426220D02*
D03*
X1136008Y458220D02*
D03*
X775268Y117092D02*
D03*
X782768Y85092D02*
D03*
X546100Y400720D02*
D03*
X553600Y368720D02*
D03*
X143450Y425706D02*
D03*
X135950Y457706D02*
D03*
X195580Y65000D02*
D03*
X203080Y33000D02*
D03*
D66*
X691789Y351747D02*
D03*
Y418247D02*
D03*
X692090Y188716D02*
D03*
Y122216D02*
D03*
X587644Y120929D02*
D03*
Y187429D02*
D03*
X588452Y352217D02*
D03*
Y418717D02*
D03*
X67386Y121509D02*
D03*
Y188008D02*
D03*
X66034Y351644D02*
D03*
Y418144D02*
D03*
D67*
X651710Y120967D02*
D03*
X666710D02*
D03*
X614453Y187420D02*
D03*
X629453D02*
D03*
X613832Y419966D02*
D03*
X628832D02*
D03*
X666409Y350498D02*
D03*
X651409D02*
D03*
X107766Y189258D02*
D03*
X92766D02*
D03*
X106414Y419393D02*
D03*
X91414D02*
D03*
D68*
X1173746Y487178D02*
D03*
X1107246D02*
D03*
X1106786Y54362D02*
D03*
X1173286D02*
D03*
X992898Y97854D02*
D03*
X926398D02*
D03*
X866186Y54050D02*
D03*
X932686D02*
D03*
X873172Y97430D02*
D03*
X806672D02*
D03*
X987084Y54503D02*
D03*
X1053584D02*
D03*
X1113294Y97796D02*
D03*
X1046794D02*
D03*
X926870Y443408D02*
D03*
X993370D02*
D03*
X933216Y486752D02*
D03*
X866716D02*
D03*
X812785Y487233D02*
D03*
X746285D02*
D03*
X747054Y54528D02*
D03*
X813554D02*
D03*
X1053544Y486918D02*
D03*
X987044D02*
D03*
X807006Y442976D02*
D03*
X873506D02*
D03*
X1046734D02*
D03*
X1113234D02*
D03*
X352766Y98128D02*
D03*
X286266D02*
D03*
X472654Y97742D02*
D03*
X406154D02*
D03*
X233326Y96580D02*
D03*
X166826D02*
D03*
X346490Y54503D02*
D03*
X412990D02*
D03*
X466946D02*
D03*
X533446D02*
D03*
X107028Y53578D02*
D03*
X173528D02*
D03*
X225646D02*
D03*
X292146D02*
D03*
X292814Y487758D02*
D03*
X226314D02*
D03*
X414166Y486664D02*
D03*
X347666D02*
D03*
X533800Y486458D02*
D03*
X467300D02*
D03*
X286814Y443738D02*
D03*
X353314D02*
D03*
X407718Y442722D02*
D03*
X474218D02*
D03*
X166410Y443402D02*
D03*
X232910D02*
D03*
X171924Y486940D02*
D03*
X105424D02*
D03*
M02*
