G04*
G04 #@! TF.GenerationSoftware,Altium Limited,Altium Designer,18.1.6 (161)*
G04*
G04 Layer_Physical_Order=2*
G04 Layer_Color=36540*
%FSLAX44Y44*%
%MOMM*%
G71*
G01*
G75*
%ADD14C,0.4064*%
%ADD49C,2.8000*%
%ADD51C,0.5588*%
G36*
X1277410Y2590D02*
X2590D01*
Y537410D01*
X1277410D01*
Y2590D01*
D02*
G37*
%LPC*%
G36*
X423904Y530918D02*
X422318Y530602D01*
X420974Y529704D01*
X420076Y528360D01*
X419760Y526774D01*
X420076Y525188D01*
X420974Y523844D01*
X422318Y522946D01*
X423904Y522630D01*
X425490Y522946D01*
X426834Y523844D01*
X427732Y525188D01*
X428048Y526774D01*
X427732Y528360D01*
X426834Y529704D01*
X425490Y530602D01*
X423904Y530918D01*
D02*
G37*
G36*
X301065Y529402D02*
X299479Y529086D01*
X298135Y528188D01*
X297237Y526844D01*
X296921Y525258D01*
X297237Y523672D01*
X298135Y522328D01*
X299479Y521430D01*
X301065Y521114D01*
X302651Y521430D01*
X303995Y522328D01*
X304893Y523672D01*
X305209Y525258D01*
X304893Y526844D01*
X303995Y528188D01*
X302651Y529086D01*
X301065Y529402D01*
D02*
G37*
G36*
X1181295Y529282D02*
X1179709Y528966D01*
X1178365Y528068D01*
X1177467Y526724D01*
X1177151Y525138D01*
X1177467Y523552D01*
X1178365Y522208D01*
X1179709Y521310D01*
X1181295Y520994D01*
X1182881Y521310D01*
X1184225Y522208D01*
X1185123Y523552D01*
X1185439Y525138D01*
X1185123Y526724D01*
X1184225Y528068D01*
X1182881Y528966D01*
X1181295Y529282D01*
D02*
G37*
G36*
X1061093Y529022D02*
X1059507Y528706D01*
X1058163Y527808D01*
X1057265Y526464D01*
X1056949Y524878D01*
X1057265Y523292D01*
X1058163Y521948D01*
X1059507Y521050D01*
X1061093Y520734D01*
X1062679Y521050D01*
X1064023Y521948D01*
X1064921Y523292D01*
X1065237Y524878D01*
X1064921Y526464D01*
X1064023Y527808D01*
X1062679Y528706D01*
X1061093Y529022D01*
D02*
G37*
G36*
X821036Y528876D02*
X819450Y528561D01*
X818106Y527663D01*
X817208Y526319D01*
X816892Y524733D01*
X817208Y523147D01*
X818106Y521803D01*
X819450Y520905D01*
X821036Y520589D01*
X822622Y520905D01*
X823966Y521803D01*
X824864Y523147D01*
X825180Y524733D01*
X824864Y526319D01*
X823966Y527663D01*
X822622Y528561D01*
X821036Y528876D01*
D02*
G37*
G36*
X180175Y528584D02*
X178589Y528268D01*
X177245Y527370D01*
X176347Y526026D01*
X176031Y524440D01*
X176347Y522854D01*
X177245Y521510D01*
X178589Y520612D01*
X180175Y520296D01*
X181761Y520612D01*
X183105Y521510D01*
X184003Y522854D01*
X184319Y524440D01*
X184003Y526026D01*
X183105Y527370D01*
X181761Y528268D01*
X180175Y528584D01*
D02*
G37*
G36*
X541349Y528562D02*
X539763Y528246D01*
X538419Y527348D01*
X537521Y526004D01*
X537205Y524418D01*
X537521Y522832D01*
X538419Y521488D01*
X539763Y520590D01*
X541349Y520274D01*
X542935Y520590D01*
X544279Y521488D01*
X545177Y522832D01*
X545493Y524418D01*
X545177Y526004D01*
X544279Y527348D01*
X542935Y528246D01*
X541349Y528562D01*
D02*
G37*
G36*
X941467Y528396D02*
X939881Y528080D01*
X938537Y527182D01*
X937639Y525838D01*
X937323Y524252D01*
X937639Y522666D01*
X938537Y521322D01*
X939881Y520424D01*
X941467Y520108D01*
X943053Y520424D01*
X944397Y521322D01*
X945295Y522666D01*
X945611Y524252D01*
X945295Y525838D01*
X944397Y527182D01*
X943053Y528080D01*
X941467Y528396D01*
D02*
G37*
G36*
X200406Y504176D02*
X196991Y503726D01*
X193809Y502408D01*
X191077Y500312D01*
X188980Y497579D01*
X187662Y494397D01*
X187212Y490982D01*
X187662Y487567D01*
X188980Y484385D01*
X191077Y481652D01*
X193809Y479556D01*
X196991Y478238D01*
X200406Y477788D01*
X203821Y478238D01*
X207003Y479556D01*
X209736Y481652D01*
X211832Y484385D01*
X213150Y487567D01*
X213600Y490982D01*
X213150Y494397D01*
X211832Y497579D01*
X209736Y500312D01*
X207003Y502408D01*
X203821Y503726D01*
X200406Y504176D01*
D02*
G37*
G36*
X439682Y502480D02*
X436267Y502030D01*
X433085Y500712D01*
X430353Y498615D01*
X428256Y495883D01*
X426938Y492701D01*
X426488Y489286D01*
X426938Y485871D01*
X428256Y482689D01*
X430353Y479957D01*
X433085Y477860D01*
X436267Y476542D01*
X439682Y476092D01*
X443097Y476542D01*
X446279Y477860D01*
X449011Y479957D01*
X451108Y482689D01*
X452426Y485871D01*
X452876Y489286D01*
X452426Y492701D01*
X451108Y495883D01*
X449011Y498615D01*
X446279Y500712D01*
X443097Y502030D01*
X439682Y502480D01*
D02*
G37*
G36*
X320802Y501890D02*
X317387Y501440D01*
X314205Y500122D01*
X311472Y498026D01*
X309376Y495293D01*
X308058Y492111D01*
X307608Y488696D01*
X308058Y485281D01*
X309376Y482099D01*
X311472Y479366D01*
X314205Y477270D01*
X317387Y475952D01*
X320802Y475502D01*
X324217Y475952D01*
X327399Y477270D01*
X330131Y479366D01*
X332228Y482099D01*
X333546Y485281D01*
X333996Y488696D01*
X333546Y492111D01*
X332228Y495293D01*
X330131Y498026D01*
X327399Y500122D01*
X324217Y501440D01*
X320802Y501890D01*
D02*
G37*
G36*
X959071Y501195D02*
X955656Y500745D01*
X952474Y499427D01*
X949742Y497330D01*
X947645Y494598D01*
X946327Y491416D01*
X945877Y488001D01*
X946327Y484586D01*
X947645Y481404D01*
X949742Y478671D01*
X952474Y476575D01*
X955656Y475257D01*
X959071Y474807D01*
X962486Y475257D01*
X965668Y476575D01*
X968400Y478671D01*
X970497Y481404D01*
X971815Y484586D01*
X972265Y488001D01*
X971815Y491416D01*
X970497Y494598D01*
X968400Y497330D01*
X965668Y499427D01*
X962486Y500745D01*
X959071Y501195D01*
D02*
G37*
G36*
X1080722Y501128D02*
X1077307Y500678D01*
X1074125Y499360D01*
X1071393Y497263D01*
X1069296Y494531D01*
X1067978Y491349D01*
X1067528Y487934D01*
X1067978Y484519D01*
X1069296Y481337D01*
X1071393Y478605D01*
X1074125Y476508D01*
X1077307Y475190D01*
X1080722Y474740D01*
X1084137Y475190D01*
X1087319Y476508D01*
X1090051Y478605D01*
X1092148Y481337D01*
X1093466Y484519D01*
X1093916Y487934D01*
X1093466Y491349D01*
X1092148Y494531D01*
X1090051Y497263D01*
X1087319Y499360D01*
X1084137Y500678D01*
X1080722Y501128D01*
D02*
G37*
G36*
X840994D02*
X837579Y500678D01*
X834397Y499360D01*
X831665Y497263D01*
X829568Y494531D01*
X828250Y491349D01*
X827800Y487934D01*
X828250Y484519D01*
X829568Y481337D01*
X831665Y478605D01*
X834397Y476508D01*
X837579Y475190D01*
X840994Y474740D01*
X844409Y475190D01*
X847591Y476508D01*
X850323Y478605D01*
X852420Y481337D01*
X853738Y484519D01*
X854188Y487934D01*
X853738Y491349D01*
X852420Y494531D01*
X850323Y497263D01*
X847591Y499360D01*
X844409Y500678D01*
X840994Y501128D01*
D02*
G37*
G36*
X306748Y478108D02*
X305162Y477792D01*
X303818Y476894D01*
X302920Y475550D01*
X302604Y473964D01*
X302920Y472378D01*
X303818Y471034D01*
X305162Y470136D01*
X306748Y469820D01*
X308334Y470136D01*
X309678Y471034D01*
X310576Y472378D01*
X310892Y473964D01*
X310576Y475550D01*
X309678Y476894D01*
X308334Y477792D01*
X306748Y478108D01*
D02*
G37*
G36*
X187198Y477854D02*
X185612Y477538D01*
X184268Y476640D01*
X183370Y475296D01*
X183054Y473710D01*
X183370Y472124D01*
X184268Y470780D01*
X185612Y469882D01*
X187198Y469566D01*
X188784Y469882D01*
X190128Y470780D01*
X191026Y472124D01*
X191342Y473710D01*
X191026Y475296D01*
X190128Y476640D01*
X188784Y477538D01*
X187198Y477854D01*
D02*
G37*
G36*
X426214Y476636D02*
X424628Y476320D01*
X423284Y475422D01*
X422386Y474078D01*
X422070Y472492D01*
X422386Y470906D01*
X423284Y469562D01*
X424628Y468664D01*
X426214Y468348D01*
X427800Y468664D01*
X429144Y469562D01*
X430042Y470906D01*
X430358Y472492D01*
X430042Y474078D01*
X429144Y475422D01*
X427800Y476320D01*
X426214Y476636D01*
D02*
G37*
G36*
X973248Y476578D02*
X971662Y476262D01*
X970318Y475364D01*
X969420Y474020D01*
X969104Y472434D01*
X969420Y470848D01*
X970318Y469504D01*
X971662Y468606D01*
X973248Y468290D01*
X974834Y468606D01*
X976178Y469504D01*
X977076Y470848D01*
X977392Y472434D01*
X977076Y474020D01*
X976178Y475364D01*
X974834Y476262D01*
X973248Y476578D01*
D02*
G37*
G36*
X854202D02*
X852616Y476262D01*
X851272Y475364D01*
X850374Y474020D01*
X850058Y472434D01*
X850374Y470848D01*
X851272Y469504D01*
X852616Y468606D01*
X854202Y468290D01*
X855788Y468606D01*
X857132Y469504D01*
X858030Y470848D01*
X858346Y472434D01*
X858030Y474020D01*
X857132Y475364D01*
X855788Y476262D01*
X854202Y476578D01*
D02*
G37*
G36*
X1093712Y475822D02*
X1092126Y475506D01*
X1090782Y474608D01*
X1089884Y473264D01*
X1089568Y471678D01*
X1089884Y470092D01*
X1090782Y468748D01*
X1092126Y467850D01*
X1093712Y467534D01*
X1095298Y467850D01*
X1096642Y468748D01*
X1097540Y470092D01*
X1097856Y471678D01*
X1097540Y473264D01*
X1096642Y474608D01*
X1095298Y475506D01*
X1093712Y475822D01*
D02*
G37*
G36*
X282064Y510348D02*
X237064D01*
X236073Y510151D01*
X235233Y509589D01*
X234671Y508749D01*
X234474Y507758D01*
Y467758D01*
X234671Y466767D01*
X235233Y465927D01*
X236073Y465365D01*
X237064Y465168D01*
X282064D01*
X283055Y465365D01*
X283895Y465927D01*
X284457Y466767D01*
X284654Y467758D01*
Y507758D01*
X284457Y508749D01*
X283895Y509589D01*
X283055Y510151D01*
X282064Y510348D01*
D02*
G37*
G36*
X802035Y509823D02*
X757035D01*
X756044Y509625D01*
X755204Y509064D01*
X754642Y508224D01*
X754445Y507233D01*
Y467233D01*
X754642Y466242D01*
X755204Y465401D01*
X756044Y464840D01*
X757035Y464643D01*
X802035D01*
X803026Y464840D01*
X803866Y465401D01*
X804428Y466242D01*
X804625Y467233D01*
Y507233D01*
X804428Y508224D01*
X803866Y509064D01*
X803026Y509625D01*
X802035Y509823D01*
D02*
G37*
G36*
X1162996Y509768D02*
X1117996D01*
X1117005Y509571D01*
X1116165Y509009D01*
X1115603Y508169D01*
X1115406Y507178D01*
Y467178D01*
X1115603Y466187D01*
X1116165Y465347D01*
X1117005Y464785D01*
X1117996Y464588D01*
X1162996D01*
X1163987Y464785D01*
X1164827Y465347D01*
X1165389Y466187D01*
X1165586Y467178D01*
Y507178D01*
X1165389Y508169D01*
X1164827Y509009D01*
X1163987Y509571D01*
X1162996Y509768D01*
D02*
G37*
G36*
X161174Y509530D02*
X116174D01*
X115183Y509333D01*
X114343Y508771D01*
X113781Y507931D01*
X113584Y506940D01*
Y466940D01*
X113781Y465949D01*
X114343Y465109D01*
X115183Y464547D01*
X116174Y464350D01*
X161174D01*
X162165Y464547D01*
X163005Y465109D01*
X163567Y465949D01*
X163764Y466940D01*
Y506940D01*
X163567Y507931D01*
X163005Y508771D01*
X162165Y509333D01*
X161174Y509530D01*
D02*
G37*
G36*
X1042794Y509508D02*
X997794D01*
X996803Y509311D01*
X995963Y508749D01*
X995401Y507909D01*
X995204Y506918D01*
Y466918D01*
X995401Y465927D01*
X995963Y465087D01*
X996803Y464525D01*
X997794Y464328D01*
X1042794D01*
X1043785Y464525D01*
X1044625Y465087D01*
X1045187Y465927D01*
X1045384Y466918D01*
Y506918D01*
X1045187Y507909D01*
X1044625Y508749D01*
X1043785Y509311D01*
X1042794Y509508D01*
D02*
G37*
G36*
X922466Y509342D02*
X877466D01*
X876475Y509145D01*
X875635Y508583D01*
X875073Y507743D01*
X874876Y506752D01*
Y466752D01*
X875073Y465761D01*
X875635Y464921D01*
X876475Y464359D01*
X877466Y464162D01*
X922466D01*
X923457Y464359D01*
X924297Y464921D01*
X924859Y465761D01*
X925056Y466752D01*
Y506752D01*
X924859Y507743D01*
X924297Y508583D01*
X923457Y509145D01*
X922466Y509342D01*
D02*
G37*
G36*
X403416Y509254D02*
X358416D01*
X357425Y509057D01*
X356585Y508495D01*
X356023Y507655D01*
X355826Y506664D01*
Y466664D01*
X356023Y465673D01*
X356585Y464833D01*
X357425Y464271D01*
X358416Y464074D01*
X403416D01*
X404407Y464271D01*
X405247Y464833D01*
X405809Y465673D01*
X406006Y466664D01*
Y506664D01*
X405809Y507655D01*
X405247Y508495D01*
X404407Y509057D01*
X403416Y509254D01*
D02*
G37*
G36*
X523050Y509048D02*
X478050D01*
X477059Y508851D01*
X476219Y508289D01*
X475657Y507449D01*
X475460Y506458D01*
Y466458D01*
X475657Y465467D01*
X476219Y464627D01*
X477059Y464065D01*
X478050Y463868D01*
X523050D01*
X524041Y464065D01*
X524881Y464627D01*
X525443Y465467D01*
X525640Y466458D01*
Y506458D01*
X525443Y507449D01*
X524881Y508289D01*
X524041Y508851D01*
X523050Y509048D01*
D02*
G37*
G36*
X1220000Y503867D02*
X1215093Y503480D01*
X1210307Y502332D01*
X1205760Y500448D01*
X1201563Y497876D01*
X1197820Y494680D01*
X1194624Y490937D01*
X1192052Y486740D01*
X1190169Y482193D01*
X1189019Y477407D01*
X1188633Y472500D01*
X1189019Y467593D01*
X1190169Y462807D01*
X1192052Y458260D01*
X1194624Y454063D01*
X1197820Y450320D01*
X1201563Y447124D01*
X1205760Y444552D01*
X1210307Y442668D01*
X1215093Y441520D01*
X1220000Y441133D01*
X1224907Y441520D01*
X1229693Y442668D01*
X1234240Y444552D01*
X1238437Y447124D01*
X1242180Y450320D01*
X1245376Y454063D01*
X1247948Y458260D01*
X1249831Y462807D01*
X1250981Y467593D01*
X1251367Y472500D01*
X1250981Y477407D01*
X1249831Y482193D01*
X1247948Y486740D01*
X1245376Y490937D01*
X1242180Y494680D01*
X1238437Y497876D01*
X1234240Y500448D01*
X1229693Y502332D01*
X1224907Y503480D01*
X1220000Y503867D01*
D02*
G37*
G36*
X700000D02*
X695093Y503480D01*
X690307Y502332D01*
X685760Y500448D01*
X681563Y497876D01*
X677820Y494680D01*
X674624Y490937D01*
X672052Y486740D01*
X670169Y482193D01*
X669019Y477407D01*
X668633Y472500D01*
X669019Y467593D01*
X670169Y462807D01*
X672052Y458260D01*
X674624Y454063D01*
X677820Y450320D01*
X681563Y447124D01*
X685760Y444552D01*
X690307Y442668D01*
X695093Y441520D01*
X700000Y441133D01*
X704907Y441520D01*
X709693Y442668D01*
X714240Y444552D01*
X718437Y447124D01*
X722180Y450320D01*
X725376Y454063D01*
X727948Y458260D01*
X729831Y462807D01*
X730981Y467593D01*
X731367Y472500D01*
X730981Y477407D01*
X729831Y482193D01*
X727948Y486740D01*
X725376Y490937D01*
X722180Y494680D01*
X718437Y497876D01*
X714240Y500448D01*
X709693Y502332D01*
X704907Y503480D01*
X700000Y503867D01*
D02*
G37*
G36*
X580000D02*
X575093Y503480D01*
X570307Y502332D01*
X565760Y500448D01*
X561563Y497876D01*
X557820Y494680D01*
X554624Y490937D01*
X552052Y486740D01*
X550168Y482193D01*
X549020Y477407D01*
X548633Y472500D01*
X549020Y467593D01*
X550168Y462807D01*
X552052Y458260D01*
X554624Y454063D01*
X557820Y450320D01*
X561563Y447124D01*
X565760Y444552D01*
X570307Y442668D01*
X575093Y441520D01*
X580000Y441133D01*
X584907Y441520D01*
X589693Y442668D01*
X594240Y444552D01*
X598437Y447124D01*
X602180Y450320D01*
X605376Y454063D01*
X607948Y458260D01*
X609832Y462807D01*
X610980Y467593D01*
X611367Y472500D01*
X610980Y477407D01*
X609832Y482193D01*
X607948Y486740D01*
X605376Y490937D01*
X602180Y494680D01*
X598437Y497876D01*
X594240Y500448D01*
X589693Y502332D01*
X584907Y503480D01*
X580000Y503867D01*
D02*
G37*
G36*
X60000D02*
X55093Y503480D01*
X50307Y502332D01*
X45760Y500448D01*
X41563Y497876D01*
X37820Y494680D01*
X34624Y490937D01*
X32052Y486740D01*
X30168Y482193D01*
X29019Y477407D01*
X28633Y472500D01*
X29019Y467593D01*
X30168Y462807D01*
X32052Y458260D01*
X34624Y454063D01*
X37820Y450320D01*
X41563Y447124D01*
X45760Y444552D01*
X50307Y442668D01*
X55093Y441520D01*
X60000Y441133D01*
X64907Y441520D01*
X69693Y442668D01*
X74240Y444552D01*
X78437Y447124D01*
X82180Y450320D01*
X85376Y454063D01*
X87948Y458260D01*
X89831Y462807D01*
X90981Y467593D01*
X91367Y472500D01*
X90981Y477407D01*
X89831Y482193D01*
X87948Y486740D01*
X85376Y490937D01*
X82180Y494680D01*
X78437Y497876D01*
X74240Y500448D01*
X69693Y502332D01*
X64907Y503480D01*
X60000Y503867D01*
D02*
G37*
G36*
X1170250Y452837D02*
X1168222Y452570D01*
X1166331Y451787D01*
X1164708Y450542D01*
X1163463Y448918D01*
X1162680Y447028D01*
X1162413Y445000D01*
X1162680Y442972D01*
X1163463Y441082D01*
X1164708Y439458D01*
X1166331Y438213D01*
X1168222Y437430D01*
X1170250Y437163D01*
X1172278Y437430D01*
X1174168Y438213D01*
X1175792Y439458D01*
X1177037Y441082D01*
X1177820Y442972D01*
X1178087Y445000D01*
X1177820Y447028D01*
X1177037Y448918D01*
X1175792Y450542D01*
X1174168Y451787D01*
X1172278Y452570D01*
X1170250Y452837D01*
D02*
G37*
G36*
X750250D02*
X748222Y452570D01*
X746331Y451787D01*
X744708Y450542D01*
X743463Y448918D01*
X742680Y447028D01*
X742413Y445000D01*
X742680Y442972D01*
X743463Y441082D01*
X744708Y439458D01*
X746331Y438213D01*
X748222Y437430D01*
X750250Y437163D01*
X752278Y437430D01*
X754168Y438213D01*
X755792Y439458D01*
X757037Y441082D01*
X757820Y442972D01*
X758087Y445000D01*
X757820Y447028D01*
X757037Y448918D01*
X755792Y450542D01*
X754168Y451787D01*
X752278Y452570D01*
X750250Y452837D01*
D02*
G37*
G36*
X530500D02*
X528472Y452570D01*
X526581Y451787D01*
X524958Y450542D01*
X523713Y448918D01*
X522930Y447028D01*
X522663Y445000D01*
X522930Y442972D01*
X523713Y441082D01*
X524958Y439458D01*
X526581Y438213D01*
X528472Y437430D01*
X530500Y437163D01*
X532528Y437430D01*
X534418Y438213D01*
X536042Y439458D01*
X537287Y441082D01*
X538070Y442972D01*
X538337Y445000D01*
X538070Y447028D01*
X537287Y448918D01*
X536042Y450542D01*
X534418Y451787D01*
X532528Y452570D01*
X530500Y452837D01*
D02*
G37*
G36*
X110500D02*
X108472Y452570D01*
X106581Y451787D01*
X104958Y450542D01*
X103713Y448918D01*
X102930Y447028D01*
X102663Y445000D01*
X102930Y442972D01*
X103713Y441082D01*
X104958Y439458D01*
X106581Y438213D01*
X108472Y437430D01*
X110500Y437163D01*
X112528Y437430D01*
X114418Y438213D01*
X116042Y439458D01*
X117287Y441082D01*
X118070Y442972D01*
X118337Y445000D01*
X118070Y447028D01*
X117287Y448918D01*
X116042Y450542D01*
X114418Y451787D01*
X112528Y452570D01*
X110500Y452837D01*
D02*
G37*
G36*
X258826Y455994D02*
X255411Y455544D01*
X252229Y454226D01*
X249496Y452130D01*
X247400Y449397D01*
X246082Y446215D01*
X245632Y442800D01*
X246082Y439385D01*
X247400Y436203D01*
X249496Y433471D01*
X252229Y431374D01*
X255411Y430056D01*
X258826Y429606D01*
X262241Y430056D01*
X265423Y431374D01*
X268155Y433471D01*
X270252Y436203D01*
X271570Y439385D01*
X272020Y442800D01*
X271570Y446215D01*
X270252Y449397D01*
X268155Y452130D01*
X265423Y454226D01*
X262241Y455544D01*
X258826Y455994D01*
D02*
G37*
G36*
X1139758Y455414D02*
X1136343Y454964D01*
X1133161Y453646D01*
X1130428Y451549D01*
X1128332Y448817D01*
X1127014Y445635D01*
X1126564Y442220D01*
X1127014Y438805D01*
X1128332Y435623D01*
X1130428Y432891D01*
X1133161Y430794D01*
X1136343Y429476D01*
X1139758Y429026D01*
X1143173Y429476D01*
X1146355Y430794D01*
X1149088Y432891D01*
X1151184Y435623D01*
X1152502Y438805D01*
X1152952Y442220D01*
X1152502Y445635D01*
X1151184Y448817D01*
X1149088Y451549D01*
X1146355Y453646D01*
X1143173Y454964D01*
X1139758Y455414D01*
D02*
G37*
G36*
X1019556Y455154D02*
X1016141Y454704D01*
X1012959Y453386D01*
X1010227Y451289D01*
X1008130Y448557D01*
X1006812Y445375D01*
X1006362Y441960D01*
X1006812Y438545D01*
X1008130Y435363D01*
X1010227Y432631D01*
X1012959Y430534D01*
X1016141Y429216D01*
X1019556Y428766D01*
X1022971Y429216D01*
X1026153Y430534D01*
X1028885Y432631D01*
X1030982Y435363D01*
X1032300Y438545D01*
X1032750Y441960D01*
X1032300Y445375D01*
X1030982Y448557D01*
X1028885Y451289D01*
X1026153Y453386D01*
X1022971Y454704D01*
X1019556Y455154D01*
D02*
G37*
G36*
X780348Y454906D02*
X776933Y454456D01*
X773751Y453138D01*
X771019Y451041D01*
X768922Y448309D01*
X767604Y445127D01*
X767154Y441712D01*
X767604Y438297D01*
X768922Y435115D01*
X771019Y432383D01*
X773751Y430286D01*
X776933Y428968D01*
X780348Y428518D01*
X783763Y428968D01*
X786945Y430286D01*
X789678Y432383D01*
X791774Y435115D01*
X793092Y438297D01*
X793542Y441712D01*
X793092Y445127D01*
X791774Y448309D01*
X789678Y451041D01*
X786945Y453138D01*
X783763Y454456D01*
X780348Y454906D01*
D02*
G37*
G36*
X380178Y454900D02*
X376763Y454450D01*
X373581Y453132D01*
X370849Y451035D01*
X368752Y448303D01*
X367434Y445121D01*
X366984Y441706D01*
X367434Y438291D01*
X368752Y435109D01*
X370849Y432377D01*
X373581Y430280D01*
X376763Y428962D01*
X380178Y428512D01*
X383593Y428962D01*
X386775Y430280D01*
X389507Y432377D01*
X391604Y435109D01*
X392922Y438291D01*
X393372Y441706D01*
X392922Y445121D01*
X391604Y448303D01*
X389507Y451035D01*
X386775Y453132D01*
X383593Y454450D01*
X380178Y454900D01*
D02*
G37*
G36*
X139700D02*
X136285Y454450D01*
X133103Y453132D01*
X130371Y451035D01*
X128274Y448303D01*
X126956Y445121D01*
X126506Y441706D01*
X126956Y438291D01*
X128274Y435109D01*
X130371Y432377D01*
X133103Y430280D01*
X136285Y428962D01*
X139700Y428512D01*
X143115Y428962D01*
X146297Y430280D01*
X149030Y432377D01*
X151126Y435109D01*
X152444Y438291D01*
X152894Y441706D01*
X152444Y445121D01*
X151126Y448303D01*
X149030Y451035D01*
X146297Y453132D01*
X143115Y454450D01*
X139700Y454900D01*
D02*
G37*
G36*
X499812Y454694D02*
X496397Y454244D01*
X493215Y452926D01*
X490482Y450830D01*
X488386Y448097D01*
X487068Y444915D01*
X486618Y441500D01*
X487068Y438085D01*
X488386Y434903D01*
X490482Y432170D01*
X493215Y430074D01*
X496397Y428756D01*
X499812Y428306D01*
X503227Y428756D01*
X506409Y430074D01*
X509142Y432170D01*
X511238Y434903D01*
X512556Y438085D01*
X513006Y441500D01*
X512556Y444915D01*
X511238Y448097D01*
X509142Y450830D01*
X506409Y452926D01*
X503227Y454244D01*
X499812Y454694D01*
D02*
G37*
G36*
X901252Y453382D02*
X897837Y452932D01*
X894655Y451614D01*
X891923Y449518D01*
X889826Y446785D01*
X888508Y443603D01*
X888058Y440188D01*
X888508Y436773D01*
X889826Y433591D01*
X891923Y430858D01*
X894655Y428762D01*
X897837Y427444D01*
X901252Y426994D01*
X904667Y427444D01*
X907849Y428762D01*
X910582Y430858D01*
X912678Y433591D01*
X913996Y436773D01*
X914446Y440188D01*
X913996Y443603D01*
X912678Y446785D01*
X910582Y449518D01*
X907849Y451614D01*
X904667Y452932D01*
X901252Y453382D01*
D02*
G37*
G36*
X653829Y429940D02*
X652243Y429624D01*
X650899Y428726D01*
X650001Y427382D01*
X649686Y425796D01*
X650001Y424210D01*
X650899Y422866D01*
X652243Y421968D01*
X653829Y421652D01*
X655415Y421968D01*
X656759Y422866D01*
X657657Y424210D01*
X657973Y425796D01*
X657657Y427382D01*
X656759Y428726D01*
X655415Y429624D01*
X653829Y429940D01*
D02*
G37*
G36*
X342564Y466328D02*
X297564D01*
X296573Y466131D01*
X295733Y465569D01*
X295171Y464729D01*
X294974Y463738D01*
Y423738D01*
X295171Y422747D01*
X295733Y421907D01*
X296573Y421345D01*
X297564Y421148D01*
X342564D01*
X343555Y421345D01*
X344395Y421907D01*
X344957Y422747D01*
X345154Y423738D01*
Y463738D01*
X344957Y464729D01*
X344395Y465569D01*
X343555Y466131D01*
X342564Y466328D01*
D02*
G37*
G36*
X982620Y465998D02*
X937620D01*
X936629Y465801D01*
X935789Y465239D01*
X935227Y464399D01*
X935030Y463408D01*
Y423408D01*
X935227Y422417D01*
X935789Y421577D01*
X936629Y421015D01*
X937620Y420818D01*
X982620D01*
X983611Y421015D01*
X984451Y421577D01*
X985013Y422417D01*
X985210Y423408D01*
Y463408D01*
X985013Y464399D01*
X984451Y465239D01*
X983611Y465801D01*
X982620Y465998D01*
D02*
G37*
G36*
X222160Y465992D02*
X177160D01*
X176169Y465795D01*
X175329Y465233D01*
X174767Y464393D01*
X174570Y463402D01*
Y423402D01*
X174767Y422411D01*
X175329Y421571D01*
X176169Y421009D01*
X177160Y420812D01*
X222160D01*
X223151Y421009D01*
X223991Y421571D01*
X224553Y422411D01*
X224750Y423402D01*
Y463402D01*
X224553Y464393D01*
X223991Y465233D01*
X223151Y465795D01*
X222160Y465992D01*
D02*
G37*
G36*
X1102484Y465566D02*
X1057484D01*
X1056493Y465369D01*
X1055653Y464807D01*
X1055091Y463967D01*
X1054894Y462976D01*
Y422976D01*
X1055091Y421985D01*
X1055653Y421145D01*
X1056493Y420583D01*
X1057484Y420386D01*
X1102484D01*
X1103475Y420583D01*
X1104315Y421145D01*
X1104877Y421985D01*
X1105074Y422976D01*
Y462976D01*
X1104877Y463967D01*
X1104315Y464807D01*
X1103475Y465369D01*
X1102484Y465566D01*
D02*
G37*
G36*
X862756D02*
X817756D01*
X816765Y465369D01*
X815925Y464807D01*
X815363Y463967D01*
X815166Y462976D01*
Y422976D01*
X815363Y421985D01*
X815925Y421145D01*
X816765Y420583D01*
X817756Y420386D01*
X862756D01*
X863747Y420583D01*
X864587Y421145D01*
X865149Y421985D01*
X865346Y422976D01*
Y462976D01*
X865149Y463967D01*
X864587Y464807D01*
X863747Y465369D01*
X862756Y465566D01*
D02*
G37*
G36*
X463468Y465312D02*
X418468D01*
X417477Y465115D01*
X416637Y464553D01*
X416075Y463713D01*
X415878Y462722D01*
Y422722D01*
X416075Y421731D01*
X416637Y420891D01*
X417477Y420329D01*
X418468Y420132D01*
X463468D01*
X464459Y420329D01*
X465299Y420891D01*
X465861Y421731D01*
X466058Y422722D01*
Y462722D01*
X465861Y463713D01*
X465299Y464553D01*
X464459Y465115D01*
X463468Y465312D01*
D02*
G37*
G36*
X1132900Y427060D02*
X1131314Y426744D01*
X1129970Y425846D01*
X1129072Y424502D01*
X1128756Y422916D01*
X1129072Y421330D01*
X1129970Y419986D01*
X1131314Y419088D01*
X1132900Y418772D01*
X1134486Y419088D01*
X1135830Y419986D01*
X1136728Y421330D01*
X1137044Y422916D01*
X1136728Y424502D01*
X1135830Y425846D01*
X1134486Y426744D01*
X1132900Y427060D01*
D02*
G37*
G36*
X252984Y427054D02*
X251398Y426738D01*
X250054Y425840D01*
X249156Y424496D01*
X248840Y422910D01*
X249156Y421324D01*
X250054Y419980D01*
X251398Y419082D01*
X252984Y418766D01*
X254570Y419082D01*
X255914Y419980D01*
X256812Y421324D01*
X257128Y422910D01*
X256812Y424496D01*
X255914Y425840D01*
X254570Y426738D01*
X252984Y427054D01*
D02*
G37*
G36*
X131826Y426546D02*
X130240Y426230D01*
X128896Y425332D01*
X127998Y423988D01*
X127682Y422402D01*
X127998Y420816D01*
X128896Y419472D01*
X130240Y418574D01*
X131826Y418258D01*
X133412Y418574D01*
X134756Y419472D01*
X135654Y420816D01*
X135970Y422402D01*
X135654Y423988D01*
X134756Y425332D01*
X133412Y426230D01*
X131826Y426546D01*
D02*
G37*
G36*
X492954Y426340D02*
X491368Y426024D01*
X490024Y425126D01*
X489126Y423782D01*
X488810Y422196D01*
X489126Y420610D01*
X490024Y419266D01*
X491368Y418368D01*
X492954Y418052D01*
X494540Y418368D01*
X495884Y419266D01*
X496782Y420610D01*
X497098Y422196D01*
X496782Y423782D01*
X495884Y425126D01*
X494540Y426024D01*
X492954Y426340D01*
D02*
G37*
G36*
X371542Y422990D02*
X369956Y422674D01*
X368612Y421776D01*
X367714Y420432D01*
X367398Y418846D01*
X367714Y417260D01*
X368612Y415916D01*
X369956Y415018D01*
X371542Y414702D01*
X373128Y415018D01*
X374472Y415916D01*
X375370Y417260D01*
X375686Y418846D01*
X375370Y420432D01*
X374472Y421776D01*
X373128Y422674D01*
X371542Y422990D01*
D02*
G37*
G36*
X1020826Y419942D02*
X1019240Y419626D01*
X1017896Y418728D01*
X1016998Y417384D01*
X1016682Y415798D01*
X1016998Y414212D01*
X1017896Y412868D01*
X1019240Y411970D01*
X1020826Y411654D01*
X1022412Y411970D01*
X1023756Y412868D01*
X1024654Y414212D01*
X1024970Y415798D01*
X1024654Y417384D01*
X1023756Y418728D01*
X1022412Y419626D01*
X1020826Y419942D01*
D02*
G37*
G36*
X906780Y419688D02*
X905194Y419372D01*
X903850Y418474D01*
X902952Y417130D01*
X902636Y415544D01*
X902952Y413958D01*
X903850Y412614D01*
X905194Y411716D01*
X906780Y411400D01*
X908366Y411716D01*
X909710Y412614D01*
X910608Y413958D01*
X910924Y415544D01*
X910608Y417130D01*
X909710Y418474D01*
X908366Y419372D01*
X906780Y419688D01*
D02*
G37*
G36*
X789686D02*
X788100Y419372D01*
X786756Y418474D01*
X785858Y417130D01*
X785542Y415544D01*
X785858Y413958D01*
X786756Y412614D01*
X788100Y411716D01*
X789686Y411400D01*
X791272Y411716D01*
X792616Y412614D01*
X793514Y413958D01*
X793830Y415544D01*
X793514Y417130D01*
X792616Y418474D01*
X791272Y419372D01*
X789686Y419688D01*
D02*
G37*
G36*
X740854Y411878D02*
X739268Y411562D01*
X737924Y410664D01*
X737026Y409320D01*
X736710Y407734D01*
X737026Y406148D01*
X737924Y404804D01*
X739268Y403906D01*
X740854Y403590D01*
X742440Y403906D01*
X743784Y404804D01*
X744682Y406148D01*
X744998Y407734D01*
X744682Y409320D01*
X743784Y410664D01*
X742440Y411562D01*
X740854Y411878D01*
D02*
G37*
G36*
X278563Y410382D02*
X276977Y410066D01*
X275633Y409168D01*
X274735Y407824D01*
X274419Y406238D01*
X274735Y404652D01*
X275633Y403308D01*
X276977Y402410D01*
X278563Y402094D01*
X280149Y402410D01*
X281493Y403308D01*
X282391Y404652D01*
X282707Y406238D01*
X282391Y407824D01*
X281493Y409168D01*
X280149Y410066D01*
X278563Y410382D01*
D02*
G37*
G36*
X918619Y410052D02*
X917033Y409736D01*
X915689Y408838D01*
X914791Y407494D01*
X914475Y405908D01*
X914791Y404322D01*
X915689Y402978D01*
X917033Y402080D01*
X918619Y401764D01*
X920205Y402080D01*
X921549Y402978D01*
X922447Y404322D01*
X922763Y405908D01*
X922447Y407494D01*
X921549Y408838D01*
X920205Y409736D01*
X918619Y410052D01*
D02*
G37*
G36*
X158159Y410046D02*
X156573Y409730D01*
X155229Y408832D01*
X154331Y407488D01*
X154015Y405902D01*
X154331Y404316D01*
X155229Y402972D01*
X156573Y402074D01*
X158159Y401758D01*
X159745Y402074D01*
X161089Y402972D01*
X161987Y404316D01*
X162303Y405902D01*
X161987Y407488D01*
X161089Y408832D01*
X159745Y409730D01*
X158159Y410046D01*
D02*
G37*
G36*
X399467Y409366D02*
X397881Y409050D01*
X396537Y408152D01*
X395639Y406808D01*
X395323Y405222D01*
X395639Y403636D01*
X396537Y402292D01*
X397881Y401394D01*
X399467Y401078D01*
X401053Y401394D01*
X402397Y402292D01*
X403295Y403636D01*
X403611Y405222D01*
X403295Y406808D01*
X402397Y408152D01*
X401053Y409050D01*
X399467Y409366D01*
D02*
G37*
G36*
X1039185Y409160D02*
X1037599Y408844D01*
X1036255Y407946D01*
X1035357Y406602D01*
X1035041Y405016D01*
X1035357Y403430D01*
X1036255Y402086D01*
X1037599Y401188D01*
X1039185Y400872D01*
X1040771Y401188D01*
X1042115Y402086D01*
X1043013Y403430D01*
X1043329Y405016D01*
X1043013Y406602D01*
X1042115Y407946D01*
X1040771Y408844D01*
X1039185Y409160D01*
D02*
G37*
G36*
X799457D02*
X797871Y408844D01*
X796527Y407946D01*
X795629Y406602D01*
X795313Y405016D01*
X795629Y403430D01*
X796527Y402086D01*
X797871Y401188D01*
X799457Y400872D01*
X801043Y401188D01*
X802387Y402086D01*
X803285Y403430D01*
X803601Y405016D01*
X803285Y406602D01*
X802387Y407946D01*
X801043Y408844D01*
X799457Y409160D01*
D02*
G37*
G36*
X522780Y402114D02*
X521194Y401798D01*
X519850Y400900D01*
X518952Y399556D01*
X518636Y397970D01*
X518952Y396384D01*
X519850Y395040D01*
X521194Y394142D01*
X522780Y393826D01*
X524366Y394142D01*
X525710Y395040D01*
X526608Y396384D01*
X526924Y397970D01*
X526608Y399556D01*
X525710Y400900D01*
X524366Y401798D01*
X522780Y402114D01*
D02*
G37*
G36*
X1213138Y406141D02*
X1210196Y405754D01*
X1207454Y404618D01*
X1205100Y402812D01*
X1203294Y400458D01*
X1202158Y397716D01*
X1201771Y394774D01*
X1202158Y391832D01*
X1203294Y389090D01*
X1205100Y386736D01*
X1207454Y384930D01*
X1210196Y383794D01*
X1213138Y383407D01*
X1216080Y383794D01*
X1218822Y384930D01*
X1221176Y386736D01*
X1222982Y389090D01*
X1224118Y391832D01*
X1224505Y394774D01*
X1224118Y397716D01*
X1222982Y400458D01*
X1221176Y402812D01*
X1218822Y404618D01*
X1216080Y405754D01*
X1213138Y406141D01*
D02*
G37*
G36*
X772414Y389462D02*
X770828Y389146D01*
X769484Y388248D01*
X768586Y386904D01*
X768270Y385318D01*
X768586Y383732D01*
X769484Y382388D01*
X770828Y381490D01*
X772414Y381174D01*
X774000Y381490D01*
X775344Y382388D01*
X776242Y383732D01*
X776558Y385318D01*
X776242Y386904D01*
X775344Y388248D01*
X774000Y389146D01*
X772414Y389462D01*
D02*
G37*
G36*
X730504Y399782D02*
X727089Y399332D01*
X723907Y398014D01*
X721174Y395918D01*
X719078Y393185D01*
X717760Y390003D01*
X717310Y386588D01*
X717760Y383173D01*
X719078Y379991D01*
X721174Y377258D01*
X723907Y375162D01*
X727089Y373844D01*
X730504Y373394D01*
X733919Y373844D01*
X737101Y375162D01*
X739834Y377258D01*
X741930Y379991D01*
X743248Y383173D01*
X743698Y386588D01*
X743248Y390003D01*
X741930Y393185D01*
X739834Y395918D01*
X737101Y398014D01*
X733919Y399332D01*
X730504Y399782D01*
D02*
G37*
G36*
X23876Y398766D02*
X20461Y398316D01*
X17279Y396998D01*
X14547Y394902D01*
X12450Y392169D01*
X11132Y388987D01*
X10682Y385572D01*
X11132Y382157D01*
X12450Y378975D01*
X14547Y376242D01*
X17279Y374146D01*
X20461Y372828D01*
X23876Y372378D01*
X27291Y372828D01*
X30473Y374146D01*
X33205Y376242D01*
X35302Y378975D01*
X36620Y382157D01*
X37070Y385572D01*
X36620Y388987D01*
X35302Y392169D01*
X33205Y394902D01*
X30473Y396998D01*
X27291Y398316D01*
X23876Y398766D01*
D02*
G37*
G36*
X549850Y397914D02*
X546435Y397464D01*
X543253Y396146D01*
X540521Y394049D01*
X538424Y391317D01*
X537106Y388135D01*
X536656Y384720D01*
X537106Y381305D01*
X538424Y378123D01*
X540521Y375391D01*
X543253Y373294D01*
X546435Y371976D01*
X549850Y371526D01*
X553265Y371976D01*
X556447Y373294D01*
X559179Y375391D01*
X561276Y378123D01*
X562594Y381305D01*
X563044Y384720D01*
X562594Y388135D01*
X561276Y391317D01*
X559179Y394049D01*
X556447Y396146D01*
X553265Y397464D01*
X549850Y397914D01*
D02*
G37*
G36*
X144892Y378540D02*
X143306Y378224D01*
X141962Y377326D01*
X141064Y375982D01*
X140748Y374396D01*
X141064Y372810D01*
X141962Y371466D01*
X143306Y370568D01*
X144892Y370252D01*
X146478Y370568D01*
X147822Y371466D01*
X148720Y372810D01*
X149036Y374396D01*
X148720Y375982D01*
X147822Y377326D01*
X146478Y378224D01*
X144892Y378540D01*
D02*
G37*
G36*
X884840Y376484D02*
X883254Y376168D01*
X881910Y375270D01*
X881012Y373926D01*
X880696Y372340D01*
X881012Y370754D01*
X881910Y369410D01*
X883254Y368512D01*
X884840Y368196D01*
X886426Y368512D01*
X887770Y369410D01*
X888668Y370754D01*
X888984Y372340D01*
X888668Y373926D01*
X887770Y375270D01*
X886426Y376168D01*
X884840Y376484D01*
D02*
G37*
G36*
X1009513Y368920D02*
X1007927Y368604D01*
X1006583Y367706D01*
X1005685Y366362D01*
X1005628Y366076D01*
X1004719Y365914D01*
X1004309Y365955D01*
X1003479Y367198D01*
X1002134Y368096D01*
X1000549Y368411D01*
X998963Y368096D01*
X997619Y367198D01*
X996721Y365854D01*
X996405Y364268D01*
X996721Y362682D01*
X997619Y361338D01*
X998963Y360440D01*
X1000549Y360124D01*
X1002134Y360440D01*
X1003479Y361338D01*
X1004377Y362682D01*
X1004434Y362968D01*
X1005343Y363130D01*
X1005753Y363088D01*
X1006493Y361981D01*
X1006445Y360710D01*
X1005547Y359366D01*
X1005231Y357780D01*
X1005547Y356194D01*
X1006445Y354850D01*
X1007789Y353952D01*
X1009375Y353636D01*
X1010960Y353952D01*
X1012305Y354850D01*
X1013203Y356194D01*
X1013519Y357780D01*
X1013203Y359366D01*
X1012395Y360575D01*
X1012443Y361846D01*
X1013341Y363190D01*
X1013656Y364776D01*
X1013341Y366362D01*
X1012443Y367706D01*
X1011098Y368604D01*
X1009513Y368920D01*
D02*
G37*
G36*
X457868Y368728D02*
X456282Y368413D01*
X454938Y367514D01*
X454039Y366170D01*
X453724Y364585D01*
X454039Y362999D01*
X454938Y361655D01*
X456282Y360756D01*
X457868Y360441D01*
X459453Y360756D01*
X460798Y361655D01*
X461696Y362999D01*
X462011Y364585D01*
X461696Y366170D01*
X460798Y367514D01*
X459453Y368413D01*
X457868Y368728D01*
D02*
G37*
G36*
X550000Y426866D02*
X548414Y426550D01*
X547070Y425652D01*
X546172Y424308D01*
X545856Y422722D01*
X546172Y421136D01*
X547070Y419792D01*
X548414Y418894D01*
X550000Y418578D01*
X551404Y418858D01*
X551946Y418442D01*
X552381Y417897D01*
X552246Y417572D01*
X551979Y415544D01*
X552246Y413516D01*
X553029Y411626D01*
X554274Y410002D01*
X555897Y408757D01*
X557788Y407974D01*
X559816Y407707D01*
X561844Y407974D01*
X563735Y408757D01*
X565095Y409801D01*
X566012Y408999D01*
X566055Y408937D01*
X565862Y407967D01*
Y362967D01*
X566059Y361976D01*
X566621Y361136D01*
X567461Y360574D01*
X568452Y360377D01*
X608452D01*
X609443Y360574D01*
X610283Y361136D01*
X610845Y361976D01*
X611042Y362967D01*
Y407967D01*
X610845Y408958D01*
X610283Y409798D01*
X609443Y410360D01*
X608452Y410557D01*
X568452D01*
X567461Y410360D01*
X566992Y410047D01*
X566112Y410986D01*
X566603Y411626D01*
X567386Y413516D01*
X567653Y415544D01*
X567386Y417572D01*
X566603Y419463D01*
X565358Y421086D01*
X563735Y422331D01*
X561844Y423114D01*
X559816Y423381D01*
X557788Y423114D01*
X555897Y422331D01*
X555264Y421845D01*
X554112Y422562D01*
X554144Y422722D01*
X553828Y424308D01*
X552930Y425652D01*
X551586Y426550D01*
X550000Y426866D01*
D02*
G37*
G36*
X40000Y422837D02*
X37972Y422570D01*
X36082Y421787D01*
X34458Y420542D01*
X33213Y418918D01*
X32430Y417028D01*
X32163Y415000D01*
X32430Y412972D01*
X33213Y411082D01*
X34458Y409458D01*
X36082Y408213D01*
X37972Y407430D01*
X40000Y407163D01*
X42028Y407430D01*
X42222Y407510D01*
X43444Y406642D01*
Y362394D01*
X43641Y361403D01*
X44203Y360563D01*
X45043Y360001D01*
X46034Y359804D01*
X86034D01*
X87025Y360001D01*
X87865Y360563D01*
X88427Y361403D01*
X88624Y362394D01*
Y407394D01*
X88427Y408385D01*
X87865Y409225D01*
X87025Y409787D01*
X86034Y409984D01*
X47546D01*
X47099Y410629D01*
X46859Y411254D01*
X47570Y412972D01*
X47837Y415000D01*
X47570Y417028D01*
X46787Y418918D01*
X45542Y420542D01*
X43918Y421787D01*
X42028Y422570D01*
X40000Y422837D01*
D02*
G37*
G36*
X252984Y365978D02*
X251398Y365663D01*
X250054Y364765D01*
X249156Y363420D01*
X248840Y361835D01*
X249156Y360249D01*
X250054Y358905D01*
X251398Y358006D01*
X252984Y357691D01*
X254570Y358006D01*
X255914Y358905D01*
X256812Y360249D01*
X257128Y361835D01*
X256812Y363420D01*
X255914Y364765D01*
X254570Y365663D01*
X252984Y365978D01*
D02*
G37*
G36*
X1117632Y364812D02*
X1116046Y364496D01*
X1114702Y363598D01*
X1113804Y362254D01*
X1113488Y360668D01*
X1113804Y359082D01*
X1114702Y357738D01*
X1116046Y356840D01*
X1117632Y356524D01*
X1119218Y356840D01*
X1120562Y357738D01*
X1121460Y359082D01*
X1121776Y360668D01*
X1121460Y362254D01*
X1120562Y363598D01*
X1119218Y364496D01*
X1117632Y364812D01*
D02*
G37*
G36*
X465398Y362792D02*
X463812Y362476D01*
X462468Y361578D01*
X461570Y360234D01*
X461254Y358648D01*
X461570Y357062D01*
X462468Y355718D01*
X463812Y354820D01*
X465398Y354504D01*
X466984Y354820D01*
X468328Y355718D01*
X469226Y357062D01*
X469542Y358648D01*
X469226Y360234D01*
X468328Y361578D01*
X466984Y362476D01*
X465398Y362792D01*
D02*
G37*
G36*
X992349Y361644D02*
X990763Y361328D01*
X989419Y360430D01*
X988521Y359086D01*
X988205Y357500D01*
X988521Y355914D01*
X989419Y354570D01*
X990763Y353672D01*
X992349Y353356D01*
X993935Y353672D01*
X995279Y354570D01*
X996177Y355914D01*
X996493Y357500D01*
X996177Y359086D01*
X995279Y360430D01*
X993935Y361328D01*
X992349Y361644D01*
D02*
G37*
G36*
X32512Y361522D02*
X30926Y361206D01*
X29582Y360308D01*
X28684Y358964D01*
X28368Y357378D01*
X28684Y355792D01*
X29582Y354448D01*
X30926Y353550D01*
X32512Y353234D01*
X34098Y353550D01*
X35442Y354448D01*
X36340Y355792D01*
X36656Y357378D01*
X36340Y358964D01*
X35442Y360308D01*
X34098Y361206D01*
X32512Y361522D01*
D02*
G37*
G36*
X527800Y358716D02*
X526214Y358400D01*
X524870Y357502D01*
X523972Y356158D01*
X523656Y354572D01*
X523972Y352986D01*
X524870Y351642D01*
X526214Y350744D01*
X527800Y350428D01*
X529386Y350744D01*
X530730Y351642D01*
X531628Y352986D01*
X531944Y354572D01*
X531628Y356158D01*
X530730Y357502D01*
X529386Y358400D01*
X527800Y358716D01*
D02*
G37*
G36*
X638810Y358258D02*
X637224Y357942D01*
X635880Y357044D01*
X634982Y355700D01*
X634666Y354114D01*
X634982Y352528D01*
X635880Y351184D01*
X637224Y350286D01*
X638810Y349970D01*
X640396Y350286D01*
X641740Y351184D01*
X642638Y352528D01*
X642954Y354114D01*
X642638Y355700D01*
X641740Y357044D01*
X640396Y357942D01*
X638810Y358258D01*
D02*
G37*
G36*
X371518Y364661D02*
X369932Y364346D01*
X368588Y363448D01*
X367690Y362103D01*
X367374Y360518D01*
X367690Y358932D01*
X368588Y357588D01*
X369932Y356689D01*
X371518Y356374D01*
X373104Y356689D01*
X374448Y357588D01*
X375837Y357380D01*
X375953Y357206D01*
X376038Y355736D01*
X375140Y354392D01*
X374824Y352806D01*
X375140Y351220D01*
X376038Y349876D01*
X377382Y348978D01*
X378968Y348662D01*
X380554Y348978D01*
X381898Y349876D01*
X382796Y351220D01*
X383112Y352806D01*
X382796Y354392D01*
X382121Y355402D01*
X382036Y356872D01*
X382934Y358216D01*
X383250Y359802D01*
X382934Y361388D01*
X382036Y362732D01*
X380692Y363630D01*
X379106Y363946D01*
X377520Y363630D01*
X376176Y362732D01*
X374787Y362940D01*
X374448Y363448D01*
X373104Y364346D01*
X371518Y364661D01*
D02*
G37*
G36*
X1043241Y355920D02*
X1041655Y355604D01*
X1040311Y354706D01*
X1039413Y353362D01*
X1039097Y351776D01*
X1039413Y350190D01*
X1040311Y348846D01*
X1041655Y347948D01*
X1043241Y347632D01*
X1044827Y347948D01*
X1046171Y348846D01*
X1047069Y350190D01*
X1047384Y351776D01*
X1047069Y353362D01*
X1046171Y354706D01*
X1044827Y355604D01*
X1043241Y355920D01*
D02*
G37*
G36*
X458216Y355680D02*
X456630Y355364D01*
X455286Y354466D01*
X454388Y353122D01*
X454072Y351536D01*
X454388Y349950D01*
X455286Y348606D01*
X456630Y347708D01*
X458216Y347392D01*
X459802Y347708D01*
X461146Y348606D01*
X462044Y349950D01*
X462360Y351536D01*
X462044Y353122D01*
X461146Y354466D01*
X459802Y355364D01*
X458216Y355680D01*
D02*
G37*
G36*
X897911Y354950D02*
X896325Y354634D01*
X894981Y353736D01*
X894083Y352392D01*
X893767Y350806D01*
X894083Y349220D01*
X894981Y347876D01*
X896325Y346978D01*
X897911Y346662D01*
X899497Y346978D01*
X900841Y347876D01*
X901739Y349220D01*
X902055Y350806D01*
X901739Y352392D01*
X900841Y353736D01*
X899497Y354634D01*
X897911Y354950D01*
D02*
G37*
G36*
X974539Y352750D02*
X972953Y352434D01*
X971609Y351536D01*
X970711Y350192D01*
X970395Y348606D01*
X970711Y347020D01*
X971609Y345676D01*
X972953Y344778D01*
X974539Y344462D01*
X976125Y344778D01*
X977469Y345676D01*
X978367Y347020D01*
X978682Y348606D01*
X978367Y350192D01*
X977469Y351536D01*
X976125Y352434D01*
X974539Y352750D01*
D02*
G37*
G36*
X412834Y350946D02*
X411248Y350630D01*
X409904Y349732D01*
X409006Y348388D01*
X408690Y346802D01*
X409006Y345216D01*
X409904Y343872D01*
X411248Y342974D01*
X412834Y342658D01*
X414420Y342974D01*
X415764Y343872D01*
X416662Y345216D01*
X416978Y346802D01*
X416662Y348388D01*
X415764Y349732D01*
X414420Y350630D01*
X412834Y350946D01*
D02*
G37*
G36*
X267504Y349976D02*
X265918Y349660D01*
X264574Y348762D01*
X263676Y347418D01*
X263360Y345832D01*
X263676Y344246D01*
X264574Y342902D01*
X265918Y342004D01*
X267504Y341688D01*
X269090Y342004D01*
X270434Y342902D01*
X271332Y344246D01*
X271648Y345832D01*
X271332Y347418D01*
X270434Y348762D01*
X269090Y349660D01*
X267504Y349976D01*
D02*
G37*
G36*
X344132Y347776D02*
X342546Y347460D01*
X341202Y346562D01*
X340304Y345218D01*
X339988Y343632D01*
X340304Y342046D01*
X341202Y340702D01*
X342546Y339804D01*
X344132Y339488D01*
X345718Y339804D01*
X347062Y340702D01*
X347960Y342046D01*
X348276Y343632D01*
X347960Y345218D01*
X347062Y346562D01*
X345718Y347460D01*
X344132Y347776D01*
D02*
G37*
G36*
X103534Y347537D02*
X101948Y347221D01*
X100604Y346323D01*
X99706Y344979D01*
X99390Y343393D01*
X99706Y341807D01*
X100604Y340463D01*
X101948Y339565D01*
X103534Y339249D01*
X105120Y339565D01*
X106464Y340463D01*
X107362Y341807D01*
X107678Y343393D01*
X107362Y344979D01*
X106464Y346323D01*
X105120Y347221D01*
X103534Y347537D01*
D02*
G37*
G36*
X496062Y346028D02*
X494476Y345712D01*
X493132Y344814D01*
X492234Y343470D01*
X491918Y341884D01*
X492234Y340298D01*
X493132Y338954D01*
X494476Y338056D01*
X496062Y337740D01*
X497648Y338056D01*
X498992Y338954D01*
X499890Y340298D01*
X500206Y341884D01*
X499890Y343470D01*
X498992Y344814D01*
X497648Y345712D01*
X496062Y346028D01*
D02*
G37*
G36*
X1114298Y345266D02*
X1112712Y344950D01*
X1111368Y344052D01*
X1110470Y342708D01*
X1110154Y341122D01*
X1110470Y339536D01*
X1111368Y338192D01*
X1112712Y337294D01*
X1114298Y336978D01*
X1115884Y337294D01*
X1117228Y338192D01*
X1118126Y339536D01*
X1118442Y341122D01*
X1118126Y342708D01*
X1117228Y344052D01*
X1115884Y344950D01*
X1114298Y345266D01*
D02*
G37*
G36*
X974539Y341828D02*
X972953Y341512D01*
X971609Y340614D01*
X970711Y339270D01*
X970395Y337684D01*
X970711Y336098D01*
X971609Y334754D01*
X972953Y333856D01*
X974539Y333540D01*
X976125Y333856D01*
X977469Y334754D01*
X978367Y336098D01*
X978682Y337684D01*
X978367Y339270D01*
X977469Y340614D01*
X976125Y341512D01*
X974539Y341828D01*
D02*
G37*
G36*
X618744Y335614D02*
X617158Y335298D01*
X615814Y334400D01*
X614916Y333056D01*
X614905Y333002D01*
X613557Y332734D01*
X613292Y333130D01*
X611948Y334028D01*
X610362Y334344D01*
X608776Y334028D01*
X607432Y333130D01*
X606534Y331786D01*
X606297Y330596D01*
X605017Y330226D01*
X604910Y330386D01*
X603566Y331284D01*
X601980Y331600D01*
X600394Y331284D01*
X599050Y330386D01*
X598152Y329042D01*
X597836Y327456D01*
X598152Y325870D01*
X599050Y324526D01*
X600394Y323628D01*
X601980Y323312D01*
X603566Y323628D01*
X604910Y324526D01*
X605808Y325870D01*
X606045Y327060D01*
X607325Y327430D01*
X607432Y327270D01*
X608776Y326372D01*
X610362Y326056D01*
X611948Y326372D01*
X613292Y327270D01*
X614190Y328614D01*
X614201Y328668D01*
X615549Y328936D01*
X615814Y328540D01*
X617158Y327642D01*
X618744Y327326D01*
X620330Y327642D01*
X621674Y328540D01*
X622572Y329884D01*
X622888Y331470D01*
X622572Y333056D01*
X621674Y334400D01*
X620330Y335298D01*
X618744Y335614D01*
D02*
G37*
G36*
X711789Y410087D02*
X671789D01*
X670798Y409890D01*
X669958Y409328D01*
X669397Y408488D01*
X669199Y407497D01*
Y362497D01*
X669397Y361506D01*
X669958Y360666D01*
X670798Y360104D01*
X671789Y359907D01*
X711789D01*
X712780Y360104D01*
X713276Y360436D01*
X714156Y359496D01*
X713713Y358918D01*
X712930Y357028D01*
X712663Y355000D01*
X712930Y352972D01*
X713713Y351082D01*
X714958Y349458D01*
X715444Y349086D01*
X715013Y347816D01*
X543250D01*
Y341122D01*
X591642D01*
X591851Y340465D01*
X591853Y339852D01*
X590668Y339060D01*
X589770Y337716D01*
X589454Y336130D01*
X589770Y334544D01*
X590668Y333200D01*
X592012Y332302D01*
X593598Y331986D01*
X595184Y332302D01*
X596528Y333200D01*
X597426Y334544D01*
X597742Y336130D01*
X597426Y337716D01*
X596528Y339060D01*
X595343Y339852D01*
X595345Y340465D01*
X595554Y341122D01*
X737500D01*
Y347816D01*
X725987D01*
X725556Y349086D01*
X726042Y349458D01*
X727287Y351082D01*
X728070Y352972D01*
X728337Y355000D01*
X728070Y357028D01*
X727287Y358918D01*
X726042Y360542D01*
X724418Y361787D01*
X722528Y362570D01*
X720500Y362837D01*
X718472Y362570D01*
X716581Y361787D01*
X715177Y360709D01*
X714182Y361506D01*
X714379Y362497D01*
Y407497D01*
X714182Y408488D01*
X713621Y409328D01*
X712780Y409890D01*
X711789Y410087D01*
D02*
G37*
G36*
X912013Y338556D02*
X910427Y338240D01*
X909083Y337342D01*
X908185Y335998D01*
X907870Y334412D01*
X908185Y332826D01*
X909083Y331482D01*
X910427Y330584D01*
X912013Y330268D01*
X913599Y330584D01*
X914943Y331482D01*
X915841Y332826D01*
X916157Y334412D01*
X915841Y335998D01*
X914943Y337342D01*
X913599Y338240D01*
X912013Y338556D01*
D02*
G37*
G36*
X825558Y338466D02*
X823972Y338150D01*
X822628Y337252D01*
X821730Y335908D01*
X821414Y334322D01*
X821730Y332736D01*
X822628Y331392D01*
X823972Y330494D01*
X825558Y330178D01*
X827144Y330494D01*
X828488Y331392D01*
X829386Y332736D01*
X829702Y334322D01*
X829386Y335908D01*
X828488Y337252D01*
X827144Y338150D01*
X825558Y338466D01*
D02*
G37*
G36*
X528320Y338408D02*
X526734Y338092D01*
X525390Y337194D01*
X524492Y335850D01*
X524176Y334264D01*
X524492Y332678D01*
X525390Y331334D01*
X526734Y330436D01*
X528320Y330120D01*
X529906Y330436D01*
X531250Y331334D01*
X532148Y332678D01*
X532464Y334264D01*
X532148Y335850D01*
X531250Y337194D01*
X529906Y338092D01*
X528320Y338408D01*
D02*
G37*
G36*
X702876Y337842D02*
X701290Y337527D01*
X699946Y336628D01*
X699047Y335284D01*
X698732Y333699D01*
X699047Y332113D01*
X699946Y330769D01*
X701290Y329870D01*
X702876Y329555D01*
X704461Y329870D01*
X705806Y330769D01*
X706704Y332113D01*
X707019Y333699D01*
X706704Y335284D01*
X705806Y336628D01*
X704461Y337527D01*
X702876Y337842D01*
D02*
G37*
G36*
X729750Y337144D02*
X728164Y336828D01*
X726820Y335930D01*
X725922Y334586D01*
X725606Y333000D01*
X725922Y331414D01*
X726820Y330070D01*
X728164Y329172D01*
X729750Y328856D01*
X731336Y329172D01*
X732680Y330070D01*
X733578Y331414D01*
X733894Y333000D01*
X733578Y334586D01*
X732680Y335930D01*
X731336Y336828D01*
X729750Y337144D01*
D02*
G37*
G36*
X639318Y337138D02*
X637732Y336822D01*
X636388Y335924D01*
X635490Y334580D01*
X635174Y332994D01*
X635490Y331408D01*
X636388Y330064D01*
X637732Y329166D01*
X639318Y328850D01*
X640904Y329166D01*
X642248Y330064D01*
X643146Y331408D01*
X643462Y332994D01*
X643146Y334580D01*
X642248Y335924D01*
X640904Y336822D01*
X639318Y337138D01*
D02*
G37*
G36*
X344132Y336854D02*
X342546Y336538D01*
X341202Y335640D01*
X340304Y334296D01*
X339988Y332710D01*
X340304Y331124D01*
X341202Y329780D01*
X342546Y328882D01*
X344132Y328566D01*
X345718Y328882D01*
X347062Y329780D01*
X347960Y331124D01*
X348276Y332710D01*
X347960Y334296D01*
X347062Y335640D01*
X345718Y336538D01*
X344132Y336854D01*
D02*
G37*
G36*
X281606Y333582D02*
X280021Y333266D01*
X278676Y332368D01*
X277778Y331024D01*
X277463Y329438D01*
X277778Y327852D01*
X278676Y326508D01*
X280021Y325610D01*
X281606Y325294D01*
X283192Y325610D01*
X284536Y326508D01*
X285435Y327852D01*
X285750Y329438D01*
X285435Y331024D01*
X284536Y332368D01*
X283192Y333266D01*
X281606Y333582D01*
D02*
G37*
G36*
X629412Y331804D02*
X627826Y331488D01*
X626482Y330590D01*
X625584Y329246D01*
X625268Y327660D01*
X625584Y326074D01*
X626482Y324730D01*
X627826Y323832D01*
X629412Y323516D01*
X630998Y323832D01*
X632342Y324730D01*
X633240Y326074D01*
X633556Y327660D01*
X633240Y329246D01*
X632342Y330590D01*
X630998Y331488D01*
X629412Y331804D01*
D02*
G37*
G36*
X199586Y328306D02*
X198000Y327990D01*
X196656Y327092D01*
X195758Y325748D01*
X195442Y324162D01*
X195758Y322576D01*
X196656Y321232D01*
X198000Y320334D01*
X199586Y320018D01*
X201172Y320334D01*
X202516Y321232D01*
X203414Y322576D01*
X203730Y324162D01*
X203414Y325748D01*
X202516Y327092D01*
X201172Y327990D01*
X199586Y328306D01*
D02*
G37*
G36*
X1220182Y326504D02*
X1218596Y326188D01*
X1217252Y325290D01*
X1216354Y323946D01*
X1216038Y322360D01*
X1216354Y320774D01*
X1217252Y319430D01*
X1218596Y318532D01*
X1220182Y318216D01*
X1221768Y318532D01*
X1223112Y319430D01*
X1224010Y320774D01*
X1224326Y322360D01*
X1224010Y323946D01*
X1223112Y325290D01*
X1221768Y326188D01*
X1220182Y326504D01*
D02*
G37*
G36*
X991000Y328625D02*
X983500D01*
X982528Y328222D01*
X982125Y327250D01*
Y319500D01*
X982528Y318528D01*
X983500Y318125D01*
X991000D01*
X991972Y318528D01*
X992375Y319500D01*
Y327250D01*
X991972Y328222D01*
X991000Y328625D01*
D02*
G37*
G36*
X1081024Y325962D02*
X1079438Y325646D01*
X1078094Y324748D01*
X1077196Y323404D01*
X1076880Y321818D01*
X1077196Y320232D01*
X1078094Y318888D01*
X1079438Y317990D01*
X1081024Y317674D01*
X1082610Y317990D01*
X1083954Y318888D01*
X1084852Y320232D01*
X1085168Y321818D01*
X1084852Y323404D01*
X1083954Y324748D01*
X1082610Y325646D01*
X1081024Y325962D01*
D02*
G37*
G36*
X679156Y323612D02*
X677570Y323296D01*
X676226Y322398D01*
X675328Y321054D01*
X675012Y319468D01*
X675328Y317882D01*
X676226Y316538D01*
X677570Y315640D01*
X679156Y315324D01*
X680742Y315640D01*
X682086Y316538D01*
X682984Y317882D01*
X683300Y319468D01*
X682984Y321054D01*
X682086Y322398D01*
X680742Y323296D01*
X679156Y323612D01*
D02*
G37*
G36*
X644398Y322152D02*
X642812Y321836D01*
X641468Y320938D01*
X640570Y319594D01*
X640254Y318008D01*
X640570Y316422D01*
X641468Y315078D01*
X642812Y314180D01*
X644398Y313864D01*
X645984Y314180D01*
X647328Y315078D01*
X648226Y316422D01*
X648542Y318008D01*
X648226Y319594D01*
X647328Y320938D01*
X645984Y321836D01*
X644398Y322152D01*
D02*
G37*
G36*
X654050Y322152D02*
X652464Y321836D01*
X651120Y320938D01*
X650222Y319594D01*
X649906Y318008D01*
X650222Y316422D01*
X651120Y315078D01*
X652464Y314180D01*
X654050Y313864D01*
X655636Y314180D01*
X656980Y315078D01*
X657878Y316422D01*
X658194Y318008D01*
X657878Y319594D01*
X656980Y320938D01*
X655636Y321836D01*
X654050Y322152D01*
D02*
G37*
G36*
X362482Y330090D02*
X360897Y329775D01*
X359552Y328877D01*
X358654Y327532D01*
X358339Y325947D01*
X358647Y324395D01*
X358685Y324166D01*
X357958Y323125D01*
X353250D01*
X352278Y322722D01*
X351875Y321750D01*
Y314941D01*
X352278Y313969D01*
X353250Y313566D01*
X360500D01*
X361472Y313969D01*
X361875Y314941D01*
Y320629D01*
X362482Y321803D01*
X364068Y322118D01*
X365412Y323017D01*
X366311Y324361D01*
X366626Y325947D01*
X366311Y327532D01*
X365412Y328877D01*
X364068Y329775D01*
X362482Y330090D01*
D02*
G37*
G36*
X594464Y321494D02*
X592878Y321178D01*
X591534Y320280D01*
X590636Y318936D01*
X590320Y317350D01*
X590636Y315764D01*
X591534Y314420D01*
X592878Y313522D01*
X594464Y313206D01*
X596050Y313522D01*
X597394Y314420D01*
X598292Y315764D01*
X598608Y317350D01*
X598292Y318936D01*
X597394Y320280D01*
X596050Y321178D01*
X594464Y321494D01*
D02*
G37*
G36*
X926279Y320920D02*
X924693Y320604D01*
X923349Y319706D01*
X922451Y318362D01*
X922135Y316776D01*
X922451Y315190D01*
X923349Y313846D01*
X924693Y312948D01*
X926279Y312632D01*
X927865Y312948D01*
X929209Y313846D01*
X930107Y315190D01*
X930423Y316776D01*
X930107Y318362D01*
X929209Y319706D01*
X927865Y320604D01*
X926279Y320920D01*
D02*
G37*
G36*
X720500Y319445D02*
X718914Y319130D01*
X717570Y318231D01*
X716672Y316887D01*
X716356Y315301D01*
X716672Y313716D01*
X717570Y312371D01*
X718914Y311473D01*
X720500Y311158D01*
X722086Y311473D01*
X723430Y312371D01*
X724328Y313716D01*
X724644Y315301D01*
X724328Y316887D01*
X723430Y318231D01*
X722086Y319130D01*
X720500Y319445D01*
D02*
G37*
G36*
X951964Y319085D02*
X950378Y318769D01*
X949034Y317871D01*
X948136Y316527D01*
X947820Y314941D01*
X948136Y313355D01*
X949034Y312011D01*
X950378Y311113D01*
X951964Y310797D01*
X953549Y311113D01*
X954894Y312011D01*
X955792Y313355D01*
X956107Y314941D01*
X955792Y316527D01*
X954894Y317871D01*
X953549Y318769D01*
X951964Y319085D01*
D02*
G37*
G36*
X825558Y317336D02*
X823972Y317020D01*
X822628Y316122D01*
X821730Y314778D01*
X821414Y313192D01*
X821730Y311606D01*
X822628Y310262D01*
X823972Y309364D01*
X825558Y309048D01*
X827144Y309364D01*
X828488Y310262D01*
X829386Y311606D01*
X829702Y313192D01*
X829386Y314778D01*
X828488Y316122D01*
X827144Y317020D01*
X825558Y317336D01*
D02*
G37*
G36*
X937500Y316644D02*
X935914Y316328D01*
X934570Y315430D01*
X933672Y314086D01*
X933356Y312500D01*
X933672Y310914D01*
X934570Y309570D01*
X935914Y308672D01*
X937500Y308356D01*
X939086Y308672D01*
X940430Y309570D01*
X941328Y310914D01*
X941644Y312500D01*
X941328Y314086D01*
X940430Y315430D01*
X939086Y316328D01*
X937500Y316644D01*
D02*
G37*
G36*
X852330Y316564D02*
X850744Y316248D01*
X849400Y315350D01*
X848502Y314006D01*
X848186Y312420D01*
X848502Y310834D01*
X849400Y309490D01*
X850744Y308592D01*
X852330Y308276D01*
X853916Y308592D01*
X855260Y309490D01*
X856158Y310834D01*
X856474Y312420D01*
X856158Y314006D01*
X855260Y315350D01*
X853916Y316248D01*
X852330Y316564D01*
D02*
G37*
G36*
X295872Y315946D02*
X294286Y315630D01*
X292942Y314732D01*
X292044Y313388D01*
X291728Y311802D01*
X292044Y310216D01*
X292942Y308872D01*
X294286Y307974D01*
X295872Y307658D01*
X297458Y307974D01*
X298802Y308872D01*
X299700Y310216D01*
X300016Y311802D01*
X299700Y313388D01*
X298802Y314732D01*
X297458Y315630D01*
X295872Y315946D01*
D02*
G37*
G36*
X318008Y311992D02*
X316422Y311676D01*
X315078Y310778D01*
X314180Y309434D01*
X313864Y307848D01*
X314180Y306262D01*
X315078Y304918D01*
X316422Y304020D01*
X318008Y303704D01*
X319594Y304020D01*
X320938Y304918D01*
X321836Y306262D01*
X322152Y307848D01*
X321836Y309434D01*
X320938Y310778D01*
X319594Y311676D01*
X318008Y311992D01*
D02*
G37*
G36*
X999739Y311098D02*
X998153Y310783D01*
X996809Y309884D01*
X995911Y308540D01*
X995595Y306954D01*
X995911Y305369D01*
X996809Y304024D01*
X998153Y303126D01*
X999739Y302811D01*
X1001325Y303126D01*
X1002669Y304024D01*
X1003567Y305369D01*
X1003883Y306954D01*
X1003567Y308540D01*
X1002669Y309884D01*
X1001325Y310783D01*
X999739Y311098D01*
D02*
G37*
G36*
X974739Y310924D02*
X973153Y310608D01*
X971809Y309710D01*
X970911Y308366D01*
X970595Y306780D01*
X970911Y305194D01*
X971809Y303850D01*
X973153Y302952D01*
X974739Y302636D01*
X976325Y302952D01*
X977669Y303850D01*
X978567Y305194D01*
X978883Y306780D01*
X978567Y308366D01*
X977669Y309710D01*
X976325Y310608D01*
X974739Y310924D01*
D02*
G37*
G36*
X477577Y309509D02*
X475992Y309193D01*
X474647Y308295D01*
X473749Y306951D01*
X473433Y305365D01*
X473749Y303780D01*
X474647Y302435D01*
X475992Y301537D01*
X477577Y301222D01*
X479163Y301537D01*
X480507Y302435D01*
X481405Y303780D01*
X481721Y305365D01*
X481405Y306951D01*
X480507Y308295D01*
X479163Y309193D01*
X477577Y309509D01*
D02*
G37*
G36*
X876750Y309144D02*
X875164Y308828D01*
X873820Y307930D01*
X872922Y306586D01*
X872606Y305000D01*
X872922Y303414D01*
X873820Y302070D01*
X875164Y301172D01*
X876750Y300856D01*
X878336Y301172D01*
X879680Y302070D01*
X880578Y303414D01*
X880894Y305000D01*
X880578Y306586D01*
X879680Y307930D01*
X878336Y308828D01*
X876750Y309144D01*
D02*
G37*
G36*
X416814Y308182D02*
X415228Y307866D01*
X413884Y306968D01*
X412986Y305624D01*
X412670Y304038D01*
X412986Y302452D01*
X413884Y301108D01*
X415228Y300210D01*
X416814Y299894D01*
X418400Y300210D01*
X419744Y301108D01*
X420642Y302452D01*
X420958Y304038D01*
X420642Y305624D01*
X419744Y306968D01*
X418400Y307866D01*
X416814Y308182D01*
D02*
G37*
G36*
X369332Y306124D02*
X367746Y305809D01*
X366402Y304910D01*
X365504Y303566D01*
X365188Y301980D01*
X365504Y300395D01*
X366402Y299050D01*
X367746Y298152D01*
X369332Y297837D01*
X370918Y298152D01*
X372262Y299050D01*
X373160Y300395D01*
X373476Y301980D01*
X373160Y303566D01*
X372262Y304910D01*
X370918Y305809D01*
X369332Y306124D01*
D02*
G37*
G36*
X344332Y305950D02*
X342746Y305634D01*
X341402Y304736D01*
X340504Y303392D01*
X340188Y301806D01*
X340504Y300220D01*
X341402Y298876D01*
X342746Y297978D01*
X344332Y297662D01*
X345918Y297978D01*
X347262Y298876D01*
X348160Y300220D01*
X348476Y301806D01*
X348160Y303392D01*
X347262Y304736D01*
X345918Y305634D01*
X344332Y305950D01*
D02*
G37*
G36*
X937500Y305894D02*
X935914Y305578D01*
X934570Y304680D01*
X933672Y303336D01*
X933356Y301750D01*
X933672Y300164D01*
X934570Y298820D01*
X935914Y297922D01*
X937500Y297606D01*
X939086Y297922D01*
X940430Y298820D01*
X941328Y300164D01*
X941644Y301750D01*
X941328Y303336D01*
X940430Y304680D01*
X939086Y305578D01*
X937500Y305894D01*
D02*
G37*
G36*
X1061894Y304198D02*
X1060308Y303882D01*
X1058964Y302984D01*
X1058066Y301640D01*
X1057750Y300054D01*
X1058066Y298468D01*
X1058964Y297124D01*
X1060308Y296226D01*
X1061894Y295910D01*
X1063480Y296226D01*
X1064824Y297124D01*
X1065722Y298468D01*
X1066038Y300054D01*
X1065722Y301640D01*
X1064824Y302984D01*
X1063480Y303882D01*
X1061894Y304198D01*
D02*
G37*
G36*
X868750Y303394D02*
X867164Y303078D01*
X865820Y302180D01*
X864922Y300836D01*
X864606Y299250D01*
X864922Y297664D01*
X865820Y296320D01*
X867164Y295422D01*
X868750Y295106D01*
X870336Y295422D01*
X871680Y296320D01*
X872578Y297664D01*
X872894Y299250D01*
X872578Y300836D01*
X871680Y302180D01*
X870336Y303078D01*
X868750Y303394D01*
D02*
G37*
G36*
X219588Y301324D02*
X218002Y301008D01*
X216658Y300110D01*
X215760Y298766D01*
X215444Y297180D01*
X215760Y295594D01*
X216658Y294250D01*
X218002Y293352D01*
X219588Y293036D01*
X221174Y293352D01*
X222518Y294250D01*
X223416Y295594D01*
X223732Y297180D01*
X223416Y298766D01*
X222518Y300110D01*
X221174Y301008D01*
X219588Y301324D01*
D02*
G37*
G36*
X423418Y301070D02*
X421832Y300754D01*
X420488Y299856D01*
X419590Y298512D01*
X419274Y296926D01*
X419590Y295340D01*
X420488Y293996D01*
X421832Y293098D01*
X423418Y292782D01*
X425004Y293098D01*
X426348Y293996D01*
X427246Y295340D01*
X427562Y296926D01*
X427246Y298512D01*
X426348Y299856D01*
X425004Y300754D01*
X423418Y301070D01*
D02*
G37*
G36*
X585216Y314278D02*
X583630Y313962D01*
X582286Y313064D01*
X581388Y311720D01*
X581072Y310134D01*
X581388Y308548D01*
X581546Y308311D01*
X581852Y307104D01*
X581223Y306684D01*
X580508Y306206D01*
X579610Y304862D01*
X579294Y303276D01*
X579610Y301690D01*
X580508Y300346D01*
X581164Y299907D01*
X581808Y299304D01*
X581488Y298280D01*
X581134Y297750D01*
X580818Y296164D01*
X581134Y294578D01*
X582032Y293234D01*
X583376Y292336D01*
X584962Y292020D01*
X586548Y292336D01*
X587892Y293234D01*
X588790Y294578D01*
X589106Y296164D01*
X588790Y297750D01*
X587892Y299094D01*
X587236Y299533D01*
X586592Y300136D01*
X586912Y301160D01*
X587266Y301690D01*
X587582Y303276D01*
X587266Y304862D01*
X587108Y305099D01*
X586802Y306306D01*
X587431Y306726D01*
X588146Y307204D01*
X589044Y308548D01*
X589360Y310134D01*
X589044Y311720D01*
X588146Y313064D01*
X586802Y313962D01*
X585216Y314278D01*
D02*
G37*
G36*
X435102Y299800D02*
X433516Y299484D01*
X432172Y298586D01*
X431274Y297242D01*
X430958Y295656D01*
X431274Y294070D01*
X432172Y292726D01*
X433516Y291828D01*
X435102Y291512D01*
X436688Y291828D01*
X438032Y292726D01*
X438930Y294070D01*
X439246Y295656D01*
X438930Y297242D01*
X438032Y298586D01*
X436688Y299484D01*
X435102Y299800D01*
D02*
G37*
G36*
X386588Y306480D02*
X385002Y306165D01*
X383658Y305267D01*
X382760Y303922D01*
X382444Y302337D01*
X382760Y300751D01*
X383658Y299407D01*
X385002Y298508D01*
X386588Y298193D01*
X387296Y298334D01*
X388094Y297242D01*
X387778Y295656D01*
X388094Y294070D01*
X388992Y292726D01*
X390336Y291828D01*
X391922Y291512D01*
X393508Y291828D01*
X394852Y292726D01*
X395750Y294070D01*
X396066Y295656D01*
X395750Y297242D01*
X394852Y298586D01*
X393508Y299484D01*
X391922Y299800D01*
X391214Y299659D01*
X390416Y300751D01*
X390732Y302337D01*
X390416Y303922D01*
X389518Y305267D01*
X388174Y306165D01*
X386588Y306480D01*
D02*
G37*
G36*
X445628Y298926D02*
X444042Y298610D01*
X442698Y297712D01*
X441800Y296368D01*
X441484Y294782D01*
X441800Y293196D01*
X442698Y291852D01*
X444042Y290954D01*
X445628Y290638D01*
X447214Y290954D01*
X448558Y291852D01*
X449456Y293196D01*
X449772Y294782D01*
X449456Y296368D01*
X448558Y297712D01*
X447214Y298610D01*
X445628Y298926D01*
D02*
G37*
G36*
X947750Y293933D02*
X946164Y293617D01*
X944820Y292719D01*
X943922Y291375D01*
X943606Y289789D01*
X943922Y288203D01*
X944820Y286859D01*
X946164Y285961D01*
X947750Y285645D01*
X949336Y285961D01*
X950680Y286859D01*
X951578Y288203D01*
X951894Y289789D01*
X951578Y291375D01*
X950680Y292719D01*
X949336Y293617D01*
X947750Y293933D01*
D02*
G37*
G36*
X1059250Y291644D02*
X1057664Y291328D01*
X1056320Y290430D01*
X1055422Y289086D01*
X1055106Y287500D01*
X1055422Y285914D01*
X1056320Y284570D01*
X1057664Y283672D01*
X1059250Y283356D01*
X1060836Y283672D01*
X1062180Y284570D01*
X1063078Y285914D01*
X1063394Y287500D01*
X1063078Y289086D01*
X1062180Y290430D01*
X1060836Y291328D01*
X1059250Y291644D01*
D02*
G37*
G36*
X961547Y290658D02*
X959961Y290342D01*
X958617Y289444D01*
X957719Y288100D01*
X957403Y286514D01*
X957719Y284928D01*
X958617Y283584D01*
X959961Y282686D01*
X961547Y282370D01*
X963133Y282686D01*
X964477Y283584D01*
X965375Y284928D01*
X965691Y286514D01*
X965375Y288100D01*
X964477Y289444D01*
X963133Y290342D01*
X961547Y290658D01*
D02*
G37*
G36*
X1023000Y290394D02*
X1021414Y290078D01*
X1020070Y289180D01*
X1019172Y287836D01*
X1018856Y286250D01*
X1019172Y284664D01*
X1020070Y283320D01*
X1021414Y282422D01*
X1023000Y282106D01*
X1024586Y282422D01*
X1025930Y283320D01*
X1026828Y284664D01*
X1027144Y286250D01*
X1026828Y287836D01*
X1025930Y289180D01*
X1024586Y290078D01*
X1023000Y290394D01*
D02*
G37*
G36*
X1191696Y295808D02*
X1190110Y295492D01*
X1188766Y294594D01*
X1187868Y293250D01*
X1187552Y291664D01*
X1187868Y290078D01*
X1188766Y288734D01*
X1190110Y287836D01*
X1191696Y287520D01*
X1191883Y287303D01*
X1192473Y286380D01*
X1192196Y284988D01*
X1192512Y283402D01*
X1192732Y283072D01*
X1191969Y281929D01*
X1191514Y282020D01*
X1189928Y281704D01*
X1188584Y280806D01*
X1187686Y279462D01*
X1187370Y277876D01*
X1187686Y276290D01*
X1188584Y274946D01*
X1189928Y274048D01*
X1191514Y273732D01*
X1193100Y274048D01*
X1193530Y274335D01*
X1194446Y273420D01*
X1193730Y272349D01*
X1193415Y270763D01*
X1193730Y269177D01*
X1194628Y267833D01*
X1195973Y266935D01*
X1197558Y266620D01*
X1199144Y266935D01*
X1200488Y267833D01*
X1201387Y269177D01*
X1201702Y270763D01*
X1201387Y272349D01*
X1200488Y273693D01*
X1199144Y274591D01*
X1197558Y274907D01*
X1195973Y274591D01*
X1195542Y274304D01*
X1194627Y275219D01*
X1195342Y276290D01*
X1195658Y277876D01*
X1195342Y279462D01*
X1195122Y279792D01*
X1195885Y280935D01*
X1196340Y280844D01*
X1197926Y281160D01*
X1199270Y282058D01*
X1200168Y283402D01*
X1200484Y284988D01*
X1200168Y286574D01*
X1199270Y287918D01*
X1197926Y288816D01*
X1196340Y289132D01*
X1196152Y289349D01*
X1195563Y290272D01*
X1195840Y291664D01*
X1195524Y293250D01*
X1194626Y294594D01*
X1193282Y295492D01*
X1191696Y295808D01*
D02*
G37*
G36*
X658368Y296498D02*
X656782Y296182D01*
X655438Y295284D01*
X654540Y293940D01*
X654224Y292354D01*
X654540Y290768D01*
X655438Y289424D01*
X656782Y288526D01*
X657140Y288455D01*
Y287160D01*
X656528Y287038D01*
X655184Y286140D01*
X654286Y284796D01*
X653970Y283210D01*
X654286Y281624D01*
X655184Y280280D01*
X656528Y279382D01*
X658114Y279066D01*
X659700Y279382D01*
X661044Y280280D01*
X661942Y281624D01*
X662258Y283210D01*
X661942Y284796D01*
X661044Y286140D01*
X659700Y287038D01*
X659342Y287109D01*
Y288404D01*
X659954Y288526D01*
X661298Y289424D01*
X662196Y290768D01*
X662512Y292354D01*
X662196Y293940D01*
X661298Y295284D01*
X659954Y296182D01*
X658368Y296498D01*
D02*
G37*
G36*
X394462Y287100D02*
X392876Y286784D01*
X391532Y285886D01*
X390634Y284542D01*
X390318Y282956D01*
X390634Y281370D01*
X391532Y280026D01*
X392876Y279128D01*
X394462Y278812D01*
X396048Y279128D01*
X397392Y280026D01*
X398290Y281370D01*
X398606Y282956D01*
X398290Y284542D01*
X397392Y285886D01*
X396048Y286784D01*
X394462Y287100D01*
D02*
G37*
G36*
X383032D02*
X381446Y286784D01*
X380102Y285886D01*
X379204Y284542D01*
X378888Y282956D01*
X379204Y281370D01*
X380102Y280026D01*
X381446Y279128D01*
X383032Y278812D01*
X384618Y279128D01*
X385962Y280026D01*
X386860Y281370D01*
X387176Y282956D01*
X386860Y284542D01*
X385962Y285886D01*
X384618Y286784D01*
X383032Y287100D01*
D02*
G37*
G36*
X199516Y286465D02*
X197931Y286150D01*
X196586Y285252D01*
X195688Y283908D01*
X195373Y282322D01*
X195688Y280736D01*
X196586Y279392D01*
X197931Y278494D01*
X199516Y278178D01*
X201102Y278494D01*
X202446Y279392D01*
X203344Y280736D01*
X203660Y282322D01*
X203344Y283908D01*
X202446Y285252D01*
X201102Y286150D01*
X199516Y286465D01*
D02*
G37*
G36*
X1052086Y284894D02*
X1050500Y284578D01*
X1049156Y283680D01*
X1048258Y282336D01*
X1047943Y280750D01*
X1048258Y279164D01*
X1049156Y277820D01*
X1050500Y276922D01*
X1052086Y276606D01*
X1053672Y276922D01*
X1055016Y277820D01*
X1055914Y279164D01*
X1056230Y280750D01*
X1055914Y282336D01*
X1055016Y283680D01*
X1053672Y284578D01*
X1052086Y284894D01*
D02*
G37*
G36*
X1032250Y284639D02*
X1030664Y284324D01*
X1029320Y283425D01*
X1028422Y282081D01*
X1028106Y280495D01*
X1028422Y278910D01*
X1029320Y277565D01*
X1030664Y276667D01*
X1032250Y276352D01*
X1033836Y276667D01*
X1035180Y277565D01*
X1036078Y278910D01*
X1036394Y280495D01*
X1036078Y282081D01*
X1035180Y283425D01*
X1033836Y284324D01*
X1032250Y284639D01*
D02*
G37*
G36*
X952880Y283106D02*
X951294Y282790D01*
X949950Y281892D01*
X949052Y280548D01*
X948736Y278962D01*
X949052Y277376D01*
X949950Y276032D01*
X951294Y275134D01*
X952880Y274818D01*
X954466Y275134D01*
X955810Y276032D01*
X956708Y277376D01*
X957024Y278962D01*
X956708Y280548D01*
X955810Y281892D01*
X954466Y282790D01*
X952880Y283106D01*
D02*
G37*
G36*
X1231946Y282854D02*
X1230360Y282538D01*
X1229016Y281640D01*
X1228118Y280296D01*
X1227802Y278710D01*
X1228118Y277124D01*
X1229016Y275780D01*
X1230360Y274882D01*
X1231946Y274566D01*
X1233532Y274882D01*
X1234876Y275780D01*
X1235774Y277124D01*
X1236090Y278710D01*
X1235774Y280296D01*
X1234876Y281640D01*
X1233532Y282538D01*
X1231946Y282854D01*
D02*
G37*
G36*
X147066Y281223D02*
X145480Y280908D01*
X144136Y280009D01*
X143238Y278665D01*
X142922Y277079D01*
X143238Y275494D01*
X144136Y274149D01*
X145480Y273251D01*
X147066Y272936D01*
X148652Y273251D01*
X149996Y274149D01*
X150894Y275494D01*
X151210Y277079D01*
X150894Y278665D01*
X149996Y280009D01*
X148652Y280908D01*
X147066Y281223D01*
D02*
G37*
G36*
X348234Y280750D02*
X346648Y280434D01*
X345304Y279536D01*
X344406Y278192D01*
X344090Y276606D01*
X344406Y275020D01*
X345304Y273676D01*
X346648Y272778D01*
X348234Y272462D01*
X349820Y272778D01*
X351164Y273676D01*
X352062Y275020D01*
X352378Y276606D01*
X352062Y278192D01*
X351164Y279536D01*
X349820Y280434D01*
X348234Y280750D01*
D02*
G37*
G36*
X326164D02*
X324578Y280434D01*
X323234Y279536D01*
X322335Y278192D01*
X322020Y276606D01*
X322335Y275020D01*
X323234Y273676D01*
X324578Y272778D01*
X326164Y272462D01*
X327749Y272778D01*
X329094Y273676D01*
X329992Y275020D01*
X330307Y276606D01*
X329992Y278192D01*
X329094Y279536D01*
X327749Y280434D01*
X326164Y280750D01*
D02*
G37*
G36*
X832358Y280496D02*
X830772Y280180D01*
X829428Y279282D01*
X828530Y277938D01*
X828214Y276352D01*
X828530Y274766D01*
X829428Y273422D01*
X830772Y272524D01*
X832358Y272208D01*
X833944Y272524D01*
X835288Y273422D01*
X836186Y274766D01*
X836502Y276352D01*
X836186Y277938D01*
X835288Y279282D01*
X833944Y280180D01*
X832358Y280496D01*
D02*
G37*
G36*
X974137Y279894D02*
X972552Y279578D01*
X971208Y278680D01*
X970309Y277336D01*
X969994Y275750D01*
X970309Y274164D01*
X971208Y272820D01*
X972552Y271922D01*
X974137Y271606D01*
X975723Y271922D01*
X977067Y272820D01*
X977966Y274164D01*
X978281Y275750D01*
X977966Y277336D01*
X977067Y278680D01*
X975723Y279578D01*
X974137Y279894D01*
D02*
G37*
G36*
X1059680Y279144D02*
X1058094Y278828D01*
X1056750Y277930D01*
X1055852Y276586D01*
X1055536Y275000D01*
X1055852Y273414D01*
X1056750Y272070D01*
X1058094Y271172D01*
X1059680Y270856D01*
X1061266Y271172D01*
X1062610Y272070D01*
X1063508Y273414D01*
X1063824Y275000D01*
X1063508Y276586D01*
X1062610Y277930D01*
X1061266Y278828D01*
X1059680Y279144D01*
D02*
G37*
G36*
X1042000D02*
X1040414Y278828D01*
X1039070Y277930D01*
X1038172Y276586D01*
X1037856Y275000D01*
X1038172Y273414D01*
X1039070Y272070D01*
X1040414Y271172D01*
X1042000Y270856D01*
X1043586Y271172D01*
X1044930Y272070D01*
X1045828Y273414D01*
X1046144Y275000D01*
X1045828Y276586D01*
X1044930Y277930D01*
X1043586Y278828D01*
X1042000Y279144D01*
D02*
G37*
G36*
X995250Y279025D02*
X993664Y278710D01*
X992320Y277812D01*
X991422Y276467D01*
X991106Y274882D01*
X991422Y273296D01*
X992320Y271952D01*
X993664Y271054D01*
X995250Y270738D01*
X996836Y271054D01*
X998180Y271952D01*
X999078Y273296D01*
X999394Y274882D01*
X999078Y276467D01*
X998180Y277812D01*
X996836Y278710D01*
X995250Y279025D01*
D02*
G37*
G36*
X1116500Y276394D02*
X1114914Y276078D01*
X1113570Y275180D01*
X1112672Y273836D01*
X1112356Y272250D01*
X1112672Y270664D01*
X1113570Y269320D01*
X1114914Y268422D01*
X1116500Y268106D01*
X1118086Y268422D01*
X1119430Y269320D01*
X1120328Y270664D01*
X1120644Y272250D01*
X1120328Y273836D01*
X1119430Y275180D01*
X1118086Y276078D01*
X1116500Y276394D01*
D02*
G37*
G36*
X155448Y275670D02*
X153862Y275354D01*
X152518Y274456D01*
X151620Y273112D01*
X151304Y271526D01*
X151620Y269940D01*
X152518Y268596D01*
X153862Y267698D01*
X155448Y267382D01*
X157034Y267698D01*
X158378Y268596D01*
X159276Y269940D01*
X159592Y271526D01*
X159276Y273112D01*
X158378Y274456D01*
X157034Y275354D01*
X155448Y275670D01*
D02*
G37*
G36*
X503750Y267464D02*
X502164Y267148D01*
X501606Y266775D01*
X500625Y266337D01*
X499644Y266775D01*
X499086Y267148D01*
X497500Y267464D01*
X495914Y267148D01*
X494570Y266250D01*
X493672Y264906D01*
X493356Y263320D01*
X493672Y261734D01*
X494570Y260390D01*
X495914Y259492D01*
X497500Y259176D01*
X499086Y259492D01*
X499644Y259865D01*
X500625Y260303D01*
X501606Y259865D01*
X502164Y259492D01*
X503750Y259176D01*
X505336Y259492D01*
X506680Y260390D01*
X507578Y261734D01*
X507894Y263320D01*
X507578Y264906D01*
X506680Y266250D01*
X505336Y267148D01*
X503750Y267464D01*
D02*
G37*
G36*
X522250D02*
X520664Y267148D01*
X519323Y266252D01*
X518086Y267078D01*
X516500Y267394D01*
X514914Y267078D01*
X513570Y266180D01*
X512672Y264836D01*
X512356Y263250D01*
X512672Y261664D01*
X513570Y260320D01*
X514914Y259422D01*
X516500Y259106D01*
X518086Y259422D01*
X519427Y260318D01*
X520664Y259492D01*
X522250Y259176D01*
X523836Y259492D01*
X525180Y260390D01*
X526078Y261734D01*
X526394Y263320D01*
X526078Y264906D01*
X525180Y266250D01*
X523836Y267148D01*
X522250Y267464D01*
D02*
G37*
G36*
X646282Y274407D02*
X644696Y274091D01*
X643352Y273193D01*
X642453Y271849D01*
X642138Y270263D01*
X642453Y268678D01*
X643352Y267333D01*
X644696Y266435D01*
X646282Y266120D01*
X647867Y266435D01*
X649212Y267333D01*
X650110Y268678D01*
X650425Y270263D01*
X650110Y271849D01*
X649212Y273193D01*
X647867Y274091D01*
X646282Y274407D01*
D02*
G37*
G36*
X987000Y270894D02*
X985414Y270578D01*
X984070Y269680D01*
X983172Y268336D01*
X982856Y266750D01*
X983172Y265164D01*
X983355Y264890D01*
X982439Y263975D01*
X981716Y264458D01*
X980130Y264774D01*
X978544Y264458D01*
X977200Y263560D01*
X976302Y262216D01*
X975986Y260630D01*
X976302Y259044D01*
X977200Y257700D01*
X978544Y256802D01*
X980130Y256486D01*
X981716Y256802D01*
X983060Y257700D01*
X983958Y259044D01*
X984274Y260630D01*
X983958Y262216D01*
X983775Y262489D01*
X984691Y263405D01*
X985414Y262922D01*
X987000Y262606D01*
X988586Y262922D01*
X989930Y263820D01*
X990828Y265164D01*
X991144Y266750D01*
X990828Y268336D01*
X989930Y269680D01*
X988586Y270578D01*
X987000Y270894D01*
D02*
G37*
G36*
X165100Y270590D02*
X163514Y270274D01*
X162170Y269376D01*
X161272Y268032D01*
X160956Y266446D01*
X161272Y264860D01*
X162170Y263516D01*
X163514Y262618D01*
X165100Y262302D01*
X166686Y262618D01*
X168030Y263516D01*
X168928Y264860D01*
X169244Y266446D01*
X168928Y268032D01*
X168030Y269376D01*
X166686Y270274D01*
X165100Y270590D01*
D02*
G37*
G36*
X1231960Y269854D02*
X1230374Y269538D01*
X1229030Y268640D01*
X1228132Y267296D01*
X1227816Y265710D01*
X1228132Y264124D01*
X1229030Y262780D01*
X1230374Y261882D01*
X1231960Y261566D01*
X1233546Y261882D01*
X1234890Y262780D01*
X1235788Y264124D01*
X1236104Y265710D01*
X1235788Y267296D01*
X1234890Y268640D01*
X1233546Y269538D01*
X1231960Y269854D01*
D02*
G37*
G36*
X866186Y274144D02*
X864600Y273828D01*
X863256Y272930D01*
X862358Y271586D01*
X862042Y270000D01*
X862358Y268414D01*
X863256Y267070D01*
X864600Y266172D01*
X866186Y265856D01*
X867772Y266172D01*
X869116Y267070D01*
X869127Y267087D01*
X870323Y266591D01*
X870106Y265500D01*
X870422Y263914D01*
X871320Y262570D01*
X872664Y261672D01*
X874250Y261356D01*
X875836Y261672D01*
X877180Y262570D01*
X878078Y263914D01*
X878394Y265500D01*
X878078Y267086D01*
X877180Y268430D01*
X875836Y269328D01*
X874250Y269644D01*
X872664Y269328D01*
X871320Y268430D01*
X871309Y268413D01*
X870113Y268909D01*
X870330Y270000D01*
X870014Y271586D01*
X869116Y272930D01*
X867772Y273828D01*
X866186Y274144D01*
D02*
G37*
G36*
X707644Y268776D02*
X706058Y268460D01*
X704714Y267562D01*
X703816Y266218D01*
X703500Y264632D01*
X703816Y263046D01*
X704714Y261702D01*
X706058Y260804D01*
X707644Y260488D01*
X709230Y260804D01*
X710574Y261702D01*
X711472Y263046D01*
X711788Y264632D01*
X711472Y266218D01*
X710574Y267562D01*
X709230Y268460D01*
X707644Y268776D01*
D02*
G37*
G36*
X690534Y268407D02*
X688948Y268091D01*
X687604Y267193D01*
X686705Y265849D01*
X686390Y264263D01*
X686705Y262677D01*
X687604Y261333D01*
X688948Y260435D01*
X690534Y260119D01*
X692119Y260435D01*
X693464Y261333D01*
X694362Y262677D01*
X694677Y264263D01*
X694362Y265849D01*
X693464Y267193D01*
X692119Y268091D01*
X690534Y268407D01*
D02*
G37*
G36*
X1065220Y266924D02*
X1063634Y266608D01*
X1062290Y265710D01*
X1061392Y264366D01*
X1061076Y262780D01*
X1061392Y261194D01*
X1062290Y259850D01*
X1063634Y258952D01*
X1065220Y258636D01*
X1066806Y258952D01*
X1068150Y259850D01*
X1069048Y261194D01*
X1069364Y262780D01*
X1069048Y264366D01*
X1068150Y265710D01*
X1066806Y266608D01*
X1065220Y266924D01*
D02*
G37*
G36*
X720500Y264774D02*
X718914Y264458D01*
X717570Y263560D01*
X716672Y262216D01*
X716356Y260630D01*
X716672Y259044D01*
X717570Y257700D01*
X718914Y256802D01*
X720500Y256486D01*
X722086Y256802D01*
X723430Y257700D01*
X724328Y259044D01*
X724644Y260630D01*
X724328Y262216D01*
X723430Y263560D01*
X722086Y264458D01*
X720500Y264774D01*
D02*
G37*
G36*
X883500Y264144D02*
X881914Y263828D01*
X880570Y262930D01*
X879672Y261586D01*
X879356Y260000D01*
X879672Y258414D01*
X880570Y257070D01*
X881914Y256172D01*
X883500Y255856D01*
X885086Y256172D01*
X886430Y257070D01*
X887328Y258414D01*
X887644Y260000D01*
X887328Y261586D01*
X886430Y262930D01*
X885086Y263828D01*
X883500Y264144D01*
D02*
G37*
G36*
X733085Y261559D02*
X731499Y261243D01*
X730155Y260345D01*
X729257Y259001D01*
X728941Y257415D01*
X729257Y255829D01*
X730155Y254485D01*
X731499Y253587D01*
X733085Y253271D01*
X734671Y253587D01*
X736015Y254485D01*
X736913Y255829D01*
X737229Y257415D01*
X736913Y259001D01*
X736015Y260345D01*
X734671Y261243D01*
X733085Y261559D01*
D02*
G37*
G36*
X560578Y259414D02*
X558992Y259098D01*
X557648Y258200D01*
X556750Y256856D01*
X556434Y255270D01*
X556699Y253938D01*
X556053Y253256D01*
X555684Y253028D01*
X554228Y253318D01*
X552642Y253002D01*
X551298Y252104D01*
X550400Y250760D01*
X550084Y249174D01*
X550400Y247588D01*
X551298Y246244D01*
X552642Y245346D01*
X554228Y245030D01*
X554683Y245121D01*
X555763Y244041D01*
X555672Y243586D01*
X555710Y243396D01*
X554630Y242316D01*
X554228Y242396D01*
X552642Y242080D01*
X551298Y241182D01*
X550400Y239838D01*
X550084Y238252D01*
X550400Y236666D01*
X551298Y235322D01*
X552642Y234424D01*
X554228Y234108D01*
X555814Y234424D01*
X557158Y235322D01*
X558056Y236666D01*
X558372Y238252D01*
X558334Y238442D01*
X559414Y239522D01*
X559816Y239442D01*
X561402Y239758D01*
X562746Y240656D01*
X563644Y242000D01*
X563960Y243586D01*
X563644Y245172D01*
X562746Y246516D01*
X561402Y247414D01*
X559816Y247730D01*
X559361Y247639D01*
X558281Y248719D01*
X558372Y249174D01*
X558107Y250506D01*
X558753Y251189D01*
X559122Y251416D01*
X560578Y251126D01*
X562164Y251442D01*
X563508Y252340D01*
X564406Y253684D01*
X564722Y255270D01*
X564406Y256856D01*
X563508Y258200D01*
X562164Y259098D01*
X560578Y259414D01*
D02*
G37*
G36*
X1126490Y258654D02*
X1124904Y258338D01*
X1123560Y257440D01*
X1122662Y256096D01*
X1122346Y254510D01*
X1122662Y252924D01*
X1123560Y251580D01*
X1124904Y250682D01*
X1126490Y250366D01*
X1128076Y250682D01*
X1129420Y251580D01*
X1130318Y252924D01*
X1130634Y254510D01*
X1130318Y256096D01*
X1129420Y257440D01*
X1128076Y258338D01*
X1126490Y258654D01*
D02*
G37*
G36*
X1197500Y264144D02*
X1195914Y263828D01*
X1194570Y262930D01*
X1193672Y261586D01*
X1193356Y260000D01*
X1193672Y258414D01*
X1193878Y258105D01*
X1193277Y256719D01*
X1192468Y256558D01*
X1191124Y255660D01*
X1190226Y254316D01*
X1189910Y252730D01*
X1190226Y251144D01*
X1191124Y249800D01*
X1192468Y248902D01*
X1194054Y248586D01*
X1195640Y248902D01*
X1196984Y249800D01*
X1197882Y251144D01*
X1198198Y252730D01*
X1197882Y254316D01*
X1197675Y254625D01*
X1198277Y256011D01*
X1199086Y256172D01*
X1200430Y257070D01*
X1201328Y258414D01*
X1201644Y260000D01*
X1201328Y261586D01*
X1200430Y262930D01*
X1199086Y263828D01*
X1197500Y264144D01*
D02*
G37*
G36*
X451104Y256874D02*
X449518Y256558D01*
X448174Y255660D01*
X447276Y254316D01*
X446960Y252730D01*
X447276Y251144D01*
X448174Y249800D01*
X449518Y248902D01*
X451104Y248586D01*
X452690Y248902D01*
X454034Y249800D01*
X454932Y251144D01*
X455248Y252730D01*
X454932Y254316D01*
X454034Y255660D01*
X452690Y256558D01*
X451104Y256874D01*
D02*
G37*
G36*
X997000Y264144D02*
X995414Y263828D01*
X994070Y262930D01*
X993172Y261586D01*
X992856Y260000D01*
X993172Y258414D01*
X994070Y257070D01*
X995414Y256172D01*
X995521Y256150D01*
X995579Y255995D01*
X995655Y254829D01*
X994594Y254120D01*
X993696Y252776D01*
X993380Y251190D01*
X993696Y249604D01*
X994594Y248260D01*
X995938Y247362D01*
X997524Y247046D01*
X999110Y247362D01*
X1000454Y248260D01*
X1001352Y249604D01*
X1001668Y251190D01*
X1001352Y252776D01*
X1000454Y254120D01*
X999110Y255018D01*
X999003Y255039D01*
X998946Y255195D01*
X998869Y256361D01*
X999930Y257070D01*
X1000828Y258414D01*
X1001144Y260000D01*
X1000828Y261586D01*
X999930Y262930D01*
X998586Y263828D01*
X997000Y264144D01*
D02*
G37*
G36*
X608076Y254588D02*
X606490Y254272D01*
X605146Y253374D01*
X604248Y252030D01*
X603932Y250444D01*
X604248Y248858D01*
X605146Y247514D01*
X606490Y246616D01*
X608076Y246300D01*
X609662Y246616D01*
X611006Y247514D01*
X611904Y248858D01*
X612220Y250444D01*
X611904Y252030D01*
X611006Y253374D01*
X609662Y254272D01*
X608076Y254588D01*
D02*
G37*
G36*
X857750Y252894D02*
X856164Y252578D01*
X854820Y251680D01*
X853922Y250336D01*
X853606Y248750D01*
X853922Y247164D01*
X854820Y245820D01*
X856164Y244922D01*
X857750Y244606D01*
X859336Y244922D01*
X860680Y245820D01*
X861578Y247164D01*
X861894Y248750D01*
X861578Y250336D01*
X860680Y251680D01*
X859336Y252578D01*
X857750Y252894D01*
D02*
G37*
G36*
X589200Y248967D02*
X586879Y248661D01*
X584717Y247765D01*
X582860Y246340D01*
X581672Y244793D01*
X580925Y244518D01*
X580098Y244574D01*
X579102Y245240D01*
X577516Y245555D01*
X575930Y245240D01*
X574586Y244342D01*
X573688Y242997D01*
X573372Y241412D01*
X573688Y239826D01*
X574586Y238482D01*
X575930Y237583D01*
X577516Y237268D01*
X579102Y237583D01*
X579366Y237760D01*
X580754Y237160D01*
X581435Y235517D01*
X582860Y233660D01*
X584717Y232235D01*
X586879Y231339D01*
X589200Y231033D01*
X591521Y231339D01*
X593683Y232235D01*
X595540Y233660D01*
X596965Y235517D01*
X597861Y237679D01*
X598167Y240000D01*
X597861Y242321D01*
X596965Y244483D01*
X595540Y246340D01*
X593683Y247765D01*
X591521Y248661D01*
X589200Y248967D01*
D02*
G37*
G36*
X931750Y252644D02*
X930164Y252328D01*
X928820Y251430D01*
X927922Y250086D01*
X927606Y248500D01*
X927922Y246914D01*
X928820Y245570D01*
X930164Y244672D01*
X931750Y244356D01*
X933336Y244672D01*
X934680Y245570D01*
X935578Y246914D01*
X935894Y248500D01*
X935578Y250086D01*
X934680Y251430D01*
X933336Y252328D01*
X931750Y252644D01*
D02*
G37*
G36*
X944326Y252584D02*
X942740Y252269D01*
X941396Y251371D01*
X940497Y250026D01*
X940182Y248441D01*
X940497Y246855D01*
X941396Y245511D01*
X942740Y244613D01*
X944326Y244297D01*
X945911Y244613D01*
X947256Y245511D01*
X948154Y246855D01*
X948469Y248441D01*
X948154Y250026D01*
X947256Y251371D01*
X945911Y252269D01*
X944326Y252584D01*
D02*
G37*
G36*
X267970Y250524D02*
X266384Y250208D01*
X265040Y249310D01*
X264142Y247966D01*
X263826Y246380D01*
X264142Y244794D01*
X265040Y243450D01*
X266384Y242552D01*
X267970Y242236D01*
X269556Y242552D01*
X270900Y243450D01*
X271798Y244794D01*
X272114Y246380D01*
X271798Y247966D01*
X270900Y249310D01*
X269556Y250208D01*
X267970Y250524D01*
D02*
G37*
G36*
X690800Y248967D02*
X688479Y248661D01*
X686317Y247765D01*
X684460Y246340D01*
X683035Y244483D01*
X682230Y242541D01*
X681505Y242149D01*
X680811Y241962D01*
X680619Y242090D01*
X679033Y242405D01*
X677447Y242090D01*
X676103Y241192D01*
X675205Y239847D01*
X674890Y238262D01*
X675205Y236676D01*
X676103Y235332D01*
X677447Y234433D01*
X679033Y234118D01*
X680619Y234433D01*
X681786Y235213D01*
X682151Y235302D01*
X683344Y235113D01*
X684460Y233660D01*
X686317Y232235D01*
X688479Y231339D01*
X690800Y231033D01*
X693121Y231339D01*
X695283Y232235D01*
X697140Y233660D01*
X698565Y235517D01*
X699461Y237679D01*
X699767Y240000D01*
X699461Y242321D01*
X698565Y244483D01*
X697140Y246340D01*
X695283Y247765D01*
X693121Y248661D01*
X690800Y248967D01*
D02*
G37*
G36*
X775250Y244800D02*
X773664Y244484D01*
X772320Y243586D01*
X771422Y242242D01*
X771106Y240656D01*
X771309Y239639D01*
X770411Y238577D01*
X770331Y238538D01*
X769802Y238644D01*
X768216Y238328D01*
X766872Y237430D01*
X765974Y236086D01*
X765658Y234500D01*
X765974Y232914D01*
X766659Y231888D01*
X765744Y230973D01*
X765586Y231078D01*
X764000Y231394D01*
X762414Y231078D01*
X761070Y230180D01*
X760172Y228836D01*
X759856Y227250D01*
X760172Y225664D01*
X761070Y224320D01*
X762414Y223422D01*
X764000Y223106D01*
X765586Y223422D01*
X766930Y224320D01*
X767828Y225664D01*
X768144Y227250D01*
X767828Y228836D01*
X767143Y229862D01*
X768058Y230777D01*
X768216Y230672D01*
X769802Y230356D01*
X771388Y230672D01*
X772732Y231570D01*
X773630Y232914D01*
X773946Y234500D01*
X773743Y235517D01*
X774641Y236579D01*
X774721Y236618D01*
X775250Y236512D01*
X776836Y236828D01*
X778180Y237726D01*
X779078Y239070D01*
X779394Y240656D01*
X779078Y242242D01*
X778180Y243586D01*
X776836Y244484D01*
X775250Y244800D01*
D02*
G37*
G36*
X612775Y245952D02*
X611189Y245636D01*
X609845Y244738D01*
X608947Y243394D01*
X608631Y241808D01*
X608947Y240222D01*
X609845Y238878D01*
X611189Y237980D01*
X612775Y237664D01*
X614361Y237980D01*
X615705Y238878D01*
X616603Y240222D01*
X616919Y241808D01*
X616603Y243394D01*
X615705Y244738D01*
X614361Y245636D01*
X612775Y245952D01*
D02*
G37*
G36*
X721106Y245190D02*
X719520Y244874D01*
X718176Y243976D01*
X717278Y242632D01*
X716962Y241046D01*
X717278Y239460D01*
X718176Y238116D01*
X719520Y237218D01*
X721106Y236902D01*
X722692Y237218D01*
X724036Y238116D01*
X724934Y239460D01*
X725250Y241046D01*
X724934Y242632D01*
X724036Y243976D01*
X722692Y244874D01*
X721106Y245190D01*
D02*
G37*
G36*
X1120902Y245009D02*
X1119316Y244694D01*
X1117972Y243796D01*
X1117074Y242451D01*
X1116758Y240866D01*
X1117074Y239280D01*
X1117972Y237936D01*
X1119316Y237037D01*
X1120902Y236722D01*
X1122488Y237037D01*
X1123832Y237936D01*
X1124730Y239280D01*
X1125046Y240866D01*
X1124730Y242451D01*
X1123832Y243796D01*
X1122488Y244694D01*
X1120902Y245009D01*
D02*
G37*
G36*
X1185558Y243905D02*
X1183972Y243590D01*
X1182628Y242692D01*
X1181730Y241347D01*
X1181414Y239762D01*
X1181730Y238176D01*
X1182628Y236832D01*
X1183972Y235933D01*
X1185558Y235618D01*
X1187143Y235933D01*
X1188488Y236832D01*
X1189386Y238176D01*
X1189702Y239762D01*
X1189386Y241347D01*
X1188488Y242692D01*
X1187143Y243590D01*
X1185558Y243905D01*
D02*
G37*
G36*
X1196308Y242655D02*
X1194723Y242340D01*
X1193378Y241442D01*
X1192480Y240097D01*
X1192165Y238512D01*
X1192480Y236926D01*
X1193378Y235582D01*
X1194723Y234683D01*
X1196308Y234368D01*
X1197894Y234683D01*
X1199238Y235582D01*
X1200137Y236926D01*
X1200452Y238512D01*
X1200137Y240097D01*
X1199238Y241442D01*
X1197894Y242340D01*
X1196308Y242655D01*
D02*
G37*
G36*
X793208Y240110D02*
X791622Y239794D01*
X790278Y238896D01*
X789380Y237552D01*
X789064Y235966D01*
X789380Y234380D01*
X790278Y233036D01*
X791622Y232138D01*
X793208Y231822D01*
X794794Y232138D01*
X796138Y233036D01*
X797036Y234380D01*
X797352Y235966D01*
X797036Y237552D01*
X796138Y238896D01*
X794794Y239794D01*
X793208Y240110D01*
D02*
G37*
G36*
X1030750Y239894D02*
X1029164Y239578D01*
X1027820Y238680D01*
X1026922Y237336D01*
X1026606Y235750D01*
X1026922Y234164D01*
X1027820Y232820D01*
X1029164Y231922D01*
X1030750Y231606D01*
X1032336Y231922D01*
X1033680Y232820D01*
X1034578Y234164D01*
X1034894Y235750D01*
X1034578Y237336D01*
X1033680Y238680D01*
X1032336Y239578D01*
X1030750Y239894D01*
D02*
G37*
G36*
X401113Y239822D02*
X399527Y239507D01*
X398183Y238609D01*
X397284Y237264D01*
X396969Y235679D01*
X397284Y234093D01*
X398183Y232749D01*
X399527Y231850D01*
X401113Y231535D01*
X402698Y231850D01*
X404043Y232749D01*
X404941Y234093D01*
X405256Y235679D01*
X404941Y237264D01*
X404043Y238609D01*
X402698Y239507D01*
X401113Y239822D01*
D02*
G37*
G36*
X890086Y239094D02*
X888500Y238778D01*
X887156Y237880D01*
X886257Y236536D01*
X885942Y234950D01*
X886257Y233364D01*
X887156Y232020D01*
X888500Y231122D01*
X890086Y230806D01*
X891671Y231122D01*
X893016Y232020D01*
X893914Y233364D01*
X894229Y234950D01*
X893914Y236536D01*
X893016Y237880D01*
X891671Y238778D01*
X890086Y239094D01*
D02*
G37*
G36*
X940131Y239013D02*
X938545Y238698D01*
X937201Y237799D01*
X936302Y236455D01*
X935987Y234869D01*
X936302Y233284D01*
X937201Y231939D01*
X938545Y231041D01*
X940131Y230726D01*
X941716Y231041D01*
X943061Y231939D01*
X943959Y233284D01*
X944274Y234869D01*
X943959Y236455D01*
X943061Y237799D01*
X941716Y238698D01*
X940131Y239013D01*
D02*
G37*
G36*
X728756Y239318D02*
X727170Y239002D01*
X725826Y238104D01*
X724928Y236760D01*
X724612Y235174D01*
X724928Y233589D01*
X725826Y232244D01*
X727170Y231346D01*
X728756Y231031D01*
X730341Y231346D01*
X730350Y231352D01*
X731265Y230436D01*
X731248Y230410D01*
X730932Y228824D01*
X731248Y227238D01*
X732146Y225894D01*
X733490Y224996D01*
X735076Y224680D01*
X736662Y224996D01*
X738006Y225894D01*
X738904Y227238D01*
X739220Y228824D01*
X738904Y230410D01*
X738006Y231754D01*
X736662Y232652D01*
X735076Y232968D01*
X733490Y232652D01*
X733482Y232647D01*
X732566Y233562D01*
X732584Y233589D01*
X732899Y235174D01*
X732584Y236760D01*
X731686Y238104D01*
X730341Y239002D01*
X728756Y239318D01*
D02*
G37*
G36*
X1211750Y232644D02*
X1210164Y232328D01*
X1208820Y231430D01*
X1207922Y230086D01*
X1207606Y228500D01*
X1207922Y226914D01*
X1208820Y225570D01*
X1210164Y224672D01*
X1211750Y224356D01*
X1213336Y224672D01*
X1214680Y225570D01*
X1215578Y226914D01*
X1215894Y228500D01*
X1215578Y230086D01*
X1214680Y231430D01*
X1213336Y232328D01*
X1211750Y232644D01*
D02*
G37*
G36*
X1015702Y232236D02*
X1014116Y231920D01*
X1012772Y231022D01*
X1011874Y229678D01*
X1011558Y228092D01*
X1011874Y226506D01*
X1012772Y225162D01*
X1014116Y224264D01*
X1015702Y223948D01*
X1017288Y224264D01*
X1018632Y225162D01*
X1019530Y226506D01*
X1019846Y228092D01*
X1019530Y229678D01*
X1018632Y231022D01*
X1017288Y231920D01*
X1015702Y232236D01*
D02*
G37*
G36*
X845312Y228426D02*
X843726Y228110D01*
X842382Y227212D01*
X841484Y225868D01*
X841168Y224282D01*
X841484Y222696D01*
X842382Y221352D01*
X843726Y220454D01*
X845312Y220138D01*
X846898Y220454D01*
X848242Y221352D01*
X849140Y222696D01*
X849456Y224282D01*
X849140Y225868D01*
X848242Y227212D01*
X846898Y228110D01*
X845312Y228426D01*
D02*
G37*
G36*
X382016Y234776D02*
X380430Y234460D01*
X379086Y233562D01*
X378188Y232218D01*
X377872Y230632D01*
X378188Y229046D01*
X379086Y227702D01*
X379390Y227499D01*
Y226516D01*
X379252Y226064D01*
X378442Y224852D01*
X378126Y223266D01*
X378442Y221680D01*
X379340Y220336D01*
X380684Y219438D01*
X382270Y219122D01*
X383856Y219438D01*
X385200Y220336D01*
X386098Y221680D01*
X386414Y223266D01*
X386098Y224852D01*
X385200Y226196D01*
X384896Y226399D01*
Y227381D01*
X385034Y227834D01*
X385844Y229046D01*
X386160Y230632D01*
X385844Y232218D01*
X384946Y233562D01*
X383602Y234460D01*
X382016Y234776D01*
D02*
G37*
G36*
X454406Y240398D02*
X452820Y240082D01*
X451476Y239184D01*
X450578Y237840D01*
X450262Y236254D01*
X450544Y234839D01*
X449849Y233648D01*
X449518Y233582D01*
X448174Y232684D01*
X447276Y231340D01*
X446960Y229754D01*
X447276Y228168D01*
X448174Y226824D01*
X449518Y225926D01*
X449849Y225860D01*
X450498Y224436D01*
X450262Y223254D01*
X450578Y221668D01*
X451476Y220324D01*
X452820Y219426D01*
X454406Y219110D01*
X455992Y219426D01*
X457336Y220324D01*
X458234Y221668D01*
X458550Y223254D01*
X458234Y224840D01*
X457336Y226184D01*
X455992Y227082D01*
X455662Y227148D01*
X455013Y228572D01*
X455248Y229754D01*
X454966Y231169D01*
X455662Y232360D01*
X455992Y232426D01*
X457336Y233324D01*
X458234Y234668D01*
X458550Y236254D01*
X458234Y237840D01*
X457336Y239184D01*
X455992Y240082D01*
X454406Y240398D01*
D02*
G37*
G36*
X561632Y235576D02*
X560047Y235261D01*
X558702Y234362D01*
X557804Y233018D01*
X557489Y231432D01*
X557804Y229847D01*
X558702Y228502D01*
X560047Y227604D01*
X560953Y227424D01*
X560832Y226203D01*
X560278Y226093D01*
X559246Y225888D01*
X557902Y224990D01*
X557004Y223645D01*
X556688Y222060D01*
X557004Y220474D01*
X557327Y219991D01*
X556411Y219075D01*
X555814Y219474D01*
X554228Y219790D01*
X552642Y219474D01*
X551298Y218576D01*
X550400Y217232D01*
X550084Y215646D01*
X550400Y214060D01*
X551298Y212716D01*
X552642Y211818D01*
X554228Y211502D01*
X555814Y211818D01*
X556198Y212074D01*
X556884Y211631D01*
X557227Y211235D01*
X556942Y209804D01*
X557227Y208373D01*
X556884Y207977D01*
X556198Y207534D01*
X555814Y207790D01*
X554228Y208106D01*
X552642Y207790D01*
X551298Y206892D01*
X550400Y205548D01*
X550084Y203962D01*
X550400Y202376D01*
X551298Y201032D01*
X552642Y200134D01*
X552517Y198864D01*
X543250D01*
Y192500D01*
X554740D01*
X555172Y191230D01*
X554274Y190542D01*
X553029Y188918D01*
X552246Y187028D01*
X551979Y185000D01*
X552246Y182972D01*
X553029Y181082D01*
X554274Y179458D01*
X555897Y178213D01*
X557788Y177430D01*
X559816Y177163D01*
X561844Y177430D01*
X563735Y178213D01*
X564457Y178768D01*
X565397Y177888D01*
X565251Y177670D01*
X565054Y176679D01*
Y131679D01*
X565251Y130688D01*
X565813Y129848D01*
X566653Y129286D01*
X567644Y129089D01*
X607644D01*
X608635Y129286D01*
X609475Y129848D01*
X610037Y130688D01*
X610234Y131679D01*
Y176679D01*
X610037Y177670D01*
X609475Y178510D01*
X608635Y179072D01*
X607644Y179269D01*
X567644D01*
X566663Y179074D01*
X566632Y179094D01*
X565791Y180023D01*
X566603Y181082D01*
X567386Y182972D01*
X567653Y185000D01*
X567386Y187028D01*
X566603Y188918D01*
X565358Y190542D01*
X564460Y191230D01*
X564892Y192500D01*
X737500D01*
Y198864D01*
X722621D01*
X721942Y200134D01*
X722208Y200531D01*
X722523Y202117D01*
X722466Y202401D01*
X723584Y203182D01*
X725170Y202866D01*
X726756Y203182D01*
X728100Y204080D01*
X728998Y205424D01*
X729314Y207010D01*
X728998Y208596D01*
X728100Y209940D01*
X726756Y210838D01*
X725170Y211154D01*
X723584Y210838D01*
X723351Y210682D01*
X722493Y211448D01*
X722402Y211576D01*
X722672Y212932D01*
X723065Y213327D01*
X723871Y213793D01*
X725170Y213534D01*
X726756Y213850D01*
X728100Y214748D01*
X728998Y216092D01*
X729314Y217678D01*
X728998Y219264D01*
X728100Y220608D01*
X726756Y221506D01*
X725170Y221822D01*
X723584Y221506D01*
X722240Y220608D01*
X721342Y219264D01*
X721064Y217868D01*
X720671Y217473D01*
X719865Y217008D01*
X718566Y217266D01*
X716980Y216950D01*
X715636Y216052D01*
X714738Y214708D01*
X714422Y213122D01*
X714738Y211537D01*
X715636Y210192D01*
X716980Y209294D01*
X718566Y208979D01*
X720152Y209294D01*
X720385Y209450D01*
X721243Y208684D01*
X721334Y208557D01*
X721026Y207010D01*
X721083Y206725D01*
X719965Y205945D01*
X718379Y206260D01*
X716794Y205945D01*
X715449Y205047D01*
X714551Y203702D01*
X714236Y202117D01*
X714551Y200531D01*
X714817Y200134D01*
X714138Y198864D01*
X688736D01*
X688216Y200134D01*
X688866Y201106D01*
X689182Y202692D01*
X688866Y204278D01*
X687968Y205622D01*
X686624Y206520D01*
X685038Y206836D01*
X683452Y206520D01*
X682108Y205622D01*
X681210Y204278D01*
X680894Y202692D01*
X681210Y201106D01*
X681860Y200134D01*
X681340Y198864D01*
X674307D01*
X673922Y200134D01*
X674506Y200524D01*
X675404Y201868D01*
X675720Y203454D01*
X675404Y205040D01*
X674506Y206384D01*
X673162Y207282D01*
X671576Y207598D01*
X669990Y207282D01*
X668646Y206384D01*
X667748Y205040D01*
X667432Y203454D01*
X667748Y201868D01*
X668646Y200524D01*
X669230Y200134D01*
X668845Y198864D01*
X642000D01*
X641480Y200134D01*
X642130Y201106D01*
X642446Y202692D01*
X642130Y204278D01*
X641232Y205622D01*
X639888Y206520D01*
X638302Y206836D01*
X636716Y206520D01*
X635372Y205622D01*
X634474Y204278D01*
X634158Y202692D01*
X634474Y201106D01*
X635124Y200134D01*
X634604Y198864D01*
X555939D01*
X555814Y200134D01*
X557158Y201032D01*
X558056Y202376D01*
X558372Y203962D01*
X558087Y205393D01*
X558429Y205789D01*
X559116Y206232D01*
X559500Y205976D01*
X561086Y205660D01*
X562672Y205976D01*
X564016Y206874D01*
X564914Y208218D01*
X565230Y209804D01*
X564914Y211390D01*
X564016Y212734D01*
X562672Y213632D01*
X561086Y213948D01*
X559500Y213632D01*
X559116Y213376D01*
X558429Y213819D01*
X558087Y214215D01*
X558372Y215646D01*
X558056Y217232D01*
X557733Y217715D01*
X558649Y218631D01*
X559246Y218232D01*
X560832Y217916D01*
X562418Y218232D01*
X563762Y219130D01*
X564660Y220474D01*
X564976Y222060D01*
X564660Y223645D01*
X563762Y224990D01*
X562418Y225888D01*
X561511Y226068D01*
X561632Y227289D01*
X562187Y227399D01*
X563218Y227604D01*
X564562Y228502D01*
X565461Y229847D01*
X565776Y231432D01*
X565461Y233018D01*
X564562Y234362D01*
X563218Y235261D01*
X561632Y235576D01*
D02*
G37*
G36*
X138674Y226862D02*
X137088Y226547D01*
X135744Y225648D01*
X134846Y224304D01*
X134530Y222719D01*
X134846Y221133D01*
X135744Y219788D01*
X137088Y218890D01*
X138674Y218575D01*
X140260Y218890D01*
X141604Y219788D01*
X142502Y221133D01*
X142818Y222719D01*
X142502Y224304D01*
X141604Y225648D01*
X140260Y226547D01*
X138674Y226862D01*
D02*
G37*
G36*
X660081Y224870D02*
X658495Y224554D01*
X657151Y223656D01*
X656253Y222312D01*
X655937Y220726D01*
X656253Y219140D01*
X657151Y217796D01*
X658495Y216898D01*
X660081Y216582D01*
X661666Y216898D01*
X663011Y217796D01*
X663909Y219140D01*
X664224Y220726D01*
X663909Y222312D01*
X663011Y223656D01*
X661666Y224554D01*
X660081Y224870D01*
D02*
G37*
G36*
X1127637Y224824D02*
X1126051Y224508D01*
X1124707Y223610D01*
X1123809Y222266D01*
X1123493Y220680D01*
X1123809Y219094D01*
X1124707Y217750D01*
X1126051Y216852D01*
X1127637Y216536D01*
X1129223Y216852D01*
X1130567Y217750D01*
X1131465Y219094D01*
X1131781Y220680D01*
X1131465Y222266D01*
X1130567Y223610D01*
X1129223Y224508D01*
X1127637Y224824D01*
D02*
G37*
G36*
X210262Y224480D02*
X208676Y224164D01*
X207332Y223266D01*
X206434Y221922D01*
X206119Y220336D01*
X206434Y218750D01*
X207332Y217406D01*
X208676Y216508D01*
X210262Y216192D01*
X211848Y216508D01*
X213192Y217406D01*
X214090Y218750D01*
X214406Y220336D01*
X214090Y221922D01*
X213192Y223266D01*
X211848Y224164D01*
X210262Y224480D01*
D02*
G37*
G36*
X1256680Y223742D02*
X1255094Y223426D01*
X1253750Y222528D01*
X1252852Y221184D01*
X1252536Y219598D01*
X1252852Y218012D01*
X1253750Y216668D01*
X1255094Y215770D01*
X1256680Y215454D01*
X1258266Y215770D01*
X1259610Y216668D01*
X1260508Y218012D01*
X1260824Y219598D01*
X1260508Y221184D01*
X1259610Y222528D01*
X1258266Y223426D01*
X1256680Y223742D01*
D02*
G37*
G36*
X1015492Y222584D02*
X1013906Y222268D01*
X1012562Y221370D01*
X1011664Y220026D01*
X1011348Y218440D01*
X1011664Y216854D01*
X1012562Y215510D01*
X1013906Y214612D01*
X1015492Y214296D01*
X1017078Y214612D01*
X1018422Y215510D01*
X1019320Y216854D01*
X1019636Y218440D01*
X1019320Y220026D01*
X1018422Y221370D01*
X1017078Y222268D01*
X1015492Y222584D01*
D02*
G37*
G36*
X608330D02*
X606744Y222268D01*
X605400Y221370D01*
X604502Y220026D01*
X604186Y218440D01*
X604502Y216854D01*
X605400Y215510D01*
X606744Y214612D01*
X608330Y214296D01*
X609916Y214612D01*
X611260Y215510D01*
X612158Y216854D01*
X612474Y218440D01*
X612158Y220026D01*
X611260Y221370D01*
X609916Y222268D01*
X608330Y222584D01*
D02*
G37*
G36*
X417576Y222076D02*
X415990Y221760D01*
X414646Y220862D01*
X413748Y219518D01*
X413432Y217932D01*
X413748Y216346D01*
X414646Y215002D01*
X415990Y214104D01*
X417576Y213788D01*
X419162Y214104D01*
X420506Y215002D01*
X421404Y216346D01*
X421720Y217932D01*
X421404Y219518D01*
X420506Y220862D01*
X419162Y221760D01*
X417576Y222076D01*
D02*
G37*
G36*
X472327Y220898D02*
X470742Y220582D01*
X469397Y219684D01*
X468499Y218340D01*
X468184Y216754D01*
X468499Y215168D01*
X469397Y213824D01*
X470742Y212926D01*
X472327Y212610D01*
X473913Y212926D01*
X475257Y213824D01*
X476155Y215168D01*
X476471Y216754D01*
X476155Y218340D01*
X475257Y219684D01*
X473913Y220582D01*
X472327Y220898D01*
D02*
G37*
G36*
X1048654Y219282D02*
X1047068Y218966D01*
X1045724Y218068D01*
X1044826Y216724D01*
X1044510Y215138D01*
X1044826Y213552D01*
X1045724Y212208D01*
X1047068Y211310D01*
X1048654Y210994D01*
X1050240Y211310D01*
X1051584Y212208D01*
X1052482Y213552D01*
X1052798Y215138D01*
X1052482Y216724D01*
X1051584Y218068D01*
X1050240Y218966D01*
X1048654Y219282D01*
D02*
G37*
G36*
X1172494Y219150D02*
X1170908Y218834D01*
X1169564Y217936D01*
X1168666Y216592D01*
X1168350Y215006D01*
X1168666Y213420D01*
X1169564Y212076D01*
X1170908Y211178D01*
X1172494Y210862D01*
X1174080Y211178D01*
X1175424Y212076D01*
X1176322Y213420D01*
X1176638Y215006D01*
X1176322Y216592D01*
X1175424Y217936D01*
X1174080Y218834D01*
X1172494Y219150D01*
D02*
G37*
G36*
X588296Y219214D02*
X586710Y218899D01*
X585366Y218001D01*
X584468Y216656D01*
X584152Y215071D01*
X584468Y213485D01*
X585366Y212141D01*
X586710Y211242D01*
X588296Y210927D01*
X589881Y211242D01*
X591226Y212141D01*
X591518Y212578D01*
X593045D01*
X593462Y211954D01*
X594806Y211056D01*
X596392Y210740D01*
X597978Y211056D01*
X599322Y211954D01*
X600220Y213298D01*
X600536Y214884D01*
X600220Y216470D01*
X599322Y217814D01*
X597978Y218712D01*
X596392Y219028D01*
X594806Y218712D01*
X593462Y217814D01*
X593170Y217377D01*
X591642D01*
X591226Y218001D01*
X589881Y218899D01*
X588296Y219214D01*
D02*
G37*
G36*
X275232Y217504D02*
X273646Y217188D01*
X272302Y216290D01*
X271404Y214946D01*
X271088Y213360D01*
X271404Y211774D01*
X272302Y210430D01*
X273646Y209532D01*
X275232Y209216D01*
X276818Y209532D01*
X278162Y210430D01*
X279060Y211774D01*
X279376Y213360D01*
X279060Y214946D01*
X278162Y216290D01*
X276818Y217188D01*
X275232Y217504D01*
D02*
G37*
G36*
X348694Y217182D02*
X347108Y216867D01*
X345764Y215969D01*
X344866Y214624D01*
X344550Y213039D01*
X344866Y211453D01*
X345764Y210109D01*
X347108Y209210D01*
X348694Y208895D01*
X350280Y209210D01*
X351624Y210109D01*
X352522Y211453D01*
X352838Y213039D01*
X352522Y214624D01*
X351624Y215969D01*
X350280Y216867D01*
X348694Y217182D01*
D02*
G37*
G36*
X651256Y217038D02*
X649670Y216723D01*
X648326Y215824D01*
X647428Y214480D01*
X647112Y212894D01*
X647428Y211308D01*
X648326Y209964D01*
X649670Y209066D01*
X651256Y208751D01*
X652842Y209066D01*
X654186Y209964D01*
X655084Y211308D01*
X655400Y212894D01*
X655084Y214480D01*
X654186Y215824D01*
X652842Y216723D01*
X651256Y217038D01*
D02*
G37*
G36*
X756589Y216430D02*
X755004Y216114D01*
X753659Y215216D01*
X752761Y213872D01*
X752446Y212286D01*
X752761Y210700D01*
X753659Y209356D01*
X755004Y208458D01*
X756589Y208142D01*
X758175Y208458D01*
X759519Y209356D01*
X760417Y210700D01*
X760733Y212286D01*
X760417Y213872D01*
X759519Y215216D01*
X758175Y216114D01*
X756589Y216430D01*
D02*
G37*
G36*
X904240Y214964D02*
X902654Y214648D01*
X901310Y213750D01*
X900412Y212406D01*
X900096Y210820D01*
X900412Y209234D01*
X901310Y207890D01*
X902654Y206992D01*
X904240Y206676D01*
X905826Y206992D01*
X907170Y207890D01*
X908068Y209234D01*
X908384Y210820D01*
X908068Y212406D01*
X907170Y213750D01*
X905826Y214648D01*
X904240Y214964D01*
D02*
G37*
G36*
X626872Y214710D02*
X625286Y214394D01*
X623942Y213496D01*
X623044Y212152D01*
X622728Y210566D01*
X623044Y208980D01*
X623942Y207636D01*
X625286Y206738D01*
X626872Y206422D01*
X628458Y206738D01*
X629802Y207636D01*
X630700Y208980D01*
X631016Y210566D01*
X630700Y212152D01*
X629802Y213496D01*
X628458Y214394D01*
X626872Y214710D01*
D02*
G37*
G36*
X464370Y214398D02*
X462784Y214082D01*
X461440Y213184D01*
X460542Y211840D01*
X460226Y210254D01*
X460542Y208668D01*
X461440Y207324D01*
X462784Y206426D01*
X464370Y206110D01*
X465956Y206426D01*
X467300Y207324D01*
X468198Y208668D01*
X468514Y210254D01*
X468198Y211840D01*
X467300Y213184D01*
X465956Y214082D01*
X464370Y214398D01*
D02*
G37*
G36*
X979772Y214388D02*
X978186Y214073D01*
X976842Y213175D01*
X975944Y211830D01*
X975628Y210245D01*
X975944Y208659D01*
X976842Y207315D01*
X978186Y206416D01*
X979772Y206101D01*
X981358Y206416D01*
X982702Y207315D01*
X983600Y208659D01*
X983916Y210245D01*
X983600Y211830D01*
X982702Y213175D01*
X981358Y214073D01*
X979772Y214388D01*
D02*
G37*
G36*
X1161250Y213144D02*
X1159664Y212828D01*
X1158320Y211930D01*
X1157422Y210586D01*
X1157106Y209000D01*
X1157422Y207414D01*
X1158320Y206070D01*
X1159664Y205172D01*
X1161250Y204856D01*
X1162836Y205172D01*
X1164180Y206070D01*
X1165078Y207414D01*
X1165394Y209000D01*
X1165078Y210586D01*
X1164180Y211930D01*
X1162836Y212828D01*
X1161250Y213144D01*
D02*
G37*
G36*
X1090168Y209122D02*
X1088582Y208806D01*
X1087238Y207908D01*
X1086340Y206564D01*
X1086024Y204978D01*
X1086340Y203392D01*
X1087238Y202048D01*
X1088582Y201150D01*
X1090168Y200834D01*
X1091754Y201150D01*
X1093098Y202048D01*
X1093996Y203392D01*
X1094312Y204978D01*
X1093996Y206564D01*
X1093098Y207908D01*
X1091754Y208806D01*
X1090168Y209122D01*
D02*
G37*
G36*
X533446Y208660D02*
X531860Y208344D01*
X530516Y207446D01*
X529618Y206102D01*
X529302Y204516D01*
X529618Y202930D01*
X530516Y201586D01*
X531860Y200688D01*
X533446Y200372D01*
X535032Y200688D01*
X536376Y201586D01*
X537274Y202930D01*
X537590Y204516D01*
X537274Y206102D01*
X536376Y207446D01*
X535032Y208344D01*
X533446Y208660D01*
D02*
G37*
G36*
X348694Y206260D02*
X347108Y205945D01*
X345764Y205047D01*
X344866Y203702D01*
X344550Y202117D01*
X344866Y200531D01*
X345764Y199187D01*
X347108Y198288D01*
X348694Y197973D01*
X350280Y198288D01*
X351624Y199187D01*
X352522Y200531D01*
X352838Y202117D01*
X352522Y203702D01*
X351624Y205047D01*
X350280Y205945D01*
X348694Y206260D01*
D02*
G37*
G36*
X1127010Y205324D02*
X1125424Y205008D01*
X1124080Y204110D01*
X1123182Y202766D01*
X1122866Y201180D01*
X1123182Y199594D01*
X1124080Y198250D01*
X1125424Y197352D01*
X1127010Y197036D01*
X1128596Y197352D01*
X1129940Y198250D01*
X1130838Y199594D01*
X1131154Y201180D01*
X1130838Y202766D01*
X1129940Y204110D01*
X1128596Y205008D01*
X1127010Y205324D01*
D02*
G37*
G36*
X977392Y203466D02*
X975806Y203151D01*
X974462Y202253D01*
X973564Y200908D01*
X973248Y199323D01*
X973564Y197737D01*
X974462Y196393D01*
X975806Y195494D01*
X977392Y195179D01*
X978978Y195494D01*
X980322Y196393D01*
X981220Y197737D01*
X981536Y199323D01*
X981220Y200908D01*
X980322Y202253D01*
X978978Y203151D01*
X977392Y203466D01*
D02*
G37*
G36*
X285750Y202559D02*
X284164Y202244D01*
X282820Y201346D01*
X281922Y200001D01*
X281606Y198416D01*
X281922Y196830D01*
X282820Y195486D01*
X284164Y194587D01*
X285750Y194272D01*
X287336Y194587D01*
X288680Y195486D01*
X289578Y196830D01*
X289894Y198416D01*
X289578Y200001D01*
X288680Y201346D01*
X287336Y202244D01*
X285750Y202559D01*
D02*
G37*
G36*
X383286Y207852D02*
X381700Y207536D01*
X380356Y206638D01*
X379458Y205294D01*
X379142Y203708D01*
X379458Y202122D01*
X380112Y201144D01*
X380266Y200279D01*
X380112Y199414D01*
X379458Y198436D01*
X379142Y196850D01*
X379458Y195264D01*
X380356Y193920D01*
X381700Y193022D01*
X383286Y192706D01*
X384872Y193022D01*
X386216Y193920D01*
X387114Y195264D01*
X387430Y196850D01*
X387114Y198436D01*
X386460Y199414D01*
X386306Y200279D01*
X386460Y201144D01*
X387114Y202122D01*
X387430Y203708D01*
X387114Y205294D01*
X386216Y206638D01*
X384872Y207536D01*
X383286Y207852D01*
D02*
G37*
G36*
X1096010Y200740D02*
X1094424Y200424D01*
X1093080Y199526D01*
X1092182Y198182D01*
X1091866Y196596D01*
X1092182Y195010D01*
X1093080Y193666D01*
X1094424Y192768D01*
X1096010Y192452D01*
X1097596Y192768D01*
X1098940Y193666D01*
X1099838Y195010D01*
X1100154Y196596D01*
X1099838Y198182D01*
X1098940Y199526D01*
X1097596Y200424D01*
X1096010Y200740D01*
D02*
G37*
G36*
X916828Y199765D02*
X915242Y199450D01*
X913898Y198552D01*
X913000Y197207D01*
X912684Y195622D01*
X913000Y194036D01*
X913898Y192692D01*
X915242Y191793D01*
X916828Y191478D01*
X918414Y191793D01*
X919758Y192692D01*
X920656Y194036D01*
X920972Y195622D01*
X920656Y197207D01*
X919758Y198552D01*
X918414Y199450D01*
X916828Y199765D01*
D02*
G37*
G36*
X1159307Y198403D02*
X1157721Y198088D01*
X1156377Y197190D01*
X1155478Y195845D01*
X1155163Y194259D01*
X1155478Y192674D01*
X1156377Y191329D01*
X1157721Y190431D01*
X1159307Y190116D01*
X1160892Y190431D01*
X1162237Y191329D01*
X1163135Y192674D01*
X1163450Y194259D01*
X1163135Y195845D01*
X1162237Y197190D01*
X1160892Y198088D01*
X1159307Y198403D01*
D02*
G37*
G36*
X1014364Y205058D02*
X1012778Y204742D01*
X1011434Y203844D01*
X1010536Y202500D01*
X1010220Y200914D01*
X1010536Y199328D01*
X1011189Y198350D01*
X1011345Y197485D01*
X1011189Y196620D01*
X1010536Y195642D01*
X1010220Y194056D01*
X1010536Y192470D01*
X1011434Y191126D01*
X1012778Y190228D01*
X1014364Y189912D01*
X1015950Y190228D01*
X1017294Y191126D01*
X1018192Y192470D01*
X1018508Y194056D01*
X1018192Y195642D01*
X1017539Y196620D01*
X1017383Y197485D01*
X1017539Y198350D01*
X1018192Y199328D01*
X1018508Y200914D01*
X1018192Y202500D01*
X1017294Y203844D01*
X1015950Y204742D01*
X1014364Y205058D01*
D02*
G37*
G36*
X498602Y193628D02*
X497016Y193312D01*
X495672Y192414D01*
X494774Y191070D01*
X494458Y189484D01*
X494774Y187898D01*
X495672Y186554D01*
X497016Y185656D01*
X498602Y185340D01*
X500188Y185656D01*
X501532Y186554D01*
X502430Y187898D01*
X502746Y189484D01*
X502430Y191070D01*
X501532Y192414D01*
X500188Y193312D01*
X498602Y193628D01*
D02*
G37*
G36*
X366644Y201462D02*
X365058Y201147D01*
X363714Y200249D01*
X362816Y198904D01*
X362500Y197319D01*
X362816Y195733D01*
X363376Y194895D01*
X362745Y193625D01*
X361250D01*
X360278Y193222D01*
X359875Y192250D01*
Y184750D01*
X360278Y183778D01*
X361250Y183375D01*
X368612D01*
X369584Y183778D01*
X369987Y184750D01*
Y192250D01*
X369584Y193222D01*
X369685Y194555D01*
X370472Y195733D01*
X370788Y197319D01*
X370472Y198904D01*
X369574Y200249D01*
X368230Y201147D01*
X366644Y201462D01*
D02*
G37*
G36*
X946150Y191642D02*
X944564Y191326D01*
X943220Y190428D01*
X942322Y189084D01*
X942006Y187498D01*
X942322Y185912D01*
X943220Y184568D01*
X944564Y183670D01*
X946150Y183354D01*
X947736Y183670D01*
X949080Y184568D01*
X949978Y185912D01*
X950294Y187498D01*
X949978Y189084D01*
X949080Y190428D01*
X947736Y191326D01*
X946150Y191642D01*
D02*
G37*
G36*
X640334Y189350D02*
X638748Y189034D01*
X637404Y188136D01*
X636506Y186792D01*
X636190Y185206D01*
X636506Y183620D01*
X637404Y182276D01*
X638748Y181378D01*
X640334Y181062D01*
X641920Y181378D01*
X643264Y182276D01*
X644162Y183620D01*
X644478Y185206D01*
X644162Y186792D01*
X643264Y188136D01*
X641920Y189034D01*
X640334Y189350D01*
D02*
G37*
G36*
X997722Y198521D02*
X996136Y198205D01*
X994792Y197307D01*
X993894Y195963D01*
X993578Y194377D01*
X993894Y192791D01*
X994187Y192352D01*
X993509Y191082D01*
X992250D01*
X991278Y190679D01*
X990875Y189707D01*
Y181924D01*
X991278Y180952D01*
X992250Y180549D01*
X1000000D01*
X1000972Y180952D01*
X1001375Y181924D01*
Y189707D01*
X1000972Y190679D01*
X1001039Y192026D01*
X1001550Y192791D01*
X1001866Y194377D01*
X1001550Y195963D01*
X1000652Y197307D01*
X999308Y198205D01*
X997722Y198521D01*
D02*
G37*
G36*
X300340Y186404D02*
X298754Y186088D01*
X297410Y185190D01*
X296512Y183846D01*
X296196Y182260D01*
X296512Y180674D01*
X297410Y179330D01*
X298754Y178432D01*
X300340Y178116D01*
X301926Y178432D01*
X303270Y179330D01*
X304168Y180674D01*
X304484Y182260D01*
X304168Y183846D01*
X303270Y185190D01*
X301926Y186088D01*
X300340Y186404D01*
D02*
G37*
G36*
X317500Y185246D02*
X315914Y184930D01*
X314570Y184032D01*
X313672Y182688D01*
X313356Y181102D01*
X313672Y179516D01*
X314570Y178172D01*
X315914Y177274D01*
X317500Y176958D01*
X319086Y177274D01*
X320430Y178172D01*
X321328Y179516D01*
X321644Y181102D01*
X321328Y182688D01*
X320430Y184032D01*
X319086Y184930D01*
X317500Y185246D01*
D02*
G37*
G36*
X931418Y183610D02*
X929832Y183294D01*
X928488Y182396D01*
X927590Y181052D01*
X927274Y179466D01*
X927590Y177880D01*
X928488Y176536D01*
X929832Y175638D01*
X931418Y175323D01*
X933003Y175638D01*
X934348Y176536D01*
X935246Y177880D01*
X935562Y179466D01*
X935246Y181052D01*
X934348Y182396D01*
X933003Y183294D01*
X931418Y183610D01*
D02*
G37*
G36*
X329608Y182114D02*
X328022Y181798D01*
X326678Y180900D01*
X325780Y179556D01*
X325464Y177970D01*
X325780Y176384D01*
X326678Y175040D01*
X328022Y174142D01*
X329608Y173826D01*
X331194Y174142D01*
X332538Y175040D01*
X333436Y176384D01*
X333752Y177970D01*
X333436Y179556D01*
X332538Y180900D01*
X331194Y181798D01*
X329608Y182114D01*
D02*
G37*
G36*
X481632Y179706D02*
X480046Y179390D01*
X478702Y178492D01*
X477804Y177148D01*
X477488Y175562D01*
X477804Y173976D01*
X478702Y172632D01*
X480046Y171734D01*
X481632Y171418D01*
X483218Y171734D01*
X484562Y172632D01*
X485460Y173976D01*
X485776Y175562D01*
X485460Y177148D01*
X484562Y178492D01*
X483218Y179390D01*
X481632Y179706D01*
D02*
G37*
G36*
X439518Y176864D02*
X437932Y176548D01*
X436587Y175650D01*
X435689Y174306D01*
X435374Y172720D01*
X435689Y171134D01*
X436587Y169790D01*
X437932Y168892D01*
X439518Y168576D01*
X441103Y168892D01*
X442448Y169790D01*
X443346Y171134D01*
X443661Y172720D01*
X443346Y174306D01*
X442448Y175650D01*
X441103Y176548D01*
X439518Y176864D01*
D02*
G37*
G36*
X191122Y176750D02*
X189536Y176435D01*
X188192Y175536D01*
X187293Y174192D01*
X186978Y172607D01*
X187293Y171021D01*
X188192Y169676D01*
X189536Y168778D01*
X191122Y168463D01*
X192707Y168778D01*
X194051Y169676D01*
X194950Y171021D01*
X195265Y172607D01*
X194950Y174192D01*
X194051Y175536D01*
X192707Y176435D01*
X191122Y176750D01*
D02*
G37*
G36*
X827532Y176610D02*
X825946Y176294D01*
X824602Y175396D01*
X823704Y174052D01*
X823388Y172466D01*
X823704Y170880D01*
X824602Y169536D01*
X825946Y168638D01*
X827532Y168322D01*
X829118Y168638D01*
X830462Y169536D01*
X831360Y170880D01*
X831676Y172466D01*
X831360Y174052D01*
X830462Y175396D01*
X829118Y176294D01*
X827532Y176610D01*
D02*
G37*
G36*
X352498Y176156D02*
X350912Y175840D01*
X349568Y174942D01*
X348670Y173598D01*
X348354Y172012D01*
X348670Y170426D01*
X349568Y169082D01*
X350912Y168184D01*
X352498Y167868D01*
X354084Y168184D01*
X355428Y169082D01*
X356326Y170426D01*
X356642Y172012D01*
X356326Y173598D01*
X355428Y174942D01*
X354084Y175840D01*
X352498Y176156D01*
D02*
G37*
G36*
X377498Y176102D02*
X375912Y175786D01*
X374568Y174888D01*
X373670Y173544D01*
X373354Y171958D01*
X373670Y170372D01*
X374568Y169028D01*
X375912Y168130D01*
X377498Y167814D01*
X379084Y168130D01*
X380428Y169028D01*
X381326Y170372D01*
X381642Y171958D01*
X381326Y173544D01*
X380428Y174888D01*
X379084Y175786D01*
X377498Y176102D01*
D02*
G37*
G36*
X960036Y175002D02*
X958450Y174686D01*
X957106Y173788D01*
X956208Y172444D01*
X955892Y170858D01*
X956208Y169272D01*
X957106Y167928D01*
X958450Y167030D01*
X960036Y166714D01*
X961622Y167030D01*
X962966Y167928D01*
X963864Y169272D01*
X964180Y170858D01*
X963864Y172444D01*
X962966Y173788D01*
X961622Y174686D01*
X960036Y175002D01*
D02*
G37*
G36*
X1067562Y172800D02*
X1065976Y172484D01*
X1064632Y171586D01*
X1063734Y170242D01*
X1063418Y168656D01*
X1063734Y167070D01*
X1064632Y165726D01*
X1065976Y164828D01*
X1067562Y164512D01*
X1069148Y164828D01*
X1070492Y165726D01*
X1071390Y167070D01*
X1071706Y168656D01*
X1071390Y170242D01*
X1070492Y171586D01*
X1069148Y172484D01*
X1067562Y172800D01*
D02*
G37*
G36*
X1011482D02*
X1009896Y172484D01*
X1008552Y171586D01*
X1007654Y170242D01*
X1007338Y168656D01*
X1007654Y167070D01*
X1008552Y165726D01*
X1009896Y164828D01*
X1011482Y164512D01*
X1013068Y164828D01*
X1014412Y165726D01*
X1015310Y167070D01*
X1015626Y168656D01*
X1015310Y170242D01*
X1014412Y171586D01*
X1013068Y172484D01*
X1011482Y172800D01*
D02*
G37*
G36*
X986482Y172546D02*
X984896Y172230D01*
X983552Y171332D01*
X982654Y169988D01*
X982338Y168402D01*
X982654Y166816D01*
X983552Y165472D01*
X984896Y164574D01*
X986482Y164258D01*
X988068Y164574D01*
X989412Y165472D01*
X990310Y166816D01*
X990626Y168402D01*
X990310Y169988D01*
X989412Y171332D01*
X988068Y172230D01*
X986482Y172546D01*
D02*
G37*
G36*
X1056386Y171614D02*
X1054800Y171298D01*
X1053456Y170400D01*
X1052558Y169056D01*
X1052242Y167470D01*
X1052558Y165884D01*
X1053456Y164540D01*
X1054800Y163642D01*
X1056386Y163326D01*
X1057972Y163642D01*
X1059316Y164540D01*
X1060214Y165884D01*
X1060530Y167470D01*
X1060214Y169056D01*
X1059316Y170400D01*
X1057972Y171298D01*
X1056386Y171614D01*
D02*
G37*
G36*
X425704Y170644D02*
X424118Y170328D01*
X422774Y169430D01*
X421876Y168086D01*
X421560Y166500D01*
X421876Y164914D01*
X422774Y163570D01*
X424118Y162672D01*
X425704Y162356D01*
X427290Y162672D01*
X428634Y163570D01*
X429532Y164914D01*
X429848Y166500D01*
X429532Y168086D01*
X428634Y169430D01*
X427290Y170328D01*
X425704Y170644D01*
D02*
G37*
G36*
X165354Y176864D02*
X163768Y176548D01*
X162424Y175650D01*
X161526Y174306D01*
X161210Y172720D01*
X161334Y172099D01*
X161296Y171049D01*
X160412Y170719D01*
X159704Y170578D01*
X158360Y169680D01*
X157462Y168336D01*
X157146Y166750D01*
X157462Y165164D01*
X156586Y164189D01*
X156148Y164102D01*
X154804Y163204D01*
X153906Y161860D01*
X153590Y160274D01*
X153906Y158688D01*
X154804Y157344D01*
X156148Y156446D01*
X157734Y156130D01*
X159320Y156446D01*
X160664Y157344D01*
X161562Y158688D01*
X161878Y160274D01*
X161562Y161860D01*
X162438Y162835D01*
X162876Y162922D01*
X164220Y163820D01*
X165118Y165164D01*
X165434Y166750D01*
X165310Y167371D01*
X165348Y168421D01*
X166232Y168751D01*
X166940Y168892D01*
X168284Y169790D01*
X169182Y171134D01*
X169498Y172720D01*
X169182Y174306D01*
X168284Y175650D01*
X166940Y176548D01*
X165354Y176864D01*
D02*
G37*
G36*
X789178Y176610D02*
X787592Y176294D01*
X786248Y175396D01*
X785350Y174052D01*
X785034Y172466D01*
X785350Y170880D01*
X786248Y169536D01*
X787592Y168638D01*
X788088Y168539D01*
X789055Y167702D01*
X788950Y167171D01*
X788740Y166116D01*
X789027Y164673D01*
X789009Y164453D01*
X788326Y163337D01*
X787338Y163141D01*
X785994Y162243D01*
X785096Y160898D01*
X784780Y159313D01*
X785096Y157727D01*
X785994Y156383D01*
X787338Y155484D01*
X788924Y155169D01*
X790510Y155484D01*
X791854Y156383D01*
X792752Y157727D01*
X793068Y159313D01*
X792781Y160756D01*
X792799Y160975D01*
X793483Y162091D01*
X794470Y162288D01*
X795814Y163186D01*
X796712Y164530D01*
X797028Y166116D01*
X796712Y167702D01*
X795814Y169046D01*
X794470Y169944D01*
X793974Y170043D01*
X793007Y170880D01*
X793112Y171411D01*
X793322Y172466D01*
X793006Y174052D01*
X792108Y175396D01*
X790764Y176294D01*
X789178Y176610D01*
D02*
G37*
G36*
X1082294Y162894D02*
X1080708Y162578D01*
X1079364Y161680D01*
X1078466Y160336D01*
X1078150Y158750D01*
X1078466Y157164D01*
X1079364Y155820D01*
X1080708Y154922D01*
X1082294Y154606D01*
X1083880Y154922D01*
X1085224Y155820D01*
X1086122Y157164D01*
X1086438Y158750D01*
X1086122Y160336D01*
X1085224Y161680D01*
X1083880Y162578D01*
X1082294Y162894D01*
D02*
G37*
G36*
X1026139D02*
X1024553Y162578D01*
X1023209Y161680D01*
X1022311Y160336D01*
X1021995Y158750D01*
X1022311Y157164D01*
X1023209Y155820D01*
X1024553Y154922D01*
X1026139Y154606D01*
X1027725Y154922D01*
X1029069Y155820D01*
X1029967Y157164D01*
X1030283Y158750D01*
X1029967Y160336D01*
X1029069Y161680D01*
X1027725Y162578D01*
X1026139Y162894D01*
D02*
G37*
G36*
X1216478Y169027D02*
X1213536Y168640D01*
X1210794Y167504D01*
X1208440Y165698D01*
X1206634Y163344D01*
X1205498Y160602D01*
X1205111Y157660D01*
X1205498Y154718D01*
X1206634Y151976D01*
X1208440Y149622D01*
X1210794Y147816D01*
X1213536Y146680D01*
X1216478Y146293D01*
X1219420Y146680D01*
X1222162Y147816D01*
X1224516Y149622D01*
X1226322Y151976D01*
X1227458Y154718D01*
X1227845Y157660D01*
X1227458Y160602D01*
X1226322Y163344D01*
X1224516Y165698D01*
X1222162Y167504D01*
X1219420Y168640D01*
X1216478Y169027D01*
D02*
G37*
G36*
X25146Y168896D02*
X21731Y168446D01*
X18549Y167128D01*
X15817Y165032D01*
X13720Y162299D01*
X12402Y159117D01*
X11952Y155702D01*
X12402Y152287D01*
X13720Y149105D01*
X15817Y146372D01*
X18549Y144276D01*
X21731Y142958D01*
X25146Y142508D01*
X28561Y142958D01*
X31743Y144276D01*
X34476Y146372D01*
X36572Y149105D01*
X37890Y152287D01*
X38340Y155702D01*
X37890Y159117D01*
X36572Y162299D01*
X34476Y165032D01*
X31743Y167128D01*
X28561Y168446D01*
X25146Y168896D01*
D02*
G37*
G36*
X731206Y167112D02*
X727791Y166662D01*
X724609Y165344D01*
X721877Y163248D01*
X719780Y160515D01*
X718462Y157333D01*
X718012Y153918D01*
X718462Y150503D01*
X719780Y147321D01*
X721877Y144588D01*
X724609Y142492D01*
X727791Y141174D01*
X731206Y140724D01*
X734621Y141174D01*
X737803Y142492D01*
X740536Y144588D01*
X742632Y147321D01*
X743950Y150503D01*
X744400Y153918D01*
X743950Y157333D01*
X742632Y160515D01*
X740536Y163248D01*
X737803Y165344D01*
X734621Y166662D01*
X731206Y167112D01*
D02*
G37*
G36*
X548640Y165764D02*
X545225Y165314D01*
X542043Y163996D01*
X539310Y161900D01*
X537214Y159167D01*
X535896Y155985D01*
X535446Y152570D01*
X535896Y149155D01*
X537214Y145973D01*
X539310Y143240D01*
X542043Y141144D01*
X545225Y139826D01*
X548640Y139376D01*
X552055Y139826D01*
X555237Y141144D01*
X557970Y143240D01*
X560066Y145973D01*
X561384Y149155D01*
X561834Y152570D01*
X561384Y155985D01*
X560066Y159167D01*
X557970Y161900D01*
X555237Y163996D01*
X552055Y165314D01*
X548640Y165764D01*
D02*
G37*
G36*
X758444Y142490D02*
X756858Y142174D01*
X755514Y141276D01*
X754616Y139932D01*
X754300Y138346D01*
X754616Y136760D01*
X755514Y135416D01*
X756858Y134518D01*
X758444Y134202D01*
X760030Y134518D01*
X761374Y135416D01*
X762272Y136760D01*
X762588Y138346D01*
X762272Y139932D01*
X761374Y141276D01*
X760030Y142174D01*
X758444Y142490D01*
D02*
G37*
G36*
X1000447Y139958D02*
X998861Y139642D01*
X997517Y138744D01*
X996619Y137400D01*
X996303Y135814D01*
X996619Y134228D01*
X997517Y132884D01*
X998861Y131986D01*
X1000447Y131670D01*
X1002033Y131986D01*
X1003377Y132884D01*
X1004275Y134228D01*
X1004591Y135814D01*
X1004275Y137400D01*
X1003377Y138744D01*
X1002033Y139642D01*
X1000447Y139958D01*
D02*
G37*
G36*
X1120843Y139900D02*
X1119257Y139584D01*
X1117913Y138686D01*
X1117015Y137342D01*
X1116699Y135756D01*
X1117015Y134170D01*
X1117913Y132826D01*
X1119257Y131928D01*
X1120843Y131612D01*
X1122429Y131928D01*
X1123773Y132826D01*
X1124671Y134170D01*
X1124987Y135756D01*
X1124671Y137342D01*
X1123773Y138686D01*
X1122429Y139584D01*
X1120843Y139900D01*
D02*
G37*
G36*
X125222Y139780D02*
X123636Y139464D01*
X122292Y138566D01*
X121394Y137222D01*
X121078Y135636D01*
X121394Y134050D01*
X122292Y132706D01*
X123636Y131808D01*
X125222Y131492D01*
X126808Y131808D01*
X128152Y132706D01*
X129050Y134050D01*
X129366Y135636D01*
X129050Y137222D01*
X128152Y138566D01*
X126808Y139464D01*
X125222Y139780D01*
D02*
G37*
G36*
X361017Y139772D02*
X359431Y139456D01*
X358087Y138558D01*
X357189Y137214D01*
X356873Y135628D01*
X357189Y134043D01*
X358087Y132698D01*
X359431Y131800D01*
X361017Y131485D01*
X362603Y131800D01*
X363947Y132698D01*
X364845Y134043D01*
X365161Y135628D01*
X364845Y137214D01*
X363947Y138558D01*
X362603Y139456D01*
X361017Y139772D01*
D02*
G37*
G36*
X880721Y139534D02*
X879135Y139218D01*
X877791Y138320D01*
X876893Y136976D01*
X876577Y135390D01*
X876893Y133804D01*
X877791Y132460D01*
X879135Y131562D01*
X880721Y131246D01*
X882307Y131562D01*
X883651Y132460D01*
X884549Y133804D01*
X884865Y135390D01*
X884549Y136976D01*
X883651Y138320D01*
X882307Y139218D01*
X880721Y139534D01*
D02*
G37*
G36*
X480905Y139385D02*
X479319Y139070D01*
X477975Y138172D01*
X477077Y136827D01*
X476761Y135242D01*
X477077Y133656D01*
X477975Y132312D01*
X479319Y131414D01*
X480905Y131098D01*
X482491Y131414D01*
X483835Y132312D01*
X484733Y133656D01*
X485049Y135242D01*
X484733Y136827D01*
X483835Y138172D01*
X482491Y139070D01*
X480905Y139385D01*
D02*
G37*
G36*
X241577Y138224D02*
X239991Y137908D01*
X238647Y137010D01*
X237749Y135666D01*
X237433Y134080D01*
X237749Y132494D01*
X238647Y131150D01*
X239991Y130252D01*
X241577Y129936D01*
X243162Y130252D01*
X244507Y131150D01*
X245405Y132494D01*
X245720Y134080D01*
X245405Y135666D01*
X244507Y137010D01*
X243162Y137908D01*
X241577Y138224D01*
D02*
G37*
G36*
X40000Y192837D02*
X37972Y192570D01*
X36082Y191787D01*
X34458Y190542D01*
X33213Y188918D01*
X32430Y187028D01*
X32163Y185000D01*
X32430Y182972D01*
X33213Y181082D01*
X34458Y179458D01*
X36082Y178213D01*
X37972Y177430D01*
X40000Y177163D01*
X42028Y177430D01*
X43671Y178110D01*
X44394Y177716D01*
X44803Y177290D01*
X44796Y177258D01*
Y132259D01*
X44993Y131267D01*
X45555Y130427D01*
X46395Y129866D01*
X47386Y129669D01*
X87386D01*
X88377Y129866D01*
X89217Y130427D01*
X89779Y131267D01*
X89976Y132259D01*
Y177258D01*
X89779Y178250D01*
X89217Y179090D01*
X88377Y179651D01*
X87386Y179848D01*
X47442D01*
X47310Y179985D01*
X46735Y181014D01*
X46787Y181082D01*
X47570Y182972D01*
X47837Y185000D01*
X47570Y187028D01*
X46787Y188918D01*
X45542Y190542D01*
X43918Y191787D01*
X42028Y192570D01*
X40000Y192837D01*
D02*
G37*
G36*
X1149570Y131906D02*
X1147984Y131590D01*
X1146640Y130692D01*
X1145742Y129348D01*
X1145426Y127762D01*
X1145742Y126176D01*
X1146640Y124832D01*
X1147984Y123934D01*
X1149570Y123618D01*
X1151156Y123934D01*
X1152500Y124832D01*
X1153398Y126176D01*
X1153714Y127762D01*
X1153398Y129348D01*
X1152500Y130692D01*
X1151156Y131590D01*
X1149570Y131906D01*
D02*
G37*
G36*
X734956Y131518D02*
X733370Y131202D01*
X732026Y130304D01*
X731128Y128960D01*
X730812Y127374D01*
X731128Y125788D01*
X732026Y124444D01*
X733370Y123546D01*
X734956Y123230D01*
X736542Y123546D01*
X737886Y124444D01*
X738784Y125788D01*
X739100Y127374D01*
X738784Y128960D01*
X737886Y130304D01*
X736542Y131202D01*
X734956Y131518D01*
D02*
G37*
G36*
X1016054Y130582D02*
X1014469Y130266D01*
X1013124Y129368D01*
X1012226Y128024D01*
X1011910Y126438D01*
X1012226Y124852D01*
X1013124Y123508D01*
X1014469Y122610D01*
X1016054Y122294D01*
X1017640Y122610D01*
X1018984Y123508D01*
X1019882Y124852D01*
X1020198Y126438D01*
X1019882Y128024D01*
X1018984Y129368D01*
X1017640Y130266D01*
X1016054Y130582D01*
D02*
G37*
G36*
X902692Y129112D02*
X901106Y128796D01*
X899762Y127898D01*
X898864Y126554D01*
X898548Y124968D01*
X898864Y123382D01*
X899762Y122038D01*
X901106Y121140D01*
X902692Y120824D01*
X904278Y121140D01*
X905622Y122038D01*
X906520Y123382D01*
X906836Y124968D01*
X906520Y126554D01*
X905622Y127898D01*
X904278Y128796D01*
X902692Y129112D01*
D02*
G37*
G36*
X29210D02*
X27624Y128796D01*
X26280Y127898D01*
X25382Y126554D01*
X25066Y124968D01*
X25382Y123382D01*
X26280Y122038D01*
X27624Y121140D01*
X29210Y120824D01*
X30796Y121140D01*
X32140Y122038D01*
X33038Y123382D01*
X33354Y124968D01*
X33038Y126554D01*
X32140Y127898D01*
X30796Y128796D01*
X29210Y129112D01*
D02*
G37*
G36*
X375158Y128858D02*
X373572Y128542D01*
X372228Y127644D01*
X371330Y126300D01*
X371014Y124714D01*
X371330Y123128D01*
X372228Y121784D01*
X373572Y120886D01*
X375158Y120570D01*
X376744Y120886D01*
X378088Y121784D01*
X378986Y123128D01*
X379302Y124714D01*
X378986Y126300D01*
X378088Y127644D01*
X376744Y128542D01*
X375158Y128858D01*
D02*
G37*
G36*
X786748Y127952D02*
X785162Y127636D01*
X783818Y126738D01*
X782920Y125394D01*
X782604Y123808D01*
X782920Y122222D01*
X783818Y120878D01*
X785162Y119980D01*
X786748Y119664D01*
X788334Y119980D01*
X789678Y120878D01*
X790576Y122222D01*
X790892Y123808D01*
X790576Y125394D01*
X789678Y126738D01*
X788334Y127636D01*
X786748Y127952D01*
D02*
G37*
G36*
X557786Y126104D02*
X556200Y125788D01*
X554856Y124890D01*
X553958Y123546D01*
X553642Y121960D01*
X553958Y120374D01*
X554856Y119030D01*
X556200Y118132D01*
X557786Y117816D01*
X559372Y118132D01*
X560716Y119030D01*
X561614Y120374D01*
X561930Y121960D01*
X561614Y123546D01*
X560716Y124890D01*
X559372Y125788D01*
X557786Y126104D01*
D02*
G37*
G36*
X263144Y125556D02*
X261558Y125240D01*
X260214Y124342D01*
X259316Y122998D01*
X259000Y121412D01*
X259316Y119826D01*
X260214Y118482D01*
X261558Y117584D01*
X263144Y117268D01*
X264730Y117584D01*
X266074Y118482D01*
X266972Y119826D01*
X267288Y121412D01*
X266972Y122998D01*
X266074Y124342D01*
X264730Y125240D01*
X263144Y125556D01*
D02*
G37*
G36*
X712090Y180556D02*
X672090D01*
X671099Y180359D01*
X670259Y179797D01*
X669697Y178957D01*
X669500Y177966D01*
Y132966D01*
X669697Y131975D01*
X670259Y131135D01*
X671099Y130573D01*
X672090Y130376D01*
X712090D01*
X712846Y130527D01*
X713423Y129926D01*
X713652Y129491D01*
X713213Y128919D01*
X712430Y127028D01*
X712163Y125000D01*
X712430Y122972D01*
X713213Y121081D01*
X714458Y119458D01*
X716081Y118213D01*
X717972Y117430D01*
X720000Y117163D01*
X722028Y117430D01*
X723919Y118213D01*
X725542Y119458D01*
X726787Y121081D01*
X727570Y122972D01*
X727837Y125000D01*
X727570Y127028D01*
X726787Y128919D01*
X725542Y130542D01*
X723919Y131787D01*
X722028Y132570D01*
X720000Y132837D01*
X717972Y132570D01*
X716081Y131787D01*
X715562Y131389D01*
X715074Y131654D01*
X714526Y132195D01*
X714680Y132966D01*
Y177966D01*
X714483Y178957D01*
X713921Y179797D01*
X713081Y180359D01*
X712090Y180556D01*
D02*
G37*
G36*
X758698Y124540D02*
X757112Y124224D01*
X755768Y123326D01*
X754870Y121982D01*
X754554Y120396D01*
X754870Y118810D01*
X755768Y117466D01*
X757112Y116568D01*
X758698Y116252D01*
X760284Y116568D01*
X761628Y117466D01*
X762526Y118810D01*
X762842Y120396D01*
X762526Y121982D01*
X761628Y123326D01*
X760284Y124224D01*
X758698Y124540D01*
D02*
G37*
G36*
X506476Y123898D02*
X504890Y123582D01*
X503546Y122684D01*
X502648Y121340D01*
X502332Y119754D01*
X502648Y118168D01*
X503546Y116824D01*
X504890Y115926D01*
X506476Y115610D01*
X508062Y115926D01*
X509406Y116824D01*
X510304Y118168D01*
X510620Y119754D01*
X510304Y121340D01*
X509406Y122684D01*
X508062Y123582D01*
X506476Y123898D01*
D02*
G37*
G36*
X104886Y117401D02*
X103300Y117086D01*
X101956Y116187D01*
X101058Y114843D01*
X100742Y113258D01*
X101058Y111672D01*
X101956Y110328D01*
X103300Y109429D01*
X104886Y109114D01*
X106472Y109429D01*
X107816Y110328D01*
X108714Y111672D01*
X109030Y113258D01*
X108714Y114843D01*
X107816Y116187D01*
X106472Y117086D01*
X104886Y117401D01*
D02*
G37*
G36*
X626573Y115564D02*
X624987Y115249D01*
X623643Y114350D01*
X622745Y113006D01*
X622429Y111420D01*
X622745Y109835D01*
X623643Y108490D01*
X624987Y107592D01*
X626573Y107277D01*
X628158Y107592D01*
X629503Y108490D01*
X630401Y109835D01*
X630716Y111420D01*
X630401Y113006D01*
X629503Y114350D01*
X628158Y115249D01*
X626573Y115564D01*
D02*
G37*
G36*
X779018Y114286D02*
X775603Y113836D01*
X772421Y112518D01*
X769688Y110421D01*
X767592Y107689D01*
X766274Y104507D01*
X765824Y101092D01*
X766274Y97677D01*
X767592Y94495D01*
X769688Y91763D01*
X772421Y89666D01*
X775603Y88348D01*
X779018Y87898D01*
X782433Y88348D01*
X785615Y89666D01*
X788347Y91763D01*
X790444Y94495D01*
X791762Y97677D01*
X792212Y101092D01*
X791762Y104507D01*
X790444Y107689D01*
X788347Y110421D01*
X785615Y112518D01*
X782433Y113836D01*
X779018Y114286D01*
D02*
G37*
G36*
X1019048Y114261D02*
X1015633Y113812D01*
X1012451Y112493D01*
X1009718Y110397D01*
X1007622Y107664D01*
X1006304Y104482D01*
X1005854Y101067D01*
X1006304Y97652D01*
X1007622Y94470D01*
X1009718Y91738D01*
X1012451Y89641D01*
X1015633Y88323D01*
X1019048Y87873D01*
X1022463Y88323D01*
X1025645Y89641D01*
X1028378Y91738D01*
X1030474Y94470D01*
X1031792Y97652D01*
X1032242Y101067D01*
X1031792Y104482D01*
X1030474Y107664D01*
X1028378Y110397D01*
X1025645Y112493D01*
X1022463Y113812D01*
X1019048Y114261D01*
D02*
G37*
G36*
X1138750Y114120D02*
X1135335Y113670D01*
X1132153Y112352D01*
X1129420Y110255D01*
X1127324Y107523D01*
X1126006Y104341D01*
X1125556Y100926D01*
X1126006Y97511D01*
X1127324Y94329D01*
X1129420Y91596D01*
X1132153Y89500D01*
X1135335Y88182D01*
X1138750Y87732D01*
X1142165Y88182D01*
X1145347Y89500D01*
X1148080Y91596D01*
X1150176Y94329D01*
X1151494Y97511D01*
X1151944Y100926D01*
X1151494Y104341D01*
X1150176Y107523D01*
X1148080Y110255D01*
X1145347Y112352D01*
X1142165Y113670D01*
X1138750Y114120D01*
D02*
G37*
G36*
X898821Y113772D02*
X895406Y113322D01*
X892224Y112004D01*
X889491Y109908D01*
X887395Y107175D01*
X886077Y103993D01*
X885627Y100578D01*
X886077Y97163D01*
X887395Y93981D01*
X889491Y91249D01*
X892224Y89152D01*
X895406Y87834D01*
X898821Y87384D01*
X902236Y87834D01*
X905418Y89152D01*
X908150Y91249D01*
X910247Y93981D01*
X911565Y97163D01*
X912015Y100578D01*
X911565Y103993D01*
X910247Y107175D01*
X908150Y109908D01*
X905418Y112004D01*
X902236Y113322D01*
X898821Y113772D01*
D02*
G37*
G36*
X1169750Y102837D02*
X1167722Y102570D01*
X1165832Y101787D01*
X1164208Y100542D01*
X1162963Y98919D01*
X1162180Y97028D01*
X1161913Y95000D01*
X1162180Y92972D01*
X1162963Y91081D01*
X1164208Y89458D01*
X1165832Y88213D01*
X1167722Y87430D01*
X1169750Y87163D01*
X1171778Y87430D01*
X1173669Y88213D01*
X1175292Y89458D01*
X1176537Y91081D01*
X1177320Y92972D01*
X1177587Y95000D01*
X1177320Y97028D01*
X1176537Y98919D01*
X1175292Y100542D01*
X1173669Y101787D01*
X1171778Y102570D01*
X1169750Y102837D01*
D02*
G37*
G36*
X749750D02*
X747722Y102570D01*
X745832Y101787D01*
X744208Y100542D01*
X742963Y98919D01*
X742180Y97028D01*
X741913Y95000D01*
X742180Y92972D01*
X742963Y91081D01*
X744208Y89458D01*
X745832Y88213D01*
X747722Y87430D01*
X749750Y87163D01*
X751778Y87430D01*
X753669Y88213D01*
X755292Y89458D01*
X756537Y91081D01*
X757320Y92972D01*
X757587Y95000D01*
X757320Y97028D01*
X756537Y98919D01*
X755292Y100542D01*
X753669Y101787D01*
X751778Y102570D01*
X749750Y102837D01*
D02*
G37*
G36*
X530000D02*
X527972Y102570D01*
X526082Y101787D01*
X524458Y100542D01*
X523213Y98919D01*
X522430Y97028D01*
X522163Y95000D01*
X522430Y92972D01*
X523213Y91081D01*
X524458Y89458D01*
X526082Y88213D01*
X527972Y87430D01*
X530000Y87163D01*
X532028Y87430D01*
X533918Y88213D01*
X535542Y89458D01*
X536787Y91081D01*
X537570Y92972D01*
X537837Y95000D01*
X537570Y97028D01*
X536787Y98919D01*
X535542Y100542D01*
X533918Y101787D01*
X532028Y102570D01*
X530000Y102837D01*
D02*
G37*
G36*
X110000D02*
X107972Y102570D01*
X106081Y101787D01*
X104458Y100542D01*
X103213Y98919D01*
X102430Y97028D01*
X102163Y95000D01*
X102430Y92972D01*
X103213Y91081D01*
X104458Y89458D01*
X106081Y88213D01*
X107972Y87430D01*
X110000Y87163D01*
X112028Y87430D01*
X113919Y88213D01*
X115542Y89458D01*
X116787Y91081D01*
X117570Y92972D01*
X117837Y95000D01*
X117570Y97028D01*
X116787Y98919D01*
X115542Y100542D01*
X113919Y101787D01*
X112028Y102570D01*
X110000Y102837D01*
D02*
G37*
G36*
X499170Y112931D02*
X495755Y112481D01*
X492573Y111164D01*
X489841Y109067D01*
X487744Y106334D01*
X486426Y103152D01*
X485976Y99737D01*
X486426Y96322D01*
X487744Y93140D01*
X489841Y90408D01*
X492573Y88311D01*
X495755Y86993D01*
X499170Y86543D01*
X502585Y86993D01*
X505767Y88311D01*
X508499Y90408D01*
X510596Y93140D01*
X511914Y96322D01*
X512364Y99737D01*
X511914Y103152D01*
X510596Y106334D01*
X508499Y109067D01*
X505767Y111164D01*
X502585Y112481D01*
X499170Y112931D01*
D02*
G37*
G36*
X378714D02*
X375299Y112481D01*
X372117Y111164D01*
X369384Y109067D01*
X367288Y106334D01*
X365970Y103152D01*
X365520Y99737D01*
X365970Y96322D01*
X367288Y93140D01*
X369384Y90408D01*
X372117Y88311D01*
X375299Y86993D01*
X378714Y86543D01*
X382129Y86993D01*
X385311Y88311D01*
X388044Y90408D01*
X390140Y93140D01*
X391458Y96322D01*
X391908Y99737D01*
X391458Y103152D01*
X390140Y106334D01*
X388044Y109067D01*
X385311Y111164D01*
X382129Y112481D01*
X378714Y112931D01*
D02*
G37*
G36*
X257870Y112006D02*
X254455Y111556D01*
X251273Y110238D01*
X248540Y108141D01*
X246444Y105409D01*
X245126Y102227D01*
X244676Y98812D01*
X245126Y95397D01*
X246444Y92215D01*
X248540Y89482D01*
X251273Y87386D01*
X254455Y86068D01*
X257870Y85618D01*
X261285Y86068D01*
X264467Y87386D01*
X267199Y89482D01*
X269296Y92215D01*
X270614Y95397D01*
X271064Y98812D01*
X270614Y102227D01*
X269296Y105409D01*
X267199Y108141D01*
X264467Y110238D01*
X261285Y111556D01*
X257870Y112006D01*
D02*
G37*
G36*
X139252D02*
X135837Y111556D01*
X132655Y110238D01*
X129923Y108141D01*
X127826Y105409D01*
X126508Y102227D01*
X126058Y98812D01*
X126508Y95397D01*
X127826Y92215D01*
X129923Y89482D01*
X132655Y87386D01*
X135837Y86068D01*
X139252Y85618D01*
X142667Y86068D01*
X145849Y87386D01*
X148581Y89482D01*
X150678Y92215D01*
X151996Y95397D01*
X152446Y98812D01*
X151996Y102227D01*
X150678Y105409D01*
X148581Y108141D01*
X145849Y110238D01*
X142667Y111556D01*
X139252Y112006D01*
D02*
G37*
G36*
X342016Y120718D02*
X297016D01*
X296025Y120521D01*
X295185Y119959D01*
X294623Y119119D01*
X294426Y118128D01*
Y78128D01*
X294623Y77137D01*
X295185Y76297D01*
X296025Y75736D01*
X297016Y75539D01*
X342016D01*
X343007Y75736D01*
X343847Y76297D01*
X344409Y77137D01*
X344606Y78128D01*
Y118128D01*
X344409Y119119D01*
X343847Y119959D01*
X343007Y120521D01*
X342016Y120718D01*
D02*
G37*
G36*
X982148Y120444D02*
X937148D01*
X936157Y120247D01*
X935317Y119685D01*
X934755Y118845D01*
X934558Y117854D01*
Y77854D01*
X934755Y76863D01*
X935317Y76023D01*
X936157Y75461D01*
X937148Y75264D01*
X982148D01*
X983139Y75461D01*
X983979Y76023D01*
X984541Y76863D01*
X984738Y77854D01*
Y117854D01*
X984541Y118845D01*
X983979Y119685D01*
X983139Y120247D01*
X982148Y120444D01*
D02*
G37*
G36*
X1102544Y120386D02*
X1057544D01*
X1056553Y120189D01*
X1055713Y119627D01*
X1055151Y118787D01*
X1054954Y117796D01*
Y77796D01*
X1055151Y76805D01*
X1055713Y75965D01*
X1056553Y75403D01*
X1057544Y75206D01*
X1102544D01*
X1103535Y75403D01*
X1104375Y75965D01*
X1104937Y76805D01*
X1105134Y77796D01*
Y117796D01*
X1104937Y118787D01*
X1104375Y119627D01*
X1103535Y120189D01*
X1102544Y120386D01*
D02*
G37*
G36*
X461904Y120332D02*
X416904D01*
X415913Y120134D01*
X415073Y119573D01*
X414511Y118733D01*
X414314Y117742D01*
Y77742D01*
X414511Y76751D01*
X415073Y75911D01*
X415913Y75349D01*
X416904Y75152D01*
X461904D01*
X462895Y75349D01*
X463735Y75911D01*
X464297Y76751D01*
X464494Y77742D01*
Y117742D01*
X464297Y118733D01*
X463735Y119573D01*
X462895Y120134D01*
X461904Y120332D01*
D02*
G37*
G36*
X862422Y120020D02*
X817422D01*
X816431Y119823D01*
X815591Y119261D01*
X815029Y118421D01*
X814832Y117430D01*
Y77430D01*
X815029Y76439D01*
X815591Y75599D01*
X816431Y75037D01*
X817422Y74840D01*
X862422D01*
X863413Y75037D01*
X864253Y75599D01*
X864815Y76439D01*
X865012Y77430D01*
Y117430D01*
X864815Y118421D01*
X864253Y119261D01*
X863413Y119823D01*
X862422Y120020D01*
D02*
G37*
G36*
X222576Y119170D02*
X177576D01*
X176585Y118973D01*
X175744Y118411D01*
X175183Y117571D01*
X174986Y116580D01*
Y76580D01*
X175183Y75589D01*
X175744Y74749D01*
X176585Y74187D01*
X177576Y73990D01*
X222576D01*
X223567Y74187D01*
X224407Y74749D01*
X224968Y75589D01*
X225166Y76580D01*
Y116580D01*
X224968Y117571D01*
X224407Y118411D01*
X223567Y118973D01*
X222576Y119170D01*
D02*
G37*
G36*
X972636Y72540D02*
X971050Y72224D01*
X969706Y71326D01*
X968808Y69982D01*
X968492Y68396D01*
X968808Y66810D01*
X969706Y65466D01*
X971050Y64568D01*
X972636Y64252D01*
X974222Y64568D01*
X975566Y65466D01*
X976464Y66810D01*
X976780Y68396D01*
X976464Y69982D01*
X975566Y71326D01*
X974222Y72224D01*
X972636Y72540D01*
D02*
G37*
G36*
X1093712Y72482D02*
X1092126Y72166D01*
X1090782Y71268D01*
X1089884Y69924D01*
X1089568Y68338D01*
X1089884Y66752D01*
X1090782Y65408D01*
X1092126Y64510D01*
X1093712Y64194D01*
X1095298Y64510D01*
X1096642Y65408D01*
X1097540Y66752D01*
X1097856Y68338D01*
X1097540Y69924D01*
X1096642Y71268D01*
X1095298Y72166D01*
X1093712Y72482D01*
D02*
G37*
G36*
X853074Y72116D02*
X851488Y71800D01*
X850144Y70902D01*
X849246Y69558D01*
X848930Y67972D01*
X849246Y66386D01*
X850144Y65042D01*
X851488Y64144D01*
X853074Y63828D01*
X854660Y64144D01*
X856004Y65042D01*
X856902Y66386D01*
X857218Y67972D01*
X856902Y69558D01*
X856004Y70902D01*
X854660Y71800D01*
X853074Y72116D01*
D02*
G37*
G36*
X331978Y71964D02*
X330392Y71648D01*
X329048Y70750D01*
X328150Y69406D01*
X327834Y67820D01*
X328150Y66234D01*
X329048Y64890D01*
X330392Y63992D01*
X331978Y63677D01*
X333564Y63992D01*
X334908Y64890D01*
X335806Y66234D01*
X336122Y67820D01*
X335806Y69406D01*
X334908Y70750D01*
X333564Y71648D01*
X331978Y71964D01*
D02*
G37*
G36*
X451866Y71577D02*
X450280Y71262D01*
X448936Y70364D01*
X448038Y69019D01*
X447722Y67434D01*
X448038Y65848D01*
X448936Y64504D01*
X450280Y63606D01*
X451866Y63290D01*
X453452Y63606D01*
X454796Y64504D01*
X455694Y65848D01*
X456010Y67434D01*
X455694Y69019D01*
X454796Y70364D01*
X453452Y71262D01*
X451866Y71577D01*
D02*
G37*
G36*
X212538Y70416D02*
X210952Y70100D01*
X209608Y69202D01*
X208710Y67858D01*
X208394Y66272D01*
X208710Y64686D01*
X209608Y63342D01*
X210952Y62444D01*
X212538Y62128D01*
X214123Y62444D01*
X215468Y63342D01*
X216366Y64686D01*
X216681Y66272D01*
X216366Y67858D01*
X215468Y69202D01*
X214123Y70100D01*
X212538Y70416D01*
D02*
G37*
G36*
X958910Y66090D02*
X955495Y65640D01*
X952313Y64322D01*
X949581Y62225D01*
X947484Y59493D01*
X946166Y56311D01*
X945716Y52896D01*
X946166Y49481D01*
X947484Y46299D01*
X949581Y43566D01*
X952313Y41470D01*
X955495Y40152D01*
X958910Y39702D01*
X962325Y40152D01*
X965507Y41470D01*
X968240Y43566D01*
X970336Y46299D01*
X971654Y49481D01*
X972104Y52896D01*
X971654Y56311D01*
X970336Y59493D01*
X968240Y62225D01*
X965507Y64322D01*
X962325Y65640D01*
X958910Y66090D01*
D02*
G37*
G36*
X1079306Y66032D02*
X1075891Y65582D01*
X1072709Y64264D01*
X1069977Y62168D01*
X1067880Y59435D01*
X1066562Y56253D01*
X1066112Y52838D01*
X1066562Y49423D01*
X1067880Y46241D01*
X1069977Y43509D01*
X1072709Y41412D01*
X1075891Y40094D01*
X1079306Y39644D01*
X1082721Y40094D01*
X1085903Y41412D01*
X1088635Y43509D01*
X1090732Y46241D01*
X1092050Y49423D01*
X1092500Y52838D01*
X1092050Y56253D01*
X1090732Y59435D01*
X1088635Y62168D01*
X1085903Y64264D01*
X1082721Y65582D01*
X1079306Y66032D01*
D02*
G37*
G36*
X839184Y65666D02*
X835769Y65216D01*
X832587Y63898D01*
X829855Y61801D01*
X827758Y59069D01*
X826440Y55887D01*
X825990Y52472D01*
X826440Y49057D01*
X827758Y45875D01*
X829855Y43142D01*
X832587Y41046D01*
X835769Y39728D01*
X839184Y39278D01*
X842599Y39728D01*
X845781Y41046D01*
X848513Y43142D01*
X850610Y45875D01*
X851928Y49057D01*
X852378Y52472D01*
X851928Y55887D01*
X850610Y59069D01*
X848513Y61801D01*
X845781Y63898D01*
X842599Y65216D01*
X839184Y65666D01*
D02*
G37*
G36*
X319021Y63742D02*
X315606Y63292D01*
X312424Y61975D01*
X309692Y59878D01*
X307595Y57145D01*
X306277Y53963D01*
X305827Y50548D01*
X306277Y47133D01*
X307595Y43951D01*
X309692Y41219D01*
X312424Y39122D01*
X315606Y37804D01*
X319021Y37354D01*
X322436Y37804D01*
X325618Y39122D01*
X328350Y41219D01*
X330447Y43951D01*
X331765Y47133D01*
X332215Y50548D01*
X331765Y53963D01*
X330447Y57145D01*
X328350Y59878D01*
X325618Y61975D01*
X322436Y63292D01*
X319021Y63742D01*
D02*
G37*
G36*
X438658Y63356D02*
X435243Y62906D01*
X432061Y61588D01*
X429328Y59491D01*
X427232Y56759D01*
X425914Y53577D01*
X425464Y50162D01*
X425914Y46747D01*
X427232Y43565D01*
X429328Y40832D01*
X432061Y38736D01*
X435243Y37418D01*
X438658Y36968D01*
X442073Y37418D01*
X445255Y38736D01*
X447988Y40832D01*
X450084Y43565D01*
X451402Y46747D01*
X451852Y50162D01*
X451402Y53577D01*
X450084Y56759D01*
X447988Y59491D01*
X445255Y61588D01*
X442073Y62906D01*
X438658Y63356D01*
D02*
G37*
G36*
X1220000Y98867D02*
X1215093Y98481D01*
X1210307Y97331D01*
X1205760Y95448D01*
X1201563Y92876D01*
X1197820Y89680D01*
X1194624Y85937D01*
X1192052Y81740D01*
X1190169Y77193D01*
X1189019Y72407D01*
X1188633Y67500D01*
X1189019Y62593D01*
X1190169Y57807D01*
X1192052Y53260D01*
X1194624Y49063D01*
X1197820Y45320D01*
X1201563Y42124D01*
X1205760Y39552D01*
X1210307Y37668D01*
X1215093Y36519D01*
X1220000Y36133D01*
X1224907Y36519D01*
X1229693Y37668D01*
X1234240Y39552D01*
X1238437Y42124D01*
X1242180Y45320D01*
X1245376Y49063D01*
X1247948Y53260D01*
X1249831Y57807D01*
X1250981Y62593D01*
X1251367Y67500D01*
X1250981Y72407D01*
X1249831Y77193D01*
X1247948Y81740D01*
X1245376Y85937D01*
X1242180Y89680D01*
X1238437Y92876D01*
X1234240Y95448D01*
X1229693Y97331D01*
X1224907Y98481D01*
X1220000Y98867D01*
D02*
G37*
G36*
X700000D02*
X695093Y98481D01*
X690307Y97331D01*
X685760Y95448D01*
X681563Y92876D01*
X677820Y89680D01*
X674624Y85937D01*
X672052Y81740D01*
X670169Y77193D01*
X669019Y72407D01*
X668633Y67500D01*
X669019Y62593D01*
X670169Y57807D01*
X672052Y53260D01*
X674624Y49063D01*
X677820Y45320D01*
X681563Y42124D01*
X685760Y39552D01*
X690307Y37668D01*
X695093Y36519D01*
X700000Y36133D01*
X704907Y36519D01*
X709693Y37668D01*
X714240Y39552D01*
X718437Y42124D01*
X722180Y45320D01*
X725376Y49063D01*
X727948Y53260D01*
X729831Y57807D01*
X730981Y62593D01*
X731367Y67500D01*
X730981Y72407D01*
X729831Y77193D01*
X727948Y81740D01*
X725376Y85937D01*
X722180Y89680D01*
X718437Y92876D01*
X714240Y95448D01*
X709693Y97331D01*
X704907Y98481D01*
X700000Y98867D01*
D02*
G37*
G36*
X580000D02*
X575093Y98481D01*
X570307Y97331D01*
X565760Y95448D01*
X561563Y92876D01*
X557820Y89680D01*
X554624Y85937D01*
X552052Y81740D01*
X550168Y77193D01*
X549020Y72407D01*
X548633Y67500D01*
X549020Y62593D01*
X550168Y57807D01*
X552052Y53260D01*
X554624Y49063D01*
X557820Y45320D01*
X561563Y42124D01*
X565760Y39552D01*
X570307Y37668D01*
X575093Y36519D01*
X580000Y36133D01*
X584907Y36519D01*
X589693Y37668D01*
X594240Y39552D01*
X598437Y42124D01*
X602180Y45320D01*
X605376Y49063D01*
X607948Y53260D01*
X609832Y57807D01*
X610980Y62593D01*
X611367Y67500D01*
X610980Y72407D01*
X609832Y77193D01*
X607948Y81740D01*
X605376Y85937D01*
X602180Y89680D01*
X598437Y92876D01*
X594240Y95448D01*
X589693Y97331D01*
X584907Y98481D01*
X580000Y98867D01*
D02*
G37*
G36*
X60000D02*
X55093Y98481D01*
X50307Y97331D01*
X45760Y95448D01*
X41563Y92876D01*
X37820Y89680D01*
X34624Y85937D01*
X32052Y81740D01*
X30168Y77193D01*
X29019Y72407D01*
X28633Y67500D01*
X29019Y62593D01*
X30168Y57807D01*
X32052Y53260D01*
X34624Y49063D01*
X37820Y45320D01*
X41563Y42124D01*
X45760Y39552D01*
X50307Y37668D01*
X55093Y36519D01*
X60000Y36133D01*
X64907Y36519D01*
X69693Y37668D01*
X74240Y39552D01*
X78437Y42124D01*
X82180Y45320D01*
X85376Y49063D01*
X87948Y53260D01*
X89831Y57807D01*
X90981Y62593D01*
X91367Y67500D01*
X90981Y72407D01*
X89831Y77193D01*
X87948Y81740D01*
X85376Y85937D01*
X82180Y89680D01*
X78437Y92876D01*
X74240Y95448D01*
X69693Y97331D01*
X64907Y98481D01*
X60000Y98867D01*
D02*
G37*
G36*
X199330Y62194D02*
X195915Y61744D01*
X192733Y60426D01*
X190000Y58330D01*
X187904Y55597D01*
X186586Y52415D01*
X186136Y49000D01*
X186586Y45585D01*
X187904Y42403D01*
X190000Y39671D01*
X192733Y37574D01*
X195915Y36256D01*
X199330Y35806D01*
X202745Y36256D01*
X205927Y37574D01*
X208659Y39671D01*
X210756Y42403D01*
X212074Y45585D01*
X212524Y49000D01*
X212074Y52415D01*
X210756Y55597D01*
X208659Y58330D01*
X205927Y60426D01*
X202745Y61744D01*
X199330Y62194D01*
D02*
G37*
G36*
X802804Y77118D02*
X757804D01*
X756813Y76921D01*
X755973Y76359D01*
X755411Y75519D01*
X755214Y74528D01*
Y34528D01*
X755411Y33537D01*
X755973Y32697D01*
X756813Y32135D01*
X757804Y31938D01*
X802804D01*
X803795Y32135D01*
X804635Y32697D01*
X805197Y33537D01*
X805394Y34528D01*
Y74528D01*
X805197Y75519D01*
X804635Y76359D01*
X803795Y76921D01*
X802804Y77118D01*
D02*
G37*
G36*
X1042834Y77093D02*
X997834D01*
X996843Y76896D01*
X996003Y76335D01*
X995441Y75494D01*
X995244Y74503D01*
Y34503D01*
X995441Y33512D01*
X996003Y32672D01*
X996843Y32111D01*
X997834Y31913D01*
X1042834D01*
X1043825Y32111D01*
X1044665Y32672D01*
X1045227Y33512D01*
X1045424Y34503D01*
Y74503D01*
X1045227Y75494D01*
X1044665Y76335D01*
X1043825Y76896D01*
X1042834Y77093D01*
D02*
G37*
G36*
X522696D02*
X477696D01*
X476705Y76896D01*
X475865Y76335D01*
X475303Y75494D01*
X475106Y74503D01*
Y34503D01*
X475303Y33512D01*
X475865Y32672D01*
X476705Y32111D01*
X477696Y31913D01*
X522696D01*
X523687Y32111D01*
X524527Y32672D01*
X525089Y33512D01*
X525286Y34503D01*
Y74503D01*
X525089Y75494D01*
X524527Y76335D01*
X523687Y76896D01*
X522696Y77093D01*
D02*
G37*
G36*
X402240D02*
X357240D01*
X356249Y76896D01*
X355409Y76335D01*
X354847Y75494D01*
X354650Y74503D01*
Y34503D01*
X354847Y33512D01*
X355409Y32672D01*
X356249Y32111D01*
X357240Y31913D01*
X402240D01*
X403231Y32111D01*
X404071Y32672D01*
X404633Y33512D01*
X404830Y34503D01*
Y74503D01*
X404633Y75494D01*
X404071Y76335D01*
X403231Y76896D01*
X402240Y77093D01*
D02*
G37*
G36*
X1162536Y76952D02*
X1117536D01*
X1116545Y76755D01*
X1115705Y76193D01*
X1115143Y75353D01*
X1114946Y74362D01*
Y34362D01*
X1115143Y33371D01*
X1115705Y32531D01*
X1116545Y31969D01*
X1117536Y31772D01*
X1162536D01*
X1163527Y31969D01*
X1164367Y32531D01*
X1164929Y33371D01*
X1165126Y34362D01*
Y74362D01*
X1164929Y75353D01*
X1164367Y76193D01*
X1163527Y76755D01*
X1162536Y76952D01*
D02*
G37*
G36*
X921936Y76640D02*
X876936D01*
X875945Y76443D01*
X875105Y75881D01*
X874543Y75041D01*
X874346Y74050D01*
Y34050D01*
X874543Y33059D01*
X875105Y32219D01*
X875945Y31657D01*
X876936Y31460D01*
X921936D01*
X922927Y31657D01*
X923767Y32219D01*
X924329Y33059D01*
X924526Y34050D01*
Y74050D01*
X924329Y75041D01*
X923767Y75881D01*
X922927Y76443D01*
X921936Y76640D01*
D02*
G37*
G36*
X281396Y76168D02*
X236396D01*
X235405Y75971D01*
X234565Y75409D01*
X234003Y74569D01*
X233806Y73578D01*
Y33578D01*
X234003Y32587D01*
X234565Y31747D01*
X235405Y31185D01*
X236396Y30988D01*
X281396D01*
X282387Y31185D01*
X283227Y31747D01*
X283789Y32587D01*
X283986Y33578D01*
Y73578D01*
X283789Y74569D01*
X283227Y75409D01*
X282387Y75971D01*
X281396Y76168D01*
D02*
G37*
G36*
X162778D02*
X117778D01*
X116787Y75971D01*
X115947Y75409D01*
X115385Y74569D01*
X115188Y73578D01*
Y33578D01*
X115385Y32587D01*
X115947Y31747D01*
X116787Y31185D01*
X117778Y30988D01*
X162778D01*
X163769Y31185D01*
X164609Y31747D01*
X165171Y32587D01*
X165368Y33578D01*
Y73578D01*
X165171Y74569D01*
X164609Y75409D01*
X163769Y75971D01*
X162778Y76168D01*
D02*
G37*
G36*
X738803Y21172D02*
X737217Y20856D01*
X735873Y19958D01*
X734975Y18614D01*
X734659Y17028D01*
X734975Y15442D01*
X735873Y14098D01*
X737217Y13200D01*
X738803Y12884D01*
X740389Y13200D01*
X741733Y14098D01*
X742631Y15442D01*
X742947Y17028D01*
X742631Y18614D01*
X741733Y19958D01*
X740389Y20856D01*
X738803Y21172D01*
D02*
G37*
G36*
X978833Y21147D02*
X977247Y20831D01*
X975903Y19933D01*
X975005Y18589D01*
X974689Y17003D01*
X975005Y15417D01*
X975903Y14073D01*
X977247Y13175D01*
X978833Y12860D01*
X980419Y13175D01*
X981763Y14073D01*
X982661Y15417D01*
X982977Y17003D01*
X982661Y18589D01*
X981763Y19933D01*
X980419Y20831D01*
X978833Y21147D01*
D02*
G37*
G36*
X458695D02*
X457109Y20831D01*
X455765Y19933D01*
X454867Y18589D01*
X454551Y17003D01*
X454867Y15417D01*
X455765Y14073D01*
X457109Y13175D01*
X458695Y12860D01*
X460281Y13175D01*
X461625Y14073D01*
X462523Y15417D01*
X462839Y17003D01*
X462523Y18589D01*
X461625Y19933D01*
X460281Y20831D01*
X458695Y21147D01*
D02*
G37*
G36*
X1098535Y21006D02*
X1096949Y20690D01*
X1095605Y19792D01*
X1094707Y18448D01*
X1094391Y16862D01*
X1094707Y15276D01*
X1095605Y13932D01*
X1096949Y13034D01*
X1098535Y12718D01*
X1100121Y13034D01*
X1101465Y13932D01*
X1102363Y15276D01*
X1102679Y16862D01*
X1102363Y18448D01*
X1101465Y19792D01*
X1100121Y20690D01*
X1098535Y21006D01*
D02*
G37*
G36*
X857935Y20694D02*
X856349Y20378D01*
X855005Y19480D01*
X854107Y18136D01*
X853791Y16550D01*
X854107Y14964D01*
X855005Y13620D01*
X856349Y12722D01*
X857935Y12406D01*
X859521Y12722D01*
X860865Y13620D01*
X861763Y14964D01*
X862079Y16550D01*
X861763Y18136D01*
X860865Y19480D01*
X859521Y20378D01*
X857935Y20694D01*
D02*
G37*
G36*
X217395Y20222D02*
X215809Y19906D01*
X214465Y19008D01*
X213567Y17664D01*
X213251Y16078D01*
X213567Y14492D01*
X214465Y13148D01*
X215809Y12250D01*
X217395Y11934D01*
X218981Y12250D01*
X220325Y13148D01*
X221223Y14492D01*
X221539Y16078D01*
X221223Y17664D01*
X220325Y19008D01*
X218981Y19906D01*
X217395Y20222D01*
D02*
G37*
G36*
X98777D02*
X97191Y19906D01*
X95847Y19008D01*
X94949Y17664D01*
X94633Y16078D01*
X94949Y14492D01*
X95847Y13148D01*
X97191Y12250D01*
X98777Y11934D01*
X100363Y12250D01*
X101707Y13148D01*
X102605Y14492D01*
X102921Y16078D01*
X102605Y17664D01*
X101707Y19008D01*
X100363Y19906D01*
X98777Y20222D01*
D02*
G37*
G36*
X338239Y18184D02*
X336653Y17868D01*
X335309Y16970D01*
X334411Y15626D01*
X334095Y14040D01*
X334411Y12454D01*
X335309Y11110D01*
X336653Y10212D01*
X338239Y9896D01*
X339825Y10212D01*
X341169Y11110D01*
X342067Y12454D01*
X342383Y14040D01*
X342067Y15626D01*
X341169Y16970D01*
X339825Y17868D01*
X338239Y18184D01*
D02*
G37*
%LPD*%
D14*
X709823Y364423D02*
Y405571D01*
X673755Y364423D02*
Y405571D01*
Y364423D02*
X709823D01*
X673755Y405571D02*
X709823D01*
X1161070Y469144D02*
Y505212D01*
X1119922Y469144D02*
Y505212D01*
X1161070D01*
X1119922Y469144D02*
X1161070D01*
X1119462Y36328D02*
Y72396D01*
X1160610Y36328D02*
Y72396D01*
X1119462Y36328D02*
X1160610D01*
X1119462Y72396D02*
X1160610D01*
X980222Y79820D02*
Y115888D01*
X939074Y79820D02*
Y115888D01*
X980222D01*
X939074Y79820D02*
X980222D01*
X878862Y36016D02*
Y72084D01*
X920010Y36016D02*
Y72084D01*
X878862Y36016D02*
X920010D01*
X878862Y72084D02*
X920010D01*
X860496Y79396D02*
Y115464D01*
X819348Y79396D02*
Y115464D01*
X860496D01*
X819348Y79396D02*
X860496D01*
X999760Y36469D02*
Y72537D01*
X1040908Y36469D02*
Y72537D01*
X999760Y36469D02*
X1040908D01*
X999760Y72537D02*
X1040908D01*
X1100618Y79762D02*
Y115830D01*
X1059470Y79762D02*
Y115830D01*
X1100618D01*
X1059470Y79762D02*
X1100618D01*
X939546Y425374D02*
Y461442D01*
X980694Y425374D02*
Y461442D01*
X939546Y425374D02*
X980694D01*
X939546Y461442D02*
X980694D01*
X920540Y468718D02*
Y504786D01*
X879392Y468718D02*
Y504786D01*
X920540D01*
X879392Y468718D02*
X920540D01*
X800109Y469199D02*
Y505267D01*
X758961Y469199D02*
Y505267D01*
X800109D01*
X758961Y469199D02*
X800109D01*
X674056Y176040D02*
X710124D01*
X674056Y134892D02*
X710124D01*
X674056D02*
Y176040D01*
X710124Y134892D02*
Y176040D01*
X569610Y133605D02*
X605678D01*
X569610Y174753D02*
X605678D01*
Y133605D02*
Y174753D01*
X569610Y133605D02*
Y174753D01*
X759730Y36494D02*
Y72562D01*
X800878Y36494D02*
Y72562D01*
X759730Y36494D02*
X800878D01*
X759730Y72562D02*
X800878D01*
X1040868Y468884D02*
Y504952D01*
X999720Y468884D02*
Y504952D01*
X1040868D01*
X999720Y468884D02*
X1040868D01*
X819682Y424942D02*
Y461010D01*
X860830Y424942D02*
Y461010D01*
X819682Y424942D02*
X860830D01*
X819682Y461010D02*
X860830D01*
X570418Y364893D02*
X606486D01*
X570418Y406041D02*
X606486D01*
Y364893D02*
Y406041D01*
X570418Y364893D02*
Y406041D01*
X1059410Y424942D02*
Y461010D01*
X1100558Y424942D02*
Y461010D01*
X1059410Y424942D02*
X1100558D01*
X1059410Y461010D02*
X1100558D01*
X340090Y80094D02*
Y116162D01*
X298942Y80094D02*
Y116162D01*
X340090D01*
X298942Y80094D02*
X340090D01*
X459978Y79708D02*
Y115776D01*
X418830Y79708D02*
Y115776D01*
X459978D01*
X418830Y79708D02*
X459978D01*
X49352Y134185D02*
X85420D01*
X49352Y175333D02*
X85420D01*
Y134185D02*
Y175333D01*
X49352Y134185D02*
Y175333D01*
X220650Y78546D02*
Y114614D01*
X179502Y78546D02*
Y114614D01*
X220650D01*
X179502Y78546D02*
X220650D01*
X359166Y36469D02*
Y72537D01*
X400314Y36469D02*
Y72537D01*
X359166Y36469D02*
X400314D01*
X359166Y72537D02*
X400314D01*
X479622Y36469D02*
Y72537D01*
X520770Y36469D02*
Y72537D01*
X479622Y36469D02*
X520770D01*
X479622Y72537D02*
X520770D01*
X119704Y35544D02*
Y71612D01*
X160852Y35544D02*
Y71612D01*
X119704Y35544D02*
X160852D01*
X119704Y71612D02*
X160852D01*
X238322Y35544D02*
Y71612D01*
X279470Y35544D02*
Y71612D01*
X238322Y35544D02*
X279470D01*
X238322Y71612D02*
X279470D01*
X280138Y469724D02*
Y505792D01*
X238990Y469724D02*
Y505792D01*
X280138D01*
X238990Y469724D02*
X280138D01*
X401490Y468630D02*
Y504698D01*
X360342Y468630D02*
Y504698D01*
X401490D01*
X360342Y468630D02*
X401490D01*
X521124Y468424D02*
Y504492D01*
X479976Y468424D02*
Y504492D01*
X521124D01*
X479976Y468424D02*
X521124D01*
X48000Y364320D02*
X84068D01*
X48000Y405468D02*
X84068D01*
Y364320D02*
Y405468D01*
X48000Y364320D02*
Y405468D01*
X299490Y425704D02*
Y461772D01*
X340638Y425704D02*
Y461772D01*
X299490Y425704D02*
X340638D01*
X299490Y461772D02*
X340638D01*
X420394Y424688D02*
Y460756D01*
X461542Y424688D02*
Y460756D01*
X420394Y424688D02*
X461542D01*
X420394Y460756D02*
X461542D01*
X179086Y425368D02*
Y461436D01*
X220234Y425368D02*
Y461436D01*
X179086Y425368D02*
X220234D01*
X179086Y461436D02*
X220234D01*
X159248Y468906D02*
Y504974D01*
X118100Y468906D02*
Y504974D01*
X159248D01*
X118100Y468906D02*
X159248D01*
D49*
X1187828Y420152D02*
D03*
Y369352D02*
D03*
X1238628D02*
D03*
Y420152D02*
D03*
X1191168Y183038D02*
D03*
Y132238D02*
D03*
X1241968D02*
D03*
Y183038D02*
D03*
D51*
X711785Y299265D02*
D03*
X425016Y315104D02*
D03*
X322771Y26771D02*
D03*
X203080Y25080D02*
D03*
X1143500Y269402D02*
D03*
X1143250Y263833D02*
D03*
X871630Y319870D02*
D03*
X902500Y326795D02*
D03*
Y332750D02*
D03*
X347250Y352806D02*
D03*
X1001000Y340000D02*
D03*
Y346118D02*
D03*
X806250Y354572D02*
D03*
X806039Y348017D02*
D03*
X491250Y295656D02*
D03*
Y302500D02*
D03*
X612380Y300750D02*
D03*
X612376Y293624D02*
D03*
X695214Y298250D02*
D03*
X749554Y328054D02*
D03*
X736346Y273924D02*
D03*
X820926Y239000D02*
D03*
X929306Y235966D02*
D03*
X1209750Y274250D02*
D03*
X1210000Y280782D02*
D03*
X1128948Y85426D02*
D03*
X996076Y185848D02*
D03*
X697150Y202692D02*
D03*
X484124Y324104D02*
D03*
X483870Y329692D02*
D03*
X553466Y274766D02*
D03*
X553466Y323850D02*
D03*
X554990Y336804D02*
D03*
X174208Y192571D02*
D03*
X473456Y191102D02*
D03*
Y196596D02*
D03*
X582676Y262382D02*
D03*
X1245292Y316300D02*
D03*
X1193546Y322326D02*
D03*
X1229614Y200406D02*
D03*
X1107186Y221488D02*
D03*
X1106932Y215646D02*
D03*
X1100021Y360172D02*
D03*
X1100154Y365674D02*
D03*
X1041146Y308864D02*
D03*
X553600Y358274D02*
D03*
X734254Y360862D02*
D03*
X792014Y457212D02*
D03*
X837244Y513528D02*
D03*
X912864Y455688D02*
D03*
X955321Y514831D02*
D03*
X1076972Y513068D02*
D03*
X1083056Y26416D02*
D03*
X962660D02*
D03*
X1007333Y85567D02*
D03*
X1035558Y177546D02*
D03*
X887280Y84132D02*
D03*
X842934Y27016D02*
D03*
X544830Y178642D02*
D03*
X727456Y179212D02*
D03*
X763374Y85592D02*
D03*
X995680Y227076D02*
D03*
X995426Y220980D02*
D03*
X174244Y185928D02*
D03*
X808228Y189992D02*
D03*
Y184404D02*
D03*
X905256Y193643D02*
D03*
Y199323D02*
D03*
X888559Y168215D02*
D03*
X747054Y37562D02*
D03*
X1113294Y114560D02*
D03*
X992898Y114618D02*
D03*
X1106786Y37396D02*
D03*
X987084Y37537D02*
D03*
X866186Y37084D02*
D03*
X1151690Y457720D02*
D03*
X1173746Y503942D02*
D03*
X987277Y323410D02*
D03*
X926135Y369067D02*
D03*
X873172Y114194D02*
D03*
X926870Y426442D02*
D03*
X933216Y503718D02*
D03*
X812785Y504199D02*
D03*
X675124Y188716D02*
D03*
X606039Y119671D02*
D03*
X1031488Y457460D02*
D03*
X1053544Y503682D02*
D03*
X807006Y426212D02*
D03*
X1046734D02*
D03*
X675025Y418247D02*
D03*
X605216Y352217D02*
D03*
X21396Y181924D02*
D03*
X411226Y183134D02*
D03*
X442408Y24698D02*
D03*
X347000Y359000D02*
D03*
X356870Y318436D02*
D03*
X271350Y329869D02*
D03*
X271504Y324162D02*
D03*
X233172Y306070D02*
D03*
X295729Y364093D02*
D03*
X365760Y224282D02*
D03*
Y230124D02*
D03*
X364998Y188642D02*
D03*
X181096Y340360D02*
D03*
Y334898D02*
D03*
X275590Y187960D02*
D03*
Y193643D02*
D03*
X250190Y165100D02*
D03*
X302260Y238760D02*
D03*
X486222Y84237D02*
D03*
X466946Y37897D02*
D03*
X365766Y84237D02*
D03*
X346490Y37897D02*
D03*
X244922Y83312D02*
D03*
X225646Y36972D02*
D03*
X472654Y115190D02*
D03*
X352766Y115576D02*
D03*
X435932Y515246D02*
D03*
X84834Y121509D02*
D03*
X233326Y114028D02*
D03*
X126304Y83312D02*
D03*
X107028Y36972D02*
D03*
X20126Y411794D02*
D03*
X414166Y503174D02*
D03*
X286814Y426720D02*
D03*
X316908Y515366D02*
D03*
X533800Y503222D02*
D03*
X407718Y425756D02*
D03*
X292814Y503936D02*
D03*
X166410Y425954D02*
D03*
X171924Y503546D02*
D03*
X82042Y351644D02*
D03*
X395158Y457206D02*
D03*
X196656Y518100D02*
D03*
X152648Y457206D02*
D03*
X272542Y458724D02*
D03*
X511744Y457000D02*
D03*
M02*
