G04*
G04 #@! TF.GenerationSoftware,Altium Limited,Altium Designer,18.1.6 (161)*
G04*
G04 Layer_Physical_Order=3*
G04 Layer_Color=16440176*
%FSLAX44Y44*%
%MOMM*%
G71*
G01*
G75*
%ADD14C,0.4064*%
%ADD51C,0.5588*%
G36*
X1277410Y2590D02*
X2590D01*
Y537410D01*
X1277410D01*
Y2590D01*
D02*
G37*
%LPC*%
G36*
X196656Y522244D02*
X195070Y521928D01*
X193726Y521030D01*
X192828Y519686D01*
X192512Y518100D01*
X192828Y516514D01*
X193726Y515170D01*
X195070Y514272D01*
X196656Y513956D01*
X198242Y514272D01*
X199586Y515170D01*
X200484Y516514D01*
X200800Y518100D01*
X200484Y519686D01*
X199586Y521030D01*
X198242Y521928D01*
X196656Y522244D01*
D02*
G37*
G36*
X316908Y519510D02*
X315322Y519194D01*
X313978Y518296D01*
X313080Y516952D01*
X312764Y515366D01*
X313080Y513780D01*
X313978Y512436D01*
X315322Y511538D01*
X316908Y511222D01*
X318494Y511538D01*
X319838Y512436D01*
X320736Y513780D01*
X321052Y515366D01*
X320736Y516952D01*
X319838Y518296D01*
X318494Y519194D01*
X316908Y519510D01*
D02*
G37*
G36*
X435932Y519390D02*
X434346Y519074D01*
X433002Y518176D01*
X432104Y516832D01*
X431788Y515246D01*
X432104Y513660D01*
X433002Y512316D01*
X434346Y511418D01*
X435932Y511102D01*
X437518Y511418D01*
X438862Y512316D01*
X439760Y513660D01*
X440076Y515246D01*
X439760Y516832D01*
X438862Y518176D01*
X437518Y519074D01*
X435932Y519390D01*
D02*
G37*
G36*
X955321Y518975D02*
X953735Y518659D01*
X952391Y517761D01*
X951493Y516417D01*
X951177Y514831D01*
X951493Y513245D01*
X952391Y511901D01*
X953735Y511003D01*
X955321Y510687D01*
X956907Y511003D01*
X958251Y511901D01*
X959149Y513245D01*
X959465Y514831D01*
X959149Y516417D01*
X958251Y517761D01*
X956907Y518659D01*
X955321Y518975D01*
D02*
G37*
G36*
X837244Y517672D02*
X835658Y517356D01*
X834314Y516458D01*
X833416Y515114D01*
X833100Y513528D01*
X833416Y511942D01*
X834314Y510598D01*
X835658Y509700D01*
X837244Y509384D01*
X838830Y509700D01*
X840174Y510598D01*
X841072Y511942D01*
X841388Y513528D01*
X841072Y515114D01*
X840174Y516458D01*
X838830Y517356D01*
X837244Y517672D01*
D02*
G37*
G36*
X1076972Y517212D02*
X1075386Y516896D01*
X1074042Y515998D01*
X1073144Y514654D01*
X1072828Y513068D01*
X1073144Y511482D01*
X1074042Y510138D01*
X1075386Y509240D01*
X1076972Y508924D01*
X1078558Y509240D01*
X1079902Y510138D01*
X1080800Y511482D01*
X1081116Y513068D01*
X1080800Y514654D01*
X1079902Y515998D01*
X1078558Y516896D01*
X1076972Y517212D01*
D02*
G37*
G36*
X812785Y508342D02*
X811199Y508027D01*
X809855Y507129D01*
X808957Y505784D01*
X808641Y504199D01*
X808957Y502613D01*
X809855Y501269D01*
X811199Y500371D01*
X812785Y500055D01*
X814371Y500371D01*
X815715Y501269D01*
X816613Y502613D01*
X816929Y504199D01*
X816613Y505784D01*
X815715Y507129D01*
X814371Y508027D01*
X812785Y508342D01*
D02*
G37*
G36*
X1173746Y508086D02*
X1172160Y507770D01*
X1170816Y506872D01*
X1169918Y505528D01*
X1169602Y503942D01*
X1169918Y502356D01*
X1170816Y501012D01*
X1172160Y500114D01*
X1173746Y499798D01*
X1175332Y500114D01*
X1176676Y501012D01*
X1177574Y502356D01*
X1177890Y503942D01*
X1177574Y505528D01*
X1176676Y506872D01*
X1175332Y507770D01*
X1173746Y508086D01*
D02*
G37*
G36*
X292814Y508080D02*
X291228Y507764D01*
X289884Y506866D01*
X288986Y505522D01*
X288670Y503936D01*
X288986Y502350D01*
X289884Y501006D01*
X291228Y500108D01*
X292814Y499792D01*
X294400Y500108D01*
X295744Y501006D01*
X296642Y502350D01*
X296958Y503936D01*
X296642Y505522D01*
X295744Y506866D01*
X294400Y507764D01*
X292814Y508080D01*
D02*
G37*
G36*
X933216Y507862D02*
X931630Y507546D01*
X930286Y506648D01*
X929388Y505304D01*
X929072Y503718D01*
X929388Y502132D01*
X930286Y500788D01*
X931630Y499890D01*
X933216Y499574D01*
X934802Y499890D01*
X936146Y500788D01*
X937044Y502132D01*
X937360Y503718D01*
X937044Y505304D01*
X936146Y506648D01*
X934802Y507546D01*
X933216Y507862D01*
D02*
G37*
G36*
X1053544Y507826D02*
X1051958Y507510D01*
X1050614Y506612D01*
X1049716Y505268D01*
X1049400Y503682D01*
X1049716Y502096D01*
X1050614Y500752D01*
X1051958Y499854D01*
X1053544Y499538D01*
X1055130Y499854D01*
X1056474Y500752D01*
X1057372Y502096D01*
X1057688Y503682D01*
X1057372Y505268D01*
X1056474Y506612D01*
X1055130Y507510D01*
X1053544Y507826D01*
D02*
G37*
G36*
X171924Y507690D02*
X170338Y507374D01*
X168994Y506476D01*
X168096Y505132D01*
X167780Y503546D01*
X168096Y501960D01*
X168994Y500616D01*
X170338Y499718D01*
X171924Y499402D01*
X173510Y499718D01*
X174854Y500616D01*
X175752Y501960D01*
X176068Y503546D01*
X175752Y505132D01*
X174854Y506476D01*
X173510Y507374D01*
X171924Y507690D01*
D02*
G37*
G36*
X533800Y507366D02*
X532214Y507050D01*
X530870Y506152D01*
X529972Y504808D01*
X529656Y503222D01*
X529972Y501636D01*
X530870Y500292D01*
X532214Y499394D01*
X533800Y499078D01*
X535386Y499394D01*
X536730Y500292D01*
X537628Y501636D01*
X537944Y503222D01*
X537628Y504808D01*
X536730Y506152D01*
X535386Y507050D01*
X533800Y507366D01*
D02*
G37*
G36*
X414166Y507318D02*
X412580Y507002D01*
X411236Y506104D01*
X410338Y504760D01*
X410022Y503174D01*
X410338Y501588D01*
X411236Y500244D01*
X412580Y499346D01*
X414166Y499030D01*
X415752Y499346D01*
X417096Y500244D01*
X417994Y501588D01*
X418310Y503174D01*
X417994Y504760D01*
X417096Y506104D01*
X415752Y507002D01*
X414166Y507318D01*
D02*
G37*
G36*
X200406Y504176D02*
X196991Y503726D01*
X193809Y502408D01*
X191077Y500312D01*
X188980Y497579D01*
X187662Y494397D01*
X187212Y490982D01*
X187662Y487567D01*
X188980Y484385D01*
X191077Y481652D01*
X193809Y479556D01*
X196991Y478238D01*
X200406Y477788D01*
X203821Y478238D01*
X207003Y479556D01*
X209736Y481652D01*
X211832Y484385D01*
X213150Y487567D01*
X213600Y490982D01*
X213150Y494397D01*
X211832Y497579D01*
X209736Y500312D01*
X207003Y502408D01*
X203821Y503726D01*
X200406Y504176D01*
D02*
G37*
G36*
X439682Y502480D02*
X436267Y502030D01*
X433085Y500712D01*
X430353Y498615D01*
X428256Y495883D01*
X426938Y492701D01*
X426488Y489286D01*
X426938Y485871D01*
X428256Y482689D01*
X430353Y479957D01*
X433085Y477860D01*
X436267Y476542D01*
X439682Y476092D01*
X443097Y476542D01*
X446279Y477860D01*
X449011Y479957D01*
X451108Y482689D01*
X452426Y485871D01*
X452876Y489286D01*
X452426Y492701D01*
X451108Y495883D01*
X449011Y498615D01*
X446279Y500712D01*
X443097Y502030D01*
X439682Y502480D01*
D02*
G37*
G36*
X320802Y501890D02*
X317387Y501440D01*
X314205Y500122D01*
X311472Y498026D01*
X309376Y495293D01*
X308058Y492111D01*
X307608Y488696D01*
X308058Y485281D01*
X309376Y482099D01*
X311472Y479366D01*
X314205Y477270D01*
X317387Y475952D01*
X320802Y475502D01*
X324217Y475952D01*
X327399Y477270D01*
X330131Y479366D01*
X332228Y482099D01*
X333546Y485281D01*
X333996Y488696D01*
X333546Y492111D01*
X332228Y495293D01*
X330131Y498026D01*
X327399Y500122D01*
X324217Y501440D01*
X320802Y501890D01*
D02*
G37*
G36*
X959071Y501195D02*
X955656Y500745D01*
X952474Y499427D01*
X949742Y497330D01*
X947645Y494598D01*
X946327Y491416D01*
X945877Y488001D01*
X946327Y484586D01*
X947645Y481404D01*
X949742Y478671D01*
X952474Y476575D01*
X955656Y475257D01*
X959071Y474807D01*
X962486Y475257D01*
X965668Y476575D01*
X968400Y478671D01*
X970497Y481404D01*
X971815Y484586D01*
X972265Y488001D01*
X971815Y491416D01*
X970497Y494598D01*
X968400Y497330D01*
X965668Y499427D01*
X962486Y500745D01*
X959071Y501195D01*
D02*
G37*
G36*
X1080722Y501128D02*
X1077307Y500678D01*
X1074125Y499360D01*
X1071393Y497263D01*
X1069296Y494531D01*
X1067978Y491349D01*
X1067528Y487934D01*
X1067978Y484519D01*
X1069296Y481337D01*
X1071393Y478605D01*
X1074125Y476508D01*
X1077307Y475190D01*
X1080722Y474740D01*
X1084137Y475190D01*
X1087319Y476508D01*
X1090051Y478605D01*
X1092148Y481337D01*
X1093466Y484519D01*
X1093916Y487934D01*
X1093466Y491349D01*
X1092148Y494531D01*
X1090051Y497263D01*
X1087319Y499360D01*
X1084137Y500678D01*
X1080722Y501128D01*
D02*
G37*
G36*
X840994D02*
X837579Y500678D01*
X834397Y499360D01*
X831665Y497263D01*
X829568Y494531D01*
X828250Y491349D01*
X827800Y487934D01*
X828250Y484519D01*
X829568Y481337D01*
X831665Y478605D01*
X834397Y476508D01*
X837579Y475190D01*
X840994Y474740D01*
X844409Y475190D01*
X847591Y476508D01*
X850323Y478605D01*
X852420Y481337D01*
X853738Y484519D01*
X854188Y487934D01*
X853738Y491349D01*
X852420Y494531D01*
X850323Y497263D01*
X847591Y499360D01*
X844409Y500678D01*
X840994Y501128D01*
D02*
G37*
G36*
X306748Y478108D02*
X305162Y477792D01*
X303818Y476894D01*
X302920Y475550D01*
X302604Y473964D01*
X302920Y472378D01*
X303818Y471034D01*
X305162Y470136D01*
X306748Y469820D01*
X308334Y470136D01*
X309678Y471034D01*
X310576Y472378D01*
X310892Y473964D01*
X310576Y475550D01*
X309678Y476894D01*
X308334Y477792D01*
X306748Y478108D01*
D02*
G37*
G36*
X187198Y477854D02*
X185612Y477538D01*
X184268Y476640D01*
X183370Y475296D01*
X183054Y473710D01*
X183370Y472124D01*
X184268Y470780D01*
X185612Y469882D01*
X187198Y469566D01*
X188784Y469882D01*
X190128Y470780D01*
X191026Y472124D01*
X191342Y473710D01*
X191026Y475296D01*
X190128Y476640D01*
X188784Y477538D01*
X187198Y477854D01*
D02*
G37*
G36*
X426214Y476636D02*
X424628Y476320D01*
X423284Y475422D01*
X422386Y474078D01*
X422070Y472492D01*
X422386Y470906D01*
X423284Y469562D01*
X424628Y468664D01*
X426214Y468348D01*
X427800Y468664D01*
X429144Y469562D01*
X430042Y470906D01*
X430358Y472492D01*
X430042Y474078D01*
X429144Y475422D01*
X427800Y476320D01*
X426214Y476636D01*
D02*
G37*
G36*
X973248Y476578D02*
X971662Y476262D01*
X970318Y475364D01*
X969420Y474020D01*
X969104Y472434D01*
X969420Y470848D01*
X970318Y469504D01*
X971662Y468606D01*
X973248Y468290D01*
X974834Y468606D01*
X976178Y469504D01*
X977076Y470848D01*
X977392Y472434D01*
X977076Y474020D01*
X976178Y475364D01*
X974834Y476262D01*
X973248Y476578D01*
D02*
G37*
G36*
X854202D02*
X852616Y476262D01*
X851272Y475364D01*
X850374Y474020D01*
X850058Y472434D01*
X850374Y470848D01*
X851272Y469504D01*
X852616Y468606D01*
X854202Y468290D01*
X855788Y468606D01*
X857132Y469504D01*
X858030Y470848D01*
X858346Y472434D01*
X858030Y474020D01*
X857132Y475364D01*
X855788Y476262D01*
X854202Y476578D01*
D02*
G37*
G36*
X1093712Y475822D02*
X1092126Y475506D01*
X1090782Y474608D01*
X1089884Y473264D01*
X1089568Y471678D01*
X1089884Y470092D01*
X1090782Y468748D01*
X1092126Y467850D01*
X1093712Y467534D01*
X1095298Y467850D01*
X1096642Y468748D01*
X1097540Y470092D01*
X1097856Y471678D01*
X1097540Y473264D01*
X1096642Y474608D01*
X1095298Y475506D01*
X1093712Y475822D01*
D02*
G37*
G36*
X282064Y510348D02*
X237064D01*
X236073Y510151D01*
X235233Y509589D01*
X234671Y508749D01*
X234474Y507758D01*
Y467758D01*
X234671Y466767D01*
X235233Y465927D01*
X236073Y465365D01*
X237064Y465168D01*
X282064D01*
X283055Y465365D01*
X283895Y465927D01*
X284457Y466767D01*
X284654Y467758D01*
Y507758D01*
X284457Y508749D01*
X283895Y509589D01*
X283055Y510151D01*
X282064Y510348D01*
D02*
G37*
G36*
X802035Y509823D02*
X757035D01*
X756044Y509625D01*
X755204Y509064D01*
X754642Y508224D01*
X754445Y507233D01*
Y467233D01*
X754642Y466242D01*
X755204Y465401D01*
X756044Y464840D01*
X757035Y464643D01*
X802035D01*
X803026Y464840D01*
X803866Y465401D01*
X804428Y466242D01*
X804625Y467233D01*
Y507233D01*
X804428Y508224D01*
X803866Y509064D01*
X803026Y509625D01*
X802035Y509823D01*
D02*
G37*
G36*
X1162996Y509768D02*
X1117996D01*
X1117005Y509571D01*
X1116165Y509009D01*
X1115603Y508169D01*
X1115406Y507178D01*
Y467178D01*
X1115603Y466187D01*
X1116165Y465347D01*
X1117005Y464785D01*
X1117996Y464588D01*
X1162996D01*
X1163987Y464785D01*
X1164827Y465347D01*
X1165389Y466187D01*
X1165586Y467178D01*
Y507178D01*
X1165389Y508169D01*
X1164827Y509009D01*
X1163987Y509571D01*
X1162996Y509768D01*
D02*
G37*
G36*
X161174Y509530D02*
X116174D01*
X115183Y509333D01*
X114343Y508771D01*
X113781Y507931D01*
X113584Y506940D01*
Y466940D01*
X113781Y465949D01*
X114343Y465109D01*
X115183Y464547D01*
X116174Y464350D01*
X161174D01*
X162165Y464547D01*
X163005Y465109D01*
X163567Y465949D01*
X163764Y466940D01*
Y506940D01*
X163567Y507931D01*
X163005Y508771D01*
X162165Y509333D01*
X161174Y509530D01*
D02*
G37*
G36*
X1042794Y509508D02*
X997794D01*
X996803Y509311D01*
X995963Y508749D01*
X995401Y507909D01*
X995204Y506918D01*
Y466918D01*
X995401Y465927D01*
X995963Y465087D01*
X996803Y464525D01*
X997794Y464328D01*
X1042794D01*
X1043785Y464525D01*
X1044625Y465087D01*
X1045187Y465927D01*
X1045384Y466918D01*
Y506918D01*
X1045187Y507909D01*
X1044625Y508749D01*
X1043785Y509311D01*
X1042794Y509508D01*
D02*
G37*
G36*
X922466Y509342D02*
X877466D01*
X876475Y509145D01*
X875635Y508583D01*
X875073Y507743D01*
X874876Y506752D01*
Y466752D01*
X875073Y465761D01*
X875635Y464921D01*
X876475Y464359D01*
X877466Y464162D01*
X922466D01*
X923457Y464359D01*
X924297Y464921D01*
X924859Y465761D01*
X925056Y466752D01*
Y506752D01*
X924859Y507743D01*
X924297Y508583D01*
X923457Y509145D01*
X922466Y509342D01*
D02*
G37*
G36*
X403416Y509254D02*
X358416D01*
X357425Y509057D01*
X356585Y508495D01*
X356023Y507655D01*
X355826Y506664D01*
Y466664D01*
X356023Y465673D01*
X356585Y464833D01*
X357425Y464271D01*
X358416Y464074D01*
X403416D01*
X404407Y464271D01*
X405247Y464833D01*
X405809Y465673D01*
X406006Y466664D01*
Y506664D01*
X405809Y507655D01*
X405247Y508495D01*
X404407Y509057D01*
X403416Y509254D01*
D02*
G37*
G36*
X523050Y509048D02*
X478050D01*
X477059Y508851D01*
X476219Y508289D01*
X475657Y507449D01*
X475460Y506458D01*
Y466458D01*
X475657Y465467D01*
X476219Y464627D01*
X477059Y464065D01*
X478050Y463868D01*
X523050D01*
X524041Y464065D01*
X524881Y464627D01*
X525443Y465467D01*
X525640Y466458D01*
Y506458D01*
X525443Y507449D01*
X524881Y508289D01*
X524041Y508851D01*
X523050Y509048D01*
D02*
G37*
G36*
X272542Y462868D02*
X270956Y462552D01*
X269612Y461654D01*
X268714Y460310D01*
X268398Y458724D01*
X268714Y457138D01*
X269612Y455794D01*
X270956Y454896D01*
X272542Y454580D01*
X274128Y454896D01*
X275472Y455794D01*
X276370Y457138D01*
X276686Y458724D01*
X276370Y460310D01*
X275472Y461654D01*
X274128Y462552D01*
X272542Y462868D01*
D02*
G37*
G36*
X1151690Y461864D02*
X1150104Y461548D01*
X1148760Y460650D01*
X1147862Y459306D01*
X1147546Y457720D01*
X1147862Y456134D01*
X1148760Y454790D01*
X1150104Y453892D01*
X1151690Y453576D01*
X1153276Y453892D01*
X1154620Y454790D01*
X1155518Y456134D01*
X1155834Y457720D01*
X1155518Y459306D01*
X1154620Y460650D01*
X1153276Y461548D01*
X1151690Y461864D01*
D02*
G37*
G36*
X1031488Y461604D02*
X1029902Y461288D01*
X1028558Y460390D01*
X1027660Y459046D01*
X1027344Y457460D01*
X1027660Y455874D01*
X1028558Y454530D01*
X1029902Y453632D01*
X1031488Y453316D01*
X1033074Y453632D01*
X1034418Y454530D01*
X1035316Y455874D01*
X1035632Y457460D01*
X1035316Y459046D01*
X1034418Y460390D01*
X1033074Y461288D01*
X1031488Y461604D01*
D02*
G37*
G36*
X792014Y461356D02*
X790428Y461040D01*
X789084Y460142D01*
X788186Y458798D01*
X787870Y457212D01*
X788186Y455626D01*
X789084Y454282D01*
X790428Y453384D01*
X792014Y453068D01*
X793600Y453384D01*
X794944Y454282D01*
X795842Y455626D01*
X796158Y457212D01*
X795842Y458798D01*
X794944Y460142D01*
X793600Y461040D01*
X792014Y461356D01*
D02*
G37*
G36*
X395158Y461350D02*
X393572Y461034D01*
X392228Y460136D01*
X391330Y458792D01*
X391014Y457206D01*
X391330Y455620D01*
X392228Y454276D01*
X393572Y453378D01*
X395158Y453062D01*
X396744Y453378D01*
X398088Y454276D01*
X398986Y455620D01*
X399302Y457206D01*
X398986Y458792D01*
X398088Y460136D01*
X396744Y461034D01*
X395158Y461350D01*
D02*
G37*
G36*
X152648D02*
X151062Y461034D01*
X149718Y460136D01*
X148820Y458792D01*
X148504Y457206D01*
X148820Y455620D01*
X149718Y454276D01*
X151062Y453378D01*
X152648Y453062D01*
X154234Y453378D01*
X155578Y454276D01*
X156476Y455620D01*
X156792Y457206D01*
X156476Y458792D01*
X155578Y460136D01*
X154234Y461034D01*
X152648Y461350D01*
D02*
G37*
G36*
X511744Y461144D02*
X510158Y460828D01*
X508814Y459930D01*
X507916Y458586D01*
X507600Y457000D01*
X507916Y455414D01*
X508814Y454070D01*
X510158Y453172D01*
X511744Y452856D01*
X513330Y453172D01*
X514674Y454070D01*
X515572Y455414D01*
X515888Y457000D01*
X515572Y458586D01*
X514674Y459930D01*
X513330Y460828D01*
X511744Y461144D01*
D02*
G37*
G36*
X912864Y459832D02*
X911278Y459516D01*
X909934Y458618D01*
X909036Y457274D01*
X908720Y455688D01*
X909036Y454102D01*
X909934Y452758D01*
X911278Y451860D01*
X912864Y451544D01*
X914450Y451860D01*
X915794Y452758D01*
X916692Y454102D01*
X917008Y455688D01*
X916692Y457274D01*
X915794Y458618D01*
X914450Y459516D01*
X912864Y459832D01*
D02*
G37*
G36*
X1220000Y503867D02*
X1215093Y503480D01*
X1210307Y502332D01*
X1205760Y500448D01*
X1201563Y497876D01*
X1197820Y494680D01*
X1194624Y490937D01*
X1192052Y486740D01*
X1190169Y482193D01*
X1189019Y477407D01*
X1188633Y472500D01*
X1189019Y467593D01*
X1190169Y462807D01*
X1192052Y458260D01*
X1194624Y454063D01*
X1197820Y450320D01*
X1201563Y447124D01*
X1205760Y444552D01*
X1210307Y442668D01*
X1215093Y441520D01*
X1220000Y441133D01*
X1224907Y441520D01*
X1229693Y442668D01*
X1234240Y444552D01*
X1238437Y447124D01*
X1242180Y450320D01*
X1245376Y454063D01*
X1247948Y458260D01*
X1249831Y462807D01*
X1250981Y467593D01*
X1251367Y472500D01*
X1250981Y477407D01*
X1249831Y482193D01*
X1247948Y486740D01*
X1245376Y490937D01*
X1242180Y494680D01*
X1238437Y497876D01*
X1234240Y500448D01*
X1229693Y502332D01*
X1224907Y503480D01*
X1220000Y503867D01*
D02*
G37*
G36*
X700000D02*
X695093Y503480D01*
X690307Y502332D01*
X685760Y500448D01*
X681563Y497876D01*
X677820Y494680D01*
X674624Y490937D01*
X672052Y486740D01*
X670169Y482193D01*
X669019Y477407D01*
X668633Y472500D01*
X669019Y467593D01*
X670169Y462807D01*
X672052Y458260D01*
X674624Y454063D01*
X677820Y450320D01*
X681563Y447124D01*
X685760Y444552D01*
X690307Y442668D01*
X695093Y441520D01*
X700000Y441133D01*
X704907Y441520D01*
X709693Y442668D01*
X714240Y444552D01*
X718437Y447124D01*
X722180Y450320D01*
X725376Y454063D01*
X727948Y458260D01*
X729831Y462807D01*
X730981Y467593D01*
X731367Y472500D01*
X730981Y477407D01*
X729831Y482193D01*
X727948Y486740D01*
X725376Y490937D01*
X722180Y494680D01*
X718437Y497876D01*
X714240Y500448D01*
X709693Y502332D01*
X704907Y503480D01*
X700000Y503867D01*
D02*
G37*
G36*
X580000D02*
X575093Y503480D01*
X570307Y502332D01*
X565760Y500448D01*
X561563Y497876D01*
X557820Y494680D01*
X554624Y490937D01*
X552052Y486740D01*
X550168Y482193D01*
X549020Y477407D01*
X548633Y472500D01*
X549020Y467593D01*
X550168Y462807D01*
X552052Y458260D01*
X554624Y454063D01*
X557820Y450320D01*
X561563Y447124D01*
X565760Y444552D01*
X570307Y442668D01*
X575093Y441520D01*
X580000Y441133D01*
X584907Y441520D01*
X589693Y442668D01*
X594240Y444552D01*
X598437Y447124D01*
X602180Y450320D01*
X605376Y454063D01*
X607948Y458260D01*
X609832Y462807D01*
X610980Y467593D01*
X611367Y472500D01*
X610980Y477407D01*
X609832Y482193D01*
X607948Y486740D01*
X605376Y490937D01*
X602180Y494680D01*
X598437Y497876D01*
X594240Y500448D01*
X589693Y502332D01*
X584907Y503480D01*
X580000Y503867D01*
D02*
G37*
G36*
X60000D02*
X55093Y503480D01*
X50307Y502332D01*
X45760Y500448D01*
X41563Y497876D01*
X37820Y494680D01*
X34624Y490937D01*
X32052Y486740D01*
X30168Y482193D01*
X29019Y477407D01*
X28633Y472500D01*
X29019Y467593D01*
X30168Y462807D01*
X32052Y458260D01*
X34624Y454063D01*
X37820Y450320D01*
X41563Y447124D01*
X45760Y444552D01*
X50307Y442668D01*
X55093Y441520D01*
X60000Y441133D01*
X64907Y441520D01*
X69693Y442668D01*
X74240Y444552D01*
X78437Y447124D01*
X82180Y450320D01*
X85376Y454063D01*
X87948Y458260D01*
X89831Y462807D01*
X90981Y467593D01*
X91367Y472500D01*
X90981Y477407D01*
X89831Y482193D01*
X87948Y486740D01*
X85376Y490937D01*
X82180Y494680D01*
X78437Y497876D01*
X74240Y500448D01*
X69693Y502332D01*
X64907Y503480D01*
X60000Y503867D01*
D02*
G37*
G36*
X1170250Y452837D02*
X1168222Y452570D01*
X1166331Y451787D01*
X1164708Y450542D01*
X1163463Y448918D01*
X1162680Y447028D01*
X1162413Y445000D01*
X1162680Y442972D01*
X1163463Y441082D01*
X1164708Y439458D01*
X1166331Y438213D01*
X1168222Y437430D01*
X1170250Y437163D01*
X1172278Y437430D01*
X1174168Y438213D01*
X1175792Y439458D01*
X1177037Y441082D01*
X1177820Y442972D01*
X1178087Y445000D01*
X1177820Y447028D01*
X1177037Y448918D01*
X1175792Y450542D01*
X1174168Y451787D01*
X1172278Y452570D01*
X1170250Y452837D01*
D02*
G37*
G36*
X750250D02*
X748222Y452570D01*
X746331Y451787D01*
X744708Y450542D01*
X743463Y448918D01*
X742680Y447028D01*
X742413Y445000D01*
X742680Y442972D01*
X743463Y441082D01*
X744708Y439458D01*
X746331Y438213D01*
X748222Y437430D01*
X750250Y437163D01*
X752278Y437430D01*
X754168Y438213D01*
X755792Y439458D01*
X757037Y441082D01*
X757820Y442972D01*
X758087Y445000D01*
X757820Y447028D01*
X757037Y448918D01*
X755792Y450542D01*
X754168Y451787D01*
X752278Y452570D01*
X750250Y452837D01*
D02*
G37*
G36*
X530500D02*
X528472Y452570D01*
X526581Y451787D01*
X524958Y450542D01*
X523713Y448918D01*
X522930Y447028D01*
X522663Y445000D01*
X522930Y442972D01*
X523713Y441082D01*
X524958Y439458D01*
X526581Y438213D01*
X528472Y437430D01*
X530500Y437163D01*
X532528Y437430D01*
X534418Y438213D01*
X536042Y439458D01*
X537287Y441082D01*
X538070Y442972D01*
X538337Y445000D01*
X538070Y447028D01*
X537287Y448918D01*
X536042Y450542D01*
X534418Y451787D01*
X532528Y452570D01*
X530500Y452837D01*
D02*
G37*
G36*
X110500D02*
X108472Y452570D01*
X106581Y451787D01*
X104958Y450542D01*
X103713Y448918D01*
X102930Y447028D01*
X102663Y445000D01*
X102930Y442972D01*
X103713Y441082D01*
X104958Y439458D01*
X106581Y438213D01*
X108472Y437430D01*
X110500Y437163D01*
X112528Y437430D01*
X114418Y438213D01*
X116042Y439458D01*
X117287Y441082D01*
X118070Y442972D01*
X118337Y445000D01*
X118070Y447028D01*
X117287Y448918D01*
X116042Y450542D01*
X114418Y451787D01*
X112528Y452570D01*
X110500Y452837D01*
D02*
G37*
G36*
X258826Y455994D02*
X255411Y455544D01*
X252229Y454226D01*
X249496Y452130D01*
X247400Y449397D01*
X246082Y446215D01*
X245632Y442800D01*
X246082Y439385D01*
X247400Y436203D01*
X249496Y433471D01*
X252229Y431374D01*
X255411Y430056D01*
X258826Y429606D01*
X262241Y430056D01*
X265423Y431374D01*
X268155Y433471D01*
X270252Y436203D01*
X271570Y439385D01*
X272020Y442800D01*
X271570Y446215D01*
X270252Y449397D01*
X268155Y452130D01*
X265423Y454226D01*
X262241Y455544D01*
X258826Y455994D01*
D02*
G37*
G36*
X1139758Y455414D02*
X1136343Y454964D01*
X1133161Y453646D01*
X1130428Y451549D01*
X1128332Y448817D01*
X1127014Y445635D01*
X1126564Y442220D01*
X1127014Y438805D01*
X1128332Y435623D01*
X1130428Y432891D01*
X1133161Y430794D01*
X1136343Y429476D01*
X1139758Y429026D01*
X1143173Y429476D01*
X1146355Y430794D01*
X1149088Y432891D01*
X1151184Y435623D01*
X1152502Y438805D01*
X1152952Y442220D01*
X1152502Y445635D01*
X1151184Y448817D01*
X1149088Y451549D01*
X1146355Y453646D01*
X1143173Y454964D01*
X1139758Y455414D01*
D02*
G37*
G36*
X1019556Y455154D02*
X1016141Y454704D01*
X1012959Y453386D01*
X1010227Y451289D01*
X1008130Y448557D01*
X1006812Y445375D01*
X1006362Y441960D01*
X1006812Y438545D01*
X1008130Y435363D01*
X1010227Y432631D01*
X1012959Y430534D01*
X1016141Y429216D01*
X1019556Y428766D01*
X1022971Y429216D01*
X1026153Y430534D01*
X1028885Y432631D01*
X1030982Y435363D01*
X1032300Y438545D01*
X1032750Y441960D01*
X1032300Y445375D01*
X1030982Y448557D01*
X1028885Y451289D01*
X1026153Y453386D01*
X1022971Y454704D01*
X1019556Y455154D01*
D02*
G37*
G36*
X780348Y454906D02*
X776933Y454456D01*
X773751Y453138D01*
X771019Y451041D01*
X768922Y448309D01*
X767604Y445127D01*
X767154Y441712D01*
X767604Y438297D01*
X768922Y435115D01*
X771019Y432383D01*
X773751Y430286D01*
X776933Y428968D01*
X780348Y428518D01*
X783763Y428968D01*
X786945Y430286D01*
X789678Y432383D01*
X791774Y435115D01*
X793092Y438297D01*
X793542Y441712D01*
X793092Y445127D01*
X791774Y448309D01*
X789678Y451041D01*
X786945Y453138D01*
X783763Y454456D01*
X780348Y454906D01*
D02*
G37*
G36*
X380178Y454900D02*
X376763Y454450D01*
X373581Y453132D01*
X370849Y451035D01*
X368752Y448303D01*
X367434Y445121D01*
X366984Y441706D01*
X367434Y438291D01*
X368752Y435109D01*
X370849Y432377D01*
X373581Y430280D01*
X376763Y428962D01*
X380178Y428512D01*
X383593Y428962D01*
X386775Y430280D01*
X389507Y432377D01*
X391604Y435109D01*
X392922Y438291D01*
X393372Y441706D01*
X392922Y445121D01*
X391604Y448303D01*
X389507Y451035D01*
X386775Y453132D01*
X383593Y454450D01*
X380178Y454900D01*
D02*
G37*
G36*
X139700D02*
X136285Y454450D01*
X133103Y453132D01*
X130371Y451035D01*
X128274Y448303D01*
X126956Y445121D01*
X126506Y441706D01*
X126956Y438291D01*
X128274Y435109D01*
X130371Y432377D01*
X133103Y430280D01*
X136285Y428962D01*
X139700Y428512D01*
X143115Y428962D01*
X146297Y430280D01*
X149030Y432377D01*
X151126Y435109D01*
X152444Y438291D01*
X152894Y441706D01*
X152444Y445121D01*
X151126Y448303D01*
X149030Y451035D01*
X146297Y453132D01*
X143115Y454450D01*
X139700Y454900D01*
D02*
G37*
G36*
X499812Y454694D02*
X496397Y454244D01*
X493215Y452926D01*
X490482Y450830D01*
X488386Y448097D01*
X487068Y444915D01*
X486618Y441500D01*
X487068Y438085D01*
X488386Y434903D01*
X490482Y432170D01*
X493215Y430074D01*
X496397Y428756D01*
X499812Y428306D01*
X503227Y428756D01*
X506409Y430074D01*
X509142Y432170D01*
X511238Y434903D01*
X512556Y438085D01*
X513006Y441500D01*
X512556Y444915D01*
X511238Y448097D01*
X509142Y450830D01*
X506409Y452926D01*
X503227Y454244D01*
X499812Y454694D01*
D02*
G37*
G36*
X901252Y453382D02*
X897837Y452932D01*
X894655Y451614D01*
X891923Y449518D01*
X889826Y446785D01*
X888508Y443603D01*
X888058Y440188D01*
X888508Y436773D01*
X889826Y433591D01*
X891923Y430858D01*
X894655Y428762D01*
X897837Y427444D01*
X901252Y426994D01*
X904667Y427444D01*
X907849Y428762D01*
X910582Y430858D01*
X912678Y433591D01*
X913996Y436773D01*
X914446Y440188D01*
X913996Y443603D01*
X912678Y446785D01*
X910582Y449518D01*
X907849Y451614D01*
X904667Y452932D01*
X901252Y453382D01*
D02*
G37*
G36*
X286814Y430864D02*
X285228Y430548D01*
X283884Y429650D01*
X282986Y428306D01*
X282670Y426720D01*
X282986Y425134D01*
X283884Y423790D01*
X285228Y422892D01*
X286814Y422576D01*
X288400Y422892D01*
X289744Y423790D01*
X290642Y425134D01*
X290958Y426720D01*
X290642Y428306D01*
X289744Y429650D01*
X288400Y430548D01*
X286814Y430864D01*
D02*
G37*
G36*
X926870Y430586D02*
X925284Y430270D01*
X923940Y429372D01*
X923042Y428028D01*
X922726Y426442D01*
X923042Y424856D01*
X923940Y423512D01*
X925284Y422614D01*
X926870Y422298D01*
X928456Y422614D01*
X929800Y423512D01*
X930698Y424856D01*
X931014Y426442D01*
X930698Y428028D01*
X929800Y429372D01*
X928456Y430270D01*
X926870Y430586D01*
D02*
G37*
G36*
X1046734Y430356D02*
X1045148Y430040D01*
X1043804Y429142D01*
X1042906Y427798D01*
X1042590Y426212D01*
X1042906Y424626D01*
X1043804Y423282D01*
X1045148Y422384D01*
X1046734Y422068D01*
X1048320Y422384D01*
X1049664Y423282D01*
X1050562Y424626D01*
X1050878Y426212D01*
X1050562Y427798D01*
X1049664Y429142D01*
X1048320Y430040D01*
X1046734Y430356D01*
D02*
G37*
G36*
X807006D02*
X805420Y430040D01*
X804076Y429142D01*
X803178Y427798D01*
X802862Y426212D01*
X803178Y424626D01*
X804076Y423282D01*
X805420Y422384D01*
X807006Y422068D01*
X808592Y422384D01*
X809936Y423282D01*
X810834Y424626D01*
X811150Y426212D01*
X810834Y427798D01*
X809936Y429142D01*
X808592Y430040D01*
X807006Y430356D01*
D02*
G37*
G36*
X166410Y430098D02*
X164824Y429782D01*
X163480Y428884D01*
X162582Y427540D01*
X162266Y425954D01*
X162582Y424368D01*
X163480Y423024D01*
X164824Y422126D01*
X166410Y421810D01*
X167996Y422126D01*
X169340Y423024D01*
X170238Y424368D01*
X170554Y425954D01*
X170238Y427540D01*
X169340Y428884D01*
X167996Y429782D01*
X166410Y430098D01*
D02*
G37*
G36*
X407718Y429900D02*
X406132Y429584D01*
X404788Y428686D01*
X403890Y427342D01*
X403574Y425756D01*
X403890Y424170D01*
X404788Y422826D01*
X406132Y421928D01*
X407718Y421612D01*
X409304Y421928D01*
X410648Y422826D01*
X411546Y424170D01*
X411862Y425756D01*
X411546Y427342D01*
X410648Y428686D01*
X409304Y429584D01*
X407718Y429900D01*
D02*
G37*
G36*
X342564Y466328D02*
X297564D01*
X296573Y466131D01*
X295733Y465569D01*
X295171Y464729D01*
X294974Y463738D01*
Y423738D01*
X295171Y422747D01*
X295733Y421907D01*
X296573Y421345D01*
X297564Y421148D01*
X342564D01*
X343555Y421345D01*
X344395Y421907D01*
X344957Y422747D01*
X345154Y423738D01*
Y463738D01*
X344957Y464729D01*
X344395Y465569D01*
X343555Y466131D01*
X342564Y466328D01*
D02*
G37*
G36*
X982620Y465998D02*
X937620D01*
X936629Y465801D01*
X935789Y465239D01*
X935227Y464399D01*
X935030Y463408D01*
Y423408D01*
X935227Y422417D01*
X935789Y421577D01*
X936629Y421015D01*
X937620Y420818D01*
X982620D01*
X983611Y421015D01*
X984451Y421577D01*
X985013Y422417D01*
X985210Y423408D01*
Y463408D01*
X985013Y464399D01*
X984451Y465239D01*
X983611Y465801D01*
X982620Y465998D01*
D02*
G37*
G36*
X222160Y465992D02*
X177160D01*
X176169Y465795D01*
X175329Y465233D01*
X174767Y464393D01*
X174570Y463402D01*
Y423402D01*
X174767Y422411D01*
X175329Y421571D01*
X176169Y421009D01*
X177160Y420812D01*
X222160D01*
X223151Y421009D01*
X223991Y421571D01*
X224553Y422411D01*
X224750Y423402D01*
Y463402D01*
X224553Y464393D01*
X223991Y465233D01*
X223151Y465795D01*
X222160Y465992D01*
D02*
G37*
G36*
X1102484Y465566D02*
X1057484D01*
X1056493Y465369D01*
X1055653Y464807D01*
X1055091Y463967D01*
X1054894Y462976D01*
Y422976D01*
X1055091Y421985D01*
X1055653Y421145D01*
X1056493Y420583D01*
X1057484Y420386D01*
X1102484D01*
X1103475Y420583D01*
X1104315Y421145D01*
X1104877Y421985D01*
X1105074Y422976D01*
Y462976D01*
X1104877Y463967D01*
X1104315Y464807D01*
X1103475Y465369D01*
X1102484Y465566D01*
D02*
G37*
G36*
X862756D02*
X817756D01*
X816765Y465369D01*
X815925Y464807D01*
X815363Y463967D01*
X815166Y462976D01*
Y422976D01*
X815363Y421985D01*
X815925Y421145D01*
X816765Y420583D01*
X817756Y420386D01*
X862756D01*
X863747Y420583D01*
X864587Y421145D01*
X865149Y421985D01*
X865346Y422976D01*
Y462976D01*
X865149Y463967D01*
X864587Y464807D01*
X863747Y465369D01*
X862756Y465566D01*
D02*
G37*
G36*
X463468Y465312D02*
X418468D01*
X417477Y465115D01*
X416637Y464553D01*
X416075Y463713D01*
X415878Y462722D01*
Y422722D01*
X416075Y421731D01*
X416637Y420891D01*
X417477Y420329D01*
X418468Y420132D01*
X463468D01*
X464459Y420329D01*
X465299Y420891D01*
X465861Y421731D01*
X466058Y422722D01*
Y462722D01*
X465861Y463713D01*
X465299Y464553D01*
X464459Y465115D01*
X463468Y465312D01*
D02*
G37*
G36*
X1132900Y427060D02*
X1131314Y426744D01*
X1129970Y425846D01*
X1129072Y424502D01*
X1128756Y422916D01*
X1129072Y421330D01*
X1129970Y419986D01*
X1131314Y419088D01*
X1132900Y418772D01*
X1134486Y419088D01*
X1135830Y419986D01*
X1136728Y421330D01*
X1137044Y422916D01*
X1136728Y424502D01*
X1135830Y425846D01*
X1134486Y426744D01*
X1132900Y427060D01*
D02*
G37*
G36*
X252984Y427054D02*
X251398Y426738D01*
X250054Y425840D01*
X249156Y424496D01*
X248840Y422910D01*
X249156Y421324D01*
X250054Y419980D01*
X251398Y419082D01*
X252984Y418766D01*
X254570Y419082D01*
X255914Y419980D01*
X256812Y421324D01*
X257128Y422910D01*
X256812Y424496D01*
X255914Y425840D01*
X254570Y426738D01*
X252984Y427054D01*
D02*
G37*
G36*
X131826Y426546D02*
X130240Y426230D01*
X128896Y425332D01*
X127998Y423988D01*
X127682Y422402D01*
X127998Y420816D01*
X128896Y419472D01*
X130240Y418574D01*
X131826Y418258D01*
X133412Y418574D01*
X134756Y419472D01*
X135654Y420816D01*
X135970Y422402D01*
X135654Y423988D01*
X134756Y425332D01*
X133412Y426230D01*
X131826Y426546D01*
D02*
G37*
G36*
X492954Y426340D02*
X491368Y426024D01*
X490024Y425126D01*
X489126Y423782D01*
X488810Y422196D01*
X489126Y420610D01*
X490024Y419266D01*
X491368Y418368D01*
X492954Y418052D01*
X494540Y418368D01*
X495884Y419266D01*
X496782Y420610D01*
X497098Y422196D01*
X496782Y423782D01*
X495884Y425126D01*
X494540Y426024D01*
X492954Y426340D01*
D02*
G37*
G36*
X371542Y422990D02*
X369956Y422674D01*
X368612Y421776D01*
X367714Y420432D01*
X367398Y418846D01*
X367714Y417260D01*
X368612Y415916D01*
X369956Y415018D01*
X371542Y414702D01*
X373128Y415018D01*
X374472Y415916D01*
X375370Y417260D01*
X375686Y418846D01*
X375370Y420432D01*
X374472Y421776D01*
X373128Y422674D01*
X371542Y422990D01*
D02*
G37*
G36*
X675025Y422391D02*
X673439Y422075D01*
X672095Y421177D01*
X671197Y419833D01*
X670882Y418247D01*
X671197Y416661D01*
X672095Y415317D01*
X673439Y414419D01*
X675025Y414103D01*
X676611Y414419D01*
X677955Y415317D01*
X678853Y416661D01*
X679169Y418247D01*
X678853Y419833D01*
X677955Y421177D01*
X676611Y422075D01*
X675025Y422391D01*
D02*
G37*
G36*
X1020826Y419942D02*
X1019240Y419626D01*
X1017896Y418728D01*
X1016998Y417384D01*
X1016682Y415798D01*
X1016998Y414212D01*
X1017896Y412868D01*
X1019240Y411970D01*
X1020826Y411654D01*
X1022412Y411970D01*
X1023756Y412868D01*
X1024654Y414212D01*
X1024970Y415798D01*
X1024654Y417384D01*
X1023756Y418728D01*
X1022412Y419626D01*
X1020826Y419942D01*
D02*
G37*
G36*
X906780Y419688D02*
X905194Y419372D01*
X903850Y418474D01*
X902952Y417130D01*
X902636Y415544D01*
X902952Y413958D01*
X903850Y412614D01*
X905194Y411716D01*
X906780Y411400D01*
X908366Y411716D01*
X909710Y412614D01*
X910608Y413958D01*
X910924Y415544D01*
X910608Y417130D01*
X909710Y418474D01*
X908366Y419372D01*
X906780Y419688D01*
D02*
G37*
G36*
X789686D02*
X788100Y419372D01*
X786756Y418474D01*
X785858Y417130D01*
X785542Y415544D01*
X785858Y413958D01*
X786756Y412614D01*
X788100Y411716D01*
X789686Y411400D01*
X791272Y411716D01*
X792616Y412614D01*
X793514Y413958D01*
X793830Y415544D01*
X793514Y417130D01*
X792616Y418474D01*
X791272Y419372D01*
X789686Y419688D01*
D02*
G37*
G36*
X20126Y415938D02*
X18540Y415622D01*
X17196Y414724D01*
X16298Y413380D01*
X15982Y411794D01*
X16298Y410208D01*
X17196Y408864D01*
X18540Y407966D01*
X20126Y407650D01*
X21712Y407966D01*
X23056Y408864D01*
X23954Y410208D01*
X24270Y411794D01*
X23954Y413380D01*
X23056Y414724D01*
X21712Y415622D01*
X20126Y415938D01*
D02*
G37*
G36*
X1238538Y435518D02*
X1235545Y435223D01*
X1232666Y434350D01*
X1230013Y432932D01*
X1227688Y431024D01*
X1225780Y428699D01*
X1224362Y426046D01*
X1223489Y423167D01*
X1223194Y420174D01*
X1223489Y417180D01*
X1224362Y414302D01*
X1225780Y411649D01*
X1227688Y409324D01*
X1230013Y407416D01*
X1232666Y405998D01*
X1235545Y405125D01*
X1238538Y404830D01*
X1241532Y405125D01*
X1244410Y405998D01*
X1247063Y407416D01*
X1249388Y409324D01*
X1251296Y411649D01*
X1252714Y414302D01*
X1253587Y417180D01*
X1253882Y420174D01*
X1253587Y423167D01*
X1252714Y426046D01*
X1251296Y428699D01*
X1249388Y431024D01*
X1247063Y432932D01*
X1244410Y434350D01*
X1241532Y435223D01*
X1238538Y435518D01*
D02*
G37*
G36*
X1187738D02*
X1184745Y435223D01*
X1181866Y434350D01*
X1179213Y432932D01*
X1176888Y431024D01*
X1174980Y428699D01*
X1173562Y426046D01*
X1172689Y423167D01*
X1172394Y420174D01*
X1172689Y417180D01*
X1173562Y414302D01*
X1174980Y411649D01*
X1176888Y409324D01*
X1179213Y407416D01*
X1181866Y405998D01*
X1184745Y405125D01*
X1187738Y404830D01*
X1190732Y405125D01*
X1193610Y405998D01*
X1196263Y407416D01*
X1198588Y409324D01*
X1200496Y411649D01*
X1201914Y414302D01*
X1202787Y417180D01*
X1203082Y420174D01*
X1202787Y423167D01*
X1201914Y426046D01*
X1200496Y428699D01*
X1198588Y431024D01*
X1196263Y432932D01*
X1193610Y434350D01*
X1190732Y435223D01*
X1187738Y435518D01*
D02*
G37*
G36*
X740854Y411878D02*
X739268Y411562D01*
X737924Y410664D01*
X737026Y409320D01*
X736710Y407734D01*
X737026Y406148D01*
X737924Y404804D01*
X739268Y403906D01*
X740854Y403590D01*
X742440Y403906D01*
X743784Y404804D01*
X744682Y406148D01*
X744998Y407734D01*
X744682Y409320D01*
X743784Y410664D01*
X742440Y411562D01*
X740854Y411878D01*
D02*
G37*
G36*
X522780Y402114D02*
X521194Y401798D01*
X519850Y400900D01*
X518952Y399556D01*
X518636Y397970D01*
X518952Y396384D01*
X519850Y395040D01*
X521194Y394142D01*
X522780Y393826D01*
X524366Y394142D01*
X525710Y395040D01*
X526608Y396384D01*
X526924Y397970D01*
X526608Y399556D01*
X525710Y400900D01*
X524366Y401798D01*
X522780Y402114D01*
D02*
G37*
G36*
X1213138Y406141D02*
X1210196Y405754D01*
X1207454Y404618D01*
X1205100Y402812D01*
X1203294Y400458D01*
X1202158Y397716D01*
X1201771Y394774D01*
X1202158Y391832D01*
X1203294Y389090D01*
X1205100Y386736D01*
X1207454Y384930D01*
X1210196Y383794D01*
X1213138Y383407D01*
X1216080Y383794D01*
X1218822Y384930D01*
X1221176Y386736D01*
X1222982Y389090D01*
X1224118Y391832D01*
X1224505Y394774D01*
X1224118Y397716D01*
X1222982Y400458D01*
X1221176Y402812D01*
X1218822Y404618D01*
X1216080Y405754D01*
X1213138Y406141D01*
D02*
G37*
G36*
X730504Y399782D02*
X727089Y399332D01*
X723907Y398014D01*
X721174Y395918D01*
X719078Y393185D01*
X717760Y390003D01*
X717310Y386588D01*
X717760Y383173D01*
X719078Y379991D01*
X721174Y377258D01*
X723907Y375162D01*
X727089Y373844D01*
X730504Y373394D01*
X733919Y373844D01*
X737101Y375162D01*
X739834Y377258D01*
X741930Y379991D01*
X743248Y383173D01*
X743698Y386588D01*
X743248Y390003D01*
X741930Y393185D01*
X739834Y395918D01*
X737101Y398014D01*
X733919Y399332D01*
X730504Y399782D01*
D02*
G37*
G36*
X23876Y398766D02*
X20461Y398316D01*
X17279Y396998D01*
X14547Y394902D01*
X12450Y392169D01*
X11132Y388987D01*
X10682Y385572D01*
X11132Y382157D01*
X12450Y378975D01*
X14547Y376242D01*
X17279Y374146D01*
X20461Y372828D01*
X23876Y372378D01*
X27291Y372828D01*
X30473Y374146D01*
X33205Y376242D01*
X35302Y378975D01*
X36620Y382157D01*
X37070Y385572D01*
X36620Y388987D01*
X35302Y392169D01*
X33205Y394902D01*
X30473Y396998D01*
X27291Y398316D01*
X23876Y398766D01*
D02*
G37*
G36*
X549850Y397914D02*
X546435Y397464D01*
X543253Y396146D01*
X540521Y394049D01*
X538424Y391317D01*
X537106Y388135D01*
X536656Y384720D01*
X537106Y381305D01*
X538424Y378123D01*
X540521Y375391D01*
X543253Y373294D01*
X546435Y371976D01*
X549850Y371526D01*
X553265Y371976D01*
X556447Y373294D01*
X559179Y375391D01*
X561276Y378123D01*
X562594Y381305D01*
X563044Y384720D01*
X562594Y388135D01*
X561276Y391317D01*
X559179Y394049D01*
X556447Y396146D01*
X553265Y397464D01*
X549850Y397914D01*
D02*
G37*
G36*
X1009513Y368920D02*
X1007927Y368604D01*
X1006583Y367706D01*
X1005685Y366362D01*
X1005628Y366076D01*
X1004719Y365914D01*
X1004309Y365955D01*
X1003479Y367198D01*
X1002134Y368096D01*
X1000549Y368411D01*
X998963Y368096D01*
X997619Y367198D01*
X996721Y365854D01*
X996405Y364268D01*
X996721Y362682D01*
X997619Y361338D01*
X998963Y360440D01*
X1000549Y360124D01*
X1002134Y360440D01*
X1003479Y361338D01*
X1004377Y362682D01*
X1004434Y362968D01*
X1005343Y363130D01*
X1005753Y363088D01*
X1006493Y361981D01*
X1006445Y360710D01*
X1005547Y359366D01*
X1005231Y357780D01*
X1005547Y356194D01*
X1006445Y354850D01*
X1007789Y353952D01*
X1009375Y353636D01*
X1010960Y353952D01*
X1012305Y354850D01*
X1013203Y356194D01*
X1013519Y357780D01*
X1013203Y359366D01*
X1012395Y360575D01*
X1012443Y361846D01*
X1013341Y363190D01*
X1013656Y364776D01*
X1013341Y366362D01*
X1012443Y367706D01*
X1011098Y368604D01*
X1009513Y368920D01*
D02*
G37*
G36*
X926135Y373210D02*
X924550Y372895D01*
X923205Y371997D01*
X922307Y370652D01*
X921992Y369067D01*
X922307Y367481D01*
X923205Y366137D01*
X924550Y365238D01*
X926135Y364923D01*
X927721Y365238D01*
X929065Y366137D01*
X929964Y367481D01*
X930279Y369067D01*
X929964Y370652D01*
X929065Y371997D01*
X927721Y372895D01*
X926135Y373210D01*
D02*
G37*
G36*
X457868Y368728D02*
X456282Y368413D01*
X454938Y367514D01*
X454039Y366170D01*
X453724Y364585D01*
X454039Y362999D01*
X454938Y361655D01*
X456282Y360756D01*
X457868Y360441D01*
X459453Y360756D01*
X460798Y361655D01*
X461696Y362999D01*
X462011Y364585D01*
X461696Y366170D01*
X460798Y367514D01*
X459453Y368413D01*
X457868Y368728D01*
D02*
G37*
G36*
X550000Y426866D02*
X548414Y426550D01*
X547070Y425652D01*
X546172Y424308D01*
X545856Y422722D01*
X546172Y421136D01*
X547070Y419792D01*
X548414Y418894D01*
X550000Y418578D01*
X551404Y418858D01*
X551946Y418442D01*
X552381Y417897D01*
X552246Y417572D01*
X551979Y415544D01*
X552246Y413516D01*
X553029Y411626D01*
X554274Y410002D01*
X555897Y408757D01*
X557788Y407974D01*
X559816Y407707D01*
X561844Y407974D01*
X563735Y408757D01*
X565095Y409801D01*
X566012Y408999D01*
X566055Y408937D01*
X565862Y407967D01*
Y362967D01*
X566059Y361976D01*
X566621Y361136D01*
X567461Y360574D01*
X568452Y360377D01*
X608452D01*
X609443Y360574D01*
X610283Y361136D01*
X610845Y361976D01*
X611042Y362967D01*
Y407967D01*
X610845Y408958D01*
X610283Y409798D01*
X609443Y410360D01*
X608452Y410557D01*
X568452D01*
X567461Y410360D01*
X566992Y410047D01*
X566112Y410986D01*
X566603Y411626D01*
X567386Y413516D01*
X567653Y415544D01*
X567386Y417572D01*
X566603Y419463D01*
X565358Y421086D01*
X563735Y422331D01*
X561844Y423114D01*
X559816Y423381D01*
X557788Y423114D01*
X555897Y422331D01*
X555264Y421845D01*
X554112Y422562D01*
X554144Y422722D01*
X553828Y424308D01*
X552930Y425652D01*
X551586Y426550D01*
X550000Y426866D01*
D02*
G37*
G36*
X295729Y368236D02*
X294143Y367921D01*
X292799Y367023D01*
X291900Y365678D01*
X291585Y364093D01*
X291900Y362507D01*
X292799Y361163D01*
X294143Y360264D01*
X295729Y359949D01*
X297314Y360264D01*
X298659Y361163D01*
X299557Y362507D01*
X299872Y364093D01*
X299557Y365678D01*
X298659Y367023D01*
X297314Y367921D01*
X295729Y368236D01*
D02*
G37*
G36*
X40000Y422837D02*
X37972Y422570D01*
X36082Y421787D01*
X34458Y420542D01*
X33213Y418918D01*
X32430Y417028D01*
X32163Y415000D01*
X32430Y412972D01*
X33213Y411082D01*
X34458Y409458D01*
X36082Y408213D01*
X37972Y407430D01*
X40000Y407163D01*
X42028Y407430D01*
X42222Y407510D01*
X43444Y406642D01*
Y362394D01*
X43641Y361403D01*
X44203Y360563D01*
X45043Y360001D01*
X46034Y359804D01*
X86034D01*
X87025Y360001D01*
X87865Y360563D01*
X88427Y361403D01*
X88624Y362394D01*
Y407394D01*
X88427Y408385D01*
X87865Y409225D01*
X87025Y409787D01*
X86034Y409984D01*
X47546D01*
X47099Y410629D01*
X46859Y411254D01*
X47570Y412972D01*
X47837Y415000D01*
X47570Y417028D01*
X46787Y418918D01*
X45542Y420542D01*
X43918Y421787D01*
X42028Y422570D01*
X40000Y422837D01*
D02*
G37*
G36*
X734254Y365006D02*
X732668Y364690D01*
X731324Y363792D01*
X730426Y362448D01*
X730110Y360862D01*
X730426Y359276D01*
X731324Y357932D01*
X732668Y357034D01*
X734254Y356718D01*
X735840Y357034D01*
X737184Y357932D01*
X738082Y359276D01*
X738398Y360862D01*
X738082Y362448D01*
X737184Y363792D01*
X735840Y364690D01*
X734254Y365006D01*
D02*
G37*
G36*
X1117632Y364812D02*
X1116046Y364496D01*
X1114702Y363598D01*
X1113804Y362254D01*
X1113488Y360668D01*
X1113804Y359082D01*
X1114702Y357738D01*
X1116046Y356840D01*
X1117632Y356524D01*
X1119218Y356840D01*
X1120562Y357738D01*
X1121460Y359082D01*
X1121776Y360668D01*
X1121460Y362254D01*
X1120562Y363598D01*
X1119218Y364496D01*
X1117632Y364812D01*
D02*
G37*
G36*
X1100154Y369818D02*
X1098568Y369502D01*
X1097224Y368604D01*
X1096325Y367260D01*
X1096010Y365674D01*
X1096325Y364088D01*
X1097038Y363022D01*
X1096193Y361758D01*
X1095877Y360172D01*
X1096193Y358586D01*
X1097091Y357242D01*
X1098435Y356344D01*
X1100021Y356028D01*
X1101607Y356344D01*
X1102951Y357242D01*
X1103849Y358586D01*
X1104165Y360172D01*
X1103849Y361758D01*
X1103137Y362824D01*
X1103982Y364088D01*
X1104297Y365674D01*
X1103982Y367260D01*
X1103084Y368604D01*
X1101739Y369502D01*
X1100154Y369818D01*
D02*
G37*
G36*
X465398Y362792D02*
X463812Y362476D01*
X462468Y361578D01*
X461570Y360234D01*
X461254Y358648D01*
X461570Y357062D01*
X462468Y355718D01*
X463812Y354820D01*
X465398Y354504D01*
X466984Y354820D01*
X468328Y355718D01*
X469226Y357062D01*
X469542Y358648D01*
X469226Y360234D01*
X468328Y361578D01*
X466984Y362476D01*
X465398Y362792D01*
D02*
G37*
G36*
X553600Y362418D02*
X552014Y362102D01*
X550670Y361204D01*
X549772Y359860D01*
X549456Y358274D01*
X549772Y356688D01*
X550670Y355344D01*
X552014Y354446D01*
X553600Y354130D01*
X555186Y354446D01*
X556530Y355344D01*
X557428Y356688D01*
X557744Y358274D01*
X557428Y359860D01*
X556530Y361204D01*
X555186Y362102D01*
X553600Y362418D01*
D02*
G37*
G36*
X1238538Y384718D02*
X1235545Y384423D01*
X1232666Y383550D01*
X1230013Y382132D01*
X1227688Y380224D01*
X1225780Y377899D01*
X1224362Y375246D01*
X1223489Y372367D01*
X1223194Y369374D01*
X1223489Y366381D01*
X1224362Y363502D01*
X1225780Y360849D01*
X1227688Y358524D01*
X1230013Y356616D01*
X1232666Y355198D01*
X1235545Y354325D01*
X1238538Y354030D01*
X1241532Y354325D01*
X1244410Y355198D01*
X1247063Y356616D01*
X1249388Y358524D01*
X1251296Y360849D01*
X1252714Y363502D01*
X1253587Y366381D01*
X1253882Y369374D01*
X1253587Y372367D01*
X1252714Y375246D01*
X1251296Y377899D01*
X1249388Y380224D01*
X1247063Y382132D01*
X1244410Y383550D01*
X1241532Y384423D01*
X1238538Y384718D01*
D02*
G37*
G36*
X1187738D02*
X1184745Y384423D01*
X1181866Y383550D01*
X1179213Y382132D01*
X1176888Y380224D01*
X1174980Y377899D01*
X1173562Y375246D01*
X1172689Y372367D01*
X1172394Y369374D01*
X1172689Y366381D01*
X1173562Y363502D01*
X1174980Y360849D01*
X1176888Y358524D01*
X1179213Y356616D01*
X1181866Y355198D01*
X1184745Y354325D01*
X1187738Y354030D01*
X1190732Y354325D01*
X1193610Y355198D01*
X1196263Y356616D01*
X1198588Y358524D01*
X1200496Y360849D01*
X1201914Y363502D01*
X1202787Y366381D01*
X1203082Y369374D01*
X1202787Y372367D01*
X1201914Y375246D01*
X1200496Y377899D01*
X1198588Y380224D01*
X1196263Y382132D01*
X1193610Y383550D01*
X1190732Y384423D01*
X1187738Y384718D01*
D02*
G37*
G36*
X32512Y361522D02*
X30926Y361206D01*
X29582Y360308D01*
X28684Y358964D01*
X28368Y357378D01*
X28684Y355792D01*
X29582Y354448D01*
X30926Y353550D01*
X32512Y353234D01*
X34098Y353550D01*
X35442Y354448D01*
X36340Y355792D01*
X36656Y357378D01*
X36340Y358964D01*
X35442Y360308D01*
X34098Y361206D01*
X32512Y361522D01*
D02*
G37*
G36*
X527800Y358716D02*
X526214Y358400D01*
X524870Y357502D01*
X523972Y356158D01*
X523656Y354572D01*
X523972Y352986D01*
X524870Y351642D01*
X526214Y350744D01*
X527800Y350428D01*
X529386Y350744D01*
X530730Y351642D01*
X531628Y352986D01*
X531944Y354572D01*
X531628Y356158D01*
X530730Y357502D01*
X529386Y358400D01*
X527800Y358716D01*
D02*
G37*
G36*
X371518Y364661D02*
X369932Y364346D01*
X368588Y363448D01*
X367690Y362103D01*
X367374Y360518D01*
X367690Y358932D01*
X368588Y357588D01*
X369932Y356689D01*
X371518Y356374D01*
X373104Y356689D01*
X374448Y357588D01*
X375837Y357380D01*
X375953Y357206D01*
X376038Y355736D01*
X375140Y354392D01*
X374824Y352806D01*
X375140Y351220D01*
X376038Y349876D01*
X377382Y348978D01*
X378968Y348662D01*
X380554Y348978D01*
X381898Y349876D01*
X382796Y351220D01*
X383112Y352806D01*
X382796Y354392D01*
X382121Y355402D01*
X382036Y356872D01*
X382934Y358216D01*
X383250Y359802D01*
X382934Y361388D01*
X382036Y362732D01*
X380692Y363630D01*
X379106Y363946D01*
X377520Y363630D01*
X376176Y362732D01*
X374787Y362940D01*
X374448Y363448D01*
X373104Y364346D01*
X371518Y364661D01*
D02*
G37*
G36*
X347000Y363144D02*
X345414Y362828D01*
X344070Y361930D01*
X343172Y360586D01*
X342856Y359000D01*
X343172Y357414D01*
X344070Y356070D01*
X343692Y354795D01*
X343422Y354392D01*
X343106Y352806D01*
X343422Y351220D01*
X344320Y349876D01*
X345664Y348978D01*
X347250Y348662D01*
X348836Y348978D01*
X350180Y349876D01*
X351078Y351220D01*
X351394Y352806D01*
X351078Y354392D01*
X350180Y355736D01*
X350477Y356889D01*
X350828Y357414D01*
X351144Y359000D01*
X350828Y360586D01*
X349930Y361930D01*
X348586Y362828D01*
X347000Y363144D01*
D02*
G37*
G36*
X605216Y356361D02*
X603630Y356045D01*
X602286Y355147D01*
X601388Y353803D01*
X601072Y352217D01*
X601388Y350631D01*
X602286Y349287D01*
X603630Y348389D01*
X605216Y348073D01*
X606802Y348389D01*
X608146Y349287D01*
X609044Y350631D01*
X609360Y352217D01*
X609044Y353803D01*
X608146Y355147D01*
X606802Y356045D01*
X605216Y356361D01*
D02*
G37*
G36*
X82042Y355788D02*
X80456Y355472D01*
X79112Y354574D01*
X78214Y353230D01*
X77898Y351644D01*
X78214Y350058D01*
X79112Y348714D01*
X80456Y347816D01*
X82042Y347500D01*
X83628Y347816D01*
X84972Y348714D01*
X85870Y350058D01*
X86186Y351644D01*
X85870Y353230D01*
X84972Y354574D01*
X83628Y355472D01*
X82042Y355788D01*
D02*
G37*
G36*
X458216Y355680D02*
X456630Y355364D01*
X455286Y354466D01*
X454388Y353122D01*
X454072Y351536D01*
X454388Y349950D01*
X455286Y348606D01*
X456630Y347708D01*
X458216Y347392D01*
X459802Y347708D01*
X461146Y348606D01*
X462044Y349950D01*
X462360Y351536D01*
X462044Y353122D01*
X461146Y354466D01*
X459802Y355364D01*
X458216Y355680D01*
D02*
G37*
G36*
X711789Y410087D02*
X671789D01*
X670798Y409890D01*
X669958Y409328D01*
X669397Y408488D01*
X669199Y407497D01*
Y362497D01*
X669397Y361506D01*
X669958Y360666D01*
X670798Y360104D01*
X671789Y359907D01*
X711789D01*
X712780Y360104D01*
X713276Y360436D01*
X714156Y359496D01*
X713713Y358918D01*
X712930Y357028D01*
X712663Y355000D01*
X712930Y352972D01*
X713713Y351082D01*
X714958Y349458D01*
X716581Y348213D01*
X718472Y347430D01*
X720500Y347163D01*
X722528Y347430D01*
X724418Y348213D01*
X726042Y349458D01*
X727287Y351082D01*
X728070Y352972D01*
X728337Y355000D01*
X728070Y357028D01*
X727287Y358918D01*
X726042Y360542D01*
X724418Y361787D01*
X722528Y362570D01*
X720500Y362837D01*
X718472Y362570D01*
X716581Y361787D01*
X715177Y360709D01*
X714182Y361506D01*
X714379Y362497D01*
Y407497D01*
X714182Y408488D01*
X713621Y409328D01*
X712780Y409890D01*
X711789Y410087D01*
D02*
G37*
G36*
X897911Y354950D02*
X896325Y354634D01*
X894981Y353736D01*
X894083Y352392D01*
X893767Y350806D01*
X894083Y349220D01*
X894981Y347876D01*
X896325Y346978D01*
X897911Y346662D01*
X899497Y346978D01*
X900841Y347876D01*
X901739Y349220D01*
X902055Y350806D01*
X901739Y352392D01*
X900841Y353736D01*
X899497Y354634D01*
X897911Y354950D01*
D02*
G37*
G36*
X974539Y352750D02*
X972953Y352434D01*
X971609Y351536D01*
X970711Y350192D01*
X970395Y348606D01*
X970711Y347020D01*
X971609Y345676D01*
X972953Y344778D01*
X974539Y344462D01*
X976125Y344778D01*
X977469Y345676D01*
X978367Y347020D01*
X978682Y348606D01*
X978367Y350192D01*
X977469Y351536D01*
X976125Y352434D01*
X974539Y352750D01*
D02*
G37*
G36*
X806250Y358716D02*
X804664Y358400D01*
X803320Y357502D01*
X802422Y356158D01*
X802106Y354572D01*
X802422Y352986D01*
X802941Y352209D01*
X803109Y350947D01*
X802211Y349603D01*
X801896Y348017D01*
X802211Y346431D01*
X803109Y345087D01*
X804454Y344189D01*
X806039Y343873D01*
X807625Y344189D01*
X808969Y345087D01*
X809867Y346431D01*
X810183Y348017D01*
X809867Y349603D01*
X809348Y350380D01*
X809180Y351642D01*
X810078Y352986D01*
X810394Y354572D01*
X810078Y356158D01*
X809180Y357502D01*
X807836Y358400D01*
X806250Y358716D01*
D02*
G37*
G36*
X267504Y349976D02*
X265918Y349660D01*
X264574Y348762D01*
X263676Y347418D01*
X263360Y345832D01*
X263676Y344246D01*
X264574Y342902D01*
X265918Y342004D01*
X267504Y341688D01*
X269090Y342004D01*
X270434Y342902D01*
X271332Y344246D01*
X271648Y345832D01*
X271332Y347418D01*
X270434Y348762D01*
X269090Y349660D01*
X267504Y349976D01*
D02*
G37*
G36*
X344132Y347776D02*
X342546Y347460D01*
X341202Y346562D01*
X340304Y345218D01*
X339988Y343632D01*
X340304Y342046D01*
X341202Y340702D01*
X342546Y339804D01*
X344132Y339488D01*
X345718Y339804D01*
X347062Y340702D01*
X347960Y342046D01*
X348276Y343632D01*
X347960Y345218D01*
X347062Y346562D01*
X345718Y347460D01*
X344132Y347776D01*
D02*
G37*
G36*
X496062Y346028D02*
X494476Y345712D01*
X493132Y344814D01*
X492234Y343470D01*
X491918Y341884D01*
X492234Y340298D01*
X493132Y338954D01*
X494476Y338056D01*
X496062Y337740D01*
X497648Y338056D01*
X498992Y338954D01*
X499890Y340298D01*
X500206Y341884D01*
X499890Y343470D01*
X498992Y344814D01*
X497648Y345712D01*
X496062Y346028D01*
D02*
G37*
G36*
X1114298Y345266D02*
X1112712Y344950D01*
X1111368Y344052D01*
X1110470Y342708D01*
X1110154Y341122D01*
X1110470Y339536D01*
X1111368Y338192D01*
X1112712Y337294D01*
X1114298Y336978D01*
X1115884Y337294D01*
X1117228Y338192D01*
X1118126Y339536D01*
X1118442Y341122D01*
X1118126Y342708D01*
X1117228Y344052D01*
X1115884Y344950D01*
X1114298Y345266D01*
D02*
G37*
G36*
X1001000Y350262D02*
X999414Y349946D01*
X998070Y349048D01*
X997172Y347704D01*
X996856Y346118D01*
X997172Y344532D01*
X997484Y344066D01*
X998003Y343059D01*
X997484Y342052D01*
X997172Y341586D01*
X996856Y340000D01*
X997172Y338414D01*
X998070Y337070D01*
X999414Y336172D01*
X1001000Y335856D01*
X1002586Y336172D01*
X1003930Y337070D01*
X1004828Y338414D01*
X1005144Y340000D01*
X1004828Y341586D01*
X1004516Y342052D01*
X1003997Y343059D01*
X1004516Y344066D01*
X1004828Y344532D01*
X1005144Y346118D01*
X1004828Y347704D01*
X1003930Y349048D01*
X1002586Y349946D01*
X1001000Y350262D01*
D02*
G37*
G36*
X974539Y341828D02*
X972953Y341512D01*
X971609Y340614D01*
X970711Y339270D01*
X970395Y337684D01*
X970711Y336098D01*
X971609Y334754D01*
X972953Y333856D01*
X974539Y333540D01*
X976125Y333856D01*
X977469Y334754D01*
X978367Y336098D01*
X978682Y337684D01*
X978367Y339270D01*
X977469Y340614D01*
X976125Y341512D01*
X974539Y341828D01*
D02*
G37*
G36*
X618744Y335614D02*
X617158Y335298D01*
X615814Y334400D01*
X614916Y333056D01*
X614905Y333002D01*
X613557Y332734D01*
X613292Y333130D01*
X611948Y334028D01*
X610362Y334344D01*
X608776Y334028D01*
X607432Y333130D01*
X606534Y331786D01*
X606297Y330596D01*
X605017Y330226D01*
X604910Y330386D01*
X603566Y331284D01*
X601980Y331600D01*
X600394Y331284D01*
X599050Y330386D01*
X598152Y329042D01*
X597836Y327456D01*
X598152Y325870D01*
X599050Y324526D01*
X600394Y323628D01*
X601980Y323312D01*
X603566Y323628D01*
X604910Y324526D01*
X605808Y325870D01*
X606045Y327060D01*
X607325Y327430D01*
X607432Y327270D01*
X608776Y326372D01*
X610362Y326056D01*
X611948Y326372D01*
X613292Y327270D01*
X614190Y328614D01*
X614201Y328668D01*
X615549Y328936D01*
X615814Y328540D01*
X617158Y327642D01*
X618744Y327326D01*
X620330Y327642D01*
X621674Y328540D01*
X622572Y329884D01*
X622888Y331470D01*
X622572Y333056D01*
X621674Y334400D01*
X620330Y335298D01*
X618744Y335614D01*
D02*
G37*
G36*
X554990Y340948D02*
X553404Y340632D01*
X552060Y339734D01*
X551162Y338390D01*
X550846Y336804D01*
X551162Y335218D01*
X552060Y333874D01*
X553404Y332976D01*
X554990Y332660D01*
X556576Y332976D01*
X557920Y333874D01*
X558818Y335218D01*
X559134Y336804D01*
X558818Y338390D01*
X557920Y339734D01*
X556576Y340632D01*
X554990Y340948D01*
D02*
G37*
G36*
X181096Y344504D02*
X179510Y344188D01*
X178166Y343290D01*
X177268Y341946D01*
X176952Y340360D01*
X177268Y338774D01*
X178033Y337629D01*
X177268Y336484D01*
X176952Y334898D01*
X177268Y333312D01*
X178166Y331968D01*
X179510Y331070D01*
X181096Y330754D01*
X182682Y331070D01*
X184026Y331968D01*
X184924Y333312D01*
X185240Y334898D01*
X184924Y336484D01*
X184159Y337629D01*
X184924Y338774D01*
X185240Y340360D01*
X184924Y341946D01*
X184026Y343290D01*
X182682Y344188D01*
X181096Y344504D01*
D02*
G37*
G36*
X912013Y338556D02*
X910427Y338240D01*
X909083Y337342D01*
X908185Y335998D01*
X907870Y334412D01*
X908185Y332826D01*
X909083Y331482D01*
X910427Y330584D01*
X912013Y330268D01*
X913599Y330584D01*
X914943Y331482D01*
X915841Y332826D01*
X916157Y334412D01*
X915841Y335998D01*
X914943Y337342D01*
X913599Y338240D01*
X912013Y338556D01*
D02*
G37*
G36*
X825558Y338466D02*
X823972Y338150D01*
X822628Y337252D01*
X821730Y335908D01*
X821414Y334322D01*
X821730Y332736D01*
X822628Y331392D01*
X823972Y330494D01*
X825558Y330178D01*
X827144Y330494D01*
X828488Y331392D01*
X829386Y332736D01*
X829702Y334322D01*
X829386Y335908D01*
X828488Y337252D01*
X827144Y338150D01*
X825558Y338466D01*
D02*
G37*
G36*
X528320Y338408D02*
X526734Y338092D01*
X525390Y337194D01*
X524492Y335850D01*
X524176Y334264D01*
X524492Y332678D01*
X525390Y331334D01*
X526734Y330436D01*
X528320Y330120D01*
X529906Y330436D01*
X531250Y331334D01*
X532148Y332678D01*
X532464Y334264D01*
X532148Y335850D01*
X531250Y337194D01*
X529906Y338092D01*
X528320Y338408D01*
D02*
G37*
G36*
X702876Y337842D02*
X701290Y337527D01*
X699946Y336628D01*
X699047Y335284D01*
X698732Y333699D01*
X699047Y332113D01*
X699946Y330769D01*
X701290Y329870D01*
X702876Y329555D01*
X704461Y329870D01*
X705806Y330769D01*
X706704Y332113D01*
X707019Y333699D01*
X706704Y335284D01*
X705806Y336628D01*
X704461Y337527D01*
X702876Y337842D01*
D02*
G37*
G36*
X729750Y337144D02*
X728164Y336828D01*
X726820Y335930D01*
X725922Y334586D01*
X725606Y333000D01*
X725922Y331414D01*
X726820Y330070D01*
X728164Y329172D01*
X729750Y328856D01*
X731336Y329172D01*
X732680Y330070D01*
X733578Y331414D01*
X733894Y333000D01*
X733578Y334586D01*
X732680Y335930D01*
X731336Y336828D01*
X729750Y337144D01*
D02*
G37*
G36*
X639318Y337138D02*
X637732Y336822D01*
X636388Y335924D01*
X635490Y334580D01*
X635174Y332994D01*
X635490Y331408D01*
X636388Y330064D01*
X637732Y329166D01*
X639318Y328850D01*
X640904Y329166D01*
X642248Y330064D01*
X643146Y331408D01*
X643462Y332994D01*
X643146Y334580D01*
X642248Y335924D01*
X640904Y336822D01*
X639318Y337138D01*
D02*
G37*
G36*
X344132Y336854D02*
X342546Y336538D01*
X341202Y335640D01*
X340304Y334296D01*
X339988Y332710D01*
X340304Y331124D01*
X341202Y329780D01*
X342546Y328882D01*
X344132Y328566D01*
X345718Y328882D01*
X347062Y329780D01*
X347960Y331124D01*
X348276Y332710D01*
X347960Y334296D01*
X347062Y335640D01*
X345718Y336538D01*
X344132Y336854D01*
D02*
G37*
G36*
X281606Y333582D02*
X280021Y333266D01*
X278676Y332368D01*
X277778Y331024D01*
X277463Y329438D01*
X277778Y327852D01*
X278676Y326508D01*
X280021Y325610D01*
X281606Y325294D01*
X283192Y325610D01*
X284536Y326508D01*
X285435Y327852D01*
X285750Y329438D01*
X285435Y331024D01*
X284536Y332368D01*
X283192Y333266D01*
X281606Y333582D01*
D02*
G37*
G36*
X749554Y332198D02*
X747968Y331882D01*
X746624Y330984D01*
X745726Y329640D01*
X745410Y328054D01*
X745726Y326468D01*
X746624Y325124D01*
X747968Y324226D01*
X749554Y323910D01*
X751140Y324226D01*
X752484Y325124D01*
X753382Y326468D01*
X753698Y328054D01*
X753382Y329640D01*
X752484Y330984D01*
X751140Y331882D01*
X749554Y332198D01*
D02*
G37*
G36*
X629412Y331804D02*
X627826Y331488D01*
X626482Y330590D01*
X625584Y329246D01*
X625268Y327660D01*
X625584Y326074D01*
X626482Y324730D01*
X627826Y323832D01*
X629412Y323516D01*
X630998Y323832D01*
X632342Y324730D01*
X633240Y326074D01*
X633556Y327660D01*
X633240Y329246D01*
X632342Y330590D01*
X630998Y331488D01*
X629412Y331804D01*
D02*
G37*
G36*
X902500Y336894D02*
X900914Y336578D01*
X899570Y335680D01*
X898672Y334336D01*
X898356Y332750D01*
X898672Y331164D01*
X898908Y330810D01*
X899541Y329772D01*
X898908Y328735D01*
X898672Y328380D01*
X898356Y326795D01*
X898672Y325209D01*
X899570Y323865D01*
X900914Y322966D01*
X902500Y322651D01*
X904086Y322966D01*
X905430Y323865D01*
X906328Y325209D01*
X906644Y326795D01*
X906328Y328380D01*
X906092Y328735D01*
X905459Y329772D01*
X906092Y330810D01*
X906328Y331164D01*
X906644Y332750D01*
X906328Y334336D01*
X905430Y335680D01*
X904086Y336578D01*
X902500Y336894D01*
D02*
G37*
G36*
X271350Y334012D02*
X269764Y333697D01*
X268419Y332799D01*
X267521Y331454D01*
X267206Y329869D01*
X267521Y328283D01*
X268419Y326939D01*
X268455Y326914D01*
X267676Y325748D01*
X267360Y324162D01*
X267676Y322576D01*
X268574Y321232D01*
X269918Y320334D01*
X271504Y320018D01*
X273090Y320334D01*
X274434Y321232D01*
X275332Y322576D01*
X275648Y324162D01*
X275332Y325748D01*
X274434Y327092D01*
X274398Y327116D01*
X275178Y328283D01*
X275493Y329869D01*
X275178Y331454D01*
X274279Y332799D01*
X272935Y333697D01*
X271350Y334012D01*
D02*
G37*
G36*
X199586Y328306D02*
X198000Y327990D01*
X196656Y327092D01*
X195758Y325748D01*
X195442Y324162D01*
X195758Y322576D01*
X196656Y321232D01*
X198000Y320334D01*
X199586Y320018D01*
X201172Y320334D01*
X202516Y321232D01*
X203414Y322576D01*
X203730Y324162D01*
X203414Y325748D01*
X202516Y327092D01*
X201172Y327990D01*
X199586Y328306D01*
D02*
G37*
G36*
X483870Y333836D02*
X482284Y333520D01*
X480940Y332622D01*
X480042Y331278D01*
X479726Y329692D01*
X480042Y328106D01*
X480940Y326762D01*
X480990Y326729D01*
X480296Y325690D01*
X479980Y324104D01*
X480296Y322518D01*
X481194Y321174D01*
X482538Y320276D01*
X484124Y319960D01*
X485710Y320276D01*
X487054Y321174D01*
X487952Y322518D01*
X488268Y324104D01*
X487952Y325690D01*
X487054Y327034D01*
X487004Y327067D01*
X487698Y328106D01*
X488014Y329692D01*
X487698Y331278D01*
X486800Y332622D01*
X485456Y333520D01*
X483870Y333836D01*
D02*
G37*
G36*
X553466Y327994D02*
X551880Y327678D01*
X550536Y326780D01*
X549638Y325436D01*
X549322Y323850D01*
X549638Y322264D01*
X550536Y320920D01*
X551880Y320022D01*
X553466Y319706D01*
X555052Y320022D01*
X556396Y320920D01*
X557294Y322264D01*
X557610Y323850D01*
X557294Y325436D01*
X556396Y326780D01*
X555052Y327678D01*
X553466Y327994D01*
D02*
G37*
G36*
X987277Y327554D02*
X985691Y327238D01*
X984347Y326340D01*
X983449Y324996D01*
X983133Y323410D01*
X983449Y321824D01*
X984347Y320480D01*
X985691Y319582D01*
X987277Y319266D01*
X988863Y319582D01*
X990207Y320480D01*
X991105Y321824D01*
X991421Y323410D01*
X991105Y324996D01*
X990207Y326340D01*
X988863Y327238D01*
X987277Y327554D01*
D02*
G37*
G36*
X1193546Y326470D02*
X1191960Y326154D01*
X1190616Y325256D01*
X1189718Y323912D01*
X1189402Y322326D01*
X1189718Y320740D01*
X1190616Y319396D01*
X1191960Y318498D01*
X1193546Y318182D01*
X1195132Y318498D01*
X1196476Y319396D01*
X1197374Y320740D01*
X1197690Y322326D01*
X1197374Y323912D01*
X1196476Y325256D01*
X1195132Y326154D01*
X1193546Y326470D01*
D02*
G37*
G36*
X871630Y324014D02*
X870044Y323698D01*
X868700Y322800D01*
X867802Y321456D01*
X867486Y319870D01*
X867802Y318284D01*
X868700Y316940D01*
X870044Y316042D01*
X871630Y315726D01*
X873216Y316042D01*
X874560Y316940D01*
X875458Y318284D01*
X875774Y319870D01*
X875458Y321456D01*
X874560Y322800D01*
X873216Y323698D01*
X871630Y324014D01*
D02*
G37*
G36*
X356870Y322580D02*
X355284Y322264D01*
X353940Y321366D01*
X353042Y320022D01*
X352726Y318436D01*
X353042Y316850D01*
X353940Y315506D01*
X355284Y314608D01*
X356870Y314292D01*
X358456Y314608D01*
X359800Y315506D01*
X360698Y316850D01*
X361014Y318436D01*
X360698Y320022D01*
X359800Y321366D01*
X358456Y322264D01*
X356870Y322580D01*
D02*
G37*
G36*
X594464Y321494D02*
X592878Y321178D01*
X591534Y320280D01*
X590636Y318936D01*
X590320Y317350D01*
X590636Y315764D01*
X591534Y314420D01*
X592878Y313522D01*
X594464Y313206D01*
X596050Y313522D01*
X597394Y314420D01*
X598292Y315764D01*
X598608Y317350D01*
X598292Y318936D01*
X597394Y320280D01*
X596050Y321178D01*
X594464Y321494D01*
D02*
G37*
G36*
X1245292Y320444D02*
X1243706Y320128D01*
X1242362Y319230D01*
X1241464Y317886D01*
X1241148Y316300D01*
X1241464Y314714D01*
X1242362Y313370D01*
X1243706Y312472D01*
X1245292Y312156D01*
X1246878Y312472D01*
X1248222Y313370D01*
X1249120Y314714D01*
X1249436Y316300D01*
X1249120Y317886D01*
X1248222Y319230D01*
X1246878Y320128D01*
X1245292Y320444D01*
D02*
G37*
G36*
X425016Y319248D02*
X423430Y318932D01*
X422086Y318034D01*
X421188Y316690D01*
X420872Y315104D01*
X421188Y313518D01*
X422086Y312174D01*
X423430Y311276D01*
X425016Y310960D01*
X426602Y311276D01*
X427946Y312174D01*
X428844Y313518D01*
X429160Y315104D01*
X428844Y316690D01*
X427946Y318034D01*
X426602Y318932D01*
X425016Y319248D01*
D02*
G37*
G36*
X951964Y319085D02*
X950378Y318769D01*
X949034Y317871D01*
X948136Y316527D01*
X947820Y314941D01*
X948136Y313355D01*
X949034Y312011D01*
X950378Y311113D01*
X951964Y310797D01*
X953549Y311113D01*
X954894Y312011D01*
X955792Y313355D01*
X956107Y314941D01*
X955792Y316527D01*
X954894Y317871D01*
X953549Y318769D01*
X951964Y319085D01*
D02*
G37*
G36*
X825558Y317336D02*
X823972Y317020D01*
X822628Y316122D01*
X821730Y314778D01*
X821414Y313192D01*
X821730Y311606D01*
X822628Y310262D01*
X823972Y309364D01*
X825558Y309048D01*
X827144Y309364D01*
X828488Y310262D01*
X829386Y311606D01*
X829702Y313192D01*
X829386Y314778D01*
X828488Y316122D01*
X827144Y317020D01*
X825558Y317336D01*
D02*
G37*
G36*
X937500Y316644D02*
X935914Y316328D01*
X934570Y315430D01*
X933672Y314086D01*
X933356Y312500D01*
X933672Y310914D01*
X934570Y309570D01*
X935914Y308672D01*
X937500Y308356D01*
X939086Y308672D01*
X940430Y309570D01*
X941328Y310914D01*
X941644Y312500D01*
X941328Y314086D01*
X940430Y315430D01*
X939086Y316328D01*
X937500Y316644D01*
D02*
G37*
G36*
X1041146Y313008D02*
X1039560Y312692D01*
X1038216Y311794D01*
X1037318Y310450D01*
X1037002Y308864D01*
X1037318Y307278D01*
X1038216Y305934D01*
X1039560Y305036D01*
X1041146Y304720D01*
X1042732Y305036D01*
X1044076Y305934D01*
X1044974Y307278D01*
X1045290Y308864D01*
X1044974Y310450D01*
X1044076Y311794D01*
X1042732Y312692D01*
X1041146Y313008D01*
D02*
G37*
G36*
X318008Y311992D02*
X316422Y311676D01*
X315078Y310778D01*
X314180Y309434D01*
X313864Y307848D01*
X314180Y306262D01*
X315078Y304918D01*
X316422Y304020D01*
X318008Y303704D01*
X319594Y304020D01*
X320938Y304918D01*
X321836Y306262D01*
X322152Y307848D01*
X321836Y309434D01*
X320938Y310778D01*
X319594Y311676D01*
X318008Y311992D01*
D02*
G37*
G36*
X999739Y311098D02*
X998153Y310783D01*
X996809Y309884D01*
X995911Y308540D01*
X995595Y306954D01*
X995911Y305369D01*
X996809Y304024D01*
X998153Y303126D01*
X999739Y302811D01*
X1001325Y303126D01*
X1002669Y304024D01*
X1003567Y305369D01*
X1003883Y306954D01*
X1003567Y308540D01*
X1002669Y309884D01*
X1001325Y310783D01*
X999739Y311098D01*
D02*
G37*
G36*
X974739Y310924D02*
X973153Y310608D01*
X971809Y309710D01*
X970911Y308366D01*
X970595Y306780D01*
X970911Y305194D01*
X971809Y303850D01*
X973153Y302952D01*
X974739Y302636D01*
X976325Y302952D01*
X977669Y303850D01*
X978567Y305194D01*
X978883Y306780D01*
X978567Y308366D01*
X977669Y309710D01*
X976325Y310608D01*
X974739Y310924D01*
D02*
G37*
G36*
X233172Y310214D02*
X231586Y309898D01*
X230242Y309000D01*
X229344Y307656D01*
X229028Y306070D01*
X229344Y304484D01*
X230242Y303140D01*
X231586Y302242D01*
X233172Y301926D01*
X234758Y302242D01*
X236102Y303140D01*
X237000Y304484D01*
X237316Y306070D01*
X237000Y307656D01*
X236102Y309000D01*
X234758Y309898D01*
X233172Y310214D01*
D02*
G37*
G36*
X876750Y309144D02*
X875164Y308828D01*
X873820Y307930D01*
X872922Y306586D01*
X872606Y305000D01*
X872922Y303414D01*
X873820Y302070D01*
X875164Y301172D01*
X876750Y300856D01*
X878336Y301172D01*
X879680Y302070D01*
X880578Y303414D01*
X880894Y305000D01*
X880578Y306586D01*
X879680Y307930D01*
X878336Y308828D01*
X876750Y309144D01*
D02*
G37*
G36*
X416814Y308182D02*
X415228Y307866D01*
X413884Y306968D01*
X412986Y305624D01*
X412670Y304038D01*
X412986Y302452D01*
X413884Y301108D01*
X415228Y300210D01*
X416814Y299894D01*
X418400Y300210D01*
X419744Y301108D01*
X420642Y302452D01*
X420958Y304038D01*
X420642Y305624D01*
X419744Y306968D01*
X418400Y307866D01*
X416814Y308182D01*
D02*
G37*
G36*
X369332Y306124D02*
X367746Y305809D01*
X366402Y304910D01*
X365504Y303566D01*
X365188Y301980D01*
X365504Y300395D01*
X366402Y299050D01*
X367746Y298152D01*
X369332Y297837D01*
X370918Y298152D01*
X372262Y299050D01*
X373160Y300395D01*
X373476Y301980D01*
X373160Y303566D01*
X372262Y304910D01*
X370918Y305809D01*
X369332Y306124D01*
D02*
G37*
G36*
X344332Y305950D02*
X342746Y305634D01*
X341402Y304736D01*
X340504Y303392D01*
X340188Y301806D01*
X340504Y300220D01*
X341402Y298876D01*
X342746Y297978D01*
X344332Y297662D01*
X345918Y297978D01*
X347262Y298876D01*
X348160Y300220D01*
X348476Y301806D01*
X348160Y303392D01*
X347262Y304736D01*
X345918Y305634D01*
X344332Y305950D01*
D02*
G37*
G36*
X937500Y305894D02*
X935914Y305578D01*
X934570Y304680D01*
X933672Y303336D01*
X933356Y301750D01*
X933672Y300164D01*
X934570Y298820D01*
X935914Y297922D01*
X937500Y297606D01*
X939086Y297922D01*
X940430Y298820D01*
X941328Y300164D01*
X941644Y301750D01*
X941328Y303336D01*
X940430Y304680D01*
X939086Y305578D01*
X937500Y305894D01*
D02*
G37*
G36*
X711785Y303408D02*
X710199Y303093D01*
X708855Y302195D01*
X707956Y300850D01*
X707641Y299265D01*
X707956Y297679D01*
X708855Y296335D01*
X710199Y295436D01*
X711785Y295121D01*
X713370Y295436D01*
X714715Y296335D01*
X715613Y297679D01*
X715928Y299265D01*
X715613Y300850D01*
X714715Y302195D01*
X713370Y303093D01*
X711785Y303408D01*
D02*
G37*
G36*
X868750Y303394D02*
X867164Y303078D01*
X865820Y302180D01*
X864922Y300836D01*
X864606Y299250D01*
X864922Y297664D01*
X865820Y296320D01*
X867164Y295422D01*
X868750Y295106D01*
X870336Y295422D01*
X871680Y296320D01*
X872578Y297664D01*
X872894Y299250D01*
X872578Y300836D01*
X871680Y302180D01*
X870336Y303078D01*
X868750Y303394D01*
D02*
G37*
G36*
X695214Y302394D02*
X693628Y302078D01*
X692284Y301180D01*
X691386Y299836D01*
X691070Y298250D01*
X691386Y296664D01*
X692284Y295320D01*
X693628Y294422D01*
X695214Y294106D01*
X696800Y294422D01*
X698144Y295320D01*
X699042Y296664D01*
X699358Y298250D01*
X699042Y299836D01*
X698144Y301180D01*
X696800Y302078D01*
X695214Y302394D01*
D02*
G37*
G36*
X423418Y301070D02*
X421832Y300754D01*
X420488Y299856D01*
X419590Y298512D01*
X419274Y296926D01*
X419590Y295340D01*
X420488Y293996D01*
X421832Y293098D01*
X423418Y292782D01*
X425004Y293098D01*
X426348Y293996D01*
X427246Y295340D01*
X427562Y296926D01*
X427246Y298512D01*
X426348Y299856D01*
X425004Y300754D01*
X423418Y301070D01*
D02*
G37*
G36*
X585216Y314278D02*
X583630Y313962D01*
X582286Y313064D01*
X581388Y311720D01*
X581072Y310134D01*
X581388Y308548D01*
X581546Y308311D01*
X581852Y307104D01*
X581223Y306684D01*
X580508Y306206D01*
X579610Y304862D01*
X579294Y303276D01*
X579610Y301690D01*
X580508Y300346D01*
X581164Y299907D01*
X581808Y299304D01*
X581488Y298280D01*
X581134Y297750D01*
X580818Y296164D01*
X581134Y294578D01*
X582032Y293234D01*
X583376Y292336D01*
X584962Y292020D01*
X586548Y292336D01*
X587892Y293234D01*
X588790Y294578D01*
X589106Y296164D01*
X588790Y297750D01*
X587892Y299094D01*
X587236Y299533D01*
X586592Y300136D01*
X586912Y301160D01*
X587266Y301690D01*
X587582Y303276D01*
X587266Y304862D01*
X587108Y305099D01*
X586802Y306306D01*
X587431Y306726D01*
X588146Y307204D01*
X589044Y308548D01*
X589360Y310134D01*
X589044Y311720D01*
X588146Y313064D01*
X586802Y313962D01*
X585216Y314278D01*
D02*
G37*
G36*
X491250Y306644D02*
X489664Y306328D01*
X488320Y305430D01*
X487422Y304086D01*
X487106Y302500D01*
X487422Y300914D01*
X488320Y299570D01*
Y298586D01*
X487422Y297242D01*
X487106Y295656D01*
X487422Y294070D01*
X488320Y292726D01*
X489664Y291828D01*
X491250Y291512D01*
X492836Y291828D01*
X494180Y292726D01*
X495078Y294070D01*
X495394Y295656D01*
X495078Y297242D01*
X494180Y298586D01*
Y299570D01*
X495078Y300914D01*
X495394Y302500D01*
X495078Y304086D01*
X494180Y305430D01*
X492836Y306328D01*
X491250Y306644D01*
D02*
G37*
G36*
X386588Y306480D02*
X385002Y306165D01*
X383658Y305267D01*
X382760Y303922D01*
X382444Y302337D01*
X382760Y300751D01*
X383658Y299407D01*
X385002Y298508D01*
X386588Y298193D01*
X387296Y298334D01*
X388094Y297242D01*
X387778Y295656D01*
X388094Y294070D01*
X388992Y292726D01*
X390336Y291828D01*
X391922Y291512D01*
X393508Y291828D01*
X394852Y292726D01*
X395750Y294070D01*
X396066Y295656D01*
X395750Y297242D01*
X394852Y298586D01*
X393508Y299484D01*
X391922Y299800D01*
X391214Y299659D01*
X390416Y300751D01*
X390732Y302337D01*
X390416Y303922D01*
X389518Y305267D01*
X388174Y306165D01*
X386588Y306480D01*
D02*
G37*
G36*
X612380Y304894D02*
X610794Y304578D01*
X609450Y303680D01*
X608552Y302336D01*
X608236Y300750D01*
X608552Y299164D01*
X609328Y298003D01*
X609450Y297381D01*
Y296982D01*
X609327Y296375D01*
X608548Y295210D01*
X608232Y293624D01*
X608548Y292038D01*
X609446Y290694D01*
X610790Y289796D01*
X612376Y289480D01*
X613962Y289796D01*
X615306Y290694D01*
X616204Y292038D01*
X616520Y293624D01*
X616204Y295210D01*
X615306Y296554D01*
Y297817D01*
X615310Y297820D01*
X616208Y299164D01*
X616524Y300750D01*
X616208Y302336D01*
X615310Y303680D01*
X613966Y304578D01*
X612380Y304894D01*
D02*
G37*
G36*
X947750Y293933D02*
X946164Y293617D01*
X944820Y292719D01*
X943922Y291375D01*
X943606Y289789D01*
X943922Y288203D01*
X944820Y286859D01*
X946164Y285961D01*
X947750Y285645D01*
X949336Y285961D01*
X950680Y286859D01*
X951578Y288203D01*
X951894Y289789D01*
X951578Y291375D01*
X950680Y292719D01*
X949336Y293617D01*
X947750Y293933D01*
D02*
G37*
G36*
X1059250Y291644D02*
X1057664Y291328D01*
X1056320Y290430D01*
X1055422Y289086D01*
X1055106Y287500D01*
X1055422Y285914D01*
X1056320Y284570D01*
X1057664Y283672D01*
X1059250Y283356D01*
X1060836Y283672D01*
X1062180Y284570D01*
X1063078Y285914D01*
X1063394Y287500D01*
X1063078Y289086D01*
X1062180Y290430D01*
X1060836Y291328D01*
X1059250Y291644D01*
D02*
G37*
G36*
X961547Y290658D02*
X959961Y290342D01*
X958617Y289444D01*
X957719Y288100D01*
X957403Y286514D01*
X957719Y284928D01*
X958617Y283584D01*
X959961Y282686D01*
X961547Y282370D01*
X963133Y282686D01*
X964477Y283584D01*
X965375Y284928D01*
X965691Y286514D01*
X965375Y288100D01*
X964477Y289444D01*
X963133Y290342D01*
X961547Y290658D01*
D02*
G37*
G36*
X1023000Y290394D02*
X1021414Y290078D01*
X1020070Y289180D01*
X1019172Y287836D01*
X1018856Y286250D01*
X1019172Y284664D01*
X1020070Y283320D01*
X1021414Y282422D01*
X1023000Y282106D01*
X1024586Y282422D01*
X1025930Y283320D01*
X1026828Y284664D01*
X1027144Y286250D01*
X1026828Y287836D01*
X1025930Y289180D01*
X1024586Y290078D01*
X1023000Y290394D01*
D02*
G37*
G36*
X1191696Y295808D02*
X1190110Y295492D01*
X1188766Y294594D01*
X1187868Y293250D01*
X1187552Y291664D01*
X1187868Y290078D01*
X1188766Y288734D01*
X1190110Y287836D01*
X1191696Y287520D01*
X1191883Y287303D01*
X1192473Y286380D01*
X1192196Y284988D01*
X1192512Y283402D01*
X1192732Y283072D01*
X1191969Y281929D01*
X1191514Y282020D01*
X1189928Y281704D01*
X1188584Y280806D01*
X1187686Y279462D01*
X1187370Y277876D01*
X1187686Y276290D01*
X1188584Y274946D01*
X1189928Y274048D01*
X1191514Y273732D01*
X1193100Y274048D01*
X1193530Y274335D01*
X1194446Y273420D01*
X1193730Y272349D01*
X1193415Y270763D01*
X1193730Y269177D01*
X1194628Y267833D01*
X1195973Y266935D01*
X1197558Y266620D01*
X1199144Y266935D01*
X1200488Y267833D01*
X1201387Y269177D01*
X1201702Y270763D01*
X1201387Y272349D01*
X1200488Y273693D01*
X1199144Y274591D01*
X1197558Y274907D01*
X1195973Y274591D01*
X1195542Y274304D01*
X1194627Y275219D01*
X1195342Y276290D01*
X1195658Y277876D01*
X1195342Y279462D01*
X1195122Y279792D01*
X1195885Y280935D01*
X1196340Y280844D01*
X1197926Y281160D01*
X1199270Y282058D01*
X1200168Y283402D01*
X1200484Y284988D01*
X1200168Y286574D01*
X1199270Y287918D01*
X1197926Y288816D01*
X1196340Y289132D01*
X1196152Y289349D01*
X1195563Y290272D01*
X1195840Y291664D01*
X1195524Y293250D01*
X1194626Y294594D01*
X1193282Y295492D01*
X1191696Y295808D01*
D02*
G37*
G36*
X658368Y296498D02*
X656782Y296182D01*
X655438Y295284D01*
X654540Y293940D01*
X654224Y292354D01*
X654540Y290768D01*
X655438Y289424D01*
X656782Y288526D01*
X657140Y288455D01*
Y287160D01*
X656528Y287038D01*
X655184Y286140D01*
X654286Y284796D01*
X653970Y283210D01*
X654286Y281624D01*
X655184Y280280D01*
X656528Y279382D01*
X658114Y279066D01*
X659700Y279382D01*
X661044Y280280D01*
X661942Y281624D01*
X662258Y283210D01*
X661942Y284796D01*
X661044Y286140D01*
X659700Y287038D01*
X659342Y287109D01*
Y288404D01*
X659954Y288526D01*
X661298Y289424D01*
X662196Y290768D01*
X662512Y292354D01*
X662196Y293940D01*
X661298Y295284D01*
X659954Y296182D01*
X658368Y296498D01*
D02*
G37*
G36*
X394462Y287100D02*
X392876Y286784D01*
X391532Y285886D01*
X390634Y284542D01*
X390318Y282956D01*
X390634Y281370D01*
X391532Y280026D01*
X392876Y279128D01*
X394462Y278812D01*
X396048Y279128D01*
X397392Y280026D01*
X398290Y281370D01*
X398606Y282956D01*
X398290Y284542D01*
X397392Y285886D01*
X396048Y286784D01*
X394462Y287100D01*
D02*
G37*
G36*
X383032D02*
X381446Y286784D01*
X380102Y285886D01*
X379204Y284542D01*
X378888Y282956D01*
X379204Y281370D01*
X380102Y280026D01*
X381446Y279128D01*
X383032Y278812D01*
X384618Y279128D01*
X385962Y280026D01*
X386860Y281370D01*
X387176Y282956D01*
X386860Y284542D01*
X385962Y285886D01*
X384618Y286784D01*
X383032Y287100D01*
D02*
G37*
G36*
X199516Y286465D02*
X197931Y286150D01*
X196586Y285252D01*
X195688Y283908D01*
X195373Y282322D01*
X195688Y280736D01*
X196586Y279392D01*
X197931Y278494D01*
X199516Y278178D01*
X201102Y278494D01*
X202446Y279392D01*
X203344Y280736D01*
X203660Y282322D01*
X203344Y283908D01*
X202446Y285252D01*
X201102Y286150D01*
X199516Y286465D01*
D02*
G37*
G36*
X1052086Y284894D02*
X1050500Y284578D01*
X1049156Y283680D01*
X1048258Y282336D01*
X1047943Y280750D01*
X1048258Y279164D01*
X1049156Y277820D01*
X1050500Y276922D01*
X1052086Y276606D01*
X1053672Y276922D01*
X1055016Y277820D01*
X1055914Y279164D01*
X1056230Y280750D01*
X1055914Y282336D01*
X1055016Y283680D01*
X1053672Y284578D01*
X1052086Y284894D01*
D02*
G37*
G36*
X1032250Y284639D02*
X1030664Y284324D01*
X1029320Y283425D01*
X1028422Y282081D01*
X1028106Y280495D01*
X1028422Y278910D01*
X1029320Y277565D01*
X1030664Y276667D01*
X1032250Y276352D01*
X1033836Y276667D01*
X1035180Y277565D01*
X1036078Y278910D01*
X1036394Y280495D01*
X1036078Y282081D01*
X1035180Y283425D01*
X1033836Y284324D01*
X1032250Y284639D01*
D02*
G37*
G36*
X952880Y283106D02*
X951294Y282790D01*
X949950Y281892D01*
X949052Y280548D01*
X948736Y278962D01*
X949052Y277376D01*
X949950Y276032D01*
X951294Y275134D01*
X952880Y274818D01*
X954466Y275134D01*
X955810Y276032D01*
X956708Y277376D01*
X957024Y278962D01*
X956708Y280548D01*
X955810Y281892D01*
X954466Y282790D01*
X952880Y283106D01*
D02*
G37*
G36*
X1231946Y282854D02*
X1230360Y282538D01*
X1229016Y281640D01*
X1228118Y280296D01*
X1227802Y278710D01*
X1228118Y277124D01*
X1229016Y275780D01*
X1230360Y274882D01*
X1231946Y274566D01*
X1233532Y274882D01*
X1234876Y275780D01*
X1235774Y277124D01*
X1236090Y278710D01*
X1235774Y280296D01*
X1234876Y281640D01*
X1233532Y282538D01*
X1231946Y282854D01*
D02*
G37*
G36*
X147066Y281223D02*
X145480Y280908D01*
X144136Y280009D01*
X143238Y278665D01*
X142922Y277079D01*
X143238Y275494D01*
X144136Y274149D01*
X145480Y273251D01*
X147066Y272936D01*
X148652Y273251D01*
X149996Y274149D01*
X150894Y275494D01*
X151210Y277079D01*
X150894Y278665D01*
X149996Y280009D01*
X148652Y280908D01*
X147066Y281223D01*
D02*
G37*
G36*
X348234Y280750D02*
X346648Y280434D01*
X345304Y279536D01*
X344406Y278192D01*
X344090Y276606D01*
X344406Y275020D01*
X345304Y273676D01*
X346648Y272778D01*
X348234Y272462D01*
X349820Y272778D01*
X351164Y273676D01*
X352062Y275020D01*
X352378Y276606D01*
X352062Y278192D01*
X351164Y279536D01*
X349820Y280434D01*
X348234Y280750D01*
D02*
G37*
G36*
X326164D02*
X324578Y280434D01*
X323234Y279536D01*
X322335Y278192D01*
X322020Y276606D01*
X322335Y275020D01*
X323234Y273676D01*
X324578Y272778D01*
X326164Y272462D01*
X327749Y272778D01*
X329094Y273676D01*
X329992Y275020D01*
X330307Y276606D01*
X329992Y278192D01*
X329094Y279536D01*
X327749Y280434D01*
X326164Y280750D01*
D02*
G37*
G36*
X832358Y280496D02*
X830772Y280180D01*
X829428Y279282D01*
X828530Y277938D01*
X828214Y276352D01*
X828530Y274766D01*
X829428Y273422D01*
X830772Y272524D01*
X832358Y272208D01*
X833944Y272524D01*
X835288Y273422D01*
X836186Y274766D01*
X836502Y276352D01*
X836186Y277938D01*
X835288Y279282D01*
X833944Y280180D01*
X832358Y280496D01*
D02*
G37*
G36*
X974137Y279894D02*
X972552Y279578D01*
X971208Y278680D01*
X970309Y277336D01*
X969994Y275750D01*
X970309Y274164D01*
X971208Y272820D01*
X972552Y271922D01*
X974137Y271606D01*
X975723Y271922D01*
X977067Y272820D01*
X977966Y274164D01*
X978281Y275750D01*
X977966Y277336D01*
X977067Y278680D01*
X975723Y279578D01*
X974137Y279894D01*
D02*
G37*
G36*
X649250Y323375D02*
X639500D01*
X638528Y322972D01*
X638125Y322000D01*
Y270954D01*
X557188D01*
X556655Y272224D01*
X557294Y273180D01*
X557610Y274766D01*
X557294Y276352D01*
X556396Y277696D01*
X555052Y278594D01*
X553466Y278910D01*
X551880Y278594D01*
X550536Y277696D01*
X549638Y276352D01*
X549322Y274766D01*
X549638Y273180D01*
X550277Y272224D01*
X549744Y270954D01*
X518250D01*
X517278Y270551D01*
X516875Y269579D01*
Y267702D01*
X516500Y267394D01*
X514914Y267078D01*
X513570Y266180D01*
X512672Y264836D01*
X512356Y263250D01*
X512672Y261664D01*
X513570Y260320D01*
X514914Y259422D01*
X516500Y259106D01*
X517093Y259224D01*
X517278Y258778D01*
X518250Y258375D01*
X556238Y258375D01*
X556917Y257105D01*
X556750Y256856D01*
X556434Y255270D01*
X556699Y253938D01*
X556053Y253256D01*
X555684Y253028D01*
X554228Y253318D01*
X552642Y253002D01*
X551298Y252104D01*
X550400Y250760D01*
X550084Y249174D01*
X550400Y247588D01*
X551298Y246244D01*
X552642Y245346D01*
X554228Y245030D01*
X554683Y245121D01*
X555763Y244041D01*
X555672Y243586D01*
X555710Y243396D01*
X554630Y242316D01*
X554228Y242396D01*
X552642Y242080D01*
X551298Y241182D01*
X550400Y239838D01*
X550084Y238252D01*
X550400Y236666D01*
X551298Y235322D01*
X552642Y234424D01*
X554228Y234108D01*
X555814Y234424D01*
X557158Y235322D01*
X558056Y236666D01*
X558372Y238252D01*
X558334Y238442D01*
X559414Y239522D01*
X559816Y239442D01*
X561402Y239758D01*
X562746Y240656D01*
X563644Y242000D01*
X563960Y243586D01*
X563644Y245172D01*
X562746Y246516D01*
X561402Y247414D01*
X559816Y247730D01*
X559361Y247639D01*
X558281Y248719D01*
X558372Y249174D01*
X558107Y250506D01*
X558753Y251189D01*
X559122Y251416D01*
X560578Y251126D01*
X562164Y251442D01*
X563508Y252340D01*
X564406Y253684D01*
X564722Y255270D01*
X564406Y256856D01*
X564239Y257105D01*
X564918Y258375D01*
X568125D01*
X568125Y210000D01*
X568528Y209028D01*
X569500Y208625D01*
X594100Y208625D01*
X594412Y208755D01*
X594748Y208788D01*
X594880Y208948D01*
X595073Y209028D01*
X595202Y209340D01*
X595416Y209601D01*
X595797Y210859D01*
X596392Y210740D01*
X596987Y210859D01*
X597368Y209601D01*
X597582Y209340D01*
X597711Y209028D01*
X597904Y208948D01*
X598036Y208788D01*
X598372Y208755D01*
X598684Y208625D01*
X613750Y208625D01*
X614722Y209028D01*
X615125Y210000D01*
Y236864D01*
X615097Y236930D01*
X615118Y236999D01*
X614899Y237408D01*
X614722Y237836D01*
X615486Y238732D01*
X615705Y238878D01*
X616603Y240222D01*
X616919Y241808D01*
X616603Y243394D01*
X615705Y244738D01*
X615486Y244884D01*
X614722Y245780D01*
X614899Y246208D01*
X615118Y246617D01*
X615097Y246686D01*
X615125Y246752D01*
Y254125D01*
X713375D01*
X714347Y254528D01*
X714750Y255500D01*
Y274500D01*
X714347Y275472D01*
X713375Y275875D01*
X650625D01*
Y322000D01*
X650222Y322972D01*
X649250Y323375D01*
D02*
G37*
G36*
X1059680Y279144D02*
X1058094Y278828D01*
X1056750Y277930D01*
X1055852Y276586D01*
X1055536Y275000D01*
X1055852Y273414D01*
X1056750Y272070D01*
X1058094Y271172D01*
X1059680Y270856D01*
X1061266Y271172D01*
X1062610Y272070D01*
X1063508Y273414D01*
X1063824Y275000D01*
X1063508Y276586D01*
X1062610Y277930D01*
X1061266Y278828D01*
X1059680Y279144D01*
D02*
G37*
G36*
X1042000D02*
X1040414Y278828D01*
X1039070Y277930D01*
X1038172Y276586D01*
X1037856Y275000D01*
X1038172Y273414D01*
X1039070Y272070D01*
X1040414Y271172D01*
X1042000Y270856D01*
X1043586Y271172D01*
X1044930Y272070D01*
X1045828Y273414D01*
X1046144Y275000D01*
X1045828Y276586D01*
X1044930Y277930D01*
X1043586Y278828D01*
X1042000Y279144D01*
D02*
G37*
G36*
X995250Y279025D02*
X993664Y278710D01*
X992320Y277812D01*
X991422Y276467D01*
X991106Y274882D01*
X991422Y273296D01*
X992320Y271952D01*
X993664Y271054D01*
X995250Y270738D01*
X996836Y271054D01*
X998180Y271952D01*
X999078Y273296D01*
X999394Y274882D01*
X999078Y276467D01*
X998180Y277812D01*
X996836Y278710D01*
X995250Y279025D01*
D02*
G37*
G36*
X1210000Y284925D02*
X1208414Y284610D01*
X1207070Y283712D01*
X1206172Y282367D01*
X1205856Y280782D01*
X1206172Y279196D01*
X1207070Y277852D01*
X1206502Y276704D01*
X1205922Y275836D01*
X1205606Y274250D01*
X1205922Y272664D01*
X1206820Y271320D01*
X1208164Y270422D01*
X1209750Y270106D01*
X1211336Y270422D01*
X1212680Y271320D01*
X1213578Y272664D01*
X1213894Y274250D01*
X1213578Y275836D01*
X1212680Y277180D01*
X1213248Y278328D01*
X1213828Y279196D01*
X1214144Y280782D01*
X1213828Y282367D01*
X1212930Y283712D01*
X1211586Y284610D01*
X1210000Y284925D01*
D02*
G37*
G36*
X736346Y278068D02*
X734760Y277752D01*
X733416Y276854D01*
X732518Y275510D01*
X732202Y273924D01*
X732518Y272338D01*
X733416Y270994D01*
X734760Y270096D01*
X736346Y269780D01*
X737932Y270096D01*
X739276Y270994D01*
X740174Y272338D01*
X740490Y273924D01*
X740174Y275510D01*
X739276Y276854D01*
X737932Y277752D01*
X736346Y278068D01*
D02*
G37*
G36*
X1116500Y276394D02*
X1114914Y276078D01*
X1113570Y275180D01*
X1112672Y273836D01*
X1112356Y272250D01*
X1112672Y270664D01*
X1113570Y269320D01*
X1114914Y268422D01*
X1116500Y268106D01*
X1118086Y268422D01*
X1119430Y269320D01*
X1120328Y270664D01*
X1120644Y272250D01*
X1120328Y273836D01*
X1119430Y275180D01*
X1118086Y276078D01*
X1116500Y276394D01*
D02*
G37*
G36*
X155448Y275670D02*
X153862Y275354D01*
X152518Y274456D01*
X151620Y273112D01*
X151304Y271526D01*
X151620Y269940D01*
X152518Y268596D01*
X153862Y267698D01*
X155448Y267382D01*
X157034Y267698D01*
X158378Y268596D01*
X159276Y269940D01*
X159592Y271526D01*
X159276Y273112D01*
X158378Y274456D01*
X157034Y275354D01*
X155448Y275670D01*
D02*
G37*
G36*
X987000Y270894D02*
X985414Y270578D01*
X984070Y269680D01*
X983172Y268336D01*
X982856Y266750D01*
X983172Y265164D01*
X983355Y264890D01*
X982439Y263975D01*
X981716Y264458D01*
X980130Y264774D01*
X978544Y264458D01*
X977200Y263560D01*
X976302Y262216D01*
X975986Y260630D01*
X976302Y259044D01*
X977200Y257700D01*
X978544Y256802D01*
X980130Y256486D01*
X981716Y256802D01*
X983060Y257700D01*
X983958Y259044D01*
X984274Y260630D01*
X983958Y262216D01*
X983775Y262489D01*
X984691Y263405D01*
X985414Y262922D01*
X987000Y262606D01*
X988586Y262922D01*
X989930Y263820D01*
X990828Y265164D01*
X991144Y266750D01*
X990828Y268336D01*
X989930Y269680D01*
X988586Y270578D01*
X987000Y270894D01*
D02*
G37*
G36*
X165100Y270590D02*
X163514Y270274D01*
X162170Y269376D01*
X161272Y268032D01*
X160956Y266446D01*
X161272Y264860D01*
X162170Y263516D01*
X163514Y262618D01*
X165100Y262302D01*
X166686Y262618D01*
X168030Y263516D01*
X168928Y264860D01*
X169244Y266446D01*
X168928Y268032D01*
X168030Y269376D01*
X166686Y270274D01*
X165100Y270590D01*
D02*
G37*
G36*
X1231960Y269854D02*
X1230374Y269538D01*
X1229030Y268640D01*
X1228132Y267296D01*
X1227816Y265710D01*
X1228132Y264124D01*
X1229030Y262780D01*
X1230374Y261882D01*
X1231960Y261566D01*
X1233546Y261882D01*
X1234890Y262780D01*
X1235788Y264124D01*
X1236104Y265710D01*
X1235788Y267296D01*
X1234890Y268640D01*
X1233546Y269538D01*
X1231960Y269854D01*
D02*
G37*
G36*
X866186Y274144D02*
X864600Y273828D01*
X863256Y272930D01*
X862358Y271586D01*
X862042Y270000D01*
X862358Y268414D01*
X863256Y267070D01*
X864600Y266172D01*
X866186Y265856D01*
X867772Y266172D01*
X869116Y267070D01*
X869127Y267087D01*
X870323Y266591D01*
X870106Y265500D01*
X870422Y263914D01*
X871320Y262570D01*
X872664Y261672D01*
X874250Y261356D01*
X875836Y261672D01*
X877180Y262570D01*
X878078Y263914D01*
X878394Y265500D01*
X878078Y267086D01*
X877180Y268430D01*
X875836Y269328D01*
X874250Y269644D01*
X872664Y269328D01*
X871320Y268430D01*
X871309Y268413D01*
X870113Y268909D01*
X870330Y270000D01*
X870014Y271586D01*
X869116Y272930D01*
X867772Y273828D01*
X866186Y274144D01*
D02*
G37*
G36*
X1143500Y273546D02*
X1141914Y273230D01*
X1140570Y272332D01*
X1139672Y270988D01*
X1139356Y269402D01*
X1139672Y267817D01*
X1140359Y266789D01*
X1140320Y266763D01*
X1139422Y265418D01*
X1139106Y263833D01*
X1139422Y262247D01*
X1140320Y260903D01*
X1141664Y260005D01*
X1143250Y259689D01*
X1144836Y260005D01*
X1146180Y260903D01*
X1147078Y262247D01*
X1147394Y263833D01*
X1147078Y265418D01*
X1146391Y266446D01*
X1146430Y266472D01*
X1147328Y267817D01*
X1147644Y269402D01*
X1147328Y270988D01*
X1146430Y272332D01*
X1145086Y273230D01*
X1143500Y273546D01*
D02*
G37*
G36*
X1065220Y266924D02*
X1063634Y266608D01*
X1062290Y265710D01*
X1061392Y264366D01*
X1061076Y262780D01*
X1061392Y261194D01*
X1062290Y259850D01*
X1063634Y258952D01*
X1065220Y258636D01*
X1066806Y258952D01*
X1068150Y259850D01*
X1069048Y261194D01*
X1069364Y262780D01*
X1069048Y264366D01*
X1068150Y265710D01*
X1066806Y266608D01*
X1065220Y266924D01*
D02*
G37*
G36*
X720500Y264774D02*
X718914Y264458D01*
X717570Y263560D01*
X716672Y262216D01*
X716356Y260630D01*
X716672Y259044D01*
X717570Y257700D01*
X718914Y256802D01*
X720500Y256486D01*
X722086Y256802D01*
X723430Y257700D01*
X724328Y259044D01*
X724644Y260630D01*
X724328Y262216D01*
X723430Y263560D01*
X722086Y264458D01*
X720500Y264774D01*
D02*
G37*
G36*
X1197500Y264144D02*
X1195914Y263828D01*
X1194570Y262930D01*
X1193672Y261586D01*
X1193356Y260000D01*
X1193672Y258414D01*
X1194570Y257070D01*
X1195914Y256172D01*
X1197500Y255856D01*
X1199086Y256172D01*
X1200430Y257070D01*
X1201328Y258414D01*
X1201644Y260000D01*
X1201328Y261586D01*
X1200430Y262930D01*
X1199086Y263828D01*
X1197500Y264144D01*
D02*
G37*
G36*
X883500D02*
X881914Y263828D01*
X880570Y262930D01*
X879672Y261586D01*
X879356Y260000D01*
X879672Y258414D01*
X880570Y257070D01*
X881914Y256172D01*
X883500Y255856D01*
X885086Y256172D01*
X886430Y257070D01*
X887328Y258414D01*
X887644Y260000D01*
X887328Y261586D01*
X886430Y262930D01*
X885086Y263828D01*
X883500Y264144D01*
D02*
G37*
G36*
X733085Y261559D02*
X731499Y261243D01*
X730155Y260345D01*
X729257Y259001D01*
X728941Y257415D01*
X729257Y255829D01*
X730155Y254485D01*
X731499Y253587D01*
X733085Y253271D01*
X734671Y253587D01*
X736015Y254485D01*
X736913Y255829D01*
X737229Y257415D01*
X736913Y259001D01*
X736015Y260345D01*
X734671Y261243D01*
X733085Y261559D01*
D02*
G37*
G36*
X451104Y256874D02*
X449518Y256558D01*
X448174Y255660D01*
X447276Y254316D01*
X446960Y252730D01*
X447276Y251144D01*
X448174Y249800D01*
X449518Y248902D01*
X451104Y248586D01*
X452690Y248902D01*
X454034Y249800D01*
X454932Y251144D01*
X455248Y252730D01*
X454932Y254316D01*
X454034Y255660D01*
X452690Y256558D01*
X451104Y256874D01*
D02*
G37*
G36*
X997000Y264144D02*
X995414Y263828D01*
X994070Y262930D01*
X993172Y261586D01*
X992856Y260000D01*
X993172Y258414D01*
X994070Y257070D01*
X995414Y256172D01*
X995521Y256150D01*
X995579Y255995D01*
X995655Y254829D01*
X994594Y254120D01*
X993696Y252776D01*
X993380Y251190D01*
X993696Y249604D01*
X994594Y248260D01*
X995938Y247362D01*
X997524Y247046D01*
X999110Y247362D01*
X1000454Y248260D01*
X1001352Y249604D01*
X1001668Y251190D01*
X1001352Y252776D01*
X1000454Y254120D01*
X999110Y255018D01*
X999003Y255039D01*
X998946Y255195D01*
X998869Y256361D01*
X999930Y257070D01*
X1000828Y258414D01*
X1001144Y260000D01*
X1000828Y261586D01*
X999930Y262930D01*
X998586Y263828D01*
X997000Y264144D01*
D02*
G37*
G36*
X931750Y252644D02*
X930164Y252328D01*
X928820Y251430D01*
X927922Y250086D01*
X927606Y248500D01*
X927922Y246914D01*
X928820Y245570D01*
X930164Y244672D01*
X931750Y244356D01*
X933336Y244672D01*
X934680Y245570D01*
X935578Y246914D01*
X935894Y248500D01*
X935578Y250086D01*
X934680Y251430D01*
X933336Y252328D01*
X931750Y252644D01*
D02*
G37*
G36*
X944326Y252584D02*
X942740Y252269D01*
X941396Y251371D01*
X940497Y250026D01*
X940182Y248441D01*
X940497Y246855D01*
X941396Y245511D01*
X942740Y244613D01*
X944326Y244297D01*
X945911Y244613D01*
X947256Y245511D01*
X948154Y246855D01*
X948469Y248441D01*
X948154Y250026D01*
X947256Y251371D01*
X945911Y252269D01*
X944326Y252584D01*
D02*
G37*
G36*
X690800Y248967D02*
X688479Y248661D01*
X686317Y247765D01*
X684460Y246340D01*
X683035Y244483D01*
X682230Y242541D01*
X681505Y242149D01*
X680811Y241962D01*
X680619Y242090D01*
X679033Y242405D01*
X677447Y242090D01*
X676103Y241192D01*
X675205Y239847D01*
X674890Y238262D01*
X675205Y236676D01*
X676103Y235332D01*
X677447Y234433D01*
X679033Y234118D01*
X680619Y234433D01*
X681786Y235213D01*
X682151Y235302D01*
X683344Y235113D01*
X684460Y233660D01*
X686317Y232235D01*
X688479Y231339D01*
X690800Y231033D01*
X693121Y231339D01*
X695283Y232235D01*
X697140Y233660D01*
X698565Y235517D01*
X699461Y237679D01*
X699767Y240000D01*
X699461Y242321D01*
X698565Y244483D01*
X697140Y246340D01*
X695283Y247765D01*
X693121Y248661D01*
X690800Y248967D01*
D02*
G37*
G36*
X775250Y244800D02*
X773664Y244484D01*
X772320Y243586D01*
X771422Y242242D01*
X771106Y240656D01*
X771309Y239639D01*
X770411Y238577D01*
X770331Y238538D01*
X769802Y238644D01*
X768216Y238328D01*
X766872Y237430D01*
X765974Y236086D01*
X765658Y234500D01*
X765974Y232914D01*
X766659Y231888D01*
X765744Y230973D01*
X765586Y231078D01*
X764000Y231394D01*
X762414Y231078D01*
X761070Y230180D01*
X760172Y228836D01*
X759856Y227250D01*
X760172Y225664D01*
X761070Y224320D01*
X762414Y223422D01*
X764000Y223106D01*
X765586Y223422D01*
X766930Y224320D01*
X767828Y225664D01*
X768144Y227250D01*
X767828Y228836D01*
X767143Y229862D01*
X768058Y230777D01*
X768216Y230672D01*
X769802Y230356D01*
X771388Y230672D01*
X772732Y231570D01*
X773630Y232914D01*
X773946Y234500D01*
X773743Y235517D01*
X774641Y236579D01*
X774721Y236618D01*
X775250Y236512D01*
X776836Y236828D01*
X778180Y237726D01*
X779078Y239070D01*
X779394Y240656D01*
X779078Y242242D01*
X778180Y243586D01*
X776836Y244484D01*
X775250Y244800D01*
D02*
G37*
G36*
X721106Y245190D02*
X719520Y244874D01*
X718176Y243976D01*
X717278Y242632D01*
X716962Y241046D01*
X717278Y239460D01*
X718176Y238116D01*
X719520Y237218D01*
X721106Y236902D01*
X722692Y237218D01*
X724036Y238116D01*
X724934Y239460D01*
X725250Y241046D01*
X724934Y242632D01*
X724036Y243976D01*
X722692Y244874D01*
X721106Y245190D01*
D02*
G37*
G36*
X1185558Y243905D02*
X1183972Y243590D01*
X1182628Y242692D01*
X1181730Y241347D01*
X1181414Y239762D01*
X1181730Y238176D01*
X1182628Y236832D01*
X1183972Y235933D01*
X1185558Y235618D01*
X1187143Y235933D01*
X1188488Y236832D01*
X1189386Y238176D01*
X1189702Y239762D01*
X1189386Y241347D01*
X1188488Y242692D01*
X1187143Y243590D01*
X1185558Y243905D01*
D02*
G37*
G36*
X820926Y243144D02*
X819340Y242828D01*
X817996Y241930D01*
X817098Y240586D01*
X816782Y239000D01*
X817098Y237414D01*
X817996Y236070D01*
X819340Y235172D01*
X820926Y234856D01*
X822512Y235172D01*
X823856Y236070D01*
X824754Y237414D01*
X825070Y239000D01*
X824754Y240586D01*
X823856Y241930D01*
X822512Y242828D01*
X820926Y243144D01*
D02*
G37*
G36*
X302260Y242904D02*
X300674Y242588D01*
X299330Y241690D01*
X298432Y240346D01*
X298116Y238760D01*
X298432Y237174D01*
X299330Y235830D01*
X300674Y234932D01*
X302260Y234616D01*
X303846Y234932D01*
X305190Y235830D01*
X306088Y237174D01*
X306404Y238760D01*
X306088Y240346D01*
X305190Y241690D01*
X303846Y242588D01*
X302260Y242904D01*
D02*
G37*
G36*
X1196308Y242655D02*
X1194723Y242340D01*
X1193378Y241442D01*
X1192480Y240097D01*
X1192165Y238512D01*
X1192480Y236926D01*
X1193378Y235582D01*
X1194723Y234683D01*
X1196308Y234368D01*
X1197894Y234683D01*
X1199238Y235582D01*
X1200137Y236926D01*
X1200452Y238512D01*
X1200137Y240097D01*
X1199238Y241442D01*
X1197894Y242340D01*
X1196308Y242655D01*
D02*
G37*
G36*
X929306Y240110D02*
X927720Y239794D01*
X926376Y238896D01*
X925478Y237552D01*
X925162Y235966D01*
X925478Y234380D01*
X926376Y233036D01*
X927720Y232138D01*
X929306Y231822D01*
X930892Y232138D01*
X932236Y233036D01*
X933134Y234380D01*
X933450Y235966D01*
X933134Y237552D01*
X932236Y238896D01*
X930892Y239794D01*
X929306Y240110D01*
D02*
G37*
G36*
X1030750Y239894D02*
X1029164Y239578D01*
X1027820Y238680D01*
X1026922Y237336D01*
X1026606Y235750D01*
X1026922Y234164D01*
X1027820Y232820D01*
X1029164Y231922D01*
X1030750Y231606D01*
X1032336Y231922D01*
X1033680Y232820D01*
X1034578Y234164D01*
X1034894Y235750D01*
X1034578Y237336D01*
X1033680Y238680D01*
X1032336Y239578D01*
X1030750Y239894D01*
D02*
G37*
G36*
X401113Y239822D02*
X399527Y239507D01*
X398183Y238609D01*
X397284Y237264D01*
X396969Y235679D01*
X397284Y234093D01*
X398183Y232749D01*
X399527Y231850D01*
X401113Y231535D01*
X402698Y231850D01*
X404043Y232749D01*
X404941Y234093D01*
X405256Y235679D01*
X404941Y237264D01*
X404043Y238609D01*
X402698Y239507D01*
X401113Y239822D01*
D02*
G37*
G36*
X940131Y239013D02*
X938545Y238698D01*
X937201Y237799D01*
X936302Y236455D01*
X935987Y234869D01*
X936302Y233284D01*
X937201Y231939D01*
X938545Y231041D01*
X940131Y230726D01*
X941716Y231041D01*
X943061Y231939D01*
X943959Y233284D01*
X944274Y234869D01*
X943959Y236455D01*
X943061Y237799D01*
X941716Y238698D01*
X940131Y239013D01*
D02*
G37*
G36*
X728756Y239318D02*
X727170Y239002D01*
X725826Y238104D01*
X724928Y236760D01*
X724612Y235174D01*
X724928Y233589D01*
X725826Y232244D01*
X727170Y231346D01*
X728756Y231031D01*
X730341Y231346D01*
X730350Y231352D01*
X731265Y230436D01*
X731248Y230410D01*
X730932Y228824D01*
X731248Y227238D01*
X732146Y225894D01*
X733490Y224996D01*
X735076Y224680D01*
X736662Y224996D01*
X738006Y225894D01*
X738904Y227238D01*
X739220Y228824D01*
X738904Y230410D01*
X738006Y231754D01*
X736662Y232652D01*
X735076Y232968D01*
X733490Y232652D01*
X733482Y232647D01*
X732566Y233562D01*
X732584Y233589D01*
X732899Y235174D01*
X732584Y236760D01*
X731686Y238104D01*
X730341Y239002D01*
X728756Y239318D01*
D02*
G37*
G36*
X1211750Y232644D02*
X1210164Y232328D01*
X1208820Y231430D01*
X1207922Y230086D01*
X1207606Y228500D01*
X1207922Y226914D01*
X1208820Y225570D01*
X1210164Y224672D01*
X1211750Y224356D01*
X1213336Y224672D01*
X1214680Y225570D01*
X1215578Y226914D01*
X1215894Y228500D01*
X1215578Y230086D01*
X1214680Y231430D01*
X1213336Y232328D01*
X1211750Y232644D01*
D02*
G37*
G36*
X1015702Y232236D02*
X1014116Y231920D01*
X1012772Y231022D01*
X1011874Y229678D01*
X1011558Y228092D01*
X1011874Y226506D01*
X1012772Y225162D01*
X1014116Y224264D01*
X1015702Y223948D01*
X1017288Y224264D01*
X1018632Y225162D01*
X1019530Y226506D01*
X1019846Y228092D01*
X1019530Y229678D01*
X1018632Y231022D01*
X1017288Y231920D01*
X1015702Y232236D01*
D02*
G37*
G36*
X365760Y234268D02*
X364174Y233952D01*
X362830Y233054D01*
X361932Y231710D01*
X361616Y230124D01*
X361932Y228538D01*
X362824Y227203D01*
X361932Y225868D01*
X361616Y224282D01*
X361932Y222696D01*
X362830Y221352D01*
X364174Y220454D01*
X365760Y220138D01*
X367346Y220454D01*
X368690Y221352D01*
X369588Y222696D01*
X369904Y224282D01*
X369588Y225868D01*
X368696Y227203D01*
X369588Y228538D01*
X369904Y230124D01*
X369588Y231710D01*
X368690Y233054D01*
X367346Y233952D01*
X365760Y234268D01*
D02*
G37*
G36*
X382016Y234776D02*
X380430Y234460D01*
X379086Y233562D01*
X378188Y232218D01*
X377872Y230632D01*
X378188Y229046D01*
X379086Y227702D01*
X379390Y227499D01*
Y226516D01*
X379252Y226064D01*
X378442Y224852D01*
X378126Y223266D01*
X378442Y221680D01*
X379340Y220336D01*
X380684Y219438D01*
X382270Y219122D01*
X383856Y219438D01*
X385200Y220336D01*
X386098Y221680D01*
X386414Y223266D01*
X386098Y224852D01*
X385200Y226196D01*
X384896Y226399D01*
Y227381D01*
X385034Y227834D01*
X385844Y229046D01*
X386160Y230632D01*
X385844Y232218D01*
X384946Y233562D01*
X383602Y234460D01*
X382016Y234776D01*
D02*
G37*
G36*
X454406Y240398D02*
X452820Y240082D01*
X451476Y239184D01*
X450578Y237840D01*
X450262Y236254D01*
X450544Y234839D01*
X449849Y233648D01*
X449518Y233582D01*
X448174Y232684D01*
X447276Y231340D01*
X446960Y229754D01*
X447276Y228168D01*
X448174Y226824D01*
X449518Y225926D01*
X449849Y225860D01*
X450498Y224436D01*
X450262Y223254D01*
X450578Y221668D01*
X451476Y220324D01*
X452820Y219426D01*
X454406Y219110D01*
X455992Y219426D01*
X457336Y220324D01*
X458234Y221668D01*
X458550Y223254D01*
X458234Y224840D01*
X457336Y226184D01*
X455992Y227082D01*
X455662Y227148D01*
X455013Y228572D01*
X455248Y229754D01*
X454966Y231169D01*
X455662Y232360D01*
X455992Y232426D01*
X457336Y233324D01*
X458234Y234668D01*
X458550Y236254D01*
X458234Y237840D01*
X457336Y239184D01*
X455992Y240082D01*
X454406Y240398D01*
D02*
G37*
G36*
X561632Y235576D02*
X560047Y235261D01*
X558702Y234362D01*
X557804Y233018D01*
X557489Y231432D01*
X557804Y229847D01*
X558702Y228502D01*
X560047Y227604D01*
X560953Y227424D01*
X560832Y226203D01*
X560278Y226093D01*
X559246Y225888D01*
X557902Y224990D01*
X557004Y223645D01*
X556688Y222060D01*
X557004Y220474D01*
X557327Y219991D01*
X556411Y219075D01*
X555814Y219474D01*
X554228Y219790D01*
X552642Y219474D01*
X551298Y218576D01*
X550400Y217232D01*
X550084Y215646D01*
X550400Y214060D01*
X551298Y212716D01*
X552642Y211818D01*
X554228Y211502D01*
X555814Y211818D01*
X556198Y212074D01*
X556884Y211631D01*
X557227Y211235D01*
X556942Y209804D01*
X557227Y208373D01*
X556884Y207977D01*
X556198Y207534D01*
X555814Y207790D01*
X554228Y208106D01*
X552642Y207790D01*
X551298Y206892D01*
X550400Y205548D01*
X550084Y203962D01*
X550400Y202376D01*
X551298Y201032D01*
X552642Y200134D01*
X554228Y199818D01*
X555814Y200134D01*
X557158Y201032D01*
X558056Y202376D01*
X558372Y203962D01*
X558087Y205393D01*
X558429Y205789D01*
X559116Y206232D01*
X559500Y205976D01*
X561086Y205660D01*
X562672Y205976D01*
X564016Y206874D01*
X564914Y208218D01*
X565230Y209804D01*
X564914Y211390D01*
X564016Y212734D01*
X562672Y213632D01*
X561086Y213948D01*
X559500Y213632D01*
X559116Y213376D01*
X558429Y213819D01*
X558087Y214215D01*
X558372Y215646D01*
X558056Y217232D01*
X557733Y217715D01*
X558649Y218631D01*
X559246Y218232D01*
X560832Y217916D01*
X562418Y218232D01*
X563762Y219130D01*
X564660Y220474D01*
X564976Y222060D01*
X564660Y223645D01*
X563762Y224990D01*
X562418Y225888D01*
X561511Y226068D01*
X561632Y227289D01*
X562187Y227399D01*
X563218Y227604D01*
X564562Y228502D01*
X565461Y229847D01*
X565776Y231432D01*
X565461Y233018D01*
X564562Y234362D01*
X563218Y235261D01*
X561632Y235576D01*
D02*
G37*
G36*
X725170Y221822D02*
X723584Y221506D01*
X722240Y220608D01*
X721342Y219264D01*
X721064Y217868D01*
X720671Y217473D01*
X719865Y217008D01*
X718566Y217266D01*
X716980Y216950D01*
X715636Y216052D01*
X714738Y214708D01*
X714422Y213122D01*
X714738Y211537D01*
X715636Y210192D01*
X716980Y209294D01*
X718566Y208979D01*
X720152Y209294D01*
X720385Y209450D01*
X721243Y208684D01*
X721334Y208557D01*
X721026Y207010D01*
X721083Y206725D01*
X719965Y205945D01*
X718379Y206260D01*
X716794Y205945D01*
X715449Y205047D01*
X714551Y203702D01*
X714236Y202117D01*
X714551Y200531D01*
X715449Y199187D01*
X716794Y198288D01*
X718379Y197973D01*
X719965Y198288D01*
X721309Y199187D01*
X722208Y200531D01*
X722523Y202117D01*
X722466Y202401D01*
X723584Y203182D01*
X725170Y202866D01*
X726756Y203182D01*
X728100Y204080D01*
X728998Y205424D01*
X729314Y207010D01*
X728998Y208596D01*
X728100Y209940D01*
X726756Y210838D01*
X725170Y211154D01*
X723584Y210838D01*
X723351Y210682D01*
X722493Y211448D01*
X722402Y211576D01*
X722672Y212932D01*
X723065Y213327D01*
X723871Y213793D01*
X725170Y213534D01*
X726756Y213850D01*
X728100Y214748D01*
X728998Y216092D01*
X729314Y217678D01*
X728998Y219264D01*
X728100Y220608D01*
X726756Y221506D01*
X725170Y221822D01*
D02*
G37*
G36*
X995680Y231220D02*
X994094Y230904D01*
X992750Y230006D01*
X991852Y228662D01*
X991536Y227076D01*
X991852Y225490D01*
X992075Y225156D01*
X992496Y223910D01*
X991598Y222566D01*
X991282Y220980D01*
X991598Y219394D01*
X992496Y218050D01*
X993840Y217152D01*
X995426Y216836D01*
X997012Y217152D01*
X998356Y218050D01*
X999254Y219394D01*
X999570Y220980D01*
X999254Y222566D01*
X999031Y222900D01*
X998610Y224146D01*
X999508Y225490D01*
X999824Y227076D01*
X999508Y228662D01*
X998610Y230006D01*
X997266Y230904D01*
X995680Y231220D01*
D02*
G37*
G36*
X660081Y224870D02*
X658495Y224554D01*
X657151Y223656D01*
X656253Y222312D01*
X655937Y220726D01*
X656253Y219140D01*
X657151Y217796D01*
X658495Y216898D01*
X660081Y216582D01*
X661666Y216898D01*
X663011Y217796D01*
X663909Y219140D01*
X664224Y220726D01*
X663909Y222312D01*
X663011Y223656D01*
X661666Y224554D01*
X660081Y224870D01*
D02*
G37*
G36*
X1127637Y224824D02*
X1126051Y224508D01*
X1124707Y223610D01*
X1123809Y222266D01*
X1123493Y220680D01*
X1123809Y219094D01*
X1124707Y217750D01*
X1126051Y216852D01*
X1127637Y216536D01*
X1129223Y216852D01*
X1130567Y217750D01*
X1131465Y219094D01*
X1131781Y220680D01*
X1131465Y222266D01*
X1130567Y223610D01*
X1129223Y224508D01*
X1127637Y224824D01*
D02*
G37*
G36*
X1015492Y222584D02*
X1013906Y222268D01*
X1012562Y221370D01*
X1011664Y220026D01*
X1011348Y218440D01*
X1011664Y216854D01*
X1012562Y215510D01*
X1013906Y214612D01*
X1015492Y214296D01*
X1017078Y214612D01*
X1018422Y215510D01*
X1019320Y216854D01*
X1019636Y218440D01*
X1019320Y220026D01*
X1018422Y221370D01*
X1017078Y222268D01*
X1015492Y222584D01*
D02*
G37*
G36*
X472327Y220898D02*
X470742Y220582D01*
X469397Y219684D01*
X468499Y218340D01*
X468184Y216754D01*
X468499Y215168D01*
X469397Y213824D01*
X470742Y212926D01*
X472327Y212610D01*
X473913Y212926D01*
X475257Y213824D01*
X476155Y215168D01*
X476471Y216754D01*
X476155Y218340D01*
X475257Y219684D01*
X473913Y220582D01*
X472327Y220898D01*
D02*
G37*
G36*
X1107186Y225632D02*
X1105600Y225316D01*
X1104256Y224418D01*
X1103358Y223074D01*
X1103042Y221488D01*
X1103358Y219902D01*
X1104169Y218688D01*
X1104002Y218576D01*
X1103104Y217232D01*
X1102788Y215646D01*
X1103104Y214060D01*
X1104002Y212716D01*
X1105346Y211818D01*
X1106932Y211502D01*
X1108518Y211818D01*
X1109862Y212716D01*
X1110760Y214060D01*
X1111076Y215646D01*
X1110760Y217232D01*
X1109949Y218446D01*
X1110116Y218558D01*
X1111014Y219902D01*
X1111330Y221488D01*
X1111014Y223074D01*
X1110116Y224418D01*
X1108772Y225316D01*
X1107186Y225632D01*
D02*
G37*
G36*
X275232Y217504D02*
X273646Y217188D01*
X272302Y216290D01*
X271404Y214946D01*
X271088Y213360D01*
X271404Y211774D01*
X272302Y210430D01*
X273646Y209532D01*
X275232Y209216D01*
X276818Y209532D01*
X278162Y210430D01*
X279060Y211774D01*
X279376Y213360D01*
X279060Y214946D01*
X278162Y216290D01*
X276818Y217188D01*
X275232Y217504D01*
D02*
G37*
G36*
X348694Y217182D02*
X347108Y216867D01*
X345764Y215969D01*
X344866Y214624D01*
X344550Y213039D01*
X344866Y211453D01*
X345764Y210109D01*
X347108Y209210D01*
X348694Y208895D01*
X350280Y209210D01*
X351624Y210109D01*
X352522Y211453D01*
X352838Y213039D01*
X352522Y214624D01*
X351624Y215969D01*
X350280Y216867D01*
X348694Y217182D01*
D02*
G37*
G36*
X651256Y217038D02*
X649670Y216723D01*
X648326Y215824D01*
X647428Y214480D01*
X647112Y212894D01*
X647428Y211308D01*
X648326Y209964D01*
X649670Y209066D01*
X651256Y208751D01*
X652842Y209066D01*
X654186Y209964D01*
X655084Y211308D01*
X655400Y212894D01*
X655084Y214480D01*
X654186Y215824D01*
X652842Y216723D01*
X651256Y217038D01*
D02*
G37*
G36*
X904240Y214964D02*
X902654Y214648D01*
X901310Y213750D01*
X900412Y212406D01*
X900096Y210820D01*
X900412Y209234D01*
X901310Y207890D01*
X902654Y206992D01*
X904240Y206676D01*
X905826Y206992D01*
X907170Y207890D01*
X908068Y209234D01*
X908384Y210820D01*
X908068Y212406D01*
X907170Y213750D01*
X905826Y214648D01*
X904240Y214964D01*
D02*
G37*
G36*
X626872Y214710D02*
X625286Y214394D01*
X623942Y213496D01*
X623044Y212152D01*
X622728Y210566D01*
X623044Y208980D01*
X623942Y207636D01*
X625286Y206738D01*
X626872Y206422D01*
X628458Y206738D01*
X629802Y207636D01*
X630700Y208980D01*
X631016Y210566D01*
X630700Y212152D01*
X629802Y213496D01*
X628458Y214394D01*
X626872Y214710D01*
D02*
G37*
G36*
X464370Y214398D02*
X462784Y214082D01*
X461440Y213184D01*
X460542Y211840D01*
X460226Y210254D01*
X460542Y208668D01*
X461440Y207324D01*
X462784Y206426D01*
X464370Y206110D01*
X465956Y206426D01*
X467300Y207324D01*
X468198Y208668D01*
X468514Y210254D01*
X468198Y211840D01*
X467300Y213184D01*
X465956Y214082D01*
X464370Y214398D01*
D02*
G37*
G36*
X979772Y214388D02*
X978186Y214073D01*
X976842Y213175D01*
X975944Y211830D01*
X975628Y210245D01*
X975944Y208659D01*
X976842Y207315D01*
X978186Y206416D01*
X979772Y206101D01*
X981358Y206416D01*
X982702Y207315D01*
X983600Y208659D01*
X983916Y210245D01*
X983600Y211830D01*
X982702Y213175D01*
X981358Y214073D01*
X979772Y214388D01*
D02*
G37*
G36*
X1161250Y213144D02*
X1159664Y212828D01*
X1158320Y211930D01*
X1157422Y210586D01*
X1157106Y209000D01*
X1157422Y207414D01*
X1158320Y206070D01*
X1159664Y205172D01*
X1161250Y204856D01*
X1162836Y205172D01*
X1164180Y206070D01*
X1165078Y207414D01*
X1165394Y209000D01*
X1165078Y210586D01*
X1164180Y211930D01*
X1162836Y212828D01*
X1161250Y213144D01*
D02*
G37*
G36*
X1090168Y209122D02*
X1088582Y208806D01*
X1087238Y207908D01*
X1086340Y206564D01*
X1086024Y204978D01*
X1086340Y203392D01*
X1087238Y202048D01*
X1088582Y201150D01*
X1090168Y200834D01*
X1091754Y201150D01*
X1093098Y202048D01*
X1093996Y203392D01*
X1094312Y204978D01*
X1093996Y206564D01*
X1093098Y207908D01*
X1091754Y208806D01*
X1090168Y209122D01*
D02*
G37*
G36*
X671576Y207598D02*
X669990Y207282D01*
X668646Y206384D01*
X667748Y205040D01*
X667432Y203454D01*
X667748Y201868D01*
X668646Y200524D01*
X669990Y199626D01*
X671576Y199310D01*
X673162Y199626D01*
X674506Y200524D01*
X675404Y201868D01*
X675720Y203454D01*
X675404Y205040D01*
X674506Y206384D01*
X673162Y207282D01*
X671576Y207598D01*
D02*
G37*
G36*
X697150Y206836D02*
X695564Y206520D01*
X694220Y205622D01*
X693322Y204278D01*
X693006Y202692D01*
X693322Y201106D01*
X694220Y199762D01*
X695564Y198864D01*
X697150Y198548D01*
X698736Y198864D01*
X700080Y199762D01*
X700978Y201106D01*
X701294Y202692D01*
X700978Y204278D01*
X700080Y205622D01*
X698736Y206520D01*
X697150Y206836D01*
D02*
G37*
G36*
X685038D02*
X683452Y206520D01*
X682108Y205622D01*
X681210Y204278D01*
X680894Y202692D01*
X681210Y201106D01*
X682108Y199762D01*
X683452Y198864D01*
X685038Y198548D01*
X686624Y198864D01*
X687968Y199762D01*
X688866Y201106D01*
X689182Y202692D01*
X688866Y204278D01*
X687968Y205622D01*
X686624Y206520D01*
X685038Y206836D01*
D02*
G37*
G36*
X638302D02*
X636716Y206520D01*
X635372Y205622D01*
X634474Y204278D01*
X634158Y202692D01*
X634474Y201106D01*
X635372Y199762D01*
X636716Y198864D01*
X638302Y198548D01*
X639888Y198864D01*
X641232Y199762D01*
X642130Y201106D01*
X642446Y202692D01*
X642130Y204278D01*
X641232Y205622D01*
X639888Y206520D01*
X638302Y206836D01*
D02*
G37*
G36*
X348694Y206260D02*
X347108Y205945D01*
X345764Y205047D01*
X344866Y203702D01*
X344550Y202117D01*
X344866Y200531D01*
X345764Y199187D01*
X347108Y198288D01*
X348694Y197973D01*
X350280Y198288D01*
X351624Y199187D01*
X352522Y200531D01*
X352838Y202117D01*
X352522Y203702D01*
X351624Y205047D01*
X350280Y205945D01*
X348694Y206260D01*
D02*
G37*
G36*
X1127010Y205324D02*
X1125424Y205008D01*
X1124080Y204110D01*
X1123182Y202766D01*
X1122866Y201180D01*
X1123182Y199594D01*
X1124080Y198250D01*
X1125424Y197352D01*
X1127010Y197036D01*
X1128596Y197352D01*
X1129940Y198250D01*
X1130838Y199594D01*
X1131154Y201180D01*
X1130838Y202766D01*
X1129940Y204110D01*
X1128596Y205008D01*
X1127010Y205324D01*
D02*
G37*
G36*
X1229614Y204550D02*
X1228028Y204234D01*
X1226684Y203336D01*
X1225786Y201992D01*
X1225470Y200406D01*
X1225786Y198820D01*
X1226684Y197476D01*
X1228028Y196578D01*
X1229614Y196262D01*
X1231200Y196578D01*
X1232544Y197476D01*
X1233442Y198820D01*
X1233758Y200406D01*
X1233442Y201992D01*
X1232544Y203336D01*
X1231200Y204234D01*
X1229614Y204550D01*
D02*
G37*
G36*
X977392Y203466D02*
X975806Y203151D01*
X974462Y202253D01*
X973564Y200908D01*
X973248Y199323D01*
X973564Y197737D01*
X974462Y196393D01*
X975806Y195494D01*
X977392Y195179D01*
X978978Y195494D01*
X980322Y196393D01*
X981220Y197737D01*
X981536Y199323D01*
X981220Y200908D01*
X980322Y202253D01*
X978978Y203151D01*
X977392Y203466D01*
D02*
G37*
G36*
X285750Y202559D02*
X284164Y202244D01*
X282820Y201346D01*
X281922Y200001D01*
X281606Y198416D01*
X281922Y196830D01*
X282820Y195486D01*
X284164Y194587D01*
X285750Y194272D01*
X287336Y194587D01*
X288680Y195486D01*
X289578Y196830D01*
X289894Y198416D01*
X289578Y200001D01*
X288680Y201346D01*
X287336Y202244D01*
X285750Y202559D01*
D02*
G37*
G36*
X383286Y207852D02*
X381700Y207536D01*
X380356Y206638D01*
X379458Y205294D01*
X379142Y203708D01*
X379458Y202122D01*
X380112Y201144D01*
X380266Y200279D01*
X380112Y199414D01*
X379458Y198436D01*
X379142Y196850D01*
X379458Y195264D01*
X380356Y193920D01*
X381700Y193022D01*
X383286Y192706D01*
X384872Y193022D01*
X386216Y193920D01*
X387114Y195264D01*
X387430Y196850D01*
X387114Y198436D01*
X386460Y199414D01*
X386306Y200279D01*
X386460Y201144D01*
X387114Y202122D01*
X387430Y203708D01*
X387114Y205294D01*
X386216Y206638D01*
X384872Y207536D01*
X383286Y207852D01*
D02*
G37*
G36*
X1096010Y200740D02*
X1094424Y200424D01*
X1093080Y199526D01*
X1092182Y198182D01*
X1091866Y196596D01*
X1092182Y195010D01*
X1093080Y193666D01*
X1094424Y192768D01*
X1096010Y192452D01*
X1097596Y192768D01*
X1098940Y193666D01*
X1099838Y195010D01*
X1100154Y196596D01*
X1099838Y198182D01*
X1098940Y199526D01*
X1097596Y200424D01*
X1096010Y200740D01*
D02*
G37*
G36*
X916828Y199765D02*
X915242Y199450D01*
X913898Y198552D01*
X913000Y197207D01*
X912684Y195622D01*
X913000Y194036D01*
X913898Y192692D01*
X915242Y191793D01*
X916828Y191478D01*
X918414Y191793D01*
X919758Y192692D01*
X920656Y194036D01*
X920972Y195622D01*
X920656Y197207D01*
X919758Y198552D01*
X918414Y199450D01*
X916828Y199765D01*
D02*
G37*
G36*
X1159307Y198403D02*
X1157721Y198088D01*
X1156377Y197190D01*
X1155478Y195845D01*
X1155163Y194259D01*
X1155478Y192674D01*
X1156377Y191329D01*
X1157721Y190431D01*
X1159307Y190116D01*
X1160892Y190431D01*
X1162237Y191329D01*
X1163135Y192674D01*
X1163450Y194259D01*
X1163135Y195845D01*
X1162237Y197190D01*
X1160892Y198088D01*
X1159307Y198403D01*
D02*
G37*
G36*
X1014364Y205058D02*
X1012778Y204742D01*
X1011434Y203844D01*
X1010536Y202500D01*
X1010220Y200914D01*
X1010536Y199328D01*
X1011189Y198350D01*
X1011345Y197485D01*
X1011189Y196620D01*
X1010536Y195642D01*
X1010220Y194056D01*
X1010536Y192470D01*
X1011434Y191126D01*
X1012778Y190228D01*
X1014364Y189912D01*
X1015950Y190228D01*
X1017294Y191126D01*
X1018192Y192470D01*
X1018508Y194056D01*
X1018192Y195642D01*
X1017539Y196620D01*
X1017383Y197485D01*
X1017539Y198350D01*
X1018192Y199328D01*
X1018508Y200914D01*
X1018192Y202500D01*
X1017294Y203844D01*
X1015950Y204742D01*
X1014364Y205058D01*
D02*
G37*
G36*
X905256Y203466D02*
X903670Y203151D01*
X902326Y202253D01*
X901428Y200908D01*
X901112Y199323D01*
X901428Y197737D01*
X902266Y196483D01*
X901428Y195228D01*
X901112Y193643D01*
X901428Y192057D01*
X902326Y190713D01*
X903670Y189814D01*
X905256Y189499D01*
X906842Y189814D01*
X908186Y190713D01*
X909084Y192057D01*
X909400Y193643D01*
X909084Y195228D01*
X908246Y196483D01*
X909084Y197737D01*
X909400Y199323D01*
X909084Y200908D01*
X908186Y202253D01*
X906842Y203151D01*
X905256Y203466D01*
D02*
G37*
G36*
X473456Y200740D02*
X471870Y200424D01*
X470526Y199526D01*
X469628Y198182D01*
X469312Y196596D01*
X469628Y195010D01*
X470404Y193849D01*
X469628Y192688D01*
X469312Y191102D01*
X469628Y189517D01*
X470526Y188172D01*
X471870Y187274D01*
X473456Y186959D01*
X475042Y187274D01*
X476386Y188172D01*
X477284Y189517D01*
X477600Y191102D01*
X477284Y192688D01*
X476508Y193849D01*
X477284Y195010D01*
X477600Y196596D01*
X477284Y198182D01*
X476386Y199526D01*
X475042Y200424D01*
X473456Y200740D01*
D02*
G37*
G36*
X498602Y193628D02*
X497016Y193312D01*
X495672Y192414D01*
X494774Y191070D01*
X494458Y189484D01*
X494774Y187898D01*
X495672Y186554D01*
X497016Y185656D01*
X498602Y185340D01*
X500188Y185656D01*
X501532Y186554D01*
X502430Y187898D01*
X502746Y189484D01*
X502430Y191070D01*
X501532Y192414D01*
X500188Y193312D01*
X498602Y193628D01*
D02*
G37*
G36*
X675124Y192860D02*
X673538Y192544D01*
X672194Y191646D01*
X671296Y190302D01*
X670980Y188716D01*
X671296Y187130D01*
X672194Y185786D01*
X673538Y184888D01*
X675124Y184572D01*
X676710Y184888D01*
X678054Y185786D01*
X678952Y187130D01*
X679268Y188716D01*
X678952Y190302D01*
X678054Y191646D01*
X676710Y192544D01*
X675124Y192860D01*
D02*
G37*
G36*
X364998Y192786D02*
X363412Y192470D01*
X362068Y191572D01*
X361170Y190228D01*
X360854Y188642D01*
X361170Y187056D01*
X362068Y185712D01*
X363412Y184814D01*
X364998Y184498D01*
X366584Y184814D01*
X367928Y185712D01*
X368826Y187056D01*
X369142Y188642D01*
X368826Y190228D01*
X367928Y191572D01*
X366584Y192470D01*
X364998Y192786D01*
D02*
G37*
G36*
X275590Y197786D02*
X274004Y197471D01*
X272660Y196572D01*
X271762Y195228D01*
X271446Y193643D01*
X271762Y192057D01*
X272601Y190801D01*
X271762Y189546D01*
X271446Y187960D01*
X271762Y186374D01*
X272660Y185030D01*
X274004Y184132D01*
X275590Y183816D01*
X277176Y184132D01*
X278520Y185030D01*
X279418Y186374D01*
X279734Y187960D01*
X279418Y189546D01*
X278579Y190801D01*
X279418Y192057D01*
X279734Y193643D01*
X279418Y195228D01*
X278520Y196572D01*
X277176Y197471D01*
X275590Y197786D01*
D02*
G37*
G36*
X946150Y191642D02*
X944564Y191326D01*
X943220Y190428D01*
X942322Y189084D01*
X942006Y187498D01*
X942322Y185912D01*
X943220Y184568D01*
X944564Y183670D01*
X946150Y183354D01*
X947736Y183670D01*
X949080Y184568D01*
X949978Y185912D01*
X950294Y187498D01*
X949978Y189084D01*
X949080Y190428D01*
X947736Y191326D01*
X946150Y191642D01*
D02*
G37*
G36*
X174208Y196715D02*
X172622Y196399D01*
X171278Y195501D01*
X170380Y194157D01*
X170065Y192571D01*
X170380Y190986D01*
X171278Y189641D01*
X171314Y189617D01*
Y188858D01*
X170416Y187514D01*
X170100Y185928D01*
X170416Y184342D01*
X171314Y182998D01*
X172658Y182100D01*
X174244Y181784D01*
X175830Y182100D01*
X177174Y182998D01*
X178072Y184342D01*
X178388Y185928D01*
X178072Y187514D01*
X177174Y188858D01*
X177138Y188882D01*
Y189641D01*
X178036Y190986D01*
X178352Y192571D01*
X178036Y194157D01*
X177138Y195501D01*
X175794Y196399D01*
X174208Y196715D01*
D02*
G37*
G36*
X996076Y189992D02*
X994490Y189676D01*
X993146Y188778D01*
X992248Y187434D01*
X991932Y185848D01*
X992248Y184262D01*
X993146Y182918D01*
X994490Y182020D01*
X996076Y181704D01*
X997662Y182020D01*
X999006Y182918D01*
X999904Y184262D01*
X1000220Y185848D01*
X999904Y187434D01*
X999006Y188778D01*
X997662Y189676D01*
X996076Y189992D01*
D02*
G37*
G36*
X808228Y194136D02*
X806642Y193820D01*
X805298Y192922D01*
X804400Y191578D01*
X804084Y189992D01*
X804400Y188406D01*
X805207Y187198D01*
X804400Y185990D01*
X804084Y184404D01*
X804400Y182818D01*
X805298Y181474D01*
X806642Y180576D01*
X808228Y180260D01*
X809814Y180576D01*
X811158Y181474D01*
X812056Y182818D01*
X812372Y184404D01*
X812056Y185990D01*
X811249Y187198D01*
X812056Y188406D01*
X812372Y189992D01*
X812056Y191578D01*
X811158Y192922D01*
X809814Y193820D01*
X808228Y194136D01*
D02*
G37*
G36*
X411226Y187278D02*
X409640Y186962D01*
X408296Y186064D01*
X407398Y184720D01*
X407082Y183134D01*
X407398Y181548D01*
X408296Y180204D01*
X409640Y179306D01*
X411226Y178990D01*
X412812Y179306D01*
X414156Y180204D01*
X415054Y181548D01*
X415370Y183134D01*
X415054Y184720D01*
X414156Y186064D01*
X412812Y186962D01*
X411226Y187278D01*
D02*
G37*
G36*
X21396Y186068D02*
X19810Y185752D01*
X18466Y184854D01*
X17568Y183510D01*
X17252Y181924D01*
X17568Y180338D01*
X18466Y178994D01*
X19810Y178096D01*
X21396Y177780D01*
X22982Y178096D01*
X24326Y178994D01*
X25224Y180338D01*
X25540Y181924D01*
X25224Y183510D01*
X24326Y184854D01*
X22982Y185752D01*
X21396Y186068D01*
D02*
G37*
G36*
X317500Y185246D02*
X315914Y184930D01*
X314570Y184032D01*
X313672Y182688D01*
X313356Y181102D01*
X313672Y179516D01*
X314570Y178172D01*
X315914Y177274D01*
X317500Y176958D01*
X319086Y177274D01*
X320430Y178172D01*
X321328Y179516D01*
X321644Y181102D01*
X321328Y182688D01*
X320430Y184032D01*
X319086Y184930D01*
X317500Y185246D01*
D02*
G37*
G36*
X727456Y183356D02*
X725870Y183040D01*
X724526Y182142D01*
X723628Y180798D01*
X723312Y179212D01*
X723628Y177626D01*
X724526Y176282D01*
X725870Y175384D01*
X727456Y175069D01*
X729042Y175384D01*
X730386Y176282D01*
X731284Y177626D01*
X731600Y179212D01*
X731284Y180798D01*
X730386Y182142D01*
X729042Y183040D01*
X727456Y183356D01*
D02*
G37*
G36*
X544830Y182786D02*
X543244Y182470D01*
X541900Y181572D01*
X541002Y180228D01*
X540686Y178642D01*
X541002Y177056D01*
X541900Y175712D01*
X543244Y174814D01*
X544830Y174498D01*
X546416Y174814D01*
X547760Y175712D01*
X548658Y177056D01*
X548974Y178642D01*
X548658Y180228D01*
X547760Y181572D01*
X546416Y182470D01*
X544830Y182786D01*
D02*
G37*
G36*
X329608Y182114D02*
X328022Y181798D01*
X326678Y180900D01*
X325780Y179556D01*
X325464Y177970D01*
X325780Y176384D01*
X326678Y175040D01*
X328022Y174142D01*
X329608Y173826D01*
X331194Y174142D01*
X332538Y175040D01*
X333436Y176384D01*
X333752Y177970D01*
X333436Y179556D01*
X332538Y180900D01*
X331194Y181798D01*
X329608Y182114D01*
D02*
G37*
G36*
X1035558Y181690D02*
X1033972Y181374D01*
X1032628Y180476D01*
X1031730Y179132D01*
X1031414Y177546D01*
X1031730Y175960D01*
X1032628Y174616D01*
X1033972Y173718D01*
X1035558Y173402D01*
X1037144Y173718D01*
X1038488Y174616D01*
X1039386Y175960D01*
X1039702Y177546D01*
X1039386Y179132D01*
X1038488Y180476D01*
X1037144Y181374D01*
X1035558Y181690D01*
D02*
G37*
G36*
X481632Y179706D02*
X480046Y179390D01*
X478702Y178492D01*
X477804Y177148D01*
X477488Y175562D01*
X477804Y173976D01*
X478702Y172632D01*
X480046Y171734D01*
X481632Y171418D01*
X483218Y171734D01*
X484562Y172632D01*
X485460Y173976D01*
X485776Y175562D01*
X485460Y177148D01*
X484562Y178492D01*
X483218Y179390D01*
X481632Y179706D01*
D02*
G37*
G36*
X191122Y176750D02*
X189536Y176435D01*
X188192Y175536D01*
X187293Y174192D01*
X186978Y172607D01*
X187293Y171021D01*
X188192Y169676D01*
X189536Y168778D01*
X191122Y168463D01*
X192707Y168778D01*
X194051Y169676D01*
X194950Y171021D01*
X195265Y172607D01*
X194950Y174192D01*
X194051Y175536D01*
X192707Y176435D01*
X191122Y176750D01*
D02*
G37*
G36*
X827532Y176610D02*
X825946Y176294D01*
X824602Y175396D01*
X823704Y174052D01*
X823388Y172466D01*
X823704Y170880D01*
X824602Y169536D01*
X825946Y168638D01*
X827532Y168322D01*
X829118Y168638D01*
X830462Y169536D01*
X831360Y170880D01*
X831676Y172466D01*
X831360Y174052D01*
X830462Y175396D01*
X829118Y176294D01*
X827532Y176610D01*
D02*
G37*
G36*
X352498Y176156D02*
X350912Y175840D01*
X349568Y174942D01*
X348670Y173598D01*
X348354Y172012D01*
X348670Y170426D01*
X349568Y169082D01*
X350912Y168184D01*
X352498Y167868D01*
X354084Y168184D01*
X355428Y169082D01*
X356326Y170426D01*
X356642Y172012D01*
X356326Y173598D01*
X355428Y174942D01*
X354084Y175840D01*
X352498Y176156D01*
D02*
G37*
G36*
X377498Y176102D02*
X375912Y175786D01*
X374568Y174888D01*
X373670Y173544D01*
X373354Y171958D01*
X373670Y170372D01*
X374568Y169028D01*
X375912Y168130D01*
X377498Y167814D01*
X379084Y168130D01*
X380428Y169028D01*
X381326Y170372D01*
X381642Y171958D01*
X381326Y173544D01*
X380428Y174888D01*
X379084Y175786D01*
X377498Y176102D01*
D02*
G37*
G36*
X1241878Y198404D02*
X1238885Y198109D01*
X1236006Y197236D01*
X1233353Y195818D01*
X1231028Y193910D01*
X1229120Y191585D01*
X1227702Y188932D01*
X1226829Y186053D01*
X1226534Y183060D01*
X1226829Y180067D01*
X1227702Y177188D01*
X1229120Y174535D01*
X1231028Y172210D01*
X1233353Y170302D01*
X1236006Y168884D01*
X1238885Y168011D01*
X1241878Y167716D01*
X1244872Y168011D01*
X1247750Y168884D01*
X1250403Y170302D01*
X1252728Y172210D01*
X1254636Y174535D01*
X1256054Y177188D01*
X1256927Y180067D01*
X1257222Y183060D01*
X1256927Y186053D01*
X1256054Y188932D01*
X1254636Y191585D01*
X1252728Y193910D01*
X1250403Y195818D01*
X1247750Y197236D01*
X1244872Y198109D01*
X1241878Y198404D01*
D02*
G37*
G36*
X1191078D02*
X1188085Y198109D01*
X1185206Y197236D01*
X1182553Y195818D01*
X1180228Y193910D01*
X1178320Y191585D01*
X1176902Y188932D01*
X1176029Y186053D01*
X1175734Y183060D01*
X1176029Y180067D01*
X1176902Y177188D01*
X1178320Y174535D01*
X1180228Y172210D01*
X1182553Y170302D01*
X1185206Y168884D01*
X1188085Y168011D01*
X1191078Y167716D01*
X1194072Y168011D01*
X1196950Y168884D01*
X1199603Y170302D01*
X1201928Y172210D01*
X1203836Y174535D01*
X1205254Y177188D01*
X1206127Y180067D01*
X1206422Y183060D01*
X1206127Y186053D01*
X1205254Y188932D01*
X1203836Y191585D01*
X1201928Y193910D01*
X1199603Y195818D01*
X1196950Y197236D01*
X1194072Y198109D01*
X1191078Y198404D01*
D02*
G37*
G36*
X960036Y175002D02*
X958450Y174686D01*
X957106Y173788D01*
X956208Y172444D01*
X955892Y170858D01*
X956208Y169272D01*
X957106Y167928D01*
X958450Y167030D01*
X960036Y166714D01*
X961622Y167030D01*
X962966Y167928D01*
X963864Y169272D01*
X964180Y170858D01*
X963864Y172444D01*
X962966Y173788D01*
X961622Y174686D01*
X960036Y175002D01*
D02*
G37*
G36*
X1011482Y172800D02*
X1009896Y172484D01*
X1008552Y171586D01*
X1007654Y170242D01*
X1007338Y168656D01*
X1007654Y167070D01*
X1008552Y165726D01*
X1009896Y164828D01*
X1011482Y164512D01*
X1013068Y164828D01*
X1014412Y165726D01*
X1015310Y167070D01*
X1015626Y168656D01*
X1015310Y170242D01*
X1014412Y171586D01*
X1013068Y172484D01*
X1011482Y172800D01*
D02*
G37*
G36*
X986482Y172546D02*
X984896Y172230D01*
X983552Y171332D01*
X982654Y169988D01*
X982338Y168402D01*
X982654Y166816D01*
X983552Y165472D01*
X984896Y164574D01*
X986482Y164258D01*
X988068Y164574D01*
X989412Y165472D01*
X990310Y166816D01*
X990626Y168402D01*
X990310Y169988D01*
X989412Y171332D01*
X988068Y172230D01*
X986482Y172546D01*
D02*
G37*
G36*
X888559Y172359D02*
X886974Y172043D01*
X885629Y171145D01*
X884731Y169801D01*
X884416Y168215D01*
X884731Y166630D01*
X885629Y165285D01*
X886974Y164387D01*
X888559Y164072D01*
X890145Y164387D01*
X891489Y165285D01*
X892387Y166630D01*
X892703Y168215D01*
X892387Y169801D01*
X891489Y171145D01*
X890145Y172043D01*
X888559Y172359D01*
D02*
G37*
G36*
X425704Y170644D02*
X424118Y170328D01*
X422774Y169430D01*
X421876Y168086D01*
X421560Y166500D01*
X421876Y164914D01*
X422774Y163570D01*
X424118Y162672D01*
X425704Y162356D01*
X427290Y162672D01*
X428634Y163570D01*
X429532Y164914D01*
X429848Y166500D01*
X429532Y168086D01*
X428634Y169430D01*
X427290Y170328D01*
X425704Y170644D01*
D02*
G37*
G36*
X250190Y169244D02*
X248604Y168928D01*
X247260Y168030D01*
X246362Y166686D01*
X246046Y165100D01*
X246362Y163514D01*
X247260Y162170D01*
X248604Y161272D01*
X250190Y160956D01*
X251776Y161272D01*
X253120Y162170D01*
X254018Y163514D01*
X254334Y165100D01*
X254018Y166686D01*
X253120Y168030D01*
X251776Y168928D01*
X250190Y169244D01*
D02*
G37*
G36*
X165354Y176864D02*
X163768Y176548D01*
X162424Y175650D01*
X161526Y174306D01*
X161210Y172720D01*
X161334Y172099D01*
X161296Y171049D01*
X160412Y170719D01*
X159704Y170578D01*
X158360Y169680D01*
X157462Y168336D01*
X157146Y166750D01*
X157462Y165164D01*
X156586Y164189D01*
X156148Y164102D01*
X154804Y163204D01*
X153906Y161860D01*
X153590Y160274D01*
X153906Y158688D01*
X154804Y157344D01*
X156148Y156446D01*
X157734Y156130D01*
X159320Y156446D01*
X160664Y157344D01*
X161562Y158688D01*
X161878Y160274D01*
X161562Y161860D01*
X162438Y162835D01*
X162876Y162922D01*
X164220Y163820D01*
X165118Y165164D01*
X165434Y166750D01*
X165310Y167371D01*
X165348Y168421D01*
X166232Y168751D01*
X166940Y168892D01*
X168284Y169790D01*
X169182Y171134D01*
X169498Y172720D01*
X169182Y174306D01*
X168284Y175650D01*
X166940Y176548D01*
X165354Y176864D01*
D02*
G37*
G36*
X789178Y176610D02*
X787592Y176294D01*
X786248Y175396D01*
X785350Y174052D01*
X785034Y172466D01*
X785350Y170880D01*
X786248Y169536D01*
X787592Y168638D01*
X788088Y168539D01*
X789055Y167702D01*
X788950Y167171D01*
X788740Y166116D01*
X789027Y164673D01*
X789009Y164453D01*
X788326Y163337D01*
X787338Y163141D01*
X785994Y162243D01*
X785096Y160898D01*
X784780Y159313D01*
X785096Y157727D01*
X785994Y156383D01*
X787338Y155484D01*
X788924Y155169D01*
X790510Y155484D01*
X791854Y156383D01*
X792752Y157727D01*
X793068Y159313D01*
X792781Y160756D01*
X792799Y160975D01*
X793483Y162091D01*
X794470Y162288D01*
X795814Y163186D01*
X796712Y164530D01*
X797028Y166116D01*
X796712Y167702D01*
X795814Y169046D01*
X794470Y169944D01*
X793974Y170043D01*
X793007Y170880D01*
X793112Y171411D01*
X793322Y172466D01*
X793006Y174052D01*
X792108Y175396D01*
X790764Y176294D01*
X789178Y176610D01*
D02*
G37*
G36*
X1082294Y162894D02*
X1080708Y162578D01*
X1079364Y161680D01*
X1078466Y160336D01*
X1078150Y158750D01*
X1078466Y157164D01*
X1079364Y155820D01*
X1080708Y154922D01*
X1082294Y154606D01*
X1083880Y154922D01*
X1085224Y155820D01*
X1086122Y157164D01*
X1086438Y158750D01*
X1086122Y160336D01*
X1085224Y161680D01*
X1083880Y162578D01*
X1082294Y162894D01*
D02*
G37*
G36*
X1026139D02*
X1024553Y162578D01*
X1023209Y161680D01*
X1022311Y160336D01*
X1021995Y158750D01*
X1022311Y157164D01*
X1023209Y155820D01*
X1024553Y154922D01*
X1026139Y154606D01*
X1027725Y154922D01*
X1029069Y155820D01*
X1029967Y157164D01*
X1030283Y158750D01*
X1029967Y160336D01*
X1029069Y161680D01*
X1027725Y162578D01*
X1026139Y162894D01*
D02*
G37*
G36*
X1216478Y169027D02*
X1213536Y168640D01*
X1210794Y167504D01*
X1208440Y165698D01*
X1206634Y163344D01*
X1205498Y160602D01*
X1205111Y157660D01*
X1205498Y154718D01*
X1206634Y151976D01*
X1208440Y149622D01*
X1210794Y147816D01*
X1213536Y146680D01*
X1216478Y146293D01*
X1219420Y146680D01*
X1222162Y147816D01*
X1224516Y149622D01*
X1226322Y151976D01*
X1227458Y154718D01*
X1227845Y157660D01*
X1227458Y160602D01*
X1226322Y163344D01*
X1224516Y165698D01*
X1222162Y167504D01*
X1219420Y168640D01*
X1216478Y169027D01*
D02*
G37*
G36*
X25146Y168896D02*
X21731Y168446D01*
X18549Y167128D01*
X15817Y165032D01*
X13720Y162299D01*
X12402Y159117D01*
X11952Y155702D01*
X12402Y152287D01*
X13720Y149105D01*
X15817Y146372D01*
X18549Y144276D01*
X21731Y142958D01*
X25146Y142508D01*
X28561Y142958D01*
X31743Y144276D01*
X34476Y146372D01*
X36572Y149105D01*
X37890Y152287D01*
X38340Y155702D01*
X37890Y159117D01*
X36572Y162299D01*
X34476Y165032D01*
X31743Y167128D01*
X28561Y168446D01*
X25146Y168896D01*
D02*
G37*
G36*
X731206Y167112D02*
X727791Y166662D01*
X724609Y165344D01*
X721877Y163248D01*
X719780Y160515D01*
X718462Y157333D01*
X718012Y153918D01*
X718462Y150503D01*
X719780Y147321D01*
X721877Y144588D01*
X724609Y142492D01*
X727791Y141174D01*
X731206Y140724D01*
X734621Y141174D01*
X737803Y142492D01*
X740536Y144588D01*
X742632Y147321D01*
X743950Y150503D01*
X744400Y153918D01*
X743950Y157333D01*
X742632Y160515D01*
X740536Y163248D01*
X737803Y165344D01*
X734621Y166662D01*
X731206Y167112D01*
D02*
G37*
G36*
X548640Y165764D02*
X545225Y165314D01*
X542043Y163996D01*
X539310Y161900D01*
X537214Y159167D01*
X535896Y155985D01*
X535446Y152570D01*
X535896Y149155D01*
X537214Y145973D01*
X539310Y143240D01*
X542043Y141144D01*
X545225Y139826D01*
X548640Y139376D01*
X552055Y139826D01*
X555237Y141144D01*
X557970Y143240D01*
X560066Y145973D01*
X561384Y149155D01*
X561834Y152570D01*
X561384Y155985D01*
X560066Y159167D01*
X557970Y161900D01*
X555237Y163996D01*
X552055Y165314D01*
X548640Y165764D01*
D02*
G37*
G36*
X758444Y142490D02*
X756858Y142174D01*
X755514Y141276D01*
X754616Y139932D01*
X754300Y138346D01*
X754616Y136760D01*
X755514Y135416D01*
X756858Y134518D01*
X758444Y134202D01*
X760030Y134518D01*
X761374Y135416D01*
X762272Y136760D01*
X762588Y138346D01*
X762272Y139932D01*
X761374Y141276D01*
X760030Y142174D01*
X758444Y142490D01*
D02*
G37*
G36*
X125222Y139780D02*
X123636Y139464D01*
X122292Y138566D01*
X121394Y137222D01*
X121078Y135636D01*
X121394Y134050D01*
X122292Y132706D01*
X123636Y131808D01*
X125222Y131492D01*
X126808Y131808D01*
X128152Y132706D01*
X129050Y134050D01*
X129366Y135636D01*
X129050Y137222D01*
X128152Y138566D01*
X126808Y139464D01*
X125222Y139780D01*
D02*
G37*
G36*
X40000Y192837D02*
X37972Y192570D01*
X36082Y191787D01*
X34458Y190542D01*
X33213Y188918D01*
X32430Y187028D01*
X32163Y185000D01*
X32430Y182972D01*
X33213Y181082D01*
X34458Y179458D01*
X36082Y178213D01*
X37972Y177430D01*
X40000Y177163D01*
X42028Y177430D01*
X43671Y178110D01*
X44394Y177716D01*
X44803Y177290D01*
X44796Y177258D01*
Y132259D01*
X44993Y131267D01*
X45555Y130427D01*
X46395Y129866D01*
X47386Y129669D01*
X87386D01*
X88377Y129866D01*
X89217Y130427D01*
X89779Y131267D01*
X89976Y132259D01*
Y177258D01*
X89779Y178250D01*
X89217Y179090D01*
X88377Y179651D01*
X87386Y179848D01*
X47442D01*
X47310Y179985D01*
X46735Y181014D01*
X46787Y181082D01*
X47570Y182972D01*
X47837Y185000D01*
X47570Y187028D01*
X46787Y188918D01*
X45542Y190542D01*
X43918Y191787D01*
X42028Y192570D01*
X40000Y192837D01*
D02*
G37*
G36*
X559816D02*
X557788Y192570D01*
X555897Y191787D01*
X554274Y190542D01*
X553029Y188918D01*
X552246Y187028D01*
X551979Y185000D01*
X552246Y182972D01*
X553029Y181082D01*
X554274Y179458D01*
X555897Y178213D01*
X557788Y177430D01*
X559816Y177163D01*
X561844Y177430D01*
X563735Y178213D01*
X564457Y178768D01*
X565397Y177888D01*
X565251Y177670D01*
X565054Y176679D01*
Y131679D01*
X565251Y130688D01*
X565813Y129848D01*
X566653Y129286D01*
X567644Y129089D01*
X607644D01*
X608635Y129286D01*
X609475Y129848D01*
X610037Y130688D01*
X610234Y131679D01*
Y176679D01*
X610037Y177670D01*
X609475Y178510D01*
X608635Y179072D01*
X607644Y179269D01*
X567644D01*
X566663Y179074D01*
X566632Y179094D01*
X565791Y180023D01*
X566603Y181082D01*
X567386Y182972D01*
X567653Y185000D01*
X567386Y187028D01*
X566603Y188918D01*
X565358Y190542D01*
X563735Y191787D01*
X561844Y192570D01*
X559816Y192837D01*
D02*
G37*
G36*
X1149570Y131906D02*
X1147984Y131590D01*
X1146640Y130692D01*
X1145742Y129348D01*
X1145426Y127762D01*
X1145742Y126176D01*
X1146640Y124832D01*
X1147984Y123934D01*
X1149570Y123618D01*
X1151156Y123934D01*
X1152500Y124832D01*
X1153398Y126176D01*
X1153714Y127762D01*
X1153398Y129348D01*
X1152500Y130692D01*
X1151156Y131590D01*
X1149570Y131906D01*
D02*
G37*
G36*
X734956Y131518D02*
X733370Y131202D01*
X732026Y130304D01*
X731128Y128960D01*
X730812Y127374D01*
X731128Y125788D01*
X732026Y124444D01*
X733370Y123546D01*
X734956Y123230D01*
X736542Y123546D01*
X737886Y124444D01*
X738784Y125788D01*
X739100Y127374D01*
X738784Y128960D01*
X737886Y130304D01*
X736542Y131202D01*
X734956Y131518D01*
D02*
G37*
G36*
X1016054Y130582D02*
X1014469Y130266D01*
X1013124Y129368D01*
X1012226Y128024D01*
X1011910Y126438D01*
X1012226Y124852D01*
X1013124Y123508D01*
X1014469Y122610D01*
X1016054Y122294D01*
X1017640Y122610D01*
X1018984Y123508D01*
X1019882Y124852D01*
X1020198Y126438D01*
X1019882Y128024D01*
X1018984Y129368D01*
X1017640Y130266D01*
X1016054Y130582D01*
D02*
G37*
G36*
X902692Y129112D02*
X901106Y128796D01*
X899762Y127898D01*
X898864Y126554D01*
X898548Y124968D01*
X898864Y123382D01*
X899762Y122038D01*
X901106Y121140D01*
X902692Y120824D01*
X904278Y121140D01*
X905622Y122038D01*
X906520Y123382D01*
X906836Y124968D01*
X906520Y126554D01*
X905622Y127898D01*
X904278Y128796D01*
X902692Y129112D01*
D02*
G37*
G36*
X29210D02*
X27624Y128796D01*
X26280Y127898D01*
X25382Y126554D01*
X25066Y124968D01*
X25382Y123382D01*
X26280Y122038D01*
X27624Y121140D01*
X29210Y120824D01*
X30796Y121140D01*
X32140Y122038D01*
X33038Y123382D01*
X33354Y124968D01*
X33038Y126554D01*
X32140Y127898D01*
X30796Y128796D01*
X29210Y129112D01*
D02*
G37*
G36*
X375158Y128858D02*
X373572Y128542D01*
X372228Y127644D01*
X371330Y126300D01*
X371014Y124714D01*
X371330Y123128D01*
X372228Y121784D01*
X373572Y120886D01*
X375158Y120570D01*
X376744Y120886D01*
X378088Y121784D01*
X378986Y123128D01*
X379302Y124714D01*
X378986Y126300D01*
X378088Y127644D01*
X376744Y128542D01*
X375158Y128858D01*
D02*
G37*
G36*
X786748Y127952D02*
X785162Y127636D01*
X783818Y126738D01*
X782920Y125394D01*
X782604Y123808D01*
X782920Y122222D01*
X783818Y120878D01*
X785162Y119980D01*
X786748Y119664D01*
X788334Y119980D01*
X789678Y120878D01*
X790576Y122222D01*
X790892Y123808D01*
X790576Y125394D01*
X789678Y126738D01*
X788334Y127636D01*
X786748Y127952D01*
D02*
G37*
G36*
X557786Y126104D02*
X556200Y125788D01*
X554856Y124890D01*
X553958Y123546D01*
X553642Y121960D01*
X553958Y120374D01*
X554856Y119030D01*
X556200Y118132D01*
X557786Y117816D01*
X559372Y118132D01*
X560716Y119030D01*
X561614Y120374D01*
X561930Y121960D01*
X561614Y123546D01*
X560716Y124890D01*
X559372Y125788D01*
X557786Y126104D01*
D02*
G37*
G36*
X84834Y125652D02*
X83248Y125337D01*
X81904Y124438D01*
X81006Y123094D01*
X80690Y121509D01*
X81006Y119923D01*
X81904Y118579D01*
X83248Y117680D01*
X84834Y117365D01*
X86420Y117680D01*
X87764Y118579D01*
X88662Y119923D01*
X88978Y121509D01*
X88662Y123094D01*
X87764Y124438D01*
X86420Y125337D01*
X84834Y125652D01*
D02*
G37*
G36*
X263144Y125556D02*
X261558Y125240D01*
X260214Y124342D01*
X259316Y122998D01*
X259000Y121412D01*
X259316Y119826D01*
X260214Y118482D01*
X261558Y117584D01*
X263144Y117268D01*
X264730Y117584D01*
X266074Y118482D01*
X266972Y119826D01*
X267288Y121412D01*
X266972Y122998D01*
X266074Y124342D01*
X264730Y125240D01*
X263144Y125556D01*
D02*
G37*
G36*
X712090Y180556D02*
X672090D01*
X671099Y180359D01*
X670259Y179797D01*
X669697Y178957D01*
X669500Y177966D01*
Y132966D01*
X669697Y131975D01*
X670259Y131135D01*
X671099Y130573D01*
X672090Y130376D01*
X712090D01*
X712846Y130527D01*
X713423Y129926D01*
X713652Y129491D01*
X713213Y128919D01*
X712430Y127028D01*
X712163Y125000D01*
X712430Y122972D01*
X713213Y121081D01*
X714458Y119458D01*
X716081Y118213D01*
X717972Y117430D01*
X720000Y117163D01*
X722028Y117430D01*
X723919Y118213D01*
X725542Y119458D01*
X726787Y121081D01*
X727570Y122972D01*
X727837Y125000D01*
X727570Y127028D01*
X726787Y128919D01*
X725542Y130542D01*
X723919Y131787D01*
X722028Y132570D01*
X720000Y132837D01*
X717972Y132570D01*
X716081Y131787D01*
X715562Y131389D01*
X715074Y131654D01*
X714526Y132195D01*
X714680Y132966D01*
Y177966D01*
X714483Y178957D01*
X713921Y179797D01*
X713081Y180359D01*
X712090Y180556D01*
D02*
G37*
G36*
X1241878Y147604D02*
X1238885Y147309D01*
X1236006Y146436D01*
X1233353Y145018D01*
X1231028Y143110D01*
X1229120Y140785D01*
X1227702Y138132D01*
X1226829Y135253D01*
X1226534Y132260D01*
X1226829Y129267D01*
X1227702Y126388D01*
X1229120Y123735D01*
X1231028Y121410D01*
X1233353Y119502D01*
X1236006Y118084D01*
X1238885Y117211D01*
X1241878Y116916D01*
X1244872Y117211D01*
X1247750Y118084D01*
X1250403Y119502D01*
X1252728Y121410D01*
X1254636Y123735D01*
X1256054Y126388D01*
X1256927Y129267D01*
X1257222Y132260D01*
X1256927Y135253D01*
X1256054Y138132D01*
X1254636Y140785D01*
X1252728Y143110D01*
X1250403Y145018D01*
X1247750Y146436D01*
X1244872Y147309D01*
X1241878Y147604D01*
D02*
G37*
G36*
X1191078D02*
X1188085Y147309D01*
X1185206Y146436D01*
X1182553Y145018D01*
X1180228Y143110D01*
X1178320Y140785D01*
X1176902Y138132D01*
X1176029Y135253D01*
X1175734Y132260D01*
X1176029Y129267D01*
X1176902Y126388D01*
X1178320Y123735D01*
X1180228Y121410D01*
X1182553Y119502D01*
X1185206Y118084D01*
X1188085Y117211D01*
X1191078Y116916D01*
X1194072Y117211D01*
X1196950Y118084D01*
X1199603Y119502D01*
X1201928Y121410D01*
X1203836Y123735D01*
X1205254Y126388D01*
X1206127Y129267D01*
X1206422Y132260D01*
X1206127Y135253D01*
X1205254Y138132D01*
X1203836Y140785D01*
X1201928Y143110D01*
X1199603Y145018D01*
X1196950Y146436D01*
X1194072Y147309D01*
X1191078Y147604D01*
D02*
G37*
G36*
X758698Y124540D02*
X757112Y124224D01*
X755768Y123326D01*
X754870Y121982D01*
X754554Y120396D01*
X754870Y118810D01*
X755768Y117466D01*
X757112Y116568D01*
X758698Y116252D01*
X760284Y116568D01*
X761628Y117466D01*
X762526Y118810D01*
X762842Y120396D01*
X762526Y121982D01*
X761628Y123326D01*
X760284Y124224D01*
X758698Y124540D01*
D02*
G37*
G36*
X506476Y123898D02*
X504890Y123582D01*
X503546Y122684D01*
X502648Y121340D01*
X502332Y119754D01*
X502648Y118168D01*
X503546Y116824D01*
X504890Y115926D01*
X506476Y115610D01*
X508062Y115926D01*
X509406Y116824D01*
X510304Y118168D01*
X510620Y119754D01*
X510304Y121340D01*
X509406Y122684D01*
X508062Y123582D01*
X506476Y123898D01*
D02*
G37*
G36*
X606039Y123815D02*
X604453Y123499D01*
X603109Y122601D01*
X602211Y121257D01*
X601895Y119671D01*
X602211Y118086D01*
X603109Y116741D01*
X604453Y115843D01*
X606039Y115528D01*
X607625Y115843D01*
X608969Y116741D01*
X609867Y118086D01*
X610182Y119671D01*
X609867Y121257D01*
X608969Y122601D01*
X607625Y123499D01*
X606039Y123815D01*
D02*
G37*
G36*
X352766Y119720D02*
X351180Y119404D01*
X349836Y118506D01*
X348938Y117162D01*
X348622Y115576D01*
X348938Y113990D01*
X349836Y112646D01*
X351180Y111748D01*
X352766Y111433D01*
X354352Y111748D01*
X355696Y112646D01*
X356594Y113990D01*
X356910Y115576D01*
X356594Y117162D01*
X355696Y118506D01*
X354352Y119404D01*
X352766Y119720D01*
D02*
G37*
G36*
X472654Y119333D02*
X471068Y119018D01*
X469724Y118120D01*
X468826Y116776D01*
X468510Y115190D01*
X468826Y113604D01*
X469724Y112260D01*
X471068Y111362D01*
X472654Y111046D01*
X474240Y111362D01*
X475584Y112260D01*
X476482Y113604D01*
X476798Y115190D01*
X476482Y116776D01*
X475584Y118120D01*
X474240Y119018D01*
X472654Y119333D01*
D02*
G37*
G36*
X992898Y118762D02*
X991312Y118446D01*
X989968Y117548D01*
X989070Y116204D01*
X988754Y114618D01*
X989070Y113032D01*
X989968Y111688D01*
X991312Y110790D01*
X992898Y110474D01*
X994484Y110790D01*
X995828Y111688D01*
X996726Y113032D01*
X997042Y114618D01*
X996726Y116204D01*
X995828Y117548D01*
X994484Y118446D01*
X992898Y118762D01*
D02*
G37*
G36*
X1113294Y118704D02*
X1111708Y118388D01*
X1110364Y117490D01*
X1109466Y116146D01*
X1109150Y114560D01*
X1109466Y112974D01*
X1110364Y111630D01*
X1111708Y110732D01*
X1113294Y110416D01*
X1114880Y110732D01*
X1116224Y111630D01*
X1117122Y112974D01*
X1117438Y114560D01*
X1117122Y116146D01*
X1116224Y117490D01*
X1114880Y118388D01*
X1113294Y118704D01*
D02*
G37*
G36*
X873172Y118338D02*
X871586Y118022D01*
X870242Y117124D01*
X869344Y115780D01*
X869028Y114194D01*
X869344Y112608D01*
X870242Y111264D01*
X871586Y110366D01*
X873172Y110050D01*
X874758Y110366D01*
X876102Y111264D01*
X877000Y112608D01*
X877316Y114194D01*
X877000Y115780D01*
X876102Y117124D01*
X874758Y118022D01*
X873172Y118338D01*
D02*
G37*
G36*
X233326Y118172D02*
X231740Y117856D01*
X230396Y116958D01*
X229498Y115614D01*
X229182Y114028D01*
X229498Y112442D01*
X230396Y111098D01*
X231740Y110200D01*
X233326Y109884D01*
X234911Y110200D01*
X236256Y111098D01*
X237154Y112442D01*
X237469Y114028D01*
X237154Y115614D01*
X236256Y116958D01*
X234911Y117856D01*
X233326Y118172D01*
D02*
G37*
G36*
X1138750Y114120D02*
X1135335Y113670D01*
X1132153Y112352D01*
X1129420Y110255D01*
X1127324Y107523D01*
X1126006Y104341D01*
X1125556Y100926D01*
X1126006Y97511D01*
X1127324Y94329D01*
X1129420Y91596D01*
X1130485Y90780D01*
X1130466Y90562D01*
X1129106Y89538D01*
X1128948Y89570D01*
X1127362Y89254D01*
X1126018Y88356D01*
X1125120Y87012D01*
X1124804Y85426D01*
X1125120Y83840D01*
X1126018Y82496D01*
X1127362Y81598D01*
X1128948Y81282D01*
X1130534Y81598D01*
X1131878Y82496D01*
X1132776Y83840D01*
X1133092Y85426D01*
X1132776Y87012D01*
X1131986Y88194D01*
X1132232Y88773D01*
X1132667Y89287D01*
X1135335Y88182D01*
X1138750Y87732D01*
X1142165Y88182D01*
X1145347Y89500D01*
X1148080Y91596D01*
X1150176Y94329D01*
X1151494Y97511D01*
X1151944Y100926D01*
X1151494Y104341D01*
X1150176Y107523D01*
X1148080Y110255D01*
X1145347Y112352D01*
X1142165Y113670D01*
X1138750Y114120D01*
D02*
G37*
G36*
X779018Y114286D02*
X775603Y113836D01*
X772421Y112518D01*
X769688Y110421D01*
X767592Y107689D01*
X766274Y104507D01*
X765824Y101092D01*
X766274Y97677D01*
X767592Y94495D01*
X769688Y91763D01*
X772421Y89666D01*
X775603Y88348D01*
X779018Y87898D01*
X782433Y88348D01*
X785615Y89666D01*
X788347Y91763D01*
X790444Y94495D01*
X791762Y97677D01*
X792212Y101092D01*
X791762Y104507D01*
X790444Y107689D01*
X788347Y110421D01*
X785615Y112518D01*
X782433Y113836D01*
X779018Y114286D01*
D02*
G37*
G36*
X1019048Y114261D02*
X1015633Y113812D01*
X1012451Y112493D01*
X1009718Y110397D01*
X1007622Y107664D01*
X1006304Y104482D01*
X1005854Y101067D01*
X1006304Y97652D01*
X1007622Y94470D01*
X1009718Y91738D01*
X1012451Y89641D01*
X1015633Y88323D01*
X1019048Y87873D01*
X1022463Y88323D01*
X1025645Y89641D01*
X1028378Y91738D01*
X1030474Y94470D01*
X1031792Y97652D01*
X1032242Y101067D01*
X1031792Y104482D01*
X1030474Y107664D01*
X1028378Y110397D01*
X1025645Y112493D01*
X1022463Y113812D01*
X1019048Y114261D01*
D02*
G37*
G36*
X898821Y113772D02*
X895406Y113322D01*
X892224Y112004D01*
X889491Y109908D01*
X887395Y107175D01*
X886077Y103993D01*
X885627Y100578D01*
X886077Y97163D01*
X887395Y93981D01*
X889491Y91249D01*
X892224Y89152D01*
X895406Y87834D01*
X898821Y87384D01*
X902236Y87834D01*
X905418Y89152D01*
X908150Y91249D01*
X910247Y93981D01*
X911565Y97163D01*
X912015Y100578D01*
X911565Y103993D01*
X910247Y107175D01*
X908150Y109908D01*
X905418Y112004D01*
X902236Y113322D01*
X898821Y113772D01*
D02*
G37*
G36*
X1169750Y102837D02*
X1167722Y102570D01*
X1165832Y101787D01*
X1164208Y100542D01*
X1162963Y98919D01*
X1162180Y97028D01*
X1161913Y95000D01*
X1162180Y92972D01*
X1162963Y91081D01*
X1164208Y89458D01*
X1165832Y88213D01*
X1167722Y87430D01*
X1169750Y87163D01*
X1171778Y87430D01*
X1173669Y88213D01*
X1175292Y89458D01*
X1176537Y91081D01*
X1177320Y92972D01*
X1177587Y95000D01*
X1177320Y97028D01*
X1176537Y98919D01*
X1175292Y100542D01*
X1173669Y101787D01*
X1171778Y102570D01*
X1169750Y102837D01*
D02*
G37*
G36*
X749750D02*
X747722Y102570D01*
X745832Y101787D01*
X744208Y100542D01*
X742963Y98919D01*
X742180Y97028D01*
X741913Y95000D01*
X742180Y92972D01*
X742963Y91081D01*
X744208Y89458D01*
X745832Y88213D01*
X747722Y87430D01*
X749750Y87163D01*
X751778Y87430D01*
X753669Y88213D01*
X755292Y89458D01*
X756537Y91081D01*
X757320Y92972D01*
X757587Y95000D01*
X757320Y97028D01*
X756537Y98919D01*
X755292Y100542D01*
X753669Y101787D01*
X751778Y102570D01*
X749750Y102837D01*
D02*
G37*
G36*
X530000D02*
X527972Y102570D01*
X526082Y101787D01*
X524458Y100542D01*
X523213Y98919D01*
X522430Y97028D01*
X522163Y95000D01*
X522430Y92972D01*
X523213Y91081D01*
X524458Y89458D01*
X526082Y88213D01*
X527972Y87430D01*
X530000Y87163D01*
X532028Y87430D01*
X533918Y88213D01*
X535542Y89458D01*
X536787Y91081D01*
X537570Y92972D01*
X537837Y95000D01*
X537570Y97028D01*
X536787Y98919D01*
X535542Y100542D01*
X533918Y101787D01*
X532028Y102570D01*
X530000Y102837D01*
D02*
G37*
G36*
X110000D02*
X107972Y102570D01*
X106081Y101787D01*
X104458Y100542D01*
X103213Y98919D01*
X102430Y97028D01*
X102163Y95000D01*
X102430Y92972D01*
X103213Y91081D01*
X104458Y89458D01*
X106081Y88213D01*
X107972Y87430D01*
X110000Y87163D01*
X112028Y87430D01*
X113919Y88213D01*
X115542Y89458D01*
X116787Y91081D01*
X117570Y92972D01*
X117837Y95000D01*
X117570Y97028D01*
X116787Y98919D01*
X115542Y100542D01*
X113919Y101787D01*
X112028Y102570D01*
X110000Y102837D01*
D02*
G37*
G36*
X499170Y112931D02*
X495755Y112481D01*
X492573Y111164D01*
X489841Y109067D01*
X487744Y106334D01*
X486426Y103152D01*
X485976Y99737D01*
X486426Y96322D01*
X487744Y93140D01*
X489841Y90408D01*
X492573Y88311D01*
X495755Y86993D01*
X499170Y86543D01*
X502585Y86993D01*
X505767Y88311D01*
X508499Y90408D01*
X510596Y93140D01*
X511914Y96322D01*
X512364Y99737D01*
X511914Y103152D01*
X510596Y106334D01*
X508499Y109067D01*
X505767Y111164D01*
X502585Y112481D01*
X499170Y112931D01*
D02*
G37*
G36*
X378714D02*
X375299Y112481D01*
X372117Y111164D01*
X369384Y109067D01*
X367288Y106334D01*
X365970Y103152D01*
X365520Y99737D01*
X365970Y96322D01*
X367288Y93140D01*
X369384Y90408D01*
X372117Y88311D01*
X375299Y86993D01*
X378714Y86543D01*
X382129Y86993D01*
X385311Y88311D01*
X388044Y90408D01*
X390140Y93140D01*
X391458Y96322D01*
X391908Y99737D01*
X391458Y103152D01*
X390140Y106334D01*
X388044Y109067D01*
X385311Y111164D01*
X382129Y112481D01*
X378714Y112931D01*
D02*
G37*
G36*
X257870Y112006D02*
X254455Y111556D01*
X251273Y110238D01*
X248540Y108141D01*
X246444Y105409D01*
X245126Y102227D01*
X244676Y98812D01*
X245126Y95397D01*
X246444Y92215D01*
X248540Y89482D01*
X251273Y87386D01*
X254455Y86068D01*
X257870Y85618D01*
X261285Y86068D01*
X264467Y87386D01*
X267199Y89482D01*
X269296Y92215D01*
X270614Y95397D01*
X271064Y98812D01*
X270614Y102227D01*
X269296Y105409D01*
X267199Y108141D01*
X264467Y110238D01*
X261285Y111556D01*
X257870Y112006D01*
D02*
G37*
G36*
X139252D02*
X135837Y111556D01*
X132655Y110238D01*
X129923Y108141D01*
X127826Y105409D01*
X126508Y102227D01*
X126058Y98812D01*
X126508Y95397D01*
X127826Y92215D01*
X129923Y89482D01*
X132655Y87386D01*
X135837Y86068D01*
X139252Y85618D01*
X142667Y86068D01*
X145849Y87386D01*
X148581Y89482D01*
X150678Y92215D01*
X151996Y95397D01*
X152446Y98812D01*
X151996Y102227D01*
X150678Y105409D01*
X148581Y108141D01*
X145849Y110238D01*
X142667Y111556D01*
X139252Y112006D01*
D02*
G37*
G36*
X763374Y89736D02*
X761788Y89420D01*
X760444Y88522D01*
X759546Y87178D01*
X759230Y85592D01*
X759546Y84006D01*
X760444Y82662D01*
X761788Y81764D01*
X763374Y81448D01*
X764960Y81764D01*
X766304Y82662D01*
X767202Y84006D01*
X767518Y85592D01*
X767202Y87178D01*
X766304Y88522D01*
X764960Y89420D01*
X763374Y89736D01*
D02*
G37*
G36*
X1007333Y89711D02*
X1005748Y89396D01*
X1004403Y88497D01*
X1003505Y87153D01*
X1003190Y85567D01*
X1003505Y83982D01*
X1004403Y82637D01*
X1005748Y81739D01*
X1007333Y81424D01*
X1008919Y81739D01*
X1010263Y82637D01*
X1011161Y83982D01*
X1011477Y85567D01*
X1011161Y87153D01*
X1010263Y88497D01*
X1008919Y89396D01*
X1007333Y89711D01*
D02*
G37*
G36*
X486222Y88381D02*
X484636Y88066D01*
X483292Y87167D01*
X482394Y85823D01*
X482078Y84237D01*
X482394Y82652D01*
X483292Y81307D01*
X484636Y80409D01*
X486222Y80094D01*
X487808Y80409D01*
X489152Y81307D01*
X490050Y82652D01*
X490366Y84237D01*
X490050Y85823D01*
X489152Y87167D01*
X487808Y88066D01*
X486222Y88381D01*
D02*
G37*
G36*
X365766D02*
X364180Y88066D01*
X362836Y87167D01*
X361938Y85823D01*
X361622Y84237D01*
X361938Y82652D01*
X362836Y81307D01*
X364180Y80409D01*
X365766Y80094D01*
X367352Y80409D01*
X368696Y81307D01*
X369594Y82652D01*
X369910Y84237D01*
X369594Y85823D01*
X368696Y87167D01*
X367352Y88066D01*
X365766Y88381D01*
D02*
G37*
G36*
X887280Y88276D02*
X885694Y87960D01*
X884350Y87062D01*
X883452Y85718D01*
X883136Y84132D01*
X883452Y82546D01*
X884350Y81202D01*
X885694Y80304D01*
X887280Y79988D01*
X888866Y80304D01*
X890210Y81202D01*
X891108Y82546D01*
X891424Y84132D01*
X891108Y85718D01*
X890210Y87062D01*
X888866Y87960D01*
X887280Y88276D01*
D02*
G37*
G36*
X244922Y87456D02*
X243336Y87140D01*
X241992Y86242D01*
X241094Y84898D01*
X240778Y83312D01*
X241094Y81726D01*
X241992Y80382D01*
X243336Y79484D01*
X244922Y79168D01*
X246508Y79484D01*
X247852Y80382D01*
X248750Y81726D01*
X249066Y83312D01*
X248750Y84898D01*
X247852Y86242D01*
X246508Y87140D01*
X244922Y87456D01*
D02*
G37*
G36*
X126304D02*
X124718Y87140D01*
X123374Y86242D01*
X122476Y84898D01*
X122160Y83312D01*
X122476Y81726D01*
X123374Y80382D01*
X124718Y79484D01*
X126304Y79168D01*
X127890Y79484D01*
X129234Y80382D01*
X130132Y81726D01*
X130448Y83312D01*
X130132Y84898D01*
X129234Y86242D01*
X127890Y87140D01*
X126304Y87456D01*
D02*
G37*
G36*
X342016Y120718D02*
X297016D01*
X296025Y120521D01*
X295185Y119959D01*
X294623Y119119D01*
X294426Y118128D01*
Y78128D01*
X294623Y77137D01*
X295185Y76297D01*
X296025Y75736D01*
X297016Y75539D01*
X342016D01*
X343007Y75736D01*
X343847Y76297D01*
X344409Y77137D01*
X344606Y78128D01*
Y118128D01*
X344409Y119119D01*
X343847Y119959D01*
X343007Y120521D01*
X342016Y120718D01*
D02*
G37*
G36*
X982148Y120444D02*
X937148D01*
X936157Y120247D01*
X935317Y119685D01*
X934755Y118845D01*
X934558Y117854D01*
Y77854D01*
X934755Y76863D01*
X935317Y76023D01*
X936157Y75461D01*
X937148Y75264D01*
X982148D01*
X983139Y75461D01*
X983979Y76023D01*
X984541Y76863D01*
X984738Y77854D01*
Y117854D01*
X984541Y118845D01*
X983979Y119685D01*
X983139Y120247D01*
X982148Y120444D01*
D02*
G37*
G36*
X1102544Y120386D02*
X1057544D01*
X1056553Y120189D01*
X1055713Y119627D01*
X1055151Y118787D01*
X1054954Y117796D01*
Y77796D01*
X1055151Y76805D01*
X1055713Y75965D01*
X1056553Y75403D01*
X1057544Y75206D01*
X1102544D01*
X1103535Y75403D01*
X1104375Y75965D01*
X1104937Y76805D01*
X1105134Y77796D01*
Y117796D01*
X1104937Y118787D01*
X1104375Y119627D01*
X1103535Y120189D01*
X1102544Y120386D01*
D02*
G37*
G36*
X461904Y120332D02*
X416904D01*
X415913Y120134D01*
X415073Y119573D01*
X414511Y118733D01*
X414314Y117742D01*
Y77742D01*
X414511Y76751D01*
X415073Y75911D01*
X415913Y75349D01*
X416904Y75152D01*
X461904D01*
X462895Y75349D01*
X463735Y75911D01*
X464297Y76751D01*
X464494Y77742D01*
Y117742D01*
X464297Y118733D01*
X463735Y119573D01*
X462895Y120134D01*
X461904Y120332D01*
D02*
G37*
G36*
X862422Y120020D02*
X817422D01*
X816431Y119823D01*
X815591Y119261D01*
X815029Y118421D01*
X814832Y117430D01*
Y77430D01*
X815029Y76439D01*
X815591Y75599D01*
X816431Y75037D01*
X817422Y74840D01*
X862422D01*
X863413Y75037D01*
X864253Y75599D01*
X864815Y76439D01*
X865012Y77430D01*
Y117430D01*
X864815Y118421D01*
X864253Y119261D01*
X863413Y119823D01*
X862422Y120020D01*
D02*
G37*
G36*
X222576Y119170D02*
X177576D01*
X176585Y118973D01*
X175744Y118411D01*
X175183Y117571D01*
X174986Y116580D01*
Y76580D01*
X175183Y75589D01*
X175744Y74749D01*
X176585Y74187D01*
X177576Y73990D01*
X222576D01*
X223567Y74187D01*
X224407Y74749D01*
X224968Y75589D01*
X225166Y76580D01*
Y116580D01*
X224968Y117571D01*
X224407Y118411D01*
X223567Y118973D01*
X222576Y119170D01*
D02*
G37*
G36*
X972636Y72540D02*
X971050Y72224D01*
X969706Y71326D01*
X968808Y69982D01*
X968492Y68396D01*
X968808Y66810D01*
X969706Y65466D01*
X971050Y64568D01*
X972636Y64252D01*
X974222Y64568D01*
X975566Y65466D01*
X976464Y66810D01*
X976780Y68396D01*
X976464Y69982D01*
X975566Y71326D01*
X974222Y72224D01*
X972636Y72540D01*
D02*
G37*
G36*
X1093712Y72482D02*
X1092126Y72166D01*
X1090782Y71268D01*
X1089884Y69924D01*
X1089568Y68338D01*
X1089884Y66752D01*
X1090782Y65408D01*
X1092126Y64510D01*
X1093712Y64194D01*
X1095298Y64510D01*
X1096642Y65408D01*
X1097540Y66752D01*
X1097856Y68338D01*
X1097540Y69924D01*
X1096642Y71268D01*
X1095298Y72166D01*
X1093712Y72482D01*
D02*
G37*
G36*
X853074Y72116D02*
X851488Y71800D01*
X850144Y70902D01*
X849246Y69558D01*
X848930Y67972D01*
X849246Y66386D01*
X850144Y65042D01*
X851488Y64144D01*
X853074Y63828D01*
X854660Y64144D01*
X856004Y65042D01*
X856902Y66386D01*
X857218Y67972D01*
X856902Y69558D01*
X856004Y70902D01*
X854660Y71800D01*
X853074Y72116D01*
D02*
G37*
G36*
X331978Y71964D02*
X330392Y71648D01*
X329048Y70750D01*
X328150Y69406D01*
X327834Y67820D01*
X328150Y66234D01*
X329048Y64890D01*
X330392Y63992D01*
X331978Y63677D01*
X333564Y63992D01*
X334908Y64890D01*
X335806Y66234D01*
X336122Y67820D01*
X335806Y69406D01*
X334908Y70750D01*
X333564Y71648D01*
X331978Y71964D01*
D02*
G37*
G36*
X451866Y71577D02*
X450280Y71262D01*
X448936Y70364D01*
X448038Y69019D01*
X447722Y67434D01*
X448038Y65848D01*
X448936Y64504D01*
X450280Y63606D01*
X451866Y63290D01*
X453452Y63606D01*
X454796Y64504D01*
X455694Y65848D01*
X456010Y67434D01*
X455694Y69019D01*
X454796Y70364D01*
X453452Y71262D01*
X451866Y71577D01*
D02*
G37*
G36*
X212538Y70416D02*
X210952Y70100D01*
X209608Y69202D01*
X208710Y67858D01*
X208394Y66272D01*
X208710Y64686D01*
X209608Y63342D01*
X210952Y62444D01*
X212538Y62128D01*
X214123Y62444D01*
X215468Y63342D01*
X216366Y64686D01*
X216681Y66272D01*
X216366Y67858D01*
X215468Y69202D01*
X214123Y70100D01*
X212538Y70416D01*
D02*
G37*
G36*
X958910Y66090D02*
X955495Y65640D01*
X952313Y64322D01*
X949581Y62225D01*
X947484Y59493D01*
X946166Y56311D01*
X945716Y52896D01*
X946166Y49481D01*
X947484Y46299D01*
X949581Y43566D01*
X952313Y41470D01*
X955495Y40152D01*
X958910Y39702D01*
X962325Y40152D01*
X965507Y41470D01*
X968240Y43566D01*
X970336Y46299D01*
X971654Y49481D01*
X972104Y52896D01*
X971654Y56311D01*
X970336Y59493D01*
X968240Y62225D01*
X965507Y64322D01*
X962325Y65640D01*
X958910Y66090D01*
D02*
G37*
G36*
X1079306Y66032D02*
X1075891Y65582D01*
X1072709Y64264D01*
X1069977Y62168D01*
X1067880Y59435D01*
X1066562Y56253D01*
X1066112Y52838D01*
X1066562Y49423D01*
X1067880Y46241D01*
X1069977Y43509D01*
X1072709Y41412D01*
X1075891Y40094D01*
X1079306Y39644D01*
X1082721Y40094D01*
X1085903Y41412D01*
X1088635Y43509D01*
X1090732Y46241D01*
X1092050Y49423D01*
X1092500Y52838D01*
X1092050Y56253D01*
X1090732Y59435D01*
X1088635Y62168D01*
X1085903Y64264D01*
X1082721Y65582D01*
X1079306Y66032D01*
D02*
G37*
G36*
X839184Y65666D02*
X835769Y65216D01*
X832587Y63898D01*
X829855Y61801D01*
X827758Y59069D01*
X826440Y55887D01*
X825990Y52472D01*
X826440Y49057D01*
X827758Y45875D01*
X829855Y43142D01*
X832587Y41046D01*
X835769Y39728D01*
X839184Y39278D01*
X842599Y39728D01*
X845781Y41046D01*
X848513Y43142D01*
X850610Y45875D01*
X851928Y49057D01*
X852378Y52472D01*
X851928Y55887D01*
X850610Y59069D01*
X848513Y61801D01*
X845781Y63898D01*
X842599Y65216D01*
X839184Y65666D01*
D02*
G37*
G36*
X319021Y63742D02*
X315606Y63292D01*
X312424Y61975D01*
X309692Y59878D01*
X307595Y57145D01*
X306277Y53963D01*
X305827Y50548D01*
X306277Y47133D01*
X307595Y43951D01*
X309692Y41219D01*
X312424Y39122D01*
X315606Y37804D01*
X319021Y37354D01*
X322436Y37804D01*
X325618Y39122D01*
X328350Y41219D01*
X330447Y43951D01*
X331765Y47133D01*
X332215Y50548D01*
X331765Y53963D01*
X330447Y57145D01*
X328350Y59878D01*
X325618Y61975D01*
X322436Y63292D01*
X319021Y63742D01*
D02*
G37*
G36*
X438658Y63356D02*
X435243Y62906D01*
X432061Y61588D01*
X429328Y59491D01*
X427232Y56759D01*
X425914Y53577D01*
X425464Y50162D01*
X425914Y46747D01*
X427232Y43565D01*
X429328Y40832D01*
X432061Y38736D01*
X435243Y37418D01*
X438658Y36968D01*
X442073Y37418D01*
X445255Y38736D01*
X447988Y40832D01*
X450084Y43565D01*
X451402Y46747D01*
X451852Y50162D01*
X451402Y53577D01*
X450084Y56759D01*
X447988Y59491D01*
X445255Y61588D01*
X442073Y62906D01*
X438658Y63356D01*
D02*
G37*
G36*
X1220000Y98867D02*
X1215093Y98481D01*
X1210307Y97331D01*
X1205760Y95448D01*
X1201563Y92876D01*
X1197820Y89680D01*
X1194624Y85937D01*
X1192052Y81740D01*
X1190169Y77193D01*
X1189019Y72407D01*
X1188633Y67500D01*
X1189019Y62593D01*
X1190169Y57807D01*
X1192052Y53260D01*
X1194624Y49063D01*
X1197820Y45320D01*
X1201563Y42124D01*
X1205760Y39552D01*
X1210307Y37668D01*
X1215093Y36519D01*
X1220000Y36133D01*
X1224907Y36519D01*
X1229693Y37668D01*
X1234240Y39552D01*
X1238437Y42124D01*
X1242180Y45320D01*
X1245376Y49063D01*
X1247948Y53260D01*
X1249831Y57807D01*
X1250981Y62593D01*
X1251367Y67500D01*
X1250981Y72407D01*
X1249831Y77193D01*
X1247948Y81740D01*
X1245376Y85937D01*
X1242180Y89680D01*
X1238437Y92876D01*
X1234240Y95448D01*
X1229693Y97331D01*
X1224907Y98481D01*
X1220000Y98867D01*
D02*
G37*
G36*
X700000D02*
X695093Y98481D01*
X690307Y97331D01*
X685760Y95448D01*
X681563Y92876D01*
X677820Y89680D01*
X674624Y85937D01*
X672052Y81740D01*
X670169Y77193D01*
X669019Y72407D01*
X668633Y67500D01*
X669019Y62593D01*
X670169Y57807D01*
X672052Y53260D01*
X674624Y49063D01*
X677820Y45320D01*
X681563Y42124D01*
X685760Y39552D01*
X690307Y37668D01*
X695093Y36519D01*
X700000Y36133D01*
X704907Y36519D01*
X709693Y37668D01*
X714240Y39552D01*
X718437Y42124D01*
X722180Y45320D01*
X725376Y49063D01*
X727948Y53260D01*
X729831Y57807D01*
X730981Y62593D01*
X731367Y67500D01*
X730981Y72407D01*
X729831Y77193D01*
X727948Y81740D01*
X725376Y85937D01*
X722180Y89680D01*
X718437Y92876D01*
X714240Y95448D01*
X709693Y97331D01*
X704907Y98481D01*
X700000Y98867D01*
D02*
G37*
G36*
X580000D02*
X575093Y98481D01*
X570307Y97331D01*
X565760Y95448D01*
X561563Y92876D01*
X557820Y89680D01*
X554624Y85937D01*
X552052Y81740D01*
X550168Y77193D01*
X549020Y72407D01*
X548633Y67500D01*
X549020Y62593D01*
X550168Y57807D01*
X552052Y53260D01*
X554624Y49063D01*
X557820Y45320D01*
X561563Y42124D01*
X565760Y39552D01*
X570307Y37668D01*
X575093Y36519D01*
X580000Y36133D01*
X584907Y36519D01*
X589693Y37668D01*
X594240Y39552D01*
X598437Y42124D01*
X602180Y45320D01*
X605376Y49063D01*
X607948Y53260D01*
X609832Y57807D01*
X610980Y62593D01*
X611367Y67500D01*
X610980Y72407D01*
X609832Y77193D01*
X607948Y81740D01*
X605376Y85937D01*
X602180Y89680D01*
X598437Y92876D01*
X594240Y95448D01*
X589693Y97331D01*
X584907Y98481D01*
X580000Y98867D01*
D02*
G37*
G36*
X60000D02*
X55093Y98481D01*
X50307Y97331D01*
X45760Y95448D01*
X41563Y92876D01*
X37820Y89680D01*
X34624Y85937D01*
X32052Y81740D01*
X30168Y77193D01*
X29019Y72407D01*
X28633Y67500D01*
X29019Y62593D01*
X30168Y57807D01*
X32052Y53260D01*
X34624Y49063D01*
X37820Y45320D01*
X41563Y42124D01*
X45760Y39552D01*
X50307Y37668D01*
X55093Y36519D01*
X60000Y36133D01*
X64907Y36519D01*
X69693Y37668D01*
X74240Y39552D01*
X78437Y42124D01*
X82180Y45320D01*
X85376Y49063D01*
X87948Y53260D01*
X89831Y57807D01*
X90981Y62593D01*
X91367Y67500D01*
X90981Y72407D01*
X89831Y77193D01*
X87948Y81740D01*
X85376Y85937D01*
X82180Y89680D01*
X78437Y92876D01*
X74240Y95448D01*
X69693Y97331D01*
X64907Y98481D01*
X60000Y98867D01*
D02*
G37*
G36*
X199330Y62194D02*
X195915Y61744D01*
X192733Y60426D01*
X190000Y58330D01*
X187904Y55597D01*
X186586Y52415D01*
X186136Y49000D01*
X186586Y45585D01*
X187904Y42403D01*
X190000Y39671D01*
X192733Y37574D01*
X195915Y36256D01*
X199330Y35806D01*
X202745Y36256D01*
X205927Y37574D01*
X208659Y39671D01*
X210756Y42403D01*
X212074Y45585D01*
X212524Y49000D01*
X212074Y52415D01*
X210756Y55597D01*
X208659Y58330D01*
X205927Y60426D01*
X202745Y61744D01*
X199330Y62194D01*
D02*
G37*
G36*
X466946Y42041D02*
X465360Y41725D01*
X464016Y40827D01*
X463118Y39483D01*
X462802Y37897D01*
X463118Y36312D01*
X464016Y34967D01*
X465360Y34069D01*
X466946Y33754D01*
X468532Y34069D01*
X469876Y34967D01*
X470774Y36312D01*
X471090Y37897D01*
X470774Y39483D01*
X469876Y40827D01*
X468532Y41725D01*
X466946Y42041D01*
D02*
G37*
G36*
X346490D02*
X344904Y41725D01*
X343560Y40827D01*
X342662Y39483D01*
X342346Y37897D01*
X342662Y36312D01*
X343560Y34967D01*
X344904Y34069D01*
X346490Y33754D01*
X348076Y34069D01*
X349420Y34967D01*
X350318Y36312D01*
X350634Y37897D01*
X350318Y39483D01*
X349420Y40827D01*
X348076Y41725D01*
X346490Y42041D01*
D02*
G37*
G36*
X747054Y41706D02*
X745468Y41390D01*
X744124Y40492D01*
X743226Y39148D01*
X742910Y37562D01*
X743226Y35976D01*
X744124Y34632D01*
X745468Y33734D01*
X747054Y33418D01*
X748640Y33734D01*
X749984Y34632D01*
X750882Y35976D01*
X751198Y37562D01*
X750882Y39148D01*
X749984Y40492D01*
X748640Y41390D01*
X747054Y41706D01*
D02*
G37*
G36*
X987084Y41681D02*
X985498Y41365D01*
X984154Y40467D01*
X983256Y39123D01*
X982940Y37537D01*
X983256Y35951D01*
X984154Y34607D01*
X985498Y33709D01*
X987084Y33394D01*
X988670Y33709D01*
X990014Y34607D01*
X990912Y35951D01*
X991228Y37537D01*
X990912Y39123D01*
X990014Y40467D01*
X988670Y41365D01*
X987084Y41681D01*
D02*
G37*
G36*
X1106786Y41540D02*
X1105200Y41224D01*
X1103856Y40326D01*
X1102958Y38982D01*
X1102642Y37396D01*
X1102958Y35810D01*
X1103856Y34466D01*
X1105200Y33568D01*
X1106786Y33252D01*
X1108372Y33568D01*
X1109716Y34466D01*
X1110614Y35810D01*
X1110930Y37396D01*
X1110614Y38982D01*
X1109716Y40326D01*
X1108372Y41224D01*
X1106786Y41540D01*
D02*
G37*
G36*
X866186Y41228D02*
X864600Y40912D01*
X863256Y40014D01*
X862358Y38670D01*
X862042Y37084D01*
X862358Y35498D01*
X863256Y34154D01*
X864600Y33256D01*
X866186Y32940D01*
X867772Y33256D01*
X869116Y34154D01*
X870014Y35498D01*
X870330Y37084D01*
X870014Y38670D01*
X869116Y40014D01*
X867772Y40912D01*
X866186Y41228D01*
D02*
G37*
G36*
X225646Y41116D02*
X224060Y40800D01*
X222716Y39902D01*
X221818Y38558D01*
X221502Y36972D01*
X221818Y35386D01*
X222716Y34042D01*
X224060Y33144D01*
X225646Y32828D01*
X227232Y33144D01*
X228576Y34042D01*
X229474Y35386D01*
X229790Y36972D01*
X229474Y38558D01*
X228576Y39902D01*
X227232Y40800D01*
X225646Y41116D01*
D02*
G37*
G36*
X107028D02*
X105442Y40800D01*
X104098Y39902D01*
X103200Y38558D01*
X102884Y36972D01*
X103200Y35386D01*
X104098Y34042D01*
X105442Y33144D01*
X107028Y32828D01*
X108614Y33144D01*
X109958Y34042D01*
X110856Y35386D01*
X111172Y36972D01*
X110856Y38558D01*
X109958Y39902D01*
X108614Y40800D01*
X107028Y41116D01*
D02*
G37*
G36*
X802804Y77118D02*
X757804D01*
X756813Y76921D01*
X755973Y76359D01*
X755411Y75519D01*
X755214Y74528D01*
Y34528D01*
X755411Y33537D01*
X755973Y32697D01*
X756813Y32135D01*
X757804Y31938D01*
X802804D01*
X803795Y32135D01*
X804635Y32697D01*
X805197Y33537D01*
X805394Y34528D01*
Y74528D01*
X805197Y75519D01*
X804635Y76359D01*
X803795Y76921D01*
X802804Y77118D01*
D02*
G37*
G36*
X1042834Y77093D02*
X997834D01*
X996843Y76896D01*
X996003Y76335D01*
X995441Y75494D01*
X995244Y74503D01*
Y34503D01*
X995441Y33512D01*
X996003Y32672D01*
X996843Y32111D01*
X997834Y31913D01*
X1042834D01*
X1043825Y32111D01*
X1044665Y32672D01*
X1045227Y33512D01*
X1045424Y34503D01*
Y74503D01*
X1045227Y75494D01*
X1044665Y76335D01*
X1043825Y76896D01*
X1042834Y77093D01*
D02*
G37*
G36*
X522696D02*
X477696D01*
X476705Y76896D01*
X475865Y76335D01*
X475303Y75494D01*
X475106Y74503D01*
Y34503D01*
X475303Y33512D01*
X475865Y32672D01*
X476705Y32111D01*
X477696Y31913D01*
X522696D01*
X523687Y32111D01*
X524527Y32672D01*
X525089Y33512D01*
X525286Y34503D01*
Y74503D01*
X525089Y75494D01*
X524527Y76335D01*
X523687Y76896D01*
X522696Y77093D01*
D02*
G37*
G36*
X402240D02*
X357240D01*
X356249Y76896D01*
X355409Y76335D01*
X354847Y75494D01*
X354650Y74503D01*
Y34503D01*
X354847Y33512D01*
X355409Y32672D01*
X356249Y32111D01*
X357240Y31913D01*
X402240D01*
X403231Y32111D01*
X404071Y32672D01*
X404633Y33512D01*
X404830Y34503D01*
Y74503D01*
X404633Y75494D01*
X404071Y76335D01*
X403231Y76896D01*
X402240Y77093D01*
D02*
G37*
G36*
X1162536Y76952D02*
X1117536D01*
X1116545Y76755D01*
X1115705Y76193D01*
X1115143Y75353D01*
X1114946Y74362D01*
Y34362D01*
X1115143Y33371D01*
X1115705Y32531D01*
X1116545Y31969D01*
X1117536Y31772D01*
X1162536D01*
X1163527Y31969D01*
X1164367Y32531D01*
X1164929Y33371D01*
X1165126Y34362D01*
Y74362D01*
X1164929Y75353D01*
X1164367Y76193D01*
X1163527Y76755D01*
X1162536Y76952D01*
D02*
G37*
G36*
X921936Y76640D02*
X876936D01*
X875945Y76443D01*
X875105Y75881D01*
X874543Y75041D01*
X874346Y74050D01*
Y34050D01*
X874543Y33059D01*
X875105Y32219D01*
X875945Y31657D01*
X876936Y31460D01*
X921936D01*
X922927Y31657D01*
X923767Y32219D01*
X924329Y33059D01*
X924526Y34050D01*
Y74050D01*
X924329Y75041D01*
X923767Y75881D01*
X922927Y76443D01*
X921936Y76640D01*
D02*
G37*
G36*
X281396Y76168D02*
X236396D01*
X235405Y75971D01*
X234565Y75409D01*
X234003Y74569D01*
X233806Y73578D01*
Y33578D01*
X234003Y32587D01*
X234565Y31747D01*
X235405Y31185D01*
X236396Y30988D01*
X281396D01*
X282387Y31185D01*
X283227Y31747D01*
X283789Y32587D01*
X283986Y33578D01*
Y73578D01*
X283789Y74569D01*
X283227Y75409D01*
X282387Y75971D01*
X281396Y76168D01*
D02*
G37*
G36*
X162778D02*
X117778D01*
X116787Y75971D01*
X115947Y75409D01*
X115385Y74569D01*
X115188Y73578D01*
Y33578D01*
X115385Y32587D01*
X115947Y31747D01*
X116787Y31185D01*
X117778Y30988D01*
X162778D01*
X163769Y31185D01*
X164609Y31747D01*
X165171Y32587D01*
X165368Y33578D01*
Y73578D01*
X165171Y74569D01*
X164609Y75409D01*
X163769Y75971D01*
X162778Y76168D01*
D02*
G37*
G36*
X842934Y31160D02*
X841348Y30844D01*
X840004Y29946D01*
X839106Y28602D01*
X838790Y27016D01*
X839106Y25430D01*
X840004Y24086D01*
X841348Y23188D01*
X842934Y22872D01*
X844520Y23188D01*
X845864Y24086D01*
X846762Y25430D01*
X847078Y27016D01*
X846762Y28602D01*
X845864Y29946D01*
X844520Y30844D01*
X842934Y31160D01*
D02*
G37*
G36*
X322771Y30915D02*
X321185Y30599D01*
X319841Y29701D01*
X318943Y28357D01*
X318627Y26771D01*
X318943Y25185D01*
X319841Y23841D01*
X321185Y22943D01*
X322771Y22627D01*
X324357Y22943D01*
X325701Y23841D01*
X326599Y25185D01*
X326915Y26771D01*
X326599Y28357D01*
X325701Y29701D01*
X324357Y30599D01*
X322771Y30915D01*
D02*
G37*
G36*
X1083056Y30560D02*
X1081470Y30244D01*
X1080126Y29346D01*
X1079228Y28002D01*
X1078912Y26416D01*
X1079228Y24830D01*
X1080126Y23486D01*
X1081470Y22588D01*
X1083056Y22272D01*
X1084642Y22588D01*
X1085986Y23486D01*
X1086884Y24830D01*
X1087200Y26416D01*
X1086884Y28002D01*
X1085986Y29346D01*
X1084642Y30244D01*
X1083056Y30560D01*
D02*
G37*
G36*
X962660D02*
X961074Y30244D01*
X959730Y29346D01*
X958832Y28002D01*
X958516Y26416D01*
X958832Y24830D01*
X959730Y23486D01*
X961074Y22588D01*
X962660Y22272D01*
X964246Y22588D01*
X965590Y23486D01*
X966488Y24830D01*
X966804Y26416D01*
X966488Y28002D01*
X965590Y29346D01*
X964246Y30244D01*
X962660Y30560D01*
D02*
G37*
G36*
X203080Y29224D02*
X201494Y28908D01*
X200150Y28010D01*
X199252Y26666D01*
X198936Y25080D01*
X199252Y23494D01*
X200150Y22150D01*
X201494Y21252D01*
X203080Y20936D01*
X204666Y21252D01*
X206010Y22150D01*
X206908Y23494D01*
X207224Y25080D01*
X206908Y26666D01*
X206010Y28010D01*
X204666Y28908D01*
X203080Y29224D01*
D02*
G37*
G36*
X442408Y28842D02*
X440822Y28526D01*
X439478Y27628D01*
X438580Y26284D01*
X438264Y24698D01*
X438580Y23112D01*
X439478Y21768D01*
X440822Y20870D01*
X442408Y20554D01*
X443994Y20870D01*
X445338Y21768D01*
X446236Y23112D01*
X446552Y24698D01*
X446236Y26284D01*
X445338Y27628D01*
X443994Y28526D01*
X442408Y28842D01*
D02*
G37*
%LPD*%
G36*
X649250Y275686D02*
X649250Y274695D01*
X648257Y273831D01*
X647867Y274091D01*
X646282Y274407D01*
X644696Y274091D01*
X643352Y273193D01*
X642453Y271849D01*
X642138Y270263D01*
X642453Y268678D01*
X643352Y267333D01*
X644696Y266435D01*
X646282Y266120D01*
X647867Y266435D01*
X649212Y267333D01*
X650110Y268678D01*
X650425Y270263D01*
X650110Y271849D01*
X649303Y273057D01*
X649212Y273193D01*
X649137Y273397D01*
X649788Y274500D01*
X650439Y274500D01*
X713375D01*
Y255500D01*
X613750D01*
Y246752D01*
X612775Y245952D01*
X611189Y245636D01*
X609845Y244738D01*
X608947Y243394D01*
X608631Y241808D01*
X608947Y240222D01*
X609845Y238878D01*
X611189Y237980D01*
X612775Y237664D01*
X613750Y236864D01*
Y210000D01*
X598684Y210000D01*
X598298Y211270D01*
X599322Y211954D01*
X600220Y213298D01*
X600536Y214884D01*
X600220Y216470D01*
X599322Y217814D01*
X597978Y218712D01*
X596392Y219028D01*
X594806Y218712D01*
X593462Y217814D01*
X592564Y216470D01*
X592248Y214884D01*
X592564Y213298D01*
X593462Y211954D01*
X594486Y211270D01*
X594100Y210000D01*
X569500Y210000D01*
X569500Y259750D01*
X518250Y259750D01*
Y269579D01*
X639500D01*
Y322000D01*
X649250D01*
Y275686D01*
D02*
G37*
%LPC*%
G36*
X690534Y268407D02*
X688948Y268091D01*
X687604Y267193D01*
X686705Y265849D01*
X686390Y264263D01*
X686705Y262677D01*
X687604Y261333D01*
X688948Y260435D01*
X690534Y260119D01*
X692119Y260435D01*
X693464Y261333D01*
X694362Y262677D01*
X694677Y264263D01*
X694362Y265849D01*
X693464Y267193D01*
X692119Y268091D01*
X690534Y268407D01*
D02*
G37*
G36*
X582676Y266526D02*
X581090Y266210D01*
X579746Y265312D01*
X578848Y263968D01*
X578532Y262382D01*
X578848Y260796D01*
X579746Y259452D01*
X581090Y258554D01*
X582676Y258238D01*
X584262Y258554D01*
X585606Y259452D01*
X586504Y260796D01*
X586820Y262382D01*
X586504Y263968D01*
X585606Y265312D01*
X584262Y266210D01*
X582676Y266526D01*
D02*
G37*
G36*
X608076Y254588D02*
X606490Y254272D01*
X605146Y253374D01*
X604248Y252030D01*
X603932Y250444D01*
X604248Y248858D01*
X605146Y247514D01*
X606490Y246616D01*
X608076Y246300D01*
X609662Y246616D01*
X611006Y247514D01*
X611904Y248858D01*
X612220Y250444D01*
X611904Y252030D01*
X611006Y253374D01*
X609662Y254272D01*
X608076Y254588D01*
D02*
G37*
G36*
X589200Y248967D02*
X586879Y248661D01*
X584717Y247765D01*
X582860Y246340D01*
X581672Y244793D01*
X580925Y244518D01*
X580098Y244574D01*
X579102Y245240D01*
X577516Y245555D01*
X575930Y245240D01*
X574586Y244342D01*
X573688Y242997D01*
X573372Y241412D01*
X573688Y239826D01*
X574586Y238482D01*
X575930Y237583D01*
X577516Y237268D01*
X579102Y237583D01*
X579366Y237760D01*
X580754Y237160D01*
X581435Y235517D01*
X582860Y233660D01*
X584717Y232235D01*
X586879Y231339D01*
X589200Y231033D01*
X591521Y231339D01*
X593683Y232235D01*
X595540Y233660D01*
X596965Y235517D01*
X597861Y237679D01*
X598167Y240000D01*
X597861Y242321D01*
X596965Y244483D01*
X595540Y246340D01*
X593683Y247765D01*
X591521Y248661D01*
X589200Y248967D01*
D02*
G37*
G36*
X608330Y222584D02*
X606744Y222268D01*
X605400Y221370D01*
X604502Y220026D01*
X604186Y218440D01*
X604502Y216854D01*
X605400Y215510D01*
X606744Y214612D01*
X608330Y214296D01*
X609916Y214612D01*
X611260Y215510D01*
X612158Y216854D01*
X612474Y218440D01*
X612158Y220026D01*
X611260Y221370D01*
X609916Y222268D01*
X608330Y222584D01*
D02*
G37*
%LPD*%
D14*
X709823Y364423D02*
Y405571D01*
X673755Y364423D02*
Y405571D01*
Y364423D02*
X709823D01*
X673755Y405571D02*
X709823D01*
X1161070Y469144D02*
Y505212D01*
X1119922Y469144D02*
Y505212D01*
X1161070D01*
X1119922Y469144D02*
X1161070D01*
X1119462Y36328D02*
Y72396D01*
X1160610Y36328D02*
Y72396D01*
X1119462Y36328D02*
X1160610D01*
X1119462Y72396D02*
X1160610D01*
X980222Y79820D02*
Y115888D01*
X939074Y79820D02*
Y115888D01*
X980222D01*
X939074Y79820D02*
X980222D01*
X878862Y36016D02*
Y72084D01*
X920010Y36016D02*
Y72084D01*
X878862Y36016D02*
X920010D01*
X878862Y72084D02*
X920010D01*
X860496Y79396D02*
Y115464D01*
X819348Y79396D02*
Y115464D01*
X860496D01*
X819348Y79396D02*
X860496D01*
X999760Y36469D02*
Y72537D01*
X1040908Y36469D02*
Y72537D01*
X999760Y36469D02*
X1040908D01*
X999760Y72537D02*
X1040908D01*
X1100618Y79762D02*
Y115830D01*
X1059470Y79762D02*
Y115830D01*
X1100618D01*
X1059470Y79762D02*
X1100618D01*
X939546Y425374D02*
Y461442D01*
X980694Y425374D02*
Y461442D01*
X939546Y425374D02*
X980694D01*
X939546Y461442D02*
X980694D01*
X920540Y468718D02*
Y504786D01*
X879392Y468718D02*
Y504786D01*
X920540D01*
X879392Y468718D02*
X920540D01*
X800109Y469199D02*
Y505267D01*
X758961Y469199D02*
Y505267D01*
X800109D01*
X758961Y469199D02*
X800109D01*
X674056Y176040D02*
X710124D01*
X674056Y134892D02*
X710124D01*
X674056D02*
Y176040D01*
X710124Y134892D02*
Y176040D01*
X569610Y133605D02*
X605678D01*
X569610Y174753D02*
X605678D01*
Y133605D02*
Y174753D01*
X569610Y133605D02*
Y174753D01*
X759730Y36494D02*
Y72562D01*
X800878Y36494D02*
Y72562D01*
X759730Y36494D02*
X800878D01*
X759730Y72562D02*
X800878D01*
X1040868Y468884D02*
Y504952D01*
X999720Y468884D02*
Y504952D01*
X1040868D01*
X999720Y468884D02*
X1040868D01*
X819682Y424942D02*
Y461010D01*
X860830Y424942D02*
Y461010D01*
X819682Y424942D02*
X860830D01*
X819682Y461010D02*
X860830D01*
X570418Y364893D02*
X606486D01*
X570418Y406041D02*
X606486D01*
Y364893D02*
Y406041D01*
X570418Y364893D02*
Y406041D01*
X1059410Y424942D02*
Y461010D01*
X1100558Y424942D02*
Y461010D01*
X1059410Y424942D02*
X1100558D01*
X1059410Y461010D02*
X1100558D01*
X340090Y80094D02*
Y116162D01*
X298942Y80094D02*
Y116162D01*
X340090D01*
X298942Y80094D02*
X340090D01*
X459978Y79708D02*
Y115776D01*
X418830Y79708D02*
Y115776D01*
X459978D01*
X418830Y79708D02*
X459978D01*
X49352Y134185D02*
X85420D01*
X49352Y175333D02*
X85420D01*
Y134185D02*
Y175333D01*
X49352Y134185D02*
Y175333D01*
X220650Y78546D02*
Y114614D01*
X179502Y78546D02*
Y114614D01*
X220650D01*
X179502Y78546D02*
X220650D01*
X359166Y36469D02*
Y72537D01*
X400314Y36469D02*
Y72537D01*
X359166Y36469D02*
X400314D01*
X359166Y72537D02*
X400314D01*
X479622Y36469D02*
Y72537D01*
X520770Y36469D02*
Y72537D01*
X479622Y36469D02*
X520770D01*
X479622Y72537D02*
X520770D01*
X119704Y35544D02*
Y71612D01*
X160852Y35544D02*
Y71612D01*
X119704Y35544D02*
X160852D01*
X119704Y71612D02*
X160852D01*
X238322Y35544D02*
Y71612D01*
X279470Y35544D02*
Y71612D01*
X238322Y35544D02*
X279470D01*
X238322Y71612D02*
X279470D01*
X280138Y469724D02*
Y505792D01*
X238990Y469724D02*
Y505792D01*
X280138D01*
X238990Y469724D02*
X280138D01*
X401490Y468630D02*
Y504698D01*
X360342Y468630D02*
Y504698D01*
X401490D01*
X360342Y468630D02*
X401490D01*
X521124Y468424D02*
Y504492D01*
X479976Y468424D02*
Y504492D01*
X521124D01*
X479976Y468424D02*
X521124D01*
X48000Y364320D02*
X84068D01*
X48000Y405468D02*
X84068D01*
Y364320D02*
Y405468D01*
X48000Y364320D02*
Y405468D01*
X299490Y425704D02*
Y461772D01*
X340638Y425704D02*
Y461772D01*
X299490Y425704D02*
X340638D01*
X299490Y461772D02*
X340638D01*
X420394Y424688D02*
Y460756D01*
X461542Y424688D02*
Y460756D01*
X420394Y424688D02*
X461542D01*
X420394Y460756D02*
X461542D01*
X179086Y425368D02*
Y461436D01*
X220234Y425368D02*
Y461436D01*
X179086Y425368D02*
X220234D01*
X179086Y461436D02*
X220234D01*
X159248Y468906D02*
Y504974D01*
X118100Y468906D02*
Y504974D01*
X159248D01*
X118100Y468906D02*
X159248D01*
D51*
X852330Y312420D02*
D03*
X890086Y234950D02*
D03*
X756589Y212286D02*
D03*
X1120902Y240866D02*
D03*
X362482Y325947D02*
D03*
X992349Y357500D02*
D03*
X884840Y372340D02*
D03*
X720500Y315301D02*
D03*
X679156Y319468D02*
D03*
X522250Y263320D02*
D03*
X503750D02*
D03*
X516500Y263250D02*
D03*
X497500Y263320D02*
D03*
X654050Y318008D02*
D03*
X926279Y316776D02*
D03*
X857750Y248750D02*
D03*
X793208Y235966D02*
D03*
X1126490Y254510D02*
D03*
X1172494Y215006D02*
D03*
X1194054Y252730D02*
D03*
X997722Y194377D02*
D03*
X707644Y264632D02*
D03*
X845312Y224282D02*
D03*
X638810Y354114D02*
D03*
X593598Y336130D02*
D03*
X210262Y220336D02*
D03*
X219588Y297180D02*
D03*
X588296Y215071D02*
D03*
X417576Y217932D02*
D03*
X533446Y204516D02*
D03*
X477577Y305365D02*
D03*
X366644Y197319D02*
D03*
X445628Y294782D02*
D03*
X435102Y295656D02*
D03*
X640334Y185206D02*
D03*
X644398Y318008D02*
D03*
X1220182Y322360D02*
D03*
X1256680Y219598D02*
D03*
X1061894Y300054D02*
D03*
X1081024Y321818D02*
D03*
X439518Y172720D02*
D03*
X1067562Y168656D02*
D03*
X1056386Y167470D02*
D03*
X738803Y17028D02*
D03*
X1120843Y135756D02*
D03*
X1000447Y135814D02*
D03*
X1098535Y16862D02*
D03*
X978833Y17003D02*
D03*
X857935Y16550D02*
D03*
X1181295Y525138D02*
D03*
X772414Y385318D02*
D03*
X1043241Y351776D02*
D03*
X931418Y179466D02*
D03*
X1048654Y215138D02*
D03*
X880721Y135390D02*
D03*
X918619Y405908D02*
D03*
X941467Y524252D02*
D03*
X821036Y524733D02*
D03*
X626573Y111420D02*
D03*
X1061093Y524878D02*
D03*
X799457Y405016D02*
D03*
X1039185D02*
D03*
X653829Y425796D02*
D03*
X412834Y346802D02*
D03*
X295872Y311802D02*
D03*
X252984Y361835D02*
D03*
X267970Y246380D02*
D03*
X300340Y182260D02*
D03*
X458695Y17003D02*
D03*
X217395Y16078D02*
D03*
X480905Y135242D02*
D03*
X361017Y135628D02*
D03*
X138674Y222719D02*
D03*
X423904Y526774D02*
D03*
X104886Y113258D02*
D03*
X241577Y134080D02*
D03*
X338239Y14040D02*
D03*
X98777Y16078D02*
D03*
X144892Y374396D02*
D03*
X301065Y525258D02*
D03*
X541349Y524418D02*
D03*
X103534Y343393D02*
D03*
X278563Y406238D02*
D03*
X399467Y405222D02*
D03*
X180175Y524440D02*
D03*
X158159Y405902D02*
D03*
M02*
