G04*
G04 #@! TF.GenerationSoftware,Altium Limited,Altium Designer,18.1.9 (240)*
G04*
G04 Layer_Color=8388736*
%FSLAX44Y44*%
%MOMM*%
G71*
G01*
G75*
%ADD16C,0.2540*%
%ADD74C,3.0000*%
%ADD75C,2.7500*%
%ADD76R,2.7500X2.7500*%
%ADD119R,1.0270X0.8270*%
%ADD120R,1.7270X0.9270*%
%ADD121R,3.1270X2.2270*%
%ADD122R,0.8270X1.0270*%
%ADD123R,2.1844X0.7366*%
%ADD124R,2.2270X1.5270*%
%ADD125R,0.9270X1.0270*%
%ADD126R,1.0270X0.9270*%
%ADD127R,0.5270X0.9770*%
%ADD128R,0.5770X1.5270*%
%ADD129R,0.7270X2.3270*%
%ADD130R,1.6270X0.6770*%
%ADD131R,0.6770X1.6270*%
%ADD132R,0.8770X0.8270*%
%ADD133R,1.3270X1.9270*%
%ADD134R,2.1270X0.7270*%
%ADD135R,0.9270X1.7270*%
%ADD136R,2.2270X3.1270*%
%ADD137R,0.7270X1.1270*%
%ADD138R,1.3770X1.9270*%
%ADD139R,1.2270X1.5270*%
%ADD140R,1.5270X1.2270*%
%ADD141R,0.3870X1.0270*%
%ADD142R,1.0270X0.3870*%
%ADD143R,3.1970X2.1970*%
%ADD144R,2.3114X0.6858*%
%ADD145R,0.6858X2.3114*%
%ADD146R,2.3270X0.7270*%
%ADD147R,1.2954X0.4826*%
%ADD148R,0.4826X1.2954*%
%ADD149R,1.3970X2.3870*%
%ADD150R,1.6270X1.3270*%
%ADD151R,1.7270X7.4770*%
%ADD152R,0.3216X1.8916*%
%ADD153R,0.7016X0.3416*%
%ADD154R,0.3416X0.7016*%
G04:AMPARAMS|DCode=155|XSize=1.027mm|YSize=0.827mm|CornerRadius=0mm|HoleSize=0mm|Usage=FLASHONLY|Rotation=315.000|XOffset=0mm|YOffset=0mm|HoleType=Round|Shape=Rectangle|*
%AMROTATEDRECTD155*
4,1,4,-0.6555,0.0707,-0.0707,0.6555,0.6555,-0.0707,0.0707,-0.6555,-0.6555,0.0707,0.0*
%
%ADD155ROTATEDRECTD155*%

%ADD156R,0.7270X1.2270*%
%ADD157R,0.6858X1.3970*%
%ADD158R,0.4270X1.5770*%
%ADD159R,1.8270X1.2270*%
%ADD160R,0.5588X1.7780*%
%ADD161R,1.1270X1.9270*%
%ADD162R,0.3770X1.1270*%
%ADD163R,1.1270X0.3770*%
%ADD164R,0.5770X1.4770*%
%ADD165R,1.1270X0.5970*%
%ADD166R,0.9670X0.3870*%
%ADD167R,0.3870X0.9670*%
%ADD168R,3.7270X3.7270*%
%ADD169C,1.8170*%
%ADD170R,1.8170X1.8170*%
%ADD171C,4.8870*%
%ADD172R,1.6270X1.6270*%
%ADD173C,1.6270*%
%ADD174C,1.6510*%
%ADD175R,1.6510X1.6510*%
%ADD176R,1.6270X1.6270*%
%ADD177C,2.0770*%
%ADD178C,5.6270*%
%ADD179C,1.6770*%
%ADD180R,1.6770X1.6770*%
%ADD181C,1.1938*%
%ADD182C,3.6270*%
%ADD183C,2.3270*%
%ADD184O,3.1430X1.6350*%
%ADD185C,1.7270*%
%ADD186O,1.6350X3.1430*%
%ADD187R,1.6510X1.6510*%
%ADD188C,0.7270*%
%ADD189C,2.9210*%
D16*
X1213208Y254036D02*
Y1156328D01*
X2171804D01*
X2171804Y254036D01*
X1213208D02*
X2171804D01*
X2521910Y254120D02*
Y854120D01*
Y254120D02*
X2171910D01*
Y854120D01*
X2521910D02*
X2171910D01*
X1213000Y254050D02*
X254150D01*
X254150Y1155750D01*
X1213000D02*
X254150D01*
X1213000D02*
Y254050D01*
D74*
X2097986Y708538D02*
D03*
D75*
X1969986D02*
D03*
D76*
X2024986D02*
D03*
D119*
X1983208Y796544D02*
D03*
Y811544D02*
D03*
X1326208Y903036D02*
D03*
Y918036D02*
D03*
X1983208Y774896D02*
D03*
Y759896D02*
D03*
X1326206Y875616D02*
D03*
Y860616D02*
D03*
X1938200Y962536D02*
D03*
Y977536D02*
D03*
Y1016413D02*
D03*
Y1001413D02*
D03*
X1816063Y1018413D02*
D03*
Y1003413D02*
D03*
X1876208Y1017413D02*
D03*
Y1002413D02*
D03*
X1763208Y1018413D02*
D03*
Y1003413D02*
D03*
X1705663Y1017413D02*
D03*
Y1002413D02*
D03*
X1816063Y963536D02*
D03*
Y978536D02*
D03*
X1877513Y962536D02*
D03*
Y977536D02*
D03*
X1763378Y963231D02*
D03*
Y978231D02*
D03*
X1706588Y962536D02*
D03*
Y977536D02*
D03*
X2257916Y545084D02*
D03*
Y530084D02*
D03*
X2446560Y449058D02*
D03*
Y464058D02*
D03*
X2276368Y625334D02*
D03*
Y640334D02*
D03*
X2261814Y624946D02*
D03*
Y639946D02*
D03*
X2251618Y475572D02*
D03*
Y460572D02*
D03*
X2304464Y516128D02*
D03*
Y501128D02*
D03*
X2321504Y534416D02*
D03*
Y519416D02*
D03*
X2265278Y386948D02*
D03*
Y401948D02*
D03*
X2341900Y836600D02*
D03*
Y821600D02*
D03*
X2325390Y836600D02*
D03*
Y821600D02*
D03*
X2308880Y836600D02*
D03*
Y821600D02*
D03*
X2358410Y836600D02*
D03*
Y821600D02*
D03*
X2374920Y837050D02*
D03*
Y822050D02*
D03*
X2391430Y836930D02*
D03*
Y821930D02*
D03*
X2358410Y807150D02*
D03*
Y792150D02*
D03*
X2374920Y807150D02*
D03*
Y792150D02*
D03*
X2391430Y807270D02*
D03*
Y792270D02*
D03*
X2325538Y807271D02*
D03*
Y792271D02*
D03*
X2341900Y807270D02*
D03*
Y792270D02*
D03*
X2308880Y807270D02*
D03*
Y792270D02*
D03*
X924710Y595473D02*
D03*
Y610473D02*
D03*
X912010Y595425D02*
D03*
Y610425D02*
D03*
X872640Y604570D02*
D03*
Y589570D02*
D03*
X692001Y736850D02*
D03*
Y721850D02*
D03*
X792422Y1081250D02*
D03*
Y1066250D02*
D03*
X834342Y425600D02*
D03*
Y410600D02*
D03*
X853233Y425854D02*
D03*
Y410854D02*
D03*
X1002500Y397500D02*
D03*
Y382500D02*
D03*
X898932Y431750D02*
D03*
Y416750D02*
D03*
X941832Y431750D02*
D03*
Y416750D02*
D03*
X993742Y450780D02*
D03*
Y435780D02*
D03*
X382044Y338236D02*
D03*
Y323236D02*
D03*
X395666Y338236D02*
D03*
Y323236D02*
D03*
X536856Y655841D02*
D03*
Y670841D02*
D03*
X522356Y655841D02*
D03*
Y670841D02*
D03*
X577999Y736945D02*
D03*
Y721945D02*
D03*
X643632Y736945D02*
D03*
Y721945D02*
D03*
X591000Y914750D02*
D03*
Y929751D02*
D03*
X604000Y914750D02*
D03*
Y929751D02*
D03*
X605000Y946251D02*
D03*
Y961251D02*
D03*
X619000Y946251D02*
D03*
Y961251D02*
D03*
X809200Y1036849D02*
D03*
Y1051849D02*
D03*
X828100Y1036250D02*
D03*
Y1051250D02*
D03*
X847000Y1036849D02*
D03*
Y1051849D02*
D03*
X865000Y1036849D02*
D03*
Y1051849D02*
D03*
X882600Y1036849D02*
D03*
Y1051849D02*
D03*
X901100Y1036849D02*
D03*
Y1051849D02*
D03*
X809500Y1066333D02*
D03*
Y1081333D02*
D03*
X828100Y1066333D02*
D03*
Y1081333D02*
D03*
X846700Y1066333D02*
D03*
Y1081333D02*
D03*
X865300Y1066333D02*
D03*
Y1081333D02*
D03*
X901100Y1065750D02*
D03*
Y1080750D02*
D03*
X882900Y1066333D02*
D03*
Y1081333D02*
D03*
D120*
X1272208Y955986D02*
D03*
Y943486D02*
D03*
Y968486D02*
D03*
Y980986D02*
D03*
Y840616D02*
D03*
Y828116D02*
D03*
Y803116D02*
D03*
Y815616D02*
D03*
Y696536D02*
D03*
Y684036D02*
D03*
Y659036D02*
D03*
Y671536D02*
D03*
Y560678D02*
D03*
Y548178D02*
D03*
Y523178D02*
D03*
Y535678D02*
D03*
D121*
X1243208Y1006486D02*
D03*
Y917986D02*
D03*
Y777616D02*
D03*
Y866116D02*
D03*
Y633536D02*
D03*
Y722036D02*
D03*
Y497678D02*
D03*
Y586178D02*
D03*
D122*
X1529608Y554036D02*
D03*
X1544608D02*
D03*
X1528238Y516036D02*
D03*
X1543238D02*
D03*
X1777208Y564036D02*
D03*
X1792208D02*
D03*
X1718708Y564036D02*
D03*
X1733708D02*
D03*
X1584318Y516036D02*
D03*
X1599318D02*
D03*
X1954208Y565036D02*
D03*
X1969208D02*
D03*
X1776208Y522904D02*
D03*
X1791208D02*
D03*
X1489608Y516786D02*
D03*
X1474608D02*
D03*
X1700903Y692036D02*
D03*
X1715903D02*
D03*
X2086708Y525036D02*
D03*
X2071708D02*
D03*
X1733233Y522036D02*
D03*
X1718233D02*
D03*
X2019840Y917786D02*
D03*
X2004840D02*
D03*
X2027208Y524536D02*
D03*
X2012208D02*
D03*
X1967208Y524536D02*
D03*
X1952208D02*
D03*
X2123208Y915786D02*
D03*
X2108208D02*
D03*
X1843208Y522036D02*
D03*
X1828208D02*
D03*
X1601358Y554036D02*
D03*
X1586358D02*
D03*
X2086188Y565036D02*
D03*
X2071188D02*
D03*
X2028208D02*
D03*
X2013208D02*
D03*
X1843208Y564786D02*
D03*
X1828208D02*
D03*
X1489108Y554036D02*
D03*
X1474108D02*
D03*
X1763903Y691036D02*
D03*
X1748903D02*
D03*
X2019840Y953338D02*
D03*
X2004840D02*
D03*
X2123208Y953339D02*
D03*
X2108208D02*
D03*
X2433398Y563746D02*
D03*
X2418398D02*
D03*
X2433144Y373170D02*
D03*
X2418144D02*
D03*
X2280236Y501774D02*
D03*
X2265236D02*
D03*
X2324940Y374008D02*
D03*
X2309940D02*
D03*
X2382536Y744086D02*
D03*
X2397536D02*
D03*
X2266414Y276523D02*
D03*
X2281414D02*
D03*
X2343281Y276318D02*
D03*
X2328281D02*
D03*
X2403934Y277279D02*
D03*
X2388934D02*
D03*
X704425Y739750D02*
D03*
X719426D02*
D03*
X836378Y439182D02*
D03*
X851378D02*
D03*
X931272Y331549D02*
D03*
X946272D02*
D03*
X1050100Y330550D02*
D03*
X1035100D02*
D03*
X988090Y359714D02*
D03*
X973090D02*
D03*
X912750Y431750D02*
D03*
X927750D02*
D03*
X785585Y723600D02*
D03*
X770585D02*
D03*
X835566Y627222D02*
D03*
X820565D02*
D03*
X835566Y640746D02*
D03*
X820565D02*
D03*
X835566Y653746D02*
D03*
X820565D02*
D03*
X835566Y667846D02*
D03*
X820565D02*
D03*
X835566Y681022D02*
D03*
X820565D02*
D03*
X835566Y695171D02*
D03*
X820565D02*
D03*
X880900Y736750D02*
D03*
X865900D02*
D03*
X631500Y735750D02*
D03*
X616500D02*
D03*
X567720Y989380D02*
D03*
X552720D02*
D03*
X552650Y1002899D02*
D03*
X567650D02*
D03*
X552650Y1016850D02*
D03*
X567650D02*
D03*
X552650Y1030850D02*
D03*
X567650D02*
D03*
X680150Y986750D02*
D03*
X665150D02*
D03*
X680150Y1031750D02*
D03*
X665150D02*
D03*
X632723Y811751D02*
D03*
X647722D02*
D03*
X646500Y939750D02*
D03*
X631500D02*
D03*
D123*
X1699903Y858136D02*
D03*
Y845436D02*
D03*
Y832736D02*
D03*
Y820036D02*
D03*
Y807336D02*
D03*
Y794636D02*
D03*
Y781936D02*
D03*
X1747909D02*
D03*
Y794636D02*
D03*
Y807336D02*
D03*
Y820036D02*
D03*
Y832736D02*
D03*
Y845436D02*
D03*
Y858136D02*
D03*
X1857202D02*
D03*
Y845436D02*
D03*
Y832736D02*
D03*
Y820036D02*
D03*
Y807336D02*
D03*
Y794636D02*
D03*
Y781936D02*
D03*
X1905208D02*
D03*
Y794636D02*
D03*
Y807336D02*
D03*
Y820036D02*
D03*
Y832736D02*
D03*
Y845436D02*
D03*
Y858136D02*
D03*
D124*
X1558405Y302036D02*
D03*
Y347036D02*
D03*
X1467405Y302036D02*
D03*
Y347036D02*
D03*
X1790508Y301536D02*
D03*
Y346536D02*
D03*
X1699508Y301536D02*
D03*
Y346536D02*
D03*
X2026252Y301536D02*
D03*
Y346536D02*
D03*
X1935252Y301536D02*
D03*
Y346536D02*
D03*
D125*
X2306714Y276726D02*
D03*
X2292714D02*
D03*
X2372670Y605910D02*
D03*
X2386670D02*
D03*
X2274902Y763764D02*
D03*
X2288902D02*
D03*
X2277928Y412870D02*
D03*
X2291928D02*
D03*
X2277532Y395852D02*
D03*
X2291532D02*
D03*
X2397036Y730878D02*
D03*
X2383036D02*
D03*
X2415484Y277100D02*
D03*
X2429484D02*
D03*
X2355946Y276770D02*
D03*
X2369946D02*
D03*
X2357696Y730502D02*
D03*
X2371696D02*
D03*
X745055Y475109D02*
D03*
X731055D02*
D03*
X740127Y739750D02*
D03*
X754127D02*
D03*
X601124Y840751D02*
D03*
X615124D02*
D03*
X412500Y578189D02*
D03*
X398500D02*
D03*
X412500Y590750D02*
D03*
X398500D02*
D03*
X412500Y602845D02*
D03*
X398500D02*
D03*
X412500Y615391D02*
D03*
X398500D02*
D03*
X438426Y614362D02*
D03*
X424426D02*
D03*
X411634Y511150D02*
D03*
X425634D02*
D03*
X453134Y511150D02*
D03*
X439134D02*
D03*
X490990Y361036D02*
D03*
X504990D02*
D03*
X490990Y348336D02*
D03*
X504990D02*
D03*
X719036Y639985D02*
D03*
X733036D02*
D03*
X768249Y674665D02*
D03*
X782249D02*
D03*
X892466Y719465D02*
D03*
X878466D02*
D03*
X613499Y594031D02*
D03*
X599499D02*
D03*
X591000Y722945D02*
D03*
X605000D02*
D03*
X617000Y722945D02*
D03*
X631000D02*
D03*
X540550Y1002899D02*
D03*
X526550D02*
D03*
X548500Y796875D02*
D03*
X562500D02*
D03*
X625000Y920750D02*
D03*
X639000D02*
D03*
D126*
X2405324Y536934D02*
D03*
Y550934D02*
D03*
X2445202Y430792D02*
D03*
Y416792D02*
D03*
X2291786Y515120D02*
D03*
Y501120D02*
D03*
X400586Y667445D02*
D03*
Y653445D02*
D03*
X757705Y489110D02*
D03*
Y475109D02*
D03*
X700369Y518703D02*
D03*
Y504703D02*
D03*
X755152Y518109D02*
D03*
Y504109D02*
D03*
X768141Y518109D02*
D03*
Y504109D02*
D03*
X913000Y375000D02*
D03*
Y389000D02*
D03*
X981242Y436476D02*
D03*
Y450476D02*
D03*
X968411Y436476D02*
D03*
Y450476D02*
D03*
X769770Y406056D02*
D03*
Y392056D02*
D03*
X955190Y436476D02*
D03*
Y450476D02*
D03*
X424650Y583750D02*
D03*
Y597750D02*
D03*
X478686Y537372D02*
D03*
Y551372D02*
D03*
X399134Y528000D02*
D03*
Y542000D02*
D03*
X365444Y337736D02*
D03*
Y323736D02*
D03*
X753808Y632854D02*
D03*
Y646854D02*
D03*
X768810Y632854D02*
D03*
Y646854D02*
D03*
X782807Y646854D02*
D03*
Y632854D02*
D03*
X776500Y710550D02*
D03*
Y696550D02*
D03*
X667650Y999750D02*
D03*
Y1013750D02*
D03*
X681650Y999750D02*
D03*
Y1013750D02*
D03*
X591000Y856751D02*
D03*
Y870751D02*
D03*
X576624Y856050D02*
D03*
Y870051D02*
D03*
X576000Y840751D02*
D03*
Y826751D02*
D03*
X590001Y825201D02*
D03*
Y811201D02*
D03*
X636500Y831500D02*
D03*
Y845500D02*
D03*
X591000Y886751D02*
D03*
Y900751D02*
D03*
D127*
X2430620Y551120D02*
D03*
X2424120D02*
D03*
X2417620D02*
D03*
Y528620D02*
D03*
X2430620D02*
D03*
D128*
X2249656Y688721D02*
D03*
X2256156D02*
D03*
X2262656D02*
D03*
X2269156D02*
D03*
X2275656D02*
D03*
X2282156D02*
D03*
X2288656D02*
D03*
X2295156D02*
D03*
X2249656Y747721D02*
D03*
X2256156D02*
D03*
X2262656D02*
D03*
X2269156D02*
D03*
X2275656D02*
D03*
X2282156D02*
D03*
X2288656D02*
D03*
X2295156D02*
D03*
D129*
X2402956Y299476D02*
D03*
Y351476D02*
D03*
X2390256Y299476D02*
D03*
X2415656D02*
D03*
X2428356D02*
D03*
X2390256Y351476D02*
D03*
X2415656D02*
D03*
X2428356D02*
D03*
X2303724Y482304D02*
D03*
X2291024D02*
D03*
X2265624D02*
D03*
X2303724Y430304D02*
D03*
X2291024D02*
D03*
X2265624D02*
D03*
X2278324Y482304D02*
D03*
Y430304D02*
D03*
X2367224Y351332D02*
D03*
X2354524D02*
D03*
X2329124D02*
D03*
X2367224Y299332D02*
D03*
X2354524D02*
D03*
X2329124D02*
D03*
X2341824Y351332D02*
D03*
Y299332D02*
D03*
X2305756Y350824D02*
D03*
X2293056D02*
D03*
X2267656D02*
D03*
X2305756Y298824D02*
D03*
X2293056D02*
D03*
X2267656D02*
D03*
X2280356Y350824D02*
D03*
Y298824D02*
D03*
D130*
X2334130Y640140D02*
D03*
Y648140D02*
D03*
Y656140D02*
D03*
Y664140D02*
D03*
Y672140D02*
D03*
Y680140D02*
D03*
Y688140D02*
D03*
Y696140D02*
D03*
X2420130D02*
D03*
Y688140D02*
D03*
Y680140D02*
D03*
Y672140D02*
D03*
Y664140D02*
D03*
Y656140D02*
D03*
Y648140D02*
D03*
Y640140D02*
D03*
X649999Y628445D02*
D03*
Y636445D02*
D03*
Y644445D02*
D03*
Y652445D02*
D03*
Y660445D02*
D03*
Y668445D02*
D03*
Y676445D02*
D03*
Y684445D02*
D03*
X564000D02*
D03*
Y676445D02*
D03*
Y668445D02*
D03*
Y660445D02*
D03*
Y652445D02*
D03*
Y644445D02*
D03*
Y636445D02*
D03*
Y628445D02*
D03*
D131*
X2349130Y711140D02*
D03*
X2357130D02*
D03*
X2365130D02*
D03*
X2373130D02*
D03*
X2381130D02*
D03*
X2389130D02*
D03*
X2397130D02*
D03*
X2405130D02*
D03*
Y625140D02*
D03*
X2397130D02*
D03*
X2389130D02*
D03*
X2381130D02*
D03*
X2373130D02*
D03*
X2365130D02*
D03*
X2357130D02*
D03*
X2349130D02*
D03*
X578999Y613445D02*
D03*
X586999D02*
D03*
X594999D02*
D03*
X602999D02*
D03*
X610999D02*
D03*
X618999D02*
D03*
X626999D02*
D03*
X634999D02*
D03*
Y699445D02*
D03*
X626999D02*
D03*
X618999D02*
D03*
X610999D02*
D03*
X602999D02*
D03*
X594999D02*
D03*
X586999D02*
D03*
X578999D02*
D03*
D132*
X2216350Y529962D02*
D03*
Y497962D02*
D03*
X2199850D02*
D03*
Y529962D02*
D03*
X674250Y1088750D02*
D03*
Y1120750D02*
D03*
X657750D02*
D03*
Y1088750D02*
D03*
D133*
X2465330Y632900D02*
D03*
Y672900D02*
D03*
X2441330D02*
D03*
Y632900D02*
D03*
X677750Y615833D02*
D03*
Y655833D02*
D03*
X701750D02*
D03*
Y615833D02*
D03*
D134*
X2424138Y393312D02*
D03*
Y406012D02*
D03*
Y418712D02*
D03*
Y431412D02*
D03*
Y444112D02*
D03*
Y456812D02*
D03*
Y469512D02*
D03*
Y482212D02*
D03*
Y494912D02*
D03*
Y507612D02*
D03*
X2331138D02*
D03*
Y494912D02*
D03*
Y482212D02*
D03*
Y469512D02*
D03*
Y456812D02*
D03*
Y444112D02*
D03*
Y431412D02*
D03*
Y418712D02*
D03*
Y406012D02*
D03*
Y393312D02*
D03*
D135*
X741001Y306070D02*
D03*
X753501D02*
D03*
X830001Y306070D02*
D03*
X842501D02*
D03*
X920001D02*
D03*
X932501D02*
D03*
X1009501Y306070D02*
D03*
X1022001D02*
D03*
D136*
X779001Y277070D02*
D03*
X715501D02*
D03*
X868001Y277070D02*
D03*
X804501D02*
D03*
X958001D02*
D03*
X894501D02*
D03*
X1047501Y277070D02*
D03*
X984001D02*
D03*
D137*
X441950Y329650D02*
D03*
X456950D02*
D03*
X471950D02*
D03*
X486950D02*
D03*
D138*
X415900Y277750D02*
D03*
X513000D02*
D03*
D139*
X444200Y584850D02*
D03*
X459200D02*
D03*
D140*
X494400Y537550D02*
D03*
Y552550D02*
D03*
X511900Y537640D02*
D03*
Y552640D02*
D03*
D141*
X458984Y528150D02*
D03*
X423984Y561850D02*
D03*
Y528150D02*
D03*
X428984D02*
D03*
X433984D02*
D03*
X438984D02*
D03*
X443984D02*
D03*
X448984D02*
D03*
X453984D02*
D03*
X458984Y561850D02*
D03*
X453984D02*
D03*
X448984D02*
D03*
X443984D02*
D03*
X438984D02*
D03*
X433984D02*
D03*
X428984D02*
D03*
D142*
X463334Y537500D02*
D03*
X419634Y552500D02*
D03*
Y537500D02*
D03*
X463334Y552500D02*
D03*
D143*
X441484Y545000D02*
D03*
D144*
X1032622Y706850D02*
D03*
Y694150D02*
D03*
Y681450D02*
D03*
Y668750D02*
D03*
Y656050D02*
D03*
Y643350D02*
D03*
Y630650D02*
D03*
X985378D02*
D03*
Y643350D02*
D03*
Y656050D02*
D03*
Y668750D02*
D03*
Y681450D02*
D03*
Y694150D02*
D03*
Y706850D02*
D03*
D145*
X809900Y562372D02*
D03*
X822600D02*
D03*
X835300D02*
D03*
X848000D02*
D03*
X860700D02*
D03*
X873400D02*
D03*
X886100D02*
D03*
Y515128D02*
D03*
X873400D02*
D03*
X860700D02*
D03*
X848000D02*
D03*
X835300D02*
D03*
X822600D02*
D03*
X809900D02*
D03*
D146*
X643650Y1003050D02*
D03*
X591650D02*
D03*
X643650Y990350D02*
D03*
Y1015750D02*
D03*
Y1028450D02*
D03*
X591650Y990350D02*
D03*
Y1015750D02*
D03*
Y1028450D02*
D03*
D147*
X358030Y309667D02*
D03*
Y303063D02*
D03*
Y296459D02*
D03*
X378858D02*
D03*
Y303063D02*
D03*
Y309667D02*
D03*
X400586Y644122D02*
D03*
Y637518D02*
D03*
Y630914D02*
D03*
X421414D02*
D03*
Y637518D02*
D03*
Y644122D02*
D03*
D148*
X733009Y625819D02*
D03*
X726405D02*
D03*
X719801D02*
D03*
Y604991D02*
D03*
X726405D02*
D03*
X733009D02*
D03*
D149*
X898400Y789750D02*
D03*
X949200D02*
D03*
X923800D02*
D03*
X847600D02*
D03*
X873000D02*
D03*
Y864350D02*
D03*
X847600D02*
D03*
X923800D02*
D03*
X949200D02*
D03*
X898400D02*
D03*
X771400Y789620D02*
D03*
X822200D02*
D03*
X796800D02*
D03*
X720600D02*
D03*
X746000D02*
D03*
Y864220D02*
D03*
X720600D02*
D03*
X796800D02*
D03*
X822200D02*
D03*
X771400D02*
D03*
Y894550D02*
D03*
X822200D02*
D03*
X796800D02*
D03*
X720600D02*
D03*
X746000D02*
D03*
Y969150D02*
D03*
X720600D02*
D03*
X796800D02*
D03*
X822200D02*
D03*
X771400D02*
D03*
X898500Y894550D02*
D03*
X949300D02*
D03*
X923900D02*
D03*
X847700D02*
D03*
X873100D02*
D03*
Y969150D02*
D03*
X847700D02*
D03*
X923900D02*
D03*
X949300D02*
D03*
X898500D02*
D03*
D150*
X698650Y561850D02*
D03*
X755650D02*
D03*
D151*
X430250Y450476D02*
D03*
X480250D02*
D03*
D152*
X733456Y503761D02*
D03*
X728556D02*
D03*
X723656D02*
D03*
D153*
X714556Y505711D02*
D03*
Y500711D02*
D03*
Y495711D02*
D03*
Y490711D02*
D03*
X742556D02*
D03*
Y495711D02*
D03*
Y500711D02*
D03*
Y505711D02*
D03*
D154*
X723556Y486711D02*
D03*
X728556D02*
D03*
X733556D02*
D03*
D155*
X898932Y605070D02*
D03*
X888326Y594464D02*
D03*
D156*
X785102Y406476D02*
D03*
X804102D02*
D03*
Y378476D02*
D03*
X794602D02*
D03*
X785102D02*
D03*
X898932Y371968D02*
D03*
X879932D02*
D03*
Y399968D02*
D03*
X889432D02*
D03*
X898932D02*
D03*
D157*
X853276Y369078D02*
D03*
X843878D02*
D03*
X834480D02*
D03*
Y394986D02*
D03*
X843878D02*
D03*
X853276D02*
D03*
X951230Y375014D02*
D03*
X941832D02*
D03*
X932434D02*
D03*
Y400922D02*
D03*
X941832D02*
D03*
X951230D02*
D03*
D158*
X988130Y419462D02*
D03*
X983130D02*
D03*
X978130D02*
D03*
X973130D02*
D03*
X968130D02*
D03*
X988130Y375462D02*
D03*
X983130D02*
D03*
X978130D02*
D03*
X973130D02*
D03*
X968130D02*
D03*
D159*
X448140Y629236D02*
D03*
Y656236D02*
D03*
X771250Y608723D02*
D03*
Y581723D02*
D03*
D160*
X940394Y701518D02*
D03*
X934044D02*
D03*
X927440D02*
D03*
X921090D02*
D03*
X914486D02*
D03*
X907882D02*
D03*
X901532D02*
D03*
X894928D02*
D03*
X888578D02*
D03*
X881974D02*
D03*
X875370D02*
D03*
X869020D02*
D03*
X862416D02*
D03*
X856066D02*
D03*
Y628874D02*
D03*
X862416D02*
D03*
X869020D02*
D03*
X875370D02*
D03*
X881974D02*
D03*
X888578D02*
D03*
X894928D02*
D03*
X901532D02*
D03*
X907882D02*
D03*
X914486D02*
D03*
X921090D02*
D03*
X927440D02*
D03*
X934044D02*
D03*
X940394D02*
D03*
D161*
X755500Y665250D02*
D03*
X730500D02*
D03*
D162*
X756000Y687850D02*
D03*
X751000D02*
D03*
X746000D02*
D03*
X741000D02*
D03*
X736000D02*
D03*
X731000D02*
D03*
X726000D02*
D03*
X721000D02*
D03*
X716000D02*
D03*
X711000D02*
D03*
Y721850D02*
D03*
X716000D02*
D03*
X721000D02*
D03*
X726000D02*
D03*
X731000D02*
D03*
X736000D02*
D03*
X741000D02*
D03*
X746000D02*
D03*
X751000D02*
D03*
X756000D02*
D03*
D163*
X757500Y712350D02*
D03*
Y707350D02*
D03*
Y702350D02*
D03*
Y697350D02*
D03*
X709500Y712350D02*
D03*
Y707350D02*
D03*
Y702350D02*
D03*
Y697350D02*
D03*
D164*
X562000Y853375D02*
D03*
X555500D02*
D03*
X549000D02*
D03*
X542500D02*
D03*
X562000Y813875D02*
D03*
X555500D02*
D03*
X549000D02*
D03*
X542500D02*
D03*
D165*
X621574Y811700D02*
D03*
Y824701D02*
D03*
X603574Y811700D02*
D03*
Y824701D02*
D03*
X621574Y818201D02*
D03*
D166*
X658300Y863751D02*
D03*
Y868750D02*
D03*
Y873751D02*
D03*
Y878750D02*
D03*
Y883751D02*
D03*
Y888750D02*
D03*
Y893751D02*
D03*
Y898750D02*
D03*
X609600D02*
D03*
Y893751D02*
D03*
Y888750D02*
D03*
Y883751D02*
D03*
Y878750D02*
D03*
Y873751D02*
D03*
Y868750D02*
D03*
Y863751D02*
D03*
D167*
X616450Y856901D02*
D03*
X621450D02*
D03*
X626450D02*
D03*
X631450D02*
D03*
X636450D02*
D03*
X641450D02*
D03*
X646450D02*
D03*
X651450D02*
D03*
Y905601D02*
D03*
X646450D02*
D03*
X641450D02*
D03*
X636450D02*
D03*
X631450D02*
D03*
X626450D02*
D03*
X621450D02*
D03*
X616450D02*
D03*
D168*
X633950Y881251D02*
D03*
D169*
X2042783Y1075636D02*
D03*
X2028978Y1104036D02*
D03*
X2015173Y1075636D02*
D03*
X2001368Y1104036D02*
D03*
X1987563Y1075636D02*
D03*
X1973758Y1104036D02*
D03*
X1959953Y1075636D02*
D03*
X1946148Y1104036D02*
D03*
X1932343Y1075636D02*
D03*
X1918538Y1104036D02*
D03*
X1904733Y1075636D02*
D03*
X1890928Y1104036D02*
D03*
X1877123Y1075636D02*
D03*
X1863318Y1104036D02*
D03*
X1849513Y1075636D02*
D03*
X1835708Y1104036D02*
D03*
X1821903Y1075636D02*
D03*
X1808098Y1104036D02*
D03*
X1794293Y1075636D02*
D03*
X1780488Y1104036D02*
D03*
X1766683Y1075636D02*
D03*
X1752878Y1104036D02*
D03*
X1739073Y1075636D02*
D03*
X1725268Y1104036D02*
D03*
D170*
X1711463Y1075636D02*
D03*
D171*
X1641863Y1089836D02*
D03*
X2112383D02*
D03*
D172*
X1505516Y933836D02*
D03*
X1584508Y420286D02*
D03*
X1835708Y422636D02*
D03*
X2082608Y911436D02*
D03*
X2078208Y423036D02*
D03*
X2493060Y382120D02*
D03*
X2194510Y737520D02*
D03*
X2216548Y382212D02*
D03*
X733654Y1089750D02*
D03*
X1108400Y1093750D02*
D03*
D173*
X1505516Y908436D02*
D03*
Y883036D02*
D03*
Y857636D02*
D03*
Y832236D02*
D03*
Y806836D02*
D03*
Y781436D02*
D03*
Y756036D02*
D03*
Y730636D02*
D03*
Y705236D02*
D03*
X1530916Y933836D02*
D03*
Y908436D02*
D03*
Y883036D02*
D03*
Y857636D02*
D03*
Y832236D02*
D03*
Y806836D02*
D03*
Y781436D02*
D03*
Y756036D02*
D03*
Y730636D02*
D03*
Y705236D02*
D03*
X1584508Y445686D02*
D03*
X2010008Y448436D02*
D03*
Y423036D02*
D03*
X1984608Y448436D02*
D03*
Y423036D02*
D03*
X1959208Y448436D02*
D03*
X1504008Y1089036D02*
D03*
X1478608D02*
D03*
X1453208D02*
D03*
X1427808D02*
D03*
X1402408D02*
D03*
X1377008D02*
D03*
X1351608D02*
D03*
X1326208D02*
D03*
X1300808D02*
D03*
X1275408D02*
D03*
X1504008Y1063636D02*
D03*
X1478608D02*
D03*
X1453208D02*
D03*
X1427808D02*
D03*
X1402408D02*
D03*
X1377008D02*
D03*
X1351608D02*
D03*
X1326208D02*
D03*
X1300808D02*
D03*
X1477108Y447436D02*
D03*
X1502508Y422036D02*
D03*
Y447436D02*
D03*
X1527908Y422036D02*
D03*
Y447436D02*
D03*
X1724908D02*
D03*
X1750308Y422036D02*
D03*
Y447436D02*
D03*
X1775708Y422036D02*
D03*
Y447436D02*
D03*
X1835708Y448036D02*
D03*
X2082608Y936836D02*
D03*
Y962236D02*
D03*
Y987636D02*
D03*
X2057208Y911436D02*
D03*
Y936836D02*
D03*
Y962236D02*
D03*
Y987636D02*
D03*
X2078208Y448436D02*
D03*
X2493060Y737720D02*
D03*
Y712320D02*
D03*
Y686920D02*
D03*
Y661520D02*
D03*
Y636120D02*
D03*
Y610720D02*
D03*
Y585320D02*
D03*
Y559920D02*
D03*
Y534520D02*
D03*
Y509120D02*
D03*
Y483720D02*
D03*
Y458320D02*
D03*
Y432920D02*
D03*
Y407520D02*
D03*
X2219910Y737520D02*
D03*
X2194510Y712120D02*
D03*
X2219910D02*
D03*
X2191148Y433012D02*
D03*
X2216548D02*
D03*
X2191148Y407612D02*
D03*
X2216548D02*
D03*
X2191148Y382212D02*
D03*
X566200Y1084950D02*
D03*
Y1110350D02*
D03*
X591600Y1084950D02*
D03*
Y1110350D02*
D03*
X617000Y1084950D02*
D03*
X708254Y1089750D02*
D03*
X733654Y1115150D02*
D03*
X708254D02*
D03*
X1083000Y1119150D02*
D03*
X1108400D02*
D03*
X1083000Y1093750D02*
D03*
D174*
X1823948Y349436D02*
D03*
Y324036D02*
D03*
Y298636D02*
D03*
X1856968Y349436D02*
D03*
Y324036D02*
D03*
X1590188Y349936D02*
D03*
Y324536D02*
D03*
Y299136D02*
D03*
X1623208Y349936D02*
D03*
Y324536D02*
D03*
X2091055Y323536D02*
D03*
Y348936D02*
D03*
X2058035Y298136D02*
D03*
Y323536D02*
D03*
Y348936D02*
D03*
X2228794Y586831D02*
D03*
Y612231D02*
D03*
Y637631D02*
D03*
X2195774Y586831D02*
D03*
Y612231D02*
D03*
X484000Y1113750D02*
D03*
X458600D02*
D03*
X509400Y1080730D02*
D03*
X484000D02*
D03*
X458600D02*
D03*
D175*
X1856968Y298636D02*
D03*
X1623208Y299136D02*
D03*
X2091055Y298136D02*
D03*
X2195774Y637631D02*
D03*
D176*
X1959208Y423036D02*
D03*
X1275408Y1063636D02*
D03*
X1477108Y422036D02*
D03*
X1724908D02*
D03*
X617000Y1110350D02*
D03*
D177*
X1253208Y359036D02*
D03*
Y409036D02*
D03*
X2130458Y840616D02*
D03*
Y790616D02*
D03*
D178*
X2471910Y806120D02*
D03*
X2221910D02*
D03*
Y306120D02*
D03*
X2471910D02*
D03*
X304900Y1104950D02*
D03*
Y304850D02*
D03*
X1162200Y330250D02*
D03*
Y1066850D02*
D03*
X486500Y755750D02*
D03*
Y1005750D02*
D03*
X986500D02*
D03*
Y755750D02*
D03*
D179*
X1136800Y380950D02*
D03*
Y406350D02*
D03*
Y431750D02*
D03*
Y457150D02*
D03*
Y482550D02*
D03*
Y507950D02*
D03*
Y533350D02*
D03*
Y558750D02*
D03*
Y584150D02*
D03*
Y609550D02*
D03*
Y634950D02*
D03*
Y660350D02*
D03*
Y685750D02*
D03*
Y711150D02*
D03*
Y736550D02*
D03*
Y761950D02*
D03*
Y787350D02*
D03*
Y812750D02*
D03*
Y838150D02*
D03*
Y863550D02*
D03*
Y888950D02*
D03*
Y914350D02*
D03*
Y939750D02*
D03*
Y965150D02*
D03*
Y990550D02*
D03*
Y1015950D02*
D03*
X1162200Y380950D02*
D03*
Y406350D02*
D03*
Y431750D02*
D03*
Y457150D02*
D03*
Y482550D02*
D03*
Y507950D02*
D03*
Y533350D02*
D03*
Y558750D02*
D03*
Y584150D02*
D03*
Y609550D02*
D03*
Y634950D02*
D03*
Y660350D02*
D03*
Y685750D02*
D03*
Y711150D02*
D03*
Y736550D02*
D03*
Y761950D02*
D03*
Y787350D02*
D03*
Y812750D02*
D03*
Y838150D02*
D03*
Y863550D02*
D03*
Y888950D02*
D03*
Y914350D02*
D03*
Y939750D02*
D03*
Y965150D02*
D03*
Y990550D02*
D03*
X1112700D02*
D03*
Y965150D02*
D03*
Y939750D02*
D03*
Y914350D02*
D03*
Y888950D02*
D03*
Y863550D02*
D03*
Y838150D02*
D03*
Y812750D02*
D03*
Y787350D02*
D03*
Y761950D02*
D03*
Y736550D02*
D03*
Y711150D02*
D03*
Y685750D02*
D03*
Y660350D02*
D03*
Y634950D02*
D03*
Y609550D02*
D03*
Y584150D02*
D03*
Y558750D02*
D03*
Y533350D02*
D03*
Y507950D02*
D03*
Y482550D02*
D03*
Y457150D02*
D03*
Y431750D02*
D03*
Y406350D02*
D03*
Y380950D02*
D03*
X1087300Y1015950D02*
D03*
Y990550D02*
D03*
Y965150D02*
D03*
Y939750D02*
D03*
Y914350D02*
D03*
Y888950D02*
D03*
Y863550D02*
D03*
Y838150D02*
D03*
Y812750D02*
D03*
Y787350D02*
D03*
Y761950D02*
D03*
Y736550D02*
D03*
Y711150D02*
D03*
Y685750D02*
D03*
Y660350D02*
D03*
Y634950D02*
D03*
Y609550D02*
D03*
Y584150D02*
D03*
Y558750D02*
D03*
Y533350D02*
D03*
Y507950D02*
D03*
Y482550D02*
D03*
Y457150D02*
D03*
Y431750D02*
D03*
Y406350D02*
D03*
Y380950D02*
D03*
D180*
X1162200Y1015950D02*
D03*
X1112700D02*
D03*
D181*
X345000Y849600D02*
D03*
Y836900D02*
D03*
Y824200D02*
D03*
Y811500D02*
D03*
Y798800D02*
D03*
Y786100D02*
D03*
Y773400D02*
D03*
Y760700D02*
D03*
Y748000D02*
D03*
Y735300D02*
D03*
Y722600D02*
D03*
Y709900D02*
D03*
X370400Y855950D02*
D03*
Y843250D02*
D03*
Y830550D02*
D03*
Y817850D02*
D03*
Y805150D02*
D03*
Y792450D02*
D03*
Y779750D02*
D03*
Y767050D02*
D03*
Y754350D02*
D03*
Y741650D02*
D03*
Y728950D02*
D03*
Y716250D02*
D03*
Y703550D02*
D03*
D182*
X612700Y334350D02*
D03*
X674000Y333950D02*
D03*
X553000Y334350D02*
D03*
D183*
X612700Y462350D02*
D03*
Y407350D02*
D03*
X674000Y461950D02*
D03*
Y406950D02*
D03*
X553000Y462350D02*
D03*
Y407350D02*
D03*
D184*
X338000Y519850D02*
D03*
Y594850D02*
D03*
Y494850D02*
D03*
D185*
X288000Y594850D02*
D03*
Y494850D02*
D03*
X338000Y544850D02*
D03*
D186*
X288000D02*
D03*
D187*
X509400Y1113750D02*
D03*
D188*
X833180Y1108770D02*
D03*
D189*
X332300Y657195D02*
D03*
Y902305D02*
D03*
M02*
