M48
;Layer_Color=9474304
;FILE_FORMAT=4:4
METRIC,LZ
;TYPE=PLATED
T1F00S00C0.3000
T2F00S00C0.7112
T3F00S00C0.8890
T4F00S00C0.9000
T5F00S00C1.0000
T6F00S00C1.0200
T7F00S00C1.0900
T8F00S00C1.3000
T9F00S00C1.8000
T10F00S00C2.7940
T11F00S00C3.0000
T12F00S00C3.2600
%
T01
X00347353Y0029469
Y00303063
X00373772Y00338267
X0034844Y0037575
X00348441Y00390654
X00355691
X00362941
X00421634Y00342188
X0043195Y0034168
X00443634Y00342188
X005145Y0034803
Y0036073
X00711Y00327
Y003185
X0072109Y0031825
X0072125Y00326659
X0073125
X0073109Y0031825
X00760166Y00392056
X00785102Y00396348
X00794602Y00387492
X00812342Y0038204
X00823203Y00342188
X0082975Y0032875
X00853508Y00329242
Y00337508
X00863242
X00874Y00337159
X00924039Y00331549
X00909691Y0030607
X009695Y0032525
Y00336508
X00981242
X00993742Y00336492
X00964773Y00359714
X00941832Y0036425
X009225Y00375
Y00389
X00932434Y00385184
X01018189Y0039575
X0105065Y00338267
X01467405Y00359389
X01699508Y0035959
X01935252Y00359181
X02256404Y0036682
X0225742Y0034142
X02278832Y00315588
X02302962Y00324224
X0230855Y00329304
X02335474Y00315588
X0236951Y00322192
X02379416Y00328796
X02375606Y00368674
X02337686Y00374262
X0227426Y00380104
X02273244Y00276472
X02292714Y00266176
X02306714Y00266762
X02327281Y00267582
X02355946Y00266414
X02369946Y00266596
X0238774Y00268928
X02415484Y00266058
X02429484Y00266028
X02440884Y00270884
X02441043Y00279012
X0244125Y0028841
X0243555Y00328034
X0242793Y003227
X02437404Y00341318
X02446202Y0037317
X02395926Y0031508
X02445202Y0040525
X02446726Y00440302
X02480762Y00425316
X02475428Y0048399
X0247492Y00507866
X02444948Y0050812
X02402956Y0050685
X02405832Y00531488
X02409134Y00558024
X02418405Y00584828
X02418786Y0060464
X02412944Y0060972
Y00627246
X02396434Y0064528
X02396688Y00654424
Y00664076
X02407495Y00671747
X0240761Y0068084
X02409134Y0068846
X0239713Y00699824
X02413632Y0071114
X02389322Y00744086
X02383622Y00773042
X024435Y00764584
Y0074307
X0245365Y006729
X0246533Y0065868
Y00646988
X0245174Y006329
X02449266Y00611498
X0245968Y00606672
X0243174Y00606926
X02481524Y00617594
X02499304Y00572382
X02385512Y00584066
X0239872Y0048145
X02423612Y00469512
X02376114Y00443858
X0235046Y00419982
X0234792Y00409822
X02291024Y00404488
X02277024
X02244034Y0040525
X0224759Y00421506
X02248606Y00448938
X02259782Y00456558
X02233874Y00440302
X0219985Y0051447
X02228794Y00549014
X02227016Y00559098
X0224759Y00574414
X02260544Y00598036
X02273498Y00615816
X02251266Y00643938
X02245002Y00639562
X02235398Y00668394
X02253686Y0067449
X02262576Y00674744
X02270704Y00677792
X02288656Y00677538
X02281668Y00667632
X02295088Y00653662
X02318964Y00656456
X0232017Y0067214
X0234838Y00665902
X02346076Y0064814
X0234659Y0064014
X02361128Y00644264
X0236513Y00636198
X02376114Y00653916
X0237586Y0066306
X02370526Y0069735
X0236287Y00695318
X02324806Y00725544
X02328362Y00752468
X02335982Y00755718
X02347412Y00752823
X02339792Y00741546
X02314258Y00772908
X0232252Y00781932
X0234952Y0079227
X02365446Y00781932
X02375098Y00773042
X02285944Y00774058
X02274902Y00774686
X02263084Y00761358
X02252162Y00761866
X02242538Y00723991
X02241751Y00707766
X02279086Y00707002
X02283404Y00700652
X02282896Y00736466
X0220822Y00696842
X02202886Y00684142
X02265878Y00519804
X0230589Y00544816
X02338471Y00546474
X02348174Y00536934
X02352238Y00522598
X02347666Y00516502
X02314138Y00481958
X02328335Y00570189
X02369434Y0057002
X0237267Y0059637
X02086188Y00554028
X02095586Y00525036
X0203694Y00524536
X0202804Y00552994
X01969208Y00552898
X01967334Y00514132
X01930208Y00524758
X01843208Y00532754
X01840458Y00550078
X0184389Y0057687
X01864208Y00572042
X01821826Y00535688
X01807958Y00548036
X01792208Y00550454
X01800084Y00522904
X01743276Y00522036
X01733708Y00552032
X01717906Y00548112
X01754108Y00557024
X01763903Y00679209
X01787909Y00730133
X01796708Y00756036
X01747909Y00751412
X01715684Y00756036
X01692252Y00772704
X01672293Y00760951
X0165108Y0077034
X01625232Y00755111
X01605858Y00756036
X01589108Y00755111
X01616703Y00730476
X01653208Y00730636
X01643208Y00714036
X01663208Y00692036
X01677208Y00678508
X01605858Y00585765
X01601358Y00542034
X01613208Y00534036
X01608304Y00516036
X01889488Y00675036
X01890118Y00691126
X01876208Y00704318
X0186573Y00730036
X01891111Y00730263
X01850458Y00764036
X01857202Y00773316
X01558405Y00769051
X01557886Y00554036
X01553188Y00516036
X01503014Y00516418
Y00554036
X01253086Y00550078
Y00559536
X01252832Y00533944
X01252578Y00524536
X0125334Y0065942
Y0066831
X01254102Y00684058
Y0069371
X010147Y0068145
X01016Y0066875
X010171Y00643851
X01019455Y0060507
X01019456Y0059707
X01023Y0057975
X01010287Y00577246
X00997587Y00577292
X00984887
X00991257Y00584738
X01004257
X0094122Y0058552
X00935886Y0057954
X00923462Y00577334
X00910486Y0057663
X00914566Y00584826
X0090439Y0058425
X00898062Y0057738
X00902986Y00596362
X0088026Y0058933
X0088153Y00613445
X0086248Y0060076
X00843Y0060208
Y00610038
X00839952Y005875
X008305Y00594153
X00820469Y00587156
X00813Y00578189
X0080632Y0058467
X0079998Y00577222
X008281Y00578189
X00848Y0054775
X008476Y00539625
X008734Y0053275
X00822Y00472253
X008226Y0040772
X008193Y004001
X0087137Y00400158
X00922Y004112
X00963084Y00419462
X00963694Y00399056
X010025Y00405172
X00994418Y0042575
X0095519Y0045852
X009463Y0059314
X00933734Y0059475
X0092979Y0060203
X0093741Y0060711
X0094122Y0061473
X00954594Y0060325
X00967Y0065575
Y0068075
X009658Y00690451
X008755Y0068875
X00878466Y00727522
X00892466Y00727122
X008835Y0075475
X00873Y0077375
X00856501Y00774551
X00838101Y00775151
X008277Y0076085
X00820101Y00760451
X00814001Y00765151
X0081Y00717803
X00825633Y00712326
X00840301Y00706051
X008447Y00699751
X00844305Y00672283
Y00658099
X00813481Y00660226
X00813301Y00667751
X00809001Y00681751
X0080268Y0068707
X00801934Y00616768
X0089939Y00655833
X00894401Y00661627
X00905854Y00650694
X008982Y0077435
X00924Y00774696
X009381Y0078935
X007934Y0075525
X00788001Y00760551
X00774641Y00743051
X00761Y0074055
X00761501Y0073175
X00736001Y0071355
X00726183Y00712326
X00719001Y00708751
X007355Y0069825
X007455
X00765501Y00690751
X007777Y0068875
X007855Y0071075
X0076469Y0066553
X0073926Y0067365
X0072035Y00675874
X0069684Y00680621
X0068849Y0067823
X006923Y0065791
X0068722Y00651239
X0066563Y0066045
X0066309Y0068458
X0065Y0069275
X00635001Y00682751
X00627406Y00687344
X0061425Y0068275
X00588001Y00677751
X00585304Y00665662
X0059297Y00665226
X0059397Y00649475
X00580969Y00658976
X00580806Y00686944
X0057083Y00703545
X00563456Y0070875
X00556824Y00704742
X005555Y00693052
X00545Y00670841
X00512703Y00677192
X00500003Y00677238
X0048783Y0067696
X00478306Y00677474
X0048148Y0068839
X00473709Y00689109
X0046231Y006813
X00462311Y0067405
X0046231Y006668
X0045481
Y0067405
Y006813
X0044731
Y0067405
Y006668
X00439811
Y0067405
Y006813
X00432311
X00432312Y0067405
X00432311Y006668
X00424811
Y0067405
Y006813
X00412326Y00701392
X00419125Y0070875
X00426433Y0071355
X0043329Y0072141
X004421Y0071865
X0049545Y0068707
X0050434Y0068712
X005405Y0071125
X00552946Y00735651
X00560469Y0073575
X00556064Y00743351
X0054752Y0074165
X00566641Y00742163
X0055895Y0075189
X00590001Y00745751
X00597525Y00747605
X00608249Y0074375
X00624262Y00743351
X00648Y0074575
X00657Y00747172
X0065547Y00769003
X00667Y0076275
X00695806
X00689325Y00774075
X00677337Y0078237
X007097Y0078955
X00707665Y0076875
X007005Y0073135
X00677Y0073919
X0068087Y00703545
X0067119Y00699557
X00664973Y00631724
X0066175Y00621853
X00667928Y00615905
X00648395Y0061975
X006235Y006355
X0062118Y006541
X00601001Y00629751
X00590001Y00599609
X00566Y0060675
X00559Y00612314
X00562001Y00620751
X0054Y00627986
X00496858Y00586198
Y00578138
X0049672Y00569867
X004879Y00570042
Y00578138
Y00586198
X0047894
Y00578138
Y00570042
X00470447
Y00578138
Y00586198
X00452535Y00548714
Y00541464
X00445036
X00445035Y00548714
X00437535
Y00541464
X00430035
Y00548714
X00465764Y00528274
Y00521024
Y00513774
X00473264
Y00521024
Y00528274
X00480764
X00480765Y00521024
X00480764Y00513774
X00488264
Y00521024
Y00528274
X0049675
Y00521024
Y00513774
X0054225Y0051075
Y005035
Y0049625
Y00489
X0054975
Y0049625
Y005035
Y0051075
X0055725
X00557251Y005035
X0055725Y0049625
X00557251Y00489
X0056475
Y0049625
Y005035
Y0051075
X00540588Y005395
X00533055Y0053947
X00591499Y00565729
X00618354Y0056927
X0062975Y00571
X00637314Y00575064
X00621Y00591
X0066055Y00537621
Y00529798
Y00522402
Y005144
X00683373Y00538017
Y00545241
X00691037
Y00538017
X00704547Y00537207
X00712758Y00537253
X00720758Y00537306
X00736441Y00537259
X00744441Y00537306
X00752441
X00765747Y00537621
Y00545431
X00743055Y00518109
X00735055
X00722055
X00714055Y00518109
X00718604Y0045598
X0071897Y0043439
X00743Y0060625
X00742999Y006135
X007505
Y0060625
X00758
Y006135
X00761228Y00625474
X0074072Y00639985
X00710475Y00637475
X00689262Y00620751
X00758645Y00777341
X00562Y00787752
X005485Y00788252
X00536Y0077175
X00528001Y00771751
X003972Y0067515
X004085Y0065485
X00413Y0064775
X00399123Y00469607
X00403Y0042677
X0040528Y0040391
X00423Y0040137
X00488834Y0040391
X0050307Y004094
X00384179Y00403938
X00362941Y00405654
X00355691Y00405656
X00348441Y00405654
Y00413154
X00355691
X00362941
Y00398154
X00355691
X00348441
X0036464Y0043058
X00361853Y00446542
X00354603
X00347353
Y00454042
X00354603
X00361853
Y00461542
X00354603Y00461544
X00347353Y00461542
Y00469042
X00354603
X00361853
X00393329Y0046225
X00384456Y0043575
X00381168Y0051948
X00365295Y00510914
X0037734Y005514
X00377232Y0055885
Y00567701
X00386122
Y0055885
X0038623Y005514
Y0057663
X0037734
Y0058552
X0038623
Y00594541
Y00602015
X0037734
Y00594541
Y00611036
X0038623
X00384852Y00630914
X00390294Y00637518
X0037607
X00365295Y0066172
Y0067422
X00389203Y0068524
X00368Y0086975
X00333Y0086575
X0045573Y0088975
X0046497
X0049926Y0089575
X0050815
X0051775
X005175Y0090675
X0050815
X00499466
X00499466Y0091925
X0050815
X005175
X005175Y0093175
X0050815
X00499466
X0049926Y0094425
X00507944
X00517294
X005165Y0096925
X0050815
X00483356Y0095636
X0044973Y0094493
Y0093604
Y0092842
X004735Y0084375
X00482Y008319
X00462Y0083075
X00469Y0081925
X00455194Y0081575
X004546Y0080065
X0049037Y00798351
X0051196Y0079425
X0052212
X00546Y0082575
Y0083575
X00558
X0056276Y0082555
X00576624Y0081785
X00593Y0084075
X00600549Y0085975
X00627Y00874751
X0064
Y008878
X00627
X00625Y00930751
X0064645Y0093075
X00654Y0092535
X00650872Y00917628
X00677Y00902496
X0068341Y0089286
X0069103Y0088524
X00695Y0090302
X007211Y0090955
X00733001Y00905051
X00758601
X007499Y0094785
X007206Y0095315
X0069754Y00934
X00705511Y00926029
X00677788Y0093635
X006803Y00973356
X006724Y0097915
X00694Y0098675
X0069379Y0099975
X00690094Y0103175
X0066765Y0102175
X0067425Y0107875
X006888Y01094808
X00719Y0110275
X0067425Y0113026
X00628Y010478
X006077Y0101605
Y0100305
X0061025Y00984
X00632672Y0096475
X0057546Y00935382
X00568804Y00928726
X00562148Y0092207
X00577462Y0092175
X00563456Y0089675
X00582001Y00886751
X00576624Y0087905
X005455Y0086925
X005405Y0098938
X0052655Y0101159
X0049672Y0106939
X004568Y0105025
X00746Y01011508
X007459Y0098965
X00792422Y01057828
X007356Y0081001
X0073167Y0079507
X006923Y0082682
X00809668Y0080035
X00822152Y0080415
X00840936Y00828044
X00848501Y00827851
X008636Y0084915
X0089423Y0084841
X009241Y00849296
X009492
X009492Y0090995
X009175Y0091905
X009108Y0089465
X008608Y0090265
X00807701Y0090245
X008Y0092605
X00829366Y00944216
X00822152Y0095258
X0080903Y0096945
X008186Y0098875
X008094Y0102885
X008281Y0102865
X00845001Y0102875
X00865Y0102875
X008734Y0102885
X008826Y0102875
X00901
X009136Y0099115
X009Y0095015
X009492Y0095425
X0090058Y0109025
X0090566Y0110241
X0090439Y0112273
X00914766
X0092471
X00887Y010986
X0088153Y0109098
X0086502Y0109025
X008467Y0108898
X0082311Y0109098
X00819Y010986
X008094Y0109025
X0081549Y0112273
X0082692
X0083835
X0083318Y0110877
X008115Y0086475
X01254102Y00837728
Y00828076
X01255118Y0081309
Y00804569
X0125334Y009439
Y00954314
X01252832Y009693
Y00977936
X01563208Y00844036
X01549516Y00820036
X01653208Y00815616
X01673208Y00806836
X01726209Y00817932
X01727081Y00794636
X01771153Y00807336
X01773208Y00834036
X01815233Y00848404
X01828808Y00829828
X01881332Y00807336
X01943208Y0082019
X01926186Y00853984
X019382Y0094804
X01890466Y00962536
X01828982Y00963536
X01777663Y00963231
X01720098Y00962536
X01735463Y00922526
X01697208Y00924036
X01671713Y00946536
X01653208Y00957036
Y00933836
X01603208
X01730457Y00874036
X01747909Y00868239
X01720403Y00854036
X01775821Y00889714
X01823208Y00907286
X01984608Y00894036
X0201984Y0090649
Y00940598
X02043208Y00884036
X01993242Y00811544
X02134466Y0091723
X02123208Y00941278
X0230888Y0084594
X0231777
X0232666
X0234317
X0235841
X0237492
X02297628Y0082435
X02285436Y00806316
X0239044Y0084467
T02
X00345Y007099
Y007226
Y007353
Y00748
Y007607
Y007734
Y007861
X003704Y0079245
Y0077975
Y0076705
Y0075435
Y0074165
Y0072895
Y0071625
Y0070355
Y0080515
Y0081785
Y0083055
Y0084325
Y0085595
X00345Y008496
Y008369
Y008242
Y008115
Y007988
T03
X01590188Y00299136
Y00324536
Y00349936
X01623208
Y00324536
Y00299136
X01823948Y00298636
Y00324036
Y00349436
X01856968
Y00324036
Y00298636
X02058035Y00298136
Y00323536
Y00348936
X02091055
Y00323536
Y00298136
X02195774Y00586831
Y00612231
Y00637631
X02228794
Y00612231
Y00586831
X005094Y0108073
X00484
X004586
Y0111375
X00484
X005094
T04
X02191148Y00382212
X02216548
X0249306Y0038212
Y0040752
Y0043292
Y0045832
Y0048372
Y0050912
Y0053452
Y0055992
Y0058532
Y0061072
Y0063612
Y0066152
Y0068692
Y0071232
Y0073772
X0221991Y0073752
X0219451
Y0071212
X0221991
X02216548Y00433012
X02191148
Y00407612
X02216548
X02078208Y00423036
Y00448436
X02010008
Y00423036
X01984608
Y00448436
X01959208
Y00423036
X01835708Y00422636
Y00448036
X01775708Y00447436
X01750308
X01724908
Y00422036
X01750308
X01775708
X01584508Y00420286
Y00445686
X01527908Y00447436
X01502508
X01477108
Y00422036
X01502508
X01527908
X01530916Y00705236
X01505516
Y00730636
Y00756036
Y00781436
X01530916
Y00756036
Y00730636
X00733654Y0108975
X00708254
Y0111515
X00733654
X00617Y0111035
X005916
X005662
Y0108495
X005916
X00617
X01083Y0109375
Y0111915
X011084
Y0109375
X01275408Y01089036
X01300808
X01326208
X01351608
X01377008
X01402408
X01427808
X01453208
X01478608
X01504008
Y01063636
X01478608
X01453208
X01427808
X01402408
X01377008
X01351608
X01326208
X01300808
X01275408
X01505516Y00933836
Y00908436
Y00883036
Y00857636
Y00832236
Y00806836
X01530916
Y00832236
Y00857636
Y00883036
Y00908436
Y00933836
X02057208Y00936836
X02082608
Y00911436
X02057208
Y00962236
X02082608
Y00987636
X02057208
T05
X00338Y0049485
Y0051985
Y0059485
X00288Y0054485
T06
X010873Y0038095
X011127
X011368
X011622
Y0040635
X011368
X011127
Y0043175
X011368
Y0045715
X011127
Y0048255
X011368
Y0050795
X011127
Y0053335
X011368
Y0055875
X011127
Y0058415
X011368
Y0060955
X011127
Y0063495
X011368
Y0066035
X011127
Y0068575
X011368
Y0071115
X011127
Y0073655
X011368
Y0076195
X011127
Y0078735
X011368
X011622
Y0076195
Y0073655
Y0071115
Y0068575
Y0066035
Y0063495
Y0060955
Y0058415
Y0055875
Y0053335
Y0050795
Y0048255
Y0045715
Y0043175
X010873
Y0045715
Y0048255
Y0050795
Y0053335
Y0055875
Y0058415
Y0060955
Y0063495
Y0066035
Y0068575
Y0071115
Y0073655
Y0076195
Y0078735
Y0040635
Y0081275
X011127
X011368
Y0083815
X011127
Y0086355
X011368
Y0088895
X011127
Y0091435
X011368
Y0093975
X011127
Y0096515
X011368
Y0099055
X011127
Y0101595
X011368
X011622
Y0099055
Y0096515
Y0093975
Y0091435
Y0088895
Y0086355
Y0083815
Y0081275
X010873Y0083815
Y0086355
Y0088895
Y0091435
Y0093975
Y0096515
Y0099055
Y0101595
T07
X01711463Y01075636
X01739073
X01766683
X01794293
X01821903
X01849513
X01877123
X01904733
X01932343
X01959953
X01973758Y01104036
X01946148
X01918538
X01890928
X01863318
X01835708
X01808098
X01780488
X01752878
X01725268
X02001368
X02028978
X02042783Y01075636
X02015173
X01987563
T08
X01253208Y00359036
X02130458Y00790616
X01253208Y00409036
X02130458Y00840616
T09
X02024986Y00708538
X01969986
X00674Y0046195
Y0040695
X006127Y0040735
Y0046235
X00553
Y0040735
T10
X003323Y00657195
Y00902305
T11
X00553Y0033435
X006127
X00674Y0033395
T12
X01641863Y01089836
X02112383
M30
