G04*
G04 #@! TF.GenerationSoftware,Altium Limited,Altium Designer,18.1.9 (240)*
G04*
G04 Layer_Color=65535*
%FSLAX25Y25*%
%MOIN*%
G70*
G01*
G75*
%ADD10C,0.00787*%
%ADD11C,0.01968*%
%ADD12C,0.00500*%
%ADD13C,0.00598*%
G36*
X511397Y135669D02*
Y135630D01*
Y135515D01*
X511358Y135323D01*
X511281Y135092D01*
Y135054D01*
X511243Y134900D01*
X511205Y134669D01*
X511128Y134439D01*
Y134362D01*
X511089Y134285D01*
Y134131D01*
X511051Y133977D01*
X511012Y133708D01*
X510935Y133439D01*
X510859Y133093D01*
Y133055D01*
X510820Y132939D01*
X510782Y132747D01*
X510743Y132555D01*
X510628Y132055D01*
X510590Y131863D01*
X510551Y131671D01*
X510128Y130018D01*
X510205Y129980D01*
X510321D01*
X510436Y129941D01*
X510859D01*
X511166Y129903D01*
X511551D01*
X512050Y129864D01*
X512627D01*
X513280Y129826D01*
X519969D01*
X520353Y129787D01*
X521199D01*
X521468Y129749D01*
X521737Y129672D01*
X521814Y129595D01*
X521852Y129518D01*
Y129480D01*
X521776Y129403D01*
X521660Y129365D01*
X521545Y129326D01*
X521353Y129288D01*
X521084Y129249D01*
X512973D01*
X511858Y129211D01*
X510897D01*
X510513Y129172D01*
X510051D01*
X509974Y129134D01*
Y129095D01*
Y129018D01*
X509936Y128865D01*
X509898Y128596D01*
X509821Y128250D01*
X509782Y127981D01*
X509705Y127711D01*
X509628Y127404D01*
X509552Y127058D01*
X509475Y126674D01*
X509360Y126212D01*
Y126136D01*
X509283Y125905D01*
X509206Y125559D01*
X509090Y125059D01*
X508937Y124367D01*
X508783Y123560D01*
X508552Y122599D01*
X508437Y122061D01*
X508322Y121484D01*
X507899Y119562D01*
X514818D01*
X515817Y119524D01*
X516778D01*
X517201Y119485D01*
X517624D01*
X517932Y119447D01*
X518201D01*
X518354Y119409D01*
X518431Y119370D01*
X518354Y119332D01*
X518278D01*
X518162Y119293D01*
X517970Y119255D01*
X517778D01*
X517470Y119216D01*
X517124Y119178D01*
X516702D01*
X516163Y119139D01*
X515548D01*
X514818Y119101D01*
X514011Y119062D01*
X513050D01*
X507783Y119024D01*
X507668Y118294D01*
Y118255D01*
X507630Y118178D01*
X507553Y117948D01*
X507476Y117679D01*
X507399Y117563D01*
X507361Y117525D01*
X507322Y117563D01*
X507284Y117640D01*
X507245Y117756D01*
Y117871D01*
Y117909D01*
Y117986D01*
Y118140D01*
X507207Y118294D01*
X507130Y118678D01*
X506938Y119062D01*
X498097Y119062D01*
X497443Y118601D01*
X497405Y118563D01*
X497251Y118447D01*
X497020Y118294D01*
X496713Y118025D01*
X496328Y117756D01*
X495867Y117371D01*
X495329Y116987D01*
X494752Y116525D01*
X494060Y116026D01*
X493368Y115488D01*
X492600Y114950D01*
X491792Y114373D01*
X490947Y113758D01*
X490063Y113104D01*
X488217Y111797D01*
X487929Y111624D01*
X487948Y111644D01*
X488102Y111836D01*
X488217Y111951D01*
X488371Y112143D01*
X488448Y112220D01*
X488563Y112336D01*
X488794Y112566D01*
X488948Y112720D01*
X489140Y112951D01*
X489409Y113220D01*
X489717Y113489D01*
X490063Y113873D01*
X490447Y114296D01*
X490908Y114757D01*
X491446Y115295D01*
X491485Y115334D01*
X491562Y115449D01*
X491715Y115603D01*
X491908Y115795D01*
X492177Y116026D01*
X492407Y116295D01*
X492984Y116910D01*
X493599Y117525D01*
X494099Y118102D01*
X494329Y118332D01*
X494522Y118524D01*
X494637Y118678D01*
X494714Y118793D01*
X494944Y119062D01*
X482682D01*
X481836Y119101D01*
X479299D01*
X478531Y119139D01*
X477839Y119178D01*
X477224D01*
X476993Y119216D01*
X476609D01*
X476493Y119255D01*
X476416D01*
X476378Y119293D01*
X476416D01*
X476455Y119332D01*
X476532D01*
X476685Y119370D01*
X476878D01*
X477185Y119409D01*
X477570Y119447D01*
X478108D01*
X478723Y119485D01*
X479530D01*
X479953Y119524D01*
X481567D01*
X482182Y119562D01*
X495483D01*
X498327Y122368D01*
X498366Y122407D01*
X498481Y122522D01*
X498673Y122714D01*
X498942Y123022D01*
X499288Y123368D01*
X499711Y123829D01*
X500249Y124367D01*
X500826Y124982D01*
X500864Y125021D01*
X500903Y125059D01*
X501095Y125251D01*
X501402Y125559D01*
X501748Y125943D01*
X502094Y126289D01*
X502440Y126674D01*
X502748Y126981D01*
X502978Y127212D01*
X504939Y129249D01*
X481644D01*
X481221Y129288D01*
X479684D01*
Y129365D01*
X479761Y129480D01*
X479838Y129595D01*
X479991Y129672D01*
X480145Y129749D01*
X480376Y129787D01*
X480414D01*
X480529Y129826D01*
X480722D01*
X481029Y129864D01*
X481414D01*
X481952Y129903D01*
X485258D01*
X485642Y129864D01*
X488948D01*
X489793Y129826D01*
X505400Y129826D01*
X507668Y132094D01*
X507745Y132171D01*
X507822Y132247D01*
X507976Y132401D01*
X508129Y132593D01*
X508360Y132824D01*
X508629Y133093D01*
X508975Y133439D01*
X509014Y133477D01*
X509129Y133593D01*
X509321Y133785D01*
X509552Y134016D01*
X510090Y134592D01*
X510628Y135131D01*
X510666Y135169D01*
X510743Y135246D01*
X510974Y135515D01*
X511243Y135746D01*
X511358Y135822D01*
X511397Y135861D01*
Y135669D01*
D02*
G37*
G36*
X489640Y125674D02*
Y125636D01*
X489601Y125559D01*
X489524Y125405D01*
X489447Y125174D01*
X489371Y124944D01*
X489255Y124675D01*
X488986Y124060D01*
X488679Y123406D01*
X488294Y122791D01*
X487948Y122253D01*
X487756Y122022D01*
X487564Y121869D01*
X487487Y121830D01*
X487295Y121676D01*
X486987Y121484D01*
X486526Y121292D01*
X485950Y121061D01*
X485219Y120869D01*
X484374Y120715D01*
X483374Y120677D01*
X482951D01*
X482528Y120715D01*
X481990Y120792D01*
X481414Y120908D01*
X480837Y121061D01*
X480337Y121254D01*
X480107Y121407D01*
X479914Y121561D01*
X479876Y121600D01*
X479838Y121638D01*
X479761Y121753D01*
X479684Y121907D01*
X479492Y122292D01*
X479453Y122522D01*
X479415Y122753D01*
Y122791D01*
X479453Y122945D01*
Y123099D01*
X479492Y123252D01*
X479530Y123445D01*
X479607Y123714D01*
X479684Y123983D01*
X479799Y124329D01*
X479914Y124713D01*
X480068Y125174D01*
X480222Y125713D01*
X480453Y126289D01*
X480683Y126904D01*
X480952Y127635D01*
X480991Y127673D01*
X481068Y127750D01*
X481145Y127827D01*
X481298Y127865D01*
X481529Y127942D01*
X481798Y127981D01*
X483297D01*
Y127942D01*
X483259Y127904D01*
X483220Y127788D01*
X483182Y127635D01*
X483105Y127443D01*
X483028Y127212D01*
X482836Y126635D01*
X482567Y125943D01*
X482259Y125136D01*
X481952Y124252D01*
X481567Y123252D01*
X481606Y123214D01*
X481760Y123099D01*
X481798D01*
X481836Y123022D01*
X481913Y122945D01*
X481952Y122906D01*
X482029Y122830D01*
X482067Y122791D01*
X482182Y122753D01*
X482259D01*
X482413Y122676D01*
X482490D01*
X482682Y122637D01*
X482797D01*
X482990Y122599D01*
X483143D01*
X483297Y122561D01*
X484220D01*
X484527Y122599D01*
X484873Y122637D01*
X485258Y122714D01*
X485642Y122830D01*
X485988Y122983D01*
X486257Y123214D01*
Y123252D01*
X486334Y123329D01*
X486411Y123445D01*
X486526Y123675D01*
X486680Y124021D01*
X486872Y124483D01*
X487103Y125021D01*
X487218Y125367D01*
X487372Y125751D01*
X488217Y127942D01*
X488294D01*
X488486Y127981D01*
X489755D01*
X490139Y128019D01*
X490293D01*
X490447Y128058D01*
X489640Y125674D01*
D02*
G37*
G36*
X519431Y127058D02*
X519123Y126097D01*
X516125D01*
Y126059D01*
X516086Y125943D01*
X516010Y125713D01*
X515894Y125444D01*
X515779Y125059D01*
X515625Y124598D01*
X515433Y124060D01*
X515202Y123406D01*
Y123368D01*
X515164Y123329D01*
X515087Y123099D01*
X514972Y122791D01*
X514856Y122407D01*
X514703Y121946D01*
X514510Y121523D01*
X514357Y121100D01*
X514203Y120715D01*
X512627D01*
X512396Y120754D01*
X512243D01*
X512089Y120792D01*
X512050Y120831D01*
Y120908D01*
X512089Y120984D01*
X512166Y121215D01*
X512281Y121523D01*
X512358Y121715D01*
X512435Y121984D01*
X512511Y122292D01*
X512627Y122599D01*
X512781Y123022D01*
X512934Y123445D01*
Y123483D01*
X512973Y123560D01*
X513011Y123675D01*
X513088Y123829D01*
X513203Y124252D01*
X513396Y124713D01*
X513549Y125213D01*
X513665Y125636D01*
X513742Y125789D01*
X513780Y125943D01*
X513819Y126020D01*
Y126059D01*
X513549D01*
X513357Y126097D01*
X511397D01*
X511089Y126136D01*
X510628D01*
X510590Y126174D01*
X510551D01*
Y126212D01*
X510590Y126405D01*
X510628Y126520D01*
X510666Y126712D01*
X510743Y126904D01*
X510859Y127173D01*
X511205Y127981D01*
X519777D01*
X519431Y127058D01*
D02*
G37*
G36*
X498135Y127942D02*
X498904D01*
X499288Y127904D01*
X499596D01*
X499865Y127865D01*
X500057D01*
X500211Y127827D01*
X500249Y127788D01*
Y127750D01*
X500211Y127635D01*
X500172Y127519D01*
X500134Y127366D01*
X500057Y127173D01*
X499980Y126943D01*
X499750Y126174D01*
X499673D01*
X499557Y126136D01*
X499173D01*
X498904Y126097D01*
X497174D01*
X496943Y126059D01*
X496713D01*
X496405Y125290D01*
Y125251D01*
X496367Y125174D01*
X496290Y124982D01*
X496213Y124713D01*
X496098Y124367D01*
X495905Y123906D01*
X495713Y123329D01*
X495483Y122637D01*
X494829Y120715D01*
X493253D01*
X493061Y120754D01*
X492869D01*
X492753Y120792D01*
X492715Y120831D01*
X493599Y123522D01*
X494483Y126097D01*
X492023D01*
X491715Y126136D01*
X491446D01*
X491254Y126174D01*
X491216Y126212D01*
X491177D01*
Y126251D01*
X491216Y126328D01*
X491254Y126443D01*
X491293Y126674D01*
X491408Y126943D01*
X491523Y127327D01*
X491677Y127827D01*
X491754Y127865D01*
X491946D01*
X492100Y127904D01*
X492523D01*
X492792Y127942D01*
X493561D01*
X494060Y127981D01*
X497366D01*
X498135Y127942D01*
D02*
G37*
G36*
X487872Y111567D02*
X487833D01*
X487929Y111624D01*
X487872Y111567D01*
D02*
G37*
%LPC*%
G36*
X507361Y128596D02*
X507322Y128557D01*
X507207Y128480D01*
X507015Y128327D01*
X506784Y128134D01*
X506515Y127865D01*
X506207Y127596D01*
X505554Y127020D01*
X504900Y126366D01*
X504593Y126020D01*
X504324Y125713D01*
X504093Y125444D01*
X503901Y125174D01*
X503786Y124944D01*
X503747Y124752D01*
X503824Y124790D01*
X503863D01*
X503939Y124829D01*
X504016Y124905D01*
X504055Y124944D01*
X504132Y125021D01*
X504362Y125213D01*
X504401Y125251D01*
X504516Y125328D01*
X504670Y125482D01*
X504862Y125636D01*
X504900Y125674D01*
X505054Y125789D01*
X505285Y125943D01*
X505515Y126097D01*
X505554Y126136D01*
X505631Y126174D01*
X505900Y126366D01*
X506169Y126558D01*
X506284Y126597D01*
X506323Y126635D01*
X506400Y126558D01*
X506438Y126481D01*
X506515Y126405D01*
X506592Y126251D01*
X506669Y126059D01*
X506707Y126020D01*
X506746Y125905D01*
X506784D01*
X506822Y125943D01*
Y126059D01*
Y126097D01*
X506861Y126174D01*
X506938Y126366D01*
X507015Y126635D01*
Y126674D01*
Y126789D01*
Y126943D01*
X507053Y127058D01*
Y127135D01*
X507092Y127289D01*
X507168Y127481D01*
X507207Y127750D01*
X507284Y128019D01*
X507322Y128288D01*
X507361Y128480D01*
Y128596D01*
D02*
G37*
G36*
X505938Y124675D02*
X505861Y124636D01*
X505708Y124559D01*
X505592Y124483D01*
X505400Y124367D01*
X505208Y124214D01*
X504977Y124060D01*
X504670Y123867D01*
X504324Y123599D01*
X503939Y123329D01*
X503478Y122983D01*
X502940Y122599D01*
X502325Y122138D01*
X498865Y119601D01*
X500903Y119562D01*
X504939D01*
X506938Y119601D01*
X506476Y122099D01*
Y122138D01*
Y122215D01*
X506438Y122330D01*
X506400Y122522D01*
X506323Y122906D01*
X506246Y123406D01*
X506131Y123867D01*
X506054Y124290D01*
X506015Y124444D01*
X505977Y124559D01*
Y124636D01*
X505938Y124675D01*
D02*
G37*
%LPD*%
D10*
X585965Y100020D02*
G03*
X585965Y100020I-394J0D01*
G01*
X135174Y111715D02*
G03*
X135174Y111715I-984J0D01*
G01*
X158796D02*
G03*
X158796Y111715I-984J0D01*
G01*
X182418D02*
G03*
X182418Y111715I-984J0D01*
G01*
X206040D02*
G03*
X206040Y111715I-984J0D01*
G01*
X229662D02*
G03*
X229662Y111715I-984J0D01*
G01*
X253284D02*
G03*
X253284Y111715I-984J0D01*
G01*
X276906D02*
G03*
X276906Y111715I-984J0D01*
G01*
X382542Y98915D02*
G03*
X382542Y98915I-984J0D01*
G01*
X406165D02*
G03*
X406165Y98915I-984J0D01*
G01*
X429787D02*
G03*
X429787Y98915I-984J0D01*
G01*
X453409D02*
G03*
X453409Y98915I-984J0D01*
G01*
X477031D02*
G03*
X477031Y98915I-984J0D01*
G01*
X500653D02*
G03*
X500653Y98915I-984J0D01*
G01*
X524275D02*
G03*
X524275Y98915I-984J0D01*
G01*
X564471Y129393D02*
G03*
X564471Y129393I-984J0D01*
G01*
X94880Y133993D02*
G03*
X94880Y133993I-984J0D01*
G01*
X605512Y102067D02*
X607087D01*
X605512Y97146D02*
X607087D01*
X600295Y86122D02*
Y87697D01*
X595374Y86122D02*
Y87697D01*
X584842Y93799D02*
X596059D01*
X584842D02*
Y99114D01*
X596059D01*
X438976Y129289D02*
Y126140D01*
Y127715D01*
X441075D01*
Y129289D01*
Y126140D01*
X444224Y129289D02*
X442125D01*
Y126140D01*
X444224D01*
X442125Y127715D02*
X443175D01*
X445274Y126140D02*
Y129289D01*
X446848D01*
X447373Y128764D01*
Y127715D01*
X446848Y127190D01*
X445274D01*
X446323D02*
X447373Y126140D01*
X449997Y129289D02*
X448947D01*
X448422Y128764D01*
Y126665D01*
X448947Y126140D01*
X449997D01*
X450521Y126665D01*
Y128764D01*
X449997Y129289D01*
X451571Y126140D02*
Y129289D01*
X453670Y126140D01*
Y129289D01*
X457868Y126140D02*
Y129289D01*
X458918Y128240D01*
X459967Y129289D01*
Y126140D01*
X461017Y129289D02*
Y126140D01*
Y127190D01*
X463116Y129289D01*
X461541Y127715D01*
X463116Y126140D01*
X467314Y129289D02*
X468363D01*
X467838D01*
Y126140D01*
X467314D01*
X468363D01*
X469938Y129289D02*
X470987D01*
X470462D01*
Y126140D01*
X469938D01*
X470987D01*
X438976Y120472D02*
Y123621D01*
X440551D01*
X441075Y123096D01*
Y122047D01*
X440551Y121522D01*
X438976D01*
X442125Y120472D02*
Y122572D01*
X443175Y123621D01*
X444224Y122572D01*
Y120472D01*
Y122047D01*
X442125D01*
X445274Y123621D02*
Y123096D01*
X446323Y122047D01*
X447373Y123096D01*
Y123621D01*
X446323Y122047D02*
Y120472D01*
X448422Y122047D02*
X450521D01*
X451571Y123621D02*
Y120472D01*
X453670D01*
X456818Y123621D02*
X454719D01*
Y120472D01*
X456818D01*
X454719Y122047D02*
X455769D01*
X457868Y123621D02*
Y120472D01*
X459442D01*
X459967Y120997D01*
Y123096D01*
X459442Y123621D01*
X457868D01*
X464165D02*
Y121522D01*
X465215Y120472D01*
X466264Y121522D01*
Y123621D01*
X467314Y123096D02*
X467838Y123621D01*
X468888D01*
X469413Y123096D01*
Y122572D01*
X468888Y122047D01*
X468363D01*
X468888D01*
X469413Y121522D01*
Y120997D01*
X468888Y120472D01*
X467838D01*
X467314Y120997D01*
D11*
X595961Y94398D02*
Y98532D01*
D12*
X581358Y104528D02*
Y107283D01*
Y104528D02*
X584114D01*
X581358Y125394D02*
Y128150D01*
X584114D01*
X604980Y125394D02*
Y128150D01*
X602224D02*
X604980D01*
Y104528D02*
Y107283D01*
X602224Y104528D02*
X604980D01*
D13*
X78740Y78740D02*
Y137795D01*
X622047Y137795D01*
Y78740D02*
Y137795D01*
X78740Y78740D02*
X622047Y78740D01*
M02*
