M48
;Layer_Color=9474304
;FILE_FORMAT=4:4
METRIC,LZ
;TYPE=PLATED
T1F00S00C0.2540
T2F00S00C0.8890
T3F00S00C0.9000
T4F00S00C1.1000
T5F00S00C1.4000
T6F00S00C3.6000
%
T01
X00142Y00126
X00154Y0014
X001525Y00156
X00145Y00157
X00156Y00193
X00171Y00181
X00177858Y0017854
X00198Y00183
X002075Y00154
Y00139
X00196Y001295
X00178Y00124
X0017025Y00127
X00171Y001025
X00183Y00208
X0017375Y0022125
Y00238
X001745Y0025625
X0017375Y0027375
X0017425Y0029125
X0017375Y0030875
X00238Y003
X0027Y00303942
X00328Y00305
X0034275Y0029475
X0035Y0027375
X00352Y00266
X0035Y00249
X00349Y00235
X00355Y00225
X00349694Y00218
X00362Y00219
X00388Y0022
X00382Y00233
X00385Y00242
X00389586Y0023826
X00389Y00268
X00389791Y0027625
X00381791Y00275209
X00368Y00272
X00367485Y00249
X00365Y00304
X00386
X00381Y0031081
X00347775Y00323
X00302Y0033125
X0032Y00285
X00322Y00268206
X00316999Y00257999
X00305458Y00249648
X0026138Y0023062
X0026875Y0021906
X00253Y00215
X00218Y00208
X002305Y00264501
X00340775Y00203
X00340525Y00169525
X00357275Y00182
X00366025Y00181
X00380525Y00168429
X00363Y00043
X003725Y000155
X00084Y00218
Y00233
X00407Y00262
X00404Y00274648
X00428Y00285428
X00436Y00289
X00447999Y00294999
X00465Y0029125
X00452Y00278
X00459351Y00259
X0046765Y0025335
X0047354Y0024954
X00483758Y00266559
X00491Y00266343
X00499Y00266105
X00547524Y0024954
X00555Y00255
X0055962Y00261
X005825Y00267001
X00596449Y00278354
X005995Y00285001
X0060227Y00257857
X00600999Y00251
X006265Y002445
X00626999Y00235999
X00637Y00238
X0064635Y0024
X00654Y00238
X00679Y0024721
X00689845Y00236542
X0069715Y0021968
X00685Y00213
X00691Y00193
X00699Y00194
X00674999Y00197
X00665999Y00204
X00657669Y00205
X0063365Y00207316
X00613999Y00202
X00614Y00165
X00608392Y00159
X00596999Y00161
X00596284Y00170494
X00627Y00169
X00632Y00158
X00621Y0015319
X00644Y00154
X00641036Y00128334
X00632278Y00124
X00624999Y00124
X00651582Y00125
X00691Y00124147
X00692999Y00108
X00700906Y00105406
X00737Y00135
X00746393Y00130501
X00729Y00157955
X00724Y00174334
X00757006Y001695
X00746Y00201737
Y00209334
X00781Y00215
X00762624Y00259024
X00767689Y00290794
X00773Y00313237
X00782144Y00317144
X00704331Y00308
X00703Y0028625
X00696Y00282
X00684Y00281
X00678Y00285
X00660591Y00283
X00689727Y00294
X00697165Y00260306
X00693Y00372
X0068Y00370641
X00668495Y00360186
X00668501Y00351
X00641Y00345144
X0063Y00346
X00622Y00347491
X006191Y00367
X00589Y00375
X00588Y0039
X00644392Y00389392
Y00395553
X00632Y00313237
X00624Y0031858
X00616Y00322449
X00583Y0021953
X00571999Y00217
X00545Y00183
X00546Y00175
X00531Y00183485
X00511Y00185
X004915Y001115
X00499999Y00063
X00514Y00053
X005045Y000395
X005315Y000155
X00579999Y00025
X00575999Y00032
X00592999Y00106
X00587Y00123
X00599Y00129
X00606Y00134
X0061907Y0009807
X00547411Y00124147
X00444971Y00092059
X00438
X00425Y00086
X0042575Y00076
X00426Y00066
X00433Y00051
X0044
X00448
X00400722Y00066311
X00399971Y00086811
X00414Y00112
X0041Y00179333
X00413999Y00203
X00421Y00205
X00444971Y00215
X00438Y00229
X004725Y003575
X00522882Y00385
X007835Y001085
X00779444Y00102556
X00779Y00087
X00781722Y00065252
X00778166Y00046
X00778413Y00032752
X00745Y00035
X00744262Y00025514
X00739Y00042
X00807Y00064941
Y00079
X00819Y00091
X00825971
X0083Y00124147
X00844608Y00146653
X00829Y00166
X00838522Y00176
X0085Y00182465
X00856484Y00195152
X0086Y0021132
X00868856Y00205
X00873799Y00198
X00886Y00209
X00894Y00204
X00902Y00208
X00906352Y00226648
X00907Y00234
X00906132Y00250648
X00916Y00252
X00913998Y00259
X00907Y00266
X00906998Y00274
X00916426Y00277075
X00923925Y00278074
X00948Y0027625
X00965352Y00274648
X00965Y00266648
X00970852Y00289648
X00986Y00313
X00998Y0031
X01012Y00319
X01034Y00317
X01045Y00311
X01054Y00307
X01094Y00311
X01096928Y00332928
X01105Y00336
X01125Y00326
X01124Y0036
X0107681Y0037
X01071476Y00395553
X01057667Y00391334
X00987655Y00339945
X00927Y00330201
X00918592Y00326
X00926Y00302
X00925Y00252443
X00926586Y00242648
X00933017
X00932001Y00216999
X0094002Y0021781
X00949Y00216851
X0092075Y002185
X00917004Y00181
X00925
X00925295Y00156
X009Y00168429
X00959Y00176
X00967Y00173
X00984Y00183
X01011998Y00186
X01021653Y00208
X01002334Y00209334
X01008463Y00223
X00990436Y00223135
X01041993Y00197334
X01049Y00202
X010715Y002045
X01063793Y00158334
X01076Y00144313
X01077Y00131513
X01061Y00117
X01048Y00104
X0104219Y00098
X01035943Y00103943
X0103Y00099
X01029Y00117
X01033Y00153
X01119Y00148
X01118998Y00129
X01112856Y00133856
X01122Y00119
X01134099Y00109967
X01127334Y00089
X01107Y00095
X011075Y00047
X0114625Y00066561
Y0007375
X01169Y0012
X01179998Y00156
X01083Y00256
X010665Y00265
X01040941Y00259648
X01034Y00274
X00892998Y00281999
X00875054Y00274648
X00881352Y00258648
X00856Y00247698
X00848806Y0023333
X00832Y0026032
X00821Y00264
X00802Y00277075
X00803Y00322449
X00858Y0032
X00852421Y00314
X00851Y00306
X00875Y0030875
X00895Y00342501
X00918Y00385
X00841472Y00382472
X00841Y00395553
X0083Y002
X008855Y001125
X008855Y00046186
X00863Y00048876
X00847Y00026
X00838Y00034
X0092023Y00039252
X00928Y00012
X0104625Y00066311
Y00073781
X011925Y00102
X01197Y0030875
X01142037Y00437
X01107Y00435798
X01098472Y00487322
X01080972Y00487046
X01063Y00487322
X0105Y0049
X01047Y00456
X01017Y00452
X01000746Y0046
X0093688Y00461493
X0093681Y00472
X00907873Y00471063
X0090481Y00437
X00920482Y0044328
X00948482Y0044328
X0084Y00433
X00828Y00439
X0080178Y0043922
X01115972Y00487822
X01133473Y00488322
X01150972Y00487878
X00785Y00485
X00763Y00425
X00693Y00423151
X00684Y00416
X00678819Y00409181
X00682Y00428485
X00675931Y00434
X00635607
X0062943Y0042957
X00581Y00426
X00575312Y00397651
X00566Y00402985
X00557Y00408
X00549Y00413653
X00529999Y00433999
X00514Y004425
X00541Y004725
X00471Y0047
X00459601Y00455
X0061Y00397
X0029625Y00450892
X0028375Y00451142
X0029375Y0047575
X0030625Y00475243
X00274Y00486
X00263Y00484
X00256Y00478
X0025875Y00439501
X00266Y00434
X00247Y00442
X0019625Y00450328
X0018375Y0045025
X0019375Y0047675
X0020625Y0047675
T02
X0112599Y002396
Y00265
Y002904
X0115901
Y00265
Y002396
T03
X001946Y00350891
X0022
X002454
Y00376291
X0022
X001946
X003064Y00375878
X003318
X003572
X003826
X00408
X004334
X004588
X004842
X005096
X00535
X007522Y00376291
X007776
Y00350891
X007522
X00803
X008284
X008538
X008792
X009046
X0093
X009554
X009808
Y00376291
X009554
X0093
X009046
X008792
X008538
X008284
X00803
X01029Y003764
X010544
Y00351
X01029
X011076Y0035025
Y0037565
X01133
Y0035025
X011584
Y0037565
T04
X001245Y00074
X00189
X0025525
X0034475
X00074Y0013275
Y0019725
X00059Y0018775
Y0035225
X00074Y0034275
X00901Y00074
X009905
X0100775Y00059
X0117225
X01206Y0013275
Y0019725
X01221Y0018775
Y0035225
X01206Y0034275
Y0040725
X00836Y00466
X008235Y00481
X00759
X007715Y00466
X005077Y00466
X005205Y00481
X00456
X004432Y00466
X0032225
X0033225Y00481
X0016775
X0015775Y00466
X00074Y0040725
T05
X0056695Y0024
X0071305
T06
X0006Y000675
X0058
X007
X0122
Y004725
X007
X0058
X00053
M30
