G04*
G04 #@! TF.GenerationSoftware,Altium Limited,Altium Designer,18.1.6 (161)*
G04*
G04 Layer_Color=16711935*
%FSTAX44Y44*%
%MOMM*%
G71*
G01*
G75*
%ADD88R,1.1032X0.9032*%
%ADD89R,1.3032X0.8032*%
%ADD90R,0.9032X1.1032*%
%ADD91R,2.2032X2.8032*%
%ADD92R,0.9032X2.0032*%
%ADD96R,1.1032X1.0032*%
%ADD97R,0.8032X1.3032*%
%ADD98R,0.8032X0.7532*%
%ADD99O,2.3032X0.6532*%
%ADD100R,0.7032X0.8032*%
%ADD101R,0.8032X0.7032*%
%ADD102R,0.7532X0.8032*%
%ADD103R,0.8032X0.8032*%
%ADD104R,1.0032X1.1032*%
%ADD105R,0.8032X0.8032*%
%ADD109R,2.8032X2.2032*%
%ADD110R,2.0032X0.9032*%
%ADD111R,1.2032X0.6732*%
%ADD115R,0.7112X2.9972*%
%ADD119R,1.6532X0.5032*%
%ADD124C,0.7620*%
%ADD125C,1.5032*%
%ADD126C,2.5654*%
%ADD127C,1.7032*%
%ADD128C,6.2032*%
%ADD129C,2.2032*%
%ADD130C,3.0032*%
%ADD131C,1.1684*%
%ADD132R,1.7032X1.7032*%
%ADD134R,1.7272X1.7272*%
%ADD135C,1.7272*%
%ADD136R,1.2032X2.0032*%
%ADD137R,1.5532X0.6532*%
%ADD138R,0.9652X1.3970*%
%ADD139R,1.0160X0.5080*%
%ADD140R,0.6732X1.2032*%
%ADD141R,2.8032X1.3032*%
%ADD142R,0.9032X0.7032*%
%ADD143R,2.0032X1.4532*%
%ADD144R,1.4532X2.0032*%
%ADD145R,0.5588X1.6764*%
%ADD146R,0.8532X1.3032*%
%ADD147R,1.7532X0.4532*%
%ADD148R,1.1032X2.4532*%
%ADD149R,1.1032X3.0032*%
%ADD150R,1.3032X0.8532*%
%ADD151R,1.6764X0.5588*%
D88*
X01245616Y00868034D02*
D03*
Y00883034D02*
D03*
X01105997Y01052558D02*
D03*
Y01067558D02*
D03*
X01174535Y00568982D02*
D03*
Y00553982D02*
D03*
X00925149Y00663234D02*
D03*
Y00678234D02*
D03*
X00933935Y0056867D02*
D03*
Y0055367D02*
D03*
X00805423Y0066281D02*
D03*
Y0067781D02*
D03*
X01054833Y00569123D02*
D03*
Y00554123D02*
D03*
X01045545Y00663176D02*
D03*
Y00678176D02*
D03*
X00994619Y00958028D02*
D03*
Y00943028D02*
D03*
X00865467Y01052132D02*
D03*
Y01067132D02*
D03*
X00745036Y01052613D02*
D03*
Y01067613D02*
D03*
X00814803Y00569148D02*
D03*
Y00554148D02*
D03*
X00985795Y01052298D02*
D03*
Y01067298D02*
D03*
X00874755Y00957596D02*
D03*
Y00942596D02*
D03*
X01114483Y00957596D02*
D03*
Y00942596D02*
D03*
X00285017Y00678508D02*
D03*
Y00663508D02*
D03*
X00404905Y00678122D02*
D03*
Y00663122D02*
D03*
X00165577Y0067696D02*
D03*
Y0066196D02*
D03*
X00414239Y00554123D02*
D03*
Y00569123D02*
D03*
X00534695Y00554123D02*
D03*
Y00569123D02*
D03*
X00174777Y00553198D02*
D03*
Y00568198D02*
D03*
X00293395Y00553198D02*
D03*
Y00568198D02*
D03*
X00225065Y01068138D02*
D03*
Y01053138D02*
D03*
X00346417Y01067044D02*
D03*
Y01052044D02*
D03*
X00466051Y01066838D02*
D03*
Y01051838D02*
D03*
X00354563Y00943358D02*
D03*
Y00958358D02*
D03*
X00475467Y00942342D02*
D03*
Y00957342D02*
D03*
X00234159Y00943022D02*
D03*
Y00958022D02*
D03*
X00104175Y0106732D02*
D03*
Y0105232D02*
D03*
X00638Y0017025D02*
D03*
Y0018525D02*
D03*
X00652Y0017025D02*
D03*
Y0018525D02*
D03*
X00669Y0017025D02*
D03*
Y0018525D02*
D03*
X00683Y0017025D02*
D03*
Y0018525D02*
D03*
X00699Y0017025D02*
D03*
Y0018525D02*
D03*
X00734Y001705D02*
D03*
Y001855D02*
D03*
X00748Y001705D02*
D03*
Y001855D02*
D03*
X00713Y0017025D02*
D03*
Y0018525D02*
D03*
D89*
X00188Y001105D02*
D03*
Y001295D02*
D03*
X0016D02*
D03*
Y0012D02*
D03*
Y001105D02*
D03*
X0018716Y00164485D02*
D03*
Y00183485D02*
D03*
X0015916D02*
D03*
Y00173985D02*
D03*
Y00164485D02*
D03*
D90*
X0065171Y00660967D02*
D03*
X0066671D02*
D03*
X00614453Y0072742D02*
D03*
X00629453D02*
D03*
X00613832Y00959966D02*
D03*
X00628832D02*
D03*
X00666409Y00890498D02*
D03*
X00651409D02*
D03*
X00107766Y00729258D02*
D03*
X00092766D02*
D03*
X00106414Y00959393D02*
D03*
X00091414D02*
D03*
X004675Y00437D02*
D03*
X004525D02*
D03*
X006505Y00281D02*
D03*
X006655D02*
D03*
X007925Y00434D02*
D03*
X007775D02*
D03*
X010845Y00311D02*
D03*
X010695D02*
D03*
X01112Y00116D02*
D03*
X01097D02*
D03*
X00931426Y00289D02*
D03*
X00916426D02*
D03*
X00202Y00098D02*
D03*
X00187D02*
D03*
X01126882Y00087D02*
D03*
X01141882D02*
D03*
X002075Y00153D02*
D03*
X001925D02*
D03*
D91*
X0034275Y00034D02*
D03*
X0025725D02*
D03*
X009885D02*
D03*
X00903D02*
D03*
X0015975Y00506D02*
D03*
X0032025D02*
D03*
X00187Y00034D02*
D03*
X001265D02*
D03*
X007735Y00506D02*
D03*
X00834D02*
D03*
X004452Y00506D02*
D03*
X005057D02*
D03*
D92*
X0030625Y00085D02*
D03*
X0029375D02*
D03*
X0028125D02*
D03*
X0031875D02*
D03*
X00952D02*
D03*
X009395D02*
D03*
X00927D02*
D03*
X009645D02*
D03*
X0018375Y00455D02*
D03*
X0019625D02*
D03*
X0020875D02*
D03*
X0022125D02*
D03*
X0027125D02*
D03*
X0028375D02*
D03*
X0029625D02*
D03*
X0023375D02*
D03*
X0024625D02*
D03*
X0025875D02*
D03*
X00163Y00085D02*
D03*
X001505D02*
D03*
X007975Y00455D02*
D03*
X0081D02*
D03*
X004692Y00455D02*
D03*
X004817D02*
D03*
D96*
X01054333Y00898908D02*
D03*
Y00912908D02*
D03*
X005426Y00828D02*
D03*
Y00814D02*
D03*
X0049075Y00828D02*
D03*
Y00814D02*
D03*
X00423926Y00907934D02*
D03*
Y00893934D02*
D03*
X01243838Y00745598D02*
D03*
Y00759598D02*
D03*
X00430022Y00763886D02*
D03*
Y00777886D02*
D03*
X00168414Y0106705D02*
D03*
Y0105305D02*
D03*
X010611Y00775092D02*
D03*
Y00761092D02*
D03*
X01110296Y00554252D02*
D03*
Y00568252D02*
D03*
X01170236Y01067288D02*
D03*
Y01053288D02*
D03*
X00989388Y00677964D02*
D03*
Y00663964D02*
D03*
X00990594Y00554393D02*
D03*
Y00568393D02*
D03*
X00869696Y0055394D02*
D03*
Y0056794D02*
D03*
X01109784Y00677906D02*
D03*
Y00663906D02*
D03*
X00869662Y0067754D02*
D03*
Y0066354D02*
D03*
X00750564Y00554418D02*
D03*
Y00568418D02*
D03*
X0093038Y00943298D02*
D03*
Y00957298D02*
D03*
X01050034Y01067028D02*
D03*
Y01053028D02*
D03*
X00929706Y01066862D02*
D03*
Y01052862D02*
D03*
X01050244Y00942866D02*
D03*
Y00956866D02*
D03*
X00810516Y00942866D02*
D03*
Y00956866D02*
D03*
X00809275Y01067343D02*
D03*
Y01053343D02*
D03*
X00410656Y01066774D02*
D03*
Y01052774D02*
D03*
X0053029Y01066568D02*
D03*
Y01052568D02*
D03*
X00290324Y00943628D02*
D03*
Y00957628D02*
D03*
X00411228Y00942612D02*
D03*
Y00956612D02*
D03*
X00289304Y01067868D02*
D03*
Y01053868D02*
D03*
X0016992Y00943292D02*
D03*
Y00957292D02*
D03*
X0035Y00568393D02*
D03*
Y00554393D02*
D03*
X00349256Y00664238D02*
D03*
Y00678238D02*
D03*
X00469144Y00663852D02*
D03*
Y00677852D02*
D03*
X00470456Y00568393D02*
D03*
Y00554393D02*
D03*
X00229156Y00567468D02*
D03*
Y00553468D02*
D03*
X00110538Y00567468D02*
D03*
Y00553468D02*
D03*
X00229816Y0066269D02*
D03*
Y0067669D02*
D03*
X00368025Y00192D02*
D03*
Y00206D02*
D03*
X00355025Y00192D02*
D03*
Y00206D02*
D03*
X0105Y004795D02*
D03*
Y004655D02*
D03*
X0115848Y00109D02*
D03*
Y00123D02*
D03*
X00927Y00207D02*
D03*
Y00193D02*
D03*
X00914Y00207D02*
D03*
Y00193D02*
D03*
D97*
X01126382Y0010225D02*
D03*
X01145382D02*
D03*
Y0013025D02*
D03*
X01135882D02*
D03*
X01126382D02*
D03*
D98*
X00940816Y00875618D02*
D03*
Y00886118D02*
D03*
X00309334Y00868522D02*
D03*
Y00879022D02*
D03*
X0031369Y0073795D02*
D03*
Y0074845D02*
D03*
X00246762Y0074464D02*
D03*
Y0073414D02*
D03*
X00875284Y00744132D02*
D03*
Y00733632D02*
D03*
X00944598Y00736867D02*
D03*
Y00747367D02*
D03*
X01120902Y0076193D02*
D03*
Y0077243D02*
D03*
X01080262Y00808054D02*
D03*
Y00818554D02*
D03*
X01216152Y0071509D02*
D03*
Y0072559D02*
D03*
X01212342Y00905844D02*
D03*
Y00916344D02*
D03*
X00961443Y00837302D02*
D03*
Y00847802D02*
D03*
X00861314Y0087037D02*
D03*
Y0085987D02*
D03*
X00872236Y00867998D02*
D03*
Y00878498D02*
D03*
X0097217Y00701882D02*
D03*
Y00712382D02*
D03*
X00879094Y00718732D02*
D03*
Y00708232D02*
D03*
X00243078Y00862918D02*
D03*
Y00873418D02*
D03*
X00336978Y00713778D02*
D03*
Y00703278D02*
D03*
X00246762Y00724713D02*
D03*
Y00714213D02*
D03*
X00233172Y00866814D02*
D03*
Y00856314D02*
D03*
D99*
X00957139Y00865776D02*
D03*
Y00872276D02*
D03*
Y00878776D02*
D03*
Y00885276D02*
D03*
Y00891776D02*
D03*
Y00898276D02*
D03*
Y00904776D02*
D03*
Y00911276D02*
D03*
X01026139Y00865776D02*
D03*
Y00872276D02*
D03*
Y00878776D02*
D03*
Y00885276D02*
D03*
Y00891776D02*
D03*
Y00898276D02*
D03*
Y00904776D02*
D03*
Y00911276D02*
D03*
X00842934Y00906822D02*
D03*
Y00900322D02*
D03*
Y00893822D02*
D03*
Y00887322D02*
D03*
Y00880822D02*
D03*
Y00874322D02*
D03*
Y00867822D02*
D03*
Y00861322D02*
D03*
X00773934Y00906822D02*
D03*
Y00900322D02*
D03*
Y00893822D02*
D03*
Y00887322D02*
D03*
Y00880822D02*
D03*
Y00874322D02*
D03*
Y00867822D02*
D03*
Y00861322D02*
D03*
X00395732Y00906302D02*
D03*
Y00899802D02*
D03*
Y00893302D02*
D03*
Y00886802D02*
D03*
Y00880302D02*
D03*
Y00873802D02*
D03*
Y00867302D02*
D03*
Y00860802D02*
D03*
X00326732Y00906302D02*
D03*
Y00899802D02*
D03*
Y00893302D02*
D03*
Y00886802D02*
D03*
Y00880302D02*
D03*
Y00873802D02*
D03*
Y00867302D02*
D03*
Y00860802D02*
D03*
X00215554Y00896662D02*
D03*
Y00890162D02*
D03*
Y00883662D02*
D03*
Y00877162D02*
D03*
Y00870662D02*
D03*
Y00864162D02*
D03*
Y00857662D02*
D03*
Y00851162D02*
D03*
X00146554Y00896662D02*
D03*
Y00890162D02*
D03*
Y00883662D02*
D03*
Y00877162D02*
D03*
Y00870662D02*
D03*
Y00864162D02*
D03*
Y00857662D02*
D03*
Y00851162D02*
D03*
X00140458Y00699606D02*
D03*
Y00706106D02*
D03*
Y00712607D02*
D03*
Y00719107D02*
D03*
Y00725607D02*
D03*
Y00732106D02*
D03*
Y00738606D02*
D03*
Y00745107D02*
D03*
X00209458Y00699606D02*
D03*
Y00706106D02*
D03*
Y00712607D02*
D03*
Y00719107D02*
D03*
Y00725607D02*
D03*
Y00732106D02*
D03*
Y00738606D02*
D03*
Y00745107D02*
D03*
X00330644Y00730179D02*
D03*
Y00736679D02*
D03*
Y00743179D02*
D03*
Y00749679D02*
D03*
Y00756179D02*
D03*
Y00762679D02*
D03*
Y00769179D02*
D03*
Y00775679D02*
D03*
X00399644Y00730179D02*
D03*
Y00736679D02*
D03*
Y00743179D02*
D03*
Y00749679D02*
D03*
Y00756179D02*
D03*
Y00762679D02*
D03*
Y00769179D02*
D03*
Y00775679D02*
D03*
X00842996Y00744966D02*
D03*
Y00738466D02*
D03*
Y00731966D02*
D03*
Y00725466D02*
D03*
Y00718966D02*
D03*
Y00712466D02*
D03*
Y00705966D02*
D03*
Y00699466D02*
D03*
X00773996Y00744966D02*
D03*
Y00738466D02*
D03*
Y00731966D02*
D03*
Y00725466D02*
D03*
Y00718966D02*
D03*
Y00712466D02*
D03*
Y00705966D02*
D03*
Y00699466D02*
D03*
X01030722Y00772885D02*
D03*
Y00766385D02*
D03*
Y00759885D02*
D03*
Y00753385D02*
D03*
Y00746885D02*
D03*
Y00740385D02*
D03*
Y00733885D02*
D03*
Y00727385D02*
D03*
X00961722Y00772885D02*
D03*
Y00766385D02*
D03*
Y00759885D02*
D03*
Y00753385D02*
D03*
Y00746885D02*
D03*
Y00740385D02*
D03*
Y00733885D02*
D03*
Y00727385D02*
D03*
X0110042Y00786164D02*
D03*
Y00792664D02*
D03*
Y00799164D02*
D03*
Y00805664D02*
D03*
Y00812164D02*
D03*
Y00818664D02*
D03*
Y00825164D02*
D03*
Y00831664D02*
D03*
X0116942Y00786164D02*
D03*
Y00792664D02*
D03*
Y00799164D02*
D03*
Y00805664D02*
D03*
Y00812164D02*
D03*
Y00818664D02*
D03*
Y00825164D02*
D03*
Y00831664D02*
D03*
D100*
X0075Y008435D02*
D03*
Y008335D02*
D03*
X00759Y008435D02*
D03*
Y008335D02*
D03*
X01232662Y0076064D02*
D03*
Y0075064D02*
D03*
X01234694Y0086771D02*
D03*
Y0087771D02*
D03*
X01116896Y01068106D02*
D03*
Y01058106D02*
D03*
X0115906Y01068106D02*
D03*
Y01058106D02*
D03*
X01163636Y00553434D02*
D03*
Y00563434D02*
D03*
X01121472Y00553434D02*
D03*
Y00563434D02*
D03*
X00861822Y0088171D02*
D03*
Y0089171D02*
D03*
X01043373Y00912148D02*
D03*
Y00902148D02*
D03*
X00936048Y00678782D02*
D03*
Y00668782D02*
D03*
X00978212Y00678782D02*
D03*
Y00668782D02*
D03*
X00923036Y00553122D02*
D03*
Y00563122D02*
D03*
X00880872Y00553122D02*
D03*
Y00563122D02*
D03*
X00816322Y00678358D02*
D03*
Y00668358D02*
D03*
X00858486Y00678358D02*
D03*
Y00668358D02*
D03*
X01043934Y00553575D02*
D03*
Y00563575D02*
D03*
X0100177Y00553575D02*
D03*
Y00563575D02*
D03*
X01056444Y00678724D02*
D03*
Y00668724D02*
D03*
X01098608Y00678724D02*
D03*
Y00668724D02*
D03*
X0098372Y0094248D02*
D03*
Y0095248D02*
D03*
X00941556Y0094248D02*
D03*
Y0095248D02*
D03*
X00876366Y0106768D02*
D03*
Y0105768D02*
D03*
X0091853Y0106768D02*
D03*
Y0105768D02*
D03*
X00755935Y01068161D02*
D03*
Y01058161D02*
D03*
X00798099Y01068161D02*
D03*
Y01058161D02*
D03*
X00803904Y005536D02*
D03*
Y005636D02*
D03*
X0076174Y005536D02*
D03*
Y005636D02*
D03*
X00996694Y01067846D02*
D03*
Y01057846D02*
D03*
X01038858Y01067846D02*
D03*
Y01057846D02*
D03*
X00863856Y00942048D02*
D03*
Y00952048D02*
D03*
X00821692Y00942048D02*
D03*
Y00952048D02*
D03*
X01103584Y00942048D02*
D03*
Y00952048D02*
D03*
X0106142Y00942048D02*
D03*
Y00952048D02*
D03*
X00295916Y00669056D02*
D03*
Y00679056D02*
D03*
X0033808Y00669056D02*
D03*
Y00679056D02*
D03*
X00415804Y0066867D02*
D03*
Y0067867D02*
D03*
X00457968Y0066867D02*
D03*
Y0067867D02*
D03*
X00176476Y00667508D02*
D03*
Y00677508D02*
D03*
X0021864Y00667508D02*
D03*
Y00677508D02*
D03*
X0040334Y00563575D02*
D03*
Y00553575D02*
D03*
X00361176Y00563575D02*
D03*
Y00553575D02*
D03*
X00523796Y00563575D02*
D03*
Y00553575D02*
D03*
X00481632Y00563575D02*
D03*
Y00553575D02*
D03*
X00163878Y0056265D02*
D03*
Y0055265D02*
D03*
X00121714Y0056265D02*
D03*
Y0055265D02*
D03*
X00282496Y0056265D02*
D03*
Y0055265D02*
D03*
X00240332Y0056265D02*
D03*
Y0055265D02*
D03*
X00233408Y00876198D02*
D03*
Y00886198D02*
D03*
X00235964Y01058686D02*
D03*
Y01068686D02*
D03*
X00278128Y01058686D02*
D03*
Y01068686D02*
D03*
X00357316Y01057592D02*
D03*
Y01067592D02*
D03*
X0039948Y01057592D02*
D03*
Y01067592D02*
D03*
X0047695Y01057386D02*
D03*
Y01067386D02*
D03*
X00519114Y01057386D02*
D03*
Y01067386D02*
D03*
X00343664Y0095281D02*
D03*
Y0094281D02*
D03*
X003015Y0095281D02*
D03*
Y0094281D02*
D03*
X00464568Y00951794D02*
D03*
Y00941794D02*
D03*
X00422404Y00951794D02*
D03*
Y00941794D02*
D03*
X0022326Y00952474D02*
D03*
Y00942474D02*
D03*
X00181096Y00952474D02*
D03*
Y00942474D02*
D03*
X00115074Y01057868D02*
D03*
Y01067868D02*
D03*
X00157238Y01057868D02*
D03*
Y01067868D02*
D03*
X01048654Y0077614D02*
D03*
Y0076614D02*
D03*
X00412966Y00907174D02*
D03*
Y00897174D02*
D03*
X00417576Y00778934D02*
D03*
Y00768934D02*
D03*
D101*
X01061894Y00848864D02*
D03*
X01051894D02*
D03*
X00903812Y00921762D02*
D03*
X00913812D02*
D03*
X00939661Y00897416D02*
D03*
X00929661D02*
D03*
X00914066Y00855722D02*
D03*
X00904066D02*
D03*
X00766256Y00914142D02*
D03*
X00776256D02*
D03*
X00430064Y00844182D02*
D03*
X00440064D02*
D03*
X00275517Y00915518D02*
D03*
X00285517D02*
D03*
X00309254Y00892442D02*
D03*
X00299254D02*
D03*
X00283346Y00852056D02*
D03*
X00273346D02*
D03*
X00138876Y00903982D02*
D03*
X00148876D02*
D03*
X0014278Y00752427D02*
D03*
X0013278D02*
D03*
X0027948Y0072161D02*
D03*
X0028948D02*
D03*
X00280017Y0078638D02*
D03*
X00290017D02*
D03*
X00313142Y0076098D02*
D03*
X00303142D02*
D03*
X00430958Y00713482D02*
D03*
X00420958D02*
D03*
X00766318Y00752286D02*
D03*
X00776318D02*
D03*
X00910416Y00784856D02*
D03*
X00920416D02*
D03*
X00919908Y00716022D02*
D03*
X00909908D02*
D03*
X00943276Y0075844D02*
D03*
X00933276D02*
D03*
X01047561Y00707386D02*
D03*
X01037561D02*
D03*
X011735Y00778512D02*
D03*
X011635D02*
D03*
X01211246Y00861818D02*
D03*
X01201246D02*
D03*
X0073975Y0083775D02*
D03*
X0072975D02*
D03*
X00959411Y00918324D02*
D03*
X00949411D02*
D03*
X00875204Y0075524D02*
D03*
X00865204D02*
D03*
X00651162Y00671866D02*
D03*
X00661162D02*
D03*
X00651162Y0071403D02*
D03*
X00661162D02*
D03*
X00630001Y00716521D02*
D03*
X00620001D02*
D03*
X00630001Y00674357D02*
D03*
X00620001D02*
D03*
X0062938Y00949067D02*
D03*
X0061938D02*
D03*
X0062938Y00906903D02*
D03*
X0061938D02*
D03*
X00650861Y00901397D02*
D03*
X00660861D02*
D03*
X00650861Y00943561D02*
D03*
X00660861D02*
D03*
X00236394Y00753039D02*
D03*
X00226394D02*
D03*
X00098314Y00718359D02*
D03*
X00108314D02*
D03*
X00096962Y00948494D02*
D03*
X00106962D02*
D03*
X00096962Y0090633D02*
D03*
X00106962D02*
D03*
X00965628Y00781808D02*
D03*
X00955628D02*
D03*
X00329004Y0091335D02*
D03*
X00319004D02*
D03*
X00335763Y00790444D02*
D03*
X00325763D02*
D03*
X00108314Y00676195D02*
D03*
X00098314D02*
D03*
D102*
X01119672Y00871078D02*
D03*
X01109172D02*
D03*
X00649Y0086766D02*
D03*
X006595D02*
D03*
Y0087725D02*
D03*
X00649D02*
D03*
X0120975Y0080525D02*
D03*
X0122025D02*
D03*
X0120975Y0079275D02*
D03*
X0122025D02*
D03*
X00467077Y00836164D02*
D03*
X00477577D02*
D03*
X01222418Y00894114D02*
D03*
X01211918D02*
D03*
D103*
X005665Y0017575D02*
D03*
Y0018375D02*
D03*
Y0019175D02*
D03*
Y0019975D02*
D03*
X005535D02*
D03*
Y0019175D02*
D03*
Y0018375D02*
D03*
Y0017575D02*
D03*
D104*
X00904606Y00844038D02*
D03*
X00918606D02*
D03*
X0027414Y00840626D02*
D03*
X0028814D02*
D03*
X0028002Y0071018D02*
D03*
X0029402D02*
D03*
X00910702Y00705309D02*
D03*
X00924702D02*
D03*
X01196452Y00850388D02*
D03*
X01210452D02*
D03*
X01172494Y0076825D02*
D03*
X01158494D02*
D03*
X0106683Y00859532D02*
D03*
X0105283D02*
D03*
X01047608Y00718642D02*
D03*
X01061608D02*
D03*
X00436006Y00724404D02*
D03*
X00422006D02*
D03*
X00425016Y00855104D02*
D03*
X00439016D02*
D03*
X00785654Y00763208D02*
D03*
X00799654D02*
D03*
X00785592Y00925064D02*
D03*
X00799592D02*
D03*
X0065198Y00725206D02*
D03*
X0066598D02*
D03*
X00629183Y00663181D02*
D03*
X00615183D02*
D03*
X00651679Y00954737D02*
D03*
X00665679D02*
D03*
X00628562Y00895727D02*
D03*
X00614562D02*
D03*
X00158212Y00914904D02*
D03*
X00172212D02*
D03*
X00106144Y00895154D02*
D03*
X00092144D02*
D03*
X00166116Y00763348D02*
D03*
X00152116D02*
D03*
X00093496Y00665018D02*
D03*
X00107496D02*
D03*
X0018Y00196D02*
D03*
X00166D02*
D03*
X00621999Y00296D02*
D03*
X00607999D02*
D03*
X00622Y00283D02*
D03*
X00608D02*
D03*
X0106981Y00217D02*
D03*
X0108381D02*
D03*
X00207Y00208D02*
D03*
X00193D02*
D03*
X00166Y00142D02*
D03*
X0018D02*
D03*
X0079Y00259648D02*
D03*
X00776D02*
D03*
Y0027274D02*
D03*
X0079D02*
D03*
D105*
X0071Y00393D02*
D03*
X00702D02*
D03*
X00694D02*
D03*
X00686D02*
D03*
Y0038D02*
D03*
X00694D02*
D03*
X00702D02*
D03*
X0071D02*
D03*
X00628Y00445D02*
D03*
X00636D02*
D03*
X00644D02*
D03*
X00652D02*
D03*
Y00458D02*
D03*
X00644D02*
D03*
X00636D02*
D03*
X00628D02*
D03*
X00575Y00378D02*
D03*
X00567D02*
D03*
X00559D02*
D03*
X00551D02*
D03*
Y00391D02*
D03*
X00559D02*
D03*
X00567D02*
D03*
X00575D02*
D03*
D109*
X01246Y0019525D02*
D03*
Y0013475D02*
D03*
Y0040525D02*
D03*
Y0034475D02*
D03*
X00034Y0013475D02*
D03*
Y0019525D02*
D03*
Y0034475D02*
D03*
Y0040525D02*
D03*
D110*
X01195Y0017125D02*
D03*
Y0015875D02*
D03*
Y0038125D02*
D03*
Y0036875D02*
D03*
X00085Y0015875D02*
D03*
Y0017125D02*
D03*
Y0036875D02*
D03*
Y0038125D02*
D03*
D111*
X01055565Y00877858D02*
D03*
X01073565Y00884358D02*
D03*
Y00871358D02*
D03*
X01055565Y00884358D02*
D03*
Y00871358D02*
D03*
X00913071Y0090584D02*
D03*
X00895071Y0089934D02*
D03*
Y0091234D02*
D03*
X00913071Y0089934D02*
D03*
Y0091234D02*
D03*
X00425158Y00872884D02*
D03*
X00443158Y00879384D02*
D03*
Y00866384D02*
D03*
X00425158Y00879384D02*
D03*
Y00866384D02*
D03*
X00282664Y00900866D02*
D03*
X00264664Y00894366D02*
D03*
Y00907366D02*
D03*
X00282664Y00894366D02*
D03*
Y00907366D02*
D03*
X0028829Y0077764D02*
D03*
Y0076464D02*
D03*
X0027029Y0077764D02*
D03*
Y0076464D02*
D03*
X0028829Y0077114D02*
D03*
X00421386Y00741168D02*
D03*
X00439386Y00747668D02*
D03*
Y00734668D02*
D03*
X00421386D02*
D03*
Y00747668D02*
D03*
X00918938Y0076845D02*
D03*
X00900938Y0076195D02*
D03*
Y0077495D02*
D03*
X00918938Y0076195D02*
D03*
Y0077495D02*
D03*
X01052464Y00738374D02*
D03*
X01070464Y00744874D02*
D03*
Y00731874D02*
D03*
X01052464Y00744874D02*
D03*
Y00731874D02*
D03*
X01202182Y00877578D02*
D03*
X01220182Y00884078D02*
D03*
Y00871078D02*
D03*
X01202182Y00884078D02*
D03*
Y00871078D02*
D03*
X01147122Y01069352D02*
D03*
Y01056352D02*
D03*
X01129122Y01069352D02*
D03*
Y01056352D02*
D03*
X01147122Y01062852D02*
D03*
X0113341Y00552188D02*
D03*
Y00565188D02*
D03*
X0115141Y00552188D02*
D03*
Y00565188D02*
D03*
X0113341Y00558688D02*
D03*
X00786161Y01062907D02*
D03*
X00768161Y01056407D02*
D03*
Y01069407D02*
D03*
X00786161Y01056407D02*
D03*
Y01069407D02*
D03*
X00966274Y00680028D02*
D03*
Y00667028D02*
D03*
X00948274Y00680028D02*
D03*
Y00667028D02*
D03*
X00966274Y00673528D02*
D03*
X0089281Y00551876D02*
D03*
Y00564876D02*
D03*
X0091081Y00551876D02*
D03*
Y00564876D02*
D03*
X0089281Y00558376D02*
D03*
X00846548Y00679604D02*
D03*
Y00666604D02*
D03*
X00828548Y00679604D02*
D03*
Y00666604D02*
D03*
X00846548Y00673104D02*
D03*
X01013708Y00552329D02*
D03*
Y00565329D02*
D03*
X01031708Y00552329D02*
D03*
Y00565329D02*
D03*
X01013708Y00558829D02*
D03*
X0108667Y0067997D02*
D03*
Y0066697D02*
D03*
X0106867Y0067997D02*
D03*
Y0066697D02*
D03*
X0108667Y0067347D02*
D03*
X00953494Y00941234D02*
D03*
Y00954234D02*
D03*
X00971494Y00941234D02*
D03*
Y00954234D02*
D03*
X00953494Y00947734D02*
D03*
X00906592Y01068926D02*
D03*
Y01055926D02*
D03*
X00888592Y01068926D02*
D03*
Y01055926D02*
D03*
X00906592Y01062426D02*
D03*
X00773678Y00552354D02*
D03*
Y00565354D02*
D03*
X00791678Y00552354D02*
D03*
Y00565354D02*
D03*
X00773678Y00558854D02*
D03*
X0102692Y01069092D02*
D03*
Y01056092D02*
D03*
X0100892Y01069092D02*
D03*
Y01056092D02*
D03*
X0102692Y01062592D02*
D03*
X0083363Y00940802D02*
D03*
Y00953802D02*
D03*
X0085163Y00940802D02*
D03*
Y00953802D02*
D03*
X0083363Y00947302D02*
D03*
X01073358Y00940802D02*
D03*
Y00953802D02*
D03*
X01091358Y00940802D02*
D03*
Y00953802D02*
D03*
X01073358Y00947302D02*
D03*
X00326142Y00673802D02*
D03*
X00308142Y00667302D02*
D03*
Y00680302D02*
D03*
X00326142Y00667302D02*
D03*
Y00680302D02*
D03*
X0044603Y00673416D02*
D03*
X0042803Y00666916D02*
D03*
Y00679916D02*
D03*
X0044603Y00666916D02*
D03*
Y00679916D02*
D03*
X00206702Y00672254D02*
D03*
X00188702Y00665754D02*
D03*
Y00678754D02*
D03*
X00206702Y00665754D02*
D03*
Y00678754D02*
D03*
X00373114Y00558829D02*
D03*
X00391114Y00565329D02*
D03*
Y00552329D02*
D03*
X00373114Y00565329D02*
D03*
Y00552329D02*
D03*
X0049357Y00558829D02*
D03*
X0051157Y00565329D02*
D03*
Y00552329D02*
D03*
X0049357Y00565329D02*
D03*
Y00552329D02*
D03*
X00133652Y00557904D02*
D03*
X00151652Y00564404D02*
D03*
Y00551404D02*
D03*
X00133652Y00564404D02*
D03*
Y00551404D02*
D03*
X0025227Y00557904D02*
D03*
X0027027Y00564404D02*
D03*
Y00551404D02*
D03*
X0025227Y00564404D02*
D03*
Y00551404D02*
D03*
X0026619Y01063432D02*
D03*
X0024819Y01056932D02*
D03*
Y01069932D02*
D03*
X0026619Y01056932D02*
D03*
Y01069932D02*
D03*
X00387542Y01062338D02*
D03*
X00369542Y01055838D02*
D03*
Y01068838D02*
D03*
X00387542Y01055838D02*
D03*
Y01068838D02*
D03*
X00507176Y01062132D02*
D03*
X00489176Y01055632D02*
D03*
Y01068632D02*
D03*
X00507176Y01055632D02*
D03*
Y01068632D02*
D03*
X00313438Y00948064D02*
D03*
X00331438Y00954564D02*
D03*
Y00941564D02*
D03*
X00313438Y00954564D02*
D03*
Y00941564D02*
D03*
X00434342Y00947048D02*
D03*
X00452342Y00953548D02*
D03*
Y00940548D02*
D03*
X00434342Y00953548D02*
D03*
Y00940548D02*
D03*
X00193034Y00947728D02*
D03*
X00211034Y00954228D02*
D03*
Y00941228D02*
D03*
X00193034Y00954228D02*
D03*
Y00941228D02*
D03*
X001453Y01062614D02*
D03*
X001273Y01056114D02*
D03*
Y01069114D02*
D03*
X001453Y01056114D02*
D03*
Y01069114D02*
D03*
X00795Y00297558D02*
D03*
Y00284558D02*
D03*
X00777Y00297558D02*
D03*
Y00284558D02*
D03*
X00795Y00291058D02*
D03*
D115*
X0058285Y0075968D02*
D03*
Y0080032D02*
D03*
X0059555Y0075968D02*
D03*
Y0080032D02*
D03*
X0060825Y0075968D02*
D03*
Y0080032D02*
D03*
X0062095Y0075968D02*
D03*
Y0080032D02*
D03*
X0063365Y0075968D02*
D03*
Y0080032D02*
D03*
X0064635Y0075968D02*
D03*
Y0080032D02*
D03*
X0065905Y0075968D02*
D03*
Y0080032D02*
D03*
X0067175Y0075968D02*
D03*
Y0080032D02*
D03*
X0068445Y0075968D02*
D03*
Y0080032D02*
D03*
X0069715Y0075968D02*
D03*
Y0080032D02*
D03*
D119*
X00691757Y008455D02*
D03*
Y008505D02*
D03*
Y008555D02*
D03*
Y008605D02*
D03*
Y008655D02*
D03*
X00735757Y008455D02*
D03*
Y008505D02*
D03*
Y008555D02*
D03*
Y008605D02*
D03*
Y008655D02*
D03*
D124*
X00735Y0116425D02*
D03*
X007355Y011935D02*
D03*
X00545Y0112131D02*
D03*
X00555Y01185D02*
D03*
X00563348D02*
D03*
X005725Y01096D02*
D03*
X0069Y010875D02*
D03*
X01174618Y01191525D02*
D03*
X0078Y012185D02*
D03*
Y01209D02*
D03*
X007575Y01195748D02*
D03*
X0075Y01196957D02*
D03*
X00746476Y01206326D02*
D03*
X01204Y01226D02*
D03*
X01219618Y01201525D02*
D03*
X01125Y0117675D02*
D03*
X01155Y011975D02*
D03*
X00947Y01179D02*
D03*
X00975Y011995D02*
D03*
X009175Y0122D02*
D03*
X008875Y01201D02*
D03*
X00855Y01219416D02*
D03*
X00827Y01201D02*
D03*
X00795Y012185D02*
D03*
X00687Y01244464D02*
D03*
X00617Y01085625D02*
D03*
X006045Y01085609D02*
D03*
X0064Y012D02*
D03*
X00456Y01141D02*
D03*
X004275Y0117975D02*
D03*
X004555Y011985D02*
D03*
X00393Y01198D02*
D03*
X00365Y011785D02*
D03*
X003355Y011415D02*
D03*
X00335Y011985D02*
D03*
X00705Y011025D02*
D03*
X007125Y01105D02*
D03*
X00737623Y01124877D02*
D03*
X00835Y011105D02*
D03*
X0085Y010875D02*
D03*
X008075Y01173D02*
D03*
X0086685D02*
D03*
X0092485Y01174D02*
D03*
X01036Y01141D02*
D03*
X009755Y01142D02*
D03*
X011555Y0114275D02*
D03*
X006Y01198292D02*
D03*
X005325Y012025D02*
D03*
X0061165Y0117415D02*
D03*
X005925Y01241644D02*
D03*
X0062675Y01155551D02*
D03*
X00699Y011935D02*
D03*
X00677Y01175D02*
D03*
X0075Y012125D02*
D03*
X007225Y01193708D02*
D03*
X0066835Y01202D02*
D03*
X00744572Y01230422D02*
D03*
X0074Y01236D02*
D03*
X00744572Y01241644D02*
D03*
X006775Y012375D02*
D03*
X006465Y012275D02*
D03*
X00653Y01233D02*
D03*
X006595Y01227464D02*
D03*
X0083925Y012185D02*
D03*
X0090175Y0121925D02*
D03*
X0095975Y0119875D02*
D03*
X010205Y012005D02*
D03*
X00502791Y01215D02*
D03*
X0049619Y0122131D02*
D03*
X005375D02*
D03*
X00505Y012305D02*
D03*
X005175Y01233D02*
D03*
X00532992Y01237008D02*
D03*
X000755Y0123625D02*
D03*
X00525Y012425D02*
D03*
X0061Y012025D02*
D03*
X00615Y0120775D02*
D03*
X0063375Y01228D02*
D03*
X00626892Y012325D02*
D03*
X0061Y01215D02*
D03*
X00612499Y012225D02*
D03*
X00639999Y012325D02*
D03*
X0062Y012275D02*
D03*
X0009525Y0120775D02*
D03*
X003955Y0114D02*
D03*
X01036Y011985D02*
D03*
X01008Y011805D02*
D03*
X00275Y012005D02*
D03*
X00247Y01181D02*
D03*
X002755Y01143D02*
D03*
X00213Y012005D02*
D03*
X00185Y011805D02*
D03*
X002155Y01143D02*
D03*
X00152Y0119975D02*
D03*
X00124Y0117975D02*
D03*
X001525Y0114225D02*
D03*
X00307Y011805D02*
D03*
X0086Y0109021D02*
D03*
X006595Y01163D02*
D03*
X0081Y011105D02*
D03*
X008225D02*
D03*
X007975Y01105D02*
D03*
X00785D02*
D03*
X008725Y010975D02*
D03*
X0062Y011585D02*
D03*
X006335D02*
D03*
X00885Y01096D02*
D03*
X008975Y01095D02*
D03*
X00505Y012065D02*
D03*
X01093Y01198D02*
D03*
X005155Y011415D02*
D03*
X010955Y01141D02*
D03*
X01065Y011795D02*
D03*
X004895D02*
D03*
X00733085Y00735D02*
D03*
X0072804Y00764506D02*
D03*
X0055Y00962722D02*
D03*
X00711785Y00839265D02*
D03*
X0085233Y0085242D02*
D03*
X00825558Y00853192D02*
D03*
X00890086Y0077495D02*
D03*
X00756589Y00752286D02*
D03*
X01120902Y00780866D02*
D03*
X0103075Y0077575D02*
D03*
X00425016Y00855104D02*
D03*
X00322771Y00566771D02*
D03*
X0020308Y0056508D02*
D03*
X011435Y00809402D02*
D03*
X0114325Y00803833D02*
D03*
X0087163Y0085987D02*
D03*
X009025Y00866795D02*
D03*
Y0087275D02*
D03*
X00362482Y00865947D02*
D03*
X00371518Y00900518D02*
D03*
X0034725Y00892806D02*
D03*
X01001Y0088D02*
D03*
Y00886118D02*
D03*
X0080625Y00894572D02*
D03*
X00806039Y00888017D02*
D03*
X01000549Y00904268D02*
D03*
X00992349Y008975D02*
D03*
X0088484Y0091234D02*
D03*
X0116125Y00749D02*
D03*
X01159307Y00734259D02*
D03*
X0121175Y007685D02*
D03*
X007205Y00855301D02*
D03*
X0072975Y00873D02*
D03*
X00702876Y00873699D02*
D03*
X00679156Y00859468D02*
D03*
X00685038Y00742692D02*
D03*
X00690534Y00804263D02*
D03*
X00646282Y00810263D02*
D03*
X00577516Y00781412D02*
D03*
X00561632Y00771432D02*
D03*
X00560578Y0079527D02*
D03*
X0052225Y0080332D02*
D03*
X0049125Y00835656D02*
D03*
Y008425D02*
D03*
X0050375Y0080332D02*
D03*
X005165Y0080325D02*
D03*
X004975Y0080332D02*
D03*
X00679033Y00778262D02*
D03*
X0061238Y0084075D02*
D03*
X00612376Y00833624D02*
D03*
X00695214Y0083825D02*
D03*
X00749554Y00868054D02*
D03*
X00733085Y00797415D02*
D03*
X007205Y0080063D02*
D03*
X00736346Y00813924D02*
D03*
X0065405Y00858008D02*
D03*
X0106522Y0080278D02*
D03*
X0105968Y00815D02*
D03*
X01052086Y0082075D02*
D03*
X0105925Y008275D02*
D03*
X00961547Y00826514D02*
D03*
X00997524Y0079119D02*
D03*
X00997Y008D02*
D03*
X01042Y00815D02*
D03*
X0103225Y00820495D02*
D03*
X01023Y0082625D02*
D03*
X0099525Y00814882D02*
D03*
X008835Y008D02*
D03*
X0095288Y00818962D02*
D03*
X00974137Y0081575D02*
D03*
X0087425Y008055D02*
D03*
X00866186Y0081D02*
D03*
X0094775Y00829789D02*
D03*
X009375Y0084175D02*
D03*
Y008525D02*
D03*
X00951964Y00854941D02*
D03*
X00926279Y00856776D02*
D03*
X0086875Y0083925D02*
D03*
X0087675Y00845D02*
D03*
X0085775Y0078875D02*
D03*
X00820926Y00779D02*
D03*
X00793208Y00775966D02*
D03*
X0098013Y0080063D02*
D03*
X00987Y0080675D02*
D03*
X00832358Y00816352D02*
D03*
X00764Y0076725D02*
D03*
X00769802Y007745D02*
D03*
X0077525Y00780656D02*
D03*
X00735076Y00768824D02*
D03*
X00944326Y00788441D02*
D03*
X0093175Y007885D02*
D03*
X00940131Y00774869D02*
D03*
X00929306Y00775966D02*
D03*
X0120975Y0081425D02*
D03*
X0121Y00820782D02*
D03*
X01197558Y00810763D02*
D03*
X0112649Y0079451D02*
D03*
X011165Y0081225D02*
D03*
X01172494Y00755006D02*
D03*
X0123196Y0080571D02*
D03*
X011975Y008D02*
D03*
X01196308Y00778512D02*
D03*
X01185558Y00779762D02*
D03*
X01194054Y0079273D02*
D03*
X01231946Y0081871D02*
D03*
X01127637Y0076068D02*
D03*
X01128948Y00625426D02*
D03*
X0114957Y00667762D02*
D03*
X0119634Y00824988D02*
D03*
X01191696Y00831664D02*
D03*
X01191514Y00817876D02*
D03*
X0094615Y00727498D02*
D03*
X00996076Y00725848D02*
D03*
X00979772Y00750245D02*
D03*
X00977392Y00739323D02*
D03*
X00728756Y00775174D02*
D03*
X00721106Y00781046D02*
D03*
X01117632Y00900668D02*
D03*
X01015492Y0075844D02*
D03*
X01015702Y00768092D02*
D03*
X00329608Y0071797D02*
D03*
X00610362Y008702D02*
D03*
X00391922Y00835656D02*
D03*
X00612775Y00781808D02*
D03*
X00383286Y0073685D02*
D03*
X01014364Y00740914D02*
D03*
X00618744Y0087147D02*
D03*
X00386588Y00842337D02*
D03*
X00608076Y00790444D02*
D03*
X00383286Y00743708D02*
D03*
X00997722Y00734377D02*
D03*
X00660081Y00760726D02*
D03*
X00671576Y00743454D02*
D03*
X0072517Y0074701D02*
D03*
X00718566Y00753122D02*
D03*
X00718379Y00742117D02*
D03*
X0072517Y00757678D02*
D03*
X00707644Y00804632D02*
D03*
X00651256Y00752894D02*
D03*
X0069715Y00742692D02*
D03*
X00825558Y00874322D02*
D03*
X00845312Y00764282D02*
D03*
X00827532Y00712466D02*
D03*
X00792884Y00706116D02*
D03*
X00789178Y00712466D02*
D03*
X00788924Y00699313D02*
D03*
X00496062Y00881884D02*
D03*
X00484124Y00864104D02*
D03*
X0048387Y00869692D02*
D03*
X00401113Y00775679D02*
D03*
X00423418Y00836926D02*
D03*
X00394462Y00822956D02*
D03*
X00416814Y00844038D02*
D03*
X00383032Y00822956D02*
D03*
X00348234Y00816606D02*
D03*
X00451104Y0079273D02*
D03*
X00454406Y00763254D02*
D03*
X00451104Y00769754D02*
D03*
X00454406Y00776254D02*
D03*
X00326164Y00816606D02*
D03*
X00594464Y0085735D02*
D03*
X005278Y00894572D02*
D03*
X00199586Y00864162D02*
D03*
X00199516Y00822322D02*
D03*
X00191122Y00712607D02*
D03*
X00585216Y00850134D02*
D03*
X00457868Y00904585D02*
D03*
X00554228Y00789174D02*
D03*
X00157734Y00700274D02*
D03*
X00147066Y00817079D02*
D03*
X00584962Y00836164D02*
D03*
X00458216Y00891536D02*
D03*
X00554228Y00778252D02*
D03*
X00165354Y0071272D02*
D03*
X001651Y00806446D02*
D03*
X00583438Y00843276D02*
D03*
X00559816Y00783586D02*
D03*
X00465398Y00898648D02*
D03*
X0016129Y0070675D02*
D03*
X00155448Y00811526D02*
D03*
X00318008Y00847848D02*
D03*
X0063881Y00894114D02*
D03*
X00593598Y0087613D02*
D03*
X00553466Y00814766D02*
D03*
X00553466Y0086385D02*
D03*
X0055499Y00876804D02*
D03*
X00210262Y00760336D02*
D03*
X00219588Y0083718D02*
D03*
X00174208Y00732571D02*
D03*
X00473456Y00731102D02*
D03*
Y00736596D02*
D03*
X00498602Y00729484D02*
D03*
X00560832Y0076206D02*
D03*
X00554228Y00755646D02*
D03*
X00561086Y00749804D02*
D03*
X00554228Y00743962D02*
D03*
X00344132Y0087271D02*
D03*
X00626872Y00750566D02*
D03*
X003175Y00721102D02*
D03*
X00348694Y00742117D02*
D03*
X00638302Y00742692D02*
D03*
X00658114Y0082321D02*
D03*
X0060833Y0075844D02*
D03*
X00582676Y00802382D02*
D03*
X00596392Y00754884D02*
D03*
X00588296Y00755071D02*
D03*
X00974539Y00877684D02*
D03*
X00417576Y00757932D02*
D03*
X00533446Y00744516D02*
D03*
X00477577Y00845365D02*
D03*
X00629412Y0086766D02*
D03*
X0038227Y00763266D02*
D03*
X00382016Y00770632D02*
D03*
X00366644Y00737319D02*
D03*
X00445628Y00834782D02*
D03*
X00435102Y00835656D02*
D03*
X00640334Y00725206D02*
D03*
X00658368Y00832354D02*
D03*
X00639318Y00872994D02*
D03*
X00644398Y00858008D02*
D03*
X0060198Y00867456D02*
D03*
X01245292Y008563D02*
D03*
X01193546Y00862326D02*
D03*
X01220182Y0086236D02*
D03*
X0125668Y00759598D02*
D03*
X01229614Y00740406D02*
D03*
X01107186Y00761488D02*
D03*
X01106932Y00755646D02*
D03*
X01100021Y00900172D02*
D03*
X01100154Y00905674D02*
D03*
X01061894Y00840054D02*
D03*
X01041146Y00848864D02*
D03*
X01081024Y00861818D02*
D03*
X01020826Y00955798D02*
D03*
X005536Y00898274D02*
D03*
X00734254Y00900862D02*
D03*
X00740854Y00947734D02*
D03*
X00792014Y00997212D02*
D03*
X00789686Y00955544D02*
D03*
X00837244Y01053528D02*
D03*
X00854202Y01012434D02*
D03*
X00912864Y00995688D02*
D03*
X0090678Y00955544D02*
D03*
X01009513Y00904776D02*
D03*
X00955321Y01054831D02*
D03*
X00973248Y01012434D02*
D03*
X011329Y00962916D02*
D03*
X01076972Y01053068D02*
D03*
X01093712Y01011678D02*
D03*
X0052278Y0093797D02*
D03*
X00758698Y00660396D02*
D03*
X00758444Y00678346D02*
D03*
X00439518Y0071272D02*
D03*
X01083056Y00566416D02*
D03*
X01093712Y00608338D02*
D03*
X0112701Y0074118D02*
D03*
X0096266Y00566416D02*
D03*
X00972636Y00608396D02*
D03*
X01007333Y00625567D02*
D03*
X01016054Y00666438D02*
D03*
X01082294Y0069875D02*
D03*
X01067562Y00708656D02*
D03*
X01056386Y0070747D02*
D03*
X01035558Y00717546D02*
D03*
X01026139Y0069875D02*
D03*
X0109601Y00736596D02*
D03*
X01090168Y00744978D02*
D03*
X0088728Y00624132D02*
D03*
X00902692Y00664968D02*
D03*
X00842934Y00567016D02*
D03*
X00853074Y00607972D02*
D03*
X0054483Y00718642D02*
D03*
X00727456Y00719212D02*
D03*
X00763374Y00625592D02*
D03*
X00786748Y00663808D02*
D03*
X00734956Y00667374D02*
D03*
X00557786Y0066196D02*
D03*
X0099568Y00767076D02*
D03*
X00995426Y0076098D02*
D03*
X00174244Y00725928D02*
D03*
X00808228Y00729992D02*
D03*
Y00724404D02*
D03*
X00905256Y00733643D02*
D03*
Y00739323D02*
D03*
X00960036Y00710858D02*
D03*
X00986482Y00708402D02*
D03*
X01011482Y00708656D02*
D03*
X00916828Y00735622D02*
D03*
X0090424Y0075082D02*
D03*
X00888559Y00708215D02*
D03*
X00738803Y00557028D02*
D03*
X00747054Y00577562D02*
D03*
X01120843Y00675756D02*
D03*
X01113294Y0065456D02*
D03*
X01000447Y00675814D02*
D03*
X00992898Y00654618D02*
D03*
X01098535Y00556862D02*
D03*
X01106786Y00577396D02*
D03*
X00978833Y00557003D02*
D03*
X00987084Y00577537D02*
D03*
X00857935Y0055655D02*
D03*
X00866186Y00577084D02*
D03*
X01181295Y01065138D02*
D03*
X0115169Y0099772D02*
D03*
X01173746Y01043942D02*
D03*
X00772414Y00925318D02*
D03*
X01114298Y00881122D02*
D03*
X00987277Y0086341D02*
D03*
X00926135Y00909067D02*
D03*
X00974739Y0084678D02*
D03*
X00999739Y00846954D02*
D03*
X00912013Y00874412D02*
D03*
X00897911Y00890806D02*
D03*
X01009375Y0089778D02*
D03*
X01043241Y00891776D02*
D03*
X00974539Y00888606D02*
D03*
X00931418Y00719466D02*
D03*
X01048654Y00755138D02*
D03*
X01014364Y00734056D02*
D03*
X00880721Y0067539D02*
D03*
X00873172Y00654194D02*
D03*
X00918619Y00945908D02*
D03*
X0092687Y00966442D02*
D03*
X00941467Y01064252D02*
D03*
X00933216Y01043718D02*
D03*
X00821036Y01064733D02*
D03*
X00812785Y01044199D02*
D03*
X00675124Y00728716D02*
D03*
X00626573Y0065142D02*
D03*
X00606039Y00659671D02*
D03*
X01061093Y01064878D02*
D03*
X01031488Y0099746D02*
D03*
X01053544Y01043682D02*
D03*
X00799457Y00945016D02*
D03*
X00807006Y00966212D02*
D03*
X01039185Y00945016D02*
D03*
X01046734Y00966212D02*
D03*
X00653829Y00965796D02*
D03*
X00675025Y00958247D02*
D03*
X00605216Y00892217D02*
D03*
X00263144Y00661412D02*
D03*
X00021396Y00721924D02*
D03*
X0002921Y00664968D02*
D03*
X00125222Y00675636D02*
D03*
X00411226Y00723134D02*
D03*
X00425704Y007065D02*
D03*
X00481632Y00715562D02*
D03*
X00472327Y00756754D02*
D03*
X0046437Y00750254D02*
D03*
X00377498Y00711958D02*
D03*
X00352498Y00712012D02*
D03*
X00375158Y00664714D02*
D03*
X00442408Y00564698D02*
D03*
X00506476Y00659754D02*
D03*
X00378968Y00892806D02*
D03*
X00379106Y00899802D02*
D03*
X00412834Y00886802D02*
D03*
X00347Y00899D02*
D03*
X0035687Y00858436D02*
D03*
X00369332Y0084198D02*
D03*
X00344332Y00841806D02*
D03*
X0027135Y00869868D02*
D03*
X00271504Y00864162D02*
D03*
X00295872Y00851802D02*
D03*
X00233172Y0084607D02*
D03*
X00295729Y00904093D02*
D03*
X00281606Y00869438D02*
D03*
X00252984Y00901835D02*
D03*
X00344132Y00883632D02*
D03*
X00267504Y00885832D02*
D03*
X0036576Y00764282D02*
D03*
Y00770124D02*
D03*
X00364998Y00728642D02*
D03*
X00348694Y00753039D02*
D03*
X00181096Y0088036D02*
D03*
Y00874898D02*
D03*
X0027559Y0072796D02*
D03*
Y00733643D02*
D03*
X0025019Y007051D02*
D03*
X0030226Y0077876D02*
D03*
X0026797Y0078638D02*
D03*
X0028575Y00738416D02*
D03*
X0030034Y0072226D02*
D03*
X00275232Y0075336D02*
D03*
X00458695Y00557003D02*
D03*
X00486222Y00624237D02*
D03*
X00466946Y00577897D02*
D03*
X00365766Y00624237D02*
D03*
X0034649Y00577897D02*
D03*
X00217395Y00556078D02*
D03*
X00244922Y00623312D02*
D03*
X00225646Y00576972D02*
D03*
X00480905Y00675242D02*
D03*
X00451866Y00607434D02*
D03*
X00472654Y0065519D02*
D03*
X00361017Y00675628D02*
D03*
X00331978Y0060782D02*
D03*
X00352766Y00655576D02*
D03*
X00138674Y00762719D02*
D03*
X00423904Y01066774D02*
D03*
X00435932Y01055246D02*
D03*
X00104886Y00653258D02*
D03*
X00084834Y00661508D02*
D03*
X00241577Y0067408D02*
D03*
X00233326Y00654028D02*
D03*
X00212538Y00606272D02*
D03*
X00338239Y0055404D02*
D03*
X00098777Y00556078D02*
D03*
X00126304Y00623312D02*
D03*
X00107028Y00576972D02*
D03*
X0052832Y00874264D02*
D03*
X00020126Y00951794D02*
D03*
X00032512Y00897378D02*
D03*
X00414166Y01043174D02*
D03*
X00286814Y0096672D02*
D03*
X00316908Y01055366D02*
D03*
X005338Y01043222D02*
D03*
X00407718Y00965756D02*
D03*
X00292814Y01043936D02*
D03*
X0016641Y00965954D02*
D03*
X00187198Y0101371D02*
D03*
X00171924Y01043546D02*
D03*
X00082042Y00891644D02*
D03*
X00395158Y00997206D02*
D03*
X00371542Y00958846D02*
D03*
X00196656Y010581D02*
D03*
X00152648Y00997206D02*
D03*
X00131826Y00962402D02*
D03*
X00426214Y01012492D02*
D03*
X00272542Y00998724D02*
D03*
X00252984Y0096291D02*
D03*
X00511744Y00997D02*
D03*
X00492954Y00962196D02*
D03*
X00306748Y01013964D02*
D03*
X00144892Y00914396D02*
D03*
X00301065Y01065258D02*
D03*
X00541349Y01064418D02*
D03*
X00103534Y00883393D02*
D03*
X00278563Y00946238D02*
D03*
X00399467Y00945222D02*
D03*
X00180175Y0106444D02*
D03*
X00158159Y00945902D02*
D03*
X00779Y00087D02*
D03*
X01169Y0012D02*
D03*
X01179998Y00156D02*
D03*
X00238Y003D02*
D03*
X00142Y00126D02*
D03*
X010715Y002045D02*
D03*
X00926Y00302D02*
D03*
X00347775Y00323D02*
D03*
X00693Y00372D02*
D03*
X00644392Y00395553D02*
D03*
X00522882Y00385D02*
D03*
X0068Y00370641D02*
D03*
X00145Y00157D02*
D03*
X00773Y00313237D02*
D03*
X00557Y00408D02*
D03*
X00632Y00313237D02*
D03*
X0063Y00346D02*
D03*
X00641Y00345144D02*
D03*
X00875Y0030875D02*
D03*
X00895Y00342501D02*
D03*
X00987655Y00339945D02*
D03*
X00852421Y00314D02*
D03*
X00851Y00306D02*
D03*
X00858Y0032D02*
D03*
X00400722Y00066311D02*
D03*
X00154Y0014D02*
D03*
X00622Y00347491D02*
D03*
X00596449Y00278354D02*
D03*
X01197Y0030875D02*
D03*
X0094002Y0021781D02*
D03*
X00932001Y00216999D02*
D03*
X00949Y00216851D02*
D03*
X00917004Y00181D02*
D03*
X00925D02*
D03*
X00926586Y00242648D02*
D03*
X00933017D02*
D03*
X00925295Y00156D02*
D03*
X009Y00168429D02*
D03*
X01000746Y0046D02*
D03*
X00762624Y00259024D02*
D03*
X00340525Y00169525D02*
D03*
X00380525Y00168429D02*
D03*
X00641036Y00128334D02*
D03*
X00389586Y0023826D02*
D03*
X00385Y00242D02*
D03*
X00177858Y0017854D02*
D03*
X001525Y00156D02*
D03*
X002075Y00154D02*
D03*
Y00139D02*
D03*
X00171Y001025D02*
D03*
X01054Y00307D02*
D03*
X00465Y0029125D02*
D03*
X004725Y003575D02*
D03*
X01125Y00326D02*
D03*
X01094Y00311D02*
D03*
X01012Y00319D02*
D03*
X00841472Y00382472D02*
D03*
X00918Y00385D02*
D03*
X01105Y00336D02*
D03*
X01096928Y00332928D02*
D03*
X01112856Y00133856D02*
D03*
X01118998Y00129D02*
D03*
X0086Y0021132D02*
D03*
X00848806Y0023333D02*
D03*
X00856484Y00195152D02*
D03*
X00821Y00264D02*
D03*
X00832Y0026032D02*
D03*
X00782144Y00317144D02*
D03*
X00803Y00322449D02*
D03*
X00829Y00166D02*
D03*
X00729Y00157955D02*
D03*
X00757006Y001695D02*
D03*
X00838522Y00176D02*
D03*
X0085Y00182465D02*
D03*
X00868856Y00205D02*
D03*
X00925Y00252443D02*
D03*
X00514Y004425D02*
D03*
X00541Y004725D02*
D03*
X00328Y00305D02*
D03*
X00744262Y00025514D02*
D03*
X00196Y001295D02*
D03*
X00198Y00183D02*
D03*
X00579999Y00025D02*
D03*
X00575999Y00032D02*
D03*
X00700906Y00105406D02*
D03*
X00692999Y00108D02*
D03*
X00746Y00201737D02*
D03*
X00746393Y00130501D02*
D03*
X01107Y00095D02*
D03*
X00746Y00209334D02*
D03*
X00737Y00135D02*
D03*
X01127334Y00089D02*
D03*
X011925Y00102D02*
D03*
X00724Y00174334D02*
D03*
X00644Y00154D02*
D03*
X00781Y00215D02*
D03*
X0083Y002D02*
D03*
X00881352Y00258648D02*
D03*
X00685Y00213D02*
D03*
X01134099Y00109967D02*
D03*
X01076Y00144313D02*
D03*
X01077Y00131513D02*
D03*
X01061Y00117D02*
D03*
X01063793Y00158334D02*
D03*
X00587Y00123D02*
D03*
X00678819Y00409181D02*
D03*
X00693Y00423151D02*
D03*
X00682Y00428485D02*
D03*
X00675931Y00434D02*
D03*
X00606Y00134D02*
D03*
X00599Y00129D02*
D03*
X00511Y00185D02*
D03*
X00531Y00183485D02*
D03*
X00545Y00183D02*
D03*
X00546Y00175D02*
D03*
X00529999Y00433999D02*
D03*
X00459601Y00455D02*
D03*
X00471Y0047D02*
D03*
X00589Y00375D02*
D03*
X00588Y0039D02*
D03*
X00785Y00485D02*
D03*
X00841Y00395553D02*
D03*
X0084Y00433D02*
D03*
X0080178Y0043922D02*
D03*
X00828Y00439D02*
D03*
X00084Y00218D02*
D03*
Y00233D02*
D03*
X00581Y00426D02*
D03*
X00684Y00416D02*
D03*
X00763Y00425D02*
D03*
X01142037Y00437D02*
D03*
X00704331Y00308D02*
D03*
X00668501Y00351D02*
D03*
X00802Y00277075D02*
D03*
X00767689Y00290794D02*
D03*
X00668495Y00360186D02*
D03*
X006191Y00367D02*
D03*
X00616Y00322449D02*
D03*
X00624Y0031858D02*
D03*
X00644392Y00389392D02*
D03*
X0061Y00397D02*
D03*
X00635607Y00434D02*
D03*
X0062943Y0042957D02*
D03*
X00549Y00413653D02*
D03*
X00575312Y00397651D02*
D03*
X00566Y00402985D02*
D03*
X00381Y0031081D02*
D03*
X00386Y00304D02*
D03*
X0026875Y0021906D02*
D03*
X0026138Y0023062D02*
D03*
X00739Y00042D02*
D03*
X008855Y00046186D02*
D03*
X0092023Y00039252D02*
D03*
X00183Y00208D02*
D03*
X0018375Y0045025D02*
D03*
X00367485Y00249D02*
D03*
X0035D02*
D03*
X00362Y00219D02*
D03*
X00316999Y00257999D02*
D03*
X00322Y00268206D02*
D03*
X00388Y0022D02*
D03*
X00382Y00233D02*
D03*
X0035Y0027375D02*
D03*
X00368Y00272D02*
D03*
X00352Y00266D02*
D03*
X0034275Y0029475D02*
D03*
X00256Y00478D02*
D03*
X00263Y00484D02*
D03*
X00274Y00486D02*
D03*
X0032Y00285D02*
D03*
X00452Y00278D02*
D03*
X00447999Y00294999D02*
D03*
X00436Y00289D02*
D03*
X00253Y00215D02*
D03*
X00266Y00434D02*
D03*
X0025875Y00439501D02*
D03*
X00247Y00442D02*
D03*
X0019625Y00450328D02*
D03*
X0028375Y00451142D02*
D03*
X0029625Y00450892D02*
D03*
X0030625Y00475243D02*
D03*
X0029375Y0047575D02*
D03*
X0020625Y0047675D02*
D03*
X0019375Y0047675D02*
D03*
X0041Y00179333D02*
D03*
X00499Y00266105D02*
D03*
X00483758Y00266559D02*
D03*
X00444971Y00215D02*
D03*
X00491Y00266343D02*
D03*
X00355Y00225D02*
D03*
X00349Y00235D02*
D03*
X00340775Y00203D02*
D03*
X00349694Y00218D02*
D03*
X00357275Y00182D02*
D03*
X00428Y00285428D02*
D03*
X00381791Y00275209D02*
D03*
X00689727Y00294D02*
D03*
X00696Y00282D02*
D03*
X00678Y00285D02*
D03*
X00684Y00281D02*
D03*
X005995Y00285001D02*
D03*
X00555Y00255D02*
D03*
X0055962Y00261D02*
D03*
X0047354Y0024954D02*
D03*
X00547524D02*
D03*
X0046765Y0025335D02*
D03*
X00459351Y00259D02*
D03*
X00600999Y00251D02*
D03*
X0060227Y00257857D02*
D03*
X00389Y00268D02*
D03*
X00404Y00274648D02*
D03*
X00407Y00262D02*
D03*
X00413999Y00203D02*
D03*
X00421Y00205D02*
D03*
X00918592Y00326D02*
D03*
X00927Y00330201D02*
D03*
X00302Y0033125D02*
D03*
X0027Y00303942D02*
D03*
X00389791Y0027625D02*
D03*
X00892998Y00281999D02*
D03*
X00365Y00304D02*
D03*
X00965Y00266648D02*
D03*
X01045Y00311D02*
D03*
X00948482Y0044328D02*
D03*
X00998Y0031D02*
D03*
X00916Y00252D02*
D03*
X00886Y00209D02*
D03*
X00902Y00208D02*
D03*
X01049Y00202D02*
D03*
X00959Y00176D02*
D03*
X01034Y00317D02*
D03*
X00986Y00313D02*
D03*
X00920482Y0044328D02*
D03*
X01041993Y00197334D02*
D03*
X00967Y00173D02*
D03*
X00856Y00247698D02*
D03*
X00894Y00204D02*
D03*
X00873799Y00198D02*
D03*
X01002334Y00209334D02*
D03*
X01021653Y00208D02*
D03*
X01008463Y00223D02*
D03*
X00990436Y00223135D02*
D03*
X00948Y0027625D02*
D03*
X00875054Y00274648D02*
D03*
X01122Y00119D02*
D03*
X01119Y00148D02*
D03*
X01011998Y00186D02*
D03*
X00984Y00183D02*
D03*
X00906998Y00274D02*
D03*
X00923925Y00278074D02*
D03*
X00913998Y00259D02*
D03*
X00448Y00051D02*
D03*
X00514Y00053D02*
D03*
X00499999Y00063D02*
D03*
X00592999Y00106D02*
D03*
X0061907Y0009807D02*
D03*
X00745Y00035D02*
D03*
X00691Y00124147D02*
D03*
X00844608Y00146653D02*
D03*
X00916426Y00277075D02*
D03*
X00906352Y00226648D02*
D03*
X00907Y00234D02*
D03*
X00965352Y00274648D02*
D03*
X00218Y00208D02*
D03*
X00305458Y00249648D02*
D03*
X00438Y00229D02*
D03*
X00366025Y00181D02*
D03*
X00703Y0028625D02*
D03*
X00571999Y00217D02*
D03*
X00613999Y00202D02*
D03*
X0063365Y00207316D02*
D03*
X005825Y00267001D02*
D03*
X00665999Y00204D02*
D03*
X00657669Y00205D02*
D03*
X00674999Y00197D02*
D03*
X00691Y00193D02*
D03*
X00699Y00194D02*
D03*
X00660591Y00283D02*
D03*
X00679Y0024721D02*
D03*
X00689845Y00236542D02*
D03*
X0064635Y0024D02*
D03*
X00654Y00238D02*
D03*
X00637D02*
D03*
X00626999Y00235999D02*
D03*
X006265Y002445D02*
D03*
X0069715Y0021968D02*
D03*
X00583Y0021953D02*
D03*
X00697165Y00260306D02*
D03*
X002305Y00264501D02*
D03*
X0017375Y00238D02*
D03*
Y0022125D02*
D03*
X001745Y0025625D02*
D03*
X0017375Y0027375D02*
D03*
X0017425Y0029125D02*
D03*
X0017375Y0030875D02*
D03*
X004915Y001115D02*
D03*
X008855Y001125D02*
D03*
X0083Y00124147D02*
D03*
X00547411Y00124147D02*
D03*
X005045Y000395D02*
D03*
X00363Y00043D02*
D03*
X0042575Y00076D02*
D03*
X00426Y00066D02*
D03*
X00425Y00086D02*
D03*
X00433Y00051D02*
D03*
X0044D02*
D03*
X003725Y000155D02*
D03*
X005315Y000155D02*
D03*
X00414Y00112D02*
D03*
X00624999Y00124D02*
D03*
X00838Y00034D02*
D03*
X00847Y00026D02*
D03*
X00596999Y00161D02*
D03*
X00608392Y00159D02*
D03*
X00621Y0015319D02*
D03*
X00614Y00165D02*
D03*
X00632Y00158D02*
D03*
X00596284Y00170494D02*
D03*
X00178Y00124D02*
D03*
X0017025Y00127D02*
D03*
X00171Y00181D02*
D03*
X00156Y00193D02*
D03*
X00778413Y00032752D02*
D03*
X00778166Y00046D02*
D03*
X00863Y00048876D02*
D03*
X00779444Y00102556D02*
D03*
X007835Y001085D02*
D03*
X00627Y00169D02*
D03*
X00632278Y00124D02*
D03*
X00651582Y00125D02*
D03*
X01057667Y00391334D02*
D03*
X01071476Y00395553D02*
D03*
X0107681Y0037D02*
D03*
X01107Y00435798D02*
D03*
X01047Y00456D02*
D03*
X0105Y0049D02*
D03*
X01124Y0036D02*
D03*
X0103Y00099D02*
D03*
X01035943Y00103943D02*
D03*
X0104219Y00098D02*
D03*
X01048Y00104D02*
D03*
X01033Y00153D02*
D03*
X01029Y00117D02*
D03*
X00907Y00266D02*
D03*
X00970852Y00289648D02*
D03*
X01034Y00274D02*
D03*
X01040941Y00259648D02*
D03*
X010665Y00265D02*
D03*
X01083Y00256D02*
D03*
X00906132Y00250648D02*
D03*
X0092075Y002185D02*
D03*
X01017Y00452D02*
D03*
X0090481Y00437D02*
D03*
X00907873Y00471063D02*
D03*
X0093688Y00461493D02*
D03*
X0093681Y00472D02*
D03*
X00399971Y00086811D02*
D03*
X00781722Y00065252D02*
D03*
X00807Y00064941D02*
D03*
Y00079D02*
D03*
X01080972Y00487046D02*
D03*
X01098472Y00487322D02*
D03*
X01133473Y00488322D02*
D03*
X01150972Y00487878D02*
D03*
X00438Y00092059D02*
D03*
X00444971D02*
D03*
X00819Y00091D02*
D03*
X00825971D02*
D03*
X0114625Y00066561D02*
D03*
Y0007375D02*
D03*
X0104625Y00066311D02*
D03*
Y00073781D02*
D03*
X011075Y00047D02*
D03*
X00928Y00012D02*
D03*
X01115972Y00487822D02*
D03*
X01063Y00487322D02*
D03*
D125*
X01173196Y011405D02*
D03*
X00532196Y0114D02*
D03*
X00112196D02*
D03*
X00559816Y00955544D02*
D03*
X007205Y00895D02*
D03*
X0072Y00665D02*
D03*
X00559816Y00725D02*
D03*
X0004Y00955D02*
D03*
Y00725D02*
D03*
X005305Y00985D02*
D03*
X001105D02*
D03*
X0117025D02*
D03*
X0075025D02*
D03*
X0116975Y00635D02*
D03*
X0074975D02*
D03*
X0011D02*
D03*
X0053D02*
D03*
D126*
X0096Y01155D02*
D03*
X009Y0117775D02*
D03*
X0114Y01155D02*
D03*
X0108Y01155D02*
D03*
X010205Y0115425D02*
D03*
X007825Y0117675D02*
D03*
X00575Y012325D02*
D03*
X005Y01155D02*
D03*
X004405D02*
D03*
X0038Y0115325D02*
D03*
X0032Y011555D02*
D03*
X0026D02*
D03*
X002Y011555D02*
D03*
X00137Y011555D02*
D03*
X0005875Y01228D02*
D03*
X008425Y0117675D02*
D03*
X007025Y01231674D02*
D03*
X0122Y012325D02*
D03*
X0095891Y00592896D02*
D03*
X00959071Y01028001D02*
D03*
X00380178Y00981706D02*
D03*
X00378714Y00639737D02*
D03*
X01019048Y00641067D02*
D03*
X01019556Y0098196D02*
D03*
X00499812Y009815D02*
D03*
X00438658Y00590162D02*
D03*
X00898821Y00640578D02*
D03*
X00901252Y00980188D02*
D03*
X00320802Y01028696D02*
D03*
X00319021Y00590548D02*
D03*
X01079306Y00592838D02*
D03*
X01080722Y01027934D02*
D03*
X00439682Y01029286D02*
D03*
X0049917Y00639737D02*
D03*
X00839184Y00592472D02*
D03*
X00730504Y00926588D02*
D03*
X00023876Y00925572D02*
D03*
X0025787Y00638812D02*
D03*
X00731206Y00693918D02*
D03*
X00840994Y01027934D02*
D03*
X00258826Y009828D02*
D03*
X00025146Y00695702D02*
D03*
X0113875Y00640926D02*
D03*
X0054864Y0069257D02*
D03*
X00780348Y00981712D02*
D03*
X00200406Y01030982D02*
D03*
X00139252Y00638812D02*
D03*
X01139758Y0098222D02*
D03*
X00779018Y00641092D02*
D03*
X0054985Y0092472D02*
D03*
X001397Y00981706D02*
D03*
X0019933Y00589D02*
D03*
D127*
X009235Y01107D02*
D03*
X00759D02*
D03*
X009808Y00376291D02*
D03*
Y00350891D02*
D03*
X009554Y00376291D02*
D03*
Y00350891D02*
D03*
X0093Y00376291D02*
D03*
Y00350891D02*
D03*
X009046Y00376291D02*
D03*
Y00350891D02*
D03*
X008792Y00376291D02*
D03*
Y00350891D02*
D03*
X008538Y00376291D02*
D03*
Y00350891D02*
D03*
X008284Y00376291D02*
D03*
Y00350891D02*
D03*
X00803Y00376291D02*
D03*
Y00350891D02*
D03*
X007776Y00376291D02*
D03*
Y00350891D02*
D03*
X007522Y00376291D02*
D03*
X003318Y00375878D02*
D03*
X003826D02*
D03*
X00408D02*
D03*
X004334D02*
D03*
X004588D02*
D03*
X004842D02*
D03*
X005096D02*
D03*
X00535D02*
D03*
X003572D02*
D03*
X002454Y00376291D02*
D03*
Y00350891D02*
D03*
X0022Y00376291D02*
D03*
Y00350891D02*
D03*
X001946Y00376291D02*
D03*
X010544Y003764D02*
D03*
Y00351D02*
D03*
X01029Y003764D02*
D03*
X011076Y0037565D02*
D03*
X01133Y0035025D02*
D03*
Y0037565D02*
D03*
X011584Y0035025D02*
D03*
Y0037565D02*
D03*
X008235Y00481D02*
D03*
X00759D02*
D03*
X0034475Y00074D02*
D03*
X0025525D02*
D03*
X009905D02*
D03*
X00901D02*
D03*
X0015775Y00466D02*
D03*
X0032225D02*
D03*
X0033225Y00481D02*
D03*
X0016775D02*
D03*
X01221Y0018775D02*
D03*
Y0035225D02*
D03*
X00059D02*
D03*
Y0018775D02*
D03*
X0100775Y00059D02*
D03*
X0117225D02*
D03*
X00189Y00074D02*
D03*
X001245D02*
D03*
X01206Y0019725D02*
D03*
Y0013275D02*
D03*
Y0040725D02*
D03*
Y0034275D02*
D03*
X00074Y0013275D02*
D03*
Y0019725D02*
D03*
Y0034275D02*
D03*
Y0040725D02*
D03*
X007715Y00466D02*
D03*
X00836D02*
D03*
X004432Y00466D02*
D03*
X005077D02*
D03*
X005205Y00481D02*
D03*
X00456D02*
D03*
D128*
X0006Y011475D02*
D03*
X0122D02*
D03*
X007D02*
D03*
X0058D02*
D03*
X007Y006075D02*
D03*
Y010125D02*
D03*
X0058D02*
D03*
Y006075D02*
D03*
X0006D02*
D03*
Y010125D02*
D03*
X0122Y006075D02*
D03*
Y010125D02*
D03*
X0058Y000675D02*
D03*
Y004725D02*
D03*
X007Y000675D02*
D03*
Y004725D02*
D03*
X0122D02*
D03*
Y000675D02*
D03*
X00053Y004725D02*
D03*
X0006Y000675D02*
D03*
D129*
X01213228Y00934752D02*
D03*
X01216568Y00697638D02*
D03*
D130*
X01187828Y00960152D02*
D03*
Y00909352D02*
D03*
X01238628D02*
D03*
Y00960152D02*
D03*
X01191168Y00723038D02*
D03*
Y00672238D02*
D03*
X01241968D02*
D03*
Y00723038D02*
D03*
D131*
X006908Y0078D02*
D03*
X005892D02*
D03*
X0056695Y0024D02*
D03*
X0071305D02*
D03*
D132*
X007522Y00350891D02*
D03*
X003064Y00375878D02*
D03*
X001946Y00350891D02*
D03*
X01029Y00351D02*
D03*
X011076Y0035025D02*
D03*
D134*
X0112599Y002904D02*
D03*
D135*
Y00265D02*
D03*
Y002396D02*
D03*
X0115901Y002904D02*
D03*
Y00265D02*
D03*
Y002396D02*
D03*
D136*
X00974739Y00842886D02*
D03*
X00999739D02*
D03*
X00344332Y00837912D02*
D03*
X00369332D02*
D03*
X00352492Y00707386D02*
D03*
X00377492D02*
D03*
X00986482Y00705608D02*
D03*
X01011482D02*
D03*
D137*
X00926279Y0088624D02*
D03*
Y0087974D02*
D03*
Y0087324D02*
D03*
Y0086674D02*
D03*
X00886779Y0088624D02*
D03*
Y0087974D02*
D03*
Y0087324D02*
D03*
Y0086674D02*
D03*
X00295872Y00881266D02*
D03*
Y00874766D02*
D03*
Y00868266D02*
D03*
Y00861766D02*
D03*
X00256372Y00881266D02*
D03*
Y00874766D02*
D03*
Y00868266D02*
D03*
Y00861766D02*
D03*
X0026084Y0073162D02*
D03*
Y0073812D02*
D03*
Y0074462D02*
D03*
Y0075112D02*
D03*
X0030034Y0073162D02*
D03*
Y0073812D02*
D03*
Y0074462D02*
D03*
Y0075112D02*
D03*
X00929516Y00748326D02*
D03*
Y00741826D02*
D03*
Y00735326D02*
D03*
Y00728826D02*
D03*
X00890016Y00748326D02*
D03*
Y00741826D02*
D03*
Y00735326D02*
D03*
Y00728826D02*
D03*
D138*
X0051643Y00821896D02*
D03*
D139*
X0052786Y00815292D02*
D03*
Y00821896D02*
D03*
Y008285D02*
D03*
X00505D02*
D03*
Y00821896D02*
D03*
Y00815292D02*
D03*
D140*
X01212746Y00740886D02*
D03*
X01206246Y00758886D02*
D03*
X01219246D02*
D03*
X01206246Y00740886D02*
D03*
X01219246D02*
D03*
X00649916Y00702092D02*
D03*
X00662916D02*
D03*
X00649916Y00684092D02*
D03*
X00662916D02*
D03*
X00656416Y00702092D02*
D03*
X00631247Y00686295D02*
D03*
X00618247D02*
D03*
X00631247Y00704295D02*
D03*
X00618247D02*
D03*
X00624747Y00686295D02*
D03*
X00630626Y00918841D02*
D03*
X00617626D02*
D03*
X00630626Y00936841D02*
D03*
X00617626D02*
D03*
X00624126Y00918841D02*
D03*
X00649615Y00931623D02*
D03*
X00662615D02*
D03*
X00649615Y00913623D02*
D03*
X00662615D02*
D03*
X00656115Y00931623D02*
D03*
X00101708Y00918268D02*
D03*
X00095208Y00936268D02*
D03*
X00108208D02*
D03*
X00095208Y00918268D02*
D03*
X00108208D02*
D03*
X0010956Y00688132D02*
D03*
X0009656D02*
D03*
X0010956Y00706133D02*
D03*
X0009656D02*
D03*
X0010306Y00688132D02*
D03*
D141*
X01175258Y00880398D02*
D03*
Y00853398D02*
D03*
D142*
X0095516Y00608896D02*
D03*
X0096266Y00576896D02*
D03*
X00962821Y01012001D02*
D03*
X00955321Y01044001D02*
D03*
X00383928Y00965706D02*
D03*
X00376428Y00997706D02*
D03*
X00374964Y00655737D02*
D03*
X00382464Y00623737D02*
D03*
X01015298Y00657067D02*
D03*
X01022798Y00625067D02*
D03*
X01023306Y0096596D02*
D03*
X01015806Y0099796D02*
D03*
X00503562Y009655D02*
D03*
X00496062Y009975D02*
D03*
X00434908Y00606162D02*
D03*
X00442408Y00574162D02*
D03*
X00895071Y00656578D02*
D03*
X00902571Y00624578D02*
D03*
X00905002Y00964188D02*
D03*
X00897502Y00996188D02*
D03*
X00324552Y01012696D02*
D03*
X00317052Y01044696D02*
D03*
X00315271Y00606548D02*
D03*
X00322771Y00574548D02*
D03*
X01075556Y00608838D02*
D03*
X01083056Y00576838D02*
D03*
X01084472Y01011934D02*
D03*
X01076972Y01043934D02*
D03*
X00443432Y01013286D02*
D03*
X00435932Y01045286D02*
D03*
X0049542Y00655737D02*
D03*
X0050292Y00623737D02*
D03*
X00835434Y00608472D02*
D03*
X00842934Y00576472D02*
D03*
X00726754Y00942588D02*
D03*
X00734254Y00910588D02*
D03*
X00027626Y00909572D02*
D03*
X00020126Y00941572D02*
D03*
X0025412Y00654812D02*
D03*
X0026162Y00622812D02*
D03*
X00734956Y00677918D02*
D03*
X00727456Y00709918D02*
D03*
X00844744Y01011934D02*
D03*
X00837244Y01043934D02*
D03*
X00262576Y009668D02*
D03*
X00255076Y009988D02*
D03*
X00028896Y00679702D02*
D03*
X00021396Y00711702D02*
D03*
X01135Y00656926D02*
D03*
X011425Y00624926D02*
D03*
X0055239Y0067657D02*
D03*
X0054489Y0070857D02*
D03*
X00784098Y00965712D02*
D03*
X00776598Y00997712D02*
D03*
X00204156Y01014982D02*
D03*
X00196656Y01046982D02*
D03*
X00135502Y00654812D02*
D03*
X00143002Y00622812D02*
D03*
X01143508Y0096622D02*
D03*
X01136008Y0099822D02*
D03*
X00775268Y00657092D02*
D03*
X00782768Y00625092D02*
D03*
X005461Y0094072D02*
D03*
X005536Y0090872D02*
D03*
X0014345Y00965706D02*
D03*
X0013595Y00997706D02*
D03*
X0019558Y00605D02*
D03*
X0020308Y00573D02*
D03*
D143*
X00691789Y00891747D02*
D03*
Y00958247D02*
D03*
X0069209Y00728716D02*
D03*
Y00662216D02*
D03*
X00587644Y00660929D02*
D03*
Y00727429D02*
D03*
X00588452Y00892217D02*
D03*
Y00958717D02*
D03*
X00067386Y00661508D02*
D03*
Y00728008D02*
D03*
X00066034Y00891644D02*
D03*
Y00958144D02*
D03*
D144*
X01173746Y01027178D02*
D03*
X01107246D02*
D03*
X01106786Y00594362D02*
D03*
X01173286D02*
D03*
X00992898Y00637854D02*
D03*
X00926398D02*
D03*
X00866186Y0059405D02*
D03*
X00932686D02*
D03*
X00873172Y0063743D02*
D03*
X00806672D02*
D03*
X00987084Y00594503D02*
D03*
X01053584D02*
D03*
X01113294Y00637796D02*
D03*
X01046794D02*
D03*
X0092687Y00983408D02*
D03*
X0099337D02*
D03*
X00933216Y01026752D02*
D03*
X00866716D02*
D03*
X00812785Y01027233D02*
D03*
X00746285D02*
D03*
X00747054Y00594528D02*
D03*
X00813554D02*
D03*
X01053544Y01026918D02*
D03*
X00987044D02*
D03*
X00807006Y00982976D02*
D03*
X00873506D02*
D03*
X01046734D02*
D03*
X01113234D02*
D03*
X00352766Y00638128D02*
D03*
X00286266D02*
D03*
X00472654Y00637742D02*
D03*
X00406154D02*
D03*
X00233326Y0063658D02*
D03*
X00166826D02*
D03*
X0034649Y00594503D02*
D03*
X0041299D02*
D03*
X00466946D02*
D03*
X00533446D02*
D03*
X00107028Y00593578D02*
D03*
X00173528D02*
D03*
X00225646D02*
D03*
X00292146D02*
D03*
X00292814Y01027758D02*
D03*
X00226314D02*
D03*
X00414166Y01026664D02*
D03*
X00347666D02*
D03*
X005338Y01026458D02*
D03*
X004673D02*
D03*
X00286814Y00983738D02*
D03*
X00353314D02*
D03*
X00407718Y00982722D02*
D03*
X00474218D02*
D03*
X0016641Y00983402D02*
D03*
X0023291D02*
D03*
X00171924Y0102694D02*
D03*
X00105424D02*
D03*
D145*
X00187942Y0023604D02*
D03*
X00194546D02*
D03*
X00200896D02*
D03*
X002075D02*
D03*
X00214104D02*
D03*
X00220454D02*
D03*
X00227058D02*
D03*
Y0029446D02*
D03*
X00220454D02*
D03*
X00214104D02*
D03*
X002075D02*
D03*
X00200896D02*
D03*
X00194546D02*
D03*
X00187942D02*
D03*
D146*
X0012175Y00191D02*
D03*
X0013125D02*
D03*
X0014075D02*
D03*
Y00167D02*
D03*
X0013125D02*
D03*
X0012175D02*
D03*
X0012275Y00138502D02*
D03*
X0013225D02*
D03*
X0014175D02*
D03*
Y00114502D02*
D03*
X0013225D02*
D03*
X0012275D02*
D03*
D147*
X00612Y00212D02*
D03*
Y002185D02*
D03*
Y00225D02*
D03*
Y002315D02*
D03*
Y00238D02*
D03*
Y002445D02*
D03*
Y00251D02*
D03*
Y002575D02*
D03*
Y00264D02*
D03*
Y002705D02*
D03*
X00668Y00212D02*
D03*
Y002185D02*
D03*
Y00225D02*
D03*
Y002315D02*
D03*
Y00238D02*
D03*
Y002445D02*
D03*
Y00251D02*
D03*
Y002575D02*
D03*
Y00264D02*
D03*
Y002705D02*
D03*
D148*
X01045Y0023725D02*
D03*
X010575D02*
D03*
X010705D02*
D03*
X01083D02*
D03*
Y0029075D02*
D03*
X010575D02*
D03*
X01045D02*
D03*
D149*
X010705Y00288D02*
D03*
D150*
X01153382Y001675D02*
D03*
Y00158D02*
D03*
Y001485D02*
D03*
X01129382D02*
D03*
Y00158D02*
D03*
Y001675D02*
D03*
D151*
X0107808Y00476304D02*
D03*
Y004697D02*
D03*
Y0046335D02*
D03*
Y00456746D02*
D03*
Y00450142D02*
D03*
Y00443792D02*
D03*
Y00437188D02*
D03*
X011365D02*
D03*
Y00443792D02*
D03*
Y00450142D02*
D03*
Y00456746D02*
D03*
Y0046335D02*
D03*
Y004697D02*
D03*
Y00476304D02*
D03*
M02*
