M48
;Layer_Color=9474304
;FILE_FORMAT=4:4
METRIC,LZ
;TYPE=PLATED
T1F00S00C0.3000
T2F00S00C0.8890
T3F00S00C0.9000
;TYPE=NON_PLATED
T4F00S00C3.4000
%
T01
X00016764Y00081026
X00024892Y00080867
X0003429Y0008066
X00011908Y00092426
X00011938Y00106426
X00014808Y0013417
X00012476Y00151964
X00012294Y00165964
X00013462Y00194629
X00012642Y00215196
X00012056Y00229196
X00022352Y00248666
X00061468Y00243078
X00070104Y00218948
X00075184Y0021336
X00061468Y00186436
X00068072Y001524
X00074676Y00142494
X0006096Y00125984
X0006858Y0009398
X00073914Y0008636
X00087198Y00084506
X0011905Y00075708
X0015113Y00076708
X00186182Y00075184
X00171196Y00041148
X0022987Y00046482
X00253746Y0004699
X00254Y00076962
X0025273Y00118954
X00277368Y00116078
X00303904Y00112776
X00330708Y00103505
X0035052Y00103124
X003556Y00108966
X00373126
X0039116Y00125476
X00390144Y00160782
X00382078Y0015678
X0038602Y0017532
X0039402Y00175834
X0034225Y0014924
X00329946Y00136398
X003159Y00152476
X00316069Y00193575
X00292354Y00183439
X00282814Y00173736
X00268478Y00169672
X00262382Y00174244
X00227838Y00207772
X00290696Y0021602
X00265684Y00256032
X00294894Y00293116
X00304978Y00294894
X00320294Y0027432
X00343916Y00261366
X00361696Y00248412
X00389818Y00270644
X00385442Y00276908
X0026035Y0032206
X00186182Y00288036
X00194818Y00273304
X00202438Y00262128
X00167386Y0027432
X0015113Y00277876
X00150368Y00244886
Y00230886
X00125984Y0024765
X001127Y00265506
X000873Y0026449
X00120142Y00184224
X00114554Y00146304
X00155702Y0017399
X00165862Y0017145
X00189738Y00145796
X0022733Y0012319
X00215392Y00098298
X00352806Y0009017
X00357378Y00072644
X00352552Y0006223
X00363474Y00040386
X0037878Y0007017
X00392868Y0005658
X00318262Y00022606
X0040456Y0005658
X0041878Y0006826
X00417627Y00114415
X0042672Y001143
X0043434Y00112776
X00445704Y0012478
X0045702Y00108278
X0044323Y00151384
X00441198Y0015904
X00411782Y0017353
X0040894Y0014605
X00399796Y00145796
X00400304Y00125222
X00409956
X0041802Y0020174
X00402336Y00202946
X00399542Y00226822
X00413512Y00240242
X00423418Y00233254
X00423672Y00251206
X00420624Y00259334
X0042037Y00268224
X00414274Y00286512
X00453647Y00280159
X00469871Y00279371
X00507746Y00269748
X00507238Y00258826
X00520566Y00247008
X00519938Y00235966
X00518788Y00207652
X00527812Y0019939
X00498348Y00193548
X00501598Y00185928
X00498703Y00174498
X00487426Y00182118
X00471424Y00197104
X00482346Y00239014
X00452882Y00242824
X00446532Y00238506
X00442722Y0031369
X00430022Y00319024
X00552196Y00236474
X0057023Y00224282
X0059182Y0021303
Y0020414
Y0019525
Y0017874
Y001635
Y0014699
X0059055Y0013147
X00518922Y00138288
Y00146812
X00527812Y00156464
X0053815Y0017239
X00489966Y00132588
X0048895Y0007841
X00510464
T02
X00332711Y00293116
X00358111
X00383511
Y00326136
X00358111
X00332711
T03
X00128Y00028851
X001534
X001788
X002042
X002296
X00255
X002804
X003058
X003312
X003566
X00382
X00178892Y00305362
Y00330762
X00153492
Y00305362
X00128092
Y00330762
X00458Y003274
X004834
Y00302
X00458
X004582Y00028851
X004836
X004328
X004074
T04
X00052Y0005
Y003
X00552
Y0005
M30
