G04*
G04 #@! TF.GenerationSoftware,Altium Limited,Altium Designer,18.1.9 (240)*
G04*
G04 Layer_Color=128*
%FSLAX44Y44*%
%MOMM*%
G71*
G01*
G75*
%ADD13C,0.2540*%
%ADD19R,0.7000X0.9000*%
%ADD20R,0.9000X0.8000*%
%ADD21R,0.8000X0.9000*%
%ADD22R,0.9000X0.7000*%
%ADD54R,1.5000X8.0000*%
%ADD55R,0.6604X0.2032*%
%ADD56R,0.3500X1.4000*%
D13*
X600000D01*
X0D02*
Y350000D01*
X600000D01*
Y0D02*
Y350000D01*
D19*
X484871Y269240D02*
D03*
X469871D02*
D03*
X453647Y269494D02*
D03*
X438647D02*
D03*
X453724Y257189D02*
D03*
X438724D02*
D03*
X485064Y257048D02*
D03*
X470064D02*
D03*
X402978Y261620D02*
D03*
X387978D02*
D03*
X402822Y248800D02*
D03*
X387822D02*
D03*
X335146Y274574D02*
D03*
X350146D02*
D03*
X334892Y261620D02*
D03*
X349892D02*
D03*
X334638Y248666D02*
D03*
X349638D02*
D03*
X135234Y52984D02*
D03*
X120234D02*
D03*
X134938Y65714D02*
D03*
X119938D02*
D03*
D20*
X391160Y80660D02*
D03*
Y66660D02*
D03*
X405130Y80660D02*
D03*
Y66660D02*
D03*
X527050Y146700D02*
D03*
Y132700D02*
D03*
D21*
X362316Y274828D02*
D03*
X376316D02*
D03*
D22*
X430022Y291814D02*
D03*
Y306814D02*
D03*
X527812Y207652D02*
D03*
Y192652D02*
D03*
D54*
X188798Y121216D02*
D03*
X163398D02*
D03*
X137998D02*
D03*
X112598D02*
D03*
X87198D02*
D03*
X87300Y228900D02*
D03*
X112700D02*
D03*
X138100D02*
D03*
X163500D02*
D03*
X188900D02*
D03*
X315900Y121100D02*
D03*
X290500D02*
D03*
X265100D02*
D03*
X239700D02*
D03*
X214300D02*
D03*
X316069Y228923D02*
D03*
X290669D02*
D03*
X265269D02*
D03*
X239869D02*
D03*
X214469D02*
D03*
D55*
X362601Y265176D02*
D03*
Y261620D02*
D03*
Y258064D02*
D03*
Y254508D02*
D03*
X372761D02*
D03*
Y258064D02*
D03*
Y261620D02*
D03*
Y265176D02*
D03*
D56*
X538850Y199060D02*
D03*
X545350D02*
D03*
X551850D02*
D03*
X558350D02*
D03*
X564850D02*
D03*
X571350D02*
D03*
X577850D02*
D03*
X584350D02*
D03*
X538850Y145060D02*
D03*
X545350D02*
D03*
X551850D02*
D03*
X558350D02*
D03*
X564850D02*
D03*
X571350D02*
D03*
X577850D02*
D03*
X584350D02*
D03*
M02*
