M48
;Layer_Color=9474304
;FILE_FORMAT=4:4
METRIC,LZ
;TYPE=PLATED
T1F00S00C0.3000
T2F00S00C0.8636
T3F00S00C0.8890
T4F00S00C0.9000
T5F00S00C1.0000
T6F00S00C1.3000
T7F00S00C3.6000
%
T01
X00239012Y0032925
X00270234Y00324
X00284491Y00342495
X00284525Y00352513
X00296778Y00363753
X00258Y00355
X00319Y00305003
X00332001Y00297004
X00340005Y00296993
X00357757Y00283246
X0035325Y00251514
X003275Y00270503
X003875
X00392001Y00297004
X00379Y00305003
X00400005Y00296993
X00417757Y00283246
X0041325Y00251514
X004475Y00270503
X00452001Y00297004
X00460005Y00296993
X00439Y00305003
X00499
X00512001Y00297004
X00520005Y00296993
X00537757Y00283246
X0053325Y00251514
X005075Y00270503
X00477757Y00283246
X0047325Y00251514
X005675Y00270503
X00572001Y00297004
X00580005Y00296993
X00559Y00305003
X00619
X00632001Y00297004
X00640005Y00296993
X00657757Y00283246
X0065325Y00251514
X006275Y00270503
X00597757Y00283246
X0059325Y00251514
X006875Y00270503
X00692001Y00297004
X00700005Y00296993
X00679Y00305003
X00717757Y00283246
X0071325Y00251514
X00771Y00386
X0061197Y00386805
X0060547Y0039297
X0059897Y00386805
X0059247Y00393
X00585739Y00387
X005775Y003925
X00569396Y00386379
X00563449Y00392915
X00544241Y00380385
X00533001Y00380261
X00538411Y00359999
X0049675Y00348512
X00489Y00349005
X00470749Y00374261
X00504876Y00394374
X00807384Y00357866
Y00348512
X00801003Y00333003
X00811497Y00322
X0082Y0033
X00828339Y00321
Y00313
X00837839Y00305161
X00843Y00292
X00851Y00296
X0085Y0033
X00849997Y00337003
X00829048Y00341287
X00884Y00342
X0089285Y0038115
Y0039015
X0093334Y0035266
X00953Y00342
X00959998Y00345999
X00966Y00341
X00976
X00983Y00345
X00991Y00341
X00980006Y00296991
X00972001Y00297001
X00959Y00305
X00967501Y002705
X00997757Y00283243
X0099325Y00251512
X01027501Y002705
X01032001Y00297001
X01040006Y00296991
X01019Y00305
X01079
X01092001Y00297001
X01100006Y00296991
X01117757Y00283243
X01113251Y00251512
X01087501Y002705
X01057757Y00283243
X0105325Y00251512
X01147501Y002705
X01152001Y00297001
X01160006Y00296991
X01139Y00305
X01177757Y00283243
X01173251Y00251512
X01184Y0035
X011825Y00383
X01166998Y00382498
X01166494Y00374498
X01152697Y00389504
X01067Y00372
X01024Y00388
X00971477Y00384327
X01203741Y00374755
X01228746Y00380498
X01239986Y00380622
X01234Y0036
X011925Y00349533
X01199Y00305
X01212001Y00297001
X01220006Y00296991
X01237757Y00283243
X01233251Y00251512
X01207501Y002705
X01267501
X01272001Y00297001
X01280006Y00296991
X01259Y00305
X01319001
X01332002Y00297001
X01340006Y00296991
X01357757Y00283243
X0135325Y00251512
X013275Y002705
X01297757Y00283243
X0129325Y00251512
X01377Y00331247
X01385Y00344
X01385509Y00352505
X01399987Y00371
X01430988Y0036575
X01412Y0034
X01354521Y00441837
X01329827Y00440039
X01337976Y00464593
X01349476Y004646
X01359771
X01354966Y00486837
X01333Y00488598
Y00496351
X01310393Y0049
X01302
X0130249Y00511698
X01310014Y00511719
X01295845Y00518088
X01289521Y00513333
X0128299Y00518088
X0127649Y00513067
X0126777Y00517837
X01260519Y00512836
X0125452Y00517836
X0124852Y00512836
X01203Y00503
Y00483
X01196Y0056
X01204498Y0057553
X01209915Y00653006
X01217919Y00652995
X0123092Y00644997
X0122242Y00679497
X01252163Y00666753
X01269915Y00653006
X01277919Y00652995
X0129092Y00644997
X0128242Y00679497
X01312163Y00666753
X01329915Y00653006
X01337919Y00652995
X0135092Y00644997
X0134242Y00679497
X0131667Y00698485
X0125667
X0119667
X01192163Y00666753
X01399998Y00626259
X01385507Y00607498
X01385Y005995
X01376Y00586279
X01411998Y00594993
X01430986Y00620743
X0130249Y00428642
X0129599Y00434807
X0128949Y00428642
X0128299Y00434837
X01276259Y00428838
X01268021Y00434337
X01259916Y00428216
X0125397Y00434753
X01197272Y00398022
X01182Y00496
X0117Y00489
X01161
X01182476Y00531476
X01170372Y00555418
X01161995Y0055753
X01153746Y0056953
X01142247
X01129995
X01136Y00590874
X01167252Y00575273
X01188493Y00565
X0118749Y006
X0118Y00599
X0117092Y00644997
X01157919Y00652995
X01149915Y00653006
X01132163Y00666753
X0113667Y00698485
X0116242Y00679497
X0110242
X01097919Y00652995
X01089915Y00653006
X0111092Y00644997
X0105092
X01037919Y00652995
X01029915Y00653006
X01012163Y00666753
X0101667Y00698485
X0104242Y00679497
X01072163Y00666753
X0107667Y00698485
X0098242Y00679497
X00977919Y00652995
X00969915Y00653006
X0099092Y00644997
X00952163Y00666753
X0095667Y00698485
X00909Y00615
X00901Y00611
X00903499Y00579501
X0088Y0058
X00875Y00589
X00859Y00594
X00845Y00584
X00837
X00813
X00820998Y00601999
X00828644Y00601645
X00836957Y00608957
X00845Y00606
X00814601Y00609601
X00856Y00548
X00852957Y00519913
X00844957Y00519957
X00836957Y00519803
X00828957Y00519711
X00820957Y0050025
X00831Y00466
X00822142Y00446816
X00805057Y00446958
X00796998Y00446999
X0081595Y0042595
X0084135Y0042565
X00838868Y0043412
X00847967Y00446925
X00873Y00447
X0086675Y0042575
X00891032Y00428
X0087945Y0039745
X00853998Y00396999
X0082865Y0039765
X0080325Y0039775
X00917Y00405
X00955Y00401
X00991Y00406
X01013
X01025Y0048
X01035827Y00492827
X01031Y00499
X01025Y00534
X00936
X0089Y00532
Y00522
X00887998Y00551999
X00888Y00566
X00892Y00487
X00932Y0048
X00938Y00471
X00890841Y00767113
X0089088Y0077413
X00881951
X00881912Y00767113
X00873061
X008731Y0077413
X0086421
Y00767113
X00856551
X0085659Y0077413
X0084897
X00848597Y00767113
X00828611
X0082865Y0077413
X00819721
X00819682Y00767113
X00810831
X0081087Y0077413
X0080198
Y00767113
X00794321
X0079436Y0077413
X0078674
X00786367Y00767113
X007025Y006795
X00697999Y00652999
X00689995Y00653009
X00711Y00645
X00651
X00637999Y00652999
X00629995Y00653009
X00612243Y00666757
X0061675Y00698488
X006425Y006795
X00672243Y00666757
X0067675Y00698488
X005825Y006795
X00577999Y00652999
X00569995Y00653009
X00591Y00645
X00531
X00517999Y00652999
X00509995Y00653009
X00492243Y00666757
X0049675Y00698488
X005225Y006795
X00552243Y00666757
X0055675Y00698488
X005302Y0076778
X0050607Y0076524
X0054671Y0078937
X0060005
X004625Y006795
X00457999Y00652999
X00449995Y00653009
X00471Y00645
X00481Y00601279
X00488
X00504503Y00576
X00504Y00568
X0051925Y00560994
X00518999Y00532999
X00525999Y00528999
X00514836Y00521476
X00488Y00551999
X00470377Y00555888
X00462Y00558
X00453751Y0057
X00442252
X0043
X00436Y00592
X00467257Y00575743
X00411Y00645
X00397999Y00652999
X004025Y006795
X00432243Y00666757
X0043675Y00698488
X00475Y00425
X00484
X004885Y003985
X00557999Y00470999
X00563999Y00475999
X00569999Y00470999
X0057725Y00476
X0058597Y0047123
X0059247Y0047625
X00599Y00471495
X00605324Y0047625
X0061197Y0047
X00611Y00447991
X0061847Y00448
X00664445Y00445
X0066925Y00422763
X00658956
X00647456Y00422756
X00639306Y00398202
X00664Y004
X0077785Y0040815
Y0041785
X0079055Y0042655
X00761Y00516
X00754431Y00521072
X00754503Y00529495
X00761Y00534
X00772Y00548
X00768Y00564
X00754601Y00559399
X00730503Y00559503
X00730902Y00599
X00754601Y00599399
X00705518Y00590482
X00731Y00507
X00725Y00501
X00633Y00514
X00785Y00556
X003925Y00548251
X00383251
Y00535751
X003925
X00392252Y00441751
X00383251
X003825Y00429251
X00392252
X00389995Y00653009
X00372243Y00666757
X0037675Y00698488
X003425Y006795
X00337999Y00652999
X00329995Y00653009
X00351Y00645
X00312243Y00666757
X0031675Y00698488
X0029905Y0076397
X0033339Y0077926
X0026476Y0078302
X00256515Y00777305
X0023047Y0078683
X0023556Y0076016
X00258Y0061
X00283999Y00605999
X00284491Y00597495
X00291Y00618904
X0027Y00578
X00239012Y0058425
X00242025Y00805245
X002508Y0080715
X0026223Y00797936
X0028509Y00794999
X0028636Y0080715
X0028255Y00818256
X0029652Y0082874
X0030414Y0083636
X00310023Y00849394
X00297476Y0084906
X00301426Y0087065
X0027788Y00870516
X00279064Y0088335
X0026604Y00895516
X0024191Y009151
Y0095193
X0029575Y009532
X0028001Y00931666
X0031557Y00906114
X00327Y0089859
X0033081Y00890636
X00332767Y00880294
X0032954Y0086768
Y00849996
X0032953Y00827804
X0033492Y0081096
X003054Y0080715
X0031557Y0079538
X0025715Y0083636
X0024191Y0083763
X0024572Y0082874
X0023048Y0082112
X0024191Y0086549
X00264596Y0084906
X0030922Y00891398
X00343002Y00892668
X0034605Y0087319
X0036637Y0088335
X003778Y00883016
X0037018Y0091383
X0037653Y00949351
X003778Y0096463
X0037272Y01027224
Y0103702
X00360423Y01015027
X0037145Y00839582
X0026096Y01132845
Y0116478
X0022286Y0118307
Y0111703
X0044257Y0110814
X0048829Y01092335
X0049591Y0108147
Y0107258
X0048829Y01071018
X00488727Y01063253
X0048829Y01053473
X004921Y0102686
X0048829Y0100781
X0050353Y0101416
X0051623
X0052512Y0100908
X0055687Y0099384
X0054798Y0098368
X0054671Y0097606
X0055433Y0097225
X0053909
X0053147Y009659
X0051623Y0094939
X0049337Y0096082
X0048448Y00987299
X0045654Y00964296
X0043876Y0094812
X0042352Y00934111
X0041463Y0092145
X0041971Y0091383
X0041336Y0090875
X0041209Y0090113
X00413845Y00892184
X0041336Y0088335
X0041082Y00874053
X0041209Y00864446
X0040193Y0086684
X00399898Y00853806
X0041209Y0083636
X004413Y00849996
Y00873859
X00423678Y00874796
X00401415Y00899574
X0052004Y0090494
X0052131Y0086549
Y0083636
X00551932Y00834154
X00546852Y00826534
X0055814Y0081477
X0055687Y008008
X0057973Y00803571
X0057973Y008135
X0058188Y00834154
X0058862Y0082874
X0059116Y00840773
X00586098Y0085541
X0057973Y00864446
X00606867Y0086641
X00606327Y00874053
X0061275Y0087827
X00607162Y00885048
X00611659Y0089146
X006064Y00896986
X00640803Y0089593
X00648326Y00894434
X0064704Y0091883
X0069276Y0091891
X00700284Y00916941
X0070038Y0090113
X00692934Y00906384
X0069276Y0089478
X0069149Y00886318
X00691959Y00878794
X00703078Y00873526
X0069296Y0086196
X00693396Y00854123
X00682854Y00852234
X0067957Y00872142
X0064831Y0085668
X0064196Y0084652
X00648452Y00839234
X00651184Y008262
X0069149Y0083636
X007207Y0085287
X00730526Y0082112
X00740211Y0087573
X00719938Y00909084
X0071689Y0094685
X0073213Y0095574
X0072451Y0097733
X0071435Y0098241
X0071943Y0100908
X0069022Y0102686
X0068895Y01034528
X0067879Y01039348
Y0102051
X0066609Y0101797
X0067117Y0101035
X0066482Y0100019
X00655403Y0101227
X00643339Y01021766
X00628065Y0102092
X0062799Y0100019
X0061275Y01004
X0060182Y0100781
X0060005Y0100019
X0058608Y0103321
X0057084Y0104337
X0055687Y010421
X00549964Y01048815
X0054244Y01050896
X00529006Y0106623
X0052893Y0107639
X00529147Y0108528
X0051623Y010802
X005683Y0108401
X0056957Y0109163
X00588065Y0110692
X0058735Y0112477
X0059751
X006064
X00620065Y01118605
X0065847Y011056
X00659065Y0109798
X006699Y0109925
X0064583Y01090344
X00659065Y0105992
X0066101Y0103575
X0064704Y0104392
X0062418Y0106623
X00614793Y01063919
X005683Y0102051
X0057719Y0095193
X0055941Y00930006
X0057211Y0091256
Y0089478
X0056957Y0088843
X0056068Y00881746
X00605183Y0085033
X005302Y0081096
X0051877Y0079953
X0049718Y008008
X00452716Y00822071
X0044765Y0103829
X0044638Y0104591
X0043495Y0104083
X004286Y0104718
X0042098Y0105099
X00415703Y0104464
X004159Y0107258
X0042225Y01020961
X00634174Y00970814
X00641403Y00974225
X00648927Y00976487
X00671602Y00940834
X00697565Y01043645
X00708Y01052653
X0071992Y0106684
X0076261Y01054027
X0077912Y010675
X0078674Y01149699
X00770082
X0075372Y01150969
X00738632
X0072197
X0070546
X0078674Y0081096
X00786367Y00803943
X00794321
X0079436Y0081096
X0080198
Y00803943
X00810831
X0081087Y0081096
X00819721
X00819682Y00803943
X00828611
X0082865Y0081096
X0084897
X00848597Y00803943
X00856551
X0085659Y0081096
X0086421
Y00803943
X00873061
X008731Y0081096
X00881951
X00881912Y00803943
X00890841
X0089088Y0081096
X0088199Y00906345
X0085913Y00907441
X00852113Y0090748
Y00916409
X0085913Y0091637
Y00925221
X00852113Y0092526
Y00934111
X0085913
Y00941731
X00852113Y0094177
Y00949724
X0085913Y00949351
X0088072Y00949685
Y00929967
X0088453Y00999567
X0085913Y0100527
X00852113Y01005309
Y01014238
X0085913Y01014199
Y0102305
X00852113Y01023089
Y0103194
X0085913
Y0103956
X00852113Y01039599
Y01047553
X0085913Y0104718
X0088326Y01060527
Y01032588
X0088707Y0109544
X008858Y0112846
Y011564
X0085913Y0114624
X00852113Y01146613
Y01138659
X0085913Y0113862
Y01131
X00852113
Y01122149
X0085913Y0112211
Y01113259
X00852113Y01113298
Y01104369
X0085913Y0110433
X0080452Y0107385
X00803174Y0094685
X0080325Y0087573
X00966Y00902361
X0097851Y00906171
X0098613
Y009151
X0097851
Y00923951
X0098613
Y00932802
X0097851Y00932841
Y00941731
Y00949351
X0098613
Y00941731
X00966Y00929121
Y00962051
Y00997611
X00980383Y01006579
X009874Y0100654
Y01015469
X00980383Y01015508
Y01024359
X009874Y0102432
Y0103321
X00980383
Y01040869
X009874Y0104083
Y0104845
X00980383Y01048823
X0096473Y01058571
Y01030631
X0096708Y0109671
X00980383Y01106909
X009874Y0110687
Y01115799
X00980383Y01115838
Y01124689
X009874Y0112465
Y0113354
X00980383
Y01141199
X009874Y0114116
Y0114878
X00980383Y01149153
X0096581Y0115767
Y0112973
T02
X0091993Y00554297
Y00579697
X0094533
Y00554297
X0097073
X0099613
X0102153
X0104693
X0107233
Y00579697
X0104693
X0102153
X0099613
X0097073
X00680615Y00577697
X00655215
X00629815
Y00552297
X00655215
X00680615
T03
X0040193Y0112465
X0042733
X0045273
Y0115767
X0042733
X0040193
T04
X0025207Y0104083
Y0106623
X0027747
Y0104083
X0032319Y0112973
X0034859
Y0115513
X0032319
X00503533Y0116148
Y0113608
X00528933
Y0116148
X00554333
Y0113608
T05
X003Y002175
X00305Y003825
X0073Y003175
Y002175
X0094
X0094Y003175
X01365Y003825
X0137Y002175
X01365Y005675
X0137Y007325
X0094
Y006325
X0073
Y007325
X003
X00305Y005675
T06
X0081381Y007881
X0086381
T07
X00255Y002675
X00775Y002675
X00895Y002675
X01415
Y006825
X00895
X00775
X00255
M30
