G04*
G04 #@! TF.GenerationSoftware,Altium Limited,Altium Designer,18.1.11 (251)*
G04*
G04 Layer_Physical_Order=1*
G04 Layer_Color=255*
%FSLAX44Y44*%
%MOMM*%
G71*
G01*
G75*
%ADD10R,0.9000X0.8000*%
%ADD11R,1.6000X2.2000*%
%ADD12R,0.7000X1.8000*%
%ADD13R,0.5500X1.5000*%
%ADD14R,1.5000X0.5500*%
%ADD15R,1.5240X1.5240*%
%ADD16R,0.9000X0.7000*%
%ADD17R,1.5000X7.0000*%
%ADD18R,1.4000X0.3500*%
%ADD19R,0.7000X0.9000*%
%ADD20R,1.1000X1.0000*%
%ADD21R,1.4000X1.5000*%
%ADD22R,1.0000X1.1000*%
%ADD23R,2.9972X5.5118*%
%ADD24R,1.4224X0.3556*%
%ADD25R,0.8000X0.9000*%
%ADD26R,0.7500X0.7000*%
%ADD27R,1.8000X1.2000*%
%ADD28R,1.6510X0.4318*%
%ADD29C,0.1524*%
%ADD30C,0.4000*%
%ADD31C,0.5080*%
%ADD32C,0.8000*%
%ADD33C,0.3000*%
%ADD34C,0.2540*%
%ADD35C,0.7620*%
%ADD36C,0.6000*%
%ADD37C,0.2000*%
%ADD38C,0.5000*%
%ADD39C,1.1000*%
%ADD40R,0.4500X0.6000*%
%ADD41R,1.4000X0.3500*%
%ADD42R,0.6000X0.4000*%
%ADD43R,0.8000X1.3000*%
%ADD44R,0.3500X1.2000*%
%ADD45R,1.2000X0.3500*%
%ADD46R,1.5000X1.5000*%
%ADD47C,1.5000*%
%ADD48C,1.5240*%
%ADD49R,1.5240X1.5240*%
%ADD50C,1.9500*%
%ADD51C,0.6000*%
%ADD52C,0.7000*%
%ADD53C,1.2700*%
%ADD54C,1.3000*%
%ADD55C,6.5000*%
G36*
X582061Y1120382D02*
X581722Y1118680D01*
X582061Y1116977D01*
Y1109656D01*
X641251D01*
Y1105641D01*
X640838Y1105366D01*
X639838Y1103869D01*
X639487Y1102104D01*
X639838Y1100339D01*
X640838Y1098842D01*
X642335Y1097842D01*
X644100Y1097491D01*
X645865Y1097842D01*
X647041Y1098628D01*
X648117Y1098223D01*
X648311Y1098065D01*
Y1091406D01*
Y1083406D01*
X665740D01*
Y1075954D01*
X659037D01*
X657335Y1076292D01*
X655632Y1075954D01*
X648311D01*
Y1067406D01*
Y1060643D01*
X647077Y1059942D01*
X647041Y1059948D01*
X645310Y1060292D01*
X643545Y1059941D01*
X642048Y1058941D01*
X641049Y1057445D01*
X640697Y1055680D01*
X641049Y1053914D01*
X642048Y1052418D01*
X643545Y1051418D01*
X645310Y1051067D01*
X647041Y1051411D01*
X647077Y1051417D01*
X648311Y1050716D01*
Y1043406D01*
X648311Y1043406D01*
X648311D01*
X647460Y1042551D01*
X646609Y1041704D01*
X613113D01*
X612967Y1042440D01*
X612349Y1043364D01*
X608729Y1046984D01*
X607805Y1047602D01*
X606715Y1047819D01*
X606715Y1047819D01*
X587887D01*
X587612Y1048232D01*
X586115Y1049231D01*
X584350Y1049583D01*
X582585Y1049231D01*
X581629Y1048593D01*
X580359Y1049251D01*
Y1059406D01*
Y1067406D01*
Y1075954D01*
X564140D01*
Y1083406D01*
X580359D01*
Y1091406D01*
Y1099406D01*
Y1107954D01*
X568086D01*
X567880Y1107995D01*
X567834Y1108008D01*
X567128Y1108621D01*
X566884Y1108969D01*
X570032Y1117580D01*
X575921Y1123469D01*
X582061D01*
Y1120382D01*
D02*
G37*
G36*
X444650Y844310D02*
X430680D01*
X430680Y934146D01*
X417326D01*
X417161Y934975D01*
X416162Y936472D01*
X414665Y937471D01*
X412900Y937823D01*
X411135Y937471D01*
X409638Y936472D01*
X408800Y935217D01*
X399946D01*
X399946Y935217D01*
X398856Y935000D01*
X397932Y934383D01*
X397695Y934146D01*
X392116D01*
Y934146D01*
X391865Y933892D01*
X389532D01*
Y927288D01*
Y920684D01*
Y914334D01*
Y907730D01*
Y901126D01*
Y894776D01*
Y888172D01*
Y881822D01*
Y875218D01*
Y868614D01*
Y862264D01*
Y855660D01*
Y849310D01*
X393150D01*
X393200Y845213D01*
X392308Y844310D01*
X387500Y844310D01*
Y844310D01*
X351940Y844310D01*
Y844310D01*
X230020Y844310D01*
X230020Y970040D01*
X250975Y970040D01*
X250975Y854136D01*
X285020Y854136D01*
X285020Y854136D01*
X286201Y854136D01*
X332636D01*
Y854390D01*
X332636Y855660D01*
X349908D01*
Y862264D01*
Y868614D01*
Y875218D01*
Y881822D01*
Y888172D01*
Y894776D01*
Y901126D01*
Y907730D01*
Y914334D01*
Y920684D01*
Y927288D01*
Y933638D01*
Y940242D01*
X346860D01*
X346860Y947394D01*
X359761Y960295D01*
X360651Y961626D01*
X360716Y961952D01*
X365771D01*
Y970040D01*
X384422D01*
Y969866D01*
X398470D01*
Y970040D01*
X401422D01*
Y969866D01*
X415470D01*
Y970040D01*
X419426D01*
Y970032D01*
X429474D01*
Y970040D01*
X444650D01*
X444650Y844310D01*
D02*
G37*
G36*
X894570Y1101380D02*
X894230D01*
X894230Y1006870D01*
X894770D01*
X894770Y901480D01*
X842160Y901480D01*
X842160Y1006870D01*
X842160D01*
X842160Y1107200D01*
X842160D01*
X842160Y1175020D01*
X894570Y1175020D01*
X894570Y1101380D01*
D02*
G37*
G36*
X992020Y1191020D02*
X992020Y1089420D01*
X992020D01*
X992020Y989090D01*
X992020D01*
X992020Y888760D01*
X955770Y888760D01*
X955770Y990360D01*
X956460D01*
X956460Y1090690D01*
X956460D01*
X956460Y1191020D01*
X992020Y1191020D01*
D02*
G37*
G36*
X304995Y969730D02*
X304995Y921446D01*
X317278Y921446D01*
X317740Y921138D01*
X318920Y920903D01*
X318920Y920903D01*
X322750D01*
Y914423D01*
X321735Y913493D01*
X321460D01*
Y912791D01*
X321008Y912115D01*
X320657Y910350D01*
X321008Y908585D01*
X321460Y907909D01*
X321460Y875726D01*
X322750D01*
Y868386D01*
X321460D01*
X321460Y856750D01*
X285250D01*
Y971000D01*
X303735D01*
X304995Y969730D01*
D02*
G37*
G36*
X583000Y919250D02*
X584395D01*
Y918906D01*
X599750Y918906D01*
Y856343D01*
X562250D01*
Y862852D01*
X562944D01*
Y875900D01*
X562250D01*
Y890302D01*
X563212Y891741D01*
X563563Y893506D01*
X563212Y895272D01*
X562250Y896711D01*
Y909722D01*
X562944D01*
Y922770D01*
X562250D01*
Y941551D01*
X562293Y941766D01*
X562250Y941981D01*
Y968750D01*
X583000D01*
Y919250D01*
D02*
G37*
G36*
X725400Y841810D02*
X711350D01*
X711350Y931606D01*
X702054D01*
X701816Y931963D01*
X700319Y932963D01*
X698554Y933314D01*
X696789Y932963D01*
X696431Y932723D01*
X694804Y933164D01*
X694292Y933932D01*
X692795Y934931D01*
X691030Y935283D01*
X689265Y934931D01*
X687768Y933932D01*
X687252Y933159D01*
X686204Y932622D01*
X668932D01*
Y926018D01*
Y919414D01*
Y913064D01*
Y906460D01*
Y899856D01*
Y893506D01*
Y886902D01*
Y880552D01*
Y873948D01*
Y867344D01*
Y860994D01*
Y854390D01*
Y848040D01*
X673425D01*
Y847612D01*
X673740Y846026D01*
X673831Y845890D01*
X673870Y842713D01*
X672977Y841810D01*
X651835Y841810D01*
X651219Y842222D01*
X649454Y842573D01*
X647689Y842222D01*
X647073Y841810D01*
X510770Y841810D01*
X510770Y967540D01*
X531010Y967540D01*
X531010Y851930D01*
X561245Y851930D01*
Y852796D01*
X561880Y853803D01*
X609496D01*
Y855126D01*
X609878Y855381D01*
X612036D01*
Y854390D01*
X629308D01*
Y856951D01*
X629343Y856974D01*
X630522Y858739D01*
X630936Y860820D01*
X630522Y862901D01*
X629343Y864666D01*
X629308Y864689D01*
Y873948D01*
Y880552D01*
Y886902D01*
Y893506D01*
Y899856D01*
Y906460D01*
Y913064D01*
Y919414D01*
Y926018D01*
Y932368D01*
Y938972D01*
X624775D01*
Y944639D01*
X639161Y959025D01*
X640051Y960356D01*
X640116Y960682D01*
X645171D01*
Y967540D01*
X725400Y967540D01*
X725400Y841810D01*
D02*
G37*
G36*
X892960Y766860D02*
X842160D01*
X842160Y840500D01*
X892960D01*
X892960Y766860D01*
D02*
G37*
G36*
X832000D02*
X781200D01*
X781200Y840500D01*
X832000D01*
X832000Y766860D01*
D02*
G37*
G36*
X786289Y424785D02*
X787000Y423720D01*
Y395000D01*
X799647D01*
X799988Y394488D01*
X801485Y393489D01*
X803250Y393137D01*
X805015Y393489D01*
X806512Y394488D01*
X806853Y395000D01*
X824980D01*
X825388Y394388D01*
X826885Y393388D01*
X828650Y393037D01*
X830415Y393388D01*
X831912Y394388D01*
X832320Y395000D01*
X849893D01*
X850737Y393738D01*
X852233Y392738D01*
X853998Y392387D01*
X855763Y392738D01*
X857260Y393738D01*
X858103Y395000D01*
X875646D01*
X876188Y394188D01*
X877685Y393189D01*
X879450Y392837D01*
X881215Y393189D01*
X882712Y394188D01*
X883254Y395000D01*
X898000D01*
Y377000D01*
X771000D01*
Y381387D01*
X772765Y381739D01*
X774262Y382738D01*
X775262Y384235D01*
X775613Y386000D01*
X775262Y387765D01*
X774262Y389262D01*
X772765Y390261D01*
X771000Y390613D01*
Y425000D01*
X786246D01*
X786289Y424785D01*
D02*
G37*
D10*
X674520Y1072260D02*
D03*
Y1086260D02*
D03*
X588160Y1165000D02*
D03*
Y1151000D02*
D03*
X673250D02*
D03*
Y1165000D02*
D03*
X382090Y1053788D02*
D03*
Y1039788D02*
D03*
D11*
X661090Y791498D02*
D03*
X576590D02*
D03*
X381690Y792768D02*
D03*
X297190D02*
D03*
D12*
X612590Y824498D02*
D03*
X600090D02*
D03*
X625090D02*
D03*
X637590D02*
D03*
X333190Y825768D02*
D03*
X320690D02*
D03*
X345690D02*
D03*
X358190D02*
D03*
D13*
X642335Y1032680D02*
D03*
X634335D02*
D03*
X626335D02*
D03*
X618335D02*
D03*
X610335D02*
D03*
X602335D02*
D03*
X594335D02*
D03*
X586335D02*
D03*
Y1118680D02*
D03*
X594335D02*
D03*
X602335D02*
D03*
X610335D02*
D03*
X618335D02*
D03*
X626335D02*
D03*
X634335D02*
D03*
X642335D02*
D03*
D14*
X571335Y1047680D02*
D03*
Y1055680D02*
D03*
Y1063680D02*
D03*
Y1071680D02*
D03*
Y1079680D02*
D03*
Y1087680D02*
D03*
Y1095680D02*
D03*
Y1103680D02*
D03*
X657335D02*
D03*
Y1095680D02*
D03*
Y1087680D02*
D03*
Y1079680D02*
D03*
Y1071680D02*
D03*
Y1063680D02*
D03*
Y1055680D02*
D03*
Y1047680D02*
D03*
D15*
X481480Y835420D02*
D03*
X214780Y836356D02*
D03*
X481480Y816370D02*
D03*
Y797320D02*
D03*
Y777000D02*
D03*
X214780Y777936D02*
D03*
Y798256D02*
D03*
Y817306D02*
D03*
D16*
X785010Y1136410D02*
D03*
Y1151410D02*
D03*
X768352Y1136409D02*
D03*
Y1151409D02*
D03*
X751990Y1136530D02*
D03*
Y1151530D02*
D03*
X785010Y1123470D02*
D03*
Y1108470D02*
D03*
X768352Y1123469D02*
D03*
Y1108469D02*
D03*
X751990Y1123470D02*
D03*
Y1108470D02*
D03*
X720240Y1136410D02*
D03*
Y1151410D02*
D03*
X736902Y1136409D02*
D03*
Y1151409D02*
D03*
X703730Y1151410D02*
D03*
Y1136410D02*
D03*
X720240Y1123470D02*
D03*
Y1108470D02*
D03*
X500530Y1034930D02*
D03*
Y1049930D02*
D03*
X500530Y1014370D02*
D03*
Y999370D02*
D03*
X514500Y1014059D02*
D03*
Y999059D02*
D03*
X528470Y1014370D02*
D03*
Y999370D02*
D03*
X703730Y1123470D02*
D03*
Y1108470D02*
D03*
X221130Y1152622D02*
D03*
Y1137622D02*
D03*
X736750Y1123470D02*
D03*
Y1108470D02*
D03*
X528470Y1034930D02*
D03*
Y1049930D02*
D03*
X514500Y1034930D02*
D03*
Y1049930D02*
D03*
X801444Y899977D02*
D03*
Y914977D02*
D03*
D17*
X886270Y1139040D02*
D03*
X964270D02*
D03*
X886270Y940920D02*
D03*
X964270D02*
D03*
X885000Y1039980D02*
D03*
X963000D02*
D03*
D18*
X772190Y1026787D02*
D03*
Y1033287D02*
D03*
Y1039788D02*
D03*
Y1046288D02*
D03*
Y1052787D02*
D03*
Y1059287D02*
D03*
Y1065788D02*
D03*
Y1072288D02*
D03*
X718190Y1026787D02*
D03*
Y1033287D02*
D03*
Y1039788D02*
D03*
Y1046288D02*
D03*
Y1052787D02*
D03*
Y1059287D02*
D03*
Y1065788D02*
D03*
Y1072288D02*
D03*
D19*
X634762Y1013175D02*
D03*
X649762D02*
D03*
X787670Y1061480D02*
D03*
X802670D02*
D03*
X703850Y974786D02*
D03*
X718850D02*
D03*
X424450Y976056D02*
D03*
X439450D02*
D03*
X513110Y1074180D02*
D03*
X498110D02*
D03*
X550082Y1102075D02*
D03*
X535082D02*
D03*
X367300Y1026787D02*
D03*
X382300D02*
D03*
D20*
X572920Y916246D02*
D03*
X555920D02*
D03*
X701580Y850326D02*
D03*
X718580D02*
D03*
X572920Y869376D02*
D03*
X555920D02*
D03*
X574580Y950656D02*
D03*
X591580D02*
D03*
X574580Y933946D02*
D03*
X591580D02*
D03*
X718190Y902396D02*
D03*
X701190D02*
D03*
X718580Y832546D02*
D03*
X701580D02*
D03*
X686872Y975120D02*
D03*
X669873D02*
D03*
X408446Y976390D02*
D03*
X391446D02*
D03*
X439180Y833816D02*
D03*
X422180D02*
D03*
X439180Y903220D02*
D03*
X422180D02*
D03*
X276520Y917516D02*
D03*
X293520D02*
D03*
X312180Y951926D02*
D03*
X295180D02*
D03*
X312180Y935216D02*
D03*
X295180D02*
D03*
X439180Y851509D02*
D03*
X422180D02*
D03*
X276520Y870646D02*
D03*
X293520D02*
D03*
D21*
X616647Y969706D02*
D03*
X636647D02*
D03*
X523550Y943036D02*
D03*
X543550D02*
D03*
X523550Y893506D02*
D03*
X543550D02*
D03*
X357247Y970976D02*
D03*
X337247D02*
D03*
X264150Y944306D02*
D03*
X244150D02*
D03*
X264150Y894776D02*
D03*
X244150D02*
D03*
D22*
X702460Y885750D02*
D03*
Y868750D02*
D03*
X422187Y885620D02*
D03*
Y868619D02*
D03*
X221130Y1167280D02*
D03*
Y1184280D02*
D03*
X801520Y947726D02*
D03*
Y930726D02*
D03*
D23*
X649120Y893506D02*
D03*
X369720Y894776D02*
D03*
D24*
X677568Y935670D02*
D03*
Y929320D02*
D03*
Y922716D02*
D03*
Y916366D02*
D03*
Y909762D02*
D03*
Y903158D02*
D03*
Y896808D02*
D03*
Y890204D02*
D03*
Y883854D02*
D03*
Y877250D02*
D03*
Y870646D02*
D03*
Y864296D02*
D03*
Y857692D02*
D03*
Y851342D02*
D03*
X620672D02*
D03*
Y857692D02*
D03*
Y864296D02*
D03*
Y870646D02*
D03*
Y877250D02*
D03*
Y883854D02*
D03*
Y890204D02*
D03*
Y896808D02*
D03*
Y903158D02*
D03*
Y909762D02*
D03*
Y916366D02*
D03*
Y922716D02*
D03*
Y929320D02*
D03*
Y935670D02*
D03*
X341272Y936940D02*
D03*
Y930590D02*
D03*
Y923986D02*
D03*
Y917636D02*
D03*
Y911032D02*
D03*
Y904428D02*
D03*
Y898078D02*
D03*
Y891474D02*
D03*
Y885124D02*
D03*
Y878520D02*
D03*
Y871916D02*
D03*
Y865566D02*
D03*
Y858962D02*
D03*
Y852612D02*
D03*
X398168D02*
D03*
Y858962D02*
D03*
Y865566D02*
D03*
Y871916D02*
D03*
Y878520D02*
D03*
Y885124D02*
D03*
Y891474D02*
D03*
Y898078D02*
D03*
Y904428D02*
D03*
Y911032D02*
D03*
Y917636D02*
D03*
Y923986D02*
D03*
Y930590D02*
D03*
Y936940D02*
D03*
D25*
X535582Y1086835D02*
D03*
X549582D02*
D03*
X550202Y1071680D02*
D03*
X536202D02*
D03*
X788170Y1075450D02*
D03*
X802170D02*
D03*
D26*
X268760Y1175270D02*
D03*
Y1143270D02*
D03*
X285260D02*
D03*
Y1175270D02*
D03*
D27*
X650832Y1173765D02*
D03*
X610832D02*
D03*
Y1149765D02*
D03*
X650832D02*
D03*
D28*
X473352Y1104095D02*
D03*
Y1097745D02*
D03*
Y1091141D02*
D03*
Y1084791D02*
D03*
Y1078187D02*
D03*
Y1071583D02*
D03*
Y1065233D02*
D03*
Y1058629D02*
D03*
Y1052279D02*
D03*
Y1045675D02*
D03*
Y1039071D02*
D03*
Y1032721D02*
D03*
Y1026117D02*
D03*
Y1019767D02*
D03*
X400708D02*
D03*
Y1026117D02*
D03*
Y1032721D02*
D03*
Y1039071D02*
D03*
Y1045675D02*
D03*
Y1052279D02*
D03*
Y1058629D02*
D03*
Y1065233D02*
D03*
Y1071583D02*
D03*
Y1078187D02*
D03*
Y1084791D02*
D03*
Y1091141D02*
D03*
Y1097745D02*
D03*
Y1104095D02*
D03*
D29*
X620342Y902952D02*
X620610Y903220D01*
X340520Y892054D02*
X340606Y892140D01*
X609929Y903220D02*
X620075D01*
X620342Y902952D01*
X325270Y910350D02*
Y911032D01*
X325270Y911032D01*
X604670Y908746D02*
Y909762D01*
X620610Y903220D02*
X620672Y903158D01*
X340352Y879440D02*
X341272Y878520D01*
X340606Y892140D02*
X341272Y891474D01*
D30*
X539970Y822720D02*
X550994D01*
X517736D02*
X539970D01*
X481480Y833250D02*
X588866D01*
X593576Y837960D01*
X649454D01*
X562435Y815331D02*
X584552D01*
X557893Y809807D02*
X563345D01*
X555140Y812560D02*
X557893Y809807D01*
X563345D02*
X567130Y806022D01*
X590942Y801130D02*
X610297D01*
X598820Y825768D02*
X600090Y824498D01*
X560351Y825768D02*
X598820D01*
X560081Y825498D02*
X560351Y825768D01*
X525930Y777000D02*
X544980Y796050D01*
X481480Y777000D02*
X525930D01*
X610297Y801130D02*
X625090Y815923D01*
X586050Y806022D02*
X590942Y801130D01*
X567130Y806022D02*
X586050D01*
X214780Y798256D02*
X245594D01*
X317650Y775730D02*
X345690Y803770D01*
X240295Y817005D02*
X281570Y775730D01*
X294790Y840500D02*
X348442D01*
X243990D02*
X294790D01*
X303670Y818910D02*
X313832D01*
X284630D02*
X303670D01*
X249070D02*
X284630D01*
X297320Y775730D02*
X317650D01*
X281570D02*
X297320D01*
X236370Y840500D02*
X243990D01*
X245594Y798256D02*
X254785Y789065D01*
X239660Y817640D02*
X240295Y817005D01*
X313832Y818910D02*
X320690Y825768D01*
X227814Y777936D02*
X233830Y771920D01*
X214780Y777936D02*
X227814D01*
X345690Y803770D02*
Y825768D01*
X215114Y817640D02*
X239660D01*
X214780Y817306D02*
X215114Y817640D01*
X228750Y832880D02*
X236370Y840500D01*
X358190Y825768D02*
Y830752D01*
X348442Y840500D02*
X358190Y830752D01*
X214780Y836356D02*
X218256Y832880D01*
X228750D01*
X637590Y826096D02*
X649454Y837960D01*
X612590Y817940D02*
Y824498D01*
X605686Y811036D02*
X612590Y817940D01*
X588848Y811036D02*
X605686D01*
X584552Y815331D02*
X588848Y811036D01*
X557793Y819974D02*
X562435Y815331D01*
X600090Y820855D02*
Y824498D01*
X556984Y826530D02*
X558016Y825498D01*
X553740Y819974D02*
X557793D01*
X550994Y822720D02*
X553740Y819974D01*
X556410Y826530D02*
X556984D01*
X517040Y811290D02*
X553870D01*
X555140Y812560D01*
X509976Y814960D02*
X517736Y822720D01*
X558016Y825498D02*
X560081D01*
X625090Y824498D02*
Y825768D01*
Y815923D02*
Y824498D01*
X544980Y796050D02*
Y801130D01*
X600090Y824498D02*
Y825768D01*
X509976Y814386D02*
Y814960D01*
X492910Y797320D02*
X509976Y814386D01*
X481480Y797320D02*
X492910D01*
X481480Y816370D02*
X485290Y812560D01*
X495450D01*
X637590Y824498D02*
Y826096D01*
X327810Y879440D02*
X340352D01*
D31*
X422014Y887954D02*
Y904141D01*
X701190Y885286D02*
Y902396D01*
X701580Y850326D02*
Y867870D01*
Y849950D02*
Y850326D01*
X693071Y841441D02*
X701580Y849950D01*
X693071Y841056D02*
Y841441D01*
Y841056D02*
X701580Y832546D01*
X422298Y847358D02*
Y869048D01*
X398168Y847612D02*
X411630Y834150D01*
X421847D01*
X422180Y833816D01*
X684124Y841056D02*
X693071D01*
X677568Y847612D02*
X684124Y841056D01*
X398168Y847612D02*
Y852612D01*
X422180Y847240D02*
X422298Y847358D01*
X422180Y847240D02*
Y851509D01*
Y833816D02*
Y847240D01*
X421552Y904603D02*
X422014Y904141D01*
X421552Y887492D02*
X422014Y887954D01*
X422180Y851509D02*
Y851596D01*
X421790Y869556D02*
X422298Y869048D01*
X677568Y847612D02*
Y851342D01*
X686872Y975120D02*
X703517D01*
X703850Y974786D01*
D32*
X328054Y862000D02*
X341272D01*
Y863026D01*
X327810Y861756D02*
X328054Y862000D01*
X522240Y916246D02*
X555920D01*
X522240Y869256D02*
X555920D01*
X242840Y870526D02*
X276520D01*
X580802Y1165000D02*
X588160D01*
X572920Y1157118D02*
X580802Y1165000D01*
X572920Y1116295D02*
Y1157118D01*
X573719Y1116295D02*
X578061Y1111954D01*
X572920Y1116295D02*
X573719D01*
X640845Y1149765D02*
X650832D01*
X616845Y1173765D02*
X640845Y1149765D01*
X610832Y1173765D02*
X616845D01*
X650832Y1149765D02*
X652067Y1151000D01*
X673250D01*
X591970Y1173765D02*
X610832D01*
X591970Y1168810D02*
Y1173765D01*
X588160Y1165000D02*
X591970Y1168810D01*
X242840Y917516D02*
X276520D01*
D33*
X604670Y909762D02*
X620672D01*
X572750Y869000D02*
X578000Y874250D01*
X588794Y876206D02*
X594250Y870750D01*
X578000Y876206D02*
X588794D01*
X578000Y874250D02*
Y876206D01*
X575250Y950500D02*
X575460Y950710D01*
Y963690D01*
X611020Y890030D02*
X618390D01*
X619144Y890784D01*
X325270Y911032D02*
X341272D01*
X331037Y892054D02*
X340520D01*
X593240Y927796D02*
X598320Y922716D01*
X620672D01*
X607941Y897196D02*
X620284D01*
X620672Y896808D01*
X221130Y1152622D02*
Y1167280D01*
X318920Y923986D02*
X341272D01*
X313840Y929066D02*
X318920Y923986D01*
D34*
X481480Y833250D02*
Y835420D01*
X214780Y792240D02*
X214921D01*
X701850Y982080D02*
X726554D01*
X655713Y1047510D02*
X659280D01*
X655713D02*
X656609Y1048406D01*
X657335Y1071680D02*
Y1072186D01*
X657409Y1072260D01*
X680822Y864296D02*
X681124Y863994D01*
X689760Y848120D02*
Y849452D01*
X690873Y865883D02*
X691666D01*
X684149Y857603D02*
X691030Y850722D01*
X689760Y849452D02*
X691030Y850722D01*
X400200Y878600D02*
X404566D01*
X410026Y893506D02*
X411630Y895110D01*
X406249Y898078D02*
X412115Y903944D01*
X410360Y909816D02*
Y912890D01*
X409693Y920510D02*
X411630D01*
X417266Y926304D02*
X417980Y925590D01*
X409230Y926304D02*
X417266D01*
X406912Y923986D02*
X409230Y926304D01*
X398168Y923986D02*
X406912D01*
X412058Y932368D02*
X412900Y933210D01*
X398168Y858962D02*
X404660D01*
X410934Y852688D01*
X406070Y871916D02*
X410360Y876206D01*
Y848120D02*
Y852114D01*
X398168Y871916D02*
X406070D01*
X410360Y852114D02*
X410934Y852688D01*
X400200Y893506D02*
X410026D01*
X409090Y885813D02*
X409779Y885124D01*
X398168Y898078D02*
X406249D01*
X406321Y906344D02*
X409715Y909738D01*
X406321Y905777D02*
Y906344D01*
X404972Y904428D02*
X406321Y905777D01*
X398168Y904428D02*
X404972D01*
X398168Y885124D02*
X409779D01*
X410281Y909738D02*
X410360Y909816D01*
X409715Y909738D02*
X410281D01*
X398168Y878520D02*
X404566D01*
Y878600D01*
X398168Y891474D02*
X400200Y893506D01*
X562677Y1061224D02*
X571335D01*
X399074Y911334D02*
X399685D01*
X406819Y917636D02*
X409693Y920510D01*
X398168Y917636D02*
X406819D01*
X566570Y1029823D02*
Y1032270D01*
X565808Y1029061D02*
X566570Y1029823D01*
X565808Y1013821D02*
Y1029061D01*
X559317Y1007330D02*
X565808Y1013821D01*
X556870Y1007330D02*
X559317D01*
X548862Y1001022D02*
X551524D01*
X548650Y1001234D02*
X548862Y1001022D01*
X543850Y1001234D02*
X548650D01*
X543638Y1001022D02*
X543850Y1001234D01*
X539828Y1001022D02*
X543638D01*
X551524D02*
X552740Y999806D01*
X569872Y1012138D02*
Y1027378D01*
X557540Y999806D02*
X569872Y1012138D01*
X576428Y1012947D02*
Y1036353D01*
X558921Y995440D02*
X576428Y1012947D01*
X580492Y1011263D02*
Y1038037D01*
X557373Y988144D02*
X580492Y1011263D01*
X555000Y989804D02*
X556660Y988144D01*
X550200Y989804D02*
X555000D01*
X548930Y988534D02*
X550200Y989804D01*
X553870Y982740D02*
X557716D01*
X552600Y984010D02*
X553870Y982740D01*
X594296Y1019320D02*
Y1032641D01*
X557716Y982740D02*
X594296Y1019320D01*
X593063Y1012340D02*
X597930D01*
X557669Y976946D02*
X593063Y1012340D01*
X530454Y976946D02*
X557669D01*
X529740Y977660D02*
X530454Y976946D01*
X556660Y988144D02*
X557373D01*
X545694Y988534D02*
X548930D01*
X726554Y982080D02*
X738481Y970153D01*
Y887490D02*
Y970153D01*
X718850Y974786D02*
X726136Y967500D01*
X730400D01*
X401159Y1032270D02*
X401610Y1032721D01*
X657409Y1072260D02*
X674520D01*
X649762Y1018514D02*
X653673Y1022424D01*
X660069Y1038620D02*
X688490D01*
X647879Y1026430D02*
X660069Y1038620D01*
X647879Y1024022D02*
Y1026430D01*
X653673Y1022424D02*
Y1024030D01*
X637031Y1013175D02*
X647879Y1024022D01*
X664360Y1029730D02*
X666186Y1027904D01*
X656609Y1048406D02*
X657335Y1047680D01*
X687426Y1055620D02*
Y1099948D01*
X683202Y1057250D02*
Y1098425D01*
X687426Y1055620D02*
X703259Y1039788D01*
X695835Y1055405D02*
X698453Y1052787D01*
X698650Y1062750D02*
Y1094298D01*
Y1062750D02*
X702781Y1058619D01*
X717522D01*
X677060Y1051108D02*
X683202Y1057250D01*
X717522Y1058619D02*
X718190Y1059287D01*
X667940Y1079680D02*
X674520Y1086260D01*
X657335Y1079680D02*
X667940D01*
X670617Y1111010D02*
X683202Y1098425D01*
X668170Y1111010D02*
X670617D01*
X529892Y1077990D02*
X536202Y1071680D01*
X527276Y1077990D02*
X529892D01*
X604597Y885813D02*
X604744D01*
X606592Y883964D01*
X426174Y1142760D02*
X446494Y1122440D01*
X425600Y1142760D02*
X426174D01*
X649684Y975120D02*
X669873D01*
X644804Y980000D02*
X649684Y975120D01*
X635017Y980000D02*
X644804D01*
X632444Y982574D02*
X635017Y980000D01*
X639673Y985985D02*
Y987710D01*
X626260Y1011950D02*
X627913Y1013603D01*
X634335D01*
X610106Y1015760D02*
X611020D01*
X616021Y1022386D02*
X618165Y1020242D01*
X605468Y1022386D02*
X616021D01*
X604791Y1023063D02*
X605468Y1022386D01*
X604791Y1023063D02*
Y1030224D01*
X641500Y993944D02*
X647197Y988247D01*
X661268Y1011950D02*
X663090D01*
X669440Y1014490D02*
Y1022110D01*
Y1014490D02*
X701850Y982080D01*
X675234Y1018856D02*
Y1024510D01*
X671840Y1027904D02*
X675234Y1024510D01*
X666186Y1027904D02*
X671840D01*
X677060Y1029730D02*
Y1032270D01*
X683617Y1042684D02*
X687220Y1046288D01*
X677290Y1042684D02*
X683617D01*
X671266Y1048708D02*
X677290Y1042684D01*
X600720Y1017744D02*
X604114Y1014350D01*
Y1011171D02*
Y1014350D01*
X597930Y1012340D02*
X598320Y1011950D01*
X604114Y1011171D02*
X618575Y996710D01*
X641500Y993944D02*
Y1001817D01*
X637436Y989947D02*
X639673Y987710D01*
X637436Y989947D02*
Y996710D01*
X600119Y1017744D02*
Y1019570D01*
Y1017744D02*
X600720D01*
X618575Y996710D02*
X637436D01*
X620899Y1005881D02*
X654419D01*
X616100Y1010680D02*
X620899Y1005881D01*
X616100Y1010680D02*
Y1012646D01*
X618165Y1014711D01*
Y1020242D01*
X800460Y1077160D02*
X802790Y1079490D01*
X802170Y1075450D02*
X802670Y1074950D01*
Y1061480D02*
Y1074950D01*
X340716Y898634D02*
X341272Y898078D01*
X332842Y898634D02*
X340716D01*
X329080Y902396D02*
X332842Y898634D01*
X610335Y1118680D02*
Y1128384D01*
X604670Y1134049D02*
X610335Y1128384D01*
X604670Y1134049D02*
Y1136530D01*
X618335Y1118680D02*
Y1130365D01*
X657335Y1103680D02*
Y1109740D01*
X644100Y1102104D02*
Y1116915D01*
X656740Y1117360D02*
X670014D01*
X687426Y1099948D01*
X657407Y1132600D02*
X677568D01*
X652073Y1127266D02*
X657407Y1132600D01*
X647950Y1127266D02*
X652073D01*
X646242Y1128974D02*
X647950Y1127266D01*
X638427Y1128974D02*
X646242D01*
X636791Y1127337D02*
X638427Y1128974D01*
X671266Y1048708D02*
Y1058384D01*
X665970Y1063680D02*
X671266Y1058384D01*
X657335Y1063680D02*
X665970D01*
X324000Y1147840D02*
X349400D01*
X675234Y1018856D02*
X707540Y986550D01*
X677060Y1029730D02*
X712620Y994170D01*
X645310Y1055680D02*
X657335D01*
X709366Y988376D02*
X722066D01*
X707540Y986550D02*
X709366Y988376D01*
X722066D02*
X722780Y989090D01*
X677918Y890554D02*
X690229D01*
X687138Y877812D02*
X691230Y873720D01*
X602335Y1032680D02*
X604791Y1030224D01*
X609834Y1016032D02*
X610106Y1015760D01*
X609834Y1011199D02*
Y1016032D01*
X571335Y1047194D02*
X580492Y1038037D01*
X570646Y1042136D02*
X576428Y1036353D01*
X560994Y1038072D02*
X568962D01*
X572364Y1034670D01*
Y1029870D02*
Y1034670D01*
X569872Y1027378D02*
X572364Y1029870D01*
X600090Y1019570D02*
X600119D01*
X609834Y1011199D02*
X619216Y1001817D01*
X641500D01*
X658728Y1009410D02*
X661268Y1011950D01*
X594296Y1032641D02*
X594335Y1032680D01*
X584350Y1044970D02*
X606715D01*
X801444Y958610D02*
X801520Y958533D01*
Y947726D02*
Y958533D01*
X792296Y829460D02*
X793726Y830890D01*
X801444Y887567D02*
X801520Y887490D01*
X801444Y887567D02*
Y899977D01*
Y914977D02*
X801520Y915053D01*
Y930726D01*
X595780Y1136530D02*
X602335Y1129975D01*
Y1118680D02*
Y1129975D01*
X678130Y877812D02*
X687138D01*
X658338Y1009800D02*
X658728Y1009410D01*
X654419Y1005881D02*
X658338Y1009800D01*
X585620Y1136530D02*
X594335Y1127815D01*
Y1118680D02*
Y1127815D01*
X571335Y1061224D02*
Y1063680D01*
X561041Y1059587D02*
X562677Y1061224D01*
X561041Y1051772D02*
X561133Y1051680D01*
X561041Y1051587D02*
X561133Y1051680D01*
X561041Y1043772D02*
Y1051587D01*
Y1051772D02*
Y1059587D01*
Y1043772D02*
X562677Y1042136D01*
X555140Y1053860D02*
X556977Y1052023D01*
Y1042089D02*
Y1052023D01*
X548234Y1060350D02*
Y1060575D01*
X540710Y1062656D02*
X541158D01*
X541846Y1063344D01*
X540040Y1052156D02*
X548234Y1060350D01*
X473352Y1038620D02*
X484576D01*
X555140Y1005600D02*
X556870Y1007330D01*
X546250Y995440D02*
X558921D01*
X552740Y999806D02*
X557540D01*
X562677Y1042136D02*
X570646D01*
X556977Y1042089D02*
X560994Y1038072D01*
X550202Y1071680D02*
X571335D01*
X540040Y1005298D02*
Y1052156D01*
X571335Y1047194D02*
Y1047680D01*
X538357Y1005298D02*
X540040D01*
X535764Y1002705D02*
X538357Y1005298D01*
X535764Y994713D02*
Y1002705D01*
X533816Y992765D02*
X535764Y994713D01*
X511825Y992765D02*
X533816D01*
X491640Y972580D02*
X511825Y992765D01*
X536646Y984724D02*
X537360Y984010D01*
X544980Y987820D02*
X545694Y988534D01*
X523390Y1029850D02*
X528470Y1034930D01*
X523390Y1020840D02*
Y1029850D01*
X498729Y1063344D02*
X541846D01*
X567840Y1103390D02*
X568130Y1103680D01*
X571335D01*
X657335Y1063680D02*
X658264Y1062750D01*
X536646Y989847D02*
X539828Y993029D01*
Y1001022D01*
X536646Y984724D02*
Y989847D01*
X550202Y1071680D02*
X550202Y1071680D01*
X607537Y883964D02*
X608156Y883346D01*
X606592Y883964D02*
X607537D01*
X264150Y894776D02*
X264310Y894936D01*
Y907276D01*
X264150Y944306D02*
X265030Y943426D01*
X278280D01*
X473352Y1078187D02*
X482957D01*
X486131Y1075013D01*
X486997D01*
X482764Y1070186D02*
X484401Y1068549D01*
Y1067392D02*
Y1068549D01*
X487379Y1091141D02*
X494180Y1084340D01*
X474749Y1070186D02*
X482764D01*
X473352Y1084791D02*
X484547D01*
X486560Y1082778D01*
X484401Y1067392D02*
X486560Y1065233D01*
X473352Y1071583D02*
X474749Y1070186D01*
X458239Y1029349D02*
Y1102501D01*
X523390Y1019450D02*
Y1020840D01*
X514500Y1025920D02*
X514500D01*
Y1014059D02*
Y1025920D01*
X507594Y1021434D02*
Y1028320D01*
X473549Y1025920D02*
X501800D01*
X500984Y1034930D02*
X507594Y1028320D01*
X677568Y864296D02*
X680822D01*
X678282Y856978D02*
X683524D01*
X677568Y857692D02*
X678282Y856978D01*
X684149Y857603D02*
X684149D01*
X683524Y856978D02*
X684149Y857603D01*
X677568Y870646D02*
X686110D01*
X389659Y1039071D02*
X400708D01*
X389659Y1033540D02*
Y1039071D01*
X382906Y1026787D02*
X389659Y1033540D01*
X382300Y1026787D02*
X382906D01*
X585620Y1119394D02*
X586335Y1118680D01*
X446494Y1122440D02*
X484020D01*
X440840Y1119900D02*
X458239Y1102501D01*
X442949Y1014059D02*
X458239Y1029349D01*
X445920Y1033540D02*
Y1050050D01*
X440126Y1033522D02*
Y1052450D01*
X433220Y1052590D02*
Y1062721D01*
X426870Y1058940D02*
Y1063324D01*
X440126Y1052450D02*
X444650Y1056974D01*
X514500Y1080524D02*
Y1083070D01*
X527200Y1088150D02*
X531897D01*
X527417Y1097040D02*
X530047D01*
X383690Y1014059D02*
X442949D01*
X382300Y1015449D02*
X383690Y1014059D01*
X382300Y1015449D02*
Y1026787D01*
X400708Y1084791D02*
X401159Y1084340D01*
X414170D01*
X398470Y910730D02*
X399074Y911334D01*
X398168Y911032D02*
X398470Y910730D01*
X376070Y976390D02*
X391446D01*
X352899Y1014937D02*
X391446Y976390D01*
X352899Y1014937D02*
Y1059899D01*
X354555Y1061555D01*
X387500D01*
X386230Y1062825D02*
X387500Y1061555D01*
X386230Y1062825D02*
Y1089420D01*
X370990Y1038984D02*
X380244D01*
X386230Y1089420D02*
X387951Y1091141D01*
X400708D01*
X531897Y1088150D02*
X533082Y1089335D01*
X380244Y1038984D02*
X386935Y1045675D01*
X259230Y1176540D02*
X268760D01*
X581629Y1106330D02*
X582265Y1105694D01*
X634335Y1118680D02*
X636791Y1121136D01*
Y1127337D01*
X677568Y1132600D02*
X683410Y1138442D01*
Y1158000D01*
X676410Y1165000D02*
X683410Y1158000D01*
X673250Y1165000D02*
X676410D01*
X604767Y1151000D02*
X606002Y1149765D01*
X588160Y1151000D02*
X604767D01*
X650832Y1173765D02*
X664485D01*
X673250Y1165000D01*
X473352Y1032721D02*
X498321D01*
X490370Y1038620D02*
Y1039890D01*
X473549Y1019570D02*
X486560D01*
X490370Y1039890D02*
X500410Y1049930D01*
X484576Y1038620D02*
Y1043700D01*
X511960Y1077984D02*
X514437Y1075507D01*
X513110Y1074180D02*
X514437Y1075507D01*
X484020Y1122440D02*
X514500Y1091960D01*
X522245Y1124980D02*
X528778Y1131514D01*
X487227Y1124980D02*
X522245D01*
X528778Y1131514D02*
X536026D01*
X432721Y1026117D02*
X440126Y1033522D01*
X432147Y1019767D02*
X445920Y1033540D01*
X411744Y1058629D02*
X413973Y1056400D01*
X416767Y1065233D02*
X419250Y1062750D01*
X444650Y1056974D02*
Y1057670D01*
X401610Y1032721D02*
X420520D01*
X677568Y877250D02*
X678130Y877812D01*
X482750Y999059D02*
X483061Y999370D01*
X500530D01*
X528159Y999059D02*
X528470Y999370D01*
X514500Y999059D02*
X528159D01*
X514189Y999370D02*
X514500Y999059D01*
X500530Y999370D02*
X514189D01*
X500530Y1034930D02*
X500984D01*
X649762Y1013175D02*
Y1018514D01*
X393850Y1169430D02*
X400200Y1175780D01*
X327810Y1169430D02*
X393850D01*
X324000Y1173240D02*
X327810Y1169430D01*
X451000Y1142760D02*
X467256Y1126504D01*
X536026Y1131514D02*
X552352Y1147840D01*
X485703Y1126504D02*
X487227Y1124980D01*
X467256Y1126504D02*
X485703D01*
X383690Y1126250D02*
X400200Y1142760D01*
X285260Y1144540D02*
X303550Y1126250D01*
X285260Y1175270D02*
Y1176540D01*
Y1144540D02*
Y1175270D01*
X303550Y1126250D02*
X383690D01*
X605138Y878170D02*
X619752D01*
X620672Y877250D01*
X677568Y929320D02*
X689680D01*
X691030Y930670D01*
X677568Y922716D02*
X678790Y923938D01*
X693791D01*
X698554Y928701D01*
X677568Y916366D02*
X686219D01*
X686267Y916414D01*
X689474D01*
X691204Y918144D01*
X677568Y909762D02*
X685362D01*
X687950Y912350D01*
X698110D01*
X698650Y912890D01*
X677568Y903158D02*
X678282Y903872D01*
X688362D01*
X691030Y906540D01*
X677568Y896808D02*
X688490D01*
X689760Y898078D01*
X677568Y890204D02*
X677918Y890554D01*
X686110Y870646D02*
X690873Y865883D01*
X718580Y832546D02*
X718914Y832880D01*
X728796D01*
X543550Y893506D02*
X558950D01*
X620164Y883346D02*
X620672Y883854D01*
X608156Y883346D02*
X620164D01*
X543550Y943036D02*
X544820Y941766D01*
X557680D01*
X439180Y833816D02*
X439194Y833831D01*
X450986D01*
X424117Y976390D02*
X424450Y976056D01*
X408446Y976390D02*
X424117D01*
X484576Y1043700D02*
X488942Y1048066D01*
X492354Y1051478D02*
X493236Y1052360D01*
X492354Y1051460D02*
Y1051478D01*
X488960Y1048066D02*
X492354Y1051460D01*
X488942Y1048066D02*
X488960D01*
X493236Y1052360D02*
Y1054587D01*
X523390Y1019450D02*
X528470Y1014370D01*
X259230Y1144605D02*
X268695D01*
X268760Y1144540D01*
X401619Y1077276D02*
X418665D01*
X400708Y1078187D02*
X401619Y1077276D01*
X418665D02*
X433220Y1062721D01*
X418611Y1071583D02*
X426870Y1063324D01*
X400708Y1065233D02*
X416767D01*
X400708Y1058629D02*
X411744D01*
X400708Y1071583D02*
X418611D01*
X400708Y1026117D02*
X432721D01*
X473352Y1091141D02*
X487379D01*
X370990Y1048780D02*
X377083D01*
X382090Y1053788D01*
X399946Y932368D02*
X412058D01*
X398168Y930590D02*
X399946Y932368D01*
X473352Y1104095D02*
X486560D01*
X511960Y1077984D02*
X514500Y1080524D01*
X473352Y1097745D02*
X489665D01*
X494180Y1093230D01*
X498729Y1060080D02*
Y1063344D01*
X493236Y1054587D02*
X498729Y1060080D01*
Y1063344D02*
Y1073561D01*
X498110Y1074180D02*
X498729Y1073561D01*
X535082Y1102075D02*
X535582Y1102575D01*
X530047Y1097040D02*
X535082Y1102075D01*
X500410Y1049930D02*
X500530D01*
X500530Y1014370D02*
X507594Y1021434D01*
X358693Y1026787D02*
X367300D01*
X383599Y1052279D02*
X400708D01*
X382090Y1053788D02*
X383599Y1052279D01*
X380244Y1038984D02*
X381286D01*
X386935Y1045675D02*
X400708D01*
X381286Y1038984D02*
X382090Y1039788D01*
X703259D02*
X718190D01*
X698453Y1052787D02*
X718190D01*
X533082Y1089335D02*
X535582Y1086835D01*
X642335Y1118680D02*
X644100Y1116915D01*
X606715Y1044970D02*
X610335Y1041350D01*
X571335Y1079680D02*
X587310D01*
X400708Y1019767D02*
X432147D01*
X649762Y1013175D02*
X650390Y1012547D01*
X698650Y1094298D02*
X703730Y1099378D01*
X732048Y1037728D02*
Y1094676D01*
X727607Y1033287D02*
X732048Y1037728D01*
X718190Y1033287D02*
X727607D01*
X751990Y1077387D02*
Y1108470D01*
X746958Y1072355D02*
X751990Y1077387D01*
X746958Y1045818D02*
Y1072355D01*
Y1045818D02*
X764033Y1028743D01*
X770234D01*
X772190Y1026787D01*
X765686Y1052787D02*
X772190D01*
X755086Y1063388D02*
X765686Y1052787D01*
X765989Y1039788D02*
X772190D01*
X751022Y1054754D02*
X765989Y1039788D01*
X768352Y1088002D02*
Y1108469D01*
X751022Y1070672D02*
X768352Y1088002D01*
X751022Y1054754D02*
Y1070672D01*
X755086Y1063388D02*
Y1068187D01*
X785010Y1098111D01*
X760880Y1065788D02*
X772190D01*
Y1074060D02*
X777390Y1079260D01*
X772190Y1072288D02*
Y1074060D01*
X777390Y1079260D02*
X784360D01*
X717700Y1020840D02*
Y1026297D01*
X718190Y1026787D01*
X732048Y1094676D02*
X736750Y1099378D01*
X720240Y1099229D02*
X727860Y1091609D01*
Y1075443D02*
Y1091609D01*
Y1075443D02*
X727984Y1075319D01*
Y1047634D02*
Y1075319D01*
X726637Y1046288D02*
X727984Y1047634D01*
X718190Y1046288D02*
X726637D01*
X772190Y1065788D02*
X787670D01*
Y1061480D02*
Y1065788D01*
X718190Y1072288D02*
Y1078600D01*
X802790Y1079490D02*
Y1085610D01*
X800460Y1077160D02*
X802170Y1075450D01*
X784360Y1079260D02*
X788170Y1075450D01*
X708037Y1065788D02*
X718190D01*
X634762Y1013175D02*
X637031D01*
X500530Y1049930D02*
X514500D01*
X528470D01*
X610335Y1032680D02*
Y1041350D01*
X400708Y1032721D02*
X401159Y1032270D01*
X498321Y1032721D02*
X500530Y1034930D01*
X514500Y1014059D02*
X514500Y1014059D01*
X473352Y1026117D02*
X473549Y1025920D01*
X549582Y1086835D02*
X570490D01*
X451000Y1175780D02*
X484454D01*
X497289Y1162946D01*
X511846D01*
X526952Y1147840D01*
X703730Y1099378D02*
Y1108470D01*
X221130Y1184280D02*
Y1194830D01*
Y1128790D02*
Y1137622D01*
X514500Y1026117D02*
Y1034930D01*
X528470Y1014370D02*
X528470Y1014370D01*
X634335Y1013603D02*
X634762Y1013175D01*
X634335Y1013603D02*
Y1032680D01*
X606002Y1149765D02*
X610832D01*
X626335Y1118680D02*
Y1134263D01*
X610832Y1149765D02*
X626335Y1134263D01*
X550082Y1088024D02*
X550427Y1087680D01*
X570490Y1086835D02*
X571335Y1087680D01*
X550082Y1088024D02*
Y1102075D01*
X720240Y1151410D02*
Y1162729D01*
X785010Y1098111D02*
Y1108470D01*
X720240Y1099229D02*
Y1108470D01*
X736750Y1099378D02*
Y1108470D01*
X703730Y1136410D02*
X703730Y1136410D01*
Y1123470D02*
Y1136410D01*
X720240Y1123470D02*
X720240Y1123470D01*
X720240Y1123470D02*
Y1136410D01*
X736750Y1136258D02*
X736902Y1136409D01*
X736750Y1123470D02*
Y1136258D01*
X751990Y1123470D02*
X751990Y1123470D01*
X751990Y1123470D02*
Y1136530D01*
X768352Y1136409D02*
X768352Y1136409D01*
Y1123469D02*
Y1136409D01*
X785010Y1123470D02*
X785010Y1123470D01*
X785010Y1123470D02*
Y1136410D01*
X703730Y1151410D02*
Y1162729D01*
X736902Y1151409D02*
Y1162729D01*
X751990Y1151530D02*
Y1162729D01*
X768352Y1151409D02*
Y1161459D01*
X785010Y1151410D02*
Y1161459D01*
X439450Y976056D02*
X454810D01*
D35*
X606202Y860820D02*
X625498D01*
X606202Y859341D02*
Y860820D01*
D36*
X313840Y917874D02*
X328387D01*
X302258D02*
X313840D01*
X302020Y917636D02*
X302258Y917874D01*
X328624Y917636D02*
X341272D01*
X328387Y917874D02*
X328624Y917636D01*
X581420Y916366D02*
X620672D01*
X594335Y870646D02*
X620672D01*
X572920Y916246D02*
X573040Y916366D01*
X302020Y871916D02*
X341272D01*
X293520Y917516D02*
X293640Y917636D01*
D37*
X701580Y867870D02*
X702460Y868750D01*
X1351000Y628038D02*
Y645000D01*
X1295000Y572038D02*
X1351000Y628038D01*
X1291000Y526097D02*
Y645000D01*
X1282990Y518088D02*
X1291000Y526097D01*
X1327000Y276000D02*
X1327500Y275499D01*
Y270500D02*
Y271000D01*
Y275499D02*
Y276000D01*
Y271500D02*
Y275499D01*
Y271500D02*
X1328000Y271000D01*
X823158Y452816D02*
X826682Y456340D01*
X810915Y452816D02*
X823158D01*
X805057Y446958D02*
X810915Y452816D01*
X270000Y578000D02*
Y595000D01*
X1136000Y586028D02*
X1154246D01*
X1129997D02*
X1136000D01*
X1360722Y482093D02*
X1360976Y482347D01*
X1337976Y482093D02*
X1355099D01*
X1239738Y364000D02*
X1239986Y364248D01*
X1216747Y364000D02*
X1234000D01*
X436000Y586498D02*
X454251D01*
X430002D02*
X436000D01*
X670201Y440256D02*
X670455Y440510D01*
X647455Y440256D02*
X664578D01*
X521002Y363763D02*
X535288D01*
X1399987Y371000D02*
X1400000Y370987D01*
Y355000D02*
Y370987D01*
X772000Y564000D02*
X774000D01*
X768000D02*
X772000D01*
X772004Y563996D01*
X846000Y574000D02*
X849000Y571000D01*
Y544000D02*
Y571000D01*
Y544000D02*
X862428Y530572D01*
Y465428D02*
Y530572D01*
X831433Y606669D02*
Y606669D01*
X830933Y607169D02*
X831433Y606669D01*
X824169Y607169D02*
X830933D01*
X828644Y600355D02*
Y601645D01*
X834524Y602476D02*
Y603577D01*
X831433Y606669D02*
X834524Y603577D01*
Y602476D02*
X839476Y597524D01*
X820998Y603998D02*
X824169Y607169D01*
X828644Y600355D02*
X829000Y600000D01*
X835000Y594000D01*
X820998Y601999D02*
Y603998D01*
X873000Y447000D02*
Y455518D01*
X796998Y446999D02*
X806339Y456340D01*
X872735Y455784D02*
X873000Y455518D01*
X872735Y455784D02*
X876524Y459573D01*
X1008380Y406000D02*
X1013000D01*
X1007380Y405000D02*
X1008380Y406000D01*
X991000D02*
X996380D01*
X997468Y404912D01*
X983000Y360421D02*
X988239Y365660D01*
X983000Y345000D02*
Y360421D01*
X991000Y350165D02*
X993495Y352660D01*
X991000Y341000D02*
Y350165D01*
X976000Y341000D02*
Y370915D01*
X958982Y347183D02*
X959998Y346167D01*
Y345999D02*
Y346167D01*
Y345999D02*
Y363132D01*
X959000Y364130D02*
X959998Y363132D01*
X958982Y364147D02*
X959000Y364130D01*
X966000Y341000D02*
Y368447D01*
X951513Y382934D02*
X966000Y368447D01*
X945694Y382934D02*
X951513D01*
X943468Y385160D02*
X945694Y382934D01*
X958982Y364147D02*
X959000Y364165D01*
X953000Y342000D02*
Y357165D01*
X953000Y357165D01*
X837839Y317839D02*
X850000Y330000D01*
X837839Y305161D02*
Y317839D01*
X843363Y292363D02*
Y306363D01*
X856000Y319000D01*
X843000Y292000D02*
X843363Y292363D01*
X1389500Y344000D02*
X1393500Y340000D01*
X1385000Y344000D02*
X1389500D01*
X1388990Y599500D02*
X1393497Y594993D01*
X1385000Y599500D02*
X1388990D01*
X1399998Y609993D02*
Y626259D01*
X270000Y324234D02*
Y340000D01*
Y324234D02*
X270234Y324000D01*
X276500Y610000D02*
X280501Y605999D01*
X283999D01*
X278995Y597495D02*
X284491D01*
X1079000Y309000D02*
X1100046Y330045D01*
X1079000Y305000D02*
Y309000D01*
X1019000Y309000D02*
X1043569Y333569D01*
X1019000Y305000D02*
Y309000D01*
X959000Y305000D02*
X959501Y304500D01*
Y311580D01*
X972920Y325000D01*
X559000Y312484D02*
X581596Y335080D01*
X559000Y305003D02*
Y312484D01*
X498747Y305256D02*
X499000Y305003D01*
X498747Y305256D02*
Y317000D01*
X438747Y305256D02*
X439000Y305003D01*
X438747Y305256D02*
Y314747D01*
X379000Y319420D02*
X390152Y330572D01*
X379000Y305003D02*
Y319420D01*
X340005Y291498D02*
Y296993D01*
X319000Y305003D02*
Y315003D01*
X338093Y334096D01*
X972001Y293501D02*
Y297001D01*
X967501Y289000D02*
X972001Y293501D01*
X980006Y291495D02*
X982500Y289000D01*
X980006Y291495D02*
Y296991D01*
X997014Y282500D02*
X997757Y283243D01*
X982500Y282500D02*
X997014D01*
X967501Y270500D02*
Y276000D01*
X1032001Y293501D02*
Y297001D01*
X1027501Y289000D02*
X1032001Y293501D01*
X1040006Y291495D02*
X1042501Y289000D01*
X1040006Y291495D02*
Y296991D01*
X1057014Y282500D02*
X1057757Y283243D01*
X1042501Y282500D02*
X1057014D01*
X1027501Y270500D02*
Y276000D01*
X332001Y293504D02*
Y297004D01*
X327500Y289003D02*
X332001Y293504D01*
X340005Y291498D02*
X342500Y289003D01*
X357014Y282503D02*
X357757Y283246D01*
X342500Y282503D02*
X357014D01*
X327500Y270503D02*
Y276003D01*
X1092001Y293501D02*
Y297001D01*
X1087501Y289000D02*
X1092001Y293501D01*
X1100006Y291495D02*
X1102501Y289000D01*
X1100006Y291495D02*
Y296991D01*
X1117014Y282500D02*
X1117757Y283243D01*
X1102501Y282500D02*
X1117014D01*
X1087501Y270500D02*
Y276000D01*
X392001Y293504D02*
Y297004D01*
X387500Y289003D02*
X392001Y293504D01*
X400005Y291498D02*
X402500Y289003D01*
X400005Y291498D02*
Y296993D01*
X417014Y282503D02*
X417757Y283246D01*
X402500Y282503D02*
X417014D01*
X387500Y270503D02*
Y276003D01*
X1152001Y293501D02*
Y297001D01*
X1147501Y289000D02*
X1152001Y293501D01*
X1160006Y291495D02*
X1162501Y289000D01*
X1160006Y291495D02*
Y296991D01*
X1177014Y282500D02*
X1177757Y283243D01*
X1162501Y282500D02*
X1177014D01*
X1147501Y270500D02*
Y276000D01*
X452001Y293504D02*
Y297004D01*
X447500Y289003D02*
X452001Y293504D01*
X460005Y291498D02*
X462500Y289003D01*
X460005Y291498D02*
Y296993D01*
X477014Y282503D02*
X477757Y283246D01*
X462500Y282503D02*
X477014D01*
X447500Y270503D02*
Y276003D01*
X1212001Y293501D02*
Y297001D01*
X1207501Y289000D02*
X1212001Y293501D01*
X1220006Y291495D02*
X1222501Y289000D01*
X1220006Y291495D02*
Y296991D01*
X1237014Y282500D02*
X1237757Y283243D01*
X1222501Y282500D02*
X1237014D01*
X1207501Y270500D02*
Y276000D01*
X512001Y293504D02*
Y297004D01*
X507500Y289003D02*
X512001Y293504D01*
X520005Y291498D02*
X522500Y289003D01*
X520005Y291498D02*
Y296993D01*
X537014Y282503D02*
X537757Y283246D01*
X522500Y282503D02*
X537014D01*
X507500Y270503D02*
Y276003D01*
X1272001Y293501D02*
Y297001D01*
X1267501Y289000D02*
X1272001Y293501D01*
X1280006Y291495D02*
X1282500Y289000D01*
X1280006Y291495D02*
Y296991D01*
X1297014Y282500D02*
X1297757Y283243D01*
X1282500Y282500D02*
X1297014D01*
X1267501Y270500D02*
Y276000D01*
X572001Y293504D02*
Y297004D01*
X567500Y289003D02*
X572001Y293504D01*
X580005Y291498D02*
X582500Y289003D01*
X580005Y291498D02*
Y296993D01*
X597014Y282503D02*
X597757Y283246D01*
X582500Y282503D02*
X597014D01*
X567500Y270503D02*
Y276003D01*
X632001Y293504D02*
Y297004D01*
X627500Y289003D02*
X632001Y293504D01*
X640005Y291498D02*
X642500Y289003D01*
X640005Y291498D02*
Y296993D01*
X657013Y282503D02*
X657757Y283246D01*
X642500Y282503D02*
X657013D01*
X627500Y270503D02*
Y276003D01*
X692001Y293504D02*
Y297004D01*
X687500Y289003D02*
X692001Y293504D01*
X700005Y291498D02*
X702500Y289003D01*
X700005Y291498D02*
Y296993D01*
X717013Y282503D02*
X717757Y283246D01*
X702500Y282503D02*
X717013D01*
X667000Y317003D02*
X679000Y305003D01*
X687500Y270503D02*
Y276003D01*
X351000Y630550D02*
X359122Y622428D01*
X351000Y630550D02*
Y645000D01*
X486524Y629476D02*
X554170D01*
X633753Y627500D02*
X651253Y645000D01*
X689995Y653009D02*
Y658505D01*
X990920Y636908D02*
X1013400Y614428D01*
X990920Y636908D02*
Y644997D01*
X1050920Y638077D02*
X1071045Y617952D01*
X1050920Y638077D02*
Y644997D01*
X1110920Y639080D02*
X1128524Y621476D01*
X1110920Y639080D02*
Y644997D01*
X1170920Y639537D02*
Y644997D01*
Y639537D02*
X1185457Y625000D01*
X1230920Y637929D02*
Y644997D01*
X672987Y667500D02*
X687500D01*
X672243Y666757D02*
X672987Y667500D01*
X687500Y661000D02*
X689995Y658505D01*
X697999Y656499D02*
X702500Y661000D01*
X697999Y652999D02*
Y656499D01*
X702500Y674000D02*
Y679500D01*
X1312906Y667497D02*
X1327420D01*
X1312163Y666753D02*
X1312906Y667497D01*
X1329915Y653006D02*
Y658502D01*
X1327420Y660997D02*
X1329915Y658502D01*
X1337919Y656496D02*
X1342420Y660997D01*
X1337919Y652995D02*
Y656496D01*
X1342420Y673997D02*
Y679497D01*
X612986Y667500D02*
X627500D01*
X612243Y666757D02*
X612986Y667500D01*
X629995Y653009D02*
Y658505D01*
X627500Y661000D02*
X629995Y658505D01*
X637999Y656499D02*
X642500Y661000D01*
X637999Y652999D02*
Y656499D01*
X642500Y674000D02*
Y679500D01*
X1252906Y667497D02*
X1267420D01*
X1252163Y666753D02*
X1252906Y667497D01*
X1269915Y653006D02*
Y658502D01*
X1267420Y660997D02*
X1269915Y658502D01*
X1277919Y656496D02*
X1282420Y660997D01*
X1277919Y652995D02*
Y656496D01*
X1282420Y673997D02*
Y679497D01*
X552986Y667500D02*
X567500D01*
X552243Y666757D02*
X552986Y667500D01*
X569995Y653009D02*
Y658505D01*
X567500Y661000D02*
X569995Y658505D01*
X577999Y656499D02*
X582500Y661000D01*
X577999Y652999D02*
Y656499D01*
X582500Y674000D02*
Y679500D01*
X1192906Y667497D02*
X1207420D01*
X1192163Y666753D02*
X1192906Y667497D01*
X1209915Y653006D02*
Y658502D01*
X1207420Y660997D02*
X1209915Y658502D01*
X1217919Y656496D02*
X1222420Y660997D01*
X1217919Y652995D02*
Y656496D01*
X1222420Y673997D02*
Y679497D01*
X1132906Y667497D02*
X1147420D01*
X1132163Y666753D02*
X1132906Y667497D01*
X1149915Y653006D02*
Y658502D01*
X1147420Y660997D02*
X1149915Y658502D01*
X1157919Y656496D02*
X1162420Y660997D01*
X1157919Y652995D02*
Y656496D01*
X1162420Y673997D02*
Y679497D01*
X432986Y667500D02*
X447500D01*
X432243Y666757D02*
X432986Y667500D01*
X449995Y653009D02*
Y658505D01*
X447500Y661000D02*
X449995Y658505D01*
X457999Y656499D02*
X462500Y661000D01*
X457999Y652999D02*
Y656499D01*
X471000Y645000D02*
X486524Y629476D01*
X462500Y674000D02*
Y679500D01*
X1072906Y667497D02*
X1087420D01*
X1072163Y666753D02*
X1072906Y667497D01*
X1089915Y653006D02*
Y658502D01*
X1087420Y660997D02*
X1089915Y658502D01*
X1097919Y656496D02*
X1102420Y660997D01*
X1097919Y652995D02*
Y656496D01*
X1102420Y673997D02*
Y679497D01*
X372986Y667500D02*
X387500D01*
X372243Y666757D02*
X372986Y667500D01*
X389995Y653009D02*
Y658505D01*
X387500Y661000D02*
X389995Y658505D01*
X397999Y656499D02*
X402500Y661000D01*
X397999Y652999D02*
Y656499D01*
X411000Y645000D02*
X423000Y633000D01*
X402500Y674000D02*
Y679500D01*
X1342500Y282500D02*
X1357014D01*
X1357757Y283243D01*
X1340006Y291495D02*
Y296991D01*
Y291495D02*
X1342500Y289000D01*
X1327500D02*
X1332002Y293501D01*
Y297001D01*
X1012906Y667497D02*
X1027420D01*
X1012163Y666753D02*
X1012906Y667497D01*
X1029915Y653006D02*
Y658502D01*
X1027420Y660997D02*
X1029915Y658502D01*
X1037919Y656496D02*
X1042420Y660997D01*
X1037919Y652995D02*
Y656496D01*
X1042420Y673997D02*
Y679497D01*
X312987Y667500D02*
X327500D01*
X312243Y666757D02*
X312987Y667500D01*
X329995Y653009D02*
Y658505D01*
X327500Y661000D02*
X329995Y658505D01*
X337999Y656499D02*
X342500Y661000D01*
X337999Y652999D02*
Y656499D01*
X342500Y674000D02*
Y679500D01*
X952906Y667497D02*
X967420D01*
X952163Y666753D02*
X952906Y667497D01*
X969915Y653006D02*
Y658502D01*
X967420Y660997D02*
X969915Y658502D01*
X977919Y656496D02*
X982420Y660997D01*
X977919Y652995D02*
Y656496D01*
X982420Y673997D02*
Y679497D01*
X1406500Y340000D02*
X1412000D01*
X1385509Y352505D02*
X1391005D01*
X1393500Y355000D01*
X258000Y355000D02*
X263500D01*
X296778Y363753D02*
X297031Y363500D01*
X276500Y340000D02*
X278995Y342495D01*
X284491D01*
X276500Y355000D02*
X278987Y352513D01*
X284525D01*
X492243Y666757D02*
X492986Y667500D01*
X507500D01*
X517999Y656499D02*
X522500Y661000D01*
X517999Y652999D02*
Y656499D01*
X509995Y653009D02*
Y658505D01*
X1130499Y563028D02*
Y575026D01*
X1185524Y554476D02*
X1200441D01*
X1177994Y562006D02*
X1185524Y554476D01*
X1166471Y562006D02*
X1177994D01*
X1354521Y447347D02*
X1360477D01*
X1338230D02*
X1354521D01*
X1337976Y447093D02*
X1338230Y447347D01*
X1130499Y553028D02*
X1153746D01*
X1217246Y397000D02*
X1240494D01*
X754000Y559399D02*
Y575902D01*
X730902Y599000D02*
X738000D01*
X430504Y553498D02*
X453751D01*
X664000Y405510D02*
X669956D01*
X647710D02*
X664000D01*
X647456Y405256D02*
X647710Y405510D01*
X521501Y396763D02*
X544749D01*
X1234000Y364000D02*
X1239738D01*
X1234000Y360000D02*
Y364000D01*
X951005Y372160D02*
X959000Y364165D01*
X538411Y359999D02*
Y364011D01*
X544231D01*
X535536D02*
X538411D01*
X535288Y363763D02*
X535536Y364011D01*
X1021000Y580000D02*
X1031000Y570000D01*
X1299712Y484476D02*
X1312681D01*
X1295590Y488598D02*
X1299712Y484476D01*
X1170402Y488598D02*
X1295590D01*
X1312681Y484476D02*
X1316803Y488598D01*
X1333000D01*
X1183351Y496351D02*
X1333000D01*
X821750Y500250D02*
X831000Y491000D01*
X820957Y500250D02*
X821750D01*
X806339Y456340D02*
X821699D01*
X822142Y446816D02*
X828142Y452816D01*
X821699Y456340D02*
X825222Y459864D01*
X826682Y456340D02*
X858340D01*
X825222Y459864D02*
X856864D01*
X997468Y398160D02*
Y404912D01*
X856873Y364127D02*
X857222Y364476D01*
X856000Y363000D02*
X857000Y364000D01*
X856000Y319000D02*
Y363000D01*
X899000Y613000D02*
X901000Y611000D01*
X852000Y613000D02*
X899000D01*
X845000Y617000D02*
X907000D01*
X817000Y621000D02*
X931000D01*
X836957Y608957D02*
X845000Y617000D01*
X907000D02*
X909000Y615000D01*
X806000Y610000D02*
X817000Y621000D01*
X931000D02*
X955000Y597000D01*
X845000Y606000D02*
X852000Y613000D01*
X845000Y585000D02*
X869476Y560524D01*
X839476Y597524D02*
X849524D01*
X856524Y604524D01*
X872476D01*
X895211Y581789D01*
X955000Y398160D02*
X968190D01*
X943468D02*
X955000D01*
X858188Y601000D02*
X871000D01*
X851188Y594000D02*
X858188Y601000D01*
X871000D02*
X894000Y578000D01*
X835000Y594000D02*
X851188D01*
X870000D02*
X875000Y589000D01*
X859000Y594000D02*
X870000D01*
X1025476Y478524D02*
Y533524D01*
X932000Y480000D02*
X933000Y481000D01*
X926476Y374524D02*
Y545476D01*
Y374524D02*
X935340Y365660D01*
X926476Y545476D02*
X933000Y552000D01*
X938000Y470000D02*
Y471000D01*
X933524Y465524D02*
X938000Y470000D01*
X933524Y394476D02*
Y465524D01*
X1027476Y391476D02*
Y476524D01*
X1025476Y478524D02*
X1027476Y476524D01*
X1024000Y388000D02*
X1027476Y391476D01*
X1025000Y534000D02*
X1025476Y533524D01*
X938524Y471524D02*
Y485476D01*
X938000Y471000D02*
X938524Y471524D01*
X934000Y490000D02*
X938524Y485476D01*
X930000Y384000D02*
Y484000D01*
Y384000D02*
X935340Y378660D01*
X806000Y591000D02*
X813000Y584000D01*
X806000Y591000D02*
Y610000D01*
X955000Y573000D02*
Y597000D01*
Y573000D02*
X970730Y557270D01*
Y554297D02*
Y557270D01*
X1009000Y543000D02*
X1020000Y554000D01*
X962000Y543000D02*
X1009000D01*
X957000Y548000D02*
X962000Y543000D01*
X957000Y548000D02*
Y561000D01*
X953000Y565000D02*
X957000Y561000D01*
X938000Y565000D02*
X953000D01*
X933944Y394056D02*
X936340Y391660D01*
X933524Y394476D02*
X934000Y394000D01*
Y490000D02*
Y532000D01*
X936000Y534000D01*
X930000Y484000D02*
Y539000D01*
X705518Y590482D02*
Y590482D01*
X668000Y590482D02*
X705518D01*
X655215Y577697D02*
X668000Y590482D01*
X633000Y514000D02*
Y514000D01*
X629815Y517185D02*
X633000Y514000D01*
X629815Y517185D02*
Y552297D01*
X732008Y507000D02*
X754503Y529495D01*
X731000Y507000D02*
X732008D01*
X725000Y501000D02*
X734360D01*
X754431Y521072D01*
X897975Y577213D02*
Y579008D01*
Y576025D02*
Y577213D01*
X895211Y581773D02*
X897975Y579008D01*
Y577213D02*
X898000Y577188D01*
Y576050D02*
Y577188D01*
X897975Y576025D02*
X898000Y576050D01*
X897975Y456025D02*
Y576025D01*
X898000Y576000D01*
X895211Y581773D02*
Y581789D01*
X894000Y545000D02*
Y578000D01*
X887001Y551999D02*
X887500Y551500D01*
X887001Y551999D02*
X887998D01*
X880048Y536032D02*
X887500Y543483D01*
Y551500D01*
X880048Y463952D02*
Y536032D01*
X897975Y456025D02*
X917000Y437000D01*
X876524Y459573D02*
Y576524D01*
X873000Y461033D02*
Y567000D01*
X869476Y462492D02*
Y560524D01*
X847460Y577524D02*
X865952Y559032D01*
Y463968D02*
Y559032D01*
X883572Y534572D02*
X894000Y545000D01*
X883572Y465444D02*
Y534572D01*
X813000Y582000D02*
Y584000D01*
Y582000D02*
X821000Y574000D01*
X837000Y583000D02*
Y584000D01*
X845000D02*
Y585000D01*
X842476Y577524D02*
X847460D01*
X821000Y574000D02*
X846000D01*
X837000Y583000D02*
X842476Y577524D01*
X859000Y581000D02*
X873000Y567000D01*
X859000Y581000D02*
Y594000D01*
X892000Y487000D02*
Y490000D01*
X889923Y492077D02*
X892000Y490000D01*
X889923Y492077D02*
X890000Y492154D01*
Y522000D01*
X880048Y463952D02*
X904000Y440000D01*
X883572Y465444D02*
X907524Y441492D01*
Y376295D02*
Y441492D01*
X895705Y364476D02*
X907524Y376295D01*
X857222Y364476D02*
X895705D01*
X876524Y576524D02*
X880000Y580000D01*
X917000Y405000D02*
Y437000D01*
X955000Y398160D02*
Y401000D01*
X933340Y352660D02*
X943468D01*
X1035827Y492827D02*
X1036000Y493000D01*
X1031000Y499000D02*
Y570000D01*
X1030000Y499000D02*
X1031000D01*
X1036000Y501812D02*
Y570000D01*
Y501812D02*
X1038000Y499812D01*
X1036000Y385000D02*
Y493000D01*
X1038000Y495000D02*
Y499812D01*
X1029000Y491841D02*
Y498000D01*
Y491841D02*
X1031000Y489841D01*
Y387000D02*
Y489841D01*
X1029000Y498000D02*
X1030000Y499000D01*
X1036000Y493000D02*
X1038000Y495000D01*
X1170000Y489000D02*
X1170402Y488598D01*
X1167000Y496000D02*
X1182000D01*
X1161000Y490000D02*
X1167000Y496000D01*
X1161000Y489000D02*
Y490000D01*
X1196000Y560000D02*
Y571000D01*
X1200441Y554476D02*
X1209982Y564016D01*
X1192000Y575000D02*
X1196000Y571000D01*
X1167525Y575000D02*
X1192000D01*
X1167252Y575273D02*
X1167525Y575000D01*
X1036000Y570000D02*
X1046000Y580000D01*
X1016160Y372160D02*
X1031000Y387000D01*
X1010160Y359160D02*
X1036000Y385000D01*
X933000Y560000D02*
X938000Y565000D01*
X933000Y552000D02*
Y560000D01*
X930000Y539000D02*
X945000Y554000D01*
X936340Y391660D02*
X943468D01*
X859800Y452816D02*
X869476Y462492D01*
X828142Y452816D02*
X859800D01*
X935340Y365660D02*
X943468D01*
X935340Y378660D02*
X943468D01*
X997468Y359160D02*
X1010160D01*
X1021160Y385160D02*
X1024000Y388000D01*
X997468Y385160D02*
X1021160D01*
X997468Y372160D02*
X1016160D01*
X1007003Y405377D02*
X1007380Y405000D01*
X1166998Y382498D02*
X1173023Y388524D01*
X1189972D01*
X1203741Y374755D01*
X755279Y523251D02*
X825417D01*
X828957Y519711D01*
X518999Y524247D02*
Y532999D01*
X516228Y521476D02*
X518999Y524247D01*
X514836Y521476D02*
X516228D01*
X514836Y517571D02*
Y521476D01*
X477476Y480211D02*
X514836Y517571D01*
X477476Y427476D02*
Y480211D01*
X475000Y425000D02*
X477476Y427476D01*
X829760Y527000D02*
X836957Y519803D01*
X754503Y529495D02*
X756997Y527000D01*
X829760D01*
X525999Y523750D02*
Y528999D01*
X481000Y478751D02*
X525999Y523750D01*
X481000Y428000D02*
X484000Y425000D01*
X481000Y428000D02*
Y478751D01*
X1204498Y575526D02*
Y575530D01*
X1161995Y557530D02*
X1166471Y562006D01*
X1298524Y570578D02*
X1314225Y586279D01*
X1298524Y523637D02*
Y570578D01*
X1295845Y520958D02*
X1298524Y523637D01*
X1295845Y518088D02*
Y520958D01*
X1295000Y525096D02*
Y572038D01*
X1289521Y519617D02*
X1295000Y525096D01*
X1289521Y513333D02*
Y519617D01*
X1314225Y586279D02*
X1376000D01*
X1276490Y513067D02*
Y517510D01*
X1262616Y531385D02*
X1276490Y517510D01*
X1262616Y531385D02*
Y606233D01*
X1230920Y637929D02*
X1262616Y606233D01*
X1259091Y526516D02*
X1267770Y517837D01*
X1259091Y526516D02*
Y604774D01*
X1238865Y625000D02*
X1259091Y604774D01*
X1185457Y625000D02*
X1238865D01*
X1260519Y512836D02*
Y519649D01*
X1255567Y524601D02*
X1260519Y519649D01*
X1255567Y524601D02*
Y603314D01*
X1237406Y621476D02*
X1255567Y603314D01*
X1128524Y621476D02*
X1237406D01*
X1235946Y617952D02*
X1252044Y601854D01*
Y520312D02*
Y601854D01*
Y520312D02*
X1254520Y517836D01*
X1071045Y617952D02*
X1235946D01*
X1248520Y512836D02*
Y600395D01*
X1234486Y614428D02*
X1248520Y600395D01*
X1013400Y614428D02*
X1234486D01*
X1212196Y392048D02*
X1217494Y386750D01*
X1161011Y386011D02*
X1167047Y392048D01*
X1212196D01*
X1197272Y398022D02*
X1216224D01*
X1281521Y519557D02*
X1282990Y518088D01*
X1321737Y331247D02*
X1377000D01*
X1302490Y350493D02*
X1321737Y331247D01*
X1302490Y350493D02*
Y428642D01*
X1319172Y306322D02*
Y328828D01*
X1298966Y349034D02*
X1319172Y328828D01*
X1298966Y349034D02*
Y424354D01*
X1295990Y427330D02*
X1298966Y424354D01*
X1295990Y427330D02*
Y434807D01*
X1271590Y410742D02*
X1289490Y428642D01*
X1271590Y345122D02*
Y410742D01*
X1258500Y332032D02*
X1271590Y345122D01*
X1258500Y307000D02*
Y332032D01*
X1282990Y427313D02*
Y434837D01*
X1268066Y412389D02*
X1282990Y427313D01*
X1268066Y346582D02*
Y412389D01*
X1244482Y322997D02*
X1268066Y346582D01*
X1213995Y322997D02*
X1244482D01*
X1264542Y417120D02*
X1276259Y428838D01*
X1264542Y348041D02*
Y417120D01*
X1243022Y326521D02*
X1264542Y348041D01*
X1241562Y330045D02*
X1261018Y349501D01*
X1265440Y425928D02*
Y431757D01*
X1261018Y421506D02*
X1265440Y425928D01*
X1261018Y349501D02*
Y421506D01*
X1265440Y431757D02*
X1268021Y434337D01*
X1253970Y352420D02*
Y434753D01*
X1238643Y337093D02*
X1253970Y352420D01*
X1042110Y337093D02*
X1238643D01*
X1257494Y350961D02*
Y425794D01*
X1240102Y333569D02*
X1257494Y350961D01*
X1043569Y333569D02*
X1240102D01*
X1157521Y326521D02*
X1243022D01*
X1100046Y330045D02*
X1241562D01*
X1257494Y425794D02*
X1259916Y428216D01*
X972920Y325000D02*
X1030016D01*
X1042110Y337093D01*
X1138920Y307920D02*
X1157521Y326521D01*
X1198744Y307747D02*
X1213995Y322997D01*
X1253970Y434753D02*
X1254392Y435175D01*
X1288860Y428642D02*
X1289490D01*
X1282990Y434837D02*
X1283966Y433861D01*
X1355099Y482093D02*
Y486704D01*
Y482093D02*
X1360722D01*
X1354966Y486837D02*
X1355099Y486704D01*
X1359771Y471142D02*
X1360976Y472347D01*
X1359771Y464600D02*
Y471142D01*
Y458053D02*
X1360477Y457347D01*
X1359771Y458053D02*
Y464600D01*
X1349476D02*
Y472093D01*
X1349476Y472093D02*
X1349476Y472093D01*
Y457093D02*
Y464600D01*
X1337976Y464593D02*
Y472093D01*
X1337976Y472093D02*
X1337976Y472093D01*
Y457093D02*
Y464593D01*
X1354521Y441837D02*
Y447347D01*
X761000Y534000D02*
X764000Y531000D01*
X761000Y516000D02*
Y517000D01*
X473565Y387761D02*
X520501D01*
X473541Y387785D02*
X473565Y387761D01*
X509987Y564487D02*
Y570513D01*
X507976Y562476D02*
X509987Y564487D01*
X504503Y575996D02*
X509987Y570513D01*
X504503Y575996D02*
Y576000D01*
X475000Y568000D02*
X504000D01*
X466500Y562500D02*
X501688D01*
X520501Y387761D02*
X521749Y386513D01*
X467276Y387785D02*
X473541D01*
X467257Y575743D02*
X475000Y568000D01*
X764000Y531000D02*
X833913D01*
X844957Y519957D01*
X852957Y517990D02*
Y519913D01*
X763727Y519727D02*
X819984D01*
X761000Y517000D02*
X763727Y519727D01*
X848967Y514000D02*
X852957Y517990D01*
X819984Y519727D02*
X825711Y514000D01*
X848967D01*
X598048Y483527D02*
X605324Y476250D01*
X894245Y368000D02*
X904000Y377755D01*
X855762Y368000D02*
X894245D01*
X829048Y341287D02*
X855762Y368000D01*
X856864Y459864D02*
X862428Y465428D01*
X860670Y458686D02*
X865952Y463968D01*
X858340Y456340D02*
X860670Y458670D01*
Y458686D01*
X904000Y377755D02*
Y440000D01*
X831000Y466000D02*
Y491000D01*
X861260Y449292D02*
X873000Y461033D01*
X850334Y449292D02*
X861260D01*
X847967Y446925D02*
X850334Y449292D01*
X968190Y398160D02*
X974690Y391660D01*
X997468D01*
X993495Y352660D02*
X997468D01*
X988239Y365660D02*
X997468D01*
X976000Y370915D02*
X983745Y378660D01*
X997468D01*
X951005Y359160D02*
X953000Y357165D01*
X943468Y359160D02*
X951005D01*
X943468Y372160D02*
X951005D01*
X730902Y599000D02*
X754000Y575902D01*
X791000Y549000D02*
Y550000D01*
X785000Y556000D02*
X791000Y550000D01*
X783000Y558000D02*
X785000Y556000D01*
X783000Y558000D02*
Y564000D01*
X772004Y548501D02*
Y563996D01*
X731000Y560000D02*
X731001Y559999D01*
X748497D02*
X752999D01*
X731001D02*
X738497D01*
X748000Y599000D02*
X748400Y599399D01*
X754601D01*
X605881Y623976D02*
X691429D01*
X598048Y616143D02*
X605881Y623976D01*
X598048Y483527D02*
Y616143D01*
X604422Y627500D02*
X633753D01*
X594524Y617602D02*
X604422Y627500D01*
X594524Y482008D02*
Y617602D01*
X557999Y470999D02*
Y610696D01*
X549791Y618904D02*
X557999Y610696D01*
X291000Y618904D02*
X549791D01*
X561523Y478475D02*
Y612156D01*
X551251Y622428D02*
X561523Y612156D01*
X359122Y622428D02*
X551251D01*
X565213Y483546D02*
Y613450D01*
X552711Y625952D02*
X565213Y613450D01*
X430048Y625952D02*
X552711D01*
X569000Y484742D02*
Y614646D01*
X554170Y629476D02*
X569000Y614646D01*
X555630Y633000D02*
X572524Y616106D01*
X543000Y633000D02*
X555630D01*
X531000Y645000D02*
X543000Y633000D01*
X572524Y488976D02*
Y616106D01*
X691429Y623976D02*
X711253Y643800D01*
X585970Y471230D02*
Y475530D01*
X572524Y488976D02*
X585970Y475530D01*
X569000Y484742D02*
X577250Y476493D01*
Y476000D02*
Y476493D01*
X569999Y470999D02*
Y478760D01*
X561523Y478475D02*
X563999Y475999D01*
X565213Y483546D02*
X569999Y478760D01*
X594524Y482008D02*
X597994Y478538D01*
Y472502D02*
Y478538D01*
Y472502D02*
X599000Y471495D01*
X591000Y477720D02*
Y644747D01*
Y477720D02*
X592470Y476250D01*
X567396Y384379D02*
X569396Y386379D01*
X567396Y340815D02*
Y384379D01*
X560677Y334096D02*
X567396Y340815D01*
X577500Y380964D02*
Y392500D01*
X571024Y374488D02*
X577500Y380964D01*
X571024Y339459D02*
Y374488D01*
X585739Y384219D02*
Y387000D01*
X574548Y373028D02*
X585739Y384219D01*
X574548Y337999D02*
Y373028D01*
X578072Y371569D02*
X587979Y381476D01*
X578072Y336540D02*
Y371569D01*
X587979Y381476D02*
X588027D01*
X589486Y377952D02*
X598339Y386805D01*
X598970D01*
X589439Y377952D02*
X589486D01*
X581596Y370109D02*
X589439Y377952D01*
X581596Y335080D02*
Y370109D01*
X593446Y386895D02*
Y392024D01*
X588027Y381476D02*
X593446Y386895D01*
X658699Y325048D02*
X678747Y305000D01*
X623936Y325048D02*
X658699D01*
X611970Y337014D02*
X623936Y325048D01*
X611970Y337014D02*
Y386805D01*
X618279Y305765D02*
Y325721D01*
X608446Y335554D02*
X618279Y325721D01*
X608446Y335554D02*
Y382517D01*
X565056Y323524D02*
X578072Y336540D01*
X563596Y327048D02*
X574548Y337999D01*
X562137Y330572D02*
X571024Y339459D01*
X563872Y342274D02*
Y393338D01*
X559217Y337620D02*
X563872Y342274D01*
X411000Y645000D02*
X430048Y625952D01*
X563449Y392915D02*
X563872Y393338D01*
X605470Y385493D02*
X608446Y382517D01*
X605470Y385493D02*
Y392970D01*
X592470Y393000D02*
X593446Y392024D01*
X664000Y400000D02*
Y405510D01*
X664578Y440256D02*
X670201D01*
X664445Y445000D02*
X664578Y444867D01*
Y440256D02*
Y444867D01*
X658956Y422763D02*
Y430255D01*
Y415256D02*
Y422763D01*
X337664Y337620D02*
X559217D01*
X338093Y334096D02*
X560677D01*
X390152Y330572D02*
X562137D01*
X451048Y327048D02*
X563596D01*
X505271Y323524D02*
X565056D01*
X297031Y363500D02*
X311784D01*
X337664Y337620D01*
X498747Y317000D02*
X505271Y323524D01*
X438747Y314747D02*
X451048Y327048D01*
X504876Y394374D02*
X508288Y397785D01*
X669250Y416216D02*
X669956Y415510D01*
X669250Y416216D02*
Y422763D01*
Y429305D02*
X670455Y430510D01*
X669250Y422763D02*
Y429305D01*
X658955Y430256D02*
X658956Y430255D01*
X647456Y422756D02*
Y430255D01*
Y415256D02*
Y422756D01*
X647455Y430256D02*
X647456Y430255D01*
X1217494Y374252D02*
X1217996Y373750D01*
X1217494Y374252D02*
Y386750D01*
X1216224Y398022D02*
X1217246Y397000D01*
X1228746Y380498D02*
Y387000D01*
Y374750D02*
X1228997Y374498D01*
X1228746Y374750D02*
Y380498D01*
X1239484Y387497D02*
X1239986Y386996D01*
Y380622D02*
Y386996D01*
Y374248D02*
Y380622D01*
X1161011Y379985D02*
X1166494Y374502D01*
X1161011Y379985D02*
Y386011D01*
X1166494Y374498D02*
Y374502D01*
X521749Y374015D02*
X522251Y373513D01*
X521749Y374015D02*
Y386513D01*
X533001Y380261D02*
Y386763D01*
X1136000Y586028D02*
Y590874D01*
X436000Y586498D02*
Y592000D01*
X544241Y380385D02*
Y386759D01*
Y374011D02*
Y380385D01*
X543739Y387261D02*
X544241Y386759D01*
X1153746Y577281D02*
X1153995Y577530D01*
X1141995Y575530D02*
X1142247Y575278D01*
Y569530D02*
Y575278D01*
Y563028D02*
Y569530D01*
X1153746D02*
Y577281D01*
Y563028D02*
Y569530D01*
X1204498Y575526D02*
X1209982Y570043D01*
Y564016D02*
Y570043D01*
X1129995Y575530D02*
X1130499Y575026D01*
X1166960Y552006D02*
X1170372Y555418D01*
X1154768Y552006D02*
X1166960D01*
X1153746Y553028D02*
X1154768Y552006D01*
X533001Y374513D02*
X533252Y374261D01*
X533001Y374513D02*
Y380261D01*
X465266Y379748D02*
X470749Y374265D01*
Y374261D02*
Y374265D01*
X465266Y379748D02*
Y385774D01*
X467276Y387785D01*
X508288Y397785D02*
X520479D01*
X521501Y396763D01*
X466965Y552476D02*
X470377Y555888D01*
X454773Y552476D02*
X466965D01*
X453751Y553498D02*
X454773Y552476D01*
X430504Y563498D02*
Y575496D01*
X462000Y558000D02*
X466500Y562500D01*
X501688D02*
X501712Y562476D01*
X507976D01*
X453751Y570000D02*
Y577751D01*
Y563498D02*
Y570000D01*
X442252Y563498D02*
Y570000D01*
Y575748D01*
X453751Y577751D02*
X454000Y578000D01*
X442000Y576000D02*
X442252Y575748D01*
X430000Y576000D02*
X430504Y575496D01*
X507500Y661000D02*
X509995Y658505D01*
X522500Y674000D02*
Y679500D01*
X1406497Y594993D02*
X1411998D01*
X1385507Y607498D02*
X1391003D01*
X1393497Y609993D01*
X276500Y595000D02*
X278995Y597495D01*
X258000Y610000D02*
X263500D01*
X200000Y750000D02*
X1010000D01*
X200000D02*
Y1210000D01*
X1010000D01*
X1010000Y750000D01*
X1470000Y200000D02*
Y750000D01*
X200000D02*
X1470000D01*
X200000Y200000D02*
Y750000D01*
Y200000D02*
X1470000D01*
D38*
X636260Y961926D02*
Y969706D01*
X620672Y946338D02*
X636260Y961926D01*
X608480Y930590D02*
X609750Y929320D01*
X608480Y930590D02*
Y961926D01*
X616260Y969706D01*
X609750Y929320D02*
X614830D01*
X620672Y937956D02*
Y946338D01*
X356860Y963196D02*
Y970976D01*
X329080Y963196D02*
X336860Y970976D01*
X329080Y931860D02*
Y963196D01*
X341272Y947608D02*
X356860Y963196D01*
X341272Y939226D02*
Y947608D01*
X330350Y930590D02*
X335430D01*
X329080Y931860D02*
X330350Y930590D01*
D39*
X591580Y929456D02*
X593240Y927796D01*
X591580Y929456D02*
Y933946D01*
Y950656D01*
X312180Y930726D02*
X313840Y929066D01*
X312180Y930726D02*
Y935216D01*
Y950536D01*
D40*
X747997Y598999D02*
D03*
X737997D02*
D03*
X773504Y564001D02*
D03*
X783504D02*
D03*
X997003Y405377D02*
D03*
X1007003D02*
D03*
X738497Y559999D02*
D03*
X748497D02*
D03*
D41*
X997468Y352660D02*
D03*
Y359160D02*
D03*
Y365660D02*
D03*
Y372160D02*
D03*
Y378660D02*
D03*
Y385160D02*
D03*
Y391660D02*
D03*
Y398160D02*
D03*
X943468Y352660D02*
D03*
Y359160D02*
D03*
Y365660D02*
D03*
Y372160D02*
D03*
Y378660D02*
D03*
Y385160D02*
D03*
Y391660D02*
D03*
Y398160D02*
D03*
D42*
X1360976Y481847D02*
D03*
Y472848D02*
D03*
X1349476Y481593D02*
D03*
Y472593D02*
D03*
X1337976Y481593D02*
D03*
Y472593D02*
D03*
X1360477Y456847D02*
D03*
Y447848D02*
D03*
X1349476Y456593D02*
D03*
Y447593D02*
D03*
X1337976Y456593D02*
D03*
Y447593D02*
D03*
X1239475Y396497D02*
D03*
Y387497D02*
D03*
X1153746Y553528D02*
D03*
Y562528D02*
D03*
X543730Y396260D02*
D03*
Y387261D02*
D03*
X453751Y553998D02*
D03*
Y562998D02*
D03*
X1228493Y396500D02*
D03*
Y387500D02*
D03*
X1142247Y553528D02*
D03*
Y562528D02*
D03*
X532748Y396263D02*
D03*
Y387263D02*
D03*
X442252Y553998D02*
D03*
Y562998D02*
D03*
X1217494Y396250D02*
D03*
Y387250D02*
D03*
X1130499Y553528D02*
D03*
Y562528D02*
D03*
X521749Y396013D02*
D03*
Y387013D02*
D03*
X430504Y553998D02*
D03*
Y562998D02*
D03*
X1239976Y373247D02*
D03*
Y364248D02*
D03*
X1153245Y576778D02*
D03*
Y585778D02*
D03*
X544231Y373010D02*
D03*
Y364011D02*
D03*
X453250Y577248D02*
D03*
Y586248D02*
D03*
X1228994Y373475D02*
D03*
Y364475D02*
D03*
X1141745Y576553D02*
D03*
Y585553D02*
D03*
X533249Y373238D02*
D03*
Y364238D02*
D03*
X441750Y577023D02*
D03*
Y586023D02*
D03*
X1217996Y373250D02*
D03*
Y364250D02*
D03*
X1129997Y576528D02*
D03*
Y585528D02*
D03*
X522251Y373013D02*
D03*
Y364013D02*
D03*
X430002Y576998D02*
D03*
Y585998D02*
D03*
X647456Y405756D02*
D03*
Y414756D02*
D03*
X658956Y405756D02*
D03*
Y414756D02*
D03*
X669956Y406010D02*
D03*
Y415010D02*
D03*
X647455Y430756D02*
D03*
Y439756D02*
D03*
X658955Y430756D02*
D03*
Y439756D02*
D03*
X670455Y431010D02*
D03*
Y440010D02*
D03*
D43*
X791004Y548501D02*
D03*
X772004D02*
D03*
D44*
X276500Y610000D02*
D03*
X270000D02*
D03*
X263500D02*
D03*
X276500Y595000D02*
D03*
X270000D02*
D03*
X263500D02*
D03*
X1406500Y355000D02*
D03*
X1400000D02*
D03*
X1393500D02*
D03*
X1406500Y340000D02*
D03*
X1400000D02*
D03*
X1393500D02*
D03*
X263500Y340000D02*
D03*
X270000D02*
D03*
X276500D02*
D03*
X263500Y355000D02*
D03*
X270000D02*
D03*
X276500D02*
D03*
X1393497Y594993D02*
D03*
X1399998D02*
D03*
X1406497D02*
D03*
X1393497Y609993D02*
D03*
X1399998D02*
D03*
X1406497D02*
D03*
D45*
X702500Y276003D02*
D03*
Y282503D02*
D03*
Y289003D02*
D03*
X687500Y276003D02*
D03*
Y282503D02*
D03*
Y289003D02*
D03*
X982420Y660997D02*
D03*
Y667497D02*
D03*
Y673997D02*
D03*
X967420Y660997D02*
D03*
Y667497D02*
D03*
Y673997D02*
D03*
X342500Y661000D02*
D03*
Y667500D02*
D03*
Y674000D02*
D03*
X327500Y661000D02*
D03*
Y667500D02*
D03*
Y674000D02*
D03*
X642500Y276003D02*
D03*
Y282503D02*
D03*
Y289003D02*
D03*
X627500Y276003D02*
D03*
Y282503D02*
D03*
Y289003D02*
D03*
X1042420Y660997D02*
D03*
Y667497D02*
D03*
Y673997D02*
D03*
X1027420Y660997D02*
D03*
Y667497D02*
D03*
Y673997D02*
D03*
X1342500Y276000D02*
D03*
Y282500D02*
D03*
Y289000D02*
D03*
X1327500Y276000D02*
D03*
Y282500D02*
D03*
Y289000D02*
D03*
X402500Y661000D02*
D03*
Y667500D02*
D03*
Y674000D02*
D03*
X387500Y661000D02*
D03*
Y667500D02*
D03*
Y674000D02*
D03*
X582500Y276003D02*
D03*
Y282503D02*
D03*
Y289003D02*
D03*
X567500Y276003D02*
D03*
Y282503D02*
D03*
Y289003D02*
D03*
X1102420Y660997D02*
D03*
Y667497D02*
D03*
Y673997D02*
D03*
X1087420Y660997D02*
D03*
Y667497D02*
D03*
Y673997D02*
D03*
X1282500Y276000D02*
D03*
Y282500D02*
D03*
Y289000D02*
D03*
X1267501Y276000D02*
D03*
Y282500D02*
D03*
Y289000D02*
D03*
X462500Y661000D02*
D03*
Y667500D02*
D03*
Y674000D02*
D03*
X447500Y661000D02*
D03*
Y667500D02*
D03*
Y674000D02*
D03*
X522500Y276003D02*
D03*
Y282503D02*
D03*
Y289003D02*
D03*
X507500Y276003D02*
D03*
Y282503D02*
D03*
Y289003D02*
D03*
X1162420Y660997D02*
D03*
Y667497D02*
D03*
Y673997D02*
D03*
X1147420Y660997D02*
D03*
Y667497D02*
D03*
Y673997D02*
D03*
X1222501Y276000D02*
D03*
Y282500D02*
D03*
Y289000D02*
D03*
X1207501Y276000D02*
D03*
Y282500D02*
D03*
Y289000D02*
D03*
X522500Y661000D02*
D03*
Y667500D02*
D03*
Y674000D02*
D03*
X507500Y661000D02*
D03*
Y667500D02*
D03*
Y674000D02*
D03*
X462500Y276003D02*
D03*
Y282503D02*
D03*
Y289003D02*
D03*
X447500Y276003D02*
D03*
Y282503D02*
D03*
Y289003D02*
D03*
X1222420Y660997D02*
D03*
Y667497D02*
D03*
Y673997D02*
D03*
X1207420Y660997D02*
D03*
Y667497D02*
D03*
Y673997D02*
D03*
X1162501Y276000D02*
D03*
Y282500D02*
D03*
Y289000D02*
D03*
X1147501Y276000D02*
D03*
Y282500D02*
D03*
Y289000D02*
D03*
X582500Y661000D02*
D03*
Y667500D02*
D03*
Y674000D02*
D03*
X567500Y661000D02*
D03*
Y667500D02*
D03*
Y674000D02*
D03*
X402500Y276003D02*
D03*
Y282503D02*
D03*
Y289003D02*
D03*
X387500Y276003D02*
D03*
Y282503D02*
D03*
Y289003D02*
D03*
X1282420Y660997D02*
D03*
Y667497D02*
D03*
Y673997D02*
D03*
X1267420Y660997D02*
D03*
Y667497D02*
D03*
Y673997D02*
D03*
X1102501Y276000D02*
D03*
Y282500D02*
D03*
Y289000D02*
D03*
X1087501Y276000D02*
D03*
Y282500D02*
D03*
Y289000D02*
D03*
X642500Y661000D02*
D03*
Y667500D02*
D03*
Y674000D02*
D03*
X627500Y661000D02*
D03*
Y667500D02*
D03*
Y674000D02*
D03*
X342500Y276003D02*
D03*
Y282503D02*
D03*
Y289003D02*
D03*
X327500Y276003D02*
D03*
Y282503D02*
D03*
Y289003D02*
D03*
X1342420Y660997D02*
D03*
Y667497D02*
D03*
Y673997D02*
D03*
X1327420Y660997D02*
D03*
Y667497D02*
D03*
Y673997D02*
D03*
X1042501Y276000D02*
D03*
Y282500D02*
D03*
Y289000D02*
D03*
X1027501Y276000D02*
D03*
Y282500D02*
D03*
Y289000D02*
D03*
X702500Y661000D02*
D03*
Y667500D02*
D03*
Y674000D02*
D03*
X687500Y661000D02*
D03*
Y667500D02*
D03*
Y674000D02*
D03*
X982500Y276000D02*
D03*
Y282500D02*
D03*
Y289000D02*
D03*
X967501Y276000D02*
D03*
Y282500D02*
D03*
Y289000D02*
D03*
D46*
X501803Y1147840D02*
D03*
X346860Y1166890D02*
D03*
X275740Y1077990D02*
D03*
D47*
X501803Y1173240D02*
D03*
X527203Y1147840D02*
D03*
Y1173240D02*
D03*
X552603Y1147840D02*
D03*
Y1173240D02*
D03*
X346860Y1141490D02*
D03*
X321460Y1166890D02*
D03*
Y1141490D02*
D03*
X250340Y1052590D02*
D03*
Y1077990D02*
D03*
X275740Y1052590D02*
D03*
D48*
X400200Y1136410D02*
D03*
X425600D02*
D03*
X451000D02*
D03*
X400200Y1169430D02*
D03*
X425600D02*
D03*
D49*
X451000D02*
D03*
D50*
X812080Y799860D02*
D03*
X862080D02*
D03*
D51*
X539970Y822720D02*
D03*
X606000Y860500D02*
D03*
X846867Y815703D02*
D03*
X847240Y822720D02*
D03*
X862480Y815703D02*
D03*
Y822720D02*
D03*
X854821Y815703D02*
D03*
X871331D02*
D03*
X889111D02*
D03*
X880182D02*
D03*
X880221Y822720D02*
D03*
X889150D02*
D03*
X871370D02*
D03*
X854860D02*
D03*
X846867Y778873D02*
D03*
X847240Y785890D02*
D03*
X862480Y778873D02*
D03*
Y785890D02*
D03*
X854821Y778873D02*
D03*
X871331D02*
D03*
X889111D02*
D03*
X880182D02*
D03*
X880221Y785890D02*
D03*
X889150D02*
D03*
X871370D02*
D03*
X854860D02*
D03*
X784637Y778873D02*
D03*
X785010Y785890D02*
D03*
X800250Y778873D02*
D03*
Y785890D02*
D03*
X792591Y778873D02*
D03*
X809101D02*
D03*
X826881D02*
D03*
X817952D02*
D03*
X817991Y785890D02*
D03*
X826920D02*
D03*
X809140D02*
D03*
X792630D02*
D03*
X784637Y815703D02*
D03*
X785010Y822720D02*
D03*
X800250Y815703D02*
D03*
Y822720D02*
D03*
X792591Y815703D02*
D03*
X809101D02*
D03*
X826881D02*
D03*
X817952D02*
D03*
X817991Y822720D02*
D03*
X826920D02*
D03*
X809140D02*
D03*
X792630D02*
D03*
X639073Y907690D02*
D03*
X646596Y906193D02*
D03*
X578000Y876206D02*
D03*
X255420Y848120D02*
D03*
X376070Y894776D02*
D03*
X659280Y1047510D02*
D03*
X657335Y1071680D02*
D03*
X398168Y865566D02*
D03*
X681124Y863994D02*
D03*
X689760Y848120D02*
D03*
X691666Y865883D02*
D03*
X400200Y878600D02*
D03*
X411630Y895110D02*
D03*
X412115Y903944D02*
D03*
X410360Y912890D02*
D03*
X411630Y920510D02*
D03*
X412900Y933210D02*
D03*
X417980Y925590D02*
D03*
X439570Y885620D02*
D03*
X410360Y876206D02*
D03*
Y848120D02*
D03*
X439570Y861756D02*
D03*
X409090Y885813D02*
D03*
X421948Y886556D02*
D03*
X399685Y911334D02*
D03*
X552600Y984010D02*
D03*
X529740Y977660D02*
D03*
X514500Y961150D02*
D03*
X730400Y967500D02*
D03*
X570380Y924320D02*
D03*
X518310Y916700D02*
D03*
X254785Y789065D02*
D03*
X249070Y818910D02*
D03*
X240295Y817005D02*
D03*
X333190Y822720D02*
D03*
X344320Y884950D02*
D03*
X421790Y945871D02*
D03*
X374800Y961111D02*
D03*
X653673Y1024030D02*
D03*
X664360Y1029730D02*
D03*
X641609Y1033526D02*
D03*
X695835Y1055405D02*
D03*
X706270Y1064413D02*
D03*
X527276Y1077990D02*
D03*
X885340Y1107200D02*
D03*
X884070Y1168160D02*
D03*
Y1140220D02*
D03*
X965350Y1108470D02*
D03*
X964080Y1169430D02*
D03*
Y1141490D02*
D03*
X882800Y1011328D02*
D03*
X881530Y1072288D02*
D03*
Y1044348D02*
D03*
X985670Y1052590D02*
D03*
Y1036080D02*
D03*
Y1018300D02*
D03*
Y1027229D02*
D03*
X978653Y1027268D02*
D03*
Y1018339D02*
D03*
Y1036119D02*
D03*
Y1052629D02*
D03*
X985670Y1044970D02*
D03*
X978653D02*
D03*
X985670Y1060210D02*
D03*
X978653Y1060583D02*
D03*
X985670Y1152920D02*
D03*
Y1136410D02*
D03*
Y1118630D02*
D03*
Y1127559D02*
D03*
X978653Y1127598D02*
D03*
Y1118669D02*
D03*
Y1136449D02*
D03*
Y1152959D02*
D03*
X985670Y1145300D02*
D03*
X978653D02*
D03*
X985670Y1160540D02*
D03*
X978653Y1160913D02*
D03*
X857400Y1150380D02*
D03*
Y1133870D02*
D03*
Y1116090D02*
D03*
Y1125019D02*
D03*
X850383Y1125058D02*
D03*
Y1116129D02*
D03*
Y1133909D02*
D03*
Y1150419D02*
D03*
X857400Y1142760D02*
D03*
X850383D02*
D03*
X857400Y1158000D02*
D03*
X850383Y1158373D02*
D03*
X857400Y1051320D02*
D03*
Y1034810D02*
D03*
Y1017030D02*
D03*
Y1025959D02*
D03*
X850383Y1025998D02*
D03*
Y1017069D02*
D03*
Y1034849D02*
D03*
Y1051359D02*
D03*
X857400Y1043700D02*
D03*
X850383D02*
D03*
X857400Y1058940D02*
D03*
X850383Y1059313D02*
D03*
X963000Y1042391D02*
D03*
Y1070331D02*
D03*
X964270Y1009371D02*
D03*
X984400Y926860D02*
D03*
X976780D02*
D03*
Y961111D02*
D03*
X984400D02*
D03*
Y944562D02*
D03*
X976780Y944601D02*
D03*
X964270Y940881D02*
D03*
Y973811D02*
D03*
Y914121D02*
D03*
X878990Y941727D02*
D03*
Y961444D02*
D03*
X880260Y918105D02*
D03*
X850383Y961484D02*
D03*
X857400Y961111D02*
D03*
X850383Y945871D02*
D03*
X857400D02*
D03*
X646580Y868440D02*
D03*
X646722Y850994D02*
D03*
X649454Y837960D02*
D03*
X604597Y885813D02*
D03*
X611020Y890030D02*
D03*
X609929Y903220D02*
D03*
X556410Y826530D02*
D03*
X517040Y811290D02*
D03*
X632444Y982574D02*
D03*
X639673Y985985D02*
D03*
X626260Y1011950D02*
D03*
X611020Y1015760D02*
D03*
X647197Y988247D02*
D03*
X663090Y1011950D02*
D03*
X669440Y1022110D02*
D03*
X677060Y1032270D02*
D03*
X688490Y1038620D02*
D03*
X687220Y1046288D02*
D03*
X598320Y1011950D02*
D03*
X850383Y953530D02*
D03*
Y937020D02*
D03*
Y919240D02*
D03*
Y928169D02*
D03*
X857400Y928130D02*
D03*
Y919201D02*
D03*
Y936981D02*
D03*
Y953491D02*
D03*
X976780D02*
D03*
Y935711D02*
D03*
Y917931D02*
D03*
X984400Y953491D02*
D03*
Y935711D02*
D03*
Y917931D02*
D03*
X329080Y902396D02*
D03*
X228750Y832880D02*
D03*
X618335Y1130365D02*
D03*
X604670Y1136530D02*
D03*
X657335Y1109740D02*
D03*
X644100Y1102104D02*
D03*
X656740Y1117360D02*
D03*
X668170Y1111010D02*
D03*
X677060Y1051108D02*
D03*
X645310Y1055680D02*
D03*
X712620Y994170D02*
D03*
X690229Y890554D02*
D03*
X677840Y883902D02*
D03*
X691230Y873720D02*
D03*
X600090Y1019570D02*
D03*
X566570Y1032270D02*
D03*
X626335Y1032680D02*
D03*
X722780Y989090D02*
D03*
X801444Y958610D02*
D03*
X801520Y887490D02*
D03*
X738481D02*
D03*
X595780Y1136530D02*
D03*
X585620D02*
D03*
X555140Y1053860D02*
D03*
X540710Y1062656D02*
D03*
X569110Y1055130D02*
D03*
X548234Y1060575D02*
D03*
X555140Y1005600D02*
D03*
X537360Y984010D02*
D03*
X544980Y987820D02*
D03*
X546250Y995440D02*
D03*
X491640Y972580D02*
D03*
X567840Y1103390D02*
D03*
X584350Y1044970D02*
D03*
X566570Y1095770D02*
D03*
X544980Y801130D02*
D03*
X555140Y812560D02*
D03*
X495450D02*
D03*
X233830Y771920D02*
D03*
X264310Y907276D02*
D03*
X325270Y910350D02*
D03*
X278280Y943426D02*
D03*
X341272Y904428D02*
D03*
X327810Y879440D02*
D03*
X331037Y892054D02*
D03*
X486997Y1075013D02*
D03*
X494180Y1084340D02*
D03*
X486560Y1065233D02*
D03*
X604670Y908746D02*
D03*
X523390Y1020840D02*
D03*
X514500Y1025920D02*
D03*
X501800D02*
D03*
X586335Y1118680D02*
D03*
X440840Y1119900D02*
D03*
X445920Y1050050D02*
D03*
X433220Y1052590D02*
D03*
X426870Y1058940D02*
D03*
X514500Y1083070D02*
D03*
X527200Y1088150D02*
D03*
X527417Y1097040D02*
D03*
X414170Y1084340D02*
D03*
X376070Y976390D02*
D03*
X370990Y1038984D02*
D03*
X613063Y1075679D02*
D03*
X622450Y1077990D02*
D03*
X490370Y1038620D02*
D03*
X486560Y1019570D02*
D03*
X514500Y1091960D02*
D03*
X413973Y1056400D02*
D03*
X419250Y1062750D02*
D03*
X444650Y1057670D02*
D03*
X420520Y1032721D02*
D03*
X482750Y999059D02*
D03*
X567840Y900190D02*
D03*
X645310Y930590D02*
D03*
X718970Y864630D02*
D03*
X718208Y920844D02*
D03*
X715160Y958610D02*
D03*
X669873Y952594D02*
D03*
X580150Y845914D02*
D03*
X550202D02*
D03*
X605432Y896808D02*
D03*
X605138Y878170D02*
D03*
X691030Y930670D02*
D03*
X698554Y928701D02*
D03*
X691204Y918144D02*
D03*
X698650Y912890D02*
D03*
X691030Y906540D02*
D03*
X689760Y898078D02*
D03*
X728796Y832880D02*
D03*
X701348Y885286D02*
D03*
X558950Y893506D02*
D03*
X557680Y941766D02*
D03*
X450986Y833831D02*
D03*
X519580Y848120D02*
D03*
Y877250D02*
D03*
X437030Y959880D02*
D03*
X369720Y851342D02*
D03*
X368450Y925590D02*
D03*
X364640Y895110D02*
D03*
X240180Y963690D02*
D03*
Y926860D02*
D03*
Y877250D02*
D03*
X302410Y848120D02*
D03*
X240180Y849390D02*
D03*
X294020Y964960D02*
D03*
X313840Y917874D02*
D03*
X308293Y861154D02*
D03*
X575460Y963690D02*
D03*
X570380Y906540D02*
D03*
X259230Y1144605D02*
D03*
Y1176540D02*
D03*
X486560Y1082778D02*
D03*
X370990Y1048780D02*
D03*
X486560Y1104095D02*
D03*
X494180Y1093230D02*
D03*
X358693Y1026787D02*
D03*
X760880Y1065788D02*
D03*
X777390Y1079260D02*
D03*
X717700Y1020840D02*
D03*
X718190Y1078600D02*
D03*
X802790Y1085610D02*
D03*
X221130Y1194830D02*
D03*
Y1128790D02*
D03*
X720240Y1162729D02*
D03*
X703730D02*
D03*
X736902D02*
D03*
X751990D02*
D03*
X768352Y1161459D02*
D03*
X785010D02*
D03*
X454810Y976056D02*
D03*
X327810Y861756D02*
D03*
X270000Y578000D02*
D03*
X768000Y564000D02*
D03*
X772000Y548000D02*
D03*
X856000D02*
D03*
X828644Y601645D02*
D03*
X820998Y601999D02*
D03*
X873000Y447000D02*
D03*
X796998Y446999D02*
D03*
X805057Y446958D02*
D03*
X1067000Y372000D02*
D03*
X1013000Y406000D02*
D03*
X991000D02*
D03*
X983000Y345000D02*
D03*
X991000Y341000D02*
D03*
X976000D02*
D03*
X959998Y345999D02*
D03*
X966000Y341000D02*
D03*
X953000Y342000D02*
D03*
X884000D02*
D03*
X849997Y337003D02*
D03*
X850000Y330000D02*
D03*
X837839Y305161D02*
D03*
X851000Y296000D02*
D03*
X820000Y330000D02*
D03*
X807384Y348512D02*
D03*
Y357866D02*
D03*
X1385000Y344000D02*
D03*
X1399987Y371000D02*
D03*
X1385000Y599500D02*
D03*
X1399998Y626259D02*
D03*
X270234Y324000D02*
D03*
X283999Y605999D02*
D03*
X284491Y597495D02*
D03*
X340005Y296993D02*
D03*
X972001Y297001D02*
D03*
X980006Y296991D02*
D03*
X997757Y283243D02*
D03*
X993250Y251512D02*
D03*
X959000Y305000D02*
D03*
X967501Y270500D02*
D03*
X1032001Y297001D02*
D03*
X1040006Y296991D02*
D03*
X1057757Y283243D02*
D03*
X1053250Y251512D02*
D03*
X1019000Y305000D02*
D03*
X1027501Y270500D02*
D03*
X332001Y297004D02*
D03*
X357757Y283246D02*
D03*
X353250Y251514D02*
D03*
X319000Y305003D02*
D03*
X327500Y270503D02*
D03*
X1092001Y297001D02*
D03*
X1100006Y296991D02*
D03*
X1117757Y283243D02*
D03*
X1113251Y251512D02*
D03*
X1079000Y305000D02*
D03*
X1087501Y270500D02*
D03*
X392001Y297004D02*
D03*
X400005Y296993D02*
D03*
X417757Y283246D02*
D03*
X413250Y251514D02*
D03*
X379000Y305003D02*
D03*
X387500Y270503D02*
D03*
X1152001Y297001D02*
D03*
X1160006Y296991D02*
D03*
X1177757Y283243D02*
D03*
X1173251Y251512D02*
D03*
X1139000Y305000D02*
D03*
X1147501Y270500D02*
D03*
X452001Y297004D02*
D03*
X460005Y296993D02*
D03*
X477757Y283246D02*
D03*
X473250Y251514D02*
D03*
X439000Y305003D02*
D03*
X447500Y270503D02*
D03*
X1212001Y297001D02*
D03*
X1220006Y296991D02*
D03*
X1237757Y283243D02*
D03*
X1233251Y251512D02*
D03*
X1199000Y305000D02*
D03*
X1207501Y270500D02*
D03*
X512001Y297004D02*
D03*
X520005Y296993D02*
D03*
X537757Y283246D02*
D03*
X533250Y251514D02*
D03*
X499000Y305003D02*
D03*
X507500Y270503D02*
D03*
X1272001Y297001D02*
D03*
X1280006Y296991D02*
D03*
X1297757Y283243D02*
D03*
X1293250Y251512D02*
D03*
X1259000Y305000D02*
D03*
X1267501Y270500D02*
D03*
X572001Y297004D02*
D03*
X580005Y296993D02*
D03*
X597757Y283246D02*
D03*
X593250Y251514D02*
D03*
X559000Y305003D02*
D03*
X567500Y270503D02*
D03*
X632001Y297004D02*
D03*
X640005Y296993D02*
D03*
X657757Y283246D02*
D03*
X653250Y251514D02*
D03*
X619000Y305003D02*
D03*
X627500Y270503D02*
D03*
X692001Y297004D02*
D03*
X700005Y296993D02*
D03*
X717757Y283246D02*
D03*
X713250Y251514D02*
D03*
X679000Y305003D02*
D03*
X687500Y270503D02*
D03*
X689995Y653009D02*
D03*
X672243Y666757D02*
D03*
X697999Y652999D02*
D03*
X676750Y698488D02*
D03*
X711000Y645000D02*
D03*
X702500Y679500D02*
D03*
X1312163Y666753D02*
D03*
X1329915Y653006D02*
D03*
X1337919Y652995D02*
D03*
X1316670Y698485D02*
D03*
X1350920Y644997D02*
D03*
X1342420Y679497D02*
D03*
X612243Y666757D02*
D03*
X629995Y653009D02*
D03*
X637999Y652999D02*
D03*
X616750Y698488D02*
D03*
X651000Y645000D02*
D03*
X642500Y679500D02*
D03*
X1252163Y666753D02*
D03*
X1269915Y653006D02*
D03*
X1277919Y652995D02*
D03*
X1256670Y698485D02*
D03*
X1290920Y644997D02*
D03*
X1282420Y679497D02*
D03*
X552243Y666757D02*
D03*
X569995Y653009D02*
D03*
X577999Y652999D02*
D03*
X556750Y698488D02*
D03*
X591000Y645000D02*
D03*
X582500Y679500D02*
D03*
X1192163Y666753D02*
D03*
X1209915Y653006D02*
D03*
X1217919Y652995D02*
D03*
X1196670Y698485D02*
D03*
X1230920Y644997D02*
D03*
X1222420Y679497D02*
D03*
X1132163Y666753D02*
D03*
X1149915Y653006D02*
D03*
X1157919Y652995D02*
D03*
X1136670Y698485D02*
D03*
X1170920Y644997D02*
D03*
X1162420Y679497D02*
D03*
X432243Y666757D02*
D03*
X449995Y653009D02*
D03*
X457999Y652999D02*
D03*
X436750Y698488D02*
D03*
X471000Y645000D02*
D03*
X462500Y679500D02*
D03*
X1072163Y666753D02*
D03*
X1089915Y653006D02*
D03*
X1097919Y652995D02*
D03*
X1076670Y698485D02*
D03*
X1110920Y644997D02*
D03*
X1102420Y679497D02*
D03*
X372243Y666757D02*
D03*
X389995Y653009D02*
D03*
X397999Y652999D02*
D03*
X376750Y698488D02*
D03*
X411000Y645000D02*
D03*
X402500Y679500D02*
D03*
X1357757Y283243D02*
D03*
X1340006Y296991D02*
D03*
X1332002Y297001D02*
D03*
X1353250Y251512D02*
D03*
X1319001Y305000D02*
D03*
X1327500Y270500D02*
D03*
X1012163Y666753D02*
D03*
X1029915Y653006D02*
D03*
X1037919Y652995D02*
D03*
X1016670Y698485D02*
D03*
X1050920Y644997D02*
D03*
X1042420Y679497D02*
D03*
X312243Y666757D02*
D03*
X329995Y653009D02*
D03*
X337999Y652999D02*
D03*
X316750Y698488D02*
D03*
X351000Y645000D02*
D03*
X342500Y679500D02*
D03*
X952163Y666753D02*
D03*
X969915Y653006D02*
D03*
X977919Y652995D02*
D03*
X956670Y698485D02*
D03*
X990920Y644997D02*
D03*
X982420Y679497D02*
D03*
X1412000Y340000D02*
D03*
X1377000Y331247D02*
D03*
X1430988Y365750D02*
D03*
X1385509Y352505D02*
D03*
X258000Y355000D02*
D03*
X296778Y363753D02*
D03*
X239012Y329250D02*
D03*
X284491Y342495D02*
D03*
X284525Y352513D02*
D03*
X492243Y666757D02*
D03*
X517999Y652999D02*
D03*
X509995Y653009D02*
D03*
X481000Y601279D02*
D03*
X488000Y551999D02*
D03*
X1234000Y360000D02*
D03*
X1152697Y389504D02*
D03*
X538411Y359999D02*
D03*
X1180000Y599000D02*
D03*
X1187490Y600000D02*
D03*
X1302000Y490000D02*
D03*
X1310393D02*
D03*
X1184000Y350000D02*
D03*
X1192500Y349533D02*
D03*
X488000Y601279D02*
D03*
X496750Y348512D02*
D03*
X489000Y349005D02*
D03*
X611000Y447991D02*
D03*
X618470Y448000D02*
D03*
X611970Y470000D02*
D03*
X820957Y500250D02*
D03*
X822142Y446816D02*
D03*
X891032Y428000D02*
D03*
X488500Y398500D02*
D03*
X901000Y611000D02*
D03*
X845000Y606000D02*
D03*
X909000Y615000D02*
D03*
X836957Y608957D02*
D03*
X875000Y589000D02*
D03*
X932000Y480000D02*
D03*
X1025000D02*
D03*
X938000Y471000D02*
D03*
X814601Y609601D02*
D03*
X705518Y590482D02*
D03*
X633000Y514000D02*
D03*
X731000Y507000D02*
D03*
X725000Y501000D02*
D03*
X888000Y566000D02*
D03*
X887998Y551999D02*
D03*
X903499Y579501D02*
D03*
X813000Y584000D02*
D03*
X837000D02*
D03*
X845000D02*
D03*
X890000Y522000D02*
D03*
Y532000D02*
D03*
X843000Y292000D02*
D03*
X1203000Y483000D02*
D03*
Y503000D02*
D03*
X859000Y594000D02*
D03*
X880000Y580000D02*
D03*
X917000Y405000D02*
D03*
X955000Y401000D02*
D03*
X933340Y352660D02*
D03*
X1035827Y492827D02*
D03*
X1031000Y499000D02*
D03*
X1025000Y534000D02*
D03*
X1182476Y531476D02*
D03*
X1182000Y496000D02*
D03*
X1170000Y489000D02*
D03*
X1161000D02*
D03*
X892000Y487000D02*
D03*
X1196000Y560000D02*
D03*
X936000Y534000D02*
D03*
X1024000Y388000D02*
D03*
X1167252Y575273D02*
D03*
X1203741Y374755D02*
D03*
X1166998Y382498D02*
D03*
X828957Y519711D02*
D03*
X754431Y521072D02*
D03*
X518999Y532999D02*
D03*
X514836Y521476D02*
D03*
X475000Y425000D02*
D03*
X836957Y519803D02*
D03*
X754503Y529495D02*
D03*
X525999Y528999D02*
D03*
X484000Y425000D02*
D03*
X1333000Y496351D02*
D03*
Y488598D02*
D03*
X1188493Y565000D02*
D03*
X1204498Y575530D02*
D03*
X1302490Y511698D02*
D03*
X1182500Y383000D02*
D03*
X1197272Y398022D02*
D03*
X1310014Y511719D02*
D03*
X1282990Y518088D02*
D03*
X1276490Y513067D02*
D03*
X1295845Y518088D02*
D03*
X1376000Y586279D02*
D03*
X1268021Y434337D02*
D03*
X1259916Y428216D02*
D03*
X1253970Y434753D02*
D03*
X1248520Y512836D02*
D03*
X1254520Y517836D02*
D03*
X1260519Y512836D02*
D03*
X1267770Y517837D02*
D03*
X1289521Y513333D02*
D03*
X1302490Y428642D02*
D03*
X1295990Y434807D02*
D03*
X1289490Y428642D02*
D03*
X1282990Y434837D02*
D03*
X1276259Y428838D02*
D03*
X1329827Y440039D02*
D03*
X1354966Y486837D02*
D03*
X1359771Y464600D02*
D03*
X1349476D02*
D03*
X1337976Y464593D02*
D03*
X1354521Y441837D02*
D03*
X761000Y534000D02*
D03*
Y516000D02*
D03*
X519250Y560994D02*
D03*
X504503Y576000D02*
D03*
X504000Y568000D02*
D03*
X467257Y575743D02*
D03*
X844957Y519957D02*
D03*
X852957Y519913D02*
D03*
X605324Y476250D02*
D03*
X829048Y341287D02*
D03*
X838868Y434120D02*
D03*
X831000Y466000D02*
D03*
X847967Y446925D02*
D03*
X971477Y384327D02*
D03*
X785000Y556000D02*
D03*
X754601Y559399D02*
D03*
X730503Y559503D02*
D03*
X730902Y599000D02*
D03*
X754601Y599399D02*
D03*
X771000Y386000D02*
D03*
X866750Y425750D02*
D03*
X879450Y397450D02*
D03*
X853998Y396999D02*
D03*
X815950Y425950D02*
D03*
X841350Y425650D02*
D03*
X828650Y397650D02*
D03*
X803250Y397750D02*
D03*
X790550Y426550D02*
D03*
X777850Y417850D02*
D03*
Y408150D02*
D03*
X801003Y333003D02*
D03*
X811497Y322000D02*
D03*
X828339Y321000D02*
D03*
Y313000D02*
D03*
X892850Y381150D02*
D03*
Y390150D02*
D03*
X569999Y470999D02*
D03*
X557999D02*
D03*
X563999Y475999D02*
D03*
X577250Y476000D02*
D03*
X291000Y618904D02*
D03*
X585739Y387000D02*
D03*
X585970Y471230D02*
D03*
X592470Y476250D02*
D03*
X569396Y386379D02*
D03*
X563449Y392915D02*
D03*
X577500Y392500D02*
D03*
X531000Y645000D02*
D03*
X599000Y471495D02*
D03*
X664000Y400000D02*
D03*
X664445Y445000D02*
D03*
X658956Y422763D02*
D03*
X592470Y393000D02*
D03*
X611970Y386805D02*
D03*
X598970D02*
D03*
X605470Y392970D02*
D03*
X504876Y394374D02*
D03*
X669250Y422763D02*
D03*
X647456Y422756D02*
D03*
X639306Y398202D02*
D03*
X392252Y429251D02*
D03*
X382500D02*
D03*
X392252Y441751D02*
D03*
X383251D02*
D03*
X392500Y535751D02*
D03*
X383251D02*
D03*
X392500Y548251D02*
D03*
X383251D02*
D03*
X1228746Y380498D02*
D03*
X1239986Y380622D02*
D03*
X1166494Y374498D02*
D03*
X1136000Y590874D02*
D03*
X436000Y592000D02*
D03*
X533001Y380261D02*
D03*
X544241Y380385D02*
D03*
X1142247Y569530D02*
D03*
X1153746D02*
D03*
X1129995D02*
D03*
X1161995Y557530D02*
D03*
X1170372Y555418D02*
D03*
X470749Y374261D02*
D03*
X430000Y570000D02*
D03*
X462000Y558000D02*
D03*
X453751Y570000D02*
D03*
X442252D02*
D03*
X470377Y555888D02*
D03*
X496750Y698488D02*
D03*
X522500Y679500D02*
D03*
X1411998Y594993D02*
D03*
X1430986Y620743D02*
D03*
X1385507Y607498D02*
D03*
X239012Y584250D02*
D03*
X258000Y610000D02*
D03*
D52*
X235000Y602500D02*
D03*
X695000Y247503D02*
D03*
X974920Y702497D02*
D03*
X1435000Y347500D02*
D03*
X335000Y702500D02*
D03*
X635000Y247503D02*
D03*
X1034920Y702497D02*
D03*
X1335000Y247500D02*
D03*
X395000Y702500D02*
D03*
X575000Y247503D02*
D03*
X1094920Y702497D02*
D03*
X1275001Y247500D02*
D03*
X455000Y702500D02*
D03*
X515000Y247503D02*
D03*
X1154920Y702497D02*
D03*
X1215001Y247500D02*
D03*
X515000Y702500D02*
D03*
X455000Y247503D02*
D03*
X1214920Y702497D02*
D03*
X1155001Y247500D02*
D03*
X575000Y702500D02*
D03*
X395000Y247503D02*
D03*
X1274920Y702497D02*
D03*
X1095001Y247500D02*
D03*
X635000Y702500D02*
D03*
X335000Y247503D02*
D03*
X1334920Y702497D02*
D03*
X1035001Y247500D02*
D03*
X695000Y702500D02*
D03*
X235000Y347500D02*
D03*
X1434997Y602493D02*
D03*
X975001Y247500D02*
D03*
D53*
X629815Y577697D02*
D03*
Y552297D02*
D03*
X655215Y577697D02*
D03*
Y552297D02*
D03*
X680615Y577697D02*
D03*
Y552297D02*
D03*
X1072330Y554297D02*
D03*
Y579697D02*
D03*
X1046930D02*
D03*
Y554297D02*
D03*
X1021530Y579697D02*
D03*
Y554297D02*
D03*
X996130Y579697D02*
D03*
Y554297D02*
D03*
X919930D02*
D03*
Y579697D02*
D03*
X945330Y554297D02*
D03*
Y579697D02*
D03*
X970730Y554297D02*
D03*
Y579697D02*
D03*
D54*
X1365000Y382500D02*
D03*
X1370000Y217500D02*
D03*
X940000D02*
D03*
X940000Y317500D02*
D03*
X1365000Y567500D02*
D03*
X1370000Y732500D02*
D03*
X940000Y632500D02*
D03*
Y732500D02*
D03*
X730000Y632500D02*
D03*
Y732500D02*
D03*
X300000D02*
D03*
X305000Y567500D02*
D03*
X305000Y382500D02*
D03*
X300000Y217500D02*
D03*
X730000Y317500D02*
D03*
Y217500D02*
D03*
D55*
X1415000Y267500D02*
D03*
Y682500D02*
D03*
X895000Y267500D02*
D03*
Y682500D02*
D03*
X775000Y267500D02*
D03*
Y682500D02*
D03*
X255000D02*
D03*
Y267500D02*
D03*
M02*
