G04*
G04 #@! TF.GenerationSoftware,Altium Limited,Altium Designer,18.1.11 (251)*
G04*
G04 Layer_Physical_Order=4*
G04 Layer_Color=11367680*
%FSLAX44Y44*%
%MOMM*%
G71*
G01*
G75*
%ADD13R,0.5500X1.5000*%
%ADD14R,1.5000X0.5500*%
%ADD16R,0.9000X0.7000*%
%ADD26R,0.7500X0.7000*%
%ADD29C,0.1524*%
%ADD30C,0.4000*%
%ADD34C,0.2540*%
%ADD37C,0.2000*%
%ADD40R,0.4500X0.6000*%
%ADD42R,0.6000X0.4000*%
%ADD43R,0.8000X1.3000*%
%ADD46R,1.5000X1.5000*%
%ADD47C,1.5000*%
%ADD48C,1.5240*%
%ADD49R,1.5240X1.5240*%
%ADD50C,1.9500*%
%ADD51C,0.6000*%
%ADD52C,0.7000*%
%ADD53C,1.2700*%
%ADD54C,1.3000*%
%ADD55C,6.5000*%
%ADD56R,0.7000X0.5000*%
%ADD57R,0.5000X0.7000*%
%ADD58R,0.4000X0.6000*%
%ADD59R,1.2000X1.8000*%
%ADD60R,2.2000X1.6000*%
%ADD61R,1.8000X0.7000*%
%ADD62R,0.8000X0.6000*%
%ADD63R,1.3000X0.8000*%
%ADD64R,0.5000X0.2500*%
%ADD65R,0.9000X1.6000*%
%ADD66R,0.8500X0.3500*%
%ADD67R,3.7000X3.7000*%
%ADD68R,0.3300X1.0400*%
%ADD69R,1.0400X0.3300*%
%ADD70R,0.9000X0.5000*%
%ADD71R,0.6000X0.4500*%
%ADD72R,0.7366X2.2352*%
%ADD73R,2.2000X2.2000*%
%ADD74O,0.2393X0.8571*%
%ADD75O,0.8571X0.2393*%
%ADD76R,0.8571X0.2393*%
G36*
X681538Y695388D02*
X671000D01*
Y709866D01*
X681538D01*
Y695388D01*
D02*
G37*
G36*
X621538D02*
X611000D01*
Y709866D01*
X621538D01*
Y695388D01*
D02*
G37*
G36*
X561538D02*
X551000D01*
Y709866D01*
X561538D01*
Y695388D01*
D02*
G37*
G36*
X501538D02*
X491000D01*
Y709866D01*
X501538D01*
Y695388D01*
D02*
G37*
G36*
X441538D02*
X431000D01*
Y709866D01*
X441538D01*
Y695388D01*
D02*
G37*
G36*
X381538D02*
X371000D01*
Y709866D01*
X381538D01*
Y695388D01*
D02*
G37*
G36*
X321538D02*
X311000D01*
Y709866D01*
X321538D01*
Y695388D01*
D02*
G37*
G36*
X1321458Y695385D02*
X1310920D01*
Y709863D01*
X1321458D01*
Y695385D01*
D02*
G37*
G36*
X1261458D02*
X1250920D01*
Y709863D01*
X1261458D01*
Y695385D01*
D02*
G37*
G36*
X1201458D02*
X1190920D01*
Y709863D01*
X1201458D01*
Y695385D01*
D02*
G37*
G36*
X1141458D02*
X1130920D01*
Y709863D01*
X1141458D01*
Y695385D01*
D02*
G37*
G36*
X1081458D02*
X1070920D01*
Y709863D01*
X1081458D01*
Y695385D01*
D02*
G37*
G36*
X1021458D02*
X1010920D01*
Y709863D01*
X1021458D01*
Y695385D01*
D02*
G37*
G36*
X961458D02*
X950920D01*
Y709863D01*
X961458D01*
Y695385D01*
D02*
G37*
G36*
X719064Y695328D02*
X708526D01*
Y709806D01*
X719064D01*
Y695328D01*
D02*
G37*
G36*
X659064D02*
X648526D01*
Y709806D01*
X659064D01*
Y695328D01*
D02*
G37*
G36*
X599064D02*
X588526D01*
Y709806D01*
X599064D01*
Y695328D01*
D02*
G37*
G36*
X539064D02*
X528526D01*
Y709806D01*
X539064D01*
Y695328D01*
D02*
G37*
G36*
X479064D02*
X468526D01*
Y709806D01*
X479064D01*
Y695328D01*
D02*
G37*
G36*
X419064D02*
X408526D01*
Y709806D01*
X419064D01*
Y695328D01*
D02*
G37*
G36*
X359064D02*
X348526D01*
Y709806D01*
X359064D01*
Y695328D01*
D02*
G37*
G36*
X1358984Y695325D02*
X1348446D01*
Y709803D01*
X1358984D01*
Y695325D01*
D02*
G37*
G36*
X1298984D02*
X1288446D01*
Y709803D01*
X1298984D01*
Y695325D01*
D02*
G37*
G36*
X1238984D02*
X1228446D01*
Y709803D01*
X1238984D01*
Y695325D01*
D02*
G37*
G36*
X1178984D02*
X1168446D01*
Y709803D01*
X1178984D01*
Y695325D01*
D02*
G37*
G36*
X1118984D02*
X1108446D01*
Y709803D01*
X1118984D01*
Y695325D01*
D02*
G37*
G36*
X1058984D02*
X1048446D01*
Y709803D01*
X1058984D01*
Y695325D01*
D02*
G37*
G36*
X998984D02*
X988446D01*
Y709803D01*
X998984D01*
Y695325D01*
D02*
G37*
G36*
X242172Y626250D02*
X242250D01*
Y616000D01*
X227500D01*
Y626250D01*
X227694D01*
Y626564D01*
X242172D01*
Y626250D01*
D02*
G37*
G36*
X1442363Y615955D02*
X1427885D01*
Y626493D01*
X1442363D01*
Y615955D01*
D02*
G37*
G36*
X857000Y550000D02*
X874000D01*
Y545000D01*
X857000D01*
Y524117D01*
X855730Y523501D01*
X854722Y524175D01*
X852957Y524526D01*
X851192Y524175D01*
X849695Y523175D01*
X849578Y523000D01*
X848364D01*
X848218Y523218D01*
X846722Y524218D01*
X844957Y524569D01*
X843192Y524218D01*
X841695Y523218D01*
X841549Y523000D01*
X840262D01*
X840218Y523065D01*
X838722Y524064D01*
X836957Y524416D01*
X835192Y524064D01*
X833695Y523065D01*
X833652Y523000D01*
X832178D01*
X830722Y523973D01*
X828957Y524324D01*
X827192Y523973D01*
X825736Y523000D01*
X793000D01*
Y537000D01*
X775000D01*
Y542000D01*
X793000D01*
Y553000D01*
X775000D01*
Y558511D01*
X793000D01*
Y584000D01*
X808387D01*
X808738Y582235D01*
X809738Y580738D01*
X811235Y579739D01*
X813000Y579387D01*
X814765Y579739D01*
X816262Y580738D01*
X817262Y582235D01*
X817613Y584000D01*
X832387D01*
X832738Y582235D01*
X833738Y580738D01*
X835235Y579739D01*
X837000Y579387D01*
X838765Y579739D01*
X840262Y580738D01*
X840365Y580893D01*
X841635D01*
X841738Y580738D01*
X843235Y579739D01*
X845000Y579387D01*
X846765Y579739D01*
X848262Y580738D01*
X849261Y582235D01*
X849613Y584000D01*
X857000D01*
Y550000D01*
D02*
G37*
G36*
X242112Y589000D02*
X242500D01*
Y578750D01*
X242112D01*
Y578500D01*
X227634D01*
Y589038D01*
X242112D01*
Y589000D01*
D02*
G37*
G36*
X1442303Y578429D02*
X1427825D01*
Y588967D01*
X1442303D01*
Y578429D01*
D02*
G37*
G36*
X873000Y348000D02*
X868596Y348000D01*
X867523Y348527D01*
Y348527D01*
X866611Y349389D01*
X861000Y355000D01*
X845000Y355000D01*
Y365000D01*
X857000D01*
X857000Y365000D01*
X873000Y365000D01*
Y348000D01*
D02*
G37*
G36*
X898000Y363000D02*
X898000D01*
Y356000D01*
X877000Y356000D01*
Y365000D01*
X888000Y365000D01*
Y398000D01*
X898000D01*
Y363000D01*
D02*
G37*
G36*
X242172Y361026D02*
X227694D01*
Y371564D01*
X242172D01*
Y361026D01*
D02*
G37*
G36*
X1442366Y360962D02*
X1427888D01*
Y371500D01*
X1442366D01*
Y360962D01*
D02*
G37*
G36*
X883000Y354350D02*
X883000Y346000D01*
X898000Y346000D01*
X898000Y337898D01*
X897102Y337000D01*
X877000Y337000D01*
Y353080D01*
X878270Y354350D01*
X883000Y354350D01*
D02*
G37*
G36*
X826000Y330000D02*
X822523Y326524D01*
X822315D01*
Y326315D01*
X822000Y326000D01*
X813000D01*
Y336000D01*
X826000D01*
Y330000D01*
D02*
G37*
G36*
X242112Y323500D02*
X227634D01*
Y334038D01*
X242112D01*
Y323500D01*
D02*
G37*
G36*
X1442306Y323436D02*
X1427828D01*
Y333974D01*
X1442306D01*
Y323436D01*
D02*
G37*
G36*
X855000Y318000D02*
X835000D01*
Y325000D01*
X834363Y325637D01*
Y326524D01*
X833476D01*
X830000Y330000D01*
X830000D01*
Y336000D01*
X845000D01*
Y347000D01*
X855000D01*
Y318000D01*
D02*
G37*
G36*
X821709D02*
X806000D01*
Y326000D01*
X821709D01*
Y318000D01*
D02*
G37*
G36*
X681474Y240197D02*
X670936D01*
Y254675D01*
X681474D01*
Y240197D01*
D02*
G37*
G36*
X621474D02*
X610936D01*
Y254675D01*
X621474D01*
Y240197D01*
D02*
G37*
G36*
X561474D02*
X550936D01*
Y254675D01*
X561474D01*
Y240197D01*
D02*
G37*
G36*
X501474D02*
X490936D01*
Y254675D01*
X501474D01*
Y240197D01*
D02*
G37*
G36*
X441474D02*
X430936D01*
Y254675D01*
X441474D01*
Y240197D01*
D02*
G37*
G36*
X381474D02*
X370936D01*
Y254675D01*
X381474D01*
Y240197D01*
D02*
G37*
G36*
X321474D02*
X310936D01*
Y254675D01*
X321474D01*
Y240197D01*
D02*
G37*
G36*
X1321474Y240194D02*
X1310936D01*
Y254672D01*
X1321474D01*
Y240194D01*
D02*
G37*
G36*
X1261475D02*
X1250937D01*
Y254672D01*
X1261475D01*
Y240194D01*
D02*
G37*
G36*
X1201475D02*
X1190937D01*
Y254672D01*
X1201475D01*
Y240194D01*
D02*
G37*
G36*
X1141475D02*
X1130937D01*
Y254672D01*
X1141475D01*
Y240194D01*
D02*
G37*
G36*
X1081475D02*
X1070937D01*
Y254672D01*
X1081475D01*
Y240194D01*
D02*
G37*
G36*
X1021475D02*
X1010937D01*
Y254672D01*
X1021475D01*
Y240194D01*
D02*
G37*
G36*
X961475D02*
X950937D01*
Y254672D01*
X961475D01*
Y240194D01*
D02*
G37*
G36*
X719000Y240137D02*
X708462D01*
Y254615D01*
X719000D01*
Y240137D01*
D02*
G37*
G36*
X659000D02*
X648462D01*
Y254615D01*
X659000D01*
Y240137D01*
D02*
G37*
G36*
X599000D02*
X588462D01*
Y254615D01*
X599000D01*
Y240137D01*
D02*
G37*
G36*
X539000D02*
X528462D01*
Y254615D01*
X539000D01*
Y240137D01*
D02*
G37*
G36*
X479000D02*
X468462D01*
Y254615D01*
X479000D01*
Y240137D01*
D02*
G37*
G36*
X419000D02*
X408462D01*
Y254615D01*
X419000D01*
Y240137D01*
D02*
G37*
G36*
X359000D02*
X348462D01*
Y254615D01*
X359000D01*
Y240137D01*
D02*
G37*
G36*
X1359001Y240134D02*
X1348463D01*
Y254612D01*
X1359001D01*
Y240134D01*
D02*
G37*
G36*
X1299001D02*
X1288463D01*
Y254612D01*
X1299001D01*
Y240134D01*
D02*
G37*
G36*
X1239000D02*
X1228463D01*
Y254612D01*
X1239000D01*
Y240134D01*
D02*
G37*
G36*
X1179000D02*
X1168463D01*
Y254612D01*
X1179000D01*
Y240134D01*
D02*
G37*
G36*
X1119000D02*
X1108463D01*
Y254612D01*
X1119000D01*
Y240134D01*
D02*
G37*
G36*
X1059000D02*
X1048463D01*
Y254612D01*
X1059000D01*
Y240134D01*
D02*
G37*
G36*
X999000D02*
X988463D01*
Y254612D01*
X999000D01*
Y240134D01*
D02*
G37*
%LPC*%
G36*
X890996Y344570D02*
X890012Y344374D01*
X889177Y343816D01*
X888619Y342981D01*
X888423Y341996D01*
Y341499D01*
X888619Y340515D01*
X889177Y339680D01*
X890012Y339122D01*
X890996Y338926D01*
X891981Y339122D01*
X892816Y339680D01*
X893374Y340515D01*
X893570Y341499D01*
Y341996D01*
X893374Y342981D01*
X892816Y343816D01*
X891981Y344374D01*
X890996Y344570D01*
D02*
G37*
%LPD*%
D13*
X796957Y594750D02*
D03*
X804957D02*
D03*
X812957D02*
D03*
X820957D02*
D03*
X828957D02*
D03*
X836957D02*
D03*
X844957D02*
D03*
X852957D02*
D03*
Y508750D02*
D03*
X844957D02*
D03*
X836957D02*
D03*
X828957D02*
D03*
X820957D02*
D03*
X812957D02*
D03*
X804957D02*
D03*
X796957D02*
D03*
D14*
X781957Y523750D02*
D03*
Y531750D02*
D03*
Y539750D02*
D03*
Y547750D02*
D03*
Y555750D02*
D03*
Y563750D02*
D03*
Y571750D02*
D03*
Y579750D02*
D03*
X867957D02*
D03*
Y571750D02*
D03*
Y563750D02*
D03*
Y555750D02*
D03*
Y547750D02*
D03*
Y539750D02*
D03*
Y531750D02*
D03*
Y523750D02*
D03*
D16*
X1012895Y371658D02*
D03*
Y386658D02*
D03*
X979761D02*
D03*
Y371658D02*
D03*
X996328Y386658D02*
D03*
Y371658D02*
D03*
X930059Y386658D02*
D03*
Y371658D02*
D03*
X946626Y386658D02*
D03*
Y371658D02*
D03*
X963194Y386658D02*
D03*
Y371658D02*
D03*
D26*
X1066775Y390911D02*
D03*
Y358911D02*
D03*
X1050275D02*
D03*
Y390911D02*
D03*
D29*
X602204Y885813D02*
X604597D01*
X602130Y885886D02*
X602204Y885813D01*
D30*
X555140Y812560D02*
X556023D01*
X583963Y840500D01*
X605126D02*
X621269Y856644D01*
X583963Y840500D02*
X605126D01*
X621269Y856644D02*
Y892909D01*
X556602Y825768D02*
X563966Y833132D01*
X615745Y858932D02*
Y885476D01*
X610420Y853607D02*
X615745Y858932D01*
X578617Y853607D02*
X610420D01*
X563966Y838956D02*
X578617Y853607D01*
X539974Y822776D02*
X595368Y878170D01*
X539970Y822720D02*
X540000Y822750D01*
X640056Y847358D02*
Y882758D01*
X613070Y909744D02*
X640056Y882758D01*
X605668Y909744D02*
X613070D01*
X595368Y878170D02*
X605138D01*
X310544Y892950D02*
X330141D01*
X280438Y862844D02*
X310544Y892950D01*
X280438Y842274D02*
Y862844D01*
X283360Y806759D02*
X328359D01*
X257563D02*
X283360D01*
X314680Y879440D02*
X327810D01*
X288266Y853026D02*
X314680Y879440D01*
X288266Y837462D02*
Y853026D01*
X273374Y880044D02*
X296488Y903158D01*
X273374Y847024D02*
Y880044D01*
X253706Y827356D02*
X273374Y847024D01*
X243546Y827356D02*
X253706D01*
X259996Y821832D02*
X280438Y842274D01*
X251992Y821832D02*
X259996D01*
X280820Y830016D02*
X288266Y837462D01*
X262866Y848842D02*
Y860820D01*
Y848842D02*
X263040Y848668D01*
Y846047D02*
Y848668D01*
X249873Y832880D02*
X263040Y846047D01*
X262866Y879362D02*
X293854Y910350D01*
X228750Y832880D02*
X249873D01*
X262866Y860820D02*
Y879362D01*
X260500Y809696D02*
X280820Y830016D01*
X257563Y806759D02*
X260500Y809696D01*
X296488Y903158D02*
X307490D01*
X328318D01*
X329080Y902396D01*
X254150Y803346D02*
X257563Y806759D01*
X254150Y789700D02*
Y803346D01*
Y789700D02*
X254785Y789065D01*
X247800Y785890D02*
Y817640D01*
X249070Y818910D01*
X233830Y771920D02*
X247800Y785890D01*
X328359Y806759D02*
X333190Y811590D01*
X249070Y818910D02*
X251992Y821832D01*
X240295Y824105D02*
X243546Y827356D01*
X240295Y817005D02*
Y824105D01*
X333190Y811590D02*
Y822720D01*
X293854Y910350D02*
X325270D01*
X617370Y896808D02*
X621269Y892909D01*
X611191Y890030D02*
X615745Y885476D01*
X640056Y847358D02*
X649454Y837960D01*
X556410Y825768D02*
Y825960D01*
X612743Y896808D02*
X617370D01*
X604670Y908746D02*
X605668Y909744D01*
X605544Y896696D02*
X612631D01*
X605432Y896808D02*
X605544Y896696D01*
X611020Y889930D02*
Y890030D01*
X610437Y889346D02*
X611020Y889930D01*
Y890030D02*
X611191D01*
X612631Y896696D02*
X612743Y896808D01*
X556410Y825960D02*
Y826530D01*
Y825960D02*
X556602Y825768D01*
X544980Y814338D02*
X556410Y825768D01*
X496720Y811290D02*
X517040D01*
X563966Y833132D02*
Y838956D01*
X544980Y801130D02*
Y814338D01*
X330141Y892950D02*
X331037Y892054D01*
X850996Y296004D02*
Y302321D01*
Y296004D02*
X851000Y296000D01*
D34*
X563456Y941766D02*
X602620Y902602D01*
X557680Y941766D02*
X563456D01*
X631340Y981470D02*
X633306D01*
X652930Y880204D02*
Y961846D01*
Y874790D02*
Y880204D01*
X618593Y914540D02*
X652930Y880204D01*
X605138Y914540D02*
X618593D01*
X633306Y981470D02*
X652930Y961846D01*
X501552Y1147840D02*
X511846Y1158134D01*
X645286Y1047510D02*
X659280D01*
X639516Y1053280D02*
X645286Y1047510D01*
X668085Y1061822D02*
X671293Y1065030D01*
X671452Y1053694D02*
X674660Y1056902D01*
X645310Y1055680D02*
X647296Y1053694D01*
X669769Y1057758D02*
X672977Y1060966D01*
X647710Y1061474D02*
X651426Y1057758D01*
X666402Y1065886D02*
X669610Y1069094D01*
X651077Y1069602D02*
X654793Y1065886D01*
X666402D01*
X653109Y1061822D02*
X668085D01*
X649393Y1065538D02*
X653109Y1061822D01*
X651426Y1057758D02*
X669769D01*
X647296Y1053694D02*
X671452D01*
X643664Y1043384D02*
X650132D01*
X663786Y1029730D01*
X664360D01*
X635452Y1051596D02*
Y1059763D01*
Y1051596D02*
X643664Y1043384D01*
X410360Y876206D02*
X410584Y875982D01*
Y856606D02*
Y875982D01*
X386230Y877505D02*
X398168Y865566D01*
X386230Y877505D02*
Y966230D01*
X663726Y863994D02*
X681124D01*
X678724Y869788D02*
X683524D01*
X676994Y868058D02*
X678724Y869788D01*
X667447Y868058D02*
X676994D01*
X657335Y878170D02*
X667447Y868058D01*
X689760Y848120D02*
X715974D01*
X683966Y845720D02*
X696806Y832880D01*
X683524Y869788D02*
X687429Y865883D01*
X696806Y832880D02*
X728796D01*
X687360Y855184D02*
X691666D01*
Y865883D01*
X687429D02*
X691666D01*
X683966Y845720D02*
Y851790D01*
X715974Y848120D02*
X756054Y888200D01*
X391056Y887744D02*
X400200Y878600D01*
X411630Y895110D02*
X414460D01*
X412115Y903944D02*
X415384D01*
X410360Y912890D02*
X415440D01*
X411630Y920510D02*
Y920539D01*
X416154Y927416D02*
X417980Y925590D01*
X410500Y927416D02*
X416154D01*
X405976Y931940D02*
X410500Y927416D01*
X408179Y937931D02*
X412900Y933210D01*
X429016Y896070D02*
X442618Y909672D01*
X429016Y866777D02*
Y896070D01*
X433220Y892669D02*
X446142Y905591D01*
X433220Y862786D02*
Y892669D01*
X446142Y838674D02*
Y905591D01*
X410360Y848120D02*
X429016Y866777D01*
X404566Y845720D02*
Y850587D01*
Y845720D02*
X407960Y842326D01*
X404566Y850587D02*
X410584Y856606D01*
X412760Y842326D02*
X433220Y862786D01*
X407960Y842326D02*
X412760D01*
X409090Y885579D02*
Y885813D01*
X414460Y895110D02*
X414950Y894620D01*
X409090Y885579D02*
X412778D01*
X438554Y911355D01*
X391056Y887744D02*
Y1047256D01*
X376070Y976390D02*
X386230Y966230D01*
X414950Y894620D02*
X434490Y914160D01*
X491338Y969831D02*
Y972882D01*
X425600Y926860D02*
X488544Y989804D01*
X425600Y923050D02*
Y926860D01*
X429664Y924545D02*
X487557Y982438D01*
X429664Y918224D02*
Y924545D01*
X434490Y923624D02*
X489240Y978374D01*
X434490Y914160D02*
Y923624D01*
X415440Y912890D02*
X425600Y923050D01*
X415384Y903944D02*
X429664Y918224D01*
X438554Y911355D02*
Y917047D01*
X405976Y931940D02*
Y934387D01*
X404010Y936353D02*
X405976Y934387D01*
X399376Y911334D02*
X399685D01*
X446682Y913613D02*
X500427Y967358D01*
X446682Y906131D02*
Y913613D01*
X446142Y905591D02*
X446682Y906131D01*
X500427Y967358D02*
X533712D01*
X489240Y978374D02*
X528312D01*
X438554Y917047D02*
X491338Y969831D01*
X442618Y909672D02*
Y915364D01*
X536472Y971692D02*
X544980Y980200D01*
X532298Y971692D02*
X536472D01*
X532028Y971422D02*
X532298Y971692D01*
X552600Y977660D02*
Y984010D01*
X542568Y967628D02*
X552600Y977660D01*
X533982Y967628D02*
X542568D01*
X566570Y1027141D02*
Y1032270D01*
Y1027141D02*
X591873Y1001838D01*
X442618Y915364D02*
X498676Y971422D01*
X532028D01*
X529026Y977660D02*
X529740D01*
X528312Y978374D02*
X529026Y977660D01*
X533712Y967358D02*
X533982Y967628D01*
X446142Y838674D02*
X450986Y833831D01*
X487557Y982438D02*
X488116D01*
X544980Y980200D02*
Y987820D01*
X602620Y902602D02*
X609311D01*
X567530Y952147D02*
X605138Y914540D01*
X335478Y902028D02*
X344320Y893186D01*
Y884950D02*
Y893186D01*
X579032Y1118680D02*
X586335D01*
X571555Y1126156D02*
X579032Y1118680D01*
X477532Y1126250D02*
X569110D01*
X569204Y1126156D01*
X571555D01*
X471182Y1119900D02*
X477532Y1126250D01*
X438856Y1081827D02*
X479121Y1122092D01*
X569872D02*
X595638Y1096326D01*
X479121Y1122092D02*
X569872D01*
X595638Y1096326D02*
X630128D01*
X568189Y1118028D02*
X593955Y1092262D01*
X480804Y1118028D02*
X568189D01*
X593955Y1092262D02*
X634153D01*
X444650Y1081874D02*
X480804Y1118028D01*
X482488Y1113964D02*
X565460D01*
X450032Y1081508D02*
X482488Y1113964D01*
X638035Y1150006D02*
X682436Y1105606D01*
Y1074476D02*
Y1105606D01*
X677054Y1069094D02*
X682436Y1074476D01*
X639719Y1154070D02*
X686500Y1107289D01*
Y1072792D02*
Y1107289D01*
X678737Y1065030D02*
X686500Y1072792D01*
X669610Y1069094D02*
X677054D01*
X639543Y1069602D02*
X651077D01*
X631388Y1061446D02*
X639543Y1069602D01*
X658566Y1027330D02*
X661960Y1023936D01*
X662380D01*
X645507Y1037822D02*
X648074D01*
X658566Y1027330D01*
Y1027330D02*
Y1027330D01*
X657247Y1019410D02*
X661158D01*
X656073Y1018236D02*
X657247Y1019410D01*
X651273Y1018236D02*
X656073D01*
X650098Y1019410D02*
X651273Y1018236D01*
X625527Y1019410D02*
X650098D01*
X631388Y1047660D02*
X639728Y1039320D01*
X644009D01*
X645507Y1037822D01*
X641609Y1029839D02*
Y1033526D01*
X636832Y1025062D02*
X641609Y1029839D01*
X662380Y1023936D02*
X664206Y1022110D01*
X681143Y1060966D02*
X682365Y1059744D01*
X672977Y1060966D02*
X681143D01*
X680682Y1055680D02*
X695560D01*
X679460Y1056902D02*
X680682Y1055680D01*
X674660Y1056902D02*
X679460D01*
X671293Y1065030D02*
X678737D01*
X690564Y1067942D02*
Y1108972D01*
X682365Y1059744D02*
X690564Y1067942D01*
X695560Y1055680D02*
X695835Y1055405D01*
Y1109448D01*
X688490Y1038620D02*
X706270Y1056400D01*
Y1064413D01*
X643085Y1162198D02*
X695835Y1109448D01*
X520294Y1073417D02*
Y1085470D01*
Y1073417D02*
X555647Y1038064D01*
X609311Y902602D02*
X609929Y903220D01*
X495450Y812560D02*
X496720Y811290D01*
X572333Y1027126D02*
X593556Y1005902D01*
X572333Y1027126D02*
Y1029839D01*
X591873Y1001838D02*
X620525D01*
X598320Y1011950D02*
X604040D01*
X606024Y1009966D01*
X616082D01*
X656330Y1010297D02*
X666107Y1000520D01*
X632801Y1010297D02*
X656330D01*
X628660Y1006156D02*
X632801Y1010297D01*
X631340Y981470D02*
X632444Y982574D01*
X624843Y1006156D02*
X628660D01*
X626526Y1002092D02*
X630343D01*
X628209Y998028D02*
X632027D01*
X629893Y993964D02*
X633710D01*
X631576Y989900D02*
X635393D01*
X627258Y985582D02*
X631576Y989900D01*
X625575Y989646D02*
X629893Y993964D01*
X623891Y993710D02*
X628209Y998028D01*
X622208Y997774D02*
X626526Y1002092D01*
X620525Y1001838D02*
X624843Y1006156D01*
X618841Y1005902D02*
X624889Y1011950D01*
X626260D01*
X593556Y1005902D02*
X618841D01*
X590190Y997774D02*
X622208D01*
X587350Y993710D02*
X623891D01*
X583950Y989646D02*
X625575D01*
X581410Y985582D02*
X627258D01*
X616082Y1009966D02*
X625527Y1019410D01*
X635393Y989900D02*
X639534Y994041D01*
X637851Y998105D02*
X651280D01*
X633710Y993964D02*
X637851Y998105D01*
X636168Y1002169D02*
X652963D01*
X632027Y998028D02*
X636168Y1002169D01*
X634484Y1006233D02*
X654647D01*
X630343Y1002092D02*
X634484Y1006233D01*
X639673Y983337D02*
Y985985D01*
X639534Y994041D02*
X649597D01*
X611020Y1015760D02*
Y1017218D01*
X647197Y988247D02*
X648656D01*
X647197D02*
X648656D01*
X652851Y990787D02*
X691036Y952602D01*
X652851Y990787D02*
X652851Y990787D01*
X649597Y994041D02*
X652851Y990787D01*
X651280Y998105D02*
X703222Y946163D01*
X652963Y1002169D02*
X707286Y947846D01*
X654647Y1006233D02*
X711350Y949530D01*
X666107Y1000520D02*
X736147D01*
X663090Y1011950D02*
X663344D01*
X667040Y1016316D02*
X675838D01*
X665612Y1017744D02*
X667040Y1016316D01*
X662824Y1017744D02*
X665612D01*
X661158Y1019410D02*
X662824Y1017744D01*
X664206Y1022110D02*
X669440D01*
X677060Y1032270D02*
Y1051108D01*
X681426Y1039750D02*
X687220Y1045544D01*
X681426Y1036098D02*
Y1039750D01*
Y1036098D02*
X687220Y1030304D01*
Y1045544D02*
Y1046288D01*
X646867Y984297D02*
Y986263D01*
Y984297D02*
X659915Y971249D01*
X639653Y983317D02*
X639673Y983337D01*
X639653Y983317D02*
X657335Y965635D01*
X646867Y986263D02*
X648754Y988150D01*
X611020Y1017218D02*
X618864Y1025062D01*
X703222Y933369D02*
Y946163D01*
X707286Y929239D02*
Y947846D01*
X711350Y927556D02*
Y949530D01*
X618864Y1025062D02*
X636832D01*
X648656Y988247D02*
X648754Y988150D01*
X648656Y988247D02*
X648754Y988150D01*
X647154Y986550D02*
X648754Y988150D01*
X659915Y971017D02*
Y971249D01*
X663344Y1011950D02*
X670710Y1004584D01*
X737831D02*
X756054Y986361D01*
X670710Y1004584D02*
X737831D01*
X756054Y888200D02*
Y986361D01*
X736147Y1000520D02*
X751990Y984677D01*
Y889884D02*
Y984677D01*
X691230Y873720D02*
X735826D01*
X751990Y889884D01*
X746910Y893284D02*
Y984010D01*
X736081Y893284D02*
X746910D01*
X618335Y1102600D02*
Y1130365D01*
X578630Y1130736D02*
X617964D01*
X618335Y1130365D01*
X604670Y1136530D02*
Y1139673D01*
X610762Y1145765D01*
X636529D01*
X668170Y1114124D01*
Y1111010D02*
Y1114124D01*
X537994Y1162198D02*
X643085D01*
X511846Y1158134D02*
X641402D01*
X603160Y1154070D02*
X639719D01*
X609256Y1150006D02*
X638035D01*
X641402Y1158134D02*
X690564Y1108972D01*
X643542Y1109740D02*
X657335D01*
X643995Y1102104D02*
X644100D01*
X656740Y1117360D02*
X658605D01*
X575496Y1133870D02*
X578630Y1130736D01*
X630128Y1096326D02*
X643542Y1109740D01*
X630654Y1102600D02*
X643589Y1115534D01*
X634153Y1092262D02*
X643995Y1102104D01*
X643589Y1115534D02*
X656779D01*
X513998Y1186194D02*
X537994Y1162198D01*
X677060Y1051108D02*
X677568Y1051616D01*
X639516Y1058080D02*
X642910Y1061474D01*
X647710D01*
X635452Y1059763D02*
X641227Y1065538D01*
X649393D01*
X639516Y1053280D02*
Y1058080D01*
X631388Y1047660D02*
Y1061446D01*
X675838Y1016316D02*
X687220Y1027698D01*
Y1030304D01*
X712620Y994170D02*
X716986Y989804D01*
Y986597D02*
Y989804D01*
Y986597D02*
X723637Y979946D01*
X737465D01*
X741830Y975581D01*
Y898920D02*
Y975581D01*
X740988Y898078D02*
X741830Y898920D01*
X689760Y898078D02*
X740988D01*
X690229Y890554D02*
X690754Y891080D01*
X677840Y883902D02*
X694538D01*
X560934Y1006058D02*
X581410Y985582D01*
X564998Y1008598D02*
X583950Y989646D01*
X520440Y1060620D02*
X587350Y993710D01*
X523279Y1064684D02*
X590190Y997774D01*
X610335Y1029815D02*
X614719D01*
X617584Y1032680D01*
X626335D01*
X600090Y1019570D02*
X610335Y1029815D01*
X691036Y930676D02*
Y952602D01*
X663344Y1011950D02*
X664360Y1012966D01*
X684680Y912890D02*
Y946252D01*
X659915Y971017D02*
X684680Y946252D01*
X657335Y878170D02*
Y965635D01*
X652930Y874790D02*
X663726Y863994D01*
X725320Y984010D02*
X746910D01*
X722780Y986550D02*
Y989090D01*
Y986550D02*
X725320Y984010D01*
X733876Y891080D02*
X736081Y893284D01*
X690754Y891080D02*
X733876D01*
X730482Y879492D02*
X738481Y887490D01*
X698948Y879492D02*
X730482D01*
X694538Y883902D02*
X698948Y879492D01*
X595780Y1136530D02*
X609256Y1150006D01*
X585620Y1136530D02*
X603160Y1154070D01*
X656779Y1115534D02*
X658605Y1117360D01*
X618335Y1102600D02*
X630654D01*
X555140Y1053860D02*
Y1088150D01*
X542440Y1057018D02*
X551779Y1047680D01*
X560115D01*
X518125Y1056556D02*
X564998Y1009683D01*
X516442Y1052492D02*
X560934Y1008000D01*
X549610Y1061952D02*
X551076Y1063417D01*
Y1092373D01*
X540710Y1058748D02*
X542440Y1057018D01*
X560115Y1047680D02*
X567565Y1055130D01*
X551076Y1092373D02*
X552600Y1093897D01*
X555140Y1088150D02*
X556410Y1089420D01*
X584350Y1044970D02*
Y1048084D01*
X572413Y1060021D02*
X584350Y1048084D01*
X540710Y1058748D02*
Y1062656D01*
X572413Y1060021D02*
Y1099769D01*
X567565Y1055130D02*
X569110D01*
X555140Y1090690D02*
X556410Y1089420D01*
X555647Y1038064D02*
X568970D01*
X534838Y1015046D02*
X567530Y982354D01*
X490230Y1015046D02*
X534838D01*
X516319Y1064684D02*
X523279D01*
X572333Y1029839D02*
X572364Y1029870D01*
X564998Y1008598D02*
Y1009683D01*
X513670Y1060620D02*
X520440D01*
X511493Y1056556D02*
X518125D01*
X572364Y1029870D02*
Y1034670D01*
X568970Y1038064D02*
X572364Y1034670D01*
X560934Y1006058D02*
Y1008000D01*
X509420Y1052492D02*
X516442D01*
X504546Y1069744D02*
X513670Y1060620D01*
X508610Y1072393D02*
X516319Y1064684D01*
X555140Y1005600D02*
Y1006870D01*
X513582Y1048428D02*
X555140Y1006870D01*
X536814Y984010D02*
X537360D01*
X538186Y989804D02*
X543822Y995440D01*
X488544Y989804D02*
X538186D01*
X543822Y995440D02*
X546250D01*
X491338Y972882D02*
X491640Y972580D01*
X488116Y982438D02*
X489100Y983422D01*
Y983756D02*
X535620D01*
X552600Y1093897D02*
Y1094500D01*
X553203D01*
X562093Y1103390D01*
X567840D01*
X565460Y1113964D02*
X573634Y1105790D01*
Y1100990D02*
Y1105790D01*
X572413Y1099769D02*
X573634Y1100990D01*
X567530Y952147D02*
Y982354D01*
X536090Y983286D02*
X536814Y984010D01*
X535620Y983756D02*
X536090Y983286D01*
X560220Y1095770D02*
X566570D01*
X555140Y1090690D02*
X560220Y1095770D01*
X514500Y1091264D02*
X520294Y1085470D01*
X514500Y1091264D02*
Y1091960D01*
X489100Y983422D02*
Y983756D01*
X399946Y932223D02*
X411630Y920539D01*
X341272Y904428D02*
Y931178D01*
X325604Y946846D02*
X341272Y931178D01*
X281700Y946846D02*
X325604D01*
X278280Y943426D02*
X281700Y946846D01*
X264310Y922811D02*
X270819Y929320D01*
X264310Y907276D02*
Y922811D01*
X270819Y929320D02*
X330350D01*
X337208Y922462D01*
Y908558D02*
Y922462D01*
X335478Y906828D02*
X337208Y908558D01*
X335478Y902028D02*
Y906828D01*
X487548Y1082778D02*
X491780Y1078546D01*
X486560Y1082778D02*
X487548D01*
X491780Y1078546D02*
X492128D01*
X486997Y1075013D02*
X492354Y1069656D01*
Y1063811D02*
Y1069656D01*
X494180Y1084340D02*
X500482Y1078038D01*
X494180Y1093230D02*
X504546Y1082864D01*
X492128Y1078546D02*
X496418Y1074256D01*
X504546Y1069744D02*
Y1082864D01*
X496418Y1065714D02*
Y1074256D01*
X492354Y1063811D02*
X507737Y1048428D01*
X513582D01*
X493475Y1104095D02*
X508610Y1088960D01*
X500482Y1067567D02*
Y1078038D01*
X508610Y1072393D02*
Y1088960D01*
X500482Y1067567D02*
X511493Y1056556D01*
X496418Y1065714D02*
X509420Y1052711D01*
X477924Y1056597D02*
X486560Y1065233D01*
X450032Y1061207D02*
Y1081508D01*
X444650Y1057670D02*
Y1081874D01*
X438856Y1055270D02*
Y1081827D01*
Y1055270D02*
X444076Y1050050D01*
X477924Y1024339D02*
Y1056597D01*
Y1024339D02*
X480766Y1021497D01*
Y1017170D02*
Y1021497D01*
Y1017170D02*
X484160Y1013776D01*
X488960D01*
X490230Y1015046D01*
X522120Y1019570D02*
X523390Y1020840D01*
X501800Y1025920D02*
X514500D01*
X486560Y1019570D02*
X522120D01*
X683966Y851790D02*
X687360Y855184D01*
X474618Y1133870D02*
X575496D01*
X455314Y1153174D02*
X474618Y1133870D01*
X440840Y1119900D02*
X471182D01*
X444076Y1050050D02*
X445920D01*
X443520Y1044256D02*
X448320D01*
X442806Y1044970D02*
X443520Y1044256D01*
X429948Y1044970D02*
X442806D01*
X431821Y1052590D02*
X433220D01*
X426870Y1053860D02*
Y1058940D01*
X404010Y1031000D02*
X426870Y1053860D01*
X448320Y1044256D02*
X451714Y1047650D01*
X414170Y1084340D02*
X417980Y1080530D01*
Y1074180D02*
Y1080530D01*
X391056Y1047256D02*
X417980Y1074180D01*
X398772Y910730D02*
X399376Y911334D01*
X395120Y914382D02*
X398772Y910730D01*
X395120Y914382D02*
Y1037547D01*
X451714Y1047650D02*
Y1059525D01*
X450032Y1061207D02*
X451714Y1059525D01*
X419767Y1054000D02*
Y1062233D01*
X399946Y1034179D02*
X419767Y1054000D01*
X395120Y1037547D02*
X413973Y1056400D01*
X419250Y1062750D02*
X419767Y1062233D01*
X408179Y1028948D02*
X431821Y1052590D01*
X420520Y1032721D02*
Y1035542D01*
X441856Y1153174D02*
X455314D01*
X425600Y1169430D02*
X441856Y1153174D01*
X425600Y1169430D02*
Y1175780D01*
X691030Y930670D02*
X691036Y930676D01*
X698554Y928701D02*
X703222Y933369D01*
X691056Y918144D02*
X691204D01*
X691744Y918684D01*
X696731D01*
X707286Y929239D01*
X698650Y912890D02*
Y914856D01*
X711350Y927556D01*
X684680Y912890D02*
X691030Y906540D01*
X594510Y893506D02*
X602130Y885886D01*
X558950Y893506D02*
X594510D01*
X399946Y932223D02*
Y1034179D01*
X349400Y1147840D02*
X357532D01*
X395886Y1186194D01*
X513998D01*
X420520Y1035542D02*
X429948Y1044970D01*
X404010Y936353D02*
Y1031000D01*
X408179Y937931D02*
Y1028948D01*
X486560Y1104095D02*
X493475D01*
X509420Y1052492D02*
Y1052711D01*
X748067Y1078600D02*
X760880Y1065788D01*
X718190Y1078600D02*
X748067D01*
D37*
X772000Y548000D02*
X783000D01*
X270000Y578000D02*
X270743Y578743D01*
Y585005D01*
X1395000Y337000D02*
Y349980D01*
X1318449Y656264D02*
Y666753D01*
X1258449Y656264D02*
Y666753D01*
X1198449Y656264D02*
Y666753D01*
X1138449Y656264D02*
Y666753D01*
X1078449Y656264D02*
Y666753D01*
X1018449Y656264D02*
Y666753D01*
X1186748Y558299D02*
X1188493Y560044D01*
X1186748Y543525D02*
Y558299D01*
X958449Y656264D02*
Y666753D01*
X1399257Y363000D02*
X1400000D01*
X1389015D02*
X1399257D01*
X1329827Y440039D02*
X1338264D01*
X1351472Y283243D02*
Y293732D01*
X1291472Y283243D02*
Y293732D01*
X1231472Y283243D02*
Y293732D01*
X1184502Y391987D02*
Y406245D01*
X1182500Y389984D02*
X1184502Y391987D01*
X1171472Y283243D02*
Y293732D01*
X1111472Y283243D02*
Y293732D01*
X1051472Y283243D02*
Y293732D01*
X991472Y283243D02*
Y293732D01*
X678529Y656268D02*
Y666757D01*
X618529Y656268D02*
Y666757D01*
X558529Y656268D02*
Y666757D01*
X498529Y656268D02*
Y666757D01*
X602210Y487465D02*
X604750D01*
X438529Y656268D02*
Y666757D01*
X378529Y656268D02*
Y666757D01*
X318529Y656268D02*
Y666757D01*
X486495Y557495D02*
X488000Y559000D01*
X639306Y398202D02*
X647744D01*
X711471Y283246D02*
Y293735D01*
X651471Y283246D02*
Y293735D01*
X591471Y283246D02*
Y293735D01*
X531471Y283246D02*
Y293735D01*
X488757Y391750D02*
Y391757D01*
X488000Y391000D02*
X488757Y391757D01*
X486755Y389747D02*
X488757Y391750D01*
X411471Y283246D02*
Y293735D01*
X270234Y330496D02*
X270743Y331005D01*
X351471Y283246D02*
Y293735D01*
X471471Y283246D02*
Y293735D01*
X1395000Y349980D02*
X1397009Y351989D01*
X1399987Y371000D02*
X1400000Y370987D01*
Y364738D02*
Y370987D01*
X1399257Y363995D02*
X1400000Y364738D01*
X612456Y476760D02*
Y479759D01*
Y474760D02*
Y476760D01*
X768000Y564000D02*
X781957D01*
X812957Y583043D02*
Y594750D01*
X866836Y548000D02*
X867521Y547314D01*
X856000Y548000D02*
X866836D01*
X873000Y443298D02*
Y447000D01*
X796998Y443407D02*
Y446999D01*
X805057Y443032D02*
Y446958D01*
X872735Y443032D02*
X873000Y443298D01*
X838868Y434132D02*
X839000Y434000D01*
X838868Y434132D02*
Y440120D01*
X836522Y449000D02*
X839000D01*
X830000Y443586D02*
X831000Y444586D01*
X830554Y443032D02*
X836522Y449000D01*
X803033Y496000D02*
X831000Y468033D01*
X767000Y496000D02*
X803033D01*
X831000Y466000D02*
Y468033D01*
X746650Y516000D02*
X766650Y496000D01*
X635000Y516000D02*
X746650D01*
X633000Y514000D02*
X635000Y516000D01*
X831000Y444586D02*
Y466000D01*
X830000Y443586D02*
X830554Y443032D01*
X1066775Y371775D02*
X1067000Y372000D01*
X1066775Y358911D02*
Y371775D01*
X1067000Y372000D02*
Y390686D01*
X1066775Y390911D02*
X1067000Y390686D01*
X983000Y345000D02*
Y350412D01*
X984004Y351416D01*
X991107Y341107D02*
Y351669D01*
X991000Y341000D02*
X991107Y341107D01*
X959998Y345999D02*
Y350646D01*
X959000Y351644D02*
X959998Y350646D01*
X958982Y351662D02*
X959000Y351644D01*
X967000Y351201D02*
X967461Y351662D01*
X967000Y342000D02*
Y351201D01*
X966000Y341000D02*
X967000Y342000D01*
X953000D02*
Y349894D01*
X953000Y349894D01*
X833839Y301162D02*
X837839Y305161D01*
Y309499D01*
X843472Y299129D02*
Y313528D01*
X842840Y298496D02*
X843472Y299129D01*
X842500Y314499D02*
X843472Y313528D01*
X804627Y347786D02*
X814824D01*
X804548Y347866D02*
X804627Y347786D01*
X801548Y357866D02*
X807384D01*
X1386000Y337000D02*
Y343000D01*
X1385000Y344000D02*
X1386000Y343000D01*
X1323201Y332500D02*
X1338225Y347524D01*
X1324660Y328976D02*
X1339684Y344000D01*
X1380528Y347524D02*
X1385509Y352505D01*
X1338225Y347524D02*
X1380528D01*
X1339684Y344000D02*
X1385000D01*
Y353000D02*
X1385009Y353009D01*
Y358005D01*
X1399257Y363000D02*
Y363995D01*
Y354237D02*
Y363000D01*
X1385009Y367005D02*
X1389015Y363000D01*
X1412000Y347980D02*
X1416009Y351989D01*
X1412000Y340000D02*
Y347980D01*
X1409257Y358741D02*
X1416009Y351989D01*
X1409257Y358741D02*
Y363995D01*
X1397009Y351989D02*
X1399257Y354237D01*
X1409254Y613734D02*
Y619488D01*
Y613734D02*
X1416006Y606982D01*
X1411998Y602973D02*
X1416006Y606982D01*
X1411998Y594993D02*
Y602973D01*
X1395261Y605236D02*
X1397006Y606982D01*
X1395261Y592961D02*
Y605236D01*
X1385000Y599500D02*
X1386261Y598239D01*
Y592961D02*
Y598239D01*
X1380712Y603024D02*
X1385186Y607498D01*
X1385507D01*
X1326976Y603024D02*
X1380712D01*
X1311566Y618434D02*
X1326976Y603024D01*
X1325516Y599500D02*
X1385000D01*
X1310107Y614910D02*
X1325516Y599500D01*
X1385507Y607498D02*
Y612991D01*
X1388010Y619488D02*
X1399254D01*
X1385507Y621991D02*
X1388010Y619488D01*
X1399254Y625516D02*
X1399998Y626259D01*
X1399254Y619488D02*
Y625516D01*
X1397006Y617240D02*
X1399254Y619488D01*
X1397006Y606982D02*
Y617240D01*
X260234Y330577D02*
Y336768D01*
X253991Y343011D02*
X260234Y336768D01*
X253991Y343011D02*
X258000Y347020D01*
Y355000D01*
X270234Y324000D02*
Y330496D01*
X270743Y331005D02*
X272991Y333253D01*
Y343011D01*
X274737Y344757D01*
Y354525D01*
X281509Y331005D02*
X284727Y327787D01*
X270743Y331005D02*
X281509D01*
X284491Y342495D02*
X284727Y342258D01*
Y336787D02*
Y342258D01*
X260743Y585005D02*
Y591259D01*
X253991Y598011D02*
X260743Y591259D01*
X253991Y598011D02*
X258000Y602020D01*
Y610000D01*
X339718Y602475D02*
X352243Y615000D01*
X289470Y602475D02*
X339718D01*
X284491Y597495D02*
X289470Y602475D01*
X283737Y606261D02*
X283999Y605999D01*
X283737Y606261D02*
Y612525D01*
X274737Y599757D02*
Y612525D01*
X338258Y605999D02*
X351163Y618904D01*
X283999Y605999D02*
X338258D01*
X284491Y592495D02*
Y597495D01*
X1318206Y666753D02*
X1318449D01*
X1312163D02*
X1318206D01*
X1258206D02*
X1258449D01*
X1252163D02*
X1258206D01*
X1198206D02*
X1198449D01*
X1192163D02*
X1198206D01*
X1138206D02*
X1138449D01*
X1132163D02*
X1138206D01*
X1078206D02*
X1078449D01*
X1072163D02*
X1078206D01*
X1018206D02*
X1018449D01*
X1012163D02*
X1018206D01*
X958206D02*
X958449D01*
X952163D02*
X958206D01*
X1351714Y283243D02*
X1357757D01*
X1351472D02*
X1351714D01*
X1291714D02*
X1297757D01*
X1291472D02*
X1291714D01*
X1231714D02*
X1237757D01*
X1231472D02*
X1231714D01*
X1171714D02*
X1177757D01*
X1171472D02*
X1171714D01*
X1111714D02*
X1117757D01*
X1111472D02*
X1111714D01*
X1051714D02*
X1057757D01*
X1051472D02*
X1051714D01*
X991714D02*
X997757D01*
X991472D02*
X991714D01*
X678286Y666757D02*
X678529D01*
X672243D02*
X678286D01*
X618286D02*
X618529D01*
X612243D02*
X618286D01*
X558286D02*
X558529D01*
X552243D02*
X558286D01*
X498286D02*
X498529D01*
X492243D02*
X498286D01*
X438286D02*
X438529D01*
X432243D02*
X438286D01*
X378286D02*
X378529D01*
X372243D02*
X378286D01*
X318286D02*
X318529D01*
X312243D02*
X318286D01*
X711714Y283246D02*
X717757D01*
X711471D02*
X711714D01*
X651714D02*
X657757D01*
X651471D02*
X651714D01*
X591714D02*
X597757D01*
X591471D02*
X591714D01*
X531714D02*
X537757D01*
X531471D02*
X531714D01*
X488000Y407000D02*
X488757Y406243D01*
X471714Y283246D02*
X477757D01*
X471471D02*
X471714D01*
X411714D02*
X417757D01*
X411471D02*
X411714D01*
X351714D02*
X357757D01*
X351471D02*
X351714D01*
X272254Y583495D02*
X284491D01*
X270743Y585005D02*
X272254Y583495D01*
X270743Y595763D02*
X272991Y598011D01*
X270743Y585005D02*
Y595763D01*
X272991Y598011D02*
X274737Y599757D01*
X1340006Y296991D02*
Y310426D01*
X1324979Y325452D02*
X1340006Y310426D01*
X1332002Y297001D02*
Y313446D01*
X1323520Y321928D02*
X1332002Y313446D01*
X1268105Y318404D02*
X1280006Y306503D01*
X1272001Y297001D02*
Y308445D01*
X1265566Y314880D02*
X1272001Y308445D01*
X1220006Y296991D02*
Y305424D01*
X1212001Y297001D02*
Y308445D01*
X1192789Y327657D02*
X1212001Y308445D01*
X1151237Y296237D02*
X1152001Y297001D01*
X1144975Y296237D02*
X1151237D01*
X1152001Y300763D02*
X1177500Y326261D01*
X1152001Y297001D02*
Y300763D01*
X1160006Y303784D02*
X1182500Y326278D01*
X1160006Y296991D02*
Y303784D01*
X1091237Y296237D02*
X1092001Y297001D01*
X1084975Y296237D02*
X1091237D01*
X1117500Y317500D02*
X1138606D01*
X1100006Y296991D02*
Y300006D01*
X1117500Y317500D01*
X1092001Y300763D02*
X1112262Y321024D01*
X1092001Y297001D02*
Y300763D01*
X1041244Y305000D02*
X1061244Y325000D01*
X1040034Y297019D02*
X1041244Y298228D01*
X1040006Y296991D02*
X1040034Y297019D01*
X1041244Y298228D02*
Y305000D01*
X1031237Y296237D02*
Y299999D01*
X1024975Y296237D02*
X1031237D01*
Y299999D02*
X1059762Y328524D01*
X971237Y296237D02*
X972001Y297001D01*
X964975Y296237D02*
X971237D01*
X972001Y300763D02*
X1006810Y335572D01*
X972001Y297001D02*
Y300763D01*
X980006Y303784D02*
X1008270Y332048D01*
X980006Y296991D02*
Y303784D01*
X700005Y296993D02*
Y305428D01*
X670813Y334620D02*
X700005Y305428D01*
X692001Y297004D02*
Y308448D01*
X669353Y331096D02*
X692001Y308448D01*
X640005Y296993D02*
Y305428D01*
X617861Y327572D02*
X640005Y305428D01*
X632001Y297004D02*
Y308448D01*
X616401Y324048D02*
X632001Y308448D01*
X580005Y296993D02*
Y305428D01*
X564909Y320524D02*
X580005Y305428D01*
X543749Y317000D02*
X560000D01*
X572001Y297004D02*
Y304999D01*
X560000Y317000D02*
X572001Y304999D01*
X520005Y296993D02*
Y309153D01*
X511975Y303512D02*
X512001Y303485D01*
X511975Y303512D02*
Y312200D01*
X451237Y300001D02*
X481755Y330519D01*
X451237Y296240D02*
Y300001D01*
X460005Y303786D02*
X486755Y330536D01*
X460005Y296993D02*
Y303786D01*
X391237Y296240D02*
X392001Y297004D01*
X384975Y296240D02*
X391237D01*
X392001Y297004D02*
Y300766D01*
X412759Y321524D01*
X442822D01*
X464810Y343512D01*
X470749D01*
X400005Y296993D02*
Y303786D01*
X414219Y318000D01*
X332001Y297004D02*
Y300766D01*
X359759Y328524D01*
X340005Y296993D02*
X340034Y297022D01*
X340005Y296993D02*
X340005Y296993D01*
Y303786D01*
X361219Y325000D01*
X351471Y293735D02*
X354758Y297022D01*
X340034D02*
X345758D01*
X991472Y293732D02*
X994758Y297019D01*
X980034D02*
X985759D01*
X980006Y296991D02*
X980034Y297019D01*
X993250Y246000D02*
Y251512D01*
X991001Y243750D02*
X993250Y246000D01*
X958748Y251503D02*
Y265082D01*
Y251503D02*
X959000Y251250D01*
X958748Y304747D02*
X959000Y305000D01*
X958748Y275082D02*
Y304747D01*
X986241Y273243D02*
X991472D01*
X979489Y266491D02*
X986241Y273243D01*
X975480Y270500D02*
X979489Y266491D01*
X967501Y270500D02*
X975480D01*
X981737Y283243D02*
X991472D01*
X979489Y285491D02*
X981737Y283243D01*
X966475Y286737D02*
X978243D01*
X1051472Y293732D02*
X1054758Y297019D01*
X1040034D02*
X1045759D01*
X1053250Y246000D02*
Y251512D01*
X1051001Y243750D02*
X1053250Y246000D01*
X1018748Y251503D02*
Y265082D01*
Y251503D02*
X1019000Y251250D01*
X1018748Y304747D02*
X1019000Y305000D01*
X1018748Y275082D02*
Y304747D01*
X1046241Y273243D02*
X1051472D01*
X1039489Y266491D02*
X1046241Y273243D01*
X1035480Y270500D02*
X1039489Y266491D01*
X1027501Y270500D02*
X1035480D01*
X1041737Y283243D02*
X1051472D01*
X1039489Y285491D02*
X1041737Y283243D01*
X1026475Y286737D02*
X1038243D01*
X331236Y296240D02*
X332001Y297004D01*
X324975Y296240D02*
X331236D01*
X353250Y246003D02*
Y251514D01*
X351000Y243753D02*
X353250Y246003D01*
X318747Y251506D02*
Y265085D01*
Y251506D02*
X319000Y251253D01*
X318747Y304750D02*
X319000Y305003D01*
X318747Y275085D02*
Y304750D01*
X346241Y273246D02*
X351471D01*
X339489Y266494D02*
X346241Y273246D01*
X335480Y270503D02*
X339489Y266494D01*
X327500Y270503D02*
X335480D01*
X341736Y283246D02*
X351471D01*
X339489Y285494D02*
X341736Y283246D01*
X326475Y286740D02*
X338243D01*
X1111472Y293732D02*
X1114759Y297019D01*
X1100034D02*
X1105759D01*
X1100006Y296991D02*
X1100034Y297019D01*
X1113251Y246000D02*
Y251512D01*
X1111001Y243750D02*
X1113251Y246000D01*
X1078748Y251503D02*
Y265082D01*
Y251503D02*
X1079000Y251250D01*
X1078748Y304747D02*
X1079000Y305000D01*
X1078748Y275082D02*
Y304747D01*
X1106241Y273243D02*
X1111472D01*
X1099489Y266491D02*
X1106241Y273243D01*
X1095480Y270500D02*
X1099489Y266491D01*
X1087501Y270500D02*
X1095480D01*
X1101737Y283243D02*
X1111472D01*
X1099489Y285491D02*
X1101737Y283243D01*
X1086475Y286737D02*
X1098243D01*
X411471Y293735D02*
X414758Y297022D01*
X400034D02*
X405758D01*
X400005Y296993D02*
X400034Y297022D01*
X413250Y246003D02*
Y251514D01*
X411000Y243753D02*
X413250Y246003D01*
X378747Y251506D02*
Y265085D01*
Y251506D02*
X379000Y251253D01*
X378747Y304750D02*
X379000Y305003D01*
X378747Y275085D02*
Y304750D01*
X406241Y273246D02*
X411471D01*
X399489Y266494D02*
X406241Y273246D01*
X395480Y270503D02*
X399489Y266494D01*
X387500Y270503D02*
X395480D01*
X401736Y283246D02*
X411471D01*
X399489Y285494D02*
X401736Y283246D01*
X386475Y286740D02*
X398243D01*
X1171472Y293732D02*
X1174759Y297019D01*
X1160034D02*
X1165759D01*
X1160006Y296991D02*
X1160034Y297019D01*
X1173251Y246000D02*
Y251512D01*
X1171001Y243750D02*
X1173251Y246000D01*
X1138748Y251503D02*
Y265082D01*
Y251503D02*
X1139000Y251250D01*
X1138748Y304747D02*
X1139000Y305000D01*
X1138748Y275082D02*
Y304747D01*
X1166241Y273243D02*
X1171472D01*
X1159489Y266491D02*
X1166241Y273243D01*
X1155480Y270500D02*
X1159489Y266491D01*
X1147501Y270500D02*
X1155480D01*
X1161737Y283243D02*
X1171472D01*
X1159489Y285491D02*
X1161737Y283243D01*
X1146475Y286737D02*
X1158243D01*
X471471Y293735D02*
X474758Y297022D01*
X444975Y296240D02*
X451237D01*
X460034Y297022D02*
X465758D01*
X460005Y296993D02*
X460034Y297022D01*
X473250Y246003D02*
Y251514D01*
X471000Y243753D02*
X473250Y246003D01*
X438747Y251506D02*
Y265085D01*
Y251506D02*
X439000Y251253D01*
X438747Y304750D02*
X439000Y305003D01*
X438747Y275085D02*
Y304750D01*
X466241Y273246D02*
X471471D01*
X459489Y266494D02*
X466241Y273246D01*
X455480Y270503D02*
X459489Y266494D01*
X447500Y270503D02*
X455480D01*
X461736Y283246D02*
X471471D01*
X459489Y285494D02*
X461736Y283246D01*
X446475Y286740D02*
X458243D01*
X1231472Y293732D02*
X1234759Y297019D01*
X1211237Y296237D02*
X1212001Y297001D01*
X1204975Y296237D02*
X1211237D01*
X1220034Y297019D02*
X1225759D01*
X1220006Y296991D02*
X1220034Y297019D01*
X1233251Y246000D02*
Y251512D01*
X1231001Y243750D02*
X1233251Y246000D01*
X1198748Y251503D02*
Y265082D01*
Y251503D02*
X1199000Y251250D01*
X1198748Y304747D02*
X1199000Y305000D01*
X1198748Y275082D02*
Y304747D01*
X1226241Y273243D02*
X1231472D01*
X1219489Y266491D02*
X1226241Y273243D01*
X1215480Y270500D02*
X1219489Y266491D01*
X1207501Y270500D02*
X1215480D01*
X1221737Y283243D02*
X1231472D01*
X1219489Y285491D02*
X1221737Y283243D01*
X1206475Y286737D02*
X1218243D01*
X531471Y293735D02*
X534758Y297022D01*
X512001Y297004D02*
Y303485D01*
X511237Y296240D02*
X512001Y297004D01*
X504975Y296240D02*
X511237D01*
X520034Y297022D02*
X525758D01*
X520005Y296993D02*
X520034Y297022D01*
X533250Y246003D02*
Y251514D01*
X531000Y243753D02*
X533250Y246003D01*
X498747Y251506D02*
Y265085D01*
Y251506D02*
X499000Y251253D01*
X498747Y304750D02*
X499000Y305003D01*
X498747Y275085D02*
Y304750D01*
X526241Y273246D02*
X531471D01*
X519489Y266494D02*
X526241Y273246D01*
X515480Y270503D02*
X519489Y266494D01*
X507500Y270503D02*
X515480D01*
X521736Y283246D02*
X531471D01*
X519489Y285494D02*
X521736Y283246D01*
X506475Y286740D02*
X518243D01*
X1291472Y293732D02*
X1294758Y297019D01*
X1271237Y296237D02*
X1272001Y297001D01*
X1264975Y296237D02*
X1271237D01*
X1280034Y297019D02*
X1285759D01*
X1280006Y296991D02*
Y306503D01*
Y296991D02*
X1280034Y297019D01*
X1293250Y246000D02*
Y251512D01*
X1291001Y243750D02*
X1293250Y246000D01*
X1258748Y251503D02*
Y265082D01*
Y251503D02*
X1259000Y251250D01*
X1258748Y304747D02*
X1259000Y305000D01*
X1258748Y275082D02*
Y304747D01*
X1286241Y273243D02*
X1291472D01*
X1279489Y266491D02*
X1286241Y273243D01*
X1275480Y270500D02*
X1279489Y266491D01*
X1267501Y270500D02*
X1275480D01*
X1281737Y283243D02*
X1291472D01*
X1279489Y285491D02*
X1281737Y283243D01*
X1266475Y286737D02*
X1278243D01*
X591471Y293735D02*
X594758Y297022D01*
X571237Y296240D02*
X572001Y297004D01*
X564975Y296240D02*
X571237D01*
X580034Y297022D02*
X585758D01*
X580005Y296993D02*
X580034Y297022D01*
X593250Y246003D02*
Y251514D01*
X591000Y243753D02*
X593250Y246003D01*
X558747Y251506D02*
Y265085D01*
Y251506D02*
X559000Y251253D01*
X558747Y304750D02*
X559000Y305003D01*
X558747Y275085D02*
Y304750D01*
X586241Y273246D02*
X591471D01*
X579489Y266494D02*
X586241Y273246D01*
X575480Y270503D02*
X579489Y266494D01*
X567500Y270503D02*
X575480D01*
X581737Y283246D02*
X591471D01*
X579489Y285494D02*
X581737Y283246D01*
X566475Y286740D02*
X578243D01*
X651471Y293735D02*
X654758Y297022D01*
X631237Y296240D02*
X632001Y297004D01*
X624975Y296240D02*
X631237D01*
X640034Y297022D02*
X645758D01*
X640005Y296993D02*
X640034Y297022D01*
X653250Y246003D02*
Y251514D01*
X651000Y243753D02*
X653250Y246003D01*
X618747Y251506D02*
Y265085D01*
Y251506D02*
X619000Y251253D01*
X618747Y304750D02*
X619000Y305003D01*
X618747Y275085D02*
Y304750D01*
X646241Y273246D02*
X651471D01*
X639489Y266494D02*
X646241Y273246D01*
X635480Y270503D02*
X639489Y266494D01*
X627500Y270503D02*
X635480D01*
X641737Y283246D02*
X651471D01*
X639489Y285494D02*
X641737Y283246D01*
X626475Y286740D02*
X638243D01*
X711471Y293735D02*
X714758Y297022D01*
X691237Y296240D02*
X692001Y297004D01*
X684975Y296240D02*
X691237D01*
X700034Y297022D02*
X705758D01*
X700005Y296993D02*
X700034Y297022D01*
X713250Y246003D02*
Y251514D01*
X711000Y243753D02*
X713250Y246003D01*
X678747Y251506D02*
Y265085D01*
Y251506D02*
X679000Y251253D01*
X678747Y304750D02*
X679000Y305003D01*
X678747Y275085D02*
Y304750D01*
X706241Y273246D02*
X711471D01*
X699489Y266494D02*
X706241Y273246D01*
X695480Y270503D02*
X699489Y266494D01*
X687500Y270503D02*
X695480D01*
X701737Y283246D02*
X711471D01*
X699489Y285494D02*
X701737Y283246D01*
X686475Y286740D02*
X698243D01*
X329995Y644575D02*
X352142Y622428D01*
X329995Y644575D02*
Y653009D01*
X337999Y641555D02*
X353601Y625952D01*
X389995Y643497D02*
X404016Y629476D01*
X433988D01*
X397999Y641555D02*
X406553Y633000D01*
X449995Y644575D02*
Y653009D01*
Y644575D02*
X473498Y621072D01*
X559498Y633000D02*
X569995Y643497D01*
X560958Y629476D02*
X577999Y646517D01*
X638763Y650001D02*
Y653763D01*
X611190Y622428D02*
X638763Y650001D01*
X629966Y646188D02*
Y652981D01*
X609730Y625952D02*
X629966Y646188D01*
X698763Y650001D02*
Y653763D01*
X664142Y615380D02*
X698763Y650001D01*
X689966Y646188D02*
Y652981D01*
X662682Y618904D02*
X689966Y646188D01*
X698763Y653763D02*
X705025D01*
X675242Y652981D02*
X678529Y656268D01*
X684242Y652981D02*
X689966D01*
X998879Y614530D02*
X1128009D01*
X969915Y643494D02*
X998879Y614530D01*
X977919Y641551D02*
X1001036Y618434D01*
X1051451Y621958D02*
X1131047D01*
X1029915Y643494D02*
X1051451Y621958D01*
X1037919Y641551D02*
X1053988Y625482D01*
X1089915Y643494D02*
X1103408Y630000D01*
X1132988D01*
X1108000Y633524D02*
X1134448D01*
X1097919Y643605D02*
Y652995D01*
Y643605D02*
X1108000Y633524D01*
X1149915Y644180D02*
Y653006D01*
Y644180D02*
X1173493Y620602D01*
X1217919Y645004D02*
Y652995D01*
X1193493Y620578D02*
X1217919Y645004D01*
X1277919Y652995D02*
X1278683Y653760D01*
X1284945D01*
X1277919Y646514D02*
Y652995D01*
X1258951Y632530D02*
X1269915Y643494D01*
X1260411Y629006D02*
X1277919Y646514D01*
X1337919Y649234D02*
Y652995D01*
X1310643Y621958D02*
X1337919Y649234D01*
X1329915Y646213D02*
Y653006D01*
X1234742Y625482D02*
X1309183D01*
X1329915Y646213D01*
X676750Y704000D02*
X679000Y706250D01*
X676750Y698488D02*
Y704000D01*
X711000Y698750D02*
X711253Y698497D01*
Y684918D02*
Y698497D01*
Y645253D02*
Y674918D01*
X711000Y645000D02*
X711253Y645253D01*
X678529Y666757D02*
X688263D01*
X690511Y664509D01*
X691757Y663263D02*
X703525D01*
X690511Y683509D02*
X694520Y679500D01*
X683759Y676757D02*
X690511Y683509D01*
X694520Y679500D02*
X702500D01*
X678529Y676757D02*
X683759D01*
X1315162Y652977D02*
X1318449Y656264D01*
X1329886Y652977D02*
X1329915Y653006D01*
X1324162Y652977D02*
X1329886D01*
X1338683Y653760D02*
X1344945D01*
X1337919Y652995D02*
X1338683Y653760D01*
X1316670Y703997D02*
X1318920Y706247D01*
X1316670Y698485D02*
Y703997D01*
X1350920Y698747D02*
X1351173Y698494D01*
Y684914D02*
Y698494D01*
Y645249D02*
Y674914D01*
X1350920Y644997D02*
X1351173Y645249D01*
X1318449Y666753D02*
X1328183D01*
X1330431Y664505D01*
X1331677Y663260D02*
X1343445D01*
X1330431Y683505D02*
X1334440Y679497D01*
X1323679Y676753D02*
X1330431Y683505D01*
X1334440Y679497D02*
X1342420D01*
X1318449Y676753D02*
X1323679D01*
X615242Y652981D02*
X618529Y656268D01*
X624242Y652981D02*
X629966D01*
X638763Y653763D02*
X645025D01*
X616750Y704000D02*
X619000Y706250D01*
X616750Y698488D02*
Y704000D01*
X651000Y698750D02*
X651253Y698497D01*
Y684918D02*
Y698497D01*
Y645253D02*
Y674918D01*
X651000Y645000D02*
X651253Y645253D01*
X618529Y666757D02*
X628264D01*
X630511Y664509D01*
X631757Y663263D02*
X643525D01*
X630511Y683509D02*
X634520Y679500D01*
X623759Y676757D02*
X630511Y683509D01*
X634520Y679500D02*
X642500D01*
X618529Y676757D02*
X623759D01*
X1255162Y652977D02*
X1258449Y656264D01*
X1269886Y652977D02*
X1269915Y653006D01*
Y643494D02*
Y653006D01*
X1264162Y652977D02*
X1269886D01*
X1256670Y703997D02*
X1258920Y706247D01*
X1256670Y698485D02*
Y703997D01*
X1290920Y698747D02*
X1291173Y698494D01*
Y684914D02*
Y698494D01*
Y645249D02*
Y674914D01*
X1290920Y644997D02*
X1291173Y645249D01*
X1258449Y666753D02*
X1268183D01*
X1270431Y664505D01*
X1271677Y663260D02*
X1283445D01*
X1270431Y683505D02*
X1274440Y679497D01*
X1263679Y676753D02*
X1270431Y683505D01*
X1274440Y679497D02*
X1282420D01*
X1258449Y676753D02*
X1263679D01*
X555242Y652981D02*
X558529Y656268D01*
X569966Y652981D02*
X569995Y653009D01*
Y643497D02*
Y653009D01*
X564242Y652981D02*
X569966D01*
X578763Y653763D02*
X585025D01*
X577999Y652999D02*
X578763Y653763D01*
X577999Y646517D02*
Y652999D01*
X556750Y704000D02*
X559000Y706250D01*
X556750Y698488D02*
Y704000D01*
X591000Y698750D02*
X591253Y698497D01*
Y684918D02*
Y698497D01*
Y645253D02*
Y674918D01*
X591000Y645000D02*
X591253Y645253D01*
X558529Y666757D02*
X568264D01*
X570511Y664509D01*
X571757Y663263D02*
X583525D01*
X570511Y683509D02*
X574520Y679500D01*
X563759Y676757D02*
X570511Y683509D01*
X574520Y679500D02*
X582500D01*
X558529Y676757D02*
X563759D01*
X1195162Y652977D02*
X1198449Y656264D01*
X1209886Y652977D02*
X1209915Y653006D01*
Y643494D02*
Y653006D01*
X1204162Y652977D02*
X1209886D01*
X1218683Y653760D02*
X1224945D01*
X1217919Y652995D02*
X1218683Y653760D01*
X1196670Y703997D02*
X1198920Y706247D01*
X1196670Y698485D02*
Y703997D01*
X1230920Y698747D02*
X1231173Y698494D01*
Y684914D02*
Y698494D01*
Y645249D02*
Y674914D01*
X1230920Y644997D02*
X1231173Y645249D01*
X1198449Y666753D02*
X1208183D01*
X1210431Y664505D01*
X1211677Y663260D02*
X1223445D01*
X1210431Y683505D02*
X1214440Y679497D01*
X1203679Y676753D02*
X1210431Y683505D01*
X1214440Y679497D02*
X1222420D01*
X1198449Y676753D02*
X1203679D01*
X1135162Y652977D02*
X1138449Y656264D01*
X1149886Y652977D02*
X1149915Y653006D01*
X1144162Y652977D02*
X1149886D01*
X1158683Y653760D02*
X1164945D01*
X1157919Y652995D02*
X1158683Y653760D01*
X1157919Y641551D02*
Y652995D01*
X1136670Y703997D02*
X1138920Y706247D01*
X1136670Y698485D02*
Y703997D01*
X1170920Y698747D02*
X1171173Y698494D01*
Y684914D02*
Y698494D01*
Y645249D02*
Y674914D01*
X1170920Y644997D02*
X1171173Y645249D01*
X1138449Y666753D02*
X1148183D01*
X1150431Y664505D01*
X1151677Y663260D02*
X1163445D01*
X1150431Y683505D02*
X1154440Y679497D01*
X1143679Y676753D02*
X1150431Y683505D01*
X1154440Y679497D02*
X1162420D01*
X1138449Y676753D02*
X1143679D01*
X435242Y652981D02*
X438529Y656268D01*
X449966Y652981D02*
X449995Y653009D01*
X444242Y652981D02*
X449966D01*
X458763Y653763D02*
X465025D01*
X457999Y652999D02*
X458763Y653763D01*
X457999Y641555D02*
Y652999D01*
X436750Y704000D02*
X439000Y706250D01*
X436750Y698488D02*
Y704000D01*
X471000Y698750D02*
X471253Y698497D01*
Y684918D02*
Y698497D01*
Y645253D02*
Y674918D01*
X471000Y645000D02*
X471253Y645253D01*
X438529Y666757D02*
X448263D01*
X450511Y664509D01*
X451757Y663263D02*
X463525D01*
X450511Y683509D02*
X454520Y679500D01*
X443759Y676757D02*
X450511Y683509D01*
X454520Y679500D02*
X462500D01*
X438529Y676757D02*
X443759D01*
X1075162Y652977D02*
X1078449Y656264D01*
X1089886Y652977D02*
X1089915Y653006D01*
Y643494D02*
Y653006D01*
X1084162Y652977D02*
X1089886D01*
X1098683Y653760D02*
X1104945D01*
X1097919Y652995D02*
X1098683Y653760D01*
X1076670Y703997D02*
X1078920Y706247D01*
X1076670Y698485D02*
Y703997D01*
X1110920Y698747D02*
X1111173Y698494D01*
Y684914D02*
Y698494D01*
Y645249D02*
Y674914D01*
X1110920Y644997D02*
X1111173Y645249D01*
X1078449Y666753D02*
X1088183D01*
X1090431Y664505D01*
X1091677Y663260D02*
X1103445D01*
X1090431Y683505D02*
X1094440Y679497D01*
X1083679Y676753D02*
X1090431Y683505D01*
X1094440Y679497D02*
X1102420D01*
X1078449Y676753D02*
X1083679D01*
X375242Y652981D02*
X378529Y656268D01*
X389966Y652981D02*
X389995Y653009D01*
Y643497D02*
Y653009D01*
X384242Y652981D02*
X389966D01*
X398763Y653763D02*
X405025D01*
X397999Y652999D02*
X398763Y653763D01*
X397999Y641555D02*
Y652999D01*
X376750Y704000D02*
X379000Y706250D01*
X376750Y698488D02*
Y704000D01*
X411000Y698750D02*
X411253Y698497D01*
Y684918D02*
Y698497D01*
Y645253D02*
Y674918D01*
X411000Y645000D02*
X411253Y645253D01*
X378529Y666757D02*
X388263D01*
X390511Y664509D01*
X391757Y663263D02*
X403525D01*
X390511Y683509D02*
X394520Y679500D01*
X383759Y676757D02*
X390511Y683509D01*
X394520Y679500D02*
X402500D01*
X378529Y676757D02*
X383759D01*
X1351472Y293732D02*
X1354758Y297019D01*
X1340006Y296991D02*
X1340034Y297019D01*
X1345759D01*
X1324975Y296237D02*
X1331237D01*
X1332002Y297001D01*
X1351001Y243750D02*
X1353250Y246000D01*
Y251512D01*
X1318748Y251503D02*
X1319001Y251250D01*
X1318748Y251503D02*
Y265082D01*
Y275082D02*
Y304747D01*
X1319001Y305000D01*
X1341737Y283243D02*
X1351472D01*
X1339489Y285491D02*
X1341737Y283243D01*
X1326475Y286737D02*
X1338244D01*
X1335480Y270500D02*
X1339489Y266491D01*
X1346241Y273243D01*
X1327500Y270500D02*
X1335480D01*
X1346241Y273243D02*
X1351472D01*
X1015162Y652977D02*
X1018449Y656264D01*
X1029886Y652977D02*
X1029915Y653006D01*
Y643494D02*
Y653006D01*
X1024162Y652977D02*
X1029886D01*
X1038683Y653760D02*
X1044945D01*
X1037919Y652995D02*
X1038683Y653760D01*
X1037919Y641551D02*
Y652995D01*
X1016670Y703997D02*
X1018920Y706247D01*
X1016670Y698485D02*
Y703997D01*
X1050920Y698747D02*
X1051173Y698494D01*
Y684914D02*
Y698494D01*
Y645249D02*
Y674914D01*
X1050920Y644997D02*
X1051173Y645249D01*
X1018449Y666753D02*
X1028183D01*
X1030431Y664505D01*
X1031677Y663260D02*
X1043445D01*
X1030431Y683505D02*
X1034440Y679497D01*
X1023679Y676753D02*
X1030431Y683505D01*
X1034440Y679497D02*
X1042420D01*
X1018449Y676753D02*
X1023679D01*
X315242Y652981D02*
X318529Y656268D01*
X329966Y652981D02*
X329995Y653009D01*
X324242Y652981D02*
X329966D01*
X338763Y653763D02*
X345025D01*
X337999Y652999D02*
X338763Y653763D01*
X337999Y641555D02*
Y652999D01*
X316750Y704000D02*
X319000Y706250D01*
X316750Y698488D02*
Y704000D01*
X351000Y698750D02*
X351253Y698497D01*
Y684918D02*
Y698497D01*
Y645253D02*
Y674918D01*
X351000Y645000D02*
X351253Y645253D01*
X318529Y666757D02*
X328263D01*
X330511Y664509D01*
X331757Y663263D02*
X343525D01*
X330511Y683509D02*
X334520Y679500D01*
X323759Y676757D02*
X330511Y683509D01*
X334520Y679500D02*
X342500D01*
X318529Y676757D02*
X323759D01*
X955162Y652977D02*
X958449Y656264D01*
X969886Y652977D02*
X969915Y653006D01*
Y643494D02*
Y653006D01*
X964162Y652977D02*
X969886D01*
X978683Y653760D02*
X984945D01*
X977919Y652995D02*
X978683Y653760D01*
X977919Y641551D02*
Y652995D01*
X956670Y703997D02*
X958920Y706247D01*
X956670Y698485D02*
Y703997D01*
X990920Y698747D02*
X991173Y698494D01*
Y684914D02*
Y698494D01*
Y645249D02*
Y674914D01*
X990920Y644997D02*
X991173Y645249D01*
X958449Y666753D02*
X968183D01*
X970431Y664505D01*
X971677Y663260D02*
X983445D01*
X970431Y683505D02*
X974440Y679497D01*
X963679Y676753D02*
X970431Y683505D01*
X974440Y679497D02*
X982420D01*
X958449Y676753D02*
X963679D01*
X509966Y652981D02*
X509995Y653009D01*
X504242Y652981D02*
X509966D01*
X1377000Y331247D02*
X1383753D01*
X1383753Y331247D02*
X1407418D01*
X1383753Y331247D02*
X1383753Y331247D01*
X1417418D02*
X1430997D01*
X1431250Y331500D01*
X1430988Y365750D02*
X1436500D01*
X1438750Y363500D01*
X262582Y363753D02*
X296778D01*
X238750Y363500D02*
X239003Y363753D01*
X252582D01*
X233500Y329250D02*
X239012D01*
X231250Y331500D02*
X233500Y329250D01*
X284491Y342495D02*
X290985Y348989D01*
X508263Y666757D02*
X510511Y664509D01*
X498529Y666757D02*
X508263D01*
X495242Y652981D02*
X498529Y656268D01*
Y676757D02*
X503759D01*
X510511Y683509D01*
X514520Y679500D01*
X522500D01*
X531000Y645000D02*
X531253Y645253D01*
X517999Y652999D02*
X518763Y653763D01*
X525025D01*
X517999Y646517D02*
Y652999D01*
X493498Y622016D02*
X517999Y646517D01*
X509995Y643497D02*
Y653009D01*
X511757Y663263D02*
X523525D01*
X488000Y545242D02*
Y551999D01*
Y555990D01*
X486753Y543995D02*
X488000Y545242D01*
X1311730Y512351D02*
Y529302D01*
X1310556Y511177D02*
X1311730Y512351D01*
X1183493Y595032D02*
Y612284D01*
X1184995Y593530D02*
X1187490Y596025D01*
X1308990Y490000D02*
Y503948D01*
Y488598D02*
Y490000D01*
X1296521Y479837D02*
X1306683Y490000D01*
X1167748Y543525D02*
Y552794D01*
X878250Y547750D02*
X880000Y546000D01*
X1197272Y398022D02*
X1203244Y403994D01*
Y406503D01*
X1184000Y356496D02*
X1185000Y357496D01*
X1187500Y354996D01*
X1184000Y350000D02*
Y356496D01*
X1187500Y337744D02*
Y354996D01*
X963194Y386658D02*
X971477D01*
X979761D01*
X890996Y341499D02*
Y341996D01*
X854050Y386411D02*
Y398950D01*
X754000Y559000D02*
X757250Y555750D01*
X621209Y473513D02*
Y487465D01*
X483498Y595502D02*
Y612755D01*
X485000Y594000D02*
X488000Y597000D01*
X821709Y309499D02*
X826774Y314564D01*
X489255Y357259D02*
X491755Y354759D01*
Y337507D02*
Y354759D01*
X485000Y353004D02*
X489255Y357259D01*
X485000Y353004D02*
X489000Y349005D01*
X1308990Y490000D02*
X1310393D01*
X1306683D02*
X1308990D01*
X891032Y428000D02*
Y434538D01*
Y414707D02*
Y428000D01*
X618470Y448000D02*
Y462110D01*
Y446760D02*
Y448000D01*
X488499Y398500D02*
X488500D01*
X488499D02*
Y406266D01*
X781957Y563750D02*
Y564000D01*
X1152697Y389504D02*
X1156755D01*
X611970Y470000D02*
Y474274D01*
Y462110D02*
Y470000D01*
X538411Y359999D02*
Y365009D01*
X1187490Y596025D02*
Y600000D01*
X1031000Y500000D02*
X1036466D01*
X1027351Y496351D02*
X1031000Y500000D01*
X513000Y527000D02*
X527000D01*
X378998Y523251D02*
X386925Y526410D01*
X730524Y505712D02*
Y508524D01*
X1308990Y488598D02*
X1310393Y490000D01*
X488000Y597000D02*
Y601279D01*
X820957Y500043D02*
Y500250D01*
Y500043D02*
X839952Y481048D01*
X820957Y500043D02*
Y508750D01*
X812957Y496043D02*
X831476Y477524D01*
X805000Y499016D02*
X830016Y474000D01*
X796998Y443407D02*
X797374Y443032D01*
X822142D02*
Y446816D01*
X891032Y414707D02*
X892150Y413589D01*
X814824Y341287D02*
Y347786D01*
X807384Y357866D02*
X810964Y354286D01*
X814824D01*
X488500Y392015D02*
Y398500D01*
Y392015D02*
X488757Y391757D01*
X486495Y557495D02*
X488000Y555990D01*
X493498Y558013D02*
X513000Y538511D01*
X493498Y558013D02*
Y575743D01*
X498476Y558267D02*
X518951Y537792D01*
X498476Y558267D02*
Y575722D01*
X513000Y527000D02*
Y538511D01*
X518951Y532999D02*
Y537792D01*
X505243Y557757D02*
X532476Y530524D01*
X505243Y557757D02*
Y560994D01*
X845000Y325000D02*
X850996Y319004D01*
Y317999D02*
Y319004D01*
X487492Y559508D02*
X488498Y560514D01*
X975941Y343809D02*
X976000Y343750D01*
X975941Y343809D02*
Y351590D01*
X902000Y612000D02*
X915524Y598476D01*
X845000Y606000D02*
Y611000D01*
Y595000D02*
Y606000D01*
X909000Y615000D02*
X922000Y602000D01*
X1047000D01*
X831000Y609000D02*
X836957Y603043D01*
X915524Y598476D02*
X999524D01*
X909048Y594952D02*
X982048D01*
X889000Y591000D02*
X976000D01*
X836957Y603043D02*
Y608957D01*
X867000Y579000D02*
X879000D01*
X867000Y580000D02*
Y602000D01*
X846000Y623000D02*
X867000Y602000D01*
X718000Y623000D02*
X846000D01*
X853000Y595000D02*
X854000Y594000D01*
X853000Y597000D02*
Y610000D01*
X843524Y619476D02*
X853000Y610000D01*
X719460Y619476D02*
X843524D01*
X840048Y615952D02*
X845000Y611000D01*
X720919Y615952D02*
X840048D01*
X909000Y595000D02*
X909048Y594952D01*
X881000Y595000D02*
X909000D01*
X875000Y589000D02*
X881000Y595000D01*
X881546Y583546D02*
X889000Y591000D01*
X881546Y583546D02*
X881546D01*
X881000Y583000D02*
X881546Y583546D01*
X881000Y581000D02*
Y583000D01*
X976000Y591000D02*
X981476Y585524D01*
Y553524D02*
Y585524D01*
Y553524D02*
X991000Y544000D01*
X1036633D01*
X1046930Y554297D01*
X839952Y481048D02*
X922048D01*
X1024000Y388000D02*
X1050275D01*
X935000Y474000D02*
X938000Y471000D01*
X830016Y474000D02*
X935000D01*
X927524Y477524D02*
X930000Y480000D01*
X932000D01*
X920000Y555000D02*
X936000Y539000D01*
X1019221Y485779D02*
X1025000Y480000D01*
X926779Y485779D02*
X1019221D01*
X922048Y481048D02*
X926779Y485779D01*
X831476Y477524D02*
X927524D01*
X982048Y594952D02*
X985000Y592000D01*
Y565427D02*
Y592000D01*
Y565427D02*
X996130Y554297D01*
X999524Y598476D02*
X1009000Y589000D01*
Y570000D02*
Y589000D01*
Y570000D02*
X1021530Y557470D01*
Y554297D02*
Y557470D01*
X1047000Y602000D02*
X1059000Y590000D01*
Y574000D02*
Y590000D01*
Y574000D02*
X1072330Y560670D01*
Y554297D02*
Y560670D01*
X1025000Y534000D02*
X1072000D01*
X1082000Y544000D01*
Y569000D01*
X1072330Y578670D02*
X1082000Y569000D01*
X1072330Y578670D02*
Y579697D01*
X854000Y428000D02*
X856032Y430032D01*
X854000Y413639D02*
Y428000D01*
Y413639D02*
X854050Y413589D01*
X879450Y427450D02*
X882000Y430000D01*
X879450Y413589D02*
Y427450D01*
X882032Y430538D02*
Y434538D01*
X856032Y430531D02*
Y434531D01*
X865032Y427468D02*
Y430032D01*
Y434531D01*
X865000Y430000D02*
X865032Y430032D01*
X894303Y489303D02*
X1031539D01*
X836130Y492827D02*
X1035827D01*
X841368Y496351D02*
X1027351D01*
X890125Y499875D02*
X1023875D01*
X804957Y508750D02*
X805000Y508707D01*
Y499016D02*
Y508707D01*
X812957Y496043D02*
Y508750D01*
X814601Y609601D02*
X821846D01*
X836957Y594750D02*
Y603043D01*
X705518Y600551D02*
X720919Y615952D01*
X705518Y590482D02*
Y600551D01*
X699524Y599540D02*
X719460Y619476D01*
X699524Y576524D02*
Y599540D01*
X696000Y601000D02*
X718000Y623000D01*
X696000Y578000D02*
Y601000D01*
X680615Y557615D02*
X699524Y576524D01*
X680615Y552297D02*
Y557615D01*
X680000Y562000D02*
X696000Y578000D01*
X667000Y562000D02*
X680000D01*
X657297Y552297D02*
X667000Y562000D01*
X655215Y552297D02*
X657297D01*
X731000Y507000D02*
Y508048D01*
X730524Y508524D02*
X731000Y508048D01*
X718944Y451000D02*
X730524Y462580D01*
Y503288D01*
X730503Y503309D02*
Y505691D01*
Y503309D02*
X730524Y503288D01*
X725000Y462040D02*
Y501000D01*
X730503Y505691D02*
X730524Y505712D01*
X888000Y566000D02*
Y567998D01*
X881567Y563750D02*
X887998Y557319D01*
X888000Y567998D02*
X891003Y571001D01*
X887998Y551999D02*
Y557319D01*
X867957Y563750D02*
X881567D01*
X896504Y579501D02*
X903499D01*
X881003Y572003D02*
X888000Y579000D01*
X881003Y571001D02*
Y572003D01*
X880250Y571750D02*
X881000Y571000D01*
X867957Y571750D02*
X880250D01*
X867957Y547750D02*
X878250D01*
X879750Y555750D02*
X880000Y556000D01*
X867957Y555750D02*
X879750D01*
X844957Y584043D02*
X845000Y584000D01*
X844957Y584043D02*
Y594750D01*
X836957Y584043D02*
X837000Y584000D01*
X836957Y584043D02*
Y594750D01*
X813000Y583087D02*
Y584000D01*
X812957Y583043D02*
X813000Y583087D01*
X879924Y531750D02*
X889674Y522000D01*
X890000D01*
Y532000D02*
Y532423D01*
X882673Y539750D02*
X890000Y532423D01*
X867957Y539750D02*
X882673D01*
X842840Y292160D02*
X843000Y292000D01*
X842840Y292160D02*
Y298496D01*
X1203000Y483000D02*
Y483748D01*
X1198244Y488504D02*
X1203000Y483748D01*
X1198244Y488504D02*
X1198496D01*
X1203000Y501252D02*
Y503000D01*
X1198244Y496496D02*
X1203000Y501252D01*
X1170000Y489000D02*
X1170496Y488504D01*
X1189245D01*
X1182000Y496000D02*
X1182496Y496496D01*
X1189245D01*
X854000Y594000D02*
X859000D01*
X879000Y579000D02*
X880000Y580000D01*
X917000Y396000D02*
Y405000D01*
Y380000D02*
X923658Y386658D01*
X930059D01*
X917000Y390000D02*
Y396000D01*
X922000Y401000D01*
X955000D01*
X1035827Y492827D02*
X1157173D01*
X836957Y500762D02*
X841368Y496351D01*
X1036466Y500000D02*
X1040115Y496351D01*
X1162649D01*
X867957Y522043D02*
X890125Y499875D01*
X1023875D02*
X1028524Y504524D01*
X1036925D01*
X1041574Y499875D01*
X1171366D01*
X1157173Y492827D02*
X1161000Y489000D01*
X1040115Y489303D02*
X1152697D01*
X1038115Y487303D02*
X1040115Y489303D01*
X1033539Y487303D02*
X1038115D01*
X406251Y523251D02*
X752252D01*
X1031539Y489303D02*
X1033539Y487303D01*
X1198000Y526509D02*
Y558000D01*
X1182476Y531476D02*
X1187762D01*
X1196000Y560000D02*
X1198000Y558000D01*
X1171366Y499875D02*
X1198000Y526509D01*
X1206000Y524541D02*
Y565000D01*
X1182000Y500541D02*
X1206000Y524541D01*
X1182000Y496000D02*
Y500541D01*
X1170000Y489000D02*
X1170000D01*
X1162649Y496351D02*
X1170000Y489000D01*
X1170000Y490000D02*
Y493525D01*
X1170000Y489000D02*
X1173048Y485952D01*
X1161000Y489000D02*
X1169524Y480476D01*
X1152697Y489303D02*
X1166000Y476000D01*
X1169524Y395582D02*
Y480476D01*
X1173048Y397042D02*
Y485952D01*
Y397042D02*
X1176046Y394044D01*
Y380955D02*
Y394044D01*
Y380955D02*
X1177500Y379500D01*
X1172522Y374776D02*
Y392584D01*
X1169524Y395582D02*
X1172522Y392584D01*
X1177500Y374755D02*
Y379500D01*
X1166000Y390000D02*
Y476000D01*
X892000Y487000D02*
X894303Y489303D01*
X867957Y522043D02*
Y523750D01*
X1166000Y389000D02*
X1166998Y388003D01*
Y382498D02*
Y388003D01*
X1170000Y493525D02*
X1202000Y525525D01*
Y563000D01*
X1198974Y572026D02*
X1206000Y565000D01*
X1197000Y568000D02*
X1202000Y563000D01*
X1193493Y571507D02*
Y575273D01*
Y571507D02*
X1197000Y568000D01*
X1198974Y572026D02*
Y574792D01*
X1198493Y575273D02*
X1198974Y574792D01*
X828957Y500000D02*
X836130Y492827D01*
X936000Y534000D02*
Y539000D01*
X1172500Y374755D02*
X1172522Y374776D01*
X1050275Y388000D02*
Y390911D01*
Y358911D02*
Y388000D01*
X1167252Y575273D02*
X1173493D01*
X1197500Y374755D02*
X1203741D01*
X867957Y531750D02*
X879924D01*
X752252Y523251D02*
X754431Y521072D01*
X828957Y508750D02*
Y519711D01*
Y500000D02*
Y508750D01*
X498476Y575722D02*
X498498Y575743D01*
X393751Y510751D02*
X406251Y523251D01*
X393751Y510751D02*
X401000Y502874D01*
X717484Y454524D02*
X725000Y462040D01*
X635084Y454524D02*
X717484D01*
X633820Y453260D02*
X635084Y454524D01*
X476755Y374518D02*
X476777Y374540D01*
X475000Y425000D02*
X476755Y423245D01*
Y384571D02*
Y423245D01*
X401000Y407410D02*
Y502874D01*
X397841Y404251D02*
X401000Y407410D01*
X476755Y384571D02*
X476777Y384549D01*
Y374540D02*
Y384549D01*
X387630Y404251D02*
X397841D01*
X836957Y508750D02*
Y519803D01*
X752008Y527000D02*
X754503Y529495D01*
X836957Y500762D02*
Y508750D01*
X525999Y528001D02*
X527000Y527000D01*
X525999Y528001D02*
Y528999D01*
X527000Y527000D02*
X752008D01*
X388405D02*
X513000D01*
X386925Y526410D02*
X388405Y527000D01*
X374000Y518253D02*
X378998Y523251D01*
X642505Y451000D02*
X718944D01*
X638265Y446760D02*
X642505Y451000D01*
X633820Y446760D02*
X638265D01*
X481755Y422755D02*
X484000Y425000D01*
X481755Y374518D02*
Y422755D01*
X374000Y420956D02*
Y518253D01*
Y420956D02*
X378205Y416751D01*
X387630D01*
X1331747Y495098D02*
X1333000Y496351D01*
X1324340Y495098D02*
X1331747D01*
X1324340Y488598D02*
X1333000D01*
X1188493Y560044D02*
Y565000D01*
Y575273D01*
X1178493Y569028D02*
Y575273D01*
X1177519Y568054D02*
X1178493Y569028D01*
X1162995Y568054D02*
X1177519D01*
X1204498Y575530D02*
Y581279D01*
X1183493Y569028D02*
Y575273D01*
X1178975Y564510D02*
X1183493Y569028D01*
X1295519Y504418D02*
X1295845Y504744D01*
X1302490Y511698D02*
Y516111D01*
Y503948D02*
Y511698D01*
X1193502Y394252D02*
X1197272Y398022D01*
X1193502Y391987D02*
Y394252D01*
X1188024Y381524D02*
X1192522Y386022D01*
X1188024Y380712D02*
Y381524D01*
X1187500Y380188D02*
X1188024Y380712D01*
X1187500Y374755D02*
Y380188D01*
X1182500Y383000D02*
Y389984D01*
Y374755D02*
Y383000D01*
X1184244Y406503D02*
X1184502Y406245D01*
X1302490Y516111D02*
X1302977Y516598D01*
X1310014Y511327D02*
Y511719D01*
Y511327D02*
X1310360Y510981D01*
X1308990Y503948D02*
Y509611D01*
X1282990Y503948D02*
Y518088D01*
X1276490Y503948D02*
Y513067D01*
X1295845Y504744D02*
Y518088D01*
X1383712Y586279D02*
X1383750Y586240D01*
X1376000Y586279D02*
X1383712D01*
X1295271Y529302D02*
X1302977Y521596D01*
X1267640Y456098D02*
X1268021Y455717D01*
Y434337D02*
Y455717D01*
X1263721Y462598D02*
X1267640D01*
X1259916Y458793D02*
X1263721Y462598D01*
X1259916Y428216D02*
Y458793D01*
X1262151Y469098D02*
X1267640D01*
X1253970Y460917D02*
X1262151Y469098D01*
X1253970Y434753D02*
Y460917D01*
X1248520Y488975D02*
Y512836D01*
X1261897Y475598D02*
X1267640D01*
X1248520Y488975D02*
X1261897Y475598D01*
X1254520Y489829D02*
Y517836D01*
X1262251Y482098D02*
X1267640D01*
X1254520Y489829D02*
X1262251Y482098D01*
X1259916Y512233D02*
X1260519Y512836D01*
X1259916Y491263D02*
Y512233D01*
X1262530Y488598D02*
X1267640D01*
X1259890Y491237D02*
X1259916Y491263D01*
X1259890Y491237D02*
X1262530Y488598D01*
X1267640Y517707D02*
X1267770Y517837D01*
X1267640Y495098D02*
Y517707D01*
X1289490Y513302D02*
X1289521Y513333D01*
X1289490Y503948D02*
Y513302D01*
X1295519Y504418D02*
X1295990Y503948D01*
X1302490Y428642D02*
Y447248D01*
X1295990Y434807D02*
Y447248D01*
X1289490Y428642D02*
Y447248D01*
X1282990Y434837D02*
Y447248D01*
X1276490Y429069D02*
Y447248D01*
X1276259Y428838D02*
X1276490Y429069D01*
X1332206Y456098D02*
X1338264Y450039D01*
X1324340Y456098D02*
X1332206D01*
X1324340Y475598D02*
X1348773D01*
X1359771Y464600D01*
X1325360Y470117D02*
X1343960D01*
X1324340Y469098D02*
X1325360Y470117D01*
X1343960D02*
X1349476Y464600D01*
X1335981Y462598D02*
X1337976Y464593D01*
X1324340Y462598D02*
X1335981D01*
X1302977Y516598D02*
Y521596D01*
X1292730Y529302D02*
X1295271D01*
X752086Y515548D02*
X760548D01*
X747907Y519727D02*
X752086Y515548D01*
X558000Y519727D02*
X747907D01*
X759981Y535019D02*
X761000Y534000D01*
X760548Y515548D02*
X761000Y516000D01*
X1172995Y558041D02*
X1178490D01*
X477495Y558511D02*
X478495D01*
X473000D02*
X477495D01*
X497757Y391750D02*
X502253D01*
X496757D02*
X497757D01*
X618470Y470774D02*
X621209Y473513D01*
X618470Y462110D02*
Y470774D01*
X514243Y560994D02*
X519250D01*
X504000D02*
Y568000D01*
X532476Y530524D02*
X747720D01*
X504503Y576000D02*
Y581749D01*
X488498Y560514D02*
Y575743D01*
X501755Y374518D02*
X547518D01*
X551000Y512727D02*
X558000Y519727D01*
X551000Y378000D02*
Y512727D01*
X547518Y374518D02*
X551000Y378000D01*
X497729Y381737D02*
X531525D01*
X496755Y380763D02*
X497729Y381737D01*
X531525D02*
X533001Y380261D01*
X467257Y575743D02*
X473498D01*
X752215Y535019D02*
X759981D01*
X747720Y530524D02*
X752215Y535019D01*
X844957Y508750D02*
Y519957D01*
X852957Y508750D02*
Y519913D01*
X605324Y462907D02*
Y476250D01*
X829048Y341287D02*
X836824D01*
X867521Y547314D02*
X867957Y547750D01*
X847967Y443032D02*
Y446925D01*
X971477Y384327D02*
Y386658D01*
X996328D02*
X1012895D01*
X979761D02*
X996328D01*
X946626D02*
X963194D01*
X930059D02*
X946626D01*
X847843Y394610D02*
Y434032D01*
X847967D01*
X841350Y388117D02*
X847843Y394610D01*
X841350Y386411D02*
Y388117D01*
X822142Y434032D02*
X822209Y433965D01*
Y395766D02*
Y433965D01*
X797000Y433659D02*
X797374Y434032D01*
X872735D02*
X873000Y433767D01*
Y392661D02*
Y433767D01*
X866750Y386411D02*
X873000Y392661D01*
X865032Y427468D02*
X866750Y425750D01*
X828554Y434032D02*
X828650Y433936D01*
Y413589D02*
Y433936D01*
X815950Y389507D02*
X822209Y395766D01*
X815950Y386411D02*
Y389507D01*
X803100Y434032D02*
X803250Y433882D01*
Y413589D02*
Y433882D01*
X797000Y392861D02*
Y433659D01*
X790550Y386411D02*
X797000Y392861D01*
X978019Y363181D02*
Y371658D01*
X975504Y360666D02*
X978019Y363181D01*
Y371658D02*
X979761D01*
X1006406Y365169D02*
X1012895Y371658D01*
X995607Y365169D02*
X1006406D01*
X991107Y360669D02*
X995607Y365169D01*
X983543Y360666D02*
Y361675D01*
X993527Y371658D01*
X996328D01*
X964565Y363558D02*
Y371658D01*
X963194D02*
X964565D01*
Y363558D02*
X967461Y360662D01*
X930059Y371658D02*
X936549Y365169D01*
X947000D01*
X951232Y360937D01*
Y360662D02*
Y360937D01*
X946626Y371658D02*
X948805D01*
X959041Y361423D01*
Y360662D02*
Y361423D01*
X951232Y351662D02*
X953000Y349894D01*
X757250Y555750D02*
X781957D01*
X755000Y589000D02*
Y599000D01*
Y589000D02*
X764250Y579750D01*
X781957D01*
X731003Y559003D02*
X745000Y573000D01*
X780000D01*
X730503Y559399D02*
Y559503D01*
X754503Y599399D02*
X754601D01*
X771000Y386000D02*
X777439D01*
X777850Y386411D01*
X866750Y413589D02*
Y425750D01*
X879450Y386411D02*
Y397450D01*
X853998Y396999D02*
Y398898D01*
X854050Y398950D01*
X815950Y413589D02*
Y425950D01*
X841350Y413589D02*
Y425650D01*
X828650Y386411D02*
Y397650D01*
X803250Y386411D02*
Y397750D01*
X790550Y413589D02*
Y426550D01*
X777850Y413589D02*
Y417850D01*
Y408150D02*
Y413589D01*
X801003Y333003D02*
X805499D01*
X810997Y304000D02*
X816497Y309499D01*
X818839D01*
X810997Y314000D02*
X811497Y314499D01*
X818839D01*
X828339Y313000D02*
Y316999D01*
X818839Y309499D02*
X821709D01*
X833839Y298496D02*
Y301162D01*
X837839Y314499D02*
X842500D01*
X849997Y342003D02*
Y343500D01*
X862000Y344000D02*
X864000Y342000D01*
X870497D01*
X846286Y354286D02*
X850000Y358000D01*
X836824Y354286D02*
X846286D01*
X846214Y347786D02*
X850000Y344000D01*
X836824Y347786D02*
X846214D01*
X1183493Y595032D02*
X1184995Y593530D01*
X604999Y462581D02*
X605324Y462907D01*
X569396Y470396D02*
X569999Y470999D01*
X563999Y447991D02*
Y475999D01*
X557999Y447138D02*
Y470999D01*
X577120Y453260D02*
Y475870D01*
X557999Y447138D02*
X571377Y433760D01*
X569396Y449426D02*
Y470396D01*
X571377Y433760D02*
X577120D01*
X571730Y440260D02*
X577120D01*
X563999Y447991D02*
X571730Y440260D01*
X572010Y446760D02*
X577120D01*
X569370Y449400D02*
X572010Y446760D01*
X569370Y449400D02*
X569396Y449426D01*
X577120Y475870D02*
X577250Y476000D01*
X290849Y618753D02*
X291000Y618904D01*
X585739Y387000D02*
X585970Y387231D01*
X353601Y625952D02*
X432528D01*
X352142Y622428D02*
X431052D01*
X351163Y618904D02*
X429094D01*
X352243Y615000D02*
X428014D01*
X585970Y462110D02*
Y471230D01*
X592470Y462110D02*
Y476250D01*
X569396Y386379D02*
Y416956D01*
X563449Y392915D02*
Y419080D01*
X569396Y416956D02*
X573200Y420760D01*
X563449Y419080D02*
X571630Y427260D01*
X577500Y392500D02*
Y413880D01*
X577120Y414260D02*
X577500Y413880D01*
X598970Y471465D02*
X599000Y471495D01*
X598970Y462110D02*
Y471465D01*
X604750Y487465D02*
X612456Y479759D01*
X604999Y462581D02*
X605470Y462110D01*
X611970Y474274D02*
X612456Y474760D01*
X606000Y438000D02*
X609710D01*
X618470Y446760D01*
X605470Y433760D02*
X606000Y434291D01*
X653439Y428279D02*
X658956Y422763D01*
X550634Y331096D02*
X669353D01*
X518218Y363512D02*
X550634Y331096D01*
X571630Y427260D02*
X577120D01*
X573200Y420760D02*
X577120D01*
X585970Y387231D02*
Y405410D01*
X592470Y393000D02*
Y405410D01*
X611970Y386805D02*
Y405410D01*
X605470Y392970D02*
Y405410D01*
X598970Y386805D02*
Y405410D01*
X552110Y334620D02*
X670813D01*
X361697Y336019D02*
X434499D01*
X345202Y352513D02*
X361697Y336019D01*
X434499D02*
X461992Y363512D01*
X284525Y352513D02*
X345202D01*
X290985Y348989D02*
X343743D01*
X496777Y385785D02*
X538840D01*
X502253Y391750D02*
X504876Y394374D01*
X507499Y396997D01*
X658253Y433760D02*
X669250Y422763D01*
X633820Y433760D02*
X658253D01*
X633820Y427260D02*
X634839Y428279D01*
X653439D01*
X633820Y420760D02*
X645460D01*
X647456Y422756D01*
X641685Y414260D02*
X647744Y408202D01*
X633820Y414260D02*
X641685D01*
X387630Y429251D02*
X392252D01*
X382500D02*
X387630D01*
Y441751D02*
X392252D01*
X383251D02*
X387630D01*
X388184Y535751D02*
X392500D01*
X383251D02*
X388184D01*
Y548251D02*
X392500D01*
X383251D02*
X388184D01*
X1245284Y321928D02*
X1323520D01*
X1246981Y325452D02*
X1324979D01*
X1250212Y332500D02*
X1323201D01*
X1213963Y368749D02*
X1250212Y332500D01*
X1241851Y314880D02*
X1265566D01*
X1212982Y343749D02*
X1241851Y314880D01*
X1243311Y318404D02*
X1268105D01*
X1212966Y348749D02*
X1243311Y318404D01*
X1213463Y353749D02*
X1245284Y321928D01*
X1213683Y358749D02*
X1246981Y325452D01*
X1248736Y328976D02*
X1324660D01*
X1213963Y363749D02*
X1248736Y328976D01*
X1008270Y332048D02*
X1131544D01*
X1006810Y335572D02*
X1129560D01*
X1061244Y325000D02*
X1136003D01*
X1059762Y328524D02*
X1134543D01*
X1136003Y325000D02*
X1159752Y348749D01*
X1112262Y321024D02*
X1137146D01*
X1159871Y343749D01*
X1138606Y317500D02*
X1158849Y337744D01*
X1182500Y326278D02*
Y337744D01*
X1197500Y327930D02*
X1220006Y305424D01*
X1197500Y327930D02*
Y337744D01*
X1192500Y327657D02*
X1192789D01*
X1227270Y381974D02*
X1228746Y380498D01*
X1193474Y381974D02*
X1227270D01*
X1192500Y381000D02*
X1193474Y381974D01*
X1192500Y374755D02*
Y381000D01*
X1192522Y386022D02*
X1234585D01*
X1239986Y380622D01*
X1158849Y337744D02*
X1172500D01*
X1177500Y326261D02*
Y337744D01*
X1192500Y327657D02*
Y337744D01*
X1166494Y368749D02*
Y374498D01*
X1157737Y363749D02*
X1166494D01*
X1129560Y335572D02*
X1157737Y363749D01*
X1158245Y358749D02*
X1166494D01*
X1131544Y332048D02*
X1158245Y358749D01*
X1159768Y353749D02*
X1166494D01*
X1134543Y328524D02*
X1159768Y353749D01*
X1159752Y348749D02*
X1166494D01*
X1159871Y343749D02*
X1166494D01*
X1203505D02*
X1212982D01*
X1203505Y348749D02*
X1212966D01*
X1203505Y353749D02*
X1213463D01*
X1203505Y358749D02*
X1213683D01*
X1203505Y363749D02*
X1213963D01*
X1203505Y368749D02*
X1213963D01*
X461992Y363512D02*
X470749D01*
X343743Y348989D02*
X360237Y332495D01*
X436483D01*
X462500Y358512D01*
X470749D01*
X464023Y353512D02*
X470749D01*
X439083Y328572D02*
X464023Y353512D01*
X361219Y325000D02*
X411251D01*
X359759Y328524D02*
X409792D01*
X414219Y318000D02*
X445880D01*
X409792Y328524D02*
X409840Y328572D01*
X439083D01*
X411251Y325000D02*
X411300Y325048D01*
X440543D01*
X464007Y348512D01*
X470749D01*
X445880Y318000D02*
X465387Y337507D01*
X476755D01*
X518218Y368512D02*
X552110Y334620D01*
X507760Y368512D02*
X518218D01*
X507760Y363512D02*
X518218D01*
X548879Y327572D02*
X617861D01*
X517938Y358512D02*
X548879Y327572D01*
X507760Y358512D02*
X517938D01*
X547182Y324048D02*
X616401D01*
X517718Y353512D02*
X547182Y324048D01*
X507760Y353512D02*
X517718D01*
X517221Y348512D02*
X545209Y320524D01*
X507760Y348512D02*
X517221D01*
X545209Y320524D02*
X564909D01*
X517237Y343512D02*
X543749Y317000D01*
X507760Y343512D02*
X517237D01*
X486755Y330536D02*
Y337507D01*
X481755Y330519D02*
Y337507D01*
X496755Y327420D02*
X511975Y312200D01*
X501755Y327404D02*
X520005Y309153D01*
X501755Y327404D02*
Y337507D01*
X496755Y327420D02*
Y337507D01*
X538840Y385785D02*
X544241Y380385D01*
X491755Y380763D02*
X496777Y385785D01*
X1231823Y632530D02*
X1258951D01*
X1211577Y612284D02*
X1231823Y632530D01*
X1233282Y629006D02*
X1260411D01*
X1210555Y606279D02*
X1233282Y629006D01*
X1210539Y601279D02*
X1234742Y625482D01*
X1240132Y614910D02*
X1310107D01*
X1238672Y618434D02*
X1311566D01*
X1236202Y621958D02*
X1310643D01*
X1001036Y618434D02*
X1129089D01*
X1053988Y625482D02*
X1132523D01*
X1134448Y633524D02*
X1161693Y606279D01*
X1132988Y630000D02*
X1161710Y601279D01*
X1188493Y621493D02*
X1209915Y642915D01*
X1188493Y612284D02*
Y621493D01*
X1193493Y612284D02*
Y620578D01*
X1157919Y641551D02*
X1178493Y620977D01*
Y612284D02*
Y620977D01*
X1159270Y571778D02*
Y571818D01*
X1147990Y575273D02*
X1155815D01*
X1159270Y571818D01*
Y571778D02*
X1162995Y568054D01*
X1142247Y569530D02*
X1147990Y575273D01*
X1158766Y564510D02*
X1178975D01*
X1153746Y569530D02*
X1158766Y564510D01*
X1198493Y612284D02*
X1211577D01*
X1173493D02*
Y620602D01*
X1129995Y569530D02*
X1141995Y557530D01*
X1161995D01*
X1211501Y586279D02*
X1240132Y614910D01*
X1204498Y586279D02*
X1211501D01*
X1211517Y591279D02*
X1238672Y618434D01*
X1204498Y591279D02*
X1211517D01*
X1210523Y596279D02*
X1236202Y621958D01*
X1204498Y596279D02*
X1210523D01*
X1204498Y601279D02*
X1210539D01*
X1204498Y606279D02*
X1210555D01*
X1161693D02*
X1167487D01*
X1161710Y601279D02*
X1167487D01*
X1161726Y596279D02*
X1167487D01*
X1132523Y625482D02*
X1161726Y596279D01*
Y591279D02*
X1167487D01*
X1131047Y621958D02*
X1161726Y591279D01*
X1161244Y586279D02*
X1167487D01*
X1129089Y618434D02*
X1161244Y586279D01*
X1161260Y581279D02*
X1167487D01*
X1128009Y614530D02*
X1161260Y581279D01*
X1170372Y555418D02*
X1172995Y558041D01*
X1167748Y552794D02*
X1170372Y555418D01*
X496755Y374518D02*
Y380763D01*
X491755Y374518D02*
Y380763D01*
X486755Y374518D02*
Y389747D01*
X470749Y368512D02*
Y374261D01*
X507499Y396997D02*
Y406266D01*
X531828Y633000D02*
X559498D01*
X511582Y612755D02*
X531828Y633000D01*
X498498Y612755D02*
X511582D01*
X533287Y629476D02*
X560958D01*
X510560Y606749D02*
X533287Y629476D01*
X504503Y606749D02*
X510560D01*
X510544Y601749D02*
X534747Y625952D01*
X504503Y601749D02*
X510544D01*
X534747Y625952D02*
X609730D01*
X510528Y596749D02*
X536207Y622428D01*
X504503Y596749D02*
X510528D01*
X538677Y618904D02*
X662682D01*
X511522Y591749D02*
X538677Y618904D01*
X504503Y591749D02*
X511522D01*
X536207Y622428D02*
X611190D01*
X540137Y615380D02*
X664142D01*
X511506Y586749D02*
X540137Y615380D01*
X461265Y581749D02*
X467492D01*
X428014Y615000D02*
X461265Y581749D01*
X461698Y606749D02*
X467492D01*
X435447Y633000D02*
X461698Y606749D01*
X406553Y633000D02*
X435447D01*
X461715Y601749D02*
X467492D01*
X433988Y629476D02*
X461715Y601749D01*
X432528Y625952D02*
X461731Y596749D01*
X431052Y622428D02*
X461731Y591749D01*
X429094Y618904D02*
X461249Y586749D01*
X461731Y596749D02*
X467492D01*
X461249Y586749D02*
X467492D01*
X504503D02*
X511506D01*
X493498Y612755D02*
Y622016D01*
X488498Y622000D02*
X509995Y643497D01*
X488498Y612755D02*
Y622000D01*
X461731Y591749D02*
X467492D01*
X473498Y612755D02*
Y621072D01*
X457999Y641555D02*
X478498Y621056D01*
Y612755D02*
Y621056D01*
X483498Y595502D02*
X485000Y594000D01*
X430000Y570000D02*
X442000Y558000D01*
X462000D01*
X458771Y564980D02*
X478980D01*
X463000Y568524D02*
X477524D01*
X459275Y572249D02*
X463000Y568524D01*
X442252Y570000D02*
X447995Y575743D01*
X455820D01*
X459275Y572288D01*
Y572249D02*
Y572288D01*
X453751Y570000D02*
X458771Y564980D01*
X477524Y568524D02*
X478498Y569498D01*
X470377Y555888D02*
X473000Y558511D01*
X467753Y553264D02*
X470377Y555888D01*
X478980Y564980D02*
X483498Y569498D01*
X478498Y569498D02*
Y575743D01*
X483498Y569498D02*
Y575743D01*
X467753Y543995D02*
Y553264D01*
X496750Y704000D02*
X499000Y706250D01*
X496750Y698488D02*
Y704000D01*
X531000Y698750D02*
X531253Y698497D01*
Y684918D02*
Y698497D01*
Y645253D02*
Y674918D01*
X1383750Y586240D02*
X1407415D01*
X1417415D02*
X1430995D01*
X1431247Y586493D01*
X1430986Y620743D02*
X1436497D01*
X1438747Y618493D01*
X262582Y618753D02*
X290849D01*
X231250Y586500D02*
X233500Y584250D01*
X239012D01*
X238750Y618500D02*
X239003Y618753D01*
X252582D01*
X200000Y750000D02*
X1010000D01*
X200000D02*
Y1210000D01*
X1010000D01*
X1010000Y750000D01*
X1470000Y200000D02*
Y750000D01*
X200000D02*
X1470000D01*
X200000Y200000D02*
Y750000D01*
Y200000D02*
X1470000D01*
D40*
X612456Y476760D02*
D03*
X622456D02*
D03*
X1302977Y516598D02*
D03*
X1312977D02*
D03*
X869497Y351000D02*
D03*
X879497D02*
D03*
X805499Y333003D02*
D03*
X815499D02*
D03*
X1409254Y619488D02*
D03*
X1399254D02*
D03*
X260234Y330577D02*
D03*
X270234D02*
D03*
X1409257Y363995D02*
D03*
X1399257D02*
D03*
X260743Y585005D02*
D03*
X270743D02*
D03*
X1193502Y391987D02*
D03*
X1183502D02*
D03*
X1177490Y558544D02*
D03*
X1187490D02*
D03*
X497757Y391750D02*
D03*
X487757D02*
D03*
X477495Y558511D02*
D03*
X487495D02*
D03*
X891003Y571001D02*
D03*
X881003D02*
D03*
D42*
X538411Y365009D02*
D03*
Y374009D02*
D03*
X647744Y398702D02*
D03*
Y407702D02*
D03*
X1338264Y440539D02*
D03*
Y449539D02*
D03*
X822142Y433032D02*
D03*
Y442032D02*
D03*
X830554Y442032D02*
D03*
Y433032D02*
D03*
X838868Y440120D02*
D03*
Y449120D02*
D03*
X916539Y389338D02*
D03*
Y380338D02*
D03*
X984004Y351416D02*
D03*
Y360416D02*
D03*
X958982Y351662D02*
D03*
Y360662D02*
D03*
X967041Y351662D02*
D03*
Y360662D02*
D03*
X958748Y274582D02*
D03*
Y265582D02*
D03*
X711253Y675417D02*
D03*
Y684417D02*
D03*
X1018748Y274582D02*
D03*
Y265582D02*
D03*
X1351173Y675414D02*
D03*
Y684414D02*
D03*
X318747Y274585D02*
D03*
Y265585D02*
D03*
X651253Y675417D02*
D03*
Y684417D02*
D03*
X1078748Y274582D02*
D03*
Y265582D02*
D03*
X1291173Y675414D02*
D03*
Y684414D02*
D03*
X378747Y274585D02*
D03*
Y265585D02*
D03*
X591253Y675417D02*
D03*
Y684417D02*
D03*
X1231173Y675414D02*
D03*
Y684414D02*
D03*
X438747Y274585D02*
D03*
Y265585D02*
D03*
X531253Y675417D02*
D03*
Y684417D02*
D03*
X1198748Y274582D02*
D03*
Y265582D02*
D03*
X1171173Y675414D02*
D03*
Y684414D02*
D03*
X498747Y274585D02*
D03*
Y265585D02*
D03*
X471253Y675417D02*
D03*
Y684417D02*
D03*
X1258748Y274582D02*
D03*
Y265582D02*
D03*
X1111173Y675414D02*
D03*
Y684414D02*
D03*
X558747Y274585D02*
D03*
Y265585D02*
D03*
X411253Y675417D02*
D03*
Y684417D02*
D03*
X1318748Y274582D02*
D03*
Y265582D02*
D03*
X1051173Y675414D02*
D03*
Y684414D02*
D03*
X618747Y274585D02*
D03*
Y265585D02*
D03*
X351253Y675417D02*
D03*
Y684417D02*
D03*
X991173Y675414D02*
D03*
Y684414D02*
D03*
X678747Y274585D02*
D03*
Y265585D02*
D03*
X964975Y296237D02*
D03*
Y287237D02*
D03*
X705025Y653763D02*
D03*
Y662763D02*
D03*
X1024975Y296237D02*
D03*
Y287237D02*
D03*
X1344945Y653760D02*
D03*
Y662760D02*
D03*
X324975Y296240D02*
D03*
Y287240D02*
D03*
X645025Y653763D02*
D03*
Y662763D02*
D03*
X1084975Y296237D02*
D03*
Y287237D02*
D03*
X1284945Y653760D02*
D03*
Y662760D02*
D03*
X384975Y296240D02*
D03*
Y287240D02*
D03*
X585025Y653763D02*
D03*
Y662763D02*
D03*
X1144975Y296237D02*
D03*
Y287237D02*
D03*
X1224945Y653760D02*
D03*
Y662760D02*
D03*
X444975Y296240D02*
D03*
Y287240D02*
D03*
X525025Y653763D02*
D03*
Y662763D02*
D03*
X1204975Y296237D02*
D03*
Y287237D02*
D03*
X1164945Y653760D02*
D03*
Y662760D02*
D03*
X504975Y296240D02*
D03*
Y287240D02*
D03*
X465025Y653763D02*
D03*
Y662763D02*
D03*
X1264975Y296237D02*
D03*
Y287237D02*
D03*
X1104945Y653760D02*
D03*
Y662760D02*
D03*
X564975Y296240D02*
D03*
Y287240D02*
D03*
X405025Y653763D02*
D03*
Y662763D02*
D03*
X1324975Y296237D02*
D03*
Y287237D02*
D03*
X1044945Y653760D02*
D03*
Y662760D02*
D03*
X624975Y296240D02*
D03*
Y287240D02*
D03*
X345025Y653763D02*
D03*
Y662763D02*
D03*
X984945Y653760D02*
D03*
Y662760D02*
D03*
X684975Y296240D02*
D03*
Y287240D02*
D03*
X1385507Y612991D02*
D03*
Y621991D02*
D03*
X284727Y336787D02*
D03*
Y327787D02*
D03*
X1385009Y358005D02*
D03*
Y367005D02*
D03*
X284491Y592495D02*
D03*
Y583495D02*
D03*
X872735Y442032D02*
D03*
Y433032D02*
D03*
X847967Y442032D02*
D03*
Y433032D02*
D03*
X805057D02*
D03*
Y442032D02*
D03*
X797374D02*
D03*
Y433032D02*
D03*
X1138748Y274582D02*
D03*
Y265582D02*
D03*
X992293Y360416D02*
D03*
Y351416D02*
D03*
X950857Y360919D02*
D03*
Y351919D02*
D03*
X975941Y360590D02*
D03*
Y351590D02*
D03*
D43*
X468753Y541995D02*
D03*
X487753D02*
D03*
X508228Y408266D02*
D03*
X489228D02*
D03*
X1168238Y546026D02*
D03*
X1187238D02*
D03*
X1201244Y404754D02*
D03*
X1182244D02*
D03*
X1292730Y529302D02*
D03*
X1311730D02*
D03*
X602210Y489465D02*
D03*
X621209D02*
D03*
X272991Y343011D02*
D03*
X253991D02*
D03*
X1397009Y351989D02*
D03*
X1416009D02*
D03*
X1416006Y606982D02*
D03*
X1397006D02*
D03*
X253991Y598011D02*
D03*
X272991D02*
D03*
D46*
X501803Y1147840D02*
D03*
X346860Y1166890D02*
D03*
X275740Y1077990D02*
D03*
D47*
X501803Y1173240D02*
D03*
X527203Y1147840D02*
D03*
Y1173240D02*
D03*
X552603Y1147840D02*
D03*
Y1173240D02*
D03*
X346860Y1141490D02*
D03*
X321460Y1166890D02*
D03*
Y1141490D02*
D03*
X250340Y1052590D02*
D03*
Y1077990D02*
D03*
X275740Y1052590D02*
D03*
D48*
X400200Y1136410D02*
D03*
X425600D02*
D03*
X451000D02*
D03*
X400200Y1169430D02*
D03*
X425600D02*
D03*
D49*
X451000D02*
D03*
D50*
X812080Y799860D02*
D03*
X862080D02*
D03*
D51*
X539970Y822720D02*
D03*
X606000Y860500D02*
D03*
X846867Y815703D02*
D03*
X847240Y822720D02*
D03*
X862480Y815703D02*
D03*
Y822720D02*
D03*
X854821Y815703D02*
D03*
X871331D02*
D03*
X889111D02*
D03*
X880182D02*
D03*
X880221Y822720D02*
D03*
X889150D02*
D03*
X871370D02*
D03*
X854860D02*
D03*
X846867Y778873D02*
D03*
X847240Y785890D02*
D03*
X862480Y778873D02*
D03*
Y785890D02*
D03*
X854821Y778873D02*
D03*
X871331D02*
D03*
X889111D02*
D03*
X880182D02*
D03*
X880221Y785890D02*
D03*
X889150D02*
D03*
X871370D02*
D03*
X854860D02*
D03*
X784637Y778873D02*
D03*
X785010Y785890D02*
D03*
X800250Y778873D02*
D03*
Y785890D02*
D03*
X792591Y778873D02*
D03*
X809101D02*
D03*
X826881D02*
D03*
X817952D02*
D03*
X817991Y785890D02*
D03*
X826920D02*
D03*
X809140D02*
D03*
X792630D02*
D03*
X784637Y815703D02*
D03*
X785010Y822720D02*
D03*
X800250Y815703D02*
D03*
Y822720D02*
D03*
X792591Y815703D02*
D03*
X809101D02*
D03*
X826881D02*
D03*
X817952D02*
D03*
X817991Y822720D02*
D03*
X826920D02*
D03*
X809140D02*
D03*
X792630D02*
D03*
X639073Y907690D02*
D03*
X646596Y906193D02*
D03*
X578000Y876206D02*
D03*
X255420Y848120D02*
D03*
X376070Y894776D02*
D03*
X659280Y1047510D02*
D03*
X657335Y1071680D02*
D03*
X398168Y865566D02*
D03*
X681124Y863994D02*
D03*
X689760Y848120D02*
D03*
X691666Y865883D02*
D03*
X400200Y878600D02*
D03*
X411630Y895110D02*
D03*
X412115Y903944D02*
D03*
X410360Y912890D02*
D03*
X411630Y920510D02*
D03*
X412900Y933210D02*
D03*
X417980Y925590D02*
D03*
X439570Y885620D02*
D03*
X410360Y876206D02*
D03*
Y848120D02*
D03*
X439570Y861756D02*
D03*
X409090Y885813D02*
D03*
X421948Y886556D02*
D03*
X399685Y911334D02*
D03*
X552600Y984010D02*
D03*
X529740Y977660D02*
D03*
X514500Y961150D02*
D03*
X730400Y967500D02*
D03*
X570380Y924320D02*
D03*
X518310Y916700D02*
D03*
X254785Y789065D02*
D03*
X249070Y818910D02*
D03*
X240295Y817005D02*
D03*
X333190Y822720D02*
D03*
X344320Y884950D02*
D03*
X421790Y945871D02*
D03*
X374800Y961111D02*
D03*
X653673Y1024030D02*
D03*
X664360Y1029730D02*
D03*
X641609Y1033526D02*
D03*
X695835Y1055405D02*
D03*
X706270Y1064413D02*
D03*
X527276Y1077990D02*
D03*
X885340Y1107200D02*
D03*
X884070Y1168160D02*
D03*
Y1140220D02*
D03*
X965350Y1108470D02*
D03*
X964080Y1169430D02*
D03*
Y1141490D02*
D03*
X882800Y1011328D02*
D03*
X881530Y1072288D02*
D03*
Y1044348D02*
D03*
X985670Y1052590D02*
D03*
Y1036080D02*
D03*
Y1018300D02*
D03*
Y1027229D02*
D03*
X978653Y1027268D02*
D03*
Y1018339D02*
D03*
Y1036119D02*
D03*
Y1052629D02*
D03*
X985670Y1044970D02*
D03*
X978653D02*
D03*
X985670Y1060210D02*
D03*
X978653Y1060583D02*
D03*
X985670Y1152920D02*
D03*
Y1136410D02*
D03*
Y1118630D02*
D03*
Y1127559D02*
D03*
X978653Y1127598D02*
D03*
Y1118669D02*
D03*
Y1136449D02*
D03*
Y1152959D02*
D03*
X985670Y1145300D02*
D03*
X978653D02*
D03*
X985670Y1160540D02*
D03*
X978653Y1160913D02*
D03*
X857400Y1150380D02*
D03*
Y1133870D02*
D03*
Y1116090D02*
D03*
Y1125019D02*
D03*
X850383Y1125058D02*
D03*
Y1116129D02*
D03*
Y1133909D02*
D03*
Y1150419D02*
D03*
X857400Y1142760D02*
D03*
X850383D02*
D03*
X857400Y1158000D02*
D03*
X850383Y1158373D02*
D03*
X857400Y1051320D02*
D03*
Y1034810D02*
D03*
Y1017030D02*
D03*
Y1025959D02*
D03*
X850383Y1025998D02*
D03*
Y1017069D02*
D03*
Y1034849D02*
D03*
Y1051359D02*
D03*
X857400Y1043700D02*
D03*
X850383D02*
D03*
X857400Y1058940D02*
D03*
X850383Y1059313D02*
D03*
X963000Y1042391D02*
D03*
Y1070331D02*
D03*
X964270Y1009371D02*
D03*
X984400Y926860D02*
D03*
X976780D02*
D03*
Y961111D02*
D03*
X984400D02*
D03*
Y944562D02*
D03*
X976780Y944601D02*
D03*
X964270Y940881D02*
D03*
Y973811D02*
D03*
Y914121D02*
D03*
X878990Y941727D02*
D03*
Y961444D02*
D03*
X880260Y918105D02*
D03*
X850383Y961484D02*
D03*
X857400Y961111D02*
D03*
X850383Y945871D02*
D03*
X857400D02*
D03*
X646580Y868440D02*
D03*
X646722Y850994D02*
D03*
X649454Y837960D02*
D03*
X604597Y885813D02*
D03*
X611020Y890030D02*
D03*
X609929Y903220D02*
D03*
X556410Y826530D02*
D03*
X517040Y811290D02*
D03*
X632444Y982574D02*
D03*
X639673Y985985D02*
D03*
X626260Y1011950D02*
D03*
X611020Y1015760D02*
D03*
X647197Y988247D02*
D03*
X663090Y1011950D02*
D03*
X669440Y1022110D02*
D03*
X677060Y1032270D02*
D03*
X688490Y1038620D02*
D03*
X687220Y1046288D02*
D03*
X598320Y1011950D02*
D03*
X850383Y953530D02*
D03*
Y937020D02*
D03*
Y919240D02*
D03*
Y928169D02*
D03*
X857400Y928130D02*
D03*
Y919201D02*
D03*
Y936981D02*
D03*
Y953491D02*
D03*
X976780D02*
D03*
Y935711D02*
D03*
Y917931D02*
D03*
X984400Y953491D02*
D03*
Y935711D02*
D03*
Y917931D02*
D03*
X329080Y902396D02*
D03*
X228750Y832880D02*
D03*
X618335Y1130365D02*
D03*
X604670Y1136530D02*
D03*
X657335Y1109740D02*
D03*
X644100Y1102104D02*
D03*
X656740Y1117360D02*
D03*
X668170Y1111010D02*
D03*
X677060Y1051108D02*
D03*
X645310Y1055680D02*
D03*
X712620Y994170D02*
D03*
X690229Y890554D02*
D03*
X677840Y883902D02*
D03*
X691230Y873720D02*
D03*
X600090Y1019570D02*
D03*
X566570Y1032270D02*
D03*
X626335Y1032680D02*
D03*
X722780Y989090D02*
D03*
X801444Y958610D02*
D03*
X801520Y887490D02*
D03*
X738481D02*
D03*
X595780Y1136530D02*
D03*
X585620D02*
D03*
X555140Y1053860D02*
D03*
X540710Y1062656D02*
D03*
X569110Y1055130D02*
D03*
X548234Y1060575D02*
D03*
X555140Y1005600D02*
D03*
X537360Y984010D02*
D03*
X544980Y987820D02*
D03*
X546250Y995440D02*
D03*
X491640Y972580D02*
D03*
X567840Y1103390D02*
D03*
X584350Y1044970D02*
D03*
X566570Y1095770D02*
D03*
X544980Y801130D02*
D03*
X555140Y812560D02*
D03*
X495450D02*
D03*
X233830Y771920D02*
D03*
X264310Y907276D02*
D03*
X325270Y910350D02*
D03*
X278280Y943426D02*
D03*
X341272Y904428D02*
D03*
X327810Y879440D02*
D03*
X331037Y892054D02*
D03*
X486997Y1075013D02*
D03*
X494180Y1084340D02*
D03*
X486560Y1065233D02*
D03*
X604670Y908746D02*
D03*
X523390Y1020840D02*
D03*
X514500Y1025920D02*
D03*
X501800D02*
D03*
X586335Y1118680D02*
D03*
X440840Y1119900D02*
D03*
X445920Y1050050D02*
D03*
X433220Y1052590D02*
D03*
X426870Y1058940D02*
D03*
X514500Y1083070D02*
D03*
X527200Y1088150D02*
D03*
X527417Y1097040D02*
D03*
X414170Y1084340D02*
D03*
X376070Y976390D02*
D03*
X370990Y1038984D02*
D03*
X613063Y1075679D02*
D03*
X622450Y1077990D02*
D03*
X490370Y1038620D02*
D03*
X486560Y1019570D02*
D03*
X514500Y1091960D02*
D03*
X413973Y1056400D02*
D03*
X419250Y1062750D02*
D03*
X444650Y1057670D02*
D03*
X420520Y1032721D02*
D03*
X482750Y999059D02*
D03*
X567840Y900190D02*
D03*
X645310Y930590D02*
D03*
X718970Y864630D02*
D03*
X718208Y920844D02*
D03*
X715160Y958610D02*
D03*
X669873Y952594D02*
D03*
X580150Y845914D02*
D03*
X550202D02*
D03*
X605432Y896808D02*
D03*
X605138Y878170D02*
D03*
X691030Y930670D02*
D03*
X698554Y928701D02*
D03*
X691204Y918144D02*
D03*
X698650Y912890D02*
D03*
X691030Y906540D02*
D03*
X689760Y898078D02*
D03*
X728796Y832880D02*
D03*
X701348Y885286D02*
D03*
X558950Y893506D02*
D03*
X557680Y941766D02*
D03*
X450986Y833831D02*
D03*
X519580Y848120D02*
D03*
Y877250D02*
D03*
X437030Y959880D02*
D03*
X369720Y851342D02*
D03*
X368450Y925590D02*
D03*
X364640Y895110D02*
D03*
X240180Y963690D02*
D03*
Y926860D02*
D03*
Y877250D02*
D03*
X302410Y848120D02*
D03*
X240180Y849390D02*
D03*
X294020Y964960D02*
D03*
X313840Y917874D02*
D03*
X308293Y861154D02*
D03*
X575460Y963690D02*
D03*
X570380Y906540D02*
D03*
X259230Y1144605D02*
D03*
Y1176540D02*
D03*
X486560Y1082778D02*
D03*
X370990Y1048780D02*
D03*
X486560Y1104095D02*
D03*
X494180Y1093230D02*
D03*
X358693Y1026787D02*
D03*
X760880Y1065788D02*
D03*
X777390Y1079260D02*
D03*
X717700Y1020840D02*
D03*
X718190Y1078600D02*
D03*
X802790Y1085610D02*
D03*
X221130Y1194830D02*
D03*
Y1128790D02*
D03*
X720240Y1162729D02*
D03*
X703730D02*
D03*
X736902D02*
D03*
X751990D02*
D03*
X768352Y1161459D02*
D03*
X785010D02*
D03*
X454810Y976056D02*
D03*
X327810Y861756D02*
D03*
X270000Y578000D02*
D03*
X768000Y564000D02*
D03*
X772000Y548000D02*
D03*
X856000D02*
D03*
X828644Y601645D02*
D03*
X820998Y601999D02*
D03*
X873000Y447000D02*
D03*
X796998Y446999D02*
D03*
X805057Y446958D02*
D03*
X1067000Y372000D02*
D03*
X1013000Y406000D02*
D03*
X991000D02*
D03*
X983000Y345000D02*
D03*
X991000Y341000D02*
D03*
X976000D02*
D03*
X959998Y345999D02*
D03*
X966000Y341000D02*
D03*
X953000Y342000D02*
D03*
X884000D02*
D03*
X849997Y337003D02*
D03*
X850000Y330000D02*
D03*
X837839Y305161D02*
D03*
X851000Y296000D02*
D03*
X820000Y330000D02*
D03*
X807384Y348512D02*
D03*
Y357866D02*
D03*
X1385000Y344000D02*
D03*
X1399987Y371000D02*
D03*
X1385000Y599500D02*
D03*
X1399998Y626259D02*
D03*
X270234Y324000D02*
D03*
X283999Y605999D02*
D03*
X284491Y597495D02*
D03*
X340005Y296993D02*
D03*
X972001Y297001D02*
D03*
X980006Y296991D02*
D03*
X997757Y283243D02*
D03*
X993250Y251512D02*
D03*
X959000Y305000D02*
D03*
X967501Y270500D02*
D03*
X1032001Y297001D02*
D03*
X1040006Y296991D02*
D03*
X1057757Y283243D02*
D03*
X1053250Y251512D02*
D03*
X1019000Y305000D02*
D03*
X1027501Y270500D02*
D03*
X332001Y297004D02*
D03*
X357757Y283246D02*
D03*
X353250Y251514D02*
D03*
X319000Y305003D02*
D03*
X327500Y270503D02*
D03*
X1092001Y297001D02*
D03*
X1100006Y296991D02*
D03*
X1117757Y283243D02*
D03*
X1113251Y251512D02*
D03*
X1079000Y305000D02*
D03*
X1087501Y270500D02*
D03*
X392001Y297004D02*
D03*
X400005Y296993D02*
D03*
X417757Y283246D02*
D03*
X413250Y251514D02*
D03*
X379000Y305003D02*
D03*
X387500Y270503D02*
D03*
X1152001Y297001D02*
D03*
X1160006Y296991D02*
D03*
X1177757Y283243D02*
D03*
X1173251Y251512D02*
D03*
X1139000Y305000D02*
D03*
X1147501Y270500D02*
D03*
X452001Y297004D02*
D03*
X460005Y296993D02*
D03*
X477757Y283246D02*
D03*
X473250Y251514D02*
D03*
X439000Y305003D02*
D03*
X447500Y270503D02*
D03*
X1212001Y297001D02*
D03*
X1220006Y296991D02*
D03*
X1237757Y283243D02*
D03*
X1233251Y251512D02*
D03*
X1199000Y305000D02*
D03*
X1207501Y270500D02*
D03*
X512001Y297004D02*
D03*
X520005Y296993D02*
D03*
X537757Y283246D02*
D03*
X533250Y251514D02*
D03*
X499000Y305003D02*
D03*
X507500Y270503D02*
D03*
X1272001Y297001D02*
D03*
X1280006Y296991D02*
D03*
X1297757Y283243D02*
D03*
X1293250Y251512D02*
D03*
X1259000Y305000D02*
D03*
X1267501Y270500D02*
D03*
X572001Y297004D02*
D03*
X580005Y296993D02*
D03*
X597757Y283246D02*
D03*
X593250Y251514D02*
D03*
X559000Y305003D02*
D03*
X567500Y270503D02*
D03*
X632001Y297004D02*
D03*
X640005Y296993D02*
D03*
X657757Y283246D02*
D03*
X653250Y251514D02*
D03*
X619000Y305003D02*
D03*
X627500Y270503D02*
D03*
X692001Y297004D02*
D03*
X700005Y296993D02*
D03*
X717757Y283246D02*
D03*
X713250Y251514D02*
D03*
X679000Y305003D02*
D03*
X687500Y270503D02*
D03*
X689995Y653009D02*
D03*
X672243Y666757D02*
D03*
X697999Y652999D02*
D03*
X676750Y698488D02*
D03*
X711000Y645000D02*
D03*
X702500Y679500D02*
D03*
X1312163Y666753D02*
D03*
X1329915Y653006D02*
D03*
X1337919Y652995D02*
D03*
X1316670Y698485D02*
D03*
X1350920Y644997D02*
D03*
X1342420Y679497D02*
D03*
X612243Y666757D02*
D03*
X629995Y653009D02*
D03*
X637999Y652999D02*
D03*
X616750Y698488D02*
D03*
X651000Y645000D02*
D03*
X642500Y679500D02*
D03*
X1252163Y666753D02*
D03*
X1269915Y653006D02*
D03*
X1277919Y652995D02*
D03*
X1256670Y698485D02*
D03*
X1290920Y644997D02*
D03*
X1282420Y679497D02*
D03*
X552243Y666757D02*
D03*
X569995Y653009D02*
D03*
X577999Y652999D02*
D03*
X556750Y698488D02*
D03*
X591000Y645000D02*
D03*
X582500Y679500D02*
D03*
X1192163Y666753D02*
D03*
X1209915Y653006D02*
D03*
X1217919Y652995D02*
D03*
X1196670Y698485D02*
D03*
X1230920Y644997D02*
D03*
X1222420Y679497D02*
D03*
X1132163Y666753D02*
D03*
X1149915Y653006D02*
D03*
X1157919Y652995D02*
D03*
X1136670Y698485D02*
D03*
X1170920Y644997D02*
D03*
X1162420Y679497D02*
D03*
X432243Y666757D02*
D03*
X449995Y653009D02*
D03*
X457999Y652999D02*
D03*
X436750Y698488D02*
D03*
X471000Y645000D02*
D03*
X462500Y679500D02*
D03*
X1072163Y666753D02*
D03*
X1089915Y653006D02*
D03*
X1097919Y652995D02*
D03*
X1076670Y698485D02*
D03*
X1110920Y644997D02*
D03*
X1102420Y679497D02*
D03*
X372243Y666757D02*
D03*
X389995Y653009D02*
D03*
X397999Y652999D02*
D03*
X376750Y698488D02*
D03*
X411000Y645000D02*
D03*
X402500Y679500D02*
D03*
X1357757Y283243D02*
D03*
X1340006Y296991D02*
D03*
X1332002Y297001D02*
D03*
X1353250Y251512D02*
D03*
X1319001Y305000D02*
D03*
X1327500Y270500D02*
D03*
X1012163Y666753D02*
D03*
X1029915Y653006D02*
D03*
X1037919Y652995D02*
D03*
X1016670Y698485D02*
D03*
X1050920Y644997D02*
D03*
X1042420Y679497D02*
D03*
X312243Y666757D02*
D03*
X329995Y653009D02*
D03*
X337999Y652999D02*
D03*
X316750Y698488D02*
D03*
X351000Y645000D02*
D03*
X342500Y679500D02*
D03*
X952163Y666753D02*
D03*
X969915Y653006D02*
D03*
X977919Y652995D02*
D03*
X956670Y698485D02*
D03*
X990920Y644997D02*
D03*
X982420Y679497D02*
D03*
X1412000Y340000D02*
D03*
X1377000Y331247D02*
D03*
X1430988Y365750D02*
D03*
X1385509Y352505D02*
D03*
X258000Y355000D02*
D03*
X296778Y363753D02*
D03*
X239012Y329250D02*
D03*
X284491Y342495D02*
D03*
X284525Y352513D02*
D03*
X492243Y666757D02*
D03*
X517999Y652999D02*
D03*
X509995Y653009D02*
D03*
X481000Y601279D02*
D03*
X488000Y551999D02*
D03*
X1234000Y360000D02*
D03*
X1152697Y389504D02*
D03*
X538411Y359999D02*
D03*
X1180000Y599000D02*
D03*
X1187490Y600000D02*
D03*
X1302000Y490000D02*
D03*
X1310393D02*
D03*
X1184000Y350000D02*
D03*
X1192500Y349533D02*
D03*
X488000Y601279D02*
D03*
X496750Y348512D02*
D03*
X489000Y349005D02*
D03*
X611000Y447991D02*
D03*
X618470Y448000D02*
D03*
X611970Y470000D02*
D03*
X820957Y500250D02*
D03*
X822142Y446816D02*
D03*
X891032Y428000D02*
D03*
X488500Y398500D02*
D03*
X901000Y611000D02*
D03*
X845000Y606000D02*
D03*
X909000Y615000D02*
D03*
X836957Y608957D02*
D03*
X875000Y589000D02*
D03*
X932000Y480000D02*
D03*
X1025000D02*
D03*
X938000Y471000D02*
D03*
X814601Y609601D02*
D03*
X705518Y590482D02*
D03*
X633000Y514000D02*
D03*
X731000Y507000D02*
D03*
X725000Y501000D02*
D03*
X888000Y566000D02*
D03*
X887998Y551999D02*
D03*
X903499Y579501D02*
D03*
X813000Y584000D02*
D03*
X837000D02*
D03*
X845000D02*
D03*
X890000Y522000D02*
D03*
Y532000D02*
D03*
X843000Y292000D02*
D03*
X1203000Y483000D02*
D03*
Y503000D02*
D03*
X859000Y594000D02*
D03*
X880000Y580000D02*
D03*
X917000Y405000D02*
D03*
X955000Y401000D02*
D03*
X933340Y352660D02*
D03*
X1035827Y492827D02*
D03*
X1031000Y499000D02*
D03*
X1025000Y534000D02*
D03*
X1182476Y531476D02*
D03*
X1182000Y496000D02*
D03*
X1170000Y489000D02*
D03*
X1161000D02*
D03*
X892000Y487000D02*
D03*
X1196000Y560000D02*
D03*
X936000Y534000D02*
D03*
X1024000Y388000D02*
D03*
X1167252Y575273D02*
D03*
X1203741Y374755D02*
D03*
X1166998Y382498D02*
D03*
X828957Y519711D02*
D03*
X754431Y521072D02*
D03*
X518999Y532999D02*
D03*
X514836Y521476D02*
D03*
X475000Y425000D02*
D03*
X836957Y519803D02*
D03*
X754503Y529495D02*
D03*
X525999Y528999D02*
D03*
X484000Y425000D02*
D03*
X1333000Y496351D02*
D03*
Y488598D02*
D03*
X1188493Y565000D02*
D03*
X1204498Y575530D02*
D03*
X1302490Y511698D02*
D03*
X1182500Y383000D02*
D03*
X1197272Y398022D02*
D03*
X1310014Y511719D02*
D03*
X1282990Y518088D02*
D03*
X1276490Y513067D02*
D03*
X1295845Y518088D02*
D03*
X1376000Y586279D02*
D03*
X1268021Y434337D02*
D03*
X1259916Y428216D02*
D03*
X1253970Y434753D02*
D03*
X1248520Y512836D02*
D03*
X1254520Y517836D02*
D03*
X1260519Y512836D02*
D03*
X1267770Y517837D02*
D03*
X1289521Y513333D02*
D03*
X1302490Y428642D02*
D03*
X1295990Y434807D02*
D03*
X1289490Y428642D02*
D03*
X1282990Y434837D02*
D03*
X1276259Y428838D02*
D03*
X1329827Y440039D02*
D03*
X1354966Y486837D02*
D03*
X1359771Y464600D02*
D03*
X1349476D02*
D03*
X1337976Y464593D02*
D03*
X1354521Y441837D02*
D03*
X761000Y534000D02*
D03*
Y516000D02*
D03*
X519250Y560994D02*
D03*
X504503Y576000D02*
D03*
X504000Y568000D02*
D03*
X467257Y575743D02*
D03*
X844957Y519957D02*
D03*
X852957Y519913D02*
D03*
X605324Y476250D02*
D03*
X829048Y341287D02*
D03*
X838868Y434120D02*
D03*
X831000Y466000D02*
D03*
X847967Y446925D02*
D03*
X971477Y384327D02*
D03*
X785000Y556000D02*
D03*
X754601Y559399D02*
D03*
X730503Y559503D02*
D03*
X730902Y599000D02*
D03*
X754601Y599399D02*
D03*
X771000Y386000D02*
D03*
X866750Y425750D02*
D03*
X879450Y397450D02*
D03*
X853998Y396999D02*
D03*
X815950Y425950D02*
D03*
X841350Y425650D02*
D03*
X828650Y397650D02*
D03*
X803250Y397750D02*
D03*
X790550Y426550D02*
D03*
X777850Y417850D02*
D03*
Y408150D02*
D03*
X801003Y333003D02*
D03*
X811497Y322000D02*
D03*
X828339Y321000D02*
D03*
Y313000D02*
D03*
X892850Y381150D02*
D03*
Y390150D02*
D03*
X569999Y470999D02*
D03*
X557999D02*
D03*
X563999Y475999D02*
D03*
X577250Y476000D02*
D03*
X291000Y618904D02*
D03*
X585739Y387000D02*
D03*
X585970Y471230D02*
D03*
X592470Y476250D02*
D03*
X569396Y386379D02*
D03*
X563449Y392915D02*
D03*
X577500Y392500D02*
D03*
X531000Y645000D02*
D03*
X599000Y471495D02*
D03*
X664000Y400000D02*
D03*
X664445Y445000D02*
D03*
X658956Y422763D02*
D03*
X592470Y393000D02*
D03*
X611970Y386805D02*
D03*
X598970D02*
D03*
X605470Y392970D02*
D03*
X504876Y394374D02*
D03*
X669250Y422763D02*
D03*
X647456Y422756D02*
D03*
X639306Y398202D02*
D03*
X392252Y429251D02*
D03*
X382500D02*
D03*
X392252Y441751D02*
D03*
X383251D02*
D03*
X392500Y535751D02*
D03*
X383251D02*
D03*
X392500Y548251D02*
D03*
X383251D02*
D03*
X1228746Y380498D02*
D03*
X1239986Y380622D02*
D03*
X1166494Y374498D02*
D03*
X1136000Y590874D02*
D03*
X436000Y592000D02*
D03*
X533001Y380261D02*
D03*
X544241Y380385D02*
D03*
X1142247Y569530D02*
D03*
X1153746D02*
D03*
X1129995D02*
D03*
X1161995Y557530D02*
D03*
X1170372Y555418D02*
D03*
X470749Y374261D02*
D03*
X430000Y570000D02*
D03*
X462000Y558000D02*
D03*
X453751Y570000D02*
D03*
X442252D02*
D03*
X470377Y555888D02*
D03*
X496750Y698488D02*
D03*
X522500Y679500D02*
D03*
X1411998Y594993D02*
D03*
X1430986Y620743D02*
D03*
X1385507Y607498D02*
D03*
X239012Y584250D02*
D03*
X258000Y610000D02*
D03*
D52*
X235000Y602500D02*
D03*
X695000Y247503D02*
D03*
X974920Y702497D02*
D03*
X1435000Y347500D02*
D03*
X335000Y702500D02*
D03*
X635000Y247503D02*
D03*
X1034920Y702497D02*
D03*
X1335000Y247500D02*
D03*
X395000Y702500D02*
D03*
X575000Y247503D02*
D03*
X1094920Y702497D02*
D03*
X1275001Y247500D02*
D03*
X455000Y702500D02*
D03*
X515000Y247503D02*
D03*
X1154920Y702497D02*
D03*
X1215001Y247500D02*
D03*
X515000Y702500D02*
D03*
X455000Y247503D02*
D03*
X1214920Y702497D02*
D03*
X1155001Y247500D02*
D03*
X575000Y702500D02*
D03*
X395000Y247503D02*
D03*
X1274920Y702497D02*
D03*
X1095001Y247500D02*
D03*
X635000Y702500D02*
D03*
X335000Y247503D02*
D03*
X1334920Y702497D02*
D03*
X1035001Y247500D02*
D03*
X695000Y702500D02*
D03*
X235000Y347500D02*
D03*
X1434997Y602493D02*
D03*
X975001Y247500D02*
D03*
D53*
X629815Y577697D02*
D03*
Y552297D02*
D03*
X655215Y577697D02*
D03*
Y552297D02*
D03*
X680615Y577697D02*
D03*
Y552297D02*
D03*
X1072330Y554297D02*
D03*
Y579697D02*
D03*
X1046930D02*
D03*
Y554297D02*
D03*
X1021530Y579697D02*
D03*
Y554297D02*
D03*
X996130Y579697D02*
D03*
Y554297D02*
D03*
X919930D02*
D03*
Y579697D02*
D03*
X945330Y554297D02*
D03*
Y579697D02*
D03*
X970730Y554297D02*
D03*
Y579697D02*
D03*
D54*
X1365000Y382500D02*
D03*
X1370000Y217500D02*
D03*
X940000D02*
D03*
X940000Y317500D02*
D03*
X1365000Y567500D02*
D03*
X1370000Y732500D02*
D03*
X940000Y632500D02*
D03*
Y732500D02*
D03*
X730000Y632500D02*
D03*
Y732500D02*
D03*
X300000D02*
D03*
X305000Y567500D02*
D03*
X305000Y382500D02*
D03*
X300000Y217500D02*
D03*
X730000Y317500D02*
D03*
Y217500D02*
D03*
D55*
X1415000Y267500D02*
D03*
Y682500D02*
D03*
X895000Y267500D02*
D03*
Y682500D02*
D03*
X775000Y267500D02*
D03*
Y682500D02*
D03*
X255000D02*
D03*
Y267500D02*
D03*
D56*
X238750Y618500D02*
D03*
X231250Y586500D02*
D03*
X1438750Y363500D02*
D03*
X1431250Y331500D02*
D03*
X231250D02*
D03*
X238750Y363500D02*
D03*
X1431247Y586493D02*
D03*
X1438747Y618493D02*
D03*
D57*
X711000Y243753D02*
D03*
X679000Y251253D02*
D03*
X990920Y698747D02*
D03*
X958920Y706247D02*
D03*
X351000Y698750D02*
D03*
X319000Y706250D02*
D03*
X651000Y243753D02*
D03*
X619000Y251253D02*
D03*
X1050920Y698747D02*
D03*
X1018920Y706247D02*
D03*
X1351001Y243750D02*
D03*
X1319001Y251250D02*
D03*
X411000Y698750D02*
D03*
X379000Y706250D02*
D03*
X591000Y243753D02*
D03*
X559000Y251253D02*
D03*
X1110920Y698747D02*
D03*
X1078920Y706247D02*
D03*
X1291001Y243750D02*
D03*
X1259000Y251250D02*
D03*
X471000Y698750D02*
D03*
X439000Y706250D02*
D03*
X531000Y243753D02*
D03*
X499000Y251253D02*
D03*
X1170920Y698747D02*
D03*
X1138920Y706247D02*
D03*
X1231001Y243750D02*
D03*
X1199000Y251250D02*
D03*
X531000Y698750D02*
D03*
X499000Y706250D02*
D03*
X471000Y243753D02*
D03*
X439000Y251253D02*
D03*
X1230920Y698747D02*
D03*
X1198920Y706247D02*
D03*
X1171001Y243750D02*
D03*
X1139000Y251250D02*
D03*
X591000Y698750D02*
D03*
X559000Y706250D02*
D03*
X411000Y243753D02*
D03*
X379000Y251253D02*
D03*
X1290920Y698747D02*
D03*
X1258920Y706247D02*
D03*
X1111001Y243750D02*
D03*
X1079000Y251250D02*
D03*
X651000Y698750D02*
D03*
X619000Y706250D02*
D03*
X351000Y243753D02*
D03*
X319000Y251253D02*
D03*
X1350920Y698747D02*
D03*
X1318920Y706247D02*
D03*
X1051001Y243750D02*
D03*
X1019000Y251250D02*
D03*
X711000Y698750D02*
D03*
X679000Y706250D02*
D03*
X991001Y243750D02*
D03*
X959000Y251250D02*
D03*
D58*
X821846Y609601D02*
D03*
X830846D02*
D03*
X1198244Y488504D02*
D03*
X1189245D02*
D03*
X1198244Y496496D02*
D03*
X1189245D02*
D03*
X514243Y560994D02*
D03*
X505243D02*
D03*
X1187762Y531476D02*
D03*
X1196762D02*
D03*
X1156755Y389504D02*
D03*
X1165754D02*
D03*
X865032Y434531D02*
D03*
X856032D02*
D03*
X891032Y434538D02*
D03*
X882032D02*
D03*
X870496Y359999D02*
D03*
X879496D02*
D03*
X870497Y342000D02*
D03*
X879497D02*
D03*
X823500Y333003D02*
D03*
X832499D02*
D03*
X842840Y298496D02*
D03*
X833839D02*
D03*
X1407915Y586240D02*
D03*
X1416915D02*
D03*
X262082Y363753D02*
D03*
X253082D02*
D03*
X1407918Y331247D02*
D03*
X1416918D02*
D03*
X262082Y618753D02*
D03*
X253082D02*
D03*
X1386261Y592961D02*
D03*
X1395261D02*
D03*
X283737Y354525D02*
D03*
X274737D02*
D03*
X1386263Y337475D02*
D03*
X1395263D02*
D03*
X283737Y612525D02*
D03*
X274737D02*
D03*
X985759Y297019D02*
D03*
X994758D02*
D03*
X684242Y652981D02*
D03*
X675242D02*
D03*
X1045759Y297019D02*
D03*
X1054758D02*
D03*
X1324162Y652977D02*
D03*
X1315162D02*
D03*
X345758Y297022D02*
D03*
X354758D02*
D03*
X624242Y652981D02*
D03*
X615242D02*
D03*
X1105759Y297019D02*
D03*
X1114759D02*
D03*
X1264162Y652977D02*
D03*
X1255162D02*
D03*
X405758Y297022D02*
D03*
X414758D02*
D03*
X564242Y652981D02*
D03*
X555242D02*
D03*
X1165759Y297019D02*
D03*
X1174759D02*
D03*
X1204162Y652977D02*
D03*
X1195162D02*
D03*
X465758Y297022D02*
D03*
X474758D02*
D03*
X504242Y652981D02*
D03*
X495242D02*
D03*
X1225759Y297019D02*
D03*
X1234759D02*
D03*
X1144162Y652977D02*
D03*
X1135162D02*
D03*
X525758Y297022D02*
D03*
X534758D02*
D03*
X444242Y652981D02*
D03*
X435242D02*
D03*
X1285759Y297019D02*
D03*
X1294758D02*
D03*
X1084162Y652977D02*
D03*
X1075162D02*
D03*
X585758Y297022D02*
D03*
X594758D02*
D03*
X384242Y652981D02*
D03*
X375242D02*
D03*
X1345759Y297019D02*
D03*
X1354758D02*
D03*
X1024162Y652977D02*
D03*
X1015162D02*
D03*
X645758Y297022D02*
D03*
X654758D02*
D03*
X324242Y652981D02*
D03*
X315242D02*
D03*
X964162Y652977D02*
D03*
X955162D02*
D03*
X705758Y297022D02*
D03*
X714758D02*
D03*
X887504Y579501D02*
D03*
X896504D02*
D03*
D59*
X754503Y559399D02*
D03*
Y599399D02*
D03*
X730503D02*
D03*
Y559399D02*
D03*
D60*
X355184Y487251D02*
D03*
Y571751D02*
D03*
X354630Y380751D02*
D03*
Y465251D02*
D03*
D61*
X388184Y548251D02*
D03*
Y535751D02*
D03*
Y510751D02*
D03*
Y523251D02*
D03*
X387630Y441751D02*
D03*
Y429251D02*
D03*
Y404251D02*
D03*
Y416751D02*
D03*
D62*
X862000Y344003D02*
D03*
Y358003D02*
D03*
X850996Y302321D02*
D03*
Y316322D02*
D03*
D63*
X893496Y341499D02*
D03*
Y360500D02*
D03*
X1039489Y285491D02*
D03*
Y266491D02*
D03*
X339489Y285494D02*
D03*
Y266494D02*
D03*
X1099489Y285491D02*
D03*
Y266491D02*
D03*
X399489Y285494D02*
D03*
Y266494D02*
D03*
X1159489Y285491D02*
D03*
Y266491D02*
D03*
X459489Y285494D02*
D03*
Y266494D02*
D03*
X1219489Y285491D02*
D03*
Y266491D02*
D03*
X519489Y285494D02*
D03*
Y266494D02*
D03*
X1279489Y285491D02*
D03*
Y266491D02*
D03*
X579489Y285494D02*
D03*
Y266494D02*
D03*
X1339489Y285491D02*
D03*
Y266491D02*
D03*
X639489Y285494D02*
D03*
Y266494D02*
D03*
X690511Y683509D02*
D03*
Y664509D02*
D03*
X1330431Y683505D02*
D03*
Y664505D02*
D03*
X630511Y683509D02*
D03*
Y664509D02*
D03*
X1270431Y683505D02*
D03*
Y664505D02*
D03*
X570511Y683509D02*
D03*
Y664509D02*
D03*
X1210431Y683505D02*
D03*
Y664505D02*
D03*
X510511Y683509D02*
D03*
Y664509D02*
D03*
X1150431Y683505D02*
D03*
Y664505D02*
D03*
X450511Y683509D02*
D03*
Y664509D02*
D03*
X1090431Y683505D02*
D03*
Y664505D02*
D03*
X390511Y683509D02*
D03*
Y664509D02*
D03*
X1030431Y683505D02*
D03*
Y664505D02*
D03*
X970431Y683505D02*
D03*
Y664505D02*
D03*
X330511Y683509D02*
D03*
Y664509D02*
D03*
X979489Y266491D02*
D03*
Y285491D02*
D03*
X699489Y266494D02*
D03*
Y285494D02*
D03*
D64*
X818839Y324500D02*
D03*
Y319499D02*
D03*
X837839Y324500D02*
D03*
Y319499D02*
D03*
Y314499D02*
D03*
Y309499D02*
D03*
X818839D02*
D03*
Y314499D02*
D03*
D65*
X828339Y316999D02*
D03*
D66*
X836824Y341287D02*
D03*
Y347786D02*
D03*
Y354286D02*
D03*
X814824D02*
D03*
Y347786D02*
D03*
Y341287D02*
D03*
D67*
X1295990Y475598D02*
D03*
X605470Y433760D02*
D03*
D68*
X1276490Y447248D02*
D03*
X1282990D02*
D03*
X1289490D02*
D03*
X1295990D02*
D03*
X1302490D02*
D03*
X1308990D02*
D03*
X1315490D02*
D03*
Y503948D02*
D03*
X1308990D02*
D03*
X1302490D02*
D03*
X1295990D02*
D03*
X1289490D02*
D03*
X1282990D02*
D03*
X1276490D02*
D03*
X585970Y405410D02*
D03*
X592470D02*
D03*
X598970D02*
D03*
X605470D02*
D03*
X611970D02*
D03*
X618470D02*
D03*
X624970D02*
D03*
Y462110D02*
D03*
X618470D02*
D03*
X611970D02*
D03*
X605470D02*
D03*
X598970D02*
D03*
X592470D02*
D03*
X585970D02*
D03*
D69*
X1267640Y495098D02*
D03*
Y488598D02*
D03*
Y482098D02*
D03*
Y475598D02*
D03*
Y469098D02*
D03*
Y462598D02*
D03*
Y456098D02*
D03*
X1324340D02*
D03*
Y462598D02*
D03*
Y469098D02*
D03*
Y475598D02*
D03*
Y482098D02*
D03*
Y488598D02*
D03*
Y495098D02*
D03*
X577120Y453260D02*
D03*
Y446760D02*
D03*
Y440260D02*
D03*
Y433760D02*
D03*
Y427260D02*
D03*
Y420760D02*
D03*
Y414260D02*
D03*
X633820D02*
D03*
Y420760D02*
D03*
Y427260D02*
D03*
Y433760D02*
D03*
Y440260D02*
D03*
Y446760D02*
D03*
Y453260D02*
D03*
D70*
X849997Y358500D02*
D03*
Y343500D02*
D03*
D71*
X801548Y357866D02*
D03*
Y347866D02*
D03*
X810997Y304000D02*
D03*
Y314000D02*
D03*
X991714Y273243D02*
D03*
Y283243D02*
D03*
X678286Y676757D02*
D03*
Y666757D02*
D03*
X1051714Y273243D02*
D03*
Y283243D02*
D03*
X1318206Y676753D02*
D03*
Y666753D02*
D03*
X351714Y273246D02*
D03*
Y283246D02*
D03*
X618286Y676757D02*
D03*
Y666757D02*
D03*
X1111714Y273243D02*
D03*
Y283243D02*
D03*
X1258206Y676753D02*
D03*
Y666753D02*
D03*
X411714Y273246D02*
D03*
Y283246D02*
D03*
X558286Y676757D02*
D03*
Y666757D02*
D03*
X1171714Y273243D02*
D03*
Y283243D02*
D03*
X1198206Y676753D02*
D03*
Y666753D02*
D03*
X471714Y273246D02*
D03*
Y283246D02*
D03*
X498286Y676757D02*
D03*
Y666757D02*
D03*
X1231714Y273243D02*
D03*
Y283243D02*
D03*
X1138206Y676753D02*
D03*
Y666753D02*
D03*
X531714Y273246D02*
D03*
Y283246D02*
D03*
X438286Y676757D02*
D03*
Y666757D02*
D03*
X1291714Y273243D02*
D03*
Y283243D02*
D03*
X1078206Y676753D02*
D03*
Y666753D02*
D03*
X591714Y273246D02*
D03*
Y283246D02*
D03*
X378286Y676757D02*
D03*
Y666757D02*
D03*
X1351714Y273243D02*
D03*
Y283243D02*
D03*
X1018206Y676753D02*
D03*
Y666753D02*
D03*
X651714Y273246D02*
D03*
Y283246D02*
D03*
X318286Y676757D02*
D03*
Y666757D02*
D03*
X958206Y676753D02*
D03*
Y666753D02*
D03*
X711714Y273246D02*
D03*
Y283246D02*
D03*
X880001Y546497D02*
D03*
Y556497D02*
D03*
D72*
X892150Y413589D02*
D03*
Y386411D02*
D03*
X879450Y413589D02*
D03*
Y386411D02*
D03*
X866750Y413589D02*
D03*
Y386411D02*
D03*
X854050Y413589D02*
D03*
Y386411D02*
D03*
X841350Y413589D02*
D03*
Y386411D02*
D03*
X828650Y413589D02*
D03*
Y386411D02*
D03*
X777850D02*
D03*
Y413589D02*
D03*
X790550Y386411D02*
D03*
Y413589D02*
D03*
X803250Y386411D02*
D03*
Y413589D02*
D03*
X815950Y386411D02*
D03*
Y413589D02*
D03*
D73*
X1185000Y356249D02*
D03*
X1185993Y593779D02*
D03*
X489255Y356012D02*
D03*
X485998Y594249D02*
D03*
D74*
X1197500Y374755D02*
D03*
X1192500D02*
D03*
X1187500D02*
D03*
X1182500D02*
D03*
X1177500D02*
D03*
X1172500D02*
D03*
Y337744D02*
D03*
X1177500D02*
D03*
X1182500D02*
D03*
X1187500D02*
D03*
X1192500D02*
D03*
X1197500D02*
D03*
X1173493Y575273D02*
D03*
X1178493D02*
D03*
X1183493D02*
D03*
X1188493D02*
D03*
X1193493D02*
D03*
X1198493D02*
D03*
Y612284D02*
D03*
X1193493D02*
D03*
X1188493D02*
D03*
X1183493D02*
D03*
X1178493D02*
D03*
X1173493D02*
D03*
X501755Y374518D02*
D03*
X496755D02*
D03*
X491755D02*
D03*
X486755D02*
D03*
X481755D02*
D03*
X476755D02*
D03*
Y337507D02*
D03*
X481755D02*
D03*
X486755D02*
D03*
X491755D02*
D03*
X496755D02*
D03*
X501755D02*
D03*
X473498Y575743D02*
D03*
X478498D02*
D03*
X483498D02*
D03*
X488498D02*
D03*
X493498D02*
D03*
X498498D02*
D03*
Y612755D02*
D03*
X493498D02*
D03*
X488498D02*
D03*
X483498D02*
D03*
X478498D02*
D03*
X473498D02*
D03*
D75*
X1166494Y368749D02*
D03*
Y363749D02*
D03*
Y358749D02*
D03*
Y353749D02*
D03*
Y348749D02*
D03*
Y343749D02*
D03*
X1203505D02*
D03*
Y348749D02*
D03*
Y353749D02*
D03*
Y358749D02*
D03*
Y363749D02*
D03*
X1204499Y581279D02*
D03*
Y586279D02*
D03*
Y591279D02*
D03*
Y596279D02*
D03*
Y601279D02*
D03*
Y606279D02*
D03*
X1167487D02*
D03*
Y601279D02*
D03*
Y596279D02*
D03*
Y591279D02*
D03*
Y586279D02*
D03*
X470749Y368512D02*
D03*
Y363512D02*
D03*
Y358512D02*
D03*
Y353512D02*
D03*
Y348512D02*
D03*
Y343512D02*
D03*
X507760D02*
D03*
Y348512D02*
D03*
Y353512D02*
D03*
Y358512D02*
D03*
Y363512D02*
D03*
X504503Y581749D02*
D03*
Y586749D02*
D03*
Y591749D02*
D03*
Y596749D02*
D03*
Y601749D02*
D03*
Y606749D02*
D03*
X467492D02*
D03*
Y601749D02*
D03*
Y596749D02*
D03*
Y591749D02*
D03*
Y586749D02*
D03*
D76*
X1203505Y368749D02*
D03*
X1167487Y581279D02*
D03*
X507760Y368512D02*
D03*
X467492Y581749D02*
D03*
M02*
