M48
;Layer_Color=9474304
;FILE_FORMAT=4:4
METRIC,LZ
;TYPE=PLATED
T1F00S00C0.3000
T2F00S00C0.8636
T3F00S00C0.8890
T4F00S00C0.9000
T5F00S00C1.0000
T6F00S00C1.3000
T7F00S00C3.6000
%
T01
X00239012Y0032925
X00270234Y00324
X00284491Y00342495
X00284525Y00352513
X00296778Y00363753
X00258Y00355
X00319Y00305003
X00332001Y00297004
X00340005Y00296993
X00357757Y00283246
X0035325Y00251514
X003275Y00270503
X003875
X00392001Y00297004
X00379Y00305003
X00400005Y00296993
X00417757Y00283246
X0041325Y00251514
X004475Y00270503
X00452001Y00297004
X00460005Y00296993
X00439Y00305003
X00499
X00512001Y00297004
X00520005Y00296993
X00537757Y00283246
X0053325Y00251514
X005075Y00270503
X00477757Y00283246
X0047325Y00251514
X005675Y00270503
X00572001Y00297004
X00580005Y00296993
X00559Y00305003
X00619
X00632001Y00297004
X00640005Y00296993
X00657757Y00283246
X0065325Y00251514
X006275Y00270503
X00597757Y00283246
X0059325Y00251514
X006875Y00270503
X00692001Y00297004
X00700005Y00296993
X00679Y00305003
X00717757Y00283246
X0071325Y00251514
X00771Y00386
X0061197Y00386805
X0060547Y0039297
X0059897Y00386805
X0059247Y00393
X00585739Y00387
X005775Y003925
X00569396Y00386379
X00563449Y00392915
X00544241Y00380385
X00533001Y00380261
X00538411Y00359999
X0049675Y00348512
X00489Y00349005
X00470749Y00374261
X00504876Y00394374
X00807384Y00357866
Y00348512
X00801003Y00333003
X00811497Y00322
X0082Y0033
X00828339Y00321
Y00313
X00837839Y00305161
X00843Y00292
X00851Y00296
X0085Y0033
X00849997Y00337003
X00829048Y00341287
X00884Y00342
X0089285Y0038115
Y0039015
X0093334Y0035266
X00953Y00342
X00959998Y00345999
X00966Y00341
X00976
X00983Y00345
X00991Y00341
X00980006Y00296991
X00972001Y00297001
X00959Y00305
X00967501Y002705
X00997757Y00283243
X0099325Y00251512
X01027501Y002705
X01032001Y00297001
X01040006Y00296991
X01019Y00305
X01079
X01092001Y00297001
X01100006Y00296991
X01117757Y00283243
X01113251Y00251512
X01087501Y002705
X01057757Y00283243
X0105325Y00251512
X01147501Y002705
X01152001Y00297001
X01160006Y00296991
X01139Y00305
X01177757Y00283243
X01173251Y00251512
X01184Y0035
X011825Y00383
X01166998Y00382498
X01166494Y00374498
X01152697Y00389504
X01067Y00372
X01024Y00388
X00971477Y00384327
X01203741Y00374755
X01228746Y00380498
X01239986Y00380622
X01234Y0036
X011925Y00349533
X01199Y00305
X01212001Y00297001
X01220006Y00296991
X01237757Y00283243
X01233251Y00251512
X01207501Y002705
X01267501
X01272001Y00297001
X01280006Y00296991
X01259Y00305
X01319001
X01332002Y00297001
X01340006Y00296991
X01357757Y00283243
X0135325Y00251512
X013275Y002705
X01297757Y00283243
X0129325Y00251512
X01377Y00331247
X01385Y00344
X01385509Y00352505
X01399987Y00371
X01430988Y0036575
X01412Y0034
X01354521Y00441837
X01329827Y00440039
X01337976Y00464593
X01349476Y004646
X01359771
X01354966Y00486837
X01333Y00488598
Y00496351
X01310393Y0049
X01302
X0130249Y00511698
X01310014Y00511719
X01295845Y00518088
X01289521Y00513333
X0128299Y00518088
X0127649Y00513067
X0126777Y00517837
X01260519Y00512836
X0125452Y00517836
X0124852Y00512836
X01203Y00503
Y00483
X01196Y0056
X01204498Y0057553
X01209915Y00653006
X01217919Y00652995
X0123092Y00644997
X0122242Y00679497
X01252163Y00666753
X01269915Y00653006
X01277919Y00652995
X0129092Y00644997
X0128242Y00679497
X01312163Y00666753
X01329915Y00653006
X01337919Y00652995
X0135092Y00644997
X0134242Y00679497
X0131667Y00698485
X0125667
X0119667
X01192163Y00666753
X01399998Y00626259
X01385507Y00607498
X01385Y005995
X01376Y00586279
X01411998Y00594993
X01430986Y00620743
X0130249Y00428642
X0129599Y00434807
X0128949Y00428642
X0128299Y00434837
X01276259Y00428838
X01268021Y00434337
X01259916Y00428216
X0125397Y00434753
X01197272Y00398022
X01182Y00496
X0117Y00489
X01161
X01182476Y00531476
X01170372Y00555418
X01161995Y0055753
X01153746Y0056953
X01142247
X01129995
X01136Y00590874
X01167252Y00575273
X01188493Y00565
X0118749Y006
X0118Y00599
X0117092Y00644997
X01157919Y00652995
X01149915Y00653006
X01132163Y00666753
X0113667Y00698485
X0116242Y00679497
X0110242
X01097919Y00652995
X01089915Y00653006
X0111092Y00644997
X0105092
X01037919Y00652995
X01029915Y00653006
X01012163Y00666753
X0101667Y00698485
X0104242Y00679497
X01072163Y00666753
X0107667Y00698485
X0098242Y00679497
X00977919Y00652995
X00969915Y00653006
X0099092Y00644997
X00952163Y00666753
X0095667Y00698485
X00909Y00615
X00901Y00611
X00903499Y00579501
X0088Y0058
X00875Y00589
X00859Y00594
X00845Y00584
X00837
X00813
X00820998Y00601999
X00828644Y00601645
X00836957Y00608957
X00845Y00606
X00814601Y00609601
X00856Y00548
X00852957Y00519913
X00844957Y00519957
X00836957Y00519803
X00828957Y00519711
X00820957Y0050025
X00831Y00466
X00822142Y00446816
X00805057Y00446958
X00796998Y00446999
X0081595Y0042595
X0084135Y0042565
X00838868Y0043412
X00847967Y00446925
X00873Y00447
X0086675Y0042575
X00891032Y00428
X0087945Y0039745
X00853998Y00396999
X0082865Y0039765
X0080325Y0039775
X00917Y00405
X00955Y00401
X00991Y00406
X01013
X01025Y0048
X01035827Y00492827
X01031Y00499
X01025Y00534
X00936
X0089Y00532
Y00522
X00887998Y00551999
X00888Y00566
X00892Y00487
X00932Y0048
X00938Y00471
X00889111Y00778873
X0088915Y0078589
X00880221
X00880182Y00778873
X00871331
X0087137Y0078589
X0086248
Y00778873
X00854821
X0085486Y0078589
X0084724
X00846867Y00778873
X00826881
X0082692Y0078589
X00817991
X00817952Y00778873
X00809101
X0080914Y0078589
X0080025
Y00778873
X00792591
X0079263Y0078589
X0078501
X00784637Y00778873
X007025Y006795
X00697999Y00652999
X00689995Y00653009
X00711Y00645
X00651
X00637999Y00652999
X00629995Y00653009
X00612243Y00666757
X0061675Y00698488
X006425Y006795
X00672243Y00666757
X0067675Y00698488
X005825Y006795
X00577999Y00652999
X00569995Y00653009
X00591Y00645
X00531
X00517999Y00652999
X00509995Y00653009
X00492243Y00666757
X0049675Y00698488
X005225Y006795
X00552243Y00666757
X0055675Y00698488
X004625Y006795
X00457999Y00652999
X00449995Y00653009
X00471Y00645
X00481Y00601279
X00488
X00504503Y00576
X00504Y00568
X0051925Y00560994
X00518999Y00532999
X00525999Y00528999
X00514836Y00521476
X00488Y00551999
X00470377Y00555888
X00462Y00558
X00453751Y0057
X00442252
X0043
X00436Y00592
X00467257Y00575743
X00411Y00645
X00397999Y00652999
X004025Y006795
X00432243Y00666757
X0043675Y00698488
X00475Y00425
X00484
X004885Y003985
X00557999Y00470999
X00563999Y00475999
X00569999Y00470999
X0057725Y00476
X0058597Y0047123
X0059247Y0047625
X00599Y00471495
X00605324Y0047625
X0061197Y0047
X00611Y00447991
X0061847Y00448
X00664445Y00445
X0066925Y00422763
X00658956
X00647456Y00422756
X00639306Y00398202
X00664Y004
X0077785Y0040815
Y0041785
X0079055Y0042655
X00761Y00516
X00754431Y00521072
X00754503Y00529495
X00761Y00534
X00772Y00548
X00768Y00564
X00754601Y00559399
X00730503Y00559503
X00730902Y00599
X00754601Y00599399
X00705518Y00590482
X00731Y00507
X00725Y00501
X00633Y00514
X00785Y00556
X003925Y00548251
X00383251
Y00535751
X003925
X00392252Y00441751
X00383251
X003825Y00429251
X00392252
X00389995Y00653009
X00372243Y00666757
X0037675Y00698488
X003425Y006795
X00337999Y00652999
X00329995Y00653009
X00351Y00645
X00312243Y00666757
X0031675Y00698488
X00291Y00618904
X00283999Y00605999
X00284491Y00597495
X0027Y00578
X00239012Y0058425
X00258Y0061
X00254785Y00789065
X0023383Y0077192
X00240295Y00817005
X0024907Y0081891
X0022875Y0083288
X0024018Y0084939
X0025542Y0084812
X0024018Y0087725
Y0092686
Y0096369
X0029402Y0096496
X0027828Y00943426
X0026431Y00907276
X0031384Y00917874
X0032527Y0091035
X0032908Y00902396
X00331037Y00892054
X0032781Y0087944
Y00861756
X00308293Y00861154
X0030241Y0084812
X0033319Y0082272
X0036972Y00851342
X0036464Y0089511
X0037607Y00894776
X0036845Y0092559
X003748Y00961111
X0037607Y0097639
X0037099Y01038984
Y0104878
X00358693Y01026787
X00341272Y00904428
X0034432Y0088495
X0025923Y01144605
Y0117654
X0022113Y0112879
X0044084Y011199
X0048656Y01104095
X0049418Y0109323
Y0108434
X0048656Y01082778
X00486997Y01075013
X0048656Y01065233
X0049037Y0103862
X0048656Y0101957
X005018Y0102592
X005145
X0052339Y0102084
X0055514Y010056
X0054625Y0099544
X0054498Y0098782
X005526Y0098401
X0053736
X0052974Y0097766
X005145Y0096115
X0049164Y0097258
X0048275Y00999059
X0045481Y00976056
X0043703Y0095988
X0042179Y00945871
X004129Y0093321
X0041798Y0092559
X0041163Y0092051
X0041036Y0091289
X00412115Y00903944
X0041163Y0089511
X0040909Y00885813
X0041036Y00876206
X004002Y008786
X00398168Y00865566
X0041036Y0084812
X0043957Y00861756
Y0088562
X00421948Y00886556
X00399685Y00911334
X0051831Y009167
X0051958Y0087725
Y0084812
X00550202Y00845914
X0055641Y0082653
X0055514Y0081256
X0054498Y0080113
X0053997Y0082272
X0051704Y0081129
X0049545Y0081256
X00450986Y00833831
X0058015Y00845914
X00578Y00876206
X00605138Y0087817
X00604597Y00885813
X0061102Y0089003
X00605432Y00896808
X00609929Y0090322
X0060467Y00908746
X00639073Y0090769
X00646596Y00906193
X0064531Y0093059
X0069103Y0093067
X00698554Y00928701
X0069865Y0091289
X00691204Y00918144
X0069103Y0090654
X0068976Y00898078
X00690229Y00890554
X00701348Y00885286
X0069123Y0087372
X00691666Y00865883
X00681124Y00863994
X0067784Y00883902
X0064658Y0086844
X00646722Y00850994
X00649454Y0083796
X0068976Y0084812
X0071897Y0086463
X00728796Y0083288
X00738481Y0088749
X00718208Y00920844
X0071516Y0095861
X007304Y009675
X0072278Y0098909
X0071262Y0099417
X007177Y0102084
X0068849Y0103862
X0068722Y01046288
X0067706Y01051108
Y0103227
X0066436Y0102973
X0066944Y0102211
X0066309Y0101195
X00653673Y0102403
X00641609Y01033526
X00626335Y0103268
X0062626Y0101195
X0061102Y0101576
X0060009Y0101957
X0059832Y0101195
X0058435Y0104497
X0056911Y0105513
X0055514Y0105386
X00548234Y01060575
X0054071Y01062656
X00527276Y0107799
X005272Y0108815
X00527417Y0109704
X005145Y0109196
Y0108307
X0056657Y0109577
X0056784Y0110339
X00586335Y0111868
X0058562Y0113653
X0059578
X0060467
X00618335Y01130365
X0065674Y0111736
X00657335Y0110974
X0066817Y0111101
X006441Y01102104
X00657335Y0107168
X0065928Y0104751
X0064531Y0105568
X0062245Y0107799
X00613063Y01075679
X0056657Y0103227
X0057546Y0096369
X0055768Y00941766
X0057038Y0092432
Y0090654
X0056784Y0090019
X0055895Y00893506
X00606Y008605
X00632444Y00982574
X00639673Y00985985
X00647197Y00988247
X00669873Y00952594
X00695835Y01055405
X0070627Y01064413
X0071819Y010786
X0076088Y01065788
X0077739Y0107926
X0078501Y01161459
X00768352
X0075199Y01162729
X00736902
X0072024
X0070373
X0044465Y0105767
X0044592Y0105005
X0043322Y0105259
X0042687Y0105894
X0041925Y0106275
X00413973Y010564
X0041417Y0108434
X0042052Y01032721
X0078501Y0082272
X00784637Y00815703
X00792591
X0079263Y0082272
X0080025
Y00815703
X00809101
X0080914Y0082272
X00817991
X00817952Y00815703
X00826881
X0082692Y0082272
X0084724
X00846867Y00815703
X00854821
X0085486Y0082272
X0086248
Y00815703
X00871331
X0087137Y0082272
X00880221
X00880182Y00815703
X00889111
X0088915Y0082272
X0088026Y00918105
X008574Y00919201
X00850383Y0091924
Y00928169
X008574Y0092813
Y00936981
X00850383Y0093702
Y00945871
X008574
Y00953491
X00850383Y0095353
Y00961484
X008574Y00961111
X0087899Y00961444
Y00941727
X008828Y01011328
X008574Y0101703
X00850383Y01017069
Y01025998
X008574Y01025959
Y0103481
X00850383Y01034849
Y010437
X008574
Y0105132
X00850383Y01051359
Y01059313
X008574Y0105894
X0088153Y01072288
Y01044348
X0088534Y011072
X0088407Y0114022
Y0116816
X008574Y01158
X00850383Y01158373
Y01150419
X008574Y0115038
Y0114276
X00850383
Y01133909
X008574Y0113387
Y01125019
X00850383Y01125058
Y01116129
X008574Y0111609
X0080279Y0108561
X00801444Y0095861
X0080152Y0088749
X0096427Y00914121
X0097678Y00917931
X009844
Y0092686
X0097678
Y00935711
X009844
Y00944562
X0097678Y00944601
Y00953491
Y00961111
X009844
Y00953491
X0096427Y00940881
Y00973811
Y01009371
X00978653Y01018339
X0098567Y010183
Y01027229
X00978653Y01027268
Y01036119
X0098567Y0103608
Y0104497
X00978653
Y01052629
X0098567Y0105259
Y0106021
X00978653Y01060583
X00963Y01070331
Y01042391
X0096535Y0110847
X00978653Y01118669
X0098567Y0111863
Y01127559
X00978653Y01127598
Y01136449
X0098567Y0113641
Y011453
X00978653
Y01152959
X0098567Y0115292
Y0116054
X00978653Y01160913
X0096408Y0116943
Y0114149
X0022113Y0119483
T02
X0091993Y00554297
Y00579697
X0094533
Y00554297
X0097073
X0099613
X0102153
X0104693
X0107233
Y00579697
X0104693
X0102153
X0099613
X0097073
X00680615Y00577697
X00655215
X00629815
Y00552297
X00655215
X00680615
T03
X004002Y0113641
X004256
X00451
Y0116943
X004256
X004002
T04
X0025034Y0105259
Y0107799
X0027574
Y0105259
X0032146Y0114149
X0034686
Y0116689
X0032146
X00501803Y0117324
Y0114784
X00527203
Y0117324
X00552603
Y0114784
T05
X003Y002175
X00305Y003825
X0073Y003175
Y002175
X0094
X0094Y003175
X01365Y003825
X0137Y002175
X01365Y005675
X0137Y007325
X0094
Y006325
X0073
Y007325
X003
X00305Y005675
T06
X0081208Y0079986
X0086208
T07
X00255Y002675
X00775Y002675
X00895Y002675
X01415
Y006825
X00895
X00775
X00255
M30
