G04*
G04 #@! TF.GenerationSoftware,Altium Limited,Altium Designer,18.1.9 (240)*
G04*
G04 Layer_Color=8388736*
%FSLAX44Y44*%
%MOMM*%
G71*
G01*
G75*
%ADD36C,0.2000*%
%ADD40R,0.4500X0.6000*%
%ADD42R,0.6000X0.4000*%
%ADD43R,0.8000X1.3000*%
%ADD80R,1.0016X0.9016*%
%ADD81R,1.7016X2.3016*%
%ADD82R,0.8016X1.9016*%
%ADD83R,0.6516X1.6016*%
%ADD84R,1.6016X0.6516*%
%ADD85R,1.6256X1.6256*%
%ADD86R,1.0016X0.8016*%
%ADD87R,1.6016X7.1016*%
%ADD88R,1.5016X0.4516*%
%ADD89R,0.8016X1.0016*%
%ADD90R,1.2016X1.1016*%
%ADD91R,1.5016X1.6016*%
%ADD92R,1.1016X1.2016*%
%ADD93R,3.0988X5.6134*%
%ADD94R,1.5240X0.4572*%
%ADD95R,0.9016X1.0016*%
%ADD96R,0.8516X0.8016*%
%ADD97R,1.9016X1.3016*%
%ADD98R,1.7526X0.5334*%
%ADD99R,1.5016X0.4516*%
%ADD100R,0.5532X1.4032*%
%ADD101R,1.4032X0.5532*%
%ADD102R,1.6016X1.6016*%
%ADD103C,1.6016*%
%ADD104C,1.6256*%
%ADD105R,1.6256X1.6256*%
%ADD106C,2.0516*%
%ADD107C,0.8016*%
%ADD108C,1.3716*%
%ADD109C,1.4016*%
%ADD110C,6.6016*%
D36*
X200000Y750000D02*
X1000000D01*
X200000D02*
Y1200000D01*
X1000000D01*
Y750000D02*
Y1200000D01*
X1470000Y200000D02*
Y750000D01*
X200000D02*
X1470000D01*
X200000Y200000D02*
Y750000D01*
Y200000D02*
X1470000D01*
D40*
X747997Y598999D02*
D03*
X737997D02*
D03*
X773504Y564001D02*
D03*
X783504D02*
D03*
X997003Y405377D02*
D03*
X1007003D02*
D03*
X738497Y559999D02*
D03*
X748497D02*
D03*
D42*
X1360976Y481847D02*
D03*
Y472848D02*
D03*
X1349476Y481593D02*
D03*
Y472593D02*
D03*
X1337976Y481593D02*
D03*
Y472593D02*
D03*
X1360477Y456847D02*
D03*
Y447848D02*
D03*
X1349476Y456593D02*
D03*
Y447593D02*
D03*
X1337976Y456593D02*
D03*
Y447593D02*
D03*
X1239475Y396497D02*
D03*
Y387497D02*
D03*
X1153746Y553528D02*
D03*
Y562528D02*
D03*
X543730Y396260D02*
D03*
Y387261D02*
D03*
X453751Y553998D02*
D03*
Y562998D02*
D03*
X1228493Y396500D02*
D03*
Y387500D02*
D03*
X1142247Y553528D02*
D03*
Y562528D02*
D03*
X532748Y396263D02*
D03*
Y387263D02*
D03*
X442252Y553998D02*
D03*
Y562998D02*
D03*
X1217494Y396250D02*
D03*
Y387250D02*
D03*
X1130499Y553528D02*
D03*
Y562528D02*
D03*
X521749Y396013D02*
D03*
Y387013D02*
D03*
X430504Y553998D02*
D03*
Y562998D02*
D03*
X1239976Y373247D02*
D03*
Y364248D02*
D03*
X1153245Y576778D02*
D03*
Y585778D02*
D03*
X544231Y373010D02*
D03*
Y364011D02*
D03*
X453250Y577248D02*
D03*
Y586248D02*
D03*
X1228994Y373475D02*
D03*
Y364475D02*
D03*
X1141745Y576553D02*
D03*
Y585553D02*
D03*
X533249Y373238D02*
D03*
Y364238D02*
D03*
X441750Y577023D02*
D03*
Y586023D02*
D03*
X1217996Y373250D02*
D03*
Y364250D02*
D03*
X1129997Y576528D02*
D03*
Y585528D02*
D03*
X522251Y373013D02*
D03*
Y364013D02*
D03*
X430002Y576998D02*
D03*
Y585998D02*
D03*
X647456Y405756D02*
D03*
Y414756D02*
D03*
X658956Y405756D02*
D03*
Y414756D02*
D03*
X669956Y406010D02*
D03*
Y415010D02*
D03*
X647455Y430756D02*
D03*
Y439756D02*
D03*
X658955Y430756D02*
D03*
Y439756D02*
D03*
X670455Y431010D02*
D03*
Y440010D02*
D03*
D43*
X791004Y548501D02*
D03*
X772004D02*
D03*
D80*
X676250Y1060500D02*
D03*
Y1074500D02*
D03*
X589890Y1153240D02*
D03*
Y1139240D02*
D03*
X674980D02*
D03*
Y1153240D02*
D03*
X383820Y1042028D02*
D03*
Y1028027D02*
D03*
D81*
X662820Y779738D02*
D03*
X578320D02*
D03*
X383420Y781008D02*
D03*
X298920D02*
D03*
D82*
X614320Y812738D02*
D03*
X601820D02*
D03*
X626820D02*
D03*
X639320D02*
D03*
X334920Y814008D02*
D03*
X322420D02*
D03*
X347420D02*
D03*
X359920D02*
D03*
D83*
X644065Y1020920D02*
D03*
X636065D02*
D03*
X628065D02*
D03*
X620065D02*
D03*
X612065D02*
D03*
X604065D02*
D03*
X596065D02*
D03*
X588065D02*
D03*
Y1106920D02*
D03*
X596065D02*
D03*
X604065D02*
D03*
X612065D02*
D03*
X620065D02*
D03*
X628065D02*
D03*
X636065D02*
D03*
X644065D02*
D03*
D84*
X573065Y1035920D02*
D03*
Y1043920D02*
D03*
Y1051920D02*
D03*
Y1059920D02*
D03*
Y1067920D02*
D03*
Y1075920D02*
D03*
Y1083920D02*
D03*
Y1091920D02*
D03*
X659065D02*
D03*
Y1083920D02*
D03*
Y1075920D02*
D03*
Y1067920D02*
D03*
Y1059920D02*
D03*
Y1051920D02*
D03*
Y1043920D02*
D03*
Y1035920D02*
D03*
D85*
X483210Y823660D02*
D03*
X216510Y824596D02*
D03*
X483210Y804610D02*
D03*
Y785560D02*
D03*
Y765240D02*
D03*
X216510Y766176D02*
D03*
Y786496D02*
D03*
Y805546D02*
D03*
D86*
X786740Y1124650D02*
D03*
Y1139650D02*
D03*
X770082Y1124649D02*
D03*
Y1139649D02*
D03*
X753720Y1124770D02*
D03*
Y1139770D02*
D03*
X786740Y1111710D02*
D03*
Y1096710D02*
D03*
X770082Y1111709D02*
D03*
Y1096709D02*
D03*
X753720Y1111710D02*
D03*
Y1096710D02*
D03*
X721970Y1124650D02*
D03*
Y1139650D02*
D03*
X738632Y1124649D02*
D03*
Y1139649D02*
D03*
X705460Y1139650D02*
D03*
Y1124650D02*
D03*
X721970Y1111710D02*
D03*
Y1096710D02*
D03*
X502260Y1023170D02*
D03*
Y1038170D02*
D03*
X502260Y1002610D02*
D03*
Y987610D02*
D03*
X516230Y1002299D02*
D03*
Y987299D02*
D03*
X530200Y1002610D02*
D03*
Y987610D02*
D03*
X705460Y1111710D02*
D03*
Y1096710D02*
D03*
X222860Y1140862D02*
D03*
Y1125862D02*
D03*
X738480Y1111710D02*
D03*
Y1096710D02*
D03*
X530200Y1023170D02*
D03*
Y1038170D02*
D03*
X516230Y1023170D02*
D03*
Y1038170D02*
D03*
X803174Y888216D02*
D03*
Y903216D02*
D03*
D87*
X888000Y1127280D02*
D03*
X966000D02*
D03*
X888000Y929160D02*
D03*
X966000D02*
D03*
X886730Y1028220D02*
D03*
X964730D02*
D03*
D88*
X773920Y1015027D02*
D03*
Y1021527D02*
D03*
Y1028027D02*
D03*
Y1034528D02*
D03*
Y1041028D02*
D03*
Y1047527D02*
D03*
Y1054027D02*
D03*
Y1060527D02*
D03*
X719920Y1015027D02*
D03*
Y1021527D02*
D03*
Y1028027D02*
D03*
Y1034528D02*
D03*
Y1041028D02*
D03*
Y1047527D02*
D03*
Y1054027D02*
D03*
Y1060527D02*
D03*
D89*
X636492Y1001415D02*
D03*
X651492D02*
D03*
X789400Y1049720D02*
D03*
X804400D02*
D03*
X705580Y963026D02*
D03*
X720580D02*
D03*
X426180Y964296D02*
D03*
X441180D02*
D03*
X514840Y1062420D02*
D03*
X499840D02*
D03*
X551812Y1090315D02*
D03*
X536812D02*
D03*
X369030Y1015027D02*
D03*
X384030D02*
D03*
D90*
X574650Y904486D02*
D03*
X557650D02*
D03*
X703310Y838566D02*
D03*
X720310D02*
D03*
X574650Y857616D02*
D03*
X557650D02*
D03*
X576310Y938896D02*
D03*
X593310D02*
D03*
X576310Y922186D02*
D03*
X593310D02*
D03*
X719920Y890636D02*
D03*
X702920D02*
D03*
X720310Y820786D02*
D03*
X703310D02*
D03*
X688603Y963360D02*
D03*
X671602D02*
D03*
X410176Y964630D02*
D03*
X393176D02*
D03*
X440910Y822056D02*
D03*
X423910D02*
D03*
X440910Y891460D02*
D03*
X423910D02*
D03*
X278250Y905756D02*
D03*
X295250D02*
D03*
X313910Y940166D02*
D03*
X296910D02*
D03*
X313910Y923456D02*
D03*
X296910D02*
D03*
X440910Y839749D02*
D03*
X423910D02*
D03*
X278250Y858886D02*
D03*
X295250D02*
D03*
D91*
X618377Y957946D02*
D03*
X638377D02*
D03*
X525280Y931276D02*
D03*
X545280D02*
D03*
X525280Y881746D02*
D03*
X545280D02*
D03*
X358977Y959216D02*
D03*
X338977D02*
D03*
X265880Y932546D02*
D03*
X245880D02*
D03*
X265880Y883016D02*
D03*
X245880D02*
D03*
D92*
X704190Y873990D02*
D03*
Y856990D02*
D03*
X423917Y873859D02*
D03*
Y856859D02*
D03*
X222860Y1155520D02*
D03*
Y1172520D02*
D03*
X803250Y935966D02*
D03*
Y918966D02*
D03*
D93*
X650850Y881746D02*
D03*
X371450Y883016D02*
D03*
D94*
X679298Y923910D02*
D03*
Y917560D02*
D03*
Y910956D02*
D03*
Y904606D02*
D03*
Y898002D02*
D03*
Y891398D02*
D03*
Y885048D02*
D03*
Y878444D02*
D03*
Y872094D02*
D03*
Y865490D02*
D03*
Y858886D02*
D03*
Y852536D02*
D03*
Y845932D02*
D03*
Y839582D02*
D03*
X622402D02*
D03*
Y845932D02*
D03*
Y852536D02*
D03*
Y858886D02*
D03*
Y865490D02*
D03*
Y872094D02*
D03*
Y878444D02*
D03*
Y885048D02*
D03*
Y891398D02*
D03*
Y898002D02*
D03*
Y904606D02*
D03*
Y910956D02*
D03*
Y917560D02*
D03*
Y923910D02*
D03*
X343002Y925180D02*
D03*
Y918830D02*
D03*
Y912226D02*
D03*
Y905876D02*
D03*
Y899272D02*
D03*
Y892668D02*
D03*
Y886318D02*
D03*
Y879714D02*
D03*
Y873364D02*
D03*
Y866760D02*
D03*
Y860156D02*
D03*
Y853806D02*
D03*
Y847202D02*
D03*
Y840852D02*
D03*
X399898D02*
D03*
Y847202D02*
D03*
Y853806D02*
D03*
Y860156D02*
D03*
Y866760D02*
D03*
Y873364D02*
D03*
Y879714D02*
D03*
Y886318D02*
D03*
Y892668D02*
D03*
Y899272D02*
D03*
Y905876D02*
D03*
Y912226D02*
D03*
Y918830D02*
D03*
Y925180D02*
D03*
D95*
X537312Y1075075D02*
D03*
X551312D02*
D03*
X551932Y1059920D02*
D03*
X537932D02*
D03*
X789900Y1063690D02*
D03*
X803900D02*
D03*
D96*
X270490Y1163510D02*
D03*
Y1131510D02*
D03*
X286990D02*
D03*
Y1163510D02*
D03*
D97*
X652562Y1162005D02*
D03*
X612562D02*
D03*
Y1138005D02*
D03*
X652562D02*
D03*
D98*
X475082Y1092335D02*
D03*
Y1085985D02*
D03*
Y1079381D02*
D03*
Y1073031D02*
D03*
Y1066427D02*
D03*
Y1059823D02*
D03*
Y1053473D02*
D03*
Y1046869D02*
D03*
Y1040519D02*
D03*
Y1033915D02*
D03*
Y1027311D02*
D03*
Y1020961D02*
D03*
Y1014357D02*
D03*
Y1008007D02*
D03*
X402438D02*
D03*
Y1014357D02*
D03*
Y1020961D02*
D03*
Y1027311D02*
D03*
Y1033915D02*
D03*
Y1040519D02*
D03*
Y1046869D02*
D03*
Y1053473D02*
D03*
Y1059823D02*
D03*
Y1066427D02*
D03*
Y1073031D02*
D03*
Y1079381D02*
D03*
Y1085985D02*
D03*
Y1092335D02*
D03*
D99*
X997468Y352660D02*
D03*
Y359160D02*
D03*
Y365660D02*
D03*
Y372160D02*
D03*
Y378660D02*
D03*
Y385160D02*
D03*
Y391660D02*
D03*
Y398160D02*
D03*
X943468Y352660D02*
D03*
Y359160D02*
D03*
Y365660D02*
D03*
Y372160D02*
D03*
Y378660D02*
D03*
Y385160D02*
D03*
Y391660D02*
D03*
Y398160D02*
D03*
D100*
X276500Y610000D02*
D03*
X270000D02*
D03*
X263500D02*
D03*
X276500Y595000D02*
D03*
X270000D02*
D03*
X263500D02*
D03*
X1406500Y355000D02*
D03*
X1400000D02*
D03*
X1393500D02*
D03*
X1406500Y340000D02*
D03*
X1400000D02*
D03*
X1393500D02*
D03*
X263500Y340000D02*
D03*
X270000D02*
D03*
X276500D02*
D03*
X263500Y355000D02*
D03*
X270000D02*
D03*
X276500D02*
D03*
X1393497Y594993D02*
D03*
X1399998D02*
D03*
X1406497D02*
D03*
X1393497Y609993D02*
D03*
X1399998D02*
D03*
X1406497D02*
D03*
D101*
X702500Y276003D02*
D03*
Y282503D02*
D03*
Y289003D02*
D03*
X687500Y276003D02*
D03*
Y282503D02*
D03*
Y289003D02*
D03*
X982420Y660997D02*
D03*
Y667497D02*
D03*
Y673997D02*
D03*
X967420Y660997D02*
D03*
Y667497D02*
D03*
Y673997D02*
D03*
X342500Y661000D02*
D03*
Y667500D02*
D03*
Y674000D02*
D03*
X327500Y661000D02*
D03*
Y667500D02*
D03*
Y674000D02*
D03*
X642500Y276003D02*
D03*
Y282503D02*
D03*
Y289003D02*
D03*
X627500Y276003D02*
D03*
Y282503D02*
D03*
Y289003D02*
D03*
X1042420Y660997D02*
D03*
Y667497D02*
D03*
Y673997D02*
D03*
X1027420Y660997D02*
D03*
Y667497D02*
D03*
Y673997D02*
D03*
X1342500Y276000D02*
D03*
Y282500D02*
D03*
Y289000D02*
D03*
X1327500Y276000D02*
D03*
Y282500D02*
D03*
Y289000D02*
D03*
X402500Y661000D02*
D03*
Y667500D02*
D03*
Y674000D02*
D03*
X387500Y661000D02*
D03*
Y667500D02*
D03*
Y674000D02*
D03*
X582500Y276003D02*
D03*
Y282503D02*
D03*
Y289003D02*
D03*
X567500Y276003D02*
D03*
Y282503D02*
D03*
Y289003D02*
D03*
X1102420Y660997D02*
D03*
Y667497D02*
D03*
Y673997D02*
D03*
X1087420Y660997D02*
D03*
Y667497D02*
D03*
Y673997D02*
D03*
X1282500Y276000D02*
D03*
Y282500D02*
D03*
Y289000D02*
D03*
X1267501Y276000D02*
D03*
Y282500D02*
D03*
Y289000D02*
D03*
X462500Y661000D02*
D03*
Y667500D02*
D03*
Y674000D02*
D03*
X447500Y661000D02*
D03*
Y667500D02*
D03*
Y674000D02*
D03*
X522500Y276003D02*
D03*
Y282503D02*
D03*
Y289003D02*
D03*
X507500Y276003D02*
D03*
Y282503D02*
D03*
Y289003D02*
D03*
X1162420Y660997D02*
D03*
Y667497D02*
D03*
Y673997D02*
D03*
X1147420Y660997D02*
D03*
Y667497D02*
D03*
Y673997D02*
D03*
X1222501Y276000D02*
D03*
Y282500D02*
D03*
Y289000D02*
D03*
X1207501Y276000D02*
D03*
Y282500D02*
D03*
Y289000D02*
D03*
X522500Y661000D02*
D03*
Y667500D02*
D03*
Y674000D02*
D03*
X507500Y661000D02*
D03*
Y667500D02*
D03*
Y674000D02*
D03*
X462500Y276003D02*
D03*
Y282503D02*
D03*
Y289003D02*
D03*
X447500Y276003D02*
D03*
Y282503D02*
D03*
Y289003D02*
D03*
X1222420Y660997D02*
D03*
Y667497D02*
D03*
Y673997D02*
D03*
X1207420Y660997D02*
D03*
Y667497D02*
D03*
Y673997D02*
D03*
X1162501Y276000D02*
D03*
Y282500D02*
D03*
Y289000D02*
D03*
X1147501Y276000D02*
D03*
Y282500D02*
D03*
Y289000D02*
D03*
X582500Y661000D02*
D03*
Y667500D02*
D03*
Y674000D02*
D03*
X567500Y661000D02*
D03*
Y667500D02*
D03*
Y674000D02*
D03*
X402500Y276003D02*
D03*
Y282503D02*
D03*
Y289003D02*
D03*
X387500Y276003D02*
D03*
Y282503D02*
D03*
Y289003D02*
D03*
X1282420Y660997D02*
D03*
Y667497D02*
D03*
Y673997D02*
D03*
X1267420Y660997D02*
D03*
Y667497D02*
D03*
Y673997D02*
D03*
X1102501Y276000D02*
D03*
Y282500D02*
D03*
Y289000D02*
D03*
X1087501Y276000D02*
D03*
Y282500D02*
D03*
Y289000D02*
D03*
X642500Y661000D02*
D03*
Y667500D02*
D03*
Y674000D02*
D03*
X627500Y661000D02*
D03*
Y667500D02*
D03*
Y674000D02*
D03*
X342500Y276003D02*
D03*
Y282503D02*
D03*
Y289003D02*
D03*
X327500Y276003D02*
D03*
Y282503D02*
D03*
Y289003D02*
D03*
X1342420Y660997D02*
D03*
Y667497D02*
D03*
Y673997D02*
D03*
X1327420Y660997D02*
D03*
Y667497D02*
D03*
Y673997D02*
D03*
X1042501Y276000D02*
D03*
Y282500D02*
D03*
Y289000D02*
D03*
X1027501Y276000D02*
D03*
Y282500D02*
D03*
Y289000D02*
D03*
X702500Y661000D02*
D03*
Y667500D02*
D03*
Y674000D02*
D03*
X687500Y661000D02*
D03*
Y667500D02*
D03*
Y674000D02*
D03*
X982500Y276000D02*
D03*
Y282500D02*
D03*
Y289000D02*
D03*
X967501Y276000D02*
D03*
Y282500D02*
D03*
Y289000D02*
D03*
D102*
X503533Y1136080D02*
D03*
X348590Y1155130D02*
D03*
X277470Y1066230D02*
D03*
D103*
X503533Y1161480D02*
D03*
X528933Y1136080D02*
D03*
Y1161480D02*
D03*
X554333Y1136080D02*
D03*
Y1161480D02*
D03*
X348590Y1129730D02*
D03*
X323190Y1155130D02*
D03*
Y1129730D02*
D03*
X252070Y1040830D02*
D03*
Y1066230D02*
D03*
X277470Y1040830D02*
D03*
D104*
X401930Y1124650D02*
D03*
X427330D02*
D03*
X452730D02*
D03*
X401930Y1157670D02*
D03*
X427330D02*
D03*
D105*
X452730D02*
D03*
D106*
X813810Y788100D02*
D03*
X863810D02*
D03*
D107*
X235000Y602500D02*
D03*
X695000Y247503D02*
D03*
X974920Y702497D02*
D03*
X1435000Y347500D02*
D03*
X335000Y702500D02*
D03*
X635000Y247503D02*
D03*
X1034920Y702497D02*
D03*
X1335000Y247500D02*
D03*
X395000Y702500D02*
D03*
X575000Y247503D02*
D03*
X1094920Y702497D02*
D03*
X1275001Y247500D02*
D03*
X455000Y702500D02*
D03*
X515000Y247503D02*
D03*
X1154920Y702497D02*
D03*
X1215001Y247500D02*
D03*
X515000Y702500D02*
D03*
X455000Y247503D02*
D03*
X1214920Y702497D02*
D03*
X1155001Y247500D02*
D03*
X575000Y702500D02*
D03*
X395000Y247503D02*
D03*
X1274920Y702497D02*
D03*
X1095001Y247500D02*
D03*
X635000Y702500D02*
D03*
X335000Y247503D02*
D03*
X1334920Y702497D02*
D03*
X1035001Y247500D02*
D03*
X695000Y702500D02*
D03*
X235000Y347500D02*
D03*
X1434997Y602493D02*
D03*
X975001Y247500D02*
D03*
D108*
X629815Y577697D02*
D03*
Y552297D02*
D03*
X655215Y577697D02*
D03*
Y552297D02*
D03*
X680615Y577697D02*
D03*
Y552297D02*
D03*
X1072330Y554297D02*
D03*
Y579697D02*
D03*
X1046930D02*
D03*
Y554297D02*
D03*
X1021530Y579697D02*
D03*
Y554297D02*
D03*
X996130Y579697D02*
D03*
Y554297D02*
D03*
X919930D02*
D03*
Y579697D02*
D03*
X945330Y554297D02*
D03*
Y579697D02*
D03*
X970730Y554297D02*
D03*
Y579697D02*
D03*
D109*
X1365000Y382500D02*
D03*
X1370000Y217500D02*
D03*
X940000D02*
D03*
X940000Y317500D02*
D03*
X1365000Y567500D02*
D03*
X1370000Y732500D02*
D03*
X940000Y632500D02*
D03*
Y732500D02*
D03*
X730000Y632500D02*
D03*
Y732500D02*
D03*
X300000D02*
D03*
X305000Y567500D02*
D03*
X305000Y382500D02*
D03*
X300000Y217500D02*
D03*
X730000Y317500D02*
D03*
Y217500D02*
D03*
D110*
X1415000Y267500D02*
D03*
Y682500D02*
D03*
X895000Y267500D02*
D03*
Y682500D02*
D03*
X775000Y267500D02*
D03*
Y682500D02*
D03*
X255000D02*
D03*
Y267500D02*
D03*
M02*
