G04*
G04 #@! TF.GenerationSoftware,Altium Limited,Altium Designer,18.1.9 (240)*
G04*
G04 Layer_Color=16711935*
%FSLAX44Y44*%
%MOMM*%
G71*
G01*
G75*
%ADD36C,0.2000*%
%ADD40R,0.4500X0.6000*%
%ADD42R,0.6000X0.4000*%
%ADD43R,0.8000X1.3000*%
%ADD58R,0.4000X0.6000*%
%ADD62R,0.8000X0.6000*%
%ADD63R,1.3000X0.8000*%
%ADD70R,0.9000X0.5000*%
%ADD71R,0.6000X0.4500*%
%ADD73R,2.2000X2.2000*%
%ADD74O,0.2393X0.8571*%
%ADD75O,0.8571X0.2393*%
%ADD76R,0.8571X0.2393*%
%ADD83R,0.6516X1.6016*%
%ADD84R,1.6016X0.6516*%
%ADD86R,1.0016X0.8016*%
%ADD96R,0.8516X0.8016*%
%ADD102R,1.6016X1.6016*%
%ADD103C,1.6016*%
%ADD104C,1.6256*%
%ADD105R,1.6256X1.6256*%
%ADD106C,2.0516*%
%ADD107C,0.8016*%
%ADD108C,1.3716*%
%ADD109C,1.4016*%
%ADD110C,6.6016*%
%ADD111R,0.9032X0.7032*%
%ADD112R,0.7032X0.9032*%
%ADD113R,1.3016X1.9016*%
%ADD114R,2.3016X1.7016*%
%ADD115R,1.9016X0.8016*%
%ADD116R,0.6016X0.3516*%
%ADD117R,1.0016X1.7016*%
%ADD118R,0.9516X0.4516*%
%ADD119R,3.8016X3.8016*%
%ADD120R,0.4316X1.1416*%
%ADD121R,1.1416X0.4316*%
%ADD122R,0.8382X2.3368*%
D36*
X200000Y750000D02*
X1000000D01*
X200000D02*
Y1200000D01*
X1000000D01*
Y750000D02*
Y1200000D01*
X1470000Y200000D02*
Y750000D01*
X200000D02*
X1470000D01*
X200000Y200000D02*
Y750000D01*
Y200000D02*
X1470000D01*
D40*
X612456Y474760D02*
D03*
X622456D02*
D03*
X1302977Y516598D02*
D03*
X1312977D02*
D03*
X869497Y351000D02*
D03*
X879497D02*
D03*
X805499Y333003D02*
D03*
X815499D02*
D03*
X1409254Y619488D02*
D03*
X1399254D02*
D03*
X260743Y331005D02*
D03*
X270743D02*
D03*
X1409257Y363995D02*
D03*
X1399257D02*
D03*
X260743Y585005D02*
D03*
X270743D02*
D03*
X1193502Y391987D02*
D03*
X1183502D02*
D03*
X1177490Y558544D02*
D03*
X1187490D02*
D03*
X497757Y391750D02*
D03*
X487757D02*
D03*
X477495Y558511D02*
D03*
X487495D02*
D03*
X891003Y571001D02*
D03*
X881003D02*
D03*
D42*
X538411Y365009D02*
D03*
Y374009D02*
D03*
X647744Y398702D02*
D03*
Y407702D02*
D03*
X1338264Y440539D02*
D03*
Y449539D02*
D03*
X822142Y434032D02*
D03*
Y443032D02*
D03*
X830554D02*
D03*
Y434032D02*
D03*
X838868Y434120D02*
D03*
Y443120D02*
D03*
X916539Y389338D02*
D03*
Y380338D02*
D03*
X984004Y351416D02*
D03*
Y360416D02*
D03*
X958982Y351662D02*
D03*
Y360662D02*
D03*
X967041Y351662D02*
D03*
Y360662D02*
D03*
X958747Y274582D02*
D03*
Y265582D02*
D03*
X711253Y675417D02*
D03*
Y684417D02*
D03*
X1018747Y274582D02*
D03*
Y265582D02*
D03*
X1351173Y675414D02*
D03*
Y684414D02*
D03*
X318747Y274585D02*
D03*
Y265585D02*
D03*
X651253Y675417D02*
D03*
Y684417D02*
D03*
X1078747Y274582D02*
D03*
Y265582D02*
D03*
X1291173Y675414D02*
D03*
Y684414D02*
D03*
X378747Y274585D02*
D03*
Y265585D02*
D03*
X591253Y675417D02*
D03*
Y684417D02*
D03*
X1231173Y675414D02*
D03*
Y684414D02*
D03*
X438747Y274585D02*
D03*
Y265585D02*
D03*
X531253Y675417D02*
D03*
Y684417D02*
D03*
X1198747Y274582D02*
D03*
Y265582D02*
D03*
X1171173Y675414D02*
D03*
Y684414D02*
D03*
X498747Y274585D02*
D03*
Y265585D02*
D03*
X471253Y675417D02*
D03*
Y684417D02*
D03*
X1258747Y274582D02*
D03*
Y265582D02*
D03*
X1111173Y675414D02*
D03*
Y684414D02*
D03*
X558747Y274585D02*
D03*
Y265585D02*
D03*
X411253Y675417D02*
D03*
Y684417D02*
D03*
X1318747Y274582D02*
D03*
Y265582D02*
D03*
X1051173Y675414D02*
D03*
Y684414D02*
D03*
X618747Y274585D02*
D03*
Y265585D02*
D03*
X351253Y675417D02*
D03*
Y684417D02*
D03*
X991173Y675414D02*
D03*
Y684414D02*
D03*
X678747Y274585D02*
D03*
Y265585D02*
D03*
X967975Y296237D02*
D03*
Y287237D02*
D03*
X702025Y653763D02*
D03*
Y662763D02*
D03*
X1027975Y296237D02*
D03*
Y287237D02*
D03*
X1341945Y653760D02*
D03*
Y662760D02*
D03*
X327975Y296240D02*
D03*
Y287240D02*
D03*
X642025Y653763D02*
D03*
Y662763D02*
D03*
X1087975Y296237D02*
D03*
Y287237D02*
D03*
X1281945Y653760D02*
D03*
Y662760D02*
D03*
X387975Y296240D02*
D03*
Y287240D02*
D03*
X582025Y653763D02*
D03*
Y662763D02*
D03*
X1147975Y296237D02*
D03*
Y287237D02*
D03*
X1221945Y653760D02*
D03*
Y662760D02*
D03*
X447975Y296240D02*
D03*
Y287240D02*
D03*
X522025Y653763D02*
D03*
Y662763D02*
D03*
X1207975Y296237D02*
D03*
Y287237D02*
D03*
X1161945Y653760D02*
D03*
Y662760D02*
D03*
X507975Y296240D02*
D03*
Y287240D02*
D03*
X462025Y653763D02*
D03*
Y662763D02*
D03*
X1267975Y296237D02*
D03*
Y287237D02*
D03*
X1101945Y653760D02*
D03*
Y662760D02*
D03*
X567975Y296240D02*
D03*
Y287240D02*
D03*
X402025Y653763D02*
D03*
Y662763D02*
D03*
X1327975Y296237D02*
D03*
Y287237D02*
D03*
X1041945Y653760D02*
D03*
Y662760D02*
D03*
X627975Y296240D02*
D03*
Y287240D02*
D03*
X342025Y653763D02*
D03*
Y662763D02*
D03*
X981945Y653760D02*
D03*
Y662760D02*
D03*
X687975Y296240D02*
D03*
Y287240D02*
D03*
X1385507Y607998D02*
D03*
Y616998D02*
D03*
X284491Y341995D02*
D03*
Y332995D02*
D03*
X1385509Y353005D02*
D03*
Y362005D02*
D03*
X284491Y596995D02*
D03*
Y587995D02*
D03*
X872735Y443032D02*
D03*
Y434032D02*
D03*
X847967Y443032D02*
D03*
Y434032D02*
D03*
X805057D02*
D03*
Y443032D02*
D03*
X797374D02*
D03*
Y434032D02*
D03*
X1138747Y274582D02*
D03*
Y265582D02*
D03*
X992293Y360416D02*
D03*
Y351416D02*
D03*
X950857Y360919D02*
D03*
Y351919D02*
D03*
X975941Y360590D02*
D03*
Y351590D02*
D03*
D43*
X467753Y543995D02*
D03*
X486753D02*
D03*
X507499Y406266D02*
D03*
X488499D02*
D03*
X1168238Y546026D02*
D03*
X1187238D02*
D03*
X1201244Y404754D02*
D03*
X1182244D02*
D03*
X1292730Y529302D02*
D03*
X1311730D02*
D03*
X602210Y487465D02*
D03*
X621209D02*
D03*
X272991Y343011D02*
D03*
X253991D02*
D03*
X1397009Y351989D02*
D03*
X1416009D02*
D03*
X1416006Y606982D02*
D03*
X1397006D02*
D03*
X253991Y598011D02*
D03*
X272991D02*
D03*
D58*
X821846Y608601D02*
D03*
X830846D02*
D03*
X1198244Y488504D02*
D03*
X1189245D02*
D03*
X1198244Y496496D02*
D03*
X1189245D02*
D03*
X514243Y560994D02*
D03*
X505243D02*
D03*
X1187762Y531476D02*
D03*
X1196762D02*
D03*
X1156755Y389504D02*
D03*
X1165754D02*
D03*
X865032Y434531D02*
D03*
X856032D02*
D03*
X891032Y434538D02*
D03*
X882032D02*
D03*
X870496Y359999D02*
D03*
X879496D02*
D03*
X870497Y342000D02*
D03*
X879497D02*
D03*
X823500Y333003D02*
D03*
X832499D02*
D03*
X842840Y298496D02*
D03*
X833839D02*
D03*
X1407915Y586240D02*
D03*
X1416915D02*
D03*
X262082Y363753D02*
D03*
X253082D02*
D03*
X1407918Y331247D02*
D03*
X1416918D02*
D03*
X262082Y618753D02*
D03*
X253082D02*
D03*
X1386261Y595468D02*
D03*
X1395261D02*
D03*
X283737Y354525D02*
D03*
X274737D02*
D03*
X1386263Y340475D02*
D03*
X1395263D02*
D03*
X283737Y609525D02*
D03*
X274737D02*
D03*
X980505Y296991D02*
D03*
X989505D02*
D03*
X689495Y653009D02*
D03*
X680495D02*
D03*
X1040505Y296991D02*
D03*
X1049505D02*
D03*
X1329415Y653006D02*
D03*
X1320415D02*
D03*
X340505Y296993D02*
D03*
X349505D02*
D03*
X629495Y653009D02*
D03*
X620495D02*
D03*
X1100505Y296991D02*
D03*
X1109505D02*
D03*
X1269415Y653006D02*
D03*
X1260415D02*
D03*
X400505Y296993D02*
D03*
X409505D02*
D03*
X569495Y653009D02*
D03*
X560495D02*
D03*
X1160505Y296991D02*
D03*
X1169505D02*
D03*
X1209415Y653006D02*
D03*
X1200415D02*
D03*
X460505Y296993D02*
D03*
X469505D02*
D03*
X509495Y653009D02*
D03*
X500495D02*
D03*
X1220505Y296991D02*
D03*
X1229505D02*
D03*
X1149415Y653006D02*
D03*
X1140415D02*
D03*
X520505Y296993D02*
D03*
X529505D02*
D03*
X449495Y653009D02*
D03*
X440495D02*
D03*
X1280505Y296991D02*
D03*
X1289505D02*
D03*
X1089415Y653006D02*
D03*
X1080415D02*
D03*
X580505Y296993D02*
D03*
X589505D02*
D03*
X389495Y653009D02*
D03*
X380495D02*
D03*
X1340505Y296991D02*
D03*
X1349505D02*
D03*
X1029415Y653006D02*
D03*
X1020415D02*
D03*
X640505Y296993D02*
D03*
X649505D02*
D03*
X329495Y653009D02*
D03*
X320495D02*
D03*
X969415Y653006D02*
D03*
X960415D02*
D03*
X700505Y296993D02*
D03*
X709505D02*
D03*
X887504Y579501D02*
D03*
X896504D02*
D03*
D62*
X862000Y344003D02*
D03*
Y358003D02*
D03*
X850996Y302321D02*
D03*
Y316322D02*
D03*
D63*
X891496Y341499D02*
D03*
Y360500D02*
D03*
X1039489Y285491D02*
D03*
Y266491D02*
D03*
X339489Y285494D02*
D03*
Y266494D02*
D03*
X1099489Y285491D02*
D03*
Y266491D02*
D03*
X399489Y285494D02*
D03*
Y266494D02*
D03*
X1159489Y285491D02*
D03*
Y266491D02*
D03*
X459489Y285494D02*
D03*
Y266494D02*
D03*
X1219489Y285491D02*
D03*
Y266491D02*
D03*
X519489Y285494D02*
D03*
Y266494D02*
D03*
X1279489Y285491D02*
D03*
Y266491D02*
D03*
X579489Y285494D02*
D03*
Y266494D02*
D03*
X1339489Y285491D02*
D03*
Y266491D02*
D03*
X639489Y285494D02*
D03*
Y266494D02*
D03*
X690511Y683509D02*
D03*
Y664509D02*
D03*
X1330431Y683505D02*
D03*
Y664505D02*
D03*
X630511Y683509D02*
D03*
Y664509D02*
D03*
X1270431Y683505D02*
D03*
Y664505D02*
D03*
X570511Y683509D02*
D03*
Y664509D02*
D03*
X1210431Y683505D02*
D03*
Y664505D02*
D03*
X510511Y683509D02*
D03*
Y664509D02*
D03*
X1150431Y683505D02*
D03*
Y664505D02*
D03*
X450511Y683509D02*
D03*
Y664509D02*
D03*
X1090431Y683505D02*
D03*
Y664505D02*
D03*
X390511Y683509D02*
D03*
Y664509D02*
D03*
X1030431Y683505D02*
D03*
Y664505D02*
D03*
X970431Y683505D02*
D03*
Y664505D02*
D03*
X330511Y683509D02*
D03*
Y664509D02*
D03*
X979489Y266491D02*
D03*
Y285491D02*
D03*
X699489Y266494D02*
D03*
Y285494D02*
D03*
D70*
X849997Y358500D02*
D03*
Y343500D02*
D03*
D71*
X804548Y357866D02*
D03*
Y347866D02*
D03*
X810997Y304000D02*
D03*
Y314000D02*
D03*
X992495Y273243D02*
D03*
Y283243D02*
D03*
X678505Y676757D02*
D03*
Y666757D02*
D03*
X1051495Y273243D02*
D03*
Y283243D02*
D03*
X1318425Y676753D02*
D03*
Y666753D02*
D03*
X351495Y273246D02*
D03*
Y283246D02*
D03*
X618505Y676757D02*
D03*
Y666757D02*
D03*
X1111495Y273243D02*
D03*
Y283243D02*
D03*
X1258425Y676753D02*
D03*
Y666753D02*
D03*
X411495Y273246D02*
D03*
Y283246D02*
D03*
X558505Y676757D02*
D03*
Y666757D02*
D03*
X1171495Y273243D02*
D03*
Y283243D02*
D03*
X1198425Y676753D02*
D03*
Y666753D02*
D03*
X471495Y273246D02*
D03*
Y283246D02*
D03*
X498505Y676757D02*
D03*
Y666757D02*
D03*
X1231495Y273243D02*
D03*
Y283243D02*
D03*
X1138425Y676753D02*
D03*
Y666753D02*
D03*
X531495Y273246D02*
D03*
Y283246D02*
D03*
X438505Y676757D02*
D03*
Y666757D02*
D03*
X1291495Y273243D02*
D03*
Y283243D02*
D03*
X1078425Y676753D02*
D03*
Y666753D02*
D03*
X591495Y273246D02*
D03*
Y283246D02*
D03*
X378505Y676757D02*
D03*
Y666757D02*
D03*
X1351495Y273243D02*
D03*
Y283243D02*
D03*
X1018425Y676753D02*
D03*
Y666753D02*
D03*
X651495Y273246D02*
D03*
Y283246D02*
D03*
X318505Y676757D02*
D03*
Y666757D02*
D03*
X958425Y676753D02*
D03*
Y666753D02*
D03*
X712495Y273246D02*
D03*
Y283246D02*
D03*
X880001Y546497D02*
D03*
Y556497D02*
D03*
D73*
X1185000Y356249D02*
D03*
X1185993Y593779D02*
D03*
X489255Y356012D02*
D03*
X485998Y594249D02*
D03*
D74*
X1197500Y374755D02*
D03*
X1192500D02*
D03*
X1187500D02*
D03*
X1182500D02*
D03*
X1177500D02*
D03*
X1172500D02*
D03*
Y337744D02*
D03*
X1177500D02*
D03*
X1182500D02*
D03*
X1187500D02*
D03*
X1192500D02*
D03*
X1197500D02*
D03*
X1173493Y575273D02*
D03*
X1178493D02*
D03*
X1183493D02*
D03*
X1188493D02*
D03*
X1193493D02*
D03*
X1198493D02*
D03*
Y612284D02*
D03*
X1193493D02*
D03*
X1188493D02*
D03*
X1183493D02*
D03*
X1178493D02*
D03*
X1173493D02*
D03*
X501755Y374518D02*
D03*
X496755D02*
D03*
X491755D02*
D03*
X486755D02*
D03*
X481755D02*
D03*
X476755D02*
D03*
Y337507D02*
D03*
X481755D02*
D03*
X486755D02*
D03*
X491755D02*
D03*
X496755D02*
D03*
X501755D02*
D03*
X473498Y575743D02*
D03*
X478498D02*
D03*
X483498D02*
D03*
X488498D02*
D03*
X493498D02*
D03*
X498498D02*
D03*
Y612755D02*
D03*
X493498D02*
D03*
X488498D02*
D03*
X483498D02*
D03*
X478498D02*
D03*
X473498D02*
D03*
D75*
X1166494Y368749D02*
D03*
Y363749D02*
D03*
Y358749D02*
D03*
Y353749D02*
D03*
Y348749D02*
D03*
Y343749D02*
D03*
X1203505D02*
D03*
Y348749D02*
D03*
Y353749D02*
D03*
Y358749D02*
D03*
Y363749D02*
D03*
X1204499Y581279D02*
D03*
Y586279D02*
D03*
Y591279D02*
D03*
Y596279D02*
D03*
Y601279D02*
D03*
Y606279D02*
D03*
X1167487D02*
D03*
Y601279D02*
D03*
Y596279D02*
D03*
Y591279D02*
D03*
Y586279D02*
D03*
X470749Y368512D02*
D03*
Y363512D02*
D03*
Y358512D02*
D03*
Y353512D02*
D03*
Y348512D02*
D03*
Y343512D02*
D03*
X507760D02*
D03*
Y348512D02*
D03*
Y353512D02*
D03*
Y358512D02*
D03*
Y363512D02*
D03*
X504503Y581749D02*
D03*
Y586749D02*
D03*
Y591749D02*
D03*
Y596749D02*
D03*
Y601749D02*
D03*
Y606749D02*
D03*
X467492D02*
D03*
Y601749D02*
D03*
Y596749D02*
D03*
Y591749D02*
D03*
Y586749D02*
D03*
D76*
X1203505Y368749D02*
D03*
X1167487Y581279D02*
D03*
X507760Y368512D02*
D03*
X467492Y581749D02*
D03*
D83*
X796957Y594750D02*
D03*
X804957D02*
D03*
X812957D02*
D03*
X820957D02*
D03*
X828957D02*
D03*
X836957D02*
D03*
X844957D02*
D03*
X852957D02*
D03*
Y508750D02*
D03*
X844957D02*
D03*
X836957D02*
D03*
X828957D02*
D03*
X820957D02*
D03*
X812957D02*
D03*
X804957D02*
D03*
X796957D02*
D03*
D84*
X781957Y523750D02*
D03*
Y531750D02*
D03*
Y539750D02*
D03*
Y547750D02*
D03*
Y555750D02*
D03*
Y563750D02*
D03*
Y571750D02*
D03*
Y579750D02*
D03*
X867957D02*
D03*
Y571750D02*
D03*
Y563750D02*
D03*
Y555750D02*
D03*
Y547750D02*
D03*
Y539750D02*
D03*
Y531750D02*
D03*
Y523750D02*
D03*
D86*
X1012895Y371658D02*
D03*
Y386658D02*
D03*
X979761D02*
D03*
Y371658D02*
D03*
X996328Y386658D02*
D03*
Y371658D02*
D03*
X930059Y386658D02*
D03*
Y371658D02*
D03*
X946626Y386658D02*
D03*
Y371658D02*
D03*
X963194Y386658D02*
D03*
Y371658D02*
D03*
D96*
X1066775Y390911D02*
D03*
Y358911D02*
D03*
X1050275D02*
D03*
Y390911D02*
D03*
D102*
X503533Y1136080D02*
D03*
X348590Y1155130D02*
D03*
X277470Y1066230D02*
D03*
D103*
X503533Y1161480D02*
D03*
X528933Y1136080D02*
D03*
Y1161480D02*
D03*
X554333Y1136080D02*
D03*
Y1161480D02*
D03*
X348590Y1129730D02*
D03*
X323190Y1155130D02*
D03*
Y1129730D02*
D03*
X252070Y1040830D02*
D03*
Y1066230D02*
D03*
X277470Y1040830D02*
D03*
D104*
X401930Y1124650D02*
D03*
X427330D02*
D03*
X452730D02*
D03*
X401930Y1157670D02*
D03*
X427330D02*
D03*
D105*
X452730D02*
D03*
D106*
X813810Y788100D02*
D03*
X863810D02*
D03*
D107*
X235000Y602500D02*
D03*
X695000Y247503D02*
D03*
X974920Y702497D02*
D03*
X1435000Y347500D02*
D03*
X335000Y702500D02*
D03*
X635000Y247503D02*
D03*
X1034920Y702497D02*
D03*
X1335000Y247500D02*
D03*
X395000Y702500D02*
D03*
X575000Y247503D02*
D03*
X1094920Y702497D02*
D03*
X1275000Y247500D02*
D03*
X455000Y702500D02*
D03*
X515000Y247503D02*
D03*
X1154920Y702497D02*
D03*
X1215000Y247500D02*
D03*
X515000Y702500D02*
D03*
X455000Y247503D02*
D03*
X1214920Y702497D02*
D03*
X1155000Y247500D02*
D03*
X575000Y702500D02*
D03*
X395000Y247503D02*
D03*
X1274920Y702497D02*
D03*
X1095000Y247500D02*
D03*
X635000Y702500D02*
D03*
X335000Y247503D02*
D03*
X1334920Y702497D02*
D03*
X1035000Y247500D02*
D03*
X695000Y702500D02*
D03*
X235000Y347500D02*
D03*
X1434997Y602493D02*
D03*
X975000Y247500D02*
D03*
D108*
X629815Y577697D02*
D03*
Y552297D02*
D03*
X655215Y577697D02*
D03*
Y552297D02*
D03*
X680615Y577697D02*
D03*
Y552297D02*
D03*
X1072330Y554297D02*
D03*
Y579697D02*
D03*
X1046930D02*
D03*
Y554297D02*
D03*
X1021530Y579697D02*
D03*
Y554297D02*
D03*
X996130Y579697D02*
D03*
Y554297D02*
D03*
X919930D02*
D03*
Y579697D02*
D03*
X945330Y554297D02*
D03*
Y579697D02*
D03*
X970730Y554297D02*
D03*
Y579697D02*
D03*
D109*
X1365000Y382500D02*
D03*
X1370000Y217500D02*
D03*
X940000D02*
D03*
X940000Y317500D02*
D03*
X1365000Y567500D02*
D03*
X1370000Y732500D02*
D03*
X940000Y632500D02*
D03*
Y732500D02*
D03*
X730000Y632500D02*
D03*
Y732500D02*
D03*
X300000D02*
D03*
X305000Y567500D02*
D03*
X305000Y382500D02*
D03*
X300000Y217500D02*
D03*
X730000Y317500D02*
D03*
Y217500D02*
D03*
D110*
X1415000Y267500D02*
D03*
Y682500D02*
D03*
X895000Y267500D02*
D03*
Y682500D02*
D03*
X775000Y267500D02*
D03*
Y682500D02*
D03*
X255000D02*
D03*
Y267500D02*
D03*
D111*
X238750Y618500D02*
D03*
X231250Y586500D02*
D03*
X1438750Y363500D02*
D03*
X1431250Y331500D02*
D03*
X231250D02*
D03*
X238750Y363500D02*
D03*
X1431247Y586493D02*
D03*
X1438747Y618493D02*
D03*
D112*
X711000Y243753D02*
D03*
X679000Y251253D02*
D03*
X990920Y698747D02*
D03*
X958920Y706247D02*
D03*
X351000Y698750D02*
D03*
X319000Y706250D02*
D03*
X651000Y243753D02*
D03*
X619000Y251253D02*
D03*
X1050920Y698747D02*
D03*
X1018920Y706247D02*
D03*
X1351000Y243750D02*
D03*
X1319000Y251250D02*
D03*
X411000Y698750D02*
D03*
X379000Y706250D02*
D03*
X591000Y243753D02*
D03*
X559000Y251253D02*
D03*
X1110920Y698747D02*
D03*
X1078920Y706247D02*
D03*
X1291000Y243750D02*
D03*
X1259000Y251250D02*
D03*
X471000Y698750D02*
D03*
X439000Y706250D02*
D03*
X531000Y243753D02*
D03*
X499000Y251253D02*
D03*
X1170920Y698747D02*
D03*
X1138920Y706247D02*
D03*
X1231000Y243750D02*
D03*
X1199000Y251250D02*
D03*
X531000Y698750D02*
D03*
X499000Y706250D02*
D03*
X471000Y243753D02*
D03*
X439000Y251253D02*
D03*
X1230920Y698747D02*
D03*
X1198920Y706247D02*
D03*
X1171000Y243750D02*
D03*
X1139000Y251250D02*
D03*
X591000Y698750D02*
D03*
X559000Y706250D02*
D03*
X411000Y243753D02*
D03*
X379000Y251253D02*
D03*
X1290920Y698747D02*
D03*
X1258920Y706247D02*
D03*
X1111000Y243750D02*
D03*
X1079000Y251250D02*
D03*
X651000Y698750D02*
D03*
X619000Y706250D02*
D03*
X351000Y243753D02*
D03*
X319000Y251253D02*
D03*
X1350920Y698747D02*
D03*
X1318920Y706247D02*
D03*
X1051000Y243750D02*
D03*
X1019000Y251250D02*
D03*
X711000Y698750D02*
D03*
X679000Y706250D02*
D03*
X991000Y243750D02*
D03*
X959000Y251250D02*
D03*
D113*
X754503Y559399D02*
D03*
Y599399D02*
D03*
X730503D02*
D03*
Y559399D02*
D03*
D114*
X355184Y487251D02*
D03*
Y571751D02*
D03*
X354630Y380751D02*
D03*
Y465251D02*
D03*
D115*
X388184Y548251D02*
D03*
Y535751D02*
D03*
Y510751D02*
D03*
Y523251D02*
D03*
X387630Y441751D02*
D03*
Y429251D02*
D03*
Y404251D02*
D03*
Y416751D02*
D03*
D116*
X818839Y324500D02*
D03*
Y319499D02*
D03*
X837839Y324500D02*
D03*
Y319499D02*
D03*
Y314499D02*
D03*
Y309499D02*
D03*
X818839D02*
D03*
Y314499D02*
D03*
D117*
X828339Y316999D02*
D03*
D118*
X836824Y341287D02*
D03*
Y347786D02*
D03*
Y354286D02*
D03*
X814824D02*
D03*
Y347786D02*
D03*
Y341287D02*
D03*
D119*
X1295990Y475598D02*
D03*
X605470Y433760D02*
D03*
D120*
X1276490Y447248D02*
D03*
X1282990D02*
D03*
X1289490D02*
D03*
X1295990D02*
D03*
X1302490D02*
D03*
X1308990D02*
D03*
X1315490D02*
D03*
Y503948D02*
D03*
X1308990D02*
D03*
X1302490D02*
D03*
X1295990D02*
D03*
X1289490D02*
D03*
X1282990D02*
D03*
X1276490D02*
D03*
X585970Y405410D02*
D03*
X592470D02*
D03*
X598970D02*
D03*
X605470D02*
D03*
X611970D02*
D03*
X618470D02*
D03*
X624970D02*
D03*
Y462110D02*
D03*
X618470D02*
D03*
X611970D02*
D03*
X605470D02*
D03*
X598970D02*
D03*
X592470D02*
D03*
X585970D02*
D03*
D121*
X1267640Y495098D02*
D03*
Y488598D02*
D03*
Y482098D02*
D03*
Y475598D02*
D03*
Y469098D02*
D03*
Y462598D02*
D03*
Y456098D02*
D03*
X1324340D02*
D03*
Y462598D02*
D03*
Y469098D02*
D03*
Y475598D02*
D03*
Y482098D02*
D03*
Y488598D02*
D03*
Y495098D02*
D03*
X577120Y453260D02*
D03*
Y446760D02*
D03*
Y440260D02*
D03*
Y433760D02*
D03*
Y427260D02*
D03*
Y420760D02*
D03*
Y414260D02*
D03*
X633820D02*
D03*
Y420760D02*
D03*
Y427260D02*
D03*
Y433760D02*
D03*
Y440260D02*
D03*
Y446760D02*
D03*
Y453260D02*
D03*
D122*
X892150Y413589D02*
D03*
Y386411D02*
D03*
X879450Y413589D02*
D03*
Y386411D02*
D03*
X866750Y413589D02*
D03*
Y386411D02*
D03*
X854050Y413589D02*
D03*
Y386411D02*
D03*
X841350Y413589D02*
D03*
Y386411D02*
D03*
X828650Y413589D02*
D03*
Y386411D02*
D03*
X777850D02*
D03*
Y413589D02*
D03*
X790550Y386411D02*
D03*
Y413589D02*
D03*
X803250Y386411D02*
D03*
Y413589D02*
D03*
X815950Y386411D02*
D03*
Y413589D02*
D03*
M02*
