G04*
G04 #@! TF.GenerationSoftware,Altium Limited,Altium Designer,18.1.9 (240)*
G04*
G04 Layer_Color=8421504*
%FSLAX44Y44*%
%MOMM*%
G71*
G01*
G75*
%ADD16C,0.1520*%
%ADD21R,1.0000X1.6000*%
%ADD22R,0.8000X1.3000*%
%ADD23R,1.1112X0.2540*%
%ADD24R,1.6000X1.0000*%
%ADD25R,0.4500X0.6000*%
%ADD26R,0.4000X0.6000*%
%ADD27R,0.6000X0.8000*%
%ADD28R,1.3000X0.8000*%
%ADD29R,0.3000X0.6000*%
%ADD30R,1.6000X0.6000*%
%ADD31R,2.4000X1.6000*%
%ADD32R,0.6000X0.4000*%
%ADD33R,0.7000X1.8000*%
%ADD34R,1.6000X2.2000*%
%ADD35R,0.2600X0.9000*%
%ADD36R,0.9000X0.2600*%
%ADD37R,2.9500X1.9500*%
%ADD38C,0.6000*%
%ADD39R,0.8000X0.5500*%
%ADD40R,0.8000X0.6000*%
%ADD41R,0.6000X0.4500*%
%ADD42R,1.1000X0.6000*%
%ADD43R,0.5032X0.3556*%
%ADD44R,0.7500X0.7000*%
%ADD45R,1.0400X0.3300*%
%ADD46R,0.3300X1.0400*%
%ADD47R,3.7000X3.7000*%
%ADD48R,0.9000X0.5000*%
%ADD49R,2.2000X0.6000*%
%ADD50R,5.5000X1.4300*%
%ADD51R,0.7000X1.3000*%
%ADD52R,0.9000X0.7000*%
%ADD53R,1.2700X0.5588*%
%ADD54R,1.4500X0.3000*%
%ADD55R,0.6000X1.1000*%
%ADD56R,0.5588X1.2700*%
%ADD57R,1.3000X0.7000*%
%ADD58R,0.8400X0.2600*%
%ADD59R,0.2600X0.8400*%
%ADD60R,3.6000X3.6000*%
%ADD61R,0.4500X1.3500*%
%ADD62R,1.0000X0.4700*%
%ADD63R,1.0000X0.2500*%
%ADD64R,0.2500X1.0000*%
%ADD65R,3.4000X0.9800*%
%ADD66R,0.7000X0.3000*%
%ADD67R,1.8000X0.7000*%
%ADD68R,2.2000X1.6000*%
%ADD69R,1.2200X0.6000*%
%ADD70R,1.2000X1.8000*%
%ADD71R,1.5000X0.5500*%
%ADD72R,0.5500X1.5000*%
%ADD73R,1.0000X1.8000*%
%ADD74R,0.8500X0.3500*%
%ADD75R,0.2400X0.6000*%
%ADD76R,0.6000X0.2400*%
%ADD77R,0.2400X0.5750*%
%ADD78R,0.5750X0.2400*%
G36*
X777336Y625546D02*
X759693D01*
Y637438D01*
X777336D01*
Y625546D01*
D02*
G37*
G36*
X472445Y580712D02*
X459020D01*
Y594108D01*
X472445D01*
Y580712D01*
D02*
G37*
G36*
X454419Y580710D02*
X441020D01*
Y594108D01*
X454419D01*
Y580710D01*
D02*
G37*
G36*
X454417Y562687D02*
X441020D01*
Y576108D01*
X454417D01*
Y562687D01*
D02*
G37*
G36*
X472450Y562678D02*
X459020D01*
Y576108D01*
X472450D01*
Y562678D01*
D02*
G37*
G36*
X612453Y516876D02*
X612546Y516848D01*
X612631Y516802D01*
X612706Y516740D01*
X612768Y516665D01*
X612813Y516580D01*
X612842Y516487D01*
X612851Y516390D01*
Y515180D01*
X612842Y515084D01*
X612813Y514991D01*
X612768Y514905D01*
X612706Y514830D01*
X612631Y514769D01*
X612546Y514723D01*
X612453Y514695D01*
X612356Y514685D01*
X605396D01*
X605300Y514695D01*
X605207Y514723D01*
X605121Y514769D01*
X605046Y514830D01*
X604985Y514905D01*
X604939Y514991D01*
X604911Y515084D01*
X604901Y515180D01*
Y516390D01*
X604911Y516487D01*
X604939Y516580D01*
X604985Y516665D01*
X605046Y516740D01*
X605121Y516802D01*
X605207Y516848D01*
X605300Y516876D01*
X605396Y516885D01*
X612356D01*
X612453Y516876D01*
D02*
G37*
G36*
X602503D02*
X602596Y516848D01*
X602681Y516802D01*
X602756Y516740D01*
X602818Y516665D01*
X602864Y516580D01*
X602892Y516487D01*
X602901Y516390D01*
Y515180D01*
X602892Y515084D01*
X602864Y514991D01*
X602818Y514905D01*
X602756Y514830D01*
X602681Y514769D01*
X602596Y514723D01*
X602503Y514695D01*
X602406Y514685D01*
X595446D01*
X595350Y514695D01*
X595257Y514723D01*
X595171Y514769D01*
X595096Y514830D01*
X595035Y514905D01*
X594989Y514991D01*
X594961Y515084D01*
X594951Y515180D01*
Y516390D01*
X594961Y516487D01*
X594989Y516580D01*
X595035Y516665D01*
X595096Y516740D01*
X595171Y516802D01*
X595257Y516848D01*
X595350Y516876D01*
X595446Y516885D01*
X602406D01*
X602503Y516876D01*
D02*
G37*
G36*
X612445Y512076D02*
X612540Y512047D01*
X612627Y512000D01*
X612704Y511938D01*
X612766Y511861D01*
X612813Y511774D01*
X612841Y511680D01*
X612851Y511581D01*
Y510189D01*
X612841Y510091D01*
X612813Y509996D01*
X612766Y509909D01*
X612704Y509833D01*
X612627Y509770D01*
X612540Y509724D01*
X612445Y509695D01*
X612347Y509685D01*
X605405D01*
X605307Y509695D01*
X605212Y509724D01*
X605125Y509770D01*
X605049Y509833D01*
X604986Y509909D01*
X604939Y509996D01*
X604911Y510091D01*
X604901Y510189D01*
Y511581D01*
X604911Y511680D01*
X604939Y511774D01*
X604986Y511861D01*
X605049Y511938D01*
X605125Y512000D01*
X605212Y512047D01*
X605307Y512076D01*
X605405Y512085D01*
X612347D01*
X612445Y512076D01*
D02*
G37*
G36*
X602495D02*
X602590Y512047D01*
X602677Y512000D01*
X602753Y511938D01*
X602816Y511861D01*
X602863Y511774D01*
X602892Y511680D01*
X602901Y511581D01*
Y510189D01*
X602892Y510091D01*
X602863Y509996D01*
X602816Y509909D01*
X602753Y509833D01*
X602677Y509770D01*
X602590Y509724D01*
X602495Y509695D01*
X602397Y509685D01*
X595455D01*
X595357Y509695D01*
X595262Y509724D01*
X595175Y509770D01*
X595099Y509833D01*
X595036Y509909D01*
X594990Y509996D01*
X594961Y510091D01*
X594951Y510189D01*
Y511581D01*
X594961Y511680D01*
X594990Y511774D01*
X595036Y511861D01*
X595099Y511938D01*
X595175Y512000D01*
X595262Y512047D01*
X595357Y512076D01*
X595455Y512085D01*
X602397D01*
X602495Y512076D01*
D02*
G37*
G36*
X612453Y507076D02*
X612546Y507048D01*
X612631Y507002D01*
X612706Y506940D01*
X612768Y506865D01*
X612813Y506780D01*
X612842Y506687D01*
X612851Y506590D01*
Y505380D01*
X612842Y505284D01*
X612813Y505191D01*
X612768Y505105D01*
X612706Y505030D01*
X612631Y504969D01*
X612546Y504923D01*
X612453Y504895D01*
X612356Y504885D01*
X605396D01*
X605300Y504895D01*
X605207Y504923D01*
X605121Y504969D01*
X605046Y505030D01*
X604985Y505105D01*
X604939Y505191D01*
X604911Y505284D01*
X604901Y505380D01*
Y506590D01*
X604911Y506687D01*
X604939Y506780D01*
X604985Y506865D01*
X605046Y506940D01*
X605121Y507002D01*
X605207Y507048D01*
X605300Y507076D01*
X605396Y507085D01*
X612356D01*
X612453Y507076D01*
D02*
G37*
G36*
X602503D02*
X602596Y507048D01*
X602681Y507002D01*
X602756Y506940D01*
X602818Y506865D01*
X602864Y506780D01*
X602892Y506687D01*
X602901Y506590D01*
Y505380D01*
X602892Y505284D01*
X602864Y505191D01*
X602818Y505105D01*
X602756Y505030D01*
X602681Y504969D01*
X602596Y504923D01*
X602503Y504895D01*
X602406Y504885D01*
X595446D01*
X595350Y504895D01*
X595257Y504923D01*
X595171Y504969D01*
X595096Y505030D01*
X595035Y505105D01*
X594989Y505191D01*
X594961Y505284D01*
X594951Y505380D01*
Y506590D01*
X594961Y506687D01*
X594989Y506780D01*
X595035Y506865D01*
X595096Y506940D01*
X595171Y507002D01*
X595257Y507048D01*
X595350Y507076D01*
X595446Y507085D01*
X602406D01*
X602503Y507076D01*
D02*
G37*
G36*
X251259Y482555D02*
X223400D01*
Y510414D01*
X251259D01*
Y482555D01*
D02*
G37*
G36*
X457127Y462920D02*
X454654D01*
Y469900D01*
X457127D01*
Y462920D01*
D02*
G37*
G36*
X497193Y462920D02*
X494654D01*
Y469900D01*
X497193D01*
Y462920D01*
D02*
G37*
G36*
X467146Y462916D02*
X464654D01*
Y469900D01*
X467146D01*
Y462916D01*
D02*
G37*
G36*
X472153Y462907D02*
X469654D01*
Y469900D01*
X472153D01*
Y462907D01*
D02*
G37*
G36*
X477156Y462905D02*
X474654D01*
Y469900D01*
X477156D01*
Y462905D01*
D02*
G37*
G36*
X492162Y462905D02*
X489654D01*
Y469900D01*
X492162D01*
Y462905D01*
D02*
G37*
G36*
X487159Y462904D02*
X484654D01*
Y469900D01*
X487159D01*
Y462904D01*
D02*
G37*
G36*
X462150Y462904D02*
X459654D01*
Y469900D01*
X462150D01*
Y462904D01*
D02*
G37*
G36*
X482156Y462903D02*
X479654D01*
Y469900D01*
X482156D01*
Y462903D01*
D02*
G37*
G36*
X452149Y462903D02*
X449654D01*
Y469900D01*
X452149D01*
Y462903D01*
D02*
G37*
G36*
X454381Y457173D02*
X447388D01*
Y459635D01*
X454381D01*
Y457173D01*
D02*
G37*
G36*
X499421Y457133D02*
X492428D01*
Y459674D01*
X499421D01*
Y457133D01*
D02*
G37*
G36*
X454399Y452155D02*
X447399D01*
Y454645D01*
X454399D01*
Y452155D01*
D02*
G37*
G36*
X499406Y452148D02*
X492405D01*
Y454651D01*
X499406D01*
Y452148D01*
D02*
G37*
G36*
X454400Y447154D02*
X447397D01*
Y449643D01*
X454400D01*
Y447154D01*
D02*
G37*
G36*
X499422Y447132D02*
X492415D01*
Y449661D01*
X499422D01*
Y447132D01*
D02*
G37*
G36*
X454403Y442151D02*
X447402D01*
Y444648D01*
X454403D01*
Y442151D01*
D02*
G37*
G36*
X499410Y442144D02*
X492406D01*
Y444652D01*
X499410D01*
Y442144D01*
D02*
G37*
G36*
X462148Y431889D02*
X459654D01*
Y438900D01*
X462148D01*
Y431889D01*
D02*
G37*
G36*
X497170Y431887D02*
X494654D01*
Y438900D01*
X497170D01*
Y431887D01*
D02*
G37*
G36*
X492171Y431883D02*
X489654D01*
Y438900D01*
X492171D01*
Y431883D01*
D02*
G37*
G36*
X467148Y431883D02*
X464654D01*
Y438900D01*
X467148D01*
Y431883D01*
D02*
G37*
G36*
X487168Y431881D02*
X484654D01*
Y438900D01*
X487168D01*
Y431881D01*
D02*
G37*
G36*
X457137D02*
X454654D01*
Y438900D01*
X457137D01*
Y431881D01*
D02*
G37*
G36*
X452129Y431878D02*
X449654D01*
Y438900D01*
X452129D01*
Y431878D01*
D02*
G37*
G36*
X472152Y431869D02*
X469654D01*
Y438900D01*
X472152D01*
Y431869D01*
D02*
G37*
G36*
X477161Y431867D02*
X474654D01*
Y438900D01*
X477161D01*
Y431867D01*
D02*
G37*
G36*
X482171Y431863D02*
X479654D01*
Y438900D01*
X482171D01*
Y431863D01*
D02*
G37*
G36*
X688125Y368567D02*
X677520D01*
Y383270D01*
X688125D01*
Y368567D01*
D02*
G37*
G36*
X675519Y368563D02*
X664920D01*
Y383270D01*
X675519D01*
Y368563D01*
D02*
G37*
G36*
X658284Y287334D02*
X647685D01*
Y302041D01*
X658284D01*
Y287334D01*
D02*
G37*
G36*
X645684D02*
X635079D01*
Y302037D01*
X645684D01*
Y287334D01*
D02*
G37*
G36*
X567744Y287853D02*
Y281253D01*
X567244Y280753D01*
X556364D01*
X555864Y281253D01*
Y287853D01*
X556364Y288353D01*
X567244D01*
X567744Y287853D01*
D02*
G37*
G36*
X553864D02*
Y281253D01*
X553364Y280753D01*
X542484D01*
X541984Y281253D01*
Y287853D01*
X542484Y288353D01*
X553364D01*
X553864Y287853D01*
D02*
G37*
G36*
X567744Y275053D02*
Y263053D01*
X567244Y262553D01*
X556364D01*
X555864Y263053D01*
Y275053D01*
X556364Y275553D01*
X567244D01*
X567744Y275053D01*
D02*
G37*
G36*
X553864D02*
Y263053D01*
X553364Y262553D01*
X542484D01*
X541984Y263053D01*
Y275053D01*
X542484Y275553D01*
X553364D01*
X553864Y275053D01*
D02*
G37*
G36*
X741268Y193488D02*
X730663D01*
Y208192D01*
X741268D01*
Y193488D01*
D02*
G37*
G36*
X728661Y193484D02*
X718063D01*
Y208192D01*
X728661D01*
Y193484D01*
D02*
G37*
G36*
X745195Y127267D02*
X734590D01*
Y141970D01*
X745195D01*
Y127267D01*
D02*
G37*
G36*
X732589Y127263D02*
X721990D01*
Y141970D01*
X732589D01*
Y127263D01*
D02*
G37*
D16*
X576580Y733724D02*
G03*
X569484Y740820I-7096J0D01*
G01*
X382680Y740820D02*
G03*
X375604Y733744I-0J-7076D01*
G01*
X375604Y666558D02*
G03*
X382642Y659520I7038J0D01*
G01*
X569299Y659520D02*
G03*
X576580Y666801I0J7281D01*
G01*
X382680Y740820D02*
X569484Y740820D01*
X375604Y733744D02*
X375604Y666558D01*
X382642Y659520D02*
X569299Y659520D01*
X576580Y666801D02*
X576580Y733724D01*
X946658Y363220D02*
Y901700D01*
X0D02*
X946658D01*
X0Y0D02*
Y901700D01*
Y0D02*
X946658D01*
Y153670D01*
X901700D02*
X946658D01*
X901700D02*
Y363220D01*
X946658D01*
D21*
X655080Y394138D02*
D03*
X625080D02*
D03*
X655080Y413258D02*
D03*
X625080D02*
D03*
X662616Y657338D02*
D03*
X632616D02*
D03*
X662616Y638275D02*
D03*
X632616D02*
D03*
X662616Y619212D02*
D03*
X632616D02*
D03*
X580630Y576250D02*
D03*
X610630D02*
D03*
X580630Y557700D02*
D03*
X610630D02*
D03*
X799133Y687914D02*
D03*
X769133D02*
D03*
X799133Y668169D02*
D03*
X769133D02*
D03*
X799133Y707659D02*
D03*
X769133D02*
D03*
X632616Y592813D02*
D03*
X662616D02*
D03*
X632616Y573750D02*
D03*
X662616D02*
D03*
X632616Y554687D02*
D03*
X662616D02*
D03*
X780465Y518411D02*
D03*
X810465D02*
D03*
X780465Y538168D02*
D03*
X810465D02*
D03*
D22*
X824840Y833120D02*
D03*
X805840D02*
D03*
X372046Y538374D02*
D03*
X391046D02*
D03*
X236359Y440704D02*
D03*
X255359D02*
D03*
X605751Y540690D02*
D03*
X586751D02*
D03*
X330748Y410718D02*
D03*
X311748D02*
D03*
X734472Y171744D02*
D03*
X753472D02*
D03*
X605751Y479730D02*
D03*
X586751D02*
D03*
X677824Y347050D02*
D03*
X696824D02*
D03*
X640944Y332204D02*
D03*
X621944D02*
D03*
D23*
X230924Y71240D02*
D03*
Y76240D02*
D03*
Y81240D02*
D03*
Y86240D02*
D03*
X203924D02*
D03*
Y81240D02*
D03*
Y76240D02*
D03*
Y71240D02*
D03*
D24*
X669828Y401560D02*
D03*
Y431560D02*
D03*
D25*
X690894Y422640D02*
D03*
X700894D02*
D03*
X240446Y453404D02*
D03*
X250446D02*
D03*
X798553Y604187D02*
D03*
X808553D02*
D03*
X798553Y594027D02*
D03*
X808553D02*
D03*
X785360Y593217D02*
D03*
X775360D02*
D03*
X797994Y838200D02*
D03*
X787994D02*
D03*
X614760Y446859D02*
D03*
X624760D02*
D03*
X721304Y720700D02*
D03*
X711304D02*
D03*
X316248Y398780D02*
D03*
X326248D02*
D03*
X875444Y759460D02*
D03*
X885444D02*
D03*
X431880Y467900D02*
D03*
X441880D02*
D03*
X454804Y421000D02*
D03*
X464804D02*
D03*
X807137Y736600D02*
D03*
X817137D02*
D03*
X713633Y674208D02*
D03*
X723633D02*
D03*
X713633Y682797D02*
D03*
X723633D02*
D03*
D26*
X625968Y429260D02*
D03*
X634968D02*
D03*
X740784Y101600D02*
D03*
X749784D02*
D03*
X821440Y750206D02*
D03*
X812440D02*
D03*
X797244Y881700D02*
D03*
X806244D02*
D03*
X258950Y458400D02*
D03*
X267950D02*
D03*
X380248Y357104D02*
D03*
X389248D02*
D03*
X354034Y176144D02*
D03*
X345034D02*
D03*
Y164714D02*
D03*
X354034D02*
D03*
Y152014D02*
D03*
X345034D02*
D03*
X354044Y139834D02*
D03*
X345044D02*
D03*
X345614Y126614D02*
D03*
X354614D02*
D03*
X257514Y165984D02*
D03*
X248514D02*
D03*
X257514Y125344D02*
D03*
X248514D02*
D03*
X841804Y881700D02*
D03*
X832804D02*
D03*
X864544Y863600D02*
D03*
X855544D02*
D03*
X911424Y812800D02*
D03*
X920424D02*
D03*
X510104Y454277D02*
D03*
X519104D02*
D03*
X569489Y304264D02*
D03*
X578489D02*
D03*
X608004Y301724D02*
D03*
X599004D02*
D03*
X865704Y453400D02*
D03*
X874704D02*
D03*
X865704Y533400D02*
D03*
X874704D02*
D03*
X426284Y436880D02*
D03*
X435284D02*
D03*
X505354Y421000D02*
D03*
X496354D02*
D03*
X519104Y441960D02*
D03*
X510104D02*
D03*
X807940Y726440D02*
D03*
X816940D02*
D03*
X723883Y693237D02*
D03*
X714883D02*
D03*
X723883Y665619D02*
D03*
X714883D02*
D03*
X738630Y674208D02*
D03*
X729630D02*
D03*
X792397Y726440D02*
D03*
X801397D02*
D03*
X723883Y701826D02*
D03*
X714883D02*
D03*
X624404Y533400D02*
D03*
X633404D02*
D03*
D27*
X642030Y429260D02*
D03*
X656030D02*
D03*
X753876Y110980D02*
D03*
X739876D02*
D03*
X749456Y158280D02*
D03*
X735456D02*
D03*
X712371Y361920D02*
D03*
X698371D02*
D03*
X449720Y625280D02*
D03*
X463720D02*
D03*
X367334Y553324D02*
D03*
X381334D02*
D03*
X424514Y545778D02*
D03*
X410514D02*
D03*
X745972Y225084D02*
D03*
X731972D02*
D03*
X697399Y401320D02*
D03*
X683399D02*
D03*
X621904Y318044D02*
D03*
X635904D02*
D03*
X506884Y259708D02*
D03*
X520884D02*
D03*
D28*
X730340Y100940D02*
D03*
Y81940D02*
D03*
X235234Y136164D02*
D03*
Y155164D02*
D03*
X365500Y622148D02*
D03*
Y603148D02*
D03*
X413330Y558748D02*
D03*
Y577748D02*
D03*
D29*
X723840Y120620D02*
D03*
X730340D02*
D03*
X736840D02*
D03*
X743340D02*
D03*
Y148620D02*
D03*
X719912Y186842D02*
D03*
X726413D02*
D03*
X732913D02*
D03*
X739413D02*
D03*
Y214841D02*
D03*
X666770Y361920D02*
D03*
X673270D02*
D03*
X679770D02*
D03*
X686270D02*
D03*
Y389920D02*
D03*
X656434Y308684D02*
D03*
X649934D02*
D03*
X643434D02*
D03*
X636934D02*
D03*
Y280684D02*
D03*
D30*
X730340Y148620D02*
D03*
X726413Y214841D02*
D03*
X673270Y389920D02*
D03*
X649934Y280684D02*
D03*
D31*
X733590Y134620D02*
D03*
X729662Y200842D02*
D03*
X676520Y375920D02*
D03*
X646684Y294684D02*
D03*
D32*
X753876Y138920D02*
D03*
Y129920D02*
D03*
X699304Y380620D02*
D03*
Y371620D02*
D03*
X301390Y519664D02*
D03*
Y510664D02*
D03*
X272978Y528660D02*
D03*
Y537660D02*
D03*
X215908Y548699D02*
D03*
Y539699D02*
D03*
X223528Y548699D02*
D03*
Y539699D02*
D03*
X239060Y548699D02*
D03*
Y539699D02*
D03*
X246680Y548699D02*
D03*
Y539699D02*
D03*
X292958Y510704D02*
D03*
Y519704D02*
D03*
X284814Y510744D02*
D03*
Y519744D02*
D03*
X292958Y490383D02*
D03*
Y499383D02*
D03*
X284814Y490384D02*
D03*
Y499384D02*
D03*
X301390Y490344D02*
D03*
Y499344D02*
D03*
X296198Y267864D02*
D03*
Y276864D02*
D03*
X337378Y267264D02*
D03*
Y276264D02*
D03*
X690270Y554379D02*
D03*
Y545379D02*
D03*
Y537179D02*
D03*
Y528179D02*
D03*
X753910Y594628D02*
D03*
Y603628D02*
D03*
X518832Y851973D02*
D03*
Y842973D02*
D03*
X501527Y851973D02*
D03*
Y842973D02*
D03*
X484509Y852973D02*
D03*
Y843973D02*
D03*
X538443Y851973D02*
D03*
Y842973D02*
D03*
X557780Y851973D02*
D03*
Y842973D02*
D03*
X578595Y851973D02*
D03*
Y842973D02*
D03*
X523403Y835080D02*
D03*
Y826080D02*
D03*
X857504Y779460D02*
D03*
Y770460D02*
D03*
X932180Y770300D02*
D03*
Y779300D02*
D03*
X513649Y512871D02*
D03*
Y503871D02*
D03*
Y498700D02*
D03*
Y489700D02*
D03*
X438904Y525499D02*
D03*
Y534499D02*
D03*
X441706Y610590D02*
D03*
Y619590D02*
D03*
X433832D02*
D03*
Y610590D02*
D03*
X426281Y619590D02*
D03*
Y610590D02*
D03*
X418473Y619590D02*
D03*
Y610590D02*
D03*
X410464Y619590D02*
D03*
Y610590D02*
D03*
X624654Y299734D02*
D03*
Y308734D02*
D03*
X750093Y196341D02*
D03*
Y205341D02*
D03*
X554864Y304234D02*
D03*
Y313234D02*
D03*
X611767Y274364D02*
D03*
Y283364D02*
D03*
X570484Y630876D02*
D03*
Y621876D02*
D03*
X633730Y525728D02*
D03*
Y516728D02*
D03*
X570484Y645950D02*
D03*
Y636950D02*
D03*
X599484Y452302D02*
D03*
Y443302D02*
D03*
X599520Y467536D02*
D03*
Y458536D02*
D03*
X190500Y85740D02*
D03*
Y76740D02*
D03*
X219649Y55400D02*
D03*
Y46400D02*
D03*
D33*
X613030Y77380D02*
D03*
X625530D02*
D03*
D34*
X589530Y44380D02*
D03*
X649030D02*
D03*
D35*
X784863Y615418D02*
D03*
X749863Y649118D02*
D03*
Y615418D02*
D03*
X754863D02*
D03*
X759863D02*
D03*
X764863D02*
D03*
X769863D02*
D03*
X774863D02*
D03*
X779863D02*
D03*
X784863Y649118D02*
D03*
X779863D02*
D03*
X774863D02*
D03*
X769863D02*
D03*
X764863D02*
D03*
X759863D02*
D03*
X754863D02*
D03*
D36*
X789212Y624768D02*
D03*
X745513Y639768D02*
D03*
Y624768D02*
D03*
X789212Y639768D02*
D03*
D37*
X767363Y632268D02*
D03*
D38*
X791000Y736900D02*
D03*
X801060Y742380D02*
D03*
X791708Y587714D02*
D03*
X203924Y18000D02*
D03*
D39*
X600964Y282574D02*
D03*
Y270074D02*
D03*
D40*
X728252Y616288D02*
D03*
Y602288D02*
D03*
X410972Y600598D02*
D03*
Y586598D02*
D03*
X759613Y202104D02*
D03*
Y188104D02*
D03*
X621284Y285868D02*
D03*
Y271868D02*
D03*
X588264Y283324D02*
D03*
Y269324D02*
D03*
D41*
X804164Y798373D02*
D03*
Y808373D02*
D03*
X328508Y276124D02*
D03*
Y266124D02*
D03*
X317782Y275564D02*
D03*
Y265564D02*
D03*
X362844Y145664D02*
D03*
Y155664D02*
D03*
X247904Y140724D02*
D03*
Y150724D02*
D03*
X779034Y853758D02*
D03*
Y843758D02*
D03*
X768874Y853758D02*
D03*
Y843758D02*
D03*
X537188Y820983D02*
D03*
Y830983D02*
D03*
X556260Y598981D02*
D03*
Y608981D02*
D03*
X448048Y534999D02*
D03*
Y524999D02*
D03*
X393768Y515828D02*
D03*
Y525828D02*
D03*
X518964Y288944D02*
D03*
Y278944D02*
D03*
X585724Y304734D02*
D03*
Y294734D02*
D03*
X526570Y314344D02*
D03*
Y304344D02*
D03*
X535739Y314344D02*
D03*
Y304344D02*
D03*
X544364Y314344D02*
D03*
Y304344D02*
D03*
X432364Y460780D02*
D03*
Y450780D02*
D03*
X559054Y622126D02*
D03*
Y632126D02*
D03*
X590098Y443552D02*
D03*
Y453552D02*
D03*
D42*
X816940Y793873D02*
D03*
Y812873D02*
D03*
X844940D02*
D03*
Y803373D02*
D03*
Y793873D02*
D03*
D43*
X519581Y241272D02*
D03*
X504547D02*
D03*
D44*
X348728Y877060D02*
D03*
Y845060D02*
D03*
X332228D02*
D03*
Y877060D02*
D03*
D45*
X263450Y479214D02*
D03*
Y485714D02*
D03*
Y492214D02*
D03*
Y498714D02*
D03*
Y505214D02*
D03*
Y511714D02*
D03*
Y518214D02*
D03*
X206750D02*
D03*
Y511714D02*
D03*
Y505214D02*
D03*
Y498714D02*
D03*
Y492214D02*
D03*
Y485714D02*
D03*
Y479214D02*
D03*
D46*
X215600Y470364D02*
D03*
X222100D02*
D03*
X228600D02*
D03*
X235100D02*
D03*
X241600D02*
D03*
X248100D02*
D03*
X254600D02*
D03*
Y527064D02*
D03*
X248100D02*
D03*
X241600D02*
D03*
X235100D02*
D03*
X228600D02*
D03*
X222100D02*
D03*
X215600D02*
D03*
D47*
X235100Y498714D02*
D03*
D48*
X307238Y261184D02*
D03*
Y276184D02*
D03*
D49*
X275274Y152014D02*
D03*
X327274D02*
D03*
X275274Y164714D02*
D03*
Y139314D02*
D03*
Y126614D02*
D03*
X327274Y164714D02*
D03*
Y139314D02*
D03*
Y126614D02*
D03*
D50*
X730504Y518280D02*
D03*
Y558680D02*
D03*
D51*
X741324Y582510D02*
D03*
X760324D02*
D03*
X541089Y533451D02*
D03*
X560089D02*
D03*
D52*
X538998Y864163D02*
D03*
Y879163D02*
D03*
X519489Y864163D02*
D03*
Y879163D02*
D03*
X502285Y864163D02*
D03*
Y879163D02*
D03*
X484761Y864163D02*
D03*
Y879163D02*
D03*
X558233Y864163D02*
D03*
Y879163D02*
D03*
X578947Y864163D02*
D03*
Y879163D02*
D03*
X933704Y789730D02*
D03*
Y804730D02*
D03*
X219649Y33000D02*
D03*
Y18000D02*
D03*
X801853Y768446D02*
D03*
Y753446D02*
D03*
D53*
X817790Y760795D02*
D03*
Y770193D02*
D03*
Y779591D02*
D03*
X843698D02*
D03*
Y770193D02*
D03*
Y760795D02*
D03*
D54*
X841994Y848758D02*
D03*
Y853758D02*
D03*
Y858758D02*
D03*
Y863758D02*
D03*
Y868758D02*
D03*
X797994Y848758D02*
D03*
Y853758D02*
D03*
Y858758D02*
D03*
Y863758D02*
D03*
Y868758D02*
D03*
D55*
X886444Y772216D02*
D03*
X867444D02*
D03*
Y800216D02*
D03*
X876944D02*
D03*
X886444D02*
D03*
D56*
X921242Y773066D02*
D03*
X911844D02*
D03*
X902446D02*
D03*
Y798974D02*
D03*
X911844D02*
D03*
X921242D02*
D03*
D57*
X610713Y596675D02*
D03*
Y615675D02*
D03*
X753910Y724248D02*
D03*
Y743248D02*
D03*
X669828Y451904D02*
D03*
Y470904D02*
D03*
D58*
X481070Y560908D02*
D03*
Y565908D02*
D03*
Y570908D02*
D03*
Y575908D02*
D03*
Y580908D02*
D03*
Y585908D02*
D03*
Y590908D02*
D03*
Y595908D02*
D03*
X432370D02*
D03*
Y590908D02*
D03*
Y585908D02*
D03*
Y580908D02*
D03*
Y575908D02*
D03*
Y570908D02*
D03*
Y565908D02*
D03*
Y560908D02*
D03*
D59*
X439220Y554058D02*
D03*
X444220D02*
D03*
X449220D02*
D03*
X454220D02*
D03*
X459220D02*
D03*
X464220D02*
D03*
X469220D02*
D03*
X474220D02*
D03*
Y602758D02*
D03*
X469220D02*
D03*
X464220D02*
D03*
X459220D02*
D03*
X454220D02*
D03*
X449220D02*
D03*
X444220D02*
D03*
X439220D02*
D03*
D60*
X456720Y578408D02*
D03*
D61*
X379500Y572640D02*
D03*
X386000D02*
D03*
X392500D02*
D03*
X399000D02*
D03*
X379500Y612140D02*
D03*
X386000D02*
D03*
X392500D02*
D03*
X399000D02*
D03*
D62*
X426572Y517200D02*
D03*
Y530200D02*
D03*
X408572Y517200D02*
D03*
Y530200D02*
D03*
X426572Y523700D02*
D03*
D63*
X497404Y458400D02*
D03*
Y453400D02*
D03*
Y448400D02*
D03*
Y443400D02*
D03*
X449404Y458400D02*
D03*
Y453400D02*
D03*
Y448400D02*
D03*
Y443400D02*
D03*
D64*
X450904Y433900D02*
D03*
X455904D02*
D03*
X460904D02*
D03*
X465904D02*
D03*
X470904D02*
D03*
X475904D02*
D03*
X480904D02*
D03*
X485904D02*
D03*
X490904D02*
D03*
X495904D02*
D03*
Y467900D02*
D03*
X490904D02*
D03*
X485904D02*
D03*
X480904D02*
D03*
X475904D02*
D03*
X470904D02*
D03*
X465904D02*
D03*
X460904D02*
D03*
X455904D02*
D03*
X450904D02*
D03*
D65*
X540428Y512593D02*
D03*
Y488893D02*
D03*
D66*
X351900Y599400D02*
D03*
X305900D02*
D03*
X351900Y594400D02*
D03*
X305900D02*
D03*
X351900Y589400D02*
D03*
X305900D02*
D03*
X351900Y584400D02*
D03*
X305900D02*
D03*
X351900Y579400D02*
D03*
X305900D02*
D03*
X351900Y574400D02*
D03*
X305900D02*
D03*
X351900Y569400D02*
D03*
X305900D02*
D03*
X351900Y564400D02*
D03*
X305900D02*
D03*
X351900Y559400D02*
D03*
X305900D02*
D03*
X351900Y554400D02*
D03*
X305900D02*
D03*
D67*
X867340Y707248D02*
D03*
Y719748D02*
D03*
X868070Y627481D02*
D03*
Y639981D02*
D03*
Y559011D02*
D03*
Y546511D02*
D03*
Y478766D02*
D03*
Y466266D02*
D03*
X834984Y396680D02*
D03*
Y384180D02*
D03*
X820440Y193480D02*
D03*
Y180980D02*
D03*
D68*
X900340Y683748D02*
D03*
Y743248D02*
D03*
X901070Y603981D02*
D03*
Y663481D02*
D03*
Y582510D02*
D03*
Y523011D02*
D03*
Y502266D02*
D03*
Y442766D02*
D03*
X867984Y420180D02*
D03*
Y360680D02*
D03*
X853440Y216980D02*
D03*
Y157480D02*
D03*
D69*
X462849Y119736D02*
D03*
Y138736D02*
D03*
X487749D02*
D03*
Y129236D02*
D03*
Y119736D02*
D03*
X540770Y138720D02*
D03*
Y119720D02*
D03*
X515870D02*
D03*
Y129220D02*
D03*
Y138720D02*
D03*
D70*
X247228Y372344D02*
D03*
Y332344D02*
D03*
X223228D02*
D03*
Y372344D02*
D03*
D71*
X364068Y365104D02*
D03*
Y357104D02*
D03*
Y349104D02*
D03*
Y341104D02*
D03*
Y333104D02*
D03*
Y325104D02*
D03*
Y317104D02*
D03*
Y309104D02*
D03*
X278068D02*
D03*
Y317104D02*
D03*
Y325104D02*
D03*
Y333104D02*
D03*
Y341104D02*
D03*
Y349104D02*
D03*
Y357104D02*
D03*
Y365104D02*
D03*
D72*
X349068Y294104D02*
D03*
X341068D02*
D03*
X333068D02*
D03*
X325068D02*
D03*
X317068D02*
D03*
X309068D02*
D03*
X301068D02*
D03*
X293068D02*
D03*
Y380104D02*
D03*
X301068D02*
D03*
X309068D02*
D03*
X317068D02*
D03*
X325068D02*
D03*
X333068D02*
D03*
X341068D02*
D03*
X349068D02*
D03*
D73*
X471678Y495050D02*
D03*
X446678D02*
D03*
D74*
X571255Y615374D02*
D03*
Y608875D02*
D03*
Y602374D02*
D03*
X593255D02*
D03*
Y608875D02*
D03*
Y615374D02*
D03*
X632434Y468780D02*
D03*
Y462280D02*
D03*
Y455780D02*
D03*
X654434D02*
D03*
Y462280D02*
D03*
Y468780D02*
D03*
X711590Y742788D02*
D03*
Y736288D02*
D03*
Y729788D02*
D03*
X733590D02*
D03*
Y736288D02*
D03*
Y742788D02*
D03*
D75*
X601951Y524885D02*
D03*
X606951D02*
D03*
X611951D02*
D03*
X616951D02*
D03*
Y496885D02*
D03*
X611951D02*
D03*
X606951D02*
D03*
X601951D02*
D03*
D76*
X620951Y515885D02*
D03*
Y510885D02*
D03*
Y505885D02*
D03*
D77*
X567364Y256178D02*
D03*
X562364D02*
D03*
X557364D02*
D03*
X552364D02*
D03*
X547364D02*
D03*
X542364D02*
D03*
Y294428D02*
D03*
X547364D02*
D03*
X552364D02*
D03*
X557364D02*
D03*
X562364D02*
D03*
X567364D02*
D03*
D78*
X535739Y262803D02*
D03*
Y267803D02*
D03*
Y272803D02*
D03*
Y277803D02*
D03*
Y282803D02*
D03*
Y287803D02*
D03*
X573989D02*
D03*
Y282803D02*
D03*
Y277803D02*
D03*
Y272803D02*
D03*
Y267803D02*
D03*
Y262803D02*
D03*
M02*
