G04*
G04 #@! TF.GenerationSoftware,Altium Limited,Altium Designer,18.1.11 (251)*
G04*
G04 Layer_Color=16711935*
%FSLAX44Y44*%
%MOMM*%
G71*
G01*
G75*
%ADD10C,0.2000*%
%ADD15C,5.6016*%
%ADD21R,2.6016X1.8016*%
%ADD22R,2.3016X1.7016*%
%ADD23R,1.9016X0.8016*%
D10*
X2684900Y407100D02*
G03*
X2732000Y360000I47099J-1D01*
G01*
X2732000Y860000D02*
G03*
X2684900Y812900I-1J-47098D01*
G01*
X2809500Y812501D02*
G03*
X2762000Y860000I-47593J-94D01*
G01*
X2762000Y360000D02*
G03*
X2809500Y407500I0J47500D01*
G01*
X2732000Y360000D02*
X2762000Y360000D01*
X2684900Y812900D02*
X2684900Y407100D01*
X2732000Y860000D02*
X2762000Y860000D01*
X2809500Y812501D02*
X2809500Y407500D01*
X200000Y200000D02*
Y1020000D01*
X3405000D01*
Y200000D02*
Y1020000D01*
X200000Y200000D02*
X3405000D01*
D15*
X3365000Y925000D02*
D03*
Y305000D02*
D03*
X2065000D02*
D03*
Y925000D02*
D03*
X1202500D02*
D03*
Y305000D02*
D03*
X240000D02*
D03*
Y915000D02*
D03*
D21*
X2583000Y815000D02*
D03*
X2623000D02*
D03*
X1489000Y816000D02*
D03*
X1529000D02*
D03*
X534000Y814000D02*
D03*
X574000D02*
D03*
D22*
X2144442Y654139D02*
D03*
Y569639D02*
D03*
D23*
X2111442Y593139D02*
D03*
Y605639D02*
D03*
Y630639D02*
D03*
Y618139D02*
D03*
M02*
