G04*
G04 #@! TF.GenerationSoftware,Altium Limited,Altium Designer,18.1.9 (240)*
G04*
G04 Layer_Color=16711935*
%FSLAX44Y44*%
%MOMM*%
G71*
G01*
G75*
%ADD13C,0.2000*%
%ADD51R,2.0032X0.9032*%
%ADD52R,2.8032X2.2032*%
%ADD53R,0.9032X2.0032*%
%ADD54R,2.2032X2.8032*%
%ADD57R,0.9032X1.1032*%
%ADD58R,1.1032X0.9032*%
%ADD59R,1.0032X1.1032*%
%ADD60R,1.2032X0.6732*%
%ADD61R,1.3032X0.8032*%
%ADD62R,1.1032X1.0032*%
%ADD69R,0.8032X0.8032*%
%ADD73C,1.7272*%
%ADD74R,1.7272X1.7272*%
%ADD75C,1.7032*%
%ADD76R,1.7032X1.7032*%
%ADD78C,0.7620*%
%ADD79C,6.2032*%
%ADD100R,0.5588X1.6764*%
%ADD101R,0.8532X1.3032*%
%ADD102R,1.7532X0.4532*%
%ADD103R,0.8032X0.8032*%
%ADD104R,1.1032X2.4532*%
%ADD105R,1.1032X3.0032*%
%ADD106R,0.8032X1.3032*%
%ADD107R,1.3032X0.8532*%
%ADD108R,1.6764X0.5588*%
%ADD109C,1.1684*%
D13*
X1280000D01*
Y540000D01*
X0D02*
X1280000D01*
X0Y0D02*
Y540000D01*
D51*
X85000Y381250D02*
D03*
Y368750D02*
D03*
Y171250D02*
D03*
Y158750D02*
D03*
X1195000Y368750D02*
D03*
Y381250D02*
D03*
Y158750D02*
D03*
Y171250D02*
D03*
D52*
X34000Y405250D02*
D03*
Y344750D02*
D03*
Y195250D02*
D03*
Y134750D02*
D03*
X1246000Y344750D02*
D03*
Y405250D02*
D03*
Y134750D02*
D03*
Y195250D02*
D03*
D53*
X258750Y455000D02*
D03*
X246250D02*
D03*
X233750D02*
D03*
X296250D02*
D03*
X283750D02*
D03*
X271250D02*
D03*
X221250D02*
D03*
X208750D02*
D03*
X196250D02*
D03*
X183750D02*
D03*
X964500Y85000D02*
D03*
X927000D02*
D03*
X939500D02*
D03*
X952000D02*
D03*
X318750D02*
D03*
X281250D02*
D03*
X293750D02*
D03*
X306250D02*
D03*
X481700Y455000D02*
D03*
X469200D02*
D03*
X810000Y455000D02*
D03*
X797500D02*
D03*
X150500Y85000D02*
D03*
X163000D02*
D03*
D54*
X320250Y506000D02*
D03*
X159750D02*
D03*
X903000Y34000D02*
D03*
X988500D02*
D03*
X257250D02*
D03*
X342750D02*
D03*
X505700Y506000D02*
D03*
X445200D02*
D03*
X834000Y506000D02*
D03*
X773500D02*
D03*
X126500Y34000D02*
D03*
X187000D02*
D03*
D57*
X467500Y437000D02*
D03*
X452500D02*
D03*
X650500Y281000D02*
D03*
X665500D02*
D03*
X792500Y434000D02*
D03*
X777500D02*
D03*
X1084500Y311000D02*
D03*
X1069500D02*
D03*
X1112000Y116000D02*
D03*
X1097000D02*
D03*
X931426Y289000D02*
D03*
X916426D02*
D03*
X202000Y98000D02*
D03*
X187000D02*
D03*
X1126882Y87000D02*
D03*
X1141882D02*
D03*
X207500Y153000D02*
D03*
X192500D02*
D03*
D58*
X638000Y170250D02*
D03*
Y185250D02*
D03*
X652000Y170250D02*
D03*
Y185250D02*
D03*
X669000Y170250D02*
D03*
Y185250D02*
D03*
X683000Y170250D02*
D03*
Y185250D02*
D03*
X699000Y170250D02*
D03*
Y185250D02*
D03*
X734000Y170500D02*
D03*
Y185500D02*
D03*
X748000Y170500D02*
D03*
Y185500D02*
D03*
X713000Y170250D02*
D03*
Y185250D02*
D03*
D59*
X180000Y196000D02*
D03*
X166000D02*
D03*
X621999Y296000D02*
D03*
X607999D02*
D03*
X622000Y283000D02*
D03*
X608000D02*
D03*
X1069810Y217000D02*
D03*
X1083810D02*
D03*
X207000Y208000D02*
D03*
X193000D02*
D03*
X166000Y142000D02*
D03*
X180000D02*
D03*
X790000Y259648D02*
D03*
X776000D02*
D03*
Y272740D02*
D03*
X790000D02*
D03*
D60*
X795000Y297558D02*
D03*
Y284558D02*
D03*
X777000Y297558D02*
D03*
Y284558D02*
D03*
X795000Y291058D02*
D03*
D61*
X188000Y110500D02*
D03*
Y129500D02*
D03*
X160000D02*
D03*
Y120000D02*
D03*
Y110500D02*
D03*
X187160Y164485D02*
D03*
Y183485D02*
D03*
X159160D02*
D03*
Y173985D02*
D03*
Y164485D02*
D03*
D62*
X368025Y192000D02*
D03*
Y206000D02*
D03*
X355025Y192000D02*
D03*
Y206000D02*
D03*
X1050000Y479500D02*
D03*
Y465500D02*
D03*
X1158480Y109000D02*
D03*
Y123000D02*
D03*
X927000Y207000D02*
D03*
Y193000D02*
D03*
X914000Y207000D02*
D03*
Y193000D02*
D03*
D69*
X566500Y175750D02*
D03*
Y183750D02*
D03*
Y191750D02*
D03*
Y199750D02*
D03*
X553500D02*
D03*
Y191750D02*
D03*
Y183750D02*
D03*
Y175750D02*
D03*
D73*
X1159010Y239600D02*
D03*
Y265000D02*
D03*
Y290400D02*
D03*
X1125990Y239600D02*
D03*
Y265000D02*
D03*
D74*
Y290400D02*
D03*
D75*
X980800Y376291D02*
D03*
Y350891D02*
D03*
X955400Y376291D02*
D03*
Y350891D02*
D03*
X930000Y376291D02*
D03*
Y350891D02*
D03*
X904600Y376291D02*
D03*
Y350891D02*
D03*
X879200Y376291D02*
D03*
Y350891D02*
D03*
X853800Y376291D02*
D03*
Y350891D02*
D03*
X828400Y376291D02*
D03*
Y350891D02*
D03*
X803000Y376291D02*
D03*
Y350891D02*
D03*
X777600Y376291D02*
D03*
Y350891D02*
D03*
X752200Y376291D02*
D03*
X331800Y375878D02*
D03*
X382600D02*
D03*
X408000D02*
D03*
X433400D02*
D03*
X458800D02*
D03*
X484200D02*
D03*
X509600D02*
D03*
X535000D02*
D03*
X357200D02*
D03*
X245400Y376291D02*
D03*
Y350891D02*
D03*
X220000Y376291D02*
D03*
Y350891D02*
D03*
X194600Y376291D02*
D03*
X1054400Y376400D02*
D03*
Y351000D02*
D03*
X1029000Y376400D02*
D03*
X1107600Y375650D02*
D03*
X1133000Y350250D02*
D03*
Y375650D02*
D03*
X1158400Y350250D02*
D03*
Y375650D02*
D03*
X59000Y187750D02*
D03*
Y352250D02*
D03*
X1221000D02*
D03*
Y187750D02*
D03*
X322250Y466000D02*
D03*
X157750D02*
D03*
X167750Y481000D02*
D03*
X332250D02*
D03*
X1172250Y59000D02*
D03*
X1007750D02*
D03*
X901000Y74000D02*
D03*
X990500D02*
D03*
X255250D02*
D03*
X344750D02*
D03*
X456000Y481000D02*
D03*
X520500D02*
D03*
X507700Y466000D02*
D03*
X443200D02*
D03*
X759000Y481000D02*
D03*
X823500D02*
D03*
X836000Y466000D02*
D03*
X771500D02*
D03*
X74000Y407250D02*
D03*
Y342750D02*
D03*
Y197250D02*
D03*
Y132750D02*
D03*
X1206000Y342750D02*
D03*
Y407250D02*
D03*
Y132750D02*
D03*
Y197250D02*
D03*
X124500Y74000D02*
D03*
X189000D02*
D03*
D76*
X752200Y350891D02*
D03*
X306400Y375878D02*
D03*
X194600Y350891D02*
D03*
X1029000Y351000D02*
D03*
X1107600Y350250D02*
D03*
D78*
X779000Y87000D02*
D03*
X1169000Y120000D02*
D03*
X1179998Y156000D02*
D03*
X238000Y300000D02*
D03*
X142000Y126000D02*
D03*
X1071500Y204500D02*
D03*
X926000Y302000D02*
D03*
X347775Y323000D02*
D03*
X693000Y372000D02*
D03*
X644392Y395553D02*
D03*
X522882Y385000D02*
D03*
X680000Y370641D02*
D03*
X145000Y157000D02*
D03*
X773000Y313237D02*
D03*
X557000Y408000D02*
D03*
X632000Y313237D02*
D03*
X630000Y346000D02*
D03*
X641000Y345144D02*
D03*
X875000Y308750D02*
D03*
X895000Y342501D02*
D03*
X987655Y339945D02*
D03*
X852421Y314000D02*
D03*
X851000Y306000D02*
D03*
X858000Y320000D02*
D03*
X400722Y66311D02*
D03*
X154000Y140000D02*
D03*
X622000Y347491D02*
D03*
X596449Y278354D02*
D03*
X1197000Y308750D02*
D03*
X940020Y217810D02*
D03*
X932001Y216999D02*
D03*
X949000Y216851D02*
D03*
X917004Y181000D02*
D03*
X925000D02*
D03*
X926586Y242648D02*
D03*
X933017D02*
D03*
X925295Y156000D02*
D03*
X900000Y168429D02*
D03*
X1000746Y460000D02*
D03*
X762624Y259024D02*
D03*
X340525Y169525D02*
D03*
X380525Y168429D02*
D03*
X641036Y128334D02*
D03*
X389586Y238260D02*
D03*
X385000Y242000D02*
D03*
X177858Y178540D02*
D03*
X152500Y156000D02*
D03*
X207500Y154000D02*
D03*
Y139000D02*
D03*
X171000Y102500D02*
D03*
X1054000Y307000D02*
D03*
X465000Y291250D02*
D03*
X472500Y357500D02*
D03*
X1125000Y326000D02*
D03*
X1094000Y311000D02*
D03*
X1012000Y319000D02*
D03*
X841472Y382472D02*
D03*
X918000Y385000D02*
D03*
X1105000Y336000D02*
D03*
X1096928Y332928D02*
D03*
X1112856Y133856D02*
D03*
X1118998Y129000D02*
D03*
X860000Y211320D02*
D03*
X848806Y233330D02*
D03*
X856484Y195152D02*
D03*
X821000Y264000D02*
D03*
X832000Y260320D02*
D03*
X782144Y317144D02*
D03*
X803000Y322449D02*
D03*
X829000Y166000D02*
D03*
X729000Y157955D02*
D03*
X757006Y169500D02*
D03*
X838522Y176000D02*
D03*
X850000Y182465D02*
D03*
X868856Y205000D02*
D03*
X925000Y252443D02*
D03*
X514000Y442500D02*
D03*
X541000Y472500D02*
D03*
X328000Y305000D02*
D03*
X744262Y25514D02*
D03*
X196000Y129500D02*
D03*
X198000Y183000D02*
D03*
X579999Y25000D02*
D03*
X575999Y32000D02*
D03*
X700906Y105406D02*
D03*
X692999Y108000D02*
D03*
X746000Y201737D02*
D03*
X746393Y130501D02*
D03*
X1107000Y95000D02*
D03*
X746000Y209334D02*
D03*
X737000Y135000D02*
D03*
X1127334Y89000D02*
D03*
X1192500Y102000D02*
D03*
X724000Y174334D02*
D03*
X644000Y154000D02*
D03*
X781000Y215000D02*
D03*
X830000Y200000D02*
D03*
X881352Y258648D02*
D03*
X685000Y213000D02*
D03*
X1134099Y109967D02*
D03*
X1076000Y144313D02*
D03*
X1077000Y131513D02*
D03*
X1061000Y117000D02*
D03*
X1063793Y158334D02*
D03*
X587000Y123000D02*
D03*
X678819Y409181D02*
D03*
X693000Y423151D02*
D03*
X682000Y428485D02*
D03*
X675931Y434000D02*
D03*
X606000Y134000D02*
D03*
X599000Y129000D02*
D03*
X511000Y185000D02*
D03*
X531000Y183485D02*
D03*
X545000Y183000D02*
D03*
X546000Y175000D02*
D03*
X529999Y433999D02*
D03*
X459601Y455000D02*
D03*
X471000Y470000D02*
D03*
X589000Y375000D02*
D03*
X588000Y390000D02*
D03*
X785000Y485000D02*
D03*
X841000Y395553D02*
D03*
X840000Y433000D02*
D03*
X801780Y439220D02*
D03*
X828000Y439000D02*
D03*
X84000Y218000D02*
D03*
Y233000D02*
D03*
X581000Y426000D02*
D03*
X684000Y416000D02*
D03*
X763000Y425000D02*
D03*
X1142037Y437000D02*
D03*
X704331Y308000D02*
D03*
X668501Y351000D02*
D03*
X802000Y277075D02*
D03*
X767689Y290794D02*
D03*
X668495Y360186D02*
D03*
X619100Y367000D02*
D03*
X616000Y322449D02*
D03*
X624000Y318580D02*
D03*
X644392Y389392D02*
D03*
X610000Y397000D02*
D03*
X635607Y434000D02*
D03*
X629430Y429570D02*
D03*
X549000Y413653D02*
D03*
X575312Y397651D02*
D03*
X566000Y402985D02*
D03*
X381000Y310810D02*
D03*
X386000Y304000D02*
D03*
X268750Y219060D02*
D03*
X261380Y230620D02*
D03*
X739000Y42000D02*
D03*
X885500Y46186D02*
D03*
X920230Y39252D02*
D03*
X183000Y208000D02*
D03*
X183750Y450250D02*
D03*
X367485Y249000D02*
D03*
X350000D02*
D03*
X362000Y219000D02*
D03*
X316999Y257999D02*
D03*
X322000Y268206D02*
D03*
X388000Y220000D02*
D03*
X382000Y233000D02*
D03*
X350000Y273750D02*
D03*
X368000Y272000D02*
D03*
X352000Y266000D02*
D03*
X342750Y294750D02*
D03*
X256000Y478000D02*
D03*
X263000Y484000D02*
D03*
X274000Y486000D02*
D03*
X320000Y285000D02*
D03*
X452000Y278000D02*
D03*
X447999Y294999D02*
D03*
X436000Y289000D02*
D03*
X253000Y215000D02*
D03*
X266000Y434000D02*
D03*
X258750Y439501D02*
D03*
X247000Y442000D02*
D03*
X196250Y450328D02*
D03*
X283750Y451142D02*
D03*
X296250Y450892D02*
D03*
X306250Y475243D02*
D03*
X293750Y475750D02*
D03*
X206250Y476750D02*
D03*
X193750Y476750D02*
D03*
X410000Y179333D02*
D03*
X499000Y266105D02*
D03*
X483758Y266559D02*
D03*
X444971Y215000D02*
D03*
X491000Y266343D02*
D03*
X355000Y225000D02*
D03*
X349000Y235000D02*
D03*
X340775Y203000D02*
D03*
X349694Y218000D02*
D03*
X357275Y182000D02*
D03*
X428000Y285428D02*
D03*
X381791Y275209D02*
D03*
X689727Y294000D02*
D03*
X696000Y282000D02*
D03*
X678000Y285000D02*
D03*
X684000Y281000D02*
D03*
X599500Y285001D02*
D03*
X555000Y255000D02*
D03*
X559620Y261000D02*
D03*
X473540Y249540D02*
D03*
X547524D02*
D03*
X467650Y253350D02*
D03*
X459351Y259000D02*
D03*
X600999Y251000D02*
D03*
X602270Y257857D02*
D03*
X389000Y268000D02*
D03*
X404000Y274648D02*
D03*
X407000Y262000D02*
D03*
X413999Y203000D02*
D03*
X421000Y205000D02*
D03*
X918592Y326000D02*
D03*
X927000Y330201D02*
D03*
X302000Y331250D02*
D03*
X270000Y303942D02*
D03*
X389791Y276250D02*
D03*
X892998Y281999D02*
D03*
X365000Y304000D02*
D03*
X965000Y266648D02*
D03*
X1045000Y311000D02*
D03*
X948482Y443280D02*
D03*
X998000Y310000D02*
D03*
X916000Y252000D02*
D03*
X886000Y209000D02*
D03*
X902000Y208000D02*
D03*
X1049000Y202000D02*
D03*
X959000Y176000D02*
D03*
X1034000Y317000D02*
D03*
X986000Y313000D02*
D03*
X920482Y443280D02*
D03*
X1041993Y197334D02*
D03*
X967000Y173000D02*
D03*
X856000Y247698D02*
D03*
X894000Y204000D02*
D03*
X873799Y198000D02*
D03*
X1002334Y209334D02*
D03*
X1021653Y208000D02*
D03*
X1008463Y223000D02*
D03*
X990436Y223135D02*
D03*
X948000Y276250D02*
D03*
X875054Y274648D02*
D03*
X1122000Y119000D02*
D03*
X1119000Y148000D02*
D03*
X1011998Y186000D02*
D03*
X984000Y183000D02*
D03*
X906998Y274000D02*
D03*
X923925Y278074D02*
D03*
X913998Y259000D02*
D03*
X448000Y51000D02*
D03*
X514000Y53000D02*
D03*
X499999Y63000D02*
D03*
X592999Y106000D02*
D03*
X619070Y98070D02*
D03*
X745000Y35000D02*
D03*
X691000Y124147D02*
D03*
X844608Y146653D02*
D03*
X916426Y277075D02*
D03*
X906352Y226648D02*
D03*
X907000Y234000D02*
D03*
X965352Y274648D02*
D03*
X218000Y208000D02*
D03*
X305458Y249648D02*
D03*
X438000Y229000D02*
D03*
X366025Y181000D02*
D03*
X703000Y286250D02*
D03*
X571999Y217000D02*
D03*
X613999Y202000D02*
D03*
X633650Y207316D02*
D03*
X582500Y267001D02*
D03*
X665999Y204000D02*
D03*
X657669Y205000D02*
D03*
X674999Y197000D02*
D03*
X691000Y193000D02*
D03*
X699000Y194000D02*
D03*
X660591Y283000D02*
D03*
X679000Y247210D02*
D03*
X689845Y236542D02*
D03*
X646350Y240000D02*
D03*
X654000Y238000D02*
D03*
X637000D02*
D03*
X626999Y235999D02*
D03*
X626500Y244500D02*
D03*
X697150Y219680D02*
D03*
X583000Y219530D02*
D03*
X697165Y260306D02*
D03*
X230500Y264501D02*
D03*
X173750Y238000D02*
D03*
Y221250D02*
D03*
X174500Y256250D02*
D03*
X173750Y273750D02*
D03*
X174250Y291250D02*
D03*
X173750Y308750D02*
D03*
X491500Y111500D02*
D03*
X885500Y112500D02*
D03*
X830000Y124147D02*
D03*
X547411Y124147D02*
D03*
X504500Y39500D02*
D03*
X363000Y43000D02*
D03*
X425750Y76000D02*
D03*
X426000Y66000D02*
D03*
X425000Y86000D02*
D03*
X433000Y51000D02*
D03*
X440000D02*
D03*
X372500Y15500D02*
D03*
X531500Y15500D02*
D03*
X414000Y112000D02*
D03*
X624999Y124000D02*
D03*
X838000Y34000D02*
D03*
X847000Y26000D02*
D03*
X596999Y161000D02*
D03*
X608392Y159000D02*
D03*
X621000Y153190D02*
D03*
X614000Y165000D02*
D03*
X632000Y158000D02*
D03*
X596284Y170494D02*
D03*
X178000Y124000D02*
D03*
X170250Y127000D02*
D03*
X171000Y181000D02*
D03*
X156000Y193000D02*
D03*
X778413Y32752D02*
D03*
X778166Y46000D02*
D03*
X863000Y48876D02*
D03*
X779444Y102556D02*
D03*
X783500Y108500D02*
D03*
X627000Y169000D02*
D03*
X632278Y124000D02*
D03*
X651582Y125000D02*
D03*
X1057667Y391334D02*
D03*
X1071476Y395553D02*
D03*
X1076810Y370000D02*
D03*
X1107000Y435798D02*
D03*
X1047000Y456000D02*
D03*
X1050000Y490000D02*
D03*
X1124000Y360000D02*
D03*
X1030000Y99000D02*
D03*
X1035943Y103943D02*
D03*
X1042190Y98000D02*
D03*
X1048000Y104000D02*
D03*
X1033000Y153000D02*
D03*
X1029000Y117000D02*
D03*
X907000Y266000D02*
D03*
X970852Y289648D02*
D03*
X1034000Y274000D02*
D03*
X1040941Y259648D02*
D03*
X1066500Y265000D02*
D03*
X1083000Y256000D02*
D03*
X906132Y250648D02*
D03*
X920750Y218500D02*
D03*
X1017000Y452000D02*
D03*
X904810Y437000D02*
D03*
X907873Y471063D02*
D03*
X936880Y461493D02*
D03*
X936810Y472000D02*
D03*
X399971Y86811D02*
D03*
X781722Y65252D02*
D03*
X807000Y64941D02*
D03*
Y79000D02*
D03*
X1080972Y487046D02*
D03*
X1098472Y487322D02*
D03*
X1133473Y488322D02*
D03*
X1150972Y487878D02*
D03*
X438000Y92059D02*
D03*
X444971D02*
D03*
X819000Y91000D02*
D03*
X825971D02*
D03*
X1146250Y66561D02*
D03*
Y73750D02*
D03*
X1046250Y66311D02*
D03*
Y73781D02*
D03*
X1107500Y47000D02*
D03*
X928000Y12000D02*
D03*
X1115972Y487822D02*
D03*
X1063000Y487322D02*
D03*
D79*
X580000Y67500D02*
D03*
Y472500D02*
D03*
X700000Y67500D02*
D03*
Y472500D02*
D03*
X1220000D02*
D03*
Y67500D02*
D03*
X53000Y472500D02*
D03*
X60000Y67500D02*
D03*
D100*
X187942Y236040D02*
D03*
X194546D02*
D03*
X200896D02*
D03*
X207500D02*
D03*
X214104D02*
D03*
X220454D02*
D03*
X227058D02*
D03*
Y294460D02*
D03*
X220454D02*
D03*
X214104D02*
D03*
X207500D02*
D03*
X200896D02*
D03*
X194546D02*
D03*
X187942D02*
D03*
D101*
X121750Y191000D02*
D03*
X131250D02*
D03*
X140750D02*
D03*
Y167000D02*
D03*
X131250D02*
D03*
X121750D02*
D03*
X122750Y138502D02*
D03*
X132250D02*
D03*
X141750D02*
D03*
Y114502D02*
D03*
X132250D02*
D03*
X122750D02*
D03*
D102*
X612000Y212000D02*
D03*
Y218500D02*
D03*
Y225000D02*
D03*
Y231500D02*
D03*
Y238000D02*
D03*
Y244500D02*
D03*
Y251000D02*
D03*
Y257500D02*
D03*
Y264000D02*
D03*
Y270500D02*
D03*
X668000Y212000D02*
D03*
Y218500D02*
D03*
Y225000D02*
D03*
Y231500D02*
D03*
Y238000D02*
D03*
Y244500D02*
D03*
Y251000D02*
D03*
Y257500D02*
D03*
Y264000D02*
D03*
Y270500D02*
D03*
D103*
X710000Y393000D02*
D03*
X702000D02*
D03*
X694000D02*
D03*
X686000D02*
D03*
Y380000D02*
D03*
X694000D02*
D03*
X702000D02*
D03*
X710000D02*
D03*
X628000Y445000D02*
D03*
X636000D02*
D03*
X644000D02*
D03*
X652000D02*
D03*
Y458000D02*
D03*
X644000D02*
D03*
X636000D02*
D03*
X628000D02*
D03*
X575000Y378000D02*
D03*
X567000D02*
D03*
X559000D02*
D03*
X551000D02*
D03*
Y391000D02*
D03*
X559000D02*
D03*
X567000D02*
D03*
X575000D02*
D03*
D104*
X1045000Y237250D02*
D03*
X1057500D02*
D03*
X1070500D02*
D03*
X1083000D02*
D03*
Y290750D02*
D03*
X1057500D02*
D03*
X1045000D02*
D03*
D105*
X1070500Y288000D02*
D03*
D106*
X1126382Y102250D02*
D03*
X1145382D02*
D03*
Y130250D02*
D03*
X1135882D02*
D03*
X1126382D02*
D03*
D107*
X1153382Y167500D02*
D03*
Y158000D02*
D03*
Y148500D02*
D03*
X1129382D02*
D03*
Y158000D02*
D03*
Y167500D02*
D03*
D108*
X1078080Y476304D02*
D03*
Y469700D02*
D03*
Y463350D02*
D03*
Y456746D02*
D03*
Y450142D02*
D03*
Y443792D02*
D03*
Y437188D02*
D03*
X1136500D02*
D03*
Y443792D02*
D03*
Y450142D02*
D03*
Y456746D02*
D03*
Y463350D02*
D03*
Y469700D02*
D03*
Y476304D02*
D03*
D109*
X566950Y240000D02*
D03*
X713050D02*
D03*
M02*
