G04*
G04 #@! TF.GenerationSoftware,Altium Limited,Altium Designer,18.1.9 (240)*
G04*
G04 Layer_Physical_Order=2*
G04 Layer_Color=36540*
%FSLAX44Y44*%
%MOMM*%
G71*
G01*
G75*
%ADD13C,0.2000*%
%ADD85C,1.5000*%
%ADD88C,0.5588*%
G36*
X1277410Y2590D02*
X2590D01*
Y537410D01*
X1277410D01*
X1277410Y2590D01*
D02*
G37*
%LPC*%
G36*
X1050000Y494144D02*
X1048414Y493828D01*
X1047070Y492930D01*
X1046172Y491586D01*
X1045856Y490000D01*
X1046172Y488414D01*
X1047070Y487070D01*
X1048414Y486172D01*
X1050000Y485856D01*
X1051586Y486172D01*
X1052930Y487070D01*
X1053828Y488414D01*
X1054144Y490000D01*
X1053828Y491586D01*
X1052930Y492930D01*
X1051586Y493828D01*
X1050000Y494144D01*
D02*
G37*
G36*
X1133473Y492466D02*
X1131887Y492150D01*
X1130543Y491252D01*
X1129644Y489908D01*
X1129329Y488322D01*
X1129644Y486736D01*
X1130543Y485392D01*
X1131887Y484494D01*
X1133473Y484179D01*
X1135058Y484494D01*
X1136403Y485392D01*
X1137301Y486736D01*
X1137616Y488322D01*
X1137301Y489908D01*
X1136403Y491252D01*
X1135058Y492150D01*
X1133473Y492466D01*
D02*
G37*
G36*
X1150972Y492021D02*
X1149386Y491706D01*
X1148042Y490808D01*
X1147144Y489463D01*
X1146828Y487878D01*
X1147144Y486292D01*
X1148042Y484948D01*
X1149386Y484049D01*
X1150972Y483734D01*
X1152558Y484049D01*
X1153902Y484948D01*
X1154800Y486292D01*
X1155116Y487878D01*
X1154800Y489463D01*
X1153902Y490808D01*
X1152558Y491706D01*
X1150972Y492021D01*
D02*
G37*
G36*
X1115972Y491965D02*
X1114387Y491650D01*
X1113042Y490752D01*
X1112144Y489407D01*
X1111829Y487822D01*
X1112144Y486236D01*
X1113042Y484892D01*
X1114387Y483993D01*
X1115972Y483678D01*
X1117558Y483993D01*
X1118902Y484892D01*
X1119801Y486236D01*
X1120116Y487822D01*
X1119801Y489407D01*
X1118902Y490752D01*
X1117558Y491650D01*
X1115972Y491965D01*
D02*
G37*
G36*
X1098472Y491465D02*
X1096887Y491150D01*
X1095542Y490252D01*
X1094644Y488908D01*
X1094329Y487322D01*
X1094644Y485736D01*
X1095542Y484392D01*
X1096887Y483494D01*
X1098472Y483178D01*
X1100058Y483494D01*
X1101402Y484392D01*
X1102300Y485736D01*
X1102616Y487322D01*
X1102300Y488908D01*
X1101402Y490252D01*
X1100058Y491150D01*
X1098472Y491465D01*
D02*
G37*
G36*
X1063000D02*
X1061414Y491150D01*
X1060070Y490252D01*
X1059172Y488908D01*
X1058857Y487322D01*
X1059172Y485736D01*
X1060070Y484392D01*
X1061414Y483494D01*
X1063000Y483178D01*
X1064586Y483494D01*
X1065930Y484392D01*
X1066828Y485736D01*
X1067144Y487322D01*
X1066828Y488908D01*
X1065930Y490252D01*
X1064586Y491150D01*
X1063000Y491465D01*
D02*
G37*
G36*
X1080972Y491190D02*
X1079387Y490874D01*
X1078042Y489976D01*
X1077144Y488632D01*
X1076829Y487046D01*
X1077144Y485460D01*
X1078042Y484116D01*
X1079387Y483218D01*
X1080972Y482902D01*
X1082558Y483218D01*
X1083902Y484116D01*
X1084800Y485460D01*
X1085116Y487046D01*
X1084800Y488632D01*
X1083902Y489976D01*
X1082558Y490874D01*
X1080972Y491190D01*
D02*
G37*
G36*
X274000Y490144D02*
X272414Y489828D01*
X271070Y488930D01*
X270172Y487586D01*
X269856Y486000D01*
X270172Y484414D01*
X271070Y483070D01*
X272414Y482172D01*
X274000Y481856D01*
X275586Y482172D01*
X276930Y483070D01*
X277828Y484414D01*
X278144Y486000D01*
X277828Y487586D01*
X276930Y488930D01*
X275586Y489828D01*
X274000Y490144D01*
D02*
G37*
G36*
X263000Y488144D02*
X261414Y487828D01*
X260070Y486930D01*
X259172Y485586D01*
X258856Y484000D01*
X259172Y482414D01*
X259315Y482200D01*
X258399Y481285D01*
X257586Y481828D01*
X256000Y482144D01*
X254414Y481828D01*
X253070Y480930D01*
X252172Y479586D01*
X251856Y478000D01*
X252172Y476414D01*
X253070Y475070D01*
X254414Y474172D01*
X256000Y473856D01*
X257586Y474172D01*
X258930Y475070D01*
X259828Y476414D01*
X260144Y478000D01*
X259828Y479586D01*
X259685Y479800D01*
X260601Y480715D01*
X261414Y480172D01*
X263000Y479856D01*
X264586Y480172D01*
X265930Y481070D01*
X266828Y482414D01*
X267144Y484000D01*
X266828Y485586D01*
X265930Y486930D01*
X264586Y487828D01*
X263000Y488144D01*
D02*
G37*
G36*
X785000Y489143D02*
X783415Y488828D01*
X782070Y487930D01*
X781172Y486586D01*
X780857Y485000D01*
X781172Y483414D01*
X782070Y482070D01*
X783415Y481172D01*
X785000Y480856D01*
X786586Y481172D01*
X787930Y482070D01*
X788828Y483414D01*
X789144Y485000D01*
X788828Y486586D01*
X787930Y487930D01*
X786586Y488828D01*
X785000Y489143D01*
D02*
G37*
G36*
X332250Y489846D02*
X329961Y489544D01*
X327827Y488661D01*
X325995Y487255D01*
X324589Y485423D01*
X323706Y483289D01*
X323404Y481000D01*
X323706Y478711D01*
X324589Y476577D01*
X325353Y475582D01*
X324553Y474539D01*
X324539Y474544D01*
X322250Y474846D01*
X319961Y474544D01*
X317827Y473661D01*
X315995Y472255D01*
X314589Y470423D01*
X313706Y468289D01*
X313404Y466000D01*
X313706Y463711D01*
X314589Y461577D01*
X315995Y459745D01*
X317827Y458339D01*
X319961Y457456D01*
X322250Y457154D01*
X324539Y457456D01*
X326673Y458339D01*
X328505Y459745D01*
X329911Y461577D01*
X330794Y463711D01*
X331096Y466000D01*
X330794Y468289D01*
X329911Y470423D01*
X329147Y471418D01*
X329947Y472461D01*
X329961Y472456D01*
X332250Y472154D01*
X334539Y472456D01*
X336673Y473339D01*
X338505Y474745D01*
X339911Y476577D01*
X340794Y478711D01*
X341096Y481000D01*
X340794Y483289D01*
X339911Y485423D01*
X338505Y487255D01*
X336673Y488661D01*
X334539Y489544D01*
X332250Y489846D01*
D02*
G37*
G36*
X167750D02*
X165461Y489544D01*
X163327Y488661D01*
X161495Y487255D01*
X160089Y485423D01*
X159206Y483289D01*
X158904Y481000D01*
X159206Y478711D01*
X160089Y476577D01*
X160853Y475582D01*
X160053Y474539D01*
X160039Y474544D01*
X157750Y474846D01*
X155461Y474544D01*
X153327Y473661D01*
X151495Y472255D01*
X150089Y470423D01*
X149206Y468289D01*
X148904Y466000D01*
X149206Y463711D01*
X150089Y461577D01*
X151495Y459745D01*
X153327Y458339D01*
X155461Y457456D01*
X157750Y457154D01*
X160039Y457456D01*
X162173Y458339D01*
X164005Y459745D01*
X165411Y461577D01*
X166294Y463711D01*
X166596Y466000D01*
X166294Y468289D01*
X165411Y470423D01*
X164647Y471418D01*
X165447Y472461D01*
X165461Y472456D01*
X167750Y472154D01*
X170039Y472456D01*
X172173Y473339D01*
X174005Y474745D01*
X175411Y476577D01*
X176294Y478711D01*
X176596Y481000D01*
X176294Y483289D01*
X175411Y485423D01*
X174005Y487255D01*
X172173Y488661D01*
X170039Y489544D01*
X167750Y489846D01*
D02*
G37*
G36*
X193750Y480893D02*
X192164Y480578D01*
X190820Y479680D01*
X189921Y478335D01*
X189606Y476750D01*
X189921Y475164D01*
X190820Y473820D01*
X192164Y472921D01*
X193750Y472606D01*
X195335Y472921D01*
X196680Y473820D01*
X197578Y475164D01*
X197893Y476750D01*
X197578Y478335D01*
X196680Y479680D01*
X195335Y480578D01*
X193750Y480893D01*
D02*
G37*
G36*
X823500Y489846D02*
X821211Y489544D01*
X819077Y488661D01*
X817245Y487255D01*
X815839Y485423D01*
X814956Y483289D01*
X814654Y481000D01*
X814956Y478711D01*
X815839Y476577D01*
X817245Y474745D01*
X819077Y473339D01*
X821211Y472456D01*
X823500Y472154D01*
X825789Y472456D01*
X827923Y473339D01*
X829755Y474745D01*
X831161Y476577D01*
X832044Y478711D01*
X832346Y481000D01*
X832044Y483289D01*
X831161Y485423D01*
X829755Y487255D01*
X827923Y488661D01*
X825789Y489544D01*
X823500Y489846D01*
D02*
G37*
G36*
X759000D02*
X756711Y489544D01*
X754577Y488661D01*
X752745Y487255D01*
X751339Y485423D01*
X750456Y483289D01*
X750154Y481000D01*
X750456Y478711D01*
X751339Y476577D01*
X752745Y474745D01*
X754577Y473339D01*
X756711Y472456D01*
X759000Y472154D01*
X761290Y472456D01*
X763423Y473339D01*
X765255Y474745D01*
X766661Y476577D01*
X767544Y478711D01*
X767846Y481000D01*
X767544Y483289D01*
X766661Y485423D01*
X765255Y487255D01*
X763423Y488661D01*
X761290Y489544D01*
X759000Y489846D01*
D02*
G37*
G36*
X520500D02*
X518211Y489544D01*
X516077Y488661D01*
X514245Y487255D01*
X512839Y485423D01*
X511956Y483289D01*
X511654Y481000D01*
X511956Y478711D01*
X512839Y476577D01*
X514245Y474745D01*
X516077Y473339D01*
X518211Y472456D01*
X520500Y472154D01*
X522789Y472456D01*
X524923Y473339D01*
X526755Y474745D01*
X528161Y476577D01*
X529044Y478711D01*
X529346Y481000D01*
X529044Y483289D01*
X528161Y485423D01*
X526755Y487255D01*
X524923Y488661D01*
X522789Y489544D01*
X520500Y489846D01*
D02*
G37*
G36*
X456000D02*
X453711Y489544D01*
X451577Y488661D01*
X449745Y487255D01*
X448339Y485423D01*
X447456Y483289D01*
X447154Y481000D01*
X447456Y478711D01*
X448339Y476577D01*
X449745Y474745D01*
X451577Y473339D01*
X453711Y472456D01*
X456000Y472154D01*
X458289Y472456D01*
X460423Y473339D01*
X462255Y474745D01*
X463661Y476577D01*
X464544Y478711D01*
X464846Y481000D01*
X464544Y483289D01*
X463661Y485423D01*
X462255Y487255D01*
X460423Y488661D01*
X458289Y489544D01*
X456000Y489846D01*
D02*
G37*
G36*
X306250Y479387D02*
X304664Y479071D01*
X303320Y478173D01*
X302422Y476829D01*
X302106Y475243D01*
X302422Y473657D01*
X303320Y472313D01*
X304664Y471415D01*
X306250Y471099D01*
X307836Y471415D01*
X309180Y472313D01*
X310078Y473657D01*
X310394Y475243D01*
X310078Y476829D01*
X309180Y478173D01*
X307836Y479071D01*
X306250Y479387D01*
D02*
G37*
G36*
X541000Y476644D02*
X539414Y476328D01*
X538070Y475430D01*
X537172Y474086D01*
X536856Y472500D01*
X537172Y470914D01*
X538070Y469570D01*
X539414Y468672D01*
X541000Y468356D01*
X542586Y468672D01*
X543930Y469570D01*
X544828Y470914D01*
X545144Y472500D01*
X544828Y474086D01*
X543930Y475430D01*
X542586Y476328D01*
X541000Y476644D01*
D02*
G37*
G36*
X936810Y476144D02*
X935224Y475828D01*
X933880Y474930D01*
X932982Y473586D01*
X932666Y472000D01*
X932982Y470414D01*
X933880Y469070D01*
X935224Y468172D01*
X936810Y467856D01*
X938396Y468172D01*
X939740Y469070D01*
X940638Y470414D01*
X940954Y472000D01*
X940638Y473586D01*
X939740Y474930D01*
X938396Y475828D01*
X936810Y476144D01*
D02*
G37*
G36*
X907873Y475206D02*
X906287Y474891D01*
X904943Y473993D01*
X904044Y472648D01*
X903729Y471063D01*
X904044Y469477D01*
X904943Y468133D01*
X906287Y467234D01*
X907873Y466919D01*
X909458Y467234D01*
X910803Y468133D01*
X911701Y469477D01*
X912016Y471063D01*
X911701Y472648D01*
X910803Y473993D01*
X909458Y474891D01*
X907873Y475206D01*
D02*
G37*
G36*
X471000Y474144D02*
X469415Y473829D01*
X468070Y472930D01*
X467172Y471586D01*
X466857Y470000D01*
X467172Y468415D01*
X468070Y467070D01*
X469415Y466172D01*
X471000Y465857D01*
X472586Y466172D01*
X473930Y467070D01*
X474829Y468415D01*
X475144Y470000D01*
X474829Y471586D01*
X473930Y472930D01*
X472586Y473829D01*
X471000Y474144D01*
D02*
G37*
G36*
X507700Y474846D02*
X505411Y474544D01*
X503277Y473661D01*
X501445Y472255D01*
X500039Y470423D01*
X499156Y468289D01*
X498854Y466000D01*
X499156Y463711D01*
X500039Y461577D01*
X501445Y459745D01*
X503277Y458339D01*
X505411Y457456D01*
X507700Y457154D01*
X509989Y457456D01*
X512123Y458339D01*
X513955Y459745D01*
X515361Y461577D01*
X516244Y463711D01*
X516546Y466000D01*
X516244Y468289D01*
X515361Y470423D01*
X513955Y472255D01*
X512123Y473661D01*
X509989Y474544D01*
X507700Y474846D01*
D02*
G37*
G36*
X443200D02*
X440911Y474544D01*
X438777Y473661D01*
X436945Y472255D01*
X435539Y470423D01*
X434656Y468289D01*
X434354Y466000D01*
X434656Y463711D01*
X435539Y461577D01*
X436945Y459745D01*
X438777Y458339D01*
X440911Y457456D01*
X443200Y457154D01*
X445489Y457456D01*
X447623Y458339D01*
X449455Y459745D01*
X450861Y461577D01*
X451744Y463711D01*
X452046Y466000D01*
X451744Y468289D01*
X450861Y470423D01*
X449455Y472255D01*
X447623Y473661D01*
X445489Y474544D01*
X443200Y474846D01*
D02*
G37*
G36*
X836000Y474846D02*
X833711Y474544D01*
X831577Y473661D01*
X829745Y472255D01*
X828339Y470423D01*
X827456Y468289D01*
X827154Y466000D01*
X827456Y463711D01*
X828339Y461577D01*
X829745Y459745D01*
X831577Y458339D01*
X833711Y457456D01*
X836000Y457154D01*
X838289Y457456D01*
X840423Y458339D01*
X842255Y459745D01*
X843661Y461577D01*
X844544Y463711D01*
X844846Y466000D01*
X844544Y468289D01*
X843661Y470423D01*
X842255Y472255D01*
X840423Y473661D01*
X838289Y474544D01*
X836000Y474846D01*
D02*
G37*
G36*
X771500D02*
X769211Y474544D01*
X767077Y473661D01*
X765245Y472255D01*
X763839Y470423D01*
X762956Y468289D01*
X762654Y466000D01*
X762956Y463711D01*
X763839Y461577D01*
X765245Y459745D01*
X767077Y458339D01*
X769211Y457456D01*
X771500Y457154D01*
X773790Y457456D01*
X775923Y458339D01*
X777755Y459745D01*
X779161Y461577D01*
X780044Y463711D01*
X780346Y466000D01*
X780044Y468289D01*
X779161Y470423D01*
X777755Y472255D01*
X775923Y473661D01*
X773790Y474544D01*
X771500Y474846D01*
D02*
G37*
G36*
X1017000Y456144D02*
X1015414Y455828D01*
X1014070Y454930D01*
X1013172Y453586D01*
X1012856Y452000D01*
X1013172Y450414D01*
X1014070Y449070D01*
X1015414Y448172D01*
X1017000Y447856D01*
X1018586Y448172D01*
X1019930Y449070D01*
X1020828Y450414D01*
X1021144Y452000D01*
X1020828Y453586D01*
X1019930Y454930D01*
X1018586Y455828D01*
X1017000Y456144D01*
D02*
G37*
G36*
X296250Y455036D02*
X294665Y454720D01*
X293320Y453822D01*
X292422Y452478D01*
X292107Y450892D01*
X292422Y449306D01*
X293320Y447962D01*
X294665Y447064D01*
X296250Y446748D01*
X297836Y447064D01*
X299180Y447962D01*
X300079Y449306D01*
X300394Y450892D01*
X300079Y452478D01*
X299180Y453822D01*
X297836Y454720D01*
X296250Y455036D01*
D02*
G37*
G36*
X183750Y454393D02*
X182164Y454078D01*
X180820Y453180D01*
X179922Y451835D01*
X179607Y450250D01*
X179922Y448664D01*
X180820Y447320D01*
X182164Y446422D01*
X183750Y446106D01*
X185336Y446422D01*
X186680Y447320D01*
X187578Y448664D01*
X187894Y450250D01*
X187578Y451835D01*
X186680Y453180D01*
X185336Y454078D01*
X183750Y454393D01*
D02*
G37*
G36*
X1220000Y503867D02*
X1215093Y503480D01*
X1210307Y502331D01*
X1205760Y500448D01*
X1201563Y497876D01*
X1197821Y494680D01*
X1194624Y490937D01*
X1192052Y486740D01*
X1190169Y482193D01*
X1189020Y477407D01*
X1188633Y472500D01*
X1189020Y467593D01*
X1190169Y462807D01*
X1192052Y458260D01*
X1194624Y454063D01*
X1197821Y450320D01*
X1201563Y447124D01*
X1205760Y444552D01*
X1210307Y442668D01*
X1215093Y441519D01*
X1220000Y441133D01*
X1224907Y441519D01*
X1229693Y442668D01*
X1234240Y444552D01*
X1238437Y447124D01*
X1242180Y450320D01*
X1245376Y454063D01*
X1247948Y458260D01*
X1249832Y462807D01*
X1250981Y467593D01*
X1251367Y472500D01*
X1250981Y477407D01*
X1249832Y482193D01*
X1247948Y486740D01*
X1245376Y490937D01*
X1242180Y494680D01*
X1238437Y497876D01*
X1234240Y500448D01*
X1229693Y502331D01*
X1224907Y503480D01*
X1220000Y503867D01*
D02*
G37*
G36*
X700000D02*
X695093Y503480D01*
X690307Y502331D01*
X685760Y500448D01*
X681563Y497876D01*
X677821Y494680D01*
X674624Y490937D01*
X672052Y486740D01*
X670169Y482193D01*
X669020Y477407D01*
X668633Y472500D01*
X669020Y467593D01*
X670169Y462807D01*
X672052Y458260D01*
X674624Y454063D01*
X677821Y450320D01*
X681563Y447124D01*
X685760Y444552D01*
X690307Y442668D01*
X695093Y441519D01*
X700000Y441133D01*
X704907Y441519D01*
X709693Y442668D01*
X714240Y444552D01*
X718437Y447124D01*
X722180Y450320D01*
X725376Y454063D01*
X727948Y458260D01*
X729832Y462807D01*
X730981Y467593D01*
X731367Y472500D01*
X730981Y477407D01*
X729832Y482193D01*
X727948Y486740D01*
X725376Y490937D01*
X722180Y494680D01*
X718437Y497876D01*
X714240Y500448D01*
X709693Y502331D01*
X704907Y503480D01*
X700000Y503867D01*
D02*
G37*
G36*
X580000D02*
X575093Y503480D01*
X570307Y502331D01*
X565760Y500448D01*
X561563Y497876D01*
X557820Y494680D01*
X554624Y490937D01*
X552052Y486740D01*
X550168Y482193D01*
X549019Y477407D01*
X548633Y472500D01*
X549019Y467593D01*
X550168Y462807D01*
X552052Y458260D01*
X554624Y454063D01*
X557820Y450320D01*
X561563Y447124D01*
X565760Y444552D01*
X570307Y442668D01*
X575093Y441519D01*
X580000Y441133D01*
X584907Y441519D01*
X589693Y442668D01*
X594240Y444552D01*
X598437Y447124D01*
X602179Y450320D01*
X605376Y454063D01*
X607948Y458260D01*
X609831Y462807D01*
X610980Y467593D01*
X611367Y472500D01*
X610980Y477407D01*
X609831Y482193D01*
X607948Y486740D01*
X605376Y490937D01*
X602179Y494680D01*
X598437Y497876D01*
X594240Y500448D01*
X589693Y502331D01*
X584907Y503480D01*
X580000Y503867D01*
D02*
G37*
G36*
X53000D02*
X48093Y503480D01*
X43307Y502331D01*
X38760Y500448D01*
X34563Y497876D01*
X30821Y494680D01*
X27624Y490937D01*
X25052Y486740D01*
X23169Y482193D01*
X22020Y477407D01*
X21634Y472500D01*
X22020Y467593D01*
X23169Y462807D01*
X25052Y458260D01*
X27624Y454063D01*
X30821Y450320D01*
X34563Y447124D01*
X38760Y444552D01*
X43307Y442668D01*
X48093Y441519D01*
X53000Y441133D01*
X57907Y441519D01*
X62693Y442668D01*
X67240Y444552D01*
X71437Y447124D01*
X75180Y450320D01*
X78376Y454063D01*
X80948Y458260D01*
X82832Y462807D01*
X83981Y467593D01*
X84367Y472500D01*
X83981Y477407D01*
X82832Y482193D01*
X80948Y486740D01*
X78376Y490937D01*
X75180Y494680D01*
X71437Y497876D01*
X67240Y500448D01*
X62693Y502331D01*
X57907Y503480D01*
X53000Y503867D01*
D02*
G37*
G36*
X920482Y447424D02*
X918896Y447108D01*
X917552Y446210D01*
X916654Y444866D01*
X916338Y443280D01*
X916654Y441694D01*
X917552Y440350D01*
X918896Y439452D01*
X920482Y439137D01*
X922068Y439452D01*
X923412Y440350D01*
X924310Y441694D01*
X924626Y443280D01*
X924310Y444866D01*
X923412Y446210D01*
X922068Y447108D01*
X920482Y447424D01*
D02*
G37*
G36*
X948482Y447423D02*
X946897Y447108D01*
X945552Y446210D01*
X944654Y444865D01*
X944339Y443280D01*
X944654Y441694D01*
X945552Y440350D01*
X946897Y439451D01*
X948482Y439136D01*
X950068Y439451D01*
X951412Y440350D01*
X952311Y441694D01*
X952626Y443280D01*
X952311Y444865D01*
X951412Y446210D01*
X950068Y447108D01*
X948482Y447423D01*
D02*
G37*
G36*
X247000Y446144D02*
X245414Y445828D01*
X244070Y444930D01*
X243172Y443586D01*
X242856Y442000D01*
X243172Y440414D01*
X244070Y439070D01*
X245414Y438172D01*
X247000Y437856D01*
X248586Y438172D01*
X249930Y439070D01*
X250828Y440414D01*
X251144Y442000D01*
X250828Y443586D01*
X249930Y444930D01*
X248586Y445828D01*
X247000Y446144D01*
D02*
G37*
G36*
X828000Y443144D02*
X826414Y442828D01*
X825070Y441930D01*
X824172Y440586D01*
X823857Y439000D01*
X824172Y437415D01*
X825070Y436070D01*
X826414Y435172D01*
X828000Y434857D01*
X829586Y435172D01*
X830930Y436070D01*
X831828Y437415D01*
X832144Y439000D01*
X831828Y440586D01*
X830930Y441930D01*
X829586Y442828D01*
X828000Y443144D01*
D02*
G37*
G36*
X635607Y438144D02*
X634022Y437828D01*
X632677Y436930D01*
X631779Y435586D01*
X631560Y434486D01*
X631283Y433933D01*
X630259Y433549D01*
X629430Y433714D01*
X627844Y433398D01*
X626500Y432500D01*
X625602Y431156D01*
X625286Y429570D01*
X625602Y427984D01*
X626500Y426640D01*
X627844Y425742D01*
X629430Y425426D01*
X631016Y425742D01*
X632360Y426640D01*
X633258Y427984D01*
X633477Y429084D01*
X633754Y429637D01*
X634779Y430022D01*
X635607Y429857D01*
X637193Y430172D01*
X638537Y431070D01*
X639436Y432415D01*
X639751Y434000D01*
X639436Y435586D01*
X638537Y436930D01*
X637193Y437828D01*
X635607Y438144D01*
D02*
G37*
G36*
X904810Y441144D02*
X903224Y440828D01*
X901880Y439930D01*
X900982Y438586D01*
X900667Y437000D01*
X900982Y435415D01*
X901880Y434070D01*
X903224Y433172D01*
X904810Y432857D01*
X906396Y433172D01*
X907740Y434070D01*
X908638Y435415D01*
X908954Y437000D01*
X908638Y438586D01*
X907740Y439930D01*
X906396Y440828D01*
X904810Y441144D01*
D02*
G37*
G36*
X1107000Y439941D02*
X1105414Y439626D01*
X1104070Y438727D01*
X1103172Y437383D01*
X1102856Y435798D01*
X1103172Y434212D01*
X1104070Y432868D01*
X1105414Y431969D01*
X1107000Y431654D01*
X1108586Y431969D01*
X1109930Y432868D01*
X1110828Y434212D01*
X1111144Y435798D01*
X1110828Y437383D01*
X1109930Y438727D01*
X1108586Y439626D01*
X1107000Y439941D01*
D02*
G37*
G36*
X258750Y443644D02*
X257165Y443329D01*
X255820Y442431D01*
X254922Y441086D01*
X254607Y439501D01*
X254922Y437915D01*
X255820Y436571D01*
X257165Y435672D01*
X258750Y435357D01*
X260336Y435672D01*
X261093Y436179D01*
X261516Y435946D01*
X262123Y435339D01*
X261856Y434000D01*
X262172Y432414D01*
X263070Y431070D01*
X264414Y430172D01*
X266000Y429856D01*
X267586Y430172D01*
X268930Y431070D01*
X269828Y432414D01*
X270144Y434000D01*
X269828Y435586D01*
X268930Y436930D01*
X267586Y437828D01*
X266000Y438144D01*
X264414Y437828D01*
X263657Y437322D01*
X263234Y437555D01*
X262628Y438162D01*
X262894Y439501D01*
X262579Y441086D01*
X261680Y442431D01*
X260336Y443329D01*
X258750Y443644D01*
D02*
G37*
G36*
X529999Y438143D02*
X528413Y437827D01*
X527069Y436929D01*
X526171Y435585D01*
X525855Y433999D01*
X526171Y432413D01*
X527069Y431069D01*
X528413Y430171D01*
X529999Y429855D01*
X531585Y430171D01*
X532929Y431069D01*
X533827Y432413D01*
X534143Y433999D01*
X533827Y435585D01*
X532929Y436929D01*
X531585Y437827D01*
X529999Y438143D01*
D02*
G37*
G36*
X840000Y437144D02*
X838414Y436828D01*
X837070Y435930D01*
X836172Y434586D01*
X835856Y433000D01*
X836172Y431414D01*
X837070Y430070D01*
X838414Y429172D01*
X840000Y428856D01*
X841586Y429172D01*
X842930Y430070D01*
X843828Y431414D01*
X844144Y433000D01*
X843828Y434586D01*
X842930Y435930D01*
X841586Y436828D01*
X840000Y437144D01*
D02*
G37*
G36*
X675931Y438144D02*
X674346Y437828D01*
X673001Y436930D01*
X672103Y435586D01*
X671788Y434000D01*
X672103Y432415D01*
X673001Y431070D01*
X674346Y430172D01*
X675931Y429857D01*
X676871Y430044D01*
X677972Y429064D01*
X677856Y428485D01*
X678172Y426899D01*
X679070Y425555D01*
X680414Y424657D01*
X682000Y424342D01*
X683586Y424657D01*
X684930Y425555D01*
X685828Y426899D01*
X686144Y428485D01*
X685828Y430071D01*
X684930Y431415D01*
X683586Y432313D01*
X682000Y432629D01*
X681060Y432442D01*
X679960Y433421D01*
X680075Y434000D01*
X679760Y435586D01*
X678861Y436930D01*
X677517Y437828D01*
X675931Y438144D01*
D02*
G37*
G36*
X581000Y430144D02*
X579414Y429828D01*
X578070Y428930D01*
X577172Y427586D01*
X576856Y426000D01*
X577172Y424414D01*
X578070Y423070D01*
X579414Y422172D01*
X581000Y421856D01*
X582586Y422172D01*
X583930Y423070D01*
X584828Y424414D01*
X585144Y426000D01*
X584828Y427586D01*
X583930Y428930D01*
X582586Y429828D01*
X581000Y430144D01*
D02*
G37*
G36*
X763000Y429144D02*
X761414Y428828D01*
X760070Y427930D01*
X759172Y426586D01*
X758856Y425000D01*
X759172Y423414D01*
X760070Y422070D01*
X761414Y421172D01*
X763000Y420856D01*
X764586Y421172D01*
X765930Y422070D01*
X766828Y423414D01*
X767144Y425000D01*
X766828Y426586D01*
X765930Y427930D01*
X764586Y428828D01*
X763000Y429144D01*
D02*
G37*
G36*
X693000Y427295D02*
X691414Y426979D01*
X690070Y426081D01*
X689172Y424737D01*
X688856Y423151D01*
X689172Y421565D01*
X690070Y420221D01*
X691414Y419323D01*
X693000Y419007D01*
X694586Y419323D01*
X695930Y420221D01*
X696828Y421565D01*
X697144Y423151D01*
X696828Y424737D01*
X695930Y426081D01*
X694586Y426979D01*
X693000Y427295D01*
D02*
G37*
G36*
X684000Y420144D02*
X682414Y419828D01*
X681070Y418930D01*
X680172Y417586D01*
X679856Y416000D01*
X680172Y414414D01*
X680221Y414341D01*
X679457Y413198D01*
X678819Y413325D01*
X677233Y413009D01*
X675889Y412111D01*
X674991Y410767D01*
X674675Y409181D01*
X674991Y407595D01*
X675889Y406251D01*
X677233Y405353D01*
X678819Y405037D01*
X680405Y405353D01*
X681749Y406251D01*
X682647Y407595D01*
X682962Y409181D01*
X682647Y410767D01*
X682598Y410840D01*
X683362Y411983D01*
X684000Y411856D01*
X685586Y412172D01*
X686930Y413070D01*
X687828Y414414D01*
X688144Y416000D01*
X687828Y417586D01*
X686930Y418930D01*
X685586Y419828D01*
X684000Y420144D01*
D02*
G37*
G36*
X549000Y417797D02*
X547414Y417481D01*
X546070Y416583D01*
X545172Y415239D01*
X544856Y413653D01*
X545172Y412067D01*
X546070Y410723D01*
X547414Y409825D01*
X549000Y409510D01*
X550586Y409825D01*
X551930Y410723D01*
X552828Y412067D01*
X553144Y413653D01*
X552828Y415239D01*
X551930Y416583D01*
X550586Y417481D01*
X549000Y417797D01*
D02*
G37*
G36*
X557000Y412144D02*
X555414Y411828D01*
X554070Y410930D01*
X553172Y409586D01*
X552856Y408000D01*
X553172Y406414D01*
X554070Y405070D01*
X555414Y404172D01*
X557000Y403856D01*
X558586Y404172D01*
X559930Y405070D01*
X560828Y406414D01*
X561144Y408000D01*
X560828Y409586D01*
X559930Y410930D01*
X558586Y411828D01*
X557000Y412144D01*
D02*
G37*
G36*
X566000Y407129D02*
X564414Y406813D01*
X563070Y405915D01*
X562172Y404571D01*
X561856Y402985D01*
X562172Y401399D01*
X563070Y400055D01*
X564414Y399157D01*
X566000Y398842D01*
X567586Y399157D01*
X568930Y400055D01*
X569828Y401399D01*
X570144Y402985D01*
X569828Y404571D01*
X568930Y405915D01*
X567586Y406813D01*
X566000Y407129D01*
D02*
G37*
G36*
X1206000Y416096D02*
X1203711Y415794D01*
X1201577Y414911D01*
X1199745Y413505D01*
X1198339Y411673D01*
X1197456Y409539D01*
X1197154Y407250D01*
X1197456Y404961D01*
X1198339Y402827D01*
X1199745Y400995D01*
X1201577Y399589D01*
X1203711Y398706D01*
X1206000Y398404D01*
X1208289Y398706D01*
X1210423Y399589D01*
X1212255Y400995D01*
X1213661Y402827D01*
X1214544Y404961D01*
X1214846Y407250D01*
X1214544Y409539D01*
X1213661Y411673D01*
X1212255Y413505D01*
X1210423Y414911D01*
X1208289Y415794D01*
X1206000Y416096D01*
D02*
G37*
G36*
X74000D02*
X71711Y415794D01*
X69577Y414911D01*
X67745Y413505D01*
X66339Y411673D01*
X65456Y409539D01*
X65154Y407250D01*
X65456Y404961D01*
X66339Y402827D01*
X67745Y400995D01*
X69577Y399589D01*
X71711Y398706D01*
X74000Y398404D01*
X76289Y398706D01*
X78423Y399589D01*
X80255Y400995D01*
X81661Y402827D01*
X82544Y404961D01*
X82846Y407250D01*
X82544Y409539D01*
X81661Y411673D01*
X80255Y413505D01*
X78423Y414911D01*
X76289Y415794D01*
X74000Y416096D01*
D02*
G37*
G36*
X575312Y401795D02*
X573727Y401479D01*
X572383Y400581D01*
X571484Y399237D01*
X571169Y397651D01*
X571484Y396065D01*
X572383Y394721D01*
X573727Y393823D01*
X575312Y393508D01*
X576898Y393823D01*
X578242Y394721D01*
X579141Y396065D01*
X579456Y397651D01*
X579141Y399237D01*
X578242Y400581D01*
X576898Y401479D01*
X575312Y401795D01*
D02*
G37*
G36*
X1071476Y399696D02*
X1069890Y399381D01*
X1068546Y398483D01*
X1067648Y397138D01*
X1067332Y395553D01*
X1067648Y393967D01*
X1068546Y392623D01*
X1069890Y391724D01*
X1071476Y391409D01*
X1073062Y391724D01*
X1074406Y392623D01*
X1075304Y393967D01*
X1075620Y395553D01*
X1075304Y397138D01*
X1074406Y398483D01*
X1073062Y399381D01*
X1071476Y399696D01*
D02*
G37*
G36*
X841000D02*
X839414Y399381D01*
X838070Y398483D01*
X837172Y397138D01*
X836856Y395553D01*
X837172Y393967D01*
X838070Y392623D01*
X839414Y391724D01*
X841000Y391409D01*
X842586Y391724D01*
X843930Y392623D01*
X844828Y393967D01*
X845144Y395553D01*
X844828Y397138D01*
X843930Y398483D01*
X842586Y399381D01*
X841000Y399696D01*
D02*
G37*
G36*
X1057667Y395477D02*
X1056081Y395162D01*
X1054737Y394264D01*
X1053839Y392919D01*
X1053523Y391334D01*
X1053839Y389748D01*
X1054737Y388404D01*
X1056081Y387505D01*
X1057667Y387190D01*
X1059253Y387505D01*
X1060597Y388404D01*
X1061495Y389748D01*
X1061811Y391334D01*
X1061495Y392919D01*
X1060597Y394264D01*
X1059253Y395162D01*
X1057667Y395477D01*
D02*
G37*
G36*
X588000Y394143D02*
X586414Y393828D01*
X585070Y392930D01*
X584172Y391586D01*
X583857Y390000D01*
X584172Y388414D01*
X585070Y387070D01*
X586414Y386172D01*
X588000Y385856D01*
X589586Y386172D01*
X590930Y387070D01*
X591828Y388414D01*
X592144Y390000D01*
X591828Y391586D01*
X590930Y392930D01*
X589586Y393828D01*
X588000Y394143D01*
D02*
G37*
G36*
X918000Y389144D02*
X916414Y388828D01*
X915070Y387930D01*
X914172Y386586D01*
X913856Y385000D01*
X914172Y383414D01*
X915070Y382070D01*
X916414Y381172D01*
X918000Y380856D01*
X919586Y381172D01*
X920930Y382070D01*
X921828Y383414D01*
X922144Y385000D01*
X921828Y386586D01*
X920930Y387930D01*
X919586Y388828D01*
X918000Y389144D01*
D02*
G37*
G36*
X522882D02*
X521296Y388828D01*
X519952Y387930D01*
X519053Y386586D01*
X518738Y385000D01*
X519053Y383414D01*
X519952Y382070D01*
X521296Y381172D01*
X522882Y380856D01*
X524467Y381172D01*
X525812Y382070D01*
X526710Y383414D01*
X527025Y385000D01*
X526710Y386586D01*
X525812Y387930D01*
X524467Y388828D01*
X522882Y389144D01*
D02*
G37*
G36*
X614999Y404360D02*
X605000D01*
X604028Y403957D01*
X603625Y402985D01*
Y391655D01*
X604028Y390683D01*
X604434Y390515D01*
Y389140D01*
X604028Y388972D01*
X603625Y388000D01*
Y378000D01*
X604028Y377028D01*
X605000Y376625D01*
X615000D01*
X615972Y377028D01*
X616375Y378000D01*
Y388000D01*
X615972Y388972D01*
X615565Y389141D01*
Y390515D01*
X615971Y390683D01*
X616373Y391655D01*
Y402985D01*
X615971Y403957D01*
X614999Y404360D01*
D02*
G37*
G36*
X693000Y376144D02*
X691414Y375828D01*
X690070Y374930D01*
X689172Y373586D01*
X688856Y372000D01*
X689172Y370414D01*
X690070Y369070D01*
X691414Y368172D01*
X693000Y367856D01*
X694586Y368172D01*
X695930Y369070D01*
X696828Y370414D01*
X697144Y372000D01*
X696828Y373586D01*
X695930Y374930D01*
X694586Y375828D01*
X693000Y376144D01*
D02*
G37*
G36*
X1054400Y385246D02*
X1052111Y384944D01*
X1049977Y384061D01*
X1048145Y382655D01*
X1046740Y380823D01*
X1045856Y378689D01*
X1045555Y376400D01*
X1045856Y374111D01*
X1046740Y371977D01*
X1048145Y370145D01*
X1049977Y368740D01*
X1052111Y367856D01*
X1054400Y367554D01*
X1056690Y367856D01*
X1058823Y368740D01*
X1060655Y370145D01*
X1062061Y371977D01*
X1062944Y374111D01*
X1063246Y376400D01*
X1062944Y378689D01*
X1062061Y380823D01*
X1060655Y382655D01*
X1058823Y384061D01*
X1056690Y384944D01*
X1054400Y385246D01*
D02*
G37*
G36*
X1029000D02*
X1026711Y384944D01*
X1024577Y384061D01*
X1022745Y382655D01*
X1021340Y380823D01*
X1020456Y378689D01*
X1020155Y376400D01*
X1020456Y374111D01*
X1021340Y371977D01*
X1022745Y370145D01*
X1024577Y368740D01*
X1026711Y367856D01*
X1029000Y367554D01*
X1031290Y367856D01*
X1033423Y368740D01*
X1035255Y370145D01*
X1036661Y371977D01*
X1037544Y374111D01*
X1037846Y376400D01*
X1037544Y378689D01*
X1036661Y380823D01*
X1035255Y382655D01*
X1033423Y384061D01*
X1031290Y384944D01*
X1029000Y385246D01*
D02*
G37*
G36*
X930000Y385137D02*
X927711Y384836D01*
X925577Y383952D01*
X923745Y382546D01*
X922340Y380714D01*
X921456Y378581D01*
X921154Y376291D01*
X921456Y374002D01*
X922340Y371869D01*
X923745Y370037D01*
X925577Y368631D01*
X927711Y367747D01*
X930000Y367446D01*
X932290Y367747D01*
X934423Y368631D01*
X936255Y370037D01*
X937661Y371869D01*
X938544Y374002D01*
X938846Y376291D01*
X938544Y378581D01*
X937661Y380714D01*
X936255Y382546D01*
X934423Y383952D01*
X932290Y384836D01*
X930000Y385137D01*
D02*
G37*
G36*
X904600D02*
X902311Y384836D01*
X900177Y383952D01*
X898345Y382546D01*
X896940Y380714D01*
X896056Y378581D01*
X895754Y376291D01*
X896056Y374002D01*
X896940Y371869D01*
X898345Y370037D01*
X900177Y368631D01*
X902311Y367747D01*
X904600Y367446D01*
X906890Y367747D01*
X909023Y368631D01*
X910855Y370037D01*
X912261Y371869D01*
X913144Y374002D01*
X913446Y376291D01*
X913144Y378581D01*
X912261Y380714D01*
X910855Y382546D01*
X909023Y383952D01*
X906890Y384836D01*
X904600Y385137D01*
D02*
G37*
G36*
X879200D02*
X876911Y384836D01*
X874777Y383952D01*
X872945Y382546D01*
X871540Y380714D01*
X870656Y378581D01*
X870355Y376291D01*
X870656Y374002D01*
X871540Y371869D01*
X872945Y370037D01*
X874777Y368631D01*
X876911Y367747D01*
X879200Y367446D01*
X881490Y367747D01*
X883623Y368631D01*
X885455Y370037D01*
X886861Y371869D01*
X887744Y374002D01*
X888046Y376291D01*
X887744Y378581D01*
X886861Y380714D01*
X885455Y382546D01*
X883623Y383952D01*
X881490Y384836D01*
X879200Y385137D01*
D02*
G37*
G36*
X841472Y386615D02*
X839886Y386300D01*
X838542Y385402D01*
X837644Y384058D01*
X837328Y382472D01*
X837644Y380886D01*
X838542Y379542D01*
X839886Y378644D01*
X841472Y378328D01*
X843057Y378644D01*
X844232Y379429D01*
X844850Y379156D01*
X845325Y378747D01*
X845256Y378581D01*
X844955Y376291D01*
X845256Y374002D01*
X846140Y371869D01*
X847545Y370037D01*
X849377Y368631D01*
X851511Y367747D01*
X853800Y367446D01*
X856090Y367747D01*
X858223Y368631D01*
X860055Y370037D01*
X861461Y371869D01*
X862344Y374002D01*
X862646Y376291D01*
X862344Y378581D01*
X861461Y380714D01*
X860055Y382546D01*
X858223Y383952D01*
X856090Y384836D01*
X853800Y385137D01*
X851511Y384836D01*
X849377Y383952D01*
X847545Y382546D01*
X846708Y381455D01*
X845520Y381993D01*
X845615Y382472D01*
X845300Y384058D01*
X844402Y385402D01*
X843057Y386300D01*
X841472Y386615D01*
D02*
G37*
G36*
X828400Y385137D02*
X826111Y384836D01*
X823977Y383952D01*
X822145Y382546D01*
X820740Y380714D01*
X819856Y378581D01*
X819555Y376291D01*
X819856Y374002D01*
X820740Y371869D01*
X822145Y370037D01*
X823977Y368631D01*
X826111Y367747D01*
X828400Y367446D01*
X830690Y367747D01*
X832823Y368631D01*
X834655Y370037D01*
X836061Y371869D01*
X836944Y374002D01*
X837246Y376291D01*
X836944Y378581D01*
X836061Y380714D01*
X834655Y382546D01*
X832823Y383952D01*
X830690Y384836D01*
X828400Y385137D01*
D02*
G37*
G36*
X803000D02*
X800711Y384836D01*
X798577Y383952D01*
X796745Y382546D01*
X795340Y380714D01*
X794456Y378581D01*
X794155Y376291D01*
X794456Y374002D01*
X795340Y371869D01*
X796745Y370037D01*
X798577Y368631D01*
X800711Y367747D01*
X803000Y367446D01*
X805290Y367747D01*
X807423Y368631D01*
X809255Y370037D01*
X810661Y371869D01*
X811544Y374002D01*
X811846Y376291D01*
X811544Y378581D01*
X810661Y380714D01*
X809255Y382546D01*
X807423Y383952D01*
X805290Y384836D01*
X803000Y385137D01*
D02*
G37*
G36*
X777600D02*
X775311Y384836D01*
X773177Y383952D01*
X771345Y382546D01*
X769940Y380714D01*
X769056Y378581D01*
X768755Y376291D01*
X769056Y374002D01*
X769940Y371869D01*
X771345Y370037D01*
X773177Y368631D01*
X775311Y367747D01*
X777600Y367446D01*
X779890Y367747D01*
X782023Y368631D01*
X783855Y370037D01*
X785261Y371869D01*
X786144Y374002D01*
X786446Y376291D01*
X786144Y378581D01*
X785261Y380714D01*
X783855Y382546D01*
X782023Y383952D01*
X779890Y384836D01*
X777600Y385137D01*
D02*
G37*
G36*
X752200D02*
X749911Y384836D01*
X747777Y383952D01*
X745945Y382546D01*
X744540Y380714D01*
X743656Y378581D01*
X743354Y376291D01*
X743656Y374002D01*
X744540Y371869D01*
X745945Y370037D01*
X747777Y368631D01*
X749911Y367747D01*
X752200Y367446D01*
X754490Y367747D01*
X756623Y368631D01*
X758455Y370037D01*
X759861Y371869D01*
X760744Y374002D01*
X761046Y376291D01*
X760744Y378581D01*
X759861Y380714D01*
X758455Y382546D01*
X756623Y383952D01*
X754490Y384836D01*
X752200Y385137D01*
D02*
G37*
G36*
X220000D02*
X217711Y384836D01*
X215577Y383952D01*
X213745Y382546D01*
X212339Y380714D01*
X211456Y378581D01*
X211154Y376291D01*
X211456Y374002D01*
X212339Y371869D01*
X213745Y370037D01*
X215577Y368631D01*
X217711Y367747D01*
X220000Y367446D01*
X222290Y367747D01*
X224423Y368631D01*
X226255Y370037D01*
X227661Y371869D01*
X228544Y374002D01*
X228846Y376291D01*
X228544Y378581D01*
X227661Y380714D01*
X226255Y382546D01*
X224423Y383952D01*
X222290Y384836D01*
X220000Y385137D01*
D02*
G37*
G36*
X194600D02*
X192311Y384836D01*
X190177Y383952D01*
X188345Y382546D01*
X186940Y380714D01*
X186056Y378581D01*
X185754Y376291D01*
X186056Y374002D01*
X186940Y371869D01*
X188345Y370037D01*
X190177Y368631D01*
X192311Y367747D01*
X194600Y367446D01*
X196889Y367747D01*
X199023Y368631D01*
X200855Y370037D01*
X202261Y371869D01*
X203144Y374002D01*
X203446Y376291D01*
X203144Y378581D01*
X202261Y380714D01*
X200855Y382546D01*
X199023Y383952D01*
X196889Y384836D01*
X194600Y385137D01*
D02*
G37*
G36*
X315170Y384648D02*
X297630D01*
Y367108D01*
X315170D01*
Y384648D01*
D02*
G37*
G36*
X535000Y384724D02*
X532711Y384423D01*
X530577Y383539D01*
X528745Y382133D01*
X527340Y380301D01*
X526456Y378168D01*
X526155Y375878D01*
X526456Y373589D01*
X527340Y371455D01*
X528745Y369623D01*
X530577Y368218D01*
X532711Y367334D01*
X535000Y367033D01*
X537290Y367334D01*
X539423Y368218D01*
X541255Y369623D01*
X542661Y371455D01*
X543545Y373589D01*
X543846Y375878D01*
X543545Y378168D01*
X542661Y380301D01*
X541255Y382133D01*
X539423Y383539D01*
X537290Y384423D01*
X535000Y384724D01*
D02*
G37*
G36*
X509600D02*
X507311Y384423D01*
X505177Y383539D01*
X503345Y382133D01*
X501940Y380301D01*
X501056Y378168D01*
X500755Y375878D01*
X501056Y373589D01*
X501940Y371455D01*
X503345Y369623D01*
X505177Y368218D01*
X507311Y367334D01*
X509600Y367033D01*
X511890Y367334D01*
X514023Y368218D01*
X515855Y369623D01*
X517261Y371455D01*
X518144Y373589D01*
X518446Y375878D01*
X518144Y378168D01*
X517261Y380301D01*
X515855Y382133D01*
X514023Y383539D01*
X511890Y384423D01*
X509600Y384724D01*
D02*
G37*
G36*
X484200D02*
X481911Y384423D01*
X479777Y383539D01*
X477945Y382133D01*
X476540Y380301D01*
X475656Y378168D01*
X475354Y375878D01*
X475656Y373589D01*
X476540Y371455D01*
X477945Y369623D01*
X479777Y368218D01*
X481911Y367334D01*
X484200Y367033D01*
X486490Y367334D01*
X488623Y368218D01*
X490455Y369623D01*
X491861Y371455D01*
X492744Y373589D01*
X493046Y375878D01*
X492744Y378168D01*
X491861Y380301D01*
X490455Y382133D01*
X488623Y383539D01*
X486490Y384423D01*
X484200Y384724D01*
D02*
G37*
G36*
X458800D02*
X456511Y384423D01*
X454377Y383539D01*
X452545Y382133D01*
X451140Y380301D01*
X450256Y378168D01*
X449954Y375878D01*
X450256Y373589D01*
X451140Y371455D01*
X452545Y369623D01*
X454377Y368218D01*
X456511Y367334D01*
X458800Y367033D01*
X461090Y367334D01*
X463223Y368218D01*
X465055Y369623D01*
X466461Y371455D01*
X467345Y373589D01*
X467646Y375878D01*
X467345Y378168D01*
X466461Y380301D01*
X465055Y382133D01*
X463223Y383539D01*
X461090Y384423D01*
X458800Y384724D01*
D02*
G37*
G36*
X433400D02*
X431111Y384423D01*
X428977Y383539D01*
X427145Y382133D01*
X425740Y380301D01*
X424856Y378168D01*
X424554Y375878D01*
X424856Y373589D01*
X425740Y371455D01*
X427145Y369623D01*
X428977Y368218D01*
X431111Y367334D01*
X433400Y367033D01*
X435690Y367334D01*
X437823Y368218D01*
X439655Y369623D01*
X441061Y371455D01*
X441945Y373589D01*
X442246Y375878D01*
X441945Y378168D01*
X441061Y380301D01*
X439655Y382133D01*
X437823Y383539D01*
X435690Y384423D01*
X433400Y384724D01*
D02*
G37*
G36*
X408000D02*
X405711Y384423D01*
X403577Y383539D01*
X401745Y382133D01*
X400340Y380301D01*
X399456Y378168D01*
X399155Y375878D01*
X399456Y373589D01*
X400340Y371455D01*
X401745Y369623D01*
X403577Y368218D01*
X405711Y367334D01*
X408000Y367033D01*
X410290Y367334D01*
X412423Y368218D01*
X414255Y369623D01*
X415661Y371455D01*
X416544Y373589D01*
X416846Y375878D01*
X416544Y378168D01*
X415661Y380301D01*
X414255Y382133D01*
X412423Y383539D01*
X410290Y384423D01*
X408000Y384724D01*
D02*
G37*
G36*
X382600D02*
X380311Y384423D01*
X378177Y383539D01*
X376345Y382133D01*
X374940Y380301D01*
X374056Y378168D01*
X373755Y375878D01*
X374056Y373589D01*
X374940Y371455D01*
X376345Y369623D01*
X378177Y368218D01*
X380311Y367334D01*
X382600Y367033D01*
X384890Y367334D01*
X387023Y368218D01*
X388855Y369623D01*
X390261Y371455D01*
X391144Y373589D01*
X391446Y375878D01*
X391144Y378168D01*
X390261Y380301D01*
X388855Y382133D01*
X387023Y383539D01*
X384890Y384423D01*
X382600Y384724D01*
D02*
G37*
G36*
X357200D02*
X354911Y384423D01*
X352777Y383539D01*
X350945Y382133D01*
X349540Y380301D01*
X348656Y378168D01*
X348354Y375878D01*
X348656Y373589D01*
X349540Y371455D01*
X350945Y369623D01*
X352777Y368218D01*
X354911Y367334D01*
X357200Y367033D01*
X359490Y367334D01*
X361623Y368218D01*
X363455Y369623D01*
X364861Y371455D01*
X365745Y373589D01*
X366046Y375878D01*
X365745Y378168D01*
X364861Y380301D01*
X363455Y382133D01*
X361623Y383539D01*
X359490Y384423D01*
X357200Y384724D01*
D02*
G37*
G36*
X331800D02*
X329511Y384423D01*
X327377Y383539D01*
X325545Y382133D01*
X324140Y380301D01*
X323256Y378168D01*
X322954Y375878D01*
X323256Y373589D01*
X324140Y371455D01*
X325545Y369623D01*
X327377Y368218D01*
X329511Y367334D01*
X331800Y367033D01*
X334090Y367334D01*
X336223Y368218D01*
X338055Y369623D01*
X339461Y371455D01*
X340345Y373589D01*
X340646Y375878D01*
X340345Y378168D01*
X339461Y380301D01*
X338055Y382133D01*
X336223Y383539D01*
X334090Y384423D01*
X331800Y384724D01*
D02*
G37*
G36*
X1133000Y384496D02*
X1130711Y384194D01*
X1128577Y383311D01*
X1126745Y381905D01*
X1125340Y380073D01*
X1124456Y377940D01*
X1124154Y375650D01*
X1124456Y373361D01*
X1125340Y371227D01*
X1126745Y369395D01*
X1128577Y367990D01*
X1130711Y367106D01*
X1133000Y366805D01*
X1135289Y367106D01*
X1137423Y367990D01*
X1139255Y369395D01*
X1140661Y371227D01*
X1141544Y373361D01*
X1141846Y375650D01*
X1141544Y377940D01*
X1140661Y380073D01*
X1139255Y381905D01*
X1137423Y383311D01*
X1135289Y384194D01*
X1133000Y384496D01*
D02*
G37*
G36*
X1107600D02*
X1105311Y384194D01*
X1103177Y383311D01*
X1101345Y381905D01*
X1099939Y380073D01*
X1099056Y377940D01*
X1098754Y375650D01*
X1099056Y373361D01*
X1099939Y371227D01*
X1101345Y369395D01*
X1103177Y367990D01*
X1105311Y367106D01*
X1107600Y366805D01*
X1109889Y367106D01*
X1112023Y367990D01*
X1113855Y369395D01*
X1115261Y371227D01*
X1116144Y373361D01*
X1116446Y375650D01*
X1116144Y377940D01*
X1115261Y380073D01*
X1113855Y381905D01*
X1112023Y383311D01*
X1109889Y384194D01*
X1107600Y384496D01*
D02*
G37*
G36*
X1076810Y374144D02*
X1075224Y373828D01*
X1073880Y372930D01*
X1072982Y371586D01*
X1072666Y370000D01*
X1072982Y368414D01*
X1073880Y367070D01*
X1075224Y366172D01*
X1076810Y365856D01*
X1078396Y366172D01*
X1079740Y367070D01*
X1080638Y368414D01*
X1080954Y370000D01*
X1080638Y371586D01*
X1079740Y372930D01*
X1078396Y373828D01*
X1076810Y374144D01*
D02*
G37*
G36*
X684450Y376375D02*
X675927D01*
X674955Y375972D01*
X674553Y375000D01*
Y366485D01*
X674955Y365513D01*
X675927Y365110D01*
X684450D01*
X685422Y365513D01*
X685825Y366485D01*
Y375000D01*
X685422Y375972D01*
X684450Y376375D01*
D02*
G37*
G36*
X619100Y371144D02*
X617514Y370828D01*
X616170Y369930D01*
X615272Y368586D01*
X614956Y367000D01*
X615272Y365414D01*
X616170Y364070D01*
X617514Y363172D01*
X619100Y362856D01*
X620686Y363172D01*
X622030Y364070D01*
X622928Y365414D01*
X623244Y367000D01*
X622928Y368586D01*
X622030Y369930D01*
X620686Y370828D01*
X619100Y371144D01*
D02*
G37*
G36*
X472500Y361644D02*
X470914Y361328D01*
X469570Y360430D01*
X468672Y359086D01*
X468356Y357500D01*
X468672Y355914D01*
X469570Y354570D01*
X470914Y353672D01*
X472500Y353356D01*
X474086Y353672D01*
X475430Y354570D01*
X476328Y355914D01*
X476644Y357500D01*
X476328Y359086D01*
X475430Y360430D01*
X474086Y361328D01*
X472500Y361644D01*
D02*
G37*
G36*
X1221000Y361096D02*
X1218711Y360794D01*
X1216577Y359911D01*
X1214745Y358505D01*
X1213339Y356673D01*
X1212456Y354539D01*
X1212154Y352250D01*
X1212384Y350507D01*
X1211193Y349819D01*
X1210423Y350411D01*
X1208289Y351294D01*
X1206000Y351596D01*
X1203711Y351294D01*
X1201577Y350411D01*
X1199745Y349005D01*
X1198339Y347173D01*
X1197456Y345039D01*
X1197154Y342750D01*
X1197456Y340461D01*
X1198339Y338327D01*
X1199745Y336495D01*
X1201577Y335089D01*
X1203711Y334206D01*
X1206000Y333904D01*
X1208289Y334206D01*
X1210423Y335089D01*
X1212255Y336495D01*
X1213661Y338327D01*
X1214544Y340461D01*
X1214846Y342750D01*
X1214616Y344493D01*
X1215807Y345181D01*
X1216577Y344589D01*
X1218711Y343706D01*
X1221000Y343404D01*
X1223289Y343706D01*
X1225423Y344589D01*
X1227255Y345995D01*
X1228661Y347827D01*
X1229544Y349961D01*
X1229846Y352250D01*
X1229544Y354539D01*
X1228661Y356673D01*
X1227255Y358505D01*
X1225423Y359911D01*
X1223289Y360794D01*
X1221000Y361096D01*
D02*
G37*
G36*
X668495Y364329D02*
X666910Y364014D01*
X665565Y363116D01*
X664667Y361771D01*
X664352Y360186D01*
X664667Y358600D01*
X665565Y357256D01*
X666910Y356357D01*
X667501Y356240D01*
Y354945D01*
X666915Y354828D01*
X665571Y353930D01*
X664673Y352586D01*
X664357Y351000D01*
X664673Y349414D01*
X665571Y348070D01*
X666915Y347172D01*
X668501Y346857D01*
X670087Y347172D01*
X671431Y348070D01*
X672329Y349414D01*
X672645Y351000D01*
X672329Y352586D01*
X671431Y353930D01*
X670087Y354828D01*
X669495Y354946D01*
Y356241D01*
X670081Y356357D01*
X671425Y357256D01*
X672324Y358600D01*
X672639Y360186D01*
X672324Y361771D01*
X671425Y363116D01*
X670081Y364014D01*
X668495Y364329D01*
D02*
G37*
G36*
X904600Y359737D02*
X902311Y359436D01*
X900177Y358552D01*
X898345Y357146D01*
X896940Y355314D01*
X896056Y353181D01*
X895754Y350891D01*
X896056Y348602D01*
X896450Y347651D01*
X895536Y346538D01*
X895000Y346644D01*
X893414Y346329D01*
X892070Y345431D01*
X891172Y344086D01*
X890856Y342501D01*
X891172Y340915D01*
X892070Y339571D01*
X893414Y338673D01*
X895000Y338357D01*
X896586Y338673D01*
X897930Y339571D01*
X898828Y340915D01*
X899144Y342501D01*
X899725Y342911D01*
X900304Y343178D01*
X902311Y342347D01*
X904600Y342046D01*
X906890Y342347D01*
X909023Y343231D01*
X910855Y344636D01*
X912261Y346469D01*
X913144Y348602D01*
X913446Y350891D01*
X913144Y353181D01*
X912261Y355314D01*
X910855Y357146D01*
X909023Y358552D01*
X906890Y359436D01*
X904600Y359737D01*
D02*
G37*
G36*
X1037770Y359770D02*
X1020230D01*
Y342230D01*
X1037770D01*
Y359770D01*
D02*
G37*
G36*
X1054400Y359846D02*
X1052111Y359544D01*
X1049977Y358661D01*
X1048145Y357255D01*
X1046740Y355423D01*
X1045856Y353289D01*
X1045555Y351000D01*
X1045856Y348711D01*
X1046740Y346577D01*
X1048145Y344745D01*
X1049977Y343340D01*
X1052111Y342456D01*
X1054400Y342154D01*
X1056690Y342456D01*
X1058823Y343340D01*
X1060655Y344745D01*
X1062061Y346577D01*
X1062944Y348711D01*
X1063246Y351000D01*
X1062944Y353289D01*
X1062061Y355423D01*
X1060655Y357255D01*
X1058823Y358661D01*
X1056690Y359544D01*
X1054400Y359846D01*
D02*
G37*
G36*
X760970Y359661D02*
X743430D01*
Y342121D01*
X760970D01*
Y359661D01*
D02*
G37*
G36*
X203370D02*
X185830D01*
Y342121D01*
X203370D01*
Y359661D01*
D02*
G37*
G36*
X955400Y359737D02*
X953111Y359436D01*
X950977Y358552D01*
X949145Y357146D01*
X947740Y355314D01*
X946856Y353181D01*
X946554Y350891D01*
X946856Y348602D01*
X947740Y346469D01*
X949145Y344636D01*
X950977Y343231D01*
X953111Y342347D01*
X955400Y342046D01*
X957690Y342347D01*
X959823Y343231D01*
X961655Y344636D01*
X963061Y346469D01*
X963944Y348602D01*
X964246Y350891D01*
X963944Y353181D01*
X963061Y355314D01*
X961655Y357146D01*
X959823Y358552D01*
X957690Y359436D01*
X955400Y359737D01*
D02*
G37*
G36*
X930000D02*
X927711Y359436D01*
X925577Y358552D01*
X923745Y357146D01*
X922340Y355314D01*
X921456Y353181D01*
X921154Y350891D01*
X921456Y348602D01*
X922340Y346469D01*
X923745Y344636D01*
X925577Y343231D01*
X927711Y342347D01*
X930000Y342046D01*
X932290Y342347D01*
X934423Y343231D01*
X936255Y344636D01*
X937661Y346469D01*
X938544Y348602D01*
X938846Y350891D01*
X938544Y353181D01*
X937661Y355314D01*
X936255Y357146D01*
X934423Y358552D01*
X932290Y359436D01*
X930000Y359737D01*
D02*
G37*
G36*
X879200D02*
X876911Y359436D01*
X874777Y358552D01*
X872945Y357146D01*
X871540Y355314D01*
X870656Y353181D01*
X870355Y350891D01*
X870656Y348602D01*
X871540Y346469D01*
X872945Y344636D01*
X874777Y343231D01*
X876911Y342347D01*
X879200Y342046D01*
X881490Y342347D01*
X883623Y343231D01*
X885455Y344636D01*
X886861Y346469D01*
X887744Y348602D01*
X888046Y350891D01*
X887744Y353181D01*
X886861Y355314D01*
X885455Y357146D01*
X883623Y358552D01*
X881490Y359436D01*
X879200Y359737D01*
D02*
G37*
G36*
X853800D02*
X851511Y359436D01*
X849377Y358552D01*
X847545Y357146D01*
X846140Y355314D01*
X845256Y353181D01*
X844955Y350891D01*
X845256Y348602D01*
X846140Y346469D01*
X847545Y344636D01*
X849377Y343231D01*
X851511Y342347D01*
X853800Y342046D01*
X856090Y342347D01*
X858223Y343231D01*
X860055Y344636D01*
X861461Y346469D01*
X862344Y348602D01*
X862646Y350891D01*
X862344Y353181D01*
X861461Y355314D01*
X860055Y357146D01*
X858223Y358552D01*
X856090Y359436D01*
X853800Y359737D01*
D02*
G37*
G36*
X828400D02*
X826111Y359436D01*
X823977Y358552D01*
X822145Y357146D01*
X820740Y355314D01*
X819856Y353181D01*
X819555Y350891D01*
X819856Y348602D01*
X820740Y346469D01*
X822145Y344636D01*
X823977Y343231D01*
X826111Y342347D01*
X828400Y342046D01*
X830690Y342347D01*
X832823Y343231D01*
X834655Y344636D01*
X836061Y346469D01*
X836944Y348602D01*
X837246Y350891D01*
X836944Y353181D01*
X836061Y355314D01*
X834655Y357146D01*
X832823Y358552D01*
X830690Y359436D01*
X828400Y359737D01*
D02*
G37*
G36*
X803000D02*
X800711Y359436D01*
X798577Y358552D01*
X796745Y357146D01*
X795340Y355314D01*
X794456Y353181D01*
X794155Y350891D01*
X794456Y348602D01*
X795340Y346469D01*
X796745Y344636D01*
X798577Y343231D01*
X800711Y342347D01*
X803000Y342046D01*
X805290Y342347D01*
X807423Y343231D01*
X809255Y344636D01*
X810661Y346469D01*
X811544Y348602D01*
X811846Y350891D01*
X811544Y353181D01*
X810661Y355314D01*
X809255Y357146D01*
X807423Y358552D01*
X805290Y359436D01*
X803000Y359737D01*
D02*
G37*
G36*
X777600D02*
X775311Y359436D01*
X773177Y358552D01*
X771345Y357146D01*
X769940Y355314D01*
X769056Y353181D01*
X768755Y350891D01*
X769056Y348602D01*
X769940Y346469D01*
X771345Y344636D01*
X773177Y343231D01*
X775311Y342347D01*
X777600Y342046D01*
X779890Y342347D01*
X782023Y343231D01*
X783855Y344636D01*
X785261Y346469D01*
X786144Y348602D01*
X786446Y350891D01*
X786144Y353181D01*
X785261Y355314D01*
X783855Y357146D01*
X782023Y358552D01*
X779890Y359436D01*
X777600Y359737D01*
D02*
G37*
G36*
X245400D02*
X243111Y359436D01*
X240977Y358552D01*
X239145Y357146D01*
X237740Y355314D01*
X236856Y353181D01*
X236554Y350891D01*
X236856Y348602D01*
X237740Y346469D01*
X239145Y344636D01*
X240977Y343231D01*
X243111Y342347D01*
X245400Y342046D01*
X247689Y342347D01*
X249823Y343231D01*
X251655Y344636D01*
X253061Y346469D01*
X253944Y348602D01*
X254246Y350891D01*
X253944Y353181D01*
X253061Y355314D01*
X251655Y357146D01*
X249823Y358552D01*
X247689Y359436D01*
X245400Y359737D01*
D02*
G37*
G36*
X220000D02*
X217711Y359436D01*
X215577Y358552D01*
X213745Y357146D01*
X212339Y355314D01*
X211456Y353181D01*
X211154Y350891D01*
X211456Y348602D01*
X212339Y346469D01*
X213745Y344636D01*
X215577Y343231D01*
X217711Y342347D01*
X220000Y342046D01*
X222290Y342347D01*
X224423Y343231D01*
X226255Y344636D01*
X227661Y346469D01*
X228544Y348602D01*
X228846Y350891D01*
X228544Y353181D01*
X227661Y355314D01*
X226255Y357146D01*
X224423Y358552D01*
X222290Y359436D01*
X220000Y359737D01*
D02*
G37*
G36*
X622000Y351635D02*
X620414Y351320D01*
X619070Y350421D01*
X618172Y349077D01*
X617856Y347491D01*
X618172Y345906D01*
X619070Y344561D01*
X620414Y343663D01*
X622000Y343348D01*
X623586Y343663D01*
X624930Y344561D01*
X625121Y344539D01*
X626265Y344274D01*
X627070Y343070D01*
X628414Y342172D01*
X630000Y341856D01*
X631586Y342172D01*
X632930Y343070D01*
X633828Y344414D01*
X634144Y346000D01*
X633828Y347586D01*
X632930Y348930D01*
X631586Y349828D01*
X630000Y350144D01*
X628414Y349828D01*
X627070Y348930D01*
X626879Y348953D01*
X625735Y349217D01*
X624930Y350421D01*
X623586Y351320D01*
X622000Y351635D01*
D02*
G37*
G36*
X1116370Y359020D02*
X1098830D01*
Y341480D01*
X1116370D01*
Y359020D01*
D02*
G37*
G36*
X1158400Y359096D02*
X1156111Y358795D01*
X1153977Y357911D01*
X1152145Y356505D01*
X1150740Y354673D01*
X1149856Y352540D01*
X1149554Y350250D01*
X1149856Y347961D01*
X1150740Y345827D01*
X1152145Y343995D01*
X1153977Y342590D01*
X1156111Y341706D01*
X1158400Y341405D01*
X1160689Y341706D01*
X1162823Y342590D01*
X1164655Y343995D01*
X1166061Y345827D01*
X1166944Y347961D01*
X1167246Y350250D01*
X1166944Y352540D01*
X1166061Y354673D01*
X1164655Y356505D01*
X1162823Y357911D01*
X1160689Y358795D01*
X1158400Y359096D01*
D02*
G37*
G36*
X1124000Y364144D02*
X1122414Y363828D01*
X1121070Y362930D01*
X1120172Y361586D01*
X1119856Y360000D01*
X1120172Y358414D01*
X1121070Y357070D01*
X1122414Y356172D01*
X1124000Y355856D01*
X1124763Y356008D01*
X1125480Y354856D01*
X1125340Y354673D01*
X1124456Y352540D01*
X1124154Y350250D01*
X1124456Y347961D01*
X1125340Y345827D01*
X1126745Y343995D01*
X1128577Y342590D01*
X1130711Y341706D01*
X1133000Y341405D01*
X1135289Y341706D01*
X1137423Y342590D01*
X1139255Y343995D01*
X1140661Y345827D01*
X1141544Y347961D01*
X1141846Y350250D01*
X1141544Y352540D01*
X1140661Y354673D01*
X1139255Y356505D01*
X1137423Y357911D01*
X1135289Y358795D01*
X1133000Y359096D01*
X1130711Y358795D01*
X1129028Y358097D01*
X1127977Y358887D01*
X1127935Y358954D01*
X1128144Y360000D01*
X1127828Y361586D01*
X1126930Y362930D01*
X1125586Y363828D01*
X1124000Y364144D01*
D02*
G37*
G36*
X641000Y349288D02*
X639414Y348972D01*
X638070Y348074D01*
X637172Y346730D01*
X636856Y345144D01*
X637172Y343558D01*
X638070Y342214D01*
X639414Y341316D01*
X641000Y341000D01*
X642585Y341316D01*
X643930Y342214D01*
X644828Y343558D01*
X645143Y345144D01*
X644828Y346730D01*
X643930Y348074D01*
X642585Y348972D01*
X641000Y349288D01*
D02*
G37*
G36*
X1105000Y340144D02*
X1103414Y339828D01*
X1102070Y338930D01*
X1101172Y337586D01*
X1100956Y336501D01*
X1100517Y336244D01*
X1099671Y335992D01*
X1099658Y335992D01*
X1098514Y336756D01*
X1096928Y337072D01*
X1095342Y336756D01*
X1093998Y335858D01*
X1093100Y334514D01*
X1092785Y332928D01*
X1093100Y331342D01*
X1093998Y329998D01*
X1095342Y329100D01*
X1096928Y328784D01*
X1098514Y329100D01*
X1099858Y329998D01*
X1100756Y331342D01*
X1100972Y332427D01*
X1101411Y332684D01*
X1102257Y332936D01*
X1102270Y332937D01*
X1103414Y332172D01*
X1105000Y331856D01*
X1106586Y332172D01*
X1107930Y333070D01*
X1108828Y334414D01*
X1109144Y336000D01*
X1108828Y337586D01*
X1107930Y338930D01*
X1106586Y339828D01*
X1105000Y340144D01*
D02*
G37*
G36*
X980800Y359737D02*
X978511Y359436D01*
X976377Y358552D01*
X974545Y357146D01*
X973140Y355314D01*
X972256Y353181D01*
X971954Y350891D01*
X972256Y348602D01*
X973140Y346469D01*
X974545Y344636D01*
X976377Y343231D01*
X978511Y342347D01*
X980800Y342046D01*
X982821Y342312D01*
X983324Y341921D01*
X983422Y341815D01*
X983772Y341255D01*
X983511Y339945D01*
X983827Y338359D01*
X984725Y337015D01*
X986069Y336117D01*
X987655Y335801D01*
X989241Y336117D01*
X990585Y337015D01*
X991483Y338359D01*
X991799Y339945D01*
X991483Y341531D01*
X990585Y342875D01*
X989241Y343773D01*
X988158Y343988D01*
X987575Y345177D01*
X987566Y345303D01*
X988461Y346469D01*
X989344Y348602D01*
X989646Y350891D01*
X989344Y353181D01*
X988461Y355314D01*
X987055Y357146D01*
X985223Y358552D01*
X983090Y359436D01*
X980800Y359737D01*
D02*
G37*
G36*
X59000Y361096D02*
X56711Y360794D01*
X54577Y359911D01*
X52745Y358505D01*
X51339Y356673D01*
X50456Y354539D01*
X50154Y352250D01*
X50456Y349961D01*
X51339Y347827D01*
X52745Y345995D01*
X54577Y344589D01*
X56711Y343706D01*
X59000Y343404D01*
X61289Y343706D01*
X63423Y344589D01*
X64193Y345181D01*
X65384Y344493D01*
X65154Y342750D01*
X65456Y340461D01*
X66339Y338327D01*
X67745Y336495D01*
X69577Y335089D01*
X71711Y334206D01*
X74000Y333904D01*
X76289Y334206D01*
X78423Y335089D01*
X80255Y336495D01*
X81661Y338327D01*
X82544Y340461D01*
X82846Y342750D01*
X82544Y345039D01*
X81661Y347173D01*
X80255Y349005D01*
X78423Y350411D01*
X76289Y351294D01*
X74000Y351596D01*
X71711Y351294D01*
X69577Y350411D01*
X68807Y349819D01*
X67616Y350507D01*
X67846Y352250D01*
X67544Y354539D01*
X66661Y356673D01*
X65255Y358505D01*
X63423Y359911D01*
X61289Y360794D01*
X59000Y361096D01*
D02*
G37*
G36*
X927000Y334344D02*
X925415Y334029D01*
X924070Y333131D01*
X923172Y331786D01*
X922857Y330201D01*
X923172Y328615D01*
X922079Y328095D01*
X921522Y328930D01*
X920177Y329828D01*
X918592Y330144D01*
X917006Y329828D01*
X915661Y328930D01*
X914763Y327586D01*
X914448Y326000D01*
X914763Y324414D01*
X915661Y323070D01*
X917006Y322172D01*
X918592Y321856D01*
X920177Y322172D01*
X921522Y323070D01*
X922420Y324414D01*
X922735Y326000D01*
X922420Y327586D01*
X923513Y328106D01*
X924070Y327271D01*
X925415Y326372D01*
X927000Y326057D01*
X928586Y326372D01*
X929930Y327271D01*
X930829Y328615D01*
X931144Y330201D01*
X930829Y331786D01*
X929930Y333131D01*
X928586Y334029D01*
X927000Y334344D01*
D02*
G37*
G36*
X1125000Y330144D02*
X1123414Y329828D01*
X1122070Y328930D01*
X1121172Y327586D01*
X1120856Y326000D01*
X1121172Y324414D01*
X1122070Y323070D01*
X1123414Y322172D01*
X1125000Y321856D01*
X1126586Y322172D01*
X1127930Y323070D01*
X1128828Y324414D01*
X1129144Y326000D01*
X1128828Y327586D01*
X1127930Y328930D01*
X1126586Y329828D01*
X1125000Y330144D01*
D02*
G37*
G36*
X803000Y326592D02*
X801414Y326277D01*
X800070Y325379D01*
X799172Y324034D01*
X798857Y322449D01*
X799172Y320863D01*
X800070Y319519D01*
X801414Y318620D01*
X803000Y318305D01*
X804586Y318620D01*
X805930Y319519D01*
X806828Y320863D01*
X807144Y322449D01*
X806828Y324034D01*
X805930Y325379D01*
X804586Y326277D01*
X803000Y326592D01*
D02*
G37*
G36*
X858000Y324144D02*
X856414Y323828D01*
X855070Y322930D01*
X854172Y321586D01*
X853856Y320000D01*
X854032Y319118D01*
X853021Y318024D01*
X852421Y318144D01*
X850835Y317828D01*
X849491Y316930D01*
X848592Y315586D01*
X848277Y314000D01*
X848592Y312414D01*
X849491Y311070D01*
X849475Y310809D01*
X849239Y309711D01*
X848070Y308930D01*
X847172Y307586D01*
X846856Y306000D01*
X847172Y304414D01*
X848070Y303070D01*
X849414Y302172D01*
X851000Y301856D01*
X852586Y302172D01*
X853930Y303070D01*
X854828Y304414D01*
X855144Y306000D01*
X854828Y307586D01*
X853930Y308930D01*
X853946Y309191D01*
X854182Y310289D01*
X855351Y311070D01*
X856249Y312414D01*
X856564Y314000D01*
X856389Y314882D01*
X857399Y315976D01*
X858000Y315856D01*
X859586Y316172D01*
X860930Y317070D01*
X861828Y318414D01*
X862144Y320000D01*
X861828Y321586D01*
X860930Y322930D01*
X859586Y323828D01*
X858000Y324144D01*
D02*
G37*
G36*
X1012000Y323144D02*
X1010414Y322828D01*
X1009070Y321930D01*
X1008172Y320586D01*
X1007856Y319000D01*
X1008172Y317414D01*
X1009070Y316070D01*
X1010414Y315172D01*
X1012000Y314856D01*
X1013586Y315172D01*
X1014930Y316070D01*
X1015828Y317414D01*
X1016144Y319000D01*
X1015828Y320586D01*
X1014930Y321930D01*
X1013586Y322828D01*
X1012000Y323144D01*
D02*
G37*
G36*
X616000Y326592D02*
X614414Y326277D01*
X613070Y325379D01*
X612172Y324034D01*
X611856Y322449D01*
X612172Y320863D01*
X613070Y319519D01*
X614414Y318620D01*
X616000Y318305D01*
X617586Y318620D01*
X618720Y319378D01*
X619515Y319049D01*
X619890Y318749D01*
X619856Y318580D01*
X620172Y316995D01*
X621070Y315650D01*
X622414Y314752D01*
X624000Y314437D01*
X625586Y314752D01*
X626930Y315650D01*
X627828Y316995D01*
X628144Y318580D01*
X627828Y320166D01*
X626930Y321510D01*
X625586Y322409D01*
X624000Y322724D01*
X622414Y322409D01*
X621280Y321651D01*
X620485Y321979D01*
X620110Y322280D01*
X620144Y322449D01*
X619828Y324034D01*
X618930Y325379D01*
X617586Y326277D01*
X616000Y326592D01*
D02*
G37*
G36*
X782144Y321288D02*
X780558Y320972D01*
X779214Y320074D01*
X778316Y318730D01*
X778000Y317144D01*
X778316Y315558D01*
X779214Y314214D01*
X780558Y313316D01*
X782144Y313000D01*
X783730Y313316D01*
X785074Y314214D01*
X785972Y315558D01*
X786288Y317144D01*
X785972Y318730D01*
X785074Y320074D01*
X783730Y320972D01*
X782144Y321288D01*
D02*
G37*
G36*
X1034000Y321144D02*
X1032414Y320828D01*
X1031070Y319930D01*
X1030172Y318586D01*
X1029856Y317000D01*
X1030172Y315414D01*
X1031070Y314070D01*
X1032414Y313172D01*
X1034000Y312856D01*
X1035586Y313172D01*
X1036930Y314070D01*
X1037828Y315414D01*
X1038144Y317000D01*
X1037828Y318586D01*
X1036930Y319930D01*
X1035586Y320828D01*
X1034000Y321144D01*
D02*
G37*
G36*
X773000Y317381D02*
X771414Y317065D01*
X770070Y316167D01*
X769172Y314823D01*
X768856Y313237D01*
X769172Y311651D01*
X770070Y310307D01*
X771414Y309409D01*
X773000Y309093D01*
X774586Y309409D01*
X775930Y310307D01*
X776828Y311651D01*
X777144Y313237D01*
X776828Y314823D01*
X775930Y316167D01*
X774586Y317065D01*
X773000Y317381D01*
D02*
G37*
G36*
X632000D02*
X630414Y317065D01*
X629070Y316167D01*
X628172Y314823D01*
X627856Y313237D01*
X628172Y311651D01*
X629070Y310307D01*
X630414Y309409D01*
X632000Y309093D01*
X633586Y309409D01*
X634930Y310307D01*
X635828Y311651D01*
X636144Y313237D01*
X635828Y314823D01*
X634930Y316167D01*
X633586Y317065D01*
X632000Y317381D01*
D02*
G37*
G36*
X986000Y317144D02*
X984414Y316828D01*
X983070Y315930D01*
X982172Y314586D01*
X981856Y313000D01*
X982172Y311414D01*
X983070Y310070D01*
X984414Y309172D01*
X986000Y308856D01*
X987586Y309172D01*
X988930Y310070D01*
X989828Y311414D01*
X990144Y313000D01*
X989828Y314586D01*
X988930Y315930D01*
X987586Y316828D01*
X986000Y317144D01*
D02*
G37*
G36*
X1045000Y315144D02*
X1043414Y314828D01*
X1042070Y313930D01*
X1041172Y312586D01*
X1040856Y311000D01*
X1041172Y309414D01*
X1042070Y308070D01*
X1043414Y307172D01*
X1045000Y306856D01*
X1046586Y307172D01*
X1047930Y308070D01*
X1048828Y309414D01*
X1049144Y311000D01*
X1048828Y312586D01*
X1047930Y313930D01*
X1046586Y314828D01*
X1045000Y315144D01*
D02*
G37*
G36*
X1094000Y315143D02*
X1092414Y314828D01*
X1091070Y313930D01*
X1090172Y312586D01*
X1089857Y311000D01*
X1090172Y309414D01*
X1091070Y308070D01*
X1092414Y307171D01*
X1094000Y306856D01*
X1095586Y307171D01*
X1096930Y308070D01*
X1097828Y309414D01*
X1098144Y311000D01*
X1097828Y312586D01*
X1096930Y313930D01*
X1095586Y314828D01*
X1094000Y315143D01*
D02*
G37*
G36*
X998000Y314144D02*
X996414Y313828D01*
X995070Y312930D01*
X994172Y311586D01*
X993856Y310000D01*
X994172Y308414D01*
X995070Y307070D01*
X996414Y306172D01*
X998000Y305856D01*
X999586Y306172D01*
X1000930Y307070D01*
X1001828Y308414D01*
X1002144Y310000D01*
X1001828Y311586D01*
X1000930Y312930D01*
X999586Y313828D01*
X998000Y314144D01*
D02*
G37*
G36*
X173750Y312894D02*
X172164Y312578D01*
X170820Y311680D01*
X169922Y310336D01*
X169606Y308750D01*
X169922Y307164D01*
X170820Y305820D01*
X172164Y304922D01*
X173750Y304606D01*
X175336Y304922D01*
X176680Y305820D01*
X177578Y307164D01*
X177894Y308750D01*
X177578Y310336D01*
X176680Y311680D01*
X175336Y312578D01*
X173750Y312894D01*
D02*
G37*
G36*
X1197000Y312893D02*
X1195414Y312578D01*
X1194070Y311680D01*
X1193172Y310335D01*
X1192856Y308750D01*
X1193172Y307164D01*
X1194070Y305820D01*
X1195414Y304921D01*
X1197000Y304606D01*
X1198586Y304921D01*
X1199930Y305820D01*
X1200828Y307164D01*
X1201144Y308750D01*
X1200828Y310335D01*
X1199930Y311680D01*
X1198586Y312578D01*
X1197000Y312893D01*
D02*
G37*
G36*
X875000D02*
X873414Y312578D01*
X872070Y311680D01*
X871172Y310335D01*
X870856Y308750D01*
X871172Y307164D01*
X872070Y305820D01*
X873414Y304921D01*
X875000Y304606D01*
X876586Y304921D01*
X877930Y305820D01*
X878828Y307164D01*
X879144Y308750D01*
X878828Y310335D01*
X877930Y311680D01*
X876586Y312578D01*
X875000Y312893D01*
D02*
G37*
G36*
X704331Y312144D02*
X702745Y311828D01*
X701401Y310930D01*
X700502Y309586D01*
X700187Y308000D01*
X700502Y306414D01*
X701401Y305070D01*
X702745Y304172D01*
X704331Y303856D01*
X705916Y304172D01*
X707261Y305070D01*
X708159Y306414D01*
X708474Y308000D01*
X708159Y309586D01*
X707261Y310930D01*
X705916Y311828D01*
X704331Y312144D01*
D02*
G37*
G36*
X1054000Y311144D02*
X1052414Y310828D01*
X1051070Y309930D01*
X1050172Y308586D01*
X1049856Y307000D01*
X1050172Y305414D01*
X1051070Y304070D01*
X1052414Y303172D01*
X1054000Y302856D01*
X1055586Y303172D01*
X1056930Y304070D01*
X1057828Y305414D01*
X1058144Y307000D01*
X1057828Y308586D01*
X1056930Y309930D01*
X1055586Y310828D01*
X1054000Y311144D01*
D02*
G37*
G36*
X328000Y309144D02*
X326414Y308828D01*
X325070Y307930D01*
X324172Y306586D01*
X323856Y305000D01*
X324172Y303414D01*
X325070Y302070D01*
X326414Y301172D01*
X328000Y300856D01*
X329586Y301172D01*
X330930Y302070D01*
X331828Y303414D01*
X332144Y305000D01*
X331828Y306586D01*
X330930Y307930D01*
X329586Y308828D01*
X328000Y309144D01*
D02*
G37*
G36*
X381000Y314954D02*
X379414Y314638D01*
X378070Y313740D01*
X377172Y312396D01*
X376856Y310810D01*
X377172Y309224D01*
X378070Y307880D01*
X379414Y306982D01*
X381000Y306666D01*
X381423Y306750D01*
X382186Y305607D01*
X382172Y305586D01*
X381856Y304000D01*
X382172Y302414D01*
X383070Y301070D01*
X384414Y300172D01*
X386000Y299856D01*
X387586Y300172D01*
X388930Y301070D01*
X389828Y302414D01*
X390144Y304000D01*
X389828Y305586D01*
X388930Y306930D01*
X387586Y307828D01*
X386000Y308144D01*
X385577Y308060D01*
X384814Y309203D01*
X384828Y309224D01*
X385144Y310810D01*
X384828Y312396D01*
X383930Y313740D01*
X382586Y314638D01*
X381000Y314954D01*
D02*
G37*
G36*
X365000Y308144D02*
X363414Y307828D01*
X362070Y306930D01*
X361172Y305586D01*
X360856Y304000D01*
X361172Y302414D01*
X362070Y301070D01*
X363414Y300172D01*
X365000Y299856D01*
X366586Y300172D01*
X367930Y301070D01*
X368828Y302414D01*
X369144Y304000D01*
X368828Y305586D01*
X367930Y306930D01*
X366586Y307828D01*
X365000Y308144D01*
D02*
G37*
G36*
X270000Y308086D02*
X268414Y307770D01*
X267070Y306872D01*
X266172Y305528D01*
X265856Y303942D01*
X266172Y302356D01*
X267070Y301012D01*
X268414Y300114D01*
X270000Y299799D01*
X271586Y300114D01*
X272930Y301012D01*
X273828Y302356D01*
X274144Y303942D01*
X273828Y305528D01*
X272930Y306872D01*
X271586Y307770D01*
X270000Y308086D01*
D02*
G37*
G36*
X926000Y306144D02*
X924414Y305828D01*
X923070Y304930D01*
X922172Y303586D01*
X921856Y302000D01*
X922172Y300414D01*
X923070Y299070D01*
X924414Y298172D01*
X926000Y297856D01*
X927586Y298172D01*
X928930Y299070D01*
X929828Y300414D01*
X930144Y302000D01*
X929828Y303586D01*
X928930Y304930D01*
X927586Y305828D01*
X926000Y306144D01*
D02*
G37*
G36*
X447999Y299143D02*
X446413Y298828D01*
X445069Y297929D01*
X444171Y296585D01*
X443856Y294999D01*
X444171Y293414D01*
X445069Y292069D01*
X446413Y291171D01*
X447999Y290856D01*
X449585Y291171D01*
X450929Y292069D01*
X451827Y293414D01*
X452143Y294999D01*
X451827Y296585D01*
X450929Y297929D01*
X449585Y298828D01*
X447999Y299143D01*
D02*
G37*
G36*
X342750Y298893D02*
X341164Y298578D01*
X339820Y297680D01*
X338921Y296335D01*
X338606Y294750D01*
X338921Y293164D01*
X339820Y291820D01*
X341164Y290921D01*
X342750Y290606D01*
X344335Y290921D01*
X345680Y291820D01*
X346578Y293164D01*
X346893Y294750D01*
X346578Y296335D01*
X345680Y297680D01*
X344335Y298578D01*
X342750Y298893D01*
D02*
G37*
G36*
X689727Y298144D02*
X688142Y297828D01*
X686797Y296930D01*
X685899Y295586D01*
X685584Y294000D01*
X685899Y292414D01*
X686797Y291070D01*
X688142Y290172D01*
X689727Y289856D01*
X691313Y290172D01*
X692657Y291070D01*
X693556Y292414D01*
X693871Y294000D01*
X693556Y295586D01*
X692657Y296930D01*
X691313Y297828D01*
X689727Y298144D01*
D02*
G37*
G36*
X436000Y293144D02*
X434414Y292828D01*
X433070Y291930D01*
X432172Y290586D01*
X431883Y289133D01*
X431659Y288951D01*
X431501Y288865D01*
X430652Y288544D01*
X429586Y289256D01*
X428000Y289572D01*
X426414Y289256D01*
X425070Y288358D01*
X424172Y287014D01*
X423856Y285428D01*
X424172Y283843D01*
X425070Y282498D01*
X426414Y281600D01*
X428000Y281285D01*
X429586Y281600D01*
X430930Y282498D01*
X431828Y283843D01*
X432117Y285296D01*
X432341Y285477D01*
X432499Y285563D01*
X433348Y285884D01*
X434414Y285172D01*
X436000Y284856D01*
X437586Y285172D01*
X438930Y286070D01*
X439828Y287414D01*
X440144Y289000D01*
X439828Y290586D01*
X438930Y291930D01*
X437586Y292828D01*
X436000Y293144D01*
D02*
G37*
G36*
X465000Y295394D02*
X463414Y295078D01*
X462070Y294180D01*
X461171Y292836D01*
X460856Y291250D01*
X461171Y289664D01*
X462070Y288320D01*
X463414Y287422D01*
X465000Y287106D01*
X466585Y287422D01*
X467930Y288320D01*
X468828Y289664D01*
X469143Y291250D01*
X468828Y292836D01*
X467930Y294180D01*
X466585Y295078D01*
X465000Y295394D01*
D02*
G37*
G36*
X174250D02*
X172664Y295078D01*
X171320Y294180D01*
X170422Y292836D01*
X170106Y291250D01*
X170422Y289664D01*
X171320Y288320D01*
X172664Y287422D01*
X174250Y287106D01*
X175835Y287422D01*
X177180Y288320D01*
X178078Y289664D01*
X178393Y291250D01*
X178078Y292836D01*
X177180Y294180D01*
X175835Y295078D01*
X174250Y295394D01*
D02*
G37*
G36*
X767689Y294938D02*
X766103Y294622D01*
X764759Y293724D01*
X763860Y292380D01*
X763545Y290794D01*
X763860Y289208D01*
X764759Y287864D01*
X766103Y286966D01*
X767689Y286650D01*
X769275Y286966D01*
X770619Y287864D01*
X771517Y289208D01*
X771832Y290794D01*
X771517Y292380D01*
X770619Y293724D01*
X769275Y294622D01*
X767689Y294938D01*
D02*
G37*
G36*
X703000Y290393D02*
X701414Y290078D01*
X700070Y289180D01*
X699172Y287836D01*
X698901Y286476D01*
X698182Y285987D01*
X697654Y285782D01*
X697586Y285828D01*
X696000Y286144D01*
X694414Y285828D01*
X693070Y284930D01*
X692172Y283586D01*
X691856Y282000D01*
X692172Y280414D01*
X693070Y279070D01*
X694414Y278172D01*
X696000Y277856D01*
X697586Y278172D01*
X698930Y279070D01*
X699828Y280414D01*
X700098Y281773D01*
X700818Y282262D01*
X701346Y282467D01*
X701414Y282422D01*
X703000Y282106D01*
X704586Y282422D01*
X705930Y283320D01*
X706828Y284664D01*
X707144Y286250D01*
X706828Y287836D01*
X705930Y289180D01*
X704586Y290078D01*
X703000Y290393D01*
D02*
G37*
G36*
X970852Y293792D02*
X969267Y293476D01*
X967922Y292578D01*
X967024Y291234D01*
X966709Y289648D01*
X967024Y288062D01*
X967922Y286718D01*
X969267Y285820D01*
X970852Y285504D01*
X972438Y285820D01*
X973782Y286718D01*
X974680Y288062D01*
X974996Y289648D01*
X974680Y291234D01*
X973782Y292578D01*
X972438Y293476D01*
X970852Y293792D01*
D02*
G37*
G36*
X1134880Y299290D02*
X1117100D01*
Y281510D01*
X1134880D01*
Y299290D01*
D02*
G37*
G36*
X1159010Y299366D02*
X1156689Y299061D01*
X1154527Y298165D01*
X1152670Y296740D01*
X1151245Y294883D01*
X1150349Y292721D01*
X1150043Y290400D01*
X1150349Y288079D01*
X1151245Y285916D01*
X1152670Y284059D01*
X1154527Y282634D01*
X1156689Y281739D01*
X1159010Y281433D01*
X1161331Y281739D01*
X1163493Y282634D01*
X1165351Y284059D01*
X1166776Y285916D01*
X1167671Y288079D01*
X1167977Y290400D01*
X1167671Y292721D01*
X1166776Y294883D01*
X1165351Y296740D01*
X1163493Y298165D01*
X1161331Y299061D01*
X1159010Y299366D01*
D02*
G37*
G36*
X320000Y289144D02*
X318414Y288828D01*
X317070Y287930D01*
X316172Y286586D01*
X315856Y285000D01*
X316172Y283414D01*
X317070Y282070D01*
X318414Y281172D01*
X320000Y280856D01*
X321586Y281172D01*
X322930Y282070D01*
X323828Y283414D01*
X324144Y285000D01*
X323828Y286586D01*
X322930Y287930D01*
X321586Y288828D01*
X320000Y289144D01*
D02*
G37*
G36*
X923925Y282218D02*
X922340Y281903D01*
X920995Y281005D01*
X920605Y280420D01*
X919407Y280022D01*
X919052Y280208D01*
X918011Y280903D01*
X916426Y281218D01*
X914840Y280903D01*
X913496Y280005D01*
X912597Y278660D01*
X912282Y277075D01*
X912597Y275489D01*
X913496Y274144D01*
X914840Y273246D01*
X916426Y272931D01*
X918011Y273246D01*
X919356Y274144D01*
X919746Y274729D01*
X920944Y275127D01*
X921299Y274942D01*
X922340Y274246D01*
X923925Y273931D01*
X925511Y274246D01*
X926855Y275145D01*
X927754Y276489D01*
X928069Y278074D01*
X927754Y279660D01*
X926855Y281005D01*
X925511Y281903D01*
X923925Y282218D01*
D02*
G37*
G36*
X660591Y287144D02*
X659005Y286828D01*
X657661Y285930D01*
X656763Y284586D01*
X656447Y283000D01*
X656763Y281414D01*
X657661Y280070D01*
X659005Y279172D01*
X660591Y278856D01*
X662177Y279172D01*
X663521Y280070D01*
X664419Y281414D01*
X664735Y283000D01*
X664419Y284586D01*
X663521Y285930D01*
X662177Y286828D01*
X660591Y287144D01*
D02*
G37*
G36*
X389791Y280394D02*
X388205Y280078D01*
X386861Y279180D01*
X386207Y278201D01*
X385032Y278047D01*
X384738Y278114D01*
X384721Y278139D01*
X383377Y279037D01*
X381791Y279353D01*
X380205Y279037D01*
X378861Y278139D01*
X377963Y276795D01*
X377647Y275209D01*
X377963Y273623D01*
X378861Y272279D01*
X380205Y271381D01*
X381791Y271065D01*
X383377Y271381D01*
X384721Y272279D01*
X385212Y273014D01*
X386551Y273157D01*
X386919Y272784D01*
X386756Y271388D01*
X386070Y270930D01*
X385172Y269586D01*
X384856Y268000D01*
X385172Y266414D01*
X386070Y265070D01*
X387414Y264172D01*
X389000Y263856D01*
X390586Y264172D01*
X391930Y265070D01*
X392828Y266414D01*
X393144Y268000D01*
X392828Y269586D01*
X391930Y270930D01*
X391576Y271166D01*
X391513Y271564D01*
X391680Y272624D01*
X392721Y273320D01*
X393619Y274664D01*
X393935Y276250D01*
X393619Y277836D01*
X392721Y279180D01*
X391377Y280078D01*
X389791Y280394D01*
D02*
G37*
G36*
X892998Y286143D02*
X891413Y285828D01*
X890068Y284929D01*
X889170Y283585D01*
X888855Y281999D01*
X889170Y280414D01*
X890068Y279069D01*
X891413Y278171D01*
X892998Y277856D01*
X894584Y278171D01*
X895928Y279069D01*
X896826Y280414D01*
X897142Y281999D01*
X896826Y283585D01*
X895928Y284929D01*
X894584Y285828D01*
X892998Y286143D01*
D02*
G37*
G36*
X678000Y289144D02*
X676414Y288828D01*
X675070Y287930D01*
X674172Y286586D01*
X673856Y285000D01*
X674172Y283414D01*
X675070Y282070D01*
X676414Y281172D01*
X678000Y280856D01*
X678662Y280988D01*
X679657Y280998D01*
X680042Y280066D01*
X680172Y279414D01*
X681070Y278070D01*
X682414Y277172D01*
X684000Y276856D01*
X685586Y277172D01*
X686930Y278070D01*
X687828Y279414D01*
X688144Y281000D01*
X687828Y282586D01*
X686930Y283930D01*
X685586Y284828D01*
X684000Y285144D01*
X683338Y285012D01*
X682343Y285002D01*
X681958Y285934D01*
X681828Y286586D01*
X680930Y287930D01*
X679586Y288828D01*
X678000Y289144D01*
D02*
G37*
G36*
X599500Y289145D02*
X597914Y288830D01*
X596570Y287931D01*
X595672Y286587D01*
X595356Y285001D01*
X595629Y283629D01*
X595508Y283020D01*
X595188Y282247D01*
X594863Y282182D01*
X593519Y281284D01*
X592621Y279940D01*
X592305Y278354D01*
X592621Y276768D01*
X593519Y275424D01*
X594863Y274526D01*
X596449Y274210D01*
X598034Y274526D01*
X599379Y275424D01*
X600277Y276768D01*
X600592Y278354D01*
X600319Y279726D01*
X600441Y280336D01*
X600761Y281109D01*
X601086Y281173D01*
X602430Y282071D01*
X603328Y283416D01*
X603644Y285001D01*
X603328Y286587D01*
X602430Y287931D01*
X601086Y288830D01*
X599500Y289145D01*
D02*
G37*
G36*
X452000Y282144D02*
X450414Y281828D01*
X449070Y280930D01*
X448172Y279586D01*
X447856Y278000D01*
X448172Y276414D01*
X449070Y275070D01*
X450414Y274172D01*
X452000Y273856D01*
X453586Y274172D01*
X454930Y275070D01*
X455828Y276414D01*
X456144Y278000D01*
X455828Y279586D01*
X454930Y280930D01*
X453586Y281828D01*
X452000Y282144D01*
D02*
G37*
G36*
X802000Y281218D02*
X800414Y280903D01*
X799070Y280005D01*
X798172Y278660D01*
X797856Y277075D01*
X798172Y275489D01*
X799070Y274144D01*
X800414Y273246D01*
X802000Y272931D01*
X803586Y273246D01*
X804930Y274144D01*
X805828Y275489D01*
X806144Y277075D01*
X805828Y278660D01*
X804930Y280005D01*
X803586Y280903D01*
X802000Y281218D01*
D02*
G37*
G36*
X948000Y280394D02*
X946414Y280078D01*
X945070Y279180D01*
X944172Y277836D01*
X943856Y276250D01*
X944172Y274664D01*
X945070Y273320D01*
X946414Y272422D01*
X948000Y272106D01*
X949586Y272422D01*
X950930Y273320D01*
X951828Y274664D01*
X952144Y276250D01*
X951828Y277836D01*
X950930Y279180D01*
X949586Y280078D01*
X948000Y280394D01*
D02*
G37*
G36*
X875054Y278792D02*
X873468Y278476D01*
X872124Y277578D01*
X871226Y276234D01*
X870910Y274648D01*
X871226Y273062D01*
X872124Y271718D01*
X873468Y270820D01*
X875054Y270504D01*
X876639Y270820D01*
X877984Y271718D01*
X878882Y273062D01*
X879197Y274648D01*
X878882Y276234D01*
X877984Y277578D01*
X876639Y278476D01*
X875054Y278792D01*
D02*
G37*
G36*
X404000D02*
X402414Y278476D01*
X401070Y277578D01*
X400172Y276234D01*
X399856Y274648D01*
X400172Y273062D01*
X401070Y271718D01*
X402414Y270820D01*
X404000Y270504D01*
X405586Y270820D01*
X406930Y271718D01*
X407828Y273062D01*
X408144Y274648D01*
X407828Y276234D01*
X406930Y277578D01*
X405586Y278476D01*
X404000Y278792D01*
D02*
G37*
G36*
X1034000Y278144D02*
X1032414Y277828D01*
X1031070Y276930D01*
X1030172Y275586D01*
X1029856Y274000D01*
X1030172Y272414D01*
X1031070Y271070D01*
X1032414Y270172D01*
X1034000Y269856D01*
X1035586Y270172D01*
X1036930Y271070D01*
X1037828Y272414D01*
X1038144Y274000D01*
X1037828Y275586D01*
X1036930Y276930D01*
X1035586Y277828D01*
X1034000Y278144D01*
D02*
G37*
G36*
X173750Y277894D02*
X172164Y277578D01*
X170820Y276680D01*
X169922Y275336D01*
X169606Y273750D01*
X169922Y272164D01*
X170820Y270820D01*
X172164Y269922D01*
X173750Y269606D01*
X175336Y269922D01*
X176680Y270820D01*
X177578Y272164D01*
X177894Y273750D01*
X177578Y275336D01*
X176680Y276680D01*
X175336Y277578D01*
X173750Y277894D01*
D02*
G37*
G36*
X368000Y276144D02*
X366414Y275828D01*
X365070Y274930D01*
X364172Y273586D01*
X363856Y272000D01*
X364172Y270414D01*
X365070Y269070D01*
X366414Y268172D01*
X368000Y267856D01*
X369586Y268172D01*
X370930Y269070D01*
X371828Y270414D01*
X372144Y272000D01*
X371828Y273586D01*
X370930Y274930D01*
X369586Y275828D01*
X368000Y276144D01*
D02*
G37*
G36*
X322000Y272350D02*
X320414Y272035D01*
X319070Y271136D01*
X318172Y269792D01*
X317856Y268206D01*
X318172Y266621D01*
X319070Y265276D01*
X320414Y264378D01*
X322000Y264063D01*
X323586Y264378D01*
X324930Y265276D01*
X325828Y266621D01*
X326144Y268206D01*
X325828Y269792D01*
X324930Y271136D01*
X323586Y272035D01*
X322000Y272350D01*
D02*
G37*
G36*
X965352Y278792D02*
X963766Y278476D01*
X962422Y277578D01*
X961524Y276234D01*
X961208Y274648D01*
X961524Y273062D01*
X962422Y271718D01*
X962704Y271529D01*
Y270002D01*
X962070Y269578D01*
X961172Y268234D01*
X960856Y266648D01*
X961172Y265063D01*
X962070Y263718D01*
X963414Y262820D01*
X965000Y262505D01*
X966586Y262820D01*
X967930Y263718D01*
X968828Y265063D01*
X969144Y266648D01*
X968828Y268234D01*
X967930Y269578D01*
X967647Y269767D01*
Y271294D01*
X968282Y271718D01*
X969180Y273062D01*
X969495Y274648D01*
X969180Y276234D01*
X968282Y277578D01*
X966937Y278476D01*
X965352Y278792D01*
D02*
G37*
G36*
X483758Y270702D02*
X482172Y270387D01*
X480828Y269489D01*
X479929Y268144D01*
X479614Y266559D01*
X479929Y264973D01*
X480828Y263629D01*
X482172Y262731D01*
X483758Y262415D01*
X485343Y262731D01*
X486688Y263629D01*
X487746D01*
X488070Y263412D01*
X489414Y262514D01*
X491000Y262199D01*
X492586Y262514D01*
X493930Y263413D01*
X494157Y263752D01*
X495684D01*
X496070Y263175D01*
X497414Y262277D01*
X499000Y261961D01*
X500586Y262277D01*
X501930Y263175D01*
X502828Y264519D01*
X503144Y266105D01*
X502828Y267691D01*
X501930Y269035D01*
X500586Y269933D01*
X499000Y270248D01*
X497414Y269933D01*
X496070Y269035D01*
X495843Y268695D01*
X494316D01*
X493930Y269273D01*
X492586Y270171D01*
X491000Y270486D01*
X489414Y270171D01*
X488270Y269406D01*
X487442Y269273D01*
X487012D01*
X486687Y269489D01*
X485343Y270387D01*
X483758Y270702D01*
D02*
G37*
G36*
X906998Y278143D02*
X905413Y277828D01*
X904068Y276929D01*
X903170Y275585D01*
X902855Y274000D01*
X903170Y272414D01*
X904068Y271070D01*
X904527Y270763D01*
Y269235D01*
X904070Y268930D01*
X903172Y267586D01*
X902856Y266000D01*
X903172Y264414D01*
X904070Y263070D01*
X905414Y262172D01*
X907000Y261856D01*
X908586Y262172D01*
X909930Y263070D01*
X910828Y264414D01*
X911144Y266000D01*
X910828Y267586D01*
X909930Y268930D01*
X909471Y269237D01*
Y270764D01*
X909928Y271070D01*
X910826Y272414D01*
X911142Y274000D01*
X910826Y275585D01*
X909928Y276929D01*
X908584Y277828D01*
X906998Y278143D01*
D02*
G37*
G36*
X350000Y277893D02*
X348414Y277578D01*
X347070Y276680D01*
X346172Y275336D01*
X345856Y273750D01*
X346172Y272164D01*
X347070Y270820D01*
X348414Y269922D01*
X348449Y269869D01*
X348814Y268547D01*
X348172Y267586D01*
X347856Y266000D01*
X348172Y264414D01*
X349070Y263070D01*
X350414Y262172D01*
X352000Y261856D01*
X353586Y262172D01*
X354930Y263070D01*
X355828Y264414D01*
X356144Y266000D01*
X355828Y267586D01*
X354930Y268930D01*
X353586Y269828D01*
X353551Y269881D01*
X353186Y271203D01*
X353828Y272164D01*
X354144Y273750D01*
X353828Y275336D01*
X352930Y276680D01*
X351586Y277578D01*
X350000Y277893D01*
D02*
G37*
G36*
X230500Y268644D02*
X228914Y268329D01*
X227570Y267430D01*
X226672Y266086D01*
X226356Y264501D01*
X226672Y262915D01*
X227570Y261570D01*
X228914Y260672D01*
X230500Y260357D01*
X232086Y260672D01*
X233430Y261570D01*
X234328Y262915D01*
X234644Y264501D01*
X234328Y266086D01*
X233430Y267430D01*
X232086Y268329D01*
X230500Y268644D01*
D02*
G37*
G36*
X821000Y268144D02*
X819414Y267828D01*
X818070Y266930D01*
X817172Y265586D01*
X816856Y264000D01*
X817172Y262414D01*
X818070Y261070D01*
X819414Y260172D01*
X821000Y259856D01*
X822586Y260172D01*
X823930Y261070D01*
X824828Y262414D01*
X825144Y264000D01*
X824828Y265586D01*
X823930Y266930D01*
X822586Y267828D01*
X821000Y268144D01*
D02*
G37*
G36*
X407000Y266144D02*
X405414Y265828D01*
X404070Y264930D01*
X403172Y263586D01*
X402856Y262000D01*
X403172Y260414D01*
X404070Y259070D01*
X405414Y258172D01*
X407000Y257856D01*
X408586Y258172D01*
X409930Y259070D01*
X410828Y260414D01*
X411144Y262000D01*
X410828Y263586D01*
X409930Y264930D01*
X408586Y265828D01*
X407000Y266144D01*
D02*
G37*
G36*
X832000Y264464D02*
X830414Y264148D01*
X829070Y263250D01*
X828172Y261906D01*
X827856Y260320D01*
X828172Y258734D01*
X829070Y257390D01*
X830414Y256492D01*
X832000Y256176D01*
X833586Y256492D01*
X834930Y257390D01*
X835828Y258734D01*
X836144Y260320D01*
X835828Y261906D01*
X834930Y263250D01*
X833586Y264148D01*
X832000Y264464D01*
D02*
G37*
G36*
X697165Y264449D02*
X695579Y264134D01*
X694234Y263236D01*
X693336Y261891D01*
X693021Y260306D01*
X693336Y258720D01*
X694234Y257376D01*
X695579Y256478D01*
X697165Y256162D01*
X698750Y256478D01*
X700095Y257376D01*
X700993Y258720D01*
X701308Y260306D01*
X700993Y261891D01*
X700095Y263236D01*
X698750Y264134D01*
X697165Y264449D01*
D02*
G37*
G36*
X1159010Y273966D02*
X1156689Y273661D01*
X1154527Y272765D01*
X1152670Y271340D01*
X1151245Y269483D01*
X1150349Y267320D01*
X1150043Y265000D01*
X1150349Y262679D01*
X1151245Y260516D01*
X1152670Y258659D01*
X1154527Y257234D01*
X1156689Y256339D01*
X1159010Y256033D01*
X1161331Y256339D01*
X1163493Y257234D01*
X1165351Y258659D01*
X1166776Y260516D01*
X1167671Y262679D01*
X1167977Y265000D01*
X1167671Y267320D01*
X1166776Y269483D01*
X1165351Y271340D01*
X1163493Y272765D01*
X1161331Y273661D01*
X1159010Y273966D01*
D02*
G37*
G36*
X1125990D02*
X1123669Y273661D01*
X1121507Y272765D01*
X1119650Y271340D01*
X1118225Y269483D01*
X1117329Y267320D01*
X1117023Y265000D01*
X1117329Y262679D01*
X1118225Y260516D01*
X1119650Y258659D01*
X1121507Y257234D01*
X1123669Y256339D01*
X1125990Y256033D01*
X1128311Y256339D01*
X1130473Y257234D01*
X1132331Y258659D01*
X1133755Y260516D01*
X1134651Y262679D01*
X1134957Y265000D01*
X1134651Y267320D01*
X1133755Y269483D01*
X1132331Y271340D01*
X1130473Y272765D01*
X1128311Y273661D01*
X1125990Y273966D01*
D02*
G37*
G36*
X459351Y263143D02*
X457766Y262828D01*
X456421Y261929D01*
X455523Y260585D01*
X455208Y259000D01*
X455523Y257414D01*
X456421Y256070D01*
X457766Y255171D01*
X459351Y254856D01*
X460937Y255171D01*
X462281Y256070D01*
X463180Y257414D01*
X463495Y259000D01*
X463180Y260585D01*
X462281Y261929D01*
X460937Y262828D01*
X459351Y263143D01*
D02*
G37*
G36*
X881352Y262792D02*
X879766Y262476D01*
X878422Y261578D01*
X877524Y260234D01*
X877208Y258648D01*
X877524Y257062D01*
X878422Y255718D01*
X879766Y254820D01*
X881352Y254505D01*
X882937Y254820D01*
X884282Y255718D01*
X885180Y257062D01*
X885495Y258648D01*
X885180Y260234D01*
X884282Y261578D01*
X882937Y262476D01*
X881352Y262792D01*
D02*
G37*
G36*
X316999Y262143D02*
X315414Y261828D01*
X314069Y260930D01*
X313171Y259585D01*
X312856Y257999D01*
X313171Y256414D01*
X314069Y255070D01*
X315414Y254171D01*
X316999Y253856D01*
X318585Y254171D01*
X319929Y255070D01*
X320828Y256414D01*
X321143Y257999D01*
X320828Y259585D01*
X319929Y260930D01*
X318585Y261828D01*
X316999Y262143D01*
D02*
G37*
G36*
X559620Y265144D02*
X558034Y264828D01*
X556690Y263930D01*
X555792Y262586D01*
X555476Y261000D01*
X555612Y260317D01*
X555021Y259184D01*
X554662Y259076D01*
X553414Y258828D01*
X552070Y257930D01*
X551172Y256586D01*
X550856Y255000D01*
X551148Y253534D01*
X550889Y253216D01*
X550131Y252686D01*
X549110Y253368D01*
X547524Y253684D01*
X545938Y253368D01*
X544594Y252470D01*
X543696Y251126D01*
X543380Y249540D01*
X543696Y247954D01*
X544594Y246610D01*
X545938Y245712D01*
X547524Y245396D01*
X549110Y245712D01*
X550454Y246610D01*
X551352Y247954D01*
X551668Y249540D01*
X551376Y251006D01*
X551635Y251324D01*
X552393Y251854D01*
X553414Y251172D01*
X555000Y250856D01*
X556586Y251172D01*
X557930Y252070D01*
X558828Y253414D01*
X559144Y255000D01*
X559008Y255683D01*
X559599Y256816D01*
X559957Y256924D01*
X561205Y257172D01*
X562550Y258070D01*
X563448Y259414D01*
X563763Y261000D01*
X563448Y262586D01*
X562550Y263930D01*
X561205Y264828D01*
X559620Y265144D01*
D02*
G37*
G36*
X174500Y260393D02*
X172914Y260078D01*
X171570Y259180D01*
X170672Y257836D01*
X170356Y256250D01*
X170672Y254664D01*
X171570Y253320D01*
X172914Y252422D01*
X174500Y252106D01*
X176085Y252422D01*
X177430Y253320D01*
X178328Y254664D01*
X178643Y256250D01*
X178328Y257836D01*
X177430Y259180D01*
X176085Y260078D01*
X174500Y260393D01*
D02*
G37*
G36*
X1083000Y260143D02*
X1081414Y259828D01*
X1080070Y258930D01*
X1079172Y257586D01*
X1078856Y256000D01*
X1079172Y254414D01*
X1080070Y253070D01*
X1081414Y252172D01*
X1083000Y251856D01*
X1084585Y252172D01*
X1085930Y253070D01*
X1086828Y254414D01*
X1087143Y256000D01*
X1086828Y257586D01*
X1085930Y258930D01*
X1084585Y259828D01*
X1083000Y260143D01*
D02*
G37*
G36*
X913998Y263143D02*
X912412Y262828D01*
X911068Y261929D01*
X910170Y260585D01*
X909855Y259000D01*
X910170Y257414D01*
X911068Y256070D01*
X912412Y255171D01*
X912372Y253885D01*
X912172Y253586D01*
X911856Y252000D01*
X912172Y250414D01*
X913070Y249070D01*
X914414Y248172D01*
X916000Y247856D01*
X917586Y248172D01*
X918930Y249070D01*
X919828Y250414D01*
X919897Y250758D01*
X920996Y250844D01*
X921202Y250812D01*
X922070Y249513D01*
X923414Y248615D01*
X925000Y248300D01*
X926586Y248615D01*
X927930Y249513D01*
X928828Y250858D01*
X929144Y252443D01*
X928828Y254029D01*
X927930Y255373D01*
X926586Y256271D01*
X925000Y256587D01*
X923414Y256271D01*
X922070Y255373D01*
X921172Y254029D01*
X921103Y253685D01*
X920004Y253599D01*
X919798Y253631D01*
X918930Y254930D01*
X917586Y255828D01*
X917627Y257115D01*
X917826Y257414D01*
X918142Y259000D01*
X917826Y260585D01*
X916928Y261929D01*
X915584Y262828D01*
X913998Y263143D01*
D02*
G37*
G36*
X602270Y262001D02*
X600685Y261686D01*
X599340Y260788D01*
X598442Y259443D01*
X598127Y257857D01*
X598442Y256272D01*
X599340Y254928D01*
X598433Y254173D01*
X598069Y253930D01*
X597171Y252585D01*
X596855Y251000D01*
X597171Y249414D01*
X598069Y248069D01*
X599413Y247171D01*
X600999Y246856D01*
X602584Y247171D01*
X603929Y248069D01*
X604827Y249414D01*
X605142Y251000D01*
X604827Y252585D01*
X603929Y253930D01*
X604836Y254684D01*
X605200Y254928D01*
X606098Y256272D01*
X606414Y257857D01*
X606098Y259443D01*
X605200Y260788D01*
X603856Y261686D01*
X602270Y262001D01*
D02*
G37*
G36*
X906132Y254792D02*
X904546Y254476D01*
X903202Y253578D01*
X902304Y252234D01*
X901988Y250648D01*
X902304Y249062D01*
X903202Y247718D01*
X904546Y246820D01*
X906132Y246505D01*
X907718Y246820D01*
X909062Y247718D01*
X909960Y249062D01*
X910275Y250648D01*
X909960Y252234D01*
X909062Y253578D01*
X907718Y254476D01*
X906132Y254792D01*
D02*
G37*
G36*
X305458Y253792D02*
X303872Y253477D01*
X302528Y252578D01*
X301630Y251234D01*
X301315Y249648D01*
X301630Y248062D01*
X302528Y246718D01*
X303872Y245820D01*
X305458Y245505D01*
X307044Y245820D01*
X308388Y246718D01*
X309286Y248062D01*
X309602Y249648D01*
X309286Y251234D01*
X308388Y252578D01*
X307044Y253477D01*
X305458Y253792D01*
D02*
G37*
G36*
X467650Y257494D02*
X466064Y257178D01*
X464720Y256280D01*
X463822Y254936D01*
X463506Y253350D01*
X463822Y251764D01*
X464720Y250420D01*
X466064Y249522D01*
X467650Y249206D01*
X468243Y249324D01*
X469240Y249511D01*
X469623Y248403D01*
X469712Y247954D01*
X470610Y246610D01*
X471954Y245712D01*
X473540Y245396D01*
X475126Y245712D01*
X476470Y246610D01*
X477368Y247954D01*
X477684Y249540D01*
X477368Y251126D01*
X476470Y252470D01*
X475126Y253368D01*
X473540Y253684D01*
X472947Y253566D01*
X471950Y253379D01*
X471567Y254488D01*
X471478Y254936D01*
X470580Y256280D01*
X469236Y257178D01*
X467650Y257494D01*
D02*
G37*
G36*
X367485Y253144D02*
X365899Y252828D01*
X364555Y251930D01*
X363657Y250586D01*
X363341Y249000D01*
X363657Y247414D01*
X364555Y246070D01*
X365899Y245172D01*
X367485Y244856D01*
X369070Y245172D01*
X370415Y246070D01*
X371313Y247414D01*
X371628Y249000D01*
X371313Y250586D01*
X370415Y251930D01*
X369070Y252828D01*
X367485Y253144D01*
D02*
G37*
G36*
X350000D02*
X348414Y252828D01*
X347070Y251930D01*
X346172Y250586D01*
X345856Y249000D01*
X346172Y247414D01*
X347070Y246070D01*
X348414Y245172D01*
X350000Y244856D01*
X351586Y245172D01*
X352930Y246070D01*
X353828Y247414D01*
X354144Y249000D01*
X353828Y250586D01*
X352930Y251930D01*
X351586Y252828D01*
X350000Y253144D01*
D02*
G37*
G36*
X856000Y251842D02*
X854414Y251527D01*
X853070Y250629D01*
X852172Y249284D01*
X851856Y247698D01*
X852172Y246113D01*
X853070Y244769D01*
X854414Y243870D01*
X856000Y243555D01*
X857586Y243870D01*
X858930Y244769D01*
X859828Y246113D01*
X860144Y247698D01*
X859828Y249284D01*
X858930Y250629D01*
X857586Y251527D01*
X856000Y251842D01*
D02*
G37*
G36*
X679000Y251354D02*
X677414Y251038D01*
X676070Y250140D01*
X675172Y248796D01*
X674856Y247210D01*
X675172Y245625D01*
X676070Y244280D01*
X677414Y243382D01*
X679000Y243067D01*
X680586Y243382D01*
X681930Y244280D01*
X682828Y245625D01*
X683144Y247210D01*
X682828Y248796D01*
X681930Y250140D01*
X680586Y251038D01*
X679000Y251354D01*
D02*
G37*
G36*
X173750Y242144D02*
X172164Y241828D01*
X170820Y240930D01*
X169921Y239586D01*
X169606Y238000D01*
X169921Y236414D01*
X170820Y235070D01*
X172164Y234172D01*
X173750Y233856D01*
X175335Y234172D01*
X176680Y235070D01*
X177578Y236414D01*
X177893Y238000D01*
X177578Y239586D01*
X176680Y240930D01*
X175335Y241828D01*
X173750Y242144D01*
D02*
G37*
G36*
X654000Y242144D02*
X652414Y241828D01*
X651070Y240930D01*
X650172Y239586D01*
X649856Y238000D01*
X650172Y236414D01*
X651070Y235070D01*
X652414Y234172D01*
X654000Y233856D01*
X655586Y234172D01*
X656930Y235070D01*
X657828Y236414D01*
X658144Y238000D01*
X657828Y239586D01*
X656930Y240930D01*
X655586Y241828D01*
X654000Y242144D01*
D02*
G37*
G36*
X637000D02*
X635414Y241828D01*
X634070Y240930D01*
X633172Y239586D01*
X632856Y238000D01*
X633172Y236414D01*
X634070Y235070D01*
X635414Y234172D01*
X637000Y233856D01*
X638586Y234172D01*
X639930Y235070D01*
X640828Y236414D01*
X641144Y238000D01*
X640828Y239586D01*
X639930Y240930D01*
X638586Y241828D01*
X637000Y242144D01*
D02*
G37*
G36*
X689845Y240686D02*
X688260Y240371D01*
X686915Y239472D01*
X686017Y238128D01*
X685702Y236542D01*
X686017Y234957D01*
X686915Y233612D01*
X688260Y232714D01*
X689845Y232399D01*
X691431Y232714D01*
X692775Y233612D01*
X693673Y234957D01*
X693989Y236542D01*
X693673Y238128D01*
X692775Y239472D01*
X691431Y240371D01*
X689845Y240686D01*
D02*
G37*
G36*
X626500Y248643D02*
X624914Y248328D01*
X623570Y247430D01*
X622672Y246086D01*
X622356Y244500D01*
X622672Y242914D01*
X623570Y241570D01*
X624653Y240846D01*
X624827Y239854D01*
X624780Y239404D01*
X624069Y238929D01*
X623171Y237584D01*
X622855Y235999D01*
X623171Y234413D01*
X624069Y233069D01*
X625413Y232171D01*
X626999Y231855D01*
X628584Y232171D01*
X629929Y233069D01*
X630827Y234413D01*
X631142Y235999D01*
X630827Y237584D01*
X629929Y238929D01*
X628846Y239652D01*
X628671Y240645D01*
X628719Y241095D01*
X629430Y241570D01*
X630328Y242914D01*
X630644Y244500D01*
X630328Y246086D01*
X629430Y247430D01*
X628086Y248328D01*
X626500Y248643D01*
D02*
G37*
G36*
X713050Y248967D02*
X710729Y248661D01*
X708567Y247765D01*
X706710Y246341D01*
X705285Y244483D01*
X704389Y242321D01*
X704083Y240000D01*
X704389Y237679D01*
X705285Y235517D01*
X706710Y233660D01*
X708567Y232235D01*
X710729Y231339D01*
X713050Y231033D01*
X715371Y231339D01*
X717533Y232235D01*
X719391Y233660D01*
X720816Y235517D01*
X721711Y237679D01*
X722017Y240000D01*
X721711Y242321D01*
X720816Y244483D01*
X719391Y246341D01*
X717533Y247765D01*
X715371Y248661D01*
X713050Y248967D01*
D02*
G37*
G36*
X566950D02*
X564629Y248661D01*
X562467Y247765D01*
X560609Y246341D01*
X559184Y244483D01*
X558289Y242321D01*
X557983Y240000D01*
X558289Y237679D01*
X559184Y235517D01*
X560609Y233660D01*
X562467Y232235D01*
X564629Y231339D01*
X566950Y231033D01*
X569271Y231339D01*
X571433Y232235D01*
X573290Y233660D01*
X574715Y235517D01*
X575611Y237679D01*
X575917Y240000D01*
X575611Y242321D01*
X574715Y244483D01*
X573290Y246341D01*
X571433Y247765D01*
X569271Y248661D01*
X566950Y248967D01*
D02*
G37*
G36*
X349000Y239144D02*
X347414Y238828D01*
X346070Y237930D01*
X345172Y236586D01*
X344856Y235000D01*
X345172Y233414D01*
X346070Y232070D01*
X347414Y231172D01*
X349000Y230856D01*
X350586Y231172D01*
X351930Y232070D01*
X352828Y233414D01*
X353144Y235000D01*
X352828Y236586D01*
X351930Y237930D01*
X350586Y238828D01*
X349000Y239144D01*
D02*
G37*
G36*
X1159010Y248566D02*
X1156689Y248261D01*
X1154527Y247365D01*
X1152670Y245940D01*
X1151245Y244083D01*
X1150349Y241921D01*
X1150043Y239600D01*
X1150349Y237279D01*
X1151245Y235116D01*
X1152670Y233259D01*
X1154527Y231834D01*
X1156689Y230939D01*
X1159010Y230633D01*
X1161331Y230939D01*
X1163493Y231834D01*
X1165351Y233259D01*
X1166776Y235116D01*
X1167671Y237279D01*
X1167977Y239600D01*
X1167671Y241921D01*
X1166776Y244083D01*
X1165351Y245940D01*
X1163493Y247365D01*
X1161331Y248261D01*
X1159010Y248566D01*
D02*
G37*
G36*
X1125990D02*
X1123669Y248261D01*
X1121507Y247365D01*
X1119650Y245940D01*
X1118225Y244083D01*
X1117329Y241921D01*
X1117023Y239600D01*
X1117329Y237279D01*
X1118225Y235116D01*
X1119650Y233259D01*
X1121507Y231834D01*
X1123669Y230939D01*
X1125990Y230633D01*
X1128311Y230939D01*
X1130473Y231834D01*
X1132331Y233259D01*
X1133755Y235116D01*
X1134651Y237279D01*
X1134957Y239600D01*
X1134651Y241921D01*
X1133755Y244083D01*
X1132331Y245940D01*
X1130473Y247365D01*
X1128311Y248261D01*
X1125990Y248566D01*
D02*
G37*
G36*
X848806Y237473D02*
X847220Y237158D01*
X845876Y236259D01*
X844978Y234915D01*
X844662Y233330D01*
X844978Y231744D01*
X845876Y230399D01*
X847220Y229501D01*
X848806Y229186D01*
X850391Y229501D01*
X851736Y230399D01*
X852634Y231744D01*
X852949Y233330D01*
X852634Y234915D01*
X851736Y236259D01*
X850391Y237158D01*
X848806Y237473D01*
D02*
G37*
G36*
X382000Y237144D02*
X380414Y236828D01*
X379070Y235930D01*
X378172Y234586D01*
X377856Y233000D01*
X378172Y231414D01*
X379070Y230070D01*
X380414Y229172D01*
X382000Y228856D01*
X383586Y229172D01*
X384930Y230070D01*
X385828Y231414D01*
X386144Y233000D01*
X385828Y234586D01*
X384930Y235930D01*
X383586Y236828D01*
X382000Y237144D01*
D02*
G37*
G36*
X84000D02*
X82414Y236828D01*
X81070Y235930D01*
X80172Y234586D01*
X79856Y233000D01*
X80172Y231414D01*
X81070Y230070D01*
X82414Y229172D01*
X84000Y228856D01*
X85586Y229172D01*
X86930Y230070D01*
X87828Y231414D01*
X88144Y233000D01*
X87828Y234586D01*
X86930Y235930D01*
X85586Y236828D01*
X84000Y237144D01*
D02*
G37*
G36*
X261380Y234764D02*
X259794Y234448D01*
X258450Y233550D01*
X257552Y232206D01*
X257236Y230620D01*
X257552Y229034D01*
X258450Y227690D01*
X259794Y226792D01*
X261380Y226476D01*
X262966Y226792D01*
X264310Y227690D01*
X265208Y229034D01*
X265524Y230620D01*
X265208Y232206D01*
X264310Y233550D01*
X262966Y234448D01*
X261380Y234764D01*
D02*
G37*
G36*
X438000Y233144D02*
X436414Y232828D01*
X435070Y231930D01*
X434172Y230585D01*
X433857Y229000D01*
X434172Y227414D01*
X435070Y226070D01*
X436414Y225172D01*
X438000Y224856D01*
X439586Y225172D01*
X440930Y226070D01*
X441828Y227414D01*
X442144Y229000D01*
X441828Y230585D01*
X440930Y231930D01*
X439586Y232828D01*
X438000Y233144D01*
D02*
G37*
G36*
X907000Y238144D02*
X905414Y237828D01*
X904070Y236930D01*
X903172Y235586D01*
X902856Y234000D01*
X903172Y232414D01*
X904070Y231070D01*
X903719Y229777D01*
X903422Y229578D01*
X902523Y228234D01*
X902208Y226648D01*
X902523Y225063D01*
X903422Y223718D01*
X904766Y222820D01*
X906352Y222505D01*
X907937Y222820D01*
X909282Y223718D01*
X910180Y225063D01*
X910495Y226648D01*
X910180Y228234D01*
X909282Y229578D01*
X909632Y230871D01*
X909930Y231070D01*
X910828Y232414D01*
X911144Y234000D01*
X910828Y235586D01*
X909930Y236930D01*
X908586Y237828D01*
X907000Y238144D01*
D02*
G37*
G36*
X355000Y229144D02*
X353414Y228828D01*
X352070Y227930D01*
X351172Y226586D01*
X350856Y225000D01*
X351172Y223414D01*
X351380Y223103D01*
X350616Y221960D01*
X349694Y222143D01*
X348108Y221828D01*
X346764Y220930D01*
X345866Y219585D01*
X345550Y218000D01*
X345866Y216414D01*
X346764Y215070D01*
X348108Y214172D01*
X349694Y213856D01*
X351280Y214172D01*
X352624Y215070D01*
X353522Y216414D01*
X353838Y218000D01*
X353547Y219462D01*
X353959Y220173D01*
X354308Y220644D01*
X354757Y220666D01*
X355826Y219685D01*
Y214070D01*
X356228Y213097D01*
X357200Y212695D01*
X367144D01*
X368116Y213097D01*
X368518Y214070D01*
Y224137D01*
X368116Y225109D01*
X367144Y225511D01*
X359042D01*
X358828Y226586D01*
X357930Y227930D01*
X356586Y228828D01*
X355000Y229144D01*
D02*
G37*
G36*
X990436Y227279D02*
X988850Y226964D01*
X987506Y226065D01*
X986608Y224721D01*
X986292Y223135D01*
X986608Y221549D01*
X987506Y220205D01*
X988850Y219307D01*
X990436Y218992D01*
X992022Y219307D01*
X993366Y220205D01*
X994264Y221549D01*
X994580Y223135D01*
X994264Y224721D01*
X993366Y226065D01*
X992022Y226964D01*
X990436Y227279D01*
D02*
G37*
G36*
X1008463Y227144D02*
X1006878Y226829D01*
X1005533Y225930D01*
X1004635Y224586D01*
X1004320Y223000D01*
X1004635Y221415D01*
X1005533Y220070D01*
X1006878Y219172D01*
X1008463Y218857D01*
X1010049Y219172D01*
X1011393Y220070D01*
X1012291Y221415D01*
X1012607Y223000D01*
X1012291Y224586D01*
X1011393Y225930D01*
X1010049Y226829D01*
X1008463Y227144D01*
D02*
G37*
G36*
X173750Y225393D02*
X172164Y225078D01*
X170820Y224180D01*
X169921Y222835D01*
X169606Y221250D01*
X169921Y219664D01*
X170820Y218320D01*
X172164Y217421D01*
X173750Y217106D01*
X175335Y217421D01*
X176680Y218320D01*
X177578Y219664D01*
X177893Y221250D01*
X177578Y222835D01*
X176680Y224180D01*
X175335Y225078D01*
X173750Y225393D01*
D02*
G37*
G36*
X388000Y224144D02*
X386414Y223828D01*
X385070Y222930D01*
X384172Y221586D01*
X383856Y220000D01*
X384172Y218414D01*
X385070Y217070D01*
X386414Y216172D01*
X388000Y215856D01*
X389586Y216172D01*
X390930Y217070D01*
X391828Y218414D01*
X392144Y220000D01*
X391828Y221586D01*
X390930Y222930D01*
X389586Y223828D01*
X388000Y224144D01*
D02*
G37*
G36*
X583000Y223674D02*
X581414Y223358D01*
X580070Y222460D01*
X579172Y221116D01*
X578856Y219530D01*
X579172Y217945D01*
X580070Y216600D01*
X581414Y215702D01*
X583000Y215387D01*
X584586Y215702D01*
X585930Y216600D01*
X586828Y217945D01*
X587144Y219530D01*
X586828Y221116D01*
X585930Y222460D01*
X584586Y223358D01*
X583000Y223674D01*
D02*
G37*
G36*
X268750Y223204D02*
X267164Y222888D01*
X265820Y221990D01*
X264922Y220646D01*
X264606Y219060D01*
X264922Y217474D01*
X265820Y216130D01*
X267164Y215232D01*
X268750Y214917D01*
X270336Y215232D01*
X271680Y216130D01*
X272578Y217474D01*
X272893Y219060D01*
X272578Y220646D01*
X271680Y221990D01*
X270336Y222888D01*
X268750Y223204D01*
D02*
G37*
G36*
X84000Y222144D02*
X82414Y221828D01*
X81070Y220930D01*
X80172Y219586D01*
X79856Y218000D01*
X80172Y216414D01*
X81070Y215070D01*
X82414Y214172D01*
X84000Y213856D01*
X85586Y214172D01*
X86930Y215070D01*
X87828Y216414D01*
X88144Y218000D01*
X87828Y219586D01*
X86930Y220930D01*
X85586Y221828D01*
X84000Y222144D01*
D02*
G37*
G36*
X571999Y221143D02*
X570413Y220828D01*
X569069Y219930D01*
X568171Y218585D01*
X567855Y217000D01*
X568171Y215414D01*
X569069Y214070D01*
X570413Y213171D01*
X571999Y212856D01*
X573585Y213171D01*
X574929Y214070D01*
X575827Y215414D01*
X576143Y217000D01*
X575827Y218585D01*
X574929Y219930D01*
X573585Y220828D01*
X571999Y221143D01*
D02*
G37*
G36*
X925295Y224195D02*
X916000D01*
X915028Y223792D01*
X914625Y222820D01*
Y214417D01*
X915028Y213445D01*
X916000Y213042D01*
X925295D01*
X926267Y213445D01*
X926670Y214417D01*
Y216460D01*
X927940Y216584D01*
X928014Y216210D01*
X928173Y215413D01*
X929071Y214069D01*
X930415Y213171D01*
X932001Y212855D01*
X933587Y213171D01*
X934931Y214069D01*
X935518Y214948D01*
X936878Y215070D01*
X936987Y215035D01*
X937090Y214880D01*
X938435Y213982D01*
X940020Y213667D01*
X941606Y213982D01*
X942950Y214880D01*
X943723Y216037D01*
X944487Y216053D01*
X945045Y215903D01*
X945172Y215265D01*
X946070Y213921D01*
X947414Y213023D01*
X949000Y212707D01*
X950586Y213023D01*
X951930Y213921D01*
X952828Y215265D01*
X953144Y216851D01*
X952828Y218437D01*
X951930Y219781D01*
X950586Y220679D01*
X949000Y220995D01*
X947414Y220679D01*
X946070Y219781D01*
X945297Y218624D01*
X944534Y218608D01*
X943975Y218758D01*
X943848Y219396D01*
X942950Y220740D01*
X941606Y221639D01*
X940020Y221954D01*
X938435Y221639D01*
X937090Y220740D01*
X936503Y219862D01*
X935143Y219739D01*
X935034Y219775D01*
X934931Y219929D01*
X933587Y220827D01*
X932001Y221143D01*
X930415Y220827D01*
X929071Y219929D01*
X928173Y218585D01*
X928014Y217788D01*
X927940Y217414D01*
X926670Y217539D01*
Y222820D01*
X926267Y223792D01*
X925295Y224195D01*
D02*
G37*
G36*
X444971Y219144D02*
X443386Y218828D01*
X442041Y217930D01*
X441143Y216586D01*
X440828Y215000D01*
X441143Y213414D01*
X442041Y212070D01*
X443386Y211172D01*
X444971Y210856D01*
X446557Y211172D01*
X447901Y212070D01*
X448800Y213414D01*
X449115Y215000D01*
X448800Y216586D01*
X447901Y217930D01*
X446557Y218828D01*
X444971Y219144D01*
D02*
G37*
G36*
X253000D02*
X251414Y218828D01*
X250070Y217930D01*
X249172Y216586D01*
X248856Y215000D01*
X249172Y213414D01*
X250070Y212070D01*
X251414Y211172D01*
X253000Y210856D01*
X254586Y211172D01*
X255930Y212070D01*
X256828Y213414D01*
X257144Y215000D01*
X256828Y216586D01*
X255930Y217930D01*
X254586Y218828D01*
X253000Y219144D01*
D02*
G37*
G36*
X685000Y217144D02*
X683414Y216828D01*
X682070Y215930D01*
X681172Y214586D01*
X680856Y213000D01*
X681172Y211414D01*
X682070Y210070D01*
X683414Y209172D01*
X685000Y208856D01*
X686586Y209172D01*
X687930Y210070D01*
X688828Y211414D01*
X689144Y213000D01*
X688828Y214586D01*
X687930Y215930D01*
X686586Y216828D01*
X685000Y217144D01*
D02*
G37*
G36*
X860000Y215463D02*
X858414Y215148D01*
X857070Y214250D01*
X856172Y212905D01*
X855856Y211320D01*
X856172Y209734D01*
X857070Y208390D01*
X858414Y207491D01*
X860000Y207176D01*
X861586Y207491D01*
X862930Y208390D01*
X863828Y209734D01*
X864144Y211320D01*
X863828Y212905D01*
X862930Y214250D01*
X861586Y215148D01*
X860000Y215463D01*
D02*
G37*
G36*
X902000Y212144D02*
X900414Y211828D01*
X899070Y210930D01*
X898172Y209586D01*
X897856Y208000D01*
X897920Y207679D01*
X897432Y207310D01*
X896751Y207050D01*
X895586Y207828D01*
X894000Y208143D01*
X892414Y207828D01*
X891070Y206930D01*
X890172Y205585D01*
X889856Y204000D01*
X890172Y202414D01*
X891070Y201070D01*
X892414Y200171D01*
X894000Y199856D01*
X895586Y200171D01*
X896930Y201070D01*
X897828Y202414D01*
X898144Y204000D01*
X898080Y204321D01*
X898568Y204690D01*
X899249Y204950D01*
X900414Y204172D01*
X902000Y203856D01*
X903586Y204172D01*
X904930Y205070D01*
X905828Y206414D01*
X906144Y208000D01*
X905828Y209586D01*
X904930Y210930D01*
X903586Y211828D01*
X902000Y212144D01*
D02*
G37*
G36*
X421000Y209144D02*
X419414Y208828D01*
X418070Y207930D01*
X417172Y206586D01*
X415885Y206627D01*
X415585Y206828D01*
X413999Y207143D01*
X412413Y206828D01*
X411069Y205930D01*
X410171Y204585D01*
X409855Y203000D01*
X410171Y201414D01*
X411069Y200070D01*
X412413Y199171D01*
X413999Y198856D01*
X415585Y199171D01*
X416929Y200070D01*
X417827Y201414D01*
X419114Y201372D01*
X419414Y201172D01*
X421000Y200856D01*
X422586Y201172D01*
X423930Y202070D01*
X424828Y203414D01*
X425144Y205000D01*
X424828Y206586D01*
X423930Y207930D01*
X422586Y208828D01*
X421000Y209144D01*
D02*
G37*
G36*
X1002334Y213477D02*
X1000748Y213162D01*
X999404Y212264D01*
X998505Y210919D01*
X998190Y209334D01*
X998505Y207748D01*
X999404Y206404D01*
X1000748Y205505D01*
X1002334Y205190D01*
X1003919Y205505D01*
X1005264Y206404D01*
X1006162Y207748D01*
X1006477Y209334D01*
X1006162Y210919D01*
X1005264Y212264D01*
X1003919Y213162D01*
X1002334Y213477D01*
D02*
G37*
G36*
X886000Y213144D02*
X884414Y212828D01*
X883070Y211930D01*
X882172Y210586D01*
X881856Y209000D01*
X882172Y207414D01*
X883070Y206070D01*
X884414Y205172D01*
X886000Y204856D01*
X887586Y205172D01*
X888930Y206070D01*
X889828Y207414D01*
X890144Y209000D01*
X889828Y210586D01*
X888930Y211930D01*
X887586Y212828D01*
X886000Y213144D01*
D02*
G37*
G36*
X183000Y212144D02*
X181415Y211828D01*
X180070Y210930D01*
X179172Y209586D01*
X178857Y208000D01*
X179172Y206415D01*
X180070Y205070D01*
X181415Y204172D01*
X183000Y203857D01*
X184586Y204172D01*
X185930Y205070D01*
X186828Y206415D01*
X187144Y208000D01*
X186828Y209586D01*
X185930Y210930D01*
X184586Y211828D01*
X183000Y212144D01*
D02*
G37*
G36*
X1021653Y212144D02*
X1020067Y211828D01*
X1018723Y210930D01*
X1017824Y209586D01*
X1017509Y208000D01*
X1017824Y206414D01*
X1018723Y205070D01*
X1020067Y204172D01*
X1021653Y203856D01*
X1023238Y204172D01*
X1024583Y205070D01*
X1025481Y206414D01*
X1025796Y208000D01*
X1025481Y209586D01*
X1024583Y210930D01*
X1023238Y211828D01*
X1021653Y212144D01*
D02*
G37*
G36*
X633650Y211460D02*
X632065Y211145D01*
X630720Y210246D01*
X629822Y208902D01*
X629507Y207316D01*
X629822Y205731D01*
X630720Y204386D01*
X632065Y203488D01*
X633650Y203173D01*
X635236Y203488D01*
X636580Y204386D01*
X637478Y205731D01*
X637794Y207316D01*
X637478Y208902D01*
X636580Y210246D01*
X635236Y211145D01*
X633650Y211460D01*
D02*
G37*
G36*
X1049000Y206144D02*
X1047414Y205828D01*
X1046070Y204930D01*
X1045172Y203586D01*
X1044856Y202000D01*
X1044894Y201811D01*
X1043751Y201047D01*
X1043579Y201162D01*
X1041993Y201478D01*
X1040408Y201162D01*
X1039063Y200264D01*
X1038165Y198920D01*
X1037850Y197334D01*
X1038165Y195748D01*
X1039063Y194404D01*
X1040408Y193506D01*
X1041993Y193190D01*
X1043579Y193506D01*
X1044923Y194404D01*
X1045822Y195748D01*
X1046137Y197334D01*
X1046099Y197523D01*
X1047242Y198287D01*
X1047414Y198172D01*
X1049000Y197856D01*
X1050586Y198172D01*
X1051930Y199070D01*
X1052828Y200414D01*
X1053144Y202000D01*
X1052828Y203586D01*
X1051930Y204930D01*
X1050586Y205828D01*
X1049000Y206144D01*
D02*
G37*
G36*
X1071500Y208644D02*
X1069914Y208328D01*
X1068570Y207430D01*
X1067672Y206086D01*
X1067356Y204500D01*
X1067672Y202915D01*
X1068570Y201570D01*
X1069914Y200672D01*
X1071500Y200357D01*
X1073085Y200672D01*
X1074430Y201570D01*
X1075328Y202915D01*
X1075643Y204500D01*
X1075328Y206086D01*
X1074430Y207430D01*
X1073085Y208328D01*
X1071500Y208644D01*
D02*
G37*
G36*
X657669Y209144D02*
X656083Y208828D01*
X654739Y207930D01*
X653841Y206586D01*
X653525Y205000D01*
X653841Y203414D01*
X654739Y202070D01*
X656083Y201172D01*
X657669Y200856D01*
X659255Y201172D01*
X660599Y202070D01*
X660865Y202468D01*
X661554Y202439D01*
X662263Y202275D01*
X663069Y201070D01*
X664413Y200171D01*
X665999Y199856D01*
X667584Y200171D01*
X668929Y201070D01*
X669827Y202414D01*
X670142Y204000D01*
X669827Y205585D01*
X668929Y206930D01*
X667584Y207828D01*
X665999Y208143D01*
X664413Y207828D01*
X663069Y206930D01*
X662803Y206532D01*
X662113Y206560D01*
X661404Y206725D01*
X660599Y207930D01*
X659255Y208828D01*
X657669Y209144D01*
D02*
G37*
G36*
X340775Y207144D02*
X339189Y206828D01*
X337845Y205930D01*
X336947Y204586D01*
X336631Y203000D01*
X336947Y201414D01*
X337845Y200070D01*
X339189Y199172D01*
X340775Y198856D01*
X342360Y199172D01*
X343705Y200070D01*
X344603Y201414D01*
X344918Y203000D01*
X344603Y204586D01*
X343705Y205930D01*
X342360Y206828D01*
X340775Y207144D01*
D02*
G37*
G36*
X613999Y206143D02*
X612413Y205828D01*
X611069Y204930D01*
X610171Y203585D01*
X609855Y202000D01*
X610171Y200414D01*
X611069Y199070D01*
X612413Y198171D01*
X613999Y197856D01*
X615584Y198171D01*
X616929Y199070D01*
X617827Y200414D01*
X618142Y202000D01*
X617827Y203585D01*
X616929Y204930D01*
X615584Y205828D01*
X613999Y206143D01*
D02*
G37*
G36*
X746000Y213477D02*
X744414Y213162D01*
X743070Y212264D01*
X742172Y210919D01*
X741856Y209334D01*
X742172Y207748D01*
X743070Y206404D01*
X743419Y206170D01*
Y204900D01*
X743070Y204667D01*
X742172Y203323D01*
X741856Y201737D01*
X742172Y200151D01*
X743070Y198807D01*
X744414Y197909D01*
X746000Y197593D01*
X747586Y197909D01*
X748930Y198807D01*
X749828Y200151D01*
X750144Y201737D01*
X749828Y203323D01*
X748930Y204667D01*
X748581Y204900D01*
Y206170D01*
X748930Y206404D01*
X749828Y207748D01*
X750144Y209334D01*
X749828Y210919D01*
X748930Y212264D01*
X747586Y213162D01*
X746000Y213477D01*
D02*
G37*
G36*
X830000Y204144D02*
X828414Y203828D01*
X827070Y202930D01*
X826172Y201586D01*
X825856Y200000D01*
X826172Y198414D01*
X827070Y197070D01*
X828414Y196172D01*
X830000Y195856D01*
X831586Y196172D01*
X832930Y197070D01*
X833828Y198414D01*
X834144Y200000D01*
X833828Y201586D01*
X832930Y202930D01*
X831586Y203828D01*
X830000Y204144D01*
D02*
G37*
G36*
X699000Y198144D02*
X697414Y197828D01*
X696070Y196930D01*
X695430Y195972D01*
X694212Y195822D01*
X693960Y195885D01*
X693930Y195930D01*
X692586Y196828D01*
X691000Y197144D01*
X689414Y196828D01*
X688070Y195930D01*
X687172Y194586D01*
X686856Y193000D01*
X687172Y191414D01*
X688070Y190070D01*
X689414Y189172D01*
X691000Y188856D01*
X692586Y189172D01*
X693930Y190070D01*
X694570Y191028D01*
X695788Y191178D01*
X696040Y191115D01*
X696070Y191070D01*
X697414Y190172D01*
X699000Y189856D01*
X700586Y190172D01*
X701930Y191070D01*
X702828Y192414D01*
X703144Y194000D01*
X702828Y195586D01*
X701930Y196930D01*
X700586Y197828D01*
X699000Y198144D01*
D02*
G37*
G36*
X74000Y206096D02*
X71711Y205794D01*
X69577Y204911D01*
X67745Y203505D01*
X66339Y201673D01*
X65456Y199539D01*
X65154Y197250D01*
X65384Y195507D01*
X64193Y194819D01*
X63423Y195411D01*
X61289Y196294D01*
X59000Y196596D01*
X56711Y196294D01*
X54577Y195411D01*
X52745Y194005D01*
X51339Y192173D01*
X50456Y190039D01*
X50154Y187750D01*
X50456Y185461D01*
X51339Y183327D01*
X52745Y181495D01*
X54577Y180089D01*
X56711Y179206D01*
X59000Y178904D01*
X61289Y179206D01*
X63423Y180089D01*
X65255Y181495D01*
X66661Y183327D01*
X67544Y185461D01*
X67846Y187750D01*
X67616Y189493D01*
X68807Y190181D01*
X69577Y189589D01*
X71711Y188706D01*
X74000Y188404D01*
X76289Y188706D01*
X78423Y189589D01*
X80255Y190995D01*
X81661Y192827D01*
X82544Y194961D01*
X82846Y197250D01*
X82544Y199539D01*
X81661Y201673D01*
X80255Y203505D01*
X78423Y204911D01*
X76289Y205794D01*
X74000Y206096D01*
D02*
G37*
G36*
X868856Y209144D02*
X867270Y208828D01*
X865926Y207930D01*
X865028Y206586D01*
X864712Y205000D01*
X865028Y203414D01*
X865926Y202070D01*
X867270Y201172D01*
X868856Y200856D01*
X869359Y200956D01*
X870123Y199813D01*
X869971Y199586D01*
X869655Y198000D01*
X869971Y196414D01*
X870869Y195070D01*
X872213Y194172D01*
X873799Y193856D01*
X875385Y194172D01*
X876729Y195070D01*
X877627Y196414D01*
X877943Y198000D01*
X877627Y199586D01*
X876729Y200930D01*
X875385Y201828D01*
X873799Y202144D01*
X873296Y202043D01*
X872532Y203186D01*
X872684Y203414D01*
X873000Y205000D01*
X872684Y206586D01*
X871786Y207930D01*
X870442Y208828D01*
X868856Y209144D01*
D02*
G37*
G36*
X674999Y201143D02*
X673413Y200828D01*
X672069Y199930D01*
X671170Y198585D01*
X670855Y197000D01*
X671170Y195414D01*
X672069Y194070D01*
X673413Y193171D01*
X674999Y192856D01*
X676584Y193171D01*
X677929Y194070D01*
X678827Y195414D01*
X679142Y197000D01*
X678827Y198585D01*
X677929Y199930D01*
X676584Y200828D01*
X674999Y201143D01*
D02*
G37*
G36*
X856484Y199295D02*
X854899Y198980D01*
X853554Y198082D01*
X852656Y196737D01*
X852341Y195152D01*
X852656Y193566D01*
X853554Y192222D01*
X854899Y191324D01*
X856484Y191008D01*
X858070Y191324D01*
X859414Y192222D01*
X860312Y193566D01*
X860628Y195152D01*
X860312Y196737D01*
X859414Y198082D01*
X858070Y198980D01*
X856484Y199295D01*
D02*
G37*
G36*
X156000Y197144D02*
X154414Y196828D01*
X153070Y195930D01*
X152172Y194586D01*
X151856Y193000D01*
X152172Y191414D01*
X153070Y190070D01*
X154414Y189172D01*
X156000Y188856D01*
X157586Y189172D01*
X158930Y190070D01*
X159828Y191414D01*
X160144Y193000D01*
X159828Y194586D01*
X158930Y195930D01*
X157586Y196828D01*
X156000Y197144D01*
D02*
G37*
G36*
X925000Y185144D02*
X923414Y184828D01*
X922070Y183930D01*
X921766Y183475D01*
X920238D01*
X919934Y183930D01*
X918590Y184828D01*
X917004Y185144D01*
X915418Y184828D01*
X914074Y183930D01*
X913176Y182586D01*
X912860Y181000D01*
X913176Y179414D01*
X914074Y178070D01*
X915418Y177172D01*
X917004Y176856D01*
X918590Y177172D01*
X919934Y178070D01*
X920238Y178525D01*
X921766D01*
X922070Y178070D01*
X923414Y177172D01*
X925000Y176856D01*
X926586Y177172D01*
X927930Y178070D01*
X928828Y179414D01*
X929144Y181000D01*
X928828Y182586D01*
X927930Y183930D01*
X926586Y184828D01*
X925000Y185144D01*
D02*
G37*
G36*
X1011998Y190143D02*
X1010412Y189828D01*
X1009068Y188930D01*
X1008170Y187585D01*
X1007854Y186000D01*
X1008170Y184414D01*
X1009068Y183070D01*
X1010412Y182171D01*
X1011998Y181856D01*
X1013584Y182171D01*
X1014928Y183070D01*
X1015826Y184414D01*
X1016142Y186000D01*
X1015826Y187585D01*
X1014928Y188930D01*
X1013584Y189828D01*
X1011998Y190143D01*
D02*
G37*
G36*
X511000Y189144D02*
X509414Y188828D01*
X508070Y187930D01*
X507172Y186586D01*
X506856Y185000D01*
X507172Y183414D01*
X508070Y182070D01*
X509414Y181172D01*
X511000Y180856D01*
X512586Y181172D01*
X513930Y182070D01*
X514828Y183414D01*
X515144Y185000D01*
X514828Y186586D01*
X513930Y187930D01*
X512586Y188828D01*
X511000Y189144D01*
D02*
G37*
G36*
X531000Y187629D02*
X529414Y187313D01*
X528070Y186415D01*
X527172Y185071D01*
X526856Y183485D01*
X527172Y181899D01*
X528070Y180555D01*
X529414Y179657D01*
X531000Y179341D01*
X532586Y179657D01*
X533930Y180555D01*
X534828Y181899D01*
X535144Y183485D01*
X534828Y185071D01*
X533930Y186415D01*
X532586Y187313D01*
X531000Y187629D01*
D02*
G37*
G36*
X1206000Y206096D02*
X1203711Y205794D01*
X1201577Y204911D01*
X1199745Y203505D01*
X1198339Y201673D01*
X1197456Y199539D01*
X1197154Y197250D01*
X1197456Y194961D01*
X1198339Y192827D01*
X1199745Y190995D01*
X1201577Y189589D01*
X1203711Y188706D01*
X1206000Y188404D01*
X1208289Y188706D01*
X1210423Y189589D01*
X1211193Y190181D01*
X1212384Y189493D01*
X1212154Y187750D01*
X1212456Y185461D01*
X1213339Y183327D01*
X1214745Y181495D01*
X1216577Y180089D01*
X1218711Y179206D01*
X1221000Y178904D01*
X1223289Y179206D01*
X1225423Y180089D01*
X1227255Y181495D01*
X1228661Y183327D01*
X1229544Y185461D01*
X1229846Y187750D01*
X1229544Y190039D01*
X1228661Y192173D01*
X1227255Y194005D01*
X1225423Y195411D01*
X1223289Y196294D01*
X1221000Y196596D01*
X1218711Y196294D01*
X1216577Y195411D01*
X1215807Y194819D01*
X1214616Y195507D01*
X1214846Y197250D01*
X1214544Y199539D01*
X1213661Y201673D01*
X1212255Y203505D01*
X1210423Y204911D01*
X1208289Y205794D01*
X1206000Y206096D01*
D02*
G37*
G36*
X198000Y187144D02*
X196414Y186828D01*
X195070Y185930D01*
X194172Y184586D01*
X193856Y183000D01*
X194172Y181414D01*
X195070Y180070D01*
X196414Y179172D01*
X198000Y178856D01*
X199586Y179172D01*
X200930Y180070D01*
X201828Y181414D01*
X202144Y183000D01*
X201828Y184586D01*
X200930Y185930D01*
X199586Y186828D01*
X198000Y187144D01*
D02*
G37*
G36*
X984000Y187143D02*
X982414Y186828D01*
X981070Y185930D01*
X980172Y184585D01*
X979856Y183000D01*
X980172Y181414D01*
X981070Y180070D01*
X982414Y179172D01*
X984000Y178856D01*
X985586Y179172D01*
X986930Y180070D01*
X987828Y181414D01*
X988144Y183000D01*
X987828Y184585D01*
X986930Y185930D01*
X985586Y186828D01*
X984000Y187143D01*
D02*
G37*
G36*
X850000Y186609D02*
X848414Y186294D01*
X847070Y185395D01*
X846172Y184051D01*
X845856Y182465D01*
X846172Y180880D01*
X847070Y179535D01*
X848414Y178637D01*
X850000Y178322D01*
X851586Y178637D01*
X852930Y179535D01*
X853828Y180880D01*
X854144Y182465D01*
X853828Y184051D01*
X852930Y185395D01*
X851586Y186294D01*
X850000Y186609D01*
D02*
G37*
G36*
X357275Y186144D02*
X355690Y185828D01*
X354345Y184930D01*
X353447Y183586D01*
X353132Y182000D01*
X353447Y180414D01*
X354345Y179070D01*
X355690Y178172D01*
X357275Y177856D01*
X358861Y178172D01*
X360205Y179070D01*
X360795Y179952D01*
X362143Y179684D01*
X362197Y179414D01*
X363095Y178070D01*
X364439Y177171D01*
X366025Y176856D01*
X367611Y177171D01*
X368955Y178070D01*
X369853Y179414D01*
X370168Y181000D01*
X369853Y182585D01*
X368955Y183930D01*
X367611Y184828D01*
X366025Y185143D01*
X364439Y184828D01*
X363095Y183930D01*
X362505Y183048D01*
X361157Y183316D01*
X361103Y183586D01*
X360205Y184930D01*
X358861Y185828D01*
X357275Y186144D01*
D02*
G37*
G36*
X410000Y183477D02*
X408415Y183162D01*
X407071Y182264D01*
X406172Y180919D01*
X405857Y179333D01*
X406172Y177748D01*
X407071Y176404D01*
X408415Y175505D01*
X410000Y175190D01*
X411586Y175505D01*
X412930Y176404D01*
X413829Y177748D01*
X414144Y179333D01*
X413829Y180919D01*
X412930Y182264D01*
X411586Y183162D01*
X410000Y183477D01*
D02*
G37*
G36*
X177858Y182683D02*
X176272Y182368D01*
X174928Y181470D01*
X174030Y180125D01*
X173714Y178540D01*
X174030Y176954D01*
X174928Y175610D01*
X176272Y174711D01*
X177858Y174396D01*
X179444Y174711D01*
X180788Y175610D01*
X181686Y176954D01*
X182001Y178540D01*
X181686Y180125D01*
X180788Y181470D01*
X179444Y182368D01*
X177858Y182683D01*
D02*
G37*
G36*
X838522Y180144D02*
X836936Y179828D01*
X835592Y178930D01*
X834694Y177586D01*
X834378Y176000D01*
X834694Y174414D01*
X835592Y173070D01*
X836936Y172172D01*
X838522Y171856D01*
X840108Y172172D01*
X841452Y173070D01*
X842350Y174414D01*
X842666Y176000D01*
X842350Y177586D01*
X841452Y178930D01*
X840108Y179828D01*
X838522Y180144D01*
D02*
G37*
G36*
X545000Y187144D02*
X543414Y186828D01*
X542070Y185930D01*
X541172Y184586D01*
X540856Y183000D01*
X541172Y181414D01*
X542070Y180070D01*
X543028Y179430D01*
X543178Y178212D01*
X543115Y177960D01*
X543070Y177930D01*
X542172Y176586D01*
X541856Y175000D01*
X542172Y173414D01*
X543070Y172070D01*
X544414Y171172D01*
X546000Y170856D01*
X547586Y171172D01*
X548930Y172070D01*
X549828Y173414D01*
X550144Y175000D01*
X549828Y176586D01*
X548930Y177930D01*
X547972Y178570D01*
X547822Y179788D01*
X547885Y180040D01*
X547930Y180070D01*
X548828Y181414D01*
X549144Y183000D01*
X548828Y184586D01*
X547930Y185930D01*
X546586Y186828D01*
X545000Y187144D01*
D02*
G37*
G36*
X724000Y178478D02*
X722414Y178162D01*
X721070Y177264D01*
X720172Y175920D01*
X719856Y174334D01*
X720172Y172748D01*
X721070Y171404D01*
X722414Y170506D01*
X724000Y170190D01*
X725586Y170506D01*
X726930Y171404D01*
X727828Y172748D01*
X728144Y174334D01*
X727828Y175920D01*
X726930Y177264D01*
X725586Y178162D01*
X724000Y178478D01*
D02*
G37*
G36*
X959000Y180144D02*
X957414Y179828D01*
X956070Y178930D01*
X955172Y177586D01*
X954856Y176000D01*
X955172Y174414D01*
X956070Y173070D01*
X957414Y172172D01*
X959000Y171856D01*
X960586Y172172D01*
X961635Y172873D01*
X962660Y172580D01*
X962983Y172362D01*
X963172Y171414D01*
X964070Y170070D01*
X965414Y169172D01*
X967000Y168856D01*
X968586Y169172D01*
X969930Y170070D01*
X970828Y171414D01*
X971144Y173000D01*
X970828Y174586D01*
X969930Y175930D01*
X968586Y176828D01*
X967000Y177144D01*
X965414Y176828D01*
X964365Y176127D01*
X963340Y176420D01*
X963017Y176637D01*
X962828Y177586D01*
X961930Y178930D01*
X960586Y179828D01*
X959000Y180144D01*
D02*
G37*
G36*
X596284Y174637D02*
X594699Y174322D01*
X593354Y173424D01*
X592456Y172079D01*
X592141Y170494D01*
X592456Y168908D01*
X593354Y167564D01*
X594699Y166665D01*
X596284Y166350D01*
X597870Y166665D01*
X599214Y167564D01*
X600112Y168908D01*
X600428Y170494D01*
X600112Y172079D01*
X599214Y173424D01*
X597870Y174322D01*
X596284Y174637D01*
D02*
G37*
G36*
X757006Y173644D02*
X755421Y173328D01*
X754076Y172430D01*
X753178Y171086D01*
X752863Y169500D01*
X753178Y167914D01*
X754076Y166570D01*
X755421Y165672D01*
X757006Y165356D01*
X758592Y165672D01*
X759936Y166570D01*
X760835Y167914D01*
X761150Y169500D01*
X760835Y171086D01*
X759936Y172430D01*
X758592Y173328D01*
X757006Y173644D01*
D02*
G37*
G36*
X614000Y169144D02*
X612414Y168828D01*
X611070Y167930D01*
X610172Y166586D01*
X609856Y165000D01*
X610033Y164112D01*
X609026Y163018D01*
X608392Y163144D01*
X606806Y162828D01*
X605462Y161930D01*
X604564Y160586D01*
X604248Y159000D01*
X604564Y157414D01*
X605462Y156070D01*
X606806Y155172D01*
X608392Y154856D01*
X609978Y155172D01*
X611322Y156070D01*
X612220Y157414D01*
X612536Y159000D01*
X612359Y159888D01*
X613366Y160982D01*
X614000Y160856D01*
X615586Y161172D01*
X616930Y162070D01*
X617828Y163414D01*
X618144Y165000D01*
X617828Y166586D01*
X616930Y167930D01*
X615586Y168828D01*
X614000Y169144D01*
D02*
G37*
G36*
X829000Y170144D02*
X827414Y169828D01*
X826070Y168930D01*
X825172Y167586D01*
X824856Y166000D01*
X825172Y164414D01*
X826070Y163070D01*
X827414Y162172D01*
X829000Y161856D01*
X830586Y162172D01*
X831930Y163070D01*
X832828Y164414D01*
X833144Y166000D01*
X832828Y167586D01*
X831930Y168930D01*
X830586Y169828D01*
X829000Y170144D01*
D02*
G37*
G36*
X596999Y165143D02*
X595413Y164828D01*
X594069Y163930D01*
X593171Y162585D01*
X592855Y161000D01*
X593171Y159414D01*
X594069Y158070D01*
X595413Y157171D01*
X596999Y156856D01*
X598585Y157171D01*
X599929Y158070D01*
X600827Y159414D01*
X601142Y161000D01*
X600827Y162585D01*
X599929Y163930D01*
X598585Y164828D01*
X596999Y165143D01*
D02*
G37*
G36*
X1063793Y162478D02*
X1062207Y162162D01*
X1060863Y161264D01*
X1059965Y159920D01*
X1059650Y158334D01*
X1059965Y156748D01*
X1060863Y155404D01*
X1062207Y154506D01*
X1063793Y154190D01*
X1065379Y154506D01*
X1066723Y155404D01*
X1067621Y156748D01*
X1067937Y158334D01*
X1067621Y159920D01*
X1066723Y161264D01*
X1065379Y162162D01*
X1063793Y162478D01*
D02*
G37*
G36*
X632000Y162144D02*
X630414Y161828D01*
X629070Y160930D01*
X628172Y159586D01*
X627856Y158000D01*
X628172Y156414D01*
X629070Y155070D01*
X630414Y154172D01*
X632000Y153856D01*
X633586Y154172D01*
X634930Y155070D01*
X635828Y156414D01*
X636144Y158000D01*
X635828Y159586D01*
X634930Y160930D01*
X633586Y161828D01*
X632000Y162144D01*
D02*
G37*
G36*
X729000Y162099D02*
X727414Y161783D01*
X726070Y160885D01*
X725172Y159541D01*
X724856Y157955D01*
X725172Y156369D01*
X726070Y155025D01*
X727414Y154127D01*
X729000Y153811D01*
X730586Y154127D01*
X731930Y155025D01*
X732828Y156369D01*
X733144Y157955D01*
X732828Y159541D01*
X731930Y160885D01*
X730586Y161783D01*
X729000Y162099D01*
D02*
G37*
G36*
X152500Y160144D02*
X150914Y159829D01*
X149570Y158930D01*
X148672Y157586D01*
X148356Y156000D01*
X148672Y154415D01*
X149570Y153070D01*
X150914Y152172D01*
X152500Y151857D01*
X154086Y152172D01*
X155430Y153070D01*
X156328Y154415D01*
X156644Y156000D01*
X156328Y157586D01*
X155430Y158930D01*
X154086Y159829D01*
X152500Y160144D01*
D02*
G37*
G36*
X644000Y158144D02*
X642414Y157828D01*
X641070Y156930D01*
X640172Y155586D01*
X639856Y154000D01*
X640172Y152414D01*
X641070Y151070D01*
X642414Y150172D01*
X644000Y149856D01*
X645586Y150172D01*
X646930Y151070D01*
X647828Y152414D01*
X648144Y154000D01*
X647828Y155586D01*
X646930Y156930D01*
X645586Y157828D01*
X644000Y158144D01*
D02*
G37*
G36*
X207500D02*
X205914Y157828D01*
X204570Y156930D01*
X203672Y155586D01*
X203356Y154000D01*
X203672Y152414D01*
X204570Y151070D01*
X205914Y150172D01*
X207500Y149856D01*
X209086Y150172D01*
X210430Y151070D01*
X211328Y152414D01*
X211644Y154000D01*
X211328Y155586D01*
X210430Y156930D01*
X209086Y157828D01*
X207500Y158144D01*
D02*
G37*
G36*
X621000Y157334D02*
X619414Y157018D01*
X618070Y156120D01*
X617172Y154776D01*
X616856Y153190D01*
X617172Y151604D01*
X618070Y150260D01*
X619414Y149362D01*
X621000Y149046D01*
X622586Y149362D01*
X623930Y150260D01*
X624828Y151604D01*
X625144Y153190D01*
X624828Y154776D01*
X623930Y156120D01*
X622586Y157018D01*
X621000Y157334D01*
D02*
G37*
G36*
X1033000Y157144D02*
X1031414Y156828D01*
X1030070Y155930D01*
X1029172Y154586D01*
X1028856Y153000D01*
X1029172Y151414D01*
X1030070Y150070D01*
X1031414Y149172D01*
X1033000Y148856D01*
X1034586Y149172D01*
X1035930Y150070D01*
X1036828Y151414D01*
X1037144Y153000D01*
X1036828Y154586D01*
X1035930Y155930D01*
X1034586Y156828D01*
X1033000Y157144D01*
D02*
G37*
G36*
X844608Y150797D02*
X843023Y150482D01*
X841678Y149583D01*
X840780Y148239D01*
X840465Y146653D01*
X840780Y145068D01*
X841678Y143723D01*
X843023Y142825D01*
X844608Y142510D01*
X846194Y142825D01*
X847538Y143723D01*
X848437Y145068D01*
X848752Y146653D01*
X848437Y148239D01*
X847538Y149583D01*
X846194Y150482D01*
X844608Y150797D01*
D02*
G37*
G36*
X154000Y144144D02*
X152414Y143828D01*
X151070Y142930D01*
X150172Y141586D01*
X149856Y140000D01*
X150172Y138414D01*
X151070Y137070D01*
X152414Y136172D01*
X154000Y135856D01*
X155586Y136172D01*
X156930Y137070D01*
X157828Y138414D01*
X158144Y140000D01*
X157828Y141586D01*
X156930Y142930D01*
X155586Y143828D01*
X154000Y144144D01*
D02*
G37*
G36*
X207500Y143144D02*
X205914Y142828D01*
X204570Y141930D01*
X203672Y140586D01*
X203356Y139000D01*
X203672Y137414D01*
X204570Y136070D01*
X205914Y135172D01*
X207500Y134856D01*
X209086Y135172D01*
X210430Y136070D01*
X211328Y137414D01*
X211644Y139000D01*
X211328Y140586D01*
X210430Y141930D01*
X209086Y142828D01*
X207500Y143144D01*
D02*
G37*
G36*
X606000Y138144D02*
X604414Y137828D01*
X603070Y136930D01*
X602172Y135586D01*
X601856Y134000D01*
X601970Y133431D01*
X600827Y132667D01*
X600586Y132828D01*
X599000Y133144D01*
X597414Y132828D01*
X596070Y131930D01*
X595172Y130586D01*
X594856Y129000D01*
X595172Y127414D01*
X596070Y126070D01*
X597414Y125172D01*
X599000Y124856D01*
X600586Y125172D01*
X601930Y126070D01*
X602828Y127414D01*
X603144Y129000D01*
X603030Y129569D01*
X604173Y130333D01*
X604414Y130172D01*
X606000Y129856D01*
X607586Y130172D01*
X608930Y131070D01*
X609828Y132414D01*
X610144Y134000D01*
X609828Y135586D01*
X608930Y136930D01*
X607586Y137828D01*
X606000Y138144D01*
D02*
G37*
G36*
X737000Y139144D02*
X735414Y138828D01*
X734070Y137930D01*
X733172Y136586D01*
X732856Y135000D01*
X733172Y133414D01*
X734070Y132070D01*
X735414Y131172D01*
X737000Y130856D01*
X738586Y131172D01*
X739930Y132070D01*
X740828Y133414D01*
X741144Y135000D01*
X740828Y136586D01*
X739930Y137930D01*
X738586Y138828D01*
X737000Y139144D01*
D02*
G37*
G36*
X1077000Y135657D02*
X1075414Y135341D01*
X1074070Y134443D01*
X1073172Y133099D01*
X1072856Y131513D01*
X1073172Y129927D01*
X1074070Y128583D01*
X1075414Y127685D01*
X1077000Y127369D01*
X1078586Y127685D01*
X1079930Y128583D01*
X1080828Y129927D01*
X1081144Y131513D01*
X1080828Y133099D01*
X1079930Y134443D01*
X1078586Y135341D01*
X1077000Y135657D01*
D02*
G37*
G36*
X632278Y128144D02*
X630692Y127828D01*
X629423Y126980D01*
X629061Y126818D01*
X628003D01*
X627929Y126930D01*
X626584Y127828D01*
X624999Y128143D01*
X623413Y127828D01*
X622069Y126930D01*
X621171Y125585D01*
X620855Y124000D01*
X621171Y122414D01*
X622069Y121070D01*
X623413Y120171D01*
X624999Y119856D01*
X626584Y120171D01*
X627854Y121020D01*
X628216Y121182D01*
X629273D01*
X629348Y121070D01*
X630692Y120172D01*
X632278Y119856D01*
X633864Y120172D01*
X635208Y121070D01*
X636106Y122414D01*
X636422Y124000D01*
X636106Y125586D01*
X635208Y126930D01*
X633864Y127828D01*
X632278Y128144D01*
D02*
G37*
G36*
X746393Y134644D02*
X744807Y134329D01*
X743463Y133431D01*
X742564Y132086D01*
X742249Y130501D01*
X742564Y128915D01*
X743463Y127571D01*
X744807Y126672D01*
X746393Y126357D01*
X747978Y126672D01*
X749323Y127571D01*
X750221Y128915D01*
X750536Y130501D01*
X750221Y132086D01*
X749323Y133431D01*
X747978Y134329D01*
X746393Y134644D01*
D02*
G37*
G36*
X196000Y133644D02*
X194414Y133328D01*
X193070Y132430D01*
X192172Y131086D01*
X191856Y129500D01*
X192172Y127914D01*
X193070Y126570D01*
X194414Y125672D01*
X196000Y125356D01*
X197586Y125672D01*
X198930Y126570D01*
X199828Y127914D01*
X200144Y129500D01*
X199828Y131086D01*
X198930Y132430D01*
X197586Y133328D01*
X196000Y133644D01*
D02*
G37*
G36*
X1112856Y138000D02*
X1111270Y137684D01*
X1109926Y136786D01*
X1109028Y135442D01*
X1108712Y133856D01*
X1109028Y132270D01*
X1109926Y130926D01*
X1111270Y130028D01*
X1112856Y129712D01*
X1113736Y129887D01*
X1114832Y129017D01*
X1114871Y128917D01*
X1115170Y127414D01*
X1116068Y126070D01*
X1117412Y125171D01*
X1118998Y124856D01*
X1120583Y125171D01*
X1121928Y126070D01*
X1122826Y127414D01*
X1123141Y129000D01*
X1122826Y130585D01*
X1121928Y131930D01*
X1120583Y132828D01*
X1118998Y133143D01*
X1118118Y132968D01*
X1117022Y133838D01*
X1116983Y133939D01*
X1116684Y135442D01*
X1115786Y136786D01*
X1114442Y137684D01*
X1112856Y138000D01*
D02*
G37*
G36*
X1206000Y141596D02*
X1203711Y141294D01*
X1201577Y140411D01*
X1199745Y139005D01*
X1198339Y137173D01*
X1197456Y135039D01*
X1197154Y132750D01*
X1197456Y130461D01*
X1198339Y128327D01*
X1199745Y126495D01*
X1201577Y125089D01*
X1203711Y124206D01*
X1206000Y123904D01*
X1208289Y124206D01*
X1210423Y125089D01*
X1212255Y126495D01*
X1213661Y128327D01*
X1214544Y130461D01*
X1214846Y132750D01*
X1214544Y135039D01*
X1213661Y137173D01*
X1212255Y139005D01*
X1210423Y140411D01*
X1208289Y141294D01*
X1206000Y141596D01*
D02*
G37*
G36*
X74000D02*
X71711Y141294D01*
X69577Y140411D01*
X67745Y139005D01*
X66339Y137173D01*
X65456Y135039D01*
X65154Y132750D01*
X65456Y130461D01*
X66339Y128327D01*
X67745Y126495D01*
X69577Y125089D01*
X71711Y124206D01*
X74000Y123904D01*
X76289Y124206D01*
X78423Y125089D01*
X80255Y126495D01*
X81661Y128327D01*
X82544Y130461D01*
X82846Y132750D01*
X82544Y135039D01*
X81661Y137173D01*
X80255Y139005D01*
X78423Y140411D01*
X76289Y141294D01*
X74000Y141596D01*
D02*
G37*
G36*
X651582Y129144D02*
X649996Y128828D01*
X648652Y127930D01*
X647754Y126586D01*
X647438Y125000D01*
X647754Y123414D01*
X648652Y122070D01*
X649996Y121172D01*
X651582Y120856D01*
X653168Y121172D01*
X654512Y122070D01*
X655410Y123414D01*
X655726Y125000D01*
X655410Y126586D01*
X654512Y127930D01*
X653168Y128828D01*
X651582Y129144D01*
D02*
G37*
G36*
X547411Y128291D02*
X545826Y127975D01*
X544482Y127077D01*
X543583Y125733D01*
X543268Y124147D01*
X543583Y122561D01*
X544482Y121217D01*
X545826Y120319D01*
X547411Y120003D01*
X548997Y120319D01*
X550341Y121217D01*
X551240Y122561D01*
X551555Y124147D01*
X551240Y125733D01*
X550341Y127077D01*
X548997Y127975D01*
X547411Y128291D01*
D02*
G37*
G36*
X830000Y128291D02*
X828414Y127975D01*
X827070Y127077D01*
X826172Y125733D01*
X825856Y124147D01*
X826172Y122561D01*
X827070Y121217D01*
X828414Y120319D01*
X830000Y120003D01*
X831586Y120319D01*
X832930Y121217D01*
X833828Y122561D01*
X834144Y124147D01*
X833828Y125733D01*
X832930Y127077D01*
X831586Y127975D01*
X830000Y128291D01*
D02*
G37*
G36*
X691000D02*
X689414Y127975D01*
X688070Y127077D01*
X687172Y125733D01*
X686856Y124147D01*
X687172Y122561D01*
X688070Y121217D01*
X689414Y120319D01*
X691000Y120003D01*
X692586Y120319D01*
X693930Y121217D01*
X694828Y122561D01*
X695144Y124147D01*
X694828Y125733D01*
X693930Y127077D01*
X692586Y127975D01*
X691000Y128291D01*
D02*
G37*
G36*
X178000Y128144D02*
X176415Y127828D01*
X175070Y126930D01*
X174172Y125586D01*
X173857Y124000D01*
X174172Y122414D01*
X175070Y121070D01*
X176415Y120172D01*
X178000Y119856D01*
X179586Y120172D01*
X180930Y121070D01*
X181828Y122414D01*
X182144Y124000D01*
X181828Y125586D01*
X180930Y126930D01*
X179586Y127828D01*
X178000Y128144D01*
D02*
G37*
G36*
X587000Y127144D02*
X585414Y126828D01*
X584070Y125930D01*
X583172Y124586D01*
X582856Y123000D01*
X583172Y121414D01*
X584070Y120070D01*
X585414Y119172D01*
X587000Y118856D01*
X588586Y119172D01*
X589930Y120070D01*
X590828Y121414D01*
X591144Y123000D01*
X590828Y124586D01*
X589930Y125930D01*
X588586Y126828D01*
X587000Y127144D01*
D02*
G37*
G36*
X1122000Y123144D02*
X1120414Y122828D01*
X1119070Y121930D01*
X1118172Y120586D01*
X1117856Y119000D01*
X1118172Y117414D01*
X1119070Y116070D01*
X1120414Y115172D01*
X1122000Y114856D01*
X1123586Y115172D01*
X1124930Y116070D01*
X1125828Y117414D01*
X1126144Y119000D01*
X1125828Y120586D01*
X1124930Y121930D01*
X1123586Y122828D01*
X1122000Y123144D01*
D02*
G37*
G36*
X1061000Y121144D02*
X1059414Y120828D01*
X1058070Y119930D01*
X1057172Y118586D01*
X1056856Y117000D01*
X1057172Y115414D01*
X1058070Y114070D01*
X1059414Y113172D01*
X1061000Y112856D01*
X1062586Y113172D01*
X1063930Y114070D01*
X1064828Y115414D01*
X1065144Y117000D01*
X1064828Y118586D01*
X1063930Y119930D01*
X1062586Y120828D01*
X1061000Y121144D01*
D02*
G37*
G36*
X1029000D02*
X1027414Y120828D01*
X1026070Y119930D01*
X1025172Y118586D01*
X1024857Y117000D01*
X1025172Y115414D01*
X1026070Y114070D01*
X1027414Y113172D01*
X1029000Y112856D01*
X1030586Y113172D01*
X1031930Y114070D01*
X1032828Y115414D01*
X1033144Y117000D01*
X1032828Y118586D01*
X1031930Y119930D01*
X1030586Y120828D01*
X1029000Y121144D01*
D02*
G37*
G36*
X414000Y116144D02*
X412414Y115828D01*
X411070Y114930D01*
X410172Y113586D01*
X409856Y112000D01*
X410172Y110414D01*
X411070Y109070D01*
X412414Y108172D01*
X414000Y107856D01*
X415586Y108172D01*
X416930Y109070D01*
X417828Y110414D01*
X418144Y112000D01*
X417828Y113586D01*
X416930Y114930D01*
X415586Y115828D01*
X414000Y116144D01*
D02*
G37*
G36*
X1134099Y114111D02*
X1132513Y113795D01*
X1131169Y112897D01*
X1130271Y111553D01*
X1129955Y109967D01*
X1130271Y108381D01*
X1131169Y107037D01*
X1132513Y106139D01*
X1134099Y105823D01*
X1135685Y106139D01*
X1137029Y107037D01*
X1137927Y108381D01*
X1138243Y109967D01*
X1137927Y111553D01*
X1137029Y112897D01*
X1135685Y113795D01*
X1134099Y114111D01*
D02*
G37*
G36*
X1048000Y108144D02*
X1046414Y107828D01*
X1045070Y106930D01*
X1044172Y105586D01*
X1043856Y104000D01*
X1044043Y103061D01*
X1043057Y101971D01*
X1042190Y102144D01*
X1040873Y101882D01*
X1040848Y101892D01*
X1040142Y102484D01*
X1039872Y102866D01*
X1040086Y103943D01*
X1039771Y105528D01*
X1038873Y106873D01*
X1037528Y107771D01*
X1035943Y108086D01*
X1034357Y107771D01*
X1033013Y106873D01*
X1032114Y105528D01*
X1031799Y103943D01*
X1030690Y103006D01*
X1030000Y103144D01*
X1028414Y102828D01*
X1027070Y101930D01*
X1026172Y100586D01*
X1025856Y99000D01*
X1026172Y97414D01*
X1027070Y96070D01*
X1028414Y95172D01*
X1030000Y94856D01*
X1031586Y95172D01*
X1032930Y96070D01*
X1033828Y97414D01*
X1034144Y99000D01*
X1035252Y99936D01*
X1035943Y99799D01*
X1037260Y100061D01*
X1037284Y100051D01*
X1037991Y99459D01*
X1038260Y99076D01*
X1038046Y98000D01*
X1038362Y96414D01*
X1039260Y95070D01*
X1040604Y94172D01*
X1042190Y93856D01*
X1043776Y94172D01*
X1045120Y95070D01*
X1046018Y96414D01*
X1046334Y98000D01*
X1046147Y98939D01*
X1047133Y100029D01*
X1048000Y99856D01*
X1049586Y100172D01*
X1050930Y101070D01*
X1051828Y102414D01*
X1052144Y104000D01*
X1051828Y105586D01*
X1050930Y106930D01*
X1049586Y107828D01*
X1048000Y108144D01*
D02*
G37*
G36*
X592999Y110143D02*
X591413Y109828D01*
X590069Y108930D01*
X589171Y107585D01*
X588855Y106000D01*
X589171Y104414D01*
X590069Y103070D01*
X591413Y102172D01*
X592999Y101856D01*
X594585Y102172D01*
X595929Y103070D01*
X596827Y104414D01*
X597142Y106000D01*
X596827Y107585D01*
X595929Y108930D01*
X594585Y109828D01*
X592999Y110143D01*
D02*
G37*
G36*
X692999Y112143D02*
X691413Y111828D01*
X690069Y110930D01*
X689170Y109586D01*
X688855Y108000D01*
X689170Y106414D01*
X690069Y105070D01*
X691413Y104172D01*
X692999Y103856D01*
X694584Y104172D01*
X695580Y104837D01*
X696691Y104547D01*
X696971Y104355D01*
X697077Y103820D01*
X697976Y102476D01*
X699320Y101578D01*
X700906Y101262D01*
X702492Y101578D01*
X703836Y102476D01*
X704734Y103820D01*
X705049Y105406D01*
X704734Y106991D01*
X703836Y108336D01*
X702492Y109234D01*
X700906Y109549D01*
X699320Y109234D01*
X698324Y108568D01*
X697214Y108858D01*
X696933Y109050D01*
X696827Y109586D01*
X695929Y110930D01*
X694584Y111828D01*
X692999Y112143D01*
D02*
G37*
G36*
X783500Y112644D02*
X781914Y112329D01*
X780570Y111430D01*
X779671Y110086D01*
X779356Y108500D01*
X779475Y107902D01*
X779448Y106836D01*
X778553Y106522D01*
X777859Y106384D01*
X776514Y105486D01*
X775616Y104141D01*
X775301Y102556D01*
X775616Y100970D01*
X776514Y99626D01*
X777859Y98728D01*
X779444Y98412D01*
X781030Y98728D01*
X782374Y99626D01*
X783272Y100970D01*
X783588Y102556D01*
X783469Y103154D01*
X783496Y104220D01*
X784391Y104534D01*
X785085Y104672D01*
X786430Y105570D01*
X787328Y106915D01*
X787643Y108500D01*
X787328Y110086D01*
X786430Y111430D01*
X785085Y112329D01*
X783500Y112644D01*
D02*
G37*
G36*
X171000Y106644D02*
X169414Y106328D01*
X168070Y105430D01*
X167172Y104086D01*
X166856Y102500D01*
X167172Y100914D01*
X168070Y99570D01*
X169414Y98672D01*
X171000Y98356D01*
X172586Y98672D01*
X173930Y99570D01*
X174828Y100914D01*
X175144Y102500D01*
X174828Y104086D01*
X173930Y105430D01*
X172586Y106328D01*
X171000Y106644D01*
D02*
G37*
G36*
X1192500Y106144D02*
X1190914Y105828D01*
X1189570Y104930D01*
X1188672Y103586D01*
X1188356Y102000D01*
X1188672Y100414D01*
X1189570Y99070D01*
X1190914Y98172D01*
X1192500Y97856D01*
X1194086Y98172D01*
X1195430Y99070D01*
X1196328Y100414D01*
X1196644Y102000D01*
X1196328Y103586D01*
X1195430Y104930D01*
X1194086Y105828D01*
X1192500Y106144D01*
D02*
G37*
G36*
X619070Y102214D02*
X617484Y101898D01*
X616140Y101000D01*
X615242Y99656D01*
X614926Y98070D01*
X615242Y96484D01*
X616140Y95140D01*
X617484Y94242D01*
X619070Y93926D01*
X620656Y94242D01*
X622000Y95140D01*
X622898Y96484D01*
X623214Y98070D01*
X622898Y99656D01*
X622000Y101000D01*
X620656Y101898D01*
X619070Y102214D01*
D02*
G37*
G36*
X1107000Y99144D02*
X1105414Y98828D01*
X1104070Y97930D01*
X1103172Y96586D01*
X1102856Y95000D01*
X1103172Y93414D01*
X1104070Y92070D01*
X1105414Y91172D01*
X1107000Y90856D01*
X1108586Y91172D01*
X1109930Y92070D01*
X1110828Y93414D01*
X1111144Y95000D01*
X1110828Y96586D01*
X1109930Y97930D01*
X1108586Y98828D01*
X1107000Y99144D01*
D02*
G37*
G36*
X1127334Y93144D02*
X1125748Y92828D01*
X1124404Y91930D01*
X1123506Y90586D01*
X1123190Y89000D01*
X1123506Y87414D01*
X1124404Y86070D01*
X1125748Y85172D01*
X1127334Y84856D01*
X1128920Y85172D01*
X1130264Y86070D01*
X1131162Y87414D01*
X1131478Y89000D01*
X1131162Y90586D01*
X1130264Y91930D01*
X1128920Y92828D01*
X1127334Y93144D01*
D02*
G37*
G36*
X779000Y91144D02*
X777414Y90828D01*
X776070Y89930D01*
X775172Y88586D01*
X774856Y87000D01*
X775172Y85414D01*
X776070Y84070D01*
X777414Y83172D01*
X779000Y82856D01*
X780586Y83172D01*
X781930Y84070D01*
X782828Y85414D01*
X783144Y87000D01*
X782828Y88586D01*
X781930Y89930D01*
X780586Y90828D01*
X779000Y91144D01*
D02*
G37*
G36*
X399971Y90954D02*
X398386Y90639D01*
X397041Y89741D01*
X396143Y88396D01*
X395828Y86811D01*
X396143Y85225D01*
X397041Y83881D01*
X398386Y82982D01*
X399971Y82667D01*
X401557Y82982D01*
X402901Y83881D01*
X403800Y85225D01*
X404115Y86811D01*
X403800Y88396D01*
X402901Y89741D01*
X401557Y90639D01*
X399971Y90954D01*
D02*
G37*
G36*
X425000Y90144D02*
X423414Y89828D01*
X422070Y88930D01*
X421172Y87586D01*
X420856Y86000D01*
X421172Y84414D01*
X422070Y83070D01*
X423414Y82172D01*
X425000Y81856D01*
X426586Y82172D01*
X427930Y83070D01*
X428828Y84414D01*
X429144Y86000D01*
X428828Y87586D01*
X427930Y88930D01*
X426586Y89828D01*
X425000Y90144D01*
D02*
G37*
G36*
X807000Y83144D02*
X805415Y82828D01*
X804070Y81930D01*
X803172Y80586D01*
X802857Y79000D01*
X803172Y77414D01*
X804070Y76070D01*
X805415Y75172D01*
X807000Y74857D01*
X808586Y75172D01*
X809930Y76070D01*
X810828Y77414D01*
X811144Y79000D01*
X810828Y80586D01*
X809930Y81930D01*
X808586Y82828D01*
X807000Y83144D01*
D02*
G37*
G36*
X425750Y80143D02*
X424164Y79828D01*
X422820Y78930D01*
X421922Y77586D01*
X421606Y76000D01*
X421922Y74414D01*
X422820Y73070D01*
X424164Y72172D01*
X425750Y71856D01*
X427335Y72172D01*
X428680Y73070D01*
X429578Y74414D01*
X429893Y76000D01*
X429578Y77586D01*
X428680Y78930D01*
X427335Y79828D01*
X425750Y80143D01*
D02*
G37*
G36*
X990500Y82846D02*
X988211Y82544D01*
X986077Y81661D01*
X984245Y80255D01*
X982840Y78423D01*
X981956Y76289D01*
X981655Y74000D01*
X981956Y71711D01*
X982840Y69577D01*
X984245Y67745D01*
X986077Y66339D01*
X988211Y65456D01*
X990500Y65154D01*
X992790Y65456D01*
X994923Y66339D01*
X996755Y67745D01*
X998161Y69577D01*
X999044Y71711D01*
X999346Y74000D01*
X999044Y76289D01*
X998161Y78423D01*
X996755Y80255D01*
X994923Y81661D01*
X992790Y82544D01*
X990500Y82846D01*
D02*
G37*
G36*
X901000D02*
X898711Y82544D01*
X896577Y81661D01*
X894745Y80255D01*
X893340Y78423D01*
X892456Y76289D01*
X892155Y74000D01*
X892456Y71711D01*
X893340Y69577D01*
X894745Y67745D01*
X896577Y66339D01*
X898711Y65456D01*
X901000Y65154D01*
X903290Y65456D01*
X905423Y66339D01*
X907255Y67745D01*
X908661Y69577D01*
X909545Y71711D01*
X909846Y74000D01*
X909545Y76289D01*
X908661Y78423D01*
X907255Y80255D01*
X905423Y81661D01*
X903290Y82544D01*
X901000Y82846D01*
D02*
G37*
G36*
X344750D02*
X342461Y82544D01*
X340327Y81661D01*
X338495Y80255D01*
X337089Y78423D01*
X336206Y76289D01*
X335904Y74000D01*
X336206Y71711D01*
X337089Y69577D01*
X338495Y67745D01*
X340327Y66339D01*
X342461Y65456D01*
X344750Y65154D01*
X347039Y65456D01*
X349173Y66339D01*
X351005Y67745D01*
X352411Y69577D01*
X353294Y71711D01*
X353596Y74000D01*
X353294Y76289D01*
X352411Y78423D01*
X351005Y80255D01*
X349173Y81661D01*
X347039Y82544D01*
X344750Y82846D01*
D02*
G37*
G36*
X255250D02*
X252961Y82544D01*
X250827Y81661D01*
X248995Y80255D01*
X247589Y78423D01*
X246706Y76289D01*
X246404Y74000D01*
X246706Y71711D01*
X247589Y69577D01*
X248995Y67745D01*
X250827Y66339D01*
X252961Y65456D01*
X255250Y65154D01*
X257539Y65456D01*
X259673Y66339D01*
X261505Y67745D01*
X262911Y69577D01*
X263794Y71711D01*
X264096Y74000D01*
X263794Y76289D01*
X262911Y78423D01*
X261505Y80255D01*
X259673Y81661D01*
X257539Y82544D01*
X255250Y82846D01*
D02*
G37*
G36*
X189000D02*
X186711Y82544D01*
X184577Y81661D01*
X182745Y80255D01*
X181339Y78423D01*
X180456Y76289D01*
X180154Y74000D01*
X180456Y71711D01*
X181339Y69577D01*
X182745Y67745D01*
X184577Y66339D01*
X186711Y65456D01*
X189000Y65154D01*
X191289Y65456D01*
X193423Y66339D01*
X195255Y67745D01*
X196661Y69577D01*
X197544Y71711D01*
X197846Y74000D01*
X197544Y76289D01*
X196661Y78423D01*
X195255Y80255D01*
X193423Y81661D01*
X191289Y82544D01*
X189000Y82846D01*
D02*
G37*
G36*
X124500D02*
X122211Y82544D01*
X120077Y81661D01*
X118245Y80255D01*
X116839Y78423D01*
X115956Y76289D01*
X115654Y74000D01*
X115956Y71711D01*
X116839Y69577D01*
X118245Y67745D01*
X120077Y66339D01*
X122211Y65456D01*
X124500Y65154D01*
X126789Y65456D01*
X128923Y66339D01*
X130755Y67745D01*
X132161Y69577D01*
X133044Y71711D01*
X133346Y74000D01*
X133044Y76289D01*
X132161Y78423D01*
X130755Y80255D01*
X128923Y81661D01*
X126789Y82544D01*
X124500Y82846D01*
D02*
G37*
G36*
X1046250Y77924D02*
X1044665Y77609D01*
X1043320Y76711D01*
X1042422Y75367D01*
X1042107Y73781D01*
X1042422Y72195D01*
X1043320Y70851D01*
X1043575Y70681D01*
Y69411D01*
X1043320Y69241D01*
X1042422Y67897D01*
X1042107Y66311D01*
X1042422Y64726D01*
X1043320Y63381D01*
X1044665Y62483D01*
X1046250Y62168D01*
X1047836Y62483D01*
X1049180Y63381D01*
X1050079Y64726D01*
X1050394Y66311D01*
X1050079Y67897D01*
X1049180Y69241D01*
X1048926Y69411D01*
Y70681D01*
X1049180Y70851D01*
X1050079Y72195D01*
X1050394Y73781D01*
X1050079Y75367D01*
X1049180Y76711D01*
X1047836Y77609D01*
X1046250Y77924D01*
D02*
G37*
G36*
X400722Y70455D02*
X399136Y70139D01*
X397792Y69241D01*
X396893Y67897D01*
X396578Y66311D01*
X396893Y64726D01*
X397792Y63381D01*
X399136Y62483D01*
X400722Y62168D01*
X402307Y62483D01*
X403652Y63381D01*
X404550Y64726D01*
X404865Y66311D01*
X404550Y67897D01*
X403652Y69241D01*
X402307Y70139D01*
X400722Y70455D01*
D02*
G37*
G36*
X426000Y70143D02*
X424414Y69828D01*
X423070Y68930D01*
X422172Y67586D01*
X421856Y66000D01*
X422172Y64414D01*
X423070Y63070D01*
X424414Y62172D01*
X426000Y61856D01*
X427586Y62172D01*
X428930Y63070D01*
X429828Y64414D01*
X430144Y66000D01*
X429828Y67586D01*
X428930Y68930D01*
X427586Y69828D01*
X426000Y70143D01*
D02*
G37*
G36*
X781722Y69396D02*
X780136Y69080D01*
X778792Y68182D01*
X777893Y66838D01*
X777578Y65252D01*
X777893Y63666D01*
X778792Y62322D01*
X780136Y61424D01*
X781722Y61108D01*
X783307Y61424D01*
X784652Y62322D01*
X785550Y63666D01*
X785865Y65252D01*
X785550Y66838D01*
X784652Y68182D01*
X783307Y69080D01*
X781722Y69396D01*
D02*
G37*
G36*
X807000Y69085D02*
X805415Y68769D01*
X804070Y67871D01*
X803172Y66527D01*
X802857Y64941D01*
X803172Y63355D01*
X804070Y62011D01*
X805415Y61113D01*
X807000Y60798D01*
X808586Y61113D01*
X809930Y62011D01*
X810828Y63355D01*
X811144Y64941D01*
X810828Y66527D01*
X809930Y67871D01*
X808586Y68769D01*
X807000Y69085D01*
D02*
G37*
G36*
X499999Y67144D02*
X498413Y66828D01*
X497069Y65930D01*
X496171Y64586D01*
X495855Y63000D01*
X496171Y61414D01*
X497069Y60070D01*
X498413Y59172D01*
X499999Y58856D01*
X501585Y59172D01*
X502929Y60070D01*
X503827Y61414D01*
X504143Y63000D01*
X503827Y64586D01*
X502929Y65930D01*
X501585Y66828D01*
X499999Y67144D01*
D02*
G37*
G36*
X448000Y55144D02*
X446414Y54828D01*
X445070Y53930D01*
X444764Y53472D01*
X443236D01*
X442930Y53930D01*
X441586Y54828D01*
X440000Y55144D01*
X438414Y54828D01*
X437338Y54109D01*
X436500Y54002D01*
X435662Y54109D01*
X434586Y54828D01*
X433000Y55144D01*
X431414Y54828D01*
X430070Y53930D01*
X429172Y52586D01*
X428856Y51000D01*
X429172Y49414D01*
X430070Y48070D01*
X431414Y47172D01*
X433000Y46856D01*
X434586Y47172D01*
X435662Y47891D01*
X436500Y47997D01*
X437338Y47891D01*
X438414Y47172D01*
X440000Y46856D01*
X441586Y47172D01*
X442930Y48070D01*
X443236Y48528D01*
X444764D01*
X445070Y48070D01*
X446414Y47172D01*
X448000Y46856D01*
X449586Y47172D01*
X450930Y48070D01*
X451828Y49414D01*
X452144Y51000D01*
X451828Y52586D01*
X450930Y53930D01*
X449586Y54828D01*
X448000Y55144D01*
D02*
G37*
G36*
X1172250Y67846D02*
X1169961Y67544D01*
X1167827Y66661D01*
X1165995Y65255D01*
X1164589Y63423D01*
X1163706Y61289D01*
X1163404Y59000D01*
X1163706Y56711D01*
X1164589Y54577D01*
X1165995Y52745D01*
X1167827Y51339D01*
X1169961Y50456D01*
X1172250Y50154D01*
X1174539Y50456D01*
X1176673Y51339D01*
X1178505Y52745D01*
X1179911Y54577D01*
X1180794Y56711D01*
X1181096Y59000D01*
X1180794Y61289D01*
X1179911Y63423D01*
X1178505Y65255D01*
X1176673Y66661D01*
X1174539Y67544D01*
X1172250Y67846D01*
D02*
G37*
G36*
X1007750D02*
X1005461Y67544D01*
X1003327Y66661D01*
X1001495Y65255D01*
X1000089Y63423D01*
X999206Y61289D01*
X998904Y59000D01*
X999206Y56711D01*
X1000089Y54577D01*
X1001495Y52745D01*
X1003327Y51339D01*
X1005461Y50456D01*
X1007750Y50154D01*
X1010039Y50456D01*
X1012173Y51339D01*
X1014005Y52745D01*
X1015411Y54577D01*
X1016294Y56711D01*
X1016596Y59000D01*
X1016294Y61289D01*
X1015411Y63423D01*
X1014005Y65255D01*
X1012173Y66661D01*
X1010039Y67544D01*
X1007750Y67846D01*
D02*
G37*
G36*
X514000Y57144D02*
X512414Y56828D01*
X511070Y55930D01*
X510172Y54586D01*
X509856Y53000D01*
X510172Y51414D01*
X511070Y50070D01*
X512414Y49172D01*
X514000Y48856D01*
X515586Y49172D01*
X516930Y50070D01*
X517828Y51414D01*
X518144Y53000D01*
X517828Y54586D01*
X516930Y55930D01*
X515586Y56828D01*
X514000Y57144D01*
D02*
G37*
G36*
X863000Y53019D02*
X861414Y52704D01*
X860070Y51806D01*
X859172Y50461D01*
X858856Y48876D01*
X859172Y47290D01*
X860070Y45946D01*
X861414Y45047D01*
X863000Y44732D01*
X864586Y45047D01*
X865930Y45946D01*
X866828Y47290D01*
X867144Y48876D01*
X866828Y50461D01*
X865930Y51806D01*
X864586Y52704D01*
X863000Y53019D01*
D02*
G37*
G36*
X1107500Y51144D02*
X1105914Y50828D01*
X1104570Y49930D01*
X1103672Y48586D01*
X1103356Y47000D01*
X1103672Y45415D01*
X1104570Y44070D01*
X1105914Y43172D01*
X1107500Y42856D01*
X1109086Y43172D01*
X1110430Y44070D01*
X1111328Y45415D01*
X1111644Y47000D01*
X1111328Y48586D01*
X1110430Y49930D01*
X1109086Y50828D01*
X1107500Y51144D01*
D02*
G37*
G36*
X885500Y50330D02*
X883915Y50015D01*
X882570Y49116D01*
X881672Y47772D01*
X881357Y46186D01*
X881672Y44601D01*
X882570Y43256D01*
X883915Y42358D01*
X885500Y42043D01*
X887086Y42358D01*
X888430Y43256D01*
X889329Y44601D01*
X889644Y46186D01*
X889329Y47772D01*
X888430Y49116D01*
X887086Y50015D01*
X885500Y50330D01*
D02*
G37*
G36*
X778166Y50144D02*
X776580Y49828D01*
X775236Y48930D01*
X774337Y47586D01*
X774022Y46000D01*
X774337Y44414D01*
X775236Y43070D01*
X776580Y42172D01*
X778166Y41856D01*
X779751Y42172D01*
X781096Y43070D01*
X781994Y44414D01*
X782309Y46000D01*
X781994Y47586D01*
X781096Y48930D01*
X779751Y49828D01*
X778166Y50144D01*
D02*
G37*
G36*
X363000Y47144D02*
X361414Y46828D01*
X360070Y45930D01*
X359172Y44586D01*
X358856Y43000D01*
X359172Y41414D01*
X360070Y40070D01*
X361414Y39172D01*
X363000Y38856D01*
X364586Y39172D01*
X365930Y40070D01*
X366828Y41414D01*
X367144Y43000D01*
X366828Y44586D01*
X365930Y45930D01*
X364586Y46828D01*
X363000Y47144D01*
D02*
G37*
G36*
X1220000Y98867D02*
X1215093Y98481D01*
X1210307Y97331D01*
X1205760Y95448D01*
X1201563Y92876D01*
X1197821Y89680D01*
X1194624Y85937D01*
X1192052Y81740D01*
X1190169Y77193D01*
X1189020Y72407D01*
X1188633Y67500D01*
X1189020Y62593D01*
X1190169Y57807D01*
X1192052Y53260D01*
X1194624Y49063D01*
X1197821Y45320D01*
X1201563Y42124D01*
X1205760Y39552D01*
X1210307Y37668D01*
X1215093Y36519D01*
X1220000Y36133D01*
X1224907Y36519D01*
X1229693Y37668D01*
X1234240Y39552D01*
X1238437Y42124D01*
X1242180Y45320D01*
X1245376Y49063D01*
X1247948Y53260D01*
X1249832Y57807D01*
X1250981Y62593D01*
X1251367Y67500D01*
X1250981Y72407D01*
X1249832Y77193D01*
X1247948Y81740D01*
X1245376Y85937D01*
X1242180Y89680D01*
X1238437Y92876D01*
X1234240Y95448D01*
X1229693Y97331D01*
X1224907Y98481D01*
X1220000Y98867D01*
D02*
G37*
G36*
X700000D02*
X695093Y98481D01*
X690307Y97331D01*
X685760Y95448D01*
X681563Y92876D01*
X677821Y89680D01*
X674624Y85937D01*
X672052Y81740D01*
X670169Y77193D01*
X669020Y72407D01*
X668633Y67500D01*
X669020Y62593D01*
X670169Y57807D01*
X672052Y53260D01*
X674624Y49063D01*
X677821Y45320D01*
X681563Y42124D01*
X685760Y39552D01*
X690307Y37668D01*
X695093Y36519D01*
X700000Y36133D01*
X704907Y36519D01*
X709693Y37668D01*
X714240Y39552D01*
X718437Y42124D01*
X722180Y45320D01*
X725376Y49063D01*
X727948Y53260D01*
X729832Y57807D01*
X730981Y62593D01*
X731367Y67500D01*
X730981Y72407D01*
X729832Y77193D01*
X727948Y81740D01*
X725376Y85937D01*
X722180Y89680D01*
X718437Y92876D01*
X714240Y95448D01*
X709693Y97331D01*
X704907Y98481D01*
X700000Y98867D01*
D02*
G37*
G36*
X580000D02*
X575093Y98481D01*
X570307Y97331D01*
X565760Y95448D01*
X561563Y92876D01*
X557820Y89680D01*
X554624Y85937D01*
X552052Y81740D01*
X550168Y77193D01*
X549019Y72407D01*
X548633Y67500D01*
X549019Y62593D01*
X550168Y57807D01*
X552052Y53260D01*
X554624Y49063D01*
X557820Y45320D01*
X561563Y42124D01*
X565760Y39552D01*
X570307Y37668D01*
X573672Y36861D01*
X573916Y35496D01*
X573069Y34930D01*
X572171Y33586D01*
X571855Y32000D01*
X572171Y30414D01*
X573069Y29070D01*
X574413Y28172D01*
X575552Y27945D01*
X576152Y26891D01*
X576194Y26621D01*
X576171Y26586D01*
X575855Y25000D01*
X576171Y23414D01*
X577069Y22070D01*
X578413Y21172D01*
X579999Y20856D01*
X581585Y21172D01*
X582929Y22070D01*
X583827Y23414D01*
X584142Y25000D01*
X583827Y26586D01*
X582929Y27930D01*
X581585Y28828D01*
X580446Y29055D01*
X579846Y30109D01*
X579803Y30379D01*
X579827Y30414D01*
X580143Y32000D01*
X579827Y33586D01*
X578929Y34930D01*
X578905Y34945D01*
X579336Y36186D01*
X580000Y36133D01*
X584907Y36519D01*
X589693Y37668D01*
X594240Y39552D01*
X598437Y42124D01*
X602179Y45320D01*
X605376Y49063D01*
X607948Y53260D01*
X609831Y57807D01*
X610980Y62593D01*
X611367Y67500D01*
X610980Y72407D01*
X609831Y77193D01*
X607948Y81740D01*
X605376Y85937D01*
X602179Y89680D01*
X598437Y92876D01*
X594240Y95448D01*
X589693Y97331D01*
X584907Y98481D01*
X580000Y98867D01*
D02*
G37*
G36*
X60000D02*
X55093Y98481D01*
X50307Y97331D01*
X45760Y95448D01*
X41563Y92876D01*
X37820Y89680D01*
X34624Y85937D01*
X32052Y81740D01*
X30168Y77193D01*
X29019Y72407D01*
X28633Y67500D01*
X29019Y62593D01*
X30168Y57807D01*
X32052Y53260D01*
X34624Y49063D01*
X37820Y45320D01*
X41563Y42124D01*
X45760Y39552D01*
X50307Y37668D01*
X55093Y36519D01*
X60000Y36133D01*
X64907Y36519D01*
X69693Y37668D01*
X74240Y39552D01*
X78437Y42124D01*
X82179Y45320D01*
X85376Y49063D01*
X87948Y53260D01*
X89831Y57807D01*
X90980Y62593D01*
X91367Y67500D01*
X90980Y72407D01*
X89831Y77193D01*
X87948Y81740D01*
X85376Y85937D01*
X82179Y89680D01*
X78437Y92876D01*
X74240Y95448D01*
X69693Y97331D01*
X64907Y98481D01*
X60000Y98867D01*
D02*
G37*
G36*
X504500Y43643D02*
X502915Y43328D01*
X501570Y42430D01*
X500672Y41085D01*
X500357Y39500D01*
X500672Y37914D01*
X501570Y36570D01*
X502915Y35671D01*
X504500Y35356D01*
X506086Y35671D01*
X507430Y36570D01*
X508329Y37914D01*
X508644Y39500D01*
X508329Y41085D01*
X507430Y42430D01*
X506086Y43328D01*
X504500Y43643D01*
D02*
G37*
G36*
X739000Y46144D02*
X737415Y45829D01*
X736070Y44930D01*
X735172Y43586D01*
X734857Y42000D01*
X735172Y40415D01*
X736070Y39070D01*
X737415Y38172D01*
X739000Y37857D01*
X740586Y38172D01*
X740800Y38315D01*
X741715Y37399D01*
X741172Y36586D01*
X740856Y35000D01*
X741172Y33414D01*
X742070Y32070D01*
X743414Y31172D01*
X745000Y30856D01*
X746586Y31172D01*
X747930Y32070D01*
X748828Y33414D01*
X749144Y35000D01*
X748828Y36586D01*
X747930Y37930D01*
X746586Y38828D01*
X745000Y39144D01*
X743414Y38828D01*
X743201Y38685D01*
X742285Y39601D01*
X742829Y40415D01*
X743144Y42000D01*
X742829Y43586D01*
X741930Y44930D01*
X740586Y45829D01*
X739000Y46144D01*
D02*
G37*
G36*
X838000Y38144D02*
X836414Y37828D01*
X835070Y36930D01*
X834172Y35586D01*
X833856Y34000D01*
X834172Y32414D01*
X835070Y31070D01*
X836414Y30172D01*
X838000Y29856D01*
X839586Y30172D01*
X840930Y31070D01*
X841828Y32414D01*
X842144Y34000D01*
X841828Y35586D01*
X840930Y36930D01*
X839586Y37828D01*
X838000Y38144D01*
D02*
G37*
G36*
X778413Y36896D02*
X776828Y36581D01*
X775483Y35682D01*
X774585Y34338D01*
X774270Y32752D01*
X774585Y31167D01*
X775483Y29822D01*
X776828Y28924D01*
X778413Y28609D01*
X779999Y28924D01*
X781343Y29822D01*
X782242Y31167D01*
X782557Y32752D01*
X782242Y34338D01*
X781343Y35682D01*
X779999Y36581D01*
X778413Y36896D01*
D02*
G37*
G36*
X847000Y30144D02*
X845414Y29828D01*
X844070Y28930D01*
X843172Y27586D01*
X842856Y26000D01*
X843172Y24414D01*
X844070Y23070D01*
X845414Y22172D01*
X847000Y21856D01*
X848586Y22172D01*
X849930Y23070D01*
X850828Y24414D01*
X851144Y26000D01*
X850828Y27586D01*
X849930Y28930D01*
X848586Y29828D01*
X847000Y30144D01*
D02*
G37*
G36*
X928000Y16144D02*
X926414Y15828D01*
X925070Y14930D01*
X924172Y13586D01*
X923857Y12000D01*
X924172Y10414D01*
X925070Y9070D01*
X926414Y8172D01*
X928000Y7856D01*
X929586Y8172D01*
X930930Y9070D01*
X931828Y10414D01*
X932144Y12000D01*
X931828Y13586D01*
X930930Y14930D01*
X929586Y15828D01*
X928000Y16144D01*
D02*
G37*
%LPD*%
D13*
X0Y0D02*
X1280000D01*
Y540000D01*
X0D02*
X1280000D01*
X0Y0D02*
Y540000D01*
D85*
X980800Y376291D02*
D03*
X955400D02*
D03*
X245400D02*
D03*
X1158400Y375650D02*
D03*
D88*
X1169000Y120000D02*
D03*
X1179998Y156000D02*
D03*
X238000Y300000D02*
D03*
X142000Y126000D02*
D03*
X347775Y323000D02*
D03*
X644392Y395553D02*
D03*
X680000Y370641D02*
D03*
X145000Y157000D02*
D03*
X926586Y242648D02*
D03*
X933017D02*
D03*
X925295Y156000D02*
D03*
X900000Y168429D02*
D03*
X1000746Y460000D02*
D03*
X762624Y259024D02*
D03*
X340525Y169525D02*
D03*
X380525Y168429D02*
D03*
X641036Y128334D02*
D03*
X389586Y238260D02*
D03*
X385000Y242000D02*
D03*
X514000Y442500D02*
D03*
X744262Y25514D02*
D03*
X781000Y215000D02*
D03*
X1076000Y144313D02*
D03*
X459601Y455000D02*
D03*
X589000Y375000D02*
D03*
X801780Y439220D02*
D03*
X1142037Y437000D02*
D03*
X644392Y389392D02*
D03*
X610000Y397000D02*
D03*
X920230Y39252D02*
D03*
X362000Y219000D02*
D03*
X196250Y450328D02*
D03*
X283750Y451142D02*
D03*
X293750Y475750D02*
D03*
X206250Y476750D02*
D03*
X355000Y225000D02*
D03*
X302000Y331250D02*
D03*
X1119000Y148000D02*
D03*
X218000Y208000D02*
D03*
X582500Y267001D02*
D03*
X646350Y240000D02*
D03*
X697150Y219680D02*
D03*
X491500Y111500D02*
D03*
X885500Y112500D02*
D03*
X372500Y15500D02*
D03*
X531500Y15500D02*
D03*
X170250Y127000D02*
D03*
X171000Y181000D02*
D03*
X627000Y169000D02*
D03*
X1047000Y456000D02*
D03*
X1040941Y259648D02*
D03*
X1066500Y265000D02*
D03*
X920750Y218500D02*
D03*
X936880Y461493D02*
D03*
X438000Y92059D02*
D03*
X444971D02*
D03*
X819000Y91000D02*
D03*
X825971D02*
D03*
X1146250Y66561D02*
D03*
Y73750D02*
D03*
M02*
